mtllib Materials.mtl
# Ultimate Food Pack - Apple_Green
o Apple_Green
v 0.305060 0.164504 0.000000
v 0.190997 0.185536 0.000000
v 0.269408 0.205187 0.088250
v 0.190997 0.185536 0.000000
v 0.000006 0.195096 0.000000
v 0.103067 0.194324 0.100331
v -0.314415 0.162368 0.000000
v -0.196320 0.181188 0.000000
v -0.280871 0.199840 -0.088250
v -0.196320 0.181188 0.000000
v 0.000006 0.195096 0.000000
v -0.102991 0.194324 -0.100331
v 0.000042 0.161848 0.306685
v 0.000039 0.180948 0.191030
v -0.090368 0.202874 0.273821
v 0.000039 0.180948 0.191030
v 0.000006 0.195096 0.000000
v -0.102991 0.194324 0.100331
v 0.000042 0.161847 -0.306685
v 0.000039 0.180948 -0.191030
v 0.090477 0.202874 -0.273821
v 0.000039 0.180948 -0.191030
v 0.000006 0.195096 0.000000
v 0.103067 0.194324 -0.100331
v 0.000006 0.195096 0.000000
v 0.190997 0.185536 0.000000
v 0.103067 0.194324 -0.100331
v 0.190997 0.185536 0.000000
v 0.305060 0.164504 0.000000
v 0.272502 0.203680 -0.088250
v 0.000006 0.195096 0.000000
v -0.196320 0.181188 0.000000
v -0.102991 0.194324 0.100331
v -0.196320 0.181188 0.000000
v -0.314415 0.162368 0.000000
v -0.280871 0.199840 0.088250
v 0.000006 0.195096 0.000000
v 0.000039 0.180948 0.191030
v 0.103067 0.194324 0.100331
v 0.000039 0.180948 0.191030
v 0.000042 0.161848 0.306685
v 0.090477 0.202874 0.273821
v 0.000006 0.195096 0.000000
v 0.000039 0.180948 -0.191030
v -0.102991 0.194324 -0.100331
v 0.000039 0.180948 -0.191030
v 0.000042 0.161847 -0.306685
v -0.090368 0.202874 -0.273821
v -0.239644 -0.169758 0.246451
v -0.303922 0.032361 0.302168
v -0.389374 0.031408 0.164226
v -0.304952 -0.169703 0.134404
v -0.389374 0.031408 -0.164226
v -0.304952 -0.169703 -0.134404
v -0.321752 -0.164882 0.000000
v -0.401197 0.035395 0.000000
v -0.210036 -0.314072 0.000000
v -0.321752 -0.164882 0.000000
v -0.304952 -0.169703 -0.134404
v -0.196009 -0.314053 -0.089839
v -0.210036 -0.314072 0.000000
v -0.196009 -0.314053 0.089839
v -0.304952 -0.169703 0.134404
v -0.321752 -0.164882 0.000000
v -0.365943 0.148914 0.000000
v -0.342486 0.179753 -0.135792
v -0.389374 0.031408 -0.164226
v -0.401197 0.035395 0.000000
v -0.365943 0.148914 0.000000
v -0.401197 0.035395 0.000000
v -0.389374 0.031408 0.164226
v -0.342486 0.179753 0.135792
v -0.303922 0.032360 -0.302168
v -0.239644 -0.169758 -0.246451
v -0.304952 -0.169703 -0.134404
v -0.389374 0.031408 -0.164226
v -0.130778 -0.169928 -0.313833
v -0.165375 0.031722 -0.387599
v 0.000029 0.035875 -0.399352
v 0.000006 -0.164919 -0.330917
v -0.342486 0.179753 -0.135792
v -0.257988 0.205579 -0.252441
v -0.303922 0.032360 -0.302168
v -0.389374 0.031408 -0.164226
v -0.138638 0.184780 -0.334804
v -0.165375 0.031722 -0.387599
v -0.303922 0.032360 -0.302168
v -0.257988 0.205579 -0.252441
v -0.196009 -0.314053 -0.089839
v -0.304952 -0.169703 -0.134404
v -0.239644 -0.169758 -0.246451
v -0.154013 -0.314058 -0.164711
v -0.304952 -0.169703 0.134404
v -0.389374 0.031408 0.164226
v -0.401197 0.035395 0.000000
v -0.321752 -0.164882 0.000000
v -0.303922 0.032360 -0.302168
v -0.165375 0.031722 -0.387599
v -0.130778 -0.169928 -0.313833
v -0.239644 -0.169758 -0.246451
v 0.165484 0.031722 -0.387599
v 0.130807 -0.169928 -0.313833
v 0.000006 -0.164919 -0.330917
v 0.000029 0.035875 -0.399352
v 0.000000 -0.314292 -0.224951
v 0.000006 -0.164919 -0.330917
v 0.130807 -0.169928 -0.313833
v 0.084090 -0.314209 -0.209840
v 0.000000 -0.314292 -0.224951
v -0.084090 -0.314209 -0.209840
v -0.130778 -0.169928 -0.313833
v 0.000006 -0.164919 -0.330917
v 0.000035 0.147593 -0.358140
v 0.138747 0.184780 -0.334804
v 0.165484 0.031722 -0.387599
v 0.000029 0.035875 -0.399352
v 0.000035 0.147593 -0.358140
v 0.000029 0.035875 -0.399352
v -0.165375 0.031722 -0.387599
v -0.138638 0.184780 -0.334804
v 0.304031 0.032360 -0.302168
v 0.239672 -0.169758 -0.246451
v 0.130807 -0.169928 -0.313833
v 0.165484 0.031722 -0.387599
v 0.304980 -0.169703 -0.134404
v 0.389482 0.031408 -0.164226
v 0.401255 0.035395 0.000000
v 0.321764 -0.164882 0.000000
v 0.138747 0.184780 -0.334804
v 0.258097 0.205579 -0.252441
v 0.304031 0.032360 -0.302168
v 0.165484 0.031722 -0.387599
v 0.342417 0.179776 -0.135792
v 0.389482 0.031408 -0.164226
v 0.304031 0.032360 -0.302168
v 0.258097 0.205579 -0.252441
v 0.084090 -0.314209 -0.209840
v 0.130807 -0.169928 -0.313833
v 0.239672 -0.169758 -0.246451
v 0.154013 -0.314058 -0.164711
v -0.196009 -0.314053 0.089839
v -0.154013 -0.314058 0.164711
v -0.239644 -0.169758 0.246451
v -0.304952 -0.169703 0.134404
v 0.304031 0.032360 -0.302168
v 0.389482 0.031408 -0.164226
v 0.304980 -0.169703 -0.134404
v 0.239672 -0.169758 -0.246451
v 0.389482 0.031408 0.164226
v 0.304980 -0.169703 0.134404
v 0.321764 -0.164882 0.000000
v 0.401255 0.035395 0.000000
v 0.210036 -0.314072 0.000000
v 0.321764 -0.164882 0.000000
v 0.304980 -0.169703 0.134404
v 0.196009 -0.314053 0.089839
v 0.210036 -0.314072 0.000000
v 0.196009 -0.314053 -0.089839
v 0.304980 -0.169703 -0.134404
v 0.321764 -0.164882 0.000000
v 0.363358 0.148870 0.000000
v 0.341276 0.179925 0.135792
v 0.389482 0.031408 0.164226
v 0.401255 0.035395 0.000000
v 0.363358 0.148870 0.000000
v 0.401255 0.035395 0.000000
v 0.389482 0.031408 -0.164226
v 0.342417 0.179776 -0.135792
v 0.304031 0.032361 0.302168
v 0.239672 -0.169758 0.246451
v 0.304980 -0.169703 0.134404
v 0.389482 0.031408 0.164226
v 0.130807 -0.169928 0.313833
v 0.165484 0.031722 0.387599
v 0.000029 0.035875 0.399352
v 0.000006 -0.164919 0.330917
v 0.341276 0.179925 0.135792
v 0.258097 0.205579 0.252440
v 0.304031 0.032361 0.302168
v 0.389482 0.031408 0.164226
v 0.138747 0.184781 0.334804
v 0.165484 0.031722 0.387599
v 0.304031 0.032361 0.302168
v 0.258097 0.205579 0.252440
v 0.196009 -0.314053 0.089839
v 0.304980 -0.169703 0.134404
v 0.239672 -0.169758 0.246451
v 0.154013 -0.314058 0.164711
v -0.084090 -0.314209 -0.209840
v -0.154013 -0.314058 -0.164711
v -0.239644 -0.169758 -0.246451
v -0.130778 -0.169928 -0.313833
v 0.304031 0.032361 0.302168
v 0.165484 0.031722 0.387599
v 0.130807 -0.169928 0.313833
v 0.239672 -0.169758 0.246451
v -0.165375 0.031722 0.387599
v -0.130778 -0.169928 0.313833
v 0.000006 -0.164919 0.330917
v 0.000029 0.035875 0.399352
v 0.000000 -0.314292 0.224951
v 0.000006 -0.164919 0.330917
v -0.130778 -0.169928 0.313833
v -0.084090 -0.314209 0.209840
v 0.000000 -0.314292 0.224951
v 0.084090 -0.314209 0.209840
v 0.130807 -0.169928 0.313833
v 0.000006 -0.164919 0.330917
v 0.000035 0.147593 0.358141
v -0.138638 0.184781 0.334804
v -0.165375 0.031722 0.387599
v 0.000029 0.035875 0.399352
v 0.000035 0.147593 0.358141
v 0.000029 0.035875 0.399352
v 0.165484 0.031722 0.387599
v 0.138747 0.184781 0.334804
v -0.239644 -0.169758 0.246451
v -0.130778 -0.169928 0.313833
v -0.165375 0.031722 0.387599
v -0.303922 0.032361 0.302168
v -0.342486 0.179753 0.135792
v -0.389374 0.031408 0.164226
v -0.303922 0.032361 0.302168
v -0.257988 0.205579 0.252440
v -0.138638 0.184781 0.334804
v -0.257988 0.205579 0.252440
v -0.303922 0.032361 0.302168
v -0.165375 0.031722 0.387599
v -0.084090 -0.314209 0.209840
v -0.130778 -0.169928 0.313833
v -0.239644 -0.169758 0.246451
v -0.154013 -0.314058 0.164711
v 0.196009 -0.314053 -0.089839
v 0.154013 -0.314058 -0.164711
v 0.239672 -0.169758 -0.246451
v 0.304980 -0.169703 -0.134404
v 0.000000 -0.394196 0.000000
v -0.050668 -0.393237 0.000000
v -0.048185 -0.390884 -0.052333
v 0.000000 -0.393058 -0.054989
v 0.000000 -0.393058 -0.054989
v -0.048185 -0.390884 -0.052333
v -0.047659 -0.385248 -0.100396
v 0.000000 -0.387303 -0.106050
v -0.050668 -0.393237 0.000000
v -0.097633 -0.387281 0.000000
v -0.092435 -0.385242 -0.051761
v -0.048185 -0.390884 -0.052333
v -0.048185 -0.390884 -0.052333
v -0.092435 -0.385242 -0.051761
v -0.081409 -0.381227 -0.088419
v -0.047659 -0.385248 -0.100396
v 0.000000 -0.394196 0.000000
v 0.000000 -0.393058 -0.054989
v 0.048185 -0.390884 -0.052333
v 0.050668 -0.393237 0.000000
v 0.050668 -0.393237 0.000000
v 0.048185 -0.390884 -0.052333
v 0.092435 -0.385242 -0.051761
v 0.097633 -0.387281 0.000000
v 0.000000 -0.393058 -0.054989
v 0.000000 -0.387303 -0.106050
v 0.047659 -0.385248 -0.100396
v 0.048185 -0.390884 -0.052333
v 0.048185 -0.390884 -0.052333
v 0.047659 -0.385248 -0.100396
v 0.081409 -0.381227 -0.088419
v 0.092435 -0.385242 -0.051761
v 0.000000 -0.394196 0.000000
v 0.050668 -0.393237 0.000000
v 0.048185 -0.390884 0.052334
v 0.000000 -0.393058 0.054989
v 0.000000 -0.393058 0.054989
v 0.048185 -0.390884 0.052334
v 0.047659 -0.385248 0.100396
v 0.000000 -0.387303 0.106050
v 0.050668 -0.393237 0.000000
v 0.097633 -0.387281 0.000000
v 0.092435 -0.385242 0.051761
v 0.048185 -0.390884 0.052334
v 0.048185 -0.390884 0.052334
v 0.092435 -0.385242 0.051761
v 0.081409 -0.381227 0.088419
v 0.047659 -0.385248 0.100396
v 0.000000 -0.394196 0.000000
v 0.000000 -0.393058 0.054989
v -0.048185 -0.390884 0.052334
v -0.050668 -0.393237 0.000000
v -0.050668 -0.393237 0.000000
v -0.048185 -0.390884 0.052334
v -0.092435 -0.385242 0.051761
v -0.097633 -0.387281 0.000000
v 0.000000 -0.393058 0.054989
v 0.000000 -0.387303 0.106050
v -0.047659 -0.385248 0.100396
v -0.048185 -0.390884 0.052334
v -0.048185 -0.390884 0.052334
v -0.047659 -0.385248 0.100396
v -0.081409 -0.381227 0.088419
v -0.092435 -0.385242 0.051761
v 0.305060 0.164504 0.000000
v 0.269408 0.205187 0.088250
v 0.341276 0.179925 0.135792
v 0.363358 0.148870 0.000000
v 0.269408 0.205187 0.088250
v 0.196887 0.242410 0.191967
v 0.258097 0.205579 0.252440
v 0.341276 0.179925 0.135792
v 0.305060 0.164504 0.000000
v 0.363358 0.148870 0.000000
v 0.342417 0.179776 -0.135792
v 0.272502 0.203680 -0.088250
v 0.272502 0.203680 -0.088250
v 0.342417 0.179776 -0.135792
v 0.258097 0.205579 -0.252441
v 0.196887 0.242410 -0.191967
v 0.269408 0.205187 0.088250
v 0.190997 0.185536 0.000000
v 0.103067 0.194324 0.100331
v 0.196887 0.242410 0.191967
v 0.272502 0.203680 -0.088250
v 0.196887 0.242410 -0.191967
v 0.103067 0.194324 -0.100331
v 0.190997 0.185536 0.000000
v 0.154013 -0.314058 0.164711
v 0.084090 -0.314209 0.209840
v 0.055568 -0.374239 0.138622
v 0.101326 -0.372858 0.110050
v -0.084090 -0.314209 0.209840
v -0.055568 -0.374239 0.138622
v 0.000000 -0.375517 0.147569
v 0.000000 -0.314292 0.224951
v 0.000000 -0.375517 0.147569
v 0.000000 -0.387303 0.106050
v 0.047659 -0.385248 0.100396
v 0.055568 -0.374239 0.138622
v 0.055568 -0.374239 0.138622
v 0.047659 -0.385248 0.100396
v 0.081409 -0.381227 0.088419
v 0.101326 -0.372858 0.110050
v -0.101326 -0.372858 0.110050
v -0.055568 -0.374239 0.138622
v -0.084090 -0.314209 0.209840
v -0.154013 -0.314058 0.164711
v 0.127542 -0.374089 -0.060310
v 0.196009 -0.314053 -0.089839
v 0.210036 -0.314072 0.000000
v 0.135737 -0.375306 0.000000
v 0.000000 -0.375517 0.147569
v -0.055568 -0.374239 0.138622
v -0.047659 -0.385248 0.100396
v 0.000000 -0.387303 0.106050
v -0.055568 -0.374239 0.138622
v -0.101326 -0.372858 0.110050
v -0.081409 -0.381227 0.088419
v -0.047659 -0.385248 0.100396
v 0.154013 -0.314058 -0.164711
v 0.196009 -0.314053 -0.089839
v 0.127542 -0.374089 -0.060310
v 0.101326 -0.372858 -0.110050
v 0.196009 -0.314053 0.089839
v 0.127542 -0.374089 0.060310
v 0.135737 -0.375306 0.000000
v 0.210036 -0.314072 0.000000
v 0.135737 -0.375306 0.000000
v 0.097633 -0.387281 0.000000
v 0.092435 -0.385242 -0.051761
v 0.127542 -0.374089 -0.060310
v 0.127542 -0.374089 -0.060310
v 0.092435 -0.385242 -0.051761
v 0.081409 -0.381227 -0.088419
v 0.101326 -0.372858 -0.110050
v 0.154013 -0.314058 0.164711
v 0.101326 -0.372858 0.110050
v 0.127542 -0.374089 0.060310
v 0.196009 -0.314053 0.089839
v -0.055568 -0.374239 -0.138622
v -0.084090 -0.314209 -0.209840
v 0.000000 -0.314292 -0.224951
v 0.000000 -0.375517 -0.147569
v 0.135737 -0.375306 0.000000
v 0.127542 -0.374089 0.060310
v 0.092435 -0.385242 0.051761
v 0.097633 -0.387281 0.000000
v 0.127542 -0.374089 0.060310
v 0.101326 -0.372858 0.110050
v 0.081409 -0.381227 0.088419
v 0.092435 -0.385242 0.051761
v -0.154013 -0.314058 -0.164711
v -0.084090 -0.314209 -0.209840
v -0.055568 -0.374239 -0.138622
v -0.101326 -0.372858 -0.110050
v 0.084090 -0.314209 -0.209840
v 0.055568 -0.374239 -0.138622
v 0.000000 -0.375517 -0.147569
v 0.000000 -0.314292 -0.224951
v 0.000000 -0.375517 -0.147569
v 0.000000 -0.387303 -0.106050
v -0.047659 -0.385248 -0.100396
v -0.055568 -0.374239 -0.138622
v -0.055568 -0.374239 -0.138622
v -0.047659 -0.385248 -0.100396
v -0.081409 -0.381227 -0.088419
v -0.101326 -0.372858 -0.110050
v 0.154013 -0.314058 -0.164711
v 0.101326 -0.372858 -0.110050
v 0.055568 -0.374239 -0.138622
v 0.084090 -0.314209 -0.209840
v -0.127542 -0.374089 0.060310
v -0.196009 -0.314053 0.089839
v -0.210036 -0.314072 0.000000
v -0.135737 -0.375306 0.000000
v 0.000000 -0.375517 -0.147569
v 0.055568 -0.374239 -0.138622
v 0.047659 -0.385248 -0.100396
v 0.000000 -0.387303 -0.106050
v 0.055568 -0.374239 -0.138622
v 0.101326 -0.372858 -0.110050
v 0.081409 -0.381227 -0.088419
v 0.047659 -0.385248 -0.100396
v -0.101326 -0.372858 0.110050
v -0.154013 -0.314058 0.164711
v -0.196009 -0.314053 0.089839
v -0.127542 -0.374089 0.060310
v -0.196009 -0.314053 -0.089839
v -0.127542 -0.374089 -0.060310
v -0.135737 -0.375306 0.000000
v -0.210036 -0.314072 0.000000
v -0.135737 -0.375306 0.000000
v -0.097633 -0.387281 0.000000
v -0.092435 -0.385242 0.051761
v -0.127542 -0.374089 0.060310
v -0.127542 -0.374089 0.060310
v -0.092435 -0.385242 0.051761
v -0.081409 -0.381227 0.088419
v -0.101326 -0.372858 0.110050
v -0.154013 -0.314058 -0.164711
v -0.101326 -0.372858 -0.110050
v -0.127542 -0.374089 -0.060310
v -0.196009 -0.314053 -0.089839
v 0.084090 -0.314209 0.209840
v 0.154013 -0.314058 0.164711
v 0.239672 -0.169758 0.246451
v 0.130807 -0.169928 0.313833
v -0.135737 -0.375306 0.000000
v -0.127542 -0.374089 -0.060310
v -0.092435 -0.385242 -0.051761
v -0.097633 -0.387281 0.000000
v -0.127542 -0.374089 -0.060310
v -0.101326 -0.372858 -0.110050
v -0.081409 -0.381227 -0.088419
v -0.092435 -0.385242 -0.051761
v -0.314415 0.162368 0.000000
v -0.280871 0.199840 -0.088250
v -0.342486 0.179753 -0.135792
v -0.365943 0.148914 0.000000
v -0.280871 0.199840 -0.088250
v -0.196778 0.242410 -0.191967
v -0.257988 0.205579 -0.252441
v -0.342486 0.179753 -0.135792
v -0.314415 0.162368 0.000000
v -0.365943 0.148914 0.000000
v -0.342486 0.179753 0.135792
v -0.280871 0.199840 0.088250
v -0.280871 0.199840 0.088250
v -0.342486 0.179753 0.135792
v -0.257988 0.205579 0.252440
v -0.196778 0.242410 0.191967
v -0.280871 0.199840 -0.088250
v -0.196320 0.181188 0.000000
v -0.102991 0.194324 -0.100331
v -0.196778 0.242410 -0.191967
v -0.280871 0.199840 0.088250
v -0.196778 0.242410 0.191967
v -0.102991 0.194324 0.100331
v -0.196320 0.181188 0.000000
v 0.000042 0.161848 0.306685
v -0.090368 0.202874 0.273821
v -0.138638 0.184781 0.334804
v 0.000035 0.147593 0.358141
v -0.090368 0.202874 0.273821
v -0.196778 0.242410 0.191967
v -0.257988 0.205579 0.252440
v -0.138638 0.184781 0.334804
v 0.000042 0.161848 0.306685
v 0.000035 0.147593 0.358141
v 0.138747 0.184781 0.334804
v 0.090477 0.202874 0.273821
v 0.090477 0.202874 0.273821
v 0.138747 0.184781 0.334804
v 0.258097 0.205579 0.252440
v 0.196887 0.242410 0.191967
v -0.090368 0.202874 0.273821
v 0.000039 0.180948 0.191030
v -0.102991 0.194324 0.100331
v -0.196778 0.242410 0.191967
v 0.090477 0.202874 0.273821
v 0.196887 0.242410 0.191967
v 0.103067 0.194324 0.100331
v 0.000039 0.180948 0.191030
v 0.000042 0.161847 -0.306685
v 0.090477 0.202874 -0.273821
v 0.138747 0.184780 -0.334804
v 0.000035 0.147593 -0.358140
v 0.090477 0.202874 -0.273821
v 0.196887 0.242410 -0.191967
v 0.258097 0.205579 -0.252441
v 0.138747 0.184780 -0.334804
v 0.000042 0.161847 -0.306685
v 0.000035 0.147593 -0.358140
v -0.138638 0.184780 -0.334804
v -0.090368 0.202874 -0.273821
v -0.090368 0.202874 -0.273821
v -0.138638 0.184780 -0.334804
v -0.257988 0.205579 -0.252441
v -0.196778 0.242410 -0.191967
v 0.090477 0.202874 -0.273821
v 0.000039 0.180948 -0.191030
v 0.103067 0.194324 -0.100331
v 0.196887 0.242410 -0.191967
v -0.090368 0.202874 -0.273821
v -0.196778 0.242410 -0.191967
v -0.102991 0.194324 -0.100331
v 0.000039 0.180948 -0.191030
v 0.055568 -0.374239 0.138622
v 0.084090 -0.314209 0.209840
v 0.000000 -0.314292 0.224951
v 0.000000 -0.375517 0.147569
v 0.026998 0.347773 -0.021362
v 0.000659 0.226652 -0.023952
v -0.016073 0.226278 -0.018642
v 0.013691 0.351530 -0.016659
v 0.000659 0.226652 -0.023952
v -0.021250 0.193570 -0.023593
v -0.016073 0.226278 -0.018642
v 0.000486 0.193534 -0.030670
v 0.000428 0.181658 -0.033479
v -0.023389 0.181783 -0.025656
v 0.026998 0.347773 -0.021362
v 0.040341 0.343616 -0.016262
v 0.017403 0.227510 -0.018311
v 0.000659 0.226652 -0.023952
v 0.044663 0.341624 -0.001822
v 0.022915 0.227474 -0.001828
v 0.017403 0.227510 -0.018311
v 0.040341 0.343616 -0.016262
v 0.000659 0.226652 -0.023952
v 0.017403 0.227510 -0.018311
v 0.022235 0.193885 -0.023515
v 0.000486 0.193534 -0.030670
v 0.000428 0.181658 -0.033479
v 0.024258 0.181791 -0.025662
v 0.022915 0.227474 -0.001828
v 0.022235 0.193885 -0.023515
v 0.017403 0.227510 -0.018311
v 0.029380 0.193770 -0.001830
v 0.032105 0.181687 -0.001831
v 0.024258 0.181791 -0.025662
v 0.044663 0.341624 -0.001822
v 0.040306 0.343447 0.012599
v 0.017386 0.227432 0.014630
v 0.022915 0.227474 -0.001828
v 0.026977 0.347620 0.017704
v 0.000658 0.226584 0.020279
v 0.017386 0.227432 0.014630
v 0.040306 0.343447 0.012599
v 0.022915 0.227474 -0.001828
v 0.017386 0.227432 0.014630
v 0.022213 0.193839 0.019825
v 0.029380 0.193770 -0.001830
v 0.032105 0.181687 -0.001831
v 0.024234 0.181757 0.021969
v 0.000658 0.226584 0.020279
v 0.022213 0.193839 0.019825
v 0.017386 0.227432 0.014630
v 0.000485 0.193496 0.026991
v 0.000427 0.181614 0.029784
v 0.024234 0.181757 0.021969
v 0.026977 0.347620 0.017704
v 0.013682 0.351397 0.013022
v -0.016059 0.226202 0.014961
v 0.000658 0.226584 0.020279
v 0.000658 0.226584 0.020279
v -0.016059 0.226202 0.014961
v -0.021231 0.193525 0.019904
v 0.000485 0.193496 0.026991
v 0.000427 0.181614 0.029784
v -0.023367 0.181749 0.021964
v 0.044663 0.341624 -0.001822
v 0.040341 0.343616 -0.016262
v 0.064490 0.399484 -0.020372
v 0.069692 0.395860 -0.001813
v 0.044663 0.341624 -0.001822
v 0.069692 0.395860 -0.001813
v 0.064446 0.399313 0.016727
v 0.040306 0.343447 0.012599
v -0.031199 0.181631 -0.001828
v -0.023367 0.181749 0.021964
v -0.021231 0.193525 0.019904
v -0.028388 0.193334 -0.001828
v -0.021589 0.225839 -0.001828
v -0.016059 0.226202 0.014961
v 0.009260 0.352353 -0.001808
v 0.013682 0.351397 0.013022
v 0.032106 0.415920 0.016950
v 0.026729 0.418383 -0.001799
v 0.035560 0.450106 -0.001797
v 0.041768 0.446694 0.019963
v -0.031199 0.181631 -0.001828
v -0.021250 0.193570 -0.023593
v -0.023389 0.181783 -0.025656
v -0.028388 0.193334 -0.001828
v -0.021589 0.225839 -0.001828
v -0.016073 0.226278 -0.018642
v 0.009260 0.352353 -0.001808
v 0.013691 0.351530 -0.016659
v 0.032119 0.416026 -0.020565
v 0.026729 0.418383 -0.001799
v 0.035560 0.450106 -0.001797
v 0.041778 0.446765 -0.023567
v 0.060466 0.436324 0.027198
v 0.041768 0.446694 0.019963
v 0.032106 0.415920 0.016950
v 0.048253 0.407813 0.023070
v 0.026977 0.347620 0.017704
v 0.013682 0.351397 0.013022
v 0.060466 0.436324 0.027198
v 0.048253 0.407813 0.023070
v 0.064446 0.399313 0.016727
v 0.079240 0.425696 0.019919
v 0.060466 0.436324 0.027198
v 0.079240 0.425696 0.019919
v 0.079326 0.435080 0.015069
v 0.066250 0.445866 0.021699
v 0.060466 0.436324 0.027198
v 0.066250 0.445866 0.021699
v 0.050170 0.451373 0.015083
v 0.041768 0.446694 0.019963
v 0.026977 0.347620 0.017704
v 0.040306 0.343447 0.012599
v 0.064446 0.399313 0.016727
v 0.048253 0.407813 0.023070
v 0.026998 0.347773 -0.021362
v 0.013691 0.351530 -0.016659
v 0.032119 0.416026 -0.020565
v 0.048280 0.407956 -0.026705
v 0.060492 0.436445 -0.030822
v 0.041778 0.446765 -0.023567
v 0.026998 0.347773 -0.021362
v 0.048280 0.407956 -0.026705
v 0.064490 0.399484 -0.020372
v 0.040341 0.343616 -0.016262
v 0.068077 0.448613 -0.001799
v 0.086484 0.434024 -0.001804
v 0.079364 0.435217 -0.018690
v 0.066274 0.445973 -0.025312
v 0.068077 0.448613 -0.001799
v 0.066274 0.445973 -0.025312
v 0.050181 0.451439 -0.018684
v 0.045948 0.456991 -0.001797
v 0.068077 0.448613 -0.001799
v 0.045948 0.456991 -0.001797
v 0.050170 0.451373 0.015083
v 0.066250 0.445866 0.021699
v 0.068077 0.448613 -0.001799
v 0.066250 0.445866 0.021699
v 0.079326 0.435080 0.015069
v 0.086484 0.434024 -0.001804
v 0.060492 0.436445 -0.030822
v 0.079285 0.425852 -0.023552
v 0.064490 0.399484 -0.020372
v 0.048280 0.407956 -0.026705
v 0.060492 0.436445 -0.030822
v 0.041778 0.446765 -0.023567
v 0.050181 0.451439 -0.018684
v 0.066274 0.445973 -0.025312
v 0.060492 0.436445 -0.030822
v 0.066274 0.445973 -0.025312
v 0.079364 0.435217 -0.018690
v 0.079285 0.425852 -0.023552
v 0.085310 0.421462 -0.001807
v 0.079240 0.425696 0.019919
v 0.064446 0.399313 0.016727
v 0.069692 0.395860 -0.001813
v 0.085310 0.421462 -0.001807
v 0.069692 0.395860 -0.001813
v 0.064490 0.399484 -0.020372
v 0.079285 0.425852 -0.023552
v 0.085310 0.421462 -0.001807
v 0.079285 0.425852 -0.023552
v 0.079364 0.435217 -0.018690
v 0.086484 0.434024 -0.001804
v 0.085310 0.421462 -0.001807
v 0.086484 0.434024 -0.001804
v 0.079326 0.435080 0.015069
v 0.079240 0.425696 0.019919
v 0.035560 0.450106 -0.001797
v 0.041768 0.446694 0.019963
v 0.050170 0.451373 0.015083
v 0.045948 0.456991 -0.001797
v 0.035560 0.450106 -0.001797
v 0.045948 0.456991 -0.001797
v 0.050181 0.451439 -0.018684
v 0.041778 0.446765 -0.023567
v -0.292982 0.401280 -0.007611
v -0.303524 0.413551 -0.007611
v -0.289716 0.418422 -0.007610
v -0.271741 0.384897 -0.007612
v -0.265236 0.419039 -0.007610
v -0.255135 0.362317 -0.007613
v -0.242429 0.429006 -0.007609
v -0.227537 0.324722 -0.007614
v -0.203811 0.449259 -0.007607
v -0.187250 0.292128 -0.007615
v -0.155735 0.457542 -0.007606
v -0.121223 0.279843 -0.007615
v -0.089976 0.443850 -0.007606
v -0.073745 0.287783 -0.007614
v -0.049386 0.415635 -0.007607
v -0.039665 0.320019 -0.007612
v -0.030245 0.369460 -0.007609
v -0.031736 0.341524 -0.007611
v -0.030510 0.347955 -0.007611
v 0.010509 0.329972 -0.007611
v 0.011547 0.335421 -0.007611
v -0.292982 0.401279 0.002484
v -0.289716 0.418422 0.002485
v -0.303524 0.413551 0.002485
v -0.271741 0.384897 0.002484
v -0.265237 0.419038 0.002486
v -0.255135 0.362317 0.002483
v -0.242429 0.429006 0.002486
v -0.227538 0.324722 0.002481
v -0.203811 0.449258 0.002488
v -0.187250 0.292127 0.002480
v -0.155735 0.457542 0.002489
v -0.121223 0.279843 0.002480
v -0.089976 0.443849 0.002489
v -0.073745 0.287782 0.002481
v -0.049386 0.415635 0.002488
v -0.039665 0.320019 0.002483
v -0.030245 0.369460 0.002486
v -0.031736 0.341523 0.002484
v -0.030510 0.347955 0.002485
v 0.010509 0.329971 0.002484
v 0.011547 0.335421 0.002485
v -0.030245 0.369460 -0.007609
v -0.030245 0.369460 0.002486
v -0.030510 0.347955 0.002485
v -0.030510 0.347955 -0.007611
v -0.049386 0.415635 -0.007607
v -0.049386 0.415635 0.002488
v -0.030245 0.369460 0.002486
v -0.030245 0.369460 -0.007609
v -0.265236 0.419039 -0.007610
v -0.265237 0.419038 0.002486
v -0.242429 0.429006 0.002486
v -0.242429 0.429006 -0.007609
v -0.187250 0.292128 -0.007615
v -0.187250 0.292127 0.002480
v -0.227538 0.324722 0.002481
v -0.227537 0.324722 -0.007614
v -0.031736 0.341524 -0.007611
v -0.031736 0.341523 0.002484
v -0.039665 0.320019 0.002483
v -0.039665 0.320019 -0.007612
v -0.203811 0.449259 -0.007607
v -0.203811 0.449258 0.002488
v -0.155735 0.457542 0.002489
v -0.155735 0.457542 -0.007606
v 0.011547 0.335421 -0.007611
v 0.011547 0.335421 0.002485
v 0.010509 0.329971 0.002484
v 0.010509 0.329972 -0.007611
v -0.073745 0.287783 -0.007614
v -0.073745 0.287782 0.002481
v -0.121223 0.279843 0.002480
v -0.121223 0.279843 -0.007615
v -0.271741 0.384897 -0.007612
v -0.271741 0.384897 0.002484
v -0.292982 0.401279 0.002484
v -0.292982 0.401280 -0.007611
v -0.030510 0.347955 -0.007611
v -0.030510 0.347955 0.002485
v 0.011547 0.335421 0.002485
v 0.011547 0.335421 -0.007611
v -0.089976 0.443850 -0.007606
v -0.089976 0.443849 0.002489
v -0.049386 0.415635 0.002488
v -0.049386 0.415635 -0.007607
v -0.289716 0.418422 -0.007610
v -0.289716 0.418422 0.002485
v -0.265237 0.419038 0.002486
v -0.265236 0.419039 -0.007610
v -0.227537 0.324722 -0.007614
v -0.227538 0.324722 0.002481
v -0.255135 0.362317 0.002483
v -0.255135 0.362317 -0.007613
v -0.271741 0.384897 0.002484
v -0.271741 0.384897 -0.007612
v 0.010509 0.329972 -0.007611
v 0.010509 0.329971 0.002484
v -0.031736 0.341523 0.002484
v -0.031736 0.341524 -0.007611
v -0.292982 0.401280 -0.007611
v -0.292982 0.401279 0.002484
v -0.303524 0.413551 0.002485
v -0.303524 0.413551 -0.007611
v -0.242429 0.429006 -0.007609
v -0.242429 0.429006 0.002486
v -0.203811 0.449258 0.002488
v -0.203811 0.449259 -0.007607
v -0.121223 0.279843 -0.007615
v -0.121223 0.279843 0.002480
v -0.187250 0.292127 0.002480
v -0.187250 0.292128 -0.007615
v -0.303524 0.413551 -0.007611
v -0.303524 0.413551 0.002485
v -0.289716 0.418422 0.002485
v -0.289716 0.418422 -0.007610
v -0.155735 0.457542 -0.007606
v -0.155735 0.457542 0.002489
v -0.089976 0.443849 0.002489
v -0.089976 0.443850 -0.007606
v -0.039665 0.320019 -0.007612
v -0.039665 0.320019 0.002483
v -0.073745 0.287782 0.002481
v -0.073745 0.287783 -0.007614
vn 0.169502 0.919257 -0.355297
vn 0.169502 0.919257 -0.355297
vn 0.169502 0.919257 -0.355297
vn 0.049943 0.997799 -0.043627
vn 0.049943 0.997799 -0.043627
vn 0.049943 0.997799 -0.043627
vn -0.148102 0.929310 0.338303
vn -0.148102 0.929310 0.338303
vn -0.148102 0.929310 0.338303
vn -0.070515 0.995408 0.064731
vn -0.070515 0.995408 0.064731
vn -0.070515 0.995408 0.064731
vn 0.362126 0.919674 0.151872
vn 0.362126 0.919674 0.151872
vn 0.362126 0.919674 0.151872
vn 0.064332 0.995204 0.073696
vn 0.064332 0.995204 0.073696
vn 0.064332 0.995204 0.073696
vn -0.362036 0.919705 -0.151896
vn -0.362036 0.919705 -0.151896
vn -0.362036 0.919705 -0.151896
vn -0.064313 0.995203 -0.073718
vn -0.064313 0.995203 -0.073718
vn -0.064313 0.995203 -0.073718
vn 0.049943 0.997799 0.043627
vn 0.049943 0.997799 0.043627
vn 0.049943 0.997799 0.043627
vn 0.170084 0.922415 0.346732
vn 0.170084 0.922415 0.346732
vn 0.170084 0.922415 0.346732
vn -0.070515 0.995408 -0.064731
vn -0.070515 0.995408 -0.064731
vn -0.070515 0.995408 -0.064731
vn -0.148102 0.929310 -0.338304
vn -0.148102 0.929310 -0.338304
vn -0.148102 0.929310 -0.338304
vn -0.064313 0.995203 0.073718
vn -0.064313 0.995203 0.073718
vn -0.064313 0.995203 0.073718
vn -0.362036 0.919705 0.151895
vn -0.362036 0.919705 0.151895
vn -0.362036 0.919705 0.151895
vn 0.064332 0.995204 -0.073696
vn 0.064332 0.995204 -0.073696
vn 0.064332 0.995204 -0.073696
vn 0.362126 0.919674 -0.151872
vn 0.362126 0.919674 -0.151872
vn 0.362126 0.919674 -0.151872
vn -0.787393 -0.391400 0.476253
vn -0.787393 -0.391400 0.476253
vn -0.787393 -0.391400 0.476253
vn -0.787393 -0.391400 0.476253
vn -0.921054 -0.381742 -0.077025
vn -0.921054 -0.381742 -0.077025
vn -0.921054 -0.381742 -0.077025
vn -0.921054 -0.381742 -0.077025
vn -0.788682 -0.607352 -0.095419
vn -0.788682 -0.607352 -0.095419
vn -0.788682 -0.607352 -0.095419
vn -0.788682 -0.607352 -0.095419
vn -0.788682 -0.607352 0.095419
vn -0.788682 -0.607352 0.095419
vn -0.788682 -0.607352 0.095419
vn -0.788682 -0.607352 0.095419
vn -0.948140 0.306537 -0.084059
vn -0.948140 0.306537 -0.084059
vn -0.948140 0.306537 -0.084059
vn -0.948140 0.306537 -0.084059
vn -0.948140 0.306537 0.084059
vn -0.948140 0.306537 0.084059
vn -0.948140 0.306537 0.084059
vn -0.948140 0.306537 0.084059
vn -0.787393 -0.391401 -0.476253
vn -0.787393 -0.391401 -0.476253
vn -0.787393 -0.391401 -0.476253
vn -0.787393 -0.391401 -0.476253
vn -0.080821 -0.338236 -0.937585
vn -0.080821 -0.338236 -0.937585
vn -0.080821 -0.338236 -0.937585
vn -0.080821 -0.338236 -0.937585
vn -0.795728 0.349862 -0.494383
vn -0.795728 0.349862 -0.494383
vn -0.795728 0.349862 -0.494383
vn -0.795728 0.349862 -0.494383
vn -0.487931 0.358722 -0.795765
vn -0.487931 0.358722 -0.795765
vn -0.487931 0.358722 -0.795765
vn -0.487931 0.358722 -0.795765
vn -0.676494 -0.625855 -0.388151
vn -0.676494 -0.625855 -0.388151
vn -0.676494 -0.625855 -0.388151
vn -0.676494 -0.625855 -0.388151
vn -0.921054 -0.381742 0.077025
vn -0.921054 -0.381742 0.077025
vn -0.921054 -0.381742 0.077025
vn -0.921054 -0.381742 0.077025
vn -0.488523 -0.372646 -0.788974
vn -0.488523 -0.372646 -0.788974
vn -0.488523 -0.372646 -0.788974
vn -0.488523 -0.372646 -0.788974
vn 0.080801 -0.338257 -0.937578
vn 0.080801 -0.338257 -0.937578
vn 0.080801 -0.338257 -0.937578
vn 0.080801 -0.338257 -0.937578
vn 0.106457 -0.589464 -0.800749
vn 0.106457 -0.589464 -0.800749
vn 0.106457 -0.589464 -0.800749
vn 0.106457 -0.589464 -0.800749
vn -0.106467 -0.589455 -0.800755
vn -0.106467 -0.589455 -0.800755
vn -0.106467 -0.589455 -0.800755
vn -0.106467 -0.589455 -0.800755
vn 0.071234 0.340108 -0.937685
vn 0.071234 0.340108 -0.937685
vn 0.071234 0.340108 -0.937685
vn 0.071234 0.340108 -0.937685
vn -0.071254 0.340112 -0.937682
vn -0.071254 0.340112 -0.937682
vn -0.071254 0.340112 -0.937682
vn -0.071254 0.340112 -0.937682
vn 0.488489 -0.372813 -0.788916
vn 0.488489 -0.372813 -0.788916
vn 0.488489 -0.372813 -0.788916
vn 0.488489 -0.372813 -0.788916
vn 0.920972 -0.381985 -0.076802
vn 0.920972 -0.381985 -0.076802
vn 0.920972 -0.381985 -0.076802
vn 0.920972 -0.381985 -0.076802
vn 0.487930 0.358722 -0.795765
vn 0.487930 0.358722 -0.795765
vn 0.487930 0.358722 -0.795765
vn 0.487930 0.358722 -0.795765
vn 0.795867 0.350204 -0.493916
vn 0.795867 0.350204 -0.493916
vn 0.795867 0.350204 -0.493916
vn 0.795867 0.350204 -0.493916
vn 0.418910 -0.619461 -0.663915
vn 0.418910 -0.619461 -0.663915
vn 0.418910 -0.619461 -0.663915
vn 0.418910 -0.619461 -0.663915
vn -0.676494 -0.625855 0.388151
vn -0.676494 -0.625855 0.388151
vn -0.676494 -0.625855 0.388151
vn -0.676494 -0.625855 0.388151
vn 0.787297 -0.391666 -0.476195
vn 0.787297 -0.391666 -0.476195
vn 0.787297 -0.391666 -0.476195
vn 0.787297 -0.391666 -0.476195
vn 0.920972 -0.381985 0.076802
vn 0.920972 -0.381985 0.076802
vn 0.920972 -0.381985 0.076802
vn 0.920972 -0.381985 0.076802
vn 0.788640 -0.607417 0.095351
vn 0.788640 -0.607417 0.095351
vn 0.788640 -0.607417 0.095351
vn 0.788640 -0.607417 0.095351
vn 0.788640 -0.607417 -0.095351
vn 0.788640 -0.607417 -0.095351
vn 0.788640 -0.607417 -0.095351
vn 0.788640 -0.607417 -0.095351
vn 0.944594 0.318884 0.077818
vn 0.944594 0.318884 0.077818
vn 0.944594 0.318884 0.077818
vn 0.944594 0.318884 0.077818
vn 0.946094 0.315117 -0.074886
vn 0.946094 0.315117 -0.074886
vn 0.946094 0.315117 -0.074886
vn 0.946094 0.315117 -0.074886
vn 0.787297 -0.391666 0.476195
vn 0.787297 -0.391666 0.476195
vn 0.787297 -0.391666 0.476195
vn 0.787297 -0.391666 0.476195
vn 0.080801 -0.338257 0.937578
vn 0.080801 -0.338257 0.937578
vn 0.080801 -0.338257 0.937578
vn 0.080801 -0.338257 0.937578
vn 0.796757 0.352395 0.490914
vn 0.796757 0.352395 0.490914
vn 0.796757 0.352395 0.490914
vn 0.796757 0.352395 0.490914
vn 0.487931 0.358722 0.795765
vn 0.487931 0.358722 0.795765
vn 0.487931 0.358722 0.795765
vn 0.487931 0.358722 0.795765
vn 0.676438 -0.625936 0.388118
vn 0.676438 -0.625936 0.388118
vn 0.676438 -0.625936 0.388118
vn 0.676438 -0.625936 0.388118
vn -0.418930 -0.619409 -0.663950
vn -0.418930 -0.619409 -0.663950
vn -0.418930 -0.619409 -0.663950
vn -0.418930 -0.619409 -0.663950
vn 0.488489 -0.372813 0.788916
vn 0.488489 -0.372813 0.788916
vn 0.488489 -0.372813 0.788916
vn 0.488489 -0.372813 0.788916
vn -0.080821 -0.338236 0.937585
vn -0.080821 -0.338236 0.937585
vn -0.080821 -0.338236 0.937585
vn -0.080821 -0.338236 0.937585
vn -0.106467 -0.589455 0.800755
vn -0.106467 -0.589455 0.800755
vn -0.106467 -0.589455 0.800755
vn -0.106467 -0.589455 0.800755
vn 0.106457 -0.589464 0.800749
vn 0.106457 -0.589464 0.800749
vn 0.106457 -0.589464 0.800749
vn 0.106457 -0.589464 0.800749
vn -0.071255 0.340112 0.937682
vn -0.071255 0.340112 0.937682
vn -0.071255 0.340112 0.937682
vn -0.071255 0.340112 0.937682
vn 0.071234 0.340108 0.937685
vn 0.071234 0.340108 0.937685
vn 0.071234 0.340108 0.937685
vn 0.071234 0.340108 0.937685
vn -0.488523 -0.372646 0.788974
vn -0.488523 -0.372646 0.788974
vn -0.488523 -0.372646 0.788974
vn -0.488523 -0.372646 0.788974
vn -0.795728 0.349862 0.494383
vn -0.795728 0.349862 0.494383
vn -0.795728 0.349862 0.494383
vn -0.795728 0.349862 0.494383
vn -0.487931 0.358722 0.795765
vn -0.487931 0.358722 0.795765
vn -0.487931 0.358722 0.795765
vn -0.487931 0.358722 0.795765
vn -0.418930 -0.619409 0.663951
vn -0.418930 -0.619409 0.663951
vn -0.418930 -0.619409 0.663951
vn -0.418930 -0.619409 0.663951
vn 0.676438 -0.625936 -0.388118
vn 0.676438 -0.625936 -0.388118
vn 0.676438 -0.625936 -0.388118
vn 0.676438 -0.625936 -0.388118
vn -0.032558 -0.998917 -0.033250
vn -0.032558 -0.998917 -0.033250
vn -0.032558 -0.998917 -0.033250
vn -0.032558 -0.998917 -0.033250
vn -0.053677 -0.991997 -0.114288
vn -0.053677 -0.991997 -0.114288
vn -0.053677 -0.991997 -0.114288
vn -0.053677 -0.991997 -0.114288
vn -0.126286 -0.990676 -0.051118
vn -0.126286 -0.990676 -0.051118
vn -0.126286 -0.990676 -0.051118
vn -0.126286 -0.990676 -0.051118
vn -0.142643 -0.981039 -0.131206
vn -0.142643 -0.981039 -0.131206
vn -0.142643 -0.981039 -0.131206
vn -0.142643 -0.981039 -0.131206
vn 0.032558 -0.998917 -0.033250
vn 0.032558 -0.998917 -0.033250
vn 0.032558 -0.998917 -0.033250
vn 0.032558 -0.998917 -0.033250
vn 0.126287 -0.990676 -0.051118
vn 0.126287 -0.990676 -0.051118
vn 0.126287 -0.990676 -0.051118
vn 0.126287 -0.990676 -0.051118
vn 0.053677 -0.991997 -0.114288
vn 0.053677 -0.991997 -0.114288
vn 0.053677 -0.991997 -0.114288
vn 0.053677 -0.991997 -0.114288
vn 0.142643 -0.981039 -0.131206
vn 0.142643 -0.981039 -0.131206
vn 0.142643 -0.981039 -0.131206
vn 0.142643 -0.981039 -0.131206
vn 0.032557 -0.998917 0.033250
vn 0.032557 -0.998917 0.033250
vn 0.032557 -0.998917 0.033250
vn 0.032557 -0.998917 0.033250
vn 0.053677 -0.991997 0.114288
vn 0.053677 -0.991997 0.114288
vn 0.053677 -0.991997 0.114288
vn 0.053677 -0.991997 0.114288
vn 0.126286 -0.990676 0.051118
vn 0.126286 -0.990676 0.051118
vn 0.126286 -0.990676 0.051118
vn 0.126286 -0.990676 0.051118
vn 0.142643 -0.981039 0.131207
vn 0.142643 -0.981039 0.131207
vn 0.142643 -0.981039 0.131207
vn 0.142643 -0.981039 0.131207
vn -0.032557 -0.998917 0.033250
vn -0.032557 -0.998917 0.033250
vn -0.032557 -0.998917 0.033250
vn -0.032557 -0.998917 0.033250
vn -0.126287 -0.990676 0.051118
vn -0.126287 -0.990676 0.051118
vn -0.126287 -0.990676 0.051118
vn -0.126287 -0.990676 0.051118
vn -0.053677 -0.991997 0.114288
vn -0.053677 -0.991997 0.114288
vn -0.053677 -0.991997 0.114288
vn -0.053677 -0.991997 0.114288
vn -0.142644 -0.981039 0.131207
vn -0.142644 -0.981039 0.131207
vn -0.142644 -0.981039 0.131207
vn -0.142644 -0.981039 0.131207
vn 0.359249 0.911701 -0.199353
vn 0.359249 0.911701 -0.199353
vn 0.359249 0.911701 -0.199353
vn 0.359249 0.911701 -0.199353
vn 0.405449 0.913755 0.025750
vn 0.405449 0.913755 0.025750
vn 0.405449 0.913755 0.025750
vn 0.405449 0.913755 0.025750
vn 0.355844 0.912773 0.200553
vn 0.355844 0.912773 0.200553
vn 0.355844 0.912773 0.200553
vn 0.355844 0.912773 0.200553
vn 0.403268 0.914746 -0.024803
vn 0.403268 0.914746 -0.024803
vn 0.403268 0.914746 -0.024803
vn 0.403268 0.914746 -0.024803
vn -0.082835 0.956199 -0.280754
vn -0.082835 0.956199 -0.280754
vn -0.082835 0.956199 -0.280754
vn -0.082835 0.956199 -0.280754
vn -0.072892 0.956861 0.281255
vn -0.072892 0.956861 0.281255
vn -0.072892 0.956861 0.281255
vn -0.072892 0.956861 0.281255
vn 0.341279 -0.783431 0.519389
vn 0.341279 -0.783431 0.519389
vn 0.341279 -0.783431 0.519389
vn 0.341279 -0.783431 0.519389
vn -0.113539 -0.780345 0.614956
vn -0.113539 -0.780345 0.614956
vn -0.113539 -0.780345 0.614956
vn -0.113539 -0.780345 0.614956
vn 0.068911 -0.960991 0.267857
vn 0.068911 -0.960991 0.267857
vn 0.068911 -0.960991 0.267857
vn 0.068911 -0.960991 0.267857
vn 0.180335 -0.957273 0.226070
vn 0.180335 -0.957273 0.226070
vn 0.180335 -0.957273 0.226070
vn 0.180335 -0.957273 0.226070
vn -0.341278 -0.783431 0.519390
vn -0.341278 -0.783431 0.519390
vn -0.341278 -0.783431 0.519390
vn -0.341278 -0.783431 0.519390
vn 0.632082 -0.768439 -0.099874
vn 0.632082 -0.768439 -0.099874
vn 0.632082 -0.768439 -0.099874
vn 0.632082 -0.768439 -0.099874
vn -0.068911 -0.960991 0.267857
vn -0.068911 -0.960991 0.267857
vn -0.068911 -0.960991 0.267857
vn -0.068911 -0.960991 0.267857
vn -0.180335 -0.957273 0.226070
vn -0.180335 -0.957273 0.226070
vn -0.180335 -0.957273 0.226070
vn -0.180335 -0.957273 0.226070
vn 0.548530 -0.777371 -0.307911
vn 0.548530 -0.777371 -0.307911
vn 0.548530 -0.777371 -0.307911
vn 0.548530 -0.777371 -0.307911
vn 0.632081 -0.768439 0.099874
vn 0.632081 -0.768439 0.099874
vn 0.632081 -0.768439 0.099874
vn 0.632081 -0.768439 0.099874
vn 0.293954 -0.953752 -0.062843
vn 0.293954 -0.953752 -0.062843
vn 0.293954 -0.953752 -0.062843
vn 0.293954 -0.953752 -0.062843
vn 0.248200 -0.954562 -0.164946
vn 0.248200 -0.954562 -0.164946
vn 0.248200 -0.954562 -0.164946
vn 0.248200 -0.954562 -0.164946
vn 0.548530 -0.777371 0.307911
vn 0.548530 -0.777371 0.307911
vn 0.548530 -0.777371 0.307911
vn 0.548530 -0.777371 0.307911
vn -0.113540 -0.780345 -0.614956
vn -0.113540 -0.780345 -0.614956
vn -0.113540 -0.780345 -0.614956
vn -0.113540 -0.780345 -0.614956
vn 0.293954 -0.953752 0.062843
vn 0.293954 -0.953752 0.062843
vn 0.293954 -0.953752 0.062843
vn 0.293954 -0.953752 0.062843
vn 0.248200 -0.954562 0.164946
vn 0.248200 -0.954562 0.164946
vn 0.248200 -0.954562 0.164946
vn 0.248200 -0.954562 0.164946
vn -0.341278 -0.783431 -0.519389
vn -0.341278 -0.783431 -0.519389
vn -0.341278 -0.783431 -0.519389
vn -0.341278 -0.783431 -0.519389
vn 0.113539 -0.780345 -0.614956
vn 0.113539 -0.780345 -0.614956
vn 0.113539 -0.780345 -0.614956
vn 0.113539 -0.780345 -0.614956
vn -0.068911 -0.960991 -0.267857
vn -0.068911 -0.960991 -0.267857
vn -0.068911 -0.960991 -0.267857
vn -0.068911 -0.960991 -0.267857
vn -0.180335 -0.957273 -0.226070
vn -0.180335 -0.957273 -0.226070
vn -0.180335 -0.957273 -0.226070
vn -0.180335 -0.957273 -0.226070
vn 0.341279 -0.783431 -0.519389
vn 0.341279 -0.783431 -0.519389
vn 0.341279 -0.783431 -0.519389
vn 0.341279 -0.783431 -0.519389
vn -0.632081 -0.768439 0.099873
vn -0.632081 -0.768439 0.099873
vn -0.632081 -0.768439 0.099873
vn -0.632081 -0.768439 0.099873
vn 0.068911 -0.960991 -0.267857
vn 0.068911 -0.960991 -0.267857
vn 0.068911 -0.960991 -0.267857
vn 0.068911 -0.960991 -0.267857
vn 0.180335 -0.957273 -0.226070
vn 0.180335 -0.957273 -0.226070
vn 0.180335 -0.957273 -0.226070
vn 0.180335 -0.957273 -0.226070
vn -0.548529 -0.777371 0.307912
vn -0.548529 -0.777371 0.307912
vn -0.548529 -0.777371 0.307912
vn -0.548529 -0.777371 0.307912
vn -0.632081 -0.768439 -0.099873
vn -0.632081 -0.768439 -0.099873
vn -0.632081 -0.768439 -0.099873
vn -0.632081 -0.768439 -0.099873
vn -0.293954 -0.953751 0.062842
vn -0.293954 -0.953751 0.062842
vn -0.293954 -0.953751 0.062842
vn -0.293954 -0.953751 0.062842
vn -0.248200 -0.954562 0.164946
vn -0.248200 -0.954562 0.164946
vn -0.248200 -0.954562 0.164946
vn -0.248200 -0.954562 0.164946
vn -0.548530 -0.777371 -0.307912
vn -0.548530 -0.777371 -0.307912
vn -0.548530 -0.777371 -0.307912
vn -0.548530 -0.777371 -0.307912
vn 0.418909 -0.619461 0.663915
vn 0.418909 -0.619461 0.663915
vn 0.418909 -0.619461 0.663915
vn 0.418909 -0.619461 0.663915
vn -0.293954 -0.953752 -0.062842
vn -0.293954 -0.953752 -0.062842
vn -0.293954 -0.953752 -0.062842
vn -0.293954 -0.953752 -0.062842
vn -0.248200 -0.954563 -0.164946
vn -0.248200 -0.954563 -0.164946
vn -0.248200 -0.954563 -0.164946
vn -0.248200 -0.954563 -0.164946
vn -0.351590 0.916661 0.190044
vn -0.351590 0.916661 0.190044
vn -0.351590 0.916661 0.190044
vn -0.351590 0.916661 0.190044
vn -0.402770 0.914983 -0.024152
vn -0.402770 0.914983 -0.024152
vn -0.402770 0.914983 -0.024152
vn -0.402770 0.914983 -0.024152
vn -0.351589 0.916661 -0.190044
vn -0.351589 0.916661 -0.190044
vn -0.351589 0.916661 -0.190044
vn -0.351589 0.916661 -0.190044
vn -0.402770 0.914983 0.024152
vn -0.402770 0.914983 0.024152
vn -0.402770 0.914983 0.024152
vn -0.402770 0.914983 0.024152
vn 0.050110 0.951560 0.303354
vn 0.050110 0.951560 0.303354
vn 0.050110 0.951560 0.303354
vn 0.050110 0.951560 0.303354
vn 0.050110 0.951560 -0.303354
vn 0.050110 0.951560 -0.303354
vn 0.050110 0.951560 -0.303354
vn 0.050110 0.951560 -0.303354
vn 0.222351 0.907438 0.356534
vn 0.222351 0.907438 0.356534
vn 0.222351 0.907438 0.356534
vn 0.222351 0.907438 0.356534
vn -0.034353 0.921887 0.385933
vn -0.034353 0.921887 0.385933
vn -0.034353 0.921887 0.385933
vn -0.034353 0.921887 0.385933
vn -0.222309 0.907465 0.356493
vn -0.222309 0.907465 0.356493
vn -0.222309 0.907465 0.356493
vn -0.222309 0.907465 0.356493
vn 0.034353 0.921887 0.385933
vn 0.034353 0.921887 0.385933
vn 0.034353 0.921887 0.385933
vn 0.034353 0.921887 0.385933
vn 0.297089 0.952386 -0.068552
vn 0.297089 0.952386 -0.068552
vn 0.297089 0.952386 -0.068552
vn 0.297089 0.952386 -0.068552
vn -0.297049 0.952403 -0.068494
vn -0.297049 0.952403 -0.068494
vn -0.297049 0.952403 -0.068494
vn -0.297049 0.952403 -0.068494
vn -0.222309 0.907464 -0.356493
vn -0.222309 0.907464 -0.356493
vn -0.222309 0.907464 -0.356493
vn -0.222309 0.907464 -0.356493
vn 0.034353 0.921887 -0.385933
vn 0.034353 0.921887 -0.385933
vn 0.034353 0.921887 -0.385933
vn 0.034353 0.921887 -0.385933
vn 0.222351 0.907438 -0.356535
vn 0.222351 0.907438 -0.356535
vn 0.222351 0.907438 -0.356535
vn 0.222351 0.907438 -0.356535
vn -0.034353 0.921887 -0.385933
vn -0.034353 0.921887 -0.385933
vn -0.034353 0.921887 -0.385933
vn -0.034353 0.921887 -0.385933
vn -0.297049 0.952403 0.068494
vn -0.297049 0.952403 0.068494
vn -0.297049 0.952403 0.068494
vn -0.297049 0.952403 0.068494
vn 0.297089 0.952386 0.068552
vn 0.297089 0.952386 0.068552
vn 0.297089 0.952386 0.068552
vn 0.297089 0.952386 0.068552
vn 0.113540 -0.780345 0.614956
vn 0.113540 -0.780345 0.614956
vn 0.113540 -0.780345 0.614956
vn 0.113540 -0.780345 0.614956
vn -0.306145 0.087311 -0.947973
vn -0.306145 0.087311 -0.947973
vn -0.306145 0.087311 -0.947973
vn -0.306145 0.087311 -0.947973
vn -0.302422 0.190154 -0.934014
vn -0.302422 0.190154 -0.934014
vn -0.302422 0.190154 -0.934014
vn -0.302422 0.190154 -0.934014
vn -0.302612 0.219057 -0.927599
vn -0.302612 0.219057 -0.927599
vn 0.330889 -0.050305 -0.942328
vn 0.330889 -0.050305 -0.942328
vn 0.330889 -0.050305 -0.942328
vn 0.330889 -0.050305 -0.942328
vn 0.934216 -0.178547 -0.308807
vn 0.934216 -0.178547 -0.308807
vn 0.934216 -0.178547 -0.308807
vn 0.934216 -0.178547 -0.308807
vn 0.304487 0.188046 -0.933770
vn 0.304487 0.188046 -0.933770
vn 0.304487 0.188046 -0.933770
vn 0.304487 0.188046 -0.933770
vn 0.302569 0.216694 -0.928168
vn 0.302569 0.216694 -0.928168
vn 0.933783 0.180567 -0.308943
vn 0.933783 0.180567 -0.308943
vn 0.933783 0.180567 -0.308943
vn 0.933783 0.180567 -0.308943
vn 0.929025 0.209497 -0.304998
vn 0.929025 0.209497 -0.304998
vn 0.934041 -0.178548 0.309335
vn 0.934041 -0.178548 0.309335
vn 0.934041 -0.178548 0.309335
vn 0.934041 -0.178548 0.309335
vn 0.331511 -0.050557 0.942096
vn 0.331511 -0.050557 0.942096
vn 0.331511 -0.050557 0.942096
vn 0.331511 -0.050557 0.942096
vn 0.933187 0.180571 0.310734
vn 0.933187 0.180571 0.310734
vn 0.933187 0.180571 0.310734
vn 0.933187 0.180571 0.310734
vn 0.928514 0.209512 0.306540
vn 0.928514 0.209512 0.306540
vn 0.305287 0.187996 0.933519
vn 0.305287 0.187996 0.933519
vn 0.305287 0.187996 0.933519
vn 0.305287 0.187996 0.933519
vn 0.303062 0.216038 0.928160
vn 0.303062 0.216038 0.928160
vn -0.306038 0.087057 0.948031
vn -0.306038 0.087057 0.948031
vn -0.306038 0.087057 0.948031
vn -0.306038 0.087057 0.948031
vn -0.303164 0.190109 0.933783
vn -0.303164 0.190109 0.933783
vn -0.303164 0.190109 0.933783
vn -0.303164 0.190109 0.933783
vn -0.303062 0.218399 0.927608
vn -0.303062 0.218399 0.927608
vn 0.861762 -0.396687 -0.316237
vn 0.861762 -0.396687 -0.316237
vn 0.861762 -0.396687 -0.316237
vn 0.861762 -0.396687 -0.316237
vn 0.862219 -0.396880 0.314746
vn 0.862219 -0.396880 0.314746
vn 0.862219 -0.396880 0.314746
vn 0.862219 -0.396880 0.314746
vn -0.926606 0.221895 0.303585
vn -0.926606 0.221895 0.303585
vn -0.932519 0.194330 0.304375
vn -0.932519 0.194330 0.304375
vn -0.932519 0.194330 0.304375
vn -0.932519 0.194330 0.304375
vn -0.923699 0.245076 0.294479
vn -0.923699 0.245076 0.294479
vn -0.923699 0.245076 0.294479
vn -0.923699 0.245076 0.294479
vn -0.918577 0.257332 0.299995
vn -0.918577 0.257332 0.299995
vn -0.927110 0.221854 -0.302073
vn -0.933076 0.194332 -0.302663
vn -0.927110 0.221854 -0.302073
vn -0.933076 0.194332 -0.302663
vn -0.928583 0.225902 -0.294453
vn -0.928583 0.225902 -0.294453
vn -0.928583 0.225902 -0.294453
vn -0.928583 0.225902 -0.294453
vn -0.924042 0.245376 -0.293151
vn -0.924042 0.245376 -0.293151
vn -0.918736 0.257596 -0.299281
vn -0.918736 0.257596 -0.299281
vn -0.350227 0.016418 0.936521
vn -0.350227 0.016418 0.936521
vn -0.350227 0.016418 0.936521
vn -0.350227 0.016418 0.936521
vn -0.331621 0.035310 0.942752
vn -0.331621 0.035310 0.942752
vn 0.234934 -0.241145 0.941624
vn 0.234934 -0.241145 0.941624
vn 0.234934 -0.241145 0.941624
vn 0.234934 -0.241145 0.941624
vn 0.533068 0.272644 0.800940
vn 0.533068 0.272644 0.800940
vn 0.533068 0.272644 0.800940
vn 0.533068 0.272644 0.800940
vn -0.035306 0.611955 0.790105
vn -0.035306 0.611955 0.790105
vn -0.035306 0.611955 0.790105
vn -0.035306 0.611955 0.790105
vn 0.283908 -0.188008 0.940239
vn 0.283908 -0.188008 0.940239
vn 0.283908 -0.188008 0.940239
vn 0.283908 -0.188008 0.940239
vn -0.332363 0.035939 -0.942467
vn -0.332363 0.035939 -0.942467
vn -0.332363 0.035939 -0.942467
vn -0.332363 0.035939 -0.942467
vn -0.350701 0.016976 -0.936334
vn -0.350701 0.016976 -0.936334
vn 0.283632 -0.187633 -0.940397
vn 0.283632 -0.187633 -0.940397
vn 0.283632 -0.187633 -0.940397
vn 0.283632 -0.187633 -0.940397
vn 0.639188 0.750459 -0.168078
vn 0.639188 0.750459 -0.168078
vn 0.639188 0.750459 -0.168078
vn 0.639188 0.750459 -0.168078
vn 0.309162 0.935494 -0.171083
vn 0.309162 0.935494 -0.171083
vn 0.309162 0.935494 -0.171083
vn 0.309162 0.935494 -0.171083
vn 0.309296 0.934672 0.175286
vn 0.309296 0.934672 0.175286
vn 0.309296 0.934672 0.175286
vn 0.309296 0.934672 0.175286
vn 0.639917 0.748540 0.173765
vn 0.639917 0.748540 0.173765
vn 0.639917 0.748540 0.173765
vn 0.639917 0.748540 0.173765
vn 0.234797 -0.240853 -0.941733
vn 0.234797 -0.240853 -0.941733
vn 0.234797 -0.240853 -0.941733
vn 0.234797 -0.240853 -0.941733
vn -0.036382 0.613543 -0.788823
vn -0.036382 0.613543 -0.788823
vn -0.036382 0.613543 -0.788823
vn -0.036382 0.613543 -0.788823
vn 0.532576 0.274342 -0.800687
vn 0.532576 0.274342 -0.800687
vn 0.532576 0.274342 -0.800687
vn 0.532576 0.274342 -0.800687
vn 0.808623 -0.492816 0.321342
vn 0.808623 -0.492816 0.321342
vn 0.808623 -0.492816 0.321342
vn 0.808623 -0.492816 0.321342
vn 0.808062 -0.492612 -0.323062
vn 0.808062 -0.492612 -0.323062
vn 0.808062 -0.492612 -0.323062
vn 0.808062 -0.492612 -0.323062
vn 0.947297 0.016885 -0.319913
vn 0.947297 0.016885 -0.319913
vn 0.947297 0.016885 -0.319913
vn 0.947297 0.016885 -0.319913
vn 0.946566 0.016808 0.322073
vn 0.946566 0.016808 0.322073
vn 0.946566 0.016808 0.322073
vn 0.946566 0.016808 0.322073
vn -0.436786 0.842675 0.314828
vn -0.436786 0.842675 0.314828
vn -0.436786 0.842675 0.314828
vn -0.436786 0.842675 0.314828
vn -0.437555 0.843228 -0.312270
vn -0.437555 0.843228 -0.312270
vn -0.437555 0.843228 -0.312270
vn -0.437555 0.843228 -0.312270
vn 0.000018 0.000052 -1.000000
vn 0.000016 0.000053 -1.000000
vn 0.000018 0.000052 -1.000000
vn 0.000017 0.000052 -1.000000
vn 0.000017 0.000052 -1.000000
vn 0.000014 0.000053 -1.000000
vn 0.000014 0.000053 -1.000000
vn 0.000015 0.000053 -1.000000
vn 0.000015 0.000053 -1.000000
vn 0.000011 0.000054 -1.000000
vn 0.000011 0.000054 -1.000000
vn 0.000012 0.000053 -1.000000
vn 0.000012 0.000053 -1.000000
vn 0.000014 0.000053 -1.000000
vn 0.000014 0.000053 -1.000000
vn 0.000014 0.000053 -1.000000
vn 0.000014 0.000053 -1.000000
vn 0.000000 0.000056 -1.000000
vn 0.000000 0.000056 -1.000000
vn 0.000015 0.000053 -1.000000
vn 0.000015 0.000053 -1.000000
vn -0.000018 -0.000052 1.000000
vn -0.000018 -0.000052 1.000000
vn -0.000016 -0.000053 1.000000
vn -0.000017 -0.000052 1.000000
vn -0.000017 -0.000052 1.000000
vn -0.000014 -0.000053 1.000000
vn -0.000014 -0.000053 1.000000
vn -0.000015 -0.000053 1.000000
vn -0.000015 -0.000053 1.000000
vn -0.000011 -0.000054 1.000000
vn -0.000011 -0.000054 1.000000
vn -0.000012 -0.000053 1.000000
vn -0.000012 -0.000053 1.000000
vn -0.000014 -0.000053 1.000000
vn -0.000014 -0.000053 1.000000
vn -0.000014 -0.000053 1.000000
vn -0.000014 -0.000053 1.000000
vn 0.000000 -0.000056 1.000000
vn 0.000000 -0.000056 1.000000
vn -0.000015 -0.000053 1.000000
vn -0.000015 -0.000053 1.000000
vn 0.999924 -0.012330 0.000013
vn 0.999924 -0.012330 0.000013
vn 0.999924 -0.012330 0.000013
vn 0.999924 -0.012330 0.000013
vn 0.923777 0.382931 0.000033
vn 0.923777 0.382931 0.000033
vn 0.923777 0.382931 0.000033
vn 0.923777 0.382931 0.000033
vn -0.400450 0.916319 0.000043
vn -0.400450 0.916319 0.000043
vn -0.400450 0.916319 0.000043
vn -0.400450 0.916319 0.000043
vn -0.628977 -0.777424 -0.000048
vn -0.628977 -0.777424 -0.000048
vn -0.628977 -0.777424 -0.000048
vn -0.628977 -0.777424 -0.000048
vn 0.938255 -0.345946 -0.000006
vn 0.938255 -0.345946 -0.000006
vn 0.938255 -0.345946 -0.000006
vn 0.938255 -0.345946 -0.000006
vn -0.169791 0.985480 0.000050
vn -0.169791 0.985480 0.000050
vn -0.169791 0.985480 0.000050
vn -0.169791 0.985480 0.000050
vn 0.982330 -0.187155 0.000003
vn 0.982330 -0.187155 0.000003
vn 0.982330 -0.187155 0.000003
vn 0.982330 -0.187155 0.000003
vn 0.164935 -0.986305 -0.000050
vn 0.164935 -0.986305 -0.000050
vn 0.164935 -0.986305 -0.000050
vn 0.164935 -0.986305 -0.000050
vn -0.610722 -0.791845 -0.000051
vn -0.610722 -0.791845 -0.000051
vn -0.610722 -0.791845 -0.000051
vn -0.610722 -0.791845 -0.000051
vn 0.285609 0.958346 0.000055
vn 0.285609 0.958346 0.000055
vn 0.285609 0.958346 0.000055
vn 0.285609 0.958346 0.000055
vn 0.570760 0.821117 0.000051
vn 0.570760 0.821117 0.000051
vn 0.570760 0.821117 0.000051
vn 0.570760 0.821117 0.000051
vn -0.025185 0.999683 0.000053
vn -0.025185 0.999683 0.000053
vn -0.025185 0.999683 0.000053
vn -0.025185 0.999683 0.000053
vn -0.806124 -0.591747 -0.000041
vn -0.806124 -0.591747 -0.000041
vn -0.806124 -0.591747 -0.000041
vn -0.806124 -0.591747 -0.000041
vn -0.805588 -0.592477 -0.000046
vn -0.805588 -0.592477 -0.000046
vn -0.263776 -0.964584 -0.000055
vn -0.263776 -0.964584 -0.000055
vn -0.263776 -0.964584 -0.000055
vn -0.263776 -0.964584 -0.000055
vn -0.758559 -0.651604 -0.000043
vn -0.758559 -0.651604 -0.000043
vn -0.758559 -0.651604 -0.000043
vn -0.758559 -0.651604 -0.000043
vn -0.464441 0.885604 0.000041
vn -0.464441 0.885604 0.000041
vn -0.464441 0.885604 0.000041
vn -0.464441 0.885604 0.000041
vn -0.182915 -0.983129 -0.000054
vn -0.182915 -0.983129 -0.000054
vn -0.182915 -0.983129 -0.000054
vn -0.182915 -0.983129 -0.000054
vn -0.332666 0.943045 0.000045
vn -0.332666 0.943045 0.000045
vn -0.332666 0.943045 0.000045
vn -0.332666 0.943045 0.000045
vn 0.203849 0.979002 0.000054
vn 0.203849 0.979002 0.000054
vn 0.203849 0.979002 0.000054
vn 0.203849 0.979002 0.000054
vn 0.687184 -0.726483 -0.000029
vn 0.687184 -0.726483 -0.000029
vn 0.687184 -0.726483 -0.000029
vn 0.687184 -0.726483 -0.000029
vt 0.142109 0.705769
vt 0.145534 0.706492
vt 0.143155 0.709097
vt 0.145534 0.706492
vt 0.151002 0.707606
vt 0.148099 0.710656
vt 0.148848 0.741709
vt 0.148750 0.745647
vt 0.146370 0.742629
vt 0.148750 0.745647
vt 0.149017 0.752155
vt 0.145904 0.748312
vt 0.143490 0.741696
vt 0.143418 0.745617
vt 0.140417 0.743352
vt 0.143418 0.745617
vt 0.143629 0.752179
vt 0.139944 0.749128
vt 0.140380 0.733749
vt 0.143032 0.733042
vt 0.141887 0.736674
vt 0.143032 0.733042
vt 0.147040 0.731720
vt 0.145659 0.736120
vt 0.151002 0.707606
vt 0.145534 0.706492
vt 0.149777 0.703931
vt 0.145534 0.706492
vt 0.142109 0.705769
vt 0.144591 0.703343
vt 0.152428 0.717842
vt 0.152161 0.724351
vt 0.149315 0.721685
vt 0.152161 0.724351
vt 0.152259 0.728288
vt 0.149781 0.727368
vt 0.130519 0.728624
vt 0.126511 0.727302
vt 0.129139 0.724224
vt 0.126511 0.727302
vt 0.123860 0.726595
vt 0.125367 0.723671
vt 0.137088 0.739769
vt 0.136881 0.746391
vt 0.133391 0.743017
vt 0.136881 0.746391
vt 0.136951 0.750379
vt 0.133866 0.748841
vt 0.131572 0.701529
vt 0.136352 0.707392
vt 0.132543 0.710861
vt 0.128255 0.704499
vt 0.122842 0.715824
vt 0.119743 0.708853
vt 0.124075 0.707061
vt 0.127775 0.713806
vt 0.121073 0.700875
vt 0.124075 0.707061
vt 0.119743 0.708853
vt 0.118104 0.702114
vt 0.121073 0.700875
vt 0.123942 0.699127
vt 0.128255 0.704499
vt 0.124075 0.707061
vt 0.147040 0.719334
vt 0.145335 0.721762
vt 0.122842 0.715824
vt 0.127775 0.713806
vt 0.130519 0.741011
vt 0.127775 0.713806
vt 0.132543 0.710861
vt 0.128815 0.738583
vt 0.118504 0.716524
vt 0.115968 0.709513
vt 0.119743 0.708853
vt 0.122842 0.715824
vt 0.112399 0.699911
vt 0.135995 0.727916
vt 0.134823 0.733352
vt 0.110690 0.703659
vt 0.145335 0.721762
vt 0.143653 0.725542
vt 0.138064 0.722905
vt 0.140831 0.719158
vt 0.141144 0.729742
vt 0.135995 0.727916
vt 0.138064 0.722905
vt 0.143653 0.725542
vt 0.118104 0.702114
vt 0.119743 0.708853
vt 0.115968 0.709513
vt 0.115521 0.702597
vt 0.128255 0.704499
vt 0.132543 0.710861
vt 0.127775 0.713806
vt 0.124075 0.707061
vt 0.138064 0.722905
vt 0.135995 0.727916
vt 0.130519 0.726303
vt 0.132249 0.722075
vt 0.112071 0.712776
vt 0.107785 0.707198
vt 0.110690 0.703659
vt 0.115521 0.708588
vt 0.105316 0.699651
vt 0.110690 0.703659
vt 0.107785 0.707198
vt 0.103380 0.701986
vt 0.105316 0.699651
vt 0.106426 0.697176
vt 0.112399 0.699911
vt 0.110690 0.703659
vt 0.138941 0.734052
vt 0.140104 0.738494
vt 0.134755 0.738355
vt 0.134823 0.733352
vt 0.138941 0.734052
vt 0.134823 0.733352
vt 0.135995 0.727916
vt 0.141144 0.729742
vt 0.107670 0.716021
vt 0.104066 0.709921
vt 0.107785 0.707198
vt 0.112071 0.712776
vt 0.099918 0.711222
vt 0.102809 0.717625
vt 0.098215 0.717660
vt 0.095941 0.711204
vt 0.149904 0.695907
vt 0.146624 0.698144
vt 0.107670 0.716021
vt 0.112071 0.712776
vt 0.143003 0.701351
vt 0.139024 0.699175
vt 0.142337 0.695108
vt 0.146624 0.698144
vt 0.103380 0.701986
vt 0.107785 0.707198
vt 0.104066 0.709921
vt 0.100878 0.703774
vt 0.123942 0.699127
vt 0.126223 0.697121
vt 0.131572 0.701529
vt 0.128255 0.704499
vt 0.107670 0.716021
vt 0.102809 0.717625
vt 0.099918 0.711222
vt 0.104066 0.709921
vt 0.102005 0.719639
vt 0.098640 0.726489
vt 0.095069 0.725848
vt 0.097868 0.718863
vt 0.094177 0.732691
vt 0.095069 0.725848
vt 0.098640 0.726489
vt 0.096616 0.733117
vt 0.095345 0.704590
vt 0.098063 0.704618
vt 0.099918 0.711222
vt 0.095941 0.711204
vt 0.140368 0.705391
vt 0.140794 0.710204
vt 0.136352 0.709882
vt 0.136921 0.704377
vt 0.140368 0.705391
vt 0.136921 0.704377
vt 0.139024 0.699175
vt 0.143003 0.701351
vt 0.106572 0.721714
vt 0.102523 0.728213
vt 0.098640 0.726489
vt 0.102005 0.719639
vt 0.106190 0.731005
vt 0.110911 0.725042
vt 0.114507 0.728970
vt 0.109226 0.734316
vt 0.140794 0.710204
vt 0.142517 0.714601
vt 0.106572 0.721714
vt 0.102005 0.719639
vt 0.123584 0.721851
vt 0.110911 0.725042
vt 0.106572 0.721714
vt 0.125198 0.718520
vt 0.096616 0.733117
vt 0.098640 0.726489
vt 0.102523 0.728213
vt 0.099246 0.734256
vt 0.106426 0.697176
vt 0.106457 0.694964
vt 0.112525 0.696563
vt 0.112399 0.699911
vt 0.106572 0.721714
vt 0.110911 0.725042
vt 0.106190 0.731005
vt 0.102523 0.728213
vt 0.119474 0.732428
vt 0.111210 0.737596
vt 0.109226 0.734316
vt 0.118303 0.726993
vt 0.103725 0.738289
vt 0.109226 0.734316
vt 0.111210 0.737596
vt 0.105020 0.740452
vt 0.103725 0.738289
vt 0.101707 0.736100
vt 0.106190 0.731005
vt 0.109226 0.734316
vt 0.122421 0.726292
vt 0.124623 0.730602
vt 0.119474 0.732428
vt 0.118303 0.726993
vt 0.122421 0.726292
vt 0.118303 0.726993
vt 0.118234 0.721990
vt 0.123584 0.721851
vt 0.131572 0.701529
vt 0.133319 0.698516
vt 0.119474 0.732428
vt 0.121543 0.737439
vt 0.128815 0.738583
vt 0.124310 0.741186
vt 0.121543 0.737439
vt 0.127132 0.734802
vt 0.124623 0.730602
vt 0.127132 0.734802
vt 0.121543 0.737439
vt 0.119474 0.732428
vt 0.127435 0.695099
vt 0.133319 0.698516
vt 0.131572 0.701529
vt 0.126223 0.697121
vt 0.098063 0.704618
vt 0.100878 0.703774
vt 0.104066 0.709921
vt 0.099918 0.711222
vt 0.097803 0.696736
vt 0.098737 0.695309
vt 0.100167 0.695684
vt 0.099331 0.697025
vt 0.099331 0.697025
vt 0.100167 0.695684
vt 0.101571 0.696058
vt 0.100828 0.697401
vt 0.098737 0.695309
vt 0.099688 0.694103
vt 0.101048 0.694545
vt 0.100167 0.695684
vt 0.100167 0.695684
vt 0.101048 0.694545
vt 0.101921 0.695128
vt 0.101571 0.696058
vt 0.097803 0.696736
vt 0.099331 0.697025
vt 0.098422 0.698440
vt 0.096902 0.698207
vt 0.096902 0.698207
vt 0.098422 0.698440
vt 0.097699 0.699833
vt 0.096151 0.699688
vt 0.099331 0.697025
vt 0.100828 0.697401
vt 0.099844 0.698784
vt 0.098422 0.698440
vt 0.098422 0.698440
vt 0.099844 0.698784
vt 0.098972 0.699785
vt 0.097699 0.699833
vt 0.097803 0.696736
vt 0.096902 0.698207
vt 0.095551 0.697941
vt 0.096314 0.696500
vt 0.096314 0.696500
vt 0.095551 0.697941
vt 0.094337 0.697826
vt 0.095010 0.696389
vt 0.096902 0.698207
vt 0.096151 0.699688
vt 0.094860 0.699339
vt 0.095551 0.697941
vt 0.097099 0.738951
vt 0.096326 0.737656
vt 0.097505 0.737861
vt 0.098378 0.738849
vt 0.097803 0.696736
vt 0.096314 0.696500
vt 0.097296 0.695184
vt 0.098737 0.695309
vt 0.119143 0.695792
vt 0.120875 0.694942
vt 0.121112 0.695910
vt 0.119414 0.696809
vt 0.096314 0.696500
vt 0.095010 0.696389
vt 0.096063 0.695100
vt 0.097296 0.695184
vt 0.120875 0.694942
vt 0.122531 0.694290
vt 0.122332 0.695212
vt 0.121112 0.695910
vt 0.142109 0.705769
vt 0.143155 0.709097
vt 0.140794 0.710204
vt 0.140368 0.705391
vt 0.143155 0.709097
vt 0.145314 0.713185
vt 0.142517 0.714601
vt 0.140794 0.710204
vt 0.142109 0.705769
vt 0.140368 0.705391
vt 0.143003 0.701351
vt 0.144591 0.703343
vt 0.144591 0.703343
vt 0.143003 0.701351
vt 0.146624 0.698144
vt 0.148437 0.700670
vt 0.143155 0.709097
vt 0.145534 0.706492
vt 0.148099 0.710656
vt 0.145314 0.713185
vt 0.144591 0.703343
vt 0.148437 0.700670
vt 0.149777 0.703931
vt 0.145534 0.706492
vt 0.099246 0.734256
vt 0.101707 0.736100
vt 0.099361 0.738379
vt 0.097800 0.737139
vt 0.105020 0.740452
vt 0.101551 0.741255
vt 0.100646 0.739857
vt 0.103725 0.738289
vt 0.100646 0.739857
vt 0.099413 0.740140
vt 0.098378 0.738849
vt 0.099361 0.738379
vt 0.099361 0.738379
vt 0.098378 0.738849
vt 0.097505 0.737861
vt 0.097800 0.737139
vt 0.123250 0.695446
vt 0.123990 0.694103
vt 0.127435 0.695099
vt 0.126223 0.697121
vt 0.097485 0.701135
vt 0.098063 0.704618
vt 0.095345 0.704590
vt 0.095662 0.701054
vt 0.100646 0.739857
vt 0.101551 0.741255
vt 0.100256 0.741315
vt 0.099413 0.740140
vt 0.123990 0.694103
vt 0.123250 0.695446
vt 0.122332 0.695212
vt 0.122531 0.694290
vt 0.100878 0.703774
vt 0.098063 0.704618
vt 0.097485 0.701135
vt 0.099345 0.700651
vt 0.096616 0.733117
vt 0.096061 0.736458
vt 0.094424 0.736237
vt 0.094177 0.732691
vt 0.095662 0.701054
vt 0.096151 0.699688
vt 0.097699 0.699833
vt 0.097485 0.701135
vt 0.097485 0.701135
vt 0.097699 0.699833
vt 0.098972 0.699785
vt 0.099345 0.700651
vt 0.099246 0.734256
vt 0.097800 0.737139
vt 0.096061 0.736458
vt 0.096616 0.733117
vt 0.102947 0.696268
vt 0.106426 0.697176
vt 0.105316 0.699651
vt 0.102165 0.697871
vt 0.095662 0.701054
vt 0.094177 0.700559
vt 0.094860 0.699339
vt 0.096151 0.699688
vt 0.096061 0.736458
vt 0.097800 0.737139
vt 0.097505 0.737861
vt 0.096326 0.737656
vt 0.106457 0.694964
vt 0.106426 0.697176
vt 0.102947 0.696268
vt 0.103016 0.694855
vt 0.103380 0.701986
vt 0.100935 0.699447
vt 0.102165 0.697871
vt 0.105316 0.699651
vt 0.102165 0.697871
vt 0.100828 0.697401
vt 0.101571 0.696058
vt 0.102947 0.696268
vt 0.102947 0.696268
vt 0.101571 0.696058
vt 0.101921 0.695128
vt 0.103016 0.694855
vt 0.100878 0.703774
vt 0.099345 0.700651
vt 0.100935 0.699447
vt 0.103380 0.701986
vt 0.121707 0.696714
vt 0.123942 0.699127
vt 0.121073 0.700875
vt 0.119756 0.697831
vt 0.102165 0.697871
vt 0.100935 0.699447
vt 0.099844 0.698784
vt 0.100828 0.697401
vt 0.100935 0.699447
vt 0.099345 0.700651
vt 0.098972 0.699785
vt 0.099844 0.698784
vt 0.123250 0.695446
vt 0.126223 0.697121
vt 0.123942 0.699127
vt 0.121707 0.696714
vt 0.118104 0.702114
vt 0.117788 0.698719
vt 0.119756 0.697831
vt 0.121073 0.700875
vt 0.119756 0.697831
vt 0.119414 0.696809
vt 0.121112 0.695910
vt 0.121707 0.696714
vt 0.121707 0.696714
vt 0.121112 0.695910
vt 0.122332 0.695212
vt 0.123250 0.695446
vt 0.115521 0.702597
vt 0.116099 0.699104
vt 0.117788 0.698719
vt 0.118104 0.702114
vt 0.101707 0.736100
vt 0.099246 0.734256
vt 0.102523 0.728213
vt 0.106190 0.731005
vt 0.119756 0.697831
vt 0.117788 0.698719
vt 0.117748 0.697631
vt 0.119414 0.696809
vt 0.117788 0.698719
vt 0.116099 0.699104
vt 0.116587 0.698152
vt 0.117748 0.697631
vt 0.148848 0.741709
vt 0.146370 0.742629
vt 0.145852 0.740145
vt 0.149017 0.739769
vt 0.146521 0.723528
vt 0.145543 0.727349
vt 0.143653 0.725542
vt 0.145335 0.721762
vt 0.152259 0.728288
vt 0.152428 0.730228
vt 0.149262 0.729853
vt 0.149781 0.727368
vt 0.130001 0.736817
vt 0.128815 0.738583
vt 0.127132 0.734802
vt 0.129023 0.732996
vt 0.146370 0.742629
vt 0.148750 0.745647
vt 0.145904 0.748312
vt 0.143629 0.744883
vt 0.149781 0.727368
vt 0.147040 0.725114
vt 0.149315 0.721685
vt 0.152161 0.724351
vt 0.143490 0.741696
vt 0.140417 0.743352
vt 0.139386 0.741486
vt 0.143629 0.739769
vt 0.126045 0.729377
vt 0.129023 0.732996
vt 0.127132 0.734802
vt 0.124623 0.730602
vt 0.123860 0.726595
vt 0.122421 0.726292
vt 0.123584 0.721851
vt 0.125367 0.723671
vt 0.125367 0.723671
vt 0.123584 0.721851
vt 0.125198 0.718520
vt 0.127547 0.720576
vt 0.140417 0.743352
vt 0.143418 0.745617
vt 0.139944 0.749128
vt 0.137088 0.746497
vt 0.125367 0.723671
vt 0.127547 0.720576
vt 0.129139 0.724224
vt 0.126511 0.727302
vt 0.140380 0.733749
vt 0.141887 0.736674
vt 0.140104 0.738494
vt 0.138941 0.734052
vt 0.151002 0.698257
vt 0.148437 0.700670
vt 0.146624 0.698144
vt 0.149904 0.695907
vt 0.136951 0.750379
vt 0.137088 0.752354
vt 0.132820 0.750903
vt 0.133866 0.748841
vt 0.142565 0.730968
vt 0.141144 0.729742
vt 0.143653 0.725542
vt 0.145543 0.727349
vt 0.141887 0.736674
vt 0.143032 0.733042
vt 0.145659 0.736120
vt 0.144068 0.739769
vt 0.133866 0.748841
vt 0.130519 0.745864
vt 0.133391 0.743017
vt 0.136881 0.746391
vt 0.099361 0.738379
vt 0.101707 0.736100
vt 0.103725 0.738289
vt 0.100646 0.739857
vt 0.869937 0.706571
vt 0.870031 0.731316
vt 0.867566 0.731970
vt 0.867800 0.706091
vt 0.870031 0.731316
vt 0.867666 0.738612
vt 0.867566 0.731970
vt 0.870875 0.737891
vt 0.871157 0.740258
vt 0.867638 0.741015
vt 0.869937 0.706571
vt 0.872664 0.706873
vt 0.873160 0.730460
vt 0.870031 0.731316
vt 0.879003 0.716961
vt 0.879100 0.693732
vt 0.881614 0.693620
vt 0.881221 0.717213
vt 0.870031 0.731316
vt 0.873160 0.730460
vt 0.874951 0.736906
vt 0.870875 0.737891
vt 0.871157 0.740258
vt 0.875626 0.739212
vt 0.879100 0.693732
vt 0.883191 0.687150
vt 0.881614 0.693620
vt 0.879884 0.687253
vt 0.880188 0.684940
vt 0.883823 0.684838
vt 0.879003 0.716961
vt 0.876227 0.717079
vt 0.875937 0.693467
vt 0.879100 0.693732
vt 0.853056 0.719213
vt 0.853265 0.694409
vt 0.856199 0.695251
vt 0.855598 0.718890
vt 0.879100 0.693732
vt 0.875937 0.693467
vt 0.875731 0.686949
vt 0.879884 0.687253
vt 0.880188 0.684940
vt 0.875626 0.684618
vt 0.853265 0.694409
vt 0.858425 0.688948
vt 0.856199 0.695251
vt 0.854592 0.687979
vt 0.855070 0.685671
vt 0.859276 0.686701
vt 0.853056 0.719213
vt 0.850484 0.719521
vt 0.850296 0.693551
vt 0.853265 0.694409
vt 0.853265 0.694409
vt 0.850296 0.693551
vt 0.850714 0.686988
vt 0.854592 0.687979
vt 0.855070 0.685671
vt 0.850815 0.684618
vt 0.879003 0.716961
vt 0.881221 0.717213
vt 0.882700 0.729182
vt 0.879827 0.728630
vt 0.879003 0.716961
vt 0.879827 0.728630
vt 0.876247 0.729009
vt 0.876227 0.717079
vt 0.862981 0.742594
vt 0.859276 0.742199
vt 0.859606 0.739829
vt 0.862991 0.740199
vt 0.862964 0.733588
vt 0.860342 0.733271
vt 0.863075 0.707224
vt 0.860728 0.707300
vt 0.860228 0.693539
vt 0.863211 0.693213
vt 0.863303 0.686468
vt 0.859836 0.686897
vt 0.862981 0.742594
vt 0.867158 0.739874
vt 0.867543 0.742248
vt 0.862991 0.740199
vt 0.862964 0.733588
vt 0.866183 0.733306
vt 0.863075 0.707224
vt 0.865940 0.707331
vt 0.866854 0.693579
vt 0.863211 0.693213
vt 0.863303 0.686468
vt 0.867543 0.686943
vt 0.855482 0.738504
vt 0.851643 0.739911
vt 0.851156 0.733274
vt 0.854434 0.732192
vt 0.853056 0.719213
vt 0.850484 0.719521
vt 0.855482 0.738504
vt 0.854434 0.732192
vt 0.857673 0.731091
vt 0.859276 0.737075
vt 0.855482 0.738504
vt 0.859276 0.737075
vt 0.858900 0.739057
vt 0.856119 0.740725
vt 0.855482 0.738504
vt 0.856119 0.740725
vt 0.852957 0.741217
vt 0.851643 0.739911
vt 0.853056 0.719213
vt 0.855598 0.718890
vt 0.857673 0.731091
vt 0.854434 0.732192
vt 0.869937 0.706571
vt 0.867800 0.706091
vt 0.868148 0.692503
vt 0.870862 0.693805
vt 0.871570 0.687640
vt 0.868398 0.685974
vt 0.869937 0.706571
vt 0.870862 0.693805
vt 0.874330 0.694878
vt 0.872664 0.706873
vt 0.854118 0.745646
vt 0.852529 0.741217
vt 0.855884 0.741219
vt 0.858176 0.743913
vt 0.854118 0.745646
vt 0.858176 0.743913
vt 0.858176 0.747567
vt 0.855702 0.750060
vt 0.854118 0.745646
vt 0.855702 0.750060
vt 0.852330 0.750052
vt 0.850055 0.747365
vt 0.854118 0.745646
vt 0.850055 0.747365
vt 0.850063 0.743693
vt 0.852529 0.741217
vt 0.871570 0.687640
vt 0.875626 0.689037
vt 0.874330 0.694878
vt 0.870862 0.693805
vt 0.871570 0.687640
vt 0.868398 0.685974
vt 0.869949 0.684618
vt 0.872516 0.685340
vt 0.871570 0.687640
vt 0.872516 0.685340
vt 0.875573 0.686956
vt 0.875626 0.689037
vt 0.880445 0.734308
vt 0.876240 0.734798
vt 0.876247 0.729009
vt 0.879827 0.728630
vt 0.880445 0.734308
vt 0.879827 0.728630
vt 0.882700 0.729182
vt 0.883823 0.735002
vt 0.880445 0.734308
vt 0.883823 0.735002
vt 0.882877 0.736994
vt 0.880365 0.736960
vt 0.880445 0.734308
vt 0.880365 0.736960
vt 0.876973 0.736836
vt 0.876240 0.734798
vt 0.856064 0.751068
vt 0.851807 0.751306
vt 0.852330 0.750052
vt 0.855702 0.750060
vt 0.863303 0.686468
vt 0.863791 0.684618
vt 0.867084 0.685603
vt 0.867543 0.686943
vt 0.000000 0.000000
vt 0.000000 0.000000
vt 0.000000 0.000000
vt 0.000000 0.000000
vt 0.000000 0.000000
vt 0.000000 0.000000
vt 0.000000 0.000000
vt 0.000000 0.000000
vt 0.000000 0.000000
vt 0.000000 0.000000
vt 0.000000 0.000000
vt 0.000000 0.000000
vt 0.000000 0.000000
vt 0.000000 0.000000
vt 0.000000 0.000000
vt 0.000000 0.000000
vt 0.000000 0.000000
vt 0.000000 0.000000
vt 0.000000 0.000000
vt 0.000000 0.000000
vt 0.000000 0.000000
vt 0.000000 0.000000
vt 0.000000 0.000000
vt 0.000000 0.000000
vt 0.000000 0.000000
vt 0.000000 0.000000
vt 0.000000 0.000000
vt 0.000000 0.000000
vt 0.000000 0.000000
vt 0.000000 0.000000
vt 0.000000 0.000000
vt 0.000000 0.000000
vt 0.000000 0.000000
vt 0.000000 0.000000
vt 0.000000 0.000000
vt 0.000000 0.000000
vt 0.000000 0.000000
vt 0.000000 0.000000
vt 0.000000 0.000000
vt 0.000000 0.000000
vt 0.000000 0.000000
vt 0.000000 0.000000
vt 0.000000 0.000000
vt 0.000000 0.000000
vt 0.000000 0.000000
vt 0.000000 0.000000
vt 0.000000 0.000000
vt 0.000000 0.000000
vt 0.000000 0.000000
vt 0.000000 0.000000
vt 0.000000 0.000000
vt 0.000000 0.000000
vt 0.000000 0.000000
vt 0.000000 0.000000
vt 0.000000 0.000000
vt 0.000000 0.000000
vt 0.000000 0.000000
vt 0.000000 0.000000
vt 0.000000 0.000000
vt 0.000000 0.000000
vt 0.000000 0.000000
vt 0.000000 0.000000
vt 0.000000 0.000000
vt 0.000000 0.000000
vt 0.000000 0.000000
vt 0.000000 0.000000
vt 0.000000 0.000000
vt 0.000000 0.000000
vt 0.000000 0.000000
vt 0.000000 0.000000
vt 0.000000 0.000000
vt 0.000000 0.000000
vt 0.000000 0.000000
vt 0.000000 0.000000
vt 0.000000 0.000000
vt 0.000000 0.000000
vt 0.000000 0.000000
vt 0.000000 0.000000
vt 0.000000 0.000000
vt 0.000000 0.000000
vt 0.000000 0.000000
vt 0.000000 0.000000
vt 0.000000 0.000000
vt 0.000000 0.000000
vt 0.000000 0.000000
vt 0.000000 0.000000
vt 0.000000 0.000000
vt 0.000000 0.000000
vt 0.000000 0.000000
vt 0.000000 0.000000
vt 0.000000 0.000000
vt 0.000000 0.000000
vt 0.000000 0.000000
vt 0.000000 0.000000
vt 0.000000 0.000000
vt 0.000000 0.000000
vt 0.000000 0.000000
vt 0.000000 0.000000
vt 0.000000 0.000000
vt 0.000000 0.000000
vt 0.000000 0.000000
vt 0.000000 0.000000
vt 0.000000 0.000000
vt 0.000000 0.000000
vt 0.000000 0.000000
vt 0.000000 0.000000
vt 0.000000 0.000000
vt 0.000000 0.000000
vt 0.000000 0.000000
vt 0.000000 0.000000
vt 0.000000 0.000000
vt 0.000000 0.000000
vt 0.000000 0.000000
vt 0.000000 0.000000
vt 0.000000 0.000000
vt 0.000000 0.000000
vt 0.000000 0.000000
vt 0.000000 0.000000
vt 0.000000 0.000000
vt 0.000000 0.000000
vt 0.000000 0.000000
vt 0.000000 0.000000
vt 0.000000 0.000000
vt 0.000000 0.000000
g Apple_Green_PaleGreen
usemtl PaleGreen
f 1/1/1 2/2/2 3/3/3
f 4/4/4 5/5/5 6/6/6
f 7/7/7 8/8/8 9/9/9
f 10/10/10 11/11/11 12/12/12
f 13/13/13 14/14/14 15/15/15
f 16/16/16 17/17/17 18/18/18
f 19/19/19 20/20/20 21/21/21
f 22/22/22 23/23/23 24/24/24
f 25/25/25 26/26/26 27/27/27
f 28/28/28 29/29/29 30/30/30
f 31/31/31 32/32/32 33/33/33
f 34/34/34 35/35/35 36/36/36
f 37/37/37 38/38/38 39/39/39
f 40/40/40 41/41/41 42/42/42
f 43/43/43 44/44/44 45/45/45
f 46/46/46 47/47/47 48/48/48
f 49/49/49 50/50/50 51/51/51
f 49/49/49 51/51/51 52/52/52
f 53/53/53 54/54/54 55/55/55
f 53/53/53 55/55/55 56/56/56
f 57/57/57 58/58/58 59/59/59
f 57/57/57 59/59/59 60/60/60
f 61/61/61 62/62/62 63/63/63
f 61/61/61 63/63/63 64/64/64
f 65/65/65 66/66/66 67/67/67
f 65/65/65 67/67/67 68/68/68
f 69/69/69 70/70/70 71/71/71
f 69/69/69 71/71/71 72/72/72
f 73/73/73 74/74/74 75/75/75
f 73/73/73 75/75/75 76/76/76
f 77/77/77 78/78/78 79/79/79
f 77/77/77 79/79/79 80/80/80
f 81/81/81 82/82/82 83/83/83
f 81/81/81 83/83/83 84/84/84
f 85/85/85 86/86/86 87/87/87
f 85/85/85 87/87/87 88/88/88
f 89/89/89 90/90/90 91/91/91
f 89/89/89 91/91/91 92/92/92
f 93/93/93 94/94/94 95/95/95
f 93/93/93 95/95/95 96/96/96
f 97/97/97 98/98/98 99/99/99
f 97/97/97 99/99/99 100/100/100
f 101/101/101 102/102/102 103/103/103
f 101/101/101 103/103/103 104/104/104
f 105/105/105 106/106/106 107/107/107
f 105/105/105 107/107/107 108/108/108
f 109/109/109 110/110/110 111/111/111
f 109/109/109 111/111/111 112/112/112
f 113/113/113 114/114/114 115/115/115
f 113/113/113 115/115/115 116/116/116
f 117/117/117 118/118/118 119/119/119
f 117/117/117 119/119/119 120/120/120
f 121/121/121 122/122/122 123/123/123
f 121/121/121 123/123/123 124/124/124
f 125/125/125 126/126/126 127/127/127
f 125/125/125 127/127/127 128/128/128
f 129/129/129 130/130/130 131/131/131
f 129/129/129 131/131/131 132/132/132
f 133/133/133 134/134/134 135/135/135
f 133/133/133 135/135/135 136/136/136
f 137/137/137 138/138/138 139/139/139
f 137/137/137 139/139/139 140/140/140
f 141/141/141 142/142/142 143/143/143
f 141/141/141 143/143/143 144/144/144
f 145/145/145 146/146/146 147/147/147
f 145/145/145 147/147/147 148/148/148
f 149/149/149 150/150/150 151/151/151
f 149/149/149 151/151/151 152/152/152
f 153/153/153 154/154/154 155/155/155
f 153/153/153 155/155/155 156/156/156
f 157/157/157 158/158/158 159/159/159
f 157/157/157 159/159/159 160/160/160
f 161/161/161 162/162/162 163/163/163
f 161/161/161 163/163/163 164/164/164
f 165/165/165 166/166/166 167/167/167
f 165/165/165 167/167/167 168/168/168
f 169/169/169 170/170/170 171/171/171
f 169/169/169 171/171/171 172/172/172
f 173/173/173 174/174/174 175/175/175
f 173/173/173 175/175/175 176/176/176
f 177/177/177 178/178/178 179/179/179
f 177/177/177 179/179/179 180/180/180
f 181/181/181 182/182/182 183/183/183
f 181/181/181 183/183/183 184/184/184
f 185/185/185 186/186/186 187/187/187
f 185/185/185 187/187/187 188/188/188
f 189/189/189 190/190/190 191/191/191
f 189/189/189 191/191/191 192/192/192
f 193/193/193 194/194/194 195/195/195
f 193/193/193 195/195/195 196/196/196
f 197/197/197 198/198/198 199/199/199
f 197/197/197 199/199/199 200/200/200
f 201/201/201 202/202/202 203/203/203
f 201/201/201 203/203/203 204/204/204
f 205/205/205 206/206/206 207/207/207
f 205/205/205 207/207/207 208/208/208
f 209/209/209 210/210/210 211/211/211
f 209/209/209 211/211/211 212/212/212
f 213/213/213 214/214/214 215/215/215
f 213/213/213 215/215/215 216/216/216
f 217/217/217 218/218/218 219/219/219
f 217/217/217 219/219/219 220/220/220
f 221/221/221 222/222/222 223/223/223
f 221/221/221 223/223/223 224/224/224
f 225/225/225 226/226/226 227/227/227
f 225/225/225 227/227/227 228/228/228
f 229/229/229 230/230/230 231/231/231
f 229/229/229 231/231/231 232/232/232
f 233/233/233 234/234/234 235/235/235
f 233/233/233 235/235/235 236/236/236
f 237/237/237 238/238/238 239/239/239
f 237/237/237 239/239/239 240/240/240
f 241/241/241 242/242/242 243/243/243
f 241/241/241 243/243/243 244/244/244
f 245/245/245 246/246/246 247/247/247
f 245/245/245 247/247/247 248/248/248
f 249/249/249 250/250/250 251/251/251
f 249/249/249 251/251/251 252/252/252
f 253/253/253 254/254/254 255/255/255
f 253/253/253 255/255/255 256/256/256
f 257/257/257 258/258/258 259/259/259
f 257/257/257 259/259/259 260/260/260
f 261/261/261 262/262/262 263/263/263
f 261/261/261 263/263/263 264/264/264
f 265/265/265 266/266/266 267/267/267
f 265/265/265 267/267/267 268/268/268
f 269/269/269 270/270/270 271/271/271
f 269/269/269 271/271/271 272/272/272
f 273/273/273 274/274/274 275/275/275
f 273/273/273 275/275/275 276/276/276
f 277/277/277 278/278/278 279/279/279
f 277/277/277 279/279/279 280/280/280
f 281/281/281 282/282/282 283/283/283
f 281/281/281 283/283/283 284/284/284
f 285/285/285 286/286/286 287/287/287
f 285/285/285 287/287/287 288/288/288
f 289/289/289 290/290/290 291/291/291
f 289/289/289 291/291/291 292/292/292
f 293/293/293 294/294/294 295/295/295
f 293/293/293 295/295/295 296/296/296
f 297/297/297 298/298/298 299/299/299
f 297/297/297 299/299/299 300/300/300
f 301/301/301 302/302/302 303/303/303
f 301/301/301 303/303/303 304/304/304
f 305/305/305 306/306/306 307/307/307
f 305/305/305 307/307/307 308/308/308
f 309/309/309 310/310/310 311/311/311
f 309/309/309 311/311/311 312/312/312
f 313/313/313 314/314/314 315/315/315
f 313/313/313 315/315/315 316/316/316
f 317/317/317 318/318/318 319/319/319
f 317/317/317 319/319/319 320/320/320
f 321/321/321 322/322/322 323/323/323
f 321/321/321 323/323/323 324/324/324
f 325/325/325 326/326/326 327/327/327
f 325/325/325 327/327/327 328/328/328
f 329/329/329 330/330/330 331/331/331
f 329/329/329 331/331/331 332/332/332
f 333/333/333 334/334/334 335/335/335
f 333/333/333 335/335/335 336/336/336
f 337/337/337 338/338/338 339/339/339
f 337/337/337 339/339/339 340/340/340
f 341/341/341 342/342/342 343/343/343
f 341/341/341 343/343/343 344/344/344
f 345/345/345 346/346/346 347/347/347
f 345/345/345 347/347/347 348/348/348
f 349/349/349 350/350/350 351/351/351
f 349/349/349 351/351/351 352/352/352
f 353/353/353 354/354/354 355/355/355
f 353/353/353 355/355/355 356/356/356
f 357/357/357 358/358/358 359/359/359
f 357/357/357 359/359/359 360/360/360
f 361/361/361 362/362/362 363/363/363
f 361/361/361 363/363/363 364/364/364
f 365/365/365 366/366/366 367/367/367
f 365/365/365 367/367/367 368/368/368
f 369/369/369 370/370/370 371/371/371
f 369/369/369 371/371/371 372/372/372
f 373/373/373 374/374/374 375/375/375
f 373/373/373 375/375/375 376/376/376
f 377/377/377 378/378/378 379/379/379
f 377/377/377 379/379/379 380/380/380
f 381/381/381 382/382/382 383/383/383
f 381/381/381 383/383/383 384/384/384
f 385/385/385 386/386/386 387/387/387
f 385/385/385 387/387/387 388/388/388
f 389/389/389 390/390/390 391/391/391
f 389/389/389 391/391/391 392/392/392
f 393/393/393 394/394/394 395/395/395
f 393/393/393 395/395/395 396/396/396
f 397/397/397 398/398/398 399/399/399
f 397/397/397 399/399/399 400/400/400
f 401/401/401 402/402/402 403/403/403
f 401/401/401 403/403/403 404/404/404
f 405/405/405 406/406/406 407/407/407
f 405/405/405 407/407/407 408/408/408
f 409/409/409 410/410/410 411/411/411
f 409/409/409 411/411/411 412/412/412
f 413/413/413 414/414/414 415/415/415
f 413/413/413 415/415/415 416/416/416
f 417/417/417 418/418/418 419/419/419
f 417/417/417 419/419/419 420/420/420
f 421/421/421 422/422/422 423/423/423
f 421/421/421 423/423/423 424/424/424
f 425/425/425 426/426/426 427/427/427
f 425/425/425 427/427/427 428/428/428
f 429/429/429 430/430/430 431/431/431
f 429/429/429 431/431/431 432/432/432
f 433/433/433 434/434/434 435/435/435
f 433/433/433 435/435/435 436/436/436
f 437/437/437 438/438/438 439/439/439
f 437/437/437 439/439/439 440/440/440
f 441/441/441 442/442/442 443/443/443
f 441/441/441 443/443/443 444/444/444
f 445/445/445 446/446/446 447/447/447
f 445/445/445 447/447/447 448/448/448
f 449/449/449 450/450/450 451/451/451
f 449/449/449 451/451/451 452/452/452
f 453/453/453 454/454/454 455/455/455
f 453/453/453 455/455/455 456/456/456
f 457/457/457 458/458/458 459/459/459
f 457/457/457 459/459/459 460/460/460
f 461/461/461 462/462/462 463/463/463
f 461/461/461 463/463/463 464/464/464
f 465/465/465 466/466/466 467/467/467
f 465/465/465 467/467/467 468/468/468
f 469/469/469 470/470/470 471/471/471
f 469/469/469 471/471/471 472/472/472
f 473/473/473 474/474/474 475/475/475
f 473/473/473 475/475/475 476/476/476
f 477/477/477 478/478/478 479/479/479
f 477/477/477 479/479/479 480/480/480
f 481/481/481 482/482/482 483/483/483
f 481/481/481 483/483/483 484/484/484
f 485/485/485 486/486/486 487/487/487
f 485/485/485 487/487/487 488/488/488
f 489/489/489 490/490/490 491/491/491
f 489/489/489 491/491/491 492/492/492
f 493/493/493 494/494/494 495/495/495
f 493/493/493 495/495/495 496/496/496
f 497/497/497 498/498/498 499/499/499
f 497/497/497 499/499/499 500/500/500
f 501/501/501 502/502/502 503/503/503
f 501/501/501 503/503/503 504/504/504
f 505/505/505 506/506/506 507/507/507
f 505/505/505 507/507/507 508/508/508
f 509/509/509 510/510/510 511/511/511
f 509/509/509 511/511/511 512/512/512
f 513/513/513 514/514/514 515/515/515
f 513/513/513 515/515/515 516/516/516
f 517/517/517 518/518/518 519/519/519
f 517/517/517 519/519/519 520/520/520
f 521/521/521 522/522/522 523/523/523
f 521/521/521 523/523/523 524/524/524
f 525/525/525 526/526/526 527/527/527
f 525/525/525 527/527/527 528/528/528
g Apple_Green_DarkBrown
usemtl DarkBrown
f 529/529/529 530/530/530 531/531/531
f 529/529/529 531/531/531 532/532/532
f 533/533/533 534/534/534 535/535/535
f 533/533/533 536/536/536 534/534/534
f 537/537/537 534/534/534 536/536/536
f 537/537/537 538/538/538 534/534/534
f 539/539/539 540/540/540 541/541/541
f 539/539/539 541/541/541 542/542/542
f 543/543/543 544/544/544 545/545/545
f 543/543/543 545/545/545 546/546/546
f 547/547/547 548/548/548 549/549/549
f 547/547/547 549/549/549 550/550/550
f 551/551/551 550/550/550 549/549/549
f 551/551/551 549/549/549 552/552/552
f 553/553/553 554/554/554 555/555/555
f 553/553/553 556/556/556 554/554/554
f 557/557/557 554/554/554 556/556/556
f 557/557/557 558/558/558 554/554/554
f 559/559/559 560/560/560 561/561/561
f 559/559/559 561/561/561 562/562/562
f 563/563/563 564/564/564 565/565/565
f 563/563/563 565/565/565 566/566/566
f 567/567/567 568/568/568 569/569/569
f 567/567/567 569/569/569 570/570/570
f 571/571/571 570/570/570 569/569/569
f 571/571/571 569/569/569 572/572/572
f 573/573/573 574/574/574 575/575/575
f 573/573/573 576/576/576 574/574/574
f 577/577/577 574/574/574 576/576/576
f 577/577/577 578/578/578 574/574/574
f 579/579/579 580/580/580 581/581/581
f 579/579/579 581/581/581 582/582/582
f 583/583/583 584/584/584 585/585/585
f 583/583/583 585/585/585 586/586/586
f 587/587/587 586/586/586 585/585/585
f 587/587/587 585/585/585 588/588/588
f 589/589/589 590/590/590 591/591/591
f 589/589/589 591/591/591 592/592/592
f 593/593/593 594/594/594 595/595/595
f 593/593/593 595/595/595 596/596/596
f 597/597/597 598/598/598 599/599/599
f 597/597/597 599/599/599 600/600/600
f 601/601/601 600/600/600 599/599/599
f 601/601/601 599/599/599 602/602/602
f 603/603/603 601/601/601 602/602/602
f 603/603/603 602/602/602 604/604/604
f 603/603/603 604/604/604 605/605/605
f 603/603/603 605/605/605 606/606/606
f 607/607/607 606/606/606 605/605/605
f 607/607/607 605/605/605 608/608/608
f 609/609/609 610/610/610 611/611/611
f 609/609/609 612/612/612 610/610/610
f 613/613/613 610/610/610 612/612/612
f 613/613/613 614/614/614 610/610/610
f 615/615/615 614/614/614 613/613/613
f 615/615/615 616/616/616 614/614/614
f 615/615/615 617/617/617 616/616/616
f 615/615/615 618/618/618 617/617/617
f 619/619/619 617/617/617 618/618/618
f 619/619/619 620/620/620 617/617/617
f 621/621/621 622/622/622 623/623/623
f 621/621/621 623/623/623 624/624/624
f 625/625/625 624/624/624 623/623/623
f 625/625/625 623/623/623 626/626/626
f 627/627/627 628/628/628 629/629/629
f 627/627/627 629/629/629 630/630/630
f 631/631/631 632/632/632 633/633/633
f 631/631/631 633/633/633 634/634/634
f 635/635/635 636/636/636 637/637/637
f 635/635/635 637/637/637 638/638/638
f 639/639/639 640/640/640 641/641/641
f 639/639/639 641/641/641 642/642/642
f 643/643/643 644/644/644 645/645/645
f 643/643/643 645/645/645 646/646/646
f 647/647/647 646/646/646 645/645/645
f 647/647/647 645/645/645 648/648/648
f 649/649/649 650/650/650 651/651/651
f 649/649/649 651/651/651 652/652/652
f 653/653/653 654/654/654 655/655/655
f 653/653/653 655/655/655 656/656/656
f 657/657/657 658/658/658 659/659/659
f 657/657/657 659/659/659 660/660/660
f 661/661/661 662/662/662 663/663/663
f 661/661/661 663/663/663 664/664/664
f 665/665/665 666/666/666 667/667/667
f 665/665/665 667/667/667 668/668/668
f 669/669/669 670/670/670 671/671/671
f 669/669/669 671/671/671 672/672/672
f 673/673/673 674/674/674 675/675/675
f 673/673/673 675/675/675 676/676/676
f 677/677/677 678/678/678 679/679/679
f 677/677/677 679/679/679 680/680/680
f 681/681/681 682/682/682 683/683/683
f 681/681/681 683/683/683 684/684/684
f 685/685/685 686/686/686 687/687/687
f 685/685/685 687/687/687 688/688/688
f 689/689/689 690/690/690 691/691/691
f 689/689/689 691/691/691 692/692/692
f 693/693/693 694/694/694 695/695/695
f 693/693/693 695/695/695 696/696/696
f 697/697/697 698/698/698 699/699/699
f 697/697/697 699/699/699 700/700/700
f 701/701/701 702/702/702 703/703/703
f 701/701/701 703/703/703 704/704/704
g Apple_Green_DarkGreen
usemtl DarkGreen
f 705/705/705 706/706/706 707/707/707
f 708/708/708 705/705/705 707/707/707
f 708/708/708 707/707/707 709/709/709
f 710/710/710 708/708/708 709/709/709
f 710/710/710 709/709/709 711/711/711
f 712/712/712 710/710/710 711/711/711
f 712/712/712 711/711/711 713/713/713
f 714/714/714 712/712/712 713/713/713
f 714/714/714 713/713/713 715/715/715
f 716/716/716 714/714/714 715/715/715
f 716/716/716 715/715/715 717/717/717
f 718/718/718 716/716/716 717/717/717
f 718/718/718 717/717/717 719/719/719
f 720/720/720 718/718/718 719/719/719
f 720/720/720 719/719/719 721/721/721
f 721/721/721 722/722/722 720/720/720
f 721/721/721 723/723/723 722/722/722
f 723/723/723 724/724/724 722/722/722
f 723/723/723 725/725/725 724/724/724
f 726/726/726 727/727/727 728/728/728
f 729/729/729 727/727/727 726/726/726
f 729/729/729 730/730/730 727/727/727
f 731/731/731 730/730/730 729/729/729
f 731/731/731 732/732/732 730/730/730
f 733/733/733 732/732/732 731/731/731
f 733/733/733 734/734/734 732/732/732
f 735/735/735 734/734/734 733/733/733
f 735/735/735 736/736/736 734/734/734
f 737/737/737 736/736/736 735/735/735
f 737/737/737 738/738/738 736/736/736
f 739/739/739 738/738/738 737/737/737
f 739/739/739 740/740/740 738/738/738
f 741/741/741 740/740/740 739/739/739
f 741/741/741 742/742/742 740/740/740
f 742/742/742 741/741/741 743/743/743
f 742/742/742 743/743/743 744/744/744
f 744/744/744 743/743/743 745/745/745
f 744/744/744 745/745/745 746/746/746
f 747/747/747 748/748/748 749/749/749
f 747/747/747 749/749/749 750/750/750
f 751/751/751 752/752/752 753/753/753
f 751/751/751 753/753/753 754/754/754
f 755/755/755 756/756/756 757/757/757
f 755/755/755 757/757/757 758/758/758
f 759/759/759 760/760/760 761/761/761
f 759/759/759 761/761/761 762/762/762
f 763/763/763 764/764/764 765/765/765
f 763/763/763 765/765/765 766/766/766
f 767/767/767 768/768/768 769/769/769
f 767/767/767 769/769/769 770/770/770
f 771/771/771 772/772/772 773/773/773
f 771/771/771 773/773/773 774/774/774
f 775/775/775 776/776/776 777/777/777
f 775/775/775 777/777/777 778/778/778
f 779/779/779 780/780/780 781/781/781
f 779/779/779 781/781/781 782/782/782
f 783/783/783 784/784/784 785/785/785
f 783/783/783 785/785/785 786/786/786
f 787/787/787 788/788/788 789/789/789
f 787/787/787 789/789/789 790/790/790
f 791/791/791 792/792/792 793/793/793
f 791/791/791 793/793/793 794/794/794
f 795/795/795 796/796/796 797/797/797
f 795/795/795 797/797/797 798/798/798
f 798/798/798 797/797/797 799/799/799
f 798/798/798 799/799/799 800/800/800
f 801/801/801 802/802/802 803/803/803
f 801/801/801 803/803/803 804/804/804
f 805/805/805 806/806/806 807/807/807
f 805/805/805 807/807/807 808/808/808
f 809/809/809 810/810/810 811/811/811
f 809/809/809 811/811/811 812/812/812
f 813/813/813 814/814/814 815/815/815
f 813/813/813 815/815/815 816/816/816
f 817/817/817 818/818/818 819/819/819
f 817/817/817 819/819/819 820/820/820
f 821/821/821 822/822/822 823/823/823
f 821/821/821 823/823/823 824/824/824
f 825/825/825 826/826/826 827/827/827
f 825/825/825 827/827/827 828/828/828
