mtllib Materials.mtl
# Ultimate Food Pack - Avocado_Empty
o Avocado_Empty
v 0.000000 0.088229 0.183685
v -0.107635 0.088229 0.217904
v -0.125020 -0.045684 0.201323
v 0.000000 -0.045684 0.161578
v -0.313161 -0.040802 0.324024
v -0.308362 -0.118373 0.324024
v -0.099366 -0.109484 0.333154
v -0.163267 -0.045684 0.330362
v -0.139840 0.088229 0.331072
v -0.308362 0.075763 0.324024
v -0.071646 0.236718 0.333803
v -0.274947 0.225428 0.324024
v -0.203786 0.485611 0.324024
v 0.000000 0.268763 0.337494
v 0.000000 0.485611 0.337494
v -0.125020 -0.045684 0.201323
v -0.163267 -0.045684 0.330362
v -0.099366 -0.109484 0.333154
v -0.082621 -0.094986 0.241761
v 0.000000 -0.112241 0.222753
v -0.082621 -0.094986 0.241761
v -0.099366 -0.109484 0.333154
v 0.000000 -0.130817 0.336474
v 0.000000 -0.112241 0.222753
v 0.000000 -0.130817 0.336474
v 0.099366 -0.109484 0.333154
v 0.082621 -0.094986 0.241761
v 0.000000 0.242505 0.250387
v 0.064593 0.215585 0.258955
v 0.071646 0.236718 0.333803
v 0.000000 0.268763 0.337494
v -0.107635 0.088229 0.217904
v -0.139840 0.088229 0.331072
v -0.163267 -0.045684 0.330362
v -0.125020 -0.045684 0.201323
v 0.000000 0.088229 0.183685
v 0.000000 -0.045684 0.161578
v 0.125020 -0.045684 0.201323
v 0.107635 0.088229 0.217904
v 0.000000 -0.045684 0.161578
v -0.125020 -0.045684 0.201323
v -0.082621 -0.094986 0.241761
v 0.000000 -0.112241 0.222753
v 0.000000 -0.045684 0.161578
v 0.000000 -0.112241 0.222753
v 0.082621 -0.094986 0.241761
v 0.125020 -0.045684 0.201323
v 0.000000 0.242505 0.250387
v 0.000000 0.268763 0.337494
v -0.071646 0.236718 0.333803
v -0.064593 0.215585 0.258955
v 0.107635 0.088229 0.217904
v 0.139840 0.088229 0.331072
v 0.071646 0.236718 0.333803
v 0.064593 0.215585 0.258955
v -0.107635 0.088229 0.217904
v -0.064593 0.215585 0.258955
v -0.071646 0.236718 0.333803
v -0.139840 0.088229 0.331072
v 0.000000 0.088229 0.183685
v 0.107635 0.088229 0.217904
v 0.064593 0.215585 0.258955
v 0.000000 0.242505 0.250387
v 0.000000 0.088229 0.183685
v 0.000000 0.242505 0.250387
v -0.064593 0.215585 0.258955
v -0.107635 0.088229 0.217904
v 0.203786 0.485611 0.324024
v 0.000000 0.485611 0.337494
v 0.000000 0.268763 0.337494
v 0.071646 0.236718 0.333803
v 0.274947 0.225428 0.324024
v 0.139840 0.088229 0.331072
v 0.308362 0.075763 0.324024
v 0.163267 -0.045684 0.330362
v 0.313161 -0.040802 0.324024
v 0.099366 -0.109484 0.333154
v 0.308362 -0.118373 0.324024
v 0.000000 0.485611 0.337494
v 0.000000 0.688711 0.324024
v -0.132369 0.636056 0.313547
v -0.203786 0.485611 0.324024
v 0.000000 0.485611 0.337494
v 0.203786 0.485611 0.324024
v 0.132369 0.636056 0.313547
v 0.000000 0.688711 0.324024
v 0.000000 -0.130817 0.336474
v 0.000000 -0.282714 0.324024
v 0.221869 -0.240107 0.313547
v 0.308362 -0.118373 0.324024
v 0.099366 -0.109484 0.333154
v -0.221869 -0.240107 0.313547
v 0.000000 -0.282714 0.324024
v 0.000000 -0.130817 0.336474
v -0.308362 -0.118373 0.324024
v -0.099366 -0.109484 0.333154
v 0.125020 -0.045684 0.201323
v 0.082621 -0.094986 0.241761
v 0.099366 -0.109484 0.333154
v 0.163267 -0.045684 0.330362
v 0.107635 0.088229 0.217904
v 0.125020 -0.045684 0.201323
v 0.163267 -0.045684 0.330362
v 0.139840 0.088229 0.331072
v 0.000000 0.080726 -0.044306
v 0.000000 0.046818 -0.019087
v -0.175261 0.035865 0.012016
v -0.172575 0.080106 -0.010051
v -0.363546 -0.118373 0.283614
v -0.369203 -0.040802 0.283614
v -0.348875 -0.029849 0.212101
v -0.343529 -0.103539 0.213624
v -0.363546 -0.118373 0.283614
v -0.308362 -0.118373 0.324024
v -0.313161 -0.040802 0.324024
v -0.369203 -0.040802 0.283614
v 0.000000 0.000303 -0.006903
v 0.000000 0.046818 -0.019087
v 0.175261 0.035865 0.012016
v 0.172575 -0.014532 0.022677
v 0.000000 0.000303 -0.006903
v -0.172575 -0.014532 0.022677
v -0.175261 0.035865 0.012016
v 0.000000 0.046818 -0.019087
v 0.363546 -0.118373 0.283614
v 0.369203 -0.040802 0.283614
v 0.313161 -0.040802 0.324024
v 0.308362 -0.118373 0.324024
v 0.363546 -0.118373 0.283614
v 0.343529 -0.103539 0.213624
v 0.348875 -0.029849 0.212101
v 0.369203 -0.040802 0.283614
v 0.283478 -0.059035 0.111415
v 0.287890 0.003008 0.105323
v 0.348875 -0.029849 0.212101
v 0.343529 -0.103539 0.213624
v 0.283478 -0.059035 0.111415
v 0.172575 -0.014532 0.022677
v 0.175261 0.035865 0.012016
v 0.287890 0.003008 0.105323
v -0.283478 -0.059035 0.111415
v -0.343529 -0.103539 0.213624
v -0.348875 -0.029849 0.212101
v -0.287890 0.003008 0.105323
v -0.283478 -0.059035 0.111415
v -0.287890 0.003008 0.105323
v -0.175261 0.035865 0.012016
v -0.172575 -0.014532 0.022677
v 0.369203 -0.040802 0.283614
v 0.348875 -0.029849 0.212101
v 0.343529 0.076384 0.208948
v 0.363546 0.075763 0.283614
v 0.363546 0.075763 0.283614
v 0.274947 0.225428 0.324024
v 0.308362 0.075763 0.324024
v 0.324150 0.225428 0.283614
v 0.258068 0.485611 0.283614
v 0.203786 0.485611 0.324024
v 0.363546 0.075763 0.283614
v 0.343529 0.076384 0.208948
v 0.306303 0.221367 0.210474
v 0.324150 0.225428 0.283614
v 0.258068 0.485611 0.283614
v 0.243858 0.471037 0.215052
v 0.369203 -0.040802 0.283614
v 0.363546 0.075763 0.283614
v 0.308362 0.075763 0.324024
v 0.313161 -0.040802 0.324024
v -0.363546 0.075763 0.283614
v -0.343529 0.076384 0.208948
v -0.348875 -0.029849 0.212101
v -0.369203 -0.040802 0.283614
v -0.363546 -0.118373 0.283614
v -0.259634 -0.282714 0.283614
v -0.221869 -0.240107 0.313547
v -0.308362 -0.118373 0.324024
v -0.363546 -0.118373 0.283614
v -0.343529 -0.103539 0.213624
v -0.245338 -0.259593 0.217130
v -0.259634 -0.282714 0.283614
v 0.000000 -0.337494 0.283614
v -0.259634 -0.282714 0.283614
v -0.245338 -0.259593 0.217130
v 0.000000 -0.311611 0.218299
v 0.000000 -0.337494 0.283614
v 0.000000 -0.282714 0.324024
v -0.221869 -0.240107 0.313547
v -0.259634 -0.282714 0.283614
v 0.000000 -0.337494 0.283614
v 0.259634 -0.282714 0.283614
v 0.221869 -0.240107 0.313547
v 0.000000 -0.282714 0.324024
v 0.000000 -0.337494 0.283614
v 0.000000 -0.311611 0.218299
v 0.245338 -0.259593 0.217130
v 0.259634 -0.282714 0.283614
v -0.287890 0.003008 0.105323
v -0.348875 -0.029849 0.212101
v -0.343529 0.076384 0.208948
v -0.283478 0.078245 0.092714
v 0.000000 0.080726 -0.044306
v 0.172575 0.080106 -0.010051
v 0.175261 0.035865 0.012016
v 0.000000 0.046818 -0.019087
v 0.000000 0.000303 -0.006903
v 0.000000 -0.123629 0.046054
v -0.135181 -0.113430 0.060229
v -0.172575 -0.014532 0.022677
v 0.000000 0.000303 -0.006903
v 0.172575 -0.014532 0.022677
v 0.135181 -0.113430 0.060229
v 0.000000 -0.123629 0.046054
v 0.000000 0.756411 0.283614
v 0.153837 0.688711 0.283614
v 0.145367 0.664274 0.219630
v 0.000000 0.728687 0.221156
v 0.000000 0.756411 0.283614
v 0.000000 0.688711 0.324024
v 0.132369 0.636056 0.313547
v 0.153837 0.688711 0.283614
v 0.000000 0.756411 0.283614
v -0.153837 0.688711 0.283614
v -0.132369 0.636056 0.313547
v 0.000000 0.688711 0.324024
v 0.000000 0.756411 0.283614
v 0.000000 0.728687 0.221156
v -0.145367 0.664274 0.219630
v -0.153837 0.688711 0.283614
v 0.258068 0.485611 0.283614
v 0.153837 0.688711 0.283614
v 0.132369 0.636056 0.313547
v 0.203786 0.485611 0.324024
v 0.258068 0.485611 0.283614
v 0.243858 0.471037 0.215052
v 0.145367 0.664274 0.219630
v 0.153837 0.688711 0.283614
v -0.201231 0.427312 0.117130
v -0.306303 0.221367 0.210474
v -0.243858 0.471037 0.215052
v -0.252760 0.209184 0.098818
v -0.283478 0.078245 0.092714
v -0.343529 0.076384 0.208948
v -0.201231 0.427312 0.117130
v -0.122505 0.383588 0.032677
v -0.153874 0.197000 0.000631
v -0.252760 0.209184 0.098818
v -0.283478 0.078245 0.092714
v -0.172575 0.080106 -0.010051
v -0.201231 0.427312 0.117130
v -0.119956 0.590963 0.135442
v -0.085401 0.504458 0.073562
v -0.122505 0.383588 0.032677
v -0.201231 0.427312 0.117130
v -0.243858 0.471037 0.215052
v -0.145367 0.664274 0.219630
v -0.119956 0.590963 0.135442
v 0.000000 0.369013 0.004526
v 0.000000 0.192939 -0.032098
v -0.153874 0.197000 0.000631
v -0.122505 0.383588 0.032677
v 0.000000 0.369013 0.004526
v 0.122505 0.383588 0.032677
v 0.153874 0.197000 0.000631
v 0.000000 0.192939 -0.032098
v 0.000000 0.369013 0.004526
v 0.000000 0.520939 0.063197
v 0.085401 0.504458 0.073562
v 0.122505 0.383588 0.032677
v 0.000000 0.369013 0.004526
v -0.122505 0.383588 0.032677
v -0.085401 0.504458 0.073562
v 0.000000 0.520939 0.063197
v 0.000000 0.080726 -0.044306
v 0.000000 0.192939 -0.032098
v 0.153874 0.197000 0.000631
v 0.172575 0.080106 -0.010051
v 0.000000 0.080726 -0.044306
v -0.172575 0.080106 -0.010051
v -0.153874 0.197000 0.000631
v 0.000000 0.192939 -0.032098
v -0.363546 0.075763 0.283614
v -0.306303 0.221367 0.210474
v -0.343529 0.076384 0.208948
v -0.324150 0.225428 0.283614
v -0.258068 0.485611 0.283614
v -0.243858 0.471037 0.215052
v -0.363546 0.075763 0.283614
v -0.308362 0.075763 0.324024
v -0.274947 0.225428 0.324024
v -0.324150 0.225428 0.283614
v -0.258068 0.485611 0.283614
v -0.203786 0.485611 0.324024
v 0.363546 -0.118373 0.283614
v 0.259634 -0.282714 0.283614
v 0.245338 -0.259593 0.217130
v 0.343529 -0.103539 0.213624
v 0.363546 -0.118373 0.283614
v 0.308362 -0.118373 0.324024
v 0.221869 -0.240107 0.313547
v 0.259634 -0.282714 0.283614
v 0.283478 -0.059035 0.111415
v 0.202452 -0.190230 0.125442
v 0.135181 -0.113430 0.060229
v 0.172575 -0.014532 0.022677
v 0.283478 -0.059035 0.111415
v 0.343529 -0.103539 0.213624
v 0.245338 -0.259593 0.217130
v 0.202452 -0.190230 0.125442
v 0.283478 0.078245 0.092714
v 0.287890 0.003008 0.105323
v 0.175261 0.035865 0.012016
v 0.172575 0.080106 -0.010051
v -0.363546 0.075763 0.283614
v -0.369203 -0.040802 0.283614
v -0.313161 -0.040802 0.324024
v -0.308362 0.075763 0.324024
v -0.287890 0.003008 0.105323
v -0.283478 0.078245 0.092714
v -0.172575 0.080106 -0.010051
v -0.175261 0.035865 0.012016
v 0.283478 0.078245 0.092714
v 0.343529 0.076384 0.208948
v 0.348875 -0.029849 0.212101
v 0.287890 0.003008 0.105323
v -0.258068 0.485611 0.283614
v -0.153837 0.688711 0.283614
v -0.145367 0.664274 0.219630
v -0.243858 0.471037 0.215052
v -0.258068 0.485611 0.283614
v -0.203786 0.485611 0.324024
v -0.132369 0.636056 0.313547
v -0.153837 0.688711 0.283614
v 0.201231 0.427312 0.117130
v 0.153874 0.197000 0.000631
v 0.122505 0.383588 0.032677
v 0.252760 0.209184 0.098818
v 0.283478 0.078245 0.092714
v 0.172575 0.080106 -0.010051
v 0.201231 0.427312 0.117130
v 0.243858 0.471037 0.215052
v 0.306303 0.221367 0.210474
v 0.252760 0.209184 0.098818
v 0.283478 0.078245 0.092714
v 0.343529 0.076384 0.208948
v 0.201231 0.427312 0.117130
v 0.119956 0.590963 0.135442
v 0.145367 0.664274 0.219630
v 0.243858 0.471037 0.215052
v 0.201231 0.427312 0.117130
v 0.122505 0.383588 0.032677
v 0.085401 0.504458 0.073562
v 0.119956 0.590963 0.135442
v 0.000000 0.645513 0.141546
v 0.119956 0.590963 0.135442
v 0.085401 0.504458 0.073562
v 0.000000 0.520939 0.063197
v 0.000000 0.645513 0.141546
v 0.000000 0.728687 0.221156
v 0.145367 0.664274 0.219630
v 0.119956 0.590963 0.135442
v 0.000000 0.645513 0.141546
v -0.119956 0.590963 0.135442
v -0.145367 0.664274 0.219630
v 0.000000 0.728687 0.221156
v 0.000000 0.645513 0.141546
v 0.000000 0.520939 0.063197
v -0.085401 0.504458 0.073562
v -0.119956 0.590963 0.135442
v 0.000000 -0.233961 0.130117
v -0.202452 -0.190230 0.125442
v -0.135181 -0.113430 0.060229
v 0.000000 -0.123629 0.046054
v 0.000000 -0.233961 0.130117
v 0.000000 -0.311611 0.218299
v -0.245338 -0.259593 0.217130
v -0.202452 -0.190230 0.125442
v 0.000000 -0.233961 0.130117
v 0.202452 -0.190230 0.125442
v 0.245338 -0.259593 0.217130
v 0.000000 -0.311611 0.218299
v 0.000000 -0.233961 0.130117
v 0.000000 -0.123629 0.046054
v 0.135181 -0.113430 0.060229
v 0.202452 -0.190230 0.125442
v -0.283478 -0.059035 0.111415
v -0.202452 -0.190230 0.125442
v -0.245338 -0.259593 0.217130
v -0.343529 -0.103539 0.213624
v -0.283478 -0.059035 0.111415
v -0.172575 -0.014532 0.022677
v -0.135181 -0.113430 0.060229
v -0.202452 -0.190230 0.125442
vn 0.299293 -0.155415 0.941419
vn 0.299293 -0.155415 0.941419
vn 0.299293 -0.155415 0.941419
vn 0.299293 -0.155415 0.941419
vn -0.043046 -0.001191 0.999072
vn -0.043046 -0.001191 0.999072
vn -0.043046 -0.001191 0.999072
vn -0.043046 -0.001191 0.999072
vn -0.042048 0.001906 0.999114
vn -0.042048 0.001906 0.999114
vn -0.056498 0.007666 0.998373
vn -0.056498 0.007666 0.998373
vn -0.056498 0.007666 0.998373
vn -0.056498 0.007666 0.998373
vn -0.056498 0.007666 0.998373
vn 0.669704 0.711171 0.213850
vn 0.669704 0.711171 0.213850
vn 0.669704 0.711171 0.213850
vn 0.669704 0.711171 0.213850
vn 0.218538 0.960424 0.172706
vn 0.218538 0.960424 0.172706
vn 0.218538 0.960424 0.172706
vn 0.218538 0.960424 0.172706
vn -0.218538 0.960424 0.172706
vn -0.218538 0.960424 0.172706
vn -0.218538 0.960424 0.172706
vn -0.218538 0.960424 0.172706
vn -0.390225 -0.878944 0.274193
vn -0.390225 -0.878944 0.274193
vn -0.390225 -0.878944 0.274193
vn -0.390225 -0.878944 0.274193
vn 0.947493 -0.162173 0.275603
vn 0.947493 -0.162173 0.275603
vn 0.947493 -0.162173 0.275603
vn 0.947493 -0.162173 0.275603
vn -0.299293 -0.155415 0.941419
vn -0.299293 -0.155415 0.941419
vn -0.299293 -0.155415 0.941419
vn -0.299293 -0.155415 0.941419
vn 0.249859 0.688533 0.680803
vn 0.249859 0.688533 0.680803
vn 0.249859 0.688533 0.680803
vn 0.249859 0.688533 0.680803
vn -0.249859 0.688533 0.680803
vn -0.249859 0.688533 0.680803
vn -0.249859 0.688533 0.680803
vn -0.249859 0.688533 0.680803
vn 0.390225 -0.878944 0.274193
vn 0.390225 -0.878944 0.274193
vn 0.390225 -0.878944 0.274193
vn 0.390225 -0.878944 0.274193
vn -0.889329 -0.395151 0.230107
vn -0.889329 -0.395151 0.230107
vn -0.889329 -0.395151 0.230107
vn -0.889329 -0.395151 0.230107
vn 0.889329 -0.395151 0.230107
vn 0.889329 -0.395151 0.230107
vn 0.889329 -0.395151 0.230107
vn 0.889329 -0.395151 0.230107
vn -0.278531 -0.380041 0.882037
vn -0.278531 -0.380041 0.882037
vn -0.278531 -0.380041 0.882037
vn -0.278531 -0.380041 0.882037
vn 0.278531 -0.380041 0.882037
vn 0.278531 -0.380041 0.882037
vn 0.278531 -0.380041 0.882037
vn 0.278531 -0.380041 0.882037
vn 0.056498 0.007666 0.998373
vn 0.056498 0.007666 0.998373
vn 0.056498 0.007666 0.998373
vn 0.056498 0.007666 0.998373
vn 0.056498 0.007666 0.998373
vn 0.045616 0.006396 0.998939
vn 0.045616 0.006396 0.998939
vn 0.043045 -0.001191 0.999072
vn 0.043045 -0.001191 0.999072
vn 0.043045 -0.001191 0.999072
vn 0.043045 -0.001191 0.999072
vn -0.083922 0.084206 0.992908
vn -0.083922 0.084206 0.992908
vn -0.083922 0.084206 0.992908
vn -0.083922 0.084206 0.992908
vn 0.083922 0.084206 0.992908
vn 0.083922 0.084206 0.992908
vn 0.083922 0.084206 0.992908
vn 0.083922 0.084206 0.992908
vn 0.052555 -0.095878 0.994005
vn 0.052555 -0.095878 0.994005
vn 0.052555 -0.095878 0.994005
vn 0.052555 -0.095878 0.994005
vn 0.052555 -0.095878 0.994005
vn -0.052555 -0.095878 0.994005
vn -0.052555 -0.095878 0.994005
vn -0.052555 -0.095878 0.994005
vn -0.052555 -0.095878 0.994005
vn -0.052555 -0.095878 0.994005
vn -0.669704 0.711171 0.213850
vn -0.669704 0.711171 0.213850
vn -0.669704 0.711171 0.213850
vn -0.669704 0.711171 0.213850
vn -0.947493 -0.162173 0.275603
vn -0.947493 -0.162173 0.275603
vn -0.947493 -0.162173 0.275603
vn -0.947493 -0.162173 0.275603
vn -0.142595 -0.508803 -0.848992
vn -0.142595 -0.508803 -0.848992
vn -0.142595 -0.508803 -0.848992
vn -0.142595 -0.508803 -0.848992
vn -0.955596 -0.072391 -0.285651
vn -0.955596 -0.072391 -0.285651
vn -0.955596 -0.072391 -0.285651
vn -0.955596 -0.072391 -0.285651
vn -0.587376 -0.039588 0.808346
vn -0.587376 -0.039588 0.808346
vn -0.587376 -0.039588 0.808346
vn -0.587376 -0.039588 0.808346
vn 0.150593 -0.230778 -0.961282
vn 0.150593 -0.230778 -0.961282
vn 0.150593 -0.230778 -0.961282
vn 0.150593 -0.230778 -0.961282
vn -0.150592 -0.230778 -0.961282
vn -0.150592 -0.230778 -0.961282
vn -0.150592 -0.230778 -0.961282
vn -0.150592 -0.230778 -0.961282
vn 0.587376 -0.039587 0.808346
vn 0.587376 -0.039587 0.808346
vn 0.587376 -0.039587 0.808346
vn 0.587376 -0.039587 0.808346
vn 0.955596 -0.072391 -0.285651
vn 0.955596 -0.072391 -0.285651
vn 0.955596 -0.072391 -0.285651
vn 0.955596 -0.072391 -0.285651
vn 0.846957 -0.090281 -0.523939
vn 0.846957 -0.090281 -0.523939
vn 0.846957 -0.090281 -0.523939
vn 0.846957 -0.090281 -0.523939
vn 0.590967 -0.155249 -0.791616
vn 0.590967 -0.155249 -0.791616
vn 0.590967 -0.155249 -0.791616
vn 0.590967 -0.155249 -0.791616
vn -0.846958 -0.090281 -0.523939
vn -0.846958 -0.090281 -0.523939
vn -0.846958 -0.090281 -0.523939
vn -0.846958 -0.090281 -0.523939
vn -0.590967 -0.155249 -0.791616
vn -0.590967 -0.155249 -0.791616
vn -0.590967 -0.155249 -0.791616
vn -0.590967 -0.155249 -0.791616
vn 0.963915 0.043891 -0.262566
vn 0.963915 0.043891 -0.262566
vn 0.963915 0.043891 -0.262566
vn 0.963915 0.043891 -0.262566
vn 0.605521 0.147291 0.782081
vn 0.605521 0.147291 0.782081
vn 0.605521 0.147291 0.782081
vn 0.605521 0.147291 0.782081
vn 0.607564 0.160241 0.777939
vn 0.607564 0.160241 0.777939
vn 0.937773 0.245137 -0.245946
vn 0.937773 0.245137 -0.245946
vn 0.937773 0.245137 -0.245946
vn 0.937773 0.245137 -0.245946
vn 0.939820 0.239107 -0.244062
vn 0.939820 0.239107 -0.244062
vn 0.587632 0.026356 0.808699
vn 0.587632 0.026356 0.808699
vn 0.587632 0.026356 0.808699
vn 0.587632 0.026356 0.808699
vn -0.963915 0.043891 -0.262566
vn -0.963915 0.043891 -0.262566
vn -0.963915 0.043891 -0.262566
vn -0.963915 0.043891 -0.262566
vn -0.464070 -0.338847 0.818427
vn -0.464070 -0.338847 0.818427
vn -0.464070 -0.338847 0.818427
vn -0.464070 -0.338847 0.818427
vn -0.793762 -0.504419 -0.339856
vn -0.793762 -0.504419 -0.339856
vn -0.793762 -0.504419 -0.339856
vn -0.793762 -0.504419 -0.339856
vn -0.192225 -0.912834 -0.360255
vn -0.192225 -0.912834 -0.360255
vn -0.192225 -0.912834 -0.360255
vn -0.192225 -0.912834 -0.360255
vn -0.128706 -0.547388 0.826923
vn -0.128706 -0.547388 0.826923
vn -0.128706 -0.547388 0.826923
vn -0.128706 -0.547388 0.826923
vn 0.128706 -0.547388 0.826923
vn 0.128706 -0.547388 0.826923
vn 0.128706 -0.547388 0.826923
vn 0.128706 -0.547388 0.826923
vn 0.192225 -0.912834 -0.360255
vn 0.192225 -0.912834 -0.360255
vn 0.192225 -0.912834 -0.360255
vn 0.192225 -0.912834 -0.360255
vn -0.879270 0.005909 -0.476287
vn -0.879270 0.005909 -0.476287
vn -0.879270 0.005909 -0.476287
vn -0.879270 0.005909 -0.476287
vn 0.142595 -0.508803 -0.848992
vn 0.142595 -0.508803 -0.848992
vn 0.142595 -0.508803 -0.848992
vn 0.142595 -0.508803 -0.848992
vn -0.123762 -0.391185 -0.911952
vn -0.123762 -0.391185 -0.911952
vn -0.123762 -0.391185 -0.911952
vn -0.123762 -0.391185 -0.911952
vn 0.123762 -0.391185 -0.911952
vn 0.123762 -0.391185 -0.911952
vn 0.123762 -0.391185 -0.911952
vn 0.123762 -0.391185 -0.911952
vn 0.372829 0.848704 -0.375100
vn 0.372829 0.848704 -0.375100
vn 0.372829 0.848704 -0.375100
vn 0.372829 0.848704 -0.375100
vn 0.225412 0.461333 0.858115
vn 0.225412 0.461333 0.858115
vn 0.225412 0.461333 0.858115
vn 0.225412 0.461333 0.858115
vn -0.225412 0.461333 0.858115
vn -0.225412 0.461333 0.858115
vn -0.225412 0.461333 0.858115
vn -0.225412 0.461333 0.858115
vn -0.372829 0.848704 -0.375100
vn -0.372829 0.848704 -0.375100
vn -0.372829 0.848704 -0.375100
vn -0.372829 0.848704 -0.375100
vn 0.535477 0.289545 0.793365
vn 0.535477 0.289545 0.793365
vn 0.535477 0.289545 0.793365
vn 0.535477 0.289545 0.793365
vn 0.854478 0.440239 -0.275785
vn 0.854478 0.440239 -0.275785
vn 0.854478 0.440239 -0.275785
vn 0.854478 0.440239 -0.275785
vn -0.859253 0.231663 -0.456088
vn -0.859253 0.231663 -0.456088
vn -0.859253 0.231663 -0.456088
vn -0.859253 0.231663 -0.456088
vn -0.867718 0.225916 -0.442750
vn -0.867718 0.225916 -0.442750
vn -0.663305 0.224685 -0.713823
vn -0.663305 0.224685 -0.713823
vn -0.663305 0.224685 -0.713823
vn -0.663305 0.224685 -0.713823
vn -0.675333 0.183056 -0.714435
vn -0.675333 0.183056 -0.714435
vn -0.536504 0.379993 -0.753505
vn -0.536504 0.379993 -0.753505
vn -0.536504 0.379993 -0.753505
vn -0.536504 0.379993 -0.753505
vn -0.738849 0.406626 -0.537362
vn -0.738849 0.406626 -0.537362
vn -0.738849 0.406626 -0.537362
vn -0.738849 0.406626 -0.537362
vn -0.198015 0.198869 -0.959813
vn -0.198015 0.198869 -0.959813
vn -0.198015 0.198869 -0.959813
vn -0.198015 0.198869 -0.959813
vn 0.198015 0.198869 -0.959813
vn 0.198015 0.198869 -0.959813
vn 0.198015 0.198869 -0.959813
vn 0.198015 0.198869 -0.959813
vn 0.173236 0.358356 -0.917372
vn 0.173236 0.358356 -0.917372
vn 0.173236 0.358356 -0.917372
vn 0.173236 0.358356 -0.917372
vn -0.173236 0.358356 -0.917372
vn -0.173236 0.358356 -0.917372
vn -0.173236 0.358356 -0.917372
vn -0.173236 0.358356 -0.917372
vn 0.198555 0.113469 -0.973499
vn 0.198555 0.113469 -0.973499
vn 0.198555 0.113469 -0.973499
vn 0.198555 0.113469 -0.973499
vn -0.198555 0.113469 -0.973499
vn -0.198555 0.113469 -0.973499
vn -0.198555 0.113469 -0.973499
vn -0.198555 0.113469 -0.973499
vn -0.937773 0.245137 -0.245945
vn -0.937773 0.245137 -0.245945
vn -0.937773 0.245137 -0.245945
vn -0.937773 0.245137 -0.245945
vn -0.939820 0.239107 -0.244062
vn -0.939820 0.239107 -0.244062
vn -0.605521 0.147291 0.782081
vn -0.605521 0.147291 0.782081
vn -0.605521 0.147291 0.782081
vn -0.605521 0.147291 0.782081
vn -0.607564 0.160241 0.777939
vn -0.607564 0.160241 0.777939
vn 0.793762 -0.504419 -0.339856
vn 0.793762 -0.504419 -0.339856
vn 0.793762 -0.504419 -0.339856
vn 0.793762 -0.504419 -0.339856
vn 0.464070 -0.338847 0.818426
vn 0.464070 -0.338847 0.818426
vn 0.464070 -0.338847 0.818426
vn 0.464070 -0.338847 0.818426
vn 0.426916 -0.401367 -0.810338
vn 0.426916 -0.401367 -0.810338
vn 0.426916 -0.401367 -0.810338
vn 0.426916 -0.401367 -0.810338
vn 0.655200 -0.446003 -0.609750
vn 0.655200 -0.446003 -0.609750
vn 0.655200 -0.446003 -0.609750
vn 0.655200 -0.446003 -0.609750
vn 0.632489 -0.181011 -0.753122
vn 0.632489 -0.181011 -0.753122
vn 0.632489 -0.181011 -0.753122
vn 0.632489 -0.181011 -0.753122
vn -0.587632 0.026356 0.808699
vn -0.587632 0.026356 0.808699
vn -0.587632 0.026356 0.808699
vn -0.587632 0.026356 0.808699
vn -0.632489 -0.181011 -0.753122
vn -0.632489 -0.181011 -0.753122
vn -0.632489 -0.181011 -0.753122
vn -0.632489 -0.181011 -0.753122
vn 0.879270 0.005909 -0.476286
vn 0.879270 0.005909 -0.476286
vn 0.879270 0.005909 -0.476286
vn 0.879270 0.005909 -0.476286
vn -0.854478 0.440240 -0.275785
vn -0.854478 0.440240 -0.275785
vn -0.854478 0.440240 -0.275785
vn -0.854478 0.440240 -0.275785
vn -0.535477 0.289545 0.793365
vn -0.535477 0.289545 0.793365
vn -0.535477 0.289545 0.793365
vn -0.535477 0.289545 0.793365
vn 0.663305 0.224685 -0.713823
vn 0.663305 0.224685 -0.713823
vn 0.663305 0.224685 -0.713823
vn 0.663305 0.224685 -0.713823
vn 0.675333 0.183056 -0.714434
vn 0.675333 0.183056 -0.714434
vn 0.859253 0.231663 -0.456088
vn 0.859253 0.231663 -0.456088
vn 0.859253 0.231663 -0.456088
vn 0.859253 0.231663 -0.456088
vn 0.867718 0.225917 -0.442750
vn 0.867718 0.225917 -0.442750
vn 0.738849 0.406626 -0.537362
vn 0.738849 0.406626 -0.537362
vn 0.738849 0.406626 -0.537362
vn 0.738849 0.406626 -0.537362
vn 0.536504 0.379993 -0.753505
vn 0.536504 0.379993 -0.753505
vn 0.536504 0.379993 -0.753505
vn 0.536504 0.379993 -0.753505
vn 0.197081 0.519916 -0.831172
vn 0.197081 0.519916 -0.831172
vn 0.197081 0.519916 -0.831172
vn 0.197081 0.519916 -0.831172
vn 0.281441 0.671656 -0.685324
vn 0.281441 0.671656 -0.685324
vn 0.281441 0.671656 -0.685324
vn 0.281441 0.671656 -0.685324
vn -0.281441 0.671656 -0.685324
vn -0.281441 0.671656 -0.685324
vn -0.281441 0.671656 -0.685324
vn -0.281441 0.671656 -0.685324
vn -0.197082 0.519916 -0.831172
vn -0.197082 0.519916 -0.831172
vn -0.197082 0.519916 -0.831172
vn -0.197082 0.519916 -0.831172
vn -0.117165 -0.593223 -0.796466
vn -0.117165 -0.593223 -0.796466
vn -0.117165 -0.593223 -0.796466
vn -0.117165 -0.593223 -0.796466
vn -0.151365 -0.747372 -0.646935
vn -0.151365 -0.747372 -0.646935
vn -0.151365 -0.747372 -0.646935
vn -0.151365 -0.747372 -0.646935
vn 0.151365 -0.747372 -0.646934
vn 0.151365 -0.747372 -0.646934
vn 0.151365 -0.747372 -0.646934
vn 0.151365 -0.747372 -0.646934
vn 0.117165 -0.593223 -0.796467
vn 0.117165 -0.593223 -0.796467
vn 0.117165 -0.593223 -0.796467
vn 0.117165 -0.593223 -0.796467
vn -0.655200 -0.446003 -0.609750
vn -0.655200 -0.446003 -0.609750
vn -0.655200 -0.446003 -0.609750
vn -0.655200 -0.446003 -0.609750
vn -0.426916 -0.401367 -0.810338
vn -0.426916 -0.401367 -0.810338
vn -0.426916 -0.401367 -0.810338
vn -0.426916 -0.401367 -0.810338
g Avocado_Empty_PaleGreen
usemtl PaleGreen
f 1 2 3
f 1 3 4
f 5 6 7
f 5 7 8
f 9 5 8
f 9 10 5
f 11 10 9
f 11 12 10
f 13 12 11
f 11 14 13
f 14 15 13
f 16 17 18
f 16 18 19
f 20 21 22
f 20 22 23
f 24 25 26
f 24 26 27
f 28 29 30
f 28 30 31
f 32 33 34
f 32 34 35
f 36 37 38
f 36 38 39
f 40 41 42
f 40 42 43
f 44 45 46
f 44 46 47
f 48 49 50
f 48 50 51
f 52 53 54
f 52 54 55
f 56 57 58
f 56 58 59
f 60 61 62
f 60 62 63
f 64 65 66
f 64 66 67
f 68 69 70
f 68 70 71
f 71 72 68
f 73 72 71
f 73 74 72
f 75 74 73
f 75 76 74
f 77 76 75
f 77 78 76
f 79 80 81
f 79 81 82
f 83 84 85
f 83 85 86
f 87 88 89
f 89 90 87
f 90 91 87
f 92 93 94
f 94 95 92
f 94 96 95
f 97 98 99
f 97 99 100
f 101 102 103
f 101 103 104
g Avocado_Empty_DarkGrey
usemtl DarkGrey
f 105 106 107
f 105 107 108
f 109 110 111
f 109 111 112
f 113 114 115
f 113 115 116
f 117 118 119
f 117 119 120
f 121 122 123
f 121 123 124
f 125 126 127
f 125 127 128
f 129 130 131
f 129 131 132
f 133 134 135
f 133 135 136
f 137 138 139
f 137 139 140
f 141 142 143
f 141 143 144
f 145 146 147
f 145 147 148
f 149 150 151
f 149 151 152
f 153 154 155
f 153 156 154
f 157 154 156
f 157 158 154
f 159 160 161
f 159 161 162
f 163 162 161
f 163 161 164
f 165 166 167
f 165 167 168
f 169 170 171
f 169 171 172
f 173 174 175
f 173 175 176
f 177 178 179
f 177 179 180
f 181 182 183
f 181 183 184
f 185 186 187
f 185 187 188
f 189 190 191
f 189 191 192
f 193 194 195
f 193 195 196
f 197 198 199
f 197 199 200
f 201 202 203
f 201 203 204
f 205 206 207
f 205 207 208
f 209 210 211
f 209 211 212
f 213 214 215
f 213 215 216
f 217 218 219
f 217 219 220
f 221 222 223
f 221 223 224
f 225 226 227
f 225 227 228
f 229 230 231
f 229 231 232
f 233 234 235
f 233 235 236
f 237 238 239
f 237 240 238
f 241 238 240
f 241 242 238
f 243 244 245
f 243 245 246
f 247 246 245
f 247 245 248
f 249 250 251
f 249 251 252
f 253 254 255
f 253 255 256
f 257 258 259
f 257 259 260
f 261 262 263
f 261 263 264
f 265 266 267
f 265 267 268
f 269 270 271
f 269 271 272
f 273 274 275
f 273 275 276
f 277 278 279
f 277 279 280
f 281 282 283
f 281 284 282
f 285 282 284
f 285 286 282
f 287 288 289
f 287 289 290
f 291 290 289
f 291 289 292
f 293 294 295
f 293 295 296
f 297 298 299
f 297 299 300
f 301 302 303
f 301 303 304
f 305 306 307
f 305 307 308
f 309 310 311
f 309 311 312
f 313 314 315
f 313 315 316
f 317 318 319
f 317 319 320
f 321 322 323
f 321 323 324
f 325 326 327
f 325 327 328
f 329 330 331
f 329 331 332
f 333 334 335
f 333 336 334
f 337 334 336
f 337 338 334
f 339 340 341
f 339 341 342
f 343 342 341
f 343 341 344
f 345 346 347
f 345 347 348
f 349 350 351
f 349 351 352
f 353 354 355
f 353 355 356
f 357 358 359
f 357 359 360
f 361 362 363
f 361 363 364
f 365 366 367
f 365 367 368
f 369 370 371
f 369 371 372
f 373 374 375
f 373 375 376
f 377 378 379
f 377 379 380
f 381 382 383
f 381 383 384
f 385 386 387
f 385 387 388
f 389 390 391
f 389 391 392
