mtllib Materials.mtl
# Ultimate Food Pack - Avocado
o Avocado
v 0.363546 0.157780 0.283614
v 0.376571 0.060226 0.283614
v 0.355837 0.066122 0.210117
v 0.343529 0.158960 0.208948
v 0.363546 0.157780 0.283614
v 0.308362 0.157780 0.324024
v 0.319411 0.060226 0.324024
v 0.376571 0.060226 0.283614
v 0.363546 0.157780 0.283614
v 0.274947 0.268253 0.324024
v 0.308362 0.157780 0.324024
v 0.324150 0.268253 0.283614
v 0.258068 0.485611 0.283614
v 0.203786 0.485611 0.324024
v 0.363546 0.157780 0.283614
v 0.343529 0.158960 0.208948
v 0.306303 0.264192 0.210474
v 0.324150 0.268253 0.283614
v 0.258068 0.485611 0.283614
v 0.243858 0.471037 0.215052
v -0.363546 -0.118373 0.283614
v -0.376571 0.060226 0.283614
v -0.355837 0.066122 0.210117
v -0.343529 -0.103539 0.213624
v -0.363546 -0.118373 0.283614
v -0.308362 -0.118373 0.324024
v -0.319411 0.060226 0.324024
v -0.376571 0.060226 0.283614
v -0.363546 -0.118373 0.283614
v -0.259634 -0.282714 0.283614
v -0.221869 -0.240107 0.313547
v -0.308362 -0.118373 0.324024
v -0.363546 -0.118373 0.283614
v -0.343529 -0.103539 0.213624
v -0.245338 -0.259593 0.217130
v -0.259634 -0.282714 0.283614
v 0.000000 -0.337494 0.283614
v -0.259634 -0.282714 0.283614
v -0.245338 -0.259593 0.217130
v 0.000000 -0.311611 0.218299
v 0.000000 -0.337494 0.283614
v 0.000000 -0.282714 0.324024
v -0.221869 -0.240107 0.313547
v -0.259634 -0.282714 0.283614
v 0.000000 -0.337494 0.283614
v 0.259634 -0.282714 0.283614
v 0.221869 -0.240107 0.313547
v 0.000000 -0.282714 0.324024
v 0.000000 -0.337494 0.283614
v 0.000000 -0.311611 0.218299
v 0.245338 -0.259593 0.217130
v 0.259634 -0.282714 0.283614
v 0.000000 0.000303 -0.006903
v 0.000000 0.107398 -0.034955
v 0.178758 0.101502 -0.001869
v 0.172575 -0.014532 0.022677
v 0.000000 0.000303 -0.006903
v -0.172575 -0.014532 0.022677
v -0.178758 0.101502 -0.001869
v 0.000000 0.107398 -0.034955
v 0.000000 0.000303 -0.006903
v 0.000000 -0.123629 0.046054
v -0.135181 -0.113430 0.060229
v -0.172575 -0.014532 0.022677
v 0.000000 0.000303 -0.006903
v 0.172575 -0.014532 0.022677
v 0.135181 -0.113430 0.060229
v 0.000000 -0.123629 0.046054
v 0.000000 0.756411 0.283614
v 0.153837 0.688711 0.283614
v 0.145367 0.664274 0.219630
v 0.000000 0.728687 0.221156
v 0.000000 0.756411 0.283614
v 0.000000 0.688711 0.324024
v 0.132369 0.636056 0.313547
v 0.153837 0.688711 0.283614
v 0.000000 0.756411 0.283614
v -0.153837 0.688711 0.283614
v -0.132369 0.636056 0.313547
v 0.000000 0.688711 0.324024
v 0.000000 0.756411 0.283614
v 0.000000 0.728687 0.221156
v -0.145367 0.664274 0.219630
v -0.153837 0.688711 0.283614
v 0.258068 0.485611 0.283614
v 0.153837 0.688711 0.283614
v 0.132369 0.636056 0.313547
v 0.203786 0.485611 0.324024
v 0.258068 0.485611 0.283614
v 0.243858 0.471037 0.215052
v 0.145367 0.664274 0.219630
v 0.153837 0.688711 0.283614
v -0.201231 0.427312 0.117130
v -0.306303 0.264192 0.210474
v -0.243858 0.471037 0.215052
v -0.252760 0.252009 0.098818
v -0.283478 0.162501 0.092714
v -0.343529 0.158960 0.208948
v -0.201231 0.427312 0.117130
v -0.122505 0.383588 0.032677
v -0.153874 0.239826 0.000631
v -0.252760 0.252009 0.098818
v -0.283478 0.162501 0.092714
v -0.172575 0.166042 -0.010051
v -0.201231 0.427312 0.117130
v -0.119956 0.590963 0.135442
v -0.085401 0.504458 0.073562
v -0.122505 0.383588 0.032677
v -0.201231 0.427312 0.117130
v -0.243858 0.471037 0.215052
v -0.145367 0.664274 0.219630
v -0.119956 0.590963 0.135442
v 0.000000 0.369013 0.004526
v 0.000000 0.235765 -0.032098
v -0.153874 0.239826 0.000631
v -0.122505 0.383588 0.032677
v 0.000000 0.369013 0.004526
v 0.122505 0.383588 0.032677
v 0.153874 0.239826 0.000631
v 0.000000 0.235765 -0.032098
v 0.000000 0.369013 0.004526
v 0.000000 0.520939 0.063197
v 0.085401 0.504458 0.073562
v 0.122505 0.383588 0.032677
v 0.000000 0.369013 0.004526
v -0.122505 0.383588 0.032677
v -0.085401 0.504458 0.073562
v 0.000000 0.520939 0.063197
v 0.000000 0.167223 -0.044306
v 0.000000 0.235765 -0.032098
v 0.153874 0.239826 0.000631
v 0.172575 0.166042 -0.010051
v 0.000000 0.167223 -0.044306
v -0.172575 0.166042 -0.010051
v -0.153874 0.239826 0.000631
v 0.000000 0.235765 -0.032098
v 0.000000 0.167223 -0.044306
v 0.000000 0.107398 -0.034955
v -0.178758 0.101502 -0.001869
v -0.172575 0.166042 -0.010051
v 0.000000 0.167223 -0.044306
v 0.172575 0.166042 -0.010051
v 0.178758 0.101502 -0.001869
v 0.000000 0.107398 -0.034955
v -0.363546 0.157780 0.283614
v -0.306303 0.264192 0.210474
v -0.343529 0.158960 0.208948
v -0.324150 0.268253 0.283614
v -0.258068 0.485611 0.283614
v -0.243858 0.471037 0.215052
v -0.363546 0.157780 0.283614
v -0.308362 0.157780 0.324024
v -0.274947 0.268253 0.324024
v -0.324150 0.268253 0.283614
v -0.258068 0.485611 0.283614
v -0.203786 0.485611 0.324024
v -0.363546 0.157780 0.283614
v -0.376571 0.060226 0.283614
v -0.319411 0.060226 0.324024
v -0.308362 0.157780 0.324024
v -0.363546 0.157780 0.283614
v -0.343529 0.158960 0.208948
v -0.355837 0.066122 0.210117
v -0.376571 0.060226 0.283614
v 0.363546 -0.118373 0.283614
v 0.259634 -0.282714 0.283614
v 0.245338 -0.259593 0.217130
v 0.343529 -0.103539 0.213624
v 0.363546 -0.118373 0.283614
v 0.308362 -0.118373 0.324024
v 0.221869 -0.240107 0.313547
v 0.259634 -0.282714 0.283614
v 0.363546 -0.118373 0.283614
v 0.376571 0.060226 0.283614
v 0.319411 0.060226 0.324024
v 0.308362 -0.118373 0.324024
v 0.363546 -0.118373 0.283614
v 0.343529 -0.103539 0.213624
v 0.355837 0.066122 0.210117
v 0.376571 0.060226 0.283614
v 0.283478 -0.059035 0.111415
v 0.202452 -0.190230 0.125442
v 0.135181 -0.113430 0.060229
v 0.172575 -0.014532 0.022677
v 0.283478 -0.059035 0.111415
v 0.343529 -0.103539 0.213624
v 0.245338 -0.259593 0.217130
v 0.202452 -0.190230 0.125442
v 0.283478 -0.059035 0.111415
v 0.293635 0.083812 0.097389
v 0.355837 0.066122 0.210117
v 0.343529 -0.103539 0.213624
v 0.283478 -0.059035 0.111415
v 0.172575 -0.014532 0.022677
v 0.178758 0.101502 -0.001869
v 0.293635 0.083812 0.097389
v -0.283478 0.162501 0.092714
v -0.293635 0.083812 0.097389
v -0.355837 0.066122 0.210117
v -0.343529 0.158960 0.208948
v -0.283478 0.162501 0.092714
v -0.172575 0.166042 -0.010051
v -0.178758 0.101502 -0.001869
v -0.293635 0.083812 0.097389
v -0.258068 0.485611 0.283614
v -0.153837 0.688711 0.283614
v -0.145367 0.664274 0.219630
v -0.243858 0.471037 0.215052
v -0.258068 0.485611 0.283614
v -0.203786 0.485611 0.324024
v -0.132369 0.636056 0.313547
v -0.153837 0.688711 0.283614
v 0.201231 0.427312 0.117130
v 0.153874 0.239826 0.000631
v 0.122505 0.383588 0.032677
v 0.252760 0.252009 0.098818
v 0.283478 0.162501 0.092714
v 0.172575 0.166042 -0.010051
v 0.201231 0.427312 0.117130
v 0.243858 0.471037 0.215052
v 0.306303 0.264192 0.210474
v 0.252760 0.252009 0.098818
v 0.283478 0.162501 0.092714
v 0.343529 0.158960 0.208948
v 0.201231 0.427312 0.117130
v 0.119956 0.590963 0.135442
v 0.145367 0.664274 0.219630
v 0.243858 0.471037 0.215052
v 0.201231 0.427312 0.117130
v 0.122505 0.383588 0.032677
v 0.085401 0.504458 0.073562
v 0.119956 0.590963 0.135442
v 0.000000 0.645513 0.141546
v 0.119956 0.590963 0.135442
v 0.085401 0.504458 0.073562
v 0.000000 0.520939 0.063197
v 0.000000 0.645513 0.141546
v 0.000000 0.728687 0.221156
v 0.145367 0.664274 0.219630
v 0.119956 0.590963 0.135442
v 0.000000 0.645513 0.141546
v -0.119956 0.590963 0.135442
v -0.145367 0.664274 0.219630
v 0.000000 0.728687 0.221156
v 0.000000 0.645513 0.141546
v 0.000000 0.520939 0.063197
v -0.085401 0.504458 0.073562
v -0.119956 0.590963 0.135442
v 0.000000 -0.233961 0.130117
v -0.202452 -0.190230 0.125442
v -0.135181 -0.113430 0.060229
v 0.000000 -0.123629 0.046054
v 0.000000 -0.233961 0.130117
v 0.000000 -0.311611 0.218299
v -0.245338 -0.259593 0.217130
v -0.202452 -0.190230 0.125442
v 0.000000 -0.233961 0.130117
v 0.202452 -0.190230 0.125442
v 0.245338 -0.259593 0.217130
v 0.000000 -0.311611 0.218299
v 0.000000 -0.233961 0.130117
v 0.000000 -0.123629 0.046054
v 0.135181 -0.113430 0.060229
v 0.202452 -0.190230 0.125442
v -0.283478 -0.059035 0.111415
v -0.293635 0.083812 0.097389
v -0.178758 0.101502 -0.001869
v -0.172575 -0.014532 0.022677
v -0.283478 -0.059035 0.111415
v -0.343529 -0.103539 0.213624
v -0.355837 0.066122 0.210117
v -0.293635 0.083812 0.097389
v -0.283478 -0.059035 0.111415
v -0.202452 -0.190230 0.125442
v -0.245338 -0.259593 0.217130
v -0.343529 -0.103539 0.213624
v -0.283478 -0.059035 0.111415
v -0.172575 -0.014532 0.022677
v -0.135181 -0.113430 0.060229
v -0.202452 -0.190230 0.125442
v 0.283478 0.162501 0.092714
v 0.293635 0.083812 0.097389
v 0.178758 0.101502 -0.001869
v 0.172575 0.166042 -0.010051
v 0.283478 0.162501 0.092714
v 0.343529 0.158960 0.208948
v 0.355837 0.066122 0.210117
v 0.293635 0.083812 0.097389
v 0.000000 0.485611 0.337494
v 0.274947 0.268253 0.324024
v 0.203786 0.485611 0.324024
v 0.000000 0.268253 0.337494
v 0.000000 0.157780 0.337494
v 0.308362 0.157780 0.324024
v 0.319411 0.060226 0.324024
v 0.000000 0.060226 0.337494
v 0.000000 -0.118373 0.337494
v 0.308362 -0.118373 0.324024
v 0.000000 0.485611 0.337494
v -0.203786 0.485611 0.324024
v -0.274947 0.268253 0.324024
v 0.000000 0.268253 0.337494
v 0.000000 0.157780 0.337494
v -0.308362 0.157780 0.324024
v -0.319411 0.060226 0.324024
v 0.000000 0.060226 0.337494
v 0.000000 -0.118373 0.337494
v -0.308362 -0.118373 0.324024
v 0.000000 0.485611 0.337494
v 0.000000 0.688711 0.324024
v -0.132369 0.636056 0.313547
v -0.203786 0.485611 0.324024
v 0.000000 0.485611 0.337494
v 0.203786 0.485611 0.324024
v 0.132369 0.636056 0.313547
v 0.000000 0.688711 0.324024
v 0.000000 -0.118373 0.337494
v 0.000000 -0.282714 0.324024
v 0.221869 -0.240107 0.313547
v 0.308362 -0.118373 0.324024
v 0.000000 -0.118373 0.337494
v -0.308362 -0.118373 0.324024
v -0.221869 -0.240107 0.313547
v 0.000000 -0.282714 0.324024
v 0.166693 -0.045684 0.320561
v 0.102551 -0.112241 0.320561
v 0.082621 -0.094986 0.241761
v 0.125020 -0.045684 0.201323
v 0.166693 -0.045684 0.320561
v 0.125020 -0.045684 0.439798
v 0.082621 -0.094986 0.399361
v 0.102551 -0.112241 0.320561
v 0.166693 -0.045684 0.320561
v 0.183366 0.055483 0.320561
v 0.137525 0.055483 0.451725
v 0.125020 -0.045684 0.439798
v 0.166693 -0.045684 0.320561
v 0.125020 -0.045684 0.201323
v 0.137525 0.055483 0.189396
v 0.183366 0.055483 0.320561
v 0.000000 0.181499 0.457437
v 0.000000 0.055483 0.495447
v 0.137525 0.055483 0.451725
v 0.107635 0.181499 0.423218
v 0.000000 0.181499 0.457437
v -0.107635 0.181499 0.423218
v -0.137525 0.055483 0.451725
v 0.000000 0.055483 0.495447
v 0.000000 0.181499 0.457437
v 0.000000 0.285330 0.390735
v -0.064593 0.258411 0.382166
v -0.107635 0.181499 0.423218
v 0.000000 0.181499 0.457437
v 0.107635 0.181499 0.423218
v 0.064593 0.258411 0.382166
v 0.000000 0.285330 0.390735
v -0.166693 -0.045684 0.320561
v -0.183366 0.055483 0.320561
v -0.137525 0.055483 0.189396
v -0.125020 -0.045684 0.201323
v -0.166693 -0.045684 0.320561
v -0.125020 -0.045684 0.439798
v -0.137525 0.055483 0.451725
v -0.183366 0.055483 0.320561
v -0.166693 -0.045684 0.320561
v -0.102551 -0.112241 0.320561
v -0.082621 -0.094986 0.399361
v -0.125020 -0.045684 0.439798
v -0.166693 -0.045684 0.320561
v -0.125020 -0.045684 0.201323
v -0.082621 -0.094986 0.241761
v -0.102551 -0.112241 0.320561
v 0.000000 -0.134427 0.320561
v -0.102551 -0.112241 0.320561
v -0.082621 -0.094986 0.241761
v 0.000000 -0.112241 0.222753
v 0.000000 -0.134427 0.320561
v 0.000000 -0.112241 0.418369
v -0.082621 -0.094986 0.399361
v -0.102551 -0.112241 0.320561
v 0.000000 -0.134427 0.320561
v 0.102551 -0.112241 0.320561
v 0.082621 -0.094986 0.399361
v 0.000000 -0.112241 0.418369
v 0.000000 -0.134427 0.320561
v 0.000000 -0.112241 0.222753
v 0.082621 -0.094986 0.241761
v 0.102551 -0.112241 0.320561
v 0.000000 -0.045684 0.161578
v 0.000000 0.055483 0.145675
v 0.137525 0.055483 0.189396
v 0.125020 -0.045684 0.201323
v 0.000000 -0.045684 0.161578
v -0.125020 -0.045684 0.201323
v -0.137525 0.055483 0.189396
v 0.000000 0.055483 0.145675
v 0.000000 -0.045684 0.161578
v 0.000000 -0.112241 0.222753
v -0.082621 -0.094986 0.241761
v -0.125020 -0.045684 0.201323
v 0.000000 -0.045684 0.161578
v 0.125020 -0.045684 0.201323
v 0.082621 -0.094986 0.241761
v 0.000000 -0.112241 0.222753
v 0.000000 -0.045684 0.479544
v 0.000000 0.055483 0.495447
v -0.137525 0.055483 0.451725
v -0.125020 -0.045684 0.439798
v 0.000000 -0.045684 0.479544
v 0.125020 -0.045684 0.439798
v 0.137525 0.055483 0.451725
v 0.000000 0.055483 0.495447
v 0.000000 -0.045684 0.479544
v 0.000000 -0.112241 0.418369
v 0.082621 -0.094986 0.399361
v 0.125020 -0.045684 0.439798
v 0.000000 -0.045684 0.479544
v -0.125020 -0.045684 0.439798
v -0.082621 -0.094986 0.399361
v 0.000000 -0.112241 0.418369
v 0.000000 0.319941 0.320561
v 0.073577 0.285330 0.320561
v 0.064593 0.258411 0.258955
v 0.000000 0.285330 0.250387
v 0.000000 0.319941 0.320561
v 0.000000 0.285330 0.390735
v 0.064593 0.258411 0.382166
v 0.073577 0.285330 0.320561
v 0.000000 0.319941 0.320561
v -0.073577 0.285330 0.320561
v -0.064593 0.258411 0.382166
v 0.000000 0.285330 0.390735
v 0.000000 0.319941 0.320561
v 0.000000 0.285330 0.250387
v -0.064593 0.258411 0.258955
v -0.073577 0.285330 0.320561
v 0.143514 0.181499 0.320561
v 0.183366 0.055483 0.320561
v 0.137525 0.055483 0.189396
v 0.107635 0.181499 0.217904
v 0.143514 0.181499 0.320561
v 0.107635 0.181499 0.423218
v 0.137525 0.055483 0.451725
v 0.183366 0.055483 0.320561
v 0.143514 0.181499 0.320561
v 0.073577 0.285330 0.320561
v 0.064593 0.258411 0.382166
v 0.107635 0.181499 0.423218
v 0.143514 0.181499 0.320561
v 0.107635 0.181499 0.217904
v 0.064593 0.258411 0.258955
v 0.073577 0.285330 0.320561
v -0.143514 0.181499 0.320561
v -0.183366 0.055483 0.320561
v -0.137525 0.055483 0.451725
v -0.107635 0.181499 0.423218
v -0.143514 0.181499 0.320561
v -0.107635 0.181499 0.217904
v -0.137525 0.055483 0.189396
v -0.183366 0.055483 0.320561
v -0.143514 0.181499 0.320561
v -0.073577 0.285330 0.320561
v -0.064593 0.258411 0.258955
v -0.107635 0.181499 0.217904
v -0.143514 0.181499 0.320561
v -0.107635 0.181499 0.423218
v -0.064593 0.258411 0.382166
v -0.073577 0.285330 0.320561
v 0.000000 0.181499 0.183685
v 0.000000 0.055483 0.145675
v -0.137525 0.055483 0.189396
v -0.107635 0.181499 0.217904
v 0.000000 0.181499 0.183685
v 0.107635 0.181499 0.217904
v 0.137525 0.055483 0.189396
v 0.000000 0.055483 0.145675
v 0.000000 0.181499 0.183685
v 0.000000 0.285330 0.250387
v 0.064593 0.258411 0.258955
v 0.107635 0.181499 0.217904
v 0.000000 0.181499 0.183685
v -0.107635 0.181499 0.217904
v -0.064593 0.258411 0.258955
v 0.000000 0.285330 0.250387
vn 0.958044 0.125900 -0.257490
vn 0.958044 0.125900 -0.257490
vn 0.958044 0.125900 -0.257490
vn 0.958044 0.125900 -0.257490
vn 0.582477 0.071872 0.809664
vn 0.582477 0.071872 0.809664
vn 0.582477 0.071872 0.809664
vn 0.582477 0.071872 0.809664
vn 0.600107 0.197759 0.775089
vn 0.600107 0.197759 0.775089
vn 0.600107 0.197759 0.775089
vn 0.600107 0.197759 0.775089
vn 0.604215 0.190756 0.773652
vn 0.604215 0.190756 0.773652
vn 0.914112 0.326406 -0.240539
vn 0.914112 0.326406 -0.240539
vn 0.914112 0.326406 -0.240539
vn 0.914112 0.326406 -0.240539
vn 0.926661 0.283430 -0.246914
vn 0.926661 0.283430 -0.246914
vn -0.956631 -0.072432 -0.282153
vn -0.956631 -0.072432 -0.282153
vn -0.956631 -0.072432 -0.282153
vn -0.956631 -0.072432 -0.282153
vn -0.583535 -0.039329 0.811135
vn -0.583535 -0.039329 0.811135
vn -0.583535 -0.039329 0.811135
vn -0.583535 -0.039329 0.811135
vn -0.464070 -0.338847 0.818427
vn -0.464070 -0.338847 0.818427
vn -0.464070 -0.338847 0.818427
vn -0.464070 -0.338847 0.818427
vn -0.793762 -0.504419 -0.339856
vn -0.793762 -0.504419 -0.339856
vn -0.793762 -0.504419 -0.339856
vn -0.793762 -0.504419 -0.339856
vn -0.192225 -0.912834 -0.360255
vn -0.192225 -0.912834 -0.360255
vn -0.192225 -0.912834 -0.360255
vn -0.192225 -0.912834 -0.360255
vn -0.128706 -0.547388 0.826923
vn -0.128706 -0.547388 0.826923
vn -0.128706 -0.547388 0.826923
vn -0.128706 -0.547388 0.826923
vn 0.128706 -0.547388 0.826923
vn 0.128706 -0.547388 0.826923
vn 0.128706 -0.547388 0.826923
vn 0.128706 -0.547388 0.826923
vn 0.192225 -0.912834 -0.360255
vn 0.192225 -0.912834 -0.360255
vn 0.192225 -0.912834 -0.360255
vn 0.192225 -0.912834 -0.360255
vn 0.157646 -0.230710 -0.960167
vn 0.157646 -0.230710 -0.960167
vn 0.157646 -0.230710 -0.960167
vn 0.157646 -0.230710 -0.960167
vn -0.157646 -0.230710 -0.960167
vn -0.157646 -0.230710 -0.960167
vn -0.157646 -0.230710 -0.960167
vn -0.157646 -0.230710 -0.960167
vn -0.123762 -0.391185 -0.911952
vn -0.123762 -0.391185 -0.911952
vn -0.123762 -0.391185 -0.911952
vn -0.123762 -0.391185 -0.911952
vn 0.123762 -0.391185 -0.911952
vn 0.123762 -0.391185 -0.911952
vn 0.123762 -0.391185 -0.911952
vn 0.123762 -0.391185 -0.911952
vn 0.372829 0.848704 -0.375100
vn 0.372829 0.848704 -0.375100
vn 0.372829 0.848704 -0.375100
vn 0.372829 0.848704 -0.375100
vn 0.225412 0.461333 0.858115
vn 0.225412 0.461333 0.858115
vn 0.225412 0.461333 0.858115
vn 0.225412 0.461333 0.858115
vn -0.225412 0.461333 0.858115
vn -0.225412 0.461333 0.858115
vn -0.225412 0.461333 0.858115
vn -0.225412 0.461333 0.858115
vn -0.372829 0.848704 -0.375100
vn -0.372829 0.848704 -0.375100
vn -0.372829 0.848704 -0.375100
vn -0.372829 0.848704 -0.375100
vn 0.535477 0.289545 0.793365
vn 0.535477 0.289545 0.793365
vn 0.535477 0.289545 0.793365
vn 0.535477 0.289545 0.793365
vn 0.854478 0.440239 -0.275785
vn 0.854478 0.440239 -0.275785
vn 0.854478 0.440239 -0.275785
vn 0.854478 0.440239 -0.275785
vn -0.842458 0.278869 -0.460974
vn -0.842458 0.278869 -0.460974
vn -0.842458 0.278869 -0.460974
vn -0.842458 0.278869 -0.460974
vn -0.845533 0.311984 -0.433291
vn -0.845533 0.311984 -0.433291
vn -0.644086 0.279715 -0.711978
vn -0.644086 0.279715 -0.711978
vn -0.644086 0.279715 -0.711978
vn -0.644086 0.279715 -0.711978
vn -0.659848 0.271716 -0.700551
vn -0.659848 0.271716 -0.700551
vn -0.536504 0.379993 -0.753505
vn -0.536504 0.379993 -0.753505
vn -0.536504 0.379993 -0.753505
vn -0.536504 0.379993 -0.753505
vn -0.738849 0.406626 -0.537362
vn -0.738849 0.406626 -0.537362
vn -0.738849 0.406626 -0.537362
vn -0.738849 0.406626 -0.537362
vn -0.191392 0.256531 -0.947397
vn -0.191392 0.256531 -0.947397
vn -0.191392 0.256531 -0.947397
vn -0.191392 0.256531 -0.947397
vn 0.191392 0.256531 -0.947397
vn 0.191392 0.256531 -0.947397
vn 0.191392 0.256531 -0.947397
vn 0.191392 0.256531 -0.947397
vn 0.173236 0.358356 -0.917372
vn 0.173236 0.358356 -0.917372
vn 0.173236 0.358356 -0.917372
vn 0.173236 0.358356 -0.917372
vn -0.173236 0.358356 -0.917372
vn -0.173236 0.358356 -0.917372
vn -0.173236 0.358356 -0.917372
vn -0.173236 0.358356 -0.917372
vn 0.196159 0.180775 -0.963765
vn 0.196159 0.180775 -0.963765
vn 0.196159 0.180775 -0.963765
vn 0.196159 0.180775 -0.963765
vn -0.196159 0.180775 -0.963765
vn -0.196159 0.180775 -0.963765
vn -0.196159 0.180775 -0.963765
vn -0.196159 0.180775 -0.963765
vn -0.184200 -0.128224 -0.974489
vn -0.184200 -0.128224 -0.974489
vn -0.184200 -0.128224 -0.974489
vn -0.184200 -0.128224 -0.974489
vn 0.184200 -0.128224 -0.974489
vn 0.184200 -0.128224 -0.974489
vn 0.184200 -0.128224 -0.974489
vn 0.184200 -0.128224 -0.974489
vn -0.914112 0.326406 -0.240539
vn -0.914112 0.326406 -0.240539
vn -0.914112 0.326406 -0.240539
vn -0.914112 0.326406 -0.240539
vn -0.926661 0.283430 -0.246914
vn -0.926661 0.283430 -0.246914
vn -0.600107 0.197759 0.775089
vn -0.600107 0.197759 0.775089
vn -0.600107 0.197759 0.775089
vn -0.600107 0.197759 0.775089
vn -0.604215 0.190756 0.773652
vn -0.604215 0.190756 0.773652
vn -0.582477 0.071872 0.809664
vn -0.582477 0.071872 0.809664
vn -0.582477 0.071872 0.809664
vn -0.582477 0.071872 0.809664
vn -0.958044 0.125900 -0.257490
vn -0.958044 0.125900 -0.257490
vn -0.958044 0.125900 -0.257490
vn -0.958044 0.125900 -0.257490
vn 0.793762 -0.504419 -0.339856
vn 0.793762 -0.504419 -0.339856
vn 0.793762 -0.504419 -0.339856
vn 0.793762 -0.504419 -0.339856
vn 0.464070 -0.338847 0.818426
vn 0.464070 -0.338847 0.818426
vn 0.464070 -0.338847 0.818426
vn 0.464070 -0.338847 0.818426
vn 0.583535 -0.039329 0.811135
vn 0.583535 -0.039329 0.811135
vn 0.583535 -0.039329 0.811135
vn 0.583535 -0.039329 0.811135
vn 0.956631 -0.072432 -0.282153
vn 0.956631 -0.072432 -0.282153
vn 0.956631 -0.072432 -0.282153
vn 0.956631 -0.072432 -0.282153
vn 0.426916 -0.401367 -0.810338
vn 0.426916 -0.401367 -0.810338
vn 0.426916 -0.401367 -0.810338
vn 0.426916 -0.401367 -0.810338
vn 0.655200 -0.446003 -0.609750
vn 0.655200 -0.446003 -0.609750
vn 0.655200 -0.446003 -0.609750
vn 0.655200 -0.446003 -0.609750
vn 0.854261 -0.090135 -0.511970
vn 0.854261 -0.090135 -0.511970
vn 0.854261 -0.090135 -0.511970
vn 0.854261 -0.090135 -0.511970
vn 0.606719 -0.154477 -0.779762
vn 0.606719 -0.154477 -0.779762
vn 0.606719 -0.154477 -0.779762
vn 0.606719 -0.154477 -0.779762
vn -0.881545 0.099737 -0.461444
vn -0.881545 0.099737 -0.461444
vn -0.881545 0.099737 -0.461444
vn -0.881545 0.099737 -0.461444
vn -0.667267 0.009269 -0.744761
vn -0.667267 0.009269 -0.744761
vn -0.667267 0.009269 -0.744761
vn -0.667267 0.009269 -0.744761
vn -0.854478 0.440240 -0.275785
vn -0.854478 0.440240 -0.275785
vn -0.854478 0.440240 -0.275785
vn -0.854478 0.440240 -0.275785
vn -0.535477 0.289545 0.793365
vn -0.535477 0.289545 0.793365
vn -0.535477 0.289545 0.793365
vn -0.535477 0.289545 0.793365
vn 0.644086 0.279715 -0.711978
vn 0.644086 0.279715 -0.711978
vn 0.644086 0.279715 -0.711978
vn 0.644086 0.279715 -0.711978
vn 0.659848 0.271716 -0.700551
vn 0.659848 0.271716 -0.700551
vn 0.842458 0.278869 -0.460974
vn 0.842458 0.278869 -0.460974
vn 0.842458 0.278869 -0.460974
vn 0.842458 0.278869 -0.460974
vn 0.845533 0.311984 -0.433291
vn 0.845533 0.311984 -0.433291
vn 0.738849 0.406626 -0.537362
vn 0.738849 0.406626 -0.537362
vn 0.738849 0.406626 -0.537362
vn 0.738849 0.406626 -0.537362
vn 0.536504 0.379993 -0.753505
vn 0.536504 0.379993 -0.753505
vn 0.536504 0.379993 -0.753505
vn 0.536504 0.379993 -0.753505
vn 0.197081 0.519916 -0.831172
vn 0.197081 0.519916 -0.831172
vn 0.197081 0.519916 -0.831172
vn 0.197081 0.519916 -0.831172
vn 0.281441 0.671656 -0.685324
vn 0.281441 0.671656 -0.685324
vn 0.281441 0.671656 -0.685324
vn 0.281441 0.671656 -0.685324
vn -0.281441 0.671656 -0.685324
vn -0.281441 0.671656 -0.685324
vn -0.281441 0.671656 -0.685324
vn -0.281441 0.671656 -0.685324
vn -0.197082 0.519916 -0.831172
vn -0.197082 0.519916 -0.831172
vn -0.197082 0.519916 -0.831172
vn -0.197082 0.519916 -0.831172
vn -0.117165 -0.593223 -0.796466
vn -0.117165 -0.593223 -0.796466
vn -0.117165 -0.593223 -0.796466
vn -0.117165 -0.593223 -0.796466
vn -0.151365 -0.747372 -0.646935
vn -0.151365 -0.747372 -0.646935
vn -0.151365 -0.747372 -0.646935
vn -0.151365 -0.747372 -0.646935
vn 0.151365 -0.747372 -0.646934
vn 0.151365 -0.747372 -0.646934
vn 0.151365 -0.747372 -0.646934
vn 0.151365 -0.747372 -0.646934
vn 0.117165 -0.593223 -0.796467
vn 0.117165 -0.593223 -0.796467
vn 0.117165 -0.593223 -0.796467
vn 0.117165 -0.593223 -0.796467
vn -0.606719 -0.154477 -0.779762
vn -0.606719 -0.154477 -0.779762
vn -0.606719 -0.154477 -0.779762
vn -0.606719 -0.154477 -0.779762
vn -0.854261 -0.090134 -0.511971
vn -0.854261 -0.090134 -0.511971
vn -0.854261 -0.090134 -0.511971
vn -0.854261 -0.090134 -0.511971
vn -0.655200 -0.446003 -0.609750
vn -0.655200 -0.446003 -0.609750
vn -0.655200 -0.446003 -0.609750
vn -0.655200 -0.446003 -0.609750
vn -0.426916 -0.401367 -0.810338
vn -0.426916 -0.401367 -0.810338
vn -0.426916 -0.401367 -0.810338
vn -0.426916 -0.401367 -0.810338
vn 0.667266 0.009269 -0.744761
vn 0.667266 0.009269 -0.744761
vn 0.667266 0.009269 -0.744761
vn 0.667266 0.009269 -0.744761
vn 0.881545 0.099737 -0.461444
vn 0.881545 0.099737 -0.461444
vn 0.881545 0.099737 -0.461444
vn 0.881545 0.099737 -0.461444
vn 0.056183 0.009197 0.998378
vn 0.056183 0.009197 0.998378
vn 0.056183 0.009197 0.998378
vn 0.056183 0.009197 0.998378
vn 0.046135 0.006978 0.998911
vn 0.046135 0.006978 0.998911
vn 0.042875 -0.001326 0.999080
vn 0.042875 -0.001326 0.999080
vn 0.042875 -0.001326 0.999080
vn 0.042875 -0.001326 0.999080
vn -0.056183 0.009197 0.998378
vn -0.056183 0.009197 0.998378
vn -0.056183 0.009197 0.998378
vn -0.056183 0.009197 0.998378
vn -0.046135 0.006978 0.998911
vn -0.046135 0.006978 0.998911
vn -0.042874 -0.001326 0.999080
vn -0.042874 -0.001326 0.999080
vn -0.042874 -0.001326 0.999080
vn -0.042874 -0.001326 0.999080
vn -0.083922 0.084206 0.992908
vn -0.083922 0.084206 0.992908
vn -0.083922 0.084206 0.992908
vn -0.083922 0.084206 0.992908
vn 0.083922 0.084206 0.992908
vn 0.083922 0.084206 0.992908
vn 0.083922 0.084206 0.992908
vn 0.083922 0.084206 0.992908
vn 0.052845 -0.099156 0.993668
vn 0.052845 -0.099156 0.993668
vn 0.052845 -0.099156 0.993668
vn 0.052845 -0.099156 0.993668
vn -0.052845 -0.099155 0.993668
vn -0.052845 -0.099155 0.993668
vn -0.052845 -0.099155 0.993668
vn -0.052845 -0.099155 0.993668
vn 0.661220 -0.701155 -0.266778
vn 0.661220 -0.701155 -0.266778
vn 0.661220 -0.701155 -0.266778
vn 0.661220 -0.701155 -0.266778
vn 0.661220 -0.701155 0.266778
vn 0.661220 -0.701155 0.266778
vn 0.661220 -0.701155 0.266778
vn 0.661220 -0.701155 0.266778
vn 0.932784 -0.153735 0.326006
vn 0.932784 -0.153735 0.326006
vn 0.932784 -0.153735 0.326006
vn 0.932784 -0.153735 0.326006
vn 0.932784 -0.153735 -0.326006
vn 0.932784 -0.153735 -0.326006
vn 0.932784 -0.153735 -0.326006
vn 0.932784 -0.153735 -0.326006
vn 0.291183 0.276262 0.915910
vn 0.291183 0.276262 0.915910
vn 0.291183 0.276262 0.915910
vn 0.291183 0.276262 0.915910
vn -0.291183 0.276262 0.915910
vn -0.291183 0.276262 0.915910
vn -0.291183 0.276262 0.915910
vn -0.291183 0.276262 0.915910
vn -0.281465 0.539940 0.793248
vn -0.281465 0.539940 0.793248
vn -0.281465 0.539940 0.793248
vn -0.281465 0.539940 0.793248
vn 0.281465 0.539940 0.793248
vn 0.281465 0.539940 0.793248
vn 0.281465 0.539940 0.793248
vn 0.281465 0.539940 0.793248
vn -0.932784 -0.153735 -0.326005
vn -0.932784 -0.153735 -0.326005
vn -0.932784 -0.153735 -0.326005
vn -0.932784 -0.153735 -0.326005
vn -0.932784 -0.153735 0.326006
vn -0.932784 -0.153735 0.326006
vn -0.932784 -0.153735 0.326006
vn -0.932784 -0.153735 0.326006
vn -0.661220 -0.701155 0.266778
vn -0.661220 -0.701155 0.266778
vn -0.661220 -0.701155 0.266778
vn -0.661220 -0.701155 0.266778
vn -0.661220 -0.701155 -0.266778
vn -0.661220 -0.701155 -0.266778
vn -0.661220 -0.701155 -0.266778
vn -0.661220 -0.701155 -0.266778
vn -0.225577 -0.945080 -0.236516
vn -0.225577 -0.945080 -0.236516
vn -0.225577 -0.945080 -0.236516
vn -0.225577 -0.945080 -0.236516
vn -0.225577 -0.945079 0.236516
vn -0.225577 -0.945079 0.236516
vn -0.225577 -0.945079 0.236516
vn -0.225577 -0.945079 0.236516
vn 0.225577 -0.945079 0.236516
vn 0.225577 -0.945079 0.236516
vn 0.225577 -0.945079 0.236516
vn 0.225577 -0.945079 0.236516
vn 0.225577 -0.945080 -0.236516
vn 0.225577 -0.945080 -0.236516
vn 0.225577 -0.945080 -0.236516
vn 0.225577 -0.945080 -0.236516
vn 0.299631 -0.148150 -0.942482
vn 0.299631 -0.148150 -0.942482
vn 0.299631 -0.148150 -0.942482
vn 0.299631 -0.148150 -0.942482
vn -0.299631 -0.148150 -0.942482
vn -0.299631 -0.148150 -0.942482
vn -0.299631 -0.148150 -0.942482
vn -0.299631 -0.148150 -0.942482
vn -0.249859 -0.688533 -0.680803
vn -0.249859 -0.688533 -0.680803
vn -0.249859 -0.688533 -0.680803
vn -0.249859 -0.688533 -0.680803
vn 0.249859 -0.688533 -0.680803
vn 0.249859 -0.688533 -0.680803
vn 0.249859 -0.688533 -0.680803
vn 0.249859 -0.688533 -0.680803
vn -0.299631 -0.148150 0.942482
vn -0.299631 -0.148150 0.942482
vn -0.299631 -0.148150 0.942482
vn -0.299631 -0.148150 0.942482
vn 0.299631 -0.148150 0.942482
vn 0.299631 -0.148150 0.942482
vn 0.299631 -0.148150 0.942482
vn 0.299631 -0.148150 0.942482
vn 0.249859 -0.688533 0.680803
vn 0.249859 -0.688533 0.680803
vn 0.249859 -0.688533 0.680803
vn 0.249859 -0.688533 0.680803
vn -0.249859 -0.688533 0.680803
vn -0.249859 -0.688533 0.680803
vn -0.249859 -0.688533 0.680803
vn -0.249859 -0.688533 0.680803
vn 0.392005 0.823042 -0.411015
vn 0.392005 0.823042 -0.411015
vn 0.392005 0.823042 -0.411015
vn 0.392005 0.823042 -0.411015
vn 0.392005 0.823042 0.411015
vn 0.392005 0.823042 0.411015
vn 0.392005 0.823042 0.411015
vn 0.392005 0.823042 0.411015
vn -0.392005 0.823042 0.411015
vn -0.392005 0.823042 0.411015
vn -0.392005 0.823042 0.411015
vn -0.392005 0.823042 0.411015
vn -0.392006 0.823042 -0.411015
vn -0.392006 0.823042 -0.411015
vn -0.392006 0.823042 -0.411015
vn -0.392006 0.823042 -0.411015
vn 0.904556 0.286067 -0.316140
vn 0.904556 0.286067 -0.316140
vn 0.904556 0.286067 -0.316140
vn 0.904556 0.286067 -0.316140
vn 0.904556 0.286068 0.316140
vn 0.904556 0.286068 0.316140
vn 0.904556 0.286068 0.316140
vn 0.904556 0.286068 0.316140
vn 0.775802 0.553672 0.302619
vn 0.775802 0.553672 0.302619
vn 0.775802 0.553672 0.302619
vn 0.775802 0.553672 0.302619
vn 0.775803 0.553672 -0.302619
vn 0.775803 0.553672 -0.302619
vn 0.775803 0.553672 -0.302619
vn 0.775803 0.553672 -0.302619
vn -0.904556 0.286068 0.316140
vn -0.904556 0.286068 0.316140
vn -0.904556 0.286068 0.316140
vn -0.904556 0.286068 0.316140
vn -0.904556 0.286068 -0.316140
vn -0.904556 0.286068 -0.316140
vn -0.904556 0.286068 -0.316140
vn -0.904556 0.286068 -0.316140
vn -0.775803 0.553672 -0.302619
vn -0.775803 0.553672 -0.302619
vn -0.775803 0.553672 -0.302619
vn -0.775803 0.553672 -0.302619
vn -0.775802 0.553672 0.302619
vn -0.775802 0.553672 0.302619
vn -0.775802 0.553672 0.302619
vn -0.775802 0.553672 0.302619
vn -0.291184 0.276262 -0.915910
vn -0.291184 0.276262 -0.915910
vn -0.291184 0.276262 -0.915910
vn -0.291184 0.276262 -0.915910
vn 0.291184 0.276262 -0.915910
vn 0.291184 0.276262 -0.915910
vn 0.291184 0.276262 -0.915910
vn 0.291184 0.276262 -0.915910
vn 0.281465 0.539940 -0.793248
vn 0.281465 0.539940 -0.793248
vn 0.281465 0.539940 -0.793248
vn 0.281465 0.539940 -0.793248
vn -0.281465 0.539940 -0.793248
vn -0.281465 0.539940 -0.793248
vn -0.281465 0.539940 -0.793248
vn -0.281465 0.539940 -0.793248
g Avocado_DarkGrey
usemtl DarkGrey
f 1 2 3
f 1 3 4
f 5 6 7
f 5 7 8
f 9 10 11
f 9 12 10
f 13 10 12
f 13 14 10
f 15 16 17
f 15 17 18
f 19 18 17
f 19 17 20
f 21 22 23
f 21 23 24
f 25 26 27
f 25 27 28
f 29 30 31
f 29 31 32
f 33 34 35
f 33 35 36
f 37 38 39
f 37 39 40
f 41 42 43
f 41 43 44
f 45 46 47
f 45 47 48
f 49 50 51
f 49 51 52
f 53 54 55
f 53 55 56
f 57 58 59
f 57 59 60
f 61 62 63
f 61 63 64
f 65 66 67
f 65 67 68
f 69 70 71
f 69 71 72
f 73 74 75
f 73 75 76
f 77 78 79
f 77 79 80
f 81 82 83
f 81 83 84
f 85 86 87
f 85 87 88
f 89 90 91
f 89 91 92
f 93 94 95
f 93 96 94
f 97 94 96
f 97 98 94
f 99 100 101
f 99 101 102
f 103 102 101
f 103 101 104
f 105 106 107
f 105 107 108
f 109 110 111
f 109 111 112
f 113 114 115
f 113 115 116
f 117 118 119
f 117 119 120
f 121 122 123
f 121 123 124
f 125 126 127
f 125 127 128
f 129 130 131
f 129 131 132
f 133 134 135
f 133 135 136
f 137 138 139
f 137 139 140
f 141 142 143
f 141 143 144
f 145 146 147
f 145 148 146
f 149 146 148
f 149 150 146
f 151 152 153
f 151 153 154
f 155 154 153
f 155 153 156
f 157 158 159
f 157 159 160
f 161 162 163
f 161 163 164
f 165 166 167
f 165 167 168
f 169 170 171
f 169 171 172
f 173 174 175
f 173 175 176
f 177 178 179
f 177 179 180
f 181 182 183
f 181 183 184
f 185 186 187
f 185 187 188
f 189 190 191
f 189 191 192
f 193 194 195
f 193 195 196
f 197 198 199
f 197 199 200
f 201 202 203
f 201 203 204
f 205 206 207
f 205 207 208
f 209 210 211
f 209 211 212
f 213 214 215
f 213 216 214
f 217 214 216
f 217 218 214
f 219 220 221
f 219 221 222
f 223 222 221
f 223 221 224
f 225 226 227
f 225 227 228
f 229 230 231
f 229 231 232
f 233 234 235
f 233 235 236
f 237 238 239
f 237 239 240
f 241 242 243
f 241 243 244
f 245 246 247
f 245 247 248
f 249 250 251
f 249 251 252
f 253 254 255
f 253 255 256
f 257 258 259
f 257 259 260
f 261 262 263
f 261 263 264
f 265 266 267
f 265 267 268
f 269 270 271
f 269 271 272
f 273 274 275
f 273 275 276
f 277 278 279
f 277 279 280
f 281 282 283
f 281 283 284
f 285 286 287
f 285 287 288
g Avocado_PaleGreen
usemtl PaleGreen
f 289 290 291
f 289 292 290
f 293 290 292
f 293 294 290
f 293 295 294
f 293 296 295
f 297 295 296
f 297 298 295
f 299 300 301
f 299 301 302
f 303 302 301
f 303 301 304
f 303 304 305
f 303 305 306
f 307 306 305
f 307 305 308
f 309 310 311
f 309 311 312
f 313 314 315
f 313 315 316
f 317 318 319
f 317 319 320
f 321 322 323
f 321 323 324
g Avocado_LightBrown
usemtl LightBrown
f 325 326 327
f 325 327 328
f 329 330 331
f 329 331 332
f 333 334 335
f 333 335 336
f 337 338 339
f 337 339 340
f 341 342 343
f 341 343 344
f 345 346 347
f 345 347 348
f 349 350 351
f 349 351 352
f 353 354 355
f 353 355 356
f 357 358 359
f 357 359 360
f 361 362 363
f 361 363 364
f 365 366 367
f 365 367 368
f 369 370 371
f 369 371 372
f 373 374 375
f 373 375 376
f 377 378 379
f 377 379 380
f 381 382 383
f 381 383 384
f 385 386 387
f 385 387 388
f 389 390 391
f 389 391 392
f 393 394 395
f 393 395 396
f 397 398 399
f 397 399 400
f 401 402 403
f 401 403 404
f 405 406 407
f 405 407 408
f 409 410 411
f 409 411 412
f 413 414 415
f 413 415 416
f 417 418 419
f 417 419 420
f 421 422 423
f 421 423 424
f 425 426 427
f 425 427 428
f 429 430 431
f 429 431 432
f 433 434 435
f 433 435 436
f 437 438 439
f 437 439 440
f 441 442 443
f 441 443 444
f 445 446 447
f 445 447 448
f 449 450 451
f 449 451 452
f 453 454 455
f 453 455 456
f 457 458 459
f 457 459 460
f 461 462 463
f 461 463 464
f 465 466 467
f 465 467 468
f 469 470 471
f 469 471 472
f 473 474 475
f 473 475 476
f 477 478 479
f 477 479 480
f 481 482 483
f 481 483 484
