mtllib Materials.mtl
# Ultimate Food Pack - Bacon_Uncooked
o Bacon_Uncooked
v 0.338126 0.000000 0.023675
v 0.338126 0.000000 0.001589
v 0.270227 -0.007181 -0.011273
v 0.202328 -0.007181 -0.013816
v 0.134428 0.000000 -0.000417
v 0.134428 0.000000 0.020207
v 0.338868 -0.014067 0.023675
v 0.270969 -0.021248 -0.011273
v 0.338868 -0.014067 0.001589
v 0.201586 -0.021248 -0.013816
v 0.133687 -0.014067 0.020207
v 0.133687 -0.014067 -0.000417
v -0.340867 -0.007180 -0.174517
v -0.408766 0.000000 -0.135126
v -0.404789 0.000000 -0.085232
v -0.338878 -0.007180 -0.110027
v 0.475063 -0.007181 -0.134611
v 0.475063 -0.007181 -0.197786
v 0.406310 0.000000 -0.176504
v 0.406310 0.000000 -0.113330
v 0.201637 -0.007181 -0.172096
v 0.202328 -0.007181 -0.119971
v 0.270227 -0.007181 -0.118159
v 0.268155 -0.007181 -0.153709
v 0.338126 0.000000 -0.104566
v 0.333983 0.000000 -0.138735
v 0.268155 -0.007181 -0.153709
v 0.270227 -0.007181 -0.118159
v -0.408766 0.000000 -0.135126
v -0.449019 0.000000 -0.133053
v -0.449019 0.000000 -0.093638
v -0.404789 0.000000 -0.085232
v -0.517108 -0.007180 -0.114951
v -0.517108 -0.007180 -0.178125
v -0.585261 -0.007180 -0.172725
v -0.596934 -0.007180 -0.109551
v -0.517108 -0.007180 0.022792
v -0.449019 0.000000 0.033745
v -0.449019 0.000000 0.012517
v -0.517108 -0.007180 -0.008795
v -0.517108 -0.007180 0.022792
v -0.517108 -0.007180 -0.008795
v -0.593889 -0.007180 -0.003396
v -0.585261 -0.007180 0.028191
v 0.338126 0.000000 0.023675
v 0.406310 0.000000 0.024412
v 0.406310 0.000000 -0.007175
v 0.338126 0.000000 0.001589
v 0.475063 -0.007181 0.003131
v 0.544100 -0.007181 0.008571
v 0.552627 -0.007181 -0.024843
v 0.475063 -0.007181 -0.028456
v 0.475063 -0.007181 0.003131
v 0.475063 -0.007181 -0.028456
v 0.406310 0.000000 -0.007175
v 0.406310 0.000000 0.024412
v 0.338126 0.000000 -0.104566
v 0.406310 0.000000 -0.113330
v 0.406310 0.000000 -0.176504
v 0.333983 0.000000 -0.138735
v -0.205068 0.000000 -0.181678
v -0.272968 -0.007180 -0.191733
v -0.272968 -0.007180 -0.128559
v -0.205068 0.000000 -0.118504
v -0.340867 -0.007180 -0.174517
v -0.338878 -0.007180 -0.110027
v -0.272968 -0.007180 -0.128559
v -0.272968 -0.007180 -0.191733
v -0.517108 -0.007180 -0.114951
v -0.449019 0.000000 -0.093638
v -0.449019 0.000000 -0.133053
v -0.517108 -0.007180 -0.178125
v -0.205068 0.000000 -0.181678
v -0.205068 0.000000 -0.118504
v -0.137169 0.000000 -0.128707
v -0.137169 0.000000 -0.191882
v 0.066529 0.000000 -0.181678
v -0.001370 -0.007180 -0.213869
v -0.001370 -0.007180 -0.158003
v 0.066529 0.000000 -0.118504
v -0.001370 -0.007180 -0.158003
v -0.001370 -0.007180 -0.213869
v -0.069270 -0.007180 -0.217270
v -0.064702 -0.007180 -0.154096
v 0.201637 -0.007181 -0.172096
v 0.134428 0.000000 -0.169746
v 0.134428 0.000000 -0.106572
v 0.202328 -0.007181 -0.119971
v 0.066529 0.000000 -0.181678
v 0.066529 0.000000 -0.118504
v 0.134428 0.000000 -0.106572
v 0.134428 0.000000 -0.169746
v -0.069270 -0.007180 -0.016353
v -0.001370 -0.007180 -0.012952
v -0.001370 -0.007180 -0.044539
v -0.069270 -0.007180 -0.047940
v -0.069270 -0.007180 -0.217270
v -0.137169 0.000000 -0.191882
v -0.137169 0.000000 -0.128707
v -0.064702 -0.007180 -0.154096
v -0.408766 0.000000 0.005840
v -0.449019 0.000000 0.012517
v -0.449019 0.000000 0.033745
v -0.409457 0.000000 0.018781
v -0.340176 -0.007180 -0.009162
v -0.275730 -0.007180 -0.002557
v -0.272968 -0.007180 -0.022404
v -0.340867 -0.007180 -0.022794
v -0.340176 -0.007180 -0.009162
v -0.340867 -0.007180 -0.022794
v -0.408766 0.000000 0.005840
v -0.409457 0.000000 0.018781
v -0.205068 0.000000 0.019238
v -0.137169 0.000000 0.009035
v -0.137169 0.000000 -0.022552
v -0.205068 0.000000 -0.012349
v -0.205068 0.000000 0.019238
v -0.205068 0.000000 -0.012349
v -0.272968 -0.007180 -0.022404
v -0.275730 -0.007180 -0.002557
v -0.069270 -0.007180 -0.016353
v -0.069270 -0.007180 -0.047940
v -0.137169 0.000000 -0.022552
v -0.137169 0.000000 0.009035
v 0.066529 0.000000 0.019238
v 0.134428 0.000000 0.020207
v 0.134428 0.000000 -0.000417
v 0.066529 0.000000 -0.012349
v 0.066529 0.000000 0.019238
v 0.066529 0.000000 -0.012349
v -0.001370 -0.007180 -0.044539
v -0.001370 -0.007180 -0.012952
v 0.475063 -0.007181 -0.134611
v 0.560545 -0.007181 -0.131607
v 0.544100 -0.007181 -0.192345
v 0.475063 -0.007181 -0.197786
v -0.341613 -0.021247 -0.174504
v -0.339608 -0.021248 -0.110027
v -0.405593 -0.014064 -0.085257
v -0.409484 -0.014069 -0.135101
v 0.474330 -0.021248 -0.134611
v 0.405578 -0.014068 -0.113330
v 0.405578 -0.014068 -0.176504
v 0.474330 -0.021248 -0.197786
v 0.200882 -0.021247 -0.172100
v 0.268883 -0.021249 -0.153709
v 0.270997 -0.021246 -0.118198
v 0.201587 -0.021248 -0.119969
v 0.338850 -0.014068 -0.104593
v 0.270997 -0.021246 -0.118198
v 0.268883 -0.021249 -0.153709
v 0.334790 -0.014064 -0.138753
v -0.409484 -0.014069 -0.135101
v -0.405593 -0.014064 -0.085257
v -0.448280 -0.014067 -0.093638
v -0.448280 -0.014067 -0.133053
v -0.516369 -0.021248 -0.114951
v -0.596934 -0.021267 -0.109551
v -0.585261 -0.021267 -0.172725
v -0.516369 -0.021248 -0.178125
v -0.516369 -0.021248 0.022792
v -0.516369 -0.021248 -0.008795
v -0.448280 -0.014067 0.012517
v -0.448280 -0.014067 0.033745
v -0.516369 -0.021248 0.022792
v -0.585261 -0.021267 0.028191
v -0.593889 -0.021267 -0.003396
v -0.516369 -0.021248 -0.008795
v 0.338868 -0.014067 0.023675
v 0.338868 -0.014067 0.001589
v 0.405578 -0.014068 -0.007175
v 0.405578 -0.014068 0.024412
v 0.474330 -0.021248 0.003131
v 0.474330 -0.021248 -0.028456
v 0.552627 -0.021268 -0.024843
v 0.544100 -0.021268 0.008571
v 0.474330 -0.021248 0.003131
v 0.405578 -0.014068 0.024412
v 0.405578 -0.014068 -0.007175
v 0.474330 -0.021248 -0.028456
v 0.338850 -0.014068 -0.104593
v 0.334790 -0.014064 -0.138753
v 0.405578 -0.014068 -0.176504
v 0.405578 -0.014068 -0.113330
v -0.204327 -0.014067 -0.181678
v -0.204327 -0.014067 -0.118504
v -0.272226 -0.021248 -0.128559
v -0.272226 -0.021248 -0.191733
v -0.341613 -0.021247 -0.174504
v -0.272226 -0.021248 -0.191733
v -0.272226 -0.021248 -0.128559
v -0.339608 -0.021248 -0.110027
v -0.516369 -0.021248 -0.114951
v -0.516369 -0.021248 -0.178125
v -0.448280 -0.014067 -0.133053
v -0.448280 -0.014067 -0.093638
v -0.204327 -0.014067 -0.181678
v -0.137890 -0.014068 -0.191866
v -0.137915 -0.014067 -0.128743
v -0.204327 -0.014067 -0.118504
v 0.067271 -0.014067 -0.181678
v 0.067287 -0.014067 -0.118519
v -0.000635 -0.021248 -0.158010
v -0.000629 -0.021248 -0.213869
v -0.000635 -0.021248 -0.158010
v -0.065360 -0.021252 -0.154104
v -0.070015 -0.021248 -0.217259
v -0.000629 -0.021248 -0.213869
v 0.200882 -0.021247 -0.172100
v 0.201587 -0.021248 -0.119969
v 0.133685 -0.014067 -0.106570
v 0.133682 -0.014067 -0.169750
v 0.067271 -0.014067 -0.181678
v 0.133682 -0.014067 -0.169750
v 0.133685 -0.014067 -0.106570
v 0.067287 -0.014067 -0.118519
v -0.070011 -0.021248 -0.016353
v -0.070011 -0.021248 -0.047940
v -0.000629 -0.021248 -0.044539
v -0.000629 -0.021248 -0.012952
v -0.070015 -0.021248 -0.217259
v -0.065360 -0.021252 -0.154104
v -0.137915 -0.014067 -0.128743
v -0.137890 -0.014068 -0.191866
v -0.409516 -0.014067 0.005840
v -0.410164 -0.014069 0.018792
v -0.448280 -0.014067 0.033745
v -0.448280 -0.014067 0.012517
v -0.340900 -0.021249 -0.009155
v -0.341618 -0.021247 -0.022794
v -0.272205 -0.021246 -0.022385
v -0.275057 -0.021251 -0.002551
v -0.340900 -0.021249 -0.009155
v -0.410164 -0.014069 0.018792
v -0.409516 -0.014067 0.005840
v -0.341618 -0.021247 -0.022794
v -0.204340 -0.014068 0.019229
v -0.204340 -0.014068 -0.012328
v -0.137911 -0.014067 -0.022552
v -0.137911 -0.014067 0.009035
v -0.204340 -0.014068 0.019229
v -0.275057 -0.021251 -0.002551
v -0.272205 -0.021246 -0.022385
v -0.204340 -0.014068 -0.012328
v -0.070011 -0.021248 -0.016353
v -0.137911 -0.014067 0.009035
v -0.137911 -0.014067 -0.022552
v -0.070011 -0.021248 -0.047940
v 0.067271 -0.014067 0.019238
v 0.067271 -0.014067 -0.012349
v 0.133687 -0.014067 -0.000417
v 0.133687 -0.014067 0.020207
v 0.067271 -0.014067 0.019238
v -0.000629 -0.021248 -0.012952
v -0.000629 -0.021248 -0.044539
v 0.067271 -0.014067 -0.012349
v 0.474330 -0.021248 -0.134611
v 0.474330 -0.021248 -0.197786
v 0.544100 -0.021268 -0.192345
v 0.560545 -0.021268 -0.131607
v -0.593889 -0.007180 -0.003396
v -0.593889 -0.021267 -0.003396
v -0.585261 -0.021267 0.028191
v -0.585261 -0.007180 0.028191
v -0.585261 -0.007180 -0.172725
v -0.585261 -0.021267 -0.172725
v -0.596934 -0.021267 -0.109551
v -0.596934 -0.007180 -0.109551
v 0.544100 -0.007181 0.008571
v 0.544100 -0.021268 0.008571
v 0.552627 -0.021268 -0.024843
v 0.552627 -0.007181 -0.024843
v 0.560545 -0.007181 -0.131607
v 0.560545 -0.021268 -0.131607
v 0.544100 -0.021268 -0.192345
v 0.544100 -0.007181 -0.192345
v 0.526841 -0.007181 -0.202241
v 0.475063 -0.007181 -0.214217
v 0.475063 -0.007181 -0.214217
v 0.406310 0.000000 -0.192936
v 0.406310 0.000000 -0.192936
v 0.338126 0.000000 -0.184172
v 0.338126 0.000000 -0.184172
v 0.270227 -0.007181 -0.197765
v -0.449019 0.000000 -0.173244
v -0.517108 -0.007180 -0.194557
v -0.517108 -0.007180 -0.194557
v -0.568223 -0.007180 -0.182610
v -0.568223 -0.007180 0.037902
v -0.517108 -0.007180 0.041750
v -0.517108 -0.007180 0.041750
v -0.449019 0.000000 0.063062
v -0.449019 0.000000 0.063062
v -0.408766 0.000000 0.060529
v 0.270227 -0.007181 0.034564
v 0.338126 0.000000 0.052134
v 0.338126 0.000000 0.052134
v 0.406310 0.000000 0.043370
v 0.406310 0.000000 0.043370
v 0.475063 -0.007181 0.022089
v 0.475063 -0.007181 0.022089
v 0.526841 -0.007181 0.018272
v -0.408766 0.000000 -0.175778
v -0.449019 0.000000 -0.173244
v -0.408766 0.000000 0.060529
v -0.338795 -0.007180 0.031204
v -0.338795 -0.007180 0.031204
v -0.272968 -0.007180 0.028141
v -0.272968 -0.007180 0.028141
v -0.205068 0.000000 0.038196
v -0.205068 0.000000 0.038196
v -0.137169 0.000000 0.027993
v -0.137169 0.000000 0.027993
v -0.069270 -0.007180 0.002605
v -0.069270 -0.007180 0.002605
v -0.001370 -0.007180 0.006006
v -0.001370 -0.007180 0.006006
v 0.066529 0.000000 0.038196
v 0.066529 0.000000 0.038196
v 0.134428 0.000000 0.042088
v 0.134428 0.000000 0.042088
v 0.202328 -0.007181 0.026497
v 0.202328 -0.007181 -0.013816
v 0.202328 -0.007181 0.026497
v 0.270227 -0.007181 0.034564
v 0.270227 -0.007181 -0.011273
v -0.272968 -0.007180 -0.208165
v -0.340867 -0.007180 -0.199577
v -0.340867 -0.007180 -0.199577
v -0.408766 0.000000 -0.175778
v -0.137169 0.000000 -0.208313
v -0.205068 0.000000 -0.198110
v -0.205068 0.000000 -0.198110
v -0.272968 -0.007180 -0.208165
v -0.069270 -0.007180 -0.233702
v -0.137169 0.000000 -0.208313
v 0.134428 0.000000 -0.186178
v 0.066529 0.000000 -0.198110
v 0.066529 0.000000 -0.198110
v -0.001370 -0.007180 -0.230301
v 0.270227 -0.007181 -0.197765
v 0.202328 -0.007181 -0.199577
v 0.202328 -0.007181 -0.199577
v 0.134428 0.000000 -0.186178
v -0.001370 -0.007180 -0.230301
v -0.069270 -0.007180 -0.233702
v 0.474351 -0.021250 -0.214217
v 0.526841 -0.021268 -0.202241
v 0.405483 -0.014063 -0.192936
v 0.474351 -0.021250 -0.214217
v 0.338844 -0.014069 -0.184122
v 0.405483 -0.014063 -0.192936
v 0.270937 -0.021250 -0.197716
v 0.338844 -0.014069 -0.184122
v -0.516389 -0.021249 -0.194557
v -0.448230 -0.014065 -0.173244
v -0.568223 -0.021267 -0.182610
v -0.516389 -0.021249 -0.194557
v -0.516286 -0.021243 0.041750
v -0.568223 -0.021267 0.037902
v -0.448344 -0.014071 0.063062
v -0.516286 -0.021243 0.041750
v -0.448344 -0.014071 0.063062
v -0.409374 -0.014074 0.060544
v 0.338834 -0.014069 0.052134
v 0.271052 -0.021243 0.034564
v 0.405683 -0.014073 0.043370
v 0.338834 -0.014069 0.052134
v 0.474250 -0.021244 0.022089
v 0.405683 -0.014073 0.043370
v 0.526841 -0.021267 0.018272
v 0.474250 -0.021244 0.022089
v -0.409594 -0.014062 -0.175778
v -0.448230 -0.014065 -0.173244
v -0.339588 -0.021245 0.031224
v -0.409374 -0.014074 0.060544
v -0.272170 -0.021245 0.028097
v -0.339588 -0.021245 0.031224
v -0.204331 -0.014067 0.038155
v -0.272170 -0.021245 0.028097
v -0.137783 -0.014073 0.027993
v -0.204331 -0.014067 0.038155
v -0.070075 -0.021244 0.002605
v -0.137783 -0.014073 0.027993
v -0.000526 -0.021242 0.006006
v -0.070075 -0.021244 0.002605
v 0.067136 -0.014074 0.038196
v -0.000526 -0.021242 0.006006
v 0.133730 -0.014070 0.042088
v 0.067136 -0.014074 0.038196
v 0.201564 -0.021247 0.026497
v 0.133730 -0.014070 0.042088
v 0.201586 -0.021248 -0.013816
v 0.270969 -0.021248 -0.011273
v 0.271052 -0.021243 0.034564
v 0.201564 -0.021247 0.026497
v -0.341492 -0.021253 -0.199577
v -0.272231 -0.021248 -0.208165
v -0.409594 -0.014062 -0.175778
v -0.341492 -0.021253 -0.199577
v -0.204328 -0.014067 -0.198110
v -0.138022 -0.014061 -0.208313
v -0.272231 -0.021248 -0.208165
v -0.204328 -0.014067 -0.198110
v -0.138022 -0.014061 -0.208313
v -0.069928 -0.021252 -0.233702
v 0.067404 -0.014060 -0.198110
v 0.133677 -0.014067 -0.186190
v -0.000761 -0.021254 -0.230301
v 0.067404 -0.014060 -0.198110
v 0.201636 -0.021250 -0.199588
v 0.270937 -0.021250 -0.197716
v 0.133677 -0.014067 -0.186190
v 0.201636 -0.021250 -0.199588
v -0.069928 -0.021252 -0.233702
v -0.000761 -0.021254 -0.230301
v -0.585261 -0.007180 0.028191
v -0.585261 -0.021267 0.028191
v -0.568223 -0.021267 0.037902
v -0.568223 -0.007180 0.037902
v 0.406310 0.000000 0.043370
v 0.405683 -0.014073 0.043370
v 0.474250 -0.021244 0.022089
v 0.475063 -0.007181 0.022089
v 0.475063 -0.007181 0.022089
v 0.474250 -0.021244 0.022089
v 0.526841 -0.021267 0.018272
v 0.526841 -0.007181 0.018272
v 0.544100 -0.007181 -0.192345
v 0.544100 -0.021268 -0.192345
v 0.526841 -0.021268 -0.202241
v 0.526841 -0.007181 -0.202241
v -0.449019 0.000000 -0.173244
v -0.448230 -0.014065 -0.173244
v -0.516389 -0.021249 -0.194557
v -0.517108 -0.007180 -0.194557
v -0.517108 -0.007180 -0.194557
v -0.516389 -0.021249 -0.194557
v -0.568223 -0.021267 -0.182610
v -0.568223 -0.007180 -0.182610
v 0.270227 -0.007181 0.034564
v 0.271052 -0.021243 0.034564
v 0.338834 -0.014069 0.052134
v 0.338126 0.000000 0.052134
v 0.338126 0.000000 0.052134
v 0.338834 -0.014069 0.052134
v 0.405683 -0.014073 0.043370
v 0.406310 0.000000 0.043370
v 0.526841 -0.007181 -0.202241
v 0.526841 -0.021268 -0.202241
v 0.474351 -0.021250 -0.214217
v 0.475063 -0.007181 -0.214217
v 0.475063 -0.007181 -0.214217
v 0.474351 -0.021250 -0.214217
v 0.405483 -0.014063 -0.192936
v 0.406310 0.000000 -0.192936
v -0.408766 0.000000 -0.175778
v -0.409594 -0.014062 -0.175778
v -0.448230 -0.014065 -0.173244
v -0.449019 0.000000 -0.173244
v -0.568223 -0.007180 0.037902
v -0.568223 -0.021267 0.037902
v -0.516286 -0.021243 0.041750
v -0.517108 -0.007180 0.041750
v -0.517108 -0.007180 0.041750
v -0.516286 -0.021243 0.041750
v -0.448344 -0.014071 0.063062
v -0.449019 0.000000 0.063062
v -0.568223 -0.007180 -0.182610
v -0.568223 -0.021267 -0.182610
v -0.585261 -0.021267 -0.172725
v -0.585261 -0.007180 -0.172725
v 0.526841 -0.007181 0.018272
v 0.526841 -0.021267 0.018272
v 0.544100 -0.021268 0.008571
v 0.544100 -0.007181 0.008571
v -0.449019 0.000000 0.063062
v -0.448344 -0.014071 0.063062
v -0.409374 -0.014074 0.060544
v -0.408766 0.000000 0.060529
v -0.408766 0.000000 0.060529
v -0.409374 -0.014074 0.060544
v -0.339588 -0.021245 0.031224
v -0.338795 -0.007180 0.031204
v -0.338795 -0.007180 0.031204
v -0.339588 -0.021245 0.031224
v -0.272170 -0.021245 0.028097
v -0.272968 -0.007180 0.028141
v -0.272968 -0.007180 0.028141
v -0.272170 -0.021245 0.028097
v -0.204331 -0.014067 0.038155
v -0.205068 0.000000 0.038196
v -0.205068 0.000000 0.038196
v -0.204331 -0.014067 0.038155
v -0.137783 -0.014073 0.027993
v -0.137169 0.000000 0.027993
v -0.137169 0.000000 0.027993
v -0.137783 -0.014073 0.027993
v -0.070075 -0.021244 0.002605
v -0.069270 -0.007180 0.002605
v -0.001370 -0.007180 0.006006
v -0.000526 -0.021242 0.006006
v 0.067136 -0.014074 0.038196
v 0.066529 0.000000 0.038196
v 0.066529 0.000000 0.038196
v 0.067136 -0.014074 0.038196
v 0.133730 -0.014070 0.042088
v 0.134428 0.000000 0.042088
v 0.134428 0.000000 0.042088
v 0.133730 -0.014070 0.042088
v 0.201564 -0.021247 0.026497
v 0.202328 -0.007181 0.026497
v 0.202328 -0.007181 0.026497
v 0.201564 -0.021247 0.026497
v 0.271052 -0.021243 0.034564
v 0.270227 -0.007181 0.034564
v 0.406310 0.000000 -0.192936
v 0.405483 -0.014063 -0.192936
v 0.338844 -0.014069 -0.184122
v 0.338126 0.000000 -0.184172
v 0.338126 0.000000 -0.184172
v 0.338844 -0.014069 -0.184122
v 0.270937 -0.021250 -0.197716
v 0.270227 -0.007181 -0.197765
v 0.270227 -0.007181 -0.197765
v 0.270937 -0.021250 -0.197716
v 0.201636 -0.021250 -0.199588
v 0.202328 -0.007181 -0.199577
v 0.202328 -0.007181 -0.199577
v 0.201636 -0.021250 -0.199588
v 0.133677 -0.014067 -0.186190
v 0.134428 0.000000 -0.186178
v 0.134428 0.000000 -0.186178
v 0.133677 -0.014067 -0.186190
v 0.067404 -0.014060 -0.198110
v 0.066529 0.000000 -0.198110
v 0.066529 0.000000 -0.198110
v 0.067404 -0.014060 -0.198110
v -0.000761 -0.021254 -0.230301
v -0.001370 -0.007180 -0.230301
v -0.069270 -0.007180 -0.233702
v -0.069928 -0.021252 -0.233702
v -0.138022 -0.014061 -0.208313
v -0.137169 0.000000 -0.208313
v -0.137169 0.000000 -0.208313
v -0.138022 -0.014061 -0.208313
v -0.204328 -0.014067 -0.198110
v -0.205068 0.000000 -0.198110
v -0.205068 0.000000 -0.198110
v -0.204328 -0.014067 -0.198110
v -0.272231 -0.021248 -0.208165
v -0.272968 -0.007180 -0.208165
v -0.272968 -0.007180 -0.208165
v -0.272231 -0.021248 -0.208165
v -0.341492 -0.021253 -0.199577
v -0.340867 -0.007180 -0.199577
v -0.340867 -0.007180 -0.199577
v -0.341492 -0.021253 -0.199577
v -0.409594 -0.014062 -0.175778
v -0.408766 0.000000 -0.175778
v -0.069270 -0.007180 0.002605
v -0.070075 -0.021244 0.002605
v -0.000526 -0.021242 0.006006
v -0.001370 -0.007180 0.006006
v -0.001370 -0.007180 -0.230301
v -0.000761 -0.021254 -0.230301
v -0.069928 -0.021252 -0.233702
v -0.069270 -0.007180 -0.233702
v -0.517108 -0.007180 -0.040382
v -0.596934 -0.007180 -0.034983
v -0.517108 -0.007180 -0.040382
v -0.449019 0.000000 -0.019070
v -0.596934 -0.007180 -0.062338
v -0.517108 -0.007180 -0.067737
v -0.449019 0.000000 -0.046425
v -0.408766 0.000000 -0.048959
v 0.338126 0.000000 -0.029998
v 0.270227 -0.007181 -0.043590
v 0.338126 0.000000 -0.029998
v 0.406310 0.000000 -0.038762
v 0.270227 -0.007181 -0.070946
v 0.338126 0.000000 -0.057353
v 0.202328 -0.007181 -0.072758
v 0.270227 -0.007181 -0.070946
v 0.475063 -0.007181 -0.060043
v 0.406310 0.000000 -0.038762
v 0.475063 -0.007181 -0.060043
v 0.560545 -0.007181 -0.057039
v 0.406310 0.000000 -0.066117
v 0.475063 -0.007181 -0.087398
v 0.338126 0.000000 -0.057353
v 0.406310 0.000000 -0.066117
v -0.205068 0.000000 -0.071291
v -0.137169 0.000000 -0.081494
v -0.137169 0.000000 -0.081494
v -0.072315 -0.007180 -0.122941
v -0.340867 -0.007180 -0.072758
v -0.408766 0.000000 -0.048959
v -0.517108 -0.007180 -0.067737
v -0.449019 0.000000 -0.046425
v -0.340867 -0.007180 -0.072758
v -0.272968 -0.007180 -0.081346
v -0.205068 0.000000 -0.071291
v -0.272968 -0.007180 -0.081346
v -0.072315 -0.007180 -0.122941
v 0.000619 -0.007180 -0.124860
v 0.066529 0.000000 -0.084690
v 0.000619 -0.007180 -0.124860
v 0.066529 0.000000 -0.084690
v 0.134428 0.000000 -0.059359
v 0.202328 -0.007181 -0.072758
v 0.134428 0.000000 -0.059359
v -0.408766 0.000000 -0.021603
v -0.449019 0.000000 -0.019070
v -0.340867 -0.007180 -0.045403
v -0.408766 0.000000 -0.021603
v -0.340867 -0.007180 -0.045403
v -0.272968 -0.007180 -0.053991
v -0.205068 0.000000 -0.043936
v -0.272968 -0.007180 -0.053991
v -0.205068 0.000000 -0.043936
v -0.137169 0.000000 -0.054139
v -0.069270 -0.007180 -0.079527
v -0.137169 0.000000 -0.054139
v 0.066529 0.000000 -0.043936
v -0.001370 -0.007180 -0.076126
v 0.066529 0.000000 -0.043936
v 0.134428 0.000000 -0.032004
v 0.202328 -0.007181 -0.045403
v 0.134428 0.000000 -0.032004
v 0.202328 -0.007181 -0.045403
v 0.270227 -0.007181 -0.043590
v -0.069270 -0.007180 -0.079527
v -0.001370 -0.007180 -0.076126
v 0.475063 -0.007181 -0.087398
v 0.560545 -0.007181 -0.084394
v -0.516369 -0.021248 -0.040382
v -0.596934 -0.021267 -0.034983
v -0.516369 -0.021248 -0.040382
v -0.448280 -0.014067 -0.019070
v -0.516369 -0.021248 -0.067737
v -0.596934 -0.021267 -0.062338
v -0.409494 -0.014068 -0.048981
v -0.448280 -0.014067 -0.046425
v 0.338868 -0.014067 -0.029998
v 0.270969 -0.021248 -0.043590
v 0.338868 -0.014067 -0.029998
v 0.405578 -0.014068 -0.038762
v 0.338868 -0.014067 -0.057353
v 0.270969 -0.021248 -0.070946
v 0.201586 -0.021248 -0.072758
v 0.270969 -0.021248 -0.070946
v 0.474330 -0.021248 -0.060043
v 0.405578 -0.014068 -0.038762
v 0.474330 -0.021248 -0.060043
v 0.560545 -0.021268 -0.057039
v 0.474330 -0.021248 -0.087398
v 0.405578 -0.014068 -0.066117
v 0.405578 -0.014068 -0.066117
v 0.338868 -0.014067 -0.057353
v -0.204327 -0.014067 -0.071291
v -0.137920 -0.014067 -0.081497
v -0.073151 -0.021243 -0.122987
v -0.137920 -0.014067 -0.081497
v -0.341642 -0.021246 -0.072797
v -0.409494 -0.014068 -0.048981
v -0.448280 -0.014067 -0.046425
v -0.516369 -0.021248 -0.067737
v -0.341642 -0.021246 -0.072797
v -0.272226 -0.021248 -0.081346
v -0.204327 -0.014067 -0.071291
v -0.272226 -0.021248 -0.081346
v 0.001401 -0.021246 -0.124870
v -0.073151 -0.021243 -0.122987
v 0.067280 -0.014067 -0.084687
v 0.001401 -0.021246 -0.124870
v 0.067280 -0.014067 -0.084687
v 0.133687 -0.014067 -0.059359
v 0.201586 -0.021248 -0.072758
v 0.133687 -0.014067 -0.059359
v -0.448280 -0.014067 -0.019070
v -0.409508 -0.014067 -0.021603
v -0.341609 -0.021248 -0.045403
v -0.409508 -0.014067 -0.021603
v -0.341609 -0.021248 -0.045403
v -0.272226 -0.021248 -0.053991
v -0.204327 -0.014067 -0.043936
v -0.272226 -0.021248 -0.053991
v -0.204327 -0.014067 -0.043936
v -0.137911 -0.014067 -0.054127
v -0.069995 -0.021249 -0.079509
v -0.137911 -0.014067 -0.054127
v 0.067271 -0.014067 -0.043931
v -0.000637 -0.021248 -0.076116
v 0.067271 -0.014067 -0.043931
v 0.133687 -0.014067 -0.032004
v 0.201586 -0.021248 -0.045403
v 0.133687 -0.014067 -0.032004
v 0.201586 -0.021248 -0.045403
v 0.270969 -0.021248 -0.043590
v -0.069995 -0.021249 -0.079509
v -0.000637 -0.021248 -0.076116
v 0.560545 -0.021268 -0.084394
v 0.474330 -0.021248 -0.087398
v -0.596934 -0.007180 -0.109551
v -0.596934 -0.021267 -0.109551
v -0.596934 -0.021267 -0.062338
v -0.596934 -0.007180 -0.062338
v -0.596934 -0.007180 -0.034983
v -0.596934 -0.021267 -0.034983
v -0.593889 -0.021267 -0.003396
v -0.593889 -0.007180 -0.003396
v 0.560545 -0.021268 -0.057039
v 0.560545 -0.007181 -0.057039
v 0.560545 -0.007181 -0.084394
v 0.560545 -0.021268 -0.084394
v 0.560545 -0.021268 -0.131607
v 0.560545 -0.007181 -0.131607
v -0.596934 -0.021267 -0.034983
v -0.596934 -0.007180 -0.034983
v 0.560545 -0.007181 -0.057039
v 0.560545 -0.021268 -0.057039
vn -0.105165 0.994455 0.000000
vn -0.105165 0.994455 0.000000
vn -0.105165 0.994455 0.000000
vn 0.105166 0.994455 0.000000
vn 0.105166 0.994455 0.000000
vn 0.105166 0.994455 0.000000
vn 0.105220 -0.994449 -0.000031
vn 0.105220 -0.994449 -0.000031
vn 0.105165 -0.994455 0.000000
vn -0.105166 -0.994455 0.000000
vn -0.105184 -0.994453 0.000022
vn -0.105166 -0.994455 0.000000
vn 0.104134 0.994549 -0.005432
vn 0.104134 0.994549 -0.005432
vn 0.104134 0.994549 -0.005432
vn 0.104134 0.994549 -0.005432
vn 0.103875 0.994590 0.000000
vn 0.103875 0.994590 0.000000
vn 0.103875 0.994590 0.000000
vn 0.103875 0.994590 0.000000
vn 0.000000 1.000000 0.000000
vn 0.000000 1.000000 0.000000
vn 0.000000 1.000000 0.000000
vn 0.000000 1.000000 0.000000
vn -0.108820 0.994014 0.009701
vn -0.108820 0.994014 0.009701
vn -0.108820 0.994014 0.009701
vn -0.108820 0.994014 0.009701
vn 0.000000 1.000000 0.000000
vn 0.000000 1.000000 0.000000
vn 0.000000 1.000000 0.000000
vn 0.000000 1.000000 0.000000
vn 0.000000 1.000000 0.000000
vn 0.000000 1.000000 0.000000
vn 0.000000 1.000000 0.000000
vn 0.000000 1.000000 0.000000
vn -0.104876 0.994485 0.000000
vn -0.104876 0.994485 0.000000
vn -0.104876 0.994485 0.000000
vn -0.104876 0.994485 0.000000
vn 0.000000 1.000000 0.000000
vn 0.000000 1.000000 0.000000
vn 0.000000 1.000000 0.000000
vn 0.000000 1.000000 0.000000
vn 0.000000 1.000000 0.000000
vn 0.000000 1.000000 0.000000
vn 0.000000 1.000000 0.000000
vn 0.000000 1.000000 0.000000
vn 0.000000 1.000000 0.000000
vn 0.000000 1.000000 0.000000
vn 0.000000 1.000000 0.000000
vn 0.000000 1.000000 0.000000
vn 0.103875 0.994590 0.000000
vn 0.103875 0.994590 0.000000
vn 0.103875 0.994590 0.000000
vn 0.103875 0.994590 0.000000
vn 0.000000 1.000000 0.000000
vn 0.000000 1.000000 0.000000
vn 0.000000 1.000000 0.000000
vn 0.000000 1.000000 0.000000
vn -0.105165 0.994455 0.000000
vn -0.105165 0.994455 0.000000
vn -0.105165 0.994455 0.000000
vn -0.105165 0.994455 0.000000
vn 0.000000 1.000000 0.000000
vn 0.000000 1.000000 0.000000
vn 0.000000 1.000000 0.000000
vn 0.000000 1.000000 0.000000
vn -0.104876 0.994485 0.000000
vn -0.104876 0.994485 0.000000
vn -0.104876 0.994485 0.000000
vn -0.104876 0.994485 0.000000
vn 0.000000 1.000000 0.000000
vn 0.000000 1.000000 0.000000
vn 0.000000 1.000000 0.000000
vn 0.000000 1.000000 0.000000
vn -0.105165 0.994455 0.000000
vn -0.105165 0.994455 0.000000
vn -0.108609 0.994079 0.003226
vn -0.108609 0.994079 0.003226
vn 0.000000 1.000000 0.000000
vn 0.000000 1.000000 0.000000
vn 0.000000 1.000000 0.000000
vn 0.000000 1.000000 0.000000
vn 0.105625 0.994406 -0.000632
vn 0.105625 0.994406 -0.000632
vn 0.105166 0.994455 0.000000
vn 0.105166 0.994455 0.000000
vn 0.000000 1.000000 0.000000
vn 0.000000 1.000000 0.000000
vn 0.000000 1.000000 0.000000
vn 0.000000 1.000000 0.000000
vn 0.000000 1.000000 0.000000
vn 0.000000 1.000000 0.000000
vn 0.000000 1.000000 0.000000
vn 0.000000 1.000000 0.000000
vn 0.100478 0.994933 -0.003632
vn 0.100478 0.994933 -0.003632
vn 0.109108 0.993973 0.010600
vn 0.109108 0.993973 0.010600
vn 0.000000 1.000000 0.000000
vn 0.000000 1.000000 0.000000
vn 0.000000 1.000000 0.000000
vn 0.000000 1.000000 0.000000
vn 0.000000 1.000000 0.000000
vn 0.000000 1.000000 0.000000
vn 0.000000 1.000000 0.000000
vn 0.000000 1.000000 0.000000
vn 0.101543 0.994828 -0.002562
vn 0.105166 0.994455 0.000000
vn 0.105166 0.994455 0.000000
vn 0.101543 0.994828 -0.002562
vn 0.000000 1.000000 0.000000
vn 0.000000 1.000000 0.000000
vn 0.000000 1.000000 0.000000
vn 0.000000 1.000000 0.000000
vn -0.104410 0.994517 0.005809
vn -0.105165 0.994455 0.000000
vn -0.105165 0.994455 0.000000
vn -0.104410 0.994517 0.005809
vn 0.105166 0.994455 0.000000
vn 0.105166 0.994455 0.000000
vn 0.105166 0.994455 0.000000
vn 0.105166 0.994455 0.000000
vn 0.000000 1.000000 0.000000
vn 0.000000 1.000000 0.000000
vn 0.000000 1.000000 0.000000
vn 0.000000 1.000000 0.000000
vn -0.105165 0.994455 0.000000
vn -0.105165 0.994455 0.000000
vn -0.105165 0.994455 0.000000
vn -0.105165 0.994455 0.000000
vn 0.000000 1.000000 0.000000
vn 0.000000 1.000000 0.000000
vn 0.000000 1.000000 0.000000
vn 0.000000 1.000000 0.000000
vn -0.104127 -0.994549 0.005404
vn -0.104127 -0.994549 0.005404
vn -0.104127 -0.994549 0.005404
vn -0.104127 -0.994549 0.005404
vn -0.103875 -0.994590 0.000000
vn -0.103875 -0.994590 0.000000
vn -0.103875 -0.994590 0.000000
vn -0.103875 -0.994590 0.000000
vn -0.000003 -1.000000 0.000019
vn -0.000003 -1.000000 0.000019
vn -0.000003 -1.000000 0.000019
vn -0.000003 -1.000000 0.000019
vn 0.108798 -0.994017 -0.009666
vn 0.108798 -0.994017 -0.009666
vn 0.108798 -0.994017 -0.009666
vn 0.108798 -0.994017 -0.009666
vn 0.000022 -1.000000 0.000052
vn 0.000022 -1.000000 0.000052
vn 0.000022 -1.000000 0.000052
vn 0.000022 -1.000000 0.000052
vn 0.000263 -1.000000 0.000028
vn 0.000263 -1.000000 0.000028
vn 0.000263 -1.000000 0.000028
vn 0.000263 -1.000000 0.000028
vn 0.104937 -0.994479 -0.000024
vn 0.104876 -0.994485 0.000000
vn 0.104876 -0.994485 0.000000
vn 0.104937 -0.994479 -0.000024
vn 0.000362 -1.000000 -0.000066
vn 0.000362 -1.000000 -0.000066
vn 0.000267 -1.000000 -0.000037
vn 0.000267 -1.000000 -0.000037
vn -0.000041 -1.000000 -0.000145
vn -0.000007 -1.000000 0.000000
vn -0.000007 -1.000000 0.000000
vn -0.000041 -1.000000 -0.000145
vn -0.000348 -1.000000 -0.000045
vn -0.000260 -1.000000 -0.000034
vn -0.000260 -1.000000 -0.000034
vn -0.000348 -1.000000 -0.000045
vn -0.103933 -0.994584 0.000044
vn -0.103933 -0.994584 0.000044
vn -0.103875 -0.994590 0.000000
vn -0.103875 -0.994590 0.000000
vn 0.000001 -1.000000 0.000009
vn 0.000013 -1.000000 -0.000006
vn 0.000013 -1.000000 -0.000006
vn 0.000001 -1.000000 0.000009
vn 0.105165 -0.994455 0.000000
vn 0.105165 -0.994455 0.000000
vn 0.105165 -0.994455 0.000000
vn 0.105165 -0.994455 0.000000
vn -0.000002 -1.000000 -0.000007
vn -0.000002 -1.000000 -0.000007
vn -0.000005 -1.000000 0.000025
vn -0.000005 -1.000000 0.000025
vn 0.104876 -0.994485 0.000000
vn 0.104834 -0.994490 0.000033
vn 0.104834 -0.994490 0.000033
vn 0.104876 -0.994485 0.000000
vn -0.000002 -1.000000 0.000010
vn -0.000002 -1.000000 0.000010
vn 0.000006 -1.000000 0.000000
vn 0.000006 -1.000000 0.000000
vn 0.105160 -0.994455 -0.000005
vn 0.108633 -0.994077 -0.003261
vn 0.108633 -0.994077 -0.003261
vn 0.105160 -0.994455 -0.000005
vn 0.000014 -1.000000 0.000188
vn 0.000014 -1.000000 0.000188
vn 0.000028 -1.000000 -0.000041
vn 0.000028 -1.000000 -0.000041
vn -0.105622 -0.994406 0.000641
vn -0.105164 -0.994455 0.000000
vn -0.105164 -0.994455 0.000000
vn -0.105622 -0.994406 0.000641
vn -0.000008 -1.000000 0.000007
vn -0.000008 -1.000000 0.000007
vn -0.000009 -1.000000 -0.000005
vn -0.000009 -1.000000 -0.000005
vn 0.000000 -1.000000 0.000000
vn 0.000000 -1.000000 0.000000
vn 0.000000 -1.000000 0.000000
vn 0.000000 -1.000000 0.000000
vn -0.100451 -0.994935 0.003660
vn -0.109176 -0.993964 -0.010743
vn -0.109176 -0.993964 -0.010743
vn -0.100451 -0.994935 0.003660
vn 0.000006 -1.000000 0.000007
vn -0.000088 -1.000000 -0.000114
vn -0.000088 -1.000000 -0.000114
vn 0.000006 -1.000000 0.000007
vn -0.000020 -1.000000 0.000140
vn 0.000008 -1.000000 0.000031
vn 0.000008 -1.000000 0.000031
vn -0.000020 -1.000000 0.000140
vn -0.101609 -0.994821 0.002585
vn -0.101609 -0.994821 0.002585
vn -0.105174 -0.994454 -0.000018
vn -0.105174 -0.994454 -0.000018
vn -0.000060 -1.000000 -0.000136
vn 0.000004 -1.000000 -0.000014
vn 0.000004 -1.000000 -0.000014
vn -0.000060 -1.000000 -0.000136
vn 0.104444 -0.994513 -0.005954
vn 0.104444 -0.994513 -0.005954
vn 0.105176 -0.994454 -0.000006
vn 0.105176 -0.994454 -0.000006
vn -0.105204 -0.994451 0.000109
vn -0.105204 -0.994451 0.000109
vn -0.105164 -0.994455 -0.000012
vn -0.105164 -0.994455 -0.000012
vn 0.000040 -1.000000 -0.000211
vn 0.000000 -1.000000 0.000000
vn 0.000000 -1.000000 0.000000
vn 0.000040 -1.000000 -0.000211
vn 0.105229 -0.994448 0.000064
vn 0.105229 -0.994448 0.000064
vn 0.105164 -0.994455 -0.000006
vn 0.105164 -0.994455 -0.000006
vn -0.000250 -1.000000 0.000033
vn -0.000345 -1.000000 0.000275
vn -0.000345 -1.000000 0.000275
vn -0.000250 -1.000000 0.000033
vn -0.964658 0.000000 0.263505
vn -0.964658 0.000000 0.263505
vn -0.964658 0.000000 0.263505
vn -0.964658 0.000000 0.263505
vn -0.983353 0.000000 -0.181707
vn -0.983353 0.000000 -0.181707
vn -0.983353 0.000000 -0.181707
vn -0.983353 0.000000 -0.181707
vn 0.968950 0.000000 0.247258
vn 0.968950 0.000000 0.247258
vn 0.968950 0.000000 0.247258
vn 0.968950 0.000000 0.247258
vn 0.965249 0.000000 -0.261333
vn 0.965249 0.000000 -0.261333
vn 0.965249 0.000000 -0.261333
vn 0.965249 0.000000 -0.261333
vn 0.000000 1.000000 0.000000
vn 0.000000 1.000000 0.000000
vn 0.103875 0.994590 0.000000
vn 0.103875 0.994590 0.000000
vn 0.000000 1.000000 0.000000
vn 0.000000 1.000000 0.000000
vn -0.105230 0.994421 -0.007308
vn -0.105230 0.994421 -0.007308
vn -0.104876 0.994485 0.000000
vn -0.104876 0.994485 0.000000
vn 0.000000 1.000000 0.000000
vn 0.000000 1.000000 0.000000
vn 0.000000 1.000000 0.000000
vn 0.000000 1.000000 0.000000
vn -0.104876 0.994485 0.000000
vn -0.104876 0.994485 0.000000
vn 0.000000 1.000000 0.000000
vn 0.000000 1.000000 0.000000
vn -0.105165 0.994455 0.000000
vn -0.105165 0.994455 0.000000
vn 0.000000 1.000000 0.000000
vn 0.000000 1.000000 0.000000
vn 0.103875 0.994590 0.000000
vn 0.103875 0.994590 0.000000
vn 0.000000 1.000000 0.000000
vn 0.000000 1.000000 0.000000
vn 0.000000 1.000000 0.000000
vn 0.000000 1.000000 0.000000
vn 0.101543 0.994828 -0.002562
vn 0.101543 0.994828 -0.002562
vn 0.000000 1.000000 0.000000
vn 0.000000 1.000000 0.000000
vn -0.104410 0.994517 0.005809
vn -0.104410 0.994517 0.005809
vn 0.000000 1.000000 0.000000
vn 0.000000 1.000000 0.000000
vn 0.105166 0.994455 0.000000
vn 0.105166 0.994455 0.000000
vn 0.000000 1.000000 0.000000
vn 0.000000 1.000000 0.000000
vn -0.105165 0.994455 0.000000
vn -0.105165 0.994455 0.000000
vn 0.000000 1.000000 0.000000
vn 0.000000 1.000000 0.000000
vn 0.105166 0.994455 0.000000
vn 0.105166 0.994455 0.000000
vn 0.000000 1.000000 0.000000
vn 0.000000 1.000000 0.000000
vn 0.000000 1.000000 0.000000
vn 0.000000 1.000000 0.000000
vn 0.000000 1.000000 0.000000
vn 0.000000 1.000000 0.000000
vn 0.105166 0.994455 0.000000
vn 0.105166 0.994455 0.000000
vn 0.000000 1.000000 0.000000
vn 0.000000 1.000000 0.000000
vn -0.105165 0.994455 0.000000
vn -0.105165 0.994455 0.000000
vn 0.105166 0.994455 0.000000
vn 0.105166 0.994455 0.000000
vn 0.000000 1.000000 0.000000
vn 0.000000 1.000000 0.000000
vn -0.105165 0.994455 0.000000
vn -0.105165 0.994455 0.000000
vn 0.000000 1.000000 0.000000
vn 0.000000 1.000000 0.000000
vn 0.105889 0.994377 0.001665
vn 0.105889 0.994377 0.001665
vn 0.000000 1.000000 0.000000
vn 0.000000 1.000000 0.000000
vn -0.000345 -1.000000 0.000275
vn -0.000345 -1.000000 0.000275
vn -0.103800 -0.994598 0.000116
vn -0.103800 -0.994598 0.000116
vn 0.000013 -1.000000 -0.000006
vn 0.000013 -1.000000 -0.000006
vn 0.105209 -0.994424 0.007252
vn 0.105209 -0.994424 0.007252
vn 0.104834 -0.994490 0.000033
vn 0.104834 -0.994490 0.000033
vn 0.000357 -1.000000 0.000280
vn 0.000357 -1.000000 0.000280
vn 0.000362 -1.000000 -0.000066
vn 0.000362 -1.000000 -0.000066
vn 0.104937 -0.994479 -0.000024
vn 0.104937 -0.994479 -0.000024
vn -0.000088 -1.000000 -0.000114
vn -0.000088 -1.000000 -0.000114
vn 0.105220 -0.994449 -0.000031
vn 0.105220 -0.994449 -0.000031
vn -0.000041 -1.000000 -0.000145
vn -0.000041 -1.000000 -0.000145
vn -0.103933 -0.994584 0.000044
vn -0.103933 -0.994584 0.000044
vn -0.000348 -1.000000 -0.000045
vn -0.000348 -1.000000 -0.000045
vn 0.000004 -1.000000 -0.000106
vn 0.000004 -1.000000 -0.000106
vn -0.101609 -0.994821 0.002585
vn -0.101609 -0.994821 0.002585
vn -0.000020 -1.000000 0.000140
vn -0.000020 -1.000000 0.000140
vn 0.104444 -0.994513 -0.005954
vn 0.104444 -0.994513 -0.005954
vn -0.000060 -1.000000 -0.000136
vn -0.000060 -1.000000 -0.000136
vn -0.105204 -0.994451 0.000109
vn -0.105204 -0.994451 0.000109
vn 0.000004 -1.000000 0.000238
vn 0.000004 -1.000000 0.000238
vn 0.105229 -0.994448 0.000064
vn 0.105229 -0.994448 0.000064
vn 0.000040 -1.000000 -0.000211
vn 0.000040 -1.000000 -0.000211
vn -0.105184 -0.994453 0.000022
vn -0.105184 -0.994453 0.000022
vn 0.000000 -1.000000 0.000000
vn 0.000000 -1.000000 0.000000
vn 0.000019 -1.000000 0.000070
vn 0.000019 -1.000000 0.000070
vn 0.000063 -1.000000 0.000155
vn 0.000063 -1.000000 0.000155
vn -0.105103 -0.994461 -0.000019
vn -0.105103 -0.994461 -0.000019
vn 0.000008 -1.000000 -0.000222
vn 0.000008 -1.000000 -0.000222
vn 0.105166 -0.994455 -0.000006
vn 0.105166 -0.994455 -0.000006
vn -0.105086 -0.994463 0.000055
vn -0.105086 -0.994463 0.000055
vn -0.000011 -1.000000 -0.000249
vn -0.000011 -1.000000 -0.000249
vn 0.105081 -0.994464 -0.000035
vn 0.105081 -0.994464 -0.000035
vn -0.000015 -1.000000 0.000059
vn -0.000015 -1.000000 0.000059
vn -0.105874 -0.994378 -0.001737
vn -0.105874 -0.994378 -0.001737
vn -0.000032 -1.000000 0.000327
vn -0.000032 -1.000000 0.000327
vn -0.495181 0.000000 0.868790
vn -0.495181 0.000000 0.868790
vn -0.495181 0.000000 0.868790
vn -0.495181 0.000000 0.868790
vn 0.294589 -0.015083 0.955505
vn 0.294589 -0.015083 0.955505
vn 0.294589 -0.015083 0.955505
vn 0.294589 -0.015083 0.955505
vn 0.072942 -0.002107 0.997334
vn 0.072942 -0.002107 0.997334
vn 0.072942 -0.002107 0.997334
vn 0.072942 -0.002107 0.997334
vn 0.497377 0.000000 -0.867534
vn 0.497377 0.000000 -0.867534
vn 0.497377 0.000000 -0.867534
vn 0.497377 0.000000 -0.867534
vn 0.297005 0.015931 -0.954743
vn 0.297005 0.015931 -0.954743
vn 0.297005 0.015931 -0.954743
vn 0.297005 0.015931 -0.954743
vn -0.226072 -0.005776 -0.974094
vn -0.226072 -0.005776 -0.974094
vn -0.226072 -0.005776 -0.974094
vn -0.226072 -0.005776 -0.974094
vn -0.249349 -0.013592 0.968318
vn -0.249349 -0.013592 0.968318
vn -0.249349 -0.013592 0.968318
vn -0.249349 -0.013592 0.968318
vn 0.128721 0.000370 0.991681
vn 0.128721 0.000370 0.991681
vn 0.128721 0.000370 0.991681
vn 0.128721 0.000370 0.991681
vn 0.223895 -0.005664 -0.974597
vn 0.223895 -0.005664 -0.974597
vn 0.223895 -0.005664 -0.974597
vn 0.223895 -0.005664 -0.974597
vn -0.293901 0.016079 -0.955701
vn -0.293901 0.016079 -0.955701
vn -0.293901 0.016079 -0.955701
vn -0.293901 0.016079 -0.955701
vn -0.064089 0.000086 -0.997944
vn -0.064089 0.000086 -0.997944
vn -0.064089 0.000086 -0.997944
vn -0.064089 0.000086 -0.997944
vn -0.074459 -0.002175 0.997222
vn -0.074459 -0.002175 0.997222
vn -0.074459 -0.002175 0.997222
vn -0.074459 -0.002175 0.997222
vn -0.297447 -0.015840 0.954607
vn -0.297447 -0.015840 0.954607
vn -0.297447 -0.015840 0.954607
vn -0.297447 -0.015840 0.954607
vn -0.501828 0.000000 -0.864967
vn -0.501828 0.000000 -0.864967
vn -0.501828 0.000000 -0.864967
vn -0.501828 0.000000 -0.864967
vn 0.489977 0.000000 0.871735
vn 0.489977 0.000000 0.871735
vn 0.489977 0.000000 0.871735
vn 0.489977 0.000000 0.871735
vn 0.063631 0.000688 0.997973
vn 0.063631 0.000688 0.997973
vn 0.063631 0.000688 0.997973
vn 0.063631 0.000688 0.997973
vn 0.385292 -0.018025 0.922619
vn 0.385292 -0.018025 0.922619
vn 0.385292 -0.018025 0.922619
vn 0.385292 -0.018025 0.922619
vn 0.046411 -0.000861 0.998922
vn 0.046411 -0.000861 0.998922
vn 0.046411 -0.000861 0.998922
vn 0.046411 -0.000861 0.998922
vn -0.145438 -0.010928 0.989307
vn -0.145438 -0.010928 0.989307
vn -0.145438 -0.010928 0.989307
vn -0.145438 -0.010928 0.989307
vn 0.149766 -0.000780 0.988721
vn 0.149766 -0.000780 0.988721
vn 0.149766 -0.000780 0.988721
vn 0.149766 -0.000780 0.988721
vn 0.348972 -0.017606 0.936968
vn 0.348972 -0.017606 0.936968
vn 0.348972 -0.017606 0.936968
vn 0.348972 -0.017606 0.936968
vn -0.426987 -0.022033 0.903989
vn -0.426987 -0.022033 0.903989
vn -0.426987 -0.022033 0.903989
vn -0.426987 -0.022033 0.903989
vn -0.057790 0.000187 0.998329
vn -0.057790 0.000187 0.998329
vn -0.057790 0.000187 0.998329
vn -0.057790 0.000187 0.998329
vn 0.222728 -0.011575 0.974812
vn 0.222728 -0.011575 0.974812
vn 0.222728 -0.011575 0.974812
vn 0.222728 -0.011575 0.974812
vn -0.116628 -0.000255 0.993176
vn -0.116628 -0.000255 0.993176
vn -0.116628 -0.000255 0.993176
vn -0.116628 -0.000255 0.993176
vn -0.129278 -0.001259 -0.991608
vn -0.129278 -0.001259 -0.991608
vn -0.129278 -0.001259 -0.991608
vn -0.129278 -0.001259 -0.991608
vn 0.195622 0.006479 -0.980658
vn 0.195622 0.006479 -0.980658
vn 0.195622 0.006479 -0.980658
vn 0.195622 0.006479 -0.980658
vn 0.026847 -0.001342 -0.999639
vn 0.026847 -0.001342 -0.999639
vn 0.026847 -0.001342 -0.999639
vn 0.026847 -0.001342 -0.999639
vn -0.192421 0.010643 -0.981255
vn -0.192421 0.010643 -0.981255
vn -0.192421 0.010643 -0.981255
vn -0.192421 0.010643 -0.981255
vn 0.175032 0.001181 -0.984562
vn 0.175032 0.001181 -0.984562
vn 0.175032 0.001181 -0.984562
vn 0.175032 0.001181 -0.984562
vn 0.425652 0.022460 -0.904608
vn 0.425652 0.022460 -0.904608
vn 0.425652 0.022460 -0.904608
vn 0.425652 0.022460 -0.904608
vn -0.347990 0.018703 -0.937312
vn -0.347990 0.018703 -0.937312
vn -0.347990 0.018703 -0.937312
vn -0.347990 0.018703 -0.937312
vn -0.150326 0.000601 -0.988636
vn -0.150326 0.000601 -0.988636
vn -0.150326 0.000601 -0.988636
vn -0.150326 0.000601 -0.988636
vn 0.145688 0.007649 -0.989301
vn 0.145688 0.007649 -0.989301
vn 0.145688 0.007649 -0.989301
vn 0.145688 0.007649 -0.989301
vn -0.124257 -0.000493 -0.992250
vn -0.124257 -0.000493 -0.992250
vn -0.124257 -0.000493 -0.992250
vn -0.124257 -0.000493 -0.992250
vn -0.328695 0.016971 -0.944284
vn -0.328695 0.016971 -0.944284
vn -0.328695 0.016971 -0.944284
vn -0.328695 0.016971 -0.944284
vn -0.049428 -0.000068 0.998778
vn -0.049428 -0.000068 0.998778
vn -0.049428 -0.000068 0.998778
vn -0.049428 -0.000068 0.998778
vn 0.049565 -0.000089 -0.998771
vn 0.049565 -0.000089 -0.998771
vn 0.049565 -0.000089 -0.998771
vn 0.049565 -0.000089 -0.998771
vn 0.000000 1.000000 0.000000
vn 0.000000 1.000000 0.000000
vn -0.104876 0.994485 0.000000
vn -0.104876 0.994485 0.000000
vn 0.000000 1.000000 0.000000
vn 0.000000 1.000000 0.000000
vn 0.000000 1.000000 0.000000
vn 0.000000 1.000000 0.000000
vn -0.105165 0.994455 0.000000
vn -0.105165 0.994455 0.000000
vn 0.000000 1.000000 0.000000
vn 0.000000 1.000000 0.000000
vn -0.105165 0.994455 0.000000
vn -0.105165 0.994455 0.000000
vn 0.000000 1.000000 0.000000
vn 0.000000 1.000000 0.000000
vn 0.103875 0.994590 0.000000
vn 0.103875 0.994590 0.000000
vn 0.000000 1.000000 0.000000
vn 0.000000 1.000000 0.000000
vn 0.103875 0.994590 0.000000
vn 0.103875 0.994590 0.000000
vn 0.000000 1.000000 0.000000
vn 0.000000 1.000000 0.000000
vn 0.000000 1.000000 0.000000
vn 0.000000 1.000000 0.000000
vn 0.109108 0.993973 0.010600
vn 0.109108 0.993973 0.010600
vn 0.109908 0.993902 0.008917
vn 0.109908 0.993902 0.008917
vn -0.104876 0.994485 0.000000
vn -0.104876 0.994485 0.000000
vn 0.000000 1.000000 0.000000
vn 0.000000 1.000000 0.000000
vn -0.105165 0.994455 0.000000
vn -0.105165 0.994455 0.000000
vn 0.000000 1.000000 0.000000
vn 0.000000 1.000000 0.000000
vn -0.108609 0.994079 0.003226
vn -0.108609 0.994079 0.003226
vn 0.000000 1.000000 0.000000
vn 0.000000 1.000000 0.000000
vn 0.105166 0.994455 0.000000
vn 0.105166 0.994455 0.000000
vn 0.000000 1.000000 0.000000
vn 0.000000 1.000000 0.000000
vn 0.105166 0.994455 0.000000
vn 0.105166 0.994455 0.000000
vn 0.000000 1.000000 0.000000
vn 0.000000 1.000000 0.000000
vn -0.105165 0.994455 0.000000
vn -0.105165 0.994455 0.000000
vn 0.000000 1.000000 0.000000
vn 0.000000 1.000000 0.000000
vn 0.105295 0.994431 -0.004531
vn 0.105295 0.994431 -0.004531
vn -0.105457 0.994421 -0.002344
vn -0.105457 0.994421 -0.002344
vn 0.000000 1.000000 0.000000
vn 0.000000 1.000000 0.000000
vn 0.105166 0.994455 0.000000
vn 0.105166 0.994455 0.000000
vn 0.000000 1.000000 0.000000
vn 0.000000 1.000000 0.000000
vn 0.000000 1.000000 0.000000
vn 0.000000 1.000000 0.000000
vn 0.000000 1.000000 0.000000
vn 0.000000 1.000000 0.000000
vn 0.000249 -1.000000 -0.000012
vn 0.000249 -1.000000 -0.000012
vn 0.104876 -0.994485 0.000000
vn 0.104876 -0.994485 0.000000
vn 0.000245 -1.000000 0.000000
vn 0.000245 -1.000000 0.000000
vn 0.000035 -1.000000 -0.000050
vn 0.000035 -1.000000 -0.000050
vn 0.105165 -0.994455 0.000000
vn 0.105165 -0.994455 0.000000
vn -0.000007 -1.000000 0.000000
vn -0.000007 -1.000000 0.000000
vn 0.105165 -0.994455 0.000000
vn 0.105165 -0.994455 0.000000
vn 0.000000 -1.000000 0.000000
vn 0.000000 -1.000000 0.000000
vn -0.103875 -0.994590 0.000000
vn -0.103875 -0.994590 0.000000
vn -0.000234 -1.000000 -0.000029
vn -0.000234 -1.000000 -0.000029
vn -0.103875 -0.994590 0.000000
vn -0.103875 -0.994590 0.000000
vn -0.000007 -1.000000 0.000000
vn -0.000007 -1.000000 0.000000
vn 0.000006 -1.000000 0.000000
vn 0.000006 -1.000000 0.000000
vn -0.109176 -0.993964 -0.010743
vn -0.109176 -0.993964 -0.010743
vn -0.109889 -0.993904 -0.008903
vn -0.109889 -0.993904 -0.008903
vn 0.104876 -0.994485 0.000000
vn 0.104876 -0.994485 0.000000
vn -0.000005 -1.000000 0.000025
vn -0.000005 -1.000000 0.000025
vn 0.105165 -0.994455 0.000000
vn 0.105165 -0.994455 0.000000
vn 0.000014 -1.000000 0.000188
vn 0.000014 -1.000000 0.000188
vn 0.108633 -0.994077 -0.003261
vn 0.108633 -0.994077 -0.003261
vn -0.000009 -1.000000 -0.000005
vn -0.000009 -1.000000 -0.000005
vn -0.105164 -0.994455 0.000000
vn -0.105164 -0.994455 0.000000
vn 0.000006 -1.000000 0.000007
vn 0.000006 -1.000000 0.000007
vn -0.105176 -0.994454 0.000022
vn -0.105176 -0.994454 0.000022
vn -0.000017 -1.000000 -0.000031
vn -0.000017 -1.000000 -0.000031
vn 0.105165 -0.994455 0.000000
vn 0.105165 -0.994455 0.000000
vn 0.000002 -1.000000 -0.000008
vn 0.000002 -1.000000 -0.000008
vn -0.105278 -0.994432 0.004612
vn -0.105278 -0.994432 0.004612
vn 0.105447 -0.994422 0.002378
vn 0.105447 -0.994422 0.002378
vn -0.000002 -1.000000 -0.000006
vn -0.000002 -1.000000 -0.000006
vn -0.105166 -0.994455 0.000000
vn -0.105166 -0.994455 0.000000
vn 0.000000 -1.000000 0.000000
vn 0.000000 -1.000000 0.000000
vn -0.000017 -1.000000 -0.000093
vn -0.000017 -1.000000 -0.000093
vn -0.000225 -1.000000 0.000000
vn -0.000225 -1.000000 0.000000
vn -1.000000 0.000000 0.000000
vn -1.000000 0.000000 0.000000
vn -1.000000 0.000000 0.000000
vn -1.000000 0.000000 0.000000
vn -0.995385 0.000000 0.095962
vn -0.995385 0.000000 0.095962
vn -0.995385 0.000000 0.095962
vn -0.995385 0.000000 0.095962
vn 0.971068 0.000000 0.238804
vn 0.971068 0.000000 0.238804
vn 1.000000 0.000000 0.000001
vn 1.000000 0.000000 0.000001
vn 1.000000 0.000000 -0.000002
vn 1.000000 0.000000 -0.000002
vn -1.000000 0.000000 -0.000001
vn -1.000000 0.000000 -0.000001
vn 1.000000 0.000000 0.000001
vn 1.000000 0.000000 0.000001
g Bacon_Uncooked_Meat1
usemtl Meat1
f 1 2 3
f 4 5 6
f 7 8 9
f 10 11 12
f 13 14 15
f 13 15 16
f 17 18 19
f 17 19 20
f 21 22 23
f 21 23 24
f 25 26 27
f 25 27 28
f 29 30 31
f 29 31 32
f 33 34 35
f 33 35 36
f 37 38 39
f 37 39 40
f 41 42 43
f 41 43 44
f 45 46 47
f 45 47 48
f 49 50 51
f 49 51 52
f 53 54 55
f 53 55 56
f 57 58 59
f 57 59 60
f 61 62 63
f 61 63 64
f 65 66 67
f 65 67 68
f 69 70 71
f 69 71 72
f 73 74 75
f 73 75 76
f 77 78 79
f 77 79 80
f 81 82 83
f 81 83 84
f 85 86 87
f 85 87 88
f 89 90 91
f 89 91 92
f 93 94 95
f 93 95 96
f 97 98 99
f 97 99 100
f 101 102 103
f 101 103 104
f 105 106 107
f 105 107 108
f 109 110 111
f 109 111 112
f 113 114 115
f 113 115 116
f 117 118 119
f 117 119 120
f 121 122 123
f 121 123 124
f 125 126 127
f 125 127 128
f 129 130 131
f 129 131 132
f 133 134 135
f 133 135 136
f 137 138 139
f 137 139 140
f 141 142 143
f 141 143 144
f 145 146 147
f 145 147 148
f 149 150 151
f 149 151 152
f 153 154 155
f 153 155 156
f 157 158 159
f 157 159 160
f 161 162 163
f 161 163 164
f 165 166 167
f 165 167 168
f 169 170 171
f 169 171 172
f 173 174 175
f 173 175 176
f 177 178 179
f 177 179 180
f 181 182 183
f 181 183 184
f 185 186 187
f 185 187 188
f 189 190 191
f 189 191 192
f 193 194 195
f 193 195 196
f 197 198 199
f 197 199 200
f 201 202 203
f 201 203 204
f 205 206 207
f 205 207 208
f 209 210 211
f 209 211 212
f 213 214 215
f 213 215 216
f 217 218 219
f 217 219 220
f 221 222 223
f 221 223 224
f 225 226 227
f 225 227 228
f 229 230 231
f 229 231 232
f 233 234 235
f 233 235 236
f 237 238 239
f 237 239 240
f 241 242 243
f 241 243 244
f 245 246 247
f 245 247 248
f 249 250 251
f 249 251 252
f 253 254 255
f 253 255 256
f 257 258 259
f 257 259 260
f 261 262 263
f 261 263 264
f 265 266 267
f 265 267 268
f 269 270 271
f 269 271 272
f 273 274 275
f 273 275 276
g Bacon_Uncooked_LightYellow
usemtl LightYellow
f 136 135 277
f 136 277 278
f 18 279 280
f 18 280 19
f 60 59 281
f 60 281 282
f 26 283 284
f 26 284 27
f 72 71 285
f 72 285 286
f 34 287 288
f 34 288 35
f 41 44 289
f 41 289 290
f 37 291 292
f 37 292 38
f 293 294 104
f 293 104 103
f 1 3 295
f 1 295 296
f 45 297 298
f 45 298 46
f 53 56 299
f 53 299 300
f 49 301 302
f 49 302 50
f 303 304 30
f 303 30 29
f 109 112 305
f 109 305 306
f 105 307 308
f 105 308 106
f 117 120 309
f 117 309 310
f 113 311 312
f 113 312 114
f 121 124 313
f 121 313 314
f 93 315 316
f 93 316 94
f 129 132 317
f 129 317 318
f 125 319 320
f 125 320 126
f 4 6 321
f 4 321 322
f 323 324 325
f 323 325 326
f 65 68 327
f 65 327 328
f 13 329 330
f 13 330 14
f 73 76 331
f 73 331 332
f 61 333 334
f 61 334 62
f 97 335 336
f 97 336 98
f 89 92 337
f 89 337 338
f 77 339 340
f 77 340 78
f 21 24 341
f 21 341 342
f 85 343 344
f 85 344 86
f 82 345 346
f 82 346 83
f 258 347 348
f 258 348 259
f 144 143 349
f 144 349 350
f 182 351 352
f 182 352 183
f 152 151 353
f 152 353 354
f 194 355 356
f 194 356 195
f 160 159 357
f 160 357 358
f 165 359 360
f 165 360 166
f 161 164 361
f 161 361 362
f 363 227 226
f 363 226 364
f 7 365 366
f 7 366 8
f 169 172 367
f 169 367 368
f 177 369 370
f 177 370 178
f 173 176 371
f 173 371 372
f 373 153 156
f 373 156 374
f 233 375 376
f 233 376 234
f 229 232 377
f 229 377 378
f 241 379 380
f 241 380 242
f 237 240 381
f 237 381 382
f 245 383 384
f 245 384 246
f 217 220 385
f 217 385 386
f 253 387 388
f 253 388 254
f 249 252 389
f 249 389 390
f 10 391 392
f 10 392 11
f 393 394 395
f 393 395 396
f 189 397 398
f 189 398 190
f 137 140 399
f 137 399 400
f 197 401 402
f 197 402 198
f 185 188 403
f 185 403 404
f 221 224 405
f 221 405 406
f 213 407 408
f 213 408 214
f 201 204 409
f 201 409 410
f 145 411 412
f 145 412 146
f 209 212 413
f 209 413 414
f 208 207 415
f 208 415 416
f 417 418 419
f 417 419 420
f 421 422 423
f 421 423 424
f 425 426 427
f 425 427 428
f 429 430 431
f 429 431 432
f 433 434 435
f 433 435 436
f 437 438 439
f 437 439 440
f 441 442 443
f 441 443 444
f 445 446 447
f 445 447 448
f 449 450 451
f 449 451 452
f 453 454 455
f 453 455 456
f 457 458 459
f 457 459 460
f 461 462 463
f 461 463 464
f 465 466 467
f 465 467 468
f 469 470 471
f 469 471 472
f 473 474 475
f 473 475 476
f 477 478 479
f 477 479 480
f 481 482 483
f 481 483 484
f 485 486 487
f 485 487 488
f 489 490 491
f 489 491 492
f 493 494 495
f 493 495 496
f 497 498 499
f 497 499 500
f 501 502 503
f 501 503 504
f 505 506 507
f 505 507 508
f 509 510 511
f 509 511 512
f 513 514 515
f 513 515 516
f 517 518 519
f 517 519 520
f 521 522 523
f 521 523 524
f 525 526 527
f 525 527 528
f 529 530 531
f 529 531 532
f 533 534 535
f 533 535 536
f 537 538 539
f 537 539 540
f 541 542 543
f 541 543 544
f 545 546 547
f 545 547 548
f 549 550 551
f 549 551 552
f 553 554 555
f 553 555 556
f 557 558 559
f 557 559 560
f 561 562 563
f 561 563 564
f 565 566 567
f 565 567 568
g Bacon_Uncooked_Meat2
usemtl Meat2
f 569 570 43
f 569 43 42
f 571 40 39
f 571 39 572
f 33 36 573
f 33 573 574
f 32 31 575
f 32 575 576
f 577 578 3
f 577 3 2
f 579 48 47
f 579 47 580
f 25 28 581
f 25 581 582
f 583 584 23
f 583 23 22
f 585 586 55
f 585 55 54
f 587 52 51
f 587 51 588
f 17 20 589
f 17 589 590
f 57 591 592
f 57 592 58
f 593 594 75
f 593 75 74
f 99 595 596
f 99 596 100
f 597 16 15
f 597 15 598
f 69 599 600
f 69 600 70
f 601 602 67
f 601 67 66
f 603 64 63
f 603 63 604
f 84 605 606
f 84 606 81
f 607 80 79
f 607 79 608
f 609 610 91
f 609 91 90
f 611 88 87
f 611 87 612
f 101 613 614
f 101 614 102
f 615 616 111
f 615 111 110
f 617 108 107
f 617 107 618
f 619 620 119
f 619 119 118
f 621 116 115
f 621 115 622
f 623 624 123
f 623 123 122
f 625 626 131
f 625 131 130
f 627 128 127
f 627 127 628
f 629 630 5
f 629 5 4
f 631 323 326
f 631 326 632
f 633 96 95
f 633 95 634
f 133 635 636
f 133 636 134
f 637 168 167
f 637 167 638
f 639 640 163
f 639 163 162
f 157 641 642
f 157 642 158
f 154 643 644
f 154 644 155
f 645 9 8
f 645 8 646
f 647 648 171
f 647 171 170
f 149 649 650
f 149 650 150
f 651 148 147
f 651 147 652
f 653 180 179
f 653 179 654
f 655 656 175
f 655 175 174
f 141 657 658
f 141 658 142
f 181 184 659
f 181 659 660
f 661 200 199
f 661 199 662
f 223 222 663
f 223 663 664
f 665 666 139
f 665 139 138
f 193 196 667
f 193 667 668
f 669 192 191
f 669 191 670
f 671 672 187
f 671 187 186
f 206 205 673
f 206 673 674
f 675 676 203
f 675 203 202
f 677 216 215
f 677 215 678
f 679 680 211
f 679 211 210
f 225 228 681
f 225 681 682
f 683 236 235
f 683 235 684
f 685 686 231
f 685 231 230
f 687 244 243
f 687 243 688
f 689 690 239
f 689 239 238
f 691 248 247
f 691 247 692
f 693 256 255
f 693 255 694
f 695 696 251
f 695 251 250
f 697 10 12
f 697 12 698
f 699 700 394
f 699 394 393
f 701 702 219
f 701 219 218
f 257 260 703
f 257 703 704
f 705 706 707
f 705 707 708
f 709 710 711
f 709 711 712
f 272 271 713
f 272 713 714
f 715 716 717
f 715 717 718
g Bacon_Uncooked_Meat3
usemtl Meat3
f 574 573 570
f 574 570 569
f 582 581 578
f 582 578 577
f 631 632 584
f 631 584 583
f 590 589 586
f 590 586 585
f 591 579 580
f 591 580 592
f 635 587 588
f 635 588 636
f 615 597 598
f 615 598 616
f 617 618 602
f 617 602 601
f 619 603 604
f 619 604 620
f 621 622 594
f 621 594 593
f 623 596 595
f 623 595 624
f 625 607 608
f 625 608 626
f 627 628 610
f 627 610 609
f 629 611 612
f 629 612 630
f 576 575 614
f 576 614 613
f 633 634 606
f 633 606 605
f 599 571 572
f 599 572 600
f 641 637 638
f 641 638 642
f 649 645 646
f 649 646 650
f 699 651 652
f 699 652 700
f 657 653 654
f 657 654 658
f 660 659 648
f 660 648 647
f 704 703 656
f 704 656 655
f 683 684 666
f 683 666 665
f 685 669 670
f 685 670 686
f 687 688 672
f 687 672 671
f 689 661 662
f 689 662 690
f 691 692 664
f 691 664 663
f 693 694 676
f 693 676 675
f 695 677 678
f 695 678 696
f 697 698 680
f 697 680 679
f 643 682 681
f 643 681 644
f 701 674 673
f 701 673 702
f 668 667 640
f 668 640 639
f 708 707 719
f 708 719 720
f 721 722 716
f 721 716 715
