mtllib Materials.mtl
# Ultimate Food Pack - Bacon_Burned
o Bacon_Burned
v 0.338126 0.000000 0.023675
v 0.338126 0.000000 0.001589
v 0.270227 -0.007181 -0.011273
v 0.202328 -0.007181 -0.013816
v 0.134428 0.000000 -0.000417
v 0.134428 0.000000 0.020207
v 0.338868 -0.014067 0.023675
v 0.270969 -0.021248 -0.011273
v 0.338868 -0.014067 0.001589
v 0.201586 -0.021248 -0.013816
v 0.133687 -0.014067 0.020207
v 0.133687 -0.014067 -0.000417
v -0.340867 -0.007180 -0.174517
v -0.408766 0.000000 -0.135126
v -0.404789 0.000000 -0.085232
v -0.338878 -0.007180 -0.110027
v 0.475063 -0.007181 -0.134611
v 0.475063 -0.007181 -0.197786
v 0.406310 0.000000 -0.176504
v 0.406310 0.000000 -0.113330
v 0.201637 -0.007181 -0.172096
v 0.202328 -0.007181 -0.119971
v 0.270227 -0.007181 -0.118159
v 0.268155 -0.007181 -0.153709
v 0.338126 0.000000 -0.104566
v 0.333983 0.000000 -0.138735
v 0.268155 -0.007181 -0.153709
v 0.270227 -0.007181 -0.118159
v -0.408766 0.000000 -0.135126
v -0.449019 0.000000 -0.133053
v -0.449019 0.000000 -0.093638
v -0.404789 0.000000 -0.085232
v -0.517108 -0.007180 -0.114951
v -0.517108 -0.007180 -0.178125
v -0.585261 -0.007180 -0.172725
v -0.596934 -0.007180 -0.109551
v -0.517108 -0.007180 0.022792
v -0.449019 0.000000 0.033745
v -0.449019 0.000000 0.012517
v -0.517108 -0.007180 -0.008795
v -0.517108 -0.007180 0.022792
v -0.517108 -0.007180 -0.008795
v -0.593889 -0.007180 -0.003396
v -0.585261 -0.007180 0.028191
v -0.517108 -0.007180 -0.067737
v -0.596934 -0.007180 -0.062338
v -0.596934 -0.007180 -0.034983
v -0.517108 -0.007180 -0.040382
v 0.338126 0.000000 0.023675
v 0.406310 0.000000 0.024412
v 0.406310 0.000000 -0.007175
v 0.338126 0.000000 0.001589
v 0.338126 0.000000 -0.057353
v 0.270227 -0.007181 -0.070946
v 0.270227 -0.007181 -0.043590
v 0.338126 0.000000 -0.029998
v 0.202328 -0.007181 -0.045403
v 0.270227 -0.007181 -0.043590
v 0.270227 -0.007181 -0.070946
v 0.202328 -0.007181 -0.072758
v 0.475063 -0.007181 0.003131
v 0.544100 -0.007181 0.008571
v 0.552627 -0.007181 -0.024843
v 0.475063 -0.007181 -0.028456
v 0.475063 -0.007181 0.003131
v 0.475063 -0.007181 -0.028456
v 0.406310 0.000000 -0.007175
v 0.406310 0.000000 0.024412
v 0.475063 -0.007181 -0.087398
v 0.406310 0.000000 -0.066117
v 0.406310 0.000000 -0.038762
v 0.475063 -0.007181 -0.060043
v 0.338126 0.000000 -0.057353
v 0.338126 0.000000 -0.029998
v 0.406310 0.000000 -0.038762
v 0.406310 0.000000 -0.066117
v 0.338126 0.000000 -0.104566
v 0.406310 0.000000 -0.113330
v 0.406310 0.000000 -0.176504
v 0.333983 0.000000 -0.138735
v -0.205068 0.000000 -0.181678
v -0.272968 -0.007180 -0.191733
v -0.272968 -0.007180 -0.128559
v -0.205068 0.000000 -0.118504
v -0.340867 -0.007180 -0.174517
v -0.338878 -0.007180 -0.110027
v -0.272968 -0.007180 -0.128559
v -0.272968 -0.007180 -0.191733
v -0.517108 -0.007180 -0.114951
v -0.449019 0.000000 -0.093638
v -0.449019 0.000000 -0.133053
v -0.517108 -0.007180 -0.178125
v -0.205068 0.000000 -0.181678
v -0.205068 0.000000 -0.118504
v -0.137169 0.000000 -0.128707
v -0.137169 0.000000 -0.191882
v 0.066529 0.000000 -0.181678
v -0.001370 -0.007180 -0.213869
v -0.001370 -0.007180 -0.158003
v 0.066529 0.000000 -0.118504
v -0.001370 -0.007180 -0.158003
v -0.001370 -0.007180 -0.213869
v -0.069270 -0.007180 -0.217270
v -0.064702 -0.007180 -0.154096
v 0.201637 -0.007181 -0.172096
v 0.134428 0.000000 -0.169746
v 0.134428 0.000000 -0.106572
v 0.202328 -0.007181 -0.119971
v 0.066529 0.000000 -0.181678
v 0.066529 0.000000 -0.118504
v 0.134428 0.000000 -0.106572
v 0.134428 0.000000 -0.169746
v 0.475063 -0.007181 -0.087398
v 0.475063 -0.007181 -0.060043
v 0.560545 -0.007181 -0.057039
v 0.560545 -0.007181 -0.084394
v -0.340867 -0.007180 -0.045403
v -0.340867 -0.007180 -0.072758
v -0.408766 0.000000 -0.048959
v -0.408766 0.000000 -0.021603
v -0.340867 -0.007180 -0.045403
v -0.272968 -0.007180 -0.053991
v -0.272968 -0.007180 -0.081346
v -0.340867 -0.007180 -0.072758
v -0.205068 0.000000 -0.043936
v -0.205068 0.000000 -0.071291
v -0.272968 -0.007180 -0.081346
v -0.272968 -0.007180 -0.053991
v -0.205068 0.000000 -0.043936
v -0.137169 0.000000 -0.054139
v -0.137169 0.000000 -0.081494
v -0.205068 0.000000 -0.071291
v -0.069270 -0.007180 -0.079527
v -0.072315 -0.007180 -0.122941
v -0.137169 0.000000 -0.081494
v -0.137169 0.000000 -0.054139
v -0.069270 -0.007180 -0.016353
v -0.001370 -0.007180 -0.012952
v -0.001370 -0.007180 -0.044539
v -0.069270 -0.007180 -0.047940
v -0.069270 -0.007180 -0.217270
v -0.137169 0.000000 -0.191882
v -0.137169 0.000000 -0.128707
v -0.064702 -0.007180 -0.154096
v 0.066529 0.000000 -0.043936
v 0.066529 0.000000 -0.084690
v 0.000619 -0.007180 -0.124860
v -0.001370 -0.007180 -0.076126
v 0.066529 0.000000 -0.043936
v 0.134428 0.000000 -0.032004
v 0.134428 0.000000 -0.059359
v 0.066529 0.000000 -0.084690
v 0.202328 -0.007181 -0.045403
v 0.202328 -0.007181 -0.072758
v 0.134428 0.000000 -0.059359
v 0.134428 0.000000 -0.032004
v -0.408766 0.000000 -0.048959
v -0.449019 0.000000 -0.046425
v -0.449019 0.000000 -0.019070
v -0.408766 0.000000 -0.021603
v -0.069270 -0.007180 -0.079527
v -0.001370 -0.007180 -0.076126
v 0.000619 -0.007180 -0.124860
v -0.072315 -0.007180 -0.122941
v -0.408766 0.000000 0.005840
v -0.449019 0.000000 0.012517
v -0.449019 0.000000 0.033745
v -0.409457 0.000000 0.018781
v -0.340176 -0.007180 -0.009162
v -0.275730 -0.007180 -0.002557
v -0.272968 -0.007180 -0.022404
v -0.340867 -0.007180 -0.022794
v -0.340176 -0.007180 -0.009162
v -0.340867 -0.007180 -0.022794
v -0.408766 0.000000 0.005840
v -0.409457 0.000000 0.018781
v -0.205068 0.000000 0.019238
v -0.137169 0.000000 0.009035
v -0.137169 0.000000 -0.022552
v -0.205068 0.000000 -0.012349
v -0.205068 0.000000 0.019238
v -0.205068 0.000000 -0.012349
v -0.272968 -0.007180 -0.022404
v -0.275730 -0.007180 -0.002557
v -0.069270 -0.007180 -0.016353
v -0.069270 -0.007180 -0.047940
v -0.137169 0.000000 -0.022552
v -0.137169 0.000000 0.009035
v 0.066529 0.000000 0.019238
v 0.134428 0.000000 0.020207
v 0.134428 0.000000 -0.000417
v 0.066529 0.000000 -0.012349
v 0.066529 0.000000 0.019238
v 0.066529 0.000000 -0.012349
v -0.001370 -0.007180 -0.044539
v -0.001370 -0.007180 -0.012952
v -0.517108 -0.007180 -0.067737
v -0.517108 -0.007180 -0.040382
v -0.449019 0.000000 -0.019070
v -0.449019 0.000000 -0.046425
v 0.475063 -0.007181 -0.134611
v 0.560545 -0.007181 -0.131607
v 0.544100 -0.007181 -0.192345
v 0.475063 -0.007181 -0.197786
v -0.341613 -0.021247 -0.174504
v -0.339608 -0.021248 -0.110027
v -0.405593 -0.014064 -0.085257
v -0.409484 -0.014069 -0.135101
v 0.474330 -0.021248 -0.134611
v 0.405578 -0.014068 -0.113330
v 0.405578 -0.014068 -0.176504
v 0.474330 -0.021248 -0.197786
v 0.200882 -0.021247 -0.172100
v 0.268883 -0.021249 -0.153709
v 0.270997 -0.021246 -0.118198
v 0.201587 -0.021248 -0.119969
v 0.338850 -0.014068 -0.104593
v 0.270997 -0.021246 -0.118198
v 0.268883 -0.021249 -0.153709
v 0.334790 -0.014064 -0.138753
v -0.409484 -0.014069 -0.135101
v -0.405593 -0.014064 -0.085257
v -0.448280 -0.014067 -0.093638
v -0.448280 -0.014067 -0.133053
v -0.516369 -0.021248 -0.114951
v -0.596934 -0.021267 -0.109551
v -0.585261 -0.021267 -0.172725
v -0.516369 -0.021248 -0.178125
v -0.516369 -0.021248 0.022792
v -0.516369 -0.021248 -0.008795
v -0.448280 -0.014067 0.012517
v -0.448280 -0.014067 0.033745
v -0.516369 -0.021248 0.022792
v -0.585261 -0.021267 0.028191
v -0.593889 -0.021267 -0.003396
v -0.516369 -0.021248 -0.008795
v -0.516369 -0.021248 -0.067737
v -0.516369 -0.021248 -0.040382
v -0.596934 -0.021267 -0.034983
v -0.596934 -0.021267 -0.062338
v 0.338868 -0.014067 0.023675
v 0.338868 -0.014067 0.001589
v 0.405578 -0.014068 -0.007175
v 0.405578 -0.014068 0.024412
v 0.338868 -0.014067 -0.057353
v 0.338868 -0.014067 -0.029998
v 0.270969 -0.021248 -0.043590
v 0.270969 -0.021248 -0.070946
v 0.201586 -0.021248 -0.045403
v 0.201586 -0.021248 -0.072758
v 0.270969 -0.021248 -0.070946
v 0.270969 -0.021248 -0.043590
v 0.474330 -0.021248 0.003131
v 0.474330 -0.021248 -0.028456
v 0.552627 -0.021268 -0.024843
v 0.544100 -0.021268 0.008571
v 0.474330 -0.021248 0.003131
v 0.405578 -0.014068 0.024412
v 0.405578 -0.014068 -0.007175
v 0.474330 -0.021248 -0.028456
v 0.474330 -0.021248 -0.087398
v 0.474330 -0.021248 -0.060043
v 0.405578 -0.014068 -0.038762
v 0.405578 -0.014068 -0.066117
v 0.338868 -0.014067 -0.057353
v 0.405578 -0.014068 -0.066117
v 0.405578 -0.014068 -0.038762
v 0.338868 -0.014067 -0.029998
v 0.338850 -0.014068 -0.104593
v 0.334790 -0.014064 -0.138753
v 0.405578 -0.014068 -0.176504
v 0.405578 -0.014068 -0.113330
v -0.204327 -0.014067 -0.181678
v -0.204327 -0.014067 -0.118504
v -0.272226 -0.021248 -0.128559
v -0.272226 -0.021248 -0.191733
v -0.341613 -0.021247 -0.174504
v -0.272226 -0.021248 -0.191733
v -0.272226 -0.021248 -0.128559
v -0.339608 -0.021248 -0.110027
v -0.516369 -0.021248 -0.114951
v -0.516369 -0.021248 -0.178125
v -0.448280 -0.014067 -0.133053
v -0.448280 -0.014067 -0.093638
v -0.204327 -0.014067 -0.181678
v -0.137890 -0.014068 -0.191866
v -0.137915 -0.014067 -0.128743
v -0.204327 -0.014067 -0.118504
v 0.067271 -0.014067 -0.181678
v 0.067287 -0.014067 -0.118519
v -0.000635 -0.021248 -0.158010
v -0.000629 -0.021248 -0.213869
v -0.000635 -0.021248 -0.158010
v -0.065360 -0.021252 -0.154104
v -0.070015 -0.021248 -0.217259
v -0.000629 -0.021248 -0.213869
v 0.200882 -0.021247 -0.172100
v 0.201587 -0.021248 -0.119969
v 0.133685 -0.014067 -0.106570
v 0.133682 -0.014067 -0.169750
v 0.067271 -0.014067 -0.181678
v 0.133682 -0.014067 -0.169750
v 0.133685 -0.014067 -0.106570
v 0.067287 -0.014067 -0.118519
v 0.474330 -0.021248 -0.087398
v 0.560545 -0.021268 -0.084394
v 0.560545 -0.021268 -0.057039
v 0.474330 -0.021248 -0.060043
v -0.341609 -0.021248 -0.045403
v -0.409508 -0.014067 -0.021603
v -0.409494 -0.014068 -0.048981
v -0.341642 -0.021246 -0.072797
v -0.341609 -0.021248 -0.045403
v -0.341642 -0.021246 -0.072797
v -0.272226 -0.021248 -0.081346
v -0.272226 -0.021248 -0.053991
v -0.204327 -0.014067 -0.043936
v -0.272226 -0.021248 -0.053991
v -0.272226 -0.021248 -0.081346
v -0.204327 -0.014067 -0.071291
v -0.204327 -0.014067 -0.043936
v -0.204327 -0.014067 -0.071291
v -0.137920 -0.014067 -0.081497
v -0.137911 -0.014067 -0.054127
v -0.069995 -0.021249 -0.079509
v -0.137911 -0.014067 -0.054127
v -0.137920 -0.014067 -0.081497
v -0.073151 -0.021243 -0.122987
v -0.070011 -0.021248 -0.016353
v -0.070011 -0.021248 -0.047940
v -0.000629 -0.021248 -0.044539
v -0.000629 -0.021248 -0.012952
v -0.070015 -0.021248 -0.217259
v -0.065360 -0.021252 -0.154104
v -0.137915 -0.014067 -0.128743
v -0.137890 -0.014068 -0.191866
v 0.067271 -0.014067 -0.043931
v -0.000637 -0.021248 -0.076116
v 0.001401 -0.021246 -0.124870
v 0.067280 -0.014067 -0.084687
v 0.067271 -0.014067 -0.043931
v 0.067280 -0.014067 -0.084687
v 0.133687 -0.014067 -0.059359
v 0.133687 -0.014067 -0.032004
v 0.201586 -0.021248 -0.045403
v 0.133687 -0.014067 -0.032004
v 0.133687 -0.014067 -0.059359
v 0.201586 -0.021248 -0.072758
v -0.409494 -0.014068 -0.048981
v -0.409508 -0.014067 -0.021603
v -0.448280 -0.014067 -0.019070
v -0.448280 -0.014067 -0.046425
v -0.069995 -0.021249 -0.079509
v -0.073151 -0.021243 -0.122987
v 0.001401 -0.021246 -0.124870
v -0.000637 -0.021248 -0.076116
v -0.409516 -0.014067 0.005840
v -0.410164 -0.014069 0.018792
v -0.448280 -0.014067 0.033745
v -0.448280 -0.014067 0.012517
v -0.340900 -0.021249 -0.009155
v -0.341618 -0.021247 -0.022794
v -0.272205 -0.021246 -0.022385
v -0.275057 -0.021251 -0.002551
v -0.340900 -0.021249 -0.009155
v -0.410164 -0.014069 0.018792
v -0.409516 -0.014067 0.005840
v -0.341618 -0.021247 -0.022794
v -0.204340 -0.014068 0.019229
v -0.204340 -0.014068 -0.012328
v -0.137911 -0.014067 -0.022552
v -0.137911 -0.014067 0.009035
v -0.204340 -0.014068 0.019229
v -0.275057 -0.021251 -0.002551
v -0.272205 -0.021246 -0.022385
v -0.204340 -0.014068 -0.012328
v -0.070011 -0.021248 -0.016353
v -0.137911 -0.014067 0.009035
v -0.137911 -0.014067 -0.022552
v -0.070011 -0.021248 -0.047940
v 0.067271 -0.014067 0.019238
v 0.067271 -0.014067 -0.012349
v 0.133687 -0.014067 -0.000417
v 0.133687 -0.014067 0.020207
v 0.067271 -0.014067 0.019238
v -0.000629 -0.021248 -0.012952
v -0.000629 -0.021248 -0.044539
v 0.067271 -0.014067 -0.012349
v -0.516369 -0.021248 -0.067737
v -0.448280 -0.014067 -0.046425
v -0.448280 -0.014067 -0.019070
v -0.516369 -0.021248 -0.040382
v 0.474330 -0.021248 -0.134611
v 0.474330 -0.021248 -0.197786
v 0.544100 -0.021268 -0.192345
v 0.560545 -0.021268 -0.131607
v -0.593889 -0.007180 -0.003396
v -0.593889 -0.021267 -0.003396
v -0.585261 -0.021267 0.028191
v -0.585261 -0.007180 0.028191
v -0.585261 -0.007180 -0.172725
v -0.585261 -0.021267 -0.172725
v -0.596934 -0.021267 -0.109551
v -0.596934 -0.007180 -0.109551
v -0.596934 -0.007180 -0.062338
v -0.596934 -0.021267 -0.062338
v -0.596934 -0.021267 -0.034983
v -0.596934 -0.007180 -0.034983
v 0.544100 -0.007181 0.008571
v 0.544100 -0.021268 0.008571
v 0.552627 -0.021268 -0.024843
v 0.552627 -0.007181 -0.024843
v 0.560545 -0.007181 -0.057039
v 0.560545 -0.021268 -0.057039
v 0.560545 -0.021268 -0.084394
v 0.560545 -0.007181 -0.084394
v 0.560545 -0.007181 -0.131607
v 0.560545 -0.021268 -0.131607
v 0.544100 -0.021268 -0.192345
v 0.544100 -0.007181 -0.192345
v 0.526841 -0.007181 -0.202241
v 0.475063 -0.007181 -0.214217
v 0.475063 -0.007181 -0.214217
v 0.406310 0.000000 -0.192936
v 0.406310 0.000000 -0.192936
v 0.338126 0.000000 -0.184172
v 0.338126 0.000000 -0.184172
v 0.270227 -0.007181 -0.197765
v -0.449019 0.000000 -0.173244
v -0.517108 -0.007180 -0.194557
v -0.517108 -0.007180 -0.194557
v -0.568223 -0.007180 -0.182610
v -0.568223 -0.007180 0.037902
v -0.517108 -0.007180 0.041750
v -0.517108 -0.007180 0.041750
v -0.449019 0.000000 0.063062
v -0.449019 0.000000 0.063062
v -0.408766 0.000000 0.060529
v 0.270227 -0.007181 0.034564
v 0.338126 0.000000 0.052134
v 0.338126 0.000000 0.052134
v 0.406310 0.000000 0.043370
v 0.406310 0.000000 0.043370
v 0.475063 -0.007181 0.022089
v 0.475063 -0.007181 0.022089
v 0.526841 -0.007181 0.018272
v -0.408766 0.000000 -0.175778
v -0.449019 0.000000 -0.173244
v -0.408766 0.000000 0.060529
v -0.338795 -0.007180 0.031204
v -0.338795 -0.007180 0.031204
v -0.272968 -0.007180 0.028141
v -0.272968 -0.007180 0.028141
v -0.205068 0.000000 0.038196
v -0.205068 0.000000 0.038196
v -0.137169 0.000000 0.027993
v -0.137169 0.000000 0.027993
v -0.069270 -0.007180 0.002605
v -0.069270 -0.007180 0.002605
v -0.001370 -0.007180 0.006006
v -0.001370 -0.007180 0.006006
v 0.066529 0.000000 0.038196
v 0.066529 0.000000 0.038196
v 0.134428 0.000000 0.042088
v 0.134428 0.000000 0.042088
v 0.202328 -0.007181 0.026497
v 0.202328 -0.007181 -0.013816
v 0.202328 -0.007181 0.026497
v 0.270227 -0.007181 0.034564
v 0.270227 -0.007181 -0.011273
v -0.272968 -0.007180 -0.208165
v -0.340867 -0.007180 -0.199577
v -0.340867 -0.007180 -0.199577
v -0.408766 0.000000 -0.175778
v -0.137169 0.000000 -0.208313
v -0.205068 0.000000 -0.198110
v -0.205068 0.000000 -0.198110
v -0.272968 -0.007180 -0.208165
v -0.069270 -0.007180 -0.233702
v -0.137169 0.000000 -0.208313
v 0.134428 0.000000 -0.186178
v 0.066529 0.000000 -0.198110
v 0.066529 0.000000 -0.198110
v -0.001370 -0.007180 -0.230301
v 0.270227 -0.007181 -0.197765
v 0.202328 -0.007181 -0.199577
v 0.202328 -0.007181 -0.199577
v 0.134428 0.000000 -0.186178
v -0.001370 -0.007180 -0.230301
v -0.069270 -0.007180 -0.233702
v 0.474351 -0.021250 -0.214217
v 0.526841 -0.021268 -0.202241
v 0.405483 -0.014063 -0.192936
v 0.474351 -0.021250 -0.214217
v 0.338844 -0.014069 -0.184122
v 0.405483 -0.014063 -0.192936
v 0.270937 -0.021250 -0.197716
v 0.338844 -0.014069 -0.184122
v -0.516389 -0.021249 -0.194557
v -0.448230 -0.014065 -0.173244
v -0.568223 -0.021267 -0.182610
v -0.516389 -0.021249 -0.194557
v -0.516286 -0.021243 0.041750
v -0.568223 -0.021267 0.037902
v -0.448344 -0.014071 0.063062
v -0.516286 -0.021243 0.041750
v -0.448344 -0.014071 0.063062
v -0.409374 -0.014074 0.060544
v 0.338834 -0.014069 0.052134
v 0.271052 -0.021243 0.034564
v 0.405683 -0.014073 0.043370
v 0.338834 -0.014069 0.052134
v 0.474250 -0.021244 0.022089
v 0.405683 -0.014073 0.043370
v 0.526841 -0.021267 0.018272
v 0.474250 -0.021244 0.022089
v -0.409594 -0.014062 -0.175778
v -0.448230 -0.014065 -0.173244
v -0.339588 -0.021245 0.031224
v -0.409374 -0.014074 0.060544
v -0.272170 -0.021245 0.028097
v -0.339588 -0.021245 0.031224
v -0.204331 -0.014067 0.038155
v -0.272170 -0.021245 0.028097
v -0.137783 -0.014073 0.027993
v -0.204331 -0.014067 0.038155
v -0.070075 -0.021244 0.002605
v -0.137783 -0.014073 0.027993
v -0.000526 -0.021242 0.006006
v -0.070075 -0.021244 0.002605
v 0.067136 -0.014074 0.038196
v -0.000526 -0.021242 0.006006
v 0.133730 -0.014070 0.042088
v 0.067136 -0.014074 0.038196
v 0.201564 -0.021247 0.026497
v 0.133730 -0.014070 0.042088
v 0.201586 -0.021248 -0.013816
v 0.270969 -0.021248 -0.011273
v 0.271052 -0.021243 0.034564
v 0.201564 -0.021247 0.026497
v -0.341492 -0.021253 -0.199577
v -0.272231 -0.021248 -0.208165
v -0.409594 -0.014062 -0.175778
v -0.341492 -0.021253 -0.199577
v -0.204328 -0.014067 -0.198110
v -0.138022 -0.014061 -0.208313
v -0.272231 -0.021248 -0.208165
v -0.204328 -0.014067 -0.198110
v -0.138022 -0.014061 -0.208313
v -0.069928 -0.021252 -0.233702
v 0.067404 -0.014060 -0.198110
v 0.133677 -0.014067 -0.186190
v -0.000761 -0.021254 -0.230301
v 0.067404 -0.014060 -0.198110
v 0.201636 -0.021250 -0.199588
v 0.270937 -0.021250 -0.197716
v 0.133677 -0.014067 -0.186190
v 0.201636 -0.021250 -0.199588
v -0.069928 -0.021252 -0.233702
v -0.000761 -0.021254 -0.230301
v -0.585261 -0.007180 0.028191
v -0.585261 -0.021267 0.028191
v -0.568223 -0.021267 0.037902
v -0.568223 -0.007180 0.037902
v 0.406310 0.000000 0.043370
v 0.405683 -0.014073 0.043370
v 0.474250 -0.021244 0.022089
v 0.475063 -0.007181 0.022089
v 0.475063 -0.007181 0.022089
v 0.474250 -0.021244 0.022089
v 0.526841 -0.021267 0.018272
v 0.526841 -0.007181 0.018272
v 0.544100 -0.007181 -0.192345
v 0.544100 -0.021268 -0.192345
v 0.526841 -0.021268 -0.202241
v 0.526841 -0.007181 -0.202241
v -0.449019 0.000000 -0.173244
v -0.448230 -0.014065 -0.173244
v -0.516389 -0.021249 -0.194557
v -0.517108 -0.007180 -0.194557
v -0.517108 -0.007180 -0.194557
v -0.516389 -0.021249 -0.194557
v -0.568223 -0.021267 -0.182610
v -0.568223 -0.007180 -0.182610
v 0.270227 -0.007181 0.034564
v 0.271052 -0.021243 0.034564
v 0.338834 -0.014069 0.052134
v 0.338126 0.000000 0.052134
v 0.338126 0.000000 0.052134
v 0.338834 -0.014069 0.052134
v 0.405683 -0.014073 0.043370
v 0.406310 0.000000 0.043370
v 0.526841 -0.007181 -0.202241
v 0.526841 -0.021268 -0.202241
v 0.474351 -0.021250 -0.214217
v 0.475063 -0.007181 -0.214217
v 0.475063 -0.007181 -0.214217
v 0.474351 -0.021250 -0.214217
v 0.405483 -0.014063 -0.192936
v 0.406310 0.000000 -0.192936
v -0.408766 0.000000 -0.175778
v -0.409594 -0.014062 -0.175778
v -0.448230 -0.014065 -0.173244
v -0.449019 0.000000 -0.173244
v -0.568223 -0.007180 0.037902
v -0.568223 -0.021267 0.037902
v -0.516286 -0.021243 0.041750
v -0.517108 -0.007180 0.041750
v -0.517108 -0.007180 0.041750
v -0.516286 -0.021243 0.041750
v -0.448344 -0.014071 0.063062
v -0.449019 0.000000 0.063062
v -0.568223 -0.007180 -0.182610
v -0.568223 -0.021267 -0.182610
v -0.585261 -0.021267 -0.172725
v -0.585261 -0.007180 -0.172725
v 0.526841 -0.007181 0.018272
v 0.526841 -0.021267 0.018272
v 0.544100 -0.021268 0.008571
v 0.544100 -0.007181 0.008571
v -0.449019 0.000000 0.063062
v -0.448344 -0.014071 0.063062
v -0.409374 -0.014074 0.060544
v -0.408766 0.000000 0.060529
v -0.408766 0.000000 0.060529
v -0.409374 -0.014074 0.060544
v -0.339588 -0.021245 0.031224
v -0.338795 -0.007180 0.031204
v -0.338795 -0.007180 0.031204
v -0.339588 -0.021245 0.031224
v -0.272170 -0.021245 0.028097
v -0.272968 -0.007180 0.028141
v -0.272968 -0.007180 0.028141
v -0.272170 -0.021245 0.028097
v -0.204331 -0.014067 0.038155
v -0.205068 0.000000 0.038196
v -0.205068 0.000000 0.038196
v -0.204331 -0.014067 0.038155
v -0.137783 -0.014073 0.027993
v -0.137169 0.000000 0.027993
v -0.137169 0.000000 0.027993
v -0.137783 -0.014073 0.027993
v -0.070075 -0.021244 0.002605
v -0.069270 -0.007180 0.002605
v -0.001370 -0.007180 0.006006
v -0.000526 -0.021242 0.006006
v 0.067136 -0.014074 0.038196
v 0.066529 0.000000 0.038196
v 0.066529 0.000000 0.038196
v 0.067136 -0.014074 0.038196
v 0.133730 -0.014070 0.042088
v 0.134428 0.000000 0.042088
v 0.134428 0.000000 0.042088
v 0.133730 -0.014070 0.042088
v 0.201564 -0.021247 0.026497
v 0.202328 -0.007181 0.026497
v 0.202328 -0.007181 0.026497
v 0.201564 -0.021247 0.026497
v 0.271052 -0.021243 0.034564
v 0.270227 -0.007181 0.034564
v 0.406310 0.000000 -0.192936
v 0.405483 -0.014063 -0.192936
v 0.338844 -0.014069 -0.184122
v 0.338126 0.000000 -0.184172
v 0.338126 0.000000 -0.184172
v 0.338844 -0.014069 -0.184122
v 0.270937 -0.021250 -0.197716
v 0.270227 -0.007181 -0.197765
v 0.270227 -0.007181 -0.197765
v 0.270937 -0.021250 -0.197716
v 0.201636 -0.021250 -0.199588
v 0.202328 -0.007181 -0.199577
v 0.202328 -0.007181 -0.199577
v 0.201636 -0.021250 -0.199588
v 0.133677 -0.014067 -0.186190
v 0.134428 0.000000 -0.186178
v 0.134428 0.000000 -0.186178
v 0.133677 -0.014067 -0.186190
v 0.067404 -0.014060 -0.198110
v 0.066529 0.000000 -0.198110
v 0.066529 0.000000 -0.198110
v 0.067404 -0.014060 -0.198110
v -0.000761 -0.021254 -0.230301
v -0.001370 -0.007180 -0.230301
v -0.069270 -0.007180 -0.233702
v -0.069928 -0.021252 -0.233702
v -0.138022 -0.014061 -0.208313
v -0.137169 0.000000 -0.208313
v -0.137169 0.000000 -0.208313
v -0.138022 -0.014061 -0.208313
v -0.204328 -0.014067 -0.198110
v -0.205068 0.000000 -0.198110
v -0.205068 0.000000 -0.198110
v -0.204328 -0.014067 -0.198110
v -0.272231 -0.021248 -0.208165
v -0.272968 -0.007180 -0.208165
v -0.272968 -0.007180 -0.208165
v -0.272231 -0.021248 -0.208165
v -0.341492 -0.021253 -0.199577
v -0.340867 -0.007180 -0.199577
v -0.340867 -0.007180 -0.199577
v -0.341492 -0.021253 -0.199577
v -0.409594 -0.014062 -0.175778
v -0.408766 0.000000 -0.175778
v -0.069270 -0.007180 0.002605
v -0.070075 -0.021244 0.002605
v -0.000526 -0.021242 0.006006
v -0.001370 -0.007180 0.006006
v -0.001370 -0.007180 -0.230301
v -0.000761 -0.021254 -0.230301
v -0.069928 -0.021252 -0.233702
v -0.069270 -0.007180 -0.233702
v -0.596934 -0.007180 -0.109551
v -0.596934 -0.021267 -0.109551
v -0.596934 -0.007180 -0.034983
v -0.596934 -0.021267 -0.034983
v -0.593889 -0.021267 -0.003396
v -0.593889 -0.007180 -0.003396
v 0.560545 -0.021268 -0.057039
v 0.560545 -0.007181 -0.057039
v 0.560545 -0.021268 -0.131607
v 0.560545 -0.007181 -0.131607
vn -0.105165 0.994455 0.000000
vn -0.105165 0.994455 0.000000
vn -0.105165 0.994455 0.000000
vn 0.105166 0.994455 0.000000
vn 0.105166 0.994455 0.000000
vn 0.105166 0.994455 0.000000
vn 0.105220 -0.994449 -0.000031
vn 0.105220 -0.994449 -0.000031
vn 0.105165 -0.994455 0.000000
vn -0.105166 -0.994455 0.000000
vn -0.105184 -0.994453 0.000022
vn -0.105166 -0.994455 0.000000
vn 0.104134 0.994549 -0.005432
vn 0.104134 0.994549 -0.005432
vn 0.104134 0.994549 -0.005432
vn 0.104134 0.994549 -0.005432
vn 0.103875 0.994590 0.000000
vn 0.103875 0.994590 0.000000
vn 0.103875 0.994590 0.000000
vn 0.103875 0.994590 0.000000
vn 0.000000 1.000000 0.000000
vn 0.000000 1.000000 0.000000
vn 0.000000 1.000000 0.000000
vn 0.000000 1.000000 0.000000
vn -0.108820 0.994014 0.009701
vn -0.108820 0.994014 0.009701
vn -0.108820 0.994014 0.009701
vn -0.108820 0.994014 0.009701
vn 0.000000 1.000000 0.000000
vn 0.000000 1.000000 0.000000
vn 0.000000 1.000000 0.000000
vn 0.000000 1.000000 0.000000
vn 0.000000 1.000000 0.000000
vn 0.000000 1.000000 0.000000
vn 0.000000 1.000000 0.000000
vn 0.000000 1.000000 0.000000
vn -0.104876 0.994485 0.000000
vn -0.104876 0.994485 0.000000
vn -0.104876 0.994485 0.000000
vn -0.104876 0.994485 0.000000
vn 0.000000 1.000000 0.000000
vn 0.000000 1.000000 0.000000
vn 0.000000 1.000000 0.000000
vn 0.000000 1.000000 0.000000
vn 0.000000 1.000000 0.000000
vn 0.000000 1.000000 0.000000
vn 0.000000 1.000000 0.000000
vn 0.000000 1.000000 0.000000
vn 0.000000 1.000000 0.000000
vn 0.000000 1.000000 0.000000
vn 0.000000 1.000000 0.000000
vn 0.000000 1.000000 0.000000
vn -0.105165 0.994455 0.000000
vn -0.105165 0.994455 0.000000
vn -0.105165 0.994455 0.000000
vn -0.105165 0.994455 0.000000
vn 0.000000 1.000000 0.000000
vn 0.000000 1.000000 0.000000
vn 0.000000 1.000000 0.000000
vn 0.000000 1.000000 0.000000
vn 0.000000 1.000000 0.000000
vn 0.000000 1.000000 0.000000
vn 0.000000 1.000000 0.000000
vn 0.000000 1.000000 0.000000
vn 0.103875 0.994590 0.000000
vn 0.103875 0.994590 0.000000
vn 0.103875 0.994590 0.000000
vn 0.103875 0.994590 0.000000
vn 0.103875 0.994590 0.000000
vn 0.103875 0.994590 0.000000
vn 0.103875 0.994590 0.000000
vn 0.103875 0.994590 0.000000
vn 0.000000 1.000000 0.000000
vn 0.000000 1.000000 0.000000
vn 0.000000 1.000000 0.000000
vn 0.000000 1.000000 0.000000
vn 0.000000 1.000000 0.000000
vn 0.000000 1.000000 0.000000
vn 0.000000 1.000000 0.000000
vn 0.000000 1.000000 0.000000
vn -0.105165 0.994455 0.000000
vn -0.105165 0.994455 0.000000
vn -0.105165 0.994455 0.000000
vn -0.105165 0.994455 0.000000
vn 0.000000 1.000000 0.000000
vn 0.000000 1.000000 0.000000
vn 0.000000 1.000000 0.000000
vn 0.000000 1.000000 0.000000
vn -0.104876 0.994485 0.000000
vn -0.104876 0.994485 0.000000
vn -0.104876 0.994485 0.000000
vn -0.104876 0.994485 0.000000
vn 0.000000 1.000000 0.000000
vn 0.000000 1.000000 0.000000
vn 0.000000 1.000000 0.000000
vn 0.000000 1.000000 0.000000
vn -0.105165 0.994455 0.000000
vn -0.105165 0.994455 0.000000
vn -0.108609 0.994079 0.003226
vn -0.108609 0.994079 0.003226
vn 0.000000 1.000000 0.000000
vn 0.000000 1.000000 0.000000
vn 0.000000 1.000000 0.000000
vn 0.000000 1.000000 0.000000
vn 0.105625 0.994406 -0.000632
vn 0.105625 0.994406 -0.000632
vn 0.105166 0.994455 0.000000
vn 0.105166 0.994455 0.000000
vn 0.000000 1.000000 0.000000
vn 0.000000 1.000000 0.000000
vn 0.000000 1.000000 0.000000
vn 0.000000 1.000000 0.000000
vn 0.000000 1.000000 0.000000
vn 0.000000 1.000000 0.000000
vn 0.000000 1.000000 0.000000
vn 0.000000 1.000000 0.000000
vn 0.105166 0.994455 0.000000
vn 0.109908 0.993902 0.008917
vn 0.109908 0.993902 0.008917
vn 0.105166 0.994455 0.000000
vn 0.000000 1.000000 0.000000
vn 0.000000 1.000000 0.000000
vn 0.000000 1.000000 0.000000
vn 0.000000 1.000000 0.000000
vn -0.105165 0.994455 0.000000
vn -0.105165 0.994455 0.000000
vn -0.105165 0.994455 0.000000
vn -0.105165 0.994455 0.000000
vn 0.000000 1.000000 0.000000
vn 0.000000 1.000000 0.000000
vn 0.000000 1.000000 0.000000
vn 0.000000 1.000000 0.000000
vn 0.105295 0.994431 -0.004531
vn 0.109108 0.993973 0.010600
vn 0.109108 0.993973 0.010600
vn 0.105295 0.994431 -0.004531
vn 0.000000 1.000000 0.000000
vn 0.000000 1.000000 0.000000
vn 0.000000 1.000000 0.000000
vn 0.000000 1.000000 0.000000
vn 0.100478 0.994933 -0.003632
vn 0.100478 0.994933 -0.003632
vn 0.109108 0.993973 0.010600
vn 0.109108 0.993973 0.010600
vn -0.105457 0.994421 -0.002344
vn -0.108609 0.994079 0.003226
vn -0.108609 0.994079 0.003226
vn -0.105457 0.994421 -0.002344
vn 0.000000 1.000000 0.000000
vn 0.000000 1.000000 0.000000
vn 0.000000 1.000000 0.000000
vn 0.000000 1.000000 0.000000
vn 0.105166 0.994455 0.000000
vn 0.105166 0.994455 0.000000
vn 0.105166 0.994455 0.000000
vn 0.105166 0.994455 0.000000
vn 0.000000 1.000000 0.000000
vn 0.000000 1.000000 0.000000
vn 0.000000 1.000000 0.000000
vn 0.000000 1.000000 0.000000
vn 0.000000 1.000000 0.000000
vn 0.000000 1.000000 0.000000
vn 0.000000 1.000000 0.000000
vn 0.000000 1.000000 0.000000
vn 0.000000 1.000000 0.000000
vn 0.000000 1.000000 0.000000
vn 0.000000 1.000000 0.000000
vn 0.000000 1.000000 0.000000
vn 0.000000 1.000000 0.000000
vn 0.000000 1.000000 0.000000
vn 0.000000 1.000000 0.000000
vn 0.000000 1.000000 0.000000
vn 0.101543 0.994828 -0.002562
vn 0.105166 0.994455 0.000000
vn 0.105166 0.994455 0.000000
vn 0.101543 0.994828 -0.002562
vn 0.000000 1.000000 0.000000
vn 0.000000 1.000000 0.000000
vn 0.000000 1.000000 0.000000
vn 0.000000 1.000000 0.000000
vn -0.104410 0.994517 0.005809
vn -0.105165 0.994455 0.000000
vn -0.105165 0.994455 0.000000
vn -0.104410 0.994517 0.005809
vn 0.105166 0.994455 0.000000
vn 0.105166 0.994455 0.000000
vn 0.105166 0.994455 0.000000
vn 0.105166 0.994455 0.000000
vn 0.000000 1.000000 0.000000
vn 0.000000 1.000000 0.000000
vn 0.000000 1.000000 0.000000
vn 0.000000 1.000000 0.000000
vn -0.105165 0.994455 0.000000
vn -0.105165 0.994455 0.000000
vn -0.105165 0.994455 0.000000
vn -0.105165 0.994455 0.000000
vn -0.104876 0.994485 0.000000
vn -0.104876 0.994485 0.000000
vn -0.104876 0.994485 0.000000
vn -0.104876 0.994485 0.000000
vn 0.000000 1.000000 0.000000
vn 0.000000 1.000000 0.000000
vn 0.000000 1.000000 0.000000
vn 0.000000 1.000000 0.000000
vn -0.104127 -0.994549 0.005404
vn -0.104127 -0.994549 0.005404
vn -0.104127 -0.994549 0.005404
vn -0.104127 -0.994549 0.005404
vn -0.103875 -0.994590 0.000000
vn -0.103875 -0.994590 0.000000
vn -0.103875 -0.994590 0.000000
vn -0.103875 -0.994590 0.000000
vn -0.000003 -1.000000 0.000019
vn -0.000003 -1.000000 0.000019
vn -0.000003 -1.000000 0.000019
vn -0.000003 -1.000000 0.000019
vn 0.108798 -0.994017 -0.009666
vn 0.108798 -0.994017 -0.009666
vn 0.108798 -0.994017 -0.009666
vn 0.108798 -0.994017 -0.009666
vn 0.000022 -1.000000 0.000052
vn 0.000022 -1.000000 0.000052
vn 0.000022 -1.000000 0.000052
vn 0.000022 -1.000000 0.000052
vn 0.000263 -1.000000 0.000028
vn 0.000263 -1.000000 0.000028
vn 0.000263 -1.000000 0.000028
vn 0.000263 -1.000000 0.000028
vn 0.104937 -0.994479 -0.000024
vn 0.104876 -0.994485 0.000000
vn 0.104876 -0.994485 0.000000
vn 0.104937 -0.994479 -0.000024
vn 0.000362 -1.000000 -0.000066
vn 0.000362 -1.000000 -0.000066
vn 0.000267 -1.000000 -0.000037
vn 0.000267 -1.000000 -0.000037
vn 0.000245 -1.000000 0.000000
vn 0.000249 -1.000000 -0.000012
vn 0.000249 -1.000000 -0.000012
vn 0.000245 -1.000000 0.000000
vn -0.000041 -1.000000 -0.000145
vn -0.000007 -1.000000 0.000000
vn -0.000007 -1.000000 0.000000
vn -0.000041 -1.000000 -0.000145
vn 0.105165 -0.994455 0.000000
vn 0.105165 -0.994455 0.000000
vn 0.105165 -0.994455 0.000000
vn 0.105165 -0.994455 0.000000
vn 0.000000 -1.000000 0.000000
vn 0.000000 -1.000000 0.000000
vn 0.000000 -1.000000 0.000000
vn 0.000000 -1.000000 0.000000
vn -0.000348 -1.000000 -0.000045
vn -0.000260 -1.000000 -0.000034
vn -0.000260 -1.000000 -0.000034
vn -0.000348 -1.000000 -0.000045
vn -0.103933 -0.994584 0.000044
vn -0.103933 -0.994584 0.000044
vn -0.103875 -0.994590 0.000000
vn -0.103875 -0.994590 0.000000
vn -0.103875 -0.994590 0.000000
vn -0.103875 -0.994590 0.000000
vn -0.103875 -0.994590 0.000000
vn -0.103875 -0.994590 0.000000
vn -0.000007 -1.000000 0.000000
vn -0.000007 -1.000000 0.000000
vn -0.000007 -1.000000 0.000000
vn -0.000007 -1.000000 0.000000
vn 0.000001 -1.000000 0.000009
vn 0.000013 -1.000000 -0.000006
vn 0.000013 -1.000000 -0.000006
vn 0.000001 -1.000000 0.000009
vn 0.105165 -0.994455 0.000000
vn 0.105165 -0.994455 0.000000
vn 0.105165 -0.994455 0.000000
vn 0.105165 -0.994455 0.000000
vn -0.000002 -1.000000 -0.000007
vn -0.000002 -1.000000 -0.000007
vn -0.000005 -1.000000 0.000025
vn -0.000005 -1.000000 0.000025
vn 0.104876 -0.994485 0.000000
vn 0.104834 -0.994490 0.000033
vn 0.104834 -0.994490 0.000033
vn 0.104876 -0.994485 0.000000
vn -0.000002 -1.000000 0.000010
vn -0.000002 -1.000000 0.000010
vn 0.000006 -1.000000 0.000000
vn 0.000006 -1.000000 0.000000
vn 0.105160 -0.994455 -0.000005
vn 0.108633 -0.994077 -0.003261
vn 0.108633 -0.994077 -0.003261
vn 0.105160 -0.994455 -0.000005
vn 0.000014 -1.000000 0.000188
vn 0.000014 -1.000000 0.000188
vn 0.000028 -1.000000 -0.000041
vn 0.000028 -1.000000 -0.000041
vn -0.105622 -0.994406 0.000641
vn -0.105164 -0.994455 0.000000
vn -0.105164 -0.994455 0.000000
vn -0.105622 -0.994406 0.000641
vn -0.000008 -1.000000 0.000007
vn -0.000008 -1.000000 0.000007
vn -0.000009 -1.000000 -0.000005
vn -0.000009 -1.000000 -0.000005
vn -0.000225 -1.000000 0.000000
vn -0.000225 -1.000000 0.000000
vn -0.000234 -1.000000 -0.000029
vn -0.000234 -1.000000 -0.000029
vn -0.105176 -0.994454 0.000022
vn -0.105176 -0.994454 0.000022
vn -0.109889 -0.993904 -0.008903
vn -0.109889 -0.993904 -0.008903
vn -0.000017 -1.000000 -0.000031
vn -0.000005 -1.000000 0.000025
vn -0.000005 -1.000000 0.000025
vn -0.000017 -1.000000 -0.000031
vn 0.105165 -0.994455 0.000000
vn 0.105165 -0.994455 0.000000
vn 0.105165 -0.994455 0.000000
vn 0.105165 -0.994455 0.000000
vn 0.000002 -1.000000 -0.000008
vn 0.000006 -1.000000 0.000000
vn 0.000006 -1.000000 0.000000
vn 0.000002 -1.000000 -0.000008
vn -0.105278 -0.994432 0.004612
vn -0.105278 -0.994432 0.004612
vn -0.109176 -0.993964 -0.010743
vn -0.109176 -0.993964 -0.010743
vn 0.000000 -1.000000 0.000000
vn 0.000000 -1.000000 0.000000
vn 0.000000 -1.000000 0.000000
vn 0.000000 -1.000000 0.000000
vn -0.100451 -0.994935 0.003660
vn -0.109176 -0.993964 -0.010743
vn -0.109176 -0.993964 -0.010743
vn -0.100451 -0.994935 0.003660
vn 0.105447 -0.994422 0.002378
vn 0.105447 -0.994422 0.002378
vn 0.108633 -0.994077 -0.003261
vn 0.108633 -0.994077 -0.003261
vn -0.000002 -1.000000 -0.000006
vn -0.000009 -1.000000 -0.000005
vn -0.000009 -1.000000 -0.000005
vn -0.000002 -1.000000 -0.000006
vn -0.105166 -0.994455 0.000000
vn -0.105166 -0.994455 0.000000
vn -0.105164 -0.994455 0.000000
vn -0.105164 -0.994455 0.000000
vn 0.000035 -1.000000 -0.000050
vn 0.000006 -1.000000 0.000007
vn 0.000006 -1.000000 0.000007
vn 0.000035 -1.000000 -0.000050
vn -0.000017 -1.000000 -0.000093
vn 0.000014 -1.000000 0.000188
vn 0.000014 -1.000000 0.000188
vn -0.000017 -1.000000 -0.000093
vn 0.000006 -1.000000 0.000007
vn -0.000088 -1.000000 -0.000114
vn -0.000088 -1.000000 -0.000114
vn 0.000006 -1.000000 0.000007
vn -0.000020 -1.000000 0.000140
vn 0.000008 -1.000000 0.000031
vn 0.000008 -1.000000 0.000031
vn -0.000020 -1.000000 0.000140
vn -0.101609 -0.994821 0.002585
vn -0.101609 -0.994821 0.002585
vn -0.105174 -0.994454 -0.000018
vn -0.105174 -0.994454 -0.000018
vn -0.000060 -1.000000 -0.000136
vn 0.000004 -1.000000 -0.000014
vn 0.000004 -1.000000 -0.000014
vn -0.000060 -1.000000 -0.000136
vn 0.104444 -0.994513 -0.005954
vn 0.104444 -0.994513 -0.005954
vn 0.105176 -0.994454 -0.000006
vn 0.105176 -0.994454 -0.000006
vn -0.105204 -0.994451 0.000109
vn -0.105204 -0.994451 0.000109
vn -0.105164 -0.994455 -0.000012
vn -0.105164 -0.994455 -0.000012
vn 0.000040 -1.000000 -0.000211
vn 0.000000 -1.000000 0.000000
vn 0.000000 -1.000000 0.000000
vn 0.000040 -1.000000 -0.000211
vn 0.105229 -0.994448 0.000064
vn 0.105229 -0.994448 0.000064
vn 0.105164 -0.994455 -0.000006
vn 0.105164 -0.994455 -0.000006
vn 0.104876 -0.994485 0.000000
vn 0.104876 -0.994485 0.000000
vn 0.104876 -0.994485 0.000000
vn 0.104876 -0.994485 0.000000
vn -0.000250 -1.000000 0.000033
vn -0.000345 -1.000000 0.000275
vn -0.000345 -1.000000 0.000275
vn -0.000250 -1.000000 0.000033
vn -0.964658 0.000000 0.263505
vn -0.964658 0.000000 0.263505
vn -0.964658 0.000000 0.263505
vn -0.964658 0.000000 0.263505
vn -0.983353 0.000000 -0.181707
vn -0.983353 0.000000 -0.181707
vn -0.983353 0.000000 -0.181707
vn -0.983353 0.000000 -0.181707
vn -1.000000 0.000000 0.000000
vn -1.000000 0.000000 0.000000
vn -1.000000 0.000000 -0.000001
vn -1.000000 0.000000 -0.000001
vn 0.968950 0.000000 0.247258
vn 0.968950 0.000000 0.247258
vn 0.968950 0.000000 0.247258
vn 0.968950 0.000000 0.247258
vn 1.000000 0.000000 0.000001
vn 1.000000 0.000000 0.000001
vn 1.000000 0.000000 0.000001
vn 1.000000 0.000000 0.000001
vn 0.965249 0.000000 -0.261333
vn 0.965249 0.000000 -0.261333
vn 0.965249 0.000000 -0.261333
vn 0.965249 0.000000 -0.261333
vn 0.000000 1.000000 0.000000
vn 0.000000 1.000000 0.000000
vn 0.103875 0.994590 0.000000
vn 0.103875 0.994590 0.000000
vn 0.000000 1.000000 0.000000
vn 0.000000 1.000000 0.000000
vn -0.105230 0.994421 -0.007308
vn -0.105230 0.994421 -0.007308
vn -0.104876 0.994485 0.000000
vn -0.104876 0.994485 0.000000
vn 0.000000 1.000000 0.000000
vn 0.000000 1.000000 0.000000
vn 0.000000 1.000000 0.000000
vn 0.000000 1.000000 0.000000
vn -0.104876 0.994485 0.000000
vn -0.104876 0.994485 0.000000
vn 0.000000 1.000000 0.000000
vn 0.000000 1.000000 0.000000
vn -0.105165 0.994455 0.000000
vn -0.105165 0.994455 0.000000
vn 0.000000 1.000000 0.000000
vn 0.000000 1.000000 0.000000
vn 0.103875 0.994590 0.000000
vn 0.103875 0.994590 0.000000
vn 0.000000 1.000000 0.000000
vn 0.000000 1.000000 0.000000
vn 0.000000 1.000000 0.000000
vn 0.000000 1.000000 0.000000
vn 0.101543 0.994828 -0.002562
vn 0.101543 0.994828 -0.002562
vn 0.000000 1.000000 0.000000
vn 0.000000 1.000000 0.000000
vn -0.104410 0.994517 0.005809
vn -0.104410 0.994517 0.005809
vn 0.000000 1.000000 0.000000
vn 0.000000 1.000000 0.000000
vn 0.105166 0.994455 0.000000
vn 0.105166 0.994455 0.000000
vn 0.000000 1.000000 0.000000
vn 0.000000 1.000000 0.000000
vn -0.105165 0.994455 0.000000
vn -0.105165 0.994455 0.000000
vn 0.000000 1.000000 0.000000
vn 0.000000 1.000000 0.000000
vn 0.105166 0.994455 0.000000
vn 0.105166 0.994455 0.000000
vn 0.000000 1.000000 0.000000
vn 0.000000 1.000000 0.000000
vn 0.000000 1.000000 0.000000
vn 0.000000 1.000000 0.000000
vn 0.000000 1.000000 0.000000
vn 0.000000 1.000000 0.000000
vn 0.105166 0.994455 0.000000
vn 0.105166 0.994455 0.000000
vn 0.000000 1.000000 0.000000
vn 0.000000 1.000000 0.000000
vn -0.105165 0.994455 0.000000
vn -0.105165 0.994455 0.000000
vn 0.105166 0.994455 0.000000
vn 0.105166 0.994455 0.000000
vn 0.000000 1.000000 0.000000
vn 0.000000 1.000000 0.000000
vn -0.105165 0.994455 0.000000
vn -0.105165 0.994455 0.000000
vn 0.000000 1.000000 0.000000
vn 0.000000 1.000000 0.000000
vn 0.105889 0.994377 0.001665
vn 0.105889 0.994377 0.001665
vn 0.000000 1.000000 0.000000
vn 0.000000 1.000000 0.000000
vn -0.000345 -1.000000 0.000275
vn -0.000345 -1.000000 0.000275
vn -0.103800 -0.994598 0.000116
vn -0.103800 -0.994598 0.000116
vn 0.000013 -1.000000 -0.000006
vn 0.000013 -1.000000 -0.000006
vn 0.105209 -0.994424 0.007252
vn 0.105209 -0.994424 0.007252
vn 0.104834 -0.994490 0.000033
vn 0.104834 -0.994490 0.000033
vn 0.000357 -1.000000 0.000280
vn 0.000357 -1.000000 0.000280
vn 0.000362 -1.000000 -0.000066
vn 0.000362 -1.000000 -0.000066
vn 0.104937 -0.994479 -0.000024
vn 0.104937 -0.994479 -0.000024
vn -0.000088 -1.000000 -0.000114
vn -0.000088 -1.000000 -0.000114
vn 0.105220 -0.994449 -0.000031
vn 0.105220 -0.994449 -0.000031
vn -0.000041 -1.000000 -0.000145
vn -0.000041 -1.000000 -0.000145
vn -0.103933 -0.994584 0.000044
vn -0.103933 -0.994584 0.000044
vn -0.000348 -1.000000 -0.000045
vn -0.000348 -1.000000 -0.000045
vn 0.000004 -1.000000 -0.000106
vn 0.000004 -1.000000 -0.000106
vn -0.101609 -0.994821 0.002585
vn -0.101609 -0.994821 0.002585
vn -0.000020 -1.000000 0.000140
vn -0.000020 -1.000000 0.000140
vn 0.104444 -0.994513 -0.005954
vn 0.104444 -0.994513 -0.005954
vn -0.000060 -1.000000 -0.000136
vn -0.000060 -1.000000 -0.000136
vn -0.105204 -0.994451 0.000109
vn -0.105204 -0.994451 0.000109
vn 0.000004 -1.000000 0.000238
vn 0.000004 -1.000000 0.000238
vn 0.105229 -0.994448 0.000064
vn 0.105229 -0.994448 0.000064
vn 0.000040 -1.000000 -0.000211
vn 0.000040 -1.000000 -0.000211
vn -0.105184 -0.994453 0.000022
vn -0.105184 -0.994453 0.000022
vn 0.000000 -1.000000 0.000000
vn 0.000000 -1.000000 0.000000
vn 0.000019 -1.000000 0.000070
vn 0.000019 -1.000000 0.000070
vn 0.000063 -1.000000 0.000155
vn 0.000063 -1.000000 0.000155
vn -0.105103 -0.994461 -0.000019
vn -0.105103 -0.994461 -0.000019
vn 0.000008 -1.000000 -0.000222
vn 0.000008 -1.000000 -0.000222
vn 0.105166 -0.994455 -0.000006
vn 0.105166 -0.994455 -0.000006
vn -0.105086 -0.994463 0.000055
vn -0.105086 -0.994463 0.000055
vn -0.000011 -1.000000 -0.000249
vn -0.000011 -1.000000 -0.000249
vn 0.105081 -0.994464 -0.000035
vn 0.105081 -0.994464 -0.000035
vn -0.000015 -1.000000 0.000059
vn -0.000015 -1.000000 0.000059
vn -0.105874 -0.994378 -0.001737
vn -0.105874 -0.994378 -0.001737
vn -0.000032 -1.000000 0.000327
vn -0.000032 -1.000000 0.000327
vn -0.495181 0.000000 0.868790
vn -0.495181 0.000000 0.868790
vn -0.495181 0.000000 0.868790
vn -0.495181 0.000000 0.868790
vn 0.294589 -0.015083 0.955505
vn 0.294589 -0.015083 0.955505
vn 0.294589 -0.015083 0.955505
vn 0.294589 -0.015083 0.955505
vn 0.072942 -0.002107 0.997334
vn 0.072942 -0.002107 0.997334
vn 0.072942 -0.002107 0.997334
vn 0.072942 -0.002107 0.997334
vn 0.497377 0.000000 -0.867534
vn 0.497377 0.000000 -0.867534
vn 0.497377 0.000000 -0.867534
vn 0.497377 0.000000 -0.867534
vn 0.297005 0.015931 -0.954743
vn 0.297005 0.015931 -0.954743
vn 0.297005 0.015931 -0.954743
vn 0.297005 0.015931 -0.954743
vn -0.226072 -0.005776 -0.974094
vn -0.226072 -0.005776 -0.974094
vn -0.226072 -0.005776 -0.974094
vn -0.226072 -0.005776 -0.974094
vn -0.249349 -0.013592 0.968318
vn -0.249349 -0.013592 0.968318
vn -0.249349 -0.013592 0.968318
vn -0.249349 -0.013592 0.968318
vn 0.128721 0.000370 0.991681
vn 0.128721 0.000370 0.991681
vn 0.128721 0.000370 0.991681
vn 0.128721 0.000370 0.991681
vn 0.223895 -0.005664 -0.974597
vn 0.223895 -0.005664 -0.974597
vn 0.223895 -0.005664 -0.974597
vn 0.223895 -0.005664 -0.974597
vn -0.293901 0.016079 -0.955701
vn -0.293901 0.016079 -0.955701
vn -0.293901 0.016079 -0.955701
vn -0.293901 0.016079 -0.955701
vn -0.064089 0.000086 -0.997944
vn -0.064089 0.000086 -0.997944
vn -0.064089 0.000086 -0.997944
vn -0.064089 0.000086 -0.997944
vn -0.074459 -0.002175 0.997222
vn -0.074459 -0.002175 0.997222
vn -0.074459 -0.002175 0.997222
vn -0.074459 -0.002175 0.997222
vn -0.297447 -0.015840 0.954607
vn -0.297447 -0.015840 0.954607
vn -0.297447 -0.015840 0.954607
vn -0.297447 -0.015840 0.954607
vn -0.501828 0.000000 -0.864967
vn -0.501828 0.000000 -0.864967
vn -0.501828 0.000000 -0.864967
vn -0.501828 0.000000 -0.864967
vn 0.489977 0.000000 0.871735
vn 0.489977 0.000000 0.871735
vn 0.489977 0.000000 0.871735
vn 0.489977 0.000000 0.871735
vn 0.063631 0.000688 0.997973
vn 0.063631 0.000688 0.997973
vn 0.063631 0.000688 0.997973
vn 0.063631 0.000688 0.997973
vn 0.385292 -0.018025 0.922619
vn 0.385292 -0.018025 0.922619
vn 0.385292 -0.018025 0.922619
vn 0.385292 -0.018025 0.922619
vn 0.046411 -0.000861 0.998922
vn 0.046411 -0.000861 0.998922
vn 0.046411 -0.000861 0.998922
vn 0.046411 -0.000861 0.998922
vn -0.145438 -0.010928 0.989307
vn -0.145438 -0.010928 0.989307
vn -0.145438 -0.010928 0.989307
vn -0.145438 -0.010928 0.989307
vn 0.149766 -0.000780 0.988721
vn 0.149766 -0.000780 0.988721
vn 0.149766 -0.000780 0.988721
vn 0.149766 -0.000780 0.988721
vn 0.348972 -0.017606 0.936968
vn 0.348972 -0.017606 0.936968
vn 0.348972 -0.017606 0.936968
vn 0.348972 -0.017606 0.936968
vn -0.426987 -0.022033 0.903989
vn -0.426987 -0.022033 0.903989
vn -0.426987 -0.022033 0.903989
vn -0.426987 -0.022033 0.903989
vn -0.057790 0.000187 0.998329
vn -0.057790 0.000187 0.998329
vn -0.057790 0.000187 0.998329
vn -0.057790 0.000187 0.998329
vn 0.222728 -0.011575 0.974812
vn 0.222728 -0.011575 0.974812
vn 0.222728 -0.011575 0.974812
vn 0.222728 -0.011575 0.974812
vn -0.116628 -0.000255 0.993176
vn -0.116628 -0.000255 0.993176
vn -0.116628 -0.000255 0.993176
vn -0.116628 -0.000255 0.993176
vn -0.129278 -0.001259 -0.991608
vn -0.129278 -0.001259 -0.991608
vn -0.129278 -0.001259 -0.991608
vn -0.129278 -0.001259 -0.991608
vn 0.195622 0.006479 -0.980658
vn 0.195622 0.006479 -0.980658
vn 0.195622 0.006479 -0.980658
vn 0.195622 0.006479 -0.980658
vn 0.026847 -0.001342 -0.999639
vn 0.026847 -0.001342 -0.999639
vn 0.026847 -0.001342 -0.999639
vn 0.026847 -0.001342 -0.999639
vn -0.192421 0.010643 -0.981255
vn -0.192421 0.010643 -0.981255
vn -0.192421 0.010643 -0.981255
vn -0.192421 0.010643 -0.981255
vn 0.175032 0.001181 -0.984562
vn 0.175032 0.001181 -0.984562
vn 0.175032 0.001181 -0.984562
vn 0.175032 0.001181 -0.984562
vn 0.425652 0.022460 -0.904608
vn 0.425652 0.022460 -0.904608
vn 0.425652 0.022460 -0.904608
vn 0.425652 0.022460 -0.904608
vn -0.347990 0.018703 -0.937312
vn -0.347990 0.018703 -0.937312
vn -0.347990 0.018703 -0.937312
vn -0.347990 0.018703 -0.937312
vn -0.150326 0.000601 -0.988636
vn -0.150326 0.000601 -0.988636
vn -0.150326 0.000601 -0.988636
vn -0.150326 0.000601 -0.988636
vn 0.145688 0.007649 -0.989301
vn 0.145688 0.007649 -0.989301
vn 0.145688 0.007649 -0.989301
vn 0.145688 0.007649 -0.989301
vn -0.124257 -0.000493 -0.992250
vn -0.124257 -0.000493 -0.992250
vn -0.124257 -0.000493 -0.992250
vn -0.124257 -0.000493 -0.992250
vn -0.328695 0.016971 -0.944284
vn -0.328695 0.016971 -0.944284
vn -0.328695 0.016971 -0.944284
vn -0.328695 0.016971 -0.944284
vn -0.049428 -0.000068 0.998778
vn -0.049428 -0.000068 0.998778
vn -0.049428 -0.000068 0.998778
vn -0.049428 -0.000068 0.998778
vn 0.049565 -0.000089 -0.998771
vn 0.049565 -0.000089 -0.998771
vn 0.049565 -0.000089 -0.998771
vn 0.049565 -0.000089 -0.998771
vn -1.000000 0.000000 0.000000
vn -1.000000 0.000000 0.000000
vn -0.995385 0.000000 0.095962
vn -0.995385 0.000000 0.095962
vn -0.995385 0.000000 0.095962
vn -0.995385 0.000000 0.095962
vn 0.971068 0.000000 0.238804
vn 0.971068 0.000000 0.238804
vn 1.000000 0.000000 -0.000002
vn 1.000000 0.000000 -0.000002
g Bacon_Burned_DarkBrown
usemtl DarkBrown
f 1 2 3
f 4 5 6
f 7 8 9
f 10 11 12
f 13 14 15
f 13 15 16
f 17 18 19
f 17 19 20
f 21 22 23
f 21 23 24
f 25 26 27
f 25 27 28
f 29 30 31
f 29 31 32
f 33 34 35
f 33 35 36
f 37 38 39
f 37 39 40
f 41 42 43
f 41 43 44
f 45 46 47
f 45 47 48
f 49 50 51
f 49 51 52
f 53 54 55
f 53 55 56
f 57 58 59
f 57 59 60
f 61 62 63
f 61 63 64
f 65 66 67
f 65 67 68
f 69 70 71
f 69 71 72
f 73 74 75
f 73 75 76
f 77 78 79
f 77 79 80
f 81 82 83
f 81 83 84
f 85 86 87
f 85 87 88
f 89 90 91
f 89 91 92
f 93 94 95
f 93 95 96
f 97 98 99
f 97 99 100
f 101 102 103
f 101 103 104
f 105 106 107
f 105 107 108
f 109 110 111
f 109 111 112
f 113 114 115
f 113 115 116
f 117 118 119
f 117 119 120
f 121 122 123
f 121 123 124
f 125 126 127
f 125 127 128
f 129 130 131
f 129 131 132
f 133 134 135
f 133 135 136
f 137 138 139
f 137 139 140
f 141 142 143
f 141 143 144
f 145 146 147
f 145 147 148
f 149 150 151
f 149 151 152
f 153 154 155
f 153 155 156
f 157 158 159
f 157 159 160
f 161 162 163
f 161 163 164
f 165 166 167
f 165 167 168
f 169 170 171
f 169 171 172
f 173 174 175
f 173 175 176
f 177 178 179
f 177 179 180
f 181 182 183
f 181 183 184
f 185 186 187
f 185 187 188
f 189 190 191
f 189 191 192
f 193 194 195
f 193 195 196
f 197 198 199
f 197 199 200
f 201 202 203
f 201 203 204
f 205 206 207
f 205 207 208
f 209 210 211
f 209 211 212
f 213 214 215
f 213 215 216
f 217 218 219
f 217 219 220
f 221 222 223
f 221 223 224
f 225 226 227
f 225 227 228
f 229 230 231
f 229 231 232
f 233 234 235
f 233 235 236
f 237 238 239
f 237 239 240
f 241 242 243
f 241 243 244
f 245 246 247
f 245 247 248
f 249 250 251
f 249 251 252
f 253 254 255
f 253 255 256
f 257 258 259
f 257 259 260
f 261 262 263
f 261 263 264
f 265 266 267
f 265 267 268
f 269 270 271
f 269 271 272
f 273 274 275
f 273 275 276
f 277 278 279
f 277 279 280
f 281 282 283
f 281 283 284
f 285 286 287
f 285 287 288
f 289 290 291
f 289 291 292
f 293 294 295
f 293 295 296
f 297 298 299
f 297 299 300
f 301 302 303
f 301 303 304
f 305 306 307
f 305 307 308
f 309 310 311
f 309 311 312
f 313 314 315
f 313 315 316
f 317 318 319
f 317 319 320
f 321 322 323
f 321 323 324
f 325 326 327
f 325 327 328
f 329 330 331
f 329 331 332
f 333 334 335
f 333 335 336
f 337 338 339
f 337 339 340
f 341 342 343
f 341 343 344
f 345 346 347
f 345 347 348
f 349 350 351
f 349 351 352
f 353 354 355
f 353 355 356
f 357 358 359
f 357 359 360
f 361 362 363
f 361 363 364
f 365 366 367
f 365 367 368
f 369 370 371
f 369 371 372
f 373 374 375
f 373 375 376
f 377 378 379
f 377 379 380
f 381 382 383
f 381 383 384
f 385 386 387
f 385 387 388
f 389 390 391
f 389 391 392
f 393 394 395
f 393 395 396
f 397 398 399
f 397 399 400
f 401 402 403
f 401 403 404
f 405 406 407
f 405 407 408
f 409 410 411
f 409 411 412
f 413 414 415
f 413 415 416
f 417 418 419
f 417 419 420
g Bacon_Burned_LightBrown
usemtl LightBrown
f 204 203 421
f 204 421 422
f 18 423 424
f 18 424 19
f 80 79 425
f 80 425 426
f 26 427 428
f 26 428 27
f 92 91 429
f 92 429 430
f 34 431 432
f 34 432 35
f 41 44 433
f 41 433 434
f 37 435 436
f 37 436 38
f 437 438 168
f 437 168 167
f 1 3 439
f 1 439 440
f 49 441 442
f 49 442 50
f 65 68 443
f 65 443 444
f 61 445 446
f 61 446 62
f 447 448 30
f 447 30 29
f 173 176 449
f 173 449 450
f 169 451 452
f 169 452 170
f 181 184 453
f 181 453 454
f 177 455 456
f 177 456 178
f 185 188 457
f 185 457 458
f 137 459 460
f 137 460 138
f 193 196 461
f 193 461 462
f 189 463 464
f 189 464 190
f 4 6 465
f 4 465 466
f 467 468 469
f 467 469 470
f 85 88 471
f 85 471 472
f 13 473 474
f 13 474 14
f 93 96 475
f 93 475 476
f 81 477 478
f 81 478 82
f 141 479 480
f 141 480 142
f 109 112 481
f 109 481 482
f 97 483 484
f 97 484 98
f 21 24 485
f 21 485 486
f 105 487 488
f 105 488 106
f 102 489 490
f 102 490 103
f 394 491 492
f 394 492 395
f 212 211 493
f 212 493 494
f 270 495 496
f 270 496 271
f 220 219 497
f 220 497 498
f 282 499 500
f 282 500 283
f 228 227 501
f 228 501 502
f 233 503 504
f 233 504 234
f 229 232 505
f 229 505 506
f 507 359 358
f 507 358 508
f 7 509 510
f 7 510 8
f 241 244 511
f 241 511 512
f 257 513 514
f 257 514 258
f 253 256 515
f 253 515 516
f 517 221 224
f 517 224 518
f 365 519 520
f 365 520 366
f 361 364 521
f 361 521 522
f 373 523 524
f 373 524 374
f 369 372 525
f 369 525 526
f 377 527 528
f 377 528 378
f 329 332 529
f 329 529 530
f 385 531 532
f 385 532 386
f 381 384 533
f 381 533 534
f 10 535 536
f 10 536 11
f 537 538 539
f 537 539 540
f 277 541 542
f 277 542 278
f 205 208 543
f 205 543 544
f 285 545 546
f 285 546 286
f 273 276 547
f 273 547 548
f 333 336 549
f 333 549 550
f 301 551 552
f 301 552 302
f 289 292 553
f 289 553 554
f 213 555 556
f 213 556 214
f 297 300 557
f 297 557 558
f 296 295 559
f 296 559 560
f 561 562 563
f 561 563 564
f 565 566 567
f 565 567 568
f 569 570 571
f 569 571 572
f 573 574 575
f 573 575 576
f 577 578 579
f 577 579 580
f 581 582 583
f 581 583 584
f 585 586 587
f 585 587 588
f 589 590 591
f 589 591 592
f 593 594 595
f 593 595 596
f 597 598 599
f 597 599 600
f 601 602 603
f 601 603 604
f 605 606 607
f 605 607 608
f 609 610 611
f 609 611 612
f 613 614 615
f 613 615 616
f 617 618 619
f 617 619 620
f 621 622 623
f 621 623 624
f 625 626 627
f 625 627 628
f 629 630 631
f 629 631 632
f 633 634 635
f 633 635 636
f 637 638 639
f 637 639 640
f 641 642 643
f 641 643 644
f 645 646 647
f 645 647 648
f 649 650 651
f 649 651 652
f 653 654 655
f 653 655 656
f 657 658 659
f 657 659 660
f 661 662 663
f 661 663 664
f 665 666 667
f 665 667 668
f 669 670 671
f 669 671 672
f 673 674 675
f 673 675 676
f 677 678 679
f 677 679 680
f 681 682 683
f 681 683 684
f 685 686 687
f 685 687 688
f 689 690 691
f 689 691 692
f 693 694 695
f 693 695 696
f 697 698 699
f 697 699 700
f 701 702 703
f 701 703 704
f 705 706 707
f 705 707 708
f 709 710 711
f 709 711 712
g Bacon_Burned_DarkGrey
usemtl DarkGrey
f 48 47 43
f 48 43 42
f 198 40 39
f 198 39 199
f 33 36 46
f 33 46 45
f 32 31 158
f 32 158 157
f 56 55 3
f 56 3 2
f 74 52 51
f 74 51 75
f 25 28 54
f 25 54 53
f 60 59 23
f 60 23 22
f 72 71 67
f 72 67 66
f 114 64 63
f 114 63 115
f 17 20 70
f 17 70 69
f 77 73 76
f 77 76 78
f 132 131 95
f 132 95 94
f 143 135 134
f 143 134 144
f 118 16 15
f 118 15 119
f 89 197 200
f 89 200 90
f 124 123 87
f 124 87 86
f 126 84 83
f 126 83 127
f 104 164 163
f 104 163 101
f 146 100 99
f 146 99 147
f 152 151 111
f 152 111 110
f 154 108 107
f 154 107 155
f 165 160 159
f 165 159 166
f 117 120 175
f 117 175 174
f 121 172 171
f 121 171 122
f 125 128 183
f 125 183 182
f 129 180 179
f 129 179 130
f 133 136 187
f 133 187 186
f 145 148 195
f 145 195 194
f 149 192 191
f 149 191 150
f 153 156 5
f 153 5 4
f 57 467 470
f 57 470 58
f 161 140 139
f 161 139 162
f 201 113 116
f 201 116 202
f 238 236 235
f 238 235 239
f 392 391 231
f 392 231 230
f 225 237 240
f 225 240 226
f 222 349 352
f 222 352 223
f 246 9 8
f 246 8 247
f 268 267 243
f 268 243 242
f 217 245 248
f 217 248 218
f 250 216 215
f 250 215 251
f 262 260 259
f 262 259 263
f 308 307 255
f 308 255 254
f 209 261 264
f 209 264 210
f 269 272 266
f 269 266 265
f 322 288 287
f 322 287 323
f 335 334 328
f 335 328 327
f 312 311 207
f 312 207 206
f 281 284 390
f 281 390 389
f 314 280 279
f 314 279 315
f 320 319 275
f 320 275 274
f 294 293 355
f 294 355 354
f 340 339 291
f 340 291 290
f 342 304 303
f 342 303 343
f 348 347 299
f 348 299 298
f 357 360 351
f 357 351 350
f 309 368 367
f 309 367 310
f 313 316 363
f 313 363 362
f 317 376 375
f 317 375 318
f 321 324 371
f 321 371 370
f 325 380 379
f 325 379 326
f 337 388 387
f 337 387 338
f 341 344 383
f 341 383 382
f 345 10 12
f 345 12 346
f 249 252 538
f 249 538 537
f 353 356 331
f 353 331 330
f 393 396 306
f 393 306 305
f 713 714 406
f 713 406 405
f 715 716 717
f 715 717 718
f 412 411 719
f 412 719 720
f 416 415 721
f 416 721 722
