mtllib Materials.mtl
# Ultimate Food Pack - Banana
o Banana
v 0.216123 -0.189515 0.112519
v 0.242673 -0.092952 0.061683
v 0.113054 -0.010555 0.058166
v 0.071279 -0.110452 0.114742
v 0.216123 -0.189515 0.112519
v 0.369485 -0.153775 0.066628
v 0.242673 -0.092952 0.061683
v 0.350581 -0.244892 0.116319
v 0.465845 -0.280741 0.112397
v 0.476903 -0.197648 0.062874
v 0.216123 -0.189515 0.112519
v 0.325231 -0.357565 0.103685
v 0.350581 -0.244892 0.116319
v 0.179001 -0.305583 0.095312
v 0.018011 -0.218560 0.096893
v 0.071279 -0.110452 0.114742
v -0.078996 0.003951 0.113752
v -0.155120 -0.088517 0.100721
v -0.298230 0.063818 0.102076
v -0.204204 0.132263 0.112982
v -0.266729 0.254756 0.110943
v -0.372155 0.210244 0.102470
v -0.391885 0.349930 0.107033
v -0.285825 0.375941 0.109829
v -0.007049 0.104383 -0.073693
v 0.116362 0.014568 -0.073313
v 0.073246 -0.050963 -0.178234
v -0.058510 0.048497 -0.177186
v -0.007049 0.104383 -0.073693
v -0.015243 0.085936 0.058485
v 0.113054 -0.010555 0.058166
v 0.116362 0.014568 -0.073313
v -0.007049 0.104383 -0.073693
v -0.105940 0.202769 -0.066466
v -0.118226 0.192514 0.056906
v -0.015243 0.085936 0.058485
v -0.007049 0.104383 -0.073693
v -0.058510 0.048497 -0.177186
v -0.161334 0.161195 -0.169498
v -0.105940 0.202769 -0.066466
v -0.442316 0.183918 0.020142
v -0.365180 0.016452 0.014651
v -0.298230 0.063818 0.102076
v -0.372155 0.210244 0.102470
v -0.442316 0.183918 0.020142
v -0.424930 0.194794 -0.106818
v -0.344709 0.030295 -0.114831
v -0.365180 0.016452 0.014651
v -0.442316 0.183918 0.020142
v -0.468722 0.344959 0.031702
v -0.446479 0.357966 -0.089370
v -0.424930 0.194794 -0.106818
v -0.442316 0.183918 0.020142
v -0.372155 0.210244 0.102470
v -0.391885 0.349930 0.107033
v -0.468722 0.344959 0.031702
v -0.214112 -0.152183 0.008807
v -0.365180 0.016452 0.014651
v -0.344709 0.030295 -0.114831
v -0.197884 -0.125742 -0.122673
v -0.214112 -0.152183 0.008807
v -0.155120 -0.088517 0.100721
v -0.298230 0.063818 0.102076
v -0.365180 0.016452 0.014651
v -0.214112 -0.152183 0.008807
v -0.025049 -0.287920 0.002292
v 0.018011 -0.218560 0.096893
v -0.155120 -0.088517 0.100721
v -0.214112 -0.152183 0.008807
v -0.197884 -0.125742 -0.122673
v -0.018520 -0.254130 -0.122286
v -0.025049 -0.287920 0.002292
v -0.136528 -0.046317 -0.193161
v -0.261599 0.090699 -0.188266
v -0.161334 0.161195 -0.169498
v -0.058510 0.048497 -0.177186
v 0.073246 -0.050963 -0.178234
v 0.018129 -0.163448 -0.192239
v 0.183271 -0.247602 -0.181395
v 0.221500 -0.129035 -0.165891
v 0.365411 -0.187927 -0.149961
v 0.338948 -0.303716 -0.162357
v 0.468994 -0.336536 -0.146793
v 0.483023 -0.230132 -0.133980
v -0.136528 -0.046317 -0.193161
v -0.197884 -0.125742 -0.122673
v -0.344709 0.030295 -0.114831
v -0.261599 0.090699 -0.188266
v -0.136528 -0.046317 -0.193161
v 0.018129 -0.163448 -0.192239
v -0.018520 -0.254130 -0.122286
v -0.197884 -0.125742 -0.122673
v -0.078996 0.003951 0.113752
v -0.015243 0.085936 0.058485
v -0.118226 0.192514 0.056906
v -0.204204 0.132263 0.112982
v -0.078996 0.003951 0.113752
v 0.071279 -0.110452 0.114742
v 0.113054 -0.010555 0.058166
v -0.015243 0.085936 0.058485
v 0.448623 -0.445746 0.018177
v 0.309852 -0.424743 0.013971
v 0.318562 -0.395717 -0.098792
v 0.454980 -0.420128 -0.086563
v 0.448623 -0.445746 0.018177
v 0.451799 -0.380317 0.100695
v 0.325231 -0.357565 0.103685
v 0.309852 -0.424743 0.013971
v 0.448623 -0.445746 0.018177
v 0.559901 -0.435326 0.015417
v 0.555816 -0.387316 0.079278
v 0.451799 -0.380317 0.100695
v 0.448623 -0.445746 0.018177
v 0.454980 -0.420128 -0.086563
v 0.562849 -0.420568 -0.067303
v 0.559901 -0.435326 0.015417
v 0.183271 -0.247602 -0.181395
v 0.156525 -0.339029 -0.109621
v -0.018520 -0.254130 -0.122286
v 0.018129 -0.163448 -0.192239
v 0.183271 -0.247602 -0.181395
v 0.338948 -0.303716 -0.162357
v 0.318562 -0.395717 -0.098792
v 0.156525 -0.339029 -0.109621
v 0.245457 -0.070032 -0.061871
v 0.116362 0.014568 -0.073313
v 0.113054 -0.010555 0.058166
v 0.242673 -0.092952 0.061683
v 0.245457 -0.070032 -0.061871
v 0.221500 -0.129035 -0.165891
v 0.073246 -0.050963 -0.178234
v 0.116362 0.014568 -0.073313
v 0.245457 -0.070032 -0.061871
v 0.365411 -0.187927 -0.149961
v 0.221500 -0.129035 -0.165891
v 0.377569 -0.130183 -0.048360
v 0.486430 -0.177168 -0.039668
v 0.483023 -0.230132 -0.133980
v 0.245457 -0.070032 -0.061871
v 0.242673 -0.092952 0.061683
v 0.369485 -0.153775 0.066628
v 0.377569 -0.130183 -0.048360
v 0.486430 -0.177168 -0.039668
v 0.476903 -0.197648 0.062874
v 0.151166 -0.374048 0.006292
v -0.025049 -0.287920 0.002292
v -0.018520 -0.254130 -0.122286
v 0.156525 -0.339029 -0.109621
v 0.151166 -0.374048 0.006292
v 0.179001 -0.305583 0.095312
v 0.018011 -0.218560 0.096893
v -0.025049 -0.287920 0.002292
v 0.151166 -0.374048 0.006292
v 0.309852 -0.424743 0.013971
v 0.325231 -0.357565 0.103685
v 0.179001 -0.305583 0.095312
v 0.151166 -0.374048 0.006292
v 0.156525 -0.339029 -0.109621
v 0.318562 -0.395717 -0.098792
v 0.309852 -0.424743 0.013971
v 0.637259 -0.322961 0.070621
v 0.563257 -0.304374 0.097057
v 0.555816 -0.387316 0.079278
v 0.632147 -0.383606 0.057153
v 0.637259 -0.322961 0.070621
v 0.633532 -0.284470 0.038834
v 0.564356 -0.238805 0.050915
v 0.563257 -0.304374 0.097057
v 0.637259 -0.322961 0.070621
v 0.688059 -0.339723 0.046908
v 0.675206 -0.308867 0.028129
v 0.633532 -0.284470 0.038834
v 0.637259 -0.322961 0.070621
v 0.632147 -0.383606 0.057153
v 0.673150 -0.377827 0.046093
v 0.688059 -0.339723 0.046908
v 0.465845 -0.280741 0.112397
v 0.350581 -0.244892 0.116319
v 0.325231 -0.357565 0.103685
v 0.451799 -0.380317 0.100695
v 0.465845 -0.280741 0.112397
v 0.563257 -0.304374 0.097057
v 0.564356 -0.238805 0.050915
v 0.476903 -0.197648 0.062874
v 0.465845 -0.280741 0.112397
v 0.451799 -0.380317 0.100695
v 0.555816 -0.387316 0.079278
v 0.563257 -0.304374 0.097057
v 0.468994 -0.336536 -0.146793
v 0.454980 -0.420128 -0.086563
v 0.318562 -0.395717 -0.098792
v 0.338948 -0.303716 -0.162357
v 0.468994 -0.336536 -0.146793
v 0.571200 -0.351903 -0.116679
v 0.562849 -0.420568 -0.067303
v 0.454980 -0.420128 -0.086563
v 0.468994 -0.336536 -0.146793
v 0.483023 -0.230132 -0.133980
v 0.577979 -0.263089 -0.111980
v 0.571200 -0.351903 -0.116679
v 0.486430 -0.177168 -0.039668
v 0.571921 -0.224318 -0.031194
v 0.577979 -0.263089 -0.111980
v 0.483023 -0.230132 -0.133980
v 0.486430 -0.177168 -0.039668
v 0.476903 -0.197648 0.062874
v 0.564356 -0.238805 0.050915
v 0.571921 -0.224318 -0.031194
v 0.706673 -0.352196 0.001848
v 0.685983 -0.397023 0.010607
v 0.681218 -0.400264 -0.032384
v 0.700415 -0.363604 -0.048966
v 0.706673 -0.352196 0.001848
v 0.688059 -0.339723 0.046908
v 0.673150 -0.377827 0.046093
v 0.685983 -0.397023 0.010607
v 0.706673 -0.352196 0.001848
v 0.692281 -0.309469 -0.010859
v 0.675206 -0.308867 0.028129
v 0.688059 -0.339723 0.046908
v 0.706673 -0.352196 0.001848
v 0.700415 -0.363604 -0.048966
v 0.691685 -0.307710 -0.053053
v 0.692281 -0.309469 -0.010859
v 0.648034 -0.360123 -0.087715
v 0.571200 -0.351903 -0.116679
v 0.577979 -0.263089 -0.111980
v 0.652753 -0.290830 -0.079898
v 0.648034 -0.360123 -0.087715
v 0.641064 -0.412841 -0.049863
v 0.562849 -0.420568 -0.067303
v 0.571200 -0.351903 -0.116679
v 0.648034 -0.360123 -0.087715
v 0.700415 -0.363604 -0.048966
v 0.681218 -0.400264 -0.032384
v 0.641064 -0.412841 -0.049863
v 0.648034 -0.360123 -0.087715
v 0.652753 -0.290830 -0.079898
v 0.691685 -0.307710 -0.053053
v 0.700415 -0.363604 -0.048966
v 0.640481 -0.273136 -0.023806
v 0.571921 -0.224318 -0.031194
v 0.564356 -0.238805 0.050915
v 0.633532 -0.284470 0.038834
v 0.675206 -0.308867 0.028129
v 0.692281 -0.309469 -0.010859
v 0.640481 -0.273136 -0.023806
v 0.652753 -0.290830 -0.079898
v 0.577979 -0.263089 -0.111980
v 0.571921 -0.224318 -0.031194
v 0.640481 -0.273136 -0.023806
v 0.692281 -0.309469 -0.010859
v 0.691685 -0.307710 -0.053053
v 0.652753 -0.290830 -0.079898
v 0.637138 -0.420631 0.013189
v 0.559901 -0.435326 0.015417
v 0.562849 -0.420568 -0.067303
v 0.641064 -0.412841 -0.049863
v 0.637138 -0.420631 0.013189
v 0.632147 -0.383606 0.057153
v 0.555816 -0.387316 0.079278
v 0.559901 -0.435326 0.015417
v 0.637138 -0.420631 0.013189
v 0.685983 -0.397023 0.010607
v 0.673150 -0.377827 0.046093
v 0.632147 -0.383606 0.057153
v 0.637138 -0.420631 0.013189
v 0.641064 -0.412841 -0.049863
v 0.681218 -0.400264 -0.032384
v 0.685983 -0.397023 0.010607
v -0.273726 0.510099 0.098258
v -0.198392 0.396872 0.064397
v -0.194267 0.504470 0.060071
v -0.285825 0.375941 0.109829
v -0.266729 0.254756 0.110943
v -0.181161 0.290355 0.062010
v -0.273726 0.510099 0.098258
v -0.371872 0.482626 0.095664
v -0.391885 0.349930 0.107033
v -0.285825 0.375941 0.109829
v -0.273726 0.510099 0.098258
v -0.294867 0.576036 0.077615
v -0.352786 0.551018 0.074741
v -0.371872 0.482626 0.095664
v -0.273726 0.510099 0.098258
v -0.210583 0.595953 0.059779
v -0.239753 0.611173 0.056494
v -0.294867 0.576036 0.077615
v -0.273726 0.510099 0.098258
v -0.194267 0.504470 0.060071
v -0.178229 0.599776 0.042918
v -0.210583 0.595953 0.059779
v -0.329356 0.237637 -0.173566
v -0.261599 0.090699 -0.188266
v -0.344709 0.030295 -0.114831
v -0.424930 0.194794 -0.106818
v -0.329356 0.237637 -0.173566
v -0.221306 0.280696 -0.152096
v -0.161334 0.161195 -0.169498
v -0.261599 0.090699 -0.188266
v -0.329356 0.237637 -0.173566
v -0.345694 0.386923 -0.143915
v -0.240469 0.403033 -0.127215
v -0.221306 0.280696 -0.152096
v -0.329356 0.237637 -0.173566
v -0.424930 0.194794 -0.106818
v -0.446479 0.357966 -0.089370
v -0.345694 0.386923 -0.143915
v -0.266729 0.254756 0.110943
v -0.204204 0.132263 0.112982
v -0.118226 0.192514 0.056906
v -0.181161 0.290355 0.062010
v -0.168091 0.300836 -0.054024
v -0.105940 0.202769 -0.066466
v -0.161334 0.161195 -0.169498
v -0.221306 0.280696 -0.152096
v -0.168091 0.300836 -0.054024
v -0.181161 0.290355 0.062010
v -0.118226 0.192514 0.056906
v -0.105940 0.202769 -0.066466
v -0.168091 0.300836 -0.054024
v -0.180478 0.406750 -0.039310
v -0.198392 0.396872 0.064397
v -0.181161 0.290355 0.062010
v -0.168091 0.300836 -0.054024
v -0.221306 0.280696 -0.152096
v -0.240469 0.403033 -0.127215
v -0.180478 0.406750 -0.039310
v -0.169640 0.676764 0.049947
v -0.210583 0.595953 0.059779
v -0.178229 0.599776 0.042918
v -0.149291 0.674828 0.044843
v -0.169640 0.676764 0.049947
v -0.189805 0.679574 0.050472
v -0.239753 0.611173 0.056494
v -0.210583 0.595953 0.059779
v -0.169640 0.676764 0.049947
v -0.135113 0.748509 0.052822
v -0.157836 0.760815 0.048629
v -0.189805 0.679574 0.050472
v -0.169640 0.676764 0.049947
v -0.149291 0.674828 0.044843
v -0.120363 0.742770 0.046064
v -0.135113 0.748509 0.052822
v -0.174805 0.507480 -0.021124
v -0.180478 0.406750 -0.039310
v -0.240469 0.403033 -0.127215
v -0.224477 0.519514 -0.092975
v -0.174805 0.507480 -0.021124
v -0.194267 0.504470 0.060071
v -0.198392 0.396872 0.064397
v -0.180478 0.406750 -0.039310
v -0.174805 0.507480 -0.021124
v -0.165147 0.598997 0.000482
v -0.178229 0.599776 0.042918
v -0.194267 0.504470 0.060071
v -0.174805 0.507480 -0.021124
v -0.224477 0.519514 -0.092975
v -0.190428 0.606614 -0.046591
v -0.165147 0.598997 0.000482
v -0.438497 0.488412 0.031854
v -0.468722 0.344959 0.031702
v -0.391885 0.349930 0.107033
v -0.371872 0.482626 0.095664
v -0.438497 0.488412 0.031854
v -0.417779 0.499449 -0.059047
v -0.446479 0.357966 -0.089370
v -0.468722 0.344959 0.031702
v -0.438497 0.488412 0.031854
v -0.376923 0.573741 0.031816
v -0.380814 0.564983 -0.025991
v -0.417779 0.499449 -0.059047
v -0.438497 0.488412 0.031854
v -0.371872 0.482626 0.095664
v -0.352786 0.551018 0.074741
v -0.376923 0.573741 0.031816
v -0.317340 0.533615 -0.100091
v -0.345694 0.386923 -0.143915
v -0.446479 0.357966 -0.089370
v -0.417779 0.499449 -0.059047
v -0.317340 0.533615 -0.100091
v -0.224477 0.519514 -0.092975
v -0.240469 0.403033 -0.127215
v -0.345694 0.386923 -0.143915
v -0.317340 0.533615 -0.100091
v -0.229918 0.610662 -0.052191
v -0.190428 0.606614 -0.046591
v -0.224477 0.519514 -0.092975
v -0.317340 0.533615 -0.100091
v -0.320572 0.595569 -0.041138
v -0.250653 0.631026 -0.032534
v -0.229918 0.610662 -0.052191
v -0.317340 0.533615 -0.100091
v -0.417779 0.499449 -0.059047
v -0.380814 0.564983 -0.025991
v -0.320572 0.595569 -0.041138
v -0.132917 0.850700 0.038344
v -0.157836 0.760815 0.048629
v -0.116241 0.836701 0.049948
v -0.173174 0.762973 0.036035
v -0.217573 0.683127 0.035634
v -0.189805 0.679574 0.050472
v -0.132917 0.850700 0.038344
v -0.141737 0.858649 0.025943
v -0.181371 0.770738 0.024373
v -0.173174 0.762973 0.036035
v -0.132917 0.850700 0.038344
v -0.084996 0.918632 0.039552
v -0.100989 0.925856 0.023073
v -0.141737 0.858649 0.025943
v -0.132917 0.850700 0.038344
v -0.116241 0.836701 0.049948
v -0.072039 0.896459 0.049882
v -0.084996 0.918632 0.039552
v -0.308874 0.609452 0.027660
v -0.267842 0.635249 0.005957
v -0.250653 0.631026 -0.032534
v -0.320572 0.595569 -0.041138
v -0.308874 0.609452 0.027660
v -0.262963 0.623845 0.043254
v -0.256357 0.645070 0.026526
v -0.267842 0.635249 0.005957
v -0.308874 0.609452 0.027660
v -0.294867 0.576036 0.077615
v -0.239753 0.611173 0.056494
v -0.262963 0.623845 0.043254
v -0.308874 0.609452 0.027660
v -0.376923 0.573741 0.031816
v -0.352786 0.551018 0.074741
v -0.294867 0.576036 0.077615
v -0.308874 0.609452 0.027660
v -0.320572 0.595569 -0.041138
v -0.380814 0.564983 -0.025991
v -0.376923 0.573741 0.031816
v -0.219818 0.688273 0.002292
v -0.267842 0.635249 0.005957
v -0.256357 0.645070 0.026526
v -0.224090 0.683684 0.029644
v -0.219818 0.688273 0.002292
v -0.201762 0.689591 -0.023469
v -0.250653 0.631026 -0.032534
v -0.267842 0.635249 0.005957
v -0.219818 0.688273 0.002292
v -0.177257 0.769852 0.005233
v -0.163032 0.762483 -0.023259
v -0.201762 0.689591 -0.023469
v -0.219818 0.688273 0.002292
v -0.224090 0.683684 0.029644
v -0.181371 0.770738 0.024373
v -0.177257 0.769852 0.005233
v -0.135318 0.671105 0.010346
v -0.165147 0.598997 0.000482
v -0.190428 0.606614 -0.046591
v -0.153577 0.674539 -0.029175
v -0.135318 0.671105 0.010346
v -0.149291 0.674828 0.044843
v -0.178229 0.599776 0.042918
v -0.165147 0.598997 0.000482
v -0.135318 0.671105 0.010346
v -0.103476 0.734231 0.020207
v -0.120363 0.742770 0.046064
v -0.149291 0.674828 0.044843
v -0.135318 0.671105 0.010346
v -0.153577 0.674539 -0.029175
v -0.119812 0.743795 -0.028227
v -0.103476 0.734231 0.020207
v -0.179030 0.685233 -0.034867
v -0.229918 0.610662 -0.052191
v -0.250653 0.631026 -0.032534
v -0.201762 0.689591 -0.023469
v -0.179030 0.685233 -0.034867
v -0.153577 0.674539 -0.029175
v -0.190428 0.606614 -0.046591
v -0.229918 0.610662 -0.052191
v -0.179030 0.685233 -0.034867
v -0.140668 0.753987 -0.033543
v -0.119812 0.743795 -0.028227
v -0.153577 0.674539 -0.029175
v -0.179030 0.685233 -0.034867
v -0.201762 0.689591 -0.023469
v -0.163032 0.762483 -0.023259
v -0.140668 0.753987 -0.033543
v -0.217573 0.683127 0.035634
v -0.262963 0.623845 0.043254
v -0.239753 0.611173 0.056494
v -0.189805 0.679574 0.050472
v -0.217573 0.683127 0.035634
v -0.224090 0.683684 0.029644
v -0.256357 0.645070 0.026526
v -0.262963 0.623845 0.043254
v -0.217573 0.683127 0.035634
v -0.173174 0.762973 0.036035
v -0.181371 0.770738 0.024373
v -0.224090 0.683684 0.029644
v -0.062619 0.958200 -0.004670
v -0.096749 0.922832 -0.012065
v -0.100989 0.925856 0.023073
v -0.064748 0.958465 0.026345
v -0.062619 0.958200 -0.004670
v -0.036880 0.908802 -0.051016
v -0.069800 0.889236 -0.039047
v -0.096749 0.922832 -0.012065
v -0.062619 0.958200 -0.004670
v -0.000781 0.951580 0.003019
v 0.013306 0.937727 -0.010972
v -0.036880 0.908802 -0.051016
v -0.062619 0.958200 -0.004670
v -0.064748 0.958465 0.026345
v -0.012403 0.946276 0.040234
v -0.000781 0.951580 0.003019
v -0.092862 0.816358 -0.037487
v -0.140668 0.753987 -0.033543
v -0.163032 0.762483 -0.023259
v -0.119736 0.836030 -0.030889
v -0.092862 0.816358 -0.037487
v -0.072463 0.801000 -0.020292
v -0.119812 0.743795 -0.028227
v -0.140668 0.753987 -0.033543
v -0.092862 0.816358 -0.037487
v -0.047853 0.867413 -0.040048
v -0.028356 0.846389 -0.024089
v -0.072463 0.801000 -0.020292
v -0.092862 0.816358 -0.037487
v -0.119736 0.836030 -0.030889
v -0.069800 0.889236 -0.039047
v -0.047853 0.867413 -0.040048
v -0.143315 0.853956 -0.003120
v -0.177257 0.769852 0.005233
v -0.181371 0.770738 0.024373
v -0.141737 0.858649 0.025943
v -0.143315 0.853956 -0.003120
v -0.119736 0.836030 -0.030889
v -0.163032 0.762483 -0.023259
v -0.177257 0.769852 0.005233
v -0.143315 0.853956 -0.003120
v -0.096749 0.922832 -0.012065
v -0.069800 0.889236 -0.039047
v -0.119736 0.836030 -0.030889
v -0.143315 0.853956 -0.003120
v -0.141737 0.858649 0.025943
v -0.100989 0.925856 0.023073
v -0.096749 0.922832 -0.012065
v -0.095238 0.819279 0.056306
v -0.135113 0.748509 0.052822
v -0.120363 0.742770 0.046064
v -0.079632 0.806026 0.043492
v -0.095238 0.819279 0.056306
v -0.116241 0.836701 0.049948
v -0.157836 0.760815 0.048629
v -0.135113 0.748509 0.052822
v -0.095238 0.819279 0.056306
v -0.059460 0.868999 0.055309
v -0.072039 0.896459 0.049882
v -0.116241 0.836701 0.049948
v -0.095238 0.819279 0.056306
v -0.079632 0.806026 0.043492
v -0.037218 0.854390 0.048501
v -0.059460 0.868999 0.055309
v -0.070539 0.796039 0.021250
v -0.103476 0.734231 0.020207
v -0.119812 0.743795 -0.028227
v -0.072463 0.801000 -0.020292
v -0.070539 0.796039 0.021250
v -0.079632 0.806026 0.043492
v -0.120363 0.742770 0.046064
v -0.103476 0.734231 0.020207
v -0.070539 0.796039 0.021250
v -0.027501 0.843927 0.020936
v -0.037218 0.854390 0.048501
v -0.079632 0.806026 0.043492
v -0.070539 0.796039 0.021250
v -0.072463 0.801000 -0.020292
v -0.028356 0.846389 -0.024089
v -0.027501 0.843927 0.020936
v 0.013845 0.913923 0.018120
v 0.017136 0.893772 0.017250
v 0.030408 0.891508 -0.007256
v 0.030550 0.916343 -0.015902
v 0.013845 0.913923 0.018120
v -0.011944 0.910452 0.039508
v -0.002290 0.892834 0.033401
v 0.017136 0.893772 0.017250
v 0.013845 0.913923 0.018120
v 0.005858 0.930216 0.023695
v -0.019988 0.936817 0.047607
v -0.011944 0.910452 0.039508
v 0.013845 0.913923 0.018120
v 0.030550 0.916343 -0.015902
v 0.013306 0.937727 -0.010972
v 0.005858 0.930216 0.023695
v -0.028084 0.901954 0.048538
v -0.059460 0.868999 0.055309
v -0.037218 0.854390 0.048501
v -0.011807 0.883203 0.041277
v -0.028084 0.901954 0.048538
v -0.042850 0.932128 0.059537
v -0.072039 0.896459 0.049882
v -0.059460 0.868999 0.055309
v -0.028084 0.901954 0.048538
v -0.011944 0.910452 0.039508
v -0.019988 0.936817 0.047607
v -0.042850 0.932128 0.059537
v -0.028084 0.901954 0.048538
v -0.011807 0.883203 0.041277
v -0.002290 0.892834 0.033401
v -0.011944 0.910452 0.039508
v 0.006877 0.874793 0.021133
v -0.027501 0.843927 0.020936
v -0.028356 0.846389 -0.024089
v 0.008458 0.869955 -0.023949
v 0.006877 0.874793 0.021133
v -0.011807 0.883203 0.041277
v -0.037218 0.854390 0.048501
v -0.027501 0.843927 0.020936
v 0.006877 0.874793 0.021133
v 0.017136 0.893772 0.017250
v -0.002290 0.892834 0.033401
v -0.011807 0.883203 0.041277
v 0.006877 0.874793 0.021133
v 0.008458 0.869955 -0.023949
v 0.030408 0.891508 -0.007256
v 0.017136 0.893772 0.017250
v -0.055567 0.945893 0.058114
v -0.084996 0.918632 0.039552
v -0.072039 0.896459 0.049882
v -0.042850 0.932128 0.059537
v -0.055567 0.945893 0.058114
v -0.064748 0.958465 0.026345
v -0.100989 0.925856 0.023073
v -0.084996 0.918632 0.039552
v -0.055567 0.945893 0.058114
v -0.021089 0.947318 0.050192
v -0.012403 0.946276 0.040234
v -0.064748 0.958465 0.026345
v -0.055567 0.945893 0.058114
v -0.042850 0.932128 0.059537
v -0.019988 0.936817 0.047607
v -0.021089 0.947318 0.050192
v -0.022080 0.889088 -0.051795
v -0.047853 0.867413 -0.040048
v -0.069800 0.889236 -0.039047
v -0.036880 0.908802 -0.051016
v -0.022080 0.889088 -0.051795
v 0.008458 0.869955 -0.023949
v -0.028356 0.846389 -0.024089
v -0.047853 0.867413 -0.040048
v -0.022080 0.889088 -0.051795
v 0.030550 0.916343 -0.015902
v 0.030408 0.891508 -0.007256
v 0.008458 0.869955 -0.023949
v -0.022080 0.889088 -0.051795
v -0.036880 0.908802 -0.051016
v 0.013306 0.937727 -0.010972
v 0.030550 0.916343 -0.015902
v -0.002856 0.942310 0.028178
v 0.005858 0.930216 0.023695
v 0.013306 0.937727 -0.010972
v -0.000781 0.951580 0.003019
v -0.002856 0.942310 0.028178
v -0.021089 0.947318 0.050192
v -0.019988 0.936817 0.047607
v 0.005858 0.930216 0.023695
v -0.002856 0.942310 0.028178
v -0.000781 0.951580 0.003019
v -0.012403 0.946276 0.040234
v -0.021089 0.947318 0.050192
vn 0.232863 0.402936 0.885109
vn 0.232863 0.402936 0.885109
vn 0.232863 0.402936 0.885109
vn 0.232863 0.402936 0.885109
vn 0.163691 0.434697 0.885576
vn 0.163691 0.434697 0.885576
vn 0.163691 0.434697 0.885576
vn 0.163691 0.434697 0.885576
vn 0.194530 0.459950 0.866374
vn 0.194530 0.459950 0.866374
vn -0.058849 -0.131028 0.989631
vn -0.083669 -0.106405 0.990796
vn -0.083669 -0.106405 0.990796
vn -0.058849 -0.131028 0.989631
vn -0.058849 -0.131028 0.989631
vn -0.058849 -0.131028 0.989631
vn -0.071725 -0.106412 0.991732
vn -0.071725 -0.106412 0.991732
vn -0.072471 -0.071359 0.994815
vn -0.072471 -0.071359 0.994815
vn -0.077882 -0.033422 0.996402
vn -0.077882 -0.033422 0.996402
vn -0.046503 -0.020126 0.998715
vn -0.046503 -0.020126 0.998715
vn 0.478299 0.646907 -0.593921
vn 0.478299 0.646907 -0.593921
vn 0.478299 0.646907 -0.593921
vn 0.478299 0.646907 -0.593921
vn 0.587544 0.793852 0.156814
vn 0.587544 0.793852 0.156814
vn 0.587544 0.793852 0.156814
vn 0.587544 0.793852 0.156814
vn 0.707825 0.693444 0.134608
vn 0.707825 0.693444 0.134608
vn 0.707825 0.693444 0.134608
vn 0.707825 0.693444 0.134608
vn 0.571943 0.587039 -0.572946
vn 0.571943 0.587039 -0.572946
vn 0.571943 0.587039 -0.572946
vn 0.571943 0.587039 -0.572946
vn -0.659234 -0.329924 0.675693
vn -0.659234 -0.329924 0.675693
vn -0.659234 -0.329924 0.675693
vn -0.659234 -0.329924 0.675693
vn -0.892856 -0.416233 -0.171929
vn -0.892856 -0.416233 -0.171929
vn -0.892856 -0.416233 -0.171929
vn -0.892856 -0.416233 -0.171929
vn -0.977150 -0.129450 -0.168585
vn -0.977150 -0.129450 -0.168585
vn -0.977150 -0.129450 -0.168585
vn -0.977150 -0.129450 -0.168585
vn -0.708995 -0.145762 0.689985
vn -0.708995 -0.145762 0.689985
vn -0.708995 -0.145762 0.689985
vn -0.708995 -0.145762 0.689985
vn -0.725679 -0.657247 -0.203512
vn -0.725679 -0.657247 -0.203512
vn -0.725679 -0.657247 -0.203512
vn -0.725679 -0.657247 -0.203512
vn -0.530620 -0.501654 0.683218
vn -0.530620 -0.501654 0.683218
vn -0.530620 -0.501654 0.683218
vn -0.530620 -0.501654 0.683218
vn -0.427654 -0.608793 0.668194
vn -0.427654 -0.608793 0.668194
vn -0.427654 -0.608793 0.668194
vn -0.427654 -0.608793 0.668194
vn -0.568789 -0.787931 -0.235892
vn -0.568789 -0.787931 -0.235892
vn -0.568789 -0.787931 -0.235892
vn -0.568789 -0.787931 -0.235892
vn 0.072779 0.096814 -0.992638
vn 0.079387 0.122304 -0.989313
vn 0.079387 0.122304 -0.989313
vn 0.072779 0.096814 -0.992638
vn 0.072779 0.096814 -0.992638
vn 0.072779 0.096814 -0.992638
vn 0.114726 0.080109 -0.990162
vn 0.114726 0.080109 -0.990162
vn 0.144861 0.077441 -0.986417
vn 0.144861 0.077441 -0.986417
vn 0.150974 0.084232 -0.984943
vn 0.150974 0.084232 -0.984943
vn -0.444497 -0.377095 -0.812541
vn -0.444497 -0.377095 -0.812541
vn -0.444497 -0.377095 -0.812541
vn -0.444497 -0.377095 -0.812541
vn -0.343821 -0.472087 -0.811740
vn -0.343821 -0.472087 -0.811740
vn -0.343821 -0.472087 -0.811740
vn -0.343821 -0.472087 -0.811740
vn 0.336035 0.335252 0.880163
vn 0.336035 0.335252 0.880163
vn 0.336035 0.335252 0.880163
vn 0.336035 0.335252 0.880163
vn 0.283652 0.377480 0.881505
vn 0.283652 0.377480 0.881505
vn 0.283652 0.377480 0.881505
vn 0.283652 0.377480 0.881505
vn -0.143052 -0.957498 -0.250466
vn -0.143052 -0.957498 -0.250466
vn -0.143052 -0.957498 -0.250466
vn -0.143052 -0.957498 -0.250466
vn -0.131208 -0.778624 0.613619
vn -0.131208 -0.778624 0.613619
vn -0.131208 -0.778624 0.613619
vn -0.131208 -0.778624 0.613619
vn 0.081113 -0.787578 0.610853
vn 0.081113 -0.787578 0.610853
vn 0.081113 -0.787578 0.610853
vn 0.081113 -0.787578 0.610853
vn 0.060074 -0.976425 -0.207328
vn 0.060074 -0.976425 -0.207328
vn 0.060074 -0.976425 -0.207328
vn 0.060074 -0.976425 -0.207328
vn -0.218131 -0.550962 -0.805519
vn -0.218131 -0.550962 -0.805519
vn -0.218131 -0.550962 -0.805519
vn -0.218131 -0.550962 -0.805519
vn -0.125199 -0.568012 -0.813442
vn -0.125199 -0.568012 -0.813442
vn -0.125199 -0.568012 -0.813442
vn -0.125199 -0.568012 -0.813442
vn 0.527548 0.832460 0.169421
vn 0.527548 0.832460 0.169421
vn 0.527548 0.832460 0.169421
vn 0.527548 0.832460 0.169421
vn 0.454595 0.693310 -0.559164
vn 0.454595 0.693310 -0.559164
vn 0.454595 0.693310 -0.559164
vn 0.454595 0.693310 -0.559164
vn 0.386553 0.771214 -0.505773
vn 0.386553 0.771214 -0.505773
vn 0.386553 0.771214 -0.505773
vn 0.386553 0.771214 -0.505773
vn 0.366276 0.797345 -0.479669
vn 0.366276 0.797345 -0.479669
vn 0.404046 0.894197 0.192767
vn 0.404046 0.894197 0.192767
vn 0.404046 0.894197 0.192767
vn 0.404046 0.894197 0.192767
vn 0.374268 0.902492 0.213148
vn 0.374268 0.902492 0.213148
vn -0.411204 -0.870801 -0.269476
vn -0.411204 -0.870801 -0.269476
vn -0.411204 -0.870801 -0.269476
vn -0.411204 -0.870801 -0.269476
vn -0.352722 -0.677900 0.645011
vn -0.352722 -0.677900 0.645011
vn -0.352722 -0.677900 0.645011
vn -0.352722 -0.677900 0.645011
vn -0.279013 -0.731263 0.622420
vn -0.279013 -0.731263 0.622420
vn -0.279013 -0.731263 0.622420
vn -0.279013 -0.731263 0.622420
vn -0.291007 -0.916473 -0.274577
vn -0.291007 -0.916473 -0.274577
vn -0.291007 -0.916473 -0.274577
vn -0.291007 -0.916473 -0.274577
vn 0.278874 -0.227424 0.933010
vn 0.278874 -0.227424 0.933010
vn 0.278874 -0.227424 0.933010
vn 0.278874 -0.227424 0.933010
vn 0.437289 0.546133 0.714505
vn 0.437289 0.546133 0.714505
vn 0.437289 0.546133 0.714505
vn 0.437289 0.546133 0.714505
vn 0.498525 0.585402 0.639357
vn 0.498525 0.585402 0.639357
vn 0.498525 0.585402 0.639357
vn 0.498525 0.585402 0.639357
vn 0.326094 -0.199752 0.923992
vn 0.326094 -0.199752 0.923992
vn 0.326094 -0.199752 0.923992
vn 0.326094 -0.199752 0.923992
vn 0.000761 -0.114045 0.993475
vn 0.000761 -0.114045 0.993475
vn 0.000761 -0.114045 0.993475
vn 0.000761 -0.114045 0.993475
vn 0.295400 0.499795 0.814214
vn 0.295400 0.499795 0.814214
vn 0.295400 0.499795 0.814214
vn 0.295400 0.499795 0.814214
vn 0.150944 -0.174925 0.972943
vn 0.150944 -0.174925 0.972943
vn 0.150944 -0.174925 0.972943
vn 0.150944 -0.174925 0.972943
vn -0.037085 -0.570948 -0.820148
vn -0.037085 -0.570948 -0.820148
vn -0.037085 -0.570948 -0.820148
vn -0.037085 -0.570948 -0.820148
vn 0.141920 -0.591973 -0.793364
vn 0.141920 -0.591973 -0.793364
vn 0.141920 -0.591973 -0.793364
vn 0.141920 -0.591973 -0.793364
vn 0.268304 0.057665 -0.961607
vn 0.268304 0.057665 -0.961607
vn 0.268304 0.057665 -0.961607
vn 0.268304 0.057665 -0.961607
vn 0.426809 0.803704 -0.414601
vn 0.426809 0.803704 -0.414601
vn 0.426809 0.803704 -0.414601
vn 0.426809 0.803704 -0.414601
vn 0.448276 0.869787 0.206201
vn 0.448276 0.869787 0.206201
vn 0.448276 0.869787 0.206201
vn 0.448276 0.869787 0.206201
vn 0.893279 -0.448139 -0.034985
vn 0.893279 -0.448139 -0.034985
vn 0.893279 -0.448139 -0.034985
vn 0.893279 -0.448139 -0.034985
vn 0.835359 -0.315461 0.450178
vn 0.835359 -0.315461 0.450178
vn 0.835359 -0.315461 0.450178
vn 0.835359 -0.315461 0.450178
vn 0.849336 0.439545 0.292282
vn 0.849336 0.439545 0.292282
vn 0.849336 0.439545 0.292282
vn 0.849336 0.439545 0.292282
vn 0.972745 0.212105 -0.093692
vn 0.972745 0.212105 -0.093692
vn 0.972745 0.212105 -0.093692
vn 0.972745 0.212105 -0.093692
vn 0.382351 0.045258 -0.922908
vn 0.382351 0.045258 -0.922908
vn 0.382351 0.045258 -0.922908
vn 0.382351 0.045258 -0.922908
vn 0.230433 -0.586877 -0.776193
vn 0.230433 -0.586877 -0.776193
vn 0.230433 -0.586877 -0.776193
vn 0.230433 -0.586877 -0.776193
vn 0.471053 -0.555318 -0.685369
vn 0.471053 -0.555318 -0.685369
vn 0.471053 -0.555318 -0.685369
vn 0.471053 -0.555318 -0.685369
vn 0.589171 0.042915 -0.806868
vn 0.589171 0.042915 -0.806868
vn 0.589171 0.042915 -0.806868
vn 0.589171 0.042915 -0.806868
vn 0.558906 0.804848 0.199610
vn 0.558906 0.804848 0.199610
vn 0.558906 0.804848 0.199610
vn 0.558906 0.804848 0.199610
vn 0.528868 0.821850 0.211805
vn 0.528868 0.821850 0.211805
vn 0.510332 0.816936 -0.268658
vn 0.510332 0.816936 -0.268658
vn 0.510332 0.816936 -0.268658
vn 0.510332 0.816936 -0.268658
vn 0.528544 0.845647 -0.074316
vn 0.528544 0.845647 -0.074316
vn 0.528544 0.845647 -0.074316
vn 0.528544 0.845647 -0.074316
vn 0.155050 -0.977374 -0.143872
vn 0.155050 -0.977374 -0.143872
vn 0.155050 -0.977374 -0.143872
vn 0.155050 -0.977374 -0.143872
vn 0.189438 -0.763167 0.617810
vn 0.189438 -0.763167 0.617810
vn 0.189438 -0.763167 0.617810
vn 0.189438 -0.763167 0.617810
vn 0.330184 -0.734009 0.593472
vn 0.330184 -0.734009 0.593472
vn 0.330184 -0.734009 0.593472
vn 0.330184 -0.734009 0.593472
vn 0.382415 -0.923007 -0.042624
vn 0.382415 -0.923007 -0.042624
vn 0.382415 -0.923007 -0.042624
vn 0.382415 -0.923007 -0.042624
vn 0.445643 0.028929 0.894743
vn 0.445643 0.028929 0.894743
vn 0.445643 0.028929 0.894743
vn 0.445643 0.028929 0.894743
vn 0.460383 0.068499 0.885074
vn 0.460383 0.068499 0.885074
vn -0.050225 0.091537 0.994534
vn -0.050225 0.091537 0.994534
vn -0.050225 0.091537 0.994534
vn -0.050225 0.091537 0.994534
vn -0.131153 0.291221 0.947623
vn -0.131153 0.291221 0.947623
vn -0.131153 0.291221 0.947623
vn -0.131153 0.291221 0.947623
vn 0.115286 0.345992 0.931128
vn 0.115286 0.345992 0.931128
vn 0.115286 0.345992 0.931128
vn 0.115286 0.345992 0.931128
vn 0.441284 0.081559 0.893654
vn 0.441284 0.081559 0.893654
vn 0.441284 0.081559 0.893654
vn 0.441284 0.081559 0.893654
vn -0.533863 -0.193633 -0.823102
vn -0.533863 -0.193633 -0.823102
vn -0.533863 -0.193633 -0.823102
vn -0.533863 -0.193633 -0.823102
vn 0.099170 0.165756 -0.981168
vn 0.099170 0.165756 -0.981168
vn 0.099170 0.165756 -0.981168
vn 0.099170 0.165756 -0.981168
vn 0.115494 0.210009 -0.970854
vn 0.115494 0.210009 -0.970854
vn 0.115494 0.210009 -0.970854
vn 0.115494 0.210009 -0.970854
vn -0.540585 0.060932 -0.839080
vn -0.540585 0.060932 -0.839080
vn -0.540585 0.060932 -0.839080
vn -0.540585 0.060932 -0.839080
vn 0.414764 0.223904 0.881951
vn 0.414764 0.223904 0.881951
vn 0.414764 0.223904 0.881951
vn 0.414764 0.223904 0.881951
vn 0.708352 0.469861 -0.526752
vn 0.708352 0.469861 -0.526752
vn 0.708352 0.469861 -0.526752
vn 0.708352 0.469861 -0.526752
vn 0.840612 0.524678 0.134477
vn 0.840612 0.524678 0.134477
vn 0.840612 0.524678 0.134477
vn 0.840612 0.524678 0.134477
vn 0.980815 0.124688 0.149849
vn 0.980815 0.124688 0.149849
vn 0.980815 0.124688 0.149849
vn 0.980815 0.124688 0.149849
vn 0.824034 0.205488 -0.527961
vn 0.824034 0.205488 -0.527961
vn 0.824034 0.205488 -0.527961
vn 0.824034 0.205488 -0.527961
vn 0.385457 -0.126452 0.914020
vn 0.385457 -0.126452 0.914020
vn 0.385457 -0.126452 0.914020
vn 0.385457 -0.126452 0.914020
vn -0.013890 0.114009 0.993383
vn -0.013890 0.114009 0.993383
vn -0.013890 0.114009 0.993383
vn -0.013890 0.114009 0.993383
vn -0.075966 0.026302 0.996763
vn -0.075966 0.026302 0.996763
vn -0.075966 0.026302 0.996763
vn -0.075966 0.026302 0.996763
vn 0.285123 -0.157248 0.945504
vn 0.285123 -0.157248 0.945504
vn 0.285123 -0.157248 0.945504
vn 0.285123 -0.157248 0.945504
vn 0.824564 0.053695 -0.563216
vn 0.824564 0.053695 -0.563216
vn 0.824564 0.053695 -0.563216
vn 0.824564 0.053695 -0.563216
vn 0.979261 -0.058948 0.193840
vn 0.979261 -0.058948 0.193840
vn 0.979261 -0.058948 0.193840
vn 0.979261 -0.058948 0.193840
vn 0.958442 -0.137779 0.249814
vn 0.958442 -0.137779 0.249814
vn 0.958442 -0.137779 0.249814
vn 0.958442 -0.137779 0.249814
vn 0.845704 -0.003817 -0.533639
vn 0.845704 -0.003817 -0.533639
vn 0.845704 -0.003817 -0.533639
vn 0.845704 -0.003817 -0.533639
vn -0.687470 0.153894 0.709720
vn -0.687470 0.153894 0.709720
vn -0.687470 0.153894 0.709720
vn -0.687470 0.153894 0.709720
vn -0.961223 0.216985 -0.170199
vn -0.961223 0.216985 -0.170199
vn -0.961223 0.216985 -0.170199
vn -0.961223 0.216985 -0.170199
vn -0.825601 0.557835 -0.084869
vn -0.825601 0.557835 -0.084869
vn -0.825601 0.557835 -0.084869
vn -0.825601 0.557835 -0.084869
vn -0.632618 0.420622 0.650286
vn -0.632618 0.420622 0.650286
vn -0.632618 0.420622 0.650286
vn -0.632618 0.420622 0.650286
vn -0.485199 0.306746 -0.818834
vn -0.485199 0.306746 -0.818834
vn -0.485199 0.306746 -0.818834
vn -0.485199 0.306746 -0.818834
vn 0.112450 0.265110 -0.957639
vn 0.112450 0.265110 -0.957639
vn 0.112450 0.265110 -0.957639
vn 0.112450 0.265110 -0.957639
vn 0.142893 0.411330 -0.900216
vn 0.142893 0.411330 -0.900216
vn 0.142893 0.411330 -0.900216
vn 0.142893 0.411330 -0.900216
vn -0.197485 0.646356 -0.737037
vn -0.197485 0.646356 -0.737037
vn -0.197485 0.646356 -0.737037
vn -0.197485 0.646356 -0.737037
vn -0.468235 0.595211 -0.653054
vn -0.468235 0.595211 -0.653054
vn -0.468235 0.595211 -0.653054
vn -0.468235 0.595211 -0.653054
vn -0.507569 0.235539 0.828792
vn -0.507569 0.235539 0.828792
vn -0.507569 0.235539 0.828792
vn -0.507569 0.235539 0.828792
vn -0.497598 0.243357 0.832570
vn -0.497598 0.243357 0.832570
vn -0.679243 0.294108 0.672406
vn -0.679243 0.294108 0.672406
vn -0.679243 0.294108 0.672406
vn -0.679243 0.294108 0.672406
vn -0.585341 0.392782 0.709295
vn -0.585341 0.392782 0.709295
vn -0.585341 0.392782 0.709295
vn -0.585341 0.392782 0.709295
vn -0.359032 0.250991 0.898944
vn -0.359032 0.250991 0.898944
vn -0.359032 0.250991 0.898944
vn -0.359032 0.250991 0.898944
vn -0.491583 0.854210 -0.169325
vn -0.491583 0.854210 -0.169325
vn -0.491583 0.854210 -0.169325
vn -0.491583 0.854210 -0.169325
vn -0.528916 0.789768 0.310668
vn -0.528916 0.789768 0.310668
vn -0.528916 0.789768 0.310668
vn -0.528916 0.789768 0.310668
vn -0.296664 0.679932 0.670584
vn -0.296664 0.679932 0.670584
vn -0.296664 0.679932 0.670584
vn -0.296664 0.679932 0.670584
vn -0.347236 0.732615 0.585407
vn -0.347236 0.732615 0.585407
vn -0.347236 0.732615 0.585407
vn -0.347236 0.732615 0.585407
vn -0.468575 0.877826 -0.099289
vn -0.468575 0.877826 -0.099289
vn -0.468575 0.877826 -0.099289
vn -0.468575 0.877826 -0.099289
vn -0.751384 0.658579 0.041187
vn -0.751384 0.658579 0.041187
vn -0.751384 0.658579 0.041187
vn -0.751384 0.658579 0.041187
vn -0.681731 0.611516 -0.401610
vn -0.681731 0.611516 -0.401610
vn -0.681731 0.611516 -0.401610
vn -0.681731 0.611516 -0.401610
vn -0.762388 0.411401 -0.499514
vn -0.762388 0.411401 -0.499514
vn -0.762388 0.411401 -0.499514
vn -0.762388 0.411401 -0.499514
vn -0.886149 0.446425 -0.124281
vn -0.886149 0.446425 -0.124281
vn -0.886149 0.446425 -0.124281
vn -0.886149 0.446425 -0.124281
vn 0.833742 -0.307689 -0.458478
vn 0.833742 -0.307689 -0.458478
vn 0.833742 -0.307689 -0.458478
vn 0.833742 -0.307689 -0.458478
vn 0.868260 -0.372944 0.327166
vn 0.868260 -0.372944 0.327166
vn 0.868260 -0.372944 0.327166
vn 0.868260 -0.372944 0.327166
vn 0.779554 -0.402049 0.480264
vn 0.779554 -0.402049 0.480264
vn 0.779554 -0.402049 0.480264
vn 0.779554 -0.402049 0.480264
vn 0.838522 -0.383995 -0.386560
vn 0.838522 -0.383995 -0.386560
vn 0.838522 -0.383995 -0.386560
vn 0.838522 -0.383995 -0.386560
vn -0.351268 0.428281 -0.832578
vn -0.351268 0.428281 -0.832578
vn -0.351268 0.428281 -0.832578
vn -0.351268 0.428281 -0.832578
vn 0.195811 0.116808 -0.973660
vn 0.195811 0.116808 -0.973660
vn 0.195811 0.116808 -0.973660
vn 0.195811 0.116808 -0.973660
vn 0.193890 -0.085240 -0.977313
vn 0.193890 -0.085240 -0.977313
vn 0.193890 -0.085240 -0.977313
vn 0.193890 -0.085240 -0.977313
vn -0.373405 0.213011 -0.902881
vn -0.373405 0.213011 -0.902881
vn -0.373405 0.213011 -0.902881
vn -0.373405 0.213011 -0.902881
vn -0.359439 0.360354 0.860784
vn -0.359439 0.360354 0.860784
vn -0.359439 0.360354 0.860784
vn -0.359439 0.360354 0.860784
vn -0.657245 0.545287 0.520280
vn -0.657245 0.545287 0.520280
vn -0.657245 0.545287 0.520280
vn -0.657245 0.545287 0.520280
vn -0.631771 0.349954 0.691663
vn -0.631771 0.349954 0.691663
vn -0.631771 0.349954 0.691663
vn -0.631771 0.349954 0.691663
vn -0.683137 0.723170 -0.101729
vn -0.683137 0.723170 -0.101729
vn -0.683137 0.723170 -0.101729
vn -0.683137 0.723170 -0.101729
vn -0.414931 0.440147 -0.796306
vn -0.414931 0.440147 -0.796306
vn -0.414931 0.440147 -0.796306
vn -0.414931 0.440147 -0.796306
vn 0.140727 0.728328 -0.670622
vn 0.140727 0.728328 -0.670622
vn 0.140727 0.728328 -0.670622
vn 0.140727 0.728328 -0.670622
vn 0.142981 0.984503 0.101539
vn 0.142981 0.984503 0.101539
vn 0.142981 0.984503 0.101539
vn 0.142981 0.984503 0.101539
vn -0.270991 0.100109 -0.957362
vn -0.270991 0.100109 -0.957362
vn -0.270991 0.100109 -0.957362
vn -0.270991 0.100109 -0.957362
vn 0.344026 -0.243503 -0.906837
vn 0.344026 -0.243503 -0.906837
vn 0.344026 -0.243503 -0.906837
vn 0.344026 -0.243503 -0.906837
vn 0.356169 -0.385218 -0.851323
vn 0.356169 -0.385218 -0.851323
vn 0.356169 -0.385218 -0.851323
vn 0.356169 -0.385218 -0.851323
vn -0.135688 0.021743 -0.990513
vn -0.135688 0.021743 -0.990513
vn -0.135688 0.021743 -0.990513
vn -0.135688 0.021743 -0.990513
vn -0.916749 0.388444 -0.093183
vn -0.916749 0.388444 -0.093183
vn -0.916749 0.388444 -0.093183
vn -0.916749 0.388444 -0.093183
vn -0.727222 0.293374 -0.620548
vn -0.727222 0.293374 -0.620548
vn -0.727222 0.293374 -0.620548
vn -0.727222 0.293374 -0.620548
vn -0.533779 0.311816 -0.786035
vn -0.533779 0.311816 -0.786035
vn -0.533779 0.311816 -0.786035
vn -0.533779 0.311816 -0.786035
vn -0.841414 0.531291 -0.098753
vn -0.841414 0.531291 -0.098753
vn -0.841414 0.531291 -0.098753
vn -0.841414 0.531291 -0.098753
vn 0.408361 -0.251566 0.877471
vn 0.408361 -0.251566 0.877471
vn 0.408361 -0.251566 0.877471
vn 0.408361 -0.251566 0.877471
vn -0.187417 0.072018 0.979637
vn -0.187417 0.072018 0.979637
vn -0.187417 0.072018 0.979637
vn -0.187417 0.072018 0.979637
vn -0.167081 0.131555 0.977127
vn -0.167081 0.131555 0.977127
vn -0.167081 0.131555 0.977127
vn -0.167081 0.131555 0.977127
vn 0.283720 -0.263889 0.921882
vn 0.283720 -0.263889 0.921882
vn 0.283720 -0.263889 0.921882
vn 0.283720 -0.263889 0.921882
vn 0.811325 -0.528462 -0.249959
vn 0.811325 -0.528462 -0.249959
vn 0.811325 -0.528462 -0.249959
vn 0.811325 -0.528462 -0.249959
vn 0.721903 -0.418491 0.551110
vn 0.721903 -0.418491 0.551110
vn 0.721903 -0.418491 0.551110
vn 0.721903 -0.418491 0.551110
vn 0.641665 -0.593373 0.485978
vn 0.641665 -0.593373 0.485978
vn 0.641665 -0.593373 0.485978
vn 0.641665 -0.593373 0.485978
vn 0.726465 -0.682313 -0.081835
vn 0.726465 -0.682313 -0.081835
vn 0.726465 -0.682313 -0.081835
vn 0.726465 -0.682313 -0.081835
vn 0.881164 0.139740 0.451688
vn 0.881164 0.139740 0.451688
vn 0.881164 0.139740 0.451688
vn 0.881164 0.139740 0.451688
vn 0.632688 0.074459 0.770819
vn 0.632688 0.074459 0.770819
vn 0.632688 0.074459 0.770819
vn 0.632688 0.074459 0.770819
vn 0.659703 0.007016 0.751494
vn 0.659703 0.007016 0.751494
vn 0.659703 0.007016 0.751494
vn 0.659703 0.007016 0.751494
vn 0.819846 0.450496 0.353420
vn 0.819846 0.450496 0.353420
vn 0.819846 0.450496 0.353420
vn 0.819846 0.450496 0.353420
vn 0.297861 -0.057946 0.952849
vn 0.297861 -0.057946 0.952849
vn 0.297861 -0.057946 0.952849
vn 0.297861 -0.057946 0.952849
vn 0.040121 -0.077265 0.996203
vn 0.040121 -0.077265 0.996203
vn 0.040121 -0.077265 0.996203
vn 0.040121 -0.077265 0.996203
vn 0.495329 -0.091958 0.863825
vn 0.495329 -0.091958 0.863825
vn 0.495329 -0.091958 0.863825
vn 0.495329 -0.091958 0.863825
vn 0.520435 0.057941 0.851934
vn 0.520435 0.057941 0.851934
vn 0.520435 0.057941 0.851934
vn 0.520435 0.057941 0.851934
vn 0.607114 -0.794195 0.025829
vn 0.607114 -0.794195 0.025829
vn 0.607114 -0.794195 0.025829
vn 0.607114 -0.794195 0.025829
vn 0.609677 -0.542781 0.577653
vn 0.609677 -0.542781 0.577653
vn 0.609677 -0.542781 0.577653
vn 0.609677 -0.542781 0.577653
vn 0.664347 -0.159052 0.730305
vn 0.664347 -0.159052 0.730305
vn 0.664347 -0.159052 0.730305
vn 0.664347 -0.159052 0.730305
vn 0.728111 -0.648648 0.221608
vn 0.728111 -0.648648 0.221608
vn 0.728111 -0.648648 0.221608
vn 0.728111 -0.648648 0.221608
vn -0.426177 -0.008619 0.904599
vn -0.426177 -0.008619 0.904599
vn -0.426177 -0.008619 0.904599
vn -0.426177 -0.008619 0.904599
vn -0.654204 0.515911 0.553040
vn -0.654204 0.515911 0.553040
vn -0.654204 0.515911 0.553040
vn -0.654204 0.515911 0.553040
vn 0.100792 0.959278 0.263868
vn 0.100792 0.959278 0.263868
vn 0.100792 0.959278 0.263868
vn 0.100792 0.959278 0.263868
vn 0.311642 0.132377 0.940933
vn 0.311642 0.132377 0.940933
vn 0.311642 0.132377 0.940933
vn 0.311642 0.132377 0.940933
vn -0.254214 -0.184212 -0.949443
vn -0.254214 -0.184212 -0.949443
vn -0.254214 -0.184212 -0.949443
vn -0.254214 -0.184212 -0.949443
vn 0.252066 -0.552556 -0.794446
vn 0.252066 -0.552556 -0.794446
vn 0.252066 -0.552556 -0.794446
vn 0.252066 -0.552556 -0.794446
vn 0.641616 -0.176066 -0.746545
vn 0.641616 -0.176066 -0.746545
vn 0.641616 -0.176066 -0.746545
vn 0.641616 -0.176066 -0.746545
vn 0.383642 0.413815 -0.825577
vn 0.383642 0.413815 -0.825577
vn 0.383642 0.413815 -0.825577
vn 0.383642 0.413815 -0.825577
vn 0.810735 0.517255 0.274145
vn 0.810735 0.517255 0.274145
vn 0.810735 0.517255 0.274145
vn 0.810735 0.517255 0.274145
vn 0.730674 0.106427 0.674381
vn 0.730674 0.106427 0.674381
vn 0.730674 0.106427 0.674381
vn 0.730674 0.106427 0.674381
vn 0.706911 0.609207 0.359366
vn 0.706911 0.609207 0.359366
vn 0.706911 0.609207 0.359366
vn 0.706911 0.609207 0.359366
g Banana_Yellow
usemtl Yellow
f 1 2 3
f 1 3 4
f 5 6 7
f 5 8 6
f 9 6 8
f 9 10 6
f 11 12 13
f 11 14 12
f 11 15 14
f 11 16 15
f 17 15 16
f 17 18 15
f 17 19 18
f 17 20 19
f 21 19 20
f 21 22 19
f 21 23 22
f 21 24 23
f 25 26 27
f 25 27 28
f 29 30 31
f 29 31 32
f 33 34 35
f 33 35 36
f 37 38 39
f 37 39 40
f 41 42 43
f 41 43 44
f 45 46 47
f 45 47 48
f 49 50 51
f 49 51 52
f 53 54 55
f 53 55 56
f 57 58 59
f 57 59 60
f 61 62 63
f 61 63 64
f 65 66 67
f 65 67 68
f 69 70 71
f 69 71 72
f 73 74 75
f 73 75 76
f 73 76 77
f 73 77 78
f 79 78 77
f 79 77 80
f 79 80 81
f 79 81 82
f 83 82 81
f 83 81 84
f 85 86 87
f 85 87 88
f 89 90 91
f 89 91 92
f 93 94 95
f 93 95 96
f 97 98 99
f 97 99 100
f 101 102 103
f 101 103 104
f 105 106 107
f 105 107 108
f 109 110 111
f 109 111 112
f 113 114 115
f 113 115 116
f 117 118 119
f 117 119 120
f 121 122 123
f 121 123 124
f 125 126 127
f 125 127 128
f 129 130 131
f 129 131 132
f 133 134 135
f 133 136 134
f 137 134 136
f 137 138 134
f 139 140 141
f 139 141 142
f 143 142 141
f 143 141 144
f 145 146 147
f 145 147 148
f 149 150 151
f 149 151 152
f 153 154 155
f 153 155 156
f 157 158 159
f 157 159 160
f 161 162 163
f 161 163 164
f 165 166 167
f 165 167 168
f 169 170 171
f 169 171 172
f 173 174 175
f 173 175 176
f 177 178 179
f 177 179 180
f 181 182 183
f 181 183 184
f 185 186 187
f 185 187 188
f 189 190 191
f 189 191 192
f 193 194 195
f 193 195 196
f 197 198 199
f 197 199 200
f 201 202 203
f 201 203 204
f 205 206 207
f 205 207 208
f 209 210 211
f 209 211 212
f 213 214 215
f 213 215 216
f 217 218 219
f 217 219 220
f 221 222 223
f 221 223 224
f 225 226 227
f 225 227 228
f 229 230 231
f 229 231 232
f 233 234 235
f 233 235 236
f 237 238 239
f 237 239 240
f 241 242 243
f 241 243 244
f 241 244 245
f 241 245 246
f 247 248 249
f 247 249 250
f 251 252 253
f 251 253 254
f 255 256 257
f 255 257 258
f 259 260 261
f 259 261 262
f 263 264 265
f 263 265 266
f 267 268 269
f 267 269 270
f 271 272 273
f 271 274 272
f 275 272 274
f 275 276 272
f 277 278 279
f 277 279 280
f 281 282 283
f 281 283 284
f 285 286 287
f 285 287 288
f 289 290 291
f 289 291 292
f 293 294 295
f 293 295 296
f 297 298 299
f 297 299 300
f 301 302 303
f 301 303 304
f 305 306 307
f 305 307 308
f 309 310 311
f 309 311 312
f 313 314 315
f 313 315 316
f 317 318 319
f 317 319 320
f 321 322 323
f 321 323 324
f 325 326 327
f 325 327 328
f 329 330 331
f 329 331 332
f 333 334 335
f 333 335 336
f 337 338 339
f 337 339 340
f 341 342 343
f 341 343 344
f 345 346 347
f 345 347 348
f 349 350 351
f 349 351 352
f 353 354 355
f 353 355 356
f 357 358 359
f 357 359 360
f 361 362 363
f 361 363 364
f 365 366 367
f 365 367 368
f 369 370 371
f 369 371 372
f 373 374 375
f 373 375 376
f 377 378 379
f 377 379 380
f 381 382 383
f 381 383 384
f 385 386 387
f 385 387 388
f 389 390 391
f 389 391 392
f 393 394 395
f 393 395 396
f 397 398 399
f 397 400 398
f 401 398 400
f 401 402 398
f 403 404 405
f 403 405 406
f 407 408 409
f 407 409 410
f 411 412 413
f 411 413 414
f 415 416 417
f 415 417 418
f 419 420 421
f 419 421 422
f 423 424 425
f 423 425 426
f 427 428 429
f 427 429 430
f 431 432 433
f 431 433 434
f 435 436 437
f 435 437 438
f 439 440 441
f 439 441 442
f 443 444 445
f 443 445 446
f 447 448 449
f 447 449 450
f 451 452 453
f 451 453 454
f 455 456 457
f 455 457 458
f 459 460 461
f 459 461 462
f 463 464 465
f 463 465 466
f 467 468 469
f 467 469 470
f 471 472 473
f 471 473 474
f 475 476 477
f 475 477 478
f 479 480 481
f 479 481 482
f 483 484 485
f 483 485 486
f 487 488 489
f 487 489 490
f 491 492 493
f 491 493 494
f 495 496 497
f 495 497 498
f 499 500 501
f 499 501 502
f 503 504 505
f 503 505 506
f 507 508 509
f 507 509 510
f 511 512 513
f 511 513 514
f 515 516 517
f 515 517 518
f 519 520 521
f 519 521 522
f 523 524 525
f 523 525 526
f 527 528 529
f 527 529 530
f 531 532 533
f 531 533 534
f 535 536 537
f 535 537 538
f 539 540 541
f 539 541 542
f 543 544 545
f 543 545 546
f 547 548 549
f 547 549 550
f 551 552 553
f 551 553 554
f 555 556 557
f 555 557 558
f 559 560 561
f 559 561 562
f 563 564 565
f 563 565 566
f 567 568 569
f 567 569 570
f 571 572 573
f 571 573 574
f 575 576 577
f 575 577 578
f 579 580 581
f 579 581 582
f 583 584 585
f 583 585 586
f 587 588 589
f 587 589 590
f 591 592 593
f 591 593 594
f 595 596 597
f 595 597 598
f 599 600 601
f 599 601 602
f 603 604 605
f 603 605 606
f 607 608 609
f 607 609 610
f 611 612 613
f 611 613 614
f 615 616 617
f 615 617 618
f 619 620 621
f 619 621 622
f 623 624 625
f 623 625 626
f 627 628 629
f 627 629 630
f 631 632 633
f 631 633 634
f 635 636 637
f 635 637 638
f 639 640 641
f 639 641 642
f 643 644 645
f 643 645 646
f 647 648 649
f 647 649 650
f 651 652 653
f 651 653 654
f 655 656 657
f 655 657 658
f 659 660 661
f 659 661 662
f 663 664 665
f 663 665 666
