mtllib Materials.mtl
# Ultimate Food Pack - Bottle1
o Bottle1
v -0.159692 0.624035 -0.159692
v -0.225838 0.624035 0.000000
v -0.225838 0.699137 0.000000
v -0.159692 0.699137 -0.159692
v -0.159692 0.624035 0.159692
v 0.000000 0.624035 0.225838
v 0.000000 0.699137 0.225838
v -0.159692 0.699137 0.159692
v 0.000000 0.624035 0.225838
v 0.159692 0.624035 0.159691
v 0.159692 0.699137 0.159691
v 0.000000 0.699137 0.225838
v 0.159692 0.624035 0.159691
v 0.225838 0.624035 0.000000
v 0.225838 0.699137 0.000000
v 0.159692 0.699137 0.159691
v 0.225838 0.624035 0.000000
v 0.159692 0.624035 -0.159692
v 0.159692 0.699137 -0.159692
v 0.225838 0.699137 0.000000
v -0.108075 1.062499 0.000000
v -0.077878 1.439211 0.000000
v -0.055068 1.439211 -0.055068
v -0.076421 1.062499 -0.076421
v 0.159692 0.624035 -0.159692
v 0.000000 0.624035 -0.225838
v 0.000000 0.699137 -0.225838
v 0.159692 0.699137 -0.159692
v -0.225838 0.624035 0.000000
v -0.159692 0.624035 0.159692
v -0.159692 0.699137 0.159692
v -0.225838 0.699137 0.000000
v 0.000000 0.952917 0.140581
v 0.000000 1.062499 0.108075
v -0.076421 1.062499 0.076421
v -0.099406 0.952917 0.099406
v 0.000000 0.028715 -0.225838
v 0.000000 -0.001084 -0.194817
v -0.137756 -0.001084 -0.137756
v -0.159692 0.028715 -0.159692
v -0.159692 0.028715 -0.159692
v -0.137756 -0.001084 -0.137756
v -0.194817 -0.001084 0.000000
v -0.225838 0.028715 0.000000
v -0.225838 0.028715 0.000000
v -0.194817 -0.001084 0.000000
v -0.137756 -0.001084 0.137756
v -0.159692 0.028715 0.159692
v -0.159692 0.028715 0.159692
v -0.137756 -0.001084 0.137756
v 0.000000 -0.001084 0.194817
v 0.000000 0.028715 0.225838
v 0.000000 0.028715 0.225838
v 0.000000 -0.001084 0.194817
v 0.137756 -0.001084 0.137756
v 0.159692 0.028715 0.159692
v 0.159692 0.028715 0.159692
v 0.137756 -0.001084 0.137756
v 0.194817 -0.001084 0.000000
v 0.225838 0.028715 0.000000
v 0.225838 0.028715 0.000000
v 0.194817 -0.001084 0.000000
v 0.137756 -0.001084 -0.137756
v 0.159692 0.028715 -0.159692
v 0.159692 0.028715 -0.159692
v 0.137756 -0.001084 -0.137756
v 0.000000 -0.001084 -0.194817
v 0.000000 0.028715 -0.225838
v -0.137756 -0.001084 0.137756
v -0.194817 -0.001084 0.000000
v -0.137756 -0.001084 -0.137756
v 0.000000 -0.001084 0.194817
v 0.000000 -0.001084 -0.194817
v 0.137756 -0.001084 -0.137756
v 0.137756 -0.001084 0.137756
v 0.194817 -0.001084 0.000000
v -0.159692 0.699137 -0.159692
v -0.143925 0.821703 -0.143925
v 0.000000 0.821703 -0.203541
v 0.000000 0.699137 -0.225838
v -0.143925 0.821703 -0.143925
v -0.099406 0.952917 -0.099406
v 0.000000 0.952917 -0.140581
v 0.000000 0.821703 -0.203541
v -0.225838 0.699137 0.000000
v -0.203541 0.821703 0.000000
v -0.143925 0.821703 -0.143925
v -0.159692 0.699137 -0.159692
v -0.203541 0.821703 0.000000
v -0.140581 0.952917 0.000000
v -0.099406 0.952917 -0.099406
v -0.143925 0.821703 -0.143925
v -0.159692 0.699137 0.159692
v -0.143925 0.821703 0.143925
v -0.203541 0.821703 0.000000
v -0.225838 0.699137 0.000000
v -0.143925 0.821703 0.143925
v -0.099406 0.952917 0.099406
v -0.140581 0.952917 0.000000
v -0.203541 0.821703 0.000000
v 0.000000 0.699137 0.225838
v 0.000000 0.821703 0.203541
v -0.143925 0.821703 0.143925
v -0.159692 0.699137 0.159692
v 0.000000 0.821703 0.203541
v 0.000000 0.952917 0.140581
v -0.099406 0.952917 0.099406
v -0.143925 0.821703 0.143925
v 0.159692 0.699137 0.159691
v 0.143925 0.821703 0.143925
v 0.000000 0.821703 0.203541
v 0.000000 0.699137 0.225838
v 0.143925 0.821703 0.143925
v 0.099406 0.952917 0.099406
v 0.000000 0.952917 0.140581
v 0.000000 0.821703 0.203541
v 0.225838 0.699137 0.000000
v 0.203541 0.821703 0.000000
v 0.143925 0.821703 0.143925
v 0.159692 0.699137 0.159691
v 0.203541 0.821703 0.000000
v 0.140581 0.952917 0.000000
v 0.099406 0.952917 0.099406
v 0.143925 0.821703 0.143925
v 0.159692 0.699137 -0.159692
v 0.143925 0.821703 -0.143925
v 0.203541 0.821703 0.000000
v 0.225838 0.699137 0.000000
v 0.143925 0.821703 -0.143925
v 0.099406 0.952917 -0.099406
v 0.140581 0.952917 0.000000
v 0.203541 0.821703 0.000000
v 0.000000 0.699137 -0.225838
v 0.000000 0.821703 -0.203541
v 0.143925 0.821703 -0.143925
v 0.159692 0.699137 -0.159692
v 0.000000 0.821703 -0.203541
v 0.000000 0.952917 -0.140581
v 0.099406 0.952917 -0.099406
v 0.143925 0.821703 -0.143925
v 0.000000 0.624035 -0.225838
v -0.159692 0.624035 -0.159692
v -0.159692 0.699137 -0.159692
v 0.000000 0.699137 -0.225838
v 0.000000 0.952917 -0.140581
v 0.000000 1.062499 -0.108075
v 0.076421 1.062499 -0.076421
v 0.099406 0.952917 -0.099406
v -0.099406 0.952917 -0.099406
v -0.076421 1.062499 -0.076421
v 0.000000 1.062499 -0.108075
v 0.000000 0.952917 -0.140581
v 0.099406 0.952917 0.099406
v 0.076421 1.062499 0.076420
v 0.000000 1.062499 0.108075
v 0.000000 0.952917 0.140581
v -0.140581 0.952917 0.000000
v -0.108075 1.062499 0.000000
v -0.076421 1.062499 -0.076421
v -0.099406 0.952917 -0.099406
v 0.140581 0.952917 0.000000
v 0.108075 1.062499 0.000000
v 0.076421 1.062499 0.076420
v 0.099406 0.952917 0.099406
v -0.099406 0.952917 0.099406
v -0.076421 1.062499 0.076421
v -0.108075 1.062499 0.000000
v -0.140581 0.952917 0.000000
v 0.099406 0.952917 -0.099406
v 0.076421 1.062499 -0.076421
v 0.108075 1.062499 0.000000
v 0.140581 0.952917 0.000000
v 0.000000 1.439211 0.077877
v 0.000000 1.466479 0.096191
v -0.068017 1.466479 0.068017
v -0.055068 1.439211 0.055068
v -0.076421 1.062499 0.076421
v -0.055068 1.439211 0.055068
v -0.077878 1.439211 0.000000
v -0.108075 1.062499 0.000000
v 0.108075 1.062499 0.000000
v 0.077878 1.439211 0.000000
v 0.055068 1.439211 0.055068
v 0.076421 1.062499 0.076420
v 0.076421 1.062499 -0.076421
v 0.055068 1.439211 -0.055068
v 0.077878 1.439211 0.000000
v 0.108075 1.062499 0.000000
v 0.000000 1.062499 0.108075
v 0.000000 1.439211 0.077877
v -0.055068 1.439211 0.055068
v -0.076421 1.062499 0.076421
v 0.076421 1.062499 0.076420
v 0.055068 1.439211 0.055068
v 0.000000 1.439211 0.077877
v 0.000000 1.062499 0.108075
v 0.000000 1.062499 -0.108075
v 0.000000 1.439211 -0.077878
v 0.055068 1.439211 -0.055068
v 0.076421 1.062499 -0.076421
v -0.076421 1.062499 -0.076421
v -0.055068 1.439211 -0.055068
v 0.000000 1.439211 -0.077878
v 0.000000 1.062499 -0.108075
v -0.068017 1.466479 -0.068017
v -0.055918 1.497617 -0.055919
v 0.000000 1.497617 -0.079081
v 0.000000 1.466479 -0.096191
v 0.000000 1.439211 -0.077878
v 0.000000 1.466479 -0.096191
v 0.068017 1.466479 -0.068017
v 0.055068 1.439211 -0.055068
v -0.055068 1.439211 0.055068
v -0.068017 1.466479 0.068017
v -0.096191 1.466479 0.000000
v -0.077878 1.439211 0.000000
v 0.055068 1.439211 -0.055068
v 0.068017 1.466479 -0.068017
v 0.096191 1.466479 0.000000
v 0.077878 1.439211 0.000000
v -0.077878 1.439211 0.000000
v -0.096191 1.466479 0.000000
v -0.068017 1.466479 -0.068017
v -0.055068 1.439211 -0.055068
v 0.077878 1.439211 0.000000
v 0.096191 1.466479 0.000000
v 0.068017 1.466479 0.068017
v 0.055068 1.439211 0.055068
v -0.055068 1.439211 -0.055068
v -0.068017 1.466479 -0.068017
v 0.000000 1.466479 -0.096191
v 0.000000 1.439211 -0.077878
v 0.055068 1.439211 0.055068
v 0.068017 1.466479 0.068017
v 0.000000 1.466479 0.096191
v 0.000000 1.439211 0.077877
v -0.079080 1.497617 0.000000
v -0.080274 1.529195 0.000000
v -0.056762 1.529195 -0.056763
v -0.055918 1.497617 -0.055919
v 0.068017 1.466479 0.068017
v 0.055919 1.497617 0.055918
v 0.000000 1.497617 0.079080
v 0.000000 1.466479 0.096191
v 0.000000 1.466479 0.096191
v 0.000000 1.497617 0.079080
v -0.055918 1.497617 0.055918
v -0.068017 1.466479 0.068017
v 0.000000 1.466479 -0.096191
v 0.000000 1.497617 -0.079081
v 0.055919 1.497617 -0.055919
v 0.068017 1.466479 -0.068017
v -0.068017 1.466479 0.068017
v -0.055918 1.497617 0.055918
v -0.079080 1.497617 0.000000
v -0.096191 1.466479 0.000000
v 0.068017 1.466479 -0.068017
v 0.055919 1.497617 -0.055919
v 0.079081 1.497617 0.000000
v 0.096191 1.466479 0.000000
v -0.096191 1.466479 0.000000
v -0.079080 1.497617 0.000000
v -0.055918 1.497617 -0.055919
v -0.068017 1.466479 -0.068017
v 0.096191 1.466479 0.000000
v 0.079081 1.497617 0.000000
v 0.055919 1.497617 0.055918
v 0.068017 1.466479 0.068017
v 0.079081 1.497617 0.000000
v 0.080274 1.529195 0.000000
v 0.056762 1.529195 0.056762
v 0.055919 1.497617 0.055918
v -0.055918 1.497617 -0.055919
v -0.056762 1.529195 -0.056763
v 0.000000 1.529195 -0.080274
v 0.000000 1.497617 -0.079081
v 0.055919 1.497617 0.055918
v 0.056762 1.529195 0.056762
v 0.000000 1.529195 0.080274
v 0.000000 1.497617 0.079080
v 0.000000 1.497617 0.079080
v 0.000000 1.529195 0.080274
v -0.056762 1.529195 0.056762
v -0.055918 1.497617 0.055918
v 0.000000 1.497617 -0.079081
v 0.000000 1.529195 -0.080274
v 0.056762 1.529195 -0.056763
v 0.055919 1.497617 -0.055919
v -0.055918 1.497617 0.055918
v -0.056762 1.529195 0.056762
v -0.080274 1.529195 0.000000
v -0.079080 1.497617 0.000000
v 0.055919 1.497617 -0.055919
v 0.056762 1.529195 -0.056763
v 0.080274 1.529195 0.000000
v 0.079081 1.497617 0.000000
v -0.159692 0.028715 -0.159692
v -0.225838 0.028715 0.000000
v -0.225838 0.213154 0.000000
v -0.159692 0.213154 -0.159692
v -0.159692 0.028715 0.159692
v 0.000000 0.028715 0.225838
v 0.000000 0.213155 0.225838
v -0.159692 0.213154 0.159692
v 0.000000 0.028715 0.225838
v 0.159692 0.028715 0.159692
v 0.159692 0.213154 0.159692
v 0.000000 0.213155 0.225838
v 0.159692 0.028715 0.159692
v 0.225838 0.028715 0.000000
v 0.225838 0.213154 0.000000
v 0.159692 0.213154 0.159692
v 0.225838 0.028715 0.000000
v 0.159692 0.028715 -0.159692
v 0.159692 0.213154 -0.159692
v 0.225838 0.213154 0.000000
v 0.159692 0.028715 -0.159692
v 0.000000 0.028715 -0.225838
v 0.000000 0.213154 -0.225838
v 0.159692 0.213154 -0.159692
v -0.225838 0.028715 0.000000
v -0.159692 0.028715 0.159692
v -0.159692 0.213154 0.159692
v -0.225838 0.213154 0.000000
v 0.000000 0.028715 -0.225838
v -0.159692 0.028715 -0.159692
v -0.159692 0.213154 -0.159692
v 0.000000 0.213154 -0.225838
v 0.069940 1.529195 -0.069940
v 0.056002 1.562721 -0.056002
v 0.079198 1.562721 0.000000
v 0.098909 1.529195 0.000000
v -0.056001 1.562721 -0.056002
v -0.079198 1.562721 0.000000
v -0.056001 1.562721 0.056001
v 0.000000 1.562721 -0.079198
v 0.000000 1.562721 0.079198
v 0.056002 1.562721 -0.056002
v 0.056002 1.562721 0.056001
v 0.079198 1.562721 0.000000
v -0.098909 1.529195 0.000000
v -0.079198 1.562721 0.000000
v -0.056001 1.562721 -0.056002
v -0.069939 1.529195 -0.069940
v 0.098909 1.529195 0.000000
v 0.079198 1.562721 0.000000
v 0.056002 1.562721 0.056001
v 0.069940 1.529195 0.069939
v -0.069939 1.529195 -0.069940
v -0.056001 1.562721 -0.056002
v 0.000000 1.562721 -0.079198
v 0.000000 1.529195 -0.098909
v 0.069940 1.529195 0.069939
v 0.056002 1.562721 0.056001
v 0.000000 1.562721 0.079198
v 0.000000 1.529195 0.098909
v 0.000000 1.529195 0.098909
v 0.000000 1.562721 0.079198
v -0.056001 1.562721 0.056001
v -0.069939 1.529195 0.069939
v 0.000000 1.529195 -0.098909
v 0.000000 1.562721 -0.079198
v 0.056002 1.562721 -0.056002
v 0.069940 1.529195 -0.069940
v -0.069939 1.529195 0.069939
v -0.056001 1.562721 0.056001
v -0.079198 1.562721 0.000000
v -0.098909 1.529195 0.000000
v 0.056762 1.529195 0.056762
v 0.000000 1.529195 0.098909
v 0.000000 1.529195 0.080274
v 0.069940 1.529195 0.069939
v -0.069939 1.529195 0.069939
v 0.080274 1.529195 0.000000
v -0.056762 1.529195 0.056762
v 0.098909 1.529195 0.000000
v -0.098909 1.529195 0.000000
v 0.056762 1.529195 -0.056763
v -0.080274 1.529195 0.000000
v 0.069940 1.529195 -0.069940
v -0.069939 1.529195 -0.069940
v 0.000000 1.529195 -0.080274
v -0.056762 1.529195 -0.056763
v 0.000000 1.529195 -0.098909
vn -0.923880 0.000000 -0.382683
vn -0.923880 0.000000 -0.382683
vn -0.923880 0.000000 -0.382683
vn -0.923880 0.000000 -0.382683
vn -0.382684 0.000000 0.923880
vn -0.382684 0.000000 0.923880
vn -0.382684 0.000000 0.923880
vn -0.382684 0.000000 0.923880
vn 0.382684 0.000000 0.923880
vn 0.382684 0.000000 0.923880
vn 0.382684 0.000000 0.923880
vn 0.382684 0.000000 0.923880
vn 0.923880 0.000000 0.382683
vn 0.923880 0.000000 0.382683
vn 0.923880 0.000000 0.382683
vn 0.923880 0.000000 0.382683
vn 0.923880 0.000000 -0.382683
vn 0.923880 0.000000 -0.382683
vn 0.923880 0.000000 -0.382683
vn 0.923880 0.000000 -0.382683
vn -0.921356 0.073857 -0.381638
vn -0.921356 0.073857 -0.381638
vn -0.921356 0.073857 -0.381638
vn -0.921356 0.073857 -0.381638
vn 0.382684 0.000000 -0.923880
vn 0.382684 0.000000 -0.923880
vn 0.382684 0.000000 -0.923880
vn 0.382684 0.000000 -0.923880
vn -0.923880 0.000000 0.382683
vn -0.923880 0.000000 0.382683
vn -0.923880 0.000000 0.382683
vn -0.923880 0.000000 0.382683
vn -0.369075 0.264309 0.891025
vn -0.369075 0.264309 0.891025
vn -0.369075 0.264309 0.891025
vn -0.369075 0.264309 0.891025
vn -0.275820 -0.693192 -0.665889
vn -0.275820 -0.693192 -0.665889
vn -0.275820 -0.693192 -0.665889
vn -0.275820 -0.693192 -0.665889
vn -0.665889 -0.693192 -0.275820
vn -0.665889 -0.693192 -0.275820
vn -0.665889 -0.693192 -0.275820
vn -0.665889 -0.693192 -0.275820
vn -0.665889 -0.693192 0.275820
vn -0.665889 -0.693192 0.275820
vn -0.665889 -0.693192 0.275820
vn -0.665889 -0.693192 0.275820
vn -0.275820 -0.693192 0.665889
vn -0.275820 -0.693192 0.665889
vn -0.275820 -0.693192 0.665889
vn -0.275820 -0.693192 0.665889
vn 0.275820 -0.693192 0.665889
vn 0.275820 -0.693192 0.665889
vn 0.275820 -0.693192 0.665889
vn 0.275820 -0.693192 0.665889
vn 0.665889 -0.693192 0.275820
vn 0.665889 -0.693192 0.275820
vn 0.665889 -0.693192 0.275820
vn 0.665889 -0.693192 0.275820
vn 0.665889 -0.693192 -0.275820
vn 0.665889 -0.693192 -0.275820
vn 0.665889 -0.693192 -0.275820
vn 0.665889 -0.693192 -0.275820
vn 0.275820 -0.693192 -0.665889
vn 0.275820 -0.693192 -0.665889
vn 0.275820 -0.693192 -0.665889
vn 0.275820 -0.693192 -0.665889
vn 0.000000 -1.000000 0.000000
vn 0.000000 -1.000000 0.000000
vn 0.000000 -1.000000 0.000000
vn 0.000000 -1.000000 0.000000
vn 0.000000 -1.000000 0.000000
vn 0.000000 -1.000000 0.000000
vn 0.000000 -1.000000 0.000000
vn 0.000000 -1.000000 0.000000
vn -0.377390 0.165748 -0.911101
vn -0.377390 0.165748 -0.911101
vn -0.377390 0.165748 -0.911101
vn -0.377390 0.165748 -0.911101
vn -0.349849 0.405265 -0.844610
vn -0.349849 0.405265 -0.844610
vn -0.349849 0.405265 -0.844610
vn -0.349849 0.405265 -0.844610
vn -0.911101 0.165748 -0.377390
vn -0.911101 0.165748 -0.377390
vn -0.911101 0.165748 -0.377390
vn -0.911101 0.165748 -0.377390
vn -0.844610 0.405265 -0.349849
vn -0.844610 0.405265 -0.349849
vn -0.844610 0.405265 -0.349849
vn -0.844610 0.405265 -0.349849
vn -0.911101 0.165748 0.377390
vn -0.911101 0.165748 0.377390
vn -0.911101 0.165748 0.377390
vn -0.911101 0.165748 0.377390
vn -0.844610 0.405265 0.349849
vn -0.844610 0.405265 0.349849
vn -0.844610 0.405265 0.349849
vn -0.844610 0.405265 0.349849
vn -0.377390 0.165748 0.911101
vn -0.377390 0.165748 0.911101
vn -0.377390 0.165748 0.911101
vn -0.377390 0.165748 0.911101
vn -0.349849 0.405265 0.844610
vn -0.349849 0.405265 0.844610
vn -0.349849 0.405265 0.844610
vn -0.349849 0.405265 0.844610
vn 0.377390 0.165748 0.911101
vn 0.377390 0.165748 0.911101
vn 0.377390 0.165748 0.911101
vn 0.377390 0.165748 0.911101
vn 0.349849 0.405265 0.844610
vn 0.349849 0.405265 0.844610
vn 0.349849 0.405265 0.844610
vn 0.349849 0.405265 0.844610
vn 0.911101 0.165748 0.377390
vn 0.911101 0.165748 0.377390
vn 0.911101 0.165748 0.377390
vn 0.911101 0.165748 0.377390
vn 0.844610 0.405265 0.349849
vn 0.844610 0.405265 0.349849
vn 0.844610 0.405265 0.349849
vn 0.844610 0.405265 0.349849
vn 0.911101 0.165748 -0.377390
vn 0.911101 0.165748 -0.377390
vn 0.911101 0.165748 -0.377390
vn 0.911101 0.165748 -0.377390
vn 0.844610 0.405265 -0.349849
vn 0.844610 0.405265 -0.349849
vn 0.844610 0.405265 -0.349849
vn 0.844610 0.405265 -0.349849
vn 0.377390 0.165748 -0.911101
vn 0.377390 0.165748 -0.911101
vn 0.377390 0.165748 -0.911101
vn 0.377390 0.165748 -0.911101
vn 0.349849 0.405265 -0.844610
vn 0.349849 0.405265 -0.844610
vn 0.349849 0.405265 -0.844610
vn 0.349849 0.405265 -0.844610
vn -0.382684 0.000000 -0.923880
vn -0.382684 0.000000 -0.923880
vn -0.382684 0.000000 -0.923880
vn -0.382684 0.000000 -0.923880
vn 0.369075 0.264308 -0.891025
vn 0.369075 0.264308 -0.891025
vn 0.369075 0.264308 -0.891025
vn 0.369075 0.264308 -0.891025
vn -0.369075 0.264308 -0.891025
vn -0.369075 0.264308 -0.891025
vn -0.369075 0.264308 -0.891025
vn -0.369075 0.264308 -0.891025
vn 0.369075 0.264309 0.891025
vn 0.369075 0.264309 0.891025
vn 0.369075 0.264309 0.891025
vn 0.369075 0.264309 0.891025
vn -0.891025 0.264308 -0.369074
vn -0.891025 0.264308 -0.369074
vn -0.891025 0.264308 -0.369074
vn -0.891025 0.264308 -0.369074
vn 0.891025 0.264308 0.369074
vn 0.891025 0.264308 0.369074
vn 0.891025 0.264308 0.369074
vn 0.891025 0.264308 0.369074
vn -0.891025 0.264309 0.369075
vn -0.891025 0.264309 0.369075
vn -0.891025 0.264309 0.369075
vn -0.891025 0.264309 0.369075
vn 0.891025 0.264308 -0.369075
vn 0.891025 0.264308 -0.369075
vn 0.891025 0.264308 -0.369075
vn 0.891025 0.264308 -0.369075
vn -0.325175 -0.527231 0.785041
vn -0.325175 -0.527231 0.785041
vn -0.325175 -0.527231 0.785041
vn -0.325175 -0.527231 0.785041
vn -0.921356 0.073857 0.381638
vn -0.921356 0.073857 0.381638
vn -0.921356 0.073857 0.381638
vn -0.921356 0.073857 0.381638
vn 0.921356 0.073856 0.381638
vn 0.921356 0.073856 0.381638
vn 0.921356 0.073856 0.381638
vn 0.921356 0.073856 0.381638
vn 0.921356 0.073856 -0.381638
vn 0.921356 0.073856 -0.381638
vn 0.921356 0.073856 -0.381638
vn 0.921356 0.073856 -0.381638
vn -0.381638 0.073857 0.921356
vn -0.381638 0.073857 0.921356
vn -0.381638 0.073857 0.921356
vn -0.381638 0.073857 0.921356
vn 0.381638 0.073856 0.921356
vn 0.381638 0.073856 0.921356
vn 0.381638 0.073856 0.921356
vn 0.381638 0.073856 0.921356
vn 0.381638 0.073856 -0.921356
vn 0.381638 0.073856 -0.921356
vn 0.381638 0.073856 -0.921356
vn 0.381638 0.073856 -0.921356
vn -0.381639 0.073856 -0.921356
vn -0.381639 0.073856 -0.921356
vn -0.381639 0.073856 -0.921356
vn -0.381639 0.073856 -0.921356
vn -0.341230 0.452670 -0.823803
vn -0.341230 0.452670 -0.823803
vn -0.341230 0.452670 -0.823803
vn -0.341230 0.452670 -0.823803
vn 0.325176 -0.527231 -0.785040
vn 0.325176 -0.527231 -0.785040
vn 0.325176 -0.527231 -0.785040
vn 0.325176 -0.527231 -0.785040
vn -0.785040 -0.527232 0.325175
vn -0.785040 -0.527232 0.325175
vn -0.785040 -0.527232 0.325175
vn -0.785040 -0.527232 0.325175
vn 0.785041 -0.527230 -0.325174
vn 0.785041 -0.527230 -0.325174
vn 0.785041 -0.527230 -0.325174
vn 0.785041 -0.527230 -0.325174
vn -0.785041 -0.527231 -0.325174
vn -0.785041 -0.527231 -0.325174
vn -0.785041 -0.527231 -0.325174
vn -0.785041 -0.527231 -0.325174
vn 0.785041 -0.527230 0.325174
vn 0.785041 -0.527230 0.325174
vn 0.785041 -0.527230 0.325174
vn 0.785041 -0.527230 0.325174
vn -0.325176 -0.527231 -0.785040
vn -0.325176 -0.527231 -0.785040
vn -0.325176 -0.527231 -0.785040
vn -0.325176 -0.527231 -0.785040
vn 0.325176 -0.527230 0.785041
vn 0.325176 -0.527230 0.785041
vn 0.325176 -0.527230 0.785041
vn 0.325176 -0.527230 0.785041
vn -0.923317 -0.034899 -0.382450
vn -0.923317 -0.034899 -0.382450
vn -0.923317 -0.034899 -0.382450
vn -0.923317 -0.034899 -0.382450
vn 0.341229 0.452671 0.823803
vn 0.341229 0.452671 0.823803
vn 0.341229 0.452671 0.823803
vn 0.341229 0.452671 0.823803
vn -0.341230 0.452671 0.823803
vn -0.341230 0.452671 0.823803
vn -0.341230 0.452671 0.823803
vn -0.341230 0.452671 0.823803
vn 0.341230 0.452671 -0.823803
vn 0.341230 0.452671 -0.823803
vn 0.341230 0.452671 -0.823803
vn 0.341230 0.452671 -0.823803
vn -0.823805 0.452668 0.341229
vn -0.823805 0.452668 0.341229
vn -0.823805 0.452668 0.341229
vn -0.823805 0.452668 0.341229
vn 0.823803 0.452671 -0.341230
vn 0.823803 0.452671 -0.341230
vn 0.823803 0.452671 -0.341230
vn 0.823803 0.452671 -0.341230
vn -0.823804 0.452670 -0.341230
vn -0.823804 0.452670 -0.341230
vn -0.823804 0.452670 -0.341230
vn -0.823804 0.452670 -0.341230
vn 0.823802 0.452672 0.341231
vn 0.823802 0.452672 0.341231
vn 0.823802 0.452672 0.341231
vn 0.823802 0.452672 0.341231
vn 0.923317 -0.034898 0.382449
vn 0.923317 -0.034898 0.382449
vn 0.923317 -0.034898 0.382449
vn 0.923317 -0.034898 0.382449
vn -0.382451 -0.034899 -0.923317
vn -0.382451 -0.034899 -0.923317
vn -0.382451 -0.034899 -0.923317
vn -0.382451 -0.034899 -0.923317
vn 0.382451 -0.034898 0.923317
vn 0.382451 -0.034898 0.923317
vn 0.382451 -0.034898 0.923317
vn 0.382451 -0.034898 0.923317
vn -0.382451 -0.034899 0.923317
vn -0.382451 -0.034899 0.923317
vn -0.382451 -0.034899 0.923317
vn -0.382451 -0.034899 0.923317
vn 0.382451 -0.034899 -0.923317
vn 0.382451 -0.034899 -0.923317
vn 0.382451 -0.034899 -0.923317
vn 0.382451 -0.034899 -0.923317
vn -0.923317 -0.034899 0.382450
vn -0.923317 -0.034899 0.382450
vn -0.923317 -0.034899 0.382450
vn -0.923317 -0.034899 0.382450
vn 0.923317 -0.034898 -0.382449
vn 0.923317 -0.034898 -0.382449
vn 0.923317 -0.034898 -0.382449
vn 0.923317 -0.034898 -0.382449
vn -0.923880 0.000000 -0.382683
vn -0.923880 0.000000 -0.382683
vn -0.923880 0.000000 -0.382683
vn -0.923880 0.000000 -0.382683
vn -0.382684 0.000000 0.923880
vn -0.382684 0.000000 0.923880
vn -0.382683 0.000000 0.923880
vn -0.382683 0.000000 0.923880
vn 0.382684 0.000000 0.923880
vn 0.382684 0.000000 0.923880
vn 0.382684 0.000000 0.923880
vn 0.382684 0.000000 0.923880
vn 0.923880 0.000000 0.382684
vn 0.923880 0.000000 0.382684
vn 0.923880 0.000000 0.382683
vn 0.923880 0.000000 0.382683
vn 0.923880 0.000000 -0.382684
vn 0.923880 0.000000 -0.382684
vn 0.923880 0.000000 -0.382683
vn 0.923880 0.000000 -0.382683
vn 0.382684 0.000000 -0.923880
vn 0.382684 0.000000 -0.923880
vn 0.382683 0.000000 -0.923880
vn 0.382683 0.000000 -0.923880
vn -0.923880 0.000000 0.382683
vn -0.923880 0.000000 0.382683
vn -0.923880 0.000000 0.382683
vn -0.923880 0.000000 0.382683
vn -0.382684 0.000000 -0.923880
vn -0.382684 0.000000 -0.923880
vn -0.382684 0.000000 -0.923880
vn -0.382684 0.000000 -0.923880
vn 0.811842 0.477318 -0.336276
vn 0.811842 0.477318 -0.336276
vn 0.811842 0.477318 -0.336276
vn 0.811842 0.477318 -0.336276
vn 0.000000 1.000000 0.000000
vn 0.000000 1.000000 0.000000
vn 0.000000 1.000000 0.000000
vn 0.000000 1.000000 0.000000
vn 0.000000 1.000000 0.000000
vn 0.000000 1.000000 0.000000
vn 0.000000 1.000000 0.000000
vn 0.000000 1.000000 0.000000
vn -0.811840 0.477319 -0.336277
vn -0.811840 0.477319 -0.336277
vn -0.811840 0.477319 -0.336277
vn -0.811840 0.477319 -0.336277
vn 0.811841 0.477319 0.336276
vn 0.811841 0.477319 0.336276
vn 0.811841 0.477319 0.336276
vn 0.811841 0.477319 0.336276
vn -0.336276 0.477318 -0.811841
vn -0.336276 0.477318 -0.811841
vn -0.336276 0.477318 -0.811841
vn -0.336276 0.477318 -0.811841
vn 0.336276 0.477318 0.811841
vn 0.336276 0.477318 0.811841
vn 0.336276 0.477318 0.811841
vn 0.336276 0.477318 0.811841
vn -0.336275 0.477318 0.811842
vn -0.336275 0.477318 0.811842
vn -0.336275 0.477318 0.811842
vn -0.336275 0.477318 0.811842
vn 0.336276 0.477318 -0.811841
vn 0.336276 0.477318 -0.811841
vn 0.336276 0.477318 -0.811841
vn 0.336276 0.477318 -0.811841
vn -0.811842 0.477317 0.336275
vn -0.811842 0.477317 0.336275
vn -0.811842 0.477317 0.336275
vn -0.811842 0.477317 0.336275
vn 0.000006 -1.000000 0.000000
vn 0.000000 -1.000000 0.000000
vn 0.000000 -1.000000 0.000000
vn 0.000006 -1.000000 0.000000
vn 0.000006 -1.000000 0.000000
vn -0.000006 -1.000000 0.000000
vn 0.000006 -1.000000 0.000000
vn -0.000006 -1.000000 0.000000
vn 0.000006 -1.000000 0.000000
vn 0.000000 -1.000000 0.000000
vn 0.000006 -1.000000 0.000000
vn 0.000000 -1.000000 0.000000
vn 0.000000 -1.000000 0.000000
vn 0.000000 -1.000000 0.000000
vn 0.000000 -1.000000 0.000000
vn 0.000000 -1.000000 0.000000
g Bottle1_DarkGreen
usemtl DarkGreen
f 1 2 3
f 1 3 4
f 5 6 7
f 5 7 8
f 9 10 11
f 9 11 12
f 13 14 15
f 13 15 16
f 17 18 19
f 17 19 20
f 21 22 23
f 21 23 24
f 25 26 27
f 25 27 28
f 29 30 31
f 29 31 32
f 33 34 35
f 33 35 36
f 37 38 39
f 37 39 40
f 41 42 43
f 41 43 44
f 45 46 47
f 45 47 48
f 49 50 51
f 49 51 52
f 53 54 55
f 53 55 56
f 57 58 59
f 57 59 60
f 61 62 63
f 61 63 64
f 65 66 67
f 65 67 68
f 69 70 71
f 71 72 69
f 71 73 72
f 73 74 72
f 74 75 72
f 74 76 75
f 77 78 79
f 77 79 80
f 81 82 83
f 81 83 84
f 85 86 87
f 85 87 88
f 89 90 91
f 89 91 92
f 93 94 95
f 93 95 96
f 97 98 99
f 97 99 100
f 101 102 103
f 101 103 104
f 105 106 107
f 105 107 108
f 109 110 111
f 109 111 112
f 113 114 115
f 113 115 116
f 117 118 119
f 117 119 120
f 121 122 123
f 121 123 124
f 125 126 127
f 125 127 128
f 129 130 131
f 129 131 132
f 133 134 135
f 133 135 136
f 137 138 139
f 137 139 140
f 141 142 143
f 141 143 144
f 145 146 147
f 145 147 148
f 149 150 151
f 149 151 152
f 153 154 155
f 153 155 156
f 157 158 159
f 157 159 160
f 161 162 163
f 161 163 164
f 165 166 167
f 165 167 168
f 169 170 171
f 169 171 172
f 173 174 175
f 173 175 176
f 177 178 179
f 177 179 180
f 181 182 183
f 181 183 184
f 185 186 187
f 185 187 188
f 189 190 191
f 189 191 192
f 193 194 195
f 193 195 196
f 197 198 199
f 197 199 200
f 201 202 203
f 201 203 204
f 205 206 207
f 205 207 208
f 209 210 211
f 209 211 212
f 213 214 215
f 213 215 216
f 217 218 219
f 217 219 220
f 221 222 223
f 221 223 224
f 225 226 227
f 225 227 228
f 229 230 231
f 229 231 232
f 233 234 235
f 233 235 236
f 237 238 239
f 237 239 240
f 241 242 243
f 241 243 244
f 245 246 247
f 245 247 248
f 249 250 251
f 249 251 252
f 253 254 255
f 253 255 256
f 257 258 259
f 257 259 260
f 261 262 263
f 261 263 264
f 265 266 267
f 265 267 268
f 269 270 271
f 269 271 272
f 273 274 275
f 273 275 276
f 277 278 279
f 277 279 280
f 281 282 283
f 281 283 284
f 285 286 287
f 285 287 288
f 289 290 291
f 289 291 292
f 293 294 295
f 293 295 296
f 297 298 299
f 297 299 300
f 301 302 303
f 301 303 304
f 305 306 307
f 305 307 308
f 309 310 311
f 309 311 312
f 313 314 315
f 313 315 316
f 317 318 319
f 317 319 320
f 321 322 323
f 321 323 324
f 325 326 327
f 325 327 328
g Bottle1_BottleCap
usemtl BottleCap
f 329 330 331
f 329 331 332
f 333 334 335
f 335 336 333
f 335 337 336
f 337 338 336
f 337 339 338
f 339 340 338
f 341 342 343
f 341 343 344
f 345 346 347
f 345 347 348
f 349 350 351
f 349 351 352
f 353 354 355
f 353 355 356
f 357 358 359
f 357 359 360
f 361 362 363
f 361 363 364
f 365 366 367
f 365 367 368
f 369 370 371
f 369 372 370
f 371 370 373
f 374 372 369
f 371 373 375
f 374 376 372
f 375 373 377
f 378 376 374
f 375 377 379
f 378 380 376
f 379 377 381
f 382 380 378
f 379 381 383
f 382 384 380
f 383 381 384
f 383 384 382
g Bottle1_LightBrown
usemtl LightBrown
f 328 327 142
f 328 142 141
f 324 323 30
f 324 30 29
f 320 319 26
f 320 26 25
f 316 315 18
f 316 18 17
f 312 311 14
f 312 14 13
f 308 307 10
f 308 10 9
f 304 303 6
f 304 6 5
f 300 299 2
f 300 2 1
