mtllib Materials.mtl
# Ultimate Food Pack - Bottle2
o Bottle2
v -0.159692 0.534746 -0.159692
v -0.225838 0.821177 0.000000
v -0.159692 0.821177 -0.159692
v -0.225838 0.534746 0.000000
v -0.159692 0.120149 -0.159692
v -0.225838 0.120149 0.000000
v -0.159692 0.028715 -0.159692
v -0.225838 0.028715 0.000000
v -0.159692 0.534746 0.159692
v 0.000000 0.534746 0.225838
v 0.000000 0.821177 0.225838
v -0.159692 0.821177 0.159691
v 0.000000 0.534746 0.225838
v 0.159692 0.534746 0.159692
v 0.159692 0.821177 0.159691
v 0.000000 0.821177 0.225838
v 0.159692 0.534746 0.159692
v 0.225838 0.821177 0.000000
v 0.159692 0.821177 0.159691
v 0.225838 0.534746 0.000000
v 0.159692 0.120149 0.159692
v 0.225838 0.120149 0.000000
v 0.159692 0.028715 0.159692
v 0.225838 0.028715 0.000000
v 0.225838 0.534746 0.000000
v 0.159692 0.821177 -0.159692
v 0.225838 0.821177 0.000000
v 0.159692 0.534746 -0.159692
v 0.225838 0.120149 0.000000
v 0.159692 0.120149 -0.159692
v 0.225838 0.028715 0.000000
v 0.159692 0.028715 -0.159692
v 0.159692 0.534746 -0.159692
v 0.000000 0.821177 -0.225838
v 0.159692 0.821177 -0.159692
v 0.000000 0.534746 -0.225838
v 0.159692 0.120149 -0.159692
v 0.000000 0.120149 -0.225838
v 0.159692 0.028715 -0.159692
v 0.000000 0.028715 -0.225838
v -0.225838 0.534746 0.000000
v -0.159692 0.821177 0.159691
v -0.225838 0.821177 0.000000
v -0.159692 0.534746 0.159692
v -0.225838 0.120149 0.000000
v -0.159692 0.120149 0.159692
v -0.225838 0.028715 0.000000
v -0.159692 0.028715 0.159692
v 0.000000 0.940300 0.110320
v 0.000000 1.112676 0.095002
v -0.067177 1.112676 0.067177
v -0.078008 0.940300 0.078008
v 0.000000 0.028715 -0.225838
v 0.000000 -0.001084 -0.194817
v -0.137756 -0.001084 -0.137756
v -0.159692 0.028715 -0.159692
v -0.159692 0.028715 -0.159692
v -0.137756 -0.001084 -0.137756
v -0.194817 -0.001084 0.000000
v -0.225838 0.028715 0.000000
v -0.225838 0.028715 0.000000
v -0.194817 -0.001084 0.000000
v -0.137756 -0.001084 0.137756
v -0.159692 0.028715 0.159692
v -0.159692 0.028715 0.159692
v -0.137756 -0.001084 0.137756
v 0.000000 -0.001084 0.194817
v 0.000000 0.028715 0.225838
v 0.000000 0.028715 0.225838
v 0.000000 -0.001084 0.194817
v 0.137756 -0.001084 0.137756
v 0.159692 0.028715 0.159692
v 0.159692 0.028715 0.159692
v 0.137756 -0.001084 0.137756
v 0.194817 -0.001084 0.000000
v 0.225838 0.028715 0.000000
v 0.225838 0.028715 0.000000
v 0.194817 -0.001084 0.000000
v 0.137756 -0.001084 -0.137756
v 0.159692 0.028715 -0.159692
v 0.159692 0.028715 -0.159692
v 0.137756 -0.001084 -0.137756
v 0.000000 -0.001084 -0.194817
v 0.000000 0.028715 -0.225838
v -0.137756 -0.001084 0.137756
v -0.194817 -0.001084 0.000000
v -0.137756 -0.001084 -0.137756
v 0.000000 -0.001084 0.194817
v 0.000000 -0.001084 -0.194817
v 0.137756 -0.001084 -0.137756
v 0.137756 -0.001084 0.137756
v 0.194817 -0.001084 0.000000
v -0.159692 0.821177 -0.159692
v -0.225838 0.821177 0.000000
v -0.110320 0.940300 0.000000
v -0.078008 0.940300 -0.078008
v -0.225838 0.821177 0.000000
v -0.159692 0.821177 0.159691
v -0.078008 0.940300 0.078008
v -0.110320 0.940300 0.000000
v -0.159692 0.821177 0.159691
v 0.000000 0.821177 0.225838
v 0.000000 0.940300 0.110320
v -0.078008 0.940300 0.078008
v 0.000000 0.821177 0.225838
v 0.159692 0.821177 0.159691
v 0.078008 0.940300 0.078008
v 0.000000 0.940300 0.110320
v 0.159692 0.821177 0.159691
v 0.225838 0.821177 0.000000
v 0.110320 0.940300 0.000000
v 0.078008 0.940300 0.078008
v 0.225838 0.821177 0.000000
v 0.159692 0.821177 -0.159692
v 0.078008 0.940300 -0.078008
v 0.110320 0.940300 0.000000
v 0.159692 0.821177 -0.159692
v 0.000000 0.821177 -0.225838
v 0.000000 0.940300 -0.110320
v 0.078008 0.940300 -0.078008
v 0.000000 0.534746 -0.225838
v -0.159692 0.821177 -0.159692
v 0.000000 0.821177 -0.225838
v -0.159692 0.534746 -0.159692
v 0.000000 0.120149 -0.225838
v -0.159692 0.120149 -0.159692
v 0.000000 0.028715 -0.225838
v -0.159692 0.028715 -0.159692
v 0.000000 0.940300 -0.110320
v 0.000000 1.112676 -0.095003
v 0.067177 1.112676 -0.067177
v 0.078008 0.940300 -0.078008
v -0.078008 0.940300 -0.078008
v -0.067177 1.112676 -0.067177
v 0.000000 1.112676 -0.095003
v 0.000000 0.940300 -0.110320
v 0.078008 0.940300 0.078008
v 0.067177 1.112676 0.067177
v 0.000000 1.112676 0.095002
v 0.000000 0.940300 0.110320
v -0.110320 0.940300 0.000000
v -0.095003 1.112676 0.000000
v -0.067177 1.112676 -0.067177
v -0.078008 0.940300 -0.078008
v 0.110320 0.940300 0.000000
v 0.095003 1.112676 0.000000
v 0.067177 1.112676 0.067177
v 0.078008 0.940300 0.078008
v -0.078008 0.940300 0.078008
v -0.067177 1.112676 0.067177
v -0.095003 1.112676 0.000000
v -0.110320 0.940300 0.000000
v 0.078008 0.940300 -0.078008
v 0.067177 1.112676 -0.067177
v 0.095003 1.112676 0.000000
v 0.110320 0.940300 0.000000
v -0.159692 0.028715 0.159692
v 0.000000 0.028715 0.225838
v 0.000000 0.120149 0.225838
v -0.159692 0.120149 0.159692
v 0.000000 0.028715 0.225838
v 0.159692 0.028715 0.159692
v 0.159692 0.120149 0.159692
v 0.000000 0.120149 0.225838
v 0.000000 0.821177 -0.225838
v -0.159692 0.821177 -0.159692
v -0.078008 0.940300 -0.078008
v 0.000000 0.940300 -0.110320
v -0.067177 1.112676 -0.067177
v -0.064434 1.248929 -0.064435
v 0.000000 1.248929 -0.091124
v 0.000000 1.112676 -0.095003
v 0.000000 1.112676 -0.095003
v 0.000000 1.248929 -0.091124
v 0.064435 1.248929 -0.064435
v 0.067177 1.112676 -0.067177
v 0.067177 1.112676 0.067177
v 0.064435 1.248929 0.064434
v 0.000000 1.248929 0.091124
v 0.000000 1.112676 0.095002
v 0.000000 1.112676 0.095002
v 0.000000 1.248929 0.091124
v -0.064434 1.248929 0.064434
v -0.067177 1.112676 0.067177
v 0.067177 1.112676 -0.067177
v 0.064435 1.248929 -0.064435
v 0.091124 1.248929 0.000000
v 0.095003 1.112676 0.000000
v 0.095003 1.112676 0.000000
v 0.091124 1.248929 0.000000
v 0.064435 1.248929 0.064434
v 0.067177 1.112676 0.067177
v -0.067177 1.112676 0.067177
v -0.064434 1.248929 0.064434
v -0.091124 1.248929 0.000000
v -0.095003 1.112676 0.000000
v -0.095003 1.112676 0.000000
v -0.091124 1.248929 0.000000
v -0.064434 1.248929 -0.064435
v -0.067177 1.112676 -0.067177
v -0.077878 1.439211 0.000000
v -0.055068 1.439211 -0.055068
v -0.055068 1.439211 0.055068
v -0.077878 1.439211 0.000000
v 0.077878 1.439211 0.000000
v 0.055068 1.439211 0.055068
v 0.055068 1.439211 -0.055068
v 0.077878 1.439211 0.000000
v 0.000000 1.439211 0.077877
v -0.055068 1.439211 0.055068
v 0.055068 1.439211 0.055068
v 0.000000 1.439211 0.077877
v 0.000000 1.439211 -0.077878
v 0.055068 1.439211 -0.055068
v -0.055068 1.439211 -0.055068
v 0.000000 1.439211 -0.077878
v 0.093656 1.520876 0.000000
v 0.066225 1.520876 -0.066225
v 0.056530 1.529230 -0.056530
v 0.079945 1.529230 0.000000
v -0.066225 1.520876 0.066225
v 0.000000 1.520876 0.093656
v 0.000000 1.529230 0.079945
v -0.056530 1.529230 0.056530
v 0.066225 1.520876 -0.066225
v 0.000000 1.520876 -0.093657
v 0.000000 1.529230 -0.079945
v 0.056530 1.529230 -0.056530
v -0.093656 1.520876 0.000000
v -0.066225 1.520876 0.066225
v -0.056530 1.529230 0.056530
v -0.079945 1.529230 0.000000
v -0.066225 1.520876 -0.066225
v -0.093656 1.520876 0.000000
v -0.079945 1.529230 0.000000
v -0.056530 1.529230 -0.056530
v 0.066225 1.520876 0.066225
v 0.093656 1.520876 0.000000
v 0.079945 1.529230 0.000000
v 0.056530 1.529230 0.056530
v -0.066225 1.520876 -0.066225
v -0.056530 1.529230 -0.056530
v 0.000000 1.529230 -0.079945
v 0.000000 1.520876 -0.093657
v 0.000000 1.520876 0.093656
v 0.066225 1.520876 0.066225
v 0.056530 1.529230 0.056530
v 0.000000 1.529230 0.079945
v 0.000000 1.449668 0.098115
v 0.069378 1.449668 0.069378
v 0.066225 1.520876 0.066225
v 0.000000 1.520876 0.093656
v -0.069378 1.449668 -0.069378
v -0.066225 1.520876 -0.066225
v 0.000000 1.520876 -0.093657
v 0.000000 1.449668 -0.098116
v -0.069378 1.449668 -0.069378
v -0.098116 1.449668 0.000000
v -0.093656 1.520876 0.000000
v -0.066225 1.520876 -0.066225
v 0.069378 1.449668 -0.069378
v 0.000000 1.449668 -0.098116
v 0.000000 1.520876 -0.093657
v 0.066225 1.520876 -0.066225
v 0.098116 1.449668 0.000000
v 0.069378 1.449668 -0.069378
v 0.066225 1.520876 -0.066225
v 0.093656 1.520876 0.000000
v 0.069378 1.449668 0.069378
v 0.098116 1.449668 0.000000
v 0.093656 1.520876 0.000000
v 0.066225 1.520876 0.066225
v -0.098116 1.449668 0.000000
v -0.069378 1.449668 0.069378
v -0.066225 1.520876 0.066225
v -0.093656 1.520876 0.000000
v -0.069378 1.449668 0.069378
v 0.000000 1.449668 0.098115
v 0.000000 1.520876 0.093656
v -0.066225 1.520876 0.066225
v -0.055068 1.439211 0.055068
v 0.000000 1.439211 0.077877
v 0.000000 1.449668 0.098115
v -0.069378 1.449668 0.069378
v -0.077878 1.439211 0.000000
v -0.055068 1.439211 0.055068
v -0.069378 1.449668 0.069378
v -0.098116 1.449668 0.000000
v 0.055068 1.439211 0.055068
v 0.077878 1.439211 0.000000
v 0.098116 1.449668 0.000000
v 0.069378 1.449668 0.069378
v 0.077878 1.439211 0.000000
v 0.055068 1.439211 -0.055068
v 0.069378 1.449668 -0.069378
v 0.098116 1.449668 0.000000
v 0.055068 1.439211 -0.055068
v 0.000000 1.439211 -0.077878
v 0.000000 1.449668 -0.098116
v 0.069378 1.449668 -0.069378
v -0.055068 1.439211 -0.055068
v -0.077878 1.439211 0.000000
v -0.098116 1.449668 0.000000
v -0.069378 1.449668 -0.069378
v -0.055068 1.439211 -0.055068
v -0.069378 1.449668 -0.069378
v 0.000000 1.449668 -0.098116
v 0.000000 1.439211 -0.077878
v 0.000000 1.439211 0.077877
v 0.055068 1.439211 0.055068
v 0.069378 1.449668 0.069378
v 0.000000 1.449668 0.098115
v 0.056530 1.529230 -0.056530
v 0.000000 1.529230 -0.079945
v 0.000000 1.599920 -0.079103
v 0.055934 1.599920 -0.055934
v -0.056530 1.529230 0.056530
v 0.000000 1.529230 0.079945
v 0.000000 1.599921 0.079103
v -0.055934 1.599921 0.055934
v -0.079945 1.529230 0.000000
v -0.056530 1.529230 0.056530
v -0.055934 1.599921 0.055934
v -0.079103 1.599920 0.000000
v 0.000000 1.529230 0.079945
v 0.056530 1.529230 0.056530
v 0.055934 1.599921 0.055934
v 0.000000 1.599921 0.079103
v -0.056530 1.529230 -0.056530
v -0.079945 1.529230 0.000000
v -0.079103 1.599920 0.000000
v -0.055934 1.599920 -0.055934
v 0.000000 1.529230 -0.079945
v -0.056530 1.529230 -0.056530
v -0.055934 1.599920 -0.055934
v 0.000000 1.599920 -0.079103
v 0.056530 1.529230 0.056530
v 0.079945 1.529230 0.000000
v 0.079103 1.599920 0.000000
v 0.055934 1.599921 0.055934
v -0.038876 1.621995 -0.038876
v -0.054979 1.621995 0.000000
v -0.038876 1.621996 0.038876
v 0.000000 1.621995 -0.054979
v 0.000000 1.621996 0.054978
v 0.038876 1.621995 -0.038876
v 0.038876 1.621996 0.038876
v 0.054979 1.621995 0.000000
v 0.054979 1.621995 0.000000
v 0.079103 1.599920 0.000000
v 0.055934 1.599920 -0.055934
v 0.038876 1.621995 -0.038876
v 0.000000 1.621996 0.054978
v 0.000000 1.599921 0.079103
v 0.055934 1.599921 0.055934
v 0.038876 1.621996 0.038876
v -0.054979 1.621995 0.000000
v -0.079103 1.599920 0.000000
v -0.055934 1.599921 0.055934
v -0.038876 1.621996 0.038876
v 0.000000 1.621995 -0.054979
v 0.000000 1.599920 -0.079103
v -0.055934 1.599920 -0.055934
v -0.038876 1.621995 -0.038876
v 0.038876 1.621995 -0.038876
v 0.055934 1.599920 -0.055934
v 0.000000 1.599920 -0.079103
v 0.000000 1.621995 -0.054979
v 0.038876 1.621996 0.038876
v 0.055934 1.599921 0.055934
v 0.079103 1.599920 0.000000
v 0.054979 1.621995 0.000000
v -0.038876 1.621996 0.038876
v -0.055934 1.599921 0.055934
v 0.000000 1.599921 0.079103
v 0.000000 1.621996 0.054978
v -0.038876 1.621995 -0.038876
v -0.055934 1.599920 -0.055934
v -0.079103 1.599920 0.000000
v -0.054979 1.621995 0.000000
v 0.056530 1.529230 -0.056530
v 0.055934 1.599920 -0.055934
v 0.079103 1.599920 0.000000
v 0.079945 1.529230 0.000000
vn -0.923880 0.000000 -0.382683
vn -0.923880 0.000000 -0.382683
vn -0.923880 0.000000 -0.382683
vn -0.923880 0.000000 -0.382683
vn -0.923880 0.000000 -0.382683
vn -0.923880 0.000000 -0.382683
vn -0.923880 0.000000 -0.382683
vn -0.923880 0.000000 -0.382683
vn -0.382684 0.000000 0.923880
vn -0.382684 0.000000 0.923880
vn -0.382684 0.000000 0.923880
vn -0.382684 0.000000 0.923880
vn 0.382684 0.000000 0.923880
vn 0.382684 0.000000 0.923880
vn 0.382684 0.000000 0.923880
vn 0.382684 0.000000 0.923880
vn 0.923880 0.000000 0.382683
vn 0.923880 0.000000 0.382683
vn 0.923880 0.000000 0.382683
vn 0.923880 0.000000 0.382683
vn 0.923880 0.000000 0.382684
vn 0.923880 0.000000 0.382684
vn 0.923880 0.000000 0.382684
vn 0.923880 0.000000 0.382684
vn 0.923880 0.000000 -0.382683
vn 0.923880 0.000000 -0.382683
vn 0.923880 0.000000 -0.382683
vn 0.923880 0.000000 -0.382683
vn 0.923880 0.000000 -0.382683
vn 0.923880 0.000000 -0.382683
vn 0.923880 0.000000 -0.382683
vn 0.923880 0.000000 -0.382683
vn 0.382683 0.000000 -0.923880
vn 0.382683 0.000000 -0.923880
vn 0.382683 0.000000 -0.923880
vn 0.382683 0.000000 -0.923880
vn 0.382683 0.000000 -0.923880
vn 0.382683 0.000000 -0.923880
vn 0.382683 0.000000 -0.923880
vn 0.382683 0.000000 -0.923880
vn -0.923880 0.000000 0.382683
vn -0.923880 0.000000 0.382683
vn -0.923880 0.000000 0.382683
vn -0.923880 0.000000 0.382683
vn -0.923880 0.000000 0.382683
vn -0.923880 0.000000 0.382683
vn -0.923880 0.000000 0.382683
vn -0.923880 0.000000 0.382683
vn -0.381400 0.081821 0.920782
vn -0.381400 0.081821 0.920782
vn -0.381400 0.081821 0.920782
vn -0.381400 0.081821 0.920782
vn -0.275820 -0.693192 -0.665889
vn -0.275820 -0.693192 -0.665889
vn -0.275820 -0.693192 -0.665889
vn -0.275820 -0.693192 -0.665889
vn -0.665889 -0.693192 -0.275820
vn -0.665889 -0.693192 -0.275820
vn -0.665889 -0.693192 -0.275820
vn -0.665889 -0.693192 -0.275820
vn -0.665889 -0.693192 0.275820
vn -0.665889 -0.693192 0.275820
vn -0.665889 -0.693192 0.275820
vn -0.665889 -0.693192 0.275820
vn -0.275820 -0.693192 0.665889
vn -0.275820 -0.693192 0.665889
vn -0.275820 -0.693192 0.665889
vn -0.275820 -0.693192 0.665889
vn 0.275820 -0.693192 0.665889
vn 0.275820 -0.693192 0.665889
vn 0.275820 -0.693192 0.665889
vn 0.275820 -0.693192 0.665889
vn 0.665889 -0.693192 0.275820
vn 0.665889 -0.693192 0.275820
vn 0.665889 -0.693192 0.275820
vn 0.665889 -0.693192 0.275820
vn 0.665889 -0.693192 -0.275820
vn 0.665889 -0.693192 -0.275820
vn 0.665889 -0.693192 -0.275820
vn 0.665889 -0.693192 -0.275820
vn 0.275820 -0.693192 -0.665889
vn 0.275820 -0.693192 -0.665889
vn 0.275820 -0.693192 -0.665889
vn 0.275820 -0.693192 -0.665889
vn 0.000000 -1.000000 0.000000
vn 0.000000 -1.000000 0.000000
vn 0.000000 -1.000000 0.000000
vn 0.000000 -1.000000 0.000000
vn 0.000000 -1.000000 0.000000
vn 0.000000 -1.000000 0.000000
vn 0.000000 -1.000000 0.000000
vn 0.000000 -1.000000 0.000000
vn -0.688110 0.667282 -0.285025
vn -0.688110 0.667282 -0.285025
vn -0.688110 0.667282 -0.285025
vn -0.688110 0.667282 -0.285025
vn -0.688110 0.667282 0.285025
vn -0.688110 0.667282 0.285025
vn -0.688110 0.667282 0.285025
vn -0.688110 0.667282 0.285025
vn -0.285025 0.667282 0.688110
vn -0.285025 0.667282 0.688110
vn -0.285025 0.667282 0.688110
vn -0.285025 0.667282 0.688110
vn 0.285025 0.667282 0.688110
vn 0.285025 0.667282 0.688110
vn 0.285025 0.667282 0.688110
vn 0.285025 0.667282 0.688110
vn 0.688110 0.667282 0.285025
vn 0.688110 0.667282 0.285025
vn 0.688110 0.667282 0.285025
vn 0.688110 0.667282 0.285025
vn 0.688110 0.667282 -0.285025
vn 0.688110 0.667282 -0.285025
vn 0.688110 0.667282 -0.285025
vn 0.688110 0.667282 -0.285025
vn 0.285025 0.667282 -0.688110
vn 0.285025 0.667282 -0.688110
vn 0.285025 0.667282 -0.688110
vn 0.285025 0.667282 -0.688110
vn -0.382684 0.000000 -0.923880
vn -0.382684 0.000000 -0.923880
vn -0.382684 0.000000 -0.923880
vn -0.382684 0.000000 -0.923880
vn -0.382684 0.000000 -0.923880
vn -0.382684 0.000000 -0.923880
vn -0.382684 0.000000 -0.923880
vn -0.382684 0.000000 -0.923880
vn 0.381400 0.081820 -0.920782
vn 0.381400 0.081820 -0.920782
vn 0.381400 0.081820 -0.920782
vn 0.381400 0.081820 -0.920782
vn -0.381400 0.081820 -0.920782
vn -0.381400 0.081820 -0.920782
vn -0.381400 0.081820 -0.920782
vn -0.381400 0.081820 -0.920782
vn 0.381400 0.081821 0.920782
vn 0.381400 0.081821 0.920782
vn 0.381400 0.081821 0.920782
vn 0.381400 0.081821 0.920782
vn -0.920782 0.081820 -0.381400
vn -0.920782 0.081820 -0.381400
vn -0.920782 0.081820 -0.381400
vn -0.920782 0.081820 -0.381400
vn 0.920782 0.081821 0.381400
vn 0.920782 0.081821 0.381400
vn 0.920782 0.081821 0.381400
vn 0.920782 0.081821 0.381400
vn -0.920782 0.081821 0.381400
vn -0.920782 0.081821 0.381400
vn -0.920782 0.081821 0.381400
vn -0.920782 0.081821 0.381400
vn 0.920782 0.081820 -0.381401
vn 0.920782 0.081820 -0.381401
vn 0.920782 0.081820 -0.381401
vn 0.920782 0.081820 -0.381401
vn -0.382683 0.000000 0.923880
vn -0.382683 0.000000 0.923880
vn -0.382683 0.000000 0.923880
vn -0.382683 0.000000 0.923880
vn 0.382684 0.000000 0.923880
vn 0.382684 0.000000 0.923880
vn 0.382684 0.000000 0.923880
vn 0.382684 0.000000 0.923880
vn -0.285025 0.667282 -0.688110
vn -0.285025 0.667282 -0.688110
vn -0.285025 0.667282 -0.688110
vn -0.285025 0.667282 -0.688110
vn -0.382551 0.026289 -0.923560
vn -0.381894 0.064183 -0.921975
vn -0.381894 0.064183 -0.921975
vn -0.382551 0.026289 -0.923560
vn 0.382551 0.026289 -0.923560
vn 0.381895 0.064183 -0.921975
vn 0.381895 0.064183 -0.921975
vn 0.382551 0.026289 -0.923560
vn 0.382551 0.026289 0.923560
vn 0.381894 0.064183 0.921975
vn 0.381894 0.064183 0.921975
vn 0.382551 0.026289 0.923560
vn -0.382551 0.026289 0.923560
vn -0.381895 0.064184 0.921975
vn -0.381895 0.064184 0.921975
vn -0.382551 0.026289 0.923560
vn 0.923560 0.026289 -0.382551
vn 0.921975 0.064183 -0.381895
vn 0.921975 0.064183 -0.381895
vn 0.923560 0.026289 -0.382551
vn 0.923560 0.026289 0.382551
vn 0.921975 0.064183 0.381894
vn 0.921975 0.064183 0.381894
vn 0.923560 0.026289 0.382551
vn -0.923560 0.026289 0.382551
vn -0.921975 0.064184 0.381894
vn -0.921975 0.064184 0.381894
vn -0.923560 0.026289 0.382551
vn -0.923560 0.026289 -0.382551
vn -0.921975 0.064184 -0.381895
vn -0.921975 0.064184 -0.381895
vn -0.923560 0.026289 -0.382551
vn -0.921975 0.064184 -0.381895
vn -0.921975 0.064184 -0.381895
vn -0.921975 0.064184 0.381894
vn -0.921975 0.064184 0.381894
vn 0.921975 0.064183 0.381894
vn 0.921975 0.064183 0.381894
vn 0.921975 0.064183 -0.381895
vn 0.921975 0.064183 -0.381895
vn -0.381895 0.064184 0.921975
vn -0.381895 0.064184 0.921975
vn 0.381894 0.064183 0.921975
vn 0.381894 0.064183 0.921975
vn 0.381895 0.064183 -0.921975
vn 0.381895 0.064183 -0.921975
vn -0.381894 0.064183 -0.921975
vn -0.381894 0.064183 -0.921975
vn 0.508619 0.834819 -0.210677
vn 0.508619 0.834819 -0.210677
vn 0.508619 0.834819 -0.210677
vn 0.508619 0.834819 -0.210677
vn -0.210679 0.834818 0.508619
vn -0.210679 0.834818 0.508619
vn -0.210679 0.834818 0.508619
vn -0.210679 0.834818 0.508619
vn 0.210676 0.834819 -0.508619
vn 0.210676 0.834819 -0.508619
vn 0.210676 0.834819 -0.508619
vn 0.210676 0.834819 -0.508619
vn -0.508620 0.834818 0.210677
vn -0.508620 0.834818 0.210677
vn -0.508620 0.834818 0.210677
vn -0.508620 0.834818 0.210677
vn -0.508619 0.834819 -0.210677
vn -0.508619 0.834819 -0.210677
vn -0.508619 0.834819 -0.210677
vn -0.508619 0.834819 -0.210677
vn 0.508618 0.834819 0.210677
vn 0.508618 0.834819 0.210677
vn 0.508618 0.834819 0.210677
vn 0.508618 0.834819 0.210677
vn -0.210676 0.834819 -0.508619
vn -0.210676 0.834819 -0.508619
vn -0.210676 0.834819 -0.508619
vn -0.210676 0.834819 -0.508619
vn 0.210678 0.834818 0.508619
vn 0.210678 0.834818 0.508619
vn 0.210678 0.834818 0.508619
vn 0.210678 0.834818 0.508619
vn 0.382045 0.057760 0.922337
vn 0.382045 0.057760 0.922337
vn 0.382045 0.057760 0.922337
vn 0.382045 0.057760 0.922337
vn -0.382045 0.057759 -0.922337
vn -0.382045 0.057759 -0.922337
vn -0.382045 0.057759 -0.922337
vn -0.382045 0.057759 -0.922337
vn -0.922337 0.057759 -0.382045
vn -0.922337 0.057759 -0.382045
vn -0.922337 0.057759 -0.382045
vn -0.922337 0.057759 -0.382045
vn 0.382045 0.057759 -0.922337
vn 0.382045 0.057759 -0.922337
vn 0.382045 0.057759 -0.922337
vn 0.382045 0.057759 -0.922337
vn 0.922337 0.057760 -0.382045
vn 0.922337 0.057760 -0.382045
vn 0.922337 0.057760 -0.382045
vn 0.922337 0.057760 -0.382045
vn 0.922337 0.057760 0.382044
vn 0.922337 0.057760 0.382044
vn 0.922337 0.057760 0.382044
vn 0.922337 0.057760 0.382044
vn -0.922337 0.057759 0.382045
vn -0.922337 0.057759 0.382045
vn -0.922337 0.057759 0.382045
vn -0.922337 0.057759 0.382045
vn -0.382044 0.057760 0.922337
vn -0.382044 0.057760 0.922337
vn -0.382044 0.057760 0.922337
vn -0.382044 0.057760 0.922337
vn -0.186797 -0.872775 0.450966
vn -0.186797 -0.872775 0.450966
vn -0.186797 -0.872775 0.450966
vn -0.186797 -0.872775 0.450966
vn -0.450965 -0.872776 0.186796
vn -0.450965 -0.872776 0.186796
vn -0.450965 -0.872776 0.186796
vn -0.450965 -0.872776 0.186796
vn 0.450965 -0.872776 0.186797
vn 0.450965 -0.872776 0.186797
vn 0.450965 -0.872776 0.186797
vn 0.450965 -0.872776 0.186797
vn 0.450968 -0.872774 -0.186796
vn 0.450968 -0.872774 -0.186796
vn 0.450968 -0.872774 -0.186796
vn 0.450968 -0.872774 -0.186796
vn 0.186796 -0.872776 -0.450966
vn 0.186796 -0.872776 -0.450966
vn 0.186796 -0.872776 -0.450966
vn 0.186796 -0.872776 -0.450966
vn -0.450968 -0.872775 -0.186796
vn -0.450968 -0.872775 -0.186796
vn -0.450968 -0.872775 -0.186796
vn -0.450968 -0.872775 -0.186796
vn -0.186797 -0.872775 -0.450966
vn -0.186797 -0.872775 -0.450966
vn -0.186797 -0.872775 -0.450966
vn -0.186797 -0.872775 -0.450966
vn 0.186797 -0.872775 0.450966
vn 0.186797 -0.872775 0.450966
vn 0.186797 -0.872775 0.450966
vn 0.186797 -0.872775 0.450966
vn 0.382660 0.011008 -0.923824
vn 0.382660 0.011008 -0.923824
vn 0.382660 0.011008 -0.923824
vn 0.382660 0.011008 -0.923824
vn -0.382660 0.011008 0.923824
vn -0.382660 0.011008 0.923824
vn -0.382660 0.011008 0.923824
vn -0.382660 0.011008 0.923824
vn -0.923824 0.011008 0.382660
vn -0.923824 0.011008 0.382660
vn -0.923824 0.011008 0.382660
vn -0.923824 0.011008 0.382660
vn 0.382660 0.011008 0.923824
vn 0.382660 0.011008 0.923824
vn 0.382660 0.011008 0.923824
vn 0.382660 0.011008 0.923824
vn -0.923823 0.011008 -0.382661
vn -0.923823 0.011008 -0.382661
vn -0.923823 0.011008 -0.382661
vn -0.923823 0.011008 -0.382661
vn -0.382661 0.011008 -0.923823
vn -0.382661 0.011008 -0.923823
vn -0.382661 0.011008 -0.923823
vn -0.382661 0.011008 -0.923823
vn 0.923824 0.011008 0.382660
vn 0.923824 0.011008 0.382660
vn 0.923824 0.011008 0.382660
vn 0.923824 0.011008 0.382660
vn 0.000000 1.000000 0.000000
vn 0.000000 1.000000 0.000000
vn 0.000000 1.000000 0.000000
vn 0.000000 1.000000 0.000000
vn 0.000000 1.000000 0.000000
vn 0.000000 1.000000 0.000000
vn 0.000000 1.000000 0.000000
vn 0.000000 1.000000 0.000000
vn 0.650141 0.710491 -0.269296
vn 0.650141 0.710491 -0.269296
vn 0.650141 0.710491 -0.269296
vn 0.650141 0.710491 -0.269296
vn 0.269298 0.710492 0.650139
vn 0.269298 0.710492 0.650139
vn 0.269298 0.710492 0.650139
vn 0.269298 0.710492 0.650139
vn -0.650138 0.710493 0.269297
vn -0.650138 0.710493 0.269297
vn -0.650138 0.710493 0.269297
vn -0.650138 0.710493 0.269297
vn -0.269296 0.710492 -0.650139
vn -0.269296 0.710492 -0.650139
vn -0.269296 0.710492 -0.650139
vn -0.269296 0.710492 -0.650139
vn 0.269298 0.710492 -0.650139
vn 0.269298 0.710492 -0.650139
vn 0.269298 0.710492 -0.650139
vn 0.269298 0.710492 -0.650139
vn 0.650138 0.710493 0.269297
vn 0.650138 0.710493 0.269297
vn 0.650138 0.710493 0.269297
vn 0.650138 0.710493 0.269297
vn -0.269296 0.710492 0.650139
vn -0.269296 0.710492 0.650139
vn -0.269296 0.710492 0.650139
vn -0.269296 0.710492 0.650139
vn -0.650138 0.710493 -0.269297
vn -0.650138 0.710493 -0.269297
vn -0.650138 0.710493 -0.269297
vn -0.650138 0.710493 -0.269297
vn 0.923824 0.011008 -0.382660
vn 0.923824 0.011008 -0.382660
vn 0.923824 0.011008 -0.382660
vn 0.923824 0.011008 -0.382660
g Bottle2_DarkGrey
usemtl DarkGrey
f 1 2 3
f 1 4 2
f 5 4 1
f 5 6 4
f 7 6 5
f 7 8 6
f 9 10 11
f 9 11 12
f 13 14 15
f 13 15 16
f 17 18 19
f 17 20 18
f 21 20 17
f 21 22 20
f 23 22 21
f 23 24 22
f 25 26 27
f 25 28 26
f 29 28 25
f 29 30 28
f 31 30 29
f 31 32 30
f 33 34 35
f 33 36 34
f 37 36 33
f 37 38 36
f 39 38 37
f 39 40 38
f 41 42 43
f 41 44 42
f 45 44 41
f 45 46 44
f 47 46 45
f 47 48 46
f 49 50 51
f 49 51 52
f 53 54 55
f 53 55 56
f 57 58 59
f 57 59 60
f 61 62 63
f 61 63 64
f 65 66 67
f 65 67 68
f 69 70 71
f 69 71 72
f 73 74 75
f 73 75 76
f 77 78 79
f 77 79 80
f 81 82 83
f 81 83 84
f 85 86 87
f 87 88 85
f 87 89 88
f 89 90 88
f 90 91 88
f 90 92 91
f 93 94 95
f 93 95 96
f 97 98 99
f 97 99 100
f 101 102 103
f 101 103 104
f 105 106 107
f 105 107 108
f 109 110 111
f 109 111 112
f 113 114 115
f 113 115 116
f 117 118 119
f 117 119 120
f 121 122 123
f 121 124 122
f 125 124 121
f 125 126 124
f 127 126 125
f 127 128 126
f 129 130 131
f 129 131 132
f 133 134 135
f 133 135 136
f 137 138 139
f 137 139 140
f 141 142 143
f 141 143 144
f 145 146 147
f 145 147 148
f 149 150 151
f 149 151 152
f 153 154 155
f 153 155 156
f 157 158 159
f 157 159 160
f 161 162 163
f 161 163 164
f 165 166 167
f 165 167 168
f 169 170 171
f 169 171 172
f 173 174 175
f 173 175 176
f 177 178 179
f 177 179 180
f 181 182 183
f 181 183 184
f 185 186 187
f 185 187 188
f 189 190 191
f 189 191 192
f 193 194 195
f 193 195 196
f 197 198 199
f 197 199 200
g Bottle2_DarkRed
usemtl DarkRed
f 198 201 202
f 198 202 199
f 194 203 204
f 194 204 195
f 190 205 206
f 190 206 191
f 186 207 208
f 186 208 187
f 182 209 210
f 182 210 183
f 178 211 212
f 178 212 179
f 174 213 214
f 174 214 175
f 170 215 216
f 170 216 171
f 217 218 219
f 217 219 220
f 221 222 223
f 221 223 224
f 225 226 227
f 225 227 228
f 229 230 231
f 229 231 232
f 233 234 235
f 233 235 236
f 237 238 239
f 237 239 240
f 241 242 243
f 241 243 244
f 245 246 247
f 245 247 248
f 249 250 251
f 249 251 252
f 253 254 255
f 253 255 256
f 257 258 259
f 257 259 260
f 261 262 263
f 261 263 264
f 265 266 267
f 265 267 268
f 269 270 271
f 269 271 272
f 273 274 275
f 273 275 276
f 277 278 279
f 277 279 280
f 281 282 283
f 281 283 284
f 285 286 287
f 285 287 288
f 289 290 291
f 289 291 292
f 293 294 295
f 293 295 296
f 297 298 299
f 297 299 300
f 301 302 303
f 301 303 304
f 305 306 307
f 305 307 308
f 309 310 311
f 309 311 312
g Bottle2_BottleCap
usemtl BottleCap
f 313 314 315
f 313 315 316
f 317 318 319
f 317 319 320
f 321 322 323
f 321 323 324
f 325 326 327
f 325 327 328
f 329 330 331
f 329 331 332
f 333 334 335
f 333 335 336
f 337 338 339
f 337 339 340
f 341 342 343
f 343 344 341
f 343 345 344
f 345 346 344
f 345 347 346
f 347 348 346
f 349 350 351
f 349 351 352
f 353 354 355
f 353 355 356
f 357 358 359
f 357 359 360
f 361 362 363
f 361 363 364
f 365 366 367
f 365 367 368
f 369 370 371
f 369 371 372
f 373 374 375
f 373 375 376
f 377 378 379
f 377 379 380
f 381 382 383
f 381 383 384
g Bottle2_LightBrown
usemtl LightBrown
f 164 163 14
f 164 14 13
f 160 159 10
f 160 10 9
