mtllib Materials.mtl
# Ultimate Food Pack - Bread_Slice
o Bread_Slice
v 0.169331 -0.424615 -0.054139
v 0.258507 -0.424615 -0.054139
v 0.175453 -0.447514 -0.054139
v -0.197984 -0.447514 -0.054139
v -0.257074 -0.424615 -0.054139
v -0.180621 -0.424615 -0.054139
v 0.169331 -0.424615 0.054139
v 0.175453 -0.447514 0.054139
v 0.258507 -0.424615 0.054139
v -0.197984 -0.447514 0.054139
v -0.180621 -0.424615 0.054139
v -0.257074 -0.424615 0.054139
v 0.193255 0.210494 -0.054139
v 0.105830 0.211119 -0.054139
v 0.079668 0.286092 -0.054139
v 0.145601 0.265086 -0.054139
v 0.082246 0.303057 -0.054139
v 0.166532 0.274312 -0.054139
v 0.245301 0.211119 -0.054139
v 0.145601 0.265086 -0.054139
v 0.166532 0.274312 -0.054139
v 0.223932 0.138650 -0.054139
v 0.284809 0.138650 -0.054139
v 0.105830 0.211119 -0.054139
v 0.286494 0.101579 -0.054139
v 0.225256 0.101579 -0.054139
v 0.122470 0.138650 -0.054139
v 0.212004 0.073757 -0.054139
v 0.269628 0.073757 -0.054139
v 0.123193 0.101579 -0.054139
v 0.209907 0.025108 -0.054139
v 0.266959 0.025108 -0.054139
v 0.115964 0.073757 -0.054139
v 0.209907 -0.396163 -0.054139
v 0.266959 -0.396163 -0.054139
v 0.258507 -0.424615 -0.054139
v 0.169331 -0.424615 -0.054139
v 0.158802 -0.396163 -0.054139
v 0.114820 0.025108 -0.054139
v 0.000716 0.138650 -0.054139
v 0.000716 0.101579 -0.054139
v 0.000716 0.073757 -0.054139
v 0.000716 0.025108 -0.054139
v 0.000716 0.211744 -0.054139
v 0.000716 0.290646 -0.054139
v 0.079668 0.286092 -0.054139
v 0.000716 0.308771 -0.054139
v 0.082246 0.303057 -0.054139
v -0.078235 0.286092 -0.054139
v -0.080813 0.303057 -0.054139
v -0.104397 0.211119 -0.054139
v -0.121038 0.138650 -0.054139
v -0.191822 0.210494 -0.054139
v -0.121760 0.101579 -0.054139
v -0.222499 0.138650 -0.054139
v -0.114531 0.073757 -0.054139
v -0.223823 0.101579 -0.054139
v -0.113387 0.025108 -0.054139
v -0.210571 0.073757 -0.054139
v -0.285061 0.101579 -0.054139
v -0.283376 0.138650 -0.054139
v -0.268195 0.073757 -0.054139
v -0.243868 0.211119 -0.054139
v -0.265526 0.025108 -0.054139
v -0.144168 0.265086 -0.054139
v -0.165099 0.274312 -0.054139
v -0.208474 0.025108 -0.054139
v -0.265526 -0.396163 -0.054139
v 0.000716 -0.396163 -0.054139
v -0.157369 -0.396163 -0.054139
v -0.208474 -0.396163 -0.054139
v -0.257074 -0.424615 -0.054139
v -0.180621 -0.424615 -0.054139
v -0.180621 -0.424615 -0.054139
v 0.000716 -0.424740 -0.054139
v 0.169331 -0.424615 -0.054139
v -0.180621 -0.424615 -0.054139
v -0.011266 -0.448652 -0.054139
v -0.197984 -0.447514 -0.054139
v 0.000716 -0.424740 -0.054139
v 0.175453 -0.447514 -0.054139
v -0.011266 -0.448652 -0.054139
v -0.080813 0.303057 -0.054139
v -0.144168 0.265086 -0.054139
v -0.165099 0.274312 -0.054139
v -0.078235 0.286092 -0.054139
v -0.104397 0.211119 -0.054139
v 0.193255 0.210494 0.054139
v 0.079668 0.286092 0.054139
v 0.105830 0.211119 0.054139
v 0.145601 0.265086 0.054139
v 0.082246 0.303057 0.054139
v 0.166532 0.274312 0.054139
v 0.245301 0.211119 0.054139
v 0.145601 0.265086 0.054139
v 0.166532 0.274312 0.054139
v 0.223932 0.138650 0.054139
v 0.284809 0.138650 0.054139
v 0.105830 0.211119 0.054139
v 0.286494 0.101579 0.054139
v 0.225256 0.101579 0.054139
v 0.122470 0.138650 0.054139
v 0.212004 0.073757 0.054139
v 0.269628 0.073757 0.054139
v 0.123193 0.101579 0.054139
v 0.209907 0.025108 0.054139
v 0.266959 0.025108 0.054139
v 0.115964 0.073757 0.054139
v 0.209907 -0.396163 0.054139
v 0.266959 -0.396163 0.054139
v 0.258507 -0.424615 0.054139
v 0.169331 -0.424615 0.054139
v 0.158802 -0.396163 0.054139
v 0.114820 0.025108 0.054139
v 0.000716 0.138650 0.054139
v 0.000716 0.101579 0.054139
v 0.000716 0.073757 0.054139
v 0.000716 0.025108 0.054139
v 0.000716 0.211744 0.054139
v 0.000716 0.290646 0.054139
v 0.079668 0.286092 0.054139
v 0.000716 0.308771 0.054139
v 0.082246 0.303057 0.054139
v -0.078235 0.286092 0.054139
v -0.080813 0.303057 0.054139
v -0.104397 0.211119 0.054139
v -0.121038 0.138650 0.054139
v -0.191822 0.210494 0.054139
v -0.121760 0.101579 0.054139
v -0.222499 0.138650 0.054139
v -0.114531 0.073757 0.054139
v -0.223823 0.101579 0.054139
v -0.113387 0.025108 0.054139
v -0.210571 0.073757 0.054139
v -0.285061 0.101579 0.054139
v -0.283376 0.138650 0.054139
v -0.268195 0.073757 0.054139
v -0.243868 0.211119 0.054139
v -0.265526 0.025108 0.054139
v -0.144168 0.265086 0.054139
v -0.165099 0.274312 0.054139
v -0.208474 0.025108 0.054139
v -0.265526 -0.396163 0.054139
v 0.000716 -0.396163 0.054139
v -0.157369 -0.396163 0.054139
v -0.208474 -0.396163 0.054139
v -0.257074 -0.424615 0.054139
v -0.180621 -0.424615 0.054139
v -0.180621 -0.424615 0.054139
v 0.000716 -0.424740 0.054139
v 0.169331 -0.424615 0.054139
v -0.180621 -0.424615 0.054139
v -0.011266 -0.448652 0.054139
v -0.197984 -0.447514 0.054139
v 0.000716 -0.424740 0.054139
v 0.175453 -0.447514 0.054139
v -0.011266 -0.448652 0.054139
v -0.080813 0.303057 0.054139
v -0.165099 0.274312 0.054139
v -0.144168 0.265086 0.054139
v -0.078235 0.286092 0.054139
v -0.104397 0.211119 0.054139
v 0.296796 0.238361 0.000000
v 0.287679 0.238018 -0.054139
v 0.192569 0.313924 -0.054139
v 0.197852 0.316425 0.000000
v 0.287679 0.238018 -0.054139
v 0.296796 0.238361 0.000000
v 0.345341 0.157365 0.000000
v 0.334572 0.157365 -0.054139
v 0.287679 0.238018 -0.054139
v 0.166532 0.274312 -0.054139
v 0.192569 0.313924 -0.054139
v 0.245301 0.211119 -0.054139
v 0.334572 0.157365 -0.054139
v 0.284809 0.138650 -0.054139
v 0.336552 0.116635 -0.054139
v 0.286494 0.101579 -0.054139
v 0.316732 0.086067 -0.054139
v 0.269628 0.073757 -0.054139
v 0.313595 0.032615 -0.054139
v 0.266959 0.025108 -0.054139
v 0.313595 -0.430240 -0.054139
v 0.266959 -0.396163 -0.054139
v 0.303782 -0.461705 -0.054139
v 0.258507 -0.424615 -0.054139
v 0.209063 -0.488534 -0.054139
v 0.175453 -0.447514 -0.054139
v -0.011266 -0.489901 -0.054139
v -0.011266 -0.448652 -0.054139
v -0.197984 -0.447514 -0.054139
v -0.231594 -0.488534 -0.054139
v -0.302349 -0.461705 -0.054139
v -0.257074 -0.424615 -0.054139
v -0.265526 -0.396163 -0.054139
v -0.312162 -0.430240 -0.054139
v -0.312162 0.032615 -0.054139
v -0.265526 0.025108 -0.054139
v -0.315299 0.086067 -0.054139
v -0.268195 0.073757 -0.054139
v -0.335120 0.116635 -0.054139
v -0.285061 0.101579 -0.054139
v -0.333139 0.157365 -0.054139
v -0.283376 0.138650 -0.054139
v -0.286246 0.238018 -0.054139
v -0.243868 0.211119 -0.054139
v -0.191136 0.313924 -0.054139
v -0.165099 0.274312 -0.054139
v 0.000716 0.353123 -0.054139
v -0.093236 0.346256 -0.054139
v -0.095707 0.349395 0.000000
v 0.000716 0.356459 0.000000
v -0.093236 0.346256 -0.054139
v -0.191136 0.313924 -0.054139
v -0.196419 0.316425 0.000000
v -0.095707 0.349395 0.000000
v 0.000716 0.353123 -0.054139
v -0.080813 0.303057 -0.054139
v -0.093236 0.346256 -0.054139
v 0.000716 0.308771 -0.054139
v 0.082246 0.303057 -0.054139
v 0.094668 0.346256 -0.054139
v -0.093236 0.346256 -0.054139
v -0.080813 0.303057 -0.054139
v -0.165099 0.274312 -0.054139
v -0.191136 0.313924 -0.054139
v 0.094668 0.346256 -0.054139
v 0.192569 0.313924 -0.054139
v 0.166532 0.274312 -0.054139
v 0.082246 0.303057 -0.054139
v 0.000716 0.353123 -0.054139
v 0.000716 0.356459 0.000000
v 0.097140 0.349395 0.000000
v 0.094668 0.346256 -0.054139
v 0.094668 0.346256 -0.054139
v 0.097140 0.349395 0.000000
v 0.197852 0.316425 0.000000
v 0.192569 0.313924 -0.054139
v 0.303782 -0.461705 -0.054139
v 0.313595 -0.430240 -0.054139
v 0.323688 -0.430239 0.000000
v 0.313595 -0.461773 0.000000
v 0.323688 -0.430239 0.000000
v 0.313595 -0.430240 -0.054139
v 0.313595 0.032615 -0.054139
v 0.323688 0.032615 0.000000
v 0.336552 0.116635 -0.054139
v 0.347386 0.116635 0.000000
v 0.326926 0.086067 0.000000
v 0.316732 0.086067 -0.054139
v -0.295363 0.238361 0.000000
v -0.286246 0.238018 -0.054139
v -0.333139 0.157365 -0.054139
v -0.343908 0.157365 0.000000
v -0.286246 0.238018 -0.054139
v -0.295363 0.238361 0.000000
v -0.196419 0.316425 0.000000
v -0.191136 0.313924 -0.054139
v -0.011266 -0.489901 -0.054139
v -0.167081 -0.489159 0.000000
v -0.231594 -0.488534 -0.054139
v -0.011266 -0.490565 0.000000
v 0.216442 -0.489159 0.000000
v 0.209063 -0.488534 -0.054139
v 0.303782 -0.461705 -0.054139
v 0.313595 -0.461773 0.000000
v 0.216442 -0.489159 0.000000
v 0.209063 -0.488534 -0.054139
v -0.312162 -0.461773 0.000000
v -0.302349 -0.461705 -0.054139
v -0.231594 -0.488534 -0.054139
v -0.167081 -0.489159 0.000000
v -0.302349 -0.461705 -0.054139
v -0.312162 -0.461773 0.000000
v -0.322255 -0.430239 0.000000
v -0.312162 -0.430240 -0.054139
v -0.325493 0.086067 0.000000
v -0.315299 0.086067 -0.054139
v -0.312162 0.032615 -0.054139
v -0.322255 0.032615 0.000000
v -0.322255 0.032615 0.000000
v -0.312162 0.032615 -0.054139
v -0.312162 -0.430240 -0.054139
v -0.322255 -0.430239 0.000000
v -0.345953 0.116635 0.000000
v -0.335120 0.116635 -0.054139
v -0.315299 0.086067 -0.054139
v -0.325493 0.086067 0.000000
v -0.335120 0.116635 -0.054139
v -0.345953 0.116635 0.000000
v -0.343908 0.157365 0.000000
v -0.333139 0.157365 -0.054139
v 0.347386 0.116635 0.000000
v 0.336552 0.116635 -0.054139
v 0.334572 0.157365 -0.054139
v 0.345341 0.157365 0.000000
v 0.323688 0.032615 0.000000
v 0.313595 0.032615 -0.054139
v 0.316732 0.086067 -0.054139
v 0.326926 0.086067 0.000000
v 0.296796 0.238361 0.000000
v 0.197852 0.316425 0.000000
v 0.192569 0.313924 0.054139
v 0.287679 0.238018 0.054139
v 0.287679 0.238018 0.054139
v 0.334572 0.157365 0.054139
v 0.345341 0.157365 0.000000
v 0.296796 0.238361 0.000000
v 0.287679 0.238018 0.054139
v 0.192569 0.313924 0.054139
v 0.166532 0.274312 0.054139
v 0.245301 0.211119 0.054139
v 0.334572 0.157365 0.054139
v 0.284809 0.138650 0.054139
v 0.336552 0.116635 0.054139
v 0.286494 0.101579 0.054139
v 0.316732 0.086067 0.054139
v 0.269628 0.073757 0.054139
v 0.313595 0.032615 0.054139
v 0.266959 0.025108 0.054139
v 0.313595 -0.430239 0.054139
v 0.266959 -0.396163 0.054139
v 0.303782 -0.461705 0.054139
v 0.258507 -0.424615 0.054139
v 0.209063 -0.488534 0.054139
v 0.175453 -0.447514 0.054139
v -0.011266 -0.489901 0.054139
v -0.011266 -0.448652 0.054139
v -0.197984 -0.447514 0.054139
v -0.231594 -0.488534 0.054139
v -0.302349 -0.461705 0.054139
v -0.257074 -0.424615 0.054139
v -0.265526 -0.396163 0.054139
v -0.312162 -0.430239 0.054139
v -0.312162 0.032615 0.054139
v -0.265526 0.025108 0.054139
v -0.315299 0.086067 0.054139
v -0.268195 0.073757 0.054139
v -0.335120 0.116635 0.054139
v -0.285061 0.101579 0.054139
v -0.333139 0.157365 0.054139
v -0.283376 0.138650 0.054139
v -0.286246 0.238018 0.054139
v -0.243868 0.211119 0.054139
v -0.191136 0.313924 0.054139
v -0.165099 0.274312 0.054139
v 0.000716 0.353123 0.054139
v 0.000716 0.356459 0.000000
v -0.095707 0.349395 0.000000
v -0.093236 0.346256 0.054139
v -0.093236 0.346256 0.054139
v -0.095707 0.349395 0.000000
v -0.196419 0.316425 0.000000
v -0.191136 0.313924 0.054139
v 0.000716 0.353123 0.054139
v -0.093236 0.346256 0.054139
v -0.080813 0.303057 0.054139
v 0.000716 0.308771 0.054139
v 0.082246 0.303057 0.054139
v 0.094668 0.346256 0.054139
v -0.093236 0.346256 0.054139
v -0.191136 0.313924 0.054139
v -0.165099 0.274312 0.054139
v -0.080813 0.303057 0.054139
v 0.094668 0.346256 0.054139
v 0.082246 0.303057 0.054139
v 0.166532 0.274312 0.054139
v 0.192569 0.313924 0.054139
v 0.000716 0.353123 0.054139
v 0.094668 0.346256 0.054139
v 0.097140 0.349395 0.000000
v 0.000716 0.356459 0.000000
v 0.094668 0.346256 0.054139
v 0.192569 0.313924 0.054139
v 0.197852 0.316425 0.000000
v 0.097140 0.349395 0.000000
v 0.303782 -0.461705 0.054139
v 0.313595 -0.461773 0.000000
v 0.323688 -0.430239 0.000000
v 0.313595 -0.430239 0.054139
v 0.323688 -0.430239 0.000000
v 0.323688 0.032615 0.000000
v 0.313595 0.032615 0.054139
v 0.313595 -0.430239 0.054139
v 0.336552 0.116635 0.054139
v 0.316732 0.086067 0.054139
v 0.326926 0.086067 0.000000
v 0.347386 0.116635 0.000000
v -0.295363 0.238361 0.000000
v -0.343908 0.157365 0.000000
v -0.333139 0.157365 0.054139
v -0.286246 0.238018 0.054139
v -0.286246 0.238018 0.054139
v -0.191136 0.313924 0.054139
v -0.196419 0.316425 0.000000
v -0.295363 0.238361 0.000000
v -0.011266 -0.489901 0.054139
v -0.231594 -0.488534 0.054139
v -0.167081 -0.489159 0.000000
v -0.011266 -0.490565 0.000000
v 0.216442 -0.489159 0.000000
v 0.209063 -0.488534 0.054139
v 0.303782 -0.461705 0.054139
v 0.209063 -0.488534 0.054139
v 0.216442 -0.489159 0.000000
v 0.313595 -0.461773 0.000000
v -0.312162 -0.461773 0.000000
v -0.167081 -0.489159 0.000000
v -0.231594 -0.488534 0.054139
v -0.302349 -0.461705 0.054139
v -0.302349 -0.461705 0.054139
v -0.312162 -0.430239 0.054139
v -0.322255 -0.430239 0.000000
v -0.312162 -0.461773 0.000000
v -0.325493 0.086067 0.000000
v -0.322255 0.032615 0.000000
v -0.312162 0.032615 0.054139
v -0.315299 0.086067 0.054139
v -0.322255 0.032615 0.000000
v -0.322255 -0.430239 0.000000
v -0.312162 -0.430239 0.054139
v -0.312162 0.032615 0.054139
v -0.345953 0.116635 0.000000
v -0.325493 0.086067 0.000000
v -0.315299 0.086067 0.054139
v -0.335120 0.116635 0.054139
v -0.335120 0.116635 0.054139
v -0.333139 0.157365 0.054139
v -0.343908 0.157365 0.000000
v -0.345953 0.116635 0.000000
v 0.347386 0.116635 0.000000
v 0.345341 0.157365 0.000000
v 0.334572 0.157365 0.054139
v 0.336552 0.116635 0.054139
v 0.323688 0.032615 0.000000
v 0.326926 0.086067 0.000000
v 0.316732 0.086067 0.054139
v 0.313595 0.032615 0.054139
vn 0.000000 0.000000 -1.000000
vn 0.000000 0.000000 -1.000000
vn 0.000000 0.000000 -1.000000
vn 0.000000 0.000000 -1.000000
vn 0.000000 0.000000 -1.000000
vn 0.000000 0.000000 -1.000000
vn 0.000000 0.000001 1.000000
vn 0.000000 0.000001 1.000000
vn 0.000000 0.000001 1.000000
vn 0.000000 0.000000 1.000000
vn 0.000000 0.000000 1.000000
vn 0.000000 0.000000 1.000000
vn 0.000000 0.000000 -1.000000
vn 0.000000 0.000000 -1.000000
vn 0.000000 0.000000 -1.000000
vn 0.000000 0.000000 -1.000000
vn 0.000000 0.000000 -1.000000
vn 0.000000 0.000000 -1.000000
vn 0.000000 0.000000 -1.000000
vn 0.000000 0.000000 -1.000000
vn 0.000000 0.000000 -1.000000
vn 0.000000 0.000000 -1.000000
vn 0.000000 0.000000 -1.000000
vn 0.000000 0.000000 -1.000000
vn 0.000000 0.000000 -1.000000
vn 0.000000 0.000000 -1.000000
vn 0.000000 0.000000 -1.000000
vn 0.000000 0.000000 -1.000000
vn 0.000000 0.000000 -1.000000
vn 0.000000 0.000000 -1.000000
vn 0.000000 0.000000 -1.000000
vn 0.000000 0.000000 -1.000000
vn 0.000000 0.000000 -1.000000
vn 0.000000 0.000000 -1.000000
vn 0.000000 0.000000 -1.000000
vn 0.000000 0.000000 -1.000000
vn 0.000000 0.000000 -1.000000
vn 0.000000 0.000000 -1.000000
vn 0.000000 0.000000 -1.000000
vn 0.000000 0.000000 -1.000000
vn 0.000000 0.000000 -1.000000
vn 0.000000 0.000000 -1.000000
vn 0.000000 0.000000 -1.000000
vn 0.000000 0.000000 -1.000000
vn 0.000000 0.000000 -1.000000
vn 0.000000 0.000000 -1.000000
vn 0.000000 0.000000 -1.000000
vn 0.000000 0.000000 -1.000000
vn 0.000000 0.000000 -1.000000
vn 0.000000 0.000000 -1.000000
vn 0.000000 0.000000 -1.000000
vn 0.000000 0.000000 -1.000000
vn 0.000000 0.000000 -1.000000
vn 0.000000 0.000000 -1.000000
vn 0.000000 0.000000 -1.000000
vn 0.000000 0.000000 -1.000000
vn 0.000000 0.000000 -1.000000
vn 0.000000 0.000000 -1.000000
vn 0.000000 0.000000 -1.000000
vn 0.000000 0.000000 -1.000000
vn 0.000000 0.000000 -1.000000
vn 0.000000 0.000000 -1.000000
vn 0.000000 0.000000 -1.000000
vn 0.000000 0.000000 -1.000000
vn 0.000000 0.000000 -1.000000
vn 0.000000 0.000000 -1.000000
vn 0.000000 0.000000 -1.000000
vn 0.000000 0.000000 -1.000000
vn 0.000000 0.000000 -1.000000
vn 0.000000 0.000000 -1.000000
vn 0.000000 0.000000 -1.000000
vn 0.000000 0.000000 -1.000000
vn 0.000000 0.000000 -1.000000
vn 0.000000 0.000000 -1.000000
vn 0.000000 0.000000 -1.000000
vn 0.000000 0.000000 -1.000000
vn 0.000000 0.000000 -1.000000
vn 0.000000 0.000000 -1.000000
vn 0.000000 0.000000 -1.000000
vn 0.000000 0.000000 -1.000000
vn 0.000000 0.000000 -1.000000
vn 0.000000 0.000000 -1.000000
vn 0.000000 0.000000 -1.000000
vn 0.000000 0.000000 -1.000000
vn 0.000000 0.000000 -1.000000
vn 0.000000 0.000000 -1.000000
vn 0.000000 0.000000 -1.000000
vn 0.000000 0.000000 1.000000
vn 0.000000 0.000000 1.000000
vn 0.000000 0.000000 1.000000
vn 0.000000 0.000000 1.000000
vn 0.000000 0.000000 1.000000
vn 0.000000 0.000000 1.000000
vn 0.000000 0.000000 1.000000
vn 0.000000 0.000000 1.000000
vn 0.000000 0.000000 1.000000
vn 0.000000 0.000000 1.000000
vn 0.000000 0.000000 1.000000
vn 0.000000 0.000000 1.000000
vn 0.000000 0.000000 1.000000
vn 0.000000 0.000000 1.000000
vn 0.000000 0.000000 1.000000
vn 0.000000 0.000000 1.000000
vn 0.000000 0.000000 1.000000
vn 0.000000 0.000000 1.000000
vn 0.000000 0.000000 1.000000
vn 0.000000 0.000000 1.000000
vn 0.000000 0.000000 1.000000
vn 0.000000 0.000000 1.000000
vn 0.000000 0.000000 1.000000
vn 0.000000 0.000000 1.000000
vn 0.000000 0.000000 1.000000
vn 0.000000 0.000000 1.000000
vn 0.000000 0.000000 1.000000
vn 0.000000 0.000000 1.000000
vn 0.000000 0.000000 1.000000
vn 0.000000 0.000000 1.000000
vn 0.000000 0.000000 1.000000
vn 0.000000 0.000000 1.000000
vn 0.000000 0.000000 1.000000
vn 0.000000 0.000000 1.000000
vn 0.000000 0.000000 1.000000
vn 0.000000 0.000000 1.000000
vn 0.000000 0.000000 1.000000
vn 0.000000 0.000000 1.000000
vn 0.000000 0.000000 1.000000
vn 0.000000 0.000000 1.000000
vn 0.000000 0.000000 1.000000
vn 0.000000 0.000000 1.000000
vn 0.000000 0.000000 1.000000
vn 0.000000 0.000000 1.000000
vn 0.000000 0.000000 1.000000
vn 0.000000 0.000000 1.000000
vn 0.000000 0.000000 1.000000
vn 0.000000 0.000000 1.000000
vn 0.000000 0.000000 1.000000
vn 0.000000 0.000000 1.000000
vn 0.000000 0.000000 1.000000
vn 0.000000 0.000000 1.000000
vn 0.000000 0.000000 1.000000
vn 0.000000 0.000000 1.000000
vn 0.000000 0.000000 1.000000
vn 0.000000 0.000000 1.000000
vn 0.000000 0.000000 1.000000
vn 0.000000 0.000000 1.000000
vn 0.000000 0.000000 1.000000
vn 0.000000 0.000000 1.000000
vn 0.000000 0.000000 1.000000
vn 0.000000 0.000000 1.000000
vn 0.000000 0.000000 1.000000
vn 0.000000 0.000000 1.000000
vn 0.000000 0.000000 1.000000
vn 0.000000 0.000000 1.000000
vn 0.000000 0.000000 1.000000
vn 0.000000 0.000000 1.000000
vn 0.000000 0.000000 1.000000
vn 0.000000 0.000000 1.000000
vn 0.000000 0.000000 1.000000
vn 0.000000 0.000000 1.000000
vn 0.000000 0.000000 1.000000
vn 0.000000 0.000000 1.000000
vn 0.000000 0.000000 1.000000
vn 0.618270 0.779228 -0.102700
vn 0.618270 0.779228 -0.102700
vn 0.618270 0.779228 -0.102700
vn 0.618270 0.779228 -0.102700
vn 0.850332 0.502041 -0.157767
vn 0.850332 0.502041 -0.157767
vn 0.850332 0.502041 -0.157767
vn 0.850332 0.502041 -0.157767
vn 0.000000 0.000000 -1.000000
vn 0.000000 0.000000 -1.000000
vn 0.000000 0.000000 -1.000000
vn 0.000000 0.000000 -1.000000
vn 0.000000 0.000000 -1.000000
vn 0.000000 0.000000 -1.000000
vn 0.000000 0.000000 -1.000000
vn 0.000000 0.000000 -1.000000
vn 0.000000 0.000000 -1.000000
vn 0.000000 0.000000 -1.000000
vn 0.000000 0.000000 -1.000000
vn 0.000000 0.000000 -1.000000
vn 0.000000 0.000000 -1.000000
vn 0.000000 0.000000 -1.000000
vn 0.000000 0.000000 -1.000000
vn 0.000000 0.000000 -1.000000
vn 0.000000 0.000000 -1.000000
vn 0.000000 0.000000 -1.000000
vn 0.000000 0.000000 -1.000000
vn 0.000000 0.000000 -1.000000
vn 0.000000 0.000000 -1.000000
vn 0.000000 0.000000 -1.000000
vn 0.000000 0.000000 -1.000000
vn 0.000000 0.000000 -1.000000
vn 0.000000 0.000000 -1.000000
vn 0.000000 0.000000 -1.000000
vn 0.000000 0.000000 -1.000000
vn 0.000000 0.000000 -1.000000
vn 0.000000 0.000000 -1.000000
vn 0.000000 0.000000 -1.000000
vn 0.000000 0.000000 -1.000000
vn 0.000000 0.000000 -1.000000
vn 0.000000 0.000000 -1.000000
vn 0.000000 0.000000 -1.000000
vn 0.000000 0.000000 -1.000000
vn 0.000000 0.000000 -1.000000
vn 0.000000 0.000000 -1.000000
vn 0.000000 0.000000 -1.000000
vn -0.072843 0.995465 -0.061190
vn -0.072843 0.995465 -0.061190
vn -0.072843 0.995465 -0.061190
vn -0.072843 0.995465 -0.061190
vn -0.311538 0.947527 -0.071675
vn -0.311538 0.947527 -0.071675
vn -0.311538 0.947527 -0.071675
vn -0.311538 0.947527 -0.071675
vn 0.000000 0.000000 -1.000000
vn 0.000000 0.000000 -1.000000
vn 0.000000 0.000000 -1.000000
vn 0.000000 0.000000 -1.000000
vn 0.000000 0.000000 -1.000000
vn 0.000000 0.000000 -1.000000
vn 0.000000 0.000000 -1.000000
vn 0.000000 0.000000 -1.000000
vn 0.000000 0.000000 -1.000000
vn 0.000000 0.000000 -1.000000
vn 0.000000 0.000000 -1.000000
vn 0.000000 0.000000 -1.000000
vn 0.000000 0.000000 -1.000000
vn 0.000000 0.000000 -1.000000
vn 0.072843 0.995465 -0.061190
vn 0.072843 0.995465 -0.061190
vn 0.072843 0.995465 -0.061190
vn 0.072843 0.995465 -0.061190
vn 0.311538 0.947527 -0.071675
vn 0.311538 0.947527 -0.071675
vn 0.311538 0.947527 -0.071675
vn 0.311538 0.947527 -0.071675
vn 0.939184 -0.296747 -0.172843
vn 0.939184 -0.296747 -0.172843
vn 0.939184 -0.296747 -0.172843
vn 0.939184 -0.296747 -0.172843
vn 0.983063 0.000000 -0.183269
vn 0.983063 0.000000 -0.183269
vn 0.983063 0.000000 -0.183269
vn 0.983063 0.000000 -0.183269
vn 0.824275 -0.543090 -0.160074
vn 0.824275 -0.543090 -0.160074
vn 0.824275 -0.543090 -0.160074
vn 0.824275 -0.543090 -0.160074
vn -0.850332 0.502041 -0.157766
vn -0.850332 0.502041 -0.157766
vn -0.850332 0.502041 -0.157766
vn -0.850332 0.502041 -0.157766
vn -0.618270 0.779227 -0.102700
vn -0.618270 0.779227 -0.102700
vn -0.618270 0.779227 -0.102700
vn -0.618270 0.779227 -0.102700
vn -0.007373 -0.999945 -0.007511
vn -0.007373 -0.999945 -0.007511
vn -0.007373 -0.999945 -0.007511
vn -0.007373 -0.999945 -0.007511
vn 0.006189 -0.999905 -0.012325
vn 0.006189 -0.999905 -0.012325
vn 0.271579 -0.961154 -0.049275
vn 0.271579 -0.961154 -0.049275
vn 0.271579 -0.961154 -0.049275
vn 0.271579 -0.961154 -0.049275
vn -0.241970 -0.963316 0.116071
vn -0.241970 -0.963316 0.116071
vn -0.241970 -0.963316 0.116071
vn -0.241970 -0.963316 0.116071
vn -0.939184 -0.296747 -0.172844
vn -0.939184 -0.296747 -0.172844
vn -0.939184 -0.296747 -0.172844
vn -0.939184 -0.296747 -0.172844
vn -0.981213 -0.058512 -0.183840
vn -0.981213 -0.058512 -0.183840
vn -0.981213 -0.058512 -0.183840
vn -0.981213 -0.058512 -0.183840
vn -0.983063 0.000000 -0.183269
vn -0.983063 0.000000 -0.183269
vn -0.983063 0.000000 -0.183269
vn -0.983063 0.000000 -0.183269
vn -0.824276 -0.543089 -0.160074
vn -0.824276 -0.543089 -0.160074
vn -0.824276 -0.543089 -0.160074
vn -0.824276 -0.543089 -0.160074
vn -0.979523 0.048400 -0.195430
vn -0.979523 0.048400 -0.195430
vn -0.979523 0.048400 -0.195430
vn -0.979523 0.048400 -0.195430
vn 0.979523 0.048400 -0.195430
vn 0.979523 0.048400 -0.195430
vn 0.979523 0.048400 -0.195430
vn 0.979523 0.048400 -0.195430
vn 0.981213 -0.058511 -0.183841
vn 0.981213 -0.058511 -0.183841
vn 0.981213 -0.058511 -0.183841
vn 0.981213 -0.058511 -0.183841
vn 0.618269 0.779228 0.102700
vn 0.618269 0.779228 0.102700
vn 0.618269 0.779228 0.102700
vn 0.618269 0.779228 0.102700
vn 0.850332 0.502041 0.157767
vn 0.850332 0.502041 0.157767
vn 0.850332 0.502041 0.157767
vn 0.850332 0.502041 0.157767
vn 0.000000 0.000000 1.000000
vn 0.000000 0.000000 1.000000
vn 0.000000 0.000000 1.000000
vn 0.000000 0.000000 1.000000
vn 0.000000 0.000000 1.000000
vn 0.000000 0.000000 1.000000
vn 0.000000 0.000000 1.000000
vn 0.000000 0.000000 1.000000
vn 0.000000 0.000000 1.000000
vn 0.000000 0.000000 1.000000
vn 0.000000 0.000000 1.000000
vn 0.000000 0.000000 1.000000
vn 0.000000 0.000000 1.000000
vn 0.000000 0.000000 1.000000
vn 0.000000 0.000000 1.000000
vn 0.000000 0.000000 1.000000
vn 0.000000 0.000000 1.000000
vn 0.000000 0.000000 1.000000
vn 0.000000 0.000000 1.000000
vn 0.000000 0.000000 1.000000
vn 0.000000 0.000000 1.000000
vn 0.000000 0.000000 1.000000
vn 0.000000 0.000000 1.000000
vn 0.000000 0.000000 1.000000
vn 0.000000 0.000000 1.000000
vn 0.000000 0.000000 1.000000
vn 0.000000 0.000000 1.000000
vn 0.000000 0.000000 1.000000
vn 0.000000 0.000000 1.000000
vn 0.000000 0.000000 1.000000
vn 0.000000 0.000000 1.000000
vn 0.000000 0.000000 1.000000
vn 0.000000 0.000000 1.000000
vn 0.000000 0.000000 1.000000
vn 0.000000 0.000000 1.000000
vn 0.000000 0.000000 1.000000
vn 0.000000 0.000000 1.000000
vn 0.000000 0.000000 1.000000
vn -0.072843 0.995465 0.061189
vn -0.072843 0.995465 0.061189
vn -0.072843 0.995465 0.061189
vn -0.072843 0.995465 0.061189
vn -0.311538 0.947527 0.071675
vn -0.311538 0.947527 0.071675
vn -0.311538 0.947527 0.071675
vn -0.311538 0.947527 0.071675
vn 0.000000 0.000000 1.000000
vn 0.000000 0.000000 1.000000
vn 0.000000 0.000000 1.000000
vn 0.000000 0.000000 1.000000
vn 0.000000 0.000000 1.000000
vn 0.000000 0.000000 1.000000
vn 0.000000 0.000000 1.000000
vn 0.000000 0.000000 1.000000
vn 0.000000 0.000000 1.000000
vn 0.000000 0.000000 1.000000
vn 0.000000 0.000000 1.000000
vn 0.000000 0.000000 1.000000
vn 0.000000 0.000000 1.000000
vn 0.000000 0.000000 1.000000
vn 0.072842 0.995465 0.061189
vn 0.072842 0.995465 0.061189
vn 0.072842 0.995465 0.061189
vn 0.072842 0.995465 0.061189
vn 0.311538 0.947527 0.071675
vn 0.311538 0.947527 0.071675
vn 0.311538 0.947527 0.071675
vn 0.311538 0.947527 0.071675
vn 0.939184 -0.296747 0.172844
vn 0.939184 -0.296747 0.172844
vn 0.939184 -0.296747 0.172844
vn 0.939184 -0.296747 0.172844
vn 0.983063 0.000000 0.183269
vn 0.983063 0.000000 0.183269
vn 0.983063 0.000000 0.183269
vn 0.983063 0.000000 0.183269
vn 0.824275 -0.543090 0.160074
vn 0.824275 -0.543090 0.160074
vn 0.824275 -0.543090 0.160074
vn 0.824275 -0.543090 0.160074
vn -0.850332 0.502041 0.157766
vn -0.850332 0.502041 0.157766
vn -0.850332 0.502041 0.157766
vn -0.850332 0.502041 0.157766
vn -0.618270 0.779227 0.102700
vn -0.618270 0.779227 0.102700
vn -0.618270 0.779227 0.102700
vn -0.618270 0.779227 0.102700
vn -0.007373 -0.999945 0.007511
vn -0.007373 -0.999945 0.007511
vn -0.007373 -0.999945 0.007511
vn -0.007373 -0.999945 0.007511
vn 0.006189 -0.999905 0.012325
vn 0.006189 -0.999905 0.012325
vn 0.271579 -0.961154 0.049275
vn 0.271579 -0.961154 0.049275
vn 0.271579 -0.961154 0.049275
vn 0.271579 -0.961154 0.049275
vn -0.241969 -0.963316 -0.116071
vn -0.241969 -0.963316 -0.116071
vn -0.241969 -0.963316 -0.116071
vn -0.241969 -0.963316 -0.116071
vn -0.939184 -0.296747 0.172844
vn -0.939184 -0.296747 0.172844
vn -0.939184 -0.296747 0.172844
vn -0.939184 -0.296747 0.172844
vn -0.981213 -0.058512 0.183840
vn -0.981213 -0.058512 0.183840
vn -0.981213 -0.058512 0.183840
vn -0.981213 -0.058512 0.183840
vn -0.983063 0.000000 0.183269
vn -0.983063 0.000000 0.183269
vn -0.983063 0.000000 0.183269
vn -0.983063 0.000000 0.183269
vn -0.824276 -0.543090 0.160074
vn -0.824276 -0.543090 0.160074
vn -0.824276 -0.543090 0.160074
vn -0.824276 -0.543090 0.160074
vn -0.979523 0.048400 0.195430
vn -0.979523 0.048400 0.195430
vn -0.979523 0.048400 0.195430
vn -0.979523 0.048400 0.195430
vn 0.979523 0.048400 0.195430
vn 0.979523 0.048400 0.195430
vn 0.979523 0.048400 0.195430
vn 0.979523 0.048400 0.195430
vn 0.981213 -0.058511 0.183841
vn 0.981213 -0.058511 0.183841
vn 0.981213 -0.058511 0.183841
vn 0.981213 -0.058511 0.183841
vt 0.091541 0.612721
vt 0.067144 0.612929
vt 0.280608 0.549474
vt 0.280608 0.520668
vt 0.152572 0.612055
vt 0.143389 0.612157
vt 0.091541 0.612721
vt 0.280608 0.549474
vt 0.067144 0.612929
vt 0.280608 0.520668
vt 0.143389 0.612157
vt 0.152572 0.612055
vt 0.076704 0.520749
vt 0.091180 0.520526
vt 0.095403 0.511297
vt 0.086264 0.512721
vt 0.094956 0.508817
vt 0.083043 0.511397
vt 0.068094 0.520720
vt 0.086264 0.512721
vt 0.083043 0.511397
vt 0.071760 0.531221
vt 0.061688 0.531297
vt 0.091180 0.520526
vt 0.061481 0.536676
vt 0.071613 0.536599
vt 0.088562 0.531065
vt 0.073863 0.540611
vt 0.064330 0.540681
vt 0.088515 0.536442
vt 0.074305 0.547662
vt 0.064867 0.547731
vt 0.089767 0.540464
vt 0.075126 0.608749
vt 0.065688 0.608819
vt 0.067144 0.612929
vt 0.076298 0.612844
vt 0.090872 0.608604
vt 0.090051 0.547517
vt 0.108733 0.530864
vt 0.108805 0.536240
vt 0.108859 0.540274
vt 0.108954 0.547329
vt 0.108592 0.520263
vt 0.108474 0.510506
vt 0.095403 0.511297
vt 0.108453 0.507852
vt 0.094956 0.508817
vt 0.121567 0.511029
vt 0.121974 0.508541
vt 0.126013 0.520170
vt 0.128910 0.530652
vt 0.140509 0.520096
vt 0.129102 0.536027
vt 0.145730 0.530464
vt 0.127958 0.540073
vt 0.146022 0.535837
vt 0.127863 0.547130
vt 0.143880 0.539894
vt 0.156184 0.535706
vt 0.155832 0.530333
vt 0.153444 0.539769
vt 0.149146 0.519891
vt 0.153096 0.546828
vt 0.130751 0.512265
vt 0.133956 0.510876
vt 0.143628 0.546952
vt 0.153917 0.607916
vt 0.109775 0.608416
vt 0.128684 0.608217
vt 0.144448 0.608040
vt 0.152572 0.612055
vt 0.143389 0.612157
vt 0.128128 0.612347
vt 0.109832 0.612558
vt 0.091541 0.612721
vt 0.128128 0.612347
vt 0.280395 0.535071
vt 0.280608 0.520668
vt 0.109832 0.612558
vt 0.280608 0.549474
vt 0.280395 0.535071
vt 0.121974 0.508541
vt 0.130751 0.512265
vt 0.133956 0.510876
vt 0.121567 0.511029
vt 0.126013 0.520170
vt 0.076704 0.520749
vt 0.095403 0.511297
vt 0.091180 0.520526
vt 0.086264 0.512721
vt 0.094956 0.508817
vt 0.083043 0.511397
vt 0.068094 0.520720
vt 0.086264 0.512721
vt 0.083043 0.511397
vt 0.071760 0.531221
vt 0.061688 0.531297
vt 0.091180 0.520526
vt 0.061481 0.536676
vt 0.071613 0.536599
vt 0.088562 0.531065
vt 0.073863 0.540611
vt 0.064330 0.540681
vt 0.088515 0.536442
vt 0.074305 0.547662
vt 0.064867 0.547731
vt 0.089767 0.540464
vt 0.075126 0.608749
vt 0.065688 0.608819
vt 0.067144 0.612929
vt 0.076298 0.612844
vt 0.090872 0.608604
vt 0.090051 0.547517
vt 0.108733 0.530864
vt 0.108805 0.536240
vt 0.108859 0.540274
vt 0.108954 0.547329
vt 0.108592 0.520263
vt 0.108474 0.510506
vt 0.095403 0.511297
vt 0.108453 0.507852
vt 0.094956 0.508817
vt 0.121567 0.511029
vt 0.121974 0.508541
vt 0.126013 0.520170
vt 0.128910 0.530652
vt 0.140509 0.520096
vt 0.129102 0.536027
vt 0.145730 0.530464
vt 0.127958 0.540073
vt 0.146022 0.535837
vt 0.127863 0.547130
vt 0.143880 0.539894
vt 0.156184 0.535706
vt 0.155832 0.530333
vt 0.153444 0.539769
vt 0.149146 0.519891
vt 0.153096 0.546828
vt 0.130751 0.512265
vt 0.133956 0.510876
vt 0.143628 0.546952
vt 0.153917 0.607916
vt 0.109775 0.608416
vt 0.128684 0.608217
vt 0.144448 0.608040
vt 0.152572 0.612055
vt 0.143389 0.612157
vt 0.128128 0.612347
vt 0.109832 0.612558
vt 0.091541 0.612721
vt 0.128128 0.612347
vt 0.280395 0.535071
vt 0.280608 0.520668
vt 0.109832 0.612558
vt 0.280608 0.549474
vt 0.280395 0.535071
vt 0.121974 0.508541
vt 0.133956 0.510876
vt 0.130751 0.512265
vt 0.121567 0.511029
vt 0.126013 0.520170
vt 0.591430 0.564612
vt 0.590608 0.558918
vt 0.580759 0.558976
vt 0.581200 0.564605
vt 0.411773 0.467571
vt 0.411740 0.473264
vt 0.419036 0.473254
vt 0.419038 0.467549
vt 0.416307 0.567342
vt 0.428275 0.564384
vt 0.426074 0.561250
vt 0.420139 0.569459
vt 0.412163 0.573751
vt 0.416652 0.575215
vt 0.412028 0.576967
vt 0.416540 0.578143
vt 0.413848 0.579362
vt 0.418090 0.580323
vt 0.414187 0.583577
vt 0.418383 0.584160
vt 0.414678 0.620108
vt 0.418829 0.617408
vt 0.415596 0.622582
vt 0.419622 0.619645
vt 0.432388 0.624527
vt 0.433939 0.621305
vt 0.442957 0.624527
vt 0.442896 0.621304
vt 0.451851 0.621121
vt 0.453525 0.624311
vt 0.470259 0.622022
vt 0.466118 0.619169
vt 0.466850 0.616917
vt 0.471110 0.619530
vt 0.470619 0.583000
vt 0.466403 0.583668
vt 0.470846 0.578778
vt 0.466592 0.579826
vt 0.472601 0.576347
vt 0.468084 0.577615
vt 0.472379 0.573135
vt 0.467892 0.574691
vt 0.468064 0.566812
vt 0.464253 0.569007
vt 0.458137 0.560922
vt 0.455986 0.564101
vt 0.564726 0.558922
vt 0.556253 0.558949
vt 0.556030 0.564604
vt 0.564726 0.564603
vt 0.556253 0.558949
vt 0.548694 0.558976
vt 0.548253 0.564605
vt 0.556030 0.564604
vt 0.442076 0.558922
vt 0.449464 0.562829
vt 0.450556 0.559377
vt 0.442105 0.562455
vt 0.434759 0.562980
vt 0.433611 0.559551
vt 0.450556 0.559377
vt 0.449464 0.562829
vt 0.455986 0.564101
vt 0.458137 0.560922
vt 0.433611 0.559551
vt 0.426074 0.561250
vt 0.428275 0.564384
vt 0.434759 0.562980
vt 0.564726 0.558922
vt 0.564726 0.564603
vt 0.573423 0.564604
vt 0.573200 0.558949
vt 0.573200 0.558949
vt 0.573423 0.564604
vt 0.581200 0.564605
vt 0.580759 0.558976
vt 0.474878 0.467568
vt 0.472038 0.467553
vt 0.472036 0.473258
vt 0.474882 0.473260
vt 0.472036 0.473258
vt 0.472038 0.467553
vt 0.430293 0.467553
vt 0.430291 0.473258
vt 0.422711 0.467548
vt 0.422709 0.473253
vt 0.425470 0.473257
vt 0.425472 0.467552
vt 0.474882 0.553206
vt 0.474915 0.558898
vt 0.482180 0.558921
vt 0.482178 0.553216
vt 0.538846 0.558918
vt 0.538024 0.564612
vt 0.548253 0.564605
vt 0.548694 0.558976
vt 0.566242 0.558847
vt 0.555319 0.553169
vt 0.555673 0.558824
vt 0.566242 0.553166
vt 0.577165 0.553169
vt 0.576811 0.558824
vt 0.593575 0.558918
vt 0.594460 0.553225
vt 0.577165 0.553169
vt 0.576811 0.558824
vt 0.538024 0.553225
vt 0.538909 0.558918
vt 0.555673 0.558824
vt 0.555319 0.553169
vt 0.538019 0.558902
vt 0.538024 0.553210
vt 0.535178 0.553212
vt 0.535180 0.558917
vt 0.488612 0.553212
vt 0.488614 0.558917
vt 0.493435 0.558917
vt 0.493433 0.553212
vt 0.493433 0.553212
vt 0.493435 0.558917
vt 0.535180 0.558917
vt 0.535178 0.553212
vt 0.485851 0.553217
vt 0.485853 0.558922
vt 0.488614 0.558917
vt 0.488612 0.553212
vt 0.485853 0.558922
vt 0.485851 0.553217
vt 0.482178 0.553216
vt 0.482180 0.558921
vt 0.422709 0.473253
vt 0.422711 0.467548
vt 0.419038 0.467549
vt 0.419036 0.473254
vt 0.430291 0.473258
vt 0.430293 0.467553
vt 0.425472 0.467552
vt 0.425470 0.473257
vt 0.591430 0.564612
vt 0.581200 0.564605
vt 0.580759 0.558976
vt 0.590608 0.558918
vt 0.411773 0.467571
vt 0.419038 0.467549
vt 0.419036 0.473254
vt 0.411740 0.473264
vt 0.416307 0.567342
vt 0.426074 0.561250
vt 0.428275 0.564384
vt 0.420139 0.569459
vt 0.412163 0.573751
vt 0.416652 0.575215
vt 0.412028 0.576967
vt 0.416540 0.578143
vt 0.413848 0.579362
vt 0.418090 0.580323
vt 0.414187 0.583577
vt 0.418383 0.584160
vt 0.414678 0.620108
vt 0.418829 0.617408
vt 0.415596 0.622582
vt 0.419622 0.619645
vt 0.432388 0.624527
vt 0.433939 0.621305
vt 0.442957 0.624527
vt 0.442896 0.621304
vt 0.451851 0.621121
vt 0.453525 0.624311
vt 0.470259 0.622022
vt 0.466118 0.619169
vt 0.466850 0.616917
vt 0.471110 0.619530
vt 0.470619 0.583000
vt 0.466403 0.583668
vt 0.470846 0.578778
vt 0.466592 0.579826
vt 0.472601 0.576347
vt 0.468084 0.577615
vt 0.472379 0.573135
vt 0.467892 0.574691
vt 0.468064 0.566812
vt 0.464253 0.569007
vt 0.458137 0.560922
vt 0.455986 0.564101
vt 0.564726 0.558922
vt 0.564726 0.564603
vt 0.556030 0.564604
vt 0.556253 0.558949
vt 0.556253 0.558949
vt 0.556030 0.564604
vt 0.548253 0.564605
vt 0.548694 0.558976
vt 0.442076 0.558922
vt 0.450556 0.559377
vt 0.449464 0.562829
vt 0.442105 0.562455
vt 0.434759 0.562980
vt 0.433611 0.559551
vt 0.450556 0.559377
vt 0.458137 0.560922
vt 0.455986 0.564101
vt 0.449464 0.562829
vt 0.433611 0.559551
vt 0.434759 0.562980
vt 0.428275 0.564384
vt 0.426074 0.561250
vt 0.564726 0.558922
vt 0.573200 0.558949
vt 0.573423 0.564604
vt 0.564726 0.564603
vt 0.573200 0.558949
vt 0.580759 0.558976
vt 0.581200 0.564605
vt 0.573423 0.564604
vt 0.474878 0.467568
vt 0.474882 0.473260
vt 0.472036 0.473258
vt 0.472038 0.467553
vt 0.472036 0.473258
vt 0.430291 0.473258
vt 0.430293 0.467553
vt 0.472038 0.467553
vt 0.422711 0.467548
vt 0.425472 0.467552
vt 0.425470 0.473257
vt 0.422709 0.473253
vt 0.474882 0.553206
vt 0.482178 0.553216
vt 0.482180 0.558921
vt 0.474915 0.558898
vt 0.538846 0.558918
vt 0.548694 0.558976
vt 0.548253 0.564605
vt 0.538024 0.564612
vt 0.566242 0.558847
vt 0.555673 0.558824
vt 0.555319 0.553169
vt 0.566242 0.553166
vt 0.577165 0.553169
vt 0.576811 0.558824
vt 0.593575 0.558918
vt 0.576811 0.558824
vt 0.577165 0.553169
vt 0.594460 0.553225
vt 0.538024 0.553225
vt 0.555319 0.553169
vt 0.555673 0.558824
vt 0.538909 0.558918
vt 0.538019 0.558902
vt 0.535180 0.558917
vt 0.535178 0.553212
vt 0.538024 0.553210
vt 0.488612 0.553212
vt 0.493433 0.553212
vt 0.493435 0.558917
vt 0.488614 0.558917
vt 0.493433 0.553212
vt 0.535178 0.553212
vt 0.535180 0.558917
vt 0.493435 0.558917
vt 0.485851 0.553217
vt 0.488612 0.553212
vt 0.488614 0.558917
vt 0.485853 0.558922
vt 0.485853 0.558922
vt 0.482180 0.558921
vt 0.482178 0.553216
vt 0.485851 0.553217
vt 0.422709 0.473253
vt 0.419036 0.473254
vt 0.419038 0.467549
vt 0.422711 0.467548
vt 0.430291 0.473258
vt 0.425470 0.473257
vt 0.425472 0.467552
vt 0.430293 0.467553
g Bread_Slice_Light
usemtl Light
f 1/1/1 2/2/2 3/3/3
f 4/4/4 5/5/5 6/6/6
f 7/7/7 8/8/8 9/9/9
f 10/10/10 11/11/11 12/12/12
f 13/13/13 14/14/14 15/15/15
f 13/13/13 15/15/15 16/16/16
f 17/17/17 16/16/16 15/15/15
f 17/17/17 18/18/18 16/16/16
f 19/19/19 13/13/13 20/20/20
f 19/19/19 20/20/20 21/21/21
f 22/22/22 13/13/13 19/19/19
f 22/22/22 19/19/19 23/23/23
f 24/24/24 13/13/13 22/22/22
f 25/25/25 22/22/22 23/23/23
f 25/25/25 26/26/26 22/22/22
f 24/24/24 22/22/22 27/27/27
f 26/26/26 27/27/27 22/22/22
f 28/28/28 26/26/26 25/25/25
f 28/28/28 25/25/25 29/29/29
f 26/26/26 30/30/30 27/27/27
f 30/30/30 26/26/26 28/28/28
f 31/31/31 28/28/28 29/29/29
f 31/31/31 29/29/29 32/32/32
f 30/30/30 28/28/28 33/33/33
f 31/31/31 33/33/33 28/28/28
f 34/34/34 31/31/31 32/32/32
f 34/34/34 32/32/32 35/35/35
f 36/36/36 34/34/34 35/35/35
f 36/36/36 37/37/37 34/34/34
f 37/37/37 38/38/38 34/34/34
f 34/34/34 39/39/39 31/31/31
f 31/31/31 39/39/39 33/33/33
f 34/34/34 38/38/38 39/39/39
f 30/30/30 40/40/40 27/27/27
f 41/41/41 30/30/30 33/33/33
f 30/30/30 41/41/41 40/40/40
f 39/39/39 42/42/42 33/33/33
f 41/41/41 33/33/33 42/42/42
f 38/38/38 43/43/43 39/39/39
f 39/39/39 43/43/43 42/42/42
f 44/44/44 27/27/27 40/40/40
f 44/44/44 24/24/24 27/27/27
f 24/24/24 44/44/44 45/45/45
f 24/24/24 45/45/45 46/46/46
f 47/47/47 46/46/46 45/45/45
f 47/47/47 48/48/48 46/46/46
f 47/47/47 45/45/45 49/49/49
f 44/44/44 49/49/49 45/45/45
f 47/47/47 49/49/49 50/50/50
f 44/44/44 51/51/51 49/49/49
f 51/51/51 44/44/44 40/40/40
f 51/51/51 40/40/40 52/52/52
f 41/41/41 52/52/52 40/40/40
f 53/53/53 51/51/51 52/52/52
f 54/54/54 41/41/41 42/42/42
f 41/41/41 54/54/54 52/52/52
f 53/53/53 52/52/52 55/55/55
f 54/54/54 55/55/55 52/52/52
f 54/54/54 42/42/42 56/56/56
f 56/56/56 42/42/42 43/43/43
f 54/54/54 57/57/57 55/55/55
f 57/57/57 54/54/54 56/56/56
f 56/56/56 43/43/43 58/58/58
f 57/57/57 56/56/56 59/59/59
f 59/59/59 56/56/56 58/58/58
f 55/55/55 57/57/57 60/60/60
f 60/60/60 57/57/57 59/59/59
f 55/55/55 60/60/60 61/61/61
f 60/60/60 59/59/59 62/62/62
f 63/63/63 55/55/55 61/61/61
f 63/63/63 53/53/53 55/55/55
f 59/59/59 64/64/64 62/62/62
f 65/65/65 53/53/53 63/63/63
f 65/65/65 63/63/63 66/66/66
f 59/59/59 67/67/67 64/64/64
f 59/59/59 58/58/58 67/67/67
f 67/67/67 68/68/68 64/64/64
f 58/58/58 43/43/43 69/69/69
f 38/38/38 69/69/69 43/43/43
f 67/67/67 58/58/58 70/70/70
f 58/58/58 69/69/69 70/70/70
f 67/67/67 71/71/71 68/68/68
f 67/67/67 70/70/70 71/71/71
f 72/72/72 68/68/68 71/71/71
f 72/72/72 71/71/71 73/73/73
f 74/74/74 71/71/71 70/70/70
f 75/75/75 74/74/74 70/70/70
f 75/75/75 70/70/70 69/69/69
f 75/75/75 69/69/69 38/38/38
f 75/75/75 38/38/38 76/76/76
f 77/77/77 75/75/75 78/78/78
f 77/77/77 78/78/78 79/79/79
f 80/80/80 76/76/76 81/81/81
f 80/80/80 81/81/81 82/82/82
f 83/83/83 84/84/84 85/85/85
f 83/83/83 86/86/86 84/84/84
f 87/87/87 84/84/84 86/86/86
f 87/87/87 53/53/53 84/84/84
f 88/88/88 89/89/89 90/90/90
f 88/88/88 91/91/91 89/89/89
f 92/92/92 89/89/89 91/91/91
f 92/92/92 91/91/91 93/93/93
f 94/94/94 95/95/95 88/88/88
f 94/94/94 96/96/96 95/95/95
f 97/97/97 94/94/94 88/88/88
f 97/97/97 98/98/98 94/94/94
f 99/99/99 97/97/97 88/88/88
f 100/100/100 98/98/98 97/97/97
f 100/100/100 97/97/97 101/101/101
f 99/99/99 102/102/102 97/97/97
f 101/101/101 97/97/97 102/102/102
f 103/103/103 100/100/100 101/101/101
f 103/103/103 104/104/104 100/100/100
f 101/101/101 102/102/102 105/105/105
f 105/105/105 103/103/103 101/101/101
f 106/106/106 104/104/104 103/103/103
f 106/106/106 107/107/107 104/104/104
f 105/105/105 108/108/108 103/103/103
f 106/106/106 103/103/103 108/108/108
f 109/109/109 107/107/107 106/106/106
f 109/109/109 110/110/110 107/107/107
f 111/111/111 110/110/110 109/109/109
f 111/111/111 109/109/109 112/112/112
f 112/112/112 109/109/109 113/113/113
f 109/109/109 106/106/106 114/114/114
f 106/106/106 108/108/108 114/114/114
f 109/109/109 114/114/114 113/113/113
f 105/105/105 102/102/102 115/115/115
f 116/116/116 108/108/108 105/105/105
f 105/105/105 115/115/115 116/116/116
f 114/114/114 108/108/108 117/117/117
f 116/116/116 117/117/117 108/108/108
f 113/113/113 114/114/114 118/118/118
f 114/114/114 117/117/117 118/118/118
f 119/119/119 115/115/115 102/102/102
f 119/119/119 102/102/102 99/99/99
f 99/99/99 120/120/120 119/119/119
f 99/99/99 121/121/121 120/120/120
f 122/122/122 120/120/120 121/121/121
f 122/122/122 121/121/121 123/123/123
f 122/122/122 124/124/124 120/120/120
f 119/119/119 120/120/120 124/124/124
f 122/122/122 125/125/125 124/124/124
f 119/119/119 124/124/124 126/126/126
f 126/126/126 115/115/115 119/119/119
f 126/126/126 127/127/127 115/115/115
f 116/116/116 115/115/115 127/127/127
f 128/128/128 127/127/127 126/126/126
f 129/129/129 117/117/117 116/116/116
f 116/116/116 127/127/127 129/129/129
f 128/128/128 130/130/130 127/127/127
f 129/129/129 127/127/127 130/130/130
f 129/129/129 131/131/131 117/117/117
f 131/131/131 118/118/118 117/117/117
f 129/129/129 130/130/130 132/132/132
f 132/132/132 131/131/131 129/129/129
f 131/131/131 133/133/133 118/118/118
f 132/132/132 134/134/134 131/131/131
f 134/134/134 133/133/133 131/131/131
f 130/130/130 135/135/135 132/132/132
f 135/135/135 134/134/134 132/132/132
f 130/130/130 136/136/136 135/135/135
f 135/135/135 137/137/137 134/134/134
f 138/138/138 136/136/136 130/130/130
f 138/138/138 130/130/130 128/128/128
f 134/134/134 137/137/137 139/139/139
f 140/140/140 138/138/138 128/128/128
f 140/140/140 141/141/141 138/138/138
f 134/134/134 139/139/139 142/142/142
f 134/134/134 142/142/142 133/133/133
f 142/142/142 139/139/139 143/143/143
f 133/133/133 144/144/144 118/118/118
f 113/113/113 118/118/118 144/144/144
f 142/142/142 145/145/145 133/133/133
f 133/133/133 145/145/145 144/144/144
f 142/142/142 143/143/143 146/146/146
f 142/142/142 146/146/146 145/145/145
f 147/147/147 146/146/146 143/143/143
f 147/147/147 148/148/148 146/146/146
f 149/149/149 145/145/145 146/146/146
f 150/150/150 145/145/145 149/149/149
f 150/150/150 144/144/144 145/145/145
f 150/150/150 113/113/113 144/144/144
f 150/150/150 151/151/151 113/113/113
f 152/152/152 153/153/153 150/150/150
f 152/152/152 154/154/154 153/153/153
f 155/155/155 156/156/156 151/151/151
f 155/155/155 157/157/157 156/156/156
f 158/158/158 159/159/159 160/160/160
f 158/158/158 160/160/160 161/161/161
f 162/162/162 161/161/161 160/160/160
f 162/162/162 160/160/160 128/128/128
g Bread_Slice_Brown
usemtl Brown
f 163/163/163 164/164/164 165/165/165
f 163/163/163 165/165/165 166/166/166
f 167/167/167 168/168/168 169/169/169
f 167/167/167 169/169/169 170/170/170
f 171/171/171 172/172/172 173/173/173
f 171/171/171 174/174/174 172/172/172
f 174/174/174 171/171/171 175/175/175
f 174/174/174 175/175/175 176/176/176
f 177/177/177 176/176/176 175/175/175
f 177/177/177 178/178/178 176/176/176
f 178/178/178 177/177/177 179/179/179
f 178/178/178 179/179/179 180/180/180
f 180/180/180 179/179/179 181/181/181
f 180/180/180 181/181/181 182/182/182
f 182/182/182 181/181/181 183/183/183
f 182/182/182 183/183/183 184/184/184
f 185/185/185 184/184/184 183/183/183
f 185/185/185 186/186/186 184/184/184
f 186/186/186 185/185/185 187/187/187
f 186/186/186 187/187/187 188/188/188
f 189/189/189 188/188/188 187/187/187
f 189/189/189 190/190/190 188/188/188
f 189/189/189 191/191/191 190/190/190
f 189/189/189 192/192/192 191/191/191
f 193/193/193 191/191/191 192/192/192
f 193/193/193 194/194/194 191/191/191
f 193/193/193 195/195/195 194/194/194
f 193/193/193 196/196/196 195/195/195
f 195/195/195 196/196/196 197/197/197
f 195/195/195 197/197/197 198/198/198
f 198/198/198 197/197/197 199/199/199
f 198/198/198 199/199/199 200/200/200
f 201/201/201 200/200/200 199/199/199
f 201/201/201 202/202/202 200/200/200
f 202/202/202 201/201/201 203/203/203
f 202/202/202 203/203/203 204/204/204
f 205/205/205 204/204/204 203/203/203
f 205/205/205 206/206/206 204/204/204
f 206/206/206 205/205/205 207/207/207
f 206/206/206 207/207/207 208/208/208
f 209/209/209 210/210/210 211/211/211
f 209/209/209 211/211/211 212/212/212
f 213/213/213 214/214/214 215/215/215
f 213/213/213 215/215/215 216/216/216
f 217/217/217 218/218/218 219/219/219
f 217/217/217 220/220/220 218/218/218
f 217/217/217 221/221/221 220/220/220
f 217/217/217 222/222/222 221/221/221
f 223/223/223 224/224/224 225/225/225
f 223/223/223 225/225/225 226/226/226
f 227/227/227 228/228/228 229/229/229
f 227/227/227 229/229/229 230/230/230
f 231/231/231 232/232/232 233/233/233
f 231/231/231 233/233/233 234/234/234
f 235/235/235 236/236/236 237/237/237
f 235/235/235 237/237/237 238/238/238
f 239/239/239 240/240/240 241/241/241
f 239/239/239 241/241/241 242/242/242
f 243/243/243 244/244/244 245/245/245
f 243/243/243 245/245/245 246/246/246
f 247/247/247 248/248/248 249/249/249
f 247/247/247 249/249/249 250/250/250
f 251/251/251 252/252/252 253/253/253
f 251/251/251 253/253/253 254/254/254
f 255/255/255 256/256/256 257/257/257
f 255/255/255 257/257/257 258/258/258
f 259/259/259 260/260/260 261/261/261
f 259/259/259 262/262/262 260/260/260
f 259/259/259 263/263/263 262/262/262
f 259/259/259 264/264/264 263/263/263
f 265/265/265 266/266/266 267/267/267
f 265/265/265 267/267/267 268/268/268
f 269/269/269 270/270/270 271/271/271
f 269/269/269 271/271/271 272/272/272
f 273/273/273 274/274/274 275/275/275
f 273/273/273 275/275/275 276/276/276
f 277/277/277 278/278/278 279/279/279
f 277/277/277 279/279/279 280/280/280
f 281/281/281 282/282/282 283/283/283
f 281/281/281 283/283/283 284/284/284
f 285/285/285 286/286/286 287/287/287
f 285/285/285 287/287/287 288/288/288
f 289/289/289 290/290/290 291/291/291
f 289/289/289 291/291/291 292/292/292
f 293/293/293 294/294/294 295/295/295
f 293/293/293 295/295/295 296/296/296
f 297/297/297 298/298/298 299/299/299
f 297/297/297 299/299/299 300/300/300
f 301/301/301 302/302/302 303/303/303
f 301/301/301 303/303/303 304/304/304
f 305/305/305 306/306/306 307/307/307
f 305/305/305 307/307/307 308/308/308
f 309/309/309 310/310/310 311/311/311
f 309/309/309 311/311/311 312/312/312
f 312/312/312 313/313/313 309/309/309
f 312/312/312 314/314/314 313/313/313
f 315/315/315 313/313/313 314/314/314
f 315/315/315 314/314/314 316/316/316
f 316/316/316 317/317/317 315/315/315
f 316/316/316 318/318/318 317/317/317
f 318/318/318 319/319/319 317/317/317
f 318/318/318 320/320/320 319/319/319
f 320/320/320 321/321/321 319/319/319
f 320/320/320 322/322/322 321/321/321
f 323/323/323 321/321/321 322/322/322
f 323/323/323 322/322/322 324/324/324
f 324/324/324 325/325/325 323/323/323
f 324/324/324 326/326/326 325/325/325
f 327/327/327 325/325/325 326/326/326
f 327/327/327 326/326/326 328/328/328
f 327/327/327 328/328/328 329/329/329
f 327/327/327 329/329/329 330/330/330
f 331/331/331 330/330/330 329/329/329
f 331/331/331 329/329/329 332/332/332
f 331/331/331 332/332/332 333/333/333
f 331/331/331 333/333/333 334/334/334
f 333/333/333 335/335/335 334/334/334
f 333/333/333 336/336/336 335/335/335
f 336/336/336 337/337/337 335/335/335
f 336/336/336 338/338/338 337/337/337
f 339/339/339 337/337/337 338/338/338
f 339/339/339 338/338/338 340/340/340
f 340/340/340 341/341/341 339/339/339
f 340/340/340 342/342/342 341/341/341
f 343/343/343 341/341/341 342/342/342
f 343/343/343 342/342/342 344/344/344
f 344/344/344 345/345/345 343/343/343
f 344/344/344 346/346/346 345/345/345
f 347/347/347 348/348/348 349/349/349
f 347/347/347 349/349/349 350/350/350
f 351/351/351 352/352/352 353/353/353
f 351/351/351 353/353/353 354/354/354
f 355/355/355 356/356/356 357/357/357
f 355/355/355 357/357/357 358/358/358
f 355/355/355 358/358/358 359/359/359
f 355/355/355 359/359/359 360/360/360
f 361/361/361 362/362/362 363/363/363
f 361/361/361 363/363/363 364/364/364
f 365/365/365 366/366/366 367/367/367
f 365/365/365 367/367/367 368/368/368
f 369/369/369 370/370/370 371/371/371
f 369/369/369 371/371/371 372/372/372
f 373/373/373 374/374/374 375/375/375
f 373/373/373 375/375/375 376/376/376
f 377/377/377 378/378/378 379/379/379
f 377/377/377 379/379/379 380/380/380
f 381/381/381 382/382/382 383/383/383
f 381/381/381 383/383/383 384/384/384
f 385/385/385 386/386/386 387/387/387
f 385/385/385 387/387/387 388/388/388
f 389/389/389 390/390/390 391/391/391
f 389/389/389 391/391/391 392/392/392
f 393/393/393 394/394/394 395/395/395
f 393/393/393 395/395/395 396/396/396
f 397/397/397 398/398/398 399/399/399
f 397/397/397 399/399/399 400/400/400
f 397/397/397 400/400/400 401/401/401
f 397/397/397 401/401/401 402/402/402
f 403/403/403 404/404/404 405/405/405
f 403/403/403 405/405/405 406/406/406
f 407/407/407 408/408/408 409/409/409
f 407/407/407 409/409/409 410/410/410
f 411/411/411 412/412/412 413/413/413
f 411/411/411 413/413/413 414/414/414
f 415/415/415 416/416/416 417/417/417
f 415/415/415 417/417/417 418/418/418
f 419/419/419 420/420/420 421/421/421
f 419/419/419 421/421/421 422/422/422
f 423/423/423 424/424/424 425/425/425
f 423/423/423 425/425/425 426/426/426
f 427/427/427 428/428/428 429/429/429
f 427/427/427 429/429/429 430/430/430
f 431/431/431 432/432/432 433/433/433
f 431/431/431 433/433/433 434/434/434
f 435/435/435 436/436/436 437/437/437
f 435/435/435 437/437/437 438/438/438
