mtllib Materials.mtl
# Ultimate Food Pack - Bread
o Bread
v 0.168614 0.073068 -0.599525
v 0.257790 0.073068 -0.599525
v 0.174736 0.050169 -0.599525
v -0.198700 0.050169 -0.599525
v -0.257790 0.073068 -0.599525
v -0.181338 0.073068 -0.599525
v 0.168614 0.073068 0.599525
v 0.174736 0.050169 0.599525
v 0.257790 0.073068 0.599525
v -0.198700 0.050169 0.599525
v -0.181338 0.073068 0.599525
v -0.257790 0.073068 0.599525
v 0.192538 0.708176 -0.599525
v 0.105114 0.708801 -0.599525
v 0.078951 0.783774 -0.599525
v 0.144884 0.762768 -0.599525
v 0.081529 0.800739 -0.599525
v 0.165816 0.771995 -0.599525
v 0.244585 0.708801 -0.599525
v 0.144884 0.762768 -0.599525
v 0.165816 0.771995 -0.599525
v 0.223216 0.636333 -0.599525
v 0.284093 0.636333 -0.599525
v 0.105114 0.708801 -0.599525
v 0.285778 0.599261 -0.599525
v 0.224540 0.599261 -0.599525
v 0.121754 0.636333 -0.599525
v 0.211288 0.571439 -0.599525
v 0.268912 0.571439 -0.599525
v 0.122476 0.599261 -0.599525
v 0.209190 0.522790 -0.599525
v 0.266242 0.522790 -0.599525
v 0.115248 0.571439 -0.599525
v 0.209190 0.101519 -0.599525
v 0.266242 0.101519 -0.599525
v 0.257790 0.073068 -0.599525
v 0.168614 0.073068 -0.599525
v 0.158085 0.101519 -0.599525
v 0.114104 0.522790 -0.599525
v 0.000000 0.636333 -0.599525
v 0.000000 0.599261 -0.599525
v 0.000000 0.571439 -0.599525
v 0.000000 0.522790 -0.599525
v 0.000000 0.709427 -0.599525
v 0.000000 0.788328 -0.599525
v 0.078951 0.783774 -0.599525
v -0.078951 0.783774 -0.599525
v -0.105114 0.708801 -0.599525
v 0.000000 0.806454 -0.599525
v 0.081529 0.800739 -0.599525
v -0.078951 0.783774 -0.599525
v -0.081529 0.800739 -0.599525
v -0.144885 0.762768 -0.599525
v -0.165816 0.771995 -0.599525
v -0.244585 0.708801 -0.599525
v -0.121754 0.636333 -0.599525
v -0.192538 0.708176 -0.599525
v -0.105114 0.708801 -0.599525
v -0.078951 0.783774 -0.599525
v -0.223216 0.636333 -0.599525
v -0.284093 0.636333 -0.599525
v -0.285778 0.599261 -0.599525
v -0.122476 0.599261 -0.599525
v -0.224540 0.599261 -0.599525
v -0.115248 0.571439 -0.599525
v -0.211288 0.571439 -0.599525
v -0.268912 0.571439 -0.599525
v -0.266242 0.522790 -0.599525
v -0.114104 0.522790 -0.599525
v -0.209190 0.522790 -0.599525
v -0.266242 0.101519 -0.599525
v 0.000000 0.101519 -0.599525
v -0.158085 0.101519 -0.599525
v -0.209190 0.101519 -0.599525
v -0.257790 0.073068 -0.599525
v -0.181338 0.073068 -0.599525
v -0.181338 0.073068 -0.599525
v 0.000000 0.072943 -0.599525
v 0.168614 0.073068 -0.599525
v -0.181338 0.073068 -0.599525
v -0.011982 0.049031 -0.599525
v -0.198700 0.050169 -0.599525
v 0.000000 0.072943 -0.599525
v 0.174736 0.050169 -0.599525
v -0.011982 0.049031 -0.599525
v 0.192538 0.708177 0.599525
v 0.078951 0.783775 0.599525
v 0.105114 0.708802 0.599525
v 0.144885 0.762768 0.599525
v 0.081529 0.800739 0.599525
v 0.165816 0.771995 0.599525
v 0.244585 0.708802 0.599525
v 0.144885 0.762768 0.599525
v 0.165816 0.771995 0.599525
v 0.223216 0.636333 0.599525
v 0.284093 0.636333 0.599525
v 0.105114 0.708802 0.599525
v 0.285778 0.599261 0.599525
v 0.224540 0.599261 0.599525
v 0.121754 0.636333 0.599525
v 0.211288 0.571440 0.599525
v 0.268912 0.571439 0.599525
v 0.122476 0.599261 0.599525
v 0.209190 0.522790 0.599525
v 0.266242 0.522790 0.599525
v 0.115248 0.571440 0.599525
v 0.209190 0.101520 0.599525
v 0.266242 0.101520 0.599525
v 0.257790 0.073068 0.599525
v 0.168614 0.073068 0.599525
v 0.158085 0.101520 0.599525
v 0.114104 0.522790 0.599525
v 0.000000 0.636333 0.599525
v 0.000000 0.599261 0.599525
v 0.000000 0.571440 0.599525
v 0.000000 0.522790 0.599525
v 0.000000 0.709427 0.599525
v 0.000000 0.788328 0.599525
v 0.078951 0.783775 0.599525
v 0.000000 0.806454 0.599525
v 0.081529 0.800739 0.599525
v -0.078951 0.783775 0.599525
v -0.081529 0.800739 0.599525
v -0.105114 0.708802 0.599525
v -0.121754 0.636333 0.599525
v -0.192538 0.708177 0.599525
v -0.122476 0.599261 0.599525
v -0.223216 0.636333 0.599525
v -0.115248 0.571439 0.599525
v -0.224540 0.599261 0.599525
v -0.114104 0.522790 0.599525
v -0.211288 0.571440 0.599525
v -0.285778 0.599261 0.599525
v -0.284092 0.636333 0.599525
v -0.268912 0.571440 0.599525
v -0.244585 0.708802 0.599525
v -0.266242 0.522790 0.599525
v -0.144884 0.762768 0.599525
v -0.105114 0.708802 0.599525
v -0.165816 0.771995 0.599525
v -0.078951 0.783775 0.599525
v -0.081529 0.800739 0.599525
v -0.209190 0.522790 0.599525
v -0.266242 0.101520 0.599525
v -0.209190 0.101520 0.599525
v -0.257790 0.073068 0.599525
v -0.181338 0.073068 0.599525
v -0.158085 0.101520 0.599525
v -0.181338 0.073068 0.599525
v 0.000000 0.101520 0.599525
v 0.000000 0.072943 0.599525
v 0.168614 0.073068 0.599525
v 0.174736 0.050169 0.599525
v -0.011982 0.049031 0.599525
v -0.198700 0.050169 0.599525
v 0.296080 0.736044 -0.510081
v 0.286962 0.735700 -0.599525
v 0.191852 0.811606 -0.599525
v 0.197136 0.814108 -0.510081
v 0.286962 0.735700 -0.599525
v 0.296080 0.736044 -0.510081
v 0.344625 0.655048 -0.510081
v 0.333855 0.655048 -0.599525
v -0.197136 0.814108 0.510081
v -0.197136 0.814108 -0.510081
v -0.296080 0.736044 -0.510081
v -0.296080 0.736044 0.510081
v 0.286962 0.735700 -0.599525
v 0.165816 0.771995 -0.599525
v 0.191852 0.811606 -0.599525
v 0.244585 0.708801 -0.599525
v 0.333855 0.655048 -0.599525
v 0.284093 0.636333 -0.599525
v 0.335836 0.614317 -0.599525
v 0.285778 0.599261 -0.599525
v 0.316015 0.583749 -0.599525
v 0.268912 0.571439 -0.599525
v 0.312878 0.530298 -0.599525
v 0.266242 0.522790 -0.599525
v 0.312878 0.067443 -0.599525
v 0.266242 0.101519 -0.599525
v 0.303066 0.035978 -0.599525
v 0.257790 0.073068 -0.599525
v 0.208346 0.009149 -0.599525
v 0.174736 0.050169 -0.599525
v -0.011982 0.007782 -0.599525
v -0.011982 0.049031 -0.599525
v -0.198700 0.050169 -0.599525
v -0.232310 0.009149 -0.599525
v -0.303066 0.035978 -0.599525
v -0.257790 0.073068 -0.599525
v -0.266242 0.101519 -0.599525
v -0.312878 0.067443 -0.599525
v -0.312878 0.530298 -0.599525
v -0.266242 0.522790 -0.599525
v -0.316015 0.583749 -0.599525
v -0.268912 0.571439 -0.599525
v -0.335836 0.614317 -0.599525
v -0.285778 0.599261 -0.599525
v -0.333855 0.655048 -0.599525
v -0.284093 0.636333 -0.599525
v -0.286963 0.735700 -0.599525
v -0.244585 0.708801 -0.599525
v -0.191853 0.811606 -0.599525
v -0.165816 0.771995 -0.599525
v -0.093952 0.843939 -0.599525
v -0.081529 0.800739 -0.599525
v 0.000000 0.850806 -0.599525
v 0.000000 0.806454 -0.599525
v 0.081529 0.800739 -0.599525
v 0.093952 0.843939 -0.599525
v 0.344625 0.655048 -0.510081
v 0.296080 0.736044 -0.510081
v 0.296080 0.736044 0.510081
v 0.344625 0.655048 0.510081
v 0.000000 0.850806 -0.599525
v -0.093952 0.843939 -0.599525
v -0.096423 0.847078 -0.510081
v 0.000000 0.854141 -0.510081
v -0.093952 0.843939 -0.599525
v -0.191853 0.811606 -0.599525
v -0.197136 0.814108 -0.510081
v -0.096423 0.847078 -0.510081
v 0.096423 0.847078 0.510081
v 0.096423 0.847078 -0.510081
v 0.000000 0.854141 -0.510081
v 0.000000 0.854141 0.510081
v 0.093952 0.843939 -0.599525
v 0.191852 0.811606 -0.599525
v 0.165816 0.771995 -0.599525
v 0.081529 0.800739 -0.599525
v 0.000000 0.850806 -0.599525
v 0.000000 0.854141 -0.510081
v 0.096423 0.847078 -0.510081
v 0.093952 0.843939 -0.599525
v 0.000000 0.854141 -0.510081
v -0.096423 0.847078 -0.510081
v -0.096423 0.847078 0.510081
v 0.000000 0.854141 0.510081
v 0.093952 0.843939 -0.599525
v 0.096423 0.847078 -0.510081
v 0.197136 0.814108 -0.510081
v 0.191852 0.811606 -0.599525
v 0.197136 0.814108 -0.510081
v 0.096423 0.847078 -0.510081
v 0.096423 0.847078 0.510081
v 0.197136 0.814108 0.510081
v 0.303066 0.035978 -0.599525
v 0.312878 0.067443 -0.599525
v 0.322971 0.067443 -0.510081
v 0.312878 0.035910 -0.510081
v -0.197136 0.814108 0.510081
v -0.096423 0.847078 0.510081
v -0.096423 0.847078 -0.510081
v -0.197136 0.814108 -0.510081
v 0.322971 0.067443 -0.510081
v 0.312878 0.067443 -0.599525
v 0.312878 0.530298 -0.599525
v 0.322971 0.530298 -0.510081
v 0.335836 0.614317 -0.599525
v 0.346669 0.614317 -0.510081
v 0.326209 0.583749 -0.510081
v 0.316015 0.583749 -0.599525
v 0.322971 0.067443 -0.510081
v 0.322971 0.530298 -0.510081
v 0.322971 0.530298 0.510081
v 0.322971 0.067443 0.510081
v 0.312878 0.035910 -0.510081
v 0.322971 0.067443 -0.510081
v 0.322971 0.067443 0.510081
v 0.312878 0.035910 0.510081
v -0.296080 0.736044 -0.510081
v -0.286963 0.735700 -0.599525
v -0.333855 0.655048 -0.599525
v -0.344625 0.655048 -0.510081
v -0.286963 0.735700 -0.599525
v -0.296080 0.736044 -0.510081
v -0.197136 0.814108 -0.510081
v -0.191853 0.811606 -0.599525
v -0.011982 0.007782 -0.599525
v -0.167798 0.008524 -0.510081
v -0.232310 0.009149 -0.599525
v -0.011982 0.007118 -0.510081
v -0.167798 0.008524 0.510081
v -0.011982 0.007118 0.510081
v 0.215726 0.008524 0.510081
v 0.215726 0.008524 -0.510081
v 0.208346 0.009149 -0.599525
v -0.344625 0.655048 0.510081
v -0.296080 0.736044 0.510081
v -0.296080 0.736044 -0.510081
v -0.344625 0.655048 -0.510081
v 0.303066 0.035978 -0.599525
v 0.312878 0.035910 -0.510081
v 0.215726 0.008524 -0.510081
v 0.208346 0.009149 -0.599525
v -0.312878 0.035910 -0.510081
v -0.303066 0.035978 -0.599525
v -0.232310 0.009149 -0.599525
v -0.167798 0.008524 -0.510081
v -0.303066 0.035978 -0.599525
v -0.312878 0.035910 -0.510081
v -0.322971 0.067443 -0.510081
v -0.312878 0.067443 -0.599525
v -0.326209 0.583749 -0.510081
v -0.316015 0.583749 -0.599525
v -0.312878 0.530298 -0.599525
v -0.322971 0.530298 -0.510081
v -0.322971 0.530298 -0.510081
v -0.312878 0.530298 -0.599525
v -0.312878 0.067443 -0.599525
v -0.322971 0.067443 -0.510081
v -0.346669 0.614317 -0.510081
v -0.335836 0.614317 -0.599525
v -0.316015 0.583749 -0.599525
v -0.326209 0.583749 -0.510081
v -0.322971 0.530298 0.510081
v -0.322971 0.530298 -0.510081
v -0.322971 0.067443 -0.510081
v -0.322971 0.067443 0.510081
v -0.335836 0.614317 -0.599525
v -0.346669 0.614317 -0.510081
v -0.344625 0.655048 -0.510081
v -0.333855 0.655048 -0.599525
v -0.326209 0.583749 0.510081
v -0.346669 0.614318 0.510081
v -0.346669 0.614317 -0.510081
v -0.326209 0.583749 -0.510081
v 0.346669 0.614317 -0.510081
v 0.335836 0.614317 -0.599525
v 0.333855 0.655048 -0.599525
v 0.344625 0.655048 -0.510081
v 0.322971 0.530298 -0.510081
v 0.312878 0.530298 -0.599525
v 0.316015 0.583749 -0.599525
v 0.326209 0.583749 -0.510081
v 0.346669 0.614317 -0.510081
v 0.344625 0.655048 -0.510081
v 0.344625 0.655048 0.510081
v 0.346669 0.614318 0.510081
v -0.344625 0.655048 0.510081
v -0.344625 0.655048 -0.510081
v -0.346669 0.614317 -0.510081
v -0.346669 0.614318 0.510081
v -0.326209 0.583749 0.510081
v -0.326209 0.583749 -0.510081
v -0.322971 0.530298 -0.510081
v -0.322971 0.530298 0.510081
v -0.322971 0.067443 0.510081
v -0.322971 0.067443 -0.510081
v -0.312878 0.035910 -0.510081
v -0.312878 0.035910 0.510081
v -0.167798 0.008524 0.510081
v -0.312878 0.035910 0.510081
v -0.312878 0.035910 -0.510081
v -0.167798 0.008524 -0.510081
v 0.326209 0.583749 -0.510081
v 0.346669 0.614317 -0.510081
v 0.346669 0.614318 0.510081
v 0.326209 0.583749 0.510081
v 0.296080 0.736044 -0.510081
v 0.197136 0.814108 -0.510081
v 0.197136 0.814108 0.510081
v 0.296080 0.736044 0.510081
v 0.215726 0.008524 -0.510081
v 0.312878 0.035910 -0.510081
v 0.312878 0.035910 0.510081
v 0.215726 0.008524 0.510081
v 0.296080 0.736044 0.510081
v 0.197136 0.814108 0.510081
v 0.191853 0.811606 0.599525
v 0.286963 0.735701 0.599525
v 0.286963 0.735701 0.599525
v 0.333855 0.655048 0.599525
v 0.344625 0.655048 0.510081
v 0.296080 0.736044 0.510081
v 0.286963 0.735701 0.599525
v 0.191853 0.811606 0.599525
v 0.165816 0.771995 0.599525
v 0.244585 0.708802 0.599525
v 0.333855 0.655048 0.599525
v 0.284093 0.636333 0.599525
v 0.335836 0.614318 0.599525
v 0.285778 0.599261 0.599525
v 0.316015 0.583749 0.599525
v 0.268912 0.571439 0.599525
v 0.312878 0.530298 0.599525
v 0.266242 0.522790 0.599525
v 0.312878 0.067443 0.599525
v 0.266242 0.101520 0.599525
v 0.303066 0.035978 0.599525
v 0.257790 0.073068 0.599525
v 0.208346 0.009149 0.599525
v 0.174736 0.050169 0.599525
v -0.011982 0.007782 0.599525
v -0.011982 0.049031 0.599525
v -0.198700 0.050169 0.599525
v -0.232310 0.009149 0.599525
v -0.303066 0.035978 0.599525
v -0.257790 0.073068 0.599525
v -0.266242 0.101520 0.599525
v -0.312878 0.067443 0.599525
v -0.312878 0.530298 0.599525
v -0.266242 0.522790 0.599525
v -0.316015 0.583749 0.599525
v -0.268912 0.571440 0.599525
v -0.335836 0.614318 0.599525
v -0.285778 0.599261 0.599525
v -0.333855 0.655048 0.599525
v -0.284092 0.636333 0.599525
v -0.286962 0.735701 0.599525
v -0.244585 0.708802 0.599525
v -0.191852 0.811606 0.599525
v -0.165816 0.771995 0.599525
v 0.000000 0.850806 0.599525
v 0.000000 0.854141 0.510081
v -0.096423 0.847078 0.510081
v -0.093952 0.843939 0.599525
v -0.093952 0.843939 0.599525
v -0.096423 0.847078 0.510081
v -0.197136 0.814108 0.510081
v -0.191852 0.811606 0.599525
v 0.000000 0.850806 0.599525
v -0.093952 0.843939 0.599525
v -0.081529 0.800739 0.599525
v 0.000000 0.806454 0.599525
v 0.081529 0.800739 0.599525
v 0.093952 0.843939 0.599525
v -0.093952 0.843939 0.599525
v -0.191852 0.811606 0.599525
v -0.165816 0.771995 0.599525
v -0.081529 0.800739 0.599525
v 0.093952 0.843939 0.599525
v 0.081529 0.800739 0.599525
v 0.165816 0.771995 0.599525
v 0.191853 0.811606 0.599525
v 0.000000 0.850806 0.599525
v 0.093952 0.843939 0.599525
v 0.096423 0.847078 0.510081
v 0.000000 0.854141 0.510081
v 0.093952 0.843939 0.599525
v 0.191853 0.811606 0.599525
v 0.197136 0.814108 0.510081
v 0.096423 0.847078 0.510081
v 0.303066 0.035978 0.599525
v 0.312878 0.035910 0.510081
v 0.322971 0.067443 0.510081
v 0.312878 0.067443 0.599525
v 0.322971 0.067443 0.510081
v 0.322971 0.530298 0.510081
v 0.312878 0.530298 0.599525
v 0.312878 0.067443 0.599525
v 0.335836 0.614318 0.599525
v 0.316015 0.583749 0.599525
v 0.326209 0.583749 0.510081
v 0.346669 0.614318 0.510081
v -0.296080 0.736044 0.510081
v -0.344625 0.655048 0.510081
v -0.333855 0.655048 0.599525
v -0.286962 0.735701 0.599525
v -0.286962 0.735701 0.599525
v -0.191852 0.811606 0.599525
v -0.197136 0.814108 0.510081
v -0.296080 0.736044 0.510081
v -0.011982 0.007782 0.599525
v -0.232310 0.009149 0.599525
v -0.167798 0.008524 0.510081
v -0.011982 0.007118 0.510081
v 0.215726 0.008524 0.510081
v 0.208346 0.009149 0.599525
v 0.303066 0.035978 0.599525
v 0.208346 0.009149 0.599525
v 0.215726 0.008524 0.510081
v 0.312878 0.035910 0.510081
v -0.312878 0.035910 0.510081
v -0.167798 0.008524 0.510081
v -0.232310 0.009149 0.599525
v -0.303066 0.035978 0.599525
v -0.303066 0.035978 0.599525
v -0.312878 0.067443 0.599525
v -0.322971 0.067443 0.510081
v -0.312878 0.035910 0.510081
v -0.326209 0.583749 0.510081
v -0.322971 0.530298 0.510081
v -0.312878 0.530298 0.599525
v -0.316015 0.583749 0.599525
v -0.322971 0.530298 0.510081
v -0.322971 0.067443 0.510081
v -0.312878 0.067443 0.599525
v -0.312878 0.530298 0.599525
v -0.346669 0.614318 0.510081
v -0.326209 0.583749 0.510081
v -0.316015 0.583749 0.599525
v -0.335836 0.614318 0.599525
v -0.335836 0.614318 0.599525
v -0.333855 0.655048 0.599525
v -0.344625 0.655048 0.510081
v -0.346669 0.614318 0.510081
v 0.346669 0.614318 0.510081
v 0.344625 0.655048 0.510081
v 0.333855 0.655048 0.599525
v 0.335836 0.614318 0.599525
v 0.322971 0.530298 0.510081
v 0.326209 0.583749 0.510081
v 0.316015 0.583749 0.599525
v 0.312878 0.530298 0.599525
v 0.322971 0.530298 -0.510081
v 0.326209 0.583749 -0.510081
v 0.326209 0.583749 0.510081
v 0.322971 0.530298 0.510081
vn 0.000000 -0.000004 -1.000000
vn 0.000000 -0.000004 -1.000000
vn 0.000000 -0.000004 -1.000000
vn 0.000000 0.000000 -1.000000
vn 0.000000 0.000000 -1.000000
vn 0.000000 0.000000 -1.000000
vn 0.000000 -0.000004 1.000000
vn 0.000000 -0.000004 1.000000
vn 0.000000 -0.000004 1.000000
vn 0.000000 0.000000 1.000000
vn 0.000000 0.000000 1.000000
vn 0.000000 0.000000 1.000000
vn 0.000000 0.000000 -1.000000
vn 0.000000 0.000000 -1.000000
vn 0.000000 0.000000 -1.000000
vn 0.000000 0.000000 -1.000000
vn 0.000000 0.000000 -1.000000
vn 0.000000 0.000000 -1.000000
vn 0.000000 -0.000001 -1.000000
vn 0.000000 -0.000001 -1.000000
vn 0.000000 -0.000001 -1.000000
vn 0.000000 0.000000 -1.000000
vn 0.000000 0.000000 -1.000000
vn 0.000000 0.000000 -1.000000
vn 0.000000 0.000000 -1.000000
vn 0.000000 0.000000 -1.000000
vn 0.000000 0.000000 -1.000000
vn 0.000000 0.000000 -1.000000
vn 0.000000 0.000000 -1.000000
vn 0.000000 0.000000 -1.000000
vn 0.000000 0.000000 -1.000000
vn 0.000000 0.000000 -1.000000
vn 0.000000 -0.000001 -1.000000
vn 0.000000 0.000002 -1.000000
vn 0.000000 0.000002 -1.000000
vn 0.000000 0.000002 -1.000000
vn 0.000000 0.000002 -1.000000
vn 0.000000 0.000000 -1.000000
vn 0.000000 0.000000 -1.000000
vn 0.000000 0.000001 -1.000000
vn 0.000000 0.000002 -1.000000
vn 0.000000 -0.000001 -1.000000
vn 0.000000 -0.000001 -1.000000
vn 0.000000 0.000001 -1.000000
vn 0.000000 0.000000 -1.000000
vn 0.000000 0.000000 -1.000000
vn 0.000000 0.000000 -1.000000
vn 0.000000 0.000001 -1.000000
vn 0.000000 0.000000 -1.000000
vn 0.000000 0.000000 -1.000000
vn 0.000000 0.000000 -1.000000
vn 0.000000 0.000000 -1.000000
vn 0.000000 0.000000 -1.000000
vn 0.000000 0.000000 -1.000000
vn 0.000000 0.000000 -1.000000
vn 0.000000 0.000001 -1.000000
vn 0.000000 0.000000 -1.000000
vn 0.000000 0.000000 -1.000000
vn 0.000000 0.000000 -1.000000
vn 0.000000 0.000000 -1.000000
vn 0.000000 0.000000 -1.000000
vn 0.000000 0.000002 -1.000000
vn 0.000000 0.000002 -1.000000
vn 0.000000 0.000000 -1.000000
vn 0.000000 -0.000001 -1.000000
vn 0.000000 0.000000 -1.000000
vn 0.000000 0.000000 -1.000000
vn 0.000000 0.000000 -1.000000
vn 0.000000 -0.000001 -1.000000
vn 0.000000 0.000000 -1.000000
vn 0.000000 0.000002 -1.000000
vn 0.000000 0.000000 -1.000000
vn 0.000000 0.000000 -1.000000
vn 0.000000 0.000000 -1.000000
vn 0.000000 0.000002 -1.000000
vn 0.000000 0.000002 -1.000000
vn 0.000000 0.000000 -1.000000
vn 0.000000 0.000000 -1.000000
vn 0.000000 0.000000 -1.000000
vn 0.000000 0.000000 -1.000000
vn 0.000000 0.000000 -1.000000
vn 0.000000 0.000000 -1.000000
vn 0.000000 0.000001 -1.000000
vn 0.000000 0.000001 -1.000000
vn 0.000000 0.000001 -1.000000
vn 0.000000 0.000000 1.000000
vn 0.000000 0.000001 1.000000
vn 0.000000 0.000001 1.000000
vn 0.000000 0.000001 1.000000
vn 0.000000 0.000000 1.000000
vn 0.000000 0.000000 1.000000
vn 0.000000 -0.000001 1.000000
vn 0.000000 -0.000001 1.000000
vn 0.000000 -0.000001 1.000000
vn 0.000000 0.000000 1.000000
vn 0.000000 0.000001 1.000000
vn 0.000000 0.000000 1.000000
vn 0.000000 0.000000 1.000000
vn 0.000000 0.000000 1.000000
vn 0.000000 0.000000 1.000000
vn 0.000000 0.000001 1.000000
vn 0.000000 0.000001 1.000000
vn 0.000000 0.000000 1.000000
vn 0.000000 0.000000 1.000000
vn 0.000000 0.000001 1.000000
vn 0.000000 -0.000001 1.000000
vn 0.000000 0.000002 1.000000
vn 0.000000 0.000002 1.000000
vn 0.000000 0.000002 1.000000
vn 0.000000 0.000002 1.000000
vn 0.000000 0.000000 1.000000
vn 0.000000 0.000000 1.000000
vn 0.000000 0.000000 1.000000
vn 0.000000 0.000002 1.000000
vn 0.000000 -0.000001 1.000000
vn 0.000000 -0.000001 1.000000
vn 0.000000 0.000000 1.000000
vn 0.000000 0.000001 1.000000
vn 0.000000 0.000003 1.000000
vn 0.000000 -0.000003 1.000000
vn 0.000000 0.000003 1.000000
vn 0.000000 0.000001 1.000000
vn 0.000000 -0.000003 1.000000
vn 0.000000 0.000000 1.000000
vn 0.000000 0.000000 1.000000
vn 0.000000 0.000001 1.000000
vn 0.000000 0.000002 1.000000
vn 0.000000 0.000000 1.000000
vn 0.000000 -0.000001 1.000000
vn 0.000000 0.000000 1.000000
vn 0.000000 -0.000001 1.000000
vn 0.000000 0.000001 1.000000
vn 0.000000 0.000001 1.000000
vn 0.000000 0.000001 1.000000
vn 0.000000 0.000001 1.000000
vn 0.000000 0.000001 1.000000
vn 0.000000 0.000000 1.000000
vn 0.000000 0.000001 1.000000
vn 0.000000 0.000001 1.000000
vn 0.000000 0.000000 1.000000
vn 0.000000 0.000001 1.000000
vn 0.000000 0.000000 1.000000
vn 0.000000 0.000001 1.000000
vn 0.000000 0.000002 1.000000
vn 0.000000 0.000000 1.000000
vn 0.000000 0.000002 1.000000
vn 0.000000 0.000002 1.000000
vn 0.000000 0.000000 1.000000
vn 0.000000 0.000000 1.000000
vn 0.000000 0.000000 1.000000
vn 0.000000 0.000000 1.000000
vn 0.000000 0.000000 1.000000
vn 0.000000 0.000000 1.000000
vn 0.000000 0.000000 1.000000
vn 0.000000 0.000000 1.000000
vn 0.620347 0.781844 -0.062371
vn 0.620347 0.781844 -0.062371
vn 0.620347 0.781844 -0.062371
vn 0.620347 0.781844 -0.062371
vn 0.857117 0.506048 -0.096255
vn 0.857117 0.506048 -0.096255
vn 0.857117 0.506048 -0.096255
vn 0.857117 0.506048 -0.096255
vn -0.619403 0.785073 0.000000
vn -0.619403 0.785073 0.000000
vn -0.619403 0.785073 0.000000
vn -0.619403 0.785073 0.000000
vn 0.000000 0.000000 -1.000000
vn 0.000000 0.000000 -1.000000
vn 0.000000 0.000000 -1.000000
vn 0.000000 0.000000 -1.000000
vn 0.000000 0.000000 -1.000000
vn 0.000000 0.000000 -1.000000
vn 0.000000 -0.000003 -1.000000
vn 0.000000 -0.000003 -1.000000
vn 0.000000 0.000000 -1.000000
vn 0.000000 0.000000 -1.000000
vn 0.000000 0.000000 -1.000000
vn 0.000000 0.000000 -1.000000
vn 0.000000 0.000000 -1.000000
vn 0.000000 0.000000 -1.000000
vn 0.000000 0.000000 -1.000000
vn 0.000000 0.000000 -1.000000
vn 0.000000 -0.000001 -1.000000
vn 0.000000 -0.000001 -1.000000
vn 0.000000 0.000000 -1.000000
vn 0.000000 0.000000 -1.000000
vn 0.000000 0.000000 -1.000000
vn 0.000000 0.000000 -1.000000
vn 0.000000 0.000000 -1.000000
vn 0.000000 0.000000 -1.000000
vn 0.000000 0.000000 -1.000000
vn 0.000000 0.000000 -1.000000
vn 0.000000 0.000000 -1.000000
vn 0.000000 0.000000 -1.000000
vn 0.000000 0.000000 -1.000000
vn 0.000000 0.000000 -1.000000
vn 0.000000 0.000000 -1.000000
vn 0.000000 0.000000 -1.000000
vn 0.000000 0.000000 -1.000000
vn 0.000000 0.000000 -1.000000
vn 0.000000 0.000000 -1.000000
vn 0.000000 0.000000 -1.000000
vn 0.000000 0.000000 -1.000000
vn 0.000000 0.000000 -1.000000
vn 0.000000 0.000000 -1.000000
vn 0.000000 0.000000 -1.000000
vn 0.000000 0.000000 -1.000000
vn 0.000000 0.000000 -1.000000
vn 0.000000 0.000000 -1.000000
vn 0.000000 0.000000 -1.000000
vn 0.857737 0.514090 0.000000
vn 0.857737 0.514090 0.000000
vn 0.857737 0.514090 0.000000
vn 0.857737 0.514090 0.000000
vn -0.072930 0.996648 -0.037081
vn -0.072930 0.996648 -0.037081
vn -0.072930 0.996648 -0.037081
vn -0.072930 0.996648 -0.037081
vn -0.312046 0.949073 -0.043454
vn -0.312046 0.949073 -0.043454
vn -0.312046 0.949073 -0.043454
vn -0.312046 0.949073 -0.043454
vn 0.073058 0.997328 0.000000
vn 0.073058 0.997328 0.000000
vn 0.073058 0.997328 0.000000
vn 0.073058 0.997328 0.000000
vn 0.000000 0.000000 -1.000000
vn 0.000000 0.000000 -1.000000
vn 0.000000 0.000000 -1.000000
vn 0.000000 0.000000 -1.000000
vn 0.072930 0.996648 -0.037081
vn 0.072930 0.996648 -0.037081
vn 0.072930 0.996648 -0.037081
vn 0.072930 0.996648 -0.037081
vn -0.073058 0.997328 0.000000
vn -0.073058 0.997328 0.000000
vn -0.073058 0.997328 0.000000
vn -0.073058 0.997328 0.000000
vn 0.312046 0.949073 -0.043454
vn 0.312046 0.949073 -0.043454
vn 0.312046 0.949073 -0.043454
vn 0.312046 0.949073 -0.043454
vn 0.311120 0.950371 0.000000
vn 0.311120 0.950371 0.000000
vn 0.311120 0.950371 0.000000
vn 0.311120 0.950371 0.000000
vn 0.948201 -0.299596 -0.105623
vn 0.948201 -0.299596 -0.105623
vn 0.948201 -0.299596 -0.105623
vn 0.948201 -0.299596 -0.105623
vn -0.311120 0.950371 0.000000
vn -0.311120 0.950371 0.000000
vn -0.311120 0.950371 0.000000
vn -0.311120 0.950371 0.000000
vn 0.993694 0.000000 -0.112128
vn 0.993694 0.000000 -0.112128
vn 0.993694 0.000000 -0.112128
vn 0.993694 0.000000 -0.112128
vn 0.831049 -0.547553 -0.097686
vn 0.831049 -0.547553 -0.097686
vn 0.831049 -0.547553 -0.097686
vn 0.831049 -0.547553 -0.097686
vn 1.000000 0.000000 0.000000
vn 1.000000 0.000000 0.000000
vn 1.000000 0.000000 0.000000
vn 1.000000 0.000000 0.000000
vn 0.952406 -0.304833 0.000000
vn 0.952406 -0.304833 0.000000
vn 0.952406 -0.304833 0.000000
vn 0.952406 -0.304833 0.000000
vn -0.857118 0.506048 -0.096254
vn -0.857118 0.506048 -0.096254
vn -0.857118 0.506048 -0.096254
vn -0.857118 0.506048 -0.096254
vn -0.620346 0.781844 -0.062370
vn -0.620346 0.781844 -0.062370
vn -0.620346 0.781844 -0.062370
vn -0.620346 0.781844 -0.062370
vn -0.007373 -0.999963 -0.004546
vn -0.007373 -0.999963 -0.004546
vn -0.007373 -0.999963 -0.004546
vn -0.007373 -0.999963 -0.004546
vn -0.009024 -0.999959 0.000000
vn -0.009024 -0.999959 0.000000
vn 0.006175 -0.999981 0.000000
vn 0.006190 -0.999953 -0.007461
vn 0.006190 -0.999953 -0.007461
vn -0.857736 0.514090 0.000000
vn -0.857736 0.514090 0.000000
vn -0.857736 0.514090 0.000000
vn -0.857736 0.514090 0.000000
vn 0.271789 -0.961894 -0.029848
vn 0.271789 -0.961894 -0.029848
vn 0.271789 -0.961894 -0.029848
vn 0.271789 -0.961894 -0.029848
vn -0.243009 -0.967455 0.070557
vn -0.243009 -0.967455 0.070557
vn -0.243009 -0.967455 0.070557
vn -0.243009 -0.967455 0.070557
vn -0.948201 -0.299596 -0.105623
vn -0.948201 -0.299596 -0.105623
vn -0.948201 -0.299596 -0.105623
vn -0.948201 -0.299596 -0.105623
vn -0.991891 -0.059148 -0.112486
vn -0.991891 -0.059148 -0.112486
vn -0.991891 -0.059148 -0.112486
vn -0.991891 -0.059148 -0.112486
vn -0.993694 0.000000 -0.112128
vn -0.993694 0.000000 -0.112128
vn -0.993694 0.000000 -0.112128
vn -0.993694 0.000000 -0.112128
vn -0.831049 -0.547554 -0.097686
vn -0.831049 -0.547554 -0.097686
vn -0.831049 -0.547554 -0.097686
vn -0.831049 -0.547554 -0.097686
vn -1.000000 0.000000 0.000000
vn -1.000000 0.000000 0.000000
vn -1.000000 0.000000 0.000000
vn -1.000000 0.000000 0.000000
vn -0.991595 0.048996 -0.119747
vn -0.991595 0.048996 -0.119747
vn -0.991595 0.048996 -0.119747
vn -0.991595 0.048996 -0.119747
vn -0.831028 -0.556231 0.000000
vn -0.831028 -0.556231 0.000000
vn -0.831028 -0.556231 0.000000
vn -0.831028 -0.556231 0.000000
vn 0.991595 0.048996 -0.119748
vn 0.991595 0.048996 -0.119748
vn 0.991595 0.048996 -0.119748
vn 0.991595 0.048996 -0.119748
vn 0.991891 -0.059148 -0.112486
vn 0.991891 -0.059148 -0.112486
vn 0.991891 -0.059148 -0.112486
vn 0.991891 -0.059148 -0.112486
vn 0.998743 0.050133 0.000000
vn 0.998743 0.050133 0.000000
vn 0.998743 0.050133 0.000000
vn 0.998743 0.050133 0.000000
vn -0.998743 0.050133 0.000000
vn -0.998743 0.050133 0.000000
vn -0.998743 0.050133 0.000000
vn -0.998743 0.050133 0.000000
vn -0.998170 -0.060467 0.000000
vn -0.998170 -0.060467 0.000000
vn -0.998170 -0.060467 0.000000
vn -0.998170 -0.060467 0.000000
vn -0.952406 -0.304833 0.000000
vn -0.952406 -0.304833 0.000000
vn -0.952406 -0.304833 0.000000
vn -0.952406 -0.304833 0.000000
vn -0.185486 -0.982647 0.000000
vn -0.185486 -0.982647 0.000000
vn -0.185486 -0.982647 0.000000
vn -0.185486 -0.982647 0.000000
vn 0.831028 -0.556231 0.000000
vn 0.831028 -0.556231 0.000000
vn 0.831028 -0.556231 0.000000
vn 0.831028 -0.556231 0.000000
vn 0.619403 0.785074 0.000000
vn 0.619403 0.785074 0.000000
vn 0.619403 0.785074 0.000000
vn 0.619403 0.785074 0.000000
vn 0.271309 -0.962492 0.000000
vn 0.271309 -0.962492 0.000000
vn 0.271309 -0.962492 0.000000
vn 0.271309 -0.962492 0.000000
vn 0.620347 0.781844 0.062371
vn 0.620347 0.781844 0.062371
vn 0.620347 0.781844 0.062371
vn 0.620347 0.781844 0.062371
vn 0.857118 0.506048 0.096255
vn 0.857118 0.506048 0.096255
vn 0.857118 0.506048 0.096255
vn 0.857118 0.506048 0.096255
vn 0.000000 0.000000 1.000000
vn 0.000000 0.000000 1.000000
vn 0.000000 0.000000 1.000000
vn 0.000000 0.000000 1.000000
vn 0.000000 0.000000 1.000000
vn 0.000000 0.000000 1.000000
vn 0.000000 -0.000003 1.000000
vn 0.000000 -0.000003 1.000000
vn 0.000000 0.000000 1.000000
vn 0.000000 0.000000 1.000000
vn 0.000000 0.000000 1.000000
vn 0.000000 0.000000 1.000000
vn 0.000000 0.000000 1.000000
vn 0.000000 0.000000 1.000000
vn 0.000000 0.000000 1.000000
vn 0.000000 0.000000 1.000000
vn 0.000000 0.000000 1.000000
vn 0.000000 0.000000 1.000000
vn 0.000000 0.000000 1.000000
vn 0.000000 0.000000 1.000000
vn 0.000000 0.000000 1.000000
vn 0.000000 0.000000 1.000000
vn 0.000000 0.000000 1.000000
vn 0.000000 0.000000 1.000000
vn 0.000000 0.000000 1.000000
vn 0.000000 0.000000 1.000000
vn 0.000000 0.000000 1.000000
vn 0.000000 0.000000 1.000000
vn 0.000000 0.000000 1.000000
vn 0.000000 0.000000 1.000000
vn 0.000000 0.000000 1.000000
vn 0.000000 0.000000 1.000000
vn 0.000000 0.000000 1.000000
vn 0.000000 0.000000 1.000000
vn 0.000000 0.000000 1.000000
vn 0.000000 0.000000 1.000000
vn 0.000000 0.000000 1.000000
vn 0.000000 0.000000 1.000000
vn -0.072930 0.996648 0.037081
vn -0.072930 0.996648 0.037081
vn -0.072930 0.996648 0.037081
vn -0.072930 0.996648 0.037081
vn -0.312046 0.949073 0.043454
vn -0.312046 0.949073 0.043454
vn -0.312046 0.949073 0.043454
vn -0.312046 0.949073 0.043454
vn 0.000000 0.000001 1.000000
vn 0.000000 0.000001 1.000000
vn 0.000000 0.000001 1.000000
vn 0.000000 0.000001 1.000000
vn 0.000000 -0.000001 1.000000
vn 0.000000 -0.000001 1.000000
vn 0.000000 0.000000 1.000000
vn 0.000000 0.000000 1.000000
vn 0.000000 0.000000 1.000000
vn 0.000000 0.000000 1.000000
vn 0.000000 0.000000 1.000000
vn 0.000000 0.000000 1.000000
vn 0.000000 0.000000 1.000000
vn 0.000000 0.000000 1.000000
vn 0.072930 0.996648 0.037081
vn 0.072930 0.996648 0.037081
vn 0.072930 0.996648 0.037081
vn 0.072930 0.996648 0.037081
vn 0.312046 0.949073 0.043454
vn 0.312046 0.949073 0.043454
vn 0.312046 0.949073 0.043454
vn 0.312046 0.949073 0.043454
vn 0.948201 -0.299596 0.105623
vn 0.948201 -0.299596 0.105623
vn 0.948201 -0.299596 0.105623
vn 0.948201 -0.299596 0.105623
vn 0.993694 0.000000 0.112128
vn 0.993694 0.000000 0.112128
vn 0.993694 0.000000 0.112128
vn 0.993694 0.000000 0.112128
vn 0.831049 -0.547553 0.097686
vn 0.831049 -0.547553 0.097686
vn 0.831049 -0.547553 0.097686
vn 0.831049 -0.547553 0.097686
vn -0.857118 0.506048 0.096254
vn -0.857118 0.506048 0.096254
vn -0.857118 0.506048 0.096254
vn -0.857118 0.506048 0.096254
vn -0.620347 0.781844 0.062371
vn -0.620347 0.781844 0.062371
vn -0.620347 0.781844 0.062371
vn -0.620347 0.781844 0.062371
vn -0.007373 -0.999963 0.004547
vn -0.007373 -0.999963 0.004547
vn -0.007373 -0.999963 0.004547
vn -0.007373 -0.999963 0.004547
vn 0.006190 -0.999953 0.007461
vn 0.006190 -0.999953 0.007461
vn 0.271788 -0.961894 0.029848
vn 0.271788 -0.961894 0.029848
vn 0.271788 -0.961894 0.029848
vn 0.271788 -0.961894 0.029848
vn -0.243009 -0.967455 -0.070557
vn -0.243009 -0.967455 -0.070557
vn -0.243009 -0.967455 -0.070557
vn -0.243009 -0.967455 -0.070557
vn -0.948201 -0.299596 0.105624
vn -0.948201 -0.299596 0.105624
vn -0.948201 -0.299596 0.105624
vn -0.948201 -0.299596 0.105624
vn -0.991891 -0.059148 0.112486
vn -0.991891 -0.059148 0.112486
vn -0.991891 -0.059148 0.112486
vn -0.991891 -0.059148 0.112486
vn -0.993694 0.000000 0.112128
vn -0.993694 0.000000 0.112128
vn -0.993694 0.000000 0.112128
vn -0.993694 0.000000 0.112128
vn -0.831049 -0.547553 0.097686
vn -0.831049 -0.547553 0.097686
vn -0.831049 -0.547553 0.097686
vn -0.831049 -0.547553 0.097686
vn -0.991595 0.048996 0.119748
vn -0.991595 0.048996 0.119748
vn -0.991595 0.048996 0.119748
vn -0.991595 0.048996 0.119748
vn 0.991595 0.048996 0.119747
vn 0.991595 0.048996 0.119747
vn 0.991595 0.048996 0.119747
vn 0.991595 0.048996 0.119747
vn 0.991891 -0.059148 0.112486
vn 0.991891 -0.059148 0.112486
vn 0.991891 -0.059148 0.112486
vn 0.991891 -0.059148 0.112486
vn 0.998170 -0.060467 0.000000
vn 0.998170 -0.060467 0.000000
vn 0.998170 -0.060467 0.000000
vn 0.998170 -0.060467 0.000000
vt 0.091541 0.612721
vt 0.067144 0.612929
vt 0.280608 0.549474
vt 0.280608 0.520668
vt 0.152572 0.612055
vt 0.143389 0.612157
vt 0.091541 0.612721
vt 0.280608 0.549474
vt 0.067144 0.612929
vt 0.280608 0.520668
vt 0.143389 0.612157
vt 0.152572 0.612055
vt 0.076704 0.520749
vt 0.091180 0.520526
vt 0.095403 0.511297
vt 0.086264 0.512721
vt 0.094956 0.508817
vt 0.083043 0.511397
vt 0.068094 0.520720
vt 0.086264 0.512721
vt 0.083043 0.511397
vt 0.071760 0.531221
vt 0.061688 0.531297
vt 0.091180 0.520526
vt 0.061481 0.536676
vt 0.071613 0.536599
vt 0.088562 0.531065
vt 0.073863 0.540611
vt 0.064330 0.540681
vt 0.088515 0.536442
vt 0.074305 0.547662
vt 0.064867 0.547731
vt 0.089767 0.540464
vt 0.075126 0.608749
vt 0.065688 0.608819
vt 0.067144 0.612929
vt 0.076298 0.612844
vt 0.090872 0.608604
vt 0.090051 0.547517
vt 0.108733 0.530864
vt 0.108805 0.536240
vt 0.108859 0.540274
vt 0.108954 0.547329
vt 0.108592 0.520263
vt 0.108474 0.510506
vt 0.095403 0.511297
vt 0.121567 0.511029
vt 0.126013 0.520170
vt 0.108453 0.507852
vt 0.094956 0.508817
vt 0.121567 0.511029
vt 0.121974 0.508541
vt 0.130751 0.512265
vt 0.133956 0.510876
vt 0.149146 0.519891
vt 0.128910 0.530652
vt 0.140509 0.520096
vt 0.126013 0.520170
vt 0.121567 0.511029
vt 0.145730 0.530464
vt 0.155832 0.530333
vt 0.156184 0.535706
vt 0.129102 0.536027
vt 0.146022 0.535837
vt 0.127958 0.540073
vt 0.143880 0.539894
vt 0.153444 0.539769
vt 0.153096 0.546828
vt 0.127863 0.547130
vt 0.143628 0.546952
vt 0.153917 0.607916
vt 0.109775 0.608416
vt 0.128684 0.608217
vt 0.144448 0.608040
vt 0.152572 0.612055
vt 0.143389 0.612157
vt 0.128128 0.612347
vt 0.109832 0.612558
vt 0.091541 0.612721
vt 0.128128 0.612347
vt 0.280395 0.535071
vt 0.280608 0.520668
vt 0.109832 0.612558
vt 0.280608 0.549474
vt 0.280395 0.535071
vt 0.076704 0.520749
vt 0.095403 0.511297
vt 0.091180 0.520526
vt 0.086264 0.512721
vt 0.094956 0.508817
vt 0.083043 0.511397
vt 0.068094 0.520720
vt 0.086264 0.512721
vt 0.083043 0.511397
vt 0.071760 0.531221
vt 0.061688 0.531297
vt 0.091180 0.520526
vt 0.061481 0.536676
vt 0.071613 0.536599
vt 0.088562 0.531065
vt 0.073863 0.540611
vt 0.064330 0.540681
vt 0.088515 0.536442
vt 0.074305 0.547662
vt 0.064867 0.547731
vt 0.089767 0.540464
vt 0.075126 0.608749
vt 0.065688 0.608819
vt 0.067144 0.612929
vt 0.076298 0.612844
vt 0.090872 0.608604
vt 0.090051 0.547517
vt 0.108733 0.530864
vt 0.108805 0.536240
vt 0.108859 0.540274
vt 0.108954 0.547329
vt 0.108592 0.520263
vt 0.108474 0.510506
vt 0.095403 0.511297
vt 0.108453 0.507852
vt 0.094956 0.508817
vt 0.121567 0.511029
vt 0.121974 0.508541
vt 0.126013 0.520170
vt 0.128910 0.530652
vt 0.140509 0.520096
vt 0.129102 0.536027
vt 0.145730 0.530464
vt 0.127958 0.540073
vt 0.146022 0.535837
vt 0.127863 0.547130
vt 0.143880 0.539894
vt 0.156184 0.535706
vt 0.155832 0.530333
vt 0.153444 0.539769
vt 0.149146 0.519891
vt 0.153096 0.546828
vt 0.130751 0.512265
vt 0.126013 0.520170
vt 0.133956 0.510876
vt 0.121567 0.511029
vt 0.121974 0.508541
vt 0.143628 0.546952
vt 0.153917 0.607916
vt 0.144448 0.608040
vt 0.152572 0.612055
vt 0.143389 0.612157
vt 0.128684 0.608217
vt 0.128128 0.612347
vt 0.109775 0.608416
vt 0.109832 0.612558
vt 0.091541 0.612721
vt 0.280608 0.549474
vt 0.280395 0.535071
vt 0.280608 0.520668
vt 0.591430 0.564612
vt 0.590608 0.558918
vt 0.580759 0.558976
vt 0.581200 0.564605
vt 0.411773 0.467571
vt 0.411740 0.473264
vt 0.419036 0.473254
vt 0.419038 0.467549
vt 0.548253 0.564605
vt 0.548253 0.564605
vt 0.538024 0.564612
vt 0.538024 0.564612
vt 0.416307 0.567342
vt 0.428275 0.564384
vt 0.426074 0.561250
vt 0.420139 0.569459
vt 0.412163 0.573751
vt 0.416652 0.575215
vt 0.412028 0.576967
vt 0.416540 0.578143
vt 0.413848 0.579362
vt 0.418090 0.580323
vt 0.414187 0.583577
vt 0.418383 0.584160
vt 0.414678 0.620108
vt 0.418829 0.617408
vt 0.415596 0.622582
vt 0.419622 0.619645
vt 0.432388 0.624527
vt 0.433939 0.621305
vt 0.442957 0.624527
vt 0.442896 0.621304
vt 0.451851 0.621121
vt 0.453525 0.624311
vt 0.470259 0.622022
vt 0.466118 0.619169
vt 0.466850 0.616917
vt 0.471110 0.619530
vt 0.470619 0.583000
vt 0.466403 0.583668
vt 0.470846 0.578778
vt 0.466592 0.579826
vt 0.472601 0.576347
vt 0.468084 0.577615
vt 0.472379 0.573135
vt 0.467892 0.574691
vt 0.468064 0.566812
vt 0.464253 0.569007
vt 0.458137 0.560922
vt 0.455986 0.564101
vt 0.450556 0.559377
vt 0.449464 0.562829
vt 0.442076 0.558922
vt 0.442105 0.562455
vt 0.434759 0.562980
vt 0.433611 0.559551
vt 0.419036 0.473254
vt 0.411740 0.473264
vt 0.411740 0.473264
vt 0.419036 0.473254
vt 0.564726 0.558922
vt 0.556253 0.558949
vt 0.556030 0.564604
vt 0.564726 0.564603
vt 0.556253 0.558949
vt 0.548694 0.558976
vt 0.548253 0.564605
vt 0.556030 0.564604
vt 0.573423 0.564604
vt 0.573423 0.564604
vt 0.564726 0.564603
vt 0.564726 0.564603
vt 0.433611 0.559551
vt 0.426074 0.561250
vt 0.428275 0.564384
vt 0.434759 0.562980
vt 0.564726 0.558922
vt 0.564726 0.564603
vt 0.573423 0.564604
vt 0.573200 0.558949
vt 0.564726 0.564603
vt 0.556030 0.564604
vt 0.556030 0.564604
vt 0.564726 0.564603
vt 0.573200 0.558949
vt 0.573423 0.564604
vt 0.581200 0.564605
vt 0.580759 0.558976
vt 0.581200 0.564605
vt 0.573423 0.564604
vt 0.573423 0.564604
vt 0.581200 0.564605
vt 0.474878 0.467568
vt 0.472038 0.467553
vt 0.472036 0.473258
vt 0.474882 0.473260
vt 0.548253 0.564605
vt 0.556030 0.564604
vt 0.556030 0.564604
vt 0.548253 0.564605
vt 0.472036 0.473258
vt 0.472038 0.467553
vt 0.430293 0.467553
vt 0.430291 0.473258
vt 0.422711 0.467548
vt 0.422709 0.473253
vt 0.425470 0.473257
vt 0.425472 0.467552
vt 0.472036 0.473258
vt 0.430291 0.473258
vt 0.430291 0.473258
vt 0.472036 0.473258
vt 0.474882 0.473260
vt 0.472036 0.473258
vt 0.472036 0.473258
vt 0.474882 0.473260
vt 0.474882 0.553206
vt 0.474915 0.558898
vt 0.482180 0.558921
vt 0.482178 0.553216
vt 0.538846 0.558918
vt 0.538024 0.564612
vt 0.548253 0.564605
vt 0.548694 0.558976
vt 0.566242 0.558847
vt 0.555319 0.553169
vt 0.555673 0.558824
vt 0.566242 0.553166
vt 0.555319 0.553169
vt 0.566242 0.553166
vt 0.577165 0.553169
vt 0.577165 0.553169
vt 0.576811 0.558824
vt 0.482178 0.553216
vt 0.474882 0.553206
vt 0.474882 0.553206
vt 0.482178 0.553216
vt 0.593575 0.558918
vt 0.594460 0.553225
vt 0.577165 0.553169
vt 0.576811 0.558824
vt 0.538024 0.553225
vt 0.538909 0.558918
vt 0.555673 0.558824
vt 0.555319 0.553169
vt 0.538019 0.558902
vt 0.538024 0.553210
vt 0.535178 0.553212
vt 0.535180 0.558917
vt 0.488612 0.553212
vt 0.488614 0.558917
vt 0.493435 0.558917
vt 0.493433 0.553212
vt 0.493433 0.553212
vt 0.493435 0.558917
vt 0.535180 0.558917
vt 0.535178 0.553212
vt 0.485851 0.553217
vt 0.485853 0.558922
vt 0.488614 0.558917
vt 0.488612 0.553212
vt 0.493433 0.553212
vt 0.493433 0.553212
vt 0.535178 0.553212
vt 0.535178 0.553212
vt 0.485853 0.558922
vt 0.485851 0.553217
vt 0.482178 0.553216
vt 0.482180 0.558921
vt 0.488612 0.553212
vt 0.485851 0.553217
vt 0.485851 0.553217
vt 0.488612 0.553212
vt 0.422709 0.473253
vt 0.422711 0.467548
vt 0.419038 0.467549
vt 0.419036 0.473254
vt 0.430291 0.473258
vt 0.430293 0.467553
vt 0.425472 0.467552
vt 0.425470 0.473257
vt 0.422709 0.473253
vt 0.419036 0.473254
vt 0.419036 0.473254
vt 0.422709 0.473253
vt 0.482178 0.553216
vt 0.482178 0.553216
vt 0.485851 0.553217
vt 0.485851 0.553217
vt 0.488612 0.553212
vt 0.488612 0.553212
vt 0.493433 0.553212
vt 0.493433 0.553212
vt 0.535178 0.553212
vt 0.535178 0.553212
vt 0.538024 0.553210
vt 0.538024 0.553210
vt 0.555319 0.553169
vt 0.538024 0.553225
vt 0.538024 0.553225
vt 0.555319 0.553169
vt 0.425470 0.473257
vt 0.422709 0.473253
vt 0.422709 0.473253
vt 0.425470 0.473257
vt 0.591430 0.564612
vt 0.581200 0.564605
vt 0.581200 0.564605
vt 0.591430 0.564612
vt 0.577165 0.553169
vt 0.594460 0.553225
vt 0.594460 0.553225
vt 0.577165 0.553169
vt 0.591430 0.564612
vt 0.581200 0.564605
vt 0.580759 0.558976
vt 0.590608 0.558918
vt 0.411773 0.467571
vt 0.419038 0.467549
vt 0.419036 0.473254
vt 0.411740 0.473264
vt 0.416307 0.567342
vt 0.426074 0.561250
vt 0.428275 0.564384
vt 0.420139 0.569459
vt 0.412163 0.573751
vt 0.416652 0.575215
vt 0.412028 0.576967
vt 0.416540 0.578143
vt 0.413848 0.579362
vt 0.418090 0.580323
vt 0.414187 0.583577
vt 0.418383 0.584160
vt 0.414678 0.620108
vt 0.418829 0.617408
vt 0.415596 0.622582
vt 0.419622 0.619645
vt 0.432388 0.624527
vt 0.433939 0.621305
vt 0.442957 0.624527
vt 0.442896 0.621304
vt 0.451851 0.621121
vt 0.453525 0.624311
vt 0.470259 0.622022
vt 0.466118 0.619169
vt 0.466850 0.616917
vt 0.471110 0.619530
vt 0.470619 0.583000
vt 0.466403 0.583668
vt 0.470846 0.578778
vt 0.466592 0.579826
vt 0.472601 0.576347
vt 0.468084 0.577615
vt 0.472379 0.573135
vt 0.467892 0.574691
vt 0.468064 0.566812
vt 0.464253 0.569007
vt 0.458137 0.560922
vt 0.455986 0.564101
vt 0.564726 0.558922
vt 0.564726 0.564603
vt 0.556030 0.564604
vt 0.556253 0.558949
vt 0.556253 0.558949
vt 0.556030 0.564604
vt 0.548253 0.564605
vt 0.548694 0.558976
vt 0.442076 0.558922
vt 0.450556 0.559377
vt 0.449464 0.562829
vt 0.442105 0.562455
vt 0.434759 0.562980
vt 0.433611 0.559551
vt 0.450556 0.559377
vt 0.458137 0.560922
vt 0.455986 0.564101
vt 0.449464 0.562829
vt 0.433611 0.559551
vt 0.434759 0.562980
vt 0.428275 0.564384
vt 0.426074 0.561250
vt 0.564726 0.558922
vt 0.573200 0.558949
vt 0.573423 0.564604
vt 0.564726 0.564603
vt 0.573200 0.558949
vt 0.580759 0.558976
vt 0.581200 0.564605
vt 0.573423 0.564604
vt 0.474878 0.467568
vt 0.474882 0.473260
vt 0.472036 0.473258
vt 0.472038 0.467553
vt 0.472036 0.473258
vt 0.430291 0.473258
vt 0.430293 0.467553
vt 0.472038 0.467553
vt 0.422711 0.467548
vt 0.425472 0.467552
vt 0.425470 0.473257
vt 0.422709 0.473253
vt 0.474882 0.553206
vt 0.482178 0.553216
vt 0.482180 0.558921
vt 0.474915 0.558898
vt 0.538846 0.558918
vt 0.548694 0.558976
vt 0.548253 0.564605
vt 0.538024 0.564612
vt 0.566242 0.558847
vt 0.555673 0.558824
vt 0.555319 0.553169
vt 0.566242 0.553166
vt 0.577165 0.553169
vt 0.576811 0.558824
vt 0.593575 0.558918
vt 0.576811 0.558824
vt 0.577165 0.553169
vt 0.594460 0.553225
vt 0.538024 0.553225
vt 0.555319 0.553169
vt 0.555673 0.558824
vt 0.538909 0.558918
vt 0.538019 0.558902
vt 0.535180 0.558917
vt 0.535178 0.553212
vt 0.538024 0.553210
vt 0.488612 0.553212
vt 0.493433 0.553212
vt 0.493435 0.558917
vt 0.488614 0.558917
vt 0.493433 0.553212
vt 0.535178 0.553212
vt 0.535180 0.558917
vt 0.493435 0.558917
vt 0.485851 0.553217
vt 0.488612 0.553212
vt 0.488614 0.558917
vt 0.485853 0.558922
vt 0.485853 0.558922
vt 0.482180 0.558921
vt 0.482178 0.553216
vt 0.485851 0.553217
vt 0.422709 0.473253
vt 0.419036 0.473254
vt 0.419038 0.467549
vt 0.422711 0.467548
vt 0.430291 0.473258
vt 0.425470 0.473257
vt 0.425472 0.467552
vt 0.430293 0.467553
vt 0.430291 0.473258
vt 0.425470 0.473257
vt 0.425470 0.473257
vt 0.430291 0.473258
g Bread_Light
usemtl Light
f 1/1/1 2/2/2 3/3/3
f 4/4/4 5/5/5 6/6/6
f 7/7/7 8/8/8 9/9/9
f 10/10/10 11/11/11 12/12/12
f 13/13/13 14/14/14 15/15/15
f 13/13/13 15/15/15 16/16/16
f 17/17/17 16/16/16 15/15/15
f 17/17/17 18/18/18 16/16/16
f 19/19/19 13/13/13 20/20/20
f 19/19/19 20/20/20 21/21/21
f 22/22/22 13/13/13 19/19/19
f 22/22/22 19/19/19 23/23/23
f 24/24/24 13/13/13 22/22/22
f 25/25/25 22/22/22 23/23/23
f 25/25/25 26/26/26 22/22/22
f 24/24/24 22/22/22 27/27/27
f 26/26/26 27/27/27 22/22/22
f 28/28/28 26/26/26 25/25/25
f 28/28/28 25/25/25 29/29/29
f 26/26/26 30/30/30 27/27/27
f 30/30/30 26/26/26 28/28/28
f 31/31/31 28/28/28 29/29/29
f 31/31/31 29/29/29 32/32/32
f 30/30/30 28/28/28 33/33/33
f 31/31/31 33/33/33 28/28/28
f 34/34/34 31/31/31 32/32/32
f 34/34/34 32/32/32 35/35/35
f 36/36/36 34/34/34 35/35/35
f 36/36/36 37/37/37 34/34/34
f 37/37/37 38/38/38 34/34/34
f 34/34/34 39/39/39 31/31/31
f 31/31/31 39/39/39 33/33/33
f 34/34/34 38/38/38 39/39/39
f 30/30/30 40/40/40 27/27/27
f 41/41/41 30/30/30 33/33/33
f 30/30/30 41/41/41 40/40/40
f 39/39/39 42/42/42 33/33/33
f 41/41/41 33/33/33 42/42/42
f 38/38/38 43/43/43 39/39/39
f 39/39/39 43/43/43 42/42/42
f 44/44/44 27/27/27 40/40/40
f 44/44/44 24/24/24 27/27/27
f 24/24/24 44/44/44 45/45/45
f 24/24/24 45/45/45 46/46/46
f 44/44/44 47/47/47 45/45/45
f 44/44/44 48/48/48 47/47/47
f 48/48/48 44/44/44 40/40/40
f 49/49/49 46/46/46 45/45/45
f 49/49/49 50/50/50 46/46/46
f 49/49/49 45/45/45 51/51/51
f 49/49/49 51/51/51 52/52/52
f 52/52/52 51/51/51 53/53/53
f 52/52/52 53/53/53 54/54/54
f 53/53/53 55/55/55 54/54/54
f 48/48/48 40/40/40 56/56/56
f 41/41/41 56/56/56 40/40/40
f 57/57/57 48/48/48 56/56/56
f 53/53/53 57/57/57 55/55/55
f 58/58/58 57/57/57 53/53/53
f 58/58/58 53/53/53 59/59/59
f 55/55/55 57/57/57 60/60/60
f 57/57/57 56/56/56 60/60/60
f 55/55/55 60/60/60 61/61/61
f 60/60/60 62/62/62 61/61/61
f 41/41/41 63/63/63 56/56/56
f 63/63/63 60/60/60 56/56/56
f 63/63/63 41/41/41 42/42/42
f 60/60/60 64/64/64 62/62/62
f 63/63/63 64/64/64 60/60/60
f 63/63/63 42/42/42 65/65/65
f 64/64/64 63/63/63 65/65/65
f 65/65/65 42/42/42 43/43/43
f 62/62/62 64/64/64 66/66/66
f 64/64/64 65/65/65 66/66/66
f 62/62/62 66/66/66 67/67/67
f 66/66/66 68/68/68 67/67/67
f 65/65/65 43/43/43 69/69/69
f 66/66/66 65/65/65 69/69/69
f 66/66/66 70/70/70 68/68/68
f 66/66/66 69/69/69 70/70/70
f 70/70/70 71/71/71 68/68/68
f 69/69/69 43/43/43 72/72/72
f 38/38/38 72/72/72 43/43/43
f 70/70/70 69/69/69 73/73/73
f 69/69/69 72/72/72 73/73/73
f 70/70/70 74/74/74 71/71/71
f 70/70/70 73/73/73 74/74/74
f 75/75/75 71/71/71 74/74/74
f 75/75/75 74/74/74 76/76/76
f 77/77/77 74/74/74 73/73/73
f 78/78/78 77/77/77 73/73/73
f 78/78/78 73/73/73 72/72/72
f 78/78/78 72/72/72 38/38/38
f 78/78/78 38/38/38 79/79/79
f 80/80/80 78/78/78 81/81/81
f 80/80/80 81/81/81 82/82/82
f 83/83/83 79/79/79 84/84/84
f 83/83/83 84/84/84 85/85/85
f 86/86/86 87/87/87 88/88/88
f 86/86/86 89/89/89 87/87/87
f 90/90/90 87/87/87 89/89/89
f 90/90/90 89/89/89 91/91/91
f 92/92/92 93/93/93 86/86/86
f 92/92/92 94/94/94 93/93/93
f 95/95/95 92/92/92 86/86/86
f 95/95/95 96/96/96 92/92/92
f 97/97/97 95/95/95 86/86/86
f 98/98/98 96/96/96 95/95/95
f 98/98/98 95/95/95 99/99/99
f 97/97/97 100/100/100 95/95/95
f 99/99/99 95/95/95 100/100/100
f 101/101/101 98/98/98 99/99/99
f 101/101/101 102/102/102 98/98/98
f 99/99/99 100/100/100 103/103/103
f 103/103/103 101/101/101 99/99/99
f 104/104/104 102/102/102 101/101/101
f 104/104/104 105/105/105 102/102/102
f 103/103/103 106/106/106 101/101/101
f 104/104/104 101/101/101 106/106/106
f 107/107/107 105/105/105 104/104/104
f 107/107/107 108/108/108 105/105/105
f 109/109/109 108/108/108 107/107/107
f 109/109/109 107/107/107 110/110/110
f 110/110/110 107/107/107 111/111/111
f 107/107/107 104/104/104 112/112/112
f 104/104/104 106/106/106 112/112/112
f 107/107/107 112/112/112 111/111/111
f 103/103/103 100/100/100 113/113/113
f 114/114/114 106/106/106 103/103/103
f 103/103/103 113/113/113 114/114/114
f 112/112/112 106/106/106 115/115/115
f 114/114/114 115/115/115 106/106/106
f 111/111/111 112/112/112 116/116/116
f 112/112/112 115/115/115 116/116/116
f 117/117/117 113/113/113 100/100/100
f 117/117/117 100/100/100 97/97/97
f 97/97/97 118/118/118 117/117/117
f 97/97/97 119/119/119 118/118/118
f 120/120/120 118/118/118 119/119/119
f 120/120/120 119/119/119 121/121/121
f 120/120/120 122/122/122 118/118/118
f 117/117/117 118/118/118 122/122/122
f 120/120/120 123/123/123 122/122/122
f 117/117/117 122/122/122 124/124/124
f 124/124/124 113/113/113 117/117/117
f 124/124/124 125/125/125 113/113/113
f 114/114/114 113/113/113 125/125/125
f 126/126/126 125/125/125 124/124/124
f 127/127/127 115/115/115 114/114/114
f 114/114/114 125/125/125 127/127/127
f 126/126/126 128/128/128 125/125/125
f 127/127/127 125/125/125 128/128/128
f 127/127/127 129/129/129 115/115/115
f 129/129/129 116/116/116 115/115/115
f 127/127/127 128/128/128 130/130/130
f 130/130/130 129/129/129 127/127/127
f 129/129/129 131/131/131 116/116/116
f 130/130/130 132/132/132 129/129/129
f 132/132/132 131/131/131 129/129/129
f 128/128/128 133/133/133 130/130/130
f 133/133/133 132/132/132 130/130/130
f 128/128/128 134/134/134 133/133/133
f 133/133/133 135/135/135 132/132/132
f 136/136/136 134/134/134 128/128/128
f 136/136/136 128/128/128 126/126/126
f 132/132/132 135/135/135 137/137/137
f 138/138/138 136/136/136 126/126/126
f 139/139/139 138/138/138 126/126/126
f 138/138/138 140/140/140 136/136/136
f 139/139/139 141/141/141 138/138/138
f 142/142/142 140/140/140 138/138/138
f 142/142/142 138/138/138 141/141/141
f 132/132/132 137/137/137 143/143/143
f 143/143/143 137/137/137 144/144/144
f 132/132/132 143/143/143 131/131/131
f 143/143/143 144/144/144 145/145/145
f 146/146/146 145/145/145 144/144/144
f 146/146/146 147/147/147 145/145/145
f 143/143/143 145/145/145 148/148/148
f 143/143/143 148/148/148 131/131/131
f 149/149/149 148/148/148 145/145/145
f 131/131/131 148/148/148 150/150/150
f 131/131/131 150/150/150 116/116/116
f 111/111/111 116/116/116 150/150/150
f 151/151/151 150/150/150 148/148/148
f 151/151/151 111/111/111 150/150/150
f 151/151/151 148/148/148 149/149/149
f 151/151/151 152/152/152 111/111/111
f 151/151/151 153/153/153 152/152/152
f 151/151/151 154/154/154 153/153/153
f 149/149/149 154/154/154 151/151/151
f 149/149/149 155/155/155 154/154/154
g Bread_Brown
usemtl Brown
f 156/156/156 157/157/157 158/158/158
f 156/156/156 158/158/158 159/159/159
f 160/160/160 161/161/161 162/162/162
f 160/160/160 162/162/162 163/163/163
f 164/164/164 165/165/165 166/166/166
f 164/164/164 166/166/166 167/167/167
f 168/168/168 169/169/169 170/170/170
f 168/168/168 171/171/171 169/169/169
f 171/171/171 168/168/168 172/172/172
f 171/171/171 172/172/172 173/173/173
f 174/174/174 173/173/173 172/172/172
f 174/174/174 175/175/175 173/173/173
f 175/175/175 174/174/174 176/176/176
f 175/175/175 176/176/176 177/177/177
f 177/177/177 176/176/176 178/178/178
f 177/177/177 178/178/178 179/179/179
f 179/179/179 178/178/178 180/180/180
f 179/179/179 180/180/180 181/181/181
f 182/182/182 181/181/181 180/180/180
f 182/182/182 183/183/183 181/181/181
f 183/183/183 182/182/182 184/184/184
f 183/183/183 184/184/184 185/185/185
f 186/186/186 185/185/185 184/184/184
f 186/186/186 187/187/187 185/185/185
f 186/186/186 188/188/188 187/187/187
f 186/186/186 189/189/189 188/188/188
f 190/190/190 188/188/188 189/189/189
f 190/190/190 191/191/191 188/188/188
f 190/190/190 192/192/192 191/191/191
f 190/190/190 193/193/193 192/192/192
f 192/192/192 193/193/193 194/194/194
f 192/192/192 194/194/194 195/195/195
f 195/195/195 194/194/194 196/196/196
f 195/195/195 196/196/196 197/197/197
f 198/198/198 197/197/197 196/196/196
f 198/198/198 199/199/199 197/197/197
f 199/199/199 198/198/198 200/200/200
f 199/199/199 200/200/200 201/201/201
f 202/202/202 201/201/201 200/200/200
f 202/202/202 203/203/203 201/201/201
f 203/203/203 202/202/202 204/204/204
f 203/203/203 204/204/204 205/205/205
f 206/206/206 205/205/205 204/204/204
f 206/206/206 207/207/207 205/205/205
f 208/208/208 207/207/207 206/206/206
f 208/208/208 209/209/209 207/207/207
f 208/208/208 210/210/210 209/209/209
f 208/208/208 211/211/211 210/210/210
f 212/212/212 213/213/213 214/214/214
f 212/212/212 214/214/214 215/215/215
f 216/216/216 217/217/217 218/218/218
f 216/216/216 218/218/218 219/219/219
f 220/220/220 221/221/221 222/222/222
f 220/220/220 222/222/222 223/223/223
f 224/224/224 225/225/225 226/226/226
f 224/224/224 226/226/226 227/227/227
f 228/228/228 229/229/229 230/230/230
f 228/228/228 230/230/230 231/231/231
f 232/232/232 233/233/233 234/234/234
f 232/232/232 234/234/234 235/235/235
f 236/236/236 237/237/237 238/238/238
f 236/236/236 238/238/238 239/239/239
f 240/240/240 241/241/241 242/242/242
f 240/240/240 242/242/242 243/243/243
f 244/244/244 245/245/245 246/246/246
f 244/244/244 246/246/246 247/247/247
f 248/248/248 249/249/249 250/250/250
f 248/248/248 250/250/250 251/251/251
f 252/252/252 253/253/253 254/254/254
f 252/252/252 254/254/254 255/255/255
f 256/256/256 257/257/257 258/258/258
f 256/256/256 258/258/258 259/259/259
f 260/260/260 261/261/261 262/262/262
f 260/260/260 262/262/262 263/263/263
f 264/264/264 265/265/265 266/266/266
f 264/264/264 266/266/266 267/267/267
f 268/268/268 269/269/269 270/270/270
f 268/268/268 270/270/270 271/271/271
f 272/272/272 273/273/273 274/274/274
f 272/272/272 274/274/274 275/275/275
f 276/276/276 277/277/277 278/278/278
f 276/276/276 278/278/278 279/279/279
f 280/280/280 281/281/281 282/282/282
f 280/280/280 283/283/283 281/281/281
f 284/284/284 281/281/281 283/283/283
f 284/284/284 283/283/283 285/285/285
f 283/283/283 286/286/286 285/285/285
f 283/283/283 287/287/287 286/286/286
f 280/280/280 287/287/287 283/283/283
f 280/280/280 288/288/288 287/287/287
f 289/289/289 290/290/290 291/291/291
f 289/289/289 291/291/291 292/292/292
f 293/293/293 294/294/294 295/295/295
f 293/293/293 295/295/295 296/296/296
f 297/297/297 298/298/298 299/299/299
f 297/297/297 299/299/299 300/300/300
f 301/301/301 302/302/302 303/303/303
f 301/301/301 303/303/303 304/304/304
f 305/305/305 306/306/306 307/307/307
f 305/305/305 307/307/307 308/308/308
f 309/309/309 310/310/310 311/311/311
f 309/309/309 311/311/311 312/312/312
f 313/313/313 314/314/314 315/315/315
f 313/313/313 315/315/315 316/316/316
f 317/317/317 318/318/318 319/319/319
f 317/317/317 319/319/319 320/320/320
f 321/321/321 322/322/322 323/323/323
f 321/321/321 323/323/323 324/324/324
f 325/325/325 326/326/326 327/327/327
f 325/325/325 327/327/327 328/328/328
f 329/329/329 330/330/330 331/331/331
f 329/329/329 331/331/331 332/332/332
f 333/333/333 334/334/334 335/335/335
f 333/333/333 335/335/335 336/336/336
f 337/337/337 338/338/338 339/339/339
f 337/337/337 339/339/339 340/340/340
f 341/341/341 342/342/342 343/343/343
f 341/341/341 343/343/343 344/344/344
f 345/345/345 346/346/346 347/347/347
f 345/345/345 347/347/347 348/348/348
f 349/349/349 350/350/350 351/351/351
f 349/349/349 351/351/351 352/352/352
f 353/353/353 354/354/354 355/355/355
f 353/353/353 355/355/355 356/356/356
f 357/357/357 358/358/358 359/359/359
f 357/357/357 359/359/359 360/360/360
f 361/361/361 362/362/362 363/363/363
f 361/361/361 363/363/363 364/364/364
f 365/365/365 366/366/366 367/367/367
f 365/365/365 367/367/367 368/368/368
f 369/369/369 370/370/370 371/371/371
f 369/369/369 371/371/371 372/372/372
f 373/373/373 374/374/374 375/375/375
f 373/373/373 375/375/375 376/376/376
f 377/377/377 378/378/378 379/379/379
f 377/377/377 379/379/379 380/380/380
f 380/380/380 381/381/381 377/377/377
f 380/380/380 382/382/382 381/381/381
f 383/383/383 381/381/381 382/382/382
f 383/383/383 382/382/382 384/384/384
f 384/384/384 385/385/385 383/383/383
f 384/384/384 386/386/386 385/385/385
f 386/386/386 387/387/387 385/385/385
f 386/386/386 388/388/388 387/387/387
f 388/388/388 389/389/389 387/387/387
f 388/388/388 390/390/390 389/389/389
f 391/391/391 389/389/389 390/390/390
f 391/391/391 390/390/390 392/392/392
f 392/392/392 393/393/393 391/391/391
f 392/392/392 394/394/394 393/393/393
f 395/395/395 393/393/393 394/394/394
f 395/395/395 394/394/394 396/396/396
f 395/395/395 396/396/396 397/397/397
f 395/395/395 397/397/397 398/398/398
f 399/399/399 398/398/398 397/397/397
f 399/399/399 397/397/397 400/400/400
f 399/399/399 400/400/400 401/401/401
f 399/399/399 401/401/401 402/402/402
f 401/401/401 403/403/403 402/402/402
f 401/401/401 404/404/404 403/403/403
f 404/404/404 405/405/405 403/403/403
f 404/404/404 406/406/406 405/405/405
f 407/407/407 405/405/405 406/406/406
f 407/407/407 406/406/406 408/408/408
f 408/408/408 409/409/409 407/407/407
f 408/408/408 410/410/410 409/409/409
f 411/411/411 409/409/409 410/410/410
f 411/411/411 410/410/410 412/412/412
f 412/412/412 413/413/413 411/411/411
f 412/412/412 414/414/414 413/413/413
f 415/415/415 416/416/416 417/417/417
f 415/415/415 417/417/417 418/418/418
f 419/419/419 420/420/420 421/421/421
f 419/419/419 421/421/421 422/422/422
f 423/423/423 424/424/424 425/425/425
f 423/423/423 425/425/425 426/426/426
f 423/423/423 426/426/426 427/427/427
f 423/423/423 427/427/427 428/428/428
f 429/429/429 430/430/430 431/431/431
f 429/429/429 431/431/431 432/432/432
f 433/433/433 434/434/434 435/435/435
f 433/433/433 435/435/435 436/436/436
f 437/437/437 438/438/438 439/439/439
f 437/437/437 439/439/439 440/440/440
f 441/441/441 442/442/442 443/443/443
f 441/441/441 443/443/443 444/444/444
f 445/445/445 446/446/446 447/447/447
f 445/445/445 447/447/447 448/448/448
f 449/449/449 450/450/450 451/451/451
f 449/449/449 451/451/451 452/452/452
f 453/453/453 454/454/454 455/455/455
f 453/453/453 455/455/455 456/456/456
f 457/457/457 458/458/458 459/459/459
f 457/457/457 459/459/459 460/460/460
f 461/461/461 462/462/462 463/463/463
f 461/461/461 463/463/463 464/464/464
f 465/465/465 466/466/466 467/467/467
f 465/465/465 467/467/467 468/468/468
f 465/465/465 468/468/468 469/469/469
f 465/465/465 469/469/469 470/470/470
f 471/471/471 472/472/472 473/473/473
f 471/471/471 473/473/473 474/474/474
f 475/475/475 476/476/476 477/477/477
f 475/475/475 477/477/477 478/478/478
f 479/479/479 480/480/480 481/481/481
f 479/479/479 481/481/481 482/482/482
f 483/483/483 484/484/484 485/485/485
f 483/483/483 485/485/485 486/486/486
f 487/487/487 488/488/488 489/489/489
f 487/487/487 489/489/489 490/490/490
f 491/491/491 492/492/492 493/493/493
f 491/491/491 493/493/493 494/494/494
f 495/495/495 496/496/496 497/497/497
f 495/495/495 497/497/497 498/498/498
f 499/499/499 500/500/500 501/501/501
f 499/499/499 501/501/501 502/502/502
f 503/503/503 504/504/504 505/505/505
f 503/503/503 505/505/505 506/506/506
f 507/507/507 508/508/508 509/509/509
f 507/507/507 509/509/509 510/510/510
