mtllib Materials.mtl
# Ultimate Food Pack - Broccoli
o Broccoli
v 0.119739 0.110148 -0.064884
v -0.010030 0.110148 -0.064884
v -0.034766 0.342831 -0.062679
v 0.090592 0.342831 -0.062679
v 0.108860 0.445434 -0.062679
v -0.004540 0.498865 -0.062679
v 0.224391 0.548269 -0.054138
v 0.159557 0.634988 -0.054138
v -0.010030 0.110148 -0.064884
v -0.010030 0.110148 0.064884
v -0.034766 0.342831 0.062679
v -0.034766 0.342831 -0.062679
v 0.119739 0.110148 0.020779
v 0.119739 0.110148 -0.064884
v 0.090592 0.342831 -0.062679
v 0.090592 0.342831 0.018574
v -0.032822 -0.003293 0.087677
v 0.097910 -0.003293 0.087677
v 0.075117 0.110148 0.064884
v -0.010030 0.110148 0.064884
v -0.034766 0.342831 0.062679
v -0.004540 0.498865 0.062679
v -0.004540 0.498865 -0.062679
v -0.034766 0.342831 -0.062679
v -0.010030 0.110148 0.064884
v 0.075117 0.110148 0.064884
v 0.045970 0.342831 0.062679
v -0.034766 0.342831 0.062679
v -0.004540 0.498865 0.062679
v 0.067693 0.464831 0.062679
v 0.159557 0.634988 0.054138
v 0.199227 0.581926 0.054138
v -0.032822 -0.003293 -0.087677
v -0.032822 -0.003293 0.087677
v -0.010030 0.110148 0.064884
v -0.010030 0.110148 -0.064884
v 0.142531 -0.003293 -0.087677
v -0.032822 -0.003293 -0.087677
v -0.010030 0.110148 -0.064884
v 0.119739 0.110148 -0.064884
v 0.097910 -0.003293 0.087677
v -0.032822 -0.003293 0.087677
v -0.032822 -0.003293 -0.087677
v 0.142531 -0.003293 -0.087677
v 0.142531 -0.003293 0.043572
v 0.159557 0.634988 -0.054138
v 0.159557 0.634988 0.054138
v 0.199227 0.581926 0.054138
v 0.224391 0.548269 0.010033
v 0.224391 0.548269 -0.054138
v 0.108860 0.445434 -0.062679
v 0.224391 0.548269 -0.054138
v 0.224391 0.548269 0.010033
v 0.108860 0.445434 0.018574
v 0.090592 0.342831 -0.062679
v 0.108860 0.445434 -0.062679
v 0.108860 0.445434 0.018574
v 0.090592 0.342831 0.018574
v -0.004540 0.498865 0.062679
v 0.159557 0.634988 0.054138
v 0.159557 0.634988 -0.054138
v -0.004540 0.498865 -0.062679
v -0.049750 0.110148 0.121505
v 0.022620 0.110148 0.013791
v 0.034585 0.342831 -0.007971
v -0.035326 0.342831 0.096082
v -0.041738 0.407404 0.105625
v 0.022456 0.469160 0.008098
v -0.045514 0.445434 0.111246
v 0.017728 0.498865 0.017118
v 0.022620 0.110148 0.013791
v -0.085093 0.110148 -0.058580
v -0.069468 0.342831 -0.077882
v 0.034585 0.342831 -0.007971
v -0.114499 0.110148 0.078002
v -0.049750 0.110148 0.121505
v -0.035326 0.342831 0.096082
v -0.096413 0.342831 0.055038
v -0.091301 -0.003293 -0.090209
v -0.159888 -0.003293 0.011873
v -0.128258 0.110148 0.005666
v -0.085093 0.110148 -0.058580
v -0.081597 0.469160 -0.061813
v -0.086324 0.498865 -0.052793
v 0.017728 0.498865 0.017118
v 0.022456 0.469160 0.008098
v -0.085093 0.110148 -0.058580
v -0.128258 0.110148 0.005666
v -0.110173 0.342831 -0.017298
v -0.069468 0.342831 -0.077882
v -0.081597 0.469160 -0.061813
v -0.119476 0.432719 -0.004264
v -0.086324 0.498865 -0.052793
v -0.122622 0.468199 0.001231
v -0.170750 0.634988 0.088178
v -0.190438 0.587770 0.117480
v 0.054251 -0.003293 0.007584
v -0.091301 -0.003293 -0.090209
v -0.085093 0.110148 -0.058580
v 0.022620 0.110148 0.013791
v -0.043543 -0.003293 0.153135
v 0.054251 -0.003293 0.007584
v 0.022620 0.110148 0.013791
v -0.049750 0.110148 0.121505
v -0.146129 -0.003293 0.084209
v -0.159888 -0.003293 0.011873
v -0.091301 -0.003293 -0.090209
v -0.043543 -0.003293 0.153135
v 0.054251 -0.003293 0.007584
v -0.190438 0.587770 0.117480
v -0.163943 0.548269 0.170861
v -0.117034 0.548269 0.202378
v -0.080876 0.634988 0.148563
v -0.170750 0.634988 0.088178
v 0.017728 0.498865 0.017118
v -0.080876 0.634988 0.148563
v -0.117034 0.548269 0.202378
v -0.045514 0.445434 0.111246
v -0.086324 0.498865 -0.052793
v -0.170750 0.634988 0.088178
v -0.080876 0.634988 0.148563
v 0.017728 0.498865 0.017118
v -0.041738 0.407404 0.105625
v -0.045514 0.445434 0.111246
v -0.106602 0.445434 0.070202
v -0.102825 0.407404 0.064582
v -0.035326 0.342831 0.096082
v -0.096413 0.342831 0.055038
v -0.045514 0.445434 0.111246
v -0.117034 0.548269 0.202378
v -0.163943 0.548269 0.170861
v -0.106602 0.445434 0.070202
v -0.056284 0.503705 -0.127169
v -0.032511 0.545845 -0.152332
v -0.004694 0.541674 -0.232732
v -0.036083 0.416374 -0.177183
v 0.068013 0.538481 -0.117171
v 0.058598 0.614141 -0.143382
v 0.000868 0.617043 -0.163531
v -0.032511 0.545845 -0.152332
v 0.062605 0.404712 -0.117485
v 0.095829 0.534310 -0.197571
v 0.068013 0.538481 -0.117171
v 0.042405 0.492043 -0.067472
v 0.042405 0.492043 -0.067472
v 0.068013 0.538481 -0.117171
v -0.032511 0.545845 -0.152332
v -0.056284 0.503705 -0.127169
v -0.036083 0.416374 -0.177183
v -0.004694 0.541674 -0.232732
v 0.095829 0.534310 -0.197571
v 0.062605 0.404712 -0.117485
v 0.017007 0.629031 -0.208046
v 0.000868 0.617043 -0.163531
v 0.058598 0.614141 -0.143382
v 0.074737 0.626130 -0.187897
v -0.032511 0.545845 -0.152332
v 0.000868 0.617043 -0.163531
v 0.017007 0.629031 -0.208046
v -0.004694 0.541674 -0.232732
v 0.095829 0.534310 -0.197571
v 0.074737 0.626130 -0.187897
v 0.058598 0.614141 -0.143382
v 0.068013 0.538481 -0.117171
v -0.004694 0.541674 -0.232732
v 0.017007 0.629031 -0.208046
v 0.074737 0.626130 -0.187897
v 0.095829 0.534310 -0.197571
v -0.069468 0.342831 -0.077882
v -0.036083 0.416374 -0.177183
v 0.062605 0.404712 -0.117485
v 0.034585 0.342831 -0.007971
v 0.022456 0.469160 0.008098
v 0.042405 0.492043 -0.067472
v -0.056284 0.503705 -0.127169
v -0.081597 0.469160 -0.061813
v 0.034585 0.342831 -0.007971
v 0.062605 0.404712 -0.117485
v 0.042405 0.492043 -0.067472
v 0.022456 0.469160 0.008098
v -0.081597 0.469160 -0.061813
v -0.056284 0.503705 -0.127169
v -0.036083 0.416374 -0.177183
v -0.069468 0.342831 -0.077882
v 0.075117 0.110148 0.064884
v 0.119739 0.110148 0.020779
v 0.090592 0.342831 0.018574
v 0.045970 0.342831 0.062679
v 0.097910 -0.003293 0.087677
v 0.142531 -0.003293 0.043572
v 0.119739 0.110148 0.020779
v 0.075117 0.110148 0.064884
v 0.045970 0.342831 0.062679
v 0.090592 0.342831 0.018574
v 0.108860 0.445434 0.018574
v 0.067693 0.464831 0.062679
v 0.224391 0.548269 0.010033
v 0.199227 0.581926 0.054138
v 0.067693 0.464831 0.062679
v 0.108860 0.445434 0.018574
v 0.142531 -0.003293 0.043572
v 0.142531 -0.003293 -0.087677
v 0.119739 0.110148 -0.064884
v 0.119739 0.110148 0.020779
v -0.128258 0.110148 0.005666
v -0.114499 0.110148 0.078002
v -0.096413 0.342831 0.055038
v -0.110173 0.342831 -0.017298
v -0.159888 -0.003293 0.011873
v -0.146129 -0.003293 0.084209
v -0.114499 0.110148 0.078002
v -0.128258 0.110148 0.005666
v -0.119476 0.432719 -0.004264
v -0.106602 0.445434 0.070202
v -0.122622 0.468199 0.001231
v -0.102825 0.407404 0.064582
v -0.110173 0.342831 -0.017298
v -0.096413 0.342831 0.055038
v -0.163943 0.548269 0.170861
v -0.190438 0.587770 0.117480
v -0.122622 0.468199 0.001231
v -0.106602 0.445434 0.070202
v -0.146129 -0.003293 0.084209
v -0.043543 -0.003293 0.153135
v -0.049750 0.110148 0.121505
v -0.114499 0.110148 0.078002
v -0.020031 0.690697 -0.168441
v -0.105001 0.877064 -0.100164
v -0.008337 0.856690 0.003907
v -0.202488 0.825635 -0.155739
v -0.337555 0.808202 -0.036084
v -0.221420 0.896336 0.072408
v -0.202488 0.825635 -0.155739
v -0.221420 0.896336 0.072408
v -0.105001 0.877064 -0.100164
v -0.020031 0.690697 -0.168441
v -0.008337 0.856690 0.003907
v 0.064778 0.735052 0.025091
v -0.221420 0.896336 0.072408
v -0.337555 0.808202 -0.036084
v -0.287826 0.689647 0.193355
v -0.008337 0.856690 0.003907
v -0.221420 0.896336 0.072408
v -0.118544 0.812288 0.196418
v -0.221420 0.896336 0.072408
v -0.287826 0.689647 0.193355
v -0.118544 0.812288 0.196418
v -0.008337 0.856690 0.003907
v -0.118544 0.812288 0.196418
v 0.064778 0.735052 0.025091
v -0.102142 0.496988 -0.082392
v 0.052381 0.612447 0.032293
v -0.086901 0.491829 0.084328
v -0.299519 0.523654 0.021006
v -0.102142 0.496988 -0.082392
v -0.202856 0.503280 0.125078
v -0.287826 0.689647 0.193355
v -0.299519 0.523654 0.021006
v -0.202856 0.503280 0.125078
v 0.012999 0.629004 0.148104
v -0.101880 0.665106 0.226141
v -0.086901 0.491829 0.084328
v -0.101880 0.665106 0.226141
v -0.202856 0.503280 0.125078
v -0.086901 0.491829 0.084328
v -0.101880 0.665106 0.226141
v -0.287826 0.689647 0.193355
v -0.202856 0.503280 0.125078
v -0.202856 0.503280 0.125078
v -0.102142 0.496988 -0.082392
v -0.086901 0.491829 0.084328
v -0.086901 0.491829 0.084328
v 0.052381 0.612447 0.032293
v 0.012999 0.629004 0.148104
v 0.064778 0.735052 0.025091
v 0.012999 0.629004 0.148104
v 0.052381 0.612447 0.032293
v 0.064778 0.735052 0.025091
v -0.118544 0.812288 0.196418
v 0.012999 0.629004 0.148104
v -0.118544 0.812288 0.196418
v -0.101880 0.665106 0.226141
v 0.012999 0.629004 0.148104
v -0.118544 0.812288 0.196418
v -0.287826 0.689647 0.193355
v -0.101880 0.665106 0.226141
v -0.372634 0.645292 -0.000177
v -0.299519 0.523654 0.021006
v -0.287826 0.689647 0.193355
v -0.193580 0.587911 -0.184071
v -0.102142 0.496988 -0.082392
v -0.299519 0.523654 0.021006
v -0.020031 0.690697 -0.168441
v 0.052381 0.612447 0.032293
v -0.102142 0.496988 -0.082392
v -0.020031 0.690697 -0.168441
v 0.064778 0.735052 0.025091
v 0.052381 0.612447 0.032293
v -0.287826 0.689647 0.193355
v -0.337555 0.808202 -0.036084
v -0.372634 0.645292 -0.000177
v -0.337555 0.808202 -0.036084
v -0.341770 0.705017 -0.103704
v -0.372634 0.645292 -0.000177
v -0.193580 0.587911 -0.184071
v -0.020031 0.690697 -0.168441
v -0.102142 0.496988 -0.082392
v -0.105001 0.877064 -0.100164
v -0.221420 0.896336 0.072408
v -0.008337 0.856690 0.003907
v -0.337555 0.808202 -0.036084
v -0.202488 0.825635 -0.155739
v -0.341770 0.705017 -0.103704
v -0.202488 0.825635 -0.155739
v -0.193580 0.587911 -0.184071
v -0.341770 0.705017 -0.103704
v -0.202488 0.825635 -0.155739
v -0.020031 0.690697 -0.168441
v -0.193580 0.587911 -0.184071
v -0.202488 0.825635 -0.155739
v -0.105001 0.877064 -0.100164
v -0.020031 0.690697 -0.168441
v 0.106369 0.817805 -0.117859
v 0.025774 0.775887 0.013395
v 0.117013 0.690732 0.033086
v -0.050655 0.806509 -0.057561
v -0.112821 0.727025 -0.017168
v 0.025774 0.775887 0.013395
v 0.106369 0.817805 -0.117859
v 0.117013 0.690732 0.033086
v 0.203573 0.656714 -0.052438
v -0.070487 0.796386 -0.203354
v 0.106369 0.817805 -0.117859
v 0.124946 0.774555 -0.235114
v -0.169144 0.656075 -0.105246
v -0.070487 0.796386 -0.203354
v -0.156463 0.626967 -0.209198
v -0.053263 0.590777 0.040883
v -0.169144 0.656075 -0.105246
v -0.077836 0.509125 -0.026522
v 0.117013 0.690732 0.033086
v -0.053263 0.590777 0.040883
v 0.087627 0.545813 0.018042
v 0.106369 0.817805 -0.117859
v 0.203573 0.656714 -0.052438
v 0.124946 0.774555 -0.235114
v -0.070487 0.796386 -0.203354
v 0.124946 0.774555 -0.235114
v -0.014604 0.689113 -0.319449
v 0.117013 0.690732 0.033086
v 0.087627 0.545813 0.018042
v 0.203573 0.656714 -0.052438
v 0.205537 0.593925 -0.188762
v 0.192605 0.554672 -0.088234
v 0.097765 0.477172 -0.204076
v 0.192605 0.554672 -0.088234
v 0.022874 0.453900 -0.079172
v 0.097765 0.477172 -0.204076
v 0.097765 0.477172 -0.204076
v 0.022874 0.453900 -0.079172
v 0.021336 0.507794 -0.275032
v 0.022874 0.453900 -0.079172
v -0.094151 0.518171 -0.224843
v 0.021336 0.507794 -0.275032
v -0.094151 0.518171 -0.224843
v -0.014604 0.689113 -0.319449
v 0.021336 0.507794 -0.275032
v 0.021336 0.507794 -0.275032
v 0.144811 0.652076 -0.283074
v 0.097765 0.477172 -0.204076
v 0.021336 0.507794 -0.275032
v -0.014604 0.689113 -0.319449
v 0.144811 0.652076 -0.283074
v 0.144811 0.652076 -0.283074
v 0.205537 0.593925 -0.188762
v 0.097765 0.477172 -0.204076
v 0.203573 0.656714 -0.052438
v 0.087627 0.545813 0.018042
v 0.192605 0.554672 -0.088234
v 0.087627 0.545813 0.018042
v 0.022874 0.453900 -0.079172
v 0.192605 0.554672 -0.088234
v -0.077836 0.509125 -0.026522
v -0.094151 0.518171 -0.224843
v 0.022874 0.453900 -0.079172
v -0.156463 0.626967 -0.209198
v -0.014604 0.689113 -0.319449
v -0.094151 0.518171 -0.224843
v 0.124946 0.774555 -0.235114
v 0.144811 0.652076 -0.283074
v -0.014604 0.689113 -0.319449
v 0.124946 0.774555 -0.235114
v 0.205537 0.593925 -0.188762
v 0.144811 0.652076 -0.283074
v 0.124946 0.774555 -0.235114
v 0.203573 0.656714 -0.052438
v 0.205537 0.593925 -0.188762
v 0.203573 0.656714 -0.052438
v 0.192605 0.554672 -0.088234
v 0.205537 0.593925 -0.188762
v 0.087627 0.545813 0.018042
v -0.077836 0.509125 -0.026522
v 0.022874 0.453900 -0.079172
v 0.087627 0.545813 0.018042
v -0.053263 0.590777 0.040883
v -0.077836 0.509125 -0.026522
v -0.156463 0.626967 -0.209198
v -0.070487 0.796386 -0.203354
v -0.014604 0.689113 -0.319449
v 0.025774 0.775887 0.013395
v -0.053263 0.590777 0.040883
v 0.117013 0.690732 0.033086
v 0.025774 0.775887 0.013395
v -0.112821 0.727025 -0.017168
v -0.053263 0.590777 0.040883
v -0.112821 0.727025 -0.017168
v -0.169144 0.656075 -0.105246
v -0.053263 0.590777 0.040883
v -0.112821 0.727025 -0.017168
v -0.070487 0.796386 -0.203354
v -0.169144 0.656075 -0.105246
v -0.112821 0.727025 -0.017168
v -0.050655 0.806509 -0.057561
v -0.070487 0.796386 -0.203354
v -0.050655 0.806509 -0.057561
v 0.106369 0.817805 -0.117859
v -0.070487 0.796386 -0.203354
v -0.050655 0.806509 -0.057561
v 0.025774 0.775887 0.013395
v 0.106369 0.817805 -0.117859
v 0.090774 0.797741 0.257025
v 0.178278 0.816733 0.166465
v -0.012634 0.834831 0.053223
v 0.143591 0.774562 -0.049487
v 0.178278 0.816733 0.166465
v 0.272498 0.703859 0.149197
v 0.090774 0.797741 0.257025
v -0.012634 0.834831 0.053223
v -0.079299 0.794970 0.179252
v 0.143591 0.774562 -0.049487
v 0.272498 0.703859 0.149197
v 0.278063 0.615894 0.030253
v -0.012634 0.834831 0.053223
v 0.143591 0.774562 -0.049487
v -0.067837 0.731903 -0.049986
v -0.082697 0.703941 0.268251
v -0.079299 0.794970 0.179252
v -0.155051 0.636491 0.188036
v 0.133847 0.644799 0.324957
v -0.082697 0.703941 0.268251
v 0.059268 0.541571 0.323764
v 0.272498 0.703859 0.149197
v 0.133847 0.644799 0.324957
v 0.236152 0.548844 0.219747
v 0.272498 0.703859 0.149197
v 0.236152 0.548844 0.219747
v 0.278063 0.615894 0.030253
v -0.010835 0.607586 -0.106667
v 0.205709 0.548444 -0.049962
v 0.032238 0.454643 -0.038735
v -0.149486 0.548525 0.069093
v -0.010835 0.607586 -0.106667
v -0.055266 0.435652 0.051824
v -0.018636 0.452881 0.234423
v -0.149486 0.548525 0.069093
v -0.055266 0.435652 0.051824
v 0.202311 0.457415 0.039038
v 0.135646 0.417554 0.165066
v 0.032238 0.454643 -0.038735
v 0.135646 0.417554 0.165066
v -0.055266 0.435652 0.051824
v 0.032238 0.454643 -0.038735
v 0.135646 0.417554 0.165066
v -0.018636 0.452881 0.234423
v -0.055266 0.435652 0.051824
v -0.055266 0.435652 0.051824
v -0.010835 0.607586 -0.106667
v 0.032238 0.454643 -0.038735
v 0.032238 0.454643 -0.038735
v 0.205709 0.548444 -0.049962
v 0.202311 0.457415 0.039038
v 0.278063 0.615894 0.030253
v 0.202311 0.457415 0.039038
v 0.205709 0.548444 -0.049962
v 0.278063 0.615894 0.030253
v 0.236152 0.548844 0.219747
v 0.202311 0.457415 0.039038
v 0.236152 0.548844 0.219747
v 0.135646 0.417554 0.165066
v 0.202311 0.457415 0.039038
v 0.059268 0.541571 0.323764
v -0.018636 0.452881 0.234423
v 0.135646 0.417554 0.165066
v -0.155051 0.636491 0.188036
v -0.149486 0.548525 0.069093
v -0.018636 0.452881 0.234423
v -0.067837 0.731903 -0.049986
v -0.010835 0.607586 -0.106667
v -0.149486 0.548525 0.069093
v 0.143591 0.774562 -0.049487
v 0.205709 0.548444 -0.049962
v -0.010835 0.607586 -0.106667
v 0.143591 0.774562 -0.049487
v 0.278063 0.615894 0.030253
v 0.205709 0.548444 -0.049962
v 0.236152 0.548844 0.219747
v 0.059268 0.541571 0.323764
v 0.135646 0.417554 0.165066
v 0.236152 0.548844 0.219747
v 0.133847 0.644799 0.324957
v 0.059268 0.541571 0.323764
v -0.155051 0.636491 0.188036
v -0.067837 0.731903 -0.049986
v -0.149486 0.548525 0.069093
v -0.155051 0.636491 0.188036
v -0.079299 0.794970 0.179252
v -0.067837 0.731903 -0.049986
v -0.079299 0.794970 0.179252
v -0.012634 0.834831 0.053223
v -0.067837 0.731903 -0.049986
v -0.067837 0.731903 -0.049986
v 0.143591 0.774562 -0.049487
v -0.010835 0.607586 -0.106667
v 0.178278 0.816733 0.166465
v 0.133847 0.644799 0.324957
v 0.272498 0.703859 0.149197
v 0.178278 0.816733 0.166465
v 0.090774 0.797741 0.257025
v 0.133847 0.644799 0.324957
v 0.090774 0.797741 0.257025
v -0.082697 0.703941 0.268251
v 0.133847 0.644799 0.324957
v 0.090774 0.797741 0.257025
v -0.079299 0.794970 0.179252
v -0.082697 0.703941 0.268251
v -0.012634 0.834831 0.053223
v 0.178278 0.816733 0.166465
v 0.143591 0.774562 -0.049487
v 0.147265 0.726443 -0.151600
v 0.241236 0.717163 -0.184625
v 0.159404 0.586016 -0.266529
v 0.293207 0.593727 -0.245016
v 0.241236 0.717163 -0.184625
v 0.319575 0.700651 -0.100284
v 0.147265 0.726443 -0.151600
v 0.159404 0.586016 -0.266529
v 0.052770 0.661355 -0.132694
v 0.293207 0.593727 -0.245016
v 0.319575 0.700651 -0.100284
v 0.378828 0.602073 -0.083116
v 0.159404 0.586016 -0.266529
v 0.293207 0.593727 -0.245016
v 0.284832 0.478864 -0.228899
v 0.159616 0.722262 -0.016487
v 0.052770 0.661355 -0.132694
v 0.093072 0.565276 0.053248
v 0.319575 0.700651 -0.100284
v 0.159616 0.722262 -0.016487
v 0.233719 0.648576 0.065915
v 0.293207 0.593727 -0.245016
v 0.378828 0.602073 -0.083116
v 0.284832 0.478864 -0.228899
v 0.159404 0.586016 -0.266529
v 0.284832 0.478864 -0.228899
v 0.077754 0.429704 -0.137559
v 0.159616 0.722262 -0.016487
v 0.093072 0.565276 0.053248
v 0.233719 0.648576 0.065915
v 0.077754 0.429704 -0.137559
v 0.256281 0.398622 -0.141941
v 0.161933 0.414240 -0.002085
v 0.093072 0.565276 0.053248
v 0.077754 0.429704 -0.137559
v 0.161933 0.414240 -0.002085
v 0.233719 0.648576 0.065915
v 0.093072 0.565276 0.053248
v 0.240939 0.455920 0.042954
v 0.350400 0.470048 -0.054016
v 0.353815 0.553671 0.000784
v 0.240939 0.455920 0.042954
v 0.353815 0.553671 0.000784
v 0.233719 0.648576 0.065915
v 0.240939 0.455920 0.042954
v 0.240939 0.455920 0.042954
v 0.093072 0.565276 0.053248
v 0.161933 0.414240 -0.002085
v 0.161933 0.414240 -0.002085
v 0.256281 0.398622 -0.141941
v 0.240939 0.455920 0.042954
v 0.256281 0.398622 -0.141941
v 0.350400 0.470048 -0.054016
v 0.240939 0.455920 0.042954
v 0.024341 0.529330 -0.103594
v 0.077754 0.429704 -0.137559
v 0.093072 0.565276 0.053248
v 0.077754 0.429704 -0.137559
v 0.284832 0.478864 -0.228899
v 0.256281 0.398622 -0.141941
v 0.284832 0.478864 -0.228899
v 0.350400 0.470048 -0.054016
v 0.256281 0.398622 -0.141941
v 0.284832 0.478864 -0.228899
v 0.378828 0.602073 -0.083116
v 0.350400 0.470048 -0.054016
v 0.378828 0.602073 -0.083116
v 0.353815 0.553671 0.000784
v 0.350400 0.470048 -0.054016
v 0.093072 0.565276 0.053248
v 0.052770 0.661355 -0.132694
v 0.024341 0.529330 -0.103594
v 0.052770 0.661355 -0.132694
v 0.049355 0.577732 -0.187494
v 0.024341 0.529330 -0.103594
v 0.024341 0.529330 -0.103594
v 0.049355 0.577732 -0.187494
v 0.077754 0.429704 -0.137559
v 0.049355 0.577732 -0.187494
v 0.159404 0.586016 -0.266529
v 0.077754 0.429704 -0.137559
v 0.241236 0.717163 -0.184625
v 0.159616 0.722262 -0.016487
v 0.319575 0.700651 -0.100284
v 0.241236 0.717163 -0.184625
v 0.147265 0.726443 -0.151600
v 0.159616 0.722262 -0.016487
v 0.147265 0.726443 -0.151600
v 0.052770 0.661355 -0.132694
v 0.159616 0.722262 -0.016487
v 0.052770 0.661355 -0.132694
v 0.159404 0.586016 -0.266529
v 0.049355 0.577732 -0.187494
v 0.159404 0.586016 -0.266529
v 0.241236 0.717163 -0.184625
v 0.293207 0.593727 -0.245016
v -0.372634 0.645292 -0.000177
v -0.193580 0.587911 -0.184071
v -0.299519 0.523654 0.021006
v -0.341770 0.705017 -0.103704
v -0.077836 0.509125 -0.026522
v -0.156463 0.626967 -0.209198
v -0.094151 0.518171 -0.224843
v -0.169144 0.656075 -0.105246
v 0.059268 0.541571 0.323764
v -0.155051 0.636491 0.188036
v -0.018636 0.452881 0.234423
v -0.082697 0.703941 0.268251
v 0.319575 0.700651 -0.100284
v 0.233719 0.648576 0.065915
v 0.378828 0.602073 -0.083116
v 0.353815 0.553671 0.000784
vn 0.000000 0.009477 -0.999955
vn 0.000000 0.009477 -0.999955
vn 0.000000 0.009477 -0.999955
vn 0.000000 0.009477 -0.999955
vn 0.000000 0.000000 -1.000000
vn 0.000000 0.000000 -1.000000
vn 0.029241 0.037187 -0.998880
vn 0.029241 0.037187 -0.998880
vn -0.994397 -0.105713 0.000000
vn -0.994397 -0.105713 0.000000
vn -0.994397 -0.105713 0.000000
vn -0.994397 -0.105713 0.000000
vn 0.992246 0.124293 0.000000
vn 0.992246 0.124293 0.000000
vn 0.992246 0.124293 0.000000
vn 0.992246 0.124293 0.000000
vn 0.000000 0.196982 0.980407
vn 0.000000 0.196982 0.980407
vn 0.000000 0.196982 0.980407
vn 0.000000 0.196982 0.980407
vn -0.981750 0.190178 0.000000
vn -0.981750 0.190178 0.000000
vn -0.981750 0.190178 0.000000
vn -0.981750 0.190178 0.000000
vn 0.000000 0.009478 0.999955
vn 0.000000 0.009478 0.999955
vn 0.000000 0.000000 1.000000
vn 0.000000 0.000000 1.000000
vn 0.000000 0.000000 1.000000
vn 0.000000 0.000000 1.000000
vn 0.027481 0.035308 0.998999
vn 0.027481 0.035308 0.998999
vn -0.980407 0.196981 0.000000
vn -0.980407 0.196981 0.000000
vn -0.980407 0.196981 0.000000
vn -0.980407 0.196981 0.000000
vn 0.000000 0.196981 -0.980407
vn 0.000000 0.196981 -0.980407
vn 0.000000 0.196981 -0.980407
vn 0.000000 0.196981 -0.980407
vn 0.000000 -1.000000 0.000000
vn 0.000000 -1.000000 0.000000
vn 0.000000 -1.000000 0.000000
vn 0.000000 -1.000000 0.000000
vn 0.000000 -1.000000 0.000000
vn 0.800909 0.598787 0.000000
vn 0.800909 0.598787 0.000000
vn 0.800909 0.598787 0.000000
vn 0.800909 0.598787 0.000000
vn 0.800909 0.598787 0.000000
vn 0.664873 -0.746956 0.000000
vn 0.664873 -0.746956 0.000000
vn 0.664873 -0.746956 0.000000
vn 0.664873 -0.746956 0.000000
vn 0.984516 -0.175295 0.000000
vn 0.984516 -0.175295 0.000000
vn 0.984516 -0.175295 0.000000
vn 0.984516 -0.175295 0.000000
vn -0.638454 0.769660 0.000000
vn -0.638454 0.769660 0.000000
vn -0.638454 0.769660 0.000000
vn -0.638454 0.769660 0.000000
vn 0.830011 0.009477 0.557667
vn 0.830011 0.009477 0.557667
vn 0.830011 0.009477 0.557667
vn 0.830011 0.009477 0.557667
vn 0.836353 -0.013453 0.548026
vn 0.836353 -0.013453 0.548026
vn 0.836353 -0.013453 0.548026
vn 0.836353 -0.013453 0.548026
vn 0.554567 -0.105713 -0.825397
vn 0.554567 -0.105713 -0.825397
vn 0.554567 -0.105713 -0.825397
vn 0.554567 -0.105713 -0.825397
vn -0.553368 0.124293 0.823611
vn -0.553368 0.124293 0.823611
vn -0.553368 0.124293 0.823611
vn -0.553368 0.124293 0.823611
vn -0.813785 0.196981 -0.546765
vn -0.813785 0.196981 -0.546765
vn -0.813785 0.196981 -0.546765
vn -0.813785 0.196981 -0.546765
vn 0.527879 0.322582 -0.785675
vn 0.527879 0.322582 -0.785675
vn 0.527879 0.322582 -0.785675
vn 0.527879 0.322582 -0.785675
vn -0.830011 0.009478 -0.557667
vn -0.830011 0.009478 -0.557667
vn -0.831490 -0.007655 -0.555486
vn -0.831490 -0.007655 -0.555486
vn -0.831490 -0.007655 -0.555486
vn -0.831490 -0.007655 -0.555486
vn -0.838131 0.020149 -0.545096
vn -0.838131 0.020149 -0.545096
vn -0.844387 0.035026 -0.534587
vn -0.844387 0.035026 -0.534587
vn 0.546765 0.196981 -0.813785
vn 0.546765 0.196981 -0.813785
vn 0.546765 0.196981 -0.813785
vn 0.546765 0.196981 -0.813785
vn 0.813785 0.196982 0.546765
vn 0.813785 0.196982 0.546765
vn 0.813785 0.196982 0.546765
vn 0.813785 0.196982 0.546765
vn 0.000000 -1.000000 0.000000
vn 0.000000 -1.000000 0.000000
vn 0.000000 -1.000000 0.000000
vn 0.000000 -1.000000 0.000000
vn 0.000000 -1.000000 0.000000
vn -0.446660 0.598787 0.664793
vn -0.446660 0.598787 0.664793
vn -0.446660 0.598787 0.664793
vn -0.446660 0.598787 0.664793
vn -0.446660 0.598787 0.664793
vn 0.812811 0.037187 0.581339
vn 0.812811 0.037187 0.581339
vn 0.812811 0.037187 0.581339
vn 0.812811 0.037187 0.581339
vn 0.356061 0.769660 -0.529947
vn 0.356061 0.769660 -0.529947
vn 0.356061 0.769660 -0.529947
vn 0.356061 0.769660 -0.529947
vn -0.549057 -0.175295 0.817196
vn -0.549057 -0.175295 0.817196
vn -0.549057 -0.175295 0.817196
vn -0.549057 -0.175295 0.817196
vn -0.549057 -0.175294 0.817195
vn -0.549057 -0.175294 0.817195
vn -0.370795 -0.746956 0.551877
vn -0.370795 -0.746956 0.551877
vn -0.370795 -0.746956 0.551877
vn -0.370795 -0.746956 0.551877
vn -0.907787 0.103088 -0.406565
vn -0.907787 0.103088 -0.406565
vn -0.907787 0.103088 -0.406565
vn -0.907787 0.103088 -0.406565
vn -0.300315 0.281183 0.911453
vn -0.300315 0.281183 0.911453
vn -0.300315 0.281183 0.911453
vn -0.300315 0.281183 0.911453
vn 0.928683 -0.038412 0.368881
vn 0.928683 -0.038412 0.368881
vn 0.928683 -0.038412 0.368881
vn 0.928683 -0.038412 0.368881
vn -0.250146 0.702530 0.666243
vn -0.250146 0.702530 0.666243
vn -0.250146 0.702530 0.666243
vn -0.250146 0.702530 0.666243
vn 0.330522 -0.507281 -0.795878
vn 0.330522 -0.507281 -0.795878
vn 0.330522 -0.507281 -0.795878
vn 0.330522 -0.507281 -0.795878
vn -0.037591 0.968253 0.247128
vn -0.037591 0.968253 0.247128
vn -0.037591 0.968253 0.247128
vn -0.037591 0.968253 0.247128
vn -0.894890 0.335868 -0.293879
vn -0.894890 0.335868 -0.293879
vn -0.894890 0.335868 -0.293879
vn -0.894890 0.335868 -0.293879
vn 0.920087 0.200805 0.336330
vn 0.920087 0.200805 0.336330
vn 0.920087 0.200805 0.336330
vn 0.920087 0.200805 0.336330
vn 0.334934 0.176358 -0.925590
vn 0.334934 0.176358 -0.925590
vn 0.334934 0.176358 -0.925590
vn 0.334934 0.176358 -0.925590
vn 0.253657 -0.843915 -0.472722
vn 0.253657 -0.843915 -0.472722
vn 0.253657 -0.843915 -0.472722
vn 0.253657 -0.843915 -0.472722
vn -0.156821 0.931183 0.329098
vn -0.156821 0.931183 0.329098
vn -0.156821 0.931183 0.329098
vn -0.156821 0.931183 0.329098
vn 0.959295 0.059789 0.276004
vn 0.959295 0.059789 0.276004
vn 0.959295 0.059789 0.276004
vn 0.959295 0.059789 0.276004
vn -0.934653 -0.031898 -0.354127
vn -0.934653 -0.031898 -0.354127
vn -0.934653 -0.031898 -0.354127
vn -0.934653 -0.031898 -0.354127
vn 0.699839 0.094376 0.708039
vn 0.699839 0.094376 0.708039
vn 0.699839 0.094376 0.708039
vn 0.699839 0.094376 0.708039
vn 0.676210 0.273317 0.684133
vn 0.676210 0.273317 0.684133
vn 0.676210 0.273317 0.684133
vn 0.676210 0.273317 0.684133
vn 0.697533 -0.124197 0.705707
vn 0.697533 -0.124197 0.705707
vn 0.697533 -0.124197 0.705707
vn 0.697533 -0.124197 0.705707
vn 0.506662 -0.515501 0.691052
vn 0.506662 -0.515501 0.691052
vn 0.506662 -0.515501 0.691052
vn 0.506662 -0.515501 0.691052
vn 0.980407 0.196981 0.000000
vn 0.980407 0.196981 0.000000
vn 0.980407 0.196981 0.000000
vn 0.980407 0.196981 0.000000
vn -0.978001 0.094376 0.186032
vn -0.978001 0.094376 0.186032
vn -0.978001 0.094376 0.186032
vn -0.978001 0.094376 0.186032
vn -0.944980 0.273317 0.179751
vn -0.944980 0.273317 0.179751
vn -0.944980 0.273317 0.179751
vn -0.944980 0.273317 0.179751
vn -0.974566 -0.120352 0.189042
vn -0.974566 -0.120352 0.189042
vn -0.974566 -0.120352 0.189042
vn -0.974566 -0.120352 0.189042
vn -0.974156 -0.126468 0.187155
vn -0.974156 -0.126468 0.187155
vn -0.855999 -0.515794 0.034951
vn -0.855999 -0.515794 0.034951
vn -0.855999 -0.515794 0.034951
vn -0.855999 -0.515794 0.034951
vn -0.546765 0.196982 0.813785
vn -0.546765 0.196982 0.813785
vn -0.546765 0.196982 0.813785
vn -0.546765 0.196982 0.813785
vn 0.679530 0.504841 -0.532330
vn 0.679530 0.504841 -0.532330
vn 0.679530 0.504841 -0.532330
vn -0.380680 0.873866 -0.302393
vn -0.380680 0.873866 -0.302393
vn -0.380680 0.873866 -0.302393
vn -0.302550 0.903034 -0.304948
vn -0.302550 0.903034 -0.304948
vn -0.302550 0.903034 -0.304948
vn 0.800276 0.403843 -0.443249
vn 0.800276 0.403843 -0.443249
vn 0.800276 0.403843 -0.443249
vn -0.763914 0.490686 0.419120
vn -0.763914 0.490686 0.419120
vn -0.763914 0.490686 0.419120
vn 0.282702 0.886509 0.366308
vn 0.282702 0.886509 0.366308
vn 0.282702 0.886509 0.366308
vn -0.415224 0.555134 0.720705
vn -0.415224 0.555134 0.720705
vn -0.415224 0.555134 0.720705
vn 0.693052 0.506003 0.513458
vn 0.693052 0.506003 0.513458
vn 0.693052 0.506003 0.513458
vn 0.634808 -0.768327 -0.081809
vn 0.634808 -0.768327 -0.081809
vn 0.634808 -0.768327 -0.081809
vn -0.157693 -0.986386 -0.046638
vn -0.157693 -0.986386 -0.046638
vn -0.157693 -0.986386 -0.046638
vn -0.679530 -0.504841 0.532330
vn -0.679530 -0.504841 0.532330
vn -0.679530 -0.504841 0.532330
vn 0.323578 -0.582367 0.745752
vn 0.323578 -0.582367 0.745752
vn 0.323578 -0.582367 0.745752
vn 0.208952 -0.608487 0.765560
vn 0.208952 -0.608487 0.765560
vn 0.208952 -0.608487 0.765560
vn -0.211043 -0.419646 0.882813
vn -0.211043 -0.419646 0.882813
vn -0.211043 -0.419646 0.882813
vn -0.105600 -0.994185 -0.021114
vn -0.105600 -0.994185 -0.021114
vn -0.105600 -0.994185 -0.021114
vn 0.685528 -0.650891 0.326178
vn 0.685528 -0.650891 0.326178
vn 0.685528 -0.650891 0.326178
vn 0.940692 -0.075687 0.330711
vn 0.940692 -0.075687 0.330711
vn 0.940692 -0.075687 0.330711
vn 0.713912 0.352951 0.604777
vn 0.713912 0.352951 0.604777
vn 0.713912 0.352951 0.604777
vn 0.594770 0.223292 0.772262
vn 0.594770 0.223292 0.772262
vn 0.594770 0.223292 0.772262
vn -0.147770 0.179674 0.972564
vn -0.147770 0.179674 0.972564
vn -0.147770 0.179674 0.972564
vn -0.800277 -0.403842 0.443248
vn -0.800277 -0.403842 0.443248
vn -0.800277 -0.403842 0.443248
vn -0.341389 -0.832113 -0.437083
vn -0.341389 -0.832113 -0.437083
vn -0.341389 -0.832113 -0.437083
vn 0.724759 -0.512019 -0.461043
vn 0.724759 -0.512019 -0.461043
vn 0.724759 -0.512019 -0.461043
vn 0.919259 -0.115060 -0.376462
vn 0.919259 -0.115060 -0.376462
vn 0.919259 -0.115060 -0.376462
vn -0.903441 0.268245 0.334423
vn -0.903441 0.268245 0.334423
vn -0.903441 0.268245 0.334423
vn -0.967153 0.165781 -0.192697
vn -0.967153 0.165781 -0.192697
vn -0.967153 0.165781 -0.192697
vn 0.368522 -0.503383 -0.781535
vn 0.368522 -0.503383 -0.781535
vn 0.368522 -0.503383 -0.781535
vn 0.188282 0.981962 0.017359
vn 0.188282 0.981962 0.017359
vn 0.188282 0.981962 0.017359
vn -0.625203 0.445490 -0.640827
vn -0.625203 0.445490 -0.640827
vn -0.625203 0.445490 -0.640827
vn -0.417484 0.092096 -0.904005
vn -0.417484 0.092096 -0.904005
vn -0.417484 0.092096 -0.904005
vn 0.018915 0.119022 -0.992712
vn 0.018915 0.119022 -0.992712
vn 0.018915 0.119022 -0.992712
vn 0.261702 0.434964 -0.861579
vn 0.261702 0.434964 -0.861579
vn 0.261702 0.434964 -0.861579
vn 0.514169 0.673660 0.530860
vn 0.514169 0.673660 0.530860
vn 0.514169 0.673660 0.530860
vn -0.373101 0.635381 0.676083
vn -0.373101 0.635381 0.676083
vn -0.373101 0.635381 0.676083
vn 0.673497 0.588203 0.447682
vn 0.673497 0.588203 0.447682
vn 0.673497 0.588203 0.447682
vn 0.049919 0.939585 -0.338655
vn 0.049919 0.939585 -0.338655
vn 0.049919 0.939585 -0.338655
vn -0.864493 0.446663 -0.230532
vn -0.864493 0.446663 -0.230532
vn -0.864493 0.446663 -0.230532
vn -0.809553 -0.209172 0.548517
vn -0.809553 -0.209172 0.548517
vn -0.809553 -0.209172 0.548517
vn 0.119302 -0.126424 0.984776
vn 0.119302 -0.126424 0.984776
vn 0.119302 -0.126424 0.984776
vn 0.863742 0.501626 -0.048178
vn 0.863742 0.501626 -0.048178
vn 0.863742 0.501626 -0.048178
vn -0.030325 0.726807 -0.686172
vn -0.030325 0.726807 -0.686172
vn -0.030325 0.726807 -0.686172
vn 0.645188 -0.207173 0.735399
vn 0.645188 -0.207173 0.735399
vn 0.645188 -0.207173 0.735399
vn 0.735584 -0.657731 -0.162191
vn 0.735584 -0.657731 -0.162191
vn 0.735584 -0.657731 -0.162191
vn 0.510711 -0.846842 0.148432
vn 0.510711 -0.846842 0.148432
vn 0.510711 -0.846842 0.148432
vn -0.139678 -0.954993 -0.261686
vn -0.139678 -0.954993 -0.261686
vn -0.139678 -0.954993 -0.261686
vn -0.197370 -0.945594 -0.258646
vn -0.197370 -0.945594 -0.258646
vn -0.197370 -0.945594 -0.258646
vn -0.403135 -0.292342 -0.867190
vn -0.403135 -0.292342 -0.867190
vn -0.403135 -0.292342 -0.867190
vn 0.495243 -0.464733 -0.734001
vn 0.495243 -0.464733 -0.734001
vn 0.495243 -0.464733 -0.734001
vn 0.173072 -0.201845 -0.964004
vn 0.173072 -0.201845 -0.964004
vn 0.173072 -0.201845 -0.964004
vn 0.591154 -0.458665 -0.663448
vn 0.591154 -0.458665 -0.663448
vn 0.591154 -0.458665 -0.663448
vn 0.690232 -0.304460 0.656418
vn 0.690232 -0.304460 0.656418
vn 0.690232 -0.304460 0.656418
vn 0.481512 -0.774041 0.411104
vn 0.481512 -0.774041 0.411104
vn 0.481512 -0.774041 0.411104
vn -0.480986 -0.876728 -0.000419
vn -0.480986 -0.876728 -0.000419
vn -0.480986 -0.876728 -0.000419
vn -0.546743 -0.196086 -0.814016
vn -0.546743 -0.196086 -0.814016
vn -0.546743 -0.196086 -0.814016
vn 0.289948 0.389364 -0.874257
vn 0.289948 0.389364 -0.874257
vn 0.289948 0.389364 -0.874257
vn 0.875939 0.292339 -0.383757
vn 0.875939 0.292339 -0.383757
vn 0.875939 0.292339 -0.383757
vn 0.916290 0.368638 -0.156584
vn 0.916290 0.368638 -0.156584
vn 0.916290 0.368638 -0.156584
vn 0.988294 -0.132657 0.075344
vn 0.988294 -0.132657 0.075344
vn 0.988294 -0.132657 0.075344
vn -0.028751 -0.716708 0.696780
vn -0.028751 -0.716708 0.696780
vn -0.028751 -0.716708 0.696780
vn -0.072094 -0.621970 0.779715
vn -0.072094 -0.621970 0.779715
vn -0.072094 -0.621970 0.779715
vn -0.665708 0.360373 -0.653425
vn -0.665708 0.360373 -0.653425
vn -0.665708 0.360373 -0.653425
vn -0.054341 0.169327 0.984061
vn -0.054341 0.169327 0.984061
vn -0.054341 0.169327 0.984061
vn -0.295120 0.262429 0.918714
vn -0.295120 0.262429 0.918714
vn -0.295120 0.262429 0.918714
vn -0.800637 -0.098153 0.591056
vn -0.800637 -0.098153 0.591056
vn -0.800637 -0.098153 0.591056
vn -0.804879 0.592245 0.037624
vn -0.804879 0.592245 0.037624
vn -0.804879 0.592245 0.037624
vn -0.770991 0.633931 0.060859
vn -0.770991 0.633931 0.060859
vn -0.770991 0.633931 0.060859
vn -0.093148 0.994056 -0.056350
vn -0.093148 0.994056 -0.056350
vn -0.093148 0.994056 -0.056350
vn 0.062300 0.939030 0.338144
vn 0.062300 0.939030 0.338144
vn 0.062300 0.939030 0.338144
vn -0.018473 0.981979 0.188084
vn -0.018473 0.981979 0.188084
vn -0.018473 0.981979 0.188084
vn 0.726261 0.643308 -0.242279
vn 0.726261 0.643308 -0.242279
vn 0.726261 0.643308 -0.242279
vn -0.124798 0.963068 0.238592
vn -0.124798 0.963068 0.238592
vn -0.124798 0.963068 0.238592
vn 0.795048 0.504860 -0.336176
vn 0.795048 0.504860 -0.336176
vn 0.795048 0.504860 -0.336176
vn -0.147480 0.738650 -0.657758
vn -0.147480 0.738650 -0.657758
vn -0.147480 0.738650 -0.657758
vn -0.821218 0.414287 0.392386
vn -0.821218 0.414287 0.392386
vn -0.821218 0.414287 0.392386
vn -0.213883 0.143356 0.966283
vn -0.213883 0.143356 0.966283
vn -0.213883 0.143356 0.966283
vn 0.761533 0.111982 0.638380
vn 0.761533 0.111982 0.638380
vn 0.761533 0.111982 0.638380
vn 0.974705 -0.155458 0.160573
vn 0.974705 -0.155458 0.160573
vn 0.974705 -0.155458 0.160573
vn 0.139925 -0.368756 -0.918935
vn 0.139925 -0.368756 -0.918935
vn 0.139925 -0.368756 -0.918935
vn -0.633001 -0.429899 -0.643814
vn -0.633001 -0.429899 -0.643814
vn -0.633001 -0.429899 -0.643814
vn -0.734931 -0.645351 0.208322
vn -0.734931 -0.645351 0.208322
vn -0.734931 -0.645351 0.208322
vn 0.124798 -0.963068 -0.238591
vn 0.124798 -0.963068 -0.238591
vn 0.124798 -0.963068 -0.238591
vn 0.018472 -0.981979 -0.188084
vn 0.018472 -0.981979 -0.188084
vn 0.018472 -0.981979 -0.188084
vn -0.167339 -0.977836 0.125834
vn -0.167339 -0.977836 0.125834
vn -0.167339 -0.977836 0.125834
vn -0.587961 -0.460854 -0.664768
vn -0.587961 -0.460854 -0.664768
vn -0.587961 -0.460854 -0.664768
vn 0.318157 -0.668809 -0.671916
vn 0.318157 -0.668809 -0.671916
vn 0.318157 -0.668809 -0.671916
vn 0.821219 -0.414287 -0.392386
vn 0.821219 -0.414287 -0.392386
vn 0.821219 -0.414287 -0.392386
vn 0.902223 -0.428602 0.047893
vn 0.902223 -0.428602 0.047893
vn 0.902223 -0.428602 0.047893
vn 0.740633 -0.645155 0.187717
vn 0.740633 -0.645155 0.187717
vn 0.740633 -0.645155 0.187717
vn 0.117726 -0.754179 0.646030
vn 0.117726 -0.754179 0.646030
vn 0.117726 -0.754179 0.646030
vn -0.794594 -0.505329 0.336544
vn -0.794594 -0.505329 0.336544
vn -0.794594 -0.505329 0.336544
vn -0.772452 -0.066213 -0.631613
vn -0.772452 -0.066213 -0.631613
vn -0.772452 -0.066213 -0.631613
vn 0.272148 0.076778 -0.959187
vn 0.272148 0.076778 -0.959187
vn 0.272148 0.076778 -0.959187
vn 0.650252 0.180183 -0.738042
vn 0.650252 0.180183 -0.738042
vn 0.650252 0.180183 -0.738042
vn 0.422119 -0.604507 0.675564
vn 0.422119 -0.604507 0.675564
vn 0.422119 -0.604507 0.675564
vn 0.484046 -0.358929 0.798042
vn 0.484046 -0.358929 0.798042
vn 0.484046 -0.358929 0.798042
vn -0.935315 0.262143 -0.237630
vn -0.935315 0.262143 -0.237630
vn -0.935315 0.262143 -0.237630
vn -0.894046 0.418489 -0.159836
vn -0.894046 0.418489 -0.159836
vn -0.894046 0.418489 -0.159836
vn -0.760214 0.615680 -0.207395
vn -0.760214 0.615680 -0.207395
vn -0.760214 0.615680 -0.207395
vn -0.075469 0.384814 -0.919904
vn -0.075469 0.384814 -0.919904
vn -0.075469 0.384814 -0.919904
vn 0.633002 0.429899 0.643814
vn 0.633002 0.429899 0.643814
vn 0.633002 0.429899 0.643814
vn 0.587961 0.460854 0.664768
vn 0.587961 0.460854 0.664768
vn 0.587961 0.460854 0.664768
vn -0.139924 0.368755 0.918935
vn -0.139924 0.368755 0.918935
vn -0.139924 0.368755 0.918935
vn -0.318158 0.668809 0.671916
vn -0.318158 0.668809 0.671916
vn -0.318158 0.668809 0.671916
vn 0.221143 0.949868 -0.221011
vn 0.221143 0.949868 -0.221011
vn 0.221143 0.949868 -0.221011
vn -0.208952 0.608487 -0.765560
vn -0.208952 0.608487 -0.765560
vn -0.208952 0.608487 -0.765560
vn 0.668911 0.534417 -0.516678
vn 0.668911 0.534417 -0.516678
vn 0.668911 0.534417 -0.516678
vn -0.498484 0.522837 -0.691488
vn -0.498484 0.522837 -0.691488
vn -0.498484 0.522837 -0.691488
vn 0.800039 0.403585 -0.443911
vn 0.800039 0.403585 -0.443911
vn 0.800039 0.403585 -0.443911
vn 0.165330 -0.148852 -0.974941
vn 0.165330 -0.148852 -0.974941
vn 0.165330 -0.148852 -0.974941
vn -0.750437 0.506646 0.424445
vn -0.750437 0.506646 0.424445
vn -0.750437 0.506646 0.424445
vn 0.341389 0.832113 0.437083
vn 0.341389 0.832113 0.437083
vn 0.341389 0.832113 0.437083
vn 0.879391 -0.128449 -0.458446
vn 0.879391 -0.128449 -0.458446
vn 0.879391 -0.128449 -0.458446
vn -0.225634 -0.547180 -0.806029
vn -0.225634 -0.547180 -0.806029
vn -0.225634 -0.547180 -0.806029
vn -0.368521 0.503382 0.781536
vn -0.368521 0.503382 0.781536
vn -0.368521 0.503382 0.781536
vn -0.171656 -0.985140 -0.005788
vn -0.171656 -0.985140 -0.005788
vn -0.171656 -0.985140 -0.005788
vn -0.760474 -0.498973 0.415579
vn -0.760474 -0.498973 0.415579
vn -0.760474 -0.498973 0.415579
vn -0.018915 -0.119022 0.992712
vn -0.018915 -0.119022 0.992712
vn -0.018915 -0.119022 0.992712
vn 0.625203 -0.445490 0.640828
vn 0.625203 -0.445490 0.640828
vn 0.625203 -0.445490 0.640828
vn 0.417484 -0.092096 0.904005
vn 0.417484 -0.092096 0.904005
vn 0.417484 -0.092096 0.904005
vn -0.261702 -0.434964 0.861579
vn -0.261702 -0.434964 0.861579
vn -0.261702 -0.434964 0.861579
vn 0.302550 -0.903034 0.304948
vn 0.302550 -0.903034 0.304948
vn 0.302550 -0.903034 0.304948
vn 0.380679 -0.873866 0.302393
vn 0.380679 -0.873866 0.302393
vn 0.380679 -0.873866 0.302393
vn -0.721040 -0.536194 0.438859
vn -0.721040 -0.536194 0.438859
vn -0.721040 -0.536194 0.438859
vn -0.139722 -0.704427 -0.695888
vn -0.139722 -0.704427 -0.695888
vn -0.139722 -0.704427 -0.695888
vn 0.740724 -0.597140 -0.307818
vn 0.740724 -0.597140 -0.307818
vn 0.740724 -0.597140 -0.307818
vn 0.896950 -0.270262 -0.349914
vn 0.896950 -0.270262 -0.349914
vn 0.896950 -0.270262 -0.349914
vn 0.967153 -0.165781 0.192698
vn 0.967153 -0.165781 0.192698
vn 0.967153 -0.165781 0.192698
vn -0.903441 0.268245 0.334423
vn -0.903441 0.268245 0.334423
vn -0.903441 0.268245 0.334423
vn -0.967153 0.165781 -0.192698
vn -0.967153 0.165781 -0.192698
vn -0.967153 0.165781 -0.192698
vn -0.848347 -0.308021 -0.430616
vn -0.848347 -0.308021 -0.430616
vn -0.848347 -0.308021 -0.430616
vn -0.525985 -0.360732 -0.770203
vn -0.525985 -0.360732 -0.770203
vn -0.525985 -0.360732 -0.770203
vn 0.157691 0.986387 0.046637
vn 0.157691 0.986387 0.046637
vn 0.157691 0.986387 0.046637
vn 0.105601 0.994184 0.021113
vn 0.105601 0.994184 0.021113
vn 0.105601 0.994184 0.021113
vn -0.555187 0.828211 0.076384
vn -0.555187 0.828211 0.076384
vn -0.555187 0.828211 0.076384
vn -0.535826 0.477994 -0.695998
vn -0.535826 0.477994 -0.695998
vn -0.535826 0.477994 -0.695998
vn 0.112994 0.474636 -0.872900
vn 0.112994 0.474636 -0.872900
vn 0.112994 0.474636 -0.872900
vn -0.691682 -0.505574 -0.515724
vn -0.691682 -0.505574 -0.515724
vn -0.691682 -0.505574 -0.515724
vn -0.686796 -0.521936 -0.505860
vn -0.863742 -0.501627 0.048177
vn -0.863742 -0.501627 0.048177
vn -0.863742 -0.501627 0.048177
vn -0.857929 -0.512302 0.038788
vn -0.594386 -0.248372 0.764864
vn -0.594386 -0.248372 0.764864
vn -0.594386 -0.248372 0.764864
vn -0.596521 -0.262215 0.758555
vn 0.691682 0.505574 0.515724
vn 0.691682 0.505574 0.515724
vn 0.691682 0.505574 0.515724
vn 0.686796 0.521935 0.505861
g Broccoli_LightGreen
usemtl LightGreen
f 1 2 3
f 1 3 4
f 3 5 4
f 3 6 5
f 6 7 5
f 6 8 7
f 9 10 11
f 9 11 12
f 13 14 15
f 13 15 16
f 17 18 19
f 17 19 20
f 21 22 23
f 21 23 24
f 25 26 27
f 25 27 28
f 27 29 28
f 27 30 29
f 30 31 29
f 30 32 31
f 33 34 35
f 33 35 36
f 37 38 39
f 37 39 40
f 41 42 43
f 43 44 41
f 44 45 41
f 46 47 48
f 48 49 46
f 49 50 46
f 51 52 53
f 51 53 54
f 55 56 57
f 55 57 58
f 59 60 61
f 59 61 62
f 63 64 65
f 63 65 66
f 65 67 66
f 65 68 67
f 68 69 67
f 68 70 69
f 71 72 73
f 71 73 74
f 75 76 77
f 75 77 78
f 79 80 81
f 79 81 82
f 83 84 85
f 83 85 86
f 87 88 89
f 87 89 90
f 89 91 90
f 89 92 91
f 92 93 91
f 92 94 93
f 94 95 93
f 94 96 95
f 97 98 99
f 97 99 100
f 101 102 103
f 101 103 104
f 105 106 107
f 107 108 105
f 107 109 108
f 110 111 112
f 112 113 110
f 113 114 110
f 115 116 117
f 115 117 118
f 119 120 121
f 119 121 122
f 123 124 125
f 123 125 126
f 127 123 126
f 127 126 128
f 129 130 131
f 129 131 132
f 133 134 135
f 133 135 136
f 137 138 139
f 137 139 140
f 141 142 143
f 141 143 144
f 145 146 147
f 145 147 148
f 149 150 151
f 149 151 152
f 153 154 155
f 153 155 156
f 157 158 159
f 157 159 160
f 161 162 163
f 161 163 164
f 165 166 167
f 165 167 168
f 169 170 171
f 169 171 172
f 173 174 175
f 173 175 176
f 177 178 179
f 177 179 180
f 181 182 183
f 181 183 184
f 185 186 187
f 185 187 188
f 189 190 191
f 189 191 192
f 193 194 195
f 193 195 196
f 197 198 199
f 197 199 200
f 201 202 203
f 201 203 204
f 205 206 207
f 205 207 208
f 209 210 211
f 209 211 212
f 213 214 215
f 213 216 214
f 217 216 213
f 217 218 216
f 219 220 221
f 219 221 222
f 223 224 225
f 223 225 226
g Broccoli_DarkGreen
usemtl DarkGreen
f 227 228 229
f 230 231 232
f 233 234 235
f 236 237 238
f 239 240 241
f 242 243 244
f 245 246 247
f 248 249 250
f 251 252 253
f 254 255 256
f 257 258 259
f 260 261 262
f 263 264 265
f 266 267 268
f 269 270 271
f 272 273 274
f 275 276 277
f 278 279 280
f 281 282 283
f 284 285 286
f 287 288 289
f 290 291 292
f 293 294 295
f 296 297 298
f 299 300 301
f 302 303 304
f 305 306 307
f 308 309 310
f 311 312 313
f 314 315 316
f 317 318 319
f 320 321 322
f 323 324 325
f 326 327 328
f 329 330 331
f 332 333 334
f 335 336 337
f 338 339 340
f 341 342 343
f 344 345 346
f 347 348 349
f 350 351 352
f 353 354 355
f 356 357 358
f 359 360 361
f 362 363 364
f 365 366 367
f 368 369 370
f 371 372 373
f 374 375 376
f 377 378 379
f 380 381 382
f 383 384 385
f 386 387 388
f 389 390 391
f 392 393 394
f 395 396 397
f 398 399 400
f 401 402 403
f 404 405 406
f 407 408 409
f 410 411 412
f 413 414 415
f 416 417 418
f 419 420 421
f 422 423 424
f 425 426 427
f 428 429 430
f 431 432 433
f 434 435 436
f 437 438 439
f 440 441 442
f 443 444 445
f 446 447 448
f 449 450 451
f 452 453 454
f 455 456 457
f 458 459 460
f 461 462 463
f 464 465 466
f 467 468 469
f 470 471 472
f 473 474 475
f 476 477 478
f 479 480 481
f 482 483 484
f 485 486 487
f 488 489 490
f 491 492 493
f 494 495 496
f 497 498 499
f 500 501 502
f 503 504 505
f 506 507 508
f 509 510 511
f 512 513 514
f 515 516 517
f 518 519 520
f 521 522 523
f 524 525 526
f 527 528 529
f 530 531 532
f 533 534 535
f 536 537 538
f 539 540 541
f 542 543 544
f 545 546 547
f 548 549 550
f 551 552 553
f 554 555 556
f 557 558 559
f 560 561 562
f 563 564 565
f 566 567 568
f 569 570 571
f 572 573 574
f 575 576 577
f 578 579 580
f 581 582 583
f 584 585 586
f 587 588 589
f 590 591 592
f 593 594 595
f 596 597 598
f 599 600 601
f 602 603 604
f 605 606 607
f 608 609 610
f 611 612 613
f 614 615 616
f 617 618 619
f 620 621 622
f 623 624 625
f 626 627 628
f 629 630 631
f 632 633 634
f 635 636 637
f 635 638 636
f 639 640 641
f 639 642 640
f 643 644 645
f 643 646 644
f 647 648 649
f 649 648 650
