mtllib Materials.mtl
# Ultimate Food Pack - Burger_Bread
o Burger_Bread
v -0.222928 0.136543 0.692887
v -0.127310 0.239097 0.389547
v -0.536331 0.139864 0.401793
v -0.127310 0.239097 0.389547
v -0.407292 0.261413 0.015096
v -0.008109 0.339228 0.014863
v 0.578996 0.168734 -0.412560
v 0.312353 0.253325 -0.218687
v 0.686129 0.202854 0.011904
v -0.219591 0.132299 -0.646752
v -0.134446 0.301508 -0.373509
v 0.198177 0.163635 -0.614322
v -0.407292 0.261413 0.015096
v -0.008109 0.339228 0.014863
v -0.134446 0.301508 -0.373509
v -0.538202 0.147159 -0.373193
v -0.134446 0.301508 -0.373509
v -0.219591 0.132299 -0.646752
v -0.134446 0.301508 -0.373509
v -0.008109 0.339228 0.014863
v 0.312353 0.253325 -0.218687
v -0.134446 0.301508 -0.373509
v 0.312353 0.253325 -0.218687
v 0.198177 0.163635 -0.614322
v 0.198177 0.163635 -0.614322
v 0.312353 0.253325 -0.218687
v 0.578996 0.168734 -0.412560
v 0.312353 0.253325 -0.218687
v -0.008109 0.339228 0.014863
v 0.313473 0.248959 0.245208
v 0.312353 0.253325 -0.218687
v 0.313473 0.248959 0.245208
v 0.686129 0.202854 0.011904
v 0.313473 0.248959 0.245208
v -0.008109 0.339228 0.014863
v -0.127310 0.239097 0.389547
v 0.313473 0.248959 0.245208
v -0.127310 0.239097 0.389547
v 0.206703 0.173248 0.657874
v 0.206703 0.173248 0.657874
v -0.127310 0.239097 0.389547
v -0.222928 0.136543 0.692887
v -0.536331 0.139864 0.401793
v -0.407292 0.261413 0.015096
v -0.715582 0.131461 0.014616
v -0.710307 0.017146 -0.216398
v -0.715582 0.131461 0.014616
v -0.538202 0.147159 -0.373193
v -0.710307 0.017146 -0.216398
v -0.538202 0.147159 -0.373193
v -0.440970 0.025863 -0.589003
v -0.440970 0.025863 -0.589003
v -0.538202 0.147159 -0.373193
v -0.219591 0.132299 -0.646752
v -0.003792 0.059553 -0.812488
v -0.219591 0.132299 -0.646752
v 0.198177 0.163635 -0.614322
v 0.714043 0.047485 -0.222500
v 0.578996 0.168734 -0.412560
v 0.686129 0.202854 0.011904
v 0.714043 0.047485 -0.222500
v 0.686129 0.202854 0.011904
v 0.705773 0.040125 0.240252
v 0.705773 0.040125 0.240252
v 0.686129 0.202854 0.011904
v 0.558161 0.136441 0.419059
v 0.454090 0.040299 0.637960
v 0.558161 0.136441 0.419059
v 0.206703 0.173248 0.657874
v 0.454090 0.040299 0.637960
v 0.206703 0.173248 0.657874
v -0.000388 0.024434 0.766037
v -0.000388 0.024434 0.766037
v 0.206703 0.173248 0.657874
v -0.222928 0.136543 0.692887
v -0.477545 0.032221 0.667819
v -0.222928 0.136543 0.692887
v -0.536331 0.139864 0.401793
v -0.477545 0.032221 0.667819
v -0.536331 0.139864 0.401793
v -0.720460 0.015982 0.247251
v -0.720460 0.015982 0.247251
v -0.536331 0.139864 0.401793
v -0.715582 0.131461 0.014616
v -0.440970 0.025863 -0.589003
v -0.219591 0.132299 -0.646752
v -0.003792 0.059553 -0.812488
v 0.705773 0.040125 0.240252
v 0.558161 0.136441 0.419059
v 0.454090 0.040299 0.637960
v -0.000388 0.024434 0.766037
v -0.222928 0.136543 0.692887
v -0.477545 0.032221 0.667819
v -0.720460 0.015982 0.247251
v -0.715582 0.131461 0.014616
v -0.710307 0.017146 -0.216398
v 0.558161 0.136441 0.419059
v 0.313473 0.248959 0.245208
v 0.206703 0.173248 0.657874
v 0.686129 0.202854 0.011904
v -0.715582 0.131461 0.014616
v -0.407292 0.261413 0.015096
v -0.538202 0.147159 -0.373193
v -0.134446 0.301508 -0.373509
v -0.003792 0.059553 -0.812488
v 0.198177 0.163635 -0.614322
v 0.433529 0.042739 -0.590955
v 0.578996 0.168734 -0.412560
v 0.433529 0.042739 -0.590955
v 0.578996 0.168734 -0.412560
v 0.714043 0.047485 -0.222500
v 0.434382 -0.001504 -0.591374
v 0.706164 -0.000341 -0.220190
v -0.003792 0.059553 -0.812488
v -0.002905 -0.027066 -0.754865
v -0.440117 -0.018381 -0.589422
v -0.440970 0.025863 -0.589003
v -0.440970 0.025863 -0.589003
v -0.440117 -0.018381 -0.589422
v -0.709454 -0.027098 -0.216817
v -0.710307 0.017146 -0.216398
v 0.433529 0.042739 -0.590955
v 0.434382 -0.001504 -0.591374
v -0.002905 -0.027066 -0.754865
v -0.003792 0.059553 -0.812488
v 0.454090 0.040299 0.637960
v 0.475363 -0.065454 0.662699
v 0.739121 -0.031836 0.249869
v 0.705773 0.040125 0.240252
v -0.477545 0.032221 0.667819
v -0.437210 -0.029712 0.614391
v 0.000385 -0.022748 0.755666
v -0.000388 0.024434 0.766037
v 0.705773 0.040125 0.240252
v 0.739121 -0.031836 0.249869
v 0.706164 -0.000341 -0.220190
v 0.714043 0.047485 -0.222500
v -0.000388 0.024434 0.766037
v 0.000385 -0.022748 0.755666
v 0.475363 -0.065454 0.662699
v 0.454090 0.040299 0.637960
v -0.710307 0.017146 -0.216398
v -0.709454 -0.027098 -0.216817
v -0.738307 -0.059088 0.252719
v -0.720460 0.015982 0.247251
v -0.720460 0.015982 0.247251
v -0.738307 -0.059088 0.252719
v -0.437210 -0.029712 0.614391
v -0.477545 0.032221 0.667819
v -0.437210 -0.029712 0.614391
v -0.738307 -0.059088 0.252719
v -0.709454 -0.027098 -0.216817
v -0.440117 -0.018381 -0.589422
v -0.002905 -0.027066 -0.754865
v 0.000385 -0.022748 0.755666
v 0.434382 -0.001504 -0.591374
v 0.475363 -0.065454 0.662699
v 0.706164 -0.000341 -0.220190
v 0.739121 -0.031836 0.249869
v -0.207619 0.270543 -0.198260
v -0.186806 0.274512 -0.180393
v -0.188664 0.301505 -0.196270
v -0.199721 0.299396 -0.205762
v -0.186806 0.274512 -0.180393
v -0.144937 0.285621 -0.231634
v -0.166419 0.307407 -0.223494
v -0.188664 0.301505 -0.196270
v -0.144937 0.285621 -0.231634
v -0.165749 0.281651 -0.249500
v -0.177476 0.305298 -0.232986
v -0.166419 0.307407 -0.223494
v -0.165749 0.281651 -0.249500
v -0.207619 0.270543 -0.198260
v -0.199721 0.299396 -0.205762
v -0.177476 0.305298 -0.232986
v -0.166419 0.307407 -0.223494
v -0.177476 0.305298 -0.232986
v -0.199721 0.299396 -0.205762
v -0.188664 0.301505 -0.196270
v -0.305927 0.234747 -0.296393
v -0.301029 0.237641 -0.269269
v -0.296404 0.266326 -0.281097
v -0.299006 0.264788 -0.295508
v -0.301029 0.237641 -0.269269
v -0.238567 0.258122 -0.282732
v -0.263219 0.277207 -0.288250
v -0.296404 0.266326 -0.281097
v -0.238567 0.258122 -0.282732
v -0.243465 0.255228 -0.309856
v -0.265821 0.275670 -0.302661
v -0.263219 0.277207 -0.288250
v -0.243465 0.255228 -0.309856
v -0.305927 0.234747 -0.296393
v -0.299006 0.264788 -0.295508
v -0.265821 0.275670 -0.302661
v -0.263219 0.277207 -0.288250
v -0.265821 0.275670 -0.302661
v -0.299006 0.264788 -0.295508
v -0.296404 0.266326 -0.281097
v 0.138205 0.203787 -0.434159
v 0.161675 0.205094 -0.419477
v 0.166294 0.224988 -0.443289
v 0.153825 0.224294 -0.451089
v 0.161675 0.205094 -0.419477
v 0.196402 0.184805 -0.473186
v 0.184744 0.214209 -0.471823
v 0.166294 0.224988 -0.443289
v 0.196402 0.184805 -0.473186
v 0.172932 0.183498 -0.487867
v 0.172275 0.213515 -0.479623
v 0.184744 0.214209 -0.471823
v 0.172932 0.183498 -0.487867
v 0.138205 0.203787 -0.434159
v 0.153825 0.224294 -0.451089
v 0.172275 0.213515 -0.479623
v 0.184744 0.214209 -0.471823
v 0.172275 0.213515 -0.479623
v 0.153825 0.224294 -0.451089
v 0.166294 0.224988 -0.443289
v 0.422813 0.210275 -0.021876
v 0.396585 0.217416 -0.027279
v 0.407952 0.241537 -0.010754
v 0.421887 0.237743 -0.007884
v 0.396585 0.217416 -0.027279
v 0.384053 0.221172 0.038531
v 0.401294 0.243533 0.024210
v 0.407952 0.241537 -0.010754
v 0.384053 0.221172 0.038531
v 0.410281 0.214031 0.043934
v 0.415229 0.239739 0.027080
v 0.401294 0.243533 0.024210
v 0.410281 0.214031 0.043934
v 0.422813 0.210275 -0.021876
v 0.421887 0.237743 -0.007884
v 0.415229 0.239739 0.027080
v 0.401294 0.243533 0.024210
v 0.415229 0.239739 0.027080
v 0.421887 0.237743 -0.007884
v 0.407952 0.241537 -0.010754
v 0.222561 0.221548 0.352934
v 0.207444 0.225342 0.330861
v 0.201710 0.237163 0.351919
v 0.209742 0.235148 0.363646
v 0.207444 0.225342 0.330861
v 0.151686 0.223771 0.368066
v 0.172087 0.236329 0.371685
v 0.201710 0.237163 0.351919
v 0.151686 0.223771 0.368066
v 0.166803 0.219977 0.390139
v 0.180119 0.234313 0.383413
v 0.172087 0.236329 0.371685
v 0.166803 0.219977 0.390139
v 0.222561 0.221548 0.352934
v 0.209742 0.235148 0.363646
v 0.180119 0.234313 0.383413
v 0.172087 0.236329 0.371685
v 0.180119 0.234313 0.383413
v 0.209742 0.235148 0.363646
v 0.201710 0.237163 0.351919
v -0.345505 0.196137 0.252225
v -0.321679 0.207590 0.243906
v -0.343147 0.229944 0.239057
v -0.355806 0.223859 0.243477
v -0.321679 0.207590 0.243906
v -0.347214 0.216063 0.182438
v -0.356714 0.234446 0.206401
v -0.343147 0.229944 0.239057
v -0.347214 0.216063 0.182438
v -0.371041 0.204610 0.190758
v -0.369373 0.228361 0.210821
v -0.356714 0.234446 0.206401
v -0.371041 0.204610 0.190758
v -0.345505 0.196137 0.252225
v -0.355806 0.223859 0.243477
v -0.369373 0.228361 0.210821
v -0.356714 0.234446 0.206401
v -0.369373 0.228361 0.210821
v -0.355806 0.223859 0.243477
v -0.343147 0.229944 0.239057
v 0.204003 0.262590 -0.135751
v 0.198524 0.265127 -0.108701
v 0.221088 0.286250 -0.114068
v 0.223999 0.284903 -0.128438
v 0.198524 0.265127 -0.108701
v 0.262238 0.249742 -0.094352
v 0.254938 0.278077 -0.106444
v 0.221088 0.286250 -0.114068
v 0.262238 0.249742 -0.094352
v 0.267717 0.247204 -0.121401
v 0.257849 0.276729 -0.120815
v 0.254938 0.278077 -0.106444
v 0.267717 0.247204 -0.121401
v 0.204003 0.262590 -0.135751
v 0.223999 0.284903 -0.128438
v 0.257849 0.276729 -0.120815
v 0.254938 0.278077 -0.106444
v 0.257849 0.276729 -0.120815
v 0.223999 0.284903 -0.128438
v 0.221088 0.286250 -0.114068
v 0.252517 0.257602 0.110554
v 0.225351 0.262163 0.113025
v 0.238460 0.276674 0.132531
v 0.252893 0.274251 0.131218
v 0.225351 0.262163 0.113025
v 0.229093 0.253208 0.178528
v 0.240448 0.271917 0.167331
v 0.238460 0.276674 0.132531
v 0.229093 0.253208 0.178528
v 0.256258 0.248647 0.176057
v 0.254881 0.269494 0.166019
v 0.240448 0.271917 0.167331
v 0.256258 0.248647 0.176057
v 0.252517 0.257602 0.110554
v 0.252893 0.274251 0.131218
v 0.254881 0.269494 0.166019
v 0.240448 0.271917 0.167331
v 0.254881 0.269494 0.166019
v 0.252893 0.274251 0.131218
v 0.238460 0.276674 0.132531
v -0.131761 0.240522 0.283087
v -0.125818 0.250921 0.258094
v -0.144757 0.272287 0.271090
v -0.147915 0.266762 0.284369
v -0.125818 0.250921 0.258094
v -0.191100 0.250958 0.242587
v -0.179440 0.272307 0.262852
v -0.144757 0.272287 0.271090
v -0.191100 0.250958 0.242587
v -0.197042 0.240559 0.267580
v -0.182597 0.266782 0.276130
v -0.179440 0.272307 0.262852
v -0.197042 0.240559 0.267580
v -0.131761 0.240522 0.283087
v -0.147915 0.266762 0.284369
v -0.182597 0.266782 0.276130
v -0.179440 0.272307 0.262852
v -0.182597 0.266782 0.276130
v -0.147915 0.266762 0.284369
v -0.144757 0.272287 0.271090
v -0.280752 0.141064 0.530517
v -0.274482 0.151735 0.505720
v -0.293368 0.173090 0.518812
v -0.296699 0.167421 0.531987
v -0.274482 0.151735 0.505720
v -0.339609 0.152522 0.489593
v -0.327968 0.173509 0.510244
v -0.293368 0.173090 0.518812
v -0.339609 0.152522 0.489593
v -0.345878 0.141851 0.514391
v -0.331299 0.167839 0.523418
v -0.327968 0.173509 0.510244
v -0.345878 0.141851 0.514391
v -0.280752 0.141064 0.530517
v -0.296699 0.167421 0.531987
v -0.331299 0.167839 0.523418
v -0.327968 0.173509 0.510244
v -0.331299 0.167839 0.523418
v -0.296699 0.167421 0.531987
v -0.293368 0.173090 0.518812
v -0.519058 0.154763 0.203934
v -0.501981 0.169701 0.188018
v -0.527798 0.187361 0.190412
v -0.536871 0.179425 0.198869
v -0.501981 0.169701 0.188018
v -0.547303 0.168800 0.138548
v -0.551876 0.186883 0.164130
v -0.527798 0.187361 0.190412
v -0.547303 0.168800 0.138548
v -0.564380 0.153862 0.154464
v -0.560949 0.178946 0.172586
v -0.551876 0.186883 0.164130
v -0.564380 0.153862 0.154464
v -0.519058 0.154763 0.203934
v -0.536871 0.179425 0.198869
v -0.560949 0.178946 0.172586
v -0.551876 0.186883 0.164130
v -0.560949 0.178946 0.172586
v -0.536871 0.179425 0.198869
v -0.527798 0.187361 0.190412
v -0.522142 0.169845 -0.155696
v -0.496264 0.179023 -0.159462
v -0.513812 0.197578 -0.177682
v -0.527560 0.192702 -0.175680
v -0.496264 0.179023 -0.159462
v -0.501130 0.165818 -0.225068
v -0.516397 0.190562 -0.212536
v -0.513812 0.197578 -0.177682
v -0.501130 0.165818 -0.225068
v -0.527008 0.156640 -0.221301
v -0.530145 0.185686 -0.210536
v -0.516397 0.190562 -0.212536
v -0.527008 0.156640 -0.221301
v -0.522142 0.169845 -0.155696
v -0.527560 0.192702 -0.175680
v -0.530145 0.185686 -0.210536
v -0.516397 0.190562 -0.212536
v -0.530145 0.185686 -0.210536
v -0.527560 0.192702 -0.175680
v -0.513812 0.197578 -0.177682
v -0.045429 0.164255 -0.598124
v -0.031580 0.169404 -0.574719
v -0.018263 0.184488 -0.595802
v -0.025621 0.181752 -0.608236
v -0.031580 0.169404 -0.574719
v 0.025610 0.152642 -0.604368
v 0.012121 0.175582 -0.611554
v -0.018263 0.184488 -0.595802
v 0.025610 0.152642 -0.604368
v 0.011759 0.147492 -0.627774
v 0.004762 0.172847 -0.623989
v 0.012121 0.175582 -0.611554
v 0.011759 0.147492 -0.627774
v -0.045429 0.164255 -0.598124
v -0.025621 0.181752 -0.608236
v 0.004762 0.172847 -0.623989
v 0.012121 0.175582 -0.611554
v 0.004762 0.172847 -0.623989
v -0.025621 0.181752 -0.608236
v -0.018263 0.184488 -0.595802
v 0.495566 0.171721 -0.260311
v 0.480581 0.173666 -0.237078
v 0.503704 0.194504 -0.233171
v 0.511665 0.193470 -0.245514
v 0.480581 0.173666 -0.237078
v 0.534495 0.156758 -0.200889
v 0.532347 0.185521 -0.213944
v 0.503704 0.194504 -0.233171
v 0.534495 0.156758 -0.200889
v 0.549480 0.154812 -0.224122
v 0.540308 0.184487 -0.226287
v 0.532347 0.185521 -0.213944
v 0.549480 0.154812 -0.224122
v 0.495566 0.171721 -0.260311
v 0.511665 0.193470 -0.245514
v 0.540308 0.184487 -0.226287
v 0.532347 0.185521 -0.213944
v 0.540308 0.184487 -0.226287
v 0.511665 0.193470 -0.245514
v 0.503704 0.194504 -0.233171
v 0.600565 0.121632 0.306358
v 0.582416 0.142570 0.306893
v 0.601270 0.148012 0.331368
v 0.610912 0.136887 0.331084
v 0.582416 0.142570 0.306893
v 0.562887 0.124072 0.368364
v 0.590895 0.138184 0.364027
v 0.601270 0.148012 0.331368
v 0.562887 0.124072 0.368364
v 0.581037 0.103135 0.367829
v 0.600537 0.127060 0.363743
v 0.590895 0.138184 0.364027
v 0.581037 0.103135 0.367829
v 0.600565 0.121632 0.306358
v 0.610912 0.136887 0.331084
v 0.600537 0.127060 0.363743
v 0.590895 0.138184 0.364027
v 0.600537 0.127060 0.363743
v 0.610912 0.136887 0.331084
v 0.601270 0.148012 0.331368
vn -0.221296 0.942879 0.249014
vn -0.221296 0.942879 0.249014
vn -0.221296 0.942879 0.249014
vn -0.187455 0.962212 0.197508
vn -0.187455 0.962212 0.197508
vn -0.187455 0.962212 0.197508
vn 0.211774 0.968459 -0.131299
vn 0.211774 0.968459 -0.131299
vn 0.211774 0.968459 -0.131299
vn -0.023553 0.853216 -0.521026
vn -0.023553 0.853216 -0.521026
vn -0.023553 0.853216 -0.521026
vn -0.191249 0.980985 -0.033064
vn -0.191249 0.980985 -0.033064
vn -0.191249 0.980985 -0.033064
vn -0.323830 0.846225 -0.423127
vn -0.323830 0.846225 -0.423127
vn -0.323830 0.846225 -0.423127
vn 0.155803 0.977003 -0.145572
vn 0.155803 0.977003 -0.145572
vn 0.155803 0.977003 -0.145572
vn 0.195265 0.942827 -0.270089
vn 0.195265 0.942827 -0.270089
vn 0.195265 0.942827 -0.270089
vn 0.120942 0.960000 -0.252534
vn 0.120942 0.960000 -0.252534
vn 0.120942 0.960000 -0.252534
vn 0.264642 0.964310 0.008438
vn 0.264642 0.964310 0.008438
vn 0.264642 0.964310 0.008438
vn 0.128342 0.991689 0.009024
vn 0.128342 0.991689 0.009024
vn 0.128342 0.991689 0.009024
vn 0.069658 0.958000 0.278180
vn 0.069658 0.958000 0.278180
vn 0.069658 0.958000 0.278180
vn 0.040406 0.980873 0.190412
vn 0.040406 0.980873 0.190412
vn 0.040406 0.980873 0.190412
vn -0.056502 0.951081 0.303732
vn -0.056502 0.951081 0.303732
vn -0.056502 0.951081 0.303732
vn -0.383761 0.909828 0.157924
vn -0.383761 0.909828 0.157924
vn -0.383761 0.909828 0.157924
vn -0.737368 0.598579 -0.313037
vn -0.737368 0.598579 -0.313037
vn -0.737368 0.598579 -0.313037
vn -0.761774 0.354324 -0.542360
vn -0.761774 0.354324 -0.542360
vn -0.761774 0.354324 -0.542360
vn -0.470430 0.661680 -0.583845
vn -0.470430 0.661680 -0.583845
vn -0.470430 0.661680 -0.583845
vn -0.033403 0.898434 -0.437837
vn -0.033403 0.898434 -0.437837
vn -0.033403 0.898434 -0.437837
vn 0.816770 0.520933 -0.248023
vn 0.816770 0.520933 -0.248023
vn 0.816770 0.520933 -0.248023
vn 0.988865 0.147462 0.020018
vn 0.988865 0.147462 0.020018
vn 0.988865 0.147462 0.020018
vn 0.762868 0.555749 0.330418
vn 0.762868 0.555749 0.330418
vn 0.762868 0.555749 0.330418
vn 0.434766 0.730008 0.527321
vn 0.434766 0.730008 0.527321
vn 0.434766 0.730008 0.527321
vn 0.246421 0.321586 0.914253
vn 0.246421 0.321586 0.914253
vn 0.246421 0.321586 0.914253
vn 0.018068 0.571268 0.820565
vn 0.018068 0.571268 0.820565
vn 0.018068 0.571268 0.820565
vn -0.379369 0.825513 0.417861
vn -0.379369 0.825513 0.417861
vn -0.379369 0.825513 0.417861
vn -0.716855 0.576741 0.391776
vn -0.716855 0.576741 0.391776
vn -0.716855 0.576741 0.391776
vn -0.695308 0.649460 0.307812
vn -0.695308 0.649460 0.307812
vn -0.695308 0.649460 0.307812
vn -0.429106 0.476000 -0.767654
vn -0.429106 0.476000 -0.767654
vn -0.429106 0.476000 -0.767654
vn 0.808856 0.289601 0.511745
vn 0.808856 0.289601 0.511745
vn 0.808856 0.289601 0.511745
vn -0.191970 0.239861 0.951638
vn -0.191970 0.239861 0.951638
vn -0.191970 0.239861 0.951638
vn -0.999759 -0.001882 -0.021897
vn -0.999759 -0.001882 -0.021897
vn -0.999759 -0.001882 -0.021897
vn 0.260364 0.935464 0.238991
vn 0.260364 0.935464 0.238991
vn 0.260364 0.935464 0.238991
vn 0.263069 0.935644 0.235299
vn -0.384477 0.912622 -0.138916
vn -0.384477 0.912622 -0.138916
vn -0.384477 0.912622 -0.138916
vn -0.353003 0.923092 -0.152608
vn 0.379081 0.602170 -0.702630
vn 0.379081 0.602170 -0.702630
vn 0.379081 0.602170 -0.702630
vn 0.372871 0.586991 -0.718616
vn 0.794510 -0.061986 -0.604079
vn 0.794510 -0.061986 -0.604079
vn 0.794510 -0.061986 -0.604079
vn 0.799392 -0.073250 -0.596328
vn 0.799392 -0.073250 -0.596328
vn -0.367475 -0.376606 -0.850371
vn -0.367475 -0.376606 -0.850371
vn -0.367475 -0.376606 -0.850371
vn -0.367475 -0.376606 -0.850371
vn -0.810285 -0.010075 -0.585950
vn -0.810285 -0.010075 -0.585950
vn -0.810285 -0.010075 -0.585950
vn -0.810285 -0.010075 -0.585950
vn 0.377927 -0.366605 -0.850160
vn 0.377927 -0.366605 -0.850160
vn 0.377927 -0.366605 -0.850160
vn 0.377927 -0.366605 -0.850160
vn 0.786737 0.341252 0.514386
vn 0.786737 0.341252 0.514386
vn 0.786737 0.341252 0.514386
vn 0.786737 0.341252 0.514386
vn -0.211738 -0.551519 0.806842
vn -0.211738 -0.551519 0.806842
vn -0.211738 -0.551519 0.806842
vn -0.211738 -0.551519 0.806842
vn 0.978337 0.206295 -0.017298
vn 0.978337 0.206295 -0.017298
vn 0.978337 0.206295 -0.017298
vn 0.978337 0.206295 -0.017298
vn 0.232970 0.124211 0.964519
vn 0.232970 0.124211 0.964519
vn 0.232970 0.124211 0.964519
vn 0.232970 0.124211 0.964519
vn -0.989565 0.139410 -0.036410
vn -0.989565 0.139410 -0.036410
vn -0.989565 0.139410 -0.036410
vn -0.989565 0.139410 -0.036410
vn -0.768978 -0.319955 0.553446
vn -0.768978 -0.319955 0.553446
vn -0.768978 -0.319955 0.553446
vn -0.768978 -0.319955 0.553446
vn 0.010512 -0.999740 -0.020244
vn 0.010512 -0.999740 -0.020244
vn 0.010512 -0.999740 -0.020244
vn 0.010512 -0.999740 -0.020244
vn 0.010512 -0.999740 -0.020244
vn 0.010512 -0.999740 -0.020244
vn 0.010512 -0.999740 -0.020244
vn 0.010512 -0.999740 -0.020244
vn 0.010512 -0.999740 -0.020244
vn 0.010512 -0.999740 -0.020244
vn -0.647303 0.352872 0.675633
vn -0.647303 0.352872 0.675633
vn -0.647303 0.352872 0.675633
vn -0.647303 0.352872 0.675633
vn 0.658524 0.414697 0.627991
vn 0.658524 0.414697 0.627991
vn 0.658524 0.414697 0.627991
vn 0.658524 0.414697 0.627991
vn 0.419587 0.650345 -0.633244
vn 0.419587 0.650345 -0.633244
vn 0.419587 0.650345 -0.633244
vn 0.419587 0.650345 -0.633244
vn -0.778711 0.050546 -0.625343
vn -0.778711 0.050546 -0.625343
vn -0.778711 0.050546 -0.625343
vn -0.778711 0.050546 -0.625343
vn -0.216099 0.975746 0.034952
vn -0.216099 0.975746 0.034952
vn -0.216099 0.975746 0.034952
vn -0.216099 0.975746 0.034952
vn -0.964280 0.217712 0.150884
vn -0.964280 0.217712 0.150884
vn -0.964280 0.217712 0.150884
vn -0.964280 0.217712 0.150884
vn 0.078541 0.369188 0.926030
vn 0.078541 0.369188 0.926030
vn 0.078541 0.369188 0.926030
vn 0.078541 0.369188 0.926030
vn 0.627323 0.754273 -0.193747
vn 0.627323 0.754273 -0.193747
vn 0.627323 0.754273 -0.193747
vn 0.627323 0.754273 -0.193747
vn -0.235866 0.082864 -0.968246
vn -0.235866 0.082864 -0.968246
vn -0.235866 0.082864 -0.968246
vn -0.235866 0.082864 -0.968246
vn -0.319691 0.946534 -0.043257
vn -0.319691 0.946534 -0.043257
vn -0.319691 0.946534 -0.043257
vn -0.319691 0.946534 -0.043257
vn -0.383678 0.743943 0.547120
vn -0.383678 0.743943 0.547120
vn -0.383678 0.743943 0.547120
vn -0.383678 0.743943 0.547120
vn 0.846715 0.315846 0.428153
vn 0.846715 0.315846 0.428153
vn 0.846715 0.315846 0.428153
vn 0.846715 0.315846 0.428153
vn 0.505403 0.238788 -0.829185
vn 0.505403 0.238788 -0.829185
vn 0.505403 0.238788 -0.829185
vn 0.505403 0.238788 -0.829185
vn -0.806498 0.140105 -0.574396
vn -0.806498 0.140105 -0.574396
vn -0.806498 0.140105 -0.574396
vn -0.806498 0.140105 -0.574396
vn 0.122434 0.952021 -0.280475
vn 0.122434 0.952021 -0.280475
vn 0.122434 0.952021 -0.280475
vn 0.122434 0.952021 -0.280475
vn 0.294779 0.441600 -0.847405
vn 0.294779 0.441600 -0.847405
vn 0.294779 0.441600 -0.847405
vn 0.294779 0.441600 -0.847405
vn -0.832383 0.521244 -0.188266
vn -0.832383 0.521244 -0.188266
vn -0.832383 0.521244 -0.188266
vn -0.832383 0.521244 -0.188266
vn -0.021774 0.551072 0.834173
vn -0.021774 0.551072 0.834173
vn -0.021774 0.551072 0.834173
vn -0.021774 0.551072 0.834173
vn 0.979666 -0.063849 0.190206
vn 0.979666 -0.063849 0.190206
vn 0.979666 -0.063849 0.190206
vn 0.979666 -0.063849 0.190206
vn 0.263621 0.964614 -0.004858
vn 0.263621 0.964614 -0.004858
vn 0.263621 0.964614 -0.004858
vn 0.263621 0.964614 -0.004858
vn 0.585605 0.764424 -0.269673
vn 0.585605 0.764424 -0.269673
vn 0.585605 0.764424 -0.269673
vn 0.585605 0.764424 -0.269673
vn -0.374643 0.761228 -0.529315
vn -0.374643 0.761228 -0.529315
vn -0.374643 0.761228 -0.529315
vn -0.374643 0.761228 -0.529315
vn -0.520353 0.707632 0.478007
vn -0.520353 0.707632 0.478007
vn -0.520353 0.707632 0.478007
vn -0.520353 0.707632 0.478007
vn 0.553007 -0.127291 0.823396
vn 0.553007 -0.127291 0.823396
vn 0.553007 -0.127291 0.823396
vn 0.553007 -0.127291 0.823396
vn 0.058772 0.989786 0.129881
vn 0.058772 0.989786 0.129881
vn 0.058772 0.989786 0.129881
vn 0.058772 0.989786 0.129881
vn 0.154838 0.349167 0.924179
vn 0.154838 0.349167 0.924179
vn 0.154838 0.349167 0.924179
vn 0.154838 0.349167 0.924179
vn 0.727408 0.652561 -0.212231
vn 0.727408 0.652561 -0.212231
vn 0.727408 0.652561 -0.212231
vn 0.727408 0.652561 -0.212231
vn -0.502409 0.578274 -0.642795
vn -0.502409 0.578274 -0.642795
vn -0.502409 0.578274 -0.642795
vn -0.502409 0.578274 -0.642795
vn -0.909770 -0.228729 0.346414
vn -0.909770 -0.228729 0.346414
vn -0.909770 -0.228729 0.346414
vn -0.909770 -0.228729 0.346414
vn -0.340667 0.901820 0.265833
vn -0.340667 0.901820 0.265833
vn -0.340667 0.901820 0.265833
vn -0.340667 0.901820 0.265833
vn -0.694446 0.689620 -0.205350
vn -0.694446 0.689620 -0.205350
vn -0.694446 0.689620 -0.205350
vn -0.694446 0.689620 -0.205350
vn -0.120362 0.363260 0.923881
vn -0.120362 0.363260 0.923881
vn -0.120362 0.363260 0.923881
vn -0.120362 0.363260 0.923881
vn 0.937050 0.310010 0.160723
vn 0.937050 0.310010 0.160723
vn 0.937050 0.310010 0.160723
vn 0.937050 0.310010 0.160723
vn 0.241509 0.099901 -0.965243
vn 0.241509 0.099901 -0.965243
vn 0.241509 0.099901 -0.965243
vn 0.241509 0.099901 -0.965243
vn 0.243363 0.969043 -0.041604
vn 0.243363 0.969043 -0.041604
vn 0.243363 0.969043 -0.041604
vn 0.243363 0.969043 -0.041604
vn 0.073289 0.775954 -0.626518
vn 0.073289 0.775954 -0.626518
vn 0.073289 0.775954 -0.626518
vn 0.073289 0.775954 -0.626518
vn -0.813556 0.568083 0.124132
vn -0.813556 0.568083 0.124132
vn -0.813556 0.568083 0.124132
vn -0.813556 0.568083 0.124132
vn 0.153946 0.436931 0.886224
vn 0.153946 0.436931 0.886224
vn 0.153946 0.436931 0.886224
vn 0.153946 0.436931 0.886224
vn 0.997829 0.041227 -0.051361
vn 0.997829 0.041227 -0.051361
vn 0.997829 0.041227 -0.051361
vn 0.997829 0.041227 -0.051361
vn 0.175216 0.976752 0.123515
vn 0.175216 0.976752 0.123515
vn 0.175216 0.976752 0.123515
vn 0.175216 0.976752 0.123515
vn 0.794365 0.470232 0.384534
vn 0.794365 0.470232 0.384534
vn 0.794365 0.470232 0.384534
vn 0.794365 0.470232 0.384534
vn 0.181073 0.623245 -0.760775
vn 0.181073 0.623245 -0.760775
vn 0.181073 0.623245 -0.760775
vn 0.181073 0.623245 -0.760775
vn -0.874970 0.484132 -0.006610
vn -0.874970 0.484132 -0.006610
vn -0.874970 0.484132 -0.006610
vn -0.874970 0.484132 -0.006610
vn -0.227163 -0.186534 0.955825
vn -0.227163 -0.186534 0.955825
vn -0.227163 -0.186534 0.955825
vn -0.227163 -0.186534 0.955825
vn -0.086221 0.926935 0.365181
vn -0.086221 0.926935 0.365181
vn -0.086221 0.926935 0.365181
vn -0.086221 0.926935 0.365181
vn 0.794496 0.458515 0.398171
vn 0.794496 0.458515 0.398171
vn 0.794496 0.458515 0.398171
vn 0.794496 0.458515 0.398171
vn 0.193554 0.631481 -0.750845
vn 0.193554 0.631481 -0.750845
vn 0.193554 0.631481 -0.750845
vn 0.193554 0.631481 -0.750845
vn -0.870823 0.491520 -0.008651
vn -0.870823 0.491520 -0.008651
vn -0.870823 0.491520 -0.008651
vn -0.870823 0.491520 -0.008651
vn -0.237900 -0.196938 0.951115
vn -0.237900 -0.196938 0.951115
vn -0.237900 -0.196938 0.951115
vn -0.237900 -0.196938 0.951115
vn -0.082043 0.922834 0.376360
vn -0.082043 0.922834 0.376360
vn -0.082043 0.922834 0.376360
vn -0.082043 0.922834 0.376360
vn 0.376161 0.439253 0.815818
vn 0.376161 0.439253 0.815818
vn 0.376161 0.439253 0.815818
vn 0.376161 0.439253 0.815818
vn 0.475585 0.756167 -0.449478
vn 0.475585 0.756167 -0.449478
vn 0.475585 0.756167 -0.449478
vn 0.475585 0.756167 -0.449478
vn -0.787581 0.427990 -0.443330
vn -0.787581 0.427990 -0.443330
vn -0.787581 0.427990 -0.443330
vn -0.787581 0.427990 -0.443330
vn -0.683542 -0.363711 0.632839
vn -0.683542 -0.363711 0.632839
vn -0.683542 -0.363711 0.632839
vn -0.683542 -0.363711 0.632839
vn -0.405097 0.842208 0.355783
vn -0.405097 0.842208 0.355783
vn -0.405097 0.842208 0.355783
vn -0.405097 0.842208 0.355783
vn -0.115540 0.638156 0.761188
vn -0.115540 0.638156 0.761188
vn -0.115540 0.638156 0.761188
vn -0.115540 0.638156 0.761188
vn 0.795560 0.579836 -0.175712
vn 0.795560 0.579836 -0.175712
vn 0.795560 0.579836 -0.175712
vn 0.795560 0.579836 -0.175712
vn -0.244761 0.313624 -0.917460
vn -0.244761 0.313624 -0.917460
vn -0.244761 0.313624 -0.917460
vn -0.244761 0.313624 -0.917460
vn -0.984289 -0.144112 0.102012
vn -0.984289 -0.144112 0.102012
vn -0.984289 -0.144112 0.102012
vn -0.984289 -0.144112 0.102012
vn -0.350526 0.922830 -0.159741
vn -0.350526 0.922830 -0.159741
vn -0.350526 0.922830 -0.159741
vn -0.350526 0.922830 -0.159741
vn -0.597324 0.781170 0.181598
vn -0.597324 0.781170 0.181598
vn -0.597324 0.781170 0.181598
vn -0.597324 0.781170 0.181598
vn 0.508642 0.515176 0.689838
vn 0.508642 0.515176 0.689838
vn 0.508642 0.515176 0.689838
vn 0.508642 0.515176 0.689838
vn 0.791309 0.298079 -0.533834
vn 0.791309 0.298079 -0.533834
vn 0.791309 0.298079 -0.533834
vn 0.791309 0.298079 -0.533834
vn -0.458876 0.006014 -0.888480
vn -0.458876 0.006014 -0.888480
vn -0.458876 0.006014 -0.888480
vn -0.458876 0.006014 -0.888480
vn 0.130078 0.949405 -0.285848
vn 0.130078 0.949405 -0.285848
vn 0.130078 0.949405 -0.285848
vn 0.130078 0.949405 -0.285848
vn -0.565683 0.707216 -0.424086
vn -0.565683 0.707216 -0.424086
vn -0.565683 0.707216 -0.424086
vn -0.565683 0.707216 -0.424086
vn -0.447562 0.341684 0.826402
vn -0.447562 0.341684 0.826402
vn -0.447562 0.341684 0.826402
vn -0.447562 0.341684 0.826402
vn 0.815435 0.288628 0.501757
vn 0.815435 0.288628 0.501757
vn 0.815435 0.288628 0.501757
vn 0.815435 0.288628 0.501757
vn 0.578978 0.120104 -0.806449
vn 0.578978 0.120104 -0.806449
vn 0.578978 0.120104 -0.806449
vn 0.578978 0.120104 -0.806449
vn 0.249109 0.965179 0.079837
vn 0.249109 0.965179 0.079837
vn 0.249109 0.965179 0.079837
vn 0.249109 0.965179 0.079837
vn 0.604904 0.539296 -0.585877
vn 0.604904 0.539296 -0.585877
vn 0.604904 0.539296 -0.585877
vn 0.604904 0.539296 -0.585877
vn -0.429595 0.893275 0.132318
vn -0.429595 0.893275 0.132318
vn -0.429595 0.893275 0.132318
vn -0.429595 0.893275 0.132318
vn 0.115618 0.074946 0.990462
vn 0.115618 0.074946 0.990462
vn 0.115618 0.074946 0.990462
vn 0.115618 0.074946 0.990462
vn 0.778731 -0.624533 0.059469
vn 0.778731 -0.624533 0.059469
vn 0.778731 -0.624533 0.059469
vn 0.778731 -0.624533 0.059469
vn 0.697441 0.594348 0.400408
vn 0.697441 0.594348 0.400408
vn 0.697441 0.594348 0.400408
vn 0.697441 0.594348 0.400408
g Burger_Bread_LightYellow
usemtl LightYellow
f 1 2 3
f 4 5 3
f 4 6 5
f 7 8 9
f 10 11 12
f 13 14 15
f 16 17 18
f 19 20 21
f 22 23 24
f 25 26 27
f 28 29 30
f 31 32 33
f 34 35 36
f 37 38 39
f 40 41 42
f 43 44 45
f 46 47 48
f 49 50 51
f 52 53 54
f 55 56 57
f 58 59 60
f 61 62 63
f 64 65 66
f 67 68 69
f 70 71 72
f 73 74 75
f 76 77 78
f 79 80 81
f 82 83 84
f 85 86 87
f 88 89 90
f 91 92 93
f 94 95 96
f 97 98 99
f 100 98 97
f 101 102 103
f 102 104 103
f 105 106 107
f 107 106 108
f 109 110 111
f 111 112 109
f 111 113 112
f 114 115 116
f 114 116 117
f 118 119 120
f 118 120 121
f 122 123 124
f 122 124 125
f 126 127 128
f 126 128 129
f 130 131 132
f 130 132 133
f 134 135 136
f 134 136 137
f 138 139 140
f 138 140 141
f 142 143 144
f 142 144 145
f 146 147 148
f 146 148 149
f 150 151 152
f 152 153 150
f 153 154 150
f 154 155 150
f 154 156 155
f 156 157 155
f 156 158 157
f 158 159 157
g Burger_Bread_White
usemtl White
f 160 161 162
f 160 162 163
f 164 165 166
f 164 166 167
f 168 169 170
f 168 170 171
f 172 173 174
f 172 174 175
f 176 177 178
f 176 178 179
f 180 181 182
f 180 182 183
f 184 185 186
f 184 186 187
f 188 189 190
f 188 190 191
f 192 193 194
f 192 194 195
f 196 197 198
f 196 198 199
f 200 201 202
f 200 202 203
f 204 205 206
f 204 206 207
f 208 209 210
f 208 210 211
f 212 213 214
f 212 214 215
f 216 217 218
f 216 218 219
f 220 221 222
f 220 222 223
f 224 225 226
f 224 226 227
f 228 229 230
f 228 230 231
f 232 233 234
f 232 234 235
f 236 237 238
f 236 238 239
f 240 241 242
f 240 242 243
f 244 245 246
f 244 246 247
f 248 249 250
f 248 250 251
f 252 253 254
f 252 254 255
f 256 257 258
f 256 258 259
f 260 261 262
f 260 262 263
f 264 265 266
f 264 266 267
f 268 269 270
f 268 270 271
f 272 273 274
f 272 274 275
f 276 277 278
f 276 278 279
f 280 281 282
f 280 282 283
f 284 285 286
f 284 286 287
f 288 289 290
f 288 290 291
f 292 293 294
f 292 294 295
f 296 297 298
f 296 298 299
f 300 301 302
f 300 302 303
f 304 305 306
f 304 306 307
f 308 309 310
f 308 310 311
f 312 313 314
f 312 314 315
f 316 317 318
f 316 318 319
f 320 321 322
f 320 322 323
f 324 325 326
f 324 326 327
f 328 329 330
f 328 330 331
f 332 333 334
f 332 334 335
f 336 337 338
f 336 338 339
f 340 341 342
f 340 342 343
f 344 345 346
f 344 346 347
f 348 349 350
f 348 350 351
f 352 353 354
f 352 354 355
f 356 357 358
f 356 358 359
f 360 361 362
f 360 362 363
f 364 365 366
f 364 366 367
f 368 369 370
f 368 370 371
f 372 373 374
f 372 374 375
f 376 377 378
f 376 378 379
f 380 381 382
f 380 382 383
f 384 385 386
f 384 386 387
f 388 389 390
f 388 390 391
f 392 393 394
f 392 394 395
f 396 397 398
f 396 398 399
f 400 401 402
f 400 402 403
f 404 405 406
f 404 406 407
f 408 409 410
f 408 410 411
f 412 413 414
f 412 414 415
f 416 417 418
f 416 418 419
f 420 421 422
f 420 422 423
f 424 425 426
f 424 426 427
f 428 429 430
f 428 430 431
f 432 433 434
f 432 434 435
f 436 437 438
f 436 438 439
f 440 441 442
f 440 442 443
f 444 445 446
f 444 446 447
f 448 449 450
f 448 450 451
f 452 453 454
f 452 454 455
f 456 457 458
f 456 458 459
