mtllib Materials.mtl
# Ultimate Food Pack - BurgerPatty_Cooked
o BurgerPatty_Cooked
v 0.667762 0.000000 -0.288909
v 0.712733 0.000000 0.000000
v 0.623642 -0.121705 0.000000
v 0.584292 -0.115373 -0.300152
v 0.667762 0.000000 -0.288909
v 0.584292 0.115372 -0.300152
v 0.623642 0.121705 0.000000
v 0.712733 0.000000 0.000000
v 0.667762 0.000000 -0.288909
v 0.528077 0.000000 -0.528077
v 0.484392 0.084710 -0.484392
v 0.584292 0.115372 -0.300152
v 0.667762 0.000000 -0.288909
v 0.584292 -0.115373 -0.300152
v 0.484392 -0.084711 -0.484392
v 0.528077 0.000000 -0.528077
v -0.288909 0.000000 -0.667762
v 0.000000 0.000000 -0.712733
v 0.000000 -0.121705 -0.623642
v -0.300152 -0.115373 -0.584291
v -0.288909 0.000000 -0.667762
v -0.300152 0.115372 -0.584292
v 0.000000 0.121705 -0.623642
v 0.000000 0.000000 -0.712733
v -0.288909 0.000000 -0.667762
v -0.528077 0.000000 -0.528077
v -0.484392 0.084710 -0.484392
v -0.300152 0.115372 -0.584292
v -0.288909 0.000000 -0.667762
v -0.300152 -0.115373 -0.584291
v -0.484392 -0.084711 -0.484392
v -0.528077 0.000000 -0.528077
v -0.667762 0.000000 0.288909
v -0.712733 0.000000 0.000000
v -0.623642 -0.121705 0.000000
v -0.584292 -0.115372 0.300152
v -0.667762 0.000000 0.288909
v -0.584292 0.115373 0.300152
v -0.623642 0.121705 0.000000
v -0.712733 0.000000 0.000000
v -0.667762 0.000000 0.288909
v -0.528077 0.000000 0.528077
v -0.484392 0.084711 0.484392
v -0.584292 0.115373 0.300152
v -0.667762 0.000000 0.288909
v -0.584292 -0.115372 0.300152
v -0.484392 -0.084710 0.484392
v -0.528077 0.000000 0.528077
v 0.288909 0.000000 0.667762
v 0.000000 0.000000 0.712733
v 0.000000 -0.121705 0.623642
v 0.300152 -0.115372 0.584292
v 0.288909 0.000000 0.667762
v 0.300152 0.115373 0.584291
v 0.000000 0.121705 0.623642
v 0.000000 0.000000 0.712733
v 0.288909 0.000000 0.667762
v 0.528077 0.000000 0.528077
v 0.484392 0.084711 0.484392
v 0.300152 0.115373 0.584291
v 0.288909 0.000000 0.667762
v 0.300152 -0.115372 0.584292
v 0.484392 -0.084710 0.484392
v 0.528077 0.000000 0.528077
v -0.333881 -0.160585 0.333881
v -0.584292 -0.115372 0.300152
v -0.623642 -0.121705 0.000000
v -0.356367 -0.165651 0.000000
v -0.333881 -0.160585 0.333881
v -0.300152 -0.115372 0.584291
v -0.484392 -0.084710 0.484392
v -0.584292 -0.115372 0.300152
v -0.333881 -0.160585 0.333881
v 0.000000 -0.165651 0.356367
v 0.000000 -0.121705 0.623642
v -0.300152 -0.115372 0.584291
v 0.333881 0.160585 0.333881
v 0.584291 0.115373 0.300152
v 0.623642 0.121705 0.000000
v 0.356367 0.165651 0.000000
v 0.333881 0.160585 0.333881
v 0.300152 0.115373 0.584291
v 0.484392 0.084711 0.484392
v 0.584291 0.115373 0.300152
v 0.333881 0.160585 0.333881
v 0.000000 0.165651 0.356367
v 0.000000 0.121705 0.623642
v 0.300152 0.115373 0.584291
v -0.333881 0.160585 0.333881
v -0.356367 0.165651 0.000000
v -0.623642 0.121705 0.000000
v -0.584292 0.115373 0.300152
v -0.333881 0.160585 0.333881
v -0.300152 0.115373 0.584291
v 0.000000 0.121705 0.623642
v 0.000000 0.165651 0.356367
v -0.333881 0.160585 0.333881
v -0.584292 0.115373 0.300152
v -0.484392 0.084711 0.484392
v -0.300152 0.115373 0.584291
v 0.333881 -0.160585 0.333881
v 0.356367 -0.165651 0.000000
v 0.623642 -0.121705 0.000000
v 0.584291 -0.115372 0.300152
v 0.333881 -0.160585 0.333881
v 0.300152 -0.115372 0.584292
v 0.000000 -0.121705 0.623642
v 0.000000 -0.165651 0.356367
v 0.333881 -0.160585 0.333881
v 0.584291 -0.115372 0.300152
v 0.484392 -0.084710 0.484392
v 0.300152 -0.115372 0.584292
v -0.288909 0.000000 0.667762
v -0.528077 0.000000 0.528077
v -0.484392 -0.084710 0.484392
v -0.300152 -0.115372 0.584291
v -0.288909 0.000000 0.667762
v -0.300152 0.115373 0.584291
v -0.484392 0.084711 0.484392
v -0.528077 0.000000 0.528077
v -0.288909 0.000000 0.667762
v 0.000000 0.000000 0.712733
v 0.000000 0.121705 0.623642
v -0.300152 0.115373 0.584291
v -0.288909 0.000000 0.667762
v -0.300152 -0.115372 0.584291
v 0.000000 -0.121705 0.623642
v 0.000000 0.000000 0.712733
v 0.288909 0.000000 -0.667762
v 0.528077 0.000000 -0.528077
v 0.484392 -0.084711 -0.484392
v 0.300152 -0.115373 -0.584291
v 0.288909 0.000000 -0.667762
v 0.300152 0.115372 -0.584292
v 0.484392 0.084710 -0.484392
v 0.528077 0.000000 -0.528077
v 0.288909 0.000000 -0.667762
v 0.000000 0.000000 -0.712733
v 0.000000 0.121705 -0.623642
v 0.300152 0.115372 -0.584292
v 0.288909 0.000000 -0.667762
v 0.300152 -0.115373 -0.584291
v 0.000000 -0.121705 -0.623642
v 0.000000 0.000000 -0.712733
v 0.333881 -0.160585 -0.333881
v 0.300152 -0.115373 -0.584291
v 0.484392 -0.084711 -0.484392
v 0.584292 -0.115373 -0.300152
v 0.333881 -0.160585 -0.333881
v 0.000000 -0.165651 -0.356367
v 0.000000 -0.121705 -0.623642
v 0.300152 -0.115373 -0.584291
v 0.333881 -0.160585 -0.333881
v 0.584292 -0.115373 -0.300152
v 0.623642 -0.121705 0.000000
v 0.356367 -0.165651 0.000000
v -0.333881 0.160585 -0.333881
v -0.300152 0.115372 -0.584292
v -0.484392 0.084710 -0.484392
v -0.584291 0.115372 -0.300152
v -0.333881 0.160585 -0.333881
v 0.000000 0.165651 -0.356367
v 0.000000 0.121705 -0.623642
v -0.300152 0.115372 -0.584292
v -0.333881 0.160585 -0.333881
v -0.584291 0.115372 -0.300152
v -0.623642 0.121705 0.000000
v -0.356367 0.165651 0.000000
v 0.333881 0.160585 -0.333881
v 0.300152 0.115372 -0.584292
v 0.000000 0.121705 -0.623642
v 0.000000 0.165651 -0.356367
v 0.333881 0.160585 -0.333881
v 0.584292 0.115372 -0.300152
v 0.484392 0.084710 -0.484392
v 0.300152 0.115372 -0.584292
v 0.333881 0.160585 -0.333881
v 0.356367 0.165651 0.000000
v 0.623642 0.121705 0.000000
v 0.584292 0.115372 -0.300152
v -0.333881 -0.160585 -0.333881
v -0.300152 -0.115373 -0.584291
v 0.000000 -0.121705 -0.623642
v 0.000000 -0.165651 -0.356367
v -0.333881 -0.160585 -0.333881
v -0.584291 -0.115373 -0.300152
v -0.484392 -0.084711 -0.484392
v -0.300152 -0.115373 -0.584291
v -0.333881 -0.160585 -0.333881
v -0.356367 -0.165651 0.000000
v -0.623642 -0.121705 0.000000
v -0.584291 -0.115373 -0.300152
v -0.667762 0.000000 -0.288909
v -0.528077 0.000000 -0.528077
v -0.484392 -0.084711 -0.484392
v -0.584291 -0.115373 -0.300152
v -0.667762 0.000000 -0.288909
v -0.584291 0.115372 -0.300152
v -0.484392 0.084710 -0.484392
v -0.528077 0.000000 -0.528077
v -0.667762 0.000000 -0.288909
v -0.712733 0.000000 0.000000
v -0.623642 0.121705 0.000000
v -0.584291 0.115372 -0.300152
v -0.667762 0.000000 -0.288909
v -0.584291 -0.115373 -0.300152
v -0.623642 -0.121705 0.000000
v -0.712733 0.000000 0.000000
v 0.667762 0.000000 0.288909
v 0.528077 0.000000 0.528077
v 0.484392 -0.084710 0.484392
v 0.584291 -0.115372 0.300152
v 0.667762 0.000000 0.288909
v 0.584291 0.115373 0.300152
v 0.484392 0.084711 0.484392
v 0.528077 0.000000 0.528077
v 0.667762 0.000000 0.288909
v 0.712733 0.000000 0.000000
v 0.623642 0.121705 0.000000
v 0.584291 0.115373 0.300152
v 0.667762 0.000000 0.288909
v 0.584291 -0.115372 0.300152
v 0.623642 -0.121705 0.000000
v 0.712733 0.000000 0.000000
v -0.333881 -0.160585 -0.333881
v 0.000000 -0.165651 -0.356367
v 0.000000 -0.168184 0.000000
v -0.356367 -0.165651 0.000000
v 0.333881 -0.160585 -0.333881
v -0.333881 -0.160585 0.333881
v 0.356367 -0.165651 0.000000
v 0.000000 -0.165651 0.356367
v 0.333881 -0.160585 0.333881
v 0.333881 0.160585 -0.333881
v 0.000000 0.165651 -0.356367
v 0.000000 0.168184 0.000000
v 0.356367 0.165651 0.000000
v -0.333881 0.160585 -0.333881
v 0.333881 0.160585 0.333881
v -0.356367 0.165651 0.000000
v 0.000000 0.165651 0.356367
v -0.333881 0.160585 0.333881
vn 0.805249 -0.580354 -0.121508
vn 0.805249 -0.580354 -0.121508
vn 0.805249 -0.580354 -0.121508
vn 0.805249 -0.580354 -0.121508
vn 0.805249 0.580354 -0.121508
vn 0.805249 0.580354 -0.121508
vn 0.805249 0.580354 -0.121508
vn 0.805249 0.580354 -0.121508
vn 0.720773 0.530415 -0.446259
vn 0.720773 0.530415 -0.446259
vn 0.720773 0.530415 -0.446259
vn 0.720773 0.530415 -0.446259
vn 0.720773 -0.530415 -0.446258
vn 0.720773 -0.530415 -0.446258
vn 0.720773 -0.530415 -0.446258
vn 0.720773 -0.530415 -0.446258
vn -0.121508 -0.580354 -0.805249
vn -0.121508 -0.580354 -0.805249
vn -0.121508 -0.580354 -0.805249
vn -0.121508 -0.580354 -0.805249
vn -0.121508 0.580354 -0.805249
vn -0.121508 0.580354 -0.805249
vn -0.121508 0.580354 -0.805249
vn -0.121508 0.580354 -0.805249
vn -0.446259 0.530415 -0.720773
vn -0.446259 0.530415 -0.720773
vn -0.446259 0.530415 -0.720773
vn -0.446259 0.530415 -0.720773
vn -0.446259 -0.530415 -0.720773
vn -0.446259 -0.530415 -0.720773
vn -0.446259 -0.530415 -0.720773
vn -0.446259 -0.530415 -0.720773
vn -0.805249 -0.580354 0.121508
vn -0.805249 -0.580354 0.121508
vn -0.805249 -0.580354 0.121508
vn -0.805249 -0.580354 0.121508
vn -0.805249 0.580354 0.121508
vn -0.805249 0.580354 0.121508
vn -0.805249 0.580354 0.121508
vn -0.805249 0.580354 0.121508
vn -0.720773 0.530415 0.446258
vn -0.720773 0.530415 0.446258
vn -0.720773 0.530415 0.446258
vn -0.720773 0.530415 0.446258
vn -0.720773 -0.530415 0.446259
vn -0.720773 -0.530415 0.446259
vn -0.720773 -0.530415 0.446259
vn -0.720773 -0.530415 0.446259
vn 0.121508 -0.580354 0.805249
vn 0.121508 -0.580354 0.805249
vn 0.121508 -0.580354 0.805249
vn 0.121508 -0.580354 0.805249
vn 0.121508 0.580354 0.805249
vn 0.121508 0.580354 0.805249
vn 0.121508 0.580354 0.805249
vn 0.121508 0.580354 0.805249
vn 0.446259 0.530415 0.720773
vn 0.446259 0.530415 0.720773
vn 0.446259 0.530415 0.720773
vn 0.446259 0.530415 0.720773
vn 0.446259 -0.530415 0.720773
vn 0.446259 -0.530415 0.720773
vn 0.446259 -0.530415 0.720773
vn 0.446259 -0.530415 0.720773
vn -0.171805 -0.984528 0.034457
vn -0.171805 -0.984528 0.034457
vn -0.171805 -0.984528 0.034457
vn -0.171805 -0.984528 0.034457
vn -0.237423 -0.941945 0.237423
vn -0.237423 -0.941945 0.237423
vn -0.237423 -0.941945 0.237423
vn -0.237423 -0.941945 0.237423
vn -0.034456 -0.984528 0.171806
vn -0.034456 -0.984528 0.171806
vn -0.034456 -0.984528 0.171806
vn -0.034456 -0.984528 0.171806
vn 0.171805 0.984528 0.034456
vn 0.171805 0.984528 0.034456
vn 0.171805 0.984528 0.034456
vn 0.171805 0.984528 0.034456
vn 0.237423 0.941945 0.237423
vn 0.237423 0.941945 0.237423
vn 0.237423 0.941945 0.237423
vn 0.237423 0.941945 0.237423
vn 0.034456 0.984528 0.171805
vn 0.034456 0.984528 0.171805
vn 0.034456 0.984528 0.171805
vn 0.034456 0.984528 0.171805
vn -0.171805 0.984528 0.034456
vn -0.171805 0.984528 0.034456
vn -0.171805 0.984528 0.034456
vn -0.171805 0.984528 0.034456
vn -0.034456 0.984528 0.171805
vn -0.034456 0.984528 0.171805
vn -0.034456 0.984528 0.171805
vn -0.034456 0.984528 0.171805
vn -0.237423 0.941945 0.237423
vn -0.237423 0.941945 0.237423
vn -0.237423 0.941945 0.237423
vn -0.237423 0.941945 0.237423
vn 0.171805 -0.984528 0.034457
vn 0.171805 -0.984528 0.034457
vn 0.171805 -0.984528 0.034457
vn 0.171805 -0.984528 0.034457
vn 0.034456 -0.984528 0.171806
vn 0.034456 -0.984528 0.171806
vn 0.034456 -0.984528 0.171806
vn 0.034456 -0.984528 0.171806
vn 0.237423 -0.941945 0.237423
vn 0.237423 -0.941945 0.237423
vn 0.237423 -0.941945 0.237423
vn 0.237423 -0.941945 0.237423
vn -0.446258 -0.530415 0.720773
vn -0.446258 -0.530415 0.720773
vn -0.446258 -0.530415 0.720773
vn -0.446258 -0.530415 0.720773
vn -0.446258 0.530415 0.720773
vn -0.446258 0.530415 0.720773
vn -0.446258 0.530415 0.720773
vn -0.446258 0.530415 0.720773
vn -0.121508 0.580354 0.805249
vn -0.121508 0.580354 0.805249
vn -0.121508 0.580354 0.805249
vn -0.121508 0.580354 0.805249
vn -0.121508 -0.580354 0.805249
vn -0.121508 -0.580354 0.805249
vn -0.121508 -0.580354 0.805249
vn -0.121508 -0.580354 0.805249
vn 0.446259 -0.530415 -0.720773
vn 0.446259 -0.530415 -0.720773
vn 0.446259 -0.530415 -0.720773
vn 0.446259 -0.530415 -0.720773
vn 0.446259 0.530415 -0.720773
vn 0.446259 0.530415 -0.720773
vn 0.446259 0.530415 -0.720773
vn 0.446259 0.530415 -0.720773
vn 0.121508 0.580354 -0.805249
vn 0.121508 0.580354 -0.805249
vn 0.121508 0.580354 -0.805249
vn 0.121508 0.580354 -0.805249
vn 0.121508 -0.580354 -0.805249
vn 0.121508 -0.580354 -0.805249
vn 0.121508 -0.580354 -0.805249
vn 0.121508 -0.580354 -0.805249
vn 0.237423 -0.941945 -0.237423
vn 0.237423 -0.941945 -0.237423
vn 0.237423 -0.941945 -0.237423
vn 0.237423 -0.941945 -0.237423
vn 0.034456 -0.984528 -0.171805
vn 0.034456 -0.984528 -0.171805
vn 0.034456 -0.984528 -0.171805
vn 0.034456 -0.984528 -0.171805
vn 0.171805 -0.984528 -0.034456
vn 0.171805 -0.984528 -0.034456
vn 0.171805 -0.984528 -0.034456
vn 0.171805 -0.984528 -0.034456
vn -0.237423 0.941945 -0.237423
vn -0.237423 0.941945 -0.237423
vn -0.237423 0.941945 -0.237423
vn -0.237423 0.941945 -0.237423
vn -0.034456 0.984528 -0.171806
vn -0.034456 0.984528 -0.171806
vn -0.034456 0.984528 -0.171806
vn -0.034456 0.984528 -0.171806
vn -0.171805 0.984528 -0.034457
vn -0.171805 0.984528 -0.034457
vn -0.171805 0.984528 -0.034457
vn -0.171805 0.984528 -0.034457
vn 0.034456 0.984528 -0.171806
vn 0.034456 0.984528 -0.171806
vn 0.034456 0.984528 -0.171806
vn 0.034456 0.984528 -0.171806
vn 0.237423 0.941945 -0.237423
vn 0.237423 0.941945 -0.237423
vn 0.237423 0.941945 -0.237423
vn 0.237423 0.941945 -0.237423
vn 0.171805 0.984528 -0.034457
vn 0.171805 0.984528 -0.034457
vn 0.171805 0.984528 -0.034457
vn 0.171805 0.984528 -0.034457
vn -0.034456 -0.984528 -0.171805
vn -0.034456 -0.984528 -0.171805
vn -0.034456 -0.984528 -0.171805
vn -0.034456 -0.984528 -0.171805
vn -0.237423 -0.941945 -0.237423
vn -0.237423 -0.941945 -0.237423
vn -0.237423 -0.941945 -0.237423
vn -0.237423 -0.941945 -0.237423
vn -0.171805 -0.984528 -0.034456
vn -0.171805 -0.984528 -0.034456
vn -0.171805 -0.984528 -0.034456
vn -0.171805 -0.984528 -0.034456
vn -0.720773 -0.530415 -0.446258
vn -0.720773 -0.530415 -0.446258
vn -0.720773 -0.530415 -0.446258
vn -0.720773 -0.530415 -0.446258
vn -0.720773 0.530415 -0.446259
vn -0.720773 0.530415 -0.446259
vn -0.720773 0.530415 -0.446259
vn -0.720773 0.530415 -0.446259
vn -0.805249 0.580354 -0.121508
vn -0.805249 0.580354 -0.121508
vn -0.805249 0.580354 -0.121508
vn -0.805249 0.580354 -0.121508
vn -0.805249 -0.580354 -0.121508
vn -0.805249 -0.580354 -0.121508
vn -0.805249 -0.580354 -0.121508
vn -0.805249 -0.580354 -0.121508
vn 0.720773 -0.530415 0.446259
vn 0.720773 -0.530415 0.446259
vn 0.720773 -0.530415 0.446259
vn 0.720773 -0.530415 0.446259
vn 0.720773 0.530415 0.446258
vn 0.720773 0.530415 0.446258
vn 0.720773 0.530415 0.446258
vn 0.720773 0.530415 0.446258
vn 0.805249 0.580354 0.121508
vn 0.805249 0.580354 0.121508
vn 0.805249 0.580354 0.121508
vn 0.805249 0.580354 0.121508
vn 0.805249 -0.580354 0.121508
vn 0.805249 -0.580354 0.121508
vn 0.805249 -0.580354 0.121508
vn 0.805249 -0.580354 0.121508
vn -0.011379 -0.999871 -0.011379
vn 0.011379 -0.999871 -0.011379
vn -0.011379 -0.999871 0.011379
vn -0.011379 -0.999871 0.011379
vn 0.011379 -0.999871 -0.011379
vn -0.011379 -0.999871 0.011379
vn 0.011379 -0.999871 0.011379
vn -0.011379 -0.999871 0.011379
vn 0.011379 -0.999871 0.011379
vn 0.011379 0.999871 -0.011379
vn -0.011379 0.999871 -0.011379
vn 0.011379 0.999871 0.011379
vn 0.011379 0.999871 0.011379
vn -0.011379 0.999871 -0.011379
vn 0.011379 0.999871 0.011379
vn -0.011379 0.999871 0.011379
vn 0.011379 0.999871 0.011379
vn -0.011379 0.999871 0.011379
g BurgerPatty_Cooked_Brown
usemtl Brown
f 1 2 3
f 1 3 4
f 5 6 7
f 5 7 8
f 9 10 11
f 9 11 12
f 13 14 15
f 13 15 16
f 17 18 19
f 17 19 20
f 21 22 23
f 21 23 24
f 25 26 27
f 25 27 28
f 29 30 31
f 29 31 32
f 33 34 35
f 33 35 36
f 37 38 39
f 37 39 40
f 41 42 43
f 41 43 44
f 45 46 47
f 45 47 48
f 49 50 51
f 49 51 52
f 53 54 55
f 53 55 56
f 57 58 59
f 57 59 60
f 61 62 63
f 61 63 64
f 65 66 67
f 65 67 68
f 69 70 71
f 69 71 72
f 73 74 75
f 73 75 76
f 77 78 79
f 77 79 80
f 81 82 83
f 81 83 84
f 85 86 87
f 85 87 88
f 89 90 91
f 89 91 92
f 93 94 95
f 93 95 96
f 97 98 99
f 97 99 100
f 101 102 103
f 101 103 104
f 105 106 107
f 105 107 108
f 109 110 111
f 109 111 112
f 113 114 115
f 113 115 116
f 117 118 119
f 117 119 120
f 121 122 123
f 121 123 124
f 125 126 127
f 125 127 128
f 129 130 131
f 129 131 132
f 133 134 135
f 133 135 136
f 137 138 139
f 137 139 140
f 141 142 143
f 141 143 144
f 145 146 147
f 145 147 148
f 149 150 151
f 149 151 152
f 153 154 155
f 153 155 156
f 157 158 159
f 157 159 160
f 161 162 163
f 161 163 164
f 165 166 167
f 165 167 168
f 169 170 171
f 169 171 172
f 173 174 175
f 173 175 176
f 177 178 179
f 177 179 180
f 181 182 183
f 181 183 184
f 185 186 187
f 185 187 188
f 189 190 191
f 189 191 192
f 193 194 195
f 193 195 196
f 197 198 199
f 197 199 200
f 201 202 203
f 201 203 204
f 205 206 207
f 205 207 208
f 209 210 211
f 209 211 212
f 213 214 215
f 213 215 216
f 217 218 219
f 217 219 220
f 221 222 223
f 221 223 224
f 225 226 227
f 225 227 228
f 229 227 226
f 230 228 227
f 229 231 227
f 230 227 232
f 233 227 231
f 233 232 227
f 234 235 236
f 234 236 237
f 238 236 235
f 239 237 236
f 238 240 236
f 239 236 241
f 242 236 240
f 242 241 236
