mtllib Materials.mtl
# Ultimate Food Pack - Cheese_Singles
o Cheese_Singles
v -0.001239 0.003735 0.559279
v -0.412192 0.003735 0.148178
v -0.420107 0.003735 0.567046
v -0.001239 0.003735 0.148178
v 0.417629 0.003735 0.567046
v -0.420107 0.003735 -0.270690
v 0.409714 0.003735 0.148178
v -0.001239 0.003735 -0.262923
v 0.417629 0.003735 -0.270690
v 0.308770 -0.006940 0.019721
v 0.324802 -0.006940 -0.398998
v -0.094166 -0.006940 -0.391974
v -0.098546 -0.006940 0.015342
v 0.315795 -0.006940 0.438689
v -0.512886 -0.006940 -0.408006
v -0.102925 -0.006940 0.422658
v -0.505862 -0.006940 0.010962
v -0.521893 -0.006940 0.429682
v -0.136422 -0.014601 0.491655
v -0.571506 -0.014601 0.114539
v -0.553392 -0.014601 0.533180
v -0.165406 -0.014601 0.085555
v 0.282219 -0.014601 0.473541
v -0.613031 -0.014601 -0.302431
v 0.240693 -0.014601 0.056571
v -0.194390 -0.014601 -0.320544
v 0.222580 -0.014601 -0.362070
v -0.001239 -0.006318 0.559279
v -0.420107 -0.006318 0.567046
v -0.412192 -0.006318 0.148178
v -0.001239 -0.006318 0.148178
v 0.417629 -0.006318 0.567046
v -0.420107 -0.006318 -0.270690
v 0.409714 -0.006318 0.148178
v -0.001239 -0.006318 -0.262923
v 0.417629 -0.006318 -0.270690
v 0.308770 -0.016993 0.019721
v -0.094166 -0.016993 -0.391974
v 0.324802 -0.016993 -0.398998
v -0.098546 -0.016993 0.015342
v 0.315795 -0.016993 0.438689
v -0.512886 -0.016993 -0.408006
v -0.102925 -0.016993 0.422658
v -0.505862 -0.016993 0.010962
v -0.521893 -0.016993 0.429682
v -0.136422 -0.024654 0.491655
v -0.553392 -0.024654 0.533180
v -0.571506 -0.024654 0.114539
v -0.165406 -0.024654 0.085555
v 0.282219 -0.024654 0.473541
v -0.613031 -0.024654 -0.302431
v 0.240693 -0.024654 0.056571
v -0.194390 -0.024654 -0.320544
v 0.222580 -0.024654 -0.362070
v 0.315795 -0.006940 0.438689
v 0.315795 -0.016993 0.438689
v 0.308770 -0.016993 0.019721
v 0.308770 -0.006940 0.019721
v -0.521893 -0.006940 0.429682
v -0.521893 -0.016993 0.429682
v -0.102925 -0.016993 0.422658
v -0.102925 -0.006940 0.422658
v -0.512886 -0.006940 -0.408006
v -0.512886 -0.016993 -0.408006
v -0.505862 -0.016993 0.010962
v -0.505862 -0.006940 0.010962
v 0.324802 -0.006940 -0.398998
v 0.324802 -0.016993 -0.398998
v -0.094166 -0.016993 -0.391974
v -0.094166 -0.006940 -0.391974
v 0.282219 -0.014601 0.473541
v 0.282219 -0.024654 0.473541
v 0.240693 -0.024654 0.056571
v 0.240693 -0.014601 0.056571
v -0.553392 -0.014601 0.533180
v -0.553392 -0.024654 0.533180
v -0.136422 -0.024654 0.491655
v -0.136422 -0.014601 0.491655
v -0.613031 -0.014601 -0.302431
v -0.613031 -0.024654 -0.302431
v -0.571506 -0.024654 0.114539
v -0.571506 -0.014601 0.114539
v 0.222580 -0.014601 -0.362070
v 0.222580 -0.024654 -0.362070
v -0.194390 -0.024654 -0.320544
v -0.194390 -0.014601 -0.320544
v 0.417629 0.003735 0.567046
v 0.417629 -0.006318 0.567046
v 0.409714 -0.006318 0.148178
v 0.409714 0.003735 0.148178
v 0.417629 -0.006318 -0.270690
v 0.417629 0.003735 -0.270690
v -0.420107 0.003735 0.567046
v -0.420107 -0.006318 0.567046
v -0.001239 -0.006318 0.559279
v -0.001239 0.003735 0.559279
v 0.417629 -0.006318 0.567046
v 0.417629 0.003735 0.567046
v -0.420107 0.003735 -0.270690
v -0.420107 -0.006318 -0.270690
v -0.412192 -0.006318 0.148178
v -0.412192 0.003735 0.148178
v -0.420107 -0.006318 0.567046
v -0.420107 0.003735 0.567046
v 0.417629 0.003735 -0.270690
v 0.417629 -0.006318 -0.270690
v -0.001239 -0.006318 -0.262923
v -0.001239 0.003735 -0.262923
v -0.420107 -0.006318 -0.270690
v -0.420107 0.003735 -0.270690
v -0.102925 -0.006940 0.422658
v -0.102925 -0.016993 0.422658
v 0.315795 -0.016993 0.438689
v 0.315795 -0.006940 0.438689
v -0.094166 -0.006940 -0.391974
v -0.094166 -0.016993 -0.391974
v -0.512886 -0.016993 -0.408006
v -0.512886 -0.006940 -0.408006
v 0.308770 -0.006940 0.019721
v 0.308770 -0.016993 0.019721
v 0.324802 -0.016993 -0.398998
v 0.324802 -0.006940 -0.398998
v -0.505862 -0.006940 0.010962
v -0.505862 -0.016993 0.010962
v -0.521893 -0.016993 0.429682
v -0.521893 -0.006940 0.429682
v 0.240693 -0.014601 0.056571
v 0.240693 -0.024654 0.056571
v 0.222580 -0.024654 -0.362070
v 0.222580 -0.014601 -0.362070
v -0.571506 -0.014601 0.114539
v -0.571506 -0.024654 0.114539
v -0.553392 -0.024654 0.533180
v -0.553392 -0.014601 0.533180
v -0.136422 -0.014601 0.491655
v -0.136422 -0.024654 0.491655
v 0.282219 -0.024654 0.473541
v 0.282219 -0.014601 0.473541
v -0.194390 -0.014601 -0.320544
v -0.194390 -0.024654 -0.320544
v -0.613031 -0.024654 -0.302431
v -0.613031 -0.014601 -0.302431
vn 0.000000 1.000000 0.000000
vn 0.000000 1.000000 0.000000
vn 0.000000 1.000000 0.000000
vn 0.000000 1.000000 0.000000
vn 0.000000 1.000000 0.000000
vn 0.000000 1.000000 0.000000
vn 0.000000 1.000000 0.000000
vn 0.000000 1.000000 0.000000
vn 0.000000 1.000000 0.000000
vn 0.000000 1.000000 0.000000
vn 0.000000 1.000000 0.000000
vn 0.000000 1.000000 0.000000
vn 0.000000 1.000000 0.000000
vn 0.000000 1.000000 0.000000
vn 0.000000 1.000000 0.000000
vn 0.000000 1.000000 0.000000
vn 0.000000 1.000000 0.000000
vn 0.000000 1.000000 0.000000
vn 0.000000 1.000000 0.000000
vn 0.000000 1.000000 0.000000
vn 0.000000 1.000000 0.000000
vn 0.000000 1.000000 0.000000
vn 0.000000 1.000000 0.000000
vn 0.000000 1.000000 0.000000
vn 0.000000 1.000000 0.000000
vn 0.000000 1.000000 0.000000
vn 0.000000 1.000000 0.000000
vn 0.000000 -1.000000 0.000000
vn 0.000000 -1.000000 0.000000
vn 0.000000 -1.000000 0.000000
vn 0.000000 -1.000000 0.000000
vn 0.000000 -1.000000 0.000000
vn 0.000000 -1.000000 0.000000
vn 0.000000 -1.000000 0.000000
vn 0.000000 -1.000000 0.000000
vn 0.000000 -1.000000 0.000000
vn 0.000000 -1.000000 0.000000
vn 0.000000 -1.000000 0.000000
vn 0.000000 -1.000000 0.000000
vn 0.000000 -1.000000 0.000000
vn 0.000000 -1.000000 0.000000
vn 0.000000 -1.000000 0.000000
vn 0.000000 -1.000000 0.000000
vn 0.000000 -1.000000 0.000000
vn 0.000000 -1.000000 0.000000
vn 0.000000 -1.000000 0.000000
vn 0.000000 -1.000000 0.000000
vn 0.000000 -1.000000 0.000000
vn 0.000000 -1.000000 0.000000
vn 0.000000 -1.000000 0.000001
vn 0.000000 -1.000000 0.000000
vn 0.000000 -1.000000 0.000001
vn 0.000000 -1.000000 0.000000
vn 0.000000 -1.000000 0.000000
vn 0.999860 0.000000 -0.016763
vn 0.999860 0.000000 -0.016763
vn 0.999860 0.000000 -0.016763
vn 0.999860 0.000000 -0.016763
vn 0.016763 0.000000 0.999860
vn 0.016763 0.000000 0.999860
vn 0.016763 0.000000 0.999860
vn 0.016763 0.000000 0.999860
vn -0.999860 0.000000 0.016763
vn -0.999860 0.000000 0.016763
vn -0.999860 0.000000 0.016763
vn -0.999860 0.000000 0.016763
vn -0.016763 0.000000 -0.999860
vn -0.016763 0.000000 -0.999860
vn -0.016763 0.000000 -0.999860
vn -0.016763 0.000000 -0.999860
vn 0.995078 0.000000 -0.099098
vn 0.995078 0.000000 -0.099098
vn 0.995078 0.000000 -0.099098
vn 0.995078 0.000000 -0.099098
vn 0.099098 0.000000 0.995078
vn 0.099098 0.000000 0.995078
vn 0.099098 0.000000 0.995078
vn 0.099098 0.000000 0.995078
vn -0.995078 0.000000 0.099098
vn -0.995078 0.000000 0.099098
vn -0.995078 0.000000 0.099098
vn -0.995078 0.000000 0.099098
vn -0.099098 0.000000 -0.995078
vn -0.099098 0.000000 -0.995078
vn -0.099098 0.000000 -0.995078
vn -0.099098 0.000000 -0.995078
vn 0.999822 0.000000 -0.018894
vn 0.999822 0.000000 -0.018894
vn 0.999822 0.000000 -0.018894
vn 0.999822 0.000000 -0.018894
vn 0.999822 0.000000 0.018894
vn 0.999822 0.000000 0.018894
vn 0.018540 0.000000 0.999828
vn 0.018540 0.000000 0.999828
vn 0.018540 0.000000 0.999828
vn 0.018540 0.000000 0.999828
vn -0.018540 0.000000 0.999828
vn -0.018540 0.000000 0.999828
vn -0.999822 0.000000 0.018894
vn -0.999822 0.000000 0.018894
vn -0.999822 0.000000 0.018894
vn -0.999822 0.000000 0.018894
vn -0.999822 0.000000 -0.018894
vn -0.999822 0.000000 -0.018894
vn -0.018540 0.000000 -0.999828
vn -0.018540 0.000000 -0.999828
vn -0.018540 0.000000 -0.999828
vn -0.018540 0.000000 -0.999828
vn 0.018540 0.000000 -0.999828
vn 0.018540 0.000000 -0.999828
vn -0.038258 0.000000 0.999268
vn -0.038258 0.000000 0.999268
vn -0.038258 0.000000 0.999268
vn -0.038258 0.000000 0.999268
vn 0.038258 0.000000 -0.999268
vn 0.038258 0.000000 -0.999268
vn 0.038258 0.000000 -0.999268
vn 0.038258 0.000000 -0.999268
vn 0.999268 0.000000 0.038258
vn 0.999268 0.000000 0.038258
vn 0.999268 0.000000 0.038258
vn 0.999268 0.000000 0.038258
vn -0.999268 0.000000 -0.038258
vn -0.999268 0.000000 -0.038258
vn -0.999268 0.000000 -0.038258
vn -0.999268 0.000000 -0.038258
vn 0.999065 0.000000 -0.043227
vn 0.999065 0.000000 -0.043227
vn 0.999065 0.000000 -0.043227
vn 0.999065 0.000000 -0.043227
vn -0.999065 0.000000 0.043227
vn -0.999065 0.000000 0.043227
vn -0.999065 0.000000 0.043227
vn -0.999065 0.000000 0.043227
vn 0.043227 0.000000 0.999065
vn 0.043227 0.000000 0.999065
vn 0.043227 0.000000 0.999065
vn 0.043227 0.000000 0.999065
vn -0.043227 0.000000 -0.999065
vn -0.043227 0.000000 -0.999065
vn -0.043227 0.000000 -0.999065
vn -0.043227 0.000000 -0.999065
g Cheese_Singles_Yellow
usemtl Yellow
f 1 2 3
f 1 4 2
f 5 4 1
f 4 6 2
f 5 7 4
f 4 8 6
f 7 8 4
f 7 9 8
f 10 11 12
f 10 12 13
f 14 10 13
f 13 12 15
f 14 13 16
f 13 15 17
f 16 13 17
f 16 17 18
f 19 20 21
f 19 22 20
f 23 22 19
f 22 24 20
f 23 25 22
f 22 26 24
f 25 26 22
f 25 27 26
f 28 29 30
f 28 30 31
f 32 28 31
f 31 30 33
f 32 31 34
f 31 33 35
f 34 31 35
f 34 35 36
f 37 38 39
f 37 40 38
f 41 40 37
f 40 42 38
f 41 43 40
f 40 44 42
f 43 44 40
f 43 45 44
f 46 47 48
f 46 48 49
f 50 46 49
f 49 48 51
f 50 49 52
f 49 51 53
f 52 49 53
f 52 53 54
f 55 56 57
f 55 57 58
f 59 60 61
f 59 61 62
f 63 64 65
f 63 65 66
f 67 68 69
f 67 69 70
f 71 72 73
f 71 73 74
f 75 76 77
f 75 77 78
f 79 80 81
f 79 81 82
f 83 84 85
f 83 85 86
f 87 88 89
f 87 89 90
f 90 89 91
f 90 91 92
f 93 94 95
f 93 95 96
f 96 95 97
f 96 97 98
f 99 100 101
f 99 101 102
f 102 101 103
f 102 103 104
f 105 106 107
f 105 107 108
f 108 107 109
f 108 109 110
f 111 112 113
f 111 113 114
f 115 116 117
f 115 117 118
f 119 120 121
f 119 121 122
f 123 124 125
f 123 125 126
f 127 128 129
f 127 129 130
f 131 132 133
f 131 133 134
f 135 136 137
f 135 137 138
f 139 140 141
f 139 141 142
