mtllib Materials.mtl
# Ultimate Food Pack - Cheeseburger
o Cheeseburger
v 0.667762 0.000000 -0.288909
v 0.712733 0.000000 0.000000
v 0.623642 -0.121705 0.000000
v 0.584292 -0.115373 -0.300152
v 0.667762 0.000000 -0.288909
v 0.584292 0.115372 -0.300152
v 0.623642 0.121705 0.000000
v 0.712733 0.000000 0.000000
v 0.667762 0.000000 -0.288909
v 0.528077 0.000000 -0.528077
v 0.484392 0.084710 -0.484392
v 0.584292 0.115372 -0.300152
v 0.667762 0.000000 -0.288909
v 0.584292 -0.115373 -0.300152
v 0.484392 -0.084711 -0.484392
v 0.528077 0.000000 -0.528077
v -0.288909 0.000000 -0.667762
v 0.000000 0.000000 -0.712733
v 0.000000 -0.121705 -0.623642
v -0.300152 -0.115373 -0.584291
v -0.288909 0.000000 -0.667762
v -0.300152 0.115372 -0.584292
v 0.000000 0.121705 -0.623642
v 0.000000 0.000000 -0.712733
v -0.288909 0.000000 -0.667762
v -0.528077 0.000000 -0.528077
v -0.484392 0.084710 -0.484392
v -0.300152 0.115372 -0.584292
v -0.288909 0.000000 -0.667762
v -0.300152 -0.115373 -0.584291
v -0.484392 -0.084711 -0.484392
v -0.528077 0.000000 -0.528077
v -0.667762 0.000000 0.288909
v -0.712733 0.000000 0.000000
v -0.623642 -0.121705 0.000000
v -0.584292 -0.115372 0.300152
v -0.667762 0.000000 0.288909
v -0.584292 0.115373 0.300152
v -0.623642 0.121705 0.000000
v -0.712733 0.000000 0.000000
v -0.667762 0.000000 0.288909
v -0.528077 0.000000 0.528077
v -0.484392 0.084711 0.484392
v -0.584292 0.115373 0.300152
v -0.667762 0.000000 0.288909
v -0.584292 -0.115372 0.300152
v -0.484392 -0.084710 0.484392
v -0.528077 0.000000 0.528077
v 0.288909 0.000000 0.667762
v 0.000000 0.000000 0.712733
v 0.000000 -0.121705 0.623642
v 0.300152 -0.115372 0.584292
v 0.288909 0.000000 0.667762
v 0.300152 0.115373 0.584291
v 0.000000 0.121705 0.623642
v 0.000000 0.000000 0.712733
v 0.288909 0.000000 0.667762
v 0.528077 0.000000 0.528077
v 0.484392 0.084711 0.484392
v 0.300152 0.115373 0.584291
v 0.288909 0.000000 0.667762
v 0.300152 -0.115372 0.584292
v 0.484392 -0.084710 0.484392
v 0.528077 0.000000 0.528077
v -0.333881 -0.160585 0.333881
v -0.584292 -0.115372 0.300152
v -0.623642 -0.121705 0.000000
v -0.356367 -0.165651 0.000000
v -0.333881 -0.160585 0.333881
v -0.300152 -0.115372 0.584291
v -0.484392 -0.084710 0.484392
v -0.584292 -0.115372 0.300152
v -0.333881 -0.160585 0.333881
v 0.000000 -0.165651 0.356367
v 0.000000 -0.121705 0.623642
v -0.300152 -0.115372 0.584291
v 0.333881 0.160585 0.333881
v 0.584291 0.115373 0.300152
v 0.623642 0.121705 0.000000
v 0.356367 0.165651 0.000000
v 0.333881 0.160585 0.333881
v 0.300152 0.115373 0.584291
v 0.484392 0.084711 0.484392
v 0.584291 0.115373 0.300152
v 0.333881 0.160585 0.333881
v 0.000000 0.165651 0.356367
v 0.000000 0.121705 0.623642
v 0.300152 0.115373 0.584291
v -0.333881 0.160585 0.333881
v -0.356367 0.165651 0.000000
v -0.623642 0.121705 0.000000
v -0.584292 0.115373 0.300152
v -0.333881 0.160585 0.333881
v -0.300152 0.115373 0.584291
v 0.000000 0.121705 0.623642
v 0.000000 0.165651 0.356367
v -0.333881 0.160585 0.333881
v -0.584292 0.115373 0.300152
v -0.484392 0.084711 0.484392
v -0.300152 0.115373 0.584291
v 0.333881 -0.160585 0.333881
v 0.356367 -0.165651 0.000000
v 0.623642 -0.121705 0.000000
v 0.584291 -0.115372 0.300152
v 0.333881 -0.160585 0.333881
v 0.300152 -0.115372 0.584292
v 0.000000 -0.121705 0.623642
v 0.000000 -0.165651 0.356367
v 0.333881 -0.160585 0.333881
v 0.584291 -0.115372 0.300152
v 0.484392 -0.084710 0.484392
v 0.300152 -0.115372 0.584292
v -0.288909 0.000000 0.667762
v -0.528077 0.000000 0.528077
v -0.484392 -0.084710 0.484392
v -0.300152 -0.115372 0.584291
v -0.288909 0.000000 0.667762
v -0.300152 0.115373 0.584291
v -0.484392 0.084711 0.484392
v -0.528077 0.000000 0.528077
v -0.288909 0.000000 0.667762
v 0.000000 0.000000 0.712733
v 0.000000 0.121705 0.623642
v -0.300152 0.115373 0.584291
v -0.288909 0.000000 0.667762
v -0.300152 -0.115372 0.584291
v 0.000000 -0.121705 0.623642
v 0.000000 0.000000 0.712733
v 0.288909 0.000000 -0.667762
v 0.528077 0.000000 -0.528077
v 0.484392 -0.084711 -0.484392
v 0.300152 -0.115373 -0.584291
v 0.288909 0.000000 -0.667762
v 0.300152 0.115372 -0.584292
v 0.484392 0.084710 -0.484392
v 0.528077 0.000000 -0.528077
v 0.288909 0.000000 -0.667762
v 0.000000 0.000000 -0.712733
v 0.000000 0.121705 -0.623642
v 0.300152 0.115372 -0.584292
v 0.288909 0.000000 -0.667762
v 0.300152 -0.115373 -0.584291
v 0.000000 -0.121705 -0.623642
v 0.000000 0.000000 -0.712733
v 0.333881 -0.160585 -0.333881
v 0.300152 -0.115373 -0.584291
v 0.484392 -0.084711 -0.484392
v 0.584292 -0.115373 -0.300152
v 0.333881 -0.160585 -0.333881
v 0.000000 -0.165651 -0.356367
v 0.000000 -0.121705 -0.623642
v 0.300152 -0.115373 -0.584291
v 0.333881 -0.160585 -0.333881
v 0.584292 -0.115373 -0.300152
v 0.623642 -0.121705 0.000000
v 0.356367 -0.165651 0.000000
v -0.333881 0.160585 -0.333881
v -0.300152 0.115372 -0.584292
v -0.484392 0.084710 -0.484392
v -0.584291 0.115372 -0.300152
v -0.333881 0.160585 -0.333881
v 0.000000 0.165651 -0.356367
v 0.000000 0.121705 -0.623642
v -0.300152 0.115372 -0.584292
v -0.333881 0.160585 -0.333881
v -0.584291 0.115372 -0.300152
v -0.623642 0.121705 0.000000
v -0.356367 0.165651 0.000000
v 0.333881 0.160585 -0.333881
v 0.300152 0.115372 -0.584292
v 0.000000 0.121705 -0.623642
v 0.000000 0.165651 -0.356367
v 0.333881 0.160585 -0.333881
v 0.584292 0.115372 -0.300152
v 0.484392 0.084710 -0.484392
v 0.300152 0.115372 -0.584292
v 0.333881 0.160585 -0.333881
v 0.356367 0.165651 0.000000
v 0.623642 0.121705 0.000000
v 0.584292 0.115372 -0.300152
v -0.333881 -0.160585 -0.333881
v -0.300152 -0.115373 -0.584291
v 0.000000 -0.121705 -0.623642
v 0.000000 -0.165651 -0.356367
v -0.333881 -0.160585 -0.333881
v -0.584291 -0.115373 -0.300152
v -0.484392 -0.084711 -0.484392
v -0.300152 -0.115373 -0.584291
v -0.333881 -0.160585 -0.333881
v -0.356367 -0.165651 0.000000
v -0.623642 -0.121705 0.000000
v -0.584291 -0.115373 -0.300152
v -0.667762 0.000000 -0.288909
v -0.528077 0.000000 -0.528077
v -0.484392 -0.084711 -0.484392
v -0.584291 -0.115373 -0.300152
v -0.667762 0.000000 -0.288909
v -0.584291 0.115372 -0.300152
v -0.484392 0.084710 -0.484392
v -0.528077 0.000000 -0.528077
v -0.667762 0.000000 -0.288909
v -0.712733 0.000000 0.000000
v -0.623642 0.121705 0.000000
v -0.584291 0.115372 -0.300152
v -0.667762 0.000000 -0.288909
v -0.584291 -0.115373 -0.300152
v -0.623642 -0.121705 0.000000
v -0.712733 0.000000 0.000000
v 0.667762 0.000000 0.288909
v 0.528077 0.000000 0.528077
v 0.484392 -0.084710 0.484392
v 0.584291 -0.115372 0.300152
v 0.667762 0.000000 0.288909
v 0.584291 0.115373 0.300152
v 0.484392 0.084711 0.484392
v 0.528077 0.000000 0.528077
v 0.667762 0.000000 0.288909
v 0.712733 0.000000 0.000000
v 0.623642 0.121705 0.000000
v 0.584291 0.115373 0.300152
v 0.667762 0.000000 0.288909
v 0.584291 -0.115372 0.300152
v 0.623642 -0.121705 0.000000
v 0.712733 0.000000 0.000000
v -0.333881 -0.160585 -0.333881
v 0.000000 -0.165651 -0.356367
v 0.000000 -0.168184 0.000000
v -0.356367 -0.165651 0.000000
v 0.333881 -0.160585 -0.333881
v -0.333881 -0.160585 0.333881
v 0.356367 -0.165651 0.000000
v 0.000000 -0.165651 0.356367
v 0.333881 -0.160585 0.333881
v 0.333881 0.160585 -0.333881
v 0.000000 0.165651 -0.356367
v 0.000000 0.168184 0.000000
v 0.356367 0.165651 0.000000
v -0.333881 0.160585 -0.333881
v 0.333881 0.160585 0.333881
v -0.356367 0.165651 0.000000
v 0.000000 0.165651 0.356367
v -0.333881 0.160585 0.333881
v -0.427951 0.093246 0.606716
v -0.593801 0.093246 0.440866
v -0.527329 0.014323 0.549166
v 0.427951 0.093246 0.606716
v 0.527329 0.014323 0.549166
v 0.593801 0.093246 0.440866
v -0.427951 0.093246 -0.606716
v -0.527329 0.014323 -0.549166
v -0.593801 0.093246 -0.440866
v 0.427951 0.093246 -0.606716
v 0.593801 0.093246 -0.440866
v 0.527329 0.014323 -0.549166
v -0.414905 0.076084 0.593669
v -0.510349 0.008929 0.532185
v -0.580866 0.075224 0.427931
v 0.414905 0.076084 0.593669
v 0.580866 0.075224 0.427931
v 0.510349 0.008929 0.532185
v -0.414905 0.076084 -0.593669
v -0.580866 0.075224 -0.427931
v -0.510349 0.008929 -0.532185
v 0.414905 0.076084 -0.593669
v 0.510349 0.008929 -0.532185
v 0.580866 0.075224 -0.427931
v -0.618296 0.148959 0.000000
v -0.614609 0.131656 0.187302
v -0.335597 0.194460 0.197703
v -0.326382 0.182191 0.000000
v -0.335597 0.194460 -0.197703
v -0.614609 0.131656 -0.187301
v -0.354464 0.117356 0.599190
v -0.611562 0.117356 0.342093
v -0.593801 0.093246 0.440866
v -0.427951 0.093246 0.606716
v 0.000000 0.197035 0.210214
v -0.335597 0.194460 0.197703
v -0.354464 0.117356 0.599190
v 0.000000 0.148959 0.663143
v -0.326382 0.182191 0.000000
v -0.335597 0.194460 0.197703
v 0.000000 0.197035 0.210214
v 0.000000 0.219348 0.000000
v 0.000000 0.197035 -0.210214
v -0.335597 0.194460 -0.197703
v -0.354464 0.117356 0.599190
v -0.335597 0.194460 0.197703
v -0.614609 0.131656 0.187302
v -0.611562 0.117356 0.342093
v 0.618296 0.148959 0.000000
v 0.335597 0.194460 0.197703
v 0.614609 0.131656 0.187301
v 0.326382 0.182191 0.000000
v 0.335597 0.194460 -0.197703
v 0.614609 0.131656 -0.187302
v 0.354464 0.117356 0.599190
v 0.427951 0.093246 0.606716
v 0.593801 0.093246 0.440866
v 0.611562 0.117356 0.342093
v 0.000000 0.197035 0.210214
v 0.000000 0.148959 0.663143
v 0.354464 0.117356 0.599190
v 0.335597 0.194460 0.197703
v 0.326382 0.182191 0.000000
v 0.000000 0.197035 0.210214
v 0.335597 0.194460 0.197703
v 0.000000 0.219348 0.000000
v 0.000000 0.197035 -0.210214
v 0.335597 0.194460 -0.197703
v 0.354464 0.117356 0.599190
v 0.611562 0.117356 0.342093
v 0.614609 0.131656 0.187301
v 0.335597 0.194460 0.197703
v -0.354464 0.117356 -0.599190
v -0.427951 0.093246 -0.606716
v -0.593801 0.093246 -0.440866
v -0.611562 0.117356 -0.342093
v 0.000000 0.197035 -0.210214
v 0.000000 0.148958 -0.663143
v -0.354464 0.117356 -0.599190
v -0.335597 0.194460 -0.197703
v -0.354464 0.117356 -0.599190
v -0.611562 0.117356 -0.342093
v -0.614609 0.131656 -0.187301
v -0.335597 0.194460 -0.197703
v 0.354464 0.117356 -0.599190
v 0.611562 0.117356 -0.342093
v 0.593801 0.093246 -0.440866
v 0.427951 0.093246 -0.606716
v 0.000000 0.197035 -0.210214
v 0.335597 0.194460 -0.197703
v 0.354464 0.117356 -0.599190
v 0.000000 0.148958 -0.663143
v 0.354464 0.117356 -0.599190
v 0.335597 0.194460 -0.197703
v 0.614609 0.131656 -0.187302
v 0.611562 0.117356 -0.342093
v -0.612981 0.130041 0.000000
v -0.331738 0.175317 0.195049
v -0.608893 0.112831 0.184705
v -0.322770 0.162985 0.000000
v -0.331738 0.175317 -0.195049
v -0.608893 0.112831 -0.184705
v -0.349583 0.098716 0.593369
v -0.414905 0.076084 0.593669
v -0.580866 0.075224 0.427931
v -0.604926 0.099053 0.336367
v 0.000000 0.177671 0.207468
v 0.000000 0.129866 0.658523
v -0.349583 0.098716 0.593369
v -0.331738 0.175317 0.195049
v -0.322770 0.162985 0.000000
v 0.000000 0.177671 0.207468
v -0.331738 0.175317 0.195049
v 0.000000 0.199922 0.000000
v 0.000000 0.177671 -0.207468
v -0.331738 0.175317 -0.195049
v -0.349583 0.098716 0.593369
v -0.604926 0.099053 0.336367
v -0.608893 0.112831 0.184705
v -0.331738 0.175317 0.195049
v 0.612981 0.130041 0.000000
v 0.608893 0.112831 0.184705
v 0.331738 0.175317 0.195048
v 0.322770 0.162985 0.000000
v 0.331738 0.175317 -0.195049
v 0.608893 0.112831 -0.184705
v 0.349583 0.098716 0.593369
v 0.604926 0.099053 0.336367
v 0.580866 0.075224 0.427931
v 0.414905 0.076084 0.593669
v 0.000000 0.177671 0.207468
v 0.331738 0.175317 0.195048
v 0.349583 0.098716 0.593369
v 0.000000 0.129866 0.658523
v 0.322770 0.162985 0.000000
v 0.331738 0.175317 0.195048
v 0.000000 0.177671 0.207468
v 0.000000 0.199922 0.000000
v 0.000000 0.177671 -0.207468
v 0.331738 0.175317 -0.195049
v 0.349583 0.098716 0.593369
v 0.331738 0.175317 0.195048
v 0.608893 0.112831 0.184705
v 0.604926 0.099053 0.336367
v -0.349583 0.098716 -0.593369
v -0.604926 0.099053 -0.336367
v -0.580866 0.075224 -0.427931
v -0.414905 0.076084 -0.593669
v 0.000000 0.177671 -0.207468
v -0.331738 0.175317 -0.195049
v -0.349583 0.098716 -0.593369
v 0.000000 0.129865 -0.658523
v -0.349583 0.098716 -0.593369
v -0.331738 0.175317 -0.195049
v -0.608893 0.112831 -0.184705
v -0.604926 0.099053 -0.336367
v 0.349583 0.098716 -0.593369
v 0.414905 0.076084 -0.593669
v 0.580866 0.075224 -0.427931
v 0.604926 0.099053 -0.336367
v 0.000000 0.177671 -0.207468
v 0.000000 0.129865 -0.658523
v 0.349583 0.098716 -0.593369
v 0.331738 0.175317 -0.195049
v 0.349583 0.098716 -0.593369
v 0.604926 0.099053 -0.336367
v 0.608893 0.112831 -0.184705
v 0.331738 0.175317 -0.195049
v -0.354464 0.117356 0.599190
v -0.349583 0.098716 0.593369
v 0.000000 0.129866 0.658523
v 0.000000 0.148959 0.663143
v -0.427951 0.093246 0.606716
v -0.414905 0.076084 0.593669
v -0.349583 0.098716 0.593369
v -0.354464 0.117356 0.599190
v -0.611562 0.117356 0.342093
v -0.604926 0.099053 0.336367
v -0.580866 0.075224 0.427931
v -0.593801 0.093246 0.440866
v -0.593801 0.093246 0.440866
v -0.580866 0.075224 0.427931
v -0.510349 0.008929 0.532185
v -0.527329 0.014323 0.549166
v -0.527329 0.014323 0.549166
v -0.510349 0.008929 0.532185
v -0.414905 0.076084 0.593669
v -0.427951 0.093246 0.606716
v -0.614609 0.131656 0.187302
v -0.604926 0.099053 0.336367
v -0.611562 0.117356 0.342093
v -0.608893 0.112831 0.184705
v -0.618296 0.148959 0.000000
v -0.612981 0.130041 0.000000
v -0.614609 0.131656 -0.187301
v -0.608893 0.112831 -0.184705
v -0.611562 0.117356 -0.342093
v -0.604926 0.099053 -0.336367
v 0.000000 0.148959 0.663143
v 0.000000 0.129866 0.658523
v 0.349583 0.098716 0.593369
v 0.354464 0.117356 0.599190
v 0.354464 0.117356 0.599190
v 0.349583 0.098716 0.593369
v 0.414905 0.076084 0.593669
v 0.427951 0.093246 0.606716
v 0.593801 0.093246 0.440866
v 0.580866 0.075224 0.427931
v 0.604926 0.099053 0.336367
v 0.611562 0.117356 0.342093
v 0.527329 0.014323 0.549166
v 0.510349 0.008929 0.532185
v 0.580866 0.075224 0.427931
v 0.593801 0.093246 0.440866
v 0.427951 0.093246 0.606716
v 0.414905 0.076084 0.593669
v 0.510349 0.008929 0.532185
v 0.527329 0.014323 0.549166
v 0.611562 0.117356 0.342093
v 0.604926 0.099053 0.336367
v 0.608893 0.112831 0.184705
v 0.614609 0.131656 0.187301
v 0.612981 0.130041 0.000000
v 0.618296 0.148959 0.000000
v 0.608893 0.112831 -0.184705
v 0.614609 0.131656 -0.187302
v 0.604926 0.099053 -0.336367
v 0.611562 0.117356 -0.342093
v 0.000000 0.148958 -0.663143
v 0.000000 0.129865 -0.658523
v -0.349583 0.098716 -0.593369
v -0.354464 0.117356 -0.599190
v -0.354464 0.117356 -0.599190
v -0.349583 0.098716 -0.593369
v -0.414905 0.076084 -0.593669
v -0.427951 0.093246 -0.606716
v -0.593801 0.093246 -0.440866
v -0.580866 0.075224 -0.427931
v -0.604926 0.099053 -0.336367
v -0.611562 0.117356 -0.342093
v -0.527329 0.014323 -0.549166
v -0.510349 0.008929 -0.532185
v -0.580866 0.075224 -0.427931
v -0.593801 0.093246 -0.440866
v -0.427951 0.093246 -0.606716
v -0.414905 0.076084 -0.593669
v -0.510349 0.008929 -0.532185
v -0.527329 0.014323 -0.549166
v 0.354464 0.117356 -0.599190
v 0.349583 0.098716 -0.593369
v 0.000000 0.129865 -0.658523
v 0.000000 0.148958 -0.663143
v 0.427951 0.093246 -0.606716
v 0.414905 0.076084 -0.593669
v 0.349583 0.098716 -0.593369
v 0.354464 0.117356 -0.599190
v 0.611562 0.117356 -0.342093
v 0.604926 0.099053 -0.336367
v 0.580866 0.075224 -0.427931
v 0.593801 0.093246 -0.440866
v 0.593801 0.093246 -0.440866
v 0.580866 0.075224 -0.427931
v 0.510349 0.008929 -0.532185
v 0.527329 0.014323 -0.549166
v 0.527329 0.014323 -0.549166
v 0.510349 0.008929 -0.532185
v 0.414905 0.076084 -0.593669
v 0.427951 0.093246 -0.606716
v 0.341936 0.328970 0.561545
v 0.174991 0.425857 0.311708
v -0.057873 0.332108 0.620302
v 0.174991 0.425857 0.311708
v -0.266468 0.446941 0.296547
v -0.030570 0.520457 0.002305
v 0.001720 0.359382 -0.683024
v -0.013127 0.439300 -0.371917
v 0.377807 0.391617 -0.510936
v -0.643092 0.324960 -0.233147
v -0.391422 0.484821 -0.134290
v -0.372140 0.354565 -0.521766
v -0.266468 0.446941 0.296547
v -0.030570 0.520457 0.002305
v -0.391422 0.484821 -0.134290
v -0.629962 0.338999 0.163371
v -0.391422 0.484821 -0.134290
v -0.643092 0.324960 -0.233147
v -0.391422 0.484821 -0.134290
v -0.030570 0.520457 0.002305
v -0.013127 0.439300 -0.371917
v -0.391422 0.484821 -0.134290
v -0.013127 0.439300 -0.371917
v -0.372140 0.354565 -0.521766
v -0.372140 0.354565 -0.521766
v -0.013127 0.439300 -0.371917
v 0.001720 0.359382 -0.683024
v -0.013127 0.439300 -0.371917
v -0.030570 0.520457 0.002305
v 0.329316 0.435175 -0.098406
v -0.013127 0.439300 -0.371917
v 0.329316 0.435175 -0.098406
v 0.377807 0.391617 -0.510936
v 0.329316 0.435175 -0.098406
v -0.030570 0.520457 0.002305
v 0.174991 0.425857 0.311708
v 0.329316 0.435175 -0.098406
v 0.174991 0.425857 0.311708
v 0.570213 0.363647 0.224302
v 0.570213 0.363647 0.224302
v 0.174991 0.425857 0.311708
v 0.341936 0.328970 0.561545
v -0.057873 0.332108 0.620302
v -0.266468 0.446941 0.296547
v -0.449137 0.324169 0.523401
v -0.616221 0.216170 0.382897
v -0.449137 0.324169 0.523401
v -0.629962 0.338999 0.163371
v -0.616221 0.216170 0.382897
v -0.629962 0.338999 0.163371
v -0.731464 0.224405 -0.035892
v -0.731464 0.224405 -0.035892
v -0.629962 0.338999 0.163371
v -0.643092 0.324960 -0.233147
v -0.637581 0.256234 -0.490154
v -0.643092 0.324960 -0.233147
v -0.372140 0.354565 -0.521766
v 0.221614 0.244832 -0.670124
v 0.001720 0.359382 -0.683024
v 0.377807 0.391617 -0.510936
v 0.221614 0.244832 -0.670124
v 0.377807 0.391617 -0.510936
v 0.557663 0.237879 -0.390369
v 0.557663 0.237879 -0.390369
v 0.377807 0.391617 -0.510936
v 0.602108 0.328873 -0.175871
v 0.701841 0.238043 0.030258
v 0.602108 0.328873 -0.175871
v 0.570213 0.363647 0.224302
v 0.701841 0.238043 0.030258
v 0.570213 0.363647 0.224302
v 0.527435 0.223055 0.440844
v 0.527435 0.223055 0.440844
v 0.570213 0.363647 0.224302
v 0.341936 0.328970 0.561545
v 0.172891 0.230412 0.734314
v 0.341936 0.328970 0.561545
v -0.057873 0.332108 0.620302
v 0.172891 0.230412 0.734314
v -0.057873 0.332108 0.620302
v -0.280625 0.215070 0.664570
v -0.280625 0.215070 0.664570
v -0.057873 0.332108 0.620302
v -0.449137 0.324169 0.523401
v -0.731464 0.224405 -0.035892
v -0.643092 0.324960 -0.233147
v -0.637581 0.256234 -0.490154
v 0.557663 0.237879 -0.390369
v 0.602108 0.328873 -0.175871
v 0.701841 0.238043 0.030258
v 0.527435 0.223055 0.440844
v 0.341936 0.328970 0.561545
v 0.172891 0.230412 0.734314
v -0.280625 0.215070 0.664570
v -0.449137 0.324169 0.523401
v -0.616221 0.216170 0.382897
v 0.213956 -0.259885 0.659276
v 0.123078 -0.388168 0.377932
v 0.533113 -0.284238 0.387511
v -0.571661 -0.270801 0.415146
v -0.318985 -0.375449 0.231958
v -0.203983 -0.284239 0.627006
v -0.592634 -0.292411 -0.430379
v -0.320035 -0.381468 -0.232721
v -0.659527 -0.284238 0.000000
v 0.225833 -0.292177 -0.695861
v 0.123284 -0.391238 -0.378563
v -0.203983 -0.284239 -0.627006
v 0.692952 -0.259884 0.000000
v 0.394918 -0.375448 0.000000
v 0.535087 -0.287012 -0.388945
v 0.394918 -0.375448 0.000000
v 0.000281 -0.417732 0.000000
v 0.123284 -0.391238 -0.378563
v 0.394918 -0.375448 0.000000
v 0.123284 -0.391238 -0.378563
v 0.535087 -0.287012 -0.388945
v 0.535087 -0.287012 -0.388945
v 0.123284 -0.391238 -0.378563
v 0.225833 -0.292177 -0.695861
v 0.123284 -0.391238 -0.378563
v 0.000281 -0.417732 0.000000
v -0.320035 -0.381468 -0.232721
v -0.320035 -0.381468 -0.232721
v 0.000281 -0.417732 0.000000
v -0.318985 -0.375449 0.231958
v -0.320035 -0.381468 -0.232721
v -0.318985 -0.375449 0.231958
v -0.659527 -0.284238 0.000000
v -0.659527 -0.284238 0.000000
v -0.318985 -0.375449 0.231958
v -0.571661 -0.270801 0.415146
v -0.318985 -0.375449 0.231958
v 0.000281 -0.417732 0.000000
v 0.123078 -0.388168 0.377932
v -0.318985 -0.375449 0.231958
v 0.123078 -0.388168 0.377932
v -0.203983 -0.284239 0.627006
v -0.203983 -0.284239 0.627006
v 0.123078 -0.388168 0.377932
v 0.213956 -0.259885 0.659276
v 0.123078 -0.388168 0.377932
v 0.000281 -0.417732 0.000000
v 0.394918 -0.375448 0.000000
v 0.123078 -0.388168 0.377932
v 0.394918 -0.375448 0.000000
v 0.533113 -0.284238 0.387511
v 0.533113 -0.284238 0.387511
v 0.394918 -0.375448 0.000000
v 0.692952 -0.259884 0.000000
v 0.726233 -0.164599 -0.236053
v 0.692952 -0.259884 0.000000
v 0.535087 -0.287012 -0.388945
v 0.726233 -0.164599 -0.236053
v 0.535087 -0.287012 -0.388945
v 0.437758 -0.159056 -0.601935
v 0.437758 -0.159056 -0.601935
v 0.535087 -0.287012 -0.388945
v 0.225833 -0.292177 -0.695861
v -0.000007 -0.170048 -0.782331
v 0.225833 -0.292177 -0.695861
v -0.203983 -0.284239 -0.627006
v -0.000007 -0.170048 -0.782331
v -0.203983 -0.284239 -0.627006
v -0.436906 -0.159056 -0.601935
v -0.436906 -0.159056 -0.601935
v -0.203983 -0.284239 -0.627006
v -0.592634 -0.292411 -0.430379
v -0.707192 -0.159056 -0.229916
v -0.592634 -0.292411 -0.430379
v -0.659527 -0.284238 0.000000
v -0.707192 -0.159056 -0.229916
v -0.659527 -0.284238 0.000000
v -0.707192 -0.159056 0.229916
v -0.707192 -0.159056 0.229916
v -0.659527 -0.284238 0.000000
v -0.571661 -0.270801 0.415146
v -0.436906 -0.159056 0.601935
v -0.571661 -0.270801 0.415146
v -0.203983 -0.284239 0.627006
v -0.436906 -0.159056 0.601935
v -0.203983 -0.284239 0.627006
v 0.000358 -0.160794 0.750089
v 0.000358 -0.160794 0.750089
v -0.203983 -0.284239 0.627006
v 0.213956 -0.259885 0.659276
v 0.459929 -0.169758 0.631727
v 0.213956 -0.259885 0.659276
v 0.533113 -0.284238 0.387511
v 0.459929 -0.169758 0.631727
v 0.533113 -0.284238 0.387511
v 0.730203 -0.165810 0.237393
v 0.730203 -0.165810 0.237393
v 0.533113 -0.284238 0.387511
v 0.692952 -0.259884 0.000000
v 0.437758 -0.159056 -0.601935
v 0.225833 -0.292177 -0.695861
v -0.000007 -0.170048 -0.782331
v -0.436906 -0.159056 -0.601935
v -0.592634 -0.292411 -0.430379
v -0.707192 -0.159056 -0.229916
v 0.000358 -0.160794 0.750089
v 0.213956 -0.259885 0.659276
v 0.459929 -0.169758 0.631727
v 0.730203 -0.165810 0.237393
v 0.692952 -0.259884 0.000000
v 0.726233 -0.164599 -0.236053
v 0.602108 0.328873 -0.175871
v 0.329316 0.435175 -0.098406
v 0.570213 0.363647 0.224302
v 0.377807 0.391617 -0.510936
v -0.449137 0.324169 0.523401
v -0.266468 0.446941 0.296547
v -0.629962 0.338999 0.163371
v -0.391422 0.484821 -0.134290
v -0.637581 0.256234 -0.490154
v -0.372140 0.354565 -0.521766
v -0.215742 0.240349 -0.681348
v 0.001720 0.359382 -0.683024
v -0.215742 0.240349 -0.681348
v 0.001720 0.359382 -0.683024
v 0.221614 0.244832 -0.670124
v -0.215546 0.198550 -0.682224
v 0.218657 0.199649 -0.662953
v -0.637581 0.256234 -0.490154
v -0.594603 0.174400 -0.456731
v -0.731268 0.182605 -0.036768
v -0.731464 0.224405 -0.035892
v -0.731464 0.224405 -0.035892
v -0.731268 0.182605 -0.036768
v -0.616025 0.174370 0.382022
v -0.616221 0.216170 0.382897
v -0.215742 0.240349 -0.681348
v -0.215546 0.198550 -0.682224
v -0.594603 0.174400 -0.456731
v -0.637581 0.256234 -0.490154
v 0.701841 0.238043 0.030258
v 0.732648 0.138133 0.029216
v 0.584470 0.169894 -0.409251
v 0.557663 0.237879 -0.390369
v 0.172891 0.230412 0.734314
v 0.157380 0.171901 0.673000
v 0.520252 0.178480 0.434142
v 0.527435 0.223055 0.440844
v 0.557663 0.237879 -0.390369
v 0.584470 0.169894 -0.409251
v 0.218657 0.199649 -0.662953
v 0.221614 0.244832 -0.670124
v 0.527435 0.223055 0.440844
v 0.520252 0.178480 0.434142
v 0.732648 0.138133 0.029216
v 0.701841 0.238043 0.030258
v -0.616221 0.216170 0.382897
v -0.616025 0.174370 0.382022
v -0.287150 0.144147 0.680953
v -0.280625 0.215070 0.664570
v -0.280625 0.215070 0.664570
v -0.287150 0.144147 0.680953
v 0.157380 0.171901 0.673000
v 0.172891 0.230412 0.734314
v -0.616025 0.174370 0.382022
v -0.731268 0.182605 -0.036768
v -0.594603 0.174400 -0.456731
v -0.287150 0.144147 0.680953
v -0.215546 0.198550 -0.682224
v 0.157380 0.171901 0.673000
v 0.218657 0.199649 -0.662953
v 0.520252 0.178480 0.434142
v 0.584470 0.169894 -0.409251
v 0.732648 0.138133 0.029216
v 0.123284 -0.391238 -0.378563
v -0.320035 -0.381468 -0.232721
v -0.203983 -0.284239 -0.627006
v -0.592634 -0.292411 -0.430379
v -0.707192 -0.159056 0.229916
v -0.571661 -0.270801 0.415146
v -0.436906 -0.159056 0.601935
v -0.707192 -0.114802 0.229916
v -0.436906 -0.114802 0.601935
v -0.000007 -0.170048 -0.782331
v 0.000426 -0.075405 -0.790870
v 0.454468 -0.090887 -0.624936
v 0.437758 -0.159056 -0.601935
v -0.707192 -0.159056 -0.229916
v -0.707192 -0.114802 -0.229916
v -0.436906 -0.114802 -0.601935
v -0.436906 -0.159056 -0.601935
v 0.437758 -0.159056 -0.601935
v 0.454468 -0.090887 -0.624936
v 0.708044 -0.114802 -0.229916
v 0.726233 -0.164599 -0.236053
v -0.436906 -0.159056 -0.601935
v -0.436906 -0.114802 -0.601935
v 0.000426 -0.075405 -0.790870
v -0.000007 -0.170048 -0.782331
v 0.459929 -0.169758 0.631727
v 0.437758 -0.114802 0.601935
v 0.000426 -0.110498 0.749149
v 0.000358 -0.160794 0.750089
v -0.707192 -0.159056 0.229916
v -0.707192 -0.114802 0.229916
v -0.707192 -0.114802 -0.229916
v -0.707192 -0.159056 -0.229916
v 0.000358 -0.160794 0.750089
v 0.000426 -0.110498 0.749149
v -0.436906 -0.114802 0.601935
v -0.436906 -0.159056 0.601935
v 0.726233 -0.164599 -0.236053
v 0.708044 -0.114802 -0.229916
v 0.733300 -0.092465 0.238121
v 0.730203 -0.165810 0.237393
v 0.730203 -0.165810 0.237393
v 0.733300 -0.092465 0.238121
v 0.437758 -0.114802 0.601935
v 0.459929 -0.169758 0.631727
v -0.436906 -0.114802 -0.601935
v -0.707192 -0.114802 -0.229916
v -0.707192 -0.114802 0.229916
v -0.436906 -0.114802 0.601935
v 0.000426 -0.075405 -0.790870
v 0.000426 -0.110498 0.749149
v 0.454468 -0.090887 -0.624936
v 0.437758 -0.114802 0.601935
v 0.733300 -0.092465 0.238121
v 0.708044 -0.114802 -0.229916
v -0.305578 0.455567 0.023260
v -0.280107 0.459316 0.018493
v -0.292902 0.484818 0.010471
v -0.306435 0.482825 0.013004
v -0.280107 0.459316 0.018493
v -0.293098 0.469811 -0.042659
v -0.299805 0.490393 -0.022017
v -0.292902 0.484818 0.010471
v -0.293098 0.469811 -0.042659
v -0.318569 0.466061 -0.037891
v -0.313337 0.488401 -0.019484
v -0.299805 0.490393 -0.022017
v -0.318569 0.466061 -0.037891
v -0.305578 0.455567 0.023260
v -0.306435 0.482825 0.013004
v -0.313337 0.488401 -0.019484
v -0.299805 0.490393 -0.022017
v -0.313337 0.488401 -0.019484
v -0.306435 0.482825 0.013004
v -0.292902 0.484818 0.010471
v -0.436017 0.421748 0.037656
v -0.413136 0.424482 0.050089
v -0.419115 0.451583 0.039686
v -0.431271 0.450130 0.033081
v -0.413136 0.424482 0.050089
v -0.386117 0.443832 -0.003893
v -0.404761 0.461862 0.011006
v -0.419115 0.451583 0.039686
v -0.386117 0.443832 -0.003893
v -0.408998 0.441098 -0.016325
v -0.416917 0.460410 0.004401
v -0.404761 0.461862 0.011006
v -0.408998 0.441098 -0.016325
v -0.436017 0.421748 0.037656
v -0.431271 0.450130 0.033081
v -0.416917 0.460410 0.004401
v -0.404761 0.461862 0.011006
v -0.416917 0.460410 0.004401
v -0.431271 0.450130 0.033081
v -0.419115 0.451583 0.039686
v -0.274868 0.392499 -0.371037
v -0.250171 0.393733 -0.379646
v -0.264983 0.412529 -0.397131
v -0.278104 0.411873 -0.392557
v -0.250171 0.393733 -0.379646
v -0.269205 0.374565 -0.436994
v -0.275095 0.402345 -0.427599
v -0.264983 0.412529 -0.397131
v -0.269205 0.374565 -0.436994
v -0.293902 0.373330 -0.428384
v -0.288216 0.401689 -0.423025
v -0.275095 0.402345 -0.427599
v -0.293902 0.373330 -0.428384
v -0.274868 0.392499 -0.371037
v -0.278104 0.411873 -0.392557
v -0.288216 0.401689 -0.423025
v -0.275095 0.402345 -0.427599
v -0.288216 0.401689 -0.423025
v -0.278104 0.411873 -0.392557
v -0.264983 0.412529 -0.397131
v 0.197199 0.398628 -0.336912
v 0.177708 0.405374 -0.320782
v 0.196606 0.428163 -0.319385
v 0.206961 0.424579 -0.327954
v 0.177708 0.405374 -0.320782
v 0.218784 0.408923 -0.272630
v 0.218428 0.430049 -0.293803
v 0.196606 0.428163 -0.319385
v 0.218784 0.408923 -0.272630
v 0.238275 0.402177 -0.288759
v 0.228783 0.426464 -0.302372
v 0.218428 0.430049 -0.293803
v 0.238275 0.402177 -0.288759
v 0.197199 0.398628 -0.336912
v 0.206961 0.424579 -0.327954
v 0.228783 0.426464 -0.302372
v 0.218428 0.430049 -0.293803
v 0.228783 0.426464 -0.302372
v 0.206961 0.424579 -0.327954
v 0.196606 0.428163 -0.319385
v 0.354922 0.409279 0.032283
v 0.329719 0.412863 0.030367
v 0.341844 0.424031 0.047044
v 0.355234 0.422127 0.048062
v 0.329719 0.412863 0.030367
v 0.324157 0.411379 0.093450
v 0.338889 0.423242 0.080559
v 0.341844 0.424031 0.047044
v 0.324157 0.411379 0.093450
v 0.349360 0.407794 0.095366
v 0.352279 0.421338 0.081577
v 0.338889 0.423242 0.080559
v 0.349360 0.407794 0.095366
v 0.354922 0.409279 0.032283
v 0.355234 0.422127 0.048062
v 0.352279 0.421338 0.081577
v 0.338889 0.423242 0.080559
v 0.352279 0.421338 0.081577
v 0.355234 0.422127 0.048062
v 0.341844 0.424031 0.047044
v -0.055219 0.385271 0.391258
v -0.047258 0.396091 0.368783
v -0.063526 0.417211 0.381733
v -0.067756 0.411462 0.393674
v -0.047258 0.396091 0.368783
v -0.107646 0.404096 0.351246
v -0.095609 0.421463 0.372416
v -0.063526 0.417211 0.381733
v -0.107646 0.404096 0.351246
v -0.115607 0.393276 0.373721
v -0.099839 0.415715 0.384357
v -0.095609 0.421463 0.372416
v -0.115607 0.393276 0.373721
v -0.055219 0.385271 0.391258
v -0.067756 0.411462 0.393674
v -0.099839 0.415715 0.384357
v -0.095609 0.421463 0.372416
v -0.099839 0.415715 0.384357
v -0.067756 0.411462 0.393674
v -0.063526 0.417211 0.381733
v -0.016099 0.448052 -0.243042
v 0.000590 0.450449 -0.223009
v 0.009980 0.470406 -0.242807
v 0.001114 0.469133 -0.253450
v 0.000590 0.450449 -0.223009
v 0.048841 0.435914 -0.261466
v 0.035615 0.462684 -0.263238
v 0.009980 0.470406 -0.242807
v 0.048841 0.435914 -0.261466
v 0.032153 0.433517 -0.281499
v 0.026749 0.461410 -0.273881
v 0.035615 0.462684 -0.263238
v 0.032153 0.433517 -0.281499
v -0.016099 0.448052 -0.243042
v 0.001114 0.469133 -0.253450
v 0.026749 0.461410 -0.273881
v 0.035615 0.462684 -0.263238
v 0.026749 0.461410 -0.273881
v 0.001114 0.469133 -0.253450
v 0.009980 0.470406 -0.242807
v 0.194060 0.443340 -0.133126
v 0.179815 0.447649 -0.111650
v 0.201939 0.461359 -0.109773
v 0.209507 0.459069 -0.121183
v 0.179815 0.447649 -0.111650
v 0.230288 0.439189 -0.075670
v 0.228754 0.456864 -0.090657
v 0.201939 0.461359 -0.109773
v 0.230288 0.439189 -0.075670
v 0.244533 0.434880 -0.097146
v 0.236322 0.454575 -0.102067
v 0.228754 0.456864 -0.090657
v 0.244533 0.434880 -0.097146
v 0.194060 0.443340 -0.133126
v 0.209507 0.459069 -0.121183
v 0.236322 0.454575 -0.102067
v 0.228754 0.456864 -0.090657
v 0.236322 0.454575 -0.102067
v 0.209507 0.459069 -0.121183
v 0.201939 0.461359 -0.109773
v 0.093923 0.427204 0.252029
v 0.079024 0.437028 0.232871
v 0.077399 0.457214 0.254510
v 0.085314 0.451994 0.264689
v 0.079024 0.437028 0.232871
v 0.028992 0.437063 0.271797
v 0.050818 0.457233 0.275191
v 0.077399 0.457214 0.254510
v 0.028992 0.437063 0.271797
v 0.043892 0.427239 0.290956
v 0.058734 0.452013 0.285370
v 0.050818 0.457233 0.275191
v 0.043892 0.427239 0.290956
v 0.093923 0.427204 0.252029
v 0.085314 0.451994 0.264689
v 0.058734 0.452013 0.285370
v 0.050818 0.457233 0.275191
v 0.058734 0.452013 0.285370
v 0.085314 0.451994 0.264689
v 0.077399 0.457214 0.254510
v 0.188112 0.333241 0.508126
v 0.173549 0.343322 0.488841
v 0.172026 0.363498 0.510498
v 0.179763 0.358142 0.520744
v 0.173549 0.343322 0.488841
v 0.123153 0.344066 0.527288
v 0.145252 0.363893 0.530924
v 0.172026 0.363498 0.510498
v 0.123153 0.344066 0.527288
v 0.137715 0.333985 0.546572
v 0.152988 0.358537 0.541169
v 0.145252 0.363893 0.530924
v 0.137715 0.333985 0.546572
v 0.188112 0.333241 0.508126
v 0.179763 0.358142 0.520744
v 0.152988 0.358537 0.541169
v 0.145252 0.363893 0.530924
v 0.152988 0.358537 0.541169
v 0.179763 0.358142 0.520744
v 0.172026 0.363498 0.510498
v -0.193434 0.346183 0.490568
v -0.195062 0.360296 0.468573
v -0.208565 0.376981 0.489010
v -0.207700 0.369483 0.500695
v -0.195062 0.360296 0.468573
v -0.258312 0.359444 0.472709
v -0.242168 0.376528 0.491207
v -0.208565 0.376981 0.489010
v -0.258312 0.359444 0.472709
v -0.256684 0.345332 0.494703
v -0.241303 0.369030 0.502893
v -0.242168 0.376528 0.491207
v -0.256684 0.345332 0.494703
v -0.193434 0.346183 0.490568
v -0.207700 0.369483 0.500695
v -0.241303 0.369030 0.502893
v -0.242168 0.376528 0.491207
v -0.241303 0.369030 0.502893
v -0.207700 0.369483 0.500695
v -0.208565 0.376981 0.489010
v -0.460221 0.360432 0.280162
v -0.447692 0.369103 0.258869
v -0.471493 0.386633 0.261022
v -0.478149 0.382026 0.272335
v -0.447692 0.369103 0.258869
v -0.498906 0.356628 0.223656
v -0.498702 0.380005 0.242315
v -0.471493 0.386633 0.261022
v -0.498906 0.356628 0.223656
v -0.511435 0.347957 0.244949
v -0.505358 0.375398 0.253627
v -0.498702 0.380005 0.242315
v -0.511435 0.347957 0.244949
v -0.460221 0.360432 0.280162
v -0.478149 0.382026 0.272335
v -0.505358 0.375398 0.253627
v -0.498702 0.380005 0.242315
v -0.505358 0.375398 0.253627
v -0.478149 0.382026 0.272335
v -0.471493 0.386633 0.261022
v -0.504270 0.355151 -0.332707
v -0.478834 0.360016 -0.329069
v -0.486493 0.374266 -0.351349
v -0.500006 0.371681 -0.353281
v -0.478834 0.360016 -0.329069
v -0.466859 0.344179 -0.388738
v -0.480130 0.365852 -0.383050
v -0.486493 0.374266 -0.351349
v -0.466859 0.344179 -0.388738
v -0.492294 0.339315 -0.392376
v -0.493643 0.363268 -0.384982
v -0.480130 0.365852 -0.383050
v -0.492294 0.339315 -0.392376
v -0.504270 0.355151 -0.332707
v -0.500006 0.371681 -0.353281
v -0.493643 0.363268 -0.384982
v -0.480130 0.365852 -0.383050
v -0.493643 0.363268 -0.384982
v -0.500006 0.371681 -0.353281
v -0.486493 0.374266 -0.351349
v 0.064554 0.362204 -0.531518
v 0.072809 0.364042 -0.506739
v 0.089362 0.383729 -0.521464
v 0.084976 0.382752 -0.534629
v 0.072809 0.364042 -0.506739
v 0.131355 0.348068 -0.525059
v 0.120466 0.375242 -0.531197
v 0.089362 0.383729 -0.521464
v 0.131355 0.348068 -0.525059
v 0.123099 0.346230 -0.549839
v 0.116080 0.374265 -0.544362
v 0.120466 0.375242 -0.531197
v 0.123099 0.346230 -0.549839
v 0.064554 0.362204 -0.531518
v 0.084976 0.382752 -0.534629
v 0.116080 0.374265 -0.544362
v 0.120466 0.375242 -0.531197
v 0.116080 0.374265 -0.544362
v 0.084976 0.382752 -0.534629
v 0.089362 0.383729 -0.521464
v 0.544151 0.314882 -0.273762
v 0.533811 0.334663 -0.260074
v 0.562994 0.339805 -0.259491
v 0.568487 0.329295 -0.266763
v 0.533811 0.334663 -0.260074
v 0.567552 0.317188 -0.209333
v 0.580920 0.330521 -0.232533
v 0.562994 0.339805 -0.259491
v 0.567552 0.317188 -0.209333
v 0.577892 0.297407 -0.223021
v 0.586413 0.320011 -0.239806
v 0.580920 0.330521 -0.232533
v 0.577892 0.297407 -0.223021
v 0.544151 0.314882 -0.273762
v 0.568487 0.329295 -0.266763
v 0.586413 0.320011 -0.239806
v 0.580920 0.330521 -0.232533
v 0.586413 0.320011 -0.239806
v 0.568487 0.329295 -0.266763
v 0.562994 0.339805 -0.259491
v -0.280107 0.459316 0.018493
v -0.305578 0.455567 0.023260
v -0.318569 0.466061 -0.037891
v -0.293098 0.469811 -0.042659
v -0.413136 0.424482 0.050089
v -0.436017 0.421748 0.037656
v -0.408998 0.441098 -0.016325
v -0.386117 0.443832 -0.003893
v -0.250171 0.393733 -0.379646
v -0.274868 0.392499 -0.371037
v -0.293902 0.373330 -0.428384
v -0.269205 0.374565 -0.436994
v 0.177708 0.405374 -0.320782
v 0.197199 0.398628 -0.336912
v 0.238275 0.402177 -0.288759
v 0.218784 0.408923 -0.272630
v 0.329719 0.412863 0.030367
v 0.354922 0.409279 0.032283
v 0.349360 0.407794 0.095366
v 0.324157 0.411379 0.093450
v -0.047258 0.396091 0.368783
v -0.055219 0.385271 0.391258
v -0.115607 0.393276 0.373721
v -0.107646 0.404096 0.351246
v 0.000590 0.450449 -0.223009
v -0.016099 0.448052 -0.243042
v 0.032153 0.433517 -0.281499
v 0.048841 0.435914 -0.261466
v 0.179815 0.447649 -0.111650
v 0.194060 0.443340 -0.133126
v 0.244533 0.434880 -0.097146
v 0.230288 0.439189 -0.075670
v 0.079024 0.437028 0.232871
v 0.093923 0.427204 0.252029
v 0.043892 0.427239 0.290956
v 0.028992 0.437063 0.271797
v 0.173549 0.343322 0.488841
v 0.188112 0.333241 0.508126
v 0.137715 0.333985 0.546572
v 0.123153 0.344066 0.527288
v -0.195062 0.360296 0.468573
v -0.193434 0.346183 0.490568
v -0.256684 0.345332 0.494703
v -0.258312 0.359444 0.472709
v -0.447692 0.369103 0.258869
v -0.460221 0.360432 0.280162
v -0.511435 0.347957 0.244949
v -0.498906 0.356628 0.223656
v -0.478834 0.360016 -0.329069
v -0.504270 0.355151 -0.332707
v -0.492294 0.339315 -0.392376
v -0.466859 0.344179 -0.388738
v 0.072809 0.364042 -0.506739
v 0.064554 0.362204 -0.531518
v 0.123099 0.346230 -0.549839
v 0.131355 0.348068 -0.525059
v 0.533811 0.334663 -0.260074
v 0.544151 0.314882 -0.273762
v 0.577892 0.297407 -0.223021
v 0.567552 0.317188 -0.209333
vn 0.805249 -0.580354 -0.121508
vn 0.805249 -0.580354 -0.121508
vn 0.805249 -0.580354 -0.121508
vn 0.805249 -0.580354 -0.121508
vn 0.805249 0.580354 -0.121508
vn 0.805249 0.580354 -0.121508
vn 0.805249 0.580354 -0.121508
vn 0.805249 0.580354 -0.121508
vn 0.720773 0.530415 -0.446259
vn 0.720773 0.530415 -0.446259
vn 0.720773 0.530415 -0.446259
vn 0.720773 0.530415 -0.446259
vn 0.720773 -0.530415 -0.446258
vn 0.720773 -0.530415 -0.446258
vn 0.720773 -0.530415 -0.446258
vn 0.720773 -0.530415 -0.446258
vn -0.121508 -0.580354 -0.805249
vn -0.121508 -0.580354 -0.805249
vn -0.121508 -0.580354 -0.805249
vn -0.121508 -0.580354 -0.805249
vn -0.121508 0.580354 -0.805249
vn -0.121508 0.580354 -0.805249
vn -0.121508 0.580354 -0.805249
vn -0.121508 0.580354 -0.805249
vn -0.446259 0.530415 -0.720773
vn -0.446259 0.530415 -0.720773
vn -0.446259 0.530415 -0.720773
vn -0.446259 0.530415 -0.720773
vn -0.446259 -0.530415 -0.720773
vn -0.446259 -0.530415 -0.720773
vn -0.446259 -0.530415 -0.720773
vn -0.446259 -0.530415 -0.720773
vn -0.805249 -0.580354 0.121508
vn -0.805249 -0.580354 0.121508
vn -0.805249 -0.580354 0.121508
vn -0.805249 -0.580354 0.121508
vn -0.805249 0.580354 0.121508
vn -0.805249 0.580354 0.121508
vn -0.805249 0.580354 0.121508
vn -0.805249 0.580354 0.121508
vn -0.720773 0.530415 0.446258
vn -0.720773 0.530415 0.446258
vn -0.720773 0.530415 0.446258
vn -0.720773 0.530415 0.446258
vn -0.720773 -0.530415 0.446259
vn -0.720773 -0.530415 0.446259
vn -0.720773 -0.530415 0.446259
vn -0.720773 -0.530415 0.446259
vn 0.121508 -0.580354 0.805249
vn 0.121508 -0.580354 0.805249
vn 0.121508 -0.580354 0.805249
vn 0.121508 -0.580354 0.805249
vn 0.121508 0.580354 0.805249
vn 0.121508 0.580354 0.805249
vn 0.121508 0.580354 0.805249
vn 0.121508 0.580354 0.805249
vn 0.446259 0.530415 0.720773
vn 0.446259 0.530415 0.720773
vn 0.446259 0.530415 0.720773
vn 0.446259 0.530415 0.720773
vn 0.446259 -0.530415 0.720773
vn 0.446259 -0.530415 0.720773
vn 0.446259 -0.530415 0.720773
vn 0.446259 -0.530415 0.720773
vn -0.171805 -0.984528 0.034457
vn -0.171805 -0.984528 0.034457
vn -0.171805 -0.984528 0.034457
vn -0.171805 -0.984528 0.034457
vn -0.237423 -0.941945 0.237423
vn -0.237423 -0.941945 0.237423
vn -0.237423 -0.941945 0.237423
vn -0.237423 -0.941945 0.237423
vn -0.034456 -0.984528 0.171806
vn -0.034456 -0.984528 0.171806
vn -0.034456 -0.984528 0.171806
vn -0.034456 -0.984528 0.171806
vn 0.171805 0.984528 0.034456
vn 0.171805 0.984528 0.034456
vn 0.171805 0.984528 0.034456
vn 0.171805 0.984528 0.034456
vn 0.237423 0.941945 0.237423
vn 0.237423 0.941945 0.237423
vn 0.237423 0.941945 0.237423
vn 0.237423 0.941945 0.237423
vn 0.034456 0.984528 0.171805
vn 0.034456 0.984528 0.171805
vn 0.034456 0.984528 0.171805
vn 0.034456 0.984528 0.171805
vn -0.171805 0.984528 0.034456
vn -0.171805 0.984528 0.034456
vn -0.171805 0.984528 0.034456
vn -0.171805 0.984528 0.034456
vn -0.034456 0.984528 0.171805
vn -0.034456 0.984528 0.171805
vn -0.034456 0.984528 0.171805
vn -0.034456 0.984528 0.171805
vn -0.237423 0.941945 0.237423
vn -0.237423 0.941945 0.237423
vn -0.237423 0.941945 0.237423
vn -0.237423 0.941945 0.237423
vn 0.171805 -0.984528 0.034457
vn 0.171805 -0.984528 0.034457
vn 0.171805 -0.984528 0.034457
vn 0.171805 -0.984528 0.034457
vn 0.034456 -0.984528 0.171806
vn 0.034456 -0.984528 0.171806
vn 0.034456 -0.984528 0.171806
vn 0.034456 -0.984528 0.171806
vn 0.237423 -0.941945 0.237423
vn 0.237423 -0.941945 0.237423
vn 0.237423 -0.941945 0.237423
vn 0.237423 -0.941945 0.237423
vn -0.446258 -0.530415 0.720773
vn -0.446258 -0.530415 0.720773
vn -0.446258 -0.530415 0.720773
vn -0.446258 -0.530415 0.720773
vn -0.446258 0.530415 0.720773
vn -0.446258 0.530415 0.720773
vn -0.446258 0.530415 0.720773
vn -0.446258 0.530415 0.720773
vn -0.121508 0.580354 0.805249
vn -0.121508 0.580354 0.805249
vn -0.121508 0.580354 0.805249
vn -0.121508 0.580354 0.805249
vn -0.121508 -0.580354 0.805249
vn -0.121508 -0.580354 0.805249
vn -0.121508 -0.580354 0.805249
vn -0.121508 -0.580354 0.805249
vn 0.446259 -0.530415 -0.720773
vn 0.446259 -0.530415 -0.720773
vn 0.446259 -0.530415 -0.720773
vn 0.446259 -0.530415 -0.720773
vn 0.446259 0.530415 -0.720773
vn 0.446259 0.530415 -0.720773
vn 0.446259 0.530415 -0.720773
vn 0.446259 0.530415 -0.720773
vn 0.121508 0.580354 -0.805249
vn 0.121508 0.580354 -0.805249
vn 0.121508 0.580354 -0.805249
vn 0.121508 0.580354 -0.805249
vn 0.121508 -0.580354 -0.805249
vn 0.121508 -0.580354 -0.805249
vn 0.121508 -0.580354 -0.805249
vn 0.121508 -0.580354 -0.805249
vn 0.237423 -0.941945 -0.237423
vn 0.237423 -0.941945 -0.237423
vn 0.237423 -0.941945 -0.237423
vn 0.237423 -0.941945 -0.237423
vn 0.034456 -0.984528 -0.171805
vn 0.034456 -0.984528 -0.171805
vn 0.034456 -0.984528 -0.171805
vn 0.034456 -0.984528 -0.171805
vn 0.171805 -0.984528 -0.034456
vn 0.171805 -0.984528 -0.034456
vn 0.171805 -0.984528 -0.034456
vn 0.171805 -0.984528 -0.034456
vn -0.237423 0.941945 -0.237423
vn -0.237423 0.941945 -0.237423
vn -0.237423 0.941945 -0.237423
vn -0.237423 0.941945 -0.237423
vn -0.034456 0.984528 -0.171806
vn -0.034456 0.984528 -0.171806
vn -0.034456 0.984528 -0.171806
vn -0.034456 0.984528 -0.171806
vn -0.171805 0.984528 -0.034457
vn -0.171805 0.984528 -0.034457
vn -0.171805 0.984528 -0.034457
vn -0.171805 0.984528 -0.034457
vn 0.034456 0.984528 -0.171806
vn 0.034456 0.984528 -0.171806
vn 0.034456 0.984528 -0.171806
vn 0.034456 0.984528 -0.171806
vn 0.237423 0.941945 -0.237423
vn 0.237423 0.941945 -0.237423
vn 0.237423 0.941945 -0.237423
vn 0.237423 0.941945 -0.237423
vn 0.171805 0.984528 -0.034457
vn 0.171805 0.984528 -0.034457
vn 0.171805 0.984528 -0.034457
vn 0.171805 0.984528 -0.034457
vn -0.034456 -0.984528 -0.171805
vn -0.034456 -0.984528 -0.171805
vn -0.034456 -0.984528 -0.171805
vn -0.034456 -0.984528 -0.171805
vn -0.237423 -0.941945 -0.237423
vn -0.237423 -0.941945 -0.237423
vn -0.237423 -0.941945 -0.237423
vn -0.237423 -0.941945 -0.237423
vn -0.171805 -0.984528 -0.034456
vn -0.171805 -0.984528 -0.034456
vn -0.171805 -0.984528 -0.034456
vn -0.171805 -0.984528 -0.034456
vn -0.720773 -0.530415 -0.446258
vn -0.720773 -0.530415 -0.446258
vn -0.720773 -0.530415 -0.446258
vn -0.720773 -0.530415 -0.446258
vn -0.720773 0.530415 -0.446259
vn -0.720773 0.530415 -0.446259
vn -0.720773 0.530415 -0.446259
vn -0.720773 0.530415 -0.446259
vn -0.805249 0.580354 -0.121508
vn -0.805249 0.580354 -0.121508
vn -0.805249 0.580354 -0.121508
vn -0.805249 0.580354 -0.121508
vn -0.805249 -0.580354 -0.121508
vn -0.805249 -0.580354 -0.121508
vn -0.805249 -0.580354 -0.121508
vn -0.805249 -0.580354 -0.121508
vn 0.720773 -0.530415 0.446259
vn 0.720773 -0.530415 0.446259
vn 0.720773 -0.530415 0.446259
vn 0.720773 -0.530415 0.446259
vn 0.720773 0.530415 0.446258
vn 0.720773 0.530415 0.446258
vn 0.720773 0.530415 0.446258
vn 0.720773 0.530415 0.446258
vn 0.805249 0.580354 0.121508
vn 0.805249 0.580354 0.121508
vn 0.805249 0.580354 0.121508
vn 0.805249 0.580354 0.121508
vn 0.805249 -0.580354 0.121508
vn 0.805249 -0.580354 0.121508
vn 0.805249 -0.580354 0.121508
vn 0.805249 -0.580354 0.121508
vn -0.011379 -0.999871 -0.011379
vn 0.011379 -0.999871 -0.011379
vn -0.011379 -0.999871 0.011379
vn -0.011379 -0.999871 0.011379
vn 0.011379 -0.999871 -0.011379
vn -0.011379 -0.999871 0.011379
vn 0.011379 -0.999871 0.011379
vn -0.011379 -0.999871 0.011379
vn 0.011379 -0.999871 0.011379
vn 0.011379 0.999871 -0.011379
vn -0.011379 0.999871 -0.011379
vn 0.011379 0.999871 0.011379
vn 0.011379 0.999871 0.011379
vn -0.011379 0.999871 -0.011379
vn 0.011379 0.999871 0.011379
vn -0.011379 0.999871 0.011379
vn 0.011379 0.999871 0.011379
vn -0.011379 0.999871 0.011379
vn -0.662138 0.350923 0.662138
vn -0.662138 0.350923 0.662138
vn -0.662138 0.350923 0.662138
vn 0.662138 0.350922 0.662138
vn 0.662138 0.350922 0.662138
vn 0.662138 0.350922 0.662138
vn -0.662138 0.350922 -0.662138
vn -0.662138 0.350922 -0.662138
vn -0.662138 0.350922 -0.662138
vn 0.662138 0.350923 -0.662138
vn 0.662138 0.350923 -0.662138
vn 0.662138 0.350923 -0.662138
vn 0.666024 -0.337590 -0.665166
vn 0.666024 -0.337590 -0.665166
vn 0.666024 -0.337590 -0.665166
vn -0.666024 -0.337590 -0.665166
vn -0.666024 -0.337590 -0.665166
vn -0.666024 -0.337590 -0.665166
vn 0.666024 -0.337590 0.665166
vn 0.666024 -0.337590 0.665166
vn 0.666024 -0.337590 0.665166
vn -0.666024 -0.337590 0.665166
vn -0.666024 -0.337590 0.665166
vn -0.666024 -0.337590 0.665166
vn -0.166059 0.986060 0.010508
vn -0.166059 0.986060 0.010508
vn -0.166059 0.986060 0.010508
vn -0.166059 0.986060 0.010508
vn -0.166059 0.986060 -0.010509
vn -0.166059 0.986060 -0.010509
vn -0.274305 0.921690 0.274305
vn -0.274305 0.921690 0.274305
vn -0.274305 0.921690 0.274305
vn -0.274305 0.921690 0.274305
vn -0.064786 0.987563 0.143256
vn -0.064786 0.987563 0.143256
vn -0.064786 0.987563 0.143256
vn -0.064786 0.987563 0.143256
vn -0.060332 0.997909 0.023209
vn -0.060332 0.997909 0.023209
vn -0.060332 0.997909 0.023209
vn -0.060332 0.997909 0.023209
vn -0.060332 0.997909 -0.023209
vn -0.060332 0.997909 -0.023209
vn -0.190374 0.969574 0.153898
vn -0.190374 0.969574 0.153898
vn -0.190374 0.969574 0.153898
vn -0.190374 0.969574 0.153898
vn 0.166059 0.986060 0.010508
vn 0.166059 0.986060 0.010508
vn 0.166059 0.986060 0.010508
vn 0.166059 0.986060 0.010508
vn 0.166059 0.986060 -0.010509
vn 0.166059 0.986060 -0.010509
vn 0.274306 0.921690 0.274306
vn 0.274306 0.921690 0.274306
vn 0.274306 0.921690 0.274306
vn 0.274306 0.921690 0.274306
vn 0.064786 0.987563 0.143256
vn 0.064786 0.987563 0.143256
vn 0.064786 0.987563 0.143256
vn 0.064786 0.987563 0.143256
vn 0.060332 0.997909 0.023209
vn 0.060332 0.997909 0.023209
vn 0.060332 0.997909 0.023209
vn 0.060332 0.997909 0.023209
vn 0.060332 0.997909 -0.023209
vn 0.060332 0.997909 -0.023209
vn 0.190374 0.969574 0.153898
vn 0.190374 0.969574 0.153898
vn 0.190374 0.969574 0.153898
vn 0.190374 0.969574 0.153898
vn -0.274306 0.921690 -0.274306
vn -0.274306 0.921690 -0.274306
vn -0.274306 0.921690 -0.274306
vn -0.274306 0.921690 -0.274306
vn -0.064786 0.987563 -0.143257
vn -0.064786 0.987563 -0.143257
vn -0.064786 0.987563 -0.143257
vn -0.064786 0.987563 -0.143257
vn -0.190374 0.969574 -0.153899
vn -0.190374 0.969574 -0.153899
vn -0.190374 0.969574 -0.153899
vn -0.190374 0.969574 -0.153899
vn 0.274305 0.921690 -0.274306
vn 0.274305 0.921690 -0.274306
vn 0.274305 0.921690 -0.274306
vn 0.274305 0.921690 -0.274306
vn 0.064786 0.987563 -0.143257
vn 0.064786 0.987563 -0.143257
vn 0.064786 0.987563 -0.143257
vn 0.064786 0.987563 -0.143257
vn 0.190374 0.969574 -0.153899
vn 0.190374 0.969574 -0.153899
vn 0.190374 0.969574 -0.153899
vn 0.190374 0.969574 -0.153899
vn 0.166046 -0.986062 -0.010534
vn 0.166046 -0.986062 -0.010534
vn 0.166046 -0.986062 -0.010534
vn 0.166046 -0.986062 -0.010534
vn 0.166046 -0.986062 0.010534
vn 0.166046 -0.986062 0.010534
vn 0.314379 -0.896492 -0.312200
vn 0.314379 -0.896492 -0.312200
vn 0.314379 -0.896492 -0.312200
vn 0.314379 -0.896492 -0.312200
vn 0.064877 -0.987553 -0.143282
vn 0.064877 -0.987553 -0.143282
vn 0.064877 -0.987553 -0.143282
vn 0.064877 -0.987553 -0.143282
vn 0.060347 -0.997907 -0.023247
vn 0.060347 -0.997907 -0.023247
vn 0.060347 -0.997907 -0.023247
vn 0.060347 -0.997907 -0.023247
vn 0.060347 -0.997907 0.023247
vn 0.060347 -0.997907 0.023247
vn 0.190707 -0.969414 -0.154491
vn 0.190707 -0.969414 -0.154491
vn 0.190707 -0.969414 -0.154491
vn 0.190707 -0.969414 -0.154491
vn -0.166046 -0.986062 -0.010534
vn -0.166046 -0.986062 -0.010534
vn -0.166046 -0.986062 -0.010534
vn -0.166046 -0.986062 -0.010534
vn -0.166046 -0.986062 0.010534
vn -0.166046 -0.986062 0.010534
vn -0.314379 -0.896492 -0.312200
vn -0.314379 -0.896492 -0.312200
vn -0.314379 -0.896492 -0.312200
vn -0.314379 -0.896492 -0.312200
vn -0.064877 -0.987553 -0.143282
vn -0.064877 -0.987553 -0.143282
vn -0.064877 -0.987553 -0.143282
vn -0.064877 -0.987553 -0.143282
vn -0.060347 -0.997907 -0.023247
vn -0.060347 -0.997907 -0.023247
vn -0.060347 -0.997907 -0.023247
vn -0.060347 -0.997907 -0.023247
vn -0.060347 -0.997907 0.023247
vn -0.060347 -0.997907 0.023247
vn -0.190707 -0.969414 -0.154491
vn -0.190707 -0.969414 -0.154491
vn -0.190707 -0.969414 -0.154491
vn -0.190707 -0.969414 -0.154491
vn 0.314379 -0.896492 0.312200
vn 0.314379 -0.896492 0.312200
vn 0.314379 -0.896492 0.312200
vn 0.314379 -0.896492 0.312200
vn 0.064877 -0.987553 0.143282
vn 0.064877 -0.987553 0.143282
vn 0.064877 -0.987553 0.143282
vn 0.064877 -0.987553 0.143282
vn 0.190707 -0.969414 0.154492
vn 0.190707 -0.969414 0.154492
vn 0.190707 -0.969414 0.154492
vn 0.190707 -0.969414 0.154492
vn -0.314379 -0.896492 0.312200
vn -0.314379 -0.896492 0.312200
vn -0.314379 -0.896492 0.312200
vn -0.314379 -0.896492 0.312200
vn -0.064877 -0.987553 0.143282
vn -0.064877 -0.987553 0.143282
vn -0.064877 -0.987553 0.143282
vn -0.064877 -0.987553 0.143282
vn -0.190707 -0.969414 0.154492
vn -0.190707 -0.969414 0.154492
vn -0.190707 -0.969414 0.154492
vn -0.190707 -0.969414 0.154492
vn -0.148736 -0.281563 0.947945
vn -0.148736 -0.281563 0.947945
vn -0.148736 -0.281563 0.947945
vn -0.148736 -0.281563 0.947945
vn 0.181001 -0.386060 0.904542
vn 0.181001 -0.386060 0.904542
vn 0.181001 -0.386060 0.904542
vn 0.181001 -0.386060 0.904542
vn -0.864363 -0.498740 0.064303
vn -0.864363 -0.498740 0.064303
vn -0.864363 -0.498740 0.064303
vn -0.864363 -0.498740 0.064303
vn -0.663239 -0.744025 -0.080872
vn -0.663239 -0.744025 -0.080872
vn -0.663239 -0.744025 -0.080872
vn -0.663239 -0.744025 -0.080872
vn 0.130950 -0.725346 0.675814
vn 0.130950 -0.725346 0.675814
vn 0.130950 -0.725346 0.675814
vn 0.130950 -0.725346 0.675814
vn -0.959939 -0.280145 -0.005928
vn -0.949315 -0.314246 -0.007063
vn -0.949315 -0.314246 -0.007063
vn -0.959939 -0.280145 -0.005928
vn -0.959939 -0.280145 -0.005928
vn -0.959939 -0.280145 -0.005928
vn -0.959939 -0.280145 0.005928
vn -0.959939 -0.280145 0.005928
vn -0.949315 -0.314246 0.007063
vn -0.949315 -0.314246 0.007063
vn 0.148736 -0.281563 0.947945
vn 0.148736 -0.281563 0.947945
vn 0.148736 -0.281563 0.947945
vn 0.148736 -0.281563 0.947945
vn -0.181001 -0.386060 0.904542
vn -0.181001 -0.386060 0.904542
vn -0.181001 -0.386060 0.904542
vn -0.181001 -0.386060 0.904542
vn 0.864363 -0.498740 0.064304
vn 0.864363 -0.498740 0.064304
vn 0.864363 -0.498740 0.064304
vn 0.864363 -0.498740 0.064304
vn 0.663239 -0.744026 -0.080871
vn 0.663239 -0.744026 -0.080871
vn 0.663239 -0.744026 -0.080871
vn 0.663239 -0.744026 -0.080871
vn -0.130950 -0.725345 0.675816
vn -0.130950 -0.725345 0.675816
vn -0.130950 -0.725345 0.675816
vn -0.130950 -0.725345 0.675816
vn 0.949315 -0.314246 -0.007063
vn 0.949315 -0.314246 -0.007063
vn 0.959939 -0.280145 -0.005928
vn 0.959939 -0.280145 -0.005928
vn 0.959939 -0.280145 -0.005928
vn 0.959939 -0.280145 -0.005928
vn 0.959939 -0.280145 0.005928
vn 0.959939 -0.280145 0.005928
vn 0.949315 -0.314246 0.007063
vn 0.949315 -0.314246 0.007063
vn -0.148736 -0.281563 -0.947945
vn -0.148736 -0.281563 -0.947945
vn -0.148736 -0.281563 -0.947945
vn -0.148736 -0.281563 -0.947945
vn 0.181001 -0.386060 -0.904542
vn 0.181001 -0.386060 -0.904542
vn 0.181001 -0.386060 -0.904542
vn 0.181001 -0.386060 -0.904542
vn -0.864363 -0.498740 -0.064304
vn -0.864363 -0.498740 -0.064304
vn -0.864363 -0.498740 -0.064304
vn -0.864363 -0.498740 -0.064304
vn -0.663239 -0.744026 0.080872
vn -0.663239 -0.744026 0.080872
vn -0.663239 -0.744026 0.080872
vn -0.663239 -0.744026 0.080872
vn 0.130950 -0.725345 -0.675815
vn 0.130950 -0.725345 -0.675815
vn 0.130950 -0.725345 -0.675815
vn 0.130950 -0.725345 -0.675815
vn 0.148736 -0.281563 -0.947945
vn 0.148736 -0.281563 -0.947945
vn 0.148736 -0.281563 -0.947945
vn 0.148736 -0.281563 -0.947945
vn -0.181001 -0.386060 -0.904542
vn -0.181001 -0.386060 -0.904542
vn -0.181001 -0.386060 -0.904542
vn -0.181001 -0.386060 -0.904542
vn 0.864363 -0.498740 -0.064303
vn 0.864363 -0.498740 -0.064303
vn 0.864363 -0.498740 -0.064303
vn 0.864363 -0.498740 -0.064303
vn 0.663239 -0.744025 0.080872
vn 0.663239 -0.744025 0.080872
vn 0.663239 -0.744025 0.080872
vn 0.663239 -0.744025 0.080872
vn -0.130950 -0.725346 -0.675814
vn -0.130950 -0.725346 -0.675814
vn -0.130950 -0.725346 -0.675814
vn -0.130950 -0.725346 -0.675814
vn 0.055670 0.942879 0.328451
vn 0.055670 0.942879 0.328451
vn 0.055670 0.942879 0.328451
vn 0.036688 0.962212 0.269820
vn 0.036688 0.962212 0.269820
vn 0.036688 0.962212 0.269820
vn 0.030169 0.968459 -0.247341
vn 0.030169 0.968459 -0.247341
vn 0.030169 0.968459 -0.247341
vn -0.421067 0.853216 -0.307775
vn -0.421067 0.853216 -0.307775
vn -0.421067 0.853216 -0.307775
vn -0.145499 0.980985 0.128449
vn -0.145499 0.980985 0.128449
vn -0.145499 0.980985 0.128449
vn -0.532683 0.846225 -0.012323
vn -0.532683 0.846225 -0.012323
vn -0.532683 0.846225 -0.012323
vn -0.015997 0.977003 -0.212627
vn -0.015997 0.977003 -0.212627
vn -0.015997 0.977003 -0.212627
vn -0.088401 0.942827 -0.321344
vn -0.088401 0.942827 -0.321344
vn -0.088401 0.942827 -0.321344
vn -0.121233 0.960000 -0.252394
vn -0.121233 0.960000 -0.252394
vn -0.121233 0.960000 -0.252394
vn 0.172236 0.964310 -0.201100
vn 0.172236 0.964310 -0.201100
vn 0.172236 0.964310 -0.201100
vn 0.087375 0.991689 -0.094439
vn 0.087375 0.991689 -0.094439
vn 0.087375 0.991689 -0.094439
vn 0.260543 0.958000 0.119807
vn 0.260543 0.958000 0.119807
vn 0.260543 0.958000 0.119807
vn 0.173786 0.980873 0.087680
vn 0.173786 0.980873 0.087680
vn 0.173786 0.980873 0.087680
vn 0.201497 0.951081 0.234188
vn 0.201497 0.951081 0.234188
vn 0.201497 0.951081 0.234188
vn -0.117063 0.909828 0.398132
vn -0.117063 0.909828 0.398132
vn -0.117063 0.909828 0.398132
vn -0.705687 0.598579 0.379089
vn -0.705687 0.598579 0.379089
vn -0.705687 0.598579 0.379089
vn -0.899803 0.354324 0.254575
vn -0.899803 0.354324 0.254575
vn -0.899803 0.354324 0.254575
vn -0.749784 0.661681 0.001400
vn -0.749784 0.661681 0.001400
vn -0.749784 0.661681 0.001400
vn -0.362358 0.898434 -0.248020
vn -0.362358 0.898434 -0.248020
vn -0.362358 0.898434 -0.248020
vn 0.317847 0.520933 -0.792213
vn 0.317847 0.520933 -0.792213
vn 0.317847 0.520933 -0.792213
vn 0.634604 0.147462 -0.758639
vn 0.634604 0.147462 -0.758639
vn 0.634604 0.147462 -0.758639
vn 0.735205 0.555749 -0.388094
vn 0.735205 0.555749 -0.388094
vn 0.735205 0.555749 -0.388094
vn 0.683381 0.730007 -0.008969
vn 0.683381 0.730007 -0.008969
vn 0.683381 0.730007 -0.008969
vn 0.867233 0.321587 0.380117
vn 0.867233 0.321587 0.380117
vn 0.867233 0.321587 0.380117
vn 0.651231 0.571267 0.499552
vn 0.651231 0.571267 0.499552
vn 0.651231 0.571267 0.499552
vn 0.088399 0.825513 0.557418
vn 0.088399 0.825513 0.557418
vn 0.088399 0.825513 0.557418
vn -0.143197 0.576742 0.804278
vn -0.143197 0.576742 0.804278
vn -0.143197 0.576742 0.804278
vn -0.195189 0.649461 0.734916
vn -0.195189 0.649461 0.734916
vn -0.195189 0.649461 0.734916
vn -0.867259 0.476004 -0.145883
vn -0.867259 0.476004 -0.145883
vn -0.867259 0.476004 -0.145883
vn 0.905400 0.289600 -0.310454
vn 0.905400 0.289600 -0.310454
vn 0.905400 0.289600 -0.310454
vn 0.621972 0.239858 0.745398
vn 0.621972 0.239858 0.745398
vn 0.621972 0.239858 0.745398
vn -0.642888 -0.001882 0.765958
vn -0.642888 -0.001882 0.765958
vn -0.642888 -0.001882 0.765958
vn 0.223163 -0.912134 0.343817
vn 0.223163 -0.912134 0.343817
vn 0.223163 -0.912134 0.343817
vn -0.192048 -0.942501 0.273515
vn -0.192048 -0.942501 0.273515
vn -0.192048 -0.942501 0.273515
vn -0.292481 -0.955881 -0.027307
vn -0.292481 -0.955881 -0.027307
vn -0.292481 -0.955881 -0.027307
vn -0.068310 -0.945838 -0.317372
vn -0.068310 -0.945838 -0.317372
vn -0.068310 -0.945838 -0.317372
vn 0.360328 -0.929264 -0.081435
vn 0.360328 -0.929264 -0.081435
vn 0.360328 -0.929264 -0.081435
vn 0.106471 -0.993701 -0.034949
vn 0.106471 -0.993701 -0.034949
vn 0.106471 -0.993701 -0.034949
vn 0.240077 -0.961717 -0.132150
vn 0.240077 -0.961717 -0.132150
vn 0.240077 -0.961717 -0.132150
vn 0.234135 -0.946989 -0.219983
vn 0.234135 -0.946989 -0.219983
vn 0.234135 -0.946989 -0.219983
vn -0.050205 -0.995034 -0.085949
vn -0.050205 -0.995034 -0.085949
vn -0.050205 -0.995034 -0.085949
vn -0.121898 -0.992456 0.013131
vn -0.121898 -0.992456 0.013131
vn -0.121898 -0.992456 0.013131
vn -0.267005 -0.963606 0.013085
vn -0.267005 -0.963606 0.013085
vn -0.267005 -0.963606 0.013085
vn -0.319266 -0.942576 0.098081
vn -0.319266 -0.942576 0.098081
vn -0.319266 -0.942576 0.098081
vn -0.060761 -0.993384 0.097450
vn -0.060761 -0.993384 0.097450
vn -0.060761 -0.993384 0.097450
vn -0.111611 -0.960666 0.254293
vn -0.111611 -0.960666 0.254293
vn -0.111611 -0.960666 0.254293
vn 0.021580 -0.912280 0.408997
vn 0.021580 -0.912280 0.408997
vn 0.021580 -0.912280 0.408997
vn 0.106437 -0.993384 0.043124
vn 0.106437 -0.993384 0.043124
vn 0.106437 -0.993384 0.043124
vn 0.240178 -0.960518 0.140428
vn 0.240178 -0.960518 0.140428
vn 0.240178 -0.960518 0.140428
vn 0.360056 -0.928564 0.090155
vn 0.360056 -0.928564 0.090155
vn 0.360056 -0.928564 0.090155
vn 0.640149 -0.739488 -0.208246
vn 0.640149 -0.739488 -0.208246
vn 0.640149 -0.739488 -0.208246
vn 0.715086 -0.404757 -0.569933
vn 0.715086 -0.404757 -0.569933
vn 0.715086 -0.404757 -0.569933
vn 0.599733 -0.534729 -0.595303
vn 0.599733 -0.534729 -0.595303
vn 0.599733 -0.534729 -0.595303
vn -0.123408 -0.715245 -0.687892
vn -0.123408 -0.715245 -0.687892
vn -0.123408 -0.715245 -0.687892
vn -0.345010 -0.480467 -0.806300
vn -0.345010 -0.480467 -0.806300
vn -0.345010 -0.480467 -0.806300
vn -0.371144 -0.539165 -0.756011
vn -0.371144 -0.539165 -0.756011
vn -0.371144 -0.539165 -0.756011
vn -0.834797 -0.537423 -0.119545
vn -0.834797 -0.537423 -0.119545
vn -0.834797 -0.537423 -0.119545
vn -0.934546 -0.355842 0.000000
vn -0.934546 -0.355842 0.000000
vn -0.934546 -0.355842 0.000000
vn -0.761159 -0.622723 0.181255
vn -0.761159 -0.622723 0.181255
vn -0.761159 -0.622723 0.181255
vn -0.407141 -0.623967 0.667009
vn -0.407141 -0.623967 0.667009
vn -0.407141 -0.623967 0.667009
vn -0.298245 -0.379535 0.875787
vn -0.298245 -0.379535 0.875787
vn -0.298245 -0.379535 0.875787
vn -0.015241 -0.693224 0.720561
vn -0.015241 -0.693224 0.720561
vn -0.015241 -0.693224 0.720561
vn 0.348583 -0.804183 0.481435
vn 0.348583 -0.804183 0.481435
vn 0.348583 -0.804183 0.481435
vn 0.688784 -0.554911 0.466531
vn 0.688784 -0.554911 0.466531
vn 0.688784 -0.554911 0.466531
vn 0.614307 -0.761836 0.205506
vn 0.614307 -0.761836 0.205506
vn 0.614307 -0.761836 0.205506
vn 0.379545 0.047682 -0.923944
vn 0.379545 0.047682 -0.923944
vn 0.379545 0.047682 -0.923944
vn -0.795005 0.185322 -0.577601
vn -0.795005 0.185322 -0.577601
vn -0.795005 0.185322 -0.577601
vn 0.227935 -0.343601 0.911035
vn 0.227935 -0.343601 0.911035
vn 0.227935 -0.343601 0.911035
vn 0.937089 -0.348981 -0.008751
vn 0.937089 -0.348981 -0.008751
vn 0.937089 -0.348981 -0.008751
vn 0.349356 0.935465 -0.053445
vn 0.349356 0.935465 -0.053445
vn 0.349356 0.935465 -0.053445
vn 0.348170 0.935644 -0.057866
vn -0.349003 0.912622 0.212880
vn -0.349003 0.912622 0.212880
vn -0.349003 0.912622 0.212880
vn -0.339979 0.923092 0.179764
vn -0.310658 0.602171 -0.735447
vn -0.310658 0.602171 -0.735447
vn -0.310658 0.602171 -0.735447
vn -0.327011 0.586992 -0.740611
vn 0.026240 -0.061985 -0.997732
vn 0.026240 -0.061985 -0.997732
vn 0.026240 -0.061985 -0.997732
vn 0.035342 -0.073255 -0.996687
vn 0.035342 -0.073255 -0.996687
vn -0.893189 -0.376606 -0.245725
vn -0.893189 -0.376606 -0.245725
vn -0.893189 -0.376606 -0.245725
vn -0.893189 -0.376606 -0.245725
vn -0.964163 -0.010078 0.265120
vn -0.964163 -0.010078 0.265120
vn -0.964163 -0.010078 0.265120
vn -0.964163 -0.010078 0.265120
vn -0.426432 -0.366605 -0.826896
vn -0.426432 -0.366605 -0.826896
vn -0.426432 -0.366605 -0.826896
vn -0.426432 -0.366605 -0.826896
vn 0.893613 0.341252 -0.291551
vn 0.893613 0.341252 -0.291551
vn 0.893613 0.341252 -0.291551
vn 0.893613 0.341252 -0.291551
vn 0.496679 -0.551518 0.670178
vn 0.496679 -0.551518 0.670178
vn 0.496679 -0.551518 0.670178
vn 0.496679 -0.551518 0.670178
vn 0.598912 0.206294 -0.773787
vn 0.598912 0.206294 -0.773787
vn 0.598912 0.206294 -0.773787
vn 0.598912 0.206294 -0.773787
vn 0.898013 0.124211 0.422071
vn 0.898013 0.124211 0.422071
vn 0.898013 0.124211 0.422071
vn 0.898013 0.124211 0.422071
vn -0.647826 0.139409 0.748924
vn -0.647826 0.139409 0.748924
vn -0.647826 0.139409 0.748924
vn -0.647826 0.139409 0.748924
vn -0.049745 -0.319953 0.946127
vn -0.049745 -0.319953 0.946127
vn -0.049745 -0.319953 0.946127
vn -0.049745 -0.319953 0.946127
vn -0.009207 -0.999740 -0.020870
vn -0.009207 -0.999740 -0.020870
vn -0.009207 -0.999740 -0.020870
vn -0.009207 -0.999740 -0.020870
vn -0.009207 -0.999740 -0.020870
vn -0.009207 -0.999740 -0.020870
vn -0.009207 -0.999740 -0.020870
vn -0.009207 -0.999740 -0.020870
vn -0.009207 -0.999740 -0.020870
vn -0.009207 -0.999740 -0.020870
vn -0.109328 -0.957138 -0.268206
vn -0.109328 -0.957138 -0.268206
vn -0.109328 -0.957138 -0.268206
vn -0.116492 -0.955792 -0.269983
vn -0.808999 -0.006904 0.587769
vn -0.808999 -0.006904 0.587769
vn -0.808999 -0.006904 0.587769
vn -0.809019 -0.000001 0.587783
vn -0.809019 -0.000001 0.587783
vn 0.352715 -0.213622 -0.911020
vn 0.352715 -0.213622 -0.911020
vn 0.352715 -0.213622 -0.911020
vn 0.352715 -0.213622 -0.911020
vn -0.809019 0.000000 -0.587783
vn -0.809019 0.000000 -0.587783
vn -0.809019 0.000000 -0.587783
vn -0.809019 0.000000 -0.587783
vn 0.810970 -0.072829 -0.580538
vn 0.810970 -0.072829 -0.580538
vn 0.810970 -0.072829 -0.580538
vn 0.810970 -0.072829 -0.580538
vn -0.387036 -0.055377 -0.920400
vn -0.387036 -0.055377 -0.920400
vn -0.387036 -0.055377 -0.920400
vn -0.387036 -0.055377 -0.920400
vn 0.273170 0.322039 0.906460
vn 0.273170 0.322039 0.906460
vn 0.273170 0.322039 0.906460
vn 0.273170 0.322039 0.906460
vn -1.000000 0.000000 0.000000
vn -1.000000 0.000000 0.000000
vn -1.000000 0.000000 0.000000
vn -1.000000 0.000000 0.000000
vn -0.319976 0.009650 0.947376
vn -0.319976 0.009650 0.947376
vn -0.319976 0.009650 0.947376
vn -0.319976 0.009650 0.947376
vn 0.991788 0.123413 -0.033557
vn 0.991788 0.123413 -0.033557
vn 0.991788 0.123413 -0.033557
vn 0.991788 0.123413 -0.033557
vn 0.772383 0.247351 0.585015
vn 0.772383 0.247351 0.585015
vn 0.772383 0.247351 0.585015
vn 0.772383 0.247351 0.585015
vn -0.009284 0.999877 0.012614
vn -0.009284 0.999877 0.012614
vn -0.009284 0.999877 0.012614
vn -0.009284 0.999877 0.012614
vn -0.009284 0.999877 0.012614
vn -0.009284 0.999877 0.012614
vn -0.009284 0.999877 0.012614
vn -0.009284 0.999877 0.012614
vn -0.009284 0.999877 0.012614
vn -0.009284 0.999877 0.012614
vn 0.121703 0.352876 0.927721
vn 0.121703 0.352876 0.927721
vn 0.121703 0.352876 0.927721
vn 0.121703 0.352876 0.927721
vn 0.901955 0.414691 -0.120452
vn 0.901955 0.414691 -0.120452
vn 0.901955 0.414691 -0.120452
vn 0.901955 0.414691 -0.120452
vn -0.231193 0.650353 -0.723596
vn -0.231193 0.650353 -0.723596
vn -0.231193 0.650353 -0.723596
vn -0.231193 0.650353 -0.723596
vn -0.975119 0.050548 0.215841
vn -0.975119 0.050548 0.215841
vn -0.975119 0.050548 0.215841
vn -0.975119 0.050548 0.215841
vn -0.108015 0.975745 0.190404
vn -0.108015 0.975745 0.190404
vn -0.108015 0.975745 0.190404
vn -0.108015 0.975745 0.190404
vn -0.485935 0.217712 0.846444
vn -0.485935 0.217712 0.846444
vn -0.485935 0.217712 0.846444
vn -0.485935 0.217712 0.846444
vn 0.771333 0.369190 0.518405
vn 0.771333 0.369190 0.518405
vn 0.771333 0.369190 0.518405
vn 0.771333 0.369190 0.518405
vn 0.241589 0.754271 -0.610499
vn 0.241589 0.754271 -0.610499
vn 0.241589 0.754271 -0.610499
vn 0.241589 0.754271 -0.610499
vn -0.902736 0.082878 -0.422135
vn -0.902736 0.082878 -0.422135
vn -0.902736 0.082878 -0.422135
vn -0.902736 0.082878 -0.422135
vn -0.233851 0.946535 0.222227
vn -0.233851 0.946535 0.222227
vn -0.233851 0.946535 0.222227
vn -0.233851 0.946535 0.222227
vn 0.186510 0.743938 0.641694
vn 0.186510 0.743938 0.641694
vn 0.186510 0.743938 0.641694
vn 0.186510 0.743938 0.641694
vn 0.863907 0.315850 -0.392306
vn 0.863907 0.315850 -0.392306
vn 0.863907 0.315850 -0.392306
vn 0.863907 0.315850 -0.392306
vn -0.330285 0.238789 -0.913177
vn -0.330285 0.238789 -0.913177
vn -0.330285 0.238789 -0.913177
vn -0.330285 0.238789 -0.913177
vn -0.952781 0.140111 0.269400
vn -0.952781 0.140111 0.269400
vn -0.952781 0.140111 0.269400
vn -0.952781 0.140111 0.269400
vn -0.142088 0.952021 -0.271048
vn -0.142088 0.952021 -0.271048
vn -0.142088 0.952021 -0.271048
vn -0.142088 0.952021 -0.271048
vn -0.476330 0.441615 -0.760320
vn -0.476330 0.441615 -0.760320
vn -0.476330 0.441615 -0.760320
vn -0.476330 0.441615 -0.760320
vn -0.667859 0.521244 0.531290
vn -0.667859 0.521244 0.531290
vn -0.667859 0.521244 0.531290
vn -0.667859 0.521244 0.531290
vn 0.636896 0.551073 0.539149
vn 0.636896 0.551073 0.539149
vn 0.636896 0.551073 0.539149
vn 0.636896 0.551073 0.539149
vn 0.761565 -0.063854 -0.644935
vn 0.761565 -0.063854 -0.644935
vn 0.761565 -0.063854 -0.644935
vn 0.761565 -0.063854 -0.644935
vn 0.161232 0.964613 -0.208627
vn 0.161232 0.964613 -0.208627
vn 0.161232 0.964613 -0.208627
vn 0.161232 0.964613 -0.208627
vn 0.156259 0.764425 -0.625490
vn 0.156259 0.764425 -0.625490
vn 0.156259 0.764425 -0.625490
vn 0.156259 0.764425 -0.625490
vn -0.647298 0.761231 -0.039158
vn -0.647298 0.761231 -0.039158
vn -0.647298 0.761231 -0.039158
vn -0.647298 0.761231 -0.039158
vn 0.047055 0.707628 0.705017
vn 0.047055 0.707628 0.705017
vn 0.047055 0.707628 0.705017
vn 0.047055 0.707628 0.705017
vn 0.988291 -0.127286 0.084142
vn 0.988291 -0.127286 0.084142
vn 0.988291 -0.127286 0.084142
vn 0.988291 -0.127286 0.084142
vn 0.138079 0.989786 0.035467
vn 0.138079 0.989786 0.035467
vn 0.138079 0.989786 0.035467
vn 0.138079 0.989786 0.035467
vn 0.817651 0.349175 0.457737
vn 0.817651 0.349175 0.457737
vn 0.817651 0.349175 0.457737
vn 0.817651 0.349175 0.457737
vn 0.289823 0.652561 -0.700119
vn 0.289823 0.652561 -0.700119
vn 0.289823 0.652561 -0.700119
vn 0.289823 0.652561 -0.700119
vn -0.815771 0.578278 -0.010567
vn -0.815771 0.578278 -0.010567
vn -0.815771 0.578278 -0.010567
vn -0.815771 0.578278 -0.010567
vn -0.299333 -0.228726 0.926328
vn -0.299333 -0.228726 0.926328
vn -0.299333 -0.228726 0.926328
vn -0.299333 -0.228726 0.926328
vn -0.005933 0.901822 0.432067
vn -0.005933 0.901822 0.432067
vn -0.005933 0.901822 0.432067
vn -0.005933 0.901822 0.432067
vn -0.594842 0.689621 0.413020
vn -0.594842 0.689621 0.413020
vn -0.594842 0.689621 0.413020
vn -0.594842 0.689621 0.413020
vn 0.645155 0.363249 0.672179
vn 0.645155 0.363249 0.672179
vn 0.645155 0.363249 0.672179
vn 0.645155 0.363249 0.672179
vn 0.711902 0.310018 -0.630146
vn 0.711902 0.310018 -0.630146
vn 0.711902 0.310018 -0.630146
vn 0.711902 0.310018 -0.630146
vn -0.601570 0.099905 -0.792548
vn -0.601570 0.099905 -0.792548
vn -0.601570 0.099905 -0.792548
vn -0.601570 0.099905 -0.792548
vn 0.119894 0.969043 -0.215828
vn 0.119894 0.969043 -0.215828
vn 0.119894 0.969043 -0.215828
vn 0.119894 0.969043 -0.215828
vn -0.442722 0.775947 -0.449337
vn -0.442722 0.775947 -0.449337
vn -0.442722 0.775947 -0.449337
vn -0.442722 0.775947 -0.449337
vn -0.412452 0.568083 0.712155
vn -0.412452 0.568083 0.712155
vn -0.412452 0.568083 0.712155
vn -0.412452 0.568083 0.712155
vn 0.787489 0.436942 0.434676
vn 0.787489 0.436942 0.434676
vn 0.787489 0.436942 0.434676
vn 0.787489 0.436942 0.434676
vn 0.584550 0.041230 -0.810310
vn 0.584550 0.041230 -0.810310
vn 0.584550 0.041230 -0.810310
vn 0.584550 0.041230 -0.810310
vn 0.206004 0.976751 -0.059327
vn 0.206004 0.976751 -0.059327
vn 0.206004 0.976751 -0.059327
vn 0.206004 0.976751 -0.059327
vn 0.797129 0.470231 -0.378772
vn 0.797129 0.470231 -0.378772
vn 0.797129 0.470231 -0.378772
vn 0.797129 0.470231 -0.378772
vn -0.479944 0.623249 -0.617425
vn -0.479944 0.623249 -0.617425
vn -0.479944 0.623249 -0.617425
vn -0.479944 0.623249 -0.617425
vn -0.552859 0.484126 0.678210
vn -0.552859 0.484126 0.678210
vn -0.552859 0.484126 0.678210
vn -0.552859 0.484126 0.678210
vn 0.603212 -0.186527 0.775463
vn 0.603212 -0.186527 0.775463
vn 0.603212 -0.186527 0.775463
vn 0.603212 -0.186527 0.775463
vn 0.230820 0.926934 0.295830
vn 0.230820 0.926934 0.295830
vn 0.230820 0.926934 0.295830
vn 0.230820 0.926934 0.295830
vn 0.807842 0.458516 -0.370345
vn 0.807842 0.458516 -0.370345
vn 0.807842 0.458516 -0.370345
vn 0.807842 0.458516 -0.370345
vn -0.464386 0.631485 -0.620945
vn -0.464386 0.631485 -0.620945
vn -0.464386 0.631485 -0.620945
vn -0.464386 0.631485 -0.620945
vn -0.551851 0.491519 0.673698
vn -0.551851 0.491519 0.673698
vn -0.551851 0.491519 0.673698
vn -0.551851 0.491519 0.673698
vn 0.592814 -0.196942 0.780887
vn 0.592814 -0.196942 0.780887
vn 0.592814 -0.196942 0.780887
vn 0.592814 -0.196942 0.780887
vn 0.242156 0.922830 0.299575
vn 0.242156 0.922830 0.299575
vn 0.242156 0.922830 0.299575
vn 0.242156 0.922830 0.299575
vn 0.871682 0.439254 0.217318
vn 0.871682 0.439254 0.217318
vn 0.871682 0.439254 0.217318
vn 0.871682 0.439254 0.217318
vn -0.052825 0.756171 -0.652239
vn -0.052825 0.756171 -0.652239
vn -0.052825 0.756171 -0.652239
vn -0.052825 0.756171 -0.652239
vn -0.838728 0.427983 0.336699
vn -0.838728 0.427983 0.336699
vn -0.838728 0.427983 0.336699
vn -0.838728 0.427983 0.336699
vn 0.065650 -0.363704 0.929198
vn 0.065650 -0.363704 0.929198
vn 0.065650 -0.363704 0.929198
vn 0.065650 -0.363704 0.929198
vn 0.023880 0.842205 0.538628
vn 0.023880 0.842205 0.538628
vn 0.023880 0.842205 0.538628
vn 0.023880 0.842205 0.538628
vn 0.521293 0.638155 0.566579
vn 0.521293 0.638155 0.566579
vn 0.521293 0.638155 0.566579
vn 0.521293 0.638155 0.566579
vn 0.360965 0.579830 -0.730412
vn 0.360965 0.579830 -0.730412
vn 0.360965 0.579830 -0.730412
vn 0.360965 0.579830 -0.730412
vn -0.868698 0.313625 -0.383410
vn -0.868698 0.313625 -0.383410
vn -0.868698 0.313625 -0.383410
vn -0.868698 0.313625 -0.383410
vn -0.536574 -0.144114 0.831456
vn -0.536574 -0.144114 0.831456
vn -0.536574 -0.144114 0.831456
vn -0.536574 -0.144114 0.831456
vn -0.343998 0.922825 0.173376
vn -0.343998 0.922825 0.173376
vn -0.343998 0.922825 0.173376
vn -0.343998 0.922825 0.173376
vn -0.232277 0.781174 0.579496
vn -0.232277 0.781174 0.579496
vn -0.232277 0.781174 0.579496
vn -0.232277 0.781174 0.579496
vn 0.856366 0.515172 0.035146
vn 0.856366 0.515172 0.035146
vn 0.856366 0.515172 0.035146
vn 0.856366 0.515172 0.035146
vn 0.079027 0.298081 -0.951264
vn 0.079027 0.298081 -0.951264
vn 0.079027 0.298081 -0.951264
vn 0.079027 0.298081 -0.951264
vn -0.980123 0.005987 -0.198299
vn -0.980123 0.005987 -0.198299
vn -0.980123 0.005987 -0.198299
vn -0.980123 0.005987 -0.198299
vn -0.141491 0.949406 -0.280372
vn -0.141491 0.949406 -0.280372
vn -0.141491 0.949406 -0.280372
vn -0.141491 0.949406 -0.280372
vn -0.684819 0.707215 0.175700
vn -0.684819 0.707215 0.175700
vn -0.684819 0.707215 0.175700
vn -0.684819 0.707215 0.175700
vn 0.364321 0.341683 0.866328
vn 0.364321 0.341683 0.866328
vn 0.364321 0.341683 0.866328
vn 0.364321 0.341683 0.866328
vn 0.901729 0.288637 -0.321830
vn 0.901729 0.288637 -0.321830
vn 0.901729 0.288637 -0.321830
vn 0.901729 0.288637 -0.321830
vn -0.266490 0.120088 -0.956328
vn -0.266490 0.120088 -0.956328
vn -0.266490 0.120088 -0.956328
vn -0.266490 0.120088 -0.956328
vn 0.218198 0.965180 -0.144286
vn 0.218198 0.965180 -0.144286
vn 0.218198 0.965180 -0.144286
vn 0.218198 0.965180 -0.144286
vn -0.078259 0.539295 -0.838473
vn -0.078259 0.539295 -0.838473
vn -0.078259 0.539295 -0.838473
vn -0.078259 0.539295 -0.838473
vn -0.165722 0.893276 0.417846
vn -0.165722 0.893276 0.417846
vn -0.165722 0.893276 0.417846
vn -0.165722 0.893276 0.417846
vn 0.844792 0.074946 0.529821
vn 0.844792 0.074946 0.529821
vn 0.844792 0.074946 0.529821
vn 0.844792 0.074946 0.529821
vn 0.533832 -0.624532 -0.570073
vn 0.533832 -0.624532 -0.570073
vn 0.533832 -0.624532 -0.570073
vn 0.533832 -0.624532 -0.570073
vn 0.748835 0.594343 -0.293262
vn 0.748835 0.594343 -0.293262
vn 0.748835 0.594343 -0.293262
vn 0.748835 0.594343 -0.293262
vn 0.108012 -0.975746 -0.190403
vn 0.108012 -0.975746 -0.190403
vn 0.108012 -0.975746 -0.190403
vn 0.108012 -0.975746 -0.190403
vn 0.233853 -0.946535 -0.222228
vn 0.233853 -0.946535 -0.222228
vn 0.233853 -0.946535 -0.222228
vn 0.233853 -0.946535 -0.222228
vn 0.142087 -0.952021 0.271048
vn 0.142087 -0.952021 0.271048
vn 0.142087 -0.952021 0.271048
vn 0.142087 -0.952021 0.271048
vn -0.161228 -0.964614 0.208628
vn -0.161228 -0.964614 0.208628
vn -0.161228 -0.964614 0.208628
vn -0.161228 -0.964614 0.208628
vn -0.138072 -0.989787 -0.035467
vn -0.138072 -0.989787 -0.035467
vn -0.138072 -0.989787 -0.035467
vn -0.138072 -0.989787 -0.035467
vn 0.005934 -0.901821 -0.432069
vn 0.005934 -0.901821 -0.432069
vn 0.005934 -0.901821 -0.432069
vn 0.005934 -0.901821 -0.432069
vn -0.119895 -0.969043 0.215828
vn -0.119895 -0.969043 0.215828
vn -0.119895 -0.969043 0.215828
vn -0.119895 -0.969043 0.215828
vn -0.206003 -0.976751 0.059327
vn -0.206003 -0.976751 0.059327
vn -0.206003 -0.976751 0.059327
vn -0.206003 -0.976751 0.059327
vn -0.230821 -0.926933 -0.295832
vn -0.230821 -0.926933 -0.295832
vn -0.230821 -0.926933 -0.295832
vn -0.230821 -0.926933 -0.295832
vn -0.242157 -0.922830 -0.299574
vn -0.242157 -0.922830 -0.299574
vn -0.242157 -0.922830 -0.299574
vn -0.242157 -0.922830 -0.299574
vn -0.023880 -0.842206 -0.538627
vn -0.023880 -0.842206 -0.538627
vn -0.023880 -0.842206 -0.538627
vn -0.023880 -0.842206 -0.538627
vn 0.343998 -0.922825 -0.173377
vn 0.343998 -0.922825 -0.173377
vn 0.343998 -0.922825 -0.173377
vn 0.343998 -0.922825 -0.173377
vn 0.141488 -0.949407 0.280371
vn 0.141488 -0.949407 0.280371
vn 0.141488 -0.949407 0.280371
vn 0.141488 -0.949407 0.280371
vn -0.218198 -0.965179 0.144286
vn -0.218198 -0.965179 0.144286
vn -0.218198 -0.965179 0.144286
vn -0.218198 -0.965179 0.144286
vn -0.748835 -0.594343 0.293261
vn -0.748835 -0.594343 0.293261
vn -0.748835 -0.594343 0.293261
vn -0.748835 -0.594343 0.293261
g Cheeseburger_Brown
usemtl Brown
f 1 2 3
f 1 3 4
f 5 6 7
f 5 7 8
f 9 10 11
f 9 11 12
f 13 14 15
f 13 15 16
f 17 18 19
f 17 19 20
f 21 22 23
f 21 23 24
f 25 26 27
f 25 27 28
f 29 30 31
f 29 31 32
f 33 34 35
f 33 35 36
f 37 38 39
f 37 39 40
f 41 42 43
f 41 43 44
f 45 46 47
f 45 47 48
f 49 50 51
f 49 51 52
f 53 54 55
f 53 55 56
f 57 58 59
f 57 59 60
f 61 62 63
f 61 63 64
f 65 66 67
f 65 67 68
f 69 70 71
f 69 71 72
f 73 74 75
f 73 75 76
f 77 78 79
f 77 79 80
f 81 82 83
f 81 83 84
f 85 86 87
f 85 87 88
f 89 90 91
f 89 91 92
f 93 94 95
f 93 95 96
f 97 98 99
f 97 99 100
f 101 102 103
f 101 103 104
f 105 106 107
f 105 107 108
f 109 110 111
f 109 111 112
f 113 114 115
f 113 115 116
f 117 118 119
f 117 119 120
f 121 122 123
f 121 123 124
f 125 126 127
f 125 127 128
f 129 130 131
f 129 131 132
f 133 134 135
f 133 135 136
f 137 138 139
f 137 139 140
f 141 142 143
f 141 143 144
f 145 146 147
f 145 147 148
f 149 150 151
f 149 151 152
f 153 154 155
f 153 155 156
f 157 158 159
f 157 159 160
f 161 162 163
f 161 163 164
f 165 166 167
f 165 167 168
f 169 170 171
f 169 171 172
f 173 174 175
f 173 175 176
f 177 178 179
f 177 179 180
f 181 182 183
f 181 183 184
f 185 186 187
f 185 187 188
f 189 190 191
f 189 191 192
f 193 194 195
f 193 195 196
f 197 198 199
f 197 199 200
f 201 202 203
f 201 203 204
f 205 206 207
f 205 207 208
f 209 210 211
f 209 211 212
f 213 214 215
f 213 215 216
f 217 218 219
f 217 219 220
f 221 222 223
f 221 223 224
f 225 226 227
f 225 227 228
f 229 227 226
f 230 228 227
f 229 231 227
f 230 227 232
f 233 227 231
f 233 232 227
f 234 235 236
f 234 236 237
f 238 236 235
f 239 237 236
f 238 240 236
f 239 236 241
f 242 236 240
f 242 241 236
g Cheeseburger_Cheese
usemtl Cheese
f 243 244 245
f 246 247 248
f 249 250 251
f 252 253 254
f 255 256 257
f 258 259 260
f 261 262 263
f 264 265 266
f 267 268 269
f 267 269 270
f 267 270 271
f 267 271 272
f 273 274 275
f 273 275 276
f 277 278 279
f 277 279 280
f 281 282 283
f 281 283 284
f 281 284 285
f 281 285 286
f 287 288 289
f 287 289 290
f 291 292 293
f 291 294 292
f 291 295 294
f 291 296 295
f 297 298 299
f 297 299 300
f 301 302 303
f 301 303 304
f 305 306 307
f 305 308 306
f 305 309 308
f 305 310 309
f 311 312 313
f 311 313 314
f 315 316 317
f 315 317 318
f 319 320 321
f 319 321 322
f 323 324 325
f 323 325 326
f 327 328 329
f 327 329 330
f 331 332 333
f 331 333 334
f 335 336 337
f 335 337 338
f 339 340 341
f 339 342 340
f 339 343 342
f 339 344 343
f 345 346 347
f 345 347 348
f 349 350 351
f 349 351 352
f 353 354 355
f 353 356 354
f 353 357 356
f 353 358 357
f 359 360 361
f 359 361 362
f 363 364 365
f 363 365 366
f 363 366 367
f 363 367 368
f 369 370 371
f 369 371 372
f 373 374 375
f 373 375 376
f 377 378 379
f 377 379 380
f 377 380 381
f 377 381 382
f 383 384 385
f 383 385 386
f 387 388 389
f 387 389 390
f 391 392 393
f 391 393 394
f 395 396 397
f 395 397 398
f 399 400 401
f 399 401 402
f 403 404 405
f 403 405 406
f 407 408 409
f 407 409 410
f 411 412 413
f 411 413 414
f 415 416 417
f 415 417 418
f 419 420 421
f 419 421 422
f 423 424 425
f 423 425 426
f 427 428 429
f 427 429 430
f 431 432 433
f 431 434 432
f 435 434 431
f 435 436 434
f 437 436 435
f 437 438 436
f 439 438 437
f 439 440 438
f 441 442 443
f 441 443 444
f 445 446 447
f 445 447 448
f 449 450 451
f 449 451 452
f 453 454 455
f 453 455 456
f 457 458 459
f 457 459 460
f 461 462 463
f 461 463 464
f 464 463 465
f 464 465 466
f 466 465 467
f 466 467 468
f 468 467 469
f 468 469 470
f 471 472 473
f 471 473 474
f 475 476 477
f 475 477 478
f 479 480 481
f 479 481 482
f 483 484 485
f 483 485 486
f 487 488 489
f 487 489 490
f 491 492 493
f 491 493 494
f 495 496 497
f 495 497 498
f 499 500 501
f 499 501 502
f 503 504 505
f 503 505 506
f 507 508 509
f 507 509 510
g Cheeseburger_LightYellow
usemtl LightYellow
f 511 512 513
f 514 515 513
f 514 516 515
f 517 518 519
f 520 521 522
f 523 524 525
f 526 527 528
f 529 530 531
f 532 533 534
f 535 536 537
f 538 539 540
f 541 542 543
f 544 545 546
f 547 548 549
f 550 551 552
f 553 554 555
f 556 557 558
f 559 560 561
f 562 563 564
f 565 566 567
f 568 569 570
f 571 572 573
f 574 575 576
f 577 578 579
f 580 581 582
f 583 584 585
f 586 587 588
f 589 590 591
f 592 593 594
f 595 596 597
f 598 599 600
f 601 602 603
f 604 605 606
f 607 608 609
f 610 611 612
f 613 614 615
f 616 617 618
f 619 620 621
f 622 623 624
f 625 626 627
f 628 629 630
f 631 632 633
f 634 635 636
f 637 638 639
f 640 641 642
f 643 644 645
f 646 647 648
f 649 650 651
f 652 653 654
f 655 656 657
f 658 659 660
f 661 662 663
f 664 665 666
f 667 668 669
f 670 671 672
f 673 674 675
f 676 677 678
f 679 680 681
f 682 683 684
f 685 686 687
f 688 689 690
f 691 692 693
f 694 695 696
f 697 698 699
f 700 701 702
f 703 704 705
f 706 707 708
f 709 710 711
f 712 713 714
f 715 716 717
f 718 719 720
f 721 719 718
f 722 723 724
f 723 725 724
f 726 727 728
f 728 727 729
f 730 731 732
f 732 733 730
f 732 734 733
f 735 736 737
f 735 737 738
f 739 740 741
f 739 741 742
f 743 744 745
f 743 745 746
f 747 748 749
f 747 749 750
f 751 752 753
f 751 753 754
f 755 756 757
f 755 757 758
f 759 760 761
f 759 761 762
f 763 764 765
f 763 765 766
f 767 768 769
f 767 769 770
f 771 772 773
f 773 774 771
f 773 775 774
f 775 776 774
f 775 777 776
f 777 778 776
f 777 779 778
f 779 780 778
f 781 782 783
f 783 782 784
f 785 786 787
f 787 788 785
f 787 789 788
f 790 791 792
f 790 792 793
f 794 795 796
f 794 796 797
f 798 799 800
f 798 800 801
f 802 803 804
f 802 804 805
f 806 807 808
f 806 808 809
f 810 811 812
f 810 812 813
f 814 815 816
f 814 816 817
f 818 819 820
f 818 820 821
f 822 823 824
f 822 824 825
f 826 827 828
f 828 829 826
f 829 830 826
f 829 831 830
f 831 832 830
f 831 833 832
f 833 834 832
f 834 835 832
g Cheeseburger_White
usemtl White
f 836 837 838
f 836 838 839
f 840 841 842
f 840 842 843
f 844 845 846
f 844 846 847
f 848 849 850
f 848 850 851
f 852 853 854
f 852 854 855
f 856 857 858
f 856 858 859
f 860 861 862
f 860 862 863
f 864 865 866
f 864 866 867
f 868 869 870
f 868 870 871
f 872 873 874
f 872 874 875
f 876 877 878
f 876 878 879
f 880 881 882
f 880 882 883
f 884 885 886
f 884 886 887
f 888 889 890
f 888 890 891
f 892 893 894
f 892 894 895
f 896 897 898
f 896 898 899
f 900 901 902
f 900 902 903
f 904 905 906
f 904 906 907
f 908 909 910
f 908 910 911
f 912 913 914
f 912 914 915
f 916 917 918
f 916 918 919
f 920 921 922
f 920 922 923
f 924 925 926
f 924 926 927
f 928 929 930
f 928 930 931
f 932 933 934
f 932 934 935
f 936 937 938
f 936 938 939
f 940 941 942
f 940 942 943
f 944 945 946
f 944 946 947
f 948 949 950
f 948 950 951
f 952 953 954
f 952 954 955
f 956 957 958
f 956 958 959
f 960 961 962
f 960 962 963
f 964 965 966
f 964 966 967
f 968 969 970
f 968 970 971
f 972 973 974
f 972 974 975
f 976 977 978
f 976 978 979
f 980 981 982
f 980 982 983
f 984 985 986
f 984 986 987
f 988 989 990
f 988 990 991
f 992 993 994
f 992 994 995
f 996 997 998
f 996 998 999
f 1000 1001 1002
f 1000 1002 1003
f 1004 1005 1006
f 1004 1006 1007
f 1008 1009 1010
f 1008 1010 1011
f 1012 1013 1014
f 1012 1014 1015
f 1016 1017 1018
f 1016 1018 1019
f 1020 1021 1022
f 1020 1022 1023
f 1024 1025 1026
f 1024 1026 1027
f 1028 1029 1030
f 1028 1030 1031
f 1032 1033 1034
f 1032 1034 1035
f 1036 1037 1038
f 1036 1038 1039
f 1040 1041 1042
f 1040 1042 1043
f 1044 1045 1046
f 1044 1046 1047
f 1048 1049 1050
f 1048 1050 1051
f 1052 1053 1054
f 1052 1054 1055
f 1056 1057 1058
f 1056 1058 1059
f 1060 1061 1062
f 1060 1062 1063
f 1064 1065 1066
f 1064 1066 1067
f 1068 1069 1070
f 1068 1070 1071
f 1072 1073 1074
f 1072 1074 1075
f 1076 1077 1078
f 1076 1078 1079
f 1080 1081 1082
f 1080 1082 1083
f 1084 1085 1086
f 1084 1086 1087
f 1088 1089 1090
f 1088 1090 1091
f 1092 1093 1094
f 1092 1094 1095
f 1096 1097 1098
f 1096 1098 1099
f 1100 1101 1102
f 1100 1102 1103
f 1104 1105 1106
f 1104 1106 1107
f 1108 1109 1110
f 1108 1110 1111
f 1112 1113 1114
f 1112 1114 1115
f 1116 1117 1118
f 1116 1118 1119
f 1120 1121 1122
f 1120 1122 1123
f 1124 1125 1126
f 1124 1126 1127
f 1128 1129 1130
f 1128 1130 1131
f 1132 1133 1134
f 1132 1134 1135
f 1136 1137 1138
f 1136 1138 1139
f 1140 1141 1142
f 1140 1142 1143
f 1144 1145 1146
f 1144 1146 1147
f 1148 1149 1150
f 1148 1150 1151
f 1152 1153 1154
f 1152 1154 1155
f 1156 1157 1158
f 1156 1158 1159
f 1160 1161 1162
f 1160 1162 1163
f 1164 1165 1166
f 1164 1166 1167
f 1168 1169 1170
f 1168 1170 1171
f 1172 1173 1174
f 1172 1174 1175
f 1176 1177 1178
f 1176 1178 1179
f 1180 1181 1182
f 1180 1182 1183
f 1184 1185 1186
f 1184 1186 1187
f 1188 1189 1190
f 1188 1190 1191
f 1192 1193 1194
f 1192 1194 1195
