mtllib Materials.mtl
# Ultimate Food Pack - ChickenLeg
o ChickenLeg
v 0.682111 -0.037494 0.000000
v 0.622885 -0.057338 0.000000
v 0.567959 -0.052967 -0.077051
v 0.676451 -0.013340 -0.080704
v 0.682111 -0.037494 0.000000
v 0.676451 -0.013340 0.080704
v 0.567959 -0.052967 0.077051
v 0.622885 -0.057338 0.000000
v 0.682111 -0.037494 0.000000
v 0.766847 0.004757 0.000000
v 0.734698 0.022400 0.065935
v 0.676451 -0.013340 0.080704
v 0.682111 -0.037494 0.000000
v 0.676451 -0.013340 -0.080704
v 0.734698 0.022400 -0.065935
v 0.766847 0.004757 0.000000
v 0.440190 0.021689 -0.081974
v 0.554085 0.029714 -0.087350
v 0.567959 -0.052967 -0.077051
v 0.435259 -0.033824 -0.081973
v 0.440190 0.021689 -0.081974
v 0.443889 0.063324 -0.061480
v 0.553185 0.085487 -0.065513
v 0.554085 0.029714 -0.087350
v 0.440190 0.021689 -0.081974
v 0.344903 0.032493 -0.101369
v 0.348288 0.070593 -0.076027
v 0.443889 0.063324 -0.061480
v 0.440190 0.021689 -0.081974
v 0.340391 -0.018306 -0.101369
v 0.344903 0.032493 -0.101369
v 0.435259 -0.033824 -0.081973
v 0.430327 -0.089338 -0.081973
v 0.335878 -0.069105 -0.101369
v 0.440190 0.021689 0.081973
v 0.344903 0.032494 0.101369
v 0.340391 -0.018306 0.101369
v 0.435259 -0.033824 0.081973
v 0.430327 -0.089338 0.081974
v 0.335878 -0.069105 0.101369
v 0.440190 0.021689 0.081973
v 0.443889 0.063324 0.061480
v 0.348288 0.070593 0.076027
v 0.344903 0.032494 0.101369
v 0.440190 0.021689 0.081973
v 0.554085 0.029714 0.087350
v 0.553185 0.085487 0.065513
v 0.443889 0.063324 0.061480
v 0.440190 0.021689 0.081973
v 0.435259 -0.033824 0.081973
v 0.567959 -0.052967 0.077051
v 0.554085 0.029714 0.087350
v 0.425395 -0.144851 0.000000
v 0.426628 -0.130973 -0.061480
v 0.523529 -0.184751 -0.068155
v 0.518151 -0.203084 0.000000
v 0.425395 -0.144851 0.000000
v 0.331365 -0.119904 0.000000
v 0.332493 -0.107204 -0.076027
v 0.426628 -0.130973 -0.061480
v 0.425395 -0.144851 0.000000
v 0.426628 -0.130973 0.061480
v 0.332493 -0.107204 0.076027
v 0.331365 -0.119904 0.000000
v 0.425395 -0.144851 0.000000
v 0.518151 -0.203084 0.000000
v 0.523529 -0.184751 0.068155
v 0.426628 -0.130973 0.061480
v 0.445122 0.077202 0.000000
v 0.443889 0.063324 -0.061480
v 0.348288 0.070593 -0.076027
v 0.349416 0.083293 0.000000
v 0.445122 0.077202 0.000000
v 0.552885 0.104078 0.000000
v 0.553185 0.085487 -0.065513
v 0.443889 0.063324 -0.061480
v 0.445122 0.077202 0.000000
v 0.443889 0.063324 0.061480
v 0.553185 0.085487 0.065513
v 0.552885 0.104078 0.000000
v 0.445122 0.077202 0.000000
v 0.349416 0.083293 0.000000
v 0.348288 0.070593 0.076027
v 0.443889 0.063324 0.061480
v 0.430327 -0.089338 0.081974
v 0.335878 -0.069105 0.101369
v 0.332493 -0.107204 0.076027
v 0.426628 -0.130973 0.061480
v 0.430327 -0.089338 0.081974
v 0.539662 -0.129752 0.090873
v 0.567959 -0.052967 0.077051
v 0.435259 -0.033824 0.081973
v 0.430327 -0.089338 0.081974
v 0.426628 -0.130973 0.061480
v 0.523529 -0.184751 0.068155
v 0.539662 -0.129752 0.090873
v 0.430327 -0.089338 -0.081973
v 0.539662 -0.129752 -0.090873
v 0.523529 -0.184751 -0.068155
v 0.426628 -0.130973 -0.061480
v 0.430327 -0.089338 -0.081973
v 0.435259 -0.033824 -0.081973
v 0.567959 -0.052967 -0.077051
v 0.539662 -0.129752 -0.090873
v 0.430327 -0.089338 -0.081973
v 0.426628 -0.130973 -0.061480
v 0.332493 -0.107204 -0.076027
v 0.335878 -0.069105 -0.101369
v 0.705661 -0.084577 0.000000
v 0.622885 -0.057338 0.000000
v 0.567959 -0.052967 0.077051
v 0.688611 -0.107699 0.091274
v 0.705661 -0.084577 0.000000
v 0.688610 -0.107699 -0.091274
v 0.567959 -0.052967 -0.077051
v 0.622885 -0.057338 0.000000
v 0.705661 -0.084577 0.000000
v 0.788507 -0.135858 0.000000
v 0.740199 -0.149478 -0.076896
v 0.688610 -0.107699 -0.091274
v 0.705661 -0.084577 0.000000
v 0.688611 -0.107699 0.091274
v 0.740199 -0.149478 0.076896
v 0.788507 -0.135858 0.000000
v 0.760599 0.099220 0.000000
v 0.735317 0.089195 0.094552
v 0.734698 0.022400 0.065935
v 0.766847 0.004757 0.000000
v 0.760599 0.099220 0.000000
v 0.703787 0.173634 0.000000
v 0.696608 0.140397 0.065935
v 0.735317 0.089195 0.094552
v 0.760599 0.099220 0.000000
v 0.735317 0.089195 -0.094552
v 0.696608 0.140397 -0.065935
v 0.703787 0.173634 0.000000
v 0.760599 0.099220 0.000000
v 0.766847 0.004757 0.000000
v 0.734698 0.022400 -0.065935
v 0.735317 0.089195 -0.094552
v 0.636828 0.155738 0.000000
v 0.552885 0.104078 0.000000
v 0.553185 0.085487 0.065513
v 0.642488 0.131584 0.080704
v 0.636828 0.155738 0.000000
v 0.642488 0.131584 -0.080704
v 0.553185 0.085487 -0.065513
v 0.552885 0.104078 0.000000
v 0.636828 0.155738 0.000000
v 0.703787 0.173634 0.000000
v 0.696608 0.140397 -0.065935
v 0.642488 0.131584 -0.080704
v 0.636828 0.155738 0.000000
v 0.642488 0.131584 0.080704
v 0.696608 0.140397 0.065935
v 0.703787 0.173634 0.000000
v 0.659469 0.059122 -0.107606
v 0.554085 0.029714 -0.087350
v 0.553185 0.085487 -0.065513
v 0.642488 0.131584 -0.080704
v 0.659469 0.059122 -0.107606
v 0.676451 -0.013340 -0.080704
v 0.567959 -0.052967 -0.077051
v 0.554085 0.029714 -0.087350
v 0.659469 0.059122 -0.107606
v 0.735317 0.089195 -0.094552
v 0.734698 0.022400 -0.065935
v 0.676451 -0.013340 -0.080704
v 0.659469 0.059122 -0.107606
v 0.642488 0.131584 -0.080704
v 0.696608 0.140397 -0.065935
v 0.735317 0.089195 -0.094552
v 0.659469 0.059122 0.107606
v 0.554085 0.029714 0.087350
v 0.567959 -0.052967 0.077051
v 0.676451 -0.013340 0.080704
v 0.659469 0.059122 0.107606
v 0.642488 0.131584 0.080704
v 0.553185 0.085487 0.065513
v 0.554085 0.029714 0.087350
v 0.659469 0.059122 0.107606
v 0.735317 0.089195 0.094552
v 0.696608 0.140397 0.065935
v 0.642488 0.131584 0.080704
v 0.659469 0.059122 0.107606
v 0.676451 -0.013340 0.080704
v 0.734698 0.022400 0.065935
v 0.735317 0.089195 0.094552
v 0.729492 -0.227826 0.000000
v 0.706484 -0.215136 0.112167
v 0.636979 -0.261053 0.076896
v 0.624461 -0.294414 0.000000
v 0.729492 -0.227826 0.000000
v 0.788507 -0.135858 0.000000
v 0.740199 -0.149478 0.076896
v 0.706484 -0.215136 0.112167
v 0.729492 -0.227826 0.000000
v 0.706484 -0.215136 -0.112167
v 0.740199 -0.149478 -0.076896
v 0.788507 -0.135858 0.000000
v 0.729492 -0.227826 0.000000
v 0.624461 -0.294414 0.000000
v 0.636979 -0.261053 -0.076896
v 0.706484 -0.215136 -0.112167
v 0.569260 -0.269552 0.000000
v 0.518151 -0.203084 0.000000
v 0.523529 -0.184751 -0.068155
v 0.586310 -0.246430 -0.091274
v 0.569260 -0.269552 0.000000
v 0.586310 -0.246430 0.091274
v 0.523529 -0.184751 0.068155
v 0.518151 -0.203084 0.000000
v 0.569260 -0.269552 0.000000
v 0.624461 -0.294414 0.000000
v 0.636979 -0.261053 0.076896
v 0.586310 -0.246430 0.091274
v 0.569260 -0.269552 0.000000
v 0.586310 -0.246430 -0.091274
v 0.636979 -0.261053 -0.076896
v 0.624461 -0.294414 0.000000
v 0.637461 -0.177065 -0.121698
v 0.539662 -0.129752 -0.090873
v 0.567959 -0.052967 -0.077051
v 0.688610 -0.107699 -0.091274
v 0.637461 -0.177065 -0.121698
v 0.586310 -0.246430 -0.091274
v 0.523529 -0.184751 -0.068155
v 0.539662 -0.129752 -0.090873
v 0.637461 -0.177065 -0.121698
v 0.706484 -0.215136 -0.112167
v 0.636979 -0.261053 -0.076896
v 0.586310 -0.246430 -0.091274
v 0.637461 -0.177065 -0.121698
v 0.688610 -0.107699 -0.091274
v 0.740199 -0.149478 -0.076896
v 0.706484 -0.215136 -0.112167
v 0.637461 -0.177065 0.121698
v 0.539662 -0.129752 0.090873
v 0.523529 -0.184751 0.068155
v 0.586310 -0.246430 0.091274
v 0.637461 -0.177065 0.121698
v 0.688611 -0.107699 0.091274
v 0.567959 -0.052967 0.077051
v 0.539662 -0.129752 0.090873
v 0.637461 -0.177065 0.121698
v 0.706484 -0.215136 0.112167
v 0.740199 -0.149478 0.076896
v 0.688611 -0.107699 0.091274
v 0.637461 -0.177065 0.121698
v 0.586310 -0.246430 0.091274
v 0.636979 -0.261053 0.076896
v 0.706484 -0.215136 0.112167
v 0.282735 -0.082335 -0.155429
v 0.335878 -0.069105 -0.101369
v 0.332493 -0.107204 -0.076027
v 0.278007 -0.135552 -0.116572
v 0.282735 -0.082335 -0.155429
v 0.340391 -0.018306 -0.101369
v 0.335878 -0.069105 -0.101369
v 0.289038 -0.011380 -0.155429
v 0.295342 0.059576 -0.155429
v 0.344903 0.032493 -0.101369
v 0.282735 -0.082335 -0.155429
v 0.193740 -0.106875 -0.222398
v 0.206906 -0.006185 -0.222398
v 0.289038 -0.011380 -0.155429
v 0.295342 0.059576 -0.155429
v 0.220073 0.094505 -0.222398
v 0.282735 -0.082335 -0.155429
v 0.278007 -0.135552 -0.116572
v 0.183865 -0.182392 -0.166798
v 0.193740 -0.106875 -0.222398
v 0.301645 0.130531 0.000000
v 0.349416 0.083293 0.000000
v 0.348288 0.070593 -0.076027
v 0.300069 0.112792 -0.116572
v 0.229947 0.170023 -0.166799
v 0.233239 0.195196 0.000000
v 0.301645 0.130531 0.000000
v 0.348288 0.070593 0.076027
v 0.349416 0.083293 0.000000
v 0.300069 0.112792 0.116572
v 0.229947 0.170023 0.166798
v 0.233239 0.195196 0.000000
v -0.438615 -0.089229 0.274951
v -0.245107 -0.116866 0.305974
v -0.207816 0.017789 0.305974
v -0.410876 0.032939 0.274951
v -0.383137 0.155107 0.274951
v -0.170524 0.152444 0.305974
v -0.438615 -0.089229 0.274951
v -0.459419 -0.180855 0.206213
v -0.273075 -0.217857 0.229480
v -0.245107 -0.116866 0.305974
v -0.438615 -0.089229 0.274951
v -0.567496 -0.059524 0.176582
v -0.545273 -0.129829 0.139581
v -0.459419 -0.180855 0.206213
v -0.438615 -0.089229 0.274951
v -0.554001 0.044866 0.176582
v -0.567496 -0.059524 0.176582
v -0.410876 0.032939 0.274951
v -0.383137 0.155107 0.274951
v -0.540506 0.149257 0.176582
v -0.383137 0.155107 0.274951
v -0.170524 0.152444 0.305974
v -0.142556 0.253435 0.229480
v -0.362333 0.246733 0.206213
v -0.383137 0.155107 0.274951
v -0.362333 0.246733 0.206213
v -0.488517 0.213377 0.139581
v -0.540506 0.149257 0.176582
v 0.295342 0.059576 0.155429
v 0.344903 0.032494 0.101369
v 0.348288 0.070593 0.076027
v 0.300069 0.112792 0.116572
v 0.295342 0.059576 0.155429
v 0.340391 -0.018306 0.101369
v 0.344903 0.032494 0.101369
v 0.289038 -0.011380 0.155429
v 0.282735 -0.082335 0.155429
v 0.335878 -0.069105 0.101369
v 0.295342 0.059576 0.155429
v 0.220073 0.094505 0.222398
v 0.206906 -0.006185 0.222398
v 0.289038 -0.011380 0.155429
v 0.282735 -0.082335 0.155429
v 0.193740 -0.106875 0.222398
v 0.295342 0.059576 0.155429
v 0.300069 0.112792 0.116572
v 0.229947 0.170023 0.166798
v 0.220073 0.094505 0.222398
v 0.282735 -0.082335 0.155429
v 0.278007 -0.135552 0.116572
v 0.332493 -0.107204 0.076027
v 0.335878 -0.069105 0.101369
v 0.282735 -0.082335 0.155429
v 0.193740 -0.106875 0.222398
v 0.183865 -0.182392 0.166799
v 0.278007 -0.135552 0.116572
v 0.276431 -0.153291 0.000000
v 0.331365 -0.119904 0.000000
v 0.332493 -0.107204 0.076027
v 0.278007 -0.135552 0.116572
v 0.183865 -0.182392 0.166799
v 0.180573 -0.207565 0.000000
v 0.276431 -0.153291 0.000000
v 0.332493 -0.107204 -0.076027
v 0.331365 -0.119904 0.000000
v 0.278007 -0.135552 -0.116572
v 0.183865 -0.182392 -0.166798
v 0.180573 -0.207565 0.000000
v 0.295342 0.059576 -0.155429
v 0.300069 0.112792 -0.116572
v 0.348288 0.070593 -0.076027
v 0.344903 0.032493 -0.101369
v 0.295342 0.059576 -0.155429
v 0.220073 0.094505 -0.222398
v 0.229947 0.170023 -0.166799
v 0.300069 0.112792 -0.116572
v -0.592962 0.147306 0.000000
v -0.540506 0.149257 -0.176582
v -0.554001 0.044866 -0.176582
v -0.601709 0.048842 0.000000
v -0.610457 -0.049623 0.000000
v -0.567496 -0.059524 -0.176582
v -0.592962 0.147306 0.000000
v -0.529197 0.229031 0.000000
v -0.488516 0.213377 -0.139581
v -0.540506 0.149257 -0.176582
v -0.592962 0.147306 0.000000
v -0.540506 0.149257 0.176582
v -0.488517 0.213377 0.139581
v -0.529197 0.229031 0.000000
v -0.592962 0.147306 0.000000
v -0.554001 0.044866 0.176582
v -0.540506 0.149257 0.176582
v -0.601709 0.048842 0.000000
v -0.610457 -0.049623 0.000000
v -0.567496 -0.059524 0.176582
v -0.610457 -0.049623 0.000000
v -0.567496 -0.059524 -0.176582
v -0.545273 -0.129829 -0.139581
v -0.578805 -0.139299 0.000000
v -0.610457 -0.049623 0.000000
v -0.578805 -0.139299 0.000000
v -0.545273 -0.129829 0.139581
v -0.567496 -0.059524 0.176582
v -0.466354 -0.211397 0.000000
v -0.282398 -0.251521 0.000000
v -0.273075 -0.217857 0.229480
v -0.459419 -0.180855 0.206213
v -0.466354 -0.211397 0.000000
v -0.459419 -0.180855 -0.206213
v -0.273075 -0.217857 -0.229480
v -0.282398 -0.251521 0.000000
v -0.466354 -0.211397 0.000000
v -0.578805 -0.139299 0.000000
v -0.545273 -0.129829 -0.139581
v -0.459419 -0.180855 -0.206213
v -0.466354 -0.211397 0.000000
v -0.459419 -0.180855 0.206213
v -0.545273 -0.129829 0.139581
v -0.578805 -0.139299 0.000000
v -0.383137 0.155107 -0.274951
v -0.170524 0.152444 -0.305974
v -0.207816 0.017789 -0.305974
v -0.410876 0.032939 -0.274951
v -0.438615 -0.089229 -0.274951
v -0.245107 -0.116866 -0.305974
v -0.383137 0.155107 -0.274951
v -0.362333 0.246733 -0.206213
v -0.142556 0.253435 -0.229480
v -0.170524 0.152444 -0.305974
v -0.383137 0.155107 -0.274951
v -0.540506 0.149257 -0.176582
v -0.488516 0.213377 -0.139581
v -0.362333 0.246733 -0.206213
v -0.383137 0.155107 -0.274951
v -0.554001 0.044866 -0.176582
v -0.540506 0.149257 -0.176582
v -0.410876 0.032939 -0.274951
v -0.438615 -0.089229 -0.274951
v -0.567496 -0.059524 -0.176582
v -0.355398 0.277275 0.000000
v -0.133233 0.287099 0.000000
v -0.142556 0.253435 -0.229480
v -0.362333 0.246733 -0.206213
v -0.355398 0.277275 0.000000
v -0.362333 0.246733 0.206213
v -0.142556 0.253435 0.229480
v -0.133233 0.287099 0.000000
v -0.355398 0.277275 0.000000
v -0.529197 0.229031 0.000000
v -0.488517 0.213377 0.139581
v -0.362333 0.246733 0.206213
v -0.355398 0.277275 0.000000
v -0.362333 0.246733 -0.206213
v -0.488516 0.213377 -0.139581
v -0.529197 0.229031 0.000000
v -0.438615 -0.089229 -0.274951
v -0.245107 -0.116866 -0.305974
v -0.273075 -0.217857 -0.229480
v -0.459419 -0.180855 -0.206213
v -0.438615 -0.089229 -0.274951
v -0.459419 -0.180855 -0.206213
v -0.545273 -0.129829 -0.139581
v -0.567496 -0.059524 -0.176582
v -0.008265 -0.120566 -0.280518
v 0.193740 -0.106875 -0.222398
v 0.183865 -0.182392 -0.166798
v -0.029238 -0.214099 -0.210388
v -0.008265 -0.120566 -0.280518
v 0.206906 -0.006185 -0.222398
v 0.193740 -0.106875 -0.222398
v 0.019700 0.004143 -0.280518
v 0.047665 0.128853 -0.280518
v 0.220073 0.094505 -0.222398
v -0.008265 -0.120566 -0.280518
v -0.245107 -0.116866 -0.305974
v -0.207816 0.017789 -0.305974
v 0.019700 0.004143 -0.280518
v 0.047665 0.128853 -0.280518
v -0.170524 0.152444 -0.305974
v -0.008265 -0.120566 -0.280518
v -0.029238 -0.214099 -0.210388
v -0.273075 -0.217857 -0.229480
v -0.245107 -0.116866 -0.305974
v 0.075630 0.253562 0.000000
v 0.233239 0.195196 0.000000
v 0.229947 0.170023 -0.166799
v 0.068638 0.222385 -0.210388
v 0.075630 0.253562 0.000000
v 0.068638 0.222385 0.210388
v 0.229947 0.170023 0.166798
v 0.233239 0.195196 0.000000
v 0.075630 0.253562 0.000000
v -0.133233 0.287099 0.000000
v -0.142556 0.253435 0.229480
v 0.068638 0.222385 0.210388
v 0.075630 0.253562 0.000000
v 0.068638 0.222385 -0.210388
v -0.142556 0.253435 -0.229480
v -0.133233 0.287099 0.000000
v 0.047665 0.128853 -0.280518
v 0.068638 0.222385 -0.210388
v 0.229947 0.170023 -0.166799
v 0.220073 0.094505 -0.222398
v 0.047665 0.128853 -0.280518
v -0.170524 0.152444 -0.305974
v -0.142556 0.253435 -0.229480
v 0.068638 0.222385 -0.210388
v -0.036229 -0.245276 0.000000
v 0.180573 -0.207565 0.000000
v 0.183865 -0.182392 0.166799
v -0.029238 -0.214098 0.210388
v -0.036229 -0.245276 0.000000
v -0.029238 -0.214099 -0.210388
v 0.183865 -0.182392 -0.166798
v 0.180573 -0.207565 0.000000
v -0.036229 -0.245276 0.000000
v -0.282398 -0.251521 0.000000
v -0.273075 -0.217857 -0.229480
v -0.029238 -0.214099 -0.210388
v -0.036229 -0.245276 0.000000
v -0.029238 -0.214098 0.210388
v -0.273075 -0.217857 0.229480
v -0.282398 -0.251521 0.000000
v 0.047665 0.128853 0.280518
v 0.220073 0.094505 0.222398
v 0.229947 0.170023 0.166798
v 0.068638 0.222385 0.210388
v 0.047665 0.128853 0.280518
v 0.206906 -0.006185 0.222398
v 0.220073 0.094505 0.222398
v 0.019700 0.004143 0.280518
v -0.008265 -0.120566 0.280518
v 0.193740 -0.106875 0.222398
v 0.047665 0.128853 0.280518
v -0.170524 0.152444 0.305974
v -0.207816 0.017789 0.305974
v 0.019700 0.004143 0.280518
v -0.008265 -0.120566 0.280518
v -0.245107 -0.116866 0.305974
v 0.047665 0.128853 0.280518
v 0.068638 0.222385 0.210388
v -0.142556 0.253435 0.229480
v -0.170524 0.152444 0.305974
v -0.008265 -0.120566 0.280518
v -0.029238 -0.214098 0.210388
v 0.183865 -0.182392 0.166799
v 0.193740 -0.106875 0.222398
v -0.008265 -0.120566 0.280518
v -0.245107 -0.116866 0.305974
v -0.273075 -0.217857 0.229480
v -0.029238 -0.214098 0.210388
vn 0.314858 -0.905452 -0.284643
vn 0.314858 -0.905452 -0.284643
vn 0.314858 -0.905452 -0.284643
vn 0.314858 -0.905452 -0.284643
vn 0.314858 -0.905452 0.284644
vn 0.314858 -0.905452 0.284644
vn 0.314858 -0.905452 0.284644
vn 0.314858 -0.905452 0.284644
vn 0.475932 -0.805796 0.352393
vn 0.475932 -0.805796 0.352393
vn 0.475932 -0.805796 0.352393
vn 0.475932 -0.805796 0.352393
vn 0.475932 -0.805797 -0.352393
vn 0.475932 -0.805797 -0.352393
vn 0.475932 -0.805797 -0.352393
vn 0.475932 -0.805797 -0.352393
vn -0.005204 -0.074653 -0.997196
vn -0.005204 -0.074653 -0.997196
vn -0.005204 -0.074653 -0.997196
vn -0.005204 -0.074653 -0.997196
vn -0.092439 0.399092 -0.912240
vn -0.092439 0.399092 -0.912240
vn -0.092439 0.399092 -0.912240
vn -0.092439 0.399092 -0.912240
vn 0.197452 0.475321 -0.857370
vn 0.197452 0.475321 -0.857370
vn 0.197452 0.475321 -0.857370
vn 0.197452 0.475321 -0.857370
vn 0.197514 -0.017547 -0.980143
vn 0.197514 -0.017547 -0.980143
vn 0.197514 -0.017547 -0.980143
vn 0.197514 -0.017547 -0.980143
vn 0.197514 -0.017547 -0.980143
vn 0.197514 -0.017547 -0.980143
vn 0.197514 -0.017546 0.980143
vn 0.197514 -0.017546 0.980143
vn 0.197514 -0.017546 0.980143
vn 0.197514 -0.017546 0.980143
vn 0.197514 -0.017546 0.980143
vn 0.197514 -0.017546 0.980143
vn 0.197452 0.475322 0.857369
vn 0.197452 0.475322 0.857369
vn 0.197452 0.475322 0.857369
vn 0.197452 0.475322 0.857369
vn -0.092439 0.399092 0.912239
vn -0.092439 0.399092 0.912239
vn -0.092439 0.399092 0.912239
vn -0.092439 0.399092 0.912239
vn -0.005204 -0.074653 0.997196
vn -0.005204 -0.074653 0.997196
vn -0.005204 -0.074653 0.997196
vn -0.005204 -0.074653 0.997196
vn -0.500630 -0.833797 -0.232707
vn -0.500630 -0.833797 -0.232707
vn -0.500630 -0.833797 -0.232707
vn -0.500630 -0.833797 -0.232707
vn -0.232472 -0.954178 -0.188420
vn -0.232472 -0.954178 -0.188420
vn -0.232472 -0.954178 -0.188420
vn -0.232472 -0.954178 -0.188420
vn -0.232472 -0.954178 0.188421
vn -0.232472 -0.954178 0.188421
vn -0.232472 -0.954178 0.188421
vn -0.232472 -0.954178 0.188421
vn -0.500630 -0.833797 0.232708
vn -0.500630 -0.833797 0.232708
vn -0.500630 -0.833797 0.232708
vn -0.500630 -0.833797 0.232708
vn 0.082792 0.978191 -0.190492
vn 0.082792 0.978191 -0.190492
vn 0.082792 0.978191 -0.190492
vn 0.082792 0.978191 -0.190492
vn -0.218162 0.945881 -0.240239
vn -0.218162 0.945881 -0.240239
vn -0.218162 0.945881 -0.240239
vn -0.218162 0.945881 -0.240239
vn -0.218162 0.945881 0.240238
vn -0.218162 0.945881 0.240238
vn -0.218162 0.945881 0.240238
vn -0.218162 0.945881 0.240238
vn 0.082792 0.978191 0.190492
vn 0.082792 0.978191 0.190492
vn 0.082792 0.978191 0.190492
vn 0.082792 0.978191 0.190492
vn 0.038848 -0.500591 0.864812
vn 0.038848 -0.500591 0.864812
vn 0.038848 -0.500591 0.864812
vn 0.038848 -0.500591 0.864812
vn 0.008689 0.101748 0.994772
vn 0.008689 0.101748 0.994772
vn 0.008689 0.101748 0.994772
vn 0.008689 0.101748 0.994772
vn -0.231458 -0.357150 0.904915
vn -0.231458 -0.357150 0.904915
vn -0.231458 -0.357150 0.904915
vn -0.231458 -0.357150 0.904915
vn -0.231458 -0.357150 -0.904915
vn -0.231458 -0.357150 -0.904915
vn -0.231458 -0.357150 -0.904915
vn -0.231458 -0.357150 -0.904915
vn 0.008688 0.101748 -0.994772
vn 0.008688 0.101748 -0.994772
vn 0.008688 0.101748 -0.994772
vn 0.008688 0.101748 -0.994772
vn 0.038848 -0.500591 -0.864812
vn 0.038848 -0.500591 -0.864812
vn 0.038848 -0.500591 -0.864812
vn 0.038848 -0.500591 -0.864812
vn 0.346938 0.904209 0.249080
vn 0.346938 0.904209 0.249080
vn 0.346938 0.904209 0.249080
vn 0.346938 0.904209 0.249080
vn 0.346938 0.904209 -0.249080
vn 0.346938 0.904209 -0.249080
vn 0.346938 0.904209 -0.249080
vn 0.346938 0.904209 -0.249080
vn 0.554022 0.742025 -0.377436
vn 0.554022 0.742025 -0.377436
vn 0.554022 0.742025 -0.377436
vn 0.554022 0.742025 -0.377436
vn 0.554023 0.742025 0.377435
vn 0.554023 0.742025 0.377435
vn 0.554023 0.742025 0.377435
vn 0.554023 0.742025 0.377435
vn 0.940772 -0.027139 0.337952
vn 0.940772 -0.027139 0.337952
vn 0.940772 -0.027139 0.337952
vn 0.940772 -0.027139 0.337952
vn 0.720447 0.619061 0.312601
vn 0.720447 0.619061 0.312601
vn 0.720447 0.619061 0.312601
vn 0.720447 0.619061 0.312601
vn 0.720447 0.619061 -0.312601
vn 0.720447 0.619061 -0.312601
vn 0.720447 0.619061 -0.312601
vn 0.720447 0.619061 -0.312601
vn 0.940772 -0.027139 -0.337952
vn 0.940772 -0.027139 -0.337952
vn 0.940772 -0.027139 -0.337952
vn 0.940772 -0.027139 -0.337952
vn -0.491530 0.830275 0.262759
vn -0.491530 0.830275 0.262759
vn -0.491530 0.830275 0.262759
vn -0.491530 0.830275 0.262759
vn -0.491530 0.830275 -0.262759
vn -0.491530 0.830275 -0.262759
vn -0.491530 0.830275 -0.262759
vn -0.491530 0.830275 -0.262759
vn -0.159211 0.919901 -0.358377
vn -0.159211 0.919901 -0.358377
vn -0.159211 0.919901 -0.358377
vn -0.159211 0.919901 -0.358377
vn -0.159211 0.919901 0.358376
vn -0.159211 0.919901 0.358376
vn -0.159211 0.919901 0.358376
vn -0.159211 0.919901 0.358376
vn -0.284044 0.305784 -0.908744
vn -0.284044 0.305784 -0.908744
vn -0.284044 0.305784 -0.908744
vn -0.284044 0.305784 -0.908744
vn -0.031363 -0.238951 -0.970525
vn -0.031363 -0.238951 -0.970525
vn -0.031363 -0.238951 -0.970525
vn -0.031363 -0.238951 -0.970525
vn 0.338169 -0.313957 -0.887172
vn 0.338169 -0.313957 -0.887172
vn 0.338169 -0.313957 -0.887172
vn 0.338169 -0.313957 -0.887172
vn 0.063218 0.432299 -0.899512
vn 0.063218 0.432299 -0.899512
vn 0.063218 0.432299 -0.899512
vn 0.063218 0.432299 -0.899512
vn -0.031363 -0.238951 0.970525
vn -0.031363 -0.238951 0.970525
vn -0.031363 -0.238951 0.970525
vn -0.031363 -0.238951 0.970525
vn -0.284044 0.305785 0.908744
vn -0.284044 0.305785 0.908744
vn -0.284044 0.305785 0.908744
vn -0.284044 0.305785 0.908744
vn 0.063219 0.432299 0.899512
vn 0.063219 0.432299 0.899512
vn 0.063219 0.432299 0.899512
vn 0.063219 0.432299 0.899512
vn 0.338169 -0.313956 0.887172
vn 0.338169 -0.313956 0.887172
vn 0.338169 -0.313956 0.887172
vn 0.338169 -0.313956 0.887172
vn 0.493571 -0.838308 0.231578
vn 0.493571 -0.838308 0.231578
vn 0.493571 -0.838308 0.231578
vn 0.493571 -0.838308 0.231578
vn 0.846705 -0.427112 0.317280
vn 0.846705 -0.427112 0.317280
vn 0.846705 -0.427112 0.317280
vn 0.846705 -0.427112 0.317280
vn 0.846704 -0.427112 -0.317280
vn 0.846704 -0.427112 -0.317280
vn 0.846704 -0.427112 -0.317280
vn 0.846704 -0.427112 -0.317280
vn 0.493571 -0.838308 -0.231578
vn 0.493571 -0.838308 -0.231578
vn 0.493571 -0.838308 -0.231578
vn 0.493571 -0.838308 -0.231578
vn -0.744075 -0.613625 -0.264229
vn -0.744075 -0.613625 -0.264229
vn -0.744075 -0.613625 -0.264229
vn -0.744075 -0.613625 -0.264229
vn -0.744075 -0.613625 0.264229
vn -0.744075 -0.613625 0.264229
vn -0.744075 -0.613625 0.264229
vn -0.744075 -0.613625 0.264229
vn -0.285280 -0.892309 0.349856
vn -0.285280 -0.892309 0.349856
vn -0.285280 -0.892309 0.349856
vn -0.285280 -0.892309 0.349856
vn -0.285280 -0.892310 -0.349856
vn -0.285280 -0.892310 -0.349856
vn -0.285280 -0.892310 -0.349856
vn -0.285280 -0.892310 -0.349856
vn -0.048996 0.313713 -0.948253
vn -0.048996 0.313713 -0.948253
vn -0.048996 0.313713 -0.948253
vn -0.048996 0.313713 -0.948253
vn -0.410841 -0.161179 -0.897347
vn -0.410841 -0.161179 -0.897347
vn -0.410841 -0.161179 -0.897347
vn -0.410841 -0.161179 -0.897347
vn -0.030872 -0.470293 -0.881970
vn -0.030872 -0.470293 -0.881970
vn -0.030872 -0.470293 -0.881970
vn -0.030872 -0.470293 -0.881970
vn 0.335382 0.233297 -0.912738
vn 0.335382 0.233297 -0.912738
vn 0.335382 0.233297 -0.912738
vn 0.335382 0.233297 -0.912738
vn -0.410841 -0.161179 0.897347
vn -0.410841 -0.161179 0.897347
vn -0.410841 -0.161179 0.897347
vn -0.410841 -0.161179 0.897347
vn -0.048996 0.313714 0.948253
vn -0.048996 0.313714 0.948253
vn -0.048996 0.313714 0.948253
vn -0.048996 0.313714 0.948253
vn 0.335382 0.233297 0.912738
vn 0.335382 0.233297 0.912738
vn 0.335382 0.233297 0.912738
vn 0.335382 0.233297 0.912738
vn -0.030872 -0.470293 0.881971
vn -0.030872 -0.470293 0.881971
vn -0.030872 -0.470293 0.881971
vn -0.030872 -0.470293 0.881971
vn 0.679580 -0.461364 -0.570363
vn 0.679580 -0.461364 -0.570363
vn 0.679580 -0.461364 -0.570363
vn 0.679580 -0.461364 -0.570363
vn 0.719449 -0.063914 -0.691599
vn 0.719449 -0.063914 -0.691599
vn 0.719449 -0.063914 -0.691599
vn 0.719449 -0.063914 -0.691599
vn 0.719448 -0.063914 -0.691599
vn 0.719448 -0.063914 -0.691599
vn 0.619734 -0.070297 -0.781658
vn 0.619734 -0.070297 -0.781658
vn 0.619734 -0.070297 -0.781658
vn 0.619734 -0.070297 -0.781658
vn 0.635649 -0.072102 -0.768603
vn 0.635649 -0.072102 -0.768603
vn 0.595075 -0.518217 -0.614277
vn 0.595075 -0.518217 -0.614277
vn 0.595075 -0.518217 -0.614277
vn 0.595075 -0.518217 -0.614277
vn 0.703508 0.700386 -0.120568
vn 0.703508 0.700386 -0.120568
vn 0.703508 0.700386 -0.120568
vn 0.703508 0.700386 -0.120568
vn 0.680131 0.723008 -0.121170
vn 0.680131 0.723008 -0.121170
vn 0.703508 0.700386 0.120568
vn 0.703508 0.700386 0.120568
vn 0.703508 0.700386 0.120568
vn 0.703508 0.700386 0.120568
vn 0.680131 0.723008 0.121169
vn 0.680131 0.723008 0.121169
vn -0.150451 0.038096 0.987883
vn -0.150451 0.038096 0.987883
vn -0.150451 0.038096 0.987883
vn -0.150451 0.038096 0.987883
vn -0.145980 0.036964 0.988597
vn -0.145980 0.036964 0.988597
vn -0.209457 -0.554316 0.805520
vn -0.209457 -0.554316 0.805520
vn -0.209457 -0.554316 0.805520
vn -0.209457 -0.554316 0.805520
vn -0.646875 -0.420912 0.635914
vn -0.646875 -0.420912 0.635914
vn -0.646875 -0.420912 0.635914
vn -0.646875 -0.420912 0.635914
vn -0.572351 0.104169 0.813365
vn -0.572351 0.104169 0.813365
vn -0.572351 0.104169 0.813365
vn -0.572351 0.104169 0.813365
vn -0.543669 0.098949 0.833446
vn -0.543669 0.098949 0.833446
vn -0.103851 0.615412 0.781334
vn -0.103851 0.615412 0.781334
vn -0.103851 0.615412 0.781334
vn -0.103851 0.615412 0.781334
vn -0.451949 0.635936 0.625562
vn -0.451949 0.635936 0.625562
vn -0.451949 0.635936 0.625562
vn -0.451949 0.635936 0.625562
vn 0.766239 0.322612 0.555698
vn 0.766239 0.322612 0.555698
vn 0.766239 0.322612 0.555698
vn 0.766239 0.322612 0.555698
vn 0.719448 -0.063913 0.691599
vn 0.719448 -0.063913 0.691599
vn 0.719448 -0.063913 0.691599
vn 0.719448 -0.063913 0.691599
vn 0.719448 -0.063913 0.691599
vn 0.719448 -0.063913 0.691599
vn 0.635650 -0.072102 0.768603
vn 0.635650 -0.072102 0.768603
vn 0.635650 -0.072102 0.768603
vn 0.635650 -0.072102 0.768603
vn 0.619734 -0.070297 0.781657
vn 0.619734 -0.070297 0.781657
vn 0.713130 0.360332 0.601338
vn 0.713130 0.360332 0.601338
vn 0.713130 0.360332 0.601338
vn 0.713130 0.360332 0.601338
vn 0.679580 -0.461364 0.570363
vn 0.679580 -0.461364 0.570363
vn 0.679580 -0.461364 0.570363
vn 0.679580 -0.461364 0.570363
vn 0.595076 -0.518217 0.614277
vn 0.595076 -0.518217 0.614277
vn 0.595076 -0.518217 0.614277
vn 0.595076 -0.518217 0.614277
vn 0.522468 -0.843306 0.125943
vn 0.522468 -0.843306 0.125943
vn 0.522468 -0.843306 0.125943
vn 0.522468 -0.843306 0.125943
vn 0.491248 -0.862411 0.122159
vn 0.491248 -0.862411 0.122159
vn 0.522468 -0.843306 -0.125942
vn 0.522468 -0.843306 -0.125942
vn 0.522468 -0.843306 -0.125942
vn 0.522468 -0.843306 -0.125942
vn 0.491248 -0.862411 -0.122158
vn 0.491248 -0.862411 -0.122158
vn 0.766238 0.322613 -0.555698
vn 0.766238 0.322613 -0.555698
vn 0.766238 0.322613 -0.555698
vn 0.766238 0.322613 -0.555698
vn 0.713130 0.360332 -0.601338
vn 0.713130 0.360332 -0.601338
vn 0.713130 0.360332 -0.601338
vn 0.713130 0.360332 -0.601338
vn -0.956589 0.104888 -0.271911
vn -0.956589 0.104888 -0.271911
vn -0.956589 0.104888 -0.271911
vn -0.956589 0.104888 -0.271911
vn -0.962177 0.105499 -0.251168
vn -0.962177 0.105499 -0.251168
vn -0.729003 0.640116 -0.242499
vn -0.729003 0.640116 -0.242499
vn -0.729003 0.640116 -0.242499
vn -0.729003 0.640116 -0.242499
vn -0.729004 0.640116 0.242498
vn -0.729004 0.640116 0.242498
vn -0.729004 0.640116 0.242498
vn -0.729004 0.640116 0.242498
vn -0.956590 0.104887 0.271910
vn -0.956590 0.104887 0.271910
vn -0.956590 0.104887 0.271910
vn -0.956590 0.104887 0.271910
vn -0.962177 0.105499 0.251168
vn -0.962177 0.105499 0.251168
vn -0.908189 -0.356550 -0.219240
vn -0.908189 -0.356550 -0.219240
vn -0.908189 -0.356550 -0.219240
vn -0.908189 -0.356550 -0.219240
vn -0.908189 -0.356549 0.219240
vn -0.908189 -0.356549 0.219240
vn -0.908189 -0.356549 0.219240
vn -0.908189 -0.356549 0.219240
vn -0.210630 -0.965957 0.150208
vn -0.210630 -0.965957 0.150208
vn -0.210630 -0.965957 0.150208
vn -0.210630 -0.965957 0.150208
vn -0.210630 -0.965957 -0.150207
vn -0.210630 -0.965957 -0.150207
vn -0.210630 -0.965957 -0.150207
vn -0.210630 -0.965957 -0.150207
vn -0.558865 -0.813763 -0.159560
vn -0.558865 -0.813763 -0.159560
vn -0.558865 -0.813763 -0.159560
vn -0.558865 -0.813763 -0.159560
vn -0.558865 -0.813763 0.159561
vn -0.558865 -0.813763 0.159561
vn -0.558865 -0.813763 0.159561
vn -0.558865 -0.813763 0.159561
vn -0.145980 0.036963 -0.988597
vn -0.145980 0.036963 -0.988597
vn -0.145980 0.036963 -0.988597
vn -0.145980 0.036963 -0.988597
vn -0.150451 0.038096 -0.987883
vn -0.150451 0.038096 -0.987883
vn -0.103851 0.615412 -0.781334
vn -0.103851 0.615412 -0.781334
vn -0.103851 0.615412 -0.781334
vn -0.103851 0.615412 -0.781334
vn -0.451950 0.635936 -0.625561
vn -0.451950 0.635936 -0.625561
vn -0.451950 0.635936 -0.625561
vn -0.451950 0.635936 -0.625561
vn -0.543670 0.098949 -0.833446
vn -0.543670 0.098949 -0.833446
vn -0.543670 0.098949 -0.833446
vn -0.543670 0.098949 -0.833446
vn -0.572351 0.104169 -0.813365
vn -0.572351 0.104169 -0.813365
vn -0.044548 0.988572 -0.144018
vn -0.044548 0.988572 -0.144018
vn -0.044548 0.988572 -0.144018
vn -0.044548 0.988572 -0.144018
vn -0.044548 0.988572 0.144018
vn -0.044548 0.988572 0.144018
vn -0.044548 0.988572 0.144018
vn -0.044548 0.988572 0.144018
vn -0.291142 0.944115 0.154540
vn -0.291142 0.944115 0.154540
vn -0.291142 0.944115 0.154540
vn -0.291142 0.944115 0.154540
vn -0.291142 0.944115 -0.154540
vn -0.291142 0.944115 -0.154540
vn -0.291142 0.944115 -0.154540
vn -0.291142 0.944115 -0.154540
vn -0.209457 -0.554316 -0.805520
vn -0.209457 -0.554316 -0.805520
vn -0.209457 -0.554316 -0.805520
vn -0.209457 -0.554316 -0.805520
vn -0.646875 -0.420912 -0.635914
vn -0.646875 -0.420912 -0.635914
vn -0.646875 -0.420912 -0.635914
vn -0.646875 -0.420912 -0.635914
vn 0.251146 -0.606744 -0.754180
vn 0.251146 -0.606744 -0.754180
vn 0.251146 -0.606744 -0.754180
vn 0.251146 -0.606744 -0.754180
vn 0.286189 -0.052224 -0.956749
vn 0.286189 -0.052224 -0.956749
vn 0.286189 -0.052224 -0.956749
vn 0.286189 -0.052224 -0.956749
vn 0.300919 -0.054912 -0.952067
vn 0.300919 -0.054912 -0.952067
vn 0.107943 -0.027159 -0.993786
vn 0.107943 -0.027159 -0.993786
vn 0.107943 -0.027159 -0.993786
vn 0.107943 -0.027159 -0.993786
vn 0.111139 -0.027963 -0.993411
vn 0.111139 -0.027963 -0.993411
vn 0.073058 -0.611965 -0.787503
vn 0.073058 -0.611965 -0.787503
vn 0.073058 -0.611965 -0.787503
vn 0.073058 -0.611965 -0.787503
vn 0.342368 0.927844 -0.147949
vn 0.342368 0.927844 -0.147949
vn 0.342368 0.927844 -0.147949
vn 0.342368 0.927844 -0.147949
vn 0.342368 0.927844 0.147949
vn 0.342368 0.927844 0.147949
vn 0.342368 0.927844 0.147949
vn 0.342368 0.927844 0.147949
vn 0.156905 0.976199 0.149721
vn 0.156905 0.976199 0.149721
vn 0.156905 0.976199 0.149721
vn 0.156905 0.976199 0.149721
vn 0.156905 0.976199 -0.149721
vn 0.156905 0.976199 -0.149721
vn 0.156905 0.976199 -0.149721
vn 0.156905 0.976199 -0.149721
vn 0.369299 0.510265 -0.776690
vn 0.369299 0.510265 -0.776690
vn 0.369299 0.510265 -0.776690
vn 0.369299 0.510265 -0.776690
vn 0.156182 0.569172 -0.807249
vn 0.156182 0.569172 -0.807249
vn 0.156182 0.569172 -0.807249
vn 0.156182 0.569172 -0.807249
vn 0.171730 -0.975004 0.140979
vn 0.171730 -0.975004 0.140979
vn 0.171730 -0.975004 0.140979
vn 0.171730 -0.975004 0.140979
vn 0.171730 -0.975004 -0.140979
vn 0.171730 -0.975004 -0.140979
vn 0.171730 -0.975004 -0.140979
vn 0.171730 -0.975004 -0.140979
vn 0.025838 -0.989117 -0.144848
vn 0.025838 -0.989117 -0.144848
vn 0.025838 -0.989117 -0.144848
vn 0.025838 -0.989117 -0.144848
vn 0.025838 -0.989117 0.144848
vn 0.025838 -0.989117 0.144848
vn 0.025838 -0.989117 0.144848
vn 0.025838 -0.989117 0.144848
vn 0.369299 0.510265 0.776690
vn 0.369299 0.510265 0.776690
vn 0.369299 0.510265 0.776690
vn 0.369299 0.510265 0.776690
vn 0.300919 -0.054912 0.952067
vn 0.300919 -0.054912 0.952067
vn 0.300919 -0.054912 0.952067
vn 0.300919 -0.054912 0.952067
vn 0.286189 -0.052224 0.956749
vn 0.286189 -0.052224 0.956749
vn 0.111139 -0.027962 0.993411
vn 0.111139 -0.027962 0.993411
vn 0.111139 -0.027962 0.993411
vn 0.111139 -0.027962 0.993411
vn 0.107943 -0.027158 0.993786
vn 0.107943 -0.027158 0.993786
vn 0.156182 0.569172 0.807249
vn 0.156182 0.569172 0.807249
vn 0.156182 0.569172 0.807249
vn 0.156182 0.569172 0.807249
vn 0.251146 -0.606744 0.754181
vn 0.251146 -0.606744 0.754181
vn 0.251146 -0.606744 0.754181
vn 0.251146 -0.606744 0.754181
vn 0.073058 -0.611965 0.787503
vn 0.073058 -0.611965 0.787503
vn 0.073058 -0.611965 0.787503
vn 0.073058 -0.611965 0.787503
g ChickenLeg_Beige
usemtl Beige
f 1 2 3
f 1 3 4
f 5 6 7
f 5 7 8
f 9 10 11
f 9 11 12
f 13 14 15
f 13 15 16
f 17 18 19
f 17 19 20
f 21 22 23
f 21 23 24
f 25 26 27
f 25 27 28
f 29 30 31
f 29 32 30
f 33 30 32
f 33 34 30
f 35 36 37
f 35 37 38
f 39 38 37
f 39 37 40
f 41 42 43
f 41 43 44
f 45 46 47
f 45 47 48
f 49 50 51
f 49 51 52
f 53 54 55
f 53 55 56
f 57 58 59
f 57 59 60
f 61 62 63
f 61 63 64
f 65 66 67
f 65 67 68
f 69 70 71
f 69 71 72
f 73 74 75
f 73 75 76
f 77 78 79
f 77 79 80
f 81 82 83
f 81 83 84
f 85 86 87
f 85 87 88
f 89 90 91
f 89 91 92
f 93 94 95
f 93 95 96
f 97 98 99
f 97 99 100
f 101 102 103
f 101 103 104
f 105 106 107
f 105 107 108
f 109 110 111
f 109 111 112
f 113 114 115
f 113 115 116
f 117 118 119
f 117 119 120
f 121 122 123
f 121 123 124
f 125 126 127
f 125 127 128
f 129 130 131
f 129 131 132
f 133 134 135
f 133 135 136
f 137 138 139
f 137 139 140
f 141 142 143
f 141 143 144
f 145 146 147
f 145 147 148
f 149 150 151
f 149 151 152
f 153 154 155
f 153 155 156
f 157 158 159
f 157 159 160
f 161 162 163
f 161 163 164
f 165 166 167
f 165 167 168
f 169 170 171
f 169 171 172
f 173 174 175
f 173 175 176
f 177 178 179
f 177 179 180
f 181 182 183
f 181 183 184
f 185 186 187
f 185 187 188
f 189 190 191
f 189 191 192
f 193 194 195
f 193 195 196
f 197 198 199
f 197 199 200
f 201 202 203
f 201 203 204
f 205 206 207
f 205 207 208
f 209 210 211
f 209 211 212
f 213 214 215
f 213 215 216
f 217 218 219
f 217 219 220
f 221 222 223
f 221 223 224
f 225 226 227
f 225 227 228
f 229 230 231
f 229 231 232
f 233 234 235
f 233 235 236
f 237 238 239
f 237 239 240
f 241 242 243
f 241 243 244
f 245 246 247
f 245 247 248
f 249 250 251
f 249 251 252
g ChickenLeg_DarkBrown
usemtl DarkBrown
f 253 254 255
f 253 255 256
f 257 258 259
f 257 260 258
f 261 258 260
f 261 262 258
f 263 264 265
f 263 265 266
f 267 266 265
f 267 265 268
f 269 270 271
f 269 271 272
f 273 274 275
f 273 275 276
f 273 276 277
f 273 277 278
f 279 280 281
f 279 282 280
f 279 283 282
f 279 284 283
f 285 286 287
f 285 287 288
f 289 288 287
f 289 287 290
f 291 292 293
f 291 293 294
f 295 296 297
f 295 297 298
f 299 300 301
f 299 302 300
f 303 300 302
f 303 304 300
f 305 306 307
f 305 307 308
f 309 310 311
f 309 311 312
f 313 314 315
f 313 315 316
f 317 318 319
f 317 320 318
f 321 318 320
f 321 322 318
f 323 324 325
f 323 325 326
f 327 326 325
f 327 325 328
f 329 330 331
f 329 331 332
f 333 334 335
f 333 335 336
f 337 338 339
f 337 339 340
f 341 342 343
f 341 343 344
f 341 344 345
f 341 345 346
f 347 348 349
f 347 350 348
f 347 351 350
f 347 352 351
f 353 354 355
f 353 355 356
f 357 358 359
f 357 359 360
f 361 362 363
f 361 363 364
f 365 364 363
f 365 363 366
f 367 368 369
f 367 369 370
f 371 372 373
f 371 373 374
f 375 376 377
f 375 378 376
f 379 376 378
f 379 380 376
f 381 382 383
f 381 383 384
f 385 386 387
f 385 387 388
f 389 390 391
f 389 391 392
f 393 394 395
f 393 395 396
f 397 398 399
f 397 399 400
f 401 402 403
f 401 403 404
f 405 406 407
f 405 407 408
f 409 408 407
f 409 407 410
f 411 412 413
f 411 413 414
f 415 416 417
f 415 417 418
f 419 420 421
f 419 422 420
f 423 420 422
f 423 424 420
f 425 426 427
f 425 427 428
f 429 430 431
f 429 431 432
f 433 434 435
f 433 435 436
f 437 438 439
f 437 439 440
f 441 442 443
f 441 443 444
f 445 446 447
f 445 447 448
f 449 450 451
f 449 451 452
f 453 454 455
f 453 456 454
f 457 454 456
f 457 458 454
f 459 460 461
f 459 461 462
f 463 462 461
f 463 461 464
f 465 466 467
f 465 467 468
f 469 470 471
f 469 471 472
f 473 474 475
f 473 475 476
f 477 478 479
f 477 479 480
f 481 482 483
f 481 483 484
f 485 486 487
f 485 487 488
f 489 490 491
f 489 491 492
f 493 494 495
f 493 495 496
f 497 498 499
f 497 499 500
f 501 502 503
f 501 503 504
f 505 506 507
f 505 507 508
f 509 510 511
f 509 511 512
f 513 514 515
f 513 516 514
f 517 514 516
f 517 518 514
f 519 520 521
f 519 521 522
f 523 522 521
f 523 521 524
f 525 526 527
f 525 527 528
f 529 530 531
f 529 531 532
f 533 534 535
f 533 535 536
