mtllib Materials.mtl
# Ultimate Food Pack - ChocolateBar
o ChocolateBar
v 0.287605 0.066773 -0.402486
v 0.287605 0.060895 -0.414451
v 0.141618 0.060895 -0.414451
v 0.141618 0.066773 -0.402486
v 0.000000 0.060895 -0.414451
v 0.158376 0.075782 -0.383385
v 0.266099 0.075782 -0.383385
v 0.000000 0.066773 -0.402486
v 0.017137 0.075782 -0.383385
v 0.124860 0.075782 -0.383385
v -0.141618 0.066773 -0.402486
v -0.017137 0.075782 -0.383385
v -0.124860 0.075782 -0.383385
v -0.141618 0.060895 -0.414451
v -0.287605 0.066773 -0.402486
v -0.287605 0.060895 -0.414451
v -0.158376 0.075782 -0.383385
v -0.266099 0.075782 -0.383385
v 0.158376 0.075782 -0.260594
v 0.170018 0.093991 -0.275433
v 0.170018 0.093991 -0.368546
v 0.158376 0.075782 -0.383385
v 0.141618 0.066773 0.241492
v 0.017137 0.075782 0.260594
v 0.124860 0.075782 0.260594
v 0.000000 0.066773 0.241492
v 0.287605 0.066773 0.241492
v 0.158376 0.075782 0.260594
v 0.266099 0.075782 0.260594
v -0.141618 0.066773 0.241492
v -0.017137 0.075782 0.260594
v -0.124860 0.075782 0.260594
v -0.287605 0.066773 0.241492
v -0.158376 0.075782 0.260594
v -0.266099 0.075782 0.260594
v 0.141618 0.066773 0.402486
v 0.124860 0.075782 0.260594
v 0.124860 0.075782 0.383385
v 0.141618 0.066773 0.241492
v 0.124860 0.075782 0.099599
v 0.124860 0.075782 0.222390
v 0.141618 0.066773 0.080497
v 0.124860 0.075782 -0.061395
v 0.124860 0.075782 0.061395
v 0.141618 0.066773 -0.080497
v 0.124860 0.075782 -0.222390
v 0.124860 0.075782 -0.099599
v 0.141618 0.066773 -0.241492
v 0.141618 0.066773 -0.402486
v 0.124860 0.075782 -0.383385
v 0.124860 0.075782 -0.260594
v 0.000000 0.066773 0.402486
v 0.124860 0.075782 0.383385
v 0.017137 0.075782 0.383385
v 0.141618 0.066773 0.402486
v 0.141618 0.060895 0.414451
v 0.000000 0.060895 0.414451
v 0.287605 0.060895 0.414451
v 0.287605 0.066773 0.402486
v 0.266099 0.075782 0.383385
v 0.158376 0.075782 0.383385
v -0.141618 0.060895 0.414451
v -0.141618 0.066773 0.402486
v -0.287605 0.060895 0.414451
v -0.287605 0.066773 0.402486
v -0.266099 0.075782 0.383385
v -0.158376 0.075782 0.383385
v -0.124860 0.075782 0.383385
v -0.017137 0.075782 0.383385
v 0.000000 0.066773 0.241492
v 0.000000 0.066773 0.402486
v 0.017137 0.075782 0.383385
v 0.017137 0.075782 0.260594
v 0.000000 0.066773 0.080497
v 0.017137 0.075782 0.222390
v 0.017137 0.075782 0.099599
v 0.000000 0.066773 -0.080497
v 0.017137 0.075782 0.061395
v 0.017137 0.075782 -0.061395
v 0.000000 0.066773 -0.241492
v 0.017137 0.075782 -0.099599
v 0.017137 0.075782 -0.222390
v 0.000000 0.066773 -0.402486
v 0.017137 0.075782 -0.260594
v 0.017137 0.075782 -0.383385
v 0.287605 0.066773 0.402486
v 0.266099 0.075782 0.260594
v 0.266099 0.075782 0.383385
v 0.287605 0.066773 0.241492
v 0.266099 0.075782 0.099599
v 0.266099 0.075782 0.222390
v 0.287605 0.066773 0.080497
v 0.266099 0.075782 -0.061395
v 0.266099 0.075782 0.061395
v 0.287605 0.066773 -0.080497
v 0.266099 0.075782 -0.222390
v 0.266099 0.075782 -0.099599
v 0.287605 0.066773 -0.241492
v 0.287605 0.066773 -0.402486
v 0.266099 0.075782 -0.383385
v 0.266099 0.075782 -0.260594
v 0.141618 0.066773 0.241492
v 0.141618 0.066773 0.402486
v 0.158376 0.075782 0.383385
v 0.158376 0.075782 0.260594
v 0.141618 0.066773 0.080497
v 0.158376 0.075782 0.222390
v 0.158376 0.075782 0.099599
v 0.141618 0.066773 -0.080497
v 0.158376 0.075782 0.061395
v 0.158376 0.075782 -0.061395
v 0.141618 0.066773 -0.241492
v 0.158376 0.075782 -0.099599
v 0.158376 0.075782 -0.222390
v 0.141618 0.066773 -0.402486
v 0.158376 0.075782 -0.260594
v 0.158376 0.075782 -0.383385
v 0.141618 0.066773 -0.241492
v 0.287605 0.066773 -0.241492
v 0.266099 0.075782 -0.260594
v 0.158376 0.075782 -0.260594
v 0.000000 0.066773 -0.241492
v 0.124860 0.075782 -0.260594
v 0.017137 0.075782 -0.260594
v -0.017137 0.075782 -0.260594
v -0.124860 0.075782 -0.260594
v -0.141618 0.066773 -0.241492
v -0.158376 0.075782 -0.260594
v -0.266099 0.075782 -0.260594
v -0.287605 0.066773 -0.241492
v 0.287605 0.066773 -0.241492
v 0.158376 0.075782 -0.222390
v 0.266099 0.075782 -0.222390
v 0.141618 0.066773 -0.241492
v 0.017137 0.075782 -0.222390
v 0.124860 0.075782 -0.222390
v 0.000000 0.066773 -0.241492
v -0.141618 0.066773 -0.241492
v -0.017137 0.075782 -0.222390
v -0.124860 0.075782 -0.222390
v -0.287605 0.066773 -0.241492
v -0.158376 0.075782 -0.222390
v -0.266099 0.075782 -0.222390
v 0.141618 0.066773 -0.080497
v 0.287605 0.066773 -0.080497
v 0.266099 0.075782 -0.099599
v 0.158376 0.075782 -0.099599
v 0.000000 0.066773 -0.080497
v 0.124860 0.075782 -0.099599
v 0.017137 0.075782 -0.099599
v -0.017137 0.075782 -0.099599
v -0.124860 0.075782 -0.099599
v -0.141618 0.066773 -0.080497
v -0.158376 0.075782 -0.099599
v -0.266099 0.075782 -0.099599
v -0.287605 0.066773 -0.080497
v 0.266099 0.075782 -0.260594
v 0.254456 0.093991 -0.275433
v 0.170018 0.093991 -0.275433
v 0.158376 0.075782 -0.260594
v 0.287605 0.066773 -0.080497
v 0.158376 0.075782 -0.061395
v 0.266099 0.075782 -0.061395
v 0.141618 0.066773 -0.080497
v 0.017137 0.075782 -0.061395
v 0.124860 0.075782 -0.061395
v 0.000000 0.066773 -0.080497
v -0.141618 0.066773 -0.080497
v -0.017137 0.075782 -0.061395
v -0.124860 0.075782 -0.061395
v -0.287605 0.066773 -0.080497
v -0.158376 0.075782 -0.061395
v -0.266099 0.075782 -0.061395
v 0.141618 0.066773 0.080497
v 0.287605 0.066773 0.080497
v 0.266099 0.075782 0.061395
v 0.158376 0.075782 0.061395
v 0.000000 0.066773 0.080497
v 0.124860 0.075782 0.061395
v 0.017137 0.075782 0.061395
v -0.017137 0.075782 0.061395
v -0.124860 0.075782 0.061395
v -0.141618 0.066773 0.080497
v -0.158376 0.075782 0.061395
v -0.266099 0.075782 0.061395
v -0.287605 0.066773 0.080497
v 0.287605 0.066773 0.080497
v 0.158376 0.075782 0.099599
v 0.266099 0.075782 0.099599
v 0.141618 0.066773 0.080497
v 0.017137 0.075782 0.099599
v 0.124860 0.075782 0.099599
v 0.000000 0.066773 0.080497
v -0.141618 0.066773 0.080497
v -0.017137 0.075782 0.099599
v -0.124860 0.075782 0.099599
v -0.287605 0.066773 0.080497
v -0.158376 0.075782 0.099599
v -0.266099 0.075782 0.099599
v 0.141618 0.066773 0.241492
v 0.287605 0.066773 0.241492
v 0.266099 0.075782 0.222390
v 0.158376 0.075782 0.222390
v 0.000000 0.066773 0.241492
v 0.124860 0.075782 0.222390
v 0.017137 0.075782 0.222390
v -0.017137 0.075782 0.222390
v -0.124860 0.075782 0.222390
v -0.141618 0.066773 0.241492
v -0.158376 0.075782 0.222390
v -0.266099 0.075782 0.222390
v -0.287605 0.066773 0.241492
v 0.266099 0.075782 -0.383385
v 0.254456 0.093991 -0.368546
v 0.254456 0.093991 -0.275433
v 0.266099 0.075782 -0.260594
v 0.158376 0.075782 0.222390
v 0.170018 0.093991 0.207551
v 0.170018 0.093991 0.114438
v 0.158376 0.075782 0.099599
v 0.158376 0.075782 -0.383385
v 0.170018 0.093991 -0.368546
v 0.254456 0.093991 -0.368546
v 0.266099 0.075782 -0.383385
v 0.266099 0.075782 0.222390
v 0.254456 0.093991 0.207551
v 0.170018 0.093991 0.207551
v 0.158376 0.075782 0.222390
v 0.266099 0.075782 0.099599
v 0.254456 0.093991 0.114438
v 0.254456 0.093991 0.207551
v 0.266099 0.075782 0.222390
v 0.017137 0.075782 0.061395
v 0.028780 0.093991 0.046557
v 0.028780 0.093991 -0.046557
v 0.017137 0.075782 -0.061395
v 0.158376 0.075782 0.099599
v 0.170018 0.093991 0.114438
v 0.254456 0.093991 0.114438
v 0.266099 0.075782 0.099599
v 0.124860 0.075782 0.061395
v 0.113218 0.093991 0.046557
v 0.028780 0.093991 0.046557
v 0.017137 0.075782 0.061395
v 0.028780 0.093991 0.275432
v 0.028780 0.093991 0.368546
v 0.113218 0.093991 0.368546
v 0.113218 0.093991 0.275432
v 0.170018 0.093991 0.275432
v 0.170018 0.093991 0.368546
v 0.254456 0.093991 0.368546
v 0.254456 0.093991 0.275432
v 0.170018 0.093991 -0.368546
v 0.170018 0.093991 -0.275433
v 0.254456 0.093991 -0.275433
v 0.254456 0.093991 -0.368546
v 0.170018 0.093991 -0.207551
v 0.170018 0.093991 -0.114438
v 0.254456 0.093991 -0.114438
v 0.254456 0.093991 -0.207551
v 0.170018 0.093991 -0.046557
v 0.170018 0.093991 0.046557
v 0.254456 0.093991 0.046557
v 0.254456 0.093991 -0.046557
v 0.170018 0.093991 0.114438
v 0.170018 0.093991 0.207551
v 0.254456 0.093991 0.207551
v 0.254456 0.093991 0.114438
v 0.028780 0.093991 -0.368546
v 0.028780 0.093991 -0.275433
v 0.113218 0.093991 -0.275433
v 0.113218 0.093991 -0.368546
v 0.028780 0.093991 -0.207551
v 0.028780 0.093991 -0.114438
v 0.113218 0.093991 -0.114438
v 0.113218 0.093991 -0.207551
v 0.028780 0.093991 -0.046557
v 0.028780 0.093991 0.046557
v 0.113218 0.093991 0.046557
v 0.113218 0.093991 -0.046557
v 0.028780 0.093991 0.114438
v 0.028780 0.093991 0.207551
v 0.113218 0.093991 0.207551
v 0.113218 0.093991 0.114438
v 0.017137 0.075782 0.099599
v 0.028780 0.093991 0.114438
v 0.113218 0.093991 0.114438
v 0.124860 0.075782 0.099599
v 0.124860 0.075782 0.099599
v 0.113218 0.093991 0.114438
v 0.113218 0.093991 0.207551
v 0.124860 0.075782 0.222390
v 0.124860 0.075782 0.222390
v 0.113218 0.093991 0.207551
v 0.028780 0.093991 0.207551
v 0.017137 0.075782 0.222390
v 0.017137 0.075782 -0.383385
v 0.028780 0.093991 -0.368546
v 0.113218 0.093991 -0.368546
v 0.124860 0.075782 -0.383385
v 0.017137 0.075782 0.222390
v 0.028780 0.093991 0.207551
v 0.028780 0.093991 0.114438
v 0.017137 0.075782 0.099599
v 0.124860 0.075782 -0.383385
v 0.113218 0.093991 -0.368546
v 0.113218 0.093991 -0.275433
v 0.124860 0.075782 -0.260594
v 0.124860 0.075782 -0.260594
v 0.113218 0.093991 -0.275433
v 0.028780 0.093991 -0.275433
v 0.017137 0.075782 -0.260594
v 0.158376 0.075782 -0.222390
v 0.170018 0.093991 -0.207551
v 0.254456 0.093991 -0.207551
v 0.266099 0.075782 -0.222390
v 0.017137 0.075782 -0.260594
v 0.028780 0.093991 -0.275433
v 0.028780 0.093991 -0.368546
v 0.017137 0.075782 -0.383385
v 0.266099 0.075782 -0.222390
v 0.254456 0.093991 -0.207551
v 0.254456 0.093991 -0.114438
v 0.266099 0.075782 -0.099599
v 0.266099 0.075782 -0.099599
v 0.254456 0.093991 -0.114438
v 0.170018 0.093991 -0.114438
v 0.158376 0.075782 -0.099599
v 0.017137 0.075782 0.260594
v 0.028780 0.093991 0.275432
v 0.113218 0.093991 0.275432
v 0.124860 0.075782 0.260594
v 0.158376 0.075782 -0.099599
v 0.170018 0.093991 -0.114438
v 0.170018 0.093991 -0.207551
v 0.158376 0.075782 -0.222390
v 0.124860 0.075782 0.260594
v 0.113218 0.093991 0.275432
v 0.113218 0.093991 0.368546
v 0.124860 0.075782 0.383385
v 0.124860 0.075782 0.383385
v 0.113218 0.093991 0.368546
v 0.028780 0.093991 0.368546
v 0.017137 0.075782 0.383385
v 0.017137 0.075782 0.383385
v 0.028780 0.093991 0.368546
v 0.028780 0.093991 0.275432
v 0.017137 0.075782 0.260594
v 0.017137 0.075782 -0.222390
v 0.028780 0.093991 -0.207551
v 0.113218 0.093991 -0.207551
v 0.124860 0.075782 -0.222390
v 0.124860 0.075782 -0.222390
v 0.113218 0.093991 -0.207551
v 0.113218 0.093991 -0.114438
v 0.124860 0.075782 -0.099599
v 0.124860 0.075782 -0.099599
v 0.113218 0.093991 -0.114438
v 0.028780 0.093991 -0.114438
v 0.017137 0.075782 -0.099599
v 0.158376 0.075782 -0.061395
v 0.170018 0.093991 -0.046557
v 0.254456 0.093991 -0.046557
v 0.266099 0.075782 -0.061395
v 0.017137 0.075782 -0.099599
v 0.028780 0.093991 -0.114438
v 0.028780 0.093991 -0.207551
v 0.017137 0.075782 -0.222390
v 0.266099 0.075782 -0.061395
v 0.254456 0.093991 -0.046557
v 0.254456 0.093991 0.046557
v 0.266099 0.075782 0.061395
v 0.266099 0.075782 0.061395
v 0.254456 0.093991 0.046557
v 0.170018 0.093991 0.046557
v 0.158376 0.075782 0.061395
v 0.158376 0.075782 0.260594
v 0.170018 0.093991 0.275432
v 0.254456 0.093991 0.275432
v 0.266099 0.075782 0.260594
v 0.158376 0.075782 0.061395
v 0.170018 0.093991 0.046557
v 0.170018 0.093991 -0.046557
v 0.158376 0.075782 -0.061395
v 0.266099 0.075782 0.260594
v 0.254456 0.093991 0.275432
v 0.254456 0.093991 0.368546
v 0.266099 0.075782 0.383385
v 0.266099 0.075782 0.383385
v 0.254456 0.093991 0.368546
v 0.170018 0.093991 0.368546
v 0.158376 0.075782 0.383385
v 0.158376 0.075782 0.383385
v 0.170018 0.093991 0.368546
v 0.170018 0.093991 0.275432
v 0.158376 0.075782 0.260594
v 0.017137 0.075782 -0.061395
v 0.028780 0.093991 -0.046557
v 0.113218 0.093991 -0.046557
v 0.124860 0.075782 -0.061395
v 0.124860 0.075782 -0.061395
v 0.113218 0.093991 -0.046557
v 0.113218 0.093991 0.046557
v 0.124860 0.075782 0.061395
v 0.287605 0.060895 -0.414451
v 0.287605 0.060895 -0.437101
v 0.141618 0.060895 -0.437101
v 0.141618 0.060895 -0.414451
v 0.000000 0.060895 -0.437101
v 0.000000 0.060895 -0.414451
v -0.141618 0.060895 -0.414451
v -0.141618 0.060895 -0.437101
v -0.287605 0.060895 -0.414451
v -0.287605 0.060895 -0.437101
v 0.141618 0.060895 0.414451
v 0.287605 0.060895 0.437101
v 0.287605 0.060895 0.414451
v 0.141618 0.060895 0.437101
v 0.000000 0.060895 0.414451
v 0.000000 0.060895 0.437101
v -0.141618 0.060895 0.437101
v -0.141618 0.060895 0.414451
v -0.287605 0.060895 0.437101
v -0.287605 0.060895 0.414451
v 0.287605 0.060895 -0.437101
v 0.287605 0.025679 -0.437101
v 0.141618 0.025679 -0.437101
v 0.141618 0.060895 -0.437101
v 0.000000 0.025679 -0.437101
v 0.000000 0.060895 -0.437101
v -0.141618 0.060895 -0.437101
v -0.141618 0.025679 -0.437101
v -0.287605 0.060895 -0.437101
v -0.287605 0.025679 -0.437101
v 0.141618 0.060895 0.437101
v 0.287605 0.025679 0.437101
v 0.287605 0.060895 0.437101
v 0.141618 0.025679 0.437101
v 0.000000 0.060895 0.437101
v 0.000000 0.025679 0.437101
v -0.141618 0.025679 0.437101
v -0.141618 0.060895 0.437101
v -0.287605 0.025679 0.437101
v -0.287605 0.060895 0.437101
v 0.287605 0.060895 0.414451
v 0.287605 0.060895 0.437101
v 0.287605 0.025679 0.437101
v 0.287605 0.025679 -0.437101
v 0.287605 0.066773 0.402486
v 0.287605 0.066773 0.241492
v 0.287605 0.066773 0.080497
v 0.287605 0.066773 -0.080497
v 0.287605 0.066773 -0.241492
v 0.287605 0.066773 -0.402486
v 0.287605 0.060895 -0.414451
v 0.287605 0.060895 -0.437101
v 0.141618 0.025679 -0.437101
v 0.287605 0.025679 -0.437101
v 0.287605 0.025679 0.437101
v 0.141618 0.025679 0.437101
v 0.000000 0.025679 -0.437101
v 0.000000 0.025679 0.437101
v -0.141618 0.025679 -0.437101
v -0.141618 0.025679 0.437101
v -0.287605 0.025679 -0.437101
v -0.287605 0.025679 0.437101
v -0.158376 0.075782 -0.260594
v -0.158376 0.075782 -0.383385
v -0.170018 0.093991 -0.368546
v -0.170018 0.093991 -0.275433
v -0.141618 0.066773 0.402486
v -0.124860 0.075782 0.383385
v -0.124860 0.075782 0.260594
v -0.141618 0.066773 0.241492
v -0.124860 0.075782 0.222390
v -0.124860 0.075782 0.099599
v -0.141618 0.066773 0.080497
v -0.124860 0.075782 0.061395
v -0.124860 0.075782 -0.061395
v -0.141618 0.066773 -0.080497
v -0.124860 0.075782 -0.099599
v -0.124860 0.075782 -0.222390
v -0.141618 0.066773 -0.241492
v -0.124860 0.075782 -0.260594
v -0.124860 0.075782 -0.383385
v -0.141618 0.066773 -0.402486
v 0.000000 0.066773 0.241492
v -0.017137 0.075782 0.260594
v -0.017137 0.075782 0.383385
v 0.000000 0.066773 0.402486
v 0.000000 0.066773 0.080497
v -0.017137 0.075782 0.222390
v -0.017137 0.075782 0.099599
v 0.000000 0.066773 -0.080497
v -0.017137 0.075782 0.061395
v -0.017137 0.075782 -0.061395
v 0.000000 0.066773 -0.241492
v -0.017137 0.075782 -0.099599
v -0.017137 0.075782 -0.222390
v 0.000000 0.066773 -0.402486
v -0.017137 0.075782 -0.260594
v -0.017137 0.075782 -0.383385
v -0.287605 0.066773 0.402486
v -0.266099 0.075782 0.383385
v -0.266099 0.075782 0.260594
v -0.287605 0.066773 0.241492
v -0.266099 0.075782 0.222390
v -0.266099 0.075782 0.099599
v -0.287605 0.066773 0.080497
v -0.266099 0.075782 0.061395
v -0.266099 0.075782 -0.061395
v -0.287605 0.066773 -0.080497
v -0.266099 0.075782 -0.099599
v -0.266099 0.075782 -0.222390
v -0.287605 0.066773 -0.241492
v -0.266099 0.075782 -0.260594
v -0.266099 0.075782 -0.383385
v -0.287605 0.066773 -0.402486
v -0.141618 0.066773 0.241492
v -0.158376 0.075782 0.260594
v -0.158376 0.075782 0.383385
v -0.141618 0.066773 0.402486
v -0.141618 0.066773 0.080497
v -0.158376 0.075782 0.222390
v -0.158376 0.075782 0.099599
v -0.141618 0.066773 -0.080497
v -0.158376 0.075782 0.061395
v -0.158376 0.075782 -0.061395
v -0.141618 0.066773 -0.241492
v -0.158376 0.075782 -0.099599
v -0.158376 0.075782 -0.222390
v -0.141618 0.066773 -0.402486
v -0.158376 0.075782 -0.260594
v -0.158376 0.075782 -0.383385
v -0.266099 0.075782 -0.260594
v -0.158376 0.075782 -0.260594
v -0.170018 0.093991 -0.275433
v -0.254456 0.093991 -0.275433
v -0.266099 0.075782 -0.383385
v -0.266099 0.075782 -0.260594
v -0.254456 0.093991 -0.275433
v -0.254456 0.093991 -0.368546
v -0.158376 0.075782 0.222390
v -0.158376 0.075782 0.099599
v -0.170018 0.093991 0.114438
v -0.170018 0.093991 0.207551
v -0.158376 0.075782 -0.383385
v -0.266099 0.075782 -0.383385
v -0.254456 0.093991 -0.368546
v -0.170018 0.093991 -0.368546
v -0.266099 0.075782 0.222390
v -0.158376 0.075782 0.222390
v -0.170018 0.093991 0.207551
v -0.254456 0.093991 0.207551
v -0.266099 0.075782 0.099599
v -0.266099 0.075782 0.222390
v -0.254456 0.093991 0.207551
v -0.254456 0.093991 0.114438
v -0.017137 0.075782 0.061395
v -0.017137 0.075782 -0.061395
v -0.028780 0.093991 -0.046557
v -0.028780 0.093991 0.046557
v -0.158376 0.075782 0.099599
v -0.266099 0.075782 0.099599
v -0.254456 0.093991 0.114438
v -0.170018 0.093991 0.114438
v -0.124860 0.075782 0.061395
v -0.017137 0.075782 0.061395
v -0.028780 0.093991 0.046557
v -0.113218 0.093991 0.046557
v -0.028780 0.093991 0.275432
v -0.113218 0.093991 0.275432
v -0.113218 0.093991 0.368546
v -0.028780 0.093991 0.368546
v -0.170018 0.093991 0.275432
v -0.254456 0.093991 0.275432
v -0.254456 0.093991 0.368546
v -0.170018 0.093991 0.368546
v -0.170018 0.093991 -0.368546
v -0.254456 0.093991 -0.368546
v -0.254456 0.093991 -0.275433
v -0.170018 0.093991 -0.275433
v -0.170018 0.093991 -0.207551
v -0.254456 0.093991 -0.207551
v -0.254456 0.093991 -0.114438
v -0.170018 0.093991 -0.114438
v -0.170018 0.093991 -0.046557
v -0.254456 0.093991 -0.046557
v -0.254456 0.093991 0.046557
v -0.170018 0.093991 0.046557
v -0.170018 0.093991 0.114438
v -0.254456 0.093991 0.114438
v -0.254456 0.093991 0.207551
v -0.170018 0.093991 0.207551
v -0.028780 0.093991 -0.368546
v -0.113218 0.093991 -0.368546
v -0.113218 0.093991 -0.275433
v -0.028780 0.093991 -0.275433
v -0.028780 0.093991 -0.207551
v -0.113218 0.093991 -0.207551
v -0.113218 0.093991 -0.114438
v -0.028780 0.093991 -0.114438
v -0.028780 0.093991 -0.046557
v -0.113218 0.093991 -0.046557
v -0.113218 0.093991 0.046557
v -0.028780 0.093991 0.046557
v -0.028780 0.093991 0.114438
v -0.113218 0.093991 0.114438
v -0.113218 0.093991 0.207551
v -0.028780 0.093991 0.207551
v -0.017137 0.075782 0.099599
v -0.124860 0.075782 0.099599
v -0.113218 0.093991 0.114438
v -0.028780 0.093991 0.114438
v -0.124860 0.075782 0.099599
v -0.124860 0.075782 0.222390
v -0.113218 0.093991 0.207551
v -0.113218 0.093991 0.114438
v -0.124860 0.075782 0.222390
v -0.017137 0.075782 0.222390
v -0.028780 0.093991 0.207551
v -0.113218 0.093991 0.207551
v -0.017137 0.075782 -0.383385
v -0.124860 0.075782 -0.383385
v -0.113218 0.093991 -0.368546
v -0.028780 0.093991 -0.368546
v -0.017137 0.075782 0.222390
v -0.017137 0.075782 0.099599
v -0.028780 0.093991 0.114438
v -0.028780 0.093991 0.207551
v -0.124860 0.075782 -0.383385
v -0.124860 0.075782 -0.260594
v -0.113218 0.093991 -0.275433
v -0.113218 0.093991 -0.368546
v -0.124860 0.075782 -0.260594
v -0.017137 0.075782 -0.260594
v -0.028780 0.093991 -0.275433
v -0.113218 0.093991 -0.275433
v -0.158376 0.075782 -0.222390
v -0.266099 0.075782 -0.222390
v -0.254456 0.093991 -0.207551
v -0.170018 0.093991 -0.207551
v -0.017137 0.075782 -0.260594
v -0.017137 0.075782 -0.383385
v -0.028780 0.093991 -0.368546
v -0.028780 0.093991 -0.275433
v -0.266099 0.075782 -0.222390
v -0.266099 0.075782 -0.099599
v -0.254456 0.093991 -0.114438
v -0.254456 0.093991 -0.207551
v -0.266099 0.075782 -0.099599
v -0.158376 0.075782 -0.099599
v -0.170018 0.093991 -0.114438
v -0.254456 0.093991 -0.114438
v -0.017137 0.075782 0.260594
v -0.124860 0.075782 0.260594
v -0.113218 0.093991 0.275432
v -0.028780 0.093991 0.275432
v -0.158376 0.075782 -0.099599
v -0.158376 0.075782 -0.222390
v -0.170018 0.093991 -0.207551
v -0.170018 0.093991 -0.114438
v -0.124860 0.075782 0.260594
v -0.124860 0.075782 0.383385
v -0.113218 0.093991 0.368546
v -0.113218 0.093991 0.275432
v -0.124860 0.075782 0.383385
v -0.017137 0.075782 0.383385
v -0.028780 0.093991 0.368546
v -0.113218 0.093991 0.368546
v -0.017137 0.075782 0.383385
v -0.017137 0.075782 0.260594
v -0.028780 0.093991 0.275432
v -0.028780 0.093991 0.368546
v -0.017137 0.075782 -0.222390
v -0.124860 0.075782 -0.222390
v -0.113218 0.093991 -0.207551
v -0.028780 0.093991 -0.207551
v -0.124860 0.075782 -0.222390
v -0.124860 0.075782 -0.099599
v -0.113218 0.093991 -0.114438
v -0.113218 0.093991 -0.207551
v -0.124860 0.075782 -0.099599
v -0.017137 0.075782 -0.099599
v -0.028780 0.093991 -0.114438
v -0.113218 0.093991 -0.114438
v -0.158376 0.075782 -0.061395
v -0.266099 0.075782 -0.061395
v -0.254456 0.093991 -0.046557
v -0.170018 0.093991 -0.046557
v -0.017137 0.075782 -0.099599
v -0.017137 0.075782 -0.222390
v -0.028780 0.093991 -0.207551
v -0.028780 0.093991 -0.114438
v -0.266099 0.075782 -0.061395
v -0.266099 0.075782 0.061395
v -0.254456 0.093991 0.046557
v -0.254456 0.093991 -0.046557
v -0.266099 0.075782 0.061395
v -0.158376 0.075782 0.061395
v -0.170018 0.093991 0.046557
v -0.254456 0.093991 0.046557
v -0.158376 0.075782 0.260594
v -0.266099 0.075782 0.260594
v -0.254456 0.093991 0.275432
v -0.170018 0.093991 0.275432
v -0.158376 0.075782 0.061395
v -0.158376 0.075782 -0.061395
v -0.170018 0.093991 -0.046557
v -0.170018 0.093991 0.046557
v -0.266099 0.075782 0.260594
v -0.266099 0.075782 0.383385
v -0.254456 0.093991 0.368546
v -0.254456 0.093991 0.275432
v -0.266099 0.075782 0.383385
v -0.158376 0.075782 0.383385
v -0.170018 0.093991 0.368546
v -0.254456 0.093991 0.368546
v -0.158376 0.075782 0.383385
v -0.158376 0.075782 0.260594
v -0.170018 0.093991 0.275432
v -0.170018 0.093991 0.368546
v -0.017137 0.075782 -0.061395
v -0.124860 0.075782 -0.061395
v -0.113218 0.093991 -0.046557
v -0.028780 0.093991 -0.046557
v -0.124860 0.075782 -0.061395
v -0.124860 0.075782 0.061395
v -0.113218 0.093991 0.046557
v -0.113218 0.093991 -0.046557
v -0.287605 0.025679 -0.437101
v -0.287605 0.025679 0.437101
v -0.287605 0.060895 0.437101
v -0.287605 0.060895 0.414451
v -0.287605 0.066773 0.402486
v -0.287605 0.066773 0.241492
v -0.287605 0.066773 0.080497
v -0.287605 0.066773 -0.080497
v -0.287605 0.066773 -0.241492
v -0.287605 0.066773 -0.402486
v -0.287605 0.060895 -0.414451
v -0.287605 0.060895 -0.437101
vn 0.000000 0.897557 -0.440898
vn 0.000000 0.897557 -0.440898
vn 0.000000 0.897557 -0.440898
vn 0.000000 0.897557 -0.440898
vn 0.000000 0.897557 -0.440898
vn 0.000000 0.904443 -0.426594
vn 0.000000 0.904443 -0.426594
vn 0.000000 0.904444 -0.426593
vn 0.000000 0.904444 -0.426593
vn 0.000000 0.904444 -0.426593
vn 0.000000 0.897557 -0.440898
vn 0.000000 0.904444 -0.426593
vn 0.000000 0.904444 -0.426593
vn 0.000000 0.897557 -0.440898
vn 0.000000 0.897557 -0.440898
vn 0.000000 0.897557 -0.440898
vn 0.000000 0.904444 -0.426593
vn 0.000000 0.904444 -0.426593
vn -0.842506 0.538688 0.000000
vn -0.842506 0.538688 0.000000
vn -0.842506 0.538688 0.000000
vn -0.842506 0.538688 0.000000
vn 0.000000 0.904444 -0.426593
vn 0.000000 0.904444 -0.426593
vn 0.000000 0.904444 -0.426593
vn 0.000000 0.904444 -0.426593
vn 0.000000 0.904444 -0.426593
vn 0.000000 0.904444 -0.426593
vn 0.000000 0.904444 -0.426593
vn 0.000000 0.904444 -0.426593
vn 0.000000 0.904444 -0.426593
vn 0.000000 0.904444 -0.426593
vn 0.000000 0.904444 -0.426593
vn 0.000000 0.904444 -0.426593
vn 0.000000 0.904444 -0.426593
vn 0.473538 0.880774 0.000000
vn 0.473538 0.880774 0.000000
vn 0.473538 0.880774 0.000000
vn 0.473538 0.880774 0.000000
vn 0.473538 0.880773 0.000000
vn 0.473538 0.880773 0.000000
vn 0.473538 0.880774 0.000000
vn 0.473538 0.880774 0.000000
vn 0.473538 0.880774 0.000000
vn 0.473538 0.880773 0.000000
vn 0.473538 0.880773 0.000000
vn 0.473538 0.880773 0.000000
vn 0.473538 0.880773 0.000000
vn 0.473538 0.880773 0.000000
vn 0.473538 0.880773 0.000000
vn 0.473538 0.880773 0.000000
vn 0.000000 0.904444 0.426593
vn 0.000000 0.904444 0.426593
vn 0.000000 0.904444 0.426593
vn 0.000000 0.904444 0.426593
vn 0.000000 0.897557 0.440898
vn 0.000000 0.897557 0.440898
vn 0.000000 0.897557 0.440898
vn 0.000000 0.904444 0.426593
vn 0.000000 0.904444 0.426593
vn 0.000000 0.904444 0.426593
vn 0.000000 0.897557 0.440898
vn 0.000000 0.904444 0.426593
vn 0.000000 0.897557 0.440898
vn 0.000000 0.904444 0.426593
vn 0.000000 0.904444 0.426593
vn 0.000000 0.904444 0.426593
vn 0.000000 0.904444 0.426593
vn 0.000000 0.904444 0.426593
vn -0.465340 0.885132 0.000000
vn -0.465340 0.885132 0.000000
vn -0.465340 0.885132 0.000000
vn -0.465340 0.885132 0.000000
vn -0.465340 0.885132 0.000000
vn -0.465340 0.885132 0.000000
vn -0.465340 0.885132 0.000000
vn -0.465340 0.885132 0.000000
vn -0.465340 0.885132 0.000000
vn -0.465340 0.885132 0.000000
vn -0.465340 0.885132 0.000000
vn -0.465340 0.885132 0.000000
vn -0.465340 0.885132 0.000000
vn -0.465340 0.885132 0.000000
vn -0.465340 0.885132 0.000000
vn -0.465340 0.885132 0.000000
vn 0.386391 0.922335 0.000000
vn 0.386391 0.922335 0.000000
vn 0.386391 0.922335 0.000000
vn 0.386391 0.922335 0.000000
vn 0.386391 0.922335 0.000000
vn 0.386391 0.922335 0.000000
vn 0.386391 0.922335 0.000000
vn 0.386391 0.922335 0.000000
vn 0.386391 0.922335 0.000000
vn 0.386391 0.922335 0.000000
vn 0.386391 0.922335 0.000000
vn 0.386391 0.922335 0.000000
vn 0.386391 0.922335 0.000000
vn 0.386391 0.922335 0.000000
vn 0.386391 0.922335 0.000000
vn 0.386391 0.922335 0.000000
vn -0.473538 0.880774 0.000000
vn -0.473538 0.880774 0.000000
vn -0.473538 0.880774 0.000000
vn -0.473538 0.880774 0.000000
vn -0.473538 0.880774 0.000000
vn -0.473538 0.880773 0.000000
vn -0.473538 0.880773 0.000000
vn -0.473538 0.880774 0.000000
vn -0.473538 0.880774 0.000000
vn -0.473538 0.880774 0.000000
vn -0.473538 0.880773 0.000000
vn -0.473538 0.880774 0.000000
vn -0.473538 0.880774 0.000000
vn -0.473538 0.880773 0.000000
vn -0.473538 0.880773 0.000000
vn -0.473538 0.880773 0.000000
vn 0.000000 0.904444 0.426593
vn 0.000000 0.904444 0.426593
vn 0.000000 0.904444 0.426593
vn 0.000000 0.904444 0.426593
vn 0.000000 0.904444 0.426593
vn 0.000000 0.904444 0.426593
vn 0.000000 0.904444 0.426593
vn 0.000000 0.904444 0.426593
vn 0.000000 0.904444 0.426593
vn 0.000000 0.904444 0.426594
vn 0.000000 0.904444 0.426594
vn 0.000000 0.904444 0.426594
vn 0.000000 0.904444 0.426594
vn 0.000000 0.904444 -0.426593
vn 0.000000 0.904444 -0.426593
vn 0.000000 0.904444 -0.426593
vn 0.000000 0.904444 -0.426593
vn 0.000000 0.904444 -0.426593
vn 0.000000 0.904444 -0.426593
vn 0.000000 0.904444 -0.426593
vn 0.000000 0.904444 -0.426593
vn 0.000000 0.904444 -0.426593
vn 0.000000 0.904444 -0.426593
vn 0.000000 0.904444 -0.426593
vn 0.000000 0.904444 -0.426593
vn 0.000000 0.904444 -0.426593
vn 0.000000 0.904444 0.426593
vn 0.000000 0.904444 0.426593
vn 0.000000 0.904444 0.426593
vn 0.000000 0.904444 0.426593
vn 0.000000 0.904444 0.426593
vn 0.000000 0.904444 0.426593
vn 0.000000 0.904444 0.426593
vn 0.000000 0.904444 0.426593
vn 0.000000 0.904444 0.426593
vn 0.000000 0.904444 0.426593
vn 0.000000 0.904444 0.426593
vn 0.000000 0.904444 0.426593
vn 0.000000 0.904444 0.426593
vn 0.000000 0.631726 0.775192
vn 0.000000 0.631726 0.775192
vn 0.000000 0.631726 0.775192
vn 0.000000 0.631726 0.775192
vn 0.000000 0.904444 -0.426593
vn 0.000000 0.904444 -0.426593
vn 0.000000 0.904444 -0.426593
vn 0.000000 0.904444 -0.426593
vn 0.000000 0.904444 -0.426593
vn 0.000000 0.904444 -0.426593
vn 0.000000 0.904444 -0.426593
vn 0.000000 0.904444 -0.426593
vn 0.000000 0.904444 -0.426593
vn 0.000000 0.904444 -0.426593
vn 0.000000 0.904444 -0.426593
vn 0.000000 0.904444 -0.426593
vn 0.000000 0.904444 -0.426593
vn 0.000000 0.904444 0.426593
vn 0.000000 0.904444 0.426593
vn 0.000000 0.904444 0.426593
vn 0.000000 0.904444 0.426593
vn 0.000000 0.904444 0.426593
vn 0.000000 0.904444 0.426593
vn 0.000000 0.904444 0.426593
vn 0.000000 0.904444 0.426593
vn 0.000000 0.904444 0.426593
vn 0.000000 0.904444 0.426593
vn 0.000000 0.904444 0.426593
vn 0.000000 0.904444 0.426593
vn 0.000000 0.904444 0.426593
vn 0.000000 0.904444 -0.426593
vn 0.000000 0.904444 -0.426593
vn 0.000000 0.904444 -0.426593
vn 0.000000 0.904444 -0.426593
vn 0.000000 0.904444 -0.426593
vn 0.000000 0.904444 -0.426593
vn 0.000000 0.904444 -0.426593
vn 0.000000 0.904444 -0.426593
vn 0.000000 0.904444 -0.426593
vn 0.000000 0.904444 -0.426593
vn 0.000000 0.904444 -0.426593
vn 0.000000 0.904444 -0.426593
vn 0.000000 0.904444 -0.426593
vn 0.000000 0.904444 0.426593
vn 0.000000 0.904444 0.426593
vn 0.000000 0.904444 0.426593
vn 0.000000 0.904444 0.426593
vn 0.000000 0.904444 0.426593
vn 0.000000 0.904444 0.426593
vn 0.000000 0.904444 0.426593
vn 0.000000 0.904444 0.426593
vn 0.000000 0.904444 0.426593
vn 0.000000 0.904444 0.426593
vn 0.000000 0.904444 0.426593
vn 0.000000 0.904444 0.426593
vn 0.000000 0.904444 0.426593
vn 0.842506 0.538687 0.000000
vn 0.842506 0.538687 0.000000
vn 0.842506 0.538687 0.000000
vn 0.842506 0.538687 0.000000
vn -0.842506 0.538688 0.000000
vn -0.842506 0.538688 0.000000
vn -0.842506 0.538688 0.000000
vn -0.842506 0.538688 0.000000
vn 0.000000 0.631726 -0.775192
vn 0.000000 0.631726 -0.775192
vn 0.000000 0.631726 -0.775192
vn 0.000000 0.631726 -0.775192
vn 0.000000 0.631726 0.775192
vn 0.000000 0.631726 0.775192
vn 0.000000 0.631726 0.775192
vn 0.000000 0.631726 0.775192
vn 0.842506 0.538687 0.000000
vn 0.842506 0.538687 0.000000
vn 0.842506 0.538687 0.000000
vn 0.842506 0.538687 0.000000
vn -0.842506 0.538687 0.000000
vn -0.842506 0.538687 0.000000
vn -0.842506 0.538687 0.000000
vn -0.842506 0.538687 0.000000
vn 0.000000 0.631725 -0.775192
vn 0.000000 0.631725 -0.775192
vn 0.000000 0.631725 -0.775192
vn 0.000000 0.631725 -0.775192
vn 0.000000 0.631726 0.775192
vn 0.000000 0.631726 0.775192
vn 0.000000 0.631726 0.775192
vn 0.000000 0.631726 0.775192
vn 0.000000 1.000000 0.000000
vn 0.000000 1.000000 0.000000
vn 0.000000 1.000000 0.000000
vn 0.000000 1.000000 0.000000
vn 0.000000 1.000000 0.000000
vn 0.000000 1.000000 0.000000
vn 0.000000 1.000000 0.000000
vn 0.000000 1.000000 0.000000
vn 0.000000 1.000000 0.000000
vn 0.000000 1.000000 0.000000
vn 0.000000 1.000000 0.000000
vn 0.000000 1.000000 0.000000
vn 0.000000 1.000000 0.000000
vn 0.000000 1.000000 0.000000
vn 0.000000 1.000000 0.000000
vn 0.000000 1.000000 0.000000
vn 0.000000 1.000000 0.000000
vn 0.000000 1.000000 0.000000
vn 0.000000 1.000000 0.000000
vn 0.000000 1.000000 0.000000
vn 0.000000 1.000000 0.000000
vn 0.000000 1.000000 0.000000
vn 0.000000 1.000000 0.000000
vn 0.000000 1.000000 0.000000
vn 0.000000 1.000000 0.000000
vn 0.000000 1.000000 0.000000
vn 0.000000 1.000000 0.000000
vn 0.000000 1.000000 0.000000
vn 0.000000 1.000000 0.000000
vn 0.000000 1.000000 0.000000
vn 0.000000 1.000000 0.000000
vn 0.000000 1.000000 0.000000
vn 0.000000 1.000000 0.000000
vn 0.000000 1.000000 0.000000
vn 0.000000 1.000000 0.000000
vn 0.000000 1.000000 0.000000
vn 0.000000 1.000000 0.000000
vn 0.000000 1.000000 0.000000
vn 0.000000 1.000000 0.000000
vn 0.000000 1.000000 0.000000
vn 0.000000 0.631725 -0.775192
vn 0.000000 0.631725 -0.775192
vn 0.000000 0.631725 -0.775192
vn 0.000000 0.631725 -0.775192
vn 0.842506 0.538687 0.000000
vn 0.842506 0.538687 0.000000
vn 0.842506 0.538687 0.000000
vn 0.842506 0.538687 0.000000
vn 0.000000 0.631726 0.775192
vn 0.000000 0.631726 0.775192
vn 0.000000 0.631726 0.775192
vn 0.000000 0.631726 0.775192
vn 0.000000 0.631726 -0.775192
vn 0.000000 0.631726 -0.775192
vn 0.000000 0.631726 -0.775192
vn 0.000000 0.631726 -0.775192
vn -0.842506 0.538687 0.000000
vn -0.842506 0.538687 0.000000
vn -0.842506 0.538687 0.000000
vn -0.842506 0.538687 0.000000
vn 0.842506 0.538687 0.000000
vn 0.842506 0.538687 0.000000
vn 0.842506 0.538687 0.000000
vn 0.842506 0.538687 0.000000
vn 0.000000 0.631725 0.775192
vn 0.000000 0.631725 0.775192
vn 0.000000 0.631725 0.775192
vn 0.000000 0.631725 0.775192
vn 0.000000 0.631725 -0.775193
vn 0.000000 0.631725 -0.775193
vn 0.000000 0.631725 -0.775193
vn 0.000000 0.631725 -0.775193
vn -0.842506 0.538687 0.000000
vn -0.842506 0.538687 0.000000
vn -0.842506 0.538687 0.000000
vn -0.842506 0.538687 0.000000
vn 0.842506 0.538687 0.000000
vn 0.842506 0.538687 0.000000
vn 0.842506 0.538687 0.000000
vn 0.842506 0.538687 0.000000
vn 0.000000 0.631725 0.775192
vn 0.000000 0.631725 0.775192
vn 0.000000 0.631725 0.775192
vn 0.000000 0.631725 0.775192
vn 0.000000 0.631725 -0.775193
vn 0.000000 0.631725 -0.775193
vn 0.000000 0.631725 -0.775193
vn 0.000000 0.631725 -0.775193
vn -0.842506 0.538688 0.000000
vn -0.842506 0.538688 0.000000
vn -0.842506 0.538688 0.000000
vn -0.842506 0.538688 0.000000
vn 0.842506 0.538687 0.000000
vn 0.842506 0.538687 0.000000
vn 0.842506 0.538687 0.000000
vn 0.842506 0.538687 0.000000
vn 0.000000 0.631727 0.775191
vn 0.000000 0.631727 0.775191
vn 0.000000 0.631727 0.775191
vn 0.000000 0.631727 0.775191
vn -0.842506 0.538687 0.000000
vn -0.842506 0.538687 0.000000
vn -0.842506 0.538687 0.000000
vn -0.842506 0.538687 0.000000
vn 0.000000 0.631726 -0.775192
vn 0.000000 0.631726 -0.775192
vn 0.000000 0.631726 -0.775192
vn 0.000000 0.631726 -0.775192
vn 0.842506 0.538687 0.000000
vn 0.842506 0.538687 0.000000
vn 0.842506 0.538687 0.000000
vn 0.842506 0.538687 0.000000
vn 0.000000 0.631726 0.775192
vn 0.000000 0.631726 0.775192
vn 0.000000 0.631726 0.775192
vn 0.000000 0.631726 0.775192
vn 0.000000 0.631725 -0.775192
vn 0.000000 0.631725 -0.775192
vn 0.000000 0.631725 -0.775192
vn 0.000000 0.631725 -0.775192
vn -0.842506 0.538687 0.000000
vn -0.842506 0.538687 0.000000
vn -0.842506 0.538687 0.000000
vn -0.842506 0.538687 0.000000
vn 0.842506 0.538687 0.000000
vn 0.842506 0.538687 0.000000
vn 0.842506 0.538687 0.000000
vn 0.842506 0.538687 0.000000
vn 0.000000 0.631726 0.775192
vn 0.000000 0.631726 0.775192
vn 0.000000 0.631726 0.775192
vn 0.000000 0.631726 0.775192
vn 0.000000 0.631725 -0.775193
vn 0.000000 0.631725 -0.775193
vn 0.000000 0.631725 -0.775193
vn 0.000000 0.631725 -0.775193
vn -0.842506 0.538688 0.000000
vn -0.842506 0.538688 0.000000
vn -0.842506 0.538688 0.000000
vn -0.842506 0.538688 0.000000
vn 0.842506 0.538687 0.000000
vn 0.842506 0.538687 0.000000
vn 0.842506 0.538687 0.000000
vn 0.842506 0.538687 0.000000
vn 0.000000 0.631727 0.775191
vn 0.000000 0.631727 0.775191
vn 0.000000 0.631727 0.775191
vn 0.000000 0.631727 0.775191
vn -0.842506 0.538688 0.000000
vn -0.842506 0.538688 0.000000
vn -0.842506 0.538688 0.000000
vn -0.842506 0.538688 0.000000
vn 0.000000 0.631725 -0.775192
vn 0.000000 0.631725 -0.775192
vn 0.000000 0.631725 -0.775192
vn 0.000000 0.631725 -0.775192
vn 0.842506 0.538687 0.000000
vn 0.842506 0.538687 0.000000
vn 0.842506 0.538687 0.000000
vn 0.842506 0.538687 0.000000
vn 0.000000 1.000000 0.000000
vn 0.000000 1.000000 0.000000
vn 0.000000 1.000000 0.000000
vn 0.000000 1.000000 0.000000
vn 0.000000 1.000000 0.000000
vn 0.000000 1.000000 0.000000
vn 0.000000 1.000000 0.000000
vn 0.000000 1.000000 0.000000
vn 0.000000 1.000000 0.000000
vn 0.000000 1.000000 0.000000
vn 0.000000 1.000000 0.000000
vn 0.000000 1.000000 0.000000
vn 0.000000 1.000000 0.000000
vn 0.000000 1.000000 0.000000
vn 0.000000 1.000000 0.000000
vn 0.000000 1.000000 0.000000
vn 0.000000 1.000000 0.000000
vn 0.000000 1.000000 0.000000
vn 0.000000 1.000000 0.000000
vn 0.000000 1.000000 0.000000
vn 0.000000 0.000000 -1.000000
vn 0.000000 0.000000 -1.000000
vn 0.000000 0.000000 -1.000000
vn 0.000000 0.000000 -1.000000
vn 0.000000 0.000000 -1.000000
vn 0.000000 0.000000 -1.000000
vn 0.000000 0.000000 -1.000000
vn 0.000000 0.000000 -1.000000
vn 0.000000 0.000000 -1.000000
vn 0.000000 0.000000 -1.000000
vn 0.000000 0.000000 1.000000
vn 0.000000 0.000000 1.000000
vn 0.000000 0.000000 1.000000
vn 0.000000 0.000000 1.000000
vn 0.000000 0.000000 1.000000
vn 0.000000 0.000000 1.000000
vn 0.000000 0.000000 1.000000
vn 0.000000 0.000000 1.000000
vn 0.000000 0.000000 1.000000
vn 0.000000 0.000000 1.000000
vn 1.000000 0.000000 0.000000
vn 1.000000 0.000000 0.000000
vn 1.000000 0.000000 0.000000
vn 1.000000 0.000000 0.000000
vn 1.000000 0.000000 0.000000
vn 1.000000 0.000000 0.000000
vn 1.000000 0.000000 0.000000
vn 1.000000 0.000000 0.000000
vn 1.000000 0.000000 0.000000
vn 1.000000 0.000000 0.000000
vn 1.000000 0.000000 0.000000
vn 1.000000 0.000000 0.000000
vn 0.000000 -1.000000 0.000000
vn 0.000000 -1.000000 0.000000
vn 0.000000 -1.000000 0.000000
vn 0.000000 -1.000000 0.000000
vn 0.000000 -1.000000 0.000000
vn 0.000000 -1.000000 0.000000
vn 0.000000 -1.000000 0.000000
vn 0.000000 -1.000000 0.000000
vn 0.000000 -1.000000 0.000000
vn 0.000000 -1.000000 0.000000
vn 0.842506 0.538688 0.000000
vn 0.842506 0.538688 0.000000
vn 0.842506 0.538688 0.000000
vn 0.842506 0.538688 0.000000
vn -0.473538 0.880774 0.000000
vn -0.473538 0.880774 0.000000
vn -0.473538 0.880774 0.000000
vn -0.473538 0.880774 0.000000
vn -0.473538 0.880774 0.000000
vn -0.473538 0.880774 0.000000
vn -0.473537 0.880774 0.000000
vn -0.473537 0.880774 0.000000
vn -0.473537 0.880774 0.000000
vn -0.473538 0.880774 0.000000
vn -0.473538 0.880774 0.000000
vn -0.473538 0.880774 0.000000
vn -0.473538 0.880774 0.000000
vn -0.473538 0.880774 0.000000
vn -0.473538 0.880774 0.000000
vn -0.473538 0.880774 0.000000
vn 0.465340 0.885132 0.000000
vn 0.465340 0.885132 0.000000
vn 0.465340 0.885132 0.000000
vn 0.465340 0.885132 0.000000
vn 0.465340 0.885132 0.000000
vn 0.465340 0.885132 0.000000
vn 0.465340 0.885132 0.000000
vn 0.465340 0.885132 0.000000
vn 0.465340 0.885132 0.000000
vn 0.465340 0.885132 0.000000
vn 0.465340 0.885132 0.000000
vn 0.465340 0.885132 0.000000
vn 0.465340 0.885132 0.000000
vn 0.465340 0.885132 0.000000
vn 0.465340 0.885132 0.000000
vn 0.465340 0.885132 0.000000
vn -0.386391 0.922335 0.000000
vn -0.386391 0.922335 0.000000
vn -0.386391 0.922335 0.000000
vn -0.386391 0.922335 0.000000
vn -0.386391 0.922335 0.000000
vn -0.386391 0.922335 0.000000
vn -0.386391 0.922335 0.000000
vn -0.386391 0.922335 0.000000
vn -0.386391 0.922335 0.000000
vn -0.386391 0.922335 0.000000
vn -0.386391 0.922335 0.000000
vn -0.386391 0.922335 0.000000
vn -0.386391 0.922335 0.000000
vn -0.386391 0.922335 0.000000
vn -0.386391 0.922335 0.000000
vn -0.386391 0.922335 0.000000
vn 0.473538 0.880773 0.000000
vn 0.473538 0.880773 0.000000
vn 0.473538 0.880773 0.000000
vn 0.473538 0.880773 0.000000
vn 0.473538 0.880773 0.000000
vn 0.473538 0.880773 0.000000
vn 0.473538 0.880773 0.000000
vn 0.473538 0.880773 0.000000
vn 0.473538 0.880773 0.000000
vn 0.473538 0.880773 0.000000
vn 0.473538 0.880773 0.000000
vn 0.473538 0.880773 0.000000
vn 0.473538 0.880773 0.000000
vn 0.473538 0.880773 0.000000
vn 0.473538 0.880773 0.000000
vn 0.473538 0.880773 0.000000
vn 0.000000 0.631725 0.775193
vn 0.000000 0.631725 0.775193
vn 0.000000 0.631725 0.775193
vn 0.000000 0.631725 0.775193
vn -0.842506 0.538686 0.000000
vn -0.842506 0.538686 0.000000
vn -0.842506 0.538686 0.000000
vn -0.842506 0.538686 0.000000
vn 0.842506 0.538688 0.000000
vn 0.842506 0.538688 0.000000
vn 0.842506 0.538688 0.000000
vn 0.842506 0.538688 0.000000
vn 0.000000 0.631726 -0.775192
vn 0.000000 0.631726 -0.775192
vn 0.000000 0.631726 -0.775192
vn 0.000000 0.631726 -0.775192
vn 0.000000 0.631726 0.775192
vn 0.000000 0.631726 0.775192
vn 0.000000 0.631726 0.775192
vn 0.000000 0.631726 0.775192
vn -0.842506 0.538686 0.000000
vn -0.842506 0.538686 0.000000
vn -0.842506 0.538686 0.000000
vn -0.842506 0.538686 0.000000
vn 0.842506 0.538687 0.000000
vn 0.842506 0.538687 0.000000
vn 0.842506 0.538687 0.000000
vn 0.842506 0.538687 0.000000
vn 0.000000 0.631725 -0.775192
vn 0.000000 0.631725 -0.775192
vn 0.000000 0.631725 -0.775192
vn 0.000000 0.631725 -0.775192
vn 0.000000 0.631726 0.775192
vn 0.000000 0.631726 0.775192
vn 0.000000 0.631726 0.775192
vn 0.000000 0.631726 0.775192
vn 0.000000 1.000000 0.000000
vn 0.000000 1.000000 0.000000
vn 0.000000 1.000000 0.000000
vn 0.000000 1.000000 0.000000
vn 0.000000 1.000000 0.000000
vn 0.000000 1.000000 0.000000
vn 0.000000 1.000000 0.000000
vn 0.000000 1.000000 0.000000
vn 0.000000 1.000000 0.000000
vn 0.000000 1.000000 0.000000
vn 0.000000 1.000000 0.000000
vn 0.000000 1.000000 0.000000
vn 0.000000 1.000000 0.000000
vn 0.000000 1.000000 0.000000
vn 0.000000 1.000000 0.000000
vn 0.000000 1.000000 0.000000
vn 0.000000 1.000000 0.000000
vn 0.000000 1.000000 0.000000
vn 0.000000 1.000000 0.000000
vn 0.000000 1.000000 0.000000
vn 0.000000 1.000000 0.000000
vn 0.000000 1.000000 0.000000
vn 0.000000 1.000000 0.000000
vn 0.000000 1.000000 0.000000
vn 0.000000 1.000000 0.000000
vn 0.000000 1.000000 0.000000
vn 0.000000 1.000000 0.000000
vn 0.000000 1.000000 0.000000
vn 0.000000 1.000000 0.000000
vn 0.000000 1.000000 0.000000
vn 0.000000 1.000000 0.000000
vn 0.000000 1.000000 0.000000
vn 0.000000 1.000000 0.000000
vn 0.000000 1.000000 0.000000
vn 0.000000 1.000000 0.000000
vn 0.000000 1.000000 0.000000
vn 0.000000 1.000000 0.000000
vn 0.000000 1.000000 0.000000
vn 0.000000 1.000000 0.000000
vn 0.000000 1.000000 0.000000
vn 0.000000 0.631725 -0.775193
vn 0.000000 0.631725 -0.775193
vn 0.000000 0.631725 -0.775193
vn 0.000000 0.631725 -0.775193
vn -0.842506 0.538687 0.000000
vn -0.842506 0.538687 0.000000
vn -0.842506 0.538687 0.000000
vn -0.842506 0.538687 0.000000
vn 0.000000 0.631726 0.775192
vn 0.000000 0.631726 0.775192
vn 0.000000 0.631726 0.775192
vn 0.000000 0.631726 0.775192
vn 0.000000 0.631725 -0.775193
vn 0.000000 0.631725 -0.775193
vn 0.000000 0.631725 -0.775193
vn 0.000000 0.631725 -0.775193
vn 0.842506 0.538687 0.000000
vn 0.842506 0.538687 0.000000
vn 0.842506 0.538687 0.000000
vn 0.842506 0.538687 0.000000
vn -0.842506 0.538687 0.000000
vn -0.842506 0.538687 0.000000
vn -0.842506 0.538687 0.000000
vn -0.842506 0.538687 0.000000
vn 0.000000 0.631725 0.775192
vn 0.000000 0.631725 0.775192
vn 0.000000 0.631725 0.775192
vn 0.000000 0.631725 0.775192
vn 0.000000 0.631725 -0.775193
vn 0.000000 0.631725 -0.775193
vn 0.000000 0.631725 -0.775193
vn 0.000000 0.631725 -0.775193
vn 0.842506 0.538687 0.000000
vn 0.842506 0.538687 0.000000
vn 0.842506 0.538687 0.000000
vn 0.842506 0.538687 0.000000
vn -0.842506 0.538687 0.000000
vn -0.842506 0.538687 0.000000
vn -0.842506 0.538687 0.000000
vn -0.842506 0.538687 0.000000
vn 0.000000 0.631726 0.775192
vn 0.000000 0.631726 0.775192
vn 0.000000 0.631726 0.775192
vn 0.000000 0.631726 0.775192
vn 0.000000 0.631725 -0.775193
vn 0.000000 0.631725 -0.775193
vn 0.000000 0.631725 -0.775193
vn 0.000000 0.631725 -0.775193
vn 0.842506 0.538688 0.000000
vn 0.842506 0.538688 0.000000
vn 0.842506 0.538688 0.000000
vn 0.842506 0.538688 0.000000
vn -0.842506 0.538687 0.000000
vn -0.842506 0.538687 0.000000
vn -0.842506 0.538687 0.000000
vn -0.842506 0.538687 0.000000
vn 0.000000 0.631727 0.775191
vn 0.000000 0.631727 0.775191
vn 0.000000 0.631727 0.775191
vn 0.000000 0.631727 0.775191
vn 0.842506 0.538687 0.000000
vn 0.842506 0.538687 0.000000
vn 0.842506 0.538687 0.000000
vn 0.842506 0.538687 0.000000
vn 0.000000 0.631725 -0.775192
vn 0.000000 0.631725 -0.775192
vn 0.000000 0.631725 -0.775192
vn 0.000000 0.631725 -0.775192
vn -0.842506 0.538687 0.000000
vn -0.842506 0.538687 0.000000
vn -0.842506 0.538687 0.000000
vn -0.842506 0.538687 0.000000
vn 0.000000 0.631726 0.775192
vn 0.000000 0.631726 0.775192
vn 0.000000 0.631726 0.775192
vn 0.000000 0.631726 0.775192
vn 0.000000 0.631725 -0.775192
vn 0.000000 0.631725 -0.775192
vn 0.000000 0.631725 -0.775192
vn 0.000000 0.631725 -0.775192
vn 0.842506 0.538687 0.000000
vn 0.842506 0.538687 0.000000
vn 0.842506 0.538687 0.000000
vn 0.842506 0.538687 0.000000
vn -0.842506 0.538687 0.000000
vn -0.842506 0.538687 0.000000
vn -0.842506 0.538687 0.000000
vn -0.842506 0.538687 0.000000
vn 0.000000 0.631726 0.775192
vn 0.000000 0.631726 0.775192
vn 0.000000 0.631726 0.775192
vn 0.000000 0.631726 0.775192
vn 0.000000 0.631725 -0.775193
vn 0.000000 0.631725 -0.775193
vn 0.000000 0.631725 -0.775193
vn 0.000000 0.631725 -0.775193
vn 0.842506 0.538688 0.000000
vn 0.842506 0.538688 0.000000
vn 0.842506 0.538688 0.000000
vn 0.842506 0.538688 0.000000
vn -0.842507 0.538686 0.000000
vn -0.842507 0.538686 0.000000
vn -0.842507 0.538686 0.000000
vn -0.842507 0.538686 0.000000
vn 0.000000 0.631727 0.775191
vn 0.000000 0.631727 0.775191
vn 0.000000 0.631727 0.775191
vn 0.000000 0.631727 0.775191
vn 0.842506 0.538688 0.000000
vn 0.842506 0.538688 0.000000
vn 0.842506 0.538688 0.000000
vn 0.842506 0.538688 0.000000
vn 0.000000 0.631725 -0.775192
vn 0.000000 0.631725 -0.775192
vn 0.000000 0.631725 -0.775192
vn 0.000000 0.631725 -0.775192
vn -0.842506 0.538687 0.000000
vn -0.842506 0.538687 0.000000
vn -0.842506 0.538687 0.000000
vn -0.842506 0.538687 0.000000
vn -1.000000 0.000000 0.000000
vn -1.000000 0.000000 0.000000
vn -1.000000 0.000000 0.000000
vn -1.000000 0.000000 0.000000
vn -1.000000 0.000000 0.000000
vn -1.000000 0.000000 0.000000
vn -1.000000 0.000000 0.000000
vn -1.000000 0.000000 0.000000
vn -1.000000 0.000000 0.000000
vn -1.000000 0.000000 0.000000
vn -1.000000 0.000000 0.000000
vn -1.000000 0.000000 0.000000
g ChocolateBar_DarkBrown
usemtl DarkBrown
f 1 2 3
f 1 3 4
f 4 3 5
f 1 4 6
f 1 6 7
f 4 5 8
f 4 8 9
f 4 9 10
f 11 8 5
f 11 12 8
f 11 13 12
f 11 5 14
f 15 11 14
f 15 14 16
f 15 17 11
f 15 18 17
f 19 20 21
f 19 21 22
f 23 24 25
f 23 26 24
f 27 23 28
f 27 28 29
f 30 31 26
f 30 32 31
f 33 34 30
f 33 35 34
f 36 37 38
f 36 39 37
f 39 40 41
f 39 42 40
f 42 43 44
f 42 45 43
f 45 46 47
f 45 48 46
f 48 49 50
f 48 50 51
f 52 53 54
f 52 55 53
f 52 56 55
f 52 57 56
f 55 56 58
f 55 58 59
f 55 59 60
f 55 60 61
f 52 62 57
f 52 63 62
f 63 64 62
f 63 65 64
f 63 66 65
f 63 67 66
f 52 68 63
f 52 69 68
f 70 71 72
f 70 72 73
f 74 70 75
f 74 75 76
f 77 74 78
f 77 78 79
f 80 77 81
f 80 81 82
f 83 80 84
f 83 84 85
f 86 87 88
f 86 89 87
f 89 90 91
f 89 92 90
f 92 93 94
f 92 95 93
f 95 96 97
f 95 98 96
f 98 99 100
f 98 100 101
f 102 103 104
f 102 104 105
f 106 102 107
f 106 107 108
f 109 106 110
f 109 110 111
f 112 109 113
f 112 113 114
f 115 112 116
f 115 116 117
f 118 119 120
f 118 120 121
f 122 118 123
f 122 123 124
f 122 125 126
f 122 126 127
f 127 128 129
f 127 129 130
f 131 132 133
f 131 134 132
f 134 135 136
f 134 137 135
f 138 139 137
f 138 140 139
f 141 142 138
f 141 143 142
f 144 145 146
f 144 146 147
f 148 144 149
f 148 149 150
f 148 151 152
f 148 152 153
f 153 154 155
f 153 155 156
f 157 158 159
f 157 159 160
f 161 162 163
f 161 164 162
f 164 165 166
f 164 167 165
f 168 169 167
f 168 170 169
f 171 172 168
f 171 173 172
f 174 175 176
f 174 176 177
f 178 174 179
f 178 179 180
f 178 181 182
f 178 182 183
f 183 184 185
f 183 185 186
f 187 188 189
f 187 190 188
f 190 191 192
f 190 193 191
f 194 195 193
f 194 196 195
f 197 198 194
f 197 199 198
f 200 201 202
f 200 202 203
f 204 200 205
f 204 205 206
f 204 207 208
f 204 208 209
f 209 210 211
f 209 211 212
f 213 214 215
f 213 215 216
f 217 218 219
f 217 219 220
f 221 222 223
f 221 223 224
f 225 226 227
f 225 227 228
f 229 230 231
f 229 231 232
f 233 234 235
f 233 235 236
f 237 238 239
f 237 239 240
f 241 242 243
f 241 243 244
f 245 246 247
f 245 247 248
f 249 250 251
f 249 251 252
f 253 254 255
f 253 255 256
f 257 258 259
f 257 259 260
f 261 262 263
f 261 263 264
f 265 266 267
f 265 267 268
f 269 270 271
f 269 271 272
f 273 274 275
f 273 275 276
f 277 278 279
f 277 279 280
f 281 282 283
f 281 283 284
f 285 286 287
f 285 287 288
f 289 290 291
f 289 291 292
f 293 294 295
f 293 295 296
f 297 298 299
f 297 299 300
f 301 302 303
f 301 303 304
f 305 306 307
f 305 307 308
f 309 310 311
f 309 311 312
f 313 314 315
f 313 315 316
f 317 318 319
f 317 319 320
f 321 322 323
f 321 323 324
f 325 326 327
f 325 327 328
f 329 330 331
f 329 331 332
f 333 334 335
f 333 335 336
f 337 338 339
f 337 339 340
f 341 342 343
f 341 343 344
f 345 346 347
f 345 347 348
f 349 350 351
f 349 351 352
f 353 354 355
f 353 355 356
f 357 358 359
f 357 359 360
f 361 362 363
f 361 363 364
f 365 366 367
f 365 367 368
f 369 370 371
f 369 371 372
f 373 374 375
f 373 375 376
f 377 378 379
f 377 379 380
f 381 382 383
f 381 383 384
f 385 386 387
f 385 387 388
f 389 390 391
f 389 391 392
f 393 394 395
f 393 395 396
f 397 398 399
f 397 399 400
f 401 402 403
f 401 403 404
f 405 406 407
f 405 407 408
f 408 407 409
f 408 409 410
f 411 410 409
f 411 409 412
f 413 411 412
f 413 412 414
f 415 416 417
f 415 418 416
f 419 418 415
f 419 420 418
f 419 421 420
f 419 422 421
f 422 423 421
f 422 424 423
f 425 426 427
f 425 427 428
f 428 427 429
f 428 429 430
f 431 430 429
f 431 429 432
f 433 431 432
f 433 432 434
f 435 436 437
f 435 438 436
f 439 438 435
f 439 440 438
f 439 441 440
f 439 442 441
f 442 443 441
f 442 444 443
f 445 446 447
f 447 448 445
f 448 449 445
f 448 450 449
f 448 451 450
f 448 452 451
f 448 453 452
f 448 454 453
f 448 455 454
f 448 456 455
f 457 458 459
f 457 459 460
f 461 457 460
f 460 462 461
f 463 461 462
f 463 462 464
f 465 463 464
f 464 466 465
f 467 468 469
f 467 469 470
f 471 472 473
f 471 473 474
f 474 475 476
f 474 476 477
f 477 478 479
f 477 479 480
f 480 481 482
f 480 482 483
f 483 484 485
f 483 485 486
f 487 488 489
f 487 489 490
f 491 492 487
f 491 493 492
f 494 495 491
f 494 496 495
f 497 498 494
f 497 499 498
f 500 501 497
f 500 502 501
f 503 504 505
f 503 505 506
f 506 507 508
f 506 508 509
f 509 510 511
f 509 511 512
f 512 513 514
f 512 514 515
f 515 516 517
f 515 517 518
f 519 520 521
f 519 521 522
f 523 524 519
f 523 525 524
f 526 527 523
f 526 528 527
f 529 530 526
f 529 531 530
f 532 533 529
f 532 534 533
f 535 536 537
f 535 537 538
f 539 540 541
f 539 541 542
f 543 544 545
f 543 545 546
f 547 548 549
f 547 549 550
f 551 552 553
f 551 553 554
f 555 556 557
f 555 557 558
f 559 560 561
f 559 561 562
f 563 564 565
f 563 565 566
f 567 568 569
f 567 569 570
f 571 572 573
f 571 573 574
f 575 576 577
f 575 577 578
f 579 580 581
f 579 581 582
f 583 584 585
f 583 585 586
f 587 588 589
f 587 589 590
f 591 592 593
f 591 593 594
f 595 596 597
f 595 597 598
f 599 600 601
f 599 601 602
f 603 604 605
f 603 605 606
f 607 608 609
f 607 609 610
f 611 612 613
f 611 613 614
f 615 616 617
f 615 617 618
f 619 620 621
f 619 621 622
f 623 624 625
f 623 625 626
f 627 628 629
f 627 629 630
f 631 632 633
f 631 633 634
f 635 636 637
f 635 637 638
f 639 640 641
f 639 641 642
f 643 644 645
f 643 645 646
f 647 648 649
f 647 649 650
f 651 652 653
f 651 653 654
f 655 656 657
f 655 657 658
f 659 660 661
f 659 661 662
f 663 664 665
f 663 665 666
f 667 668 669
f 667 669 670
f 671 672 673
f 671 673 674
f 675 676 677
f 675 677 678
f 679 680 681
f 679 681 682
f 683 684 685
f 683 685 686
f 687 688 689
f 687 689 690
f 691 692 693
f 691 693 694
f 695 696 697
f 695 697 698
f 699 700 701
f 699 701 702
f 703 704 705
f 703 705 706
f 707 708 709
f 707 709 710
f 711 712 713
f 711 713 714
f 715 716 717
f 715 717 718
f 719 720 721
f 719 721 722
f 723 724 725
f 723 725 726
f 727 728 729
f 727 729 730
f 731 732 733
f 733 734 731
f 734 735 731
f 735 736 731
f 736 737 731
f 737 738 731
f 738 739 731
f 739 740 731
f 740 741 731
f 741 742 731
