mtllib Materials.mtl
# Ultimate Food Pack - Chopsticks
o Chopsticks
v -0.714957 0.026257 -0.035766
v -0.714957 0.015849 -0.057377
v -0.803627 0.016055 -0.057634
v -0.803627 0.026586 -0.035766
v -0.714957 -0.026289 -0.047759
v -0.714957 -0.026289 -0.023772
v -0.803627 -0.026586 -0.023629
v -0.803627 -0.026586 -0.047902
v -0.714957 -0.026289 -0.023772
v -0.714957 -0.007536 -0.008817
v -0.803627 -0.007609 -0.008496
v -0.803627 -0.026586 -0.023629
v -0.714957 -0.007536 -0.008817
v -0.714957 0.015849 -0.014154
v -0.803627 0.016055 -0.013897
v -0.803627 -0.007609 -0.008496
v -0.695293 -0.026223 -0.047727
v -0.697136 -0.021567 -0.045484
v -0.697136 -0.006369 -0.057604
v -0.695293 -0.007520 -0.062643
v -0.714957 0.015849 -0.057377
v -0.714957 -0.007536 -0.062714
v -0.803627 -0.007609 -0.063035
v -0.803627 0.016055 -0.057634
v -0.714957 -0.007536 -0.062714
v -0.714957 -0.026289 -0.047759
v -0.803627 -0.026586 -0.047902
v -0.803627 -0.007609 -0.063035
v -0.714957 0.015849 -0.014154
v -0.714957 0.026257 -0.035766
v -0.803627 0.026586 -0.035766
v -0.803627 0.016055 -0.013897
v -0.803627 0.016055 -0.057634
v -0.814906 0.008314 -0.047928
v -0.814906 0.014172 -0.035766
v -0.803627 0.026586 -0.035766
v -0.803627 -0.007609 -0.063035
v -0.814906 -0.004847 -0.050932
v -0.814906 0.008314 -0.047928
v -0.803627 0.016055 -0.057634
v -0.803627 -0.026586 -0.047902
v -0.814906 -0.015401 -0.042515
v -0.814906 -0.004847 -0.050932
v -0.803627 -0.007609 -0.063035
v -0.803627 -0.026586 -0.023629
v -0.814906 -0.015401 -0.029016
v -0.814906 -0.015401 -0.042515
v -0.803627 -0.026586 -0.047902
v -0.803627 -0.007609 -0.008496
v -0.814906 -0.004847 -0.020599
v -0.814906 -0.015401 -0.029016
v -0.803627 -0.026586 -0.023629
v -0.803627 0.016055 -0.013897
v -0.814906 0.008314 -0.023603
v -0.814906 -0.004847 -0.020599
v -0.803627 -0.007609 -0.008496
v -0.803627 0.026586 -0.035766
v -0.814906 0.014172 -0.035766
v -0.814906 0.008314 -0.023603
v -0.803627 0.016055 -0.013897
v -0.814906 -0.015401 -0.029016
v -0.814906 -0.004847 -0.020599
v -0.814906 0.008314 -0.023603
v -0.814906 0.014172 -0.035766
v -0.814906 -0.015401 -0.042515
v -0.814906 0.008314 -0.047928
v -0.814906 -0.004847 -0.050932
v 0.803674 0.019002 -0.035766
v 0.814906 0.006431 -0.035766
v 0.814906 0.003488 -0.041876
v 0.803674 0.011326 -0.051704
v 0.803674 0.011326 -0.051704
v 0.814906 0.003488 -0.041876
v 0.814906 -0.003124 -0.043386
v 0.803674 -0.005921 -0.055641
v 0.803674 -0.005921 -0.055641
v 0.814906 -0.003124 -0.043386
v 0.814906 -0.008427 -0.039157
v 0.803674 -0.019753 -0.044611
v 0.803674 -0.019753 -0.044611
v 0.814906 -0.008427 -0.039157
v 0.814906 -0.008427 -0.032374
v 0.803674 -0.019753 -0.026920
v 0.803674 -0.019753 -0.026920
v 0.814906 -0.008427 -0.032374
v 0.814906 -0.003124 -0.028146
v 0.803674 -0.005921 -0.015890
v 0.803674 -0.005921 -0.015890
v 0.814906 -0.003124 -0.028146
v 0.814906 0.003488 -0.029655
v 0.803674 0.011326 -0.019827
v 0.803674 0.011326 -0.019827
v 0.814906 0.003488 -0.029655
v 0.814906 0.006431 -0.035766
v 0.803674 0.019002 -0.035766
v 0.814906 0.003488 -0.029655
v 0.814906 -0.003124 -0.028146
v 0.814906 -0.008427 -0.032374
v 0.814906 0.006431 -0.035766
v 0.814906 -0.008427 -0.039157
v 0.814906 0.003488 -0.041876
v 0.814906 -0.003124 -0.043386
v -0.714957 -0.026289 -0.047759
v -0.713114 -0.021620 -0.045510
v -0.713114 -0.021620 -0.026021
v -0.714957 -0.026289 -0.023772
v -0.695293 -0.007520 -0.062643
v -0.697136 -0.006369 -0.057604
v -0.697136 0.012581 -0.053278
v -0.695293 0.015804 -0.057320
v -0.714957 -0.026289 -0.023772
v -0.713114 -0.021620 -0.026021
v -0.713114 -0.006383 -0.013870
v -0.714957 -0.007536 -0.008817
v -0.695293 0.015804 -0.014212
v -0.697136 0.012581 -0.018253
v -0.697136 -0.006369 -0.013927
v -0.695293 -0.007520 -0.008888
v -0.695293 -0.007520 -0.008888
v -0.697136 -0.006369 -0.013927
v -0.697136 -0.021567 -0.026047
v -0.695293 -0.026223 -0.023804
v -0.695293 -0.026223 -0.023804
v -0.697136 -0.021567 -0.026047
v -0.697136 -0.021567 -0.045484
v -0.695293 -0.026223 -0.047727
v 0.803674 0.019002 -0.035766
v 0.803674 0.011326 -0.051704
v -0.528903 0.015419 -0.056837
v -0.528903 0.025566 -0.035766
v 0.803674 -0.019753 -0.044611
v 0.803674 -0.019753 -0.026920
v -0.528903 -0.025667 -0.024072
v -0.528903 -0.025667 -0.047459
v 0.803674 -0.019753 -0.026920
v 0.803674 -0.005921 -0.015890
v -0.528903 -0.007382 -0.009490
v -0.528903 -0.025667 -0.024072
v 0.803674 -0.005921 -0.015890
v 0.803674 0.011326 -0.019827
v -0.528903 0.015419 -0.014694
v -0.528903 -0.007382 -0.009490
v 0.803674 0.011326 -0.051704
v 0.803674 -0.005921 -0.055641
v -0.528903 -0.007382 -0.062041
v -0.528903 0.015419 -0.056837
v 0.803674 -0.005921 -0.055641
v 0.803674 -0.019753 -0.044611
v -0.528903 -0.025667 -0.047459
v -0.528903 -0.007382 -0.062041
v 0.803674 0.011326 -0.019827
v 0.803674 0.019002 -0.035766
v -0.528903 0.025566 -0.035766
v -0.528903 0.015419 -0.014694
v -0.550080 -0.007400 -0.009414
v -0.549596 -0.006265 -0.014384
v -0.549596 0.012289 -0.018619
v -0.550080 0.015468 -0.014633
v -0.528903 -0.007382 -0.009490
v -0.532413 -0.006251 -0.014446
v -0.532413 -0.021087 -0.026277
v -0.528903 -0.025667 -0.024072
v -0.550080 -0.025738 -0.024038
v -0.549596 -0.021145 -0.026250
v -0.549596 -0.006265 -0.014384
v -0.550080 -0.007400 -0.009414
v -0.528903 -0.025667 -0.024072
v -0.532413 -0.021087 -0.026277
v -0.532413 -0.021087 -0.045254
v -0.528903 -0.025667 -0.047459
v -0.550080 -0.025738 -0.047493
v -0.549596 -0.021145 -0.045281
v -0.549596 -0.021145 -0.026250
v -0.550080 -0.025738 -0.024038
v -0.528903 0.015419 -0.056837
v -0.532413 0.012249 -0.052863
v -0.532413 0.020483 -0.035766
v -0.528903 0.025566 -0.035766
v -0.550080 0.025645 -0.035766
v -0.549596 0.020547 -0.035766
v -0.549596 0.012289 -0.052912
v -0.550080 0.015468 -0.056898
v -0.626648 0.025929 -0.035766
v -0.626648 0.015645 -0.057120
v -0.695293 0.015804 -0.057320
v -0.695293 0.026184 -0.035766
v -0.626648 -0.025994 -0.047617
v -0.626648 -0.025994 -0.023915
v -0.695293 -0.026223 -0.023804
v -0.695293 -0.026223 -0.047727
v -0.626648 -0.025994 -0.023915
v -0.626648 -0.007463 -0.009137
v -0.695293 -0.007520 -0.008888
v -0.695293 -0.026223 -0.023804
v -0.626648 -0.007463 -0.009137
v -0.626648 0.015645 -0.014411
v -0.695293 0.015804 -0.014212
v -0.695293 -0.007520 -0.008888
v -0.626648 0.015645 -0.057120
v -0.626648 -0.007463 -0.062395
v -0.695293 -0.007520 -0.062643
v -0.695293 0.015804 -0.057320
v -0.626648 -0.007463 -0.062395
v -0.626648 -0.025994 -0.047617
v -0.695293 -0.026223 -0.047727
v -0.695293 -0.007520 -0.062643
v -0.626648 0.015645 -0.014411
v -0.626648 0.025929 -0.035766
v -0.695293 0.026184 -0.035766
v -0.695293 0.015804 -0.014212
v -0.550080 0.015468 -0.014633
v -0.550080 0.025645 -0.035766
v -0.605291 0.025850 -0.035766
v -0.605291 0.015595 -0.014473
v -0.550080 -0.007400 -0.062117
v -0.550080 -0.025738 -0.047493
v -0.605291 -0.025922 -0.047582
v -0.605291 -0.007445 -0.062317
v -0.550080 0.015468 -0.056898
v -0.550080 -0.007400 -0.062117
v -0.605291 -0.007445 -0.062317
v -0.605291 0.015595 -0.057058
v -0.550080 -0.007400 -0.009414
v -0.550080 0.015468 -0.014633
v -0.605291 0.015595 -0.014473
v -0.605291 -0.007445 -0.009214
v -0.550080 -0.025738 -0.024038
v -0.550080 -0.007400 -0.009414
v -0.605291 -0.007445 -0.009214
v -0.605291 -0.025922 -0.023949
v -0.550080 -0.025738 -0.047493
v -0.550080 -0.025738 -0.024038
v -0.605291 -0.025922 -0.023949
v -0.605291 -0.025922 -0.047582
v -0.550080 0.025645 -0.035766
v -0.550080 0.015468 -0.056898
v -0.605291 0.015595 -0.057058
v -0.605291 0.025850 -0.035766
v -0.626648 -0.025994 -0.047617
v -0.623963 -0.019806 -0.044637
v -0.623963 -0.019806 -0.026895
v -0.626648 -0.025994 -0.023915
v -0.605291 -0.007445 -0.009214
v -0.607976 -0.005921 -0.015891
v -0.607976 -0.019752 -0.026920
v -0.605291 -0.025922 -0.023949
v -0.626648 -0.025994 -0.023915
v -0.623963 -0.019806 -0.026895
v -0.623963 -0.005935 -0.015833
v -0.626648 -0.007463 -0.009137
v -0.605291 0.015595 -0.014473
v -0.607976 0.011326 -0.019827
v -0.607976 -0.005921 -0.015891
v -0.605291 -0.007445 -0.009214
v -0.626648 -0.007463 -0.009137
v -0.623963 -0.005935 -0.015833
v -0.623963 0.011363 -0.019781
v -0.626648 0.015645 -0.014411
v -0.605291 -0.007445 -0.062317
v -0.607976 -0.005921 -0.055641
v -0.607976 0.011326 -0.051704
v -0.605291 0.015595 -0.057058
v -0.626648 0.015645 -0.057120
v -0.623963 0.011363 -0.051750
v -0.623963 -0.005935 -0.055698
v -0.626648 -0.007463 -0.062395
v -0.532413 0.020483 -0.035766
v -0.532413 0.012249 -0.052863
v -0.549596 0.012289 -0.052912
v -0.549596 0.020547 -0.035766
v -0.532413 -0.021087 -0.045254
v -0.532413 -0.021087 -0.026277
v -0.549596 -0.021145 -0.026250
v -0.549596 -0.021145 -0.045281
v -0.532413 -0.021087 -0.026277
v -0.532413 -0.006251 -0.014446
v -0.549596 -0.006265 -0.014384
v -0.549596 -0.021145 -0.026250
v -0.532413 -0.006251 -0.014446
v -0.532413 0.012249 -0.018669
v -0.549596 0.012289 -0.018619
v -0.549596 -0.006265 -0.014384
v -0.532413 0.012249 -0.052863
v -0.532413 -0.006251 -0.057085
v -0.549596 -0.006265 -0.057147
v -0.549596 0.012289 -0.052912
v -0.532413 -0.006251 -0.057085
v -0.532413 -0.021087 -0.045254
v -0.549596 -0.021145 -0.045281
v -0.549596 -0.006265 -0.057147
v -0.532413 0.012249 -0.018669
v -0.532413 0.020483 -0.035766
v -0.549596 0.020547 -0.035766
v -0.549596 0.012289 -0.018619
v -0.528903 0.015419 -0.014694
v -0.532413 0.012249 -0.018669
v -0.532413 -0.006251 -0.014446
v -0.528903 -0.007382 -0.009490
v -0.550080 0.015468 -0.056898
v -0.549596 0.012289 -0.052912
v -0.549596 -0.006265 -0.057147
v -0.550080 -0.007400 -0.062117
v -0.528903 -0.007382 -0.062041
v -0.532413 -0.006251 -0.057085
v -0.532413 0.012249 -0.052863
v -0.528903 0.015419 -0.056837
v -0.550080 -0.007400 -0.062117
v -0.549596 -0.006265 -0.057147
v -0.549596 -0.021145 -0.045281
v -0.550080 -0.025738 -0.047493
v -0.528903 -0.025667 -0.047459
v -0.532413 -0.021087 -0.045254
v -0.532413 -0.006251 -0.057085
v -0.528903 -0.007382 -0.062041
v -0.550080 0.015468 -0.014633
v -0.549596 0.012289 -0.018619
v -0.549596 0.020547 -0.035766
v -0.550080 0.025645 -0.035766
v -0.528903 0.025566 -0.035766
v -0.532413 0.020483 -0.035766
v -0.532413 0.012249 -0.018669
v -0.528903 0.015419 -0.014694
v -0.607976 0.011326 -0.019827
v -0.607976 0.019001 -0.035766
v -0.623963 0.019060 -0.035766
v -0.623963 0.011363 -0.019781
v -0.607976 -0.005921 -0.055641
v -0.607976 -0.019752 -0.044611
v -0.623963 -0.019806 -0.044637
v -0.623963 -0.005935 -0.055698
v -0.607976 0.011326 -0.051704
v -0.607976 -0.005921 -0.055641
v -0.623963 -0.005935 -0.055698
v -0.623963 0.011363 -0.051750
v -0.607976 -0.005921 -0.015891
v -0.607976 0.011326 -0.019827
v -0.623963 0.011363 -0.019781
v -0.623963 -0.005935 -0.015833
v -0.607976 -0.019752 -0.026920
v -0.607976 -0.005921 -0.015891
v -0.623963 -0.005935 -0.015833
v -0.623963 -0.019806 -0.026895
v -0.607976 -0.019752 -0.044611
v -0.607976 -0.019752 -0.026920
v -0.623963 -0.019806 -0.026895
v -0.623963 -0.019806 -0.044637
v -0.607976 0.019001 -0.035766
v -0.607976 0.011326 -0.051704
v -0.623963 0.011363 -0.051750
v -0.623963 0.019060 -0.035766
v -0.605291 -0.025922 -0.023949
v -0.607976 -0.019752 -0.026920
v -0.607976 -0.019752 -0.044611
v -0.605291 -0.025922 -0.047582
v -0.626648 0.025929 -0.035766
v -0.623963 0.019060 -0.035766
v -0.623963 0.011363 -0.051750
v -0.626648 0.015645 -0.057120
v -0.605291 0.015595 -0.057058
v -0.607976 0.011326 -0.051704
v -0.607976 0.019001 -0.035766
v -0.605291 0.025850 -0.035766
v -0.626648 0.015645 -0.014411
v -0.623963 0.011363 -0.019781
v -0.623963 0.019060 -0.035766
v -0.626648 0.025929 -0.035766
v -0.605291 0.025850 -0.035766
v -0.607976 0.019001 -0.035766
v -0.607976 0.011326 -0.019827
v -0.605291 0.015595 -0.014473
v -0.626648 -0.007463 -0.062395
v -0.623963 -0.005935 -0.055698
v -0.623963 -0.019806 -0.044637
v -0.626648 -0.025994 -0.047617
v -0.605291 -0.025922 -0.047582
v -0.607976 -0.019752 -0.044611
v -0.607976 -0.005921 -0.055641
v -0.605291 -0.007445 -0.062317
v -0.697136 0.012581 -0.018253
v -0.697136 0.021015 -0.035766
v -0.713114 0.021074 -0.035766
v -0.713114 0.012618 -0.018206
v -0.697136 -0.006369 -0.057604
v -0.697136 -0.021567 -0.045484
v -0.713114 -0.021620 -0.045510
v -0.713114 -0.006383 -0.057662
v -0.697136 0.012581 -0.053278
v -0.697136 -0.006369 -0.057604
v -0.713114 -0.006383 -0.057662
v -0.713114 0.012618 -0.053325
v -0.697136 -0.006369 -0.013927
v -0.697136 0.012581 -0.018253
v -0.713114 0.012618 -0.018206
v -0.713114 -0.006383 -0.013870
v -0.697136 -0.021567 -0.026047
v -0.697136 -0.006369 -0.013927
v -0.713114 -0.006383 -0.013870
v -0.713114 -0.021620 -0.026021
v -0.697136 -0.021567 -0.045484
v -0.697136 -0.021567 -0.026047
v -0.713114 -0.021620 -0.026021
v -0.713114 -0.021620 -0.045510
v -0.697136 0.021015 -0.035766
v -0.697136 0.012581 -0.053278
v -0.713114 0.012618 -0.053325
v -0.713114 0.021074 -0.035766
v -0.714957 0.015849 -0.057377
v -0.713114 0.012618 -0.053325
v -0.713114 -0.006383 -0.057662
v -0.714957 -0.007536 -0.062714
v -0.714957 0.026257 -0.035766
v -0.713114 0.021074 -0.035766
v -0.713114 0.012618 -0.053325
v -0.714957 0.015849 -0.057377
v -0.695293 0.026184 -0.035766
v -0.697136 0.021015 -0.035766
v -0.697136 0.012581 -0.018253
v -0.695293 0.015804 -0.014212
v -0.714957 -0.007536 -0.008817
v -0.713114 -0.006383 -0.013870
v -0.713114 0.012618 -0.018206
v -0.714957 0.015849 -0.014154
v -0.714957 0.015849 -0.014154
v -0.713114 0.012618 -0.018206
v -0.713114 0.021074 -0.035766
v -0.714957 0.026257 -0.035766
v -0.695293 0.015804 -0.057320
v -0.697136 0.012581 -0.053278
v -0.697136 0.021015 -0.035766
v -0.695293 0.026184 -0.035766
v -0.714957 -0.007536 -0.062714
v -0.713114 -0.006383 -0.057662
v -0.713114 -0.021620 -0.045510
v -0.714957 -0.026289 -0.047759
v -0.714957 0.026257 0.035766
v -0.714957 0.015849 0.014154
v -0.803628 0.016055 0.013897
v -0.803628 0.026586 0.035766
v -0.714957 -0.026289 0.023772
v -0.714957 -0.026289 0.047759
v -0.803628 -0.026586 0.047902
v -0.803628 -0.026586 0.023629
v -0.714957 -0.026289 0.047759
v -0.714957 -0.007536 0.062714
v -0.803628 -0.007609 0.063035
v -0.803628 -0.026586 0.047902
v -0.714957 -0.007536 0.062714
v -0.714957 0.015849 0.057377
v -0.803628 0.016055 0.057634
v -0.803628 -0.007609 0.063035
v -0.695293 -0.026223 0.023804
v -0.697136 -0.021567 0.026047
v -0.697136 -0.006369 0.013927
v -0.695293 -0.007520 0.008888
v -0.714957 0.015849 0.014154
v -0.714957 -0.007536 0.008817
v -0.803628 -0.007609 0.008496
v -0.803628 0.016055 0.013897
v -0.714957 -0.007536 0.008817
v -0.714957 -0.026289 0.023772
v -0.803628 -0.026586 0.023629
v -0.803628 -0.007609 0.008496
v -0.714957 0.015849 0.057377
v -0.714957 0.026257 0.035766
v -0.803628 0.026586 0.035766
v -0.803628 0.016055 0.057634
v -0.803628 0.016055 0.013897
v -0.814906 0.008314 0.023603
v -0.814906 0.014172 0.035766
v -0.803628 0.026586 0.035766
v -0.803628 -0.007609 0.008496
v -0.814906 -0.004847 0.020599
v -0.814906 0.008314 0.023603
v -0.803628 0.016055 0.013897
v -0.803628 -0.026586 0.023629
v -0.814906 -0.015401 0.029016
v -0.814906 -0.004847 0.020599
v -0.803628 -0.007609 0.008496
v -0.803628 -0.026586 0.047902
v -0.814906 -0.015401 0.042515
v -0.814906 -0.015401 0.029016
v -0.803628 -0.026586 0.023629
v -0.803628 -0.007609 0.063035
v -0.814906 -0.004847 0.050932
v -0.814906 -0.015401 0.042515
v -0.803628 -0.026586 0.047902
v -0.803628 0.016055 0.057634
v -0.814906 0.008314 0.047928
v -0.814906 -0.004847 0.050932
v -0.803628 -0.007609 0.063035
v -0.803628 0.026586 0.035766
v -0.814906 0.014172 0.035766
v -0.814906 0.008314 0.047928
v -0.803628 0.016055 0.057634
v -0.814906 -0.015401 0.042515
v -0.814906 -0.004847 0.050932
v -0.814906 0.008314 0.047928
v -0.814906 0.014172 0.035766
v -0.814906 -0.015401 0.029016
v -0.814906 0.008314 0.023603
v -0.814906 -0.004847 0.020599
v 0.803675 0.019002 0.035766
v 0.814906 0.006431 0.035766
v 0.814906 0.003488 0.029655
v 0.803675 0.011326 0.019827
v 0.803675 0.011326 0.019827
v 0.814906 0.003488 0.029655
v 0.814906 -0.003124 0.028146
v 0.803675 -0.005921 0.015890
v 0.803675 -0.005921 0.015890
v 0.814906 -0.003124 0.028146
v 0.814906 -0.008427 0.032374
v 0.803675 -0.019753 0.026920
v 0.803675 -0.019753 0.026920
v 0.814906 -0.008427 0.032374
v 0.814906 -0.008427 0.039157
v 0.803675 -0.019753 0.044611
v 0.803675 -0.019753 0.044611
v 0.814906 -0.008427 0.039157
v 0.814906 -0.003124 0.043386
v 0.803675 -0.005921 0.055641
v 0.803675 -0.005921 0.055641
v 0.814906 -0.003124 0.043386
v 0.814906 0.003488 0.041876
v 0.803675 0.011326 0.051704
v 0.803675 0.011326 0.051704
v 0.814906 0.003488 0.041876
v 0.814906 0.006431 0.035766
v 0.803675 0.019002 0.035766
v 0.814906 0.003488 0.041876
v 0.814906 -0.003124 0.043386
v 0.814906 -0.008427 0.039157
v 0.814906 0.006431 0.035766
v 0.814906 -0.008427 0.032374
v 0.814906 0.003488 0.029655
v 0.814906 -0.003124 0.028146
v -0.714957 -0.026289 0.023772
v -0.713114 -0.021620 0.026021
v -0.713114 -0.021620 0.045510
v -0.714957 -0.026289 0.047759
v -0.695293 -0.007520 0.008888
v -0.697136 -0.006369 0.013927
v -0.697136 0.012581 0.018253
v -0.695293 0.015804 0.014212
v -0.714957 -0.026289 0.047759
v -0.713114 -0.021620 0.045510
v -0.713114 -0.006383 0.057662
v -0.714957 -0.007536 0.062714
v -0.695293 0.015804 0.057320
v -0.697136 0.012581 0.053278
v -0.697136 -0.006369 0.057604
v -0.695293 -0.007520 0.062643
v -0.695293 -0.007520 0.062643
v -0.697136 -0.006369 0.057604
v -0.697136 -0.021567 0.045484
v -0.695293 -0.026223 0.047727
v -0.695293 -0.026223 0.047727
v -0.697136 -0.021567 0.045484
v -0.697136 -0.021567 0.026047
v -0.695293 -0.026223 0.023804
v 0.803675 0.019002 0.035766
v 0.803675 0.011326 0.019827
v -0.528903 0.015419 0.014694
v -0.528903 0.025566 0.035766
v 0.803675 -0.019753 0.026920
v 0.803675 -0.019753 0.044611
v -0.528903 -0.025667 0.047459
v -0.528903 -0.025667 0.024072
v 0.803675 -0.019753 0.044611
v 0.803675 -0.005921 0.055641
v -0.528903 -0.007382 0.062041
v -0.528903 -0.025667 0.047459
v 0.803675 -0.005921 0.055641
v 0.803675 0.011326 0.051704
v -0.528903 0.015419 0.056837
v -0.528903 -0.007382 0.062041
v 0.803675 0.011326 0.019827
v 0.803675 -0.005921 0.015890
v -0.528903 -0.007382 0.009490
v -0.528903 0.015419 0.014694
v 0.803675 -0.005921 0.015890
v 0.803675 -0.019753 0.026920
v -0.528903 -0.025667 0.024072
v -0.528903 -0.007382 0.009490
v 0.803675 0.011326 0.051704
v 0.803675 0.019002 0.035766
v -0.528903 0.025566 0.035766
v -0.528903 0.015419 0.056837
v -0.550080 -0.007400 0.062117
v -0.549596 -0.006265 0.057147
v -0.549596 0.012289 0.052912
v -0.550080 0.015468 0.056898
v -0.528903 -0.007382 0.062041
v -0.532413 -0.006251 0.057085
v -0.532413 -0.021087 0.045254
v -0.528903 -0.025667 0.047459
v -0.550080 -0.025738 0.047493
v -0.549596 -0.021145 0.045281
v -0.549596 -0.006265 0.057147
v -0.550080 -0.007400 0.062117
v -0.528903 -0.025667 0.047459
v -0.532413 -0.021087 0.045254
v -0.532413 -0.021087 0.026277
v -0.528903 -0.025667 0.024072
v -0.550080 -0.025738 0.024038
v -0.549596 -0.021145 0.026250
v -0.549596 -0.021145 0.045281
v -0.550080 -0.025738 0.047493
v -0.528903 0.015419 0.014694
v -0.532413 0.012249 0.018669
v -0.532413 0.020483 0.035766
v -0.528903 0.025566 0.035766
v -0.550080 0.025645 0.035766
v -0.549596 0.020547 0.035766
v -0.549596 0.012289 0.018619
v -0.550080 0.015468 0.014633
v -0.626648 0.025929 0.035766
v -0.626648 0.015645 0.014411
v -0.695293 0.015804 0.014212
v -0.695293 0.026184 0.035766
v -0.626648 -0.025994 0.023915
v -0.626648 -0.025994 0.047617
v -0.695293 -0.026223 0.047727
v -0.695293 -0.026223 0.023804
v -0.626648 -0.025994 0.047617
v -0.626648 -0.007463 0.062395
v -0.695293 -0.007520 0.062643
v -0.695293 -0.026223 0.047727
v -0.626648 -0.007463 0.062395
v -0.626648 0.015645 0.057120
v -0.695293 0.015804 0.057320
v -0.695293 -0.007520 0.062643
v -0.626648 0.015645 0.014411
v -0.626648 -0.007463 0.009137
v -0.695293 -0.007520 0.008888
v -0.695293 0.015804 0.014212
v -0.626648 -0.007463 0.009137
v -0.626648 -0.025994 0.023915
v -0.695293 -0.026223 0.023804
v -0.695293 -0.007520 0.008888
v -0.626648 0.015645 0.057120
v -0.626648 0.025929 0.035766
v -0.695293 0.026184 0.035766
v -0.695293 0.015804 0.057320
v -0.550080 0.015468 0.056898
v -0.550080 0.025645 0.035766
v -0.605291 0.025850 0.035766
v -0.605291 0.015595 0.057058
v -0.550080 -0.007400 0.009414
v -0.550080 -0.025738 0.024038
v -0.605291 -0.025922 0.023949
v -0.605291 -0.007445 0.009214
v -0.550080 0.015468 0.014633
v -0.550080 -0.007400 0.009414
v -0.605291 -0.007445 0.009214
v -0.605291 0.015595 0.014473
v -0.550080 -0.007400 0.062117
v -0.550080 0.015468 0.056898
v -0.605291 0.015595 0.057058
v -0.605291 -0.007445 0.062317
v -0.550080 -0.025738 0.047493
v -0.550080 -0.007400 0.062117
v -0.605291 -0.007445 0.062317
v -0.605291 -0.025922 0.047582
v -0.550080 -0.025738 0.024038
v -0.550080 -0.025738 0.047493
v -0.605291 -0.025922 0.047582
v -0.605291 -0.025922 0.023949
v -0.550080 0.025645 0.035766
v -0.550080 0.015468 0.014633
v -0.605291 0.015595 0.014473
v -0.605291 0.025850 0.035766
v -0.626648 -0.025994 0.023915
v -0.623963 -0.019806 0.026895
v -0.623963 -0.019806 0.044637
v -0.626648 -0.025994 0.047617
v -0.605291 -0.007445 0.062317
v -0.607976 -0.005921 0.055641
v -0.607976 -0.019752 0.044611
v -0.605291 -0.025922 0.047582
v -0.626648 -0.025994 0.047617
v -0.623963 -0.019806 0.044637
v -0.623963 -0.005935 0.055698
v -0.626648 -0.007463 0.062395
v -0.605291 0.015595 0.057058
v -0.607976 0.011326 0.051704
v -0.607976 -0.005921 0.055641
v -0.605291 -0.007445 0.062317
v -0.626648 -0.007463 0.062395
v -0.623963 -0.005935 0.055698
v -0.623963 0.011363 0.051750
v -0.626648 0.015645 0.057120
v -0.605291 -0.007445 0.009214
v -0.607976 -0.005921 0.015891
v -0.607976 0.011326 0.019827
v -0.605291 0.015595 0.014473
v -0.626648 0.015645 0.014411
v -0.623963 0.011363 0.019781
v -0.623963 -0.005935 0.015833
v -0.626648 -0.007463 0.009137
v -0.532413 0.020483 0.035766
v -0.532413 0.012249 0.018669
v -0.549596 0.012289 0.018619
v -0.549596 0.020547 0.035766
v -0.532413 -0.021087 0.026277
v -0.532413 -0.021087 0.045254
v -0.549596 -0.021145 0.045281
v -0.549596 -0.021145 0.026250
v -0.532413 -0.021087 0.045254
v -0.532413 -0.006251 0.057085
v -0.549596 -0.006265 0.057147
v -0.549596 -0.021145 0.045281
v -0.532413 -0.006251 0.057085
v -0.532413 0.012249 0.052863
v -0.549596 0.012289 0.052912
v -0.549596 -0.006265 0.057147
v -0.532413 0.012249 0.018669
v -0.532413 -0.006251 0.014446
v -0.549596 -0.006265 0.014384
v -0.549596 0.012289 0.018619
v -0.532413 -0.006251 0.014446
v -0.532413 -0.021087 0.026277
v -0.549596 -0.021145 0.026250
v -0.549596 -0.006265 0.014384
v -0.532413 0.012249 0.052863
v -0.532413 0.020483 0.035766
v -0.549596 0.020547 0.035766
v -0.549596 0.012289 0.052912
v -0.528903 0.015419 0.056837
v -0.532413 0.012249 0.052863
v -0.532413 -0.006251 0.057085
v -0.528903 -0.007382 0.062041
v -0.550080 0.015468 0.014633
v -0.549596 0.012289 0.018619
v -0.549596 -0.006265 0.014384
v -0.550080 -0.007400 0.009414
v -0.528903 -0.007382 0.009490
v -0.532413 -0.006251 0.014446
v -0.532413 0.012249 0.018669
v -0.528903 0.015419 0.014694
v -0.550080 -0.007400 0.009414
v -0.549596 -0.006265 0.014384
v -0.549596 -0.021145 0.026250
v -0.550080 -0.025738 0.024038
v -0.528903 -0.025667 0.024072
v -0.532413 -0.021087 0.026277
v -0.532413 -0.006251 0.014446
v -0.528903 -0.007382 0.009490
v -0.550080 0.015468 0.056898
v -0.549596 0.012289 0.052912
v -0.549596 0.020547 0.035766
v -0.550080 0.025645 0.035766
v -0.528903 0.025566 0.035766
v -0.532413 0.020483 0.035766
v -0.532413 0.012249 0.052863
v -0.528903 0.015419 0.056837
v -0.607976 0.011326 0.051704
v -0.607976 0.019001 0.035766
v -0.623963 0.019061 0.035766
v -0.623963 0.011363 0.051750
v -0.607976 -0.005921 0.015891
v -0.607976 -0.019752 0.026920
v -0.623963 -0.019806 0.026895
v -0.623963 -0.005935 0.015833
v -0.607976 0.011326 0.019827
v -0.607976 -0.005921 0.015891
v -0.623963 -0.005935 0.015833
v -0.623963 0.011363 0.019781
v -0.607976 -0.005921 0.055641
v -0.607976 0.011326 0.051704
v -0.623963 0.011363 0.051750
v -0.623963 -0.005935 0.055698
v -0.607976 -0.019752 0.044611
v -0.607976 -0.005921 0.055641
v -0.623963 -0.005935 0.055698
v -0.623963 -0.019806 0.044637
v -0.607976 -0.019752 0.026920
v -0.607976 -0.019752 0.044611
v -0.623963 -0.019806 0.044637
v -0.623963 -0.019806 0.026895
v -0.607976 0.019001 0.035766
v -0.607976 0.011326 0.019827
v -0.623963 0.011363 0.019781
v -0.623963 0.019061 0.035766
v -0.605291 -0.025922 0.047582
v -0.607976 -0.019752 0.044611
v -0.607976 -0.019752 0.026920
v -0.605291 -0.025922 0.023949
v -0.626648 0.025929 0.035766
v -0.623963 0.019061 0.035766
v -0.623963 0.011363 0.019781
v -0.626648 0.015645 0.014411
v -0.605291 0.015595 0.014473
v -0.607976 0.011326 0.019827
v -0.607976 0.019001 0.035766
v -0.605291 0.025850 0.035766
v -0.626648 0.015645 0.057120
v -0.623963 0.011363 0.051750
v -0.623963 0.019061 0.035766
v -0.626648 0.025929 0.035766
v -0.605291 0.025850 0.035766
v -0.607976 0.019001 0.035766
v -0.607976 0.011326 0.051704
v -0.605291 0.015595 0.057058
v -0.626648 -0.007463 0.009137
v -0.623963 -0.005935 0.015833
v -0.623963 -0.019806 0.026895
v -0.626648 -0.025994 0.023915
v -0.605291 -0.025922 0.023949
v -0.607976 -0.019752 0.026920
v -0.607976 -0.005921 0.015891
v -0.605291 -0.007445 0.009214
v -0.697136 0.012581 0.053278
v -0.697136 0.021015 0.035766
v -0.713114 0.021074 0.035766
v -0.713114 0.012618 0.053325
v -0.697136 -0.006369 0.013927
v -0.697136 -0.021567 0.026047
v -0.713114 -0.021620 0.026021
v -0.713114 -0.006383 0.013870
v -0.697136 0.012581 0.018253
v -0.697136 -0.006369 0.013927
v -0.713114 -0.006383 0.013870
v -0.713114 0.012618 0.018206
v -0.697136 -0.006369 0.057604
v -0.697136 0.012581 0.053278
v -0.713114 0.012618 0.053325
v -0.713114 -0.006383 0.057662
v -0.697136 -0.021567 0.045484
v -0.697136 -0.006369 0.057604
v -0.713114 -0.006383 0.057662
v -0.713114 -0.021620 0.045510
v -0.697136 -0.021567 0.026047
v -0.697136 -0.021567 0.045484
v -0.713114 -0.021620 0.045510
v -0.713114 -0.021620 0.026021
v -0.697136 0.021015 0.035766
v -0.697136 0.012581 0.018253
v -0.713114 0.012618 0.018206
v -0.713114 0.021074 0.035766
v -0.714957 0.015849 0.014154
v -0.713114 0.012618 0.018206
v -0.713114 -0.006383 0.013870
v -0.714957 -0.007536 0.008817
v -0.714957 0.026257 0.035766
v -0.713114 0.021074 0.035766
v -0.713114 0.012618 0.018206
v -0.714957 0.015849 0.014154
v -0.695293 0.026184 0.035766
v -0.697136 0.021015 0.035766
v -0.697136 0.012581 0.053278
v -0.695293 0.015804 0.057320
v -0.714957 -0.007536 0.062714
v -0.713114 -0.006383 0.057662
v -0.713114 0.012618 0.053325
v -0.714957 0.015849 0.057377
v -0.714957 0.015849 0.057377
v -0.713114 0.012618 0.053325
v -0.713114 0.021074 0.035766
v -0.714957 0.026257 0.035766
v -0.695293 0.015804 0.014212
v -0.697136 0.012581 0.018253
v -0.697136 0.021015 0.035766
v -0.695293 0.026184 0.035766
v -0.714957 -0.007536 0.008817
v -0.713114 -0.006383 0.013870
v -0.713114 -0.021620 0.026021
v -0.714957 -0.026289 0.023772
vn 0.003345 0.900964 -0.433881
vn 0.003345 0.900964 -0.433881
vn 0.003345 0.900964 -0.433881
vn 0.003345 0.900964 -0.433881
vn 0.003345 -0.999994 0.000000
vn 0.003345 -0.999994 0.000000
vn 0.003345 -0.999994 0.000000
vn 0.003345 -0.999994 0.000000
vn 0.003345 -0.623486 0.781827
vn 0.003345 -0.623486 0.781827
vn 0.003345 -0.623486 0.781827
vn 0.003345 -0.623486 0.781827
vn 0.003345 0.222520 0.974922
vn 0.003345 0.222520 0.974922
vn 0.003345 0.222520 0.974922
vn 0.003345 0.222520 0.974922
vn -0.929805 -0.229476 -0.287757
vn -0.929805 -0.229476 -0.287757
vn -0.929805 -0.229476 -0.287757
vn -0.929805 -0.229476 -0.287757
vn 0.003345 0.222519 -0.974923
vn 0.003345 0.222519 -0.974923
vn 0.003345 0.222519 -0.974923
vn 0.003345 0.222519 -0.974923
vn 0.003345 -0.623486 -0.781827
vn 0.003345 -0.623486 -0.781827
vn 0.003345 -0.623486 -0.781827
vn 0.003345 -0.623486 -0.781827
vn 0.003345 0.900964 0.433881
vn 0.003345 0.900964 0.433881
vn 0.003345 0.900964 0.433881
vn 0.003345 0.900964 0.433881
vn -0.704146 0.639737 -0.308084
vn -0.704146 0.639737 -0.308084
vn -0.704146 0.639737 -0.308084
vn -0.704146 0.639737 -0.308084
vn -0.704147 0.158002 -0.692252
vn -0.704147 0.158002 -0.692252
vn -0.704147 0.158002 -0.692252
vn -0.704147 0.158002 -0.692252
vn -0.704146 -0.442712 -0.555144
vn -0.704146 -0.442712 -0.555144
vn -0.704146 -0.442712 -0.555144
vn -0.704146 -0.442712 -0.555144
vn -0.704146 -0.710055 0.000000
vn -0.704146 -0.710055 0.000000
vn -0.704146 -0.710055 0.000000
vn -0.704146 -0.710055 0.000000
vn -0.704146 -0.442712 0.555144
vn -0.704146 -0.442712 0.555144
vn -0.704146 -0.442712 0.555144
vn -0.704146 -0.442712 0.555144
vn -0.704147 0.158002 0.692252
vn -0.704147 0.158002 0.692252
vn -0.704147 0.158002 0.692252
vn -0.704147 0.158002 0.692252
vn -0.704146 0.639737 0.308083
vn -0.704146 0.639737 0.308083
vn -0.704146 0.639737 0.308083
vn -0.704146 0.639737 0.308083
vn -1.000000 0.000000 0.000000
vn -1.000000 0.000000 0.000000
vn -1.000000 0.000000 0.000000
vn -1.000000 0.000000 0.000000
vn -1.000000 0.000000 0.000000
vn -1.000000 0.000000 0.000000
vn -1.000000 0.000000 0.000000
vn 0.710050 0.634419 -0.305519
vn 0.710050 0.634419 -0.305519
vn 0.710050 0.634419 -0.305519
vn 0.710050 0.634419 -0.305519
vn 0.710053 0.156689 -0.686494
vn 0.710053 0.156689 -0.686494
vn 0.710053 0.156689 -0.686494
vn 0.710053 0.156689 -0.686494
vn 0.710050 -0.439032 -0.550528
vn 0.710050 -0.439032 -0.550528
vn 0.710050 -0.439032 -0.550528
vn 0.710050 -0.439032 -0.550528
vn 0.710050 -0.704152 0.000004
vn 0.710050 -0.704152 0.000004
vn 0.710050 -0.704152 0.000004
vn 0.710050 -0.704152 0.000004
vn 0.710050 -0.439032 0.550528
vn 0.710050 -0.439032 0.550528
vn 0.710050 -0.439032 0.550528
vn 0.710050 -0.439032 0.550528
vn 0.710045 0.156687 0.686503
vn 0.710045 0.156687 0.686503
vn 0.710045 0.156687 0.686503
vn 0.710045 0.156687 0.686503
vn 0.710051 0.634420 0.305514
vn 0.710051 0.634420 0.305514
vn 0.710051 0.634420 0.305514
vn 0.710051 0.634420 0.305514
vn 1.000000 0.000000 0.000000
vn 1.000000 0.000000 0.000000
vn 1.000000 0.000000 0.000000
vn 1.000000 0.000000 0.000000
vn 1.000000 0.000000 0.000000
vn 1.000000 0.000000 0.000000
vn 1.000000 0.000000 0.000000
vn 0.930134 -0.367221 0.000000
vn 0.930134 -0.367221 0.000000
vn 0.930134 -0.367221 0.000000
vn 0.930134 -0.367221 0.000000
vn -0.929808 0.081899 -0.358817
vn -0.929808 0.081899 -0.358817
vn -0.929808 0.081899 -0.358817
vn -0.929808 0.081899 -0.358817
vn 0.930133 -0.228958 0.287109
vn 0.930133 -0.228958 0.287109
vn 0.930133 -0.228958 0.287109
vn 0.930133 -0.228958 0.287109
vn -0.929806 0.081897 0.358824
vn -0.929806 0.081897 0.358824
vn -0.929806 0.081897 0.358824
vn -0.929806 0.081897 0.358824
vn -0.929807 -0.229477 0.287750
vn -0.929807 -0.229477 0.287750
vn -0.929807 -0.229477 0.287750
vn -0.929807 -0.229477 0.287750
vn -0.929806 -0.368051 0.000000
vn -0.929806 -0.368051 0.000000
vn -0.929806 -0.368051 0.000000
vn -0.929806 -0.368051 0.000000
vn 0.004438 0.900960 -0.433880
vn 0.004438 0.900960 -0.433880
vn 0.004438 0.900960 -0.433880
vn 0.004438 0.900960 -0.433880
vn 0.004438 -0.999990 0.000000
vn 0.004438 -0.999990 0.000000
vn 0.004438 -0.999990 0.000000
vn 0.004438 -0.999990 0.000000
vn 0.004438 -0.623484 0.781824
vn 0.004438 -0.623484 0.781824
vn 0.004438 -0.623484 0.781824
vn 0.004438 -0.623484 0.781824
vn 0.004438 0.222519 0.974918
vn 0.004438 0.222519 0.974918
vn 0.004438 0.222519 0.974918
vn 0.004438 0.222519 0.974918
vn 0.004438 0.222519 -0.974918
vn 0.004438 0.222519 -0.974918
vn 0.004438 0.222519 -0.974918
vn 0.004438 0.222519 -0.974918
vn 0.004438 -0.623484 -0.781824
vn 0.004438 -0.623484 -0.781824
vn 0.004438 -0.623484 -0.781824
vn 0.004438 -0.623484 -0.781824
vn 0.004438 0.900960 0.433880
vn 0.004438 0.900960 0.433880
vn 0.004438 0.900960 0.433880
vn 0.004438 0.900960 0.433880
vn 0.994479 0.023356 0.102307
vn 0.994479 0.023356 0.102307
vn 0.994479 0.023356 0.102307
vn 0.994479 0.023356 0.102307
vn -0.793750 -0.379235 0.475544
vn -0.793750 -0.379235 0.475544
vn -0.793750 -0.379235 0.475544
vn -0.793750 -0.379235 0.475544
vn 0.994479 -0.065425 0.082041
vn 0.994479 -0.065425 0.082041
vn 0.994479 -0.065425 0.082041
vn 0.994479 -0.065425 0.082041
vn -0.793749 -0.608246 0.000001
vn -0.793749 -0.608246 0.000001
vn -0.793749 -0.608246 0.000001
vn -0.793749 -0.608246 0.000001
vn 0.994479 -0.104934 0.000001
vn 0.994479 -0.104934 0.000001
vn 0.994479 -0.104934 0.000001
vn 0.994479 -0.104934 0.000001
vn -0.793749 0.548011 -0.263907
vn -0.793749 0.548011 -0.263907
vn -0.793749 0.548011 -0.263907
vn -0.793749 0.548011 -0.263907
vn 0.994479 0.094543 -0.045530
vn 0.994479 0.094543 -0.045530
vn 0.994479 0.094543 -0.045530
vn 0.994479 0.094543 -0.045530
vn 0.003345 0.900964 -0.433881
vn 0.003345 0.900964 -0.433881
vn 0.003345 0.900964 -0.433881
vn 0.003345 0.900964 -0.433881
vn 0.003345 -0.999994 0.000000
vn 0.003345 -0.999994 0.000000
vn 0.003345 -0.999994 0.000000
vn 0.003345 -0.999994 0.000000
vn 0.003345 -0.623487 0.781827
vn 0.003345 -0.623487 0.781827
vn 0.003345 -0.623487 0.781827
vn 0.003345 -0.623487 0.781827
vn 0.003345 0.222519 0.974923
vn 0.003345 0.222519 0.974923
vn 0.003345 0.222519 0.974923
vn 0.003345 0.222519 0.974923
vn 0.003345 0.222520 -0.974923
vn 0.003345 0.222520 -0.974923
vn 0.003345 0.222520 -0.974923
vn 0.003345 0.222520 -0.974923
vn 0.003345 -0.623486 -0.781827
vn 0.003345 -0.623486 -0.781827
vn 0.003345 -0.623486 -0.781827
vn 0.003345 -0.623486 -0.781827
vn 0.003345 0.900964 0.433882
vn 0.003345 0.900964 0.433882
vn 0.003345 0.900964 0.433882
vn 0.003345 0.900964 0.433882
vn 0.003345 0.900964 0.433881
vn 0.003345 0.900964 0.433881
vn 0.003345 0.900964 0.433881
vn 0.003345 0.900964 0.433881
vn 0.003345 -0.623487 -0.781827
vn 0.003345 -0.623487 -0.781827
vn 0.003345 -0.623487 -0.781827
vn 0.003345 -0.623487 -0.781827
vn 0.003345 0.222520 -0.974923
vn 0.003345 0.222520 -0.974923
vn 0.003345 0.222520 -0.974923
vn 0.003345 0.222520 -0.974923
vn 0.003345 0.222520 0.974922
vn 0.003345 0.222520 0.974922
vn 0.003345 0.222520 0.974922
vn 0.003345 0.222520 0.974922
vn 0.003345 -0.623486 0.781827
vn 0.003345 -0.623486 0.781827
vn 0.003345 -0.623486 0.781827
vn 0.003345 -0.623486 0.781827
vn 0.003345 -0.999994 0.000000
vn 0.003345 -0.999994 0.000000
vn 0.003345 -0.999994 0.000000
vn 0.003345 -0.999994 0.000000
vn 0.003345 0.900964 -0.433882
vn 0.003345 0.900964 -0.433882
vn 0.003345 0.900964 -0.433882
vn 0.003345 0.900964 -0.433882
vn 0.917364 -0.398050 0.000000
vn 0.917364 -0.398050 0.000000
vn 0.917364 -0.398050 0.000000
vn 0.917364 -0.398050 0.000000
vn -0.916935 -0.248797 0.311979
vn -0.916935 -0.248797 0.311979
vn -0.916935 -0.248797 0.311979
vn -0.916935 -0.248797 0.311979
vn 0.917364 -0.248180 0.311209
vn 0.917364 -0.248180 0.311209
vn 0.917364 -0.248180 0.311209
vn 0.917364 -0.248180 0.311209
vn -0.916938 0.088791 0.389026
vn -0.916938 0.088791 0.389026
vn -0.916938 0.088791 0.389026
vn -0.916938 0.088791 0.389026
vn 0.917364 0.088577 0.388070
vn 0.917364 0.088577 0.388070
vn 0.917364 0.088577 0.388070
vn 0.917364 0.088577 0.388070
vn -0.916933 0.088795 -0.389037
vn -0.916933 0.088795 -0.389037
vn -0.916933 0.088795 -0.389037
vn -0.916933 0.088795 -0.389037
vn 0.917364 0.088574 -0.388070
vn 0.917364 0.088574 -0.388070
vn 0.917364 0.088574 -0.388070
vn 0.917364 0.088574 -0.388070
vn 0.003345 0.900964 -0.433880
vn 0.003345 0.900964 -0.433880
vn 0.003345 0.900964 -0.433880
vn 0.003345 0.900964 -0.433880
vn 0.003345 -0.999994 0.000000
vn 0.003345 -0.999994 0.000000
vn 0.003345 -0.999994 0.000000
vn 0.003345 -0.999994 0.000000
vn 0.003345 -0.623486 0.781828
vn 0.003345 -0.623486 0.781828
vn 0.003345 -0.623486 0.781828
vn 0.003345 -0.623486 0.781828
vn 0.003345 0.222520 0.974923
vn 0.003345 0.222520 0.974923
vn 0.003345 0.222520 0.974923
vn 0.003345 0.222520 0.974923
vn 0.003345 0.222520 -0.974922
vn 0.003345 0.222520 -0.974922
vn 0.003345 0.222520 -0.974922
vn 0.003345 0.222520 -0.974922
vn 0.003345 -0.623487 -0.781827
vn 0.003345 -0.623487 -0.781827
vn 0.003345 -0.623487 -0.781827
vn 0.003345 -0.623487 -0.781827
vn 0.003345 0.900964 0.433882
vn 0.003345 0.900964 0.433882
vn 0.003345 0.900964 0.433882
vn 0.003345 0.900964 0.433882
vn -0.793748 0.135347 0.592998
vn -0.793748 0.135347 0.592998
vn -0.793748 0.135347 0.592998
vn -0.793748 0.135347 0.592998
vn 0.994480 0.023350 -0.102298
vn 0.994480 0.023350 -0.102298
vn 0.994480 0.023350 -0.102298
vn 0.994480 0.023350 -0.102298
vn -0.793747 0.135347 -0.592999
vn -0.793747 0.135347 -0.592999
vn -0.793747 0.135347 -0.592999
vn -0.793747 0.135347 -0.592999
vn 0.994478 -0.065426 -0.082051
vn 0.994478 -0.065426 -0.082051
vn 0.994478 -0.065426 -0.082051
vn 0.994478 -0.065426 -0.082051
vn -0.793752 -0.379237 -0.475539
vn -0.793752 -0.379237 -0.475539
vn -0.793752 -0.379237 -0.475539
vn -0.793752 -0.379237 -0.475539
vn 0.994479 0.094546 0.045529
vn 0.994479 0.094546 0.045529
vn 0.994479 0.094546 0.045529
vn 0.994479 0.094546 0.045529
vn -0.793749 0.548010 0.263907
vn -0.793749 0.548010 0.263907
vn -0.793749 0.548010 0.263907
vn -0.793749 0.548010 0.263907
vn 0.003345 0.900963 0.433882
vn 0.003345 0.900963 0.433882
vn 0.003345 0.900963 0.433882
vn 0.003345 0.900963 0.433882
vn 0.003345 -0.623487 -0.781826
vn 0.003345 -0.623487 -0.781826
vn 0.003345 -0.623487 -0.781826
vn 0.003345 -0.623487 -0.781826
vn 0.003344 0.222519 -0.974923
vn 0.003344 0.222519 -0.974923
vn 0.003344 0.222519 -0.974923
vn 0.003344 0.222519 -0.974923
vn 0.003345 0.222520 0.974922
vn 0.003345 0.222520 0.974922
vn 0.003345 0.222520 0.974922
vn 0.003345 0.222520 0.974922
vn 0.003345 -0.623486 0.781827
vn 0.003345 -0.623486 0.781827
vn 0.003345 -0.623486 0.781827
vn 0.003345 -0.623486 0.781827
vn 0.003345 -0.999994 0.000000
vn 0.003345 -0.999994 0.000000
vn 0.003345 -0.999994 0.000000
vn 0.003345 -0.999994 0.000000
vn 0.003345 0.900964 -0.433881
vn 0.003345 0.900964 -0.433881
vn 0.003345 0.900964 -0.433881
vn 0.003345 0.900964 -0.433881
vn -0.916934 -0.399040 0.000000
vn -0.916934 -0.399040 0.000000
vn -0.916934 -0.399040 0.000000
vn -0.916934 -0.399040 0.000000
vn 0.917364 0.358631 -0.172708
vn 0.917364 0.358631 -0.172708
vn 0.917364 0.358631 -0.172708
vn 0.917364 0.358631 -0.172708
vn -0.916934 0.359522 -0.173138
vn -0.916934 0.359522 -0.173138
vn -0.916934 0.359522 -0.173138
vn -0.916934 0.359522 -0.173138
vn 0.917363 0.358634 0.172707
vn 0.917363 0.358634 0.172707
vn 0.917363 0.358634 0.172707
vn 0.917363 0.358634 0.172707
vn -0.916938 0.359517 0.173128
vn -0.916938 0.359517 0.173128
vn -0.916938 0.359517 0.173128
vn -0.916938 0.359517 0.173128
vn 0.917366 -0.248181 -0.311203
vn 0.917366 -0.248181 -0.311203
vn 0.917366 -0.248181 -0.311203
vn 0.917366 -0.248181 -0.311203
vn -0.916933 -0.248797 -0.311985
vn -0.916933 -0.248797 -0.311985
vn -0.916933 -0.248797 -0.311985
vn -0.916933 -0.248797 -0.311985
vn 0.003345 0.900964 0.433882
vn 0.003345 0.900964 0.433882
vn 0.003345 0.900964 0.433882
vn 0.003345 0.900964 0.433882
vn 0.003345 -0.623486 -0.781828
vn 0.003345 -0.623486 -0.781828
vn 0.003345 -0.623486 -0.781828
vn 0.003345 -0.623486 -0.781828
vn 0.003345 0.222520 -0.974922
vn 0.003345 0.222520 -0.974922
vn 0.003345 0.222520 -0.974922
vn 0.003345 0.222520 -0.974922
vn 0.003345 0.222521 0.974922
vn 0.003345 0.222521 0.974922
vn 0.003345 0.222521 0.974922
vn 0.003345 0.222521 0.974922
vn 0.003345 -0.623486 0.781828
vn 0.003345 -0.623486 0.781828
vn 0.003345 -0.623486 0.781828
vn 0.003345 -0.623486 0.781828
vn 0.003345 -0.999994 0.000000
vn 0.003345 -0.999994 0.000000
vn 0.003345 -0.999994 0.000000
vn 0.003345 -0.999994 0.000000
vn 0.003345 0.900964 -0.433881
vn 0.003345 0.900964 -0.433881
vn 0.003345 0.900964 -0.433881
vn 0.003345 0.900964 -0.433881
vn 0.930134 0.081714 -0.358014
vn 0.930134 0.081714 -0.358014
vn 0.930134 0.081714 -0.358014
vn 0.930134 0.081714 -0.358014
vn 0.930134 0.330854 -0.159331
vn 0.930134 0.330854 -0.159331
vn 0.930134 0.330854 -0.159331
vn 0.930134 0.330854 -0.159331
vn -0.929807 0.331604 0.159682
vn -0.929807 0.331604 0.159682
vn -0.929807 0.331604 0.159682
vn -0.929807 0.331604 0.159682
vn 0.930131 0.081714 0.358021
vn 0.930131 0.081714 0.358021
vn 0.930131 0.081714 0.358021
vn 0.930131 0.081714 0.358021
vn 0.930138 0.330844 0.159331
vn 0.930138 0.330844 0.159331
vn 0.930138 0.330844 0.159331
vn 0.930138 0.330844 0.159331
vn -0.929805 0.331602 -0.159694
vn -0.929805 0.331602 -0.159694
vn -0.929805 0.331602 -0.159694
vn -0.929805 0.331602 -0.159694
vn 0.930137 -0.228959 -0.287093
vn 0.930137 -0.228959 -0.287093
vn 0.930137 -0.228959 -0.287093
vn 0.930137 -0.228959 -0.287093
vn 0.003345 0.900964 -0.433881
vn 0.003345 0.900964 -0.433881
vn 0.003345 0.900964 -0.433881
vn 0.003345 0.900964 -0.433881
vn 0.003345 -0.999994 0.000000
vn 0.003345 -0.999994 0.000000
vn 0.003345 -0.999994 0.000000
vn 0.003345 -0.999994 0.000000
vn 0.003345 -0.623487 0.781827
vn 0.003345 -0.623487 0.781827
vn 0.003345 -0.623487 0.781827
vn 0.003345 -0.623487 0.781827
vn 0.003345 0.222520 0.974923
vn 0.003345 0.222520 0.974923
vn 0.003345 0.222520 0.974923
vn 0.003345 0.222520 0.974923
vn -0.929805 -0.229476 -0.287757
vn -0.929805 -0.229476 -0.287757
vn -0.929805 -0.229476 -0.287757
vn -0.929805 -0.229476 -0.287757
vn 0.003345 0.222520 -0.974922
vn 0.003345 0.222520 -0.974922
vn 0.003345 0.222520 -0.974922
vn 0.003345 0.222520 -0.974922
vn 0.003345 -0.623486 -0.781827
vn 0.003345 -0.623486 -0.781827
vn 0.003345 -0.623486 -0.781827
vn 0.003345 -0.623486 -0.781827
vn 0.003345 0.900964 0.433881
vn 0.003345 0.900964 0.433881
vn 0.003345 0.900964 0.433881
vn 0.003345 0.900964 0.433881
vn -0.704149 0.639734 -0.308082
vn -0.704149 0.639734 -0.308082
vn -0.704149 0.639734 -0.308082
vn -0.704149 0.639734 -0.308082
vn -0.704149 0.158001 -0.692250
vn -0.704149 0.158001 -0.692250
vn -0.704149 0.158001 -0.692250
vn -0.704149 0.158001 -0.692250
vn -0.704150 -0.442710 -0.555141
vn -0.704150 -0.442710 -0.555141
vn -0.704150 -0.442710 -0.555141
vn -0.704150 -0.442710 -0.555141
vn -0.704150 -0.710051 0.000004
vn -0.704150 -0.710051 0.000004
vn -0.704150 -0.710051 0.000004
vn -0.704150 -0.710051 0.000004
vn -0.704150 -0.442710 0.555141
vn -0.704150 -0.442710 0.555141
vn -0.704150 -0.442710 0.555141
vn -0.704150 -0.442710 0.555141
vn -0.704147 0.158001 0.692252
vn -0.704147 0.158001 0.692252
vn -0.704147 0.158001 0.692252
vn -0.704147 0.158001 0.692252
vn -0.704150 0.639734 0.308081
vn -0.704150 0.639734 0.308081
vn -0.704150 0.639734 0.308081
vn -0.704150 0.639734 0.308081
vn -1.000000 0.000000 0.000001
vn -1.000000 0.000000 0.000001
vn -1.000000 0.000000 0.000001
vn -1.000000 0.000000 0.000001
vn -1.000000 0.000000 0.000001
vn -1.000000 0.000000 0.000001
vn -1.000000 0.000000 0.000001
vn 0.710050 0.634419 -0.305518
vn 0.710050 0.634419 -0.305518
vn 0.710050 0.634419 -0.305518
vn 0.710050 0.634419 -0.305518
vn 0.710047 0.156688 -0.686500
vn 0.710047 0.156688 -0.686500
vn 0.710047 0.156688 -0.686500
vn 0.710047 0.156688 -0.686500
vn 0.710051 -0.439032 -0.550526
vn 0.710051 -0.439032 -0.550526
vn 0.710051 -0.439032 -0.550526
vn 0.710051 -0.439032 -0.550526
vn 0.710050 -0.704152 0.000004
vn 0.710050 -0.704152 0.000004
vn 0.710050 -0.704152 0.000004
vn 0.710050 -0.704152 0.000004
vn 0.710050 -0.439032 0.550528
vn 0.710050 -0.439032 0.550528
vn 0.710050 -0.439032 0.550528
vn 0.710050 -0.439032 0.550528
vn 0.710049 0.156689 0.686497
vn 0.710049 0.156689 0.686497
vn 0.710049 0.156689 0.686497
vn 0.710049 0.156689 0.686497
vn 0.710049 0.634418 0.305522
vn 0.710049 0.634418 0.305522
vn 0.710049 0.634418 0.305522
vn 0.710049 0.634418 0.305522
vn 1.000000 0.000000 0.000003
vn 1.000000 0.000000 0.000003
vn 1.000000 0.000000 0.000003
vn 1.000000 0.000000 0.000003
vn 1.000000 0.000000 0.000003
vn 1.000000 0.000000 0.000003
vn 1.000000 0.000000 0.000003
vn 0.930142 -0.367200 -0.000001
vn 0.930142 -0.367200 -0.000001
vn 0.930142 -0.367200 -0.000001
vn 0.930142 -0.367200 -0.000001
vn -0.929805 0.081899 -0.358824
vn -0.929805 0.081899 -0.358824
vn -0.929805 0.081899 -0.358824
vn -0.929805 0.081899 -0.358824
vn 0.930140 -0.228949 0.287093
vn 0.930140 -0.228949 0.287093
vn 0.930140 -0.228949 0.287093
vn 0.930140 -0.228949 0.287093
vn -0.929805 0.081897 0.358824
vn -0.929805 0.081897 0.358824
vn -0.929805 0.081897 0.358824
vn -0.929805 0.081897 0.358824
vn -0.929807 -0.229475 0.287750
vn -0.929807 -0.229475 0.287750
vn -0.929807 -0.229475 0.287750
vn -0.929807 -0.229475 0.287750
vn -0.929806 -0.368051 0.000001
vn -0.929806 -0.368051 0.000001
vn -0.929806 -0.368051 0.000001
vn -0.929806 -0.368051 0.000001
vn 0.004438 0.900960 -0.433880
vn 0.004438 0.900960 -0.433880
vn 0.004438 0.900960 -0.433880
vn 0.004438 0.900960 -0.433880
vn 0.004438 -0.999990 0.000000
vn 0.004438 -0.999990 0.000000
vn 0.004438 -0.999990 0.000000
vn 0.004438 -0.999990 0.000000
vn 0.004438 -0.623484 0.781824
vn 0.004438 -0.623484 0.781824
vn 0.004438 -0.623484 0.781824
vn 0.004438 -0.623484 0.781824
vn 0.004438 0.222519 0.974918
vn 0.004438 0.222519 0.974918
vn 0.004438 0.222519 0.974918
vn 0.004438 0.222519 0.974918
vn 0.004438 0.222519 -0.974918
vn 0.004438 0.222519 -0.974918
vn 0.004438 0.222519 -0.974918
vn 0.004438 0.222519 -0.974918
vn 0.004438 -0.623484 -0.781824
vn 0.004438 -0.623484 -0.781824
vn 0.004438 -0.623484 -0.781824
vn 0.004438 -0.623484 -0.781824
vn 0.004438 0.900960 0.433880
vn 0.004438 0.900960 0.433880
vn 0.004438 0.900960 0.433880
vn 0.004438 0.900960 0.433880
vn 0.994479 0.023356 0.102307
vn 0.994479 0.023356 0.102307
vn 0.994479 0.023356 0.102307
vn 0.994479 0.023356 0.102307
vn -0.793750 -0.379235 0.475544
vn -0.793750 -0.379235 0.475544
vn -0.793750 -0.379235 0.475544
vn -0.793750 -0.379235 0.475544
vn 0.994481 -0.065428 0.082022
vn 0.994481 -0.065428 0.082022
vn 0.994481 -0.065428 0.082022
vn 0.994481 -0.065428 0.082022
vn -0.793749 -0.608246 0.000001
vn -0.793749 -0.608246 0.000001
vn -0.793749 -0.608246 0.000001
vn -0.793749 -0.608246 0.000001
vn 0.994479 -0.104934 0.000000
vn 0.994479 -0.104934 0.000000
vn 0.994479 -0.104934 0.000000
vn 0.994479 -0.104934 0.000000
vn -0.793748 0.548010 -0.263911
vn -0.793748 0.548010 -0.263911
vn -0.793748 0.548010 -0.263911
vn -0.793748 0.548010 -0.263911
vn 0.994479 0.094541 -0.045530
vn 0.994479 0.094541 -0.045530
vn 0.994479 0.094541 -0.045530
vn 0.994479 0.094541 -0.045530
vn 0.003345 0.900964 -0.433882
vn 0.003345 0.900964 -0.433882
vn 0.003345 0.900964 -0.433882
vn 0.003345 0.900964 -0.433882
vn 0.003345 -0.999994 0.000000
vn 0.003345 -0.999994 0.000000
vn 0.003345 -0.999994 0.000000
vn 0.003345 -0.999994 0.000000
vn 0.003345 -0.623486 0.781828
vn 0.003345 -0.623486 0.781828
vn 0.003345 -0.623486 0.781828
vn 0.003345 -0.623486 0.781828
vn 0.003345 0.222519 0.974923
vn 0.003345 0.222519 0.974923
vn 0.003345 0.222519 0.974923
vn 0.003345 0.222519 0.974923
vn 0.003345 0.222520 -0.974922
vn 0.003345 0.222520 -0.974922
vn 0.003345 0.222520 -0.974922
vn 0.003345 0.222520 -0.974922
vn 0.003345 -0.623487 -0.781827
vn 0.003345 -0.623487 -0.781827
vn 0.003345 -0.623487 -0.781827
vn 0.003345 -0.623487 -0.781827
vn 0.003345 0.900964 0.433882
vn 0.003345 0.900964 0.433882
vn 0.003345 0.900964 0.433882
vn 0.003345 0.900964 0.433882
vn 0.003345 0.900964 0.433881
vn 0.003345 0.900964 0.433881
vn 0.003345 0.900964 0.433881
vn 0.003345 0.900964 0.433881
vn 0.003345 -0.623486 -0.781827
vn 0.003345 -0.623486 -0.781827
vn 0.003345 -0.623486 -0.781827
vn 0.003345 -0.623486 -0.781827
vn 0.003345 0.222520 -0.974922
vn 0.003345 0.222520 -0.974922
vn 0.003345 0.222520 -0.974922
vn 0.003345 0.222520 -0.974922
vn 0.003345 0.222520 0.974923
vn 0.003345 0.222520 0.974923
vn 0.003345 0.222520 0.974923
vn 0.003345 0.222520 0.974923
vn 0.003345 -0.623486 0.781828
vn 0.003345 -0.623486 0.781828
vn 0.003345 -0.623486 0.781828
vn 0.003345 -0.623486 0.781828
vn 0.003345 -0.999994 0.000000
vn 0.003345 -0.999994 0.000000
vn 0.003345 -0.999994 0.000000
vn 0.003345 -0.999994 0.000000
vn 0.003345 0.900964 -0.433881
vn 0.003345 0.900964 -0.433881
vn 0.003345 0.900964 -0.433881
vn 0.003345 0.900964 -0.433881
vn 0.917360 -0.398058 0.000000
vn 0.917360 -0.398058 0.000000
vn 0.917360 -0.398058 0.000000
vn 0.917360 -0.398058 0.000000
vn -0.916941 -0.248790 0.311968
vn -0.916941 -0.248790 0.311968
vn -0.916941 -0.248790 0.311968
vn -0.916941 -0.248790 0.311968
vn 0.917366 -0.248185 0.311196
vn 0.917366 -0.248185 0.311196
vn 0.917366 -0.248185 0.311196
vn 0.917366 -0.248185 0.311196
vn -0.916940 0.088791 0.389020
vn -0.916940 0.088791 0.389020
vn -0.916940 0.088791 0.389020
vn -0.916940 0.088791 0.389020
vn 0.917361 0.088576 0.388075
vn 0.917361 0.088576 0.388075
vn 0.917361 0.088576 0.388075
vn 0.917361 0.088576 0.388075
vn -0.916938 0.088791 -0.389026
vn -0.916938 0.088791 -0.389026
vn -0.916938 0.088791 -0.389026
vn -0.916938 0.088791 -0.389026
vn 0.917359 0.088576 -0.388081
vn 0.917359 0.088576 -0.388081
vn 0.917359 0.088576 -0.388081
vn 0.917359 0.088576 -0.388081
vn 0.003344 0.900964 -0.433881
vn 0.003344 0.900964 -0.433881
vn 0.003344 0.900964 -0.433881
vn 0.003344 0.900964 -0.433881
vn 0.003345 -0.999994 0.000000
vn 0.003345 -0.999994 0.000000
vn 0.003345 -0.999994 0.000000
vn 0.003345 -0.999994 0.000000
vn 0.003345 -0.623485 0.781828
vn 0.003345 -0.623485 0.781828
vn 0.003345 -0.623485 0.781828
vn 0.003345 -0.623485 0.781828
vn 0.003345 0.222520 0.974923
vn 0.003345 0.222520 0.974923
vn 0.003345 0.222520 0.974923
vn 0.003345 0.222520 0.974923
vn 0.003345 0.222520 -0.974922
vn 0.003345 0.222520 -0.974922
vn 0.003345 0.222520 -0.974922
vn 0.003345 0.222520 -0.974922
vn 0.003345 -0.623487 -0.781827
vn 0.003345 -0.623487 -0.781827
vn 0.003345 -0.623487 -0.781827
vn 0.003345 -0.623487 -0.781827
vn 0.003345 0.900964 0.433881
vn 0.003345 0.900964 0.433881
vn 0.003345 0.900964 0.433881
vn 0.003345 0.900964 0.433881
vn -0.793748 0.135347 0.592997
vn -0.793748 0.135347 0.592997
vn -0.793748 0.135347 0.592997
vn -0.793748 0.135347 0.592997
vn 0.994479 0.023350 -0.102307
vn 0.994479 0.023350 -0.102307
vn 0.994479 0.023350 -0.102307
vn 0.994479 0.023350 -0.102307
vn -0.793746 0.135347 -0.592999
vn -0.793746 0.135347 -0.592999
vn -0.793746 0.135347 -0.592999
vn -0.793746 0.135347 -0.592999
vn 0.994479 -0.065426 -0.082041
vn 0.994479 -0.065426 -0.082041
vn 0.994479 -0.065426 -0.082041
vn 0.994479 -0.065426 -0.082041
vn -0.793752 -0.379237 -0.475539
vn -0.793752 -0.379237 -0.475539
vn -0.793752 -0.379237 -0.475539
vn -0.793752 -0.379237 -0.475539
vn 0.994479 0.094546 0.045534
vn 0.994479 0.094546 0.045534
vn 0.994479 0.094546 0.045534
vn 0.994479 0.094546 0.045534
vn -0.793749 0.548010 0.263907
vn -0.793749 0.548010 0.263907
vn -0.793749 0.548010 0.263907
vn -0.793749 0.548010 0.263907
vn 0.003344 0.900964 0.433881
vn 0.003344 0.900964 0.433881
vn 0.003344 0.900964 0.433881
vn 0.003344 0.900964 0.433881
vn 0.003345 -0.623488 -0.781826
vn 0.003345 -0.623488 -0.781826
vn 0.003345 -0.623488 -0.781826
vn 0.003345 -0.623488 -0.781826
vn 0.003345 0.222520 -0.974923
vn 0.003345 0.222520 -0.974923
vn 0.003345 0.222520 -0.974923
vn 0.003345 0.222520 -0.974923
vn 0.003344 0.222520 0.974922
vn 0.003344 0.222520 0.974922
vn 0.003344 0.222520 0.974922
vn 0.003344 0.222520 0.974922
vn 0.003344 -0.623484 0.781829
vn 0.003344 -0.623484 0.781829
vn 0.003344 -0.623484 0.781829
vn 0.003344 -0.623484 0.781829
vn 0.003345 -0.999994 0.000000
vn 0.003345 -0.999994 0.000000
vn 0.003345 -0.999994 0.000000
vn 0.003345 -0.999994 0.000000
vn 0.003345 0.900964 -0.433881
vn 0.003345 0.900964 -0.433881
vn 0.003345 0.900964 -0.433881
vn 0.003345 0.900964 -0.433881
vn -0.916940 -0.399025 0.000000
vn -0.916940 -0.399025 0.000000
vn -0.916940 -0.399025 0.000000
vn -0.916940 -0.399025 0.000000
vn 0.917363 0.358634 -0.172707
vn 0.917363 0.358634 -0.172707
vn 0.917363 0.358634 -0.172707
vn 0.917363 0.358634 -0.172707
vn -0.916938 0.359512 -0.173135
vn -0.916938 0.359512 -0.173135
vn -0.916938 0.359512 -0.173135
vn -0.916938 0.359512 -0.173135
vn 0.917362 0.358634 0.172710
vn 0.917362 0.358634 0.172710
vn 0.917362 0.358634 0.172710
vn 0.917362 0.358634 0.172710
vn -0.916939 0.359513 0.173132
vn -0.916939 0.359513 0.173132
vn -0.916939 0.359513 0.173132
vn -0.916939 0.359513 0.173132
vn 0.917359 -0.248184 -0.311220
vn 0.917359 -0.248184 -0.311220
vn 0.917359 -0.248184 -0.311220
vn 0.917359 -0.248184 -0.311220
vn -0.916941 -0.248788 -0.311968
vn -0.916941 -0.248788 -0.311968
vn -0.916941 -0.248788 -0.311968
vn -0.916941 -0.248788 -0.311968
vn 0.003345 0.900964 0.433882
vn 0.003345 0.900964 0.433882
vn 0.003345 0.900964 0.433882
vn 0.003345 0.900964 0.433882
vn 0.003344 -0.623486 -0.781827
vn 0.003344 -0.623486 -0.781827
vn 0.003344 -0.623486 -0.781827
vn 0.003344 -0.623486 -0.781827
vn 0.003344 0.222520 -0.974922
vn 0.003344 0.222520 -0.974922
vn 0.003344 0.222520 -0.974922
vn 0.003344 0.222520 -0.974922
vn 0.003345 0.222520 0.974923
vn 0.003345 0.222520 0.974923
vn 0.003345 0.222520 0.974923
vn 0.003345 0.222520 0.974923
vn 0.003344 -0.623486 0.781828
vn 0.003344 -0.623486 0.781828
vn 0.003344 -0.623486 0.781828
vn 0.003344 -0.623486 0.781828
vn 0.003345 -0.999994 0.000000
vn 0.003345 -0.999994 0.000000
vn 0.003345 -0.999994 0.000000
vn 0.003345 -0.999994 0.000000
vn 0.003345 0.900963 -0.433883
vn 0.003345 0.900963 -0.433883
vn 0.003345 0.900963 -0.433883
vn 0.003345 0.900963 -0.433883
vn 0.930134 0.081709 -0.358014
vn 0.930134 0.081709 -0.358014
vn 0.930134 0.081709 -0.358014
vn 0.930134 0.081709 -0.358014
vn 0.930140 0.330840 -0.159327
vn 0.930140 0.330840 -0.159327
vn 0.930140 0.330840 -0.159327
vn 0.930140 0.330840 -0.159327
vn -0.929807 0.331604 0.159682
vn -0.929807 0.331604 0.159682
vn -0.929807 0.331604 0.159682
vn -0.929807 0.331604 0.159682
vn 0.930140 0.081715 0.357999
vn 0.930140 0.081715 0.357999
vn 0.930140 0.081715 0.357999
vn 0.930140 0.081715 0.357999
vn 0.930138 0.330844 0.159331
vn 0.930138 0.330844 0.159331
vn 0.930138 0.330844 0.159331
vn 0.930138 0.330844 0.159331
vn -0.929806 0.331604 -0.159686
vn -0.929806 0.331604 -0.159686
vn -0.929806 0.331604 -0.159686
vn -0.929806 0.331604 -0.159686
vn 0.930145 -0.228946 -0.287078
vn 0.930145 -0.228946 -0.287078
vn 0.930145 -0.228946 -0.287078
vn 0.930145 -0.228946 -0.287078
g Chopsticks_DarkBrown
usemtl DarkBrown
f 1 2 3
f 1 3 4
f 5 6 7
f 5 7 8
f 9 10 11
f 9 11 12
f 13 14 15
f 13 15 16
f 17 18 19
f 17 19 20
f 21 22 23
f 21 23 24
f 25 26 27
f 25 27 28
f 29 30 31
f 29 31 32
f 33 34 35
f 33 35 36
f 37 38 39
f 37 39 40
f 41 42 43
f 41 43 44
f 45 46 47
f 45 47 48
f 49 50 51
f 49 51 52
f 53 54 55
f 53 55 56
f 57 58 59
f 57 59 60
f 61 62 63
f 63 64 61
f 64 65 61
f 64 66 65
f 66 67 65
f 68 69 70
f 68 70 71
f 72 73 74
f 72 74 75
f 76 77 78
f 76 78 79
f 80 81 82
f 80 82 83
f 84 85 86
f 84 86 87
f 88 89 90
f 88 90 91
f 92 93 94
f 92 94 95
f 96 97 98
f 98 99 96
f 98 100 99
f 100 101 99
f 100 102 101
f 103 104 105
f 103 105 106
f 107 108 109
f 107 109 110
f 111 112 113
f 111 113 114
f 115 116 117
f 115 117 118
f 119 120 121
f 119 121 122
f 123 124 125
f 123 125 126
f 127 128 129
f 127 129 130
f 131 132 133
f 131 133 134
f 135 136 137
f 135 137 138
f 139 140 141
f 139 141 142
f 143 144 145
f 143 145 146
f 147 148 149
f 147 149 150
f 151 152 153
f 151 153 154
f 155 156 157
f 155 157 158
f 159 160 161
f 159 161 162
f 163 164 165
f 163 165 166
f 167 168 169
f 167 169 170
f 171 172 173
f 171 173 174
f 175 176 177
f 175 177 178
f 179 180 181
f 179 181 182
f 183 184 185
f 183 185 186
f 187 188 189
f 187 189 190
f 191 192 193
f 191 193 194
f 195 196 197
f 195 197 198
f 199 200 201
f 199 201 202
f 203 204 205
f 203 205 206
f 207 208 209
f 207 209 210
f 211 212 213
f 211 213 214
f 215 216 217
f 215 217 218
f 219 220 221
f 219 221 222
f 223 224 225
f 223 225 226
f 227 228 229
f 227 229 230
f 231 232 233
f 231 233 234
f 235 236 237
f 235 237 238
f 239 240 241
f 239 241 242
f 243 244 245
f 243 245 246
f 247 248 249
f 247 249 250
f 251 252 253
f 251 253 254
f 255 256 257
f 255 257 258
f 259 260 261
f 259 261 262
f 263 264 265
f 263 265 266
f 267 268 269
f 267 269 270
f 271 272 273
f 271 273 274
f 275 276 277
f 275 277 278
f 279 280 281
f 279 281 282
f 283 284 285
f 283 285 286
f 287 288 289
f 287 289 290
f 291 292 293
f 291 293 294
f 295 296 297
f 295 297 298
f 299 300 301
f 299 301 302
f 303 304 305
f 303 305 306
f 307 308 309
f 307 309 310
f 311 312 313
f 311 313 314
f 315 316 317
f 315 317 318
f 319 320 321
f 319 321 322
f 323 324 325
f 323 325 326
f 327 328 329
f 327 329 330
f 331 332 333
f 331 333 334
f 335 336 337
f 335 337 338
f 339 340 341
f 339 341 342
f 343 344 345
f 343 345 346
f 347 348 349
f 347 349 350
f 351 352 353
f 351 353 354
f 355 356 357
f 355 357 358
f 359 360 361
f 359 361 362
f 363 364 365
f 363 365 366
f 367 368 369
f 367 369 370
f 371 372 373
f 371 373 374
f 375 376 377
f 375 377 378
f 379 380 381
f 379 381 382
f 383 384 385
f 383 385 386
f 387 388 389
f 387 389 390
f 391 392 393
f 391 393 394
f 395 396 397
f 395 397 398
f 399 400 401
f 399 401 402
f 403 404 405
f 403 405 406
f 407 408 409
f 407 409 410
f 411 412 413
f 411 413 414
f 415 416 417
f 415 417 418
f 419 420 421
f 419 421 422
f 423 424 425
f 423 425 426
f 427 428 429
f 427 429 430
f 431 432 433
f 431 433 434
f 435 436 437
f 435 437 438
f 439 440 441
f 439 441 442
f 443 444 445
f 443 445 446
f 447 448 449
f 447 449 450
f 451 452 453
f 451 453 454
f 455 456 457
f 455 457 458
f 459 460 461
f 459 461 462
f 463 464 465
f 463 465 466
f 467 468 469
f 467 469 470
f 471 472 473
f 471 473 474
f 475 476 477
f 475 477 478
f 479 480 481
f 479 481 482
f 483 484 485
f 483 485 486
f 487 488 489
f 487 489 490
f 491 492 493
f 491 493 494
f 495 496 497
f 497 498 495
f 498 499 495
f 498 500 499
f 500 501 499
f 502 503 504
f 502 504 505
f 506 507 508
f 506 508 509
f 510 511 512
f 510 512 513
f 514 515 516
f 514 516 517
f 518 519 520
f 518 520 521
f 522 523 524
f 522 524 525
f 526 527 528
f 526 528 529
f 530 531 532
f 532 533 530
f 532 534 533
f 534 535 533
f 534 536 535
f 537 538 539
f 537 539 540
f 541 542 543
f 541 543 544
f 545 546 547
f 545 547 548
f 549 550 551
f 549 551 552
f 553 554 555
f 553 555 556
f 557 558 559
f 557 559 560
f 561 562 563
f 561 563 564
f 565 566 567
f 565 567 568
f 569 570 571
f 569 571 572
f 573 574 575
f 573 575 576
f 577 578 579
f 577 579 580
f 581 582 583
f 581 583 584
f 585 586 587
f 585 587 588
f 589 590 591
f 589 591 592
f 593 594 595
f 593 595 596
f 597 598 599
f 597 599 600
f 601 602 603
f 601 603 604
f 605 606 607
f 605 607 608
f 609 610 611
f 609 611 612
f 613 614 615
f 613 615 616
f 617 618 619
f 617 619 620
f 621 622 623
f 621 623 624
f 625 626 627
f 625 627 628
f 629 630 631
f 629 631 632
f 633 634 635
f 633 635 636
f 637 638 639
f 637 639 640
f 641 642 643
f 641 643 644
f 645 646 647
f 645 647 648
f 649 650 651
f 649 651 652
f 653 654 655
f 653 655 656
f 657 658 659
f 657 659 660
f 661 662 663
f 661 663 664
f 665 666 667
f 665 667 668
f 669 670 671
f 669 671 672
f 673 674 675
f 673 675 676
f 677 678 679
f 677 679 680
f 681 682 683
f 681 683 684
f 685 686 687
f 685 687 688
f 689 690 691
f 689 691 692
f 693 694 695
f 693 695 696
f 697 698 699
f 697 699 700
f 701 702 703
f 701 703 704
f 705 706 707
f 705 707 708
f 709 710 711
f 709 711 712
f 713 714 715
f 713 715 716
f 717 718 719
f 717 719 720
f 721 722 723
f 721 723 724
f 725 726 727
f 725 727 728
f 729 730 731
f 729 731 732
f 733 734 735
f 733 735 736
f 737 738 739
f 737 739 740
f 741 742 743
f 741 743 744
f 745 746 747
f 745 747 748
f 749 750 751
f 749 751 752
f 753 754 755
f 753 755 756
f 757 758 759
f 757 759 760
f 761 762 763
f 761 763 764
f 765 766 767
f 765 767 768
f 769 770 771
f 769 771 772
f 773 774 775
f 773 775 776
f 777 778 779
f 777 779 780
f 781 782 783
f 781 783 784
f 785 786 787
f 785 787 788
f 789 790 791
f 789 791 792
f 793 794 795
f 793 795 796
f 797 798 799
f 797 799 800
f 801 802 803
f 801 803 804
f 805 806 807
f 805 807 808
f 809 810 811
f 809 811 812
f 813 814 815
f 813 815 816
f 817 818 819
f 817 819 820
f 821 822 823
f 821 823 824
f 825 826 827
f 825 827 828
f 829 830 831
f 829 831 832
f 833 834 835
f 833 835 836
f 837 838 839
f 837 839 840
f 841 842 843
f 841 843 844
f 845 846 847
f 845 847 848
f 849 850 851
f 849 851 852
f 853 854 855
f 853 855 856
f 857 858 859
f 857 859 860
f 861 862 863
f 861 863 864
f 865 866 867
f 865 867 868
