mtllib Materials.mtl
# Ultimate Food Pack - Coconut_Half
o Coconut_Half
v 0.000000 -0.375718 0.021344
v 0.000000 -0.345026 -0.172433
v 0.195890 -0.319241 0.020176
v 0.000000 -0.375718 0.021344
v -0.195890 -0.319241 0.020176
v 0.000000 -0.345026 -0.172433
v 0.000000 -0.207923 -0.336906
v 0.121066 -0.037313 -0.382553
v 0.195891 -0.227492 -0.252691
v -0.333271 -0.162691 0.016938
v -0.316960 -0.018091 -0.241533
v -0.195891 -0.227492 -0.252691
v 0.333271 -0.162691 0.016938
v 0.316960 -0.018091 -0.241533
v 0.391785 0.015791 0.013246
v 0.000000 -0.207923 -0.336906
v -0.121066 -0.037313 -0.382553
v 0.121066 -0.037313 -0.382553
v -0.333271 -0.162691 0.016938
v -0.391785 0.015791 0.013246
v -0.316960 -0.018091 -0.241533
v 0.205971 0.148331 -0.317921
v 0.121066 0.320725 -0.223475
v 0.316958 0.203190 -0.143220
v -0.205971 0.148331 -0.317921
v -0.121066 0.320725 -0.223475
v 0.000000 0.172088 -0.371392
v -0.195890 0.350822 0.006316
v 0.000000 0.401205 -0.066270
v -0.121066 0.320725 -0.223475
v -0.195890 0.350822 0.006316
v -0.121066 0.320725 -0.223475
v -0.316958 0.203190 -0.143220
v -0.316958 0.203190 -0.143220
v -0.121066 0.320725 -0.223475
v -0.205971 0.148331 -0.317921
v -0.121066 0.320725 -0.223475
v 0.000000 0.401205 -0.066270
v 0.121066 0.320725 -0.223475
v -0.121066 0.320725 -0.223475
v 0.121066 0.320725 -0.223475
v 0.000000 0.172088 -0.371392
v 0.000000 0.172088 -0.371392
v 0.121066 0.320725 -0.223475
v 0.205971 0.148331 -0.317921
v 0.121066 0.320725 -0.223475
v 0.000000 0.401205 -0.066270
v 0.195890 0.350822 0.006316
v 0.121066 0.320725 -0.223475
v 0.195890 0.350822 0.006316
v 0.316958 0.203190 -0.143220
v 0.316958 0.203190 -0.143220
v 0.195890 0.350822 0.006316
v 0.327650 0.202585 0.009382
v 0.195890 0.350822 0.006316
v 0.000000 0.401205 -0.066270
v 0.000000 0.390795 0.005489
v -0.391785 0.015791 0.013246
v -0.327650 0.202585 0.009382
v -0.316958 0.203190 -0.143220
v -0.391785 0.015791 0.013246
v -0.316958 0.203190 -0.143220
v -0.316960 -0.018091 -0.241533
v -0.316960 -0.018091 -0.241533
v -0.316958 0.203190 -0.143220
v -0.205971 0.148331 -0.317921
v -0.121066 -0.037313 -0.382553
v -0.205971 0.148331 -0.317921
v 0.000000 0.172088 -0.371392
v -0.121066 -0.037313 -0.382553
v 0.000000 0.172088 -0.371392
v 0.121066 -0.037313 -0.382553
v 0.121066 -0.037313 -0.382553
v 0.000000 0.172088 -0.371392
v 0.205971 0.148331 -0.317921
v 0.316960 -0.018091 -0.241533
v 0.205971 0.148331 -0.317921
v 0.316958 0.203190 -0.143220
v 0.316960 -0.018091 -0.241533
v 0.316958 0.203190 -0.143220
v 0.391785 0.015791 0.013246
v 0.391785 0.015791 0.013246
v 0.316958 0.203190 -0.143220
v 0.327650 0.202585 0.009382
v -0.316960 -0.018091 -0.241533
v -0.205971 0.148331 -0.317921
v -0.121066 -0.037313 -0.382553
v -0.316960 -0.018091 -0.241533
v -0.121066 -0.037313 -0.382553
v -0.195891 -0.227492 -0.252691
v -0.195891 -0.227492 -0.252691
v -0.121066 -0.037313 -0.382553
v 0.000000 -0.207923 -0.336906
v 0.121066 -0.037313 -0.382553
v 0.205971 0.148331 -0.317921
v 0.316960 -0.018091 -0.241533
v 0.121066 -0.037313 -0.382553
v 0.316960 -0.018091 -0.241533
v 0.195891 -0.227492 -0.252691
v 0.195891 -0.227492 -0.252691
v 0.316960 -0.018091 -0.241533
v 0.333271 -0.162691 0.016938
v -0.195890 -0.319241 0.020176
v -0.333271 -0.162691 0.016938
v -0.195891 -0.227492 -0.252691
v -0.195890 -0.319241 0.020176
v -0.195891 -0.227492 -0.252691
v 0.000000 -0.345026 -0.172433
v 0.000000 -0.345026 -0.172433
v -0.195891 -0.227492 -0.252691
v 0.000000 -0.207923 -0.336906
v 0.000000 -0.345026 -0.172433
v 0.000000 -0.207923 -0.336906
v 0.195891 -0.227492 -0.252691
v 0.000000 -0.345026 -0.172433
v 0.195891 -0.227492 -0.252691
v 0.195890 -0.319241 0.020176
v 0.195890 -0.319241 0.020176
v 0.195891 -0.227492 -0.252691
v 0.333271 -0.162691 0.016938
v 0.000000 0.390795 0.005489
v 0.000000 0.401205 -0.066270
v -0.195890 0.350822 0.006316
v -0.195890 0.350822 0.006316
v -0.316958 0.203190 -0.143220
v -0.327650 0.202585 0.009382
v 0.195890 -0.319241 0.020176
v 0.175547 -0.283322 0.028387
v 0.000000 -0.333934 0.029434
v 0.000000 -0.375718 0.021344
v -0.327650 0.202585 0.009382
v -0.293624 0.184312 0.018715
v -0.175547 0.317156 0.015967
v -0.195890 0.350822 0.006316
v 0.000000 -0.375718 0.021344
v 0.000000 -0.333934 0.029434
v -0.175547 -0.283322 0.028387
v -0.195890 -0.319241 0.020176
v -0.195890 0.350822 0.006316
v -0.175547 0.317156 0.015967
v 0.000000 0.352977 0.015226
v 0.000000 0.390795 0.005489
v -0.391785 0.015791 0.013246
v -0.351098 0.016917 0.022177
v -0.293624 0.184312 0.018715
v -0.327650 0.202585 0.009382
v 0.327650 0.202585 0.009382
v 0.293624 0.184312 0.018715
v 0.351098 0.016917 0.022177
v 0.391785 0.015791 0.013246
v 0.391785 0.015791 0.013246
v 0.351098 0.016917 0.022177
v 0.298661 -0.143030 0.025486
v 0.333271 -0.162691 0.016938
v 0.333271 -0.162691 0.016938
v 0.298661 -0.143030 0.025486
v 0.175547 -0.283322 0.028387
v 0.195890 -0.319241 0.020176
v -0.195890 -0.319241 0.020176
v -0.175547 -0.283322 0.028387
v -0.298661 -0.143030 0.025486
v -0.333271 -0.162691 0.016938
v 0.195890 0.350822 0.006316
v 0.175547 0.317156 0.015967
v 0.293624 0.184312 0.018715
v 0.327650 0.202585 0.009382
v 0.000000 0.390795 0.005489
v 0.000000 0.352977 0.015226
v 0.175547 0.317156 0.015967
v 0.195890 0.350822 0.006316
v -0.333271 -0.162691 0.016938
v -0.298661 -0.143030 0.025486
v -0.351098 0.016917 0.022177
v -0.391785 0.015791 0.013246
v 0.000000 -0.258968 0.015989
v 0.139050 -0.218879 0.015160
v 0.000000 -0.233755 -0.154981
v 0.000000 -0.258968 0.015989
v 0.000000 -0.233755 -0.154981
v -0.139050 -0.218879 0.015160
v 0.000000 -0.137121 -0.270906
v 0.138069 -0.150913 -0.211549
v 0.085331 -0.016870 -0.303080
v -0.236567 -0.107755 0.012861
v -0.138069 -0.150913 -0.211549
v -0.223402 -0.003322 -0.203685
v 0.236567 -0.107755 0.012861
v 0.278102 0.018937 0.010241
v 0.223402 -0.003322 -0.203685
v 0.000000 -0.137121 -0.270906
v 0.085331 -0.016870 -0.303080
v -0.085331 -0.016870 -0.303080
v -0.236567 -0.107755 0.012861
v -0.223402 -0.003322 -0.203685
v -0.278102 0.018937 0.010241
v 0.145174 0.113977 -0.257525
v 0.223401 0.152643 -0.134391
v 0.085331 0.235485 -0.190957
v -0.145174 0.113977 -0.257525
v 0.000000 0.130722 -0.295213
v -0.085331 0.235485 -0.190957
v -0.139050 0.256754 0.005321
v -0.085331 0.235485 -0.190957
v 0.000000 0.292210 -0.080154
v -0.139050 0.256754 0.005321
v -0.223401 0.152643 -0.134391
v -0.085331 0.235485 -0.190957
v -0.223401 0.152643 -0.134391
v -0.145174 0.113977 -0.257525
v -0.085331 0.235485 -0.190957
v -0.085331 0.235485 -0.190957
v 0.085331 0.235485 -0.190957
v 0.000000 0.292210 -0.080154
v -0.085331 0.235485 -0.190957
v 0.000000 0.130722 -0.295213
v 0.085331 0.235485 -0.190957
v 0.000000 0.130722 -0.295213
v 0.145174 0.113977 -0.257525
v 0.085331 0.235485 -0.190957
v 0.085331 0.235485 -0.190957
v 0.139050 0.256754 0.005321
v 0.000000 0.292210 -0.080154
v 0.085331 0.235485 -0.190957
v 0.223401 0.152643 -0.134391
v 0.139050 0.256754 0.005321
v 0.223401 0.152643 -0.134391
v 0.232577 0.151530 0.007498
v 0.139050 0.256754 0.005321
v 0.139050 0.256754 0.005321
v 0.000000 0.285128 0.004735
v 0.000000 0.292210 -0.080154
v -0.278102 0.018937 0.010241
v -0.223401 0.152643 -0.134391
v -0.232577 0.151530 0.007498
v -0.278102 0.018937 0.010241
v -0.223402 -0.003322 -0.203685
v -0.223401 0.152643 -0.134391
v -0.223402 -0.003322 -0.203685
v -0.145174 0.113977 -0.257525
v -0.223401 0.152643 -0.134391
v -0.085331 -0.016870 -0.303080
v 0.000000 0.130722 -0.295213
v -0.145174 0.113977 -0.257525
v -0.085331 -0.016870 -0.303080
v 0.085331 -0.016870 -0.303080
v 0.000000 0.130722 -0.295213
v 0.085331 -0.016870 -0.303080
v 0.145174 0.113977 -0.257525
v 0.000000 0.130722 -0.295213
v 0.223402 -0.003322 -0.203685
v 0.223401 0.152643 -0.134391
v 0.145174 0.113977 -0.257525
v 0.223402 -0.003322 -0.203685
v 0.278102 0.018937 0.010241
v 0.223401 0.152643 -0.134391
v 0.278102 0.018937 0.010241
v 0.232577 0.151530 0.007498
v 0.223401 0.152643 -0.134391
v -0.223402 -0.003322 -0.203685
v -0.085331 -0.016870 -0.303080
v -0.145174 0.113977 -0.257525
v -0.223402 -0.003322 -0.203685
v -0.138069 -0.150913 -0.211549
v -0.085331 -0.016870 -0.303080
v -0.138069 -0.150913 -0.211549
v 0.000000 -0.137121 -0.270906
v -0.085331 -0.016870 -0.303080
v 0.085331 -0.016870 -0.303080
v 0.223402 -0.003322 -0.203685
v 0.145174 0.113977 -0.257525
v 0.085331 -0.016870 -0.303080
v 0.138069 -0.150913 -0.211549
v 0.223402 -0.003322 -0.203685
v 0.138069 -0.150913 -0.211549
v 0.236567 -0.107755 0.012861
v 0.223402 -0.003322 -0.203685
v -0.139050 -0.218879 0.015160
v -0.138069 -0.150913 -0.211549
v -0.236567 -0.107755 0.012861
v -0.139050 -0.218879 0.015160
v 0.000000 -0.233755 -0.154981
v -0.138069 -0.150913 -0.211549
v 0.000000 -0.233755 -0.154981
v 0.000000 -0.137121 -0.270906
v -0.138069 -0.150913 -0.211549
v 0.000000 -0.233755 -0.154981
v 0.138069 -0.150913 -0.211549
v 0.000000 -0.137121 -0.270906
v 0.000000 -0.233755 -0.154981
v 0.139050 -0.218879 0.015160
v 0.138069 -0.150913 -0.211549
v 0.139050 -0.218879 0.015160
v 0.236567 -0.107755 0.012861
v 0.138069 -0.150913 -0.211549
v 0.000000 0.285128 0.004735
v -0.139050 0.256754 0.005321
v 0.000000 0.292210 -0.080154
v -0.139050 0.256754 0.005321
v -0.232577 0.151530 0.007498
v -0.223401 0.152643 -0.134391
v -0.298661 -0.143030 0.025486
v -0.236567 -0.107755 0.012861
v -0.278102 0.018937 0.010241
v -0.351098 0.016917 0.022177
v 0.000000 0.352977 0.015226
v 0.000000 0.285128 0.004735
v 0.139050 0.256754 0.005321
v 0.175547 0.317156 0.015967
v 0.175547 0.317156 0.015967
v 0.139050 0.256754 0.005321
v 0.232577 0.151530 0.007498
v 0.293624 0.184312 0.018715
v -0.175547 -0.283322 0.028387
v -0.139050 -0.218879 0.015160
v -0.236567 -0.107755 0.012861
v -0.298661 -0.143030 0.025486
v 0.298661 -0.143030 0.025486
v 0.236567 -0.107755 0.012861
v 0.139050 -0.218879 0.015160
v 0.175547 -0.283322 0.028387
v 0.351098 0.016917 0.022177
v 0.278102 0.018937 0.010241
v 0.236567 -0.107755 0.012861
v 0.298661 -0.143030 0.025486
v 0.293624 0.184312 0.018715
v 0.232577 0.151530 0.007498
v 0.278102 0.018937 0.010241
v 0.351098 0.016917 0.022177
v -0.351098 0.016917 0.022177
v -0.278102 0.018937 0.010241
v -0.232577 0.151530 0.007498
v -0.293624 0.184312 0.018715
v -0.175547 0.317156 0.015967
v -0.139050 0.256754 0.005321
v 0.000000 0.285128 0.004735
v 0.000000 0.352977 0.015226
v 0.000000 -0.333934 0.029434
v 0.000000 -0.258968 0.015989
v -0.139050 -0.218879 0.015160
v -0.175547 -0.283322 0.028387
v -0.293624 0.184312 0.018715
v -0.232577 0.151530 0.007498
v -0.139050 0.256754 0.005321
v -0.175547 0.317156 0.015967
v 0.175547 -0.283322 0.028387
v 0.139050 -0.218879 0.015160
v 0.000000 -0.258968 0.015989
v 0.000000 -0.333934 0.029434
vn 0.273041 -0.950158 -0.150492
vn 0.273041 -0.950158 -0.150492
vn 0.273041 -0.950158 -0.150492
vn -0.273042 -0.950158 -0.150492
vn -0.273042 -0.950158 -0.150492
vn -0.273042 -0.950158 -0.150492
vn 0.315095 -0.447516 -0.836926
vn 0.315095 -0.447516 -0.836926
vn 0.315095 -0.447516 -0.836926
vn -0.829753 -0.463141 -0.311464
vn -0.829753 -0.463141 -0.311464
vn -0.829753 -0.463141 -0.311464
vn 0.923283 -0.307451 -0.230267
vn 0.923283 -0.307451 -0.230267
vn 0.923283 -0.307451 -0.230267
vn 0.000000 -0.258463 -0.966021
vn 0.000000 -0.258463 -0.966021
vn 0.000000 -0.258463 -0.966021
vn -0.923283 -0.307451 -0.230267
vn -0.923283 -0.307451 -0.230267
vn -0.923283 -0.307451 -0.230267
vn 0.583122 0.591985 -0.556347
vn 0.583122 0.591985 -0.556347
vn 0.583122 0.591985 -0.556347
vn -0.268032 0.561068 -0.783174
vn -0.268032 0.561068 -0.783174
vn -0.268032 0.561068 -0.783174
vn -0.319998 0.920376 -0.224745
vn -0.319998 0.920376 -0.224745
vn -0.319998 0.920376 -0.224745
vn -0.576687 0.764549 -0.287919
vn -0.576687 0.764549 -0.287919
vn -0.576687 0.764549 -0.287919
vn -0.583122 0.591985 -0.556347
vn -0.583122 0.591985 -0.556347
vn -0.583122 0.591985 -0.556347
vn 0.000000 0.890135 -0.455697
vn 0.000000 0.890135 -0.455697
vn 0.000000 0.890135 -0.455697
vn 0.000000 0.705388 -0.708821
vn 0.000000 0.705388 -0.708821
vn 0.000000 0.705388 -0.708821
vn 0.268032 0.561068 -0.783174
vn 0.268032 0.561068 -0.783174
vn 0.268032 0.561068 -0.783174
vn 0.319998 0.920376 -0.224745
vn 0.319998 0.920376 -0.224745
vn 0.319998 0.920376 -0.224745
vn 0.576687 0.764549 -0.287919
vn 0.576687 0.764549 -0.287919
vn 0.576687 0.764549 -0.287919
vn 0.747013 0.662948 -0.049710
vn 0.747013 0.662948 -0.049710
vn 0.747013 0.662948 -0.049710
vn 0.197375 0.970172 0.140748
vn 0.197375 0.970172 0.140748
vn 0.197375 0.970172 0.140748
vn -0.944224 0.322850 -0.064877
vn -0.944224 0.322850 -0.064877
vn -0.944224 0.322850 -0.064877
vn -0.946325 0.131240 -0.295373
vn -0.946325 0.131240 -0.295373
vn -0.946325 0.131240 -0.295373
vn -0.777865 0.255162 -0.574298
vn -0.777865 0.255162 -0.574298
vn -0.777865 0.255162 -0.574298
vn -0.268032 0.205134 -0.941318
vn -0.268032 0.205134 -0.941318
vn -0.268032 0.205134 -0.941318
vn 0.000000 0.053222 -0.998583
vn 0.000000 0.053222 -0.998583
vn 0.000000 0.053222 -0.998583
vn 0.268032 0.205134 -0.941318
vn 0.268032 0.205134 -0.941318
vn 0.268032 0.205134 -0.941318
vn 0.777865 0.255162 -0.574298
vn 0.777865 0.255162 -0.574298
vn 0.777865 0.255162 -0.574298
vn 0.946325 0.131240 -0.295373
vn 0.946325 0.131240 -0.295373
vn 0.946325 0.131240 -0.295373
vn 0.944224 0.322850 -0.064877
vn 0.944224 0.322850 -0.064877
vn 0.944224 0.322850 -0.064877
vn -0.583127 0.016080 -0.812222
vn -0.583127 0.016080 -0.812222
vn -0.583127 0.016080 -0.812222
vn -0.577348 -0.293199 -0.762039
vn -0.577348 -0.293199 -0.762039
vn -0.577348 -0.293199 -0.762039
vn -0.315095 -0.447516 -0.836926
vn -0.315095 -0.447516 -0.836926
vn -0.315095 -0.447516 -0.836926
vn 0.583127 0.016080 -0.812222
vn 0.583127 0.016080 -0.812222
vn 0.583127 0.016080 -0.812222
vn 0.577348 -0.293199 -0.762039
vn 0.577348 -0.293199 -0.762039
vn 0.577348 -0.293199 -0.762039
vn 0.829753 -0.463141 -0.311464
vn 0.829753 -0.463141 -0.311464
vn 0.829753 -0.463141 -0.311464
vn -0.731427 -0.646360 -0.217331
vn -0.731427 -0.646360 -0.217331
vn -0.731427 -0.646360 -0.217331
vn -0.401306 -0.868181 -0.291918
vn -0.401306 -0.868181 -0.291918
vn -0.401306 -0.868181 -0.291918
vn -0.194736 -0.753418 -0.628043
vn -0.194736 -0.753418 -0.628043
vn -0.194736 -0.753418 -0.628043
vn 0.194736 -0.753418 -0.628043
vn 0.194736 -0.753418 -0.628043
vn 0.194736 -0.753418 -0.628043
vn 0.401307 -0.868180 -0.291918
vn 0.401307 -0.868180 -0.291918
vn 0.401307 -0.868180 -0.291918
vn 0.731427 -0.646360 -0.217331
vn 0.731427 -0.646360 -0.217331
vn 0.731427 -0.646360 -0.217331
vn -0.197375 0.970172 0.140748
vn -0.197375 0.970172 0.140748
vn -0.197375 0.970172 0.140748
vn -0.747013 0.662948 -0.049710
vn -0.747013 0.662948 -0.049710
vn -0.747013 0.662948 -0.049710
vn 0.060547 -0.189738 0.979966
vn 0.060547 -0.189738 0.979966
vn 0.060547 -0.189738 0.979966
vn 0.060547 -0.189738 0.979966
vn -0.172713 0.173569 0.969559
vn -0.172713 0.173569 0.969559
vn -0.172713 0.173569 0.969559
vn -0.172713 0.173569 0.969559
vn -0.060547 -0.189738 0.979966
vn -0.060547 -0.189738 0.979966
vn -0.060547 -0.189738 0.979966
vn -0.060547 -0.189738 0.979966
vn -0.046739 0.249059 0.967360
vn -0.046739 0.249059 0.967360
vn -0.046739 0.249059 0.967360
vn -0.046739 0.249059 0.967360
vn -0.215939 0.094243 0.971848
vn -0.215939 0.094243 0.971848
vn -0.215939 0.094243 0.971848
vn -0.215939 0.094243 0.971848
vn 0.215939 0.094243 0.971848
vn 0.215939 0.094243 0.971848
vn 0.215939 0.094243 0.971848
vn 0.215939 0.094243 0.971848
vn 0.212831 -0.049590 0.975830
vn 0.212831 -0.049590 0.975830
vn 0.212831 -0.049590 0.975830
vn 0.212831 -0.049590 0.975830
vn 0.168738 -0.127861 0.977333
vn 0.168738 -0.127861 0.977333
vn 0.168738 -0.127861 0.977333
vn 0.168738 -0.127861 0.977333
vn -0.168738 -0.127861 0.977333
vn -0.168738 -0.127861 0.977333
vn -0.168738 -0.127861 0.977333
vn -0.168738 -0.127861 0.977333
vn 0.172713 0.173569 0.969559
vn 0.172713 0.173569 0.969559
vn 0.172713 0.173569 0.969559
vn 0.172713 0.173569 0.969559
vn 0.046739 0.249059 0.967360
vn 0.046739 0.249059 0.967360
vn 0.046739 0.249059 0.967360
vn 0.046739 0.249059 0.967360
vn -0.212831 -0.049590 0.975830
vn -0.212831 -0.049590 0.975830
vn -0.212831 -0.049590 0.975830
vn -0.212831 -0.049590 0.975830
vn -0.273511 0.951577 0.140333
vn -0.273511 0.951577 0.140333
vn -0.273511 0.951577 0.140333
vn 0.273510 0.951577 0.140333
vn 0.273510 0.951577 0.140333
vn 0.273510 0.951577 0.140333
vn -0.315095 0.447516 0.836926
vn -0.315095 0.447516 0.836926
vn -0.315095 0.447516 0.836926
vn 0.838053 0.469750 0.277494
vn 0.838053 0.469750 0.277494
vn 0.838053 0.469750 0.277494
vn -0.928722 0.308720 0.205346
vn -0.928722 0.308720 0.205346
vn -0.928722 0.308720 0.205346
vn 0.000000 0.258463 0.966021
vn 0.000000 0.258463 0.966021
vn 0.000000 0.258463 0.966021
vn 0.928722 0.308720 0.205346
vn 0.928722 0.308720 0.205346
vn 0.928722 0.308720 0.205346
vn -0.583122 -0.591985 0.556347
vn -0.583122 -0.591985 0.556347
vn -0.583122 -0.591985 0.556347
vn 0.268032 -0.561068 0.783174
vn 0.268032 -0.561068 0.783174
vn 0.268032 -0.561068 0.783174
vn 0.353643 -0.914637 0.195897
vn 0.353643 -0.914637 0.195897
vn 0.353643 -0.914637 0.195897
vn 0.570046 -0.785434 0.241124
vn 0.570046 -0.785434 0.241124
vn 0.570046 -0.785434 0.241124
vn 0.583122 -0.591985 0.556347
vn 0.583122 -0.591985 0.556347
vn 0.583122 -0.591985 0.556347
vn 0.000000 -0.890135 0.455697
vn 0.000000 -0.890135 0.455697
vn 0.000000 -0.890135 0.455697
vn 0.000000 -0.705388 0.708821
vn 0.000000 -0.705388 0.708821
vn 0.000000 -0.705388 0.708821
vn -0.268032 -0.561068 0.783174
vn -0.268032 -0.561068 0.783174
vn -0.268032 -0.561068 0.783174
vn -0.353643 -0.914637 0.195897
vn -0.353643 -0.914637 0.195897
vn -0.353643 -0.914637 0.195897
vn -0.570046 -0.785434 0.241124
vn -0.570046 -0.785434 0.241124
vn -0.570046 -0.785434 0.241124
vn -0.747175 -0.663228 0.043117
vn -0.747175 -0.663228 0.043117
vn -0.747175 -0.663228 0.043117
vn -0.198940 -0.976619 -0.081479
vn -0.198940 -0.976619 -0.081479
vn -0.198940 -0.976619 -0.081479
vn 0.944554 -0.323094 0.058550
vn 0.944554 -0.323094 0.058550
vn 0.944554 -0.323094 0.058550
vn 0.959562 -0.114301 0.257247
vn 0.959562 -0.114301 0.257247
vn 0.959562 -0.114301 0.257247
vn 0.777865 -0.255162 0.574299
vn 0.777865 -0.255162 0.574299
vn 0.777865 -0.255162 0.574299
vn 0.268032 -0.205134 0.941318
vn 0.268032 -0.205134 0.941318
vn 0.268032 -0.205134 0.941318
vn 0.000000 -0.053223 0.998583
vn 0.000000 -0.053223 0.998583
vn 0.000000 -0.053223 0.998583
vn -0.268032 -0.205134 0.941318
vn -0.268032 -0.205134 0.941318
vn -0.268032 -0.205134 0.941318
vn -0.777865 -0.255162 0.574299
vn -0.777865 -0.255162 0.574299
vn -0.777865 -0.255162 0.574299
vn -0.959562 -0.114301 0.257247
vn -0.959562 -0.114301 0.257247
vn -0.959562 -0.114301 0.257247
vn -0.944554 -0.323094 0.058550
vn -0.944554 -0.323094 0.058550
vn -0.944554 -0.323094 0.058550
vn 0.583127 -0.016080 0.812222
vn 0.583127 -0.016080 0.812222
vn 0.583127 -0.016080 0.812222
vn 0.577348 0.293199 0.762039
vn 0.577348 0.293199 0.762039
vn 0.577348 0.293199 0.762039
vn 0.315095 0.447516 0.836926
vn 0.315095 0.447516 0.836926
vn 0.315095 0.447516 0.836926
vn -0.583127 -0.016080 0.812222
vn -0.583127 -0.016080 0.812222
vn -0.583127 -0.016080 0.812222
vn -0.577348 0.293199 0.762039
vn -0.577348 0.293199 0.762039
vn -0.577348 0.293199 0.762039
vn -0.838053 0.469750 0.277494
vn -0.838053 0.469750 0.277494
vn -0.838053 0.469750 0.277494
vn 0.734759 0.648877 0.197706
vn 0.734759 0.648877 0.197706
vn 0.734759 0.648877 0.197706
vn 0.414904 0.871047 0.262929
vn 0.414904 0.871047 0.262929
vn 0.414904 0.871047 0.262929
vn 0.194736 0.753419 0.628043
vn 0.194736 0.753419 0.628043
vn 0.194736 0.753419 0.628043
vn -0.194736 0.753419 0.628043
vn -0.194736 0.753419 0.628043
vn -0.194736 0.753419 0.628043
vn -0.414904 0.871047 0.262929
vn -0.414904 0.871047 0.262929
vn -0.414904 0.871047 0.262929
vn -0.734759 0.648878 0.197706
vn -0.734759 0.648878 0.197706
vn -0.734759 0.648878 0.197706
vn 0.198940 -0.976619 -0.081479
vn 0.198940 -0.976619 -0.081479
vn 0.198940 -0.976619 -0.081479
vn 0.747175 -0.663228 0.043117
vn 0.747175 -0.663228 0.043117
vn 0.747175 -0.663228 0.043117
vn 0.158999 0.072492 0.984614
vn 0.158999 0.072492 0.984614
vn 0.158999 0.072492 0.984614
vn 0.158999 0.072492 0.984614
vn -0.035331 -0.152714 0.987639
vn -0.035331 -0.152714 0.987639
vn -0.035331 -0.152714 0.987639
vn -0.035331 -0.152714 0.987639
vn -0.130164 -0.095282 0.986904
vn -0.130164 -0.095282 0.986904
vn -0.130164 -0.095282 0.986904
vn -0.130164 -0.095282 0.986904
vn 0.125713 0.130661 0.983425
vn 0.125713 0.130661 0.983425
vn 0.125713 0.130661 0.983425
vn 0.125713 0.130661 0.983425
vn -0.125713 0.130661 0.983425
vn -0.125713 0.130661 0.983425
vn -0.125713 0.130661 0.983425
vn -0.125713 0.130661 0.983425
vn -0.158999 0.072492 0.984614
vn -0.158999 0.072492 0.984614
vn -0.158999 0.072492 0.984614
vn -0.158999 0.072492 0.984614
vn -0.162229 -0.035303 0.986121
vn -0.162229 -0.035303 0.986121
vn -0.162229 -0.035303 0.986121
vn -0.162229 -0.035303 0.986121
vn 0.162229 -0.035303 0.986121
vn 0.162229 -0.035303 0.986121
vn 0.162229 -0.035303 0.986121
vn 0.162229 -0.035303 0.986121
vn 0.035331 -0.152714 0.987639
vn 0.035331 -0.152714 0.987639
vn 0.035331 -0.152714 0.987639
vn 0.035331 -0.152714 0.987639
vn 0.044981 0.176358 0.983298
vn 0.044981 0.176358 0.983298
vn 0.044981 0.176358 0.983298
vn 0.044981 0.176358 0.983298
vn 0.130164 -0.095282 0.986904
vn 0.130164 -0.095282 0.986904
vn 0.130164 -0.095282 0.986904
vn 0.130164 -0.095282 0.986904
vn -0.044981 0.176358 0.983298
vn -0.044981 0.176358 0.983298
vn -0.044981 0.176358 0.983298
vn -0.044981 0.176358 0.983298
g Coconut_Half_DarkBrown
usemtl DarkBrown
f 1 2 3
f 4 5 6
f 7 8 9
f 10 11 12
f 13 14 15
f 16 17 18
f 19 20 21
f 22 23 24
f 25 26 27
f 28 29 30
f 31 32 33
f 34 35 36
f 37 38 39
f 40 41 42
f 43 44 45
f 46 47 48
f 49 50 51
f 52 53 54
f 55 56 57
f 58 59 60
f 61 62 63
f 64 65 66
f 67 68 69
f 70 71 72
f 73 74 75
f 76 77 78
f 79 80 81
f 82 83 84
f 85 86 87
f 88 89 90
f 91 92 93
f 94 95 96
f 97 98 99
f 100 101 102
f 103 104 105
f 106 107 108
f 109 110 111
f 112 113 114
f 115 116 117
f 118 119 120
f 121 122 123
f 124 125 126
f 127 128 129
f 127 129 130
f 131 132 133
f 131 133 134
f 135 136 137
f 135 137 138
f 139 140 141
f 139 141 142
f 143 144 145
f 143 145 146
f 147 148 149
f 147 149 150
f 151 152 153
f 151 153 154
f 155 156 157
f 155 157 158
f 159 160 161
f 159 161 162
f 163 164 165
f 163 165 166
f 167 168 169
f 167 169 170
f 171 172 173
f 171 173 174
g Coconut_Half_White
usemtl White
f 175 176 177
f 178 179 180
f 181 182 183
f 184 185 186
f 187 188 189
f 190 191 192
f 193 194 195
f 196 197 198
f 199 200 201
f 202 203 204
f 205 206 207
f 208 209 210
f 211 212 213
f 214 215 216
f 217 218 219
f 220 221 222
f 223 224 225
f 226 227 228
f 229 230 231
f 232 233 234
f 235 236 237
f 238 239 240
f 241 242 243
f 244 245 246
f 247 248 249
f 250 251 252
f 253 254 255
f 256 257 258
f 259 260 261
f 262 263 264
f 265 266 267
f 268 269 270
f 271 272 273
f 274 275 276
f 277 278 279
f 280 281 282
f 283 284 285
f 286 287 288
f 289 290 291
f 292 293 294
f 295 296 297
f 298 299 300
f 301 302 303
f 301 303 304
f 305 306 307
f 305 307 308
f 309 310 311
f 309 311 312
f 313 314 315
f 313 315 316
f 317 318 319
f 317 319 320
f 321 322 323
f 321 323 324
f 325 326 327
f 325 327 328
f 329 330 331
f 329 331 332
f 333 334 335
f 333 335 336
f 337 338 339
f 337 339 340
f 341 342 343
f 341 343 344
f 345 346 347
f 345 347 348
