mtllib Materials.mtl
# Ultimate Food Pack - Coconut
o Coconut
v 0.000000 -0.375718 -0.000335
v 0.176838 -0.345026 0.002709
v 0.000000 -0.319241 0.195541
v 0.000000 -0.375718 -0.000335
v 0.000000 -0.319241 -0.196174
v 0.176838 -0.345026 0.002709
v 0.341291 -0.207923 0.005292
v 0.385031 -0.037313 0.127060
v 0.254009 -0.227492 0.199836
v 0.000000 -0.162691 -0.333481
v 0.250908 -0.018091 -0.313127
v 0.260163 -0.227492 -0.191898
v 0.000000 -0.162691 0.332949
v 0.240951 -0.018091 0.320715
v 0.000000 0.015791 0.391511
v 0.341291 -0.207923 0.005292
v 0.388834 -0.037313 -0.115043
v 0.385031 -0.037313 0.127060
v 0.000000 -0.162691 -0.333481
v 0.000000 0.015791 -0.391927
v 0.250908 -0.018091 -0.313127
v 0.319074 0.148331 0.210939
v 0.225973 0.320725 0.124561
v 0.139563 0.203190 0.319190
v 0.325544 0.148331 -0.200952
v 0.229776 0.320725 -0.117541
v 0.375773 0.172088 0.005834
v 0.000000 0.350822 -0.195957
v 0.000000 0.401205 0.001324
v 0.229776 0.320725 -0.117541
v 0.000000 0.350822 -0.195957
v 0.229776 0.320725 -0.117541
v 0.150282 0.203190 -0.314669
v 0.150282 0.203190 -0.314669
v 0.229776 0.320725 -0.117541
v 0.325544 0.148331 -0.200952
v 0.229776 0.320725 -0.117541
v 0.000000 0.401205 0.001324
v 0.225973 0.320725 0.124561
v 0.229776 0.320725 -0.117541
v 0.225973 0.320725 0.124561
v 0.375773 0.172088 0.005834
v 0.375773 0.172088 0.005834
v 0.225973 0.320725 0.124561
v 0.319074 0.148331 0.210939
v 0.225973 0.320725 0.124561
v 0.000000 0.401205 0.001324
v 0.000000 0.350822 0.195758
v 0.225973 0.320725 0.124561
v 0.000000 0.350822 0.195758
v 0.139563 0.203190 0.319190
v 0.139563 0.203190 0.319190
v 0.000000 0.350822 0.195758
v 0.000000 0.202585 0.327448
v 0.000000 0.015791 -0.391927
v 0.000000 0.202585 -0.327743
v 0.150282 0.203190 -0.314669
v 0.000000 0.015791 -0.391927
v 0.150282 0.203190 -0.314669
v 0.250908 -0.018091 -0.313127
v 0.250908 -0.018091 -0.313127
v 0.150282 0.203190 -0.314669
v 0.325544 0.148331 -0.200952
v 0.388834 -0.037313 -0.115043
v 0.325544 0.148331 -0.200952
v 0.375773 0.172088 0.005834
v 0.388834 -0.037313 -0.115043
v 0.375773 0.172088 0.005834
v 0.385031 -0.037313 0.127060
v 0.385031 -0.037313 0.127060
v 0.375773 0.172088 0.005834
v 0.319074 0.148331 0.210939
v 0.240951 -0.018091 0.320715
v 0.319074 0.148331 0.210939
v 0.139563 0.203190 0.319190
v 0.240951 -0.018091 0.320715
v 0.139563 0.203190 0.319190
v 0.000000 0.015791 0.391511
v 0.000000 0.015791 0.391511
v 0.139563 0.203190 0.319190
v 0.000000 0.202585 0.327448
v 0.250908 -0.018091 -0.313127
v 0.325544 0.148331 -0.200952
v 0.388834 -0.037313 -0.115043
v 0.250908 -0.018091 -0.313127
v 0.388834 -0.037313 -0.115043
v 0.260163 -0.227492 -0.191898
v 0.260163 -0.227492 -0.191898
v 0.388834 -0.037313 -0.115043
v 0.341291 -0.207923 0.005292
v 0.385031 -0.037313 0.127060
v 0.319074 0.148331 0.210939
v 0.240951 -0.018091 0.320715
v 0.385031 -0.037313 0.127060
v 0.240951 -0.018091 0.320715
v 0.254009 -0.227492 0.199836
v 0.254009 -0.227492 0.199836
v 0.240951 -0.018091 0.320715
v 0.000000 -0.162691 0.332949
v 0.000000 -0.319241 -0.196174
v 0.000000 -0.162691 -0.333481
v 0.260163 -0.227492 -0.191898
v 0.000000 -0.319241 -0.196174
v 0.260163 -0.227492 -0.191898
v 0.176838 -0.345026 0.002709
v 0.176838 -0.345026 0.002709
v 0.260163 -0.227492 -0.191898
v 0.341291 -0.207923 0.005292
v 0.176838 -0.345026 0.002709
v 0.341291 -0.207923 0.005292
v 0.254009 -0.227492 0.199836
v 0.176838 -0.345026 0.002709
v 0.254009 -0.227492 0.199836
v 0.000000 -0.319241 0.195541
v 0.000000 -0.319241 0.195541
v 0.254009 -0.227492 0.199836
v 0.000000 -0.162691 0.332949
v 0.000000 0.350822 -0.195957
v 0.150282 0.203190 -0.314669
v 0.000000 0.202585 -0.327743
v 0.000000 -0.375718 -0.000335
v 0.000000 -0.319241 0.195541
v -0.176838 -0.345026 0.002709
v 0.000000 -0.375718 -0.000335
v -0.176838 -0.345026 0.002709
v 0.000000 -0.319241 -0.196174
v -0.341291 -0.207923 0.005292
v -0.254009 -0.227492 0.199836
v -0.385031 -0.037313 0.127060
v 0.000000 -0.162691 -0.333481
v -0.260163 -0.227492 -0.191898
v -0.250908 -0.018091 -0.313127
v 0.000000 -0.162691 0.332949
v 0.000000 0.015791 0.391511
v -0.240951 -0.018091 0.320715
v -0.341291 -0.207923 0.005292
v -0.385031 -0.037313 0.127060
v -0.388834 -0.037313 -0.115043
v 0.000000 -0.162691 -0.333481
v -0.250908 -0.018091 -0.313127
v 0.000000 0.015791 -0.391927
v -0.319074 0.148331 0.210939
v -0.139563 0.203190 0.319190
v -0.225973 0.320725 0.124561
v -0.325544 0.148331 -0.200952
v -0.375773 0.172088 0.005834
v -0.229776 0.320725 -0.117541
v 0.000000 0.350822 -0.195957
v -0.229776 0.320725 -0.117541
v 0.000000 0.401205 0.001324
v 0.000000 0.350822 -0.195957
v -0.150282 0.203190 -0.314669
v -0.229776 0.320725 -0.117541
v -0.150282 0.203190 -0.314669
v -0.325544 0.148331 -0.200952
v -0.229776 0.320725 -0.117541
v -0.229776 0.320725 -0.117541
v -0.225973 0.320725 0.124561
v 0.000000 0.401205 0.001324
v -0.229776 0.320725 -0.117541
v -0.375773 0.172088 0.005834
v -0.225973 0.320725 0.124561
v -0.375773 0.172088 0.005834
v -0.319074 0.148331 0.210939
v -0.225973 0.320725 0.124561
v -0.225973 0.320725 0.124561
v 0.000000 0.350822 0.195758
v 0.000000 0.401205 0.001324
v -0.225973 0.320725 0.124561
v -0.139563 0.203190 0.319190
v 0.000000 0.350822 0.195758
v -0.139563 0.203190 0.319190
v 0.000000 0.202585 0.327448
v 0.000000 0.350822 0.195758
v 0.000000 0.015791 -0.391927
v -0.150282 0.203190 -0.314669
v 0.000000 0.202585 -0.327743
v 0.000000 0.015791 -0.391927
v -0.250908 -0.018091 -0.313127
v -0.150282 0.203190 -0.314669
v -0.250908 -0.018091 -0.313127
v -0.325544 0.148331 -0.200952
v -0.150282 0.203190 -0.314669
v -0.388834 -0.037313 -0.115043
v -0.375773 0.172088 0.005834
v -0.325544 0.148331 -0.200952
v -0.388834 -0.037313 -0.115043
v -0.385031 -0.037313 0.127060
v -0.375773 0.172088 0.005834
v -0.385031 -0.037313 0.127060
v -0.319074 0.148331 0.210939
v -0.375773 0.172088 0.005834
v -0.240951 -0.018091 0.320715
v -0.139563 0.203190 0.319190
v -0.319074 0.148331 0.210939
v -0.240951 -0.018091 0.320715
v 0.000000 0.015791 0.391511
v -0.139563 0.203190 0.319190
v 0.000000 0.015791 0.391511
v 0.000000 0.202585 0.327448
v -0.139563 0.203190 0.319190
v -0.250908 -0.018091 -0.313127
v -0.388834 -0.037313 -0.115043
v -0.325544 0.148331 -0.200952
v -0.250908 -0.018091 -0.313127
v -0.260163 -0.227492 -0.191898
v -0.388834 -0.037313 -0.115043
v -0.260163 -0.227492 -0.191898
v -0.341291 -0.207923 0.005292
v -0.388834 -0.037313 -0.115043
v -0.385031 -0.037313 0.127060
v -0.240951 -0.018091 0.320715
v -0.319074 0.148331 0.210939
v -0.385031 -0.037313 0.127060
v -0.254009 -0.227492 0.199836
v -0.240951 -0.018091 0.320715
v -0.254009 -0.227492 0.199836
v 0.000000 -0.162691 0.332949
v -0.240951 -0.018091 0.320715
v 0.000000 -0.319241 -0.196174
v -0.260163 -0.227492 -0.191898
v 0.000000 -0.162691 -0.333481
v 0.000000 -0.319241 -0.196174
v -0.176838 -0.345026 0.002709
v -0.260163 -0.227492 -0.191898
v -0.176838 -0.345026 0.002709
v -0.341291 -0.207923 0.005292
v -0.260163 -0.227492 -0.191898
v -0.176838 -0.345026 0.002709
v -0.254009 -0.227492 0.199836
v -0.341291 -0.207923 0.005292
v -0.176838 -0.345026 0.002709
v 0.000000 -0.319241 0.195541
v -0.254009 -0.227492 0.199836
v 0.000000 -0.319241 0.195541
v 0.000000 -0.162691 0.332949
v -0.254009 -0.227492 0.199836
v 0.000000 0.350822 -0.195957
v 0.000000 0.202585 -0.327743
v -0.150282 0.203190 -0.314669
v 0.000000 0.350822 0.195758
v 0.000000 0.390795 -0.000086
v 0.000000 0.401205 0.001324
v 0.000000 0.350822 -0.195957
vn 0.159911 -0.948492 0.273479
vn 0.159911 -0.948492 0.273479
vn 0.159911 -0.948492 0.273479
vn 0.169062 -0.947013 -0.273103
vn 0.169062 -0.947013 -0.273103
vn 0.169062 -0.947013 -0.273103
vn 0.831873 -0.447516 0.328202
vn 0.831873 -0.447516 0.328202
vn 0.831873 -0.447516 0.328202
vn 0.332649 -0.461441 -0.822446
vn 0.332649 -0.461441 -0.822446
vn 0.332649 -0.461441 -0.822446
vn 0.229078 -0.303467 0.924895
vn 0.229078 -0.303467 0.924895
vn 0.229078 -0.303467 0.924895
vn 0.965902 -0.258462 0.015174
vn 0.965902 -0.258462 0.015174
vn 0.965902 -0.258462 0.015174
vn 0.248401 -0.301446 -0.920558
vn 0.248401 -0.301446 -0.920558
vn 0.248401 -0.301446 -0.920558
vn 0.541163 0.591661 0.597562
vn 0.541163 0.591661 0.597562
vn 0.541163 0.591661 0.597562
vn 0.787288 0.561068 -0.255697
vn 0.787288 0.561068 -0.255697
vn 0.787288 0.561068 -0.255697
vn 0.206790 0.947959 -0.242097
vn 0.206790 0.947959 -0.242097
vn 0.206790 0.947959 -0.242097
vn 0.295993 0.763185 -0.574401
vn 0.295993 0.763185 -0.574401
vn 0.295993 0.763185 -0.574401
vn 0.560900 0.591733 -0.579002
vn 0.560900 0.591733 -0.579002
vn 0.560900 0.591733 -0.579002
vn 0.332970 0.942923 0.005231
vn 0.332970 0.942923 0.005231
vn 0.332970 0.942923 0.005231
vn 0.708734 0.705388 0.011134
vn 0.708734 0.705388 0.011134
vn 0.708734 0.705388 0.011134
vn 0.778868 0.561068 0.280300
vn 0.778868 0.561068 0.280300
vn 0.778868 0.561068 0.280300
vn 0.203608 0.947751 0.245586
vn 0.203608 0.947751 0.245586
vn 0.203608 0.947751 0.245586
vn 0.285450 0.759049 0.585118
vn 0.285450 0.759049 0.585118
vn 0.285450 0.759049 0.585118
vn 0.041321 0.663579 0.746965
vn 0.041321 0.663579 0.746965
vn 0.041321 0.663579 0.746965
vn 0.080698 0.323901 -0.942643
vn 0.080698 0.323901 -0.942643
vn 0.080698 0.323901 -0.942643
vn 0.313515 0.136021 -0.939791
vn 0.313515 0.136021 -0.939791
vn 0.313515 0.136021 -0.939791
vn 0.581482 0.259051 -0.771214
vn 0.581482 0.259051 -0.771214
vn 0.581482 0.259051 -0.771214
vn 0.945412 0.205134 -0.253213
vn 0.945412 0.205134 -0.253213
vn 0.945412 0.205134 -0.253213
vn 0.998460 0.053223 0.015685
vn 0.998460 0.053223 0.015685
vn 0.998460 0.053223 0.015685
vn 0.936991 0.205134 0.282785
vn 0.936991 0.205134 0.282785
vn 0.936991 0.205134 0.282785
vn 0.555675 0.260046 0.789684
vn 0.555675 0.260046 0.789684
vn 0.555675 0.260046 0.789684
vn 0.297443 0.142791 0.944001
vn 0.297443 0.142791 0.944001
vn 0.297443 0.142791 0.944001
vn 0.054483 0.323929 0.944511
vn 0.054483 0.323929 0.944511
vn 0.054483 0.323929 0.944511
vn 0.821281 0.016080 -0.570297
vn 0.821281 0.016080 -0.570297
vn 0.821281 0.016080 -0.570297
vn 0.771014 -0.293199 -0.565307
vn 0.771014 -0.293199 -0.565307
vn 0.771014 -0.293199 -0.565307
vn 0.841772 -0.447516 -0.301910
vn 0.841772 -0.447516 -0.301910
vn 0.841772 -0.447516 -0.301910
vn 0.802963 0.016080 0.595812
vn 0.802963 0.016080 0.595812
vn 0.802963 0.016080 0.595812
vn 0.752877 -0.293198 0.589246
vn 0.752877 -0.293198 0.589246
vn 0.752877 -0.293198 0.589246
vn 0.317649 -0.459114 0.829647
vn 0.317649 -0.459114 0.829647
vn 0.317649 -0.459114 0.829647
vn 0.237869 -0.640463 -0.730223
vn 0.237869 -0.640463 -0.730223
vn 0.237869 -0.640463 -0.730223
vn 0.311977 -0.866474 -0.389735
vn 0.311977 -0.866474 -0.389735
vn 0.311977 -0.866474 -0.389735
vn 0.631025 -0.753418 -0.184847
vn 0.631025 -0.753418 -0.184847
vn 0.631025 -0.753418 -0.184847
vn 0.624907 -0.753418 0.204577
vn 0.624907 -0.753418 0.204577
vn 0.624907 -0.753418 0.204577
vn 0.305964 -0.865623 0.396337
vn 0.305964 -0.865623 0.396337
vn 0.305964 -0.865623 0.396337
vn 0.220036 -0.643498 0.733141
vn 0.220036 -0.643498 0.733141
vn 0.220036 -0.643498 0.733141
vn 0.062218 0.663130 -0.745914
vn 0.062218 0.663130 -0.745914
vn 0.062218 0.663130 -0.745914
vn -0.159911 -0.948492 0.273479
vn -0.159911 -0.948492 0.273479
vn -0.159911 -0.948492 0.273479
vn -0.169062 -0.947013 -0.273103
vn -0.169062 -0.947013 -0.273103
vn -0.169062 -0.947013 -0.273103
vn -0.831873 -0.447516 0.328202
vn -0.831873 -0.447516 0.328202
vn -0.831873 -0.447516 0.328202
vn -0.332649 -0.461441 -0.822446
vn -0.332649 -0.461441 -0.822446
vn -0.332649 -0.461441 -0.822446
vn -0.229078 -0.303467 0.924895
vn -0.229078 -0.303467 0.924895
vn -0.229078 -0.303467 0.924895
vn -0.965902 -0.258462 0.015174
vn -0.965902 -0.258462 0.015174
vn -0.965902 -0.258462 0.015174
vn -0.248401 -0.301446 -0.920558
vn -0.248401 -0.301446 -0.920558
vn -0.248401 -0.301446 -0.920558
vn -0.541163 0.591661 0.597562
vn -0.541163 0.591661 0.597562
vn -0.541163 0.591661 0.597562
vn -0.787288 0.561068 -0.255697
vn -0.787288 0.561068 -0.255697
vn -0.787288 0.561068 -0.255697
vn -0.206790 0.947959 -0.242097
vn -0.206790 0.947959 -0.242097
vn -0.206790 0.947959 -0.242097
vn -0.295993 0.763185 -0.574401
vn -0.295993 0.763185 -0.574401
vn -0.295993 0.763185 -0.574401
vn -0.560900 0.591733 -0.579002
vn -0.560900 0.591733 -0.579002
vn -0.560900 0.591733 -0.579002
vn -0.332970 0.942923 0.005231
vn -0.332970 0.942923 0.005231
vn -0.332970 0.942923 0.005231
vn -0.708734 0.705388 0.011134
vn -0.708734 0.705388 0.011134
vn -0.708734 0.705388 0.011134
vn -0.778868 0.561068 0.280300
vn -0.778868 0.561068 0.280300
vn -0.778868 0.561068 0.280300
vn -0.203608 0.947751 0.245586
vn -0.203608 0.947751 0.245586
vn -0.203608 0.947751 0.245586
vn -0.285450 0.759049 0.585118
vn -0.285450 0.759049 0.585118
vn -0.285450 0.759049 0.585118
vn -0.041321 0.663579 0.746965
vn -0.041321 0.663579 0.746965
vn -0.041321 0.663579 0.746965
vn -0.080698 0.323901 -0.942643
vn -0.080698 0.323901 -0.942643
vn -0.080698 0.323901 -0.942643
vn -0.313515 0.136021 -0.939791
vn -0.313515 0.136021 -0.939791
vn -0.313515 0.136021 -0.939791
vn -0.581482 0.259051 -0.771214
vn -0.581482 0.259051 -0.771214
vn -0.581482 0.259051 -0.771214
vn -0.945412 0.205134 -0.253213
vn -0.945412 0.205134 -0.253213
vn -0.945412 0.205134 -0.253213
vn -0.998460 0.053223 0.015685
vn -0.998460 0.053223 0.015685
vn -0.998460 0.053223 0.015685
vn -0.936991 0.205134 0.282785
vn -0.936991 0.205134 0.282785
vn -0.936991 0.205134 0.282785
vn -0.555675 0.260046 0.789684
vn -0.555675 0.260046 0.789684
vn -0.555675 0.260046 0.789684
vn -0.297443 0.142791 0.944001
vn -0.297443 0.142791 0.944001
vn -0.297443 0.142791 0.944001
vn -0.054483 0.323929 0.944511
vn -0.054483 0.323929 0.944511
vn -0.054483 0.323929 0.944511
vn -0.821281 0.016080 -0.570297
vn -0.821281 0.016080 -0.570297
vn -0.821281 0.016080 -0.570297
vn -0.771014 -0.293199 -0.565307
vn -0.771014 -0.293199 -0.565307
vn -0.771014 -0.293199 -0.565307
vn -0.841772 -0.447516 -0.301910
vn -0.841772 -0.447516 -0.301910
vn -0.841772 -0.447516 -0.301910
vn -0.802963 0.016080 0.595812
vn -0.802963 0.016080 0.595812
vn -0.802963 0.016080 0.595812
vn -0.752877 -0.293198 0.589246
vn -0.752877 -0.293198 0.589246
vn -0.752877 -0.293198 0.589246
vn -0.317649 -0.459114 0.829647
vn -0.317649 -0.459114 0.829647
vn -0.317649 -0.459114 0.829647
vn -0.237869 -0.640463 -0.730223
vn -0.237869 -0.640463 -0.730223
vn -0.237869 -0.640463 -0.730223
vn -0.311977 -0.866474 -0.389735
vn -0.311977 -0.866474 -0.389735
vn -0.311977 -0.866474 -0.389735
vn -0.631025 -0.753418 -0.184847
vn -0.631025 -0.753418 -0.184847
vn -0.631025 -0.753418 -0.184847
vn -0.624907 -0.753418 0.204577
vn -0.624907 -0.753418 0.204577
vn -0.624907 -0.753418 0.204577
vn -0.305964 -0.865623 0.396337
vn -0.305964 -0.865623 0.396337
vn -0.305964 -0.865623 0.396337
vn -0.220036 -0.643498 0.733141
vn -0.220036 -0.643498 0.733141
vn -0.220036 -0.643498 0.733141
vn -0.062218 0.663130 -0.745914
vn -0.062218 0.663130 -0.745914
vn -0.062218 0.663130 -0.745914
vn 1.000000 0.000000 0.000000
vn 1.000000 0.000000 0.000000
vn 1.000000 0.000000 0.000000
vn 1.000000 0.000000 0.000000
g Coconut_DarkBrown
usemtl DarkBrown
f 1 2 3
f 4 5 6
f 7 8 9
f 10 11 12
f 13 14 15
f 16 17 18
f 19 20 21
f 22 23 24
f 25 26 27
f 28 29 30
f 31 32 33
f 34 35 36
f 37 38 39
f 40 41 42
f 43 44 45
f 46 47 48
f 49 50 51
f 52 53 54
f 55 56 57
f 58 59 60
f 61 62 63
f 64 65 66
f 67 68 69
f 70 71 72
f 73 74 75
f 76 77 78
f 79 80 81
f 82 83 84
f 85 86 87
f 88 89 90
f 91 92 93
f 94 95 96
f 97 98 99
f 100 101 102
f 103 104 105
f 106 107 108
f 109 110 111
f 112 113 114
f 115 116 117
f 118 119 120
f 121 122 123
f 124 125 126
f 127 128 129
f 130 131 132
f 133 134 135
f 136 137 138
f 139 140 141
f 142 143 144
f 145 146 147
f 148 149 150
f 151 152 153
f 154 155 156
f 157 158 159
f 160 161 162
f 163 164 165
f 166 167 168
f 169 170 171
f 172 173 174
f 175 176 177
f 178 179 180
f 181 182 183
f 184 185 186
f 187 188 189
f 190 191 192
f 193 194 195
f 196 197 198
f 199 200 201
f 202 203 204
f 205 206 207
f 208 209 210
f 211 212 213
f 214 215 216
f 217 218 219
f 220 221 222
f 223 224 225
f 226 227 228
f 229 230 231
f 232 233 234
f 235 236 237
f 238 239 240
f 241 242 243
f 242 244 243
