mtllib Materials.mtl
# Ultimate Food Pack - CookingPot2_Soup
o CookingPot2_Soup
v 0.000000 0.663903 0.970168
v -0.570251 0.663903 0.784883
v -0.585481 0.607100 0.805846
v 0.000000 0.607100 0.996081
v -0.495208 0.607100 -0.681595
v -0.452662 0.385761 -0.623036
v 0.000000 0.385761 -0.770114
v 0.000000 0.607100 -0.842498
v -0.479914 0.205533 -0.660545
v -0.947329 0.607100 -0.307806
v -0.585481 0.607100 -0.805846
v -0.776517 0.205533 -0.252306
v -0.722620 0.089531 -0.234794
v -0.446604 0.089531 -0.614698
v -0.495208 0.607100 0.681595
v -0.452662 0.385761 0.623036
v -0.732422 0.385761 0.237978
v -0.801263 0.607100 0.260346
v 0.776517 0.205533 -0.252306
v 0.585481 0.607100 -0.805846
v 0.947329 0.607100 -0.307806
v 0.479914 0.205533 -0.660545
v 0.446604 0.089531 -0.614698
v 0.722620 0.089531 -0.234794
v 0.776517 0.205533 0.252306
v 0.947329 0.607100 -0.307806
v 0.947329 0.607100 0.307806
v 0.776517 0.205533 -0.252306
v 0.722620 0.089531 -0.234794
v 0.722620 0.089532 0.234794
v 0.479914 0.205533 0.660545
v 0.947329 0.607100 0.307806
v 0.585482 0.607100 0.805846
v 0.776517 0.205533 0.252306
v 0.722620 0.089532 0.234794
v 0.446604 0.089532 0.614698
v 0.000000 0.205533 0.816478
v 0.585482 0.607100 0.805846
v 0.000000 0.607100 0.996081
v 0.479914 0.205533 0.660545
v 0.446604 0.089532 0.614698
v 0.000000 0.089532 0.759808
v -0.776517 0.205533 0.252306
v -0.585481 0.607100 0.805846
v -0.947329 0.607100 0.307806
v -0.479914 0.205533 0.660545
v -0.446604 0.089532 0.614698
v -0.722620 0.089532 0.234794
v 0.479914 0.205533 -0.660545
v 0.000000 0.607100 -0.996081
v 0.585481 0.607100 -0.805846
v 0.000000 0.205533 -0.816478
v 0.000000 0.089531 -0.759808
v 0.446604 0.089531 -0.614698
v -0.776517 0.205533 -0.252306
v -0.947329 0.607100 0.307806
v -0.947329 0.607100 -0.307806
v -0.776517 0.205533 0.252306
v -0.722620 0.089532 0.234794
v -0.722620 0.089531 -0.234794
v -0.801263 0.607100 0.260346
v -0.732422 0.385761 0.237978
v -0.732422 0.385761 -0.237979
v -0.801263 0.607100 -0.260346
v 0.801263 0.607100 -0.260346
v 0.732422 0.385761 -0.237979
v 0.732422 0.385761 0.237978
v 0.801263 0.607100 0.260346
v 0.000000 0.663903 0.868066
v 0.000000 0.607100 0.842498
v -0.495208 0.607100 0.681595
v -0.510236 0.663903 0.702280
v -0.801263 0.607100 -0.260346
v -0.732422 0.385761 -0.237979
v -0.452662 0.385761 -0.623036
v -0.495208 0.607100 -0.681595
v 0.495208 0.607100 -0.681595
v 0.452662 0.385761 -0.623036
v 0.732422 0.385761 -0.237979
v 0.801263 0.607100 -0.260346
v 0.495208 0.607100 0.681595
v 0.452662 0.385761 0.623036
v 0.000000 0.385761 0.770114
v 0.000000 0.607100 0.842498
v 0.000000 0.607100 -0.842498
v 0.000000 0.385761 -0.770114
v 0.452662 0.385761 -0.623036
v 0.495208 0.607100 -0.681595
v 0.801263 0.607100 0.260346
v 0.732422 0.385761 0.237978
v 0.452662 0.385761 0.623036
v 0.495208 0.607100 0.681595
v -1.032115 0.629990 0.000000
v -1.032115 0.516821 0.000000
v -1.024313 0.516821 -0.160488
v -1.024313 0.629990 -0.160488
v -1.024313 0.629990 -0.160488
v -1.013910 0.629990 -0.266570
v -1.110608 0.623484 -0.235921
v -1.137482 0.629990 -0.160488
v -1.145284 0.629990 0.000000
v -1.145284 0.516821 0.000000
v -1.137482 0.516821 0.160489
v -1.137482 0.629990 0.160489
v -1.137482 0.629990 -0.160488
v -1.110608 0.623484 -0.235921
v -1.110608 0.523327 -0.235921
v -1.137482 0.516821 -0.160488
v -1.145284 0.516821 0.000000
v -1.024313 0.516821 0.160489
v -1.137482 0.516821 0.160489
v -1.032115 0.516821 0.000000
v -1.137482 0.516821 -0.160488
v -1.024313 0.516821 -0.160488
v -0.842261 0.516821 0.160488
v -0.831858 0.516821 0.266571
v -1.013909 0.516821 0.266571
v -1.013910 0.516821 -0.266570
v -0.842261 0.516821 -0.160488
v -0.831858 0.516821 -0.266570
v -1.013910 0.629990 -0.266570
v -1.013910 0.516821 -0.266570
v -1.110608 0.523327 -0.235921
v -1.110608 0.623484 -0.235921
v -1.110607 0.623484 0.235922
v -1.110607 0.523327 0.235922
v -1.013909 0.516821 0.266571
v -1.013909 0.629990 0.266571
v -1.024313 0.516821 0.160489
v -1.013909 0.516821 0.266571
v -1.110607 0.523327 0.235922
v -1.137482 0.516821 0.160489
v -1.137482 0.516821 0.160489
v -1.110607 0.523327 0.235922
v -1.110607 0.623484 0.235922
v -1.137482 0.629990 0.160489
v -1.137482 0.516821 -0.160488
v -1.110608 0.523327 -0.235921
v -1.013910 0.516821 -0.266570
v -1.024313 0.516821 -0.160488
v -1.137482 0.629990 0.160489
v -1.110607 0.623484 0.235922
v -1.013909 0.629990 0.266571
v -1.024313 0.629990 0.160489
v -0.842261 0.516821 -0.160488
v -0.831858 0.516821 -0.266570
v -0.831858 0.629990 -0.266570
v -0.842261 0.629990 -0.160488
v -0.842261 0.629990 0.160488
v -0.831858 0.629990 0.266571
v -0.831858 0.516821 0.266571
v -0.842261 0.516821 0.160488
v -1.013910 0.629990 -0.266570
v -0.831858 0.629990 -0.266570
v -0.831858 0.516821 -0.266570
v -1.013910 0.516821 -0.266570
v -1.024313 0.629990 -0.160488
v -0.842261 0.629990 -0.160488
v -0.831858 0.629990 -0.266570
v -1.013910 0.629990 -0.266570
v -1.137482 0.629990 -0.160488
v -1.145284 0.629990 0.000000
v -1.032115 0.629990 0.000000
v -1.137482 0.629990 0.160489
v -1.024313 0.629990 0.160489
v -1.013909 0.629990 0.266571
v -0.842261 0.629990 0.160488
v -0.831858 0.629990 0.266571
v -1.024313 0.516821 -0.160488
v -0.842261 0.516821 -0.160488
v -0.842261 0.629990 -0.160488
v -1.024313 0.629990 -0.160488
v -1.024313 0.629990 0.160489
v -0.842261 0.629990 0.160488
v -0.842261 0.516821 0.160488
v -1.024313 0.516821 0.160489
v -1.013909 0.516821 0.266571
v -0.831858 0.516821 0.266571
v -0.831858 0.629990 0.266571
v -1.013909 0.629990 0.266571
v -1.137482 0.629990 -0.160488
v -1.137482 0.516821 -0.160488
v -1.145284 0.516821 0.000000
v -1.145284 0.629990 0.000000
v -1.024313 0.629990 0.160489
v -1.024313 0.516821 0.160489
v -1.032115 0.516821 0.000000
v -1.032115 0.629990 0.000000
v 0.000000 0.205533 -0.816478
v -0.585481 0.607100 -0.805846
v 0.000000 0.607100 -0.996081
v -0.479914 0.205533 -0.660545
v -0.446604 0.089531 -0.614698
v 0.000000 0.089531 -0.759808
v 0.000000 0.089531 -0.759808
v 0.000000 0.041482 -0.622995
v -0.366187 0.041482 -0.504013
v -0.446604 0.089531 -0.614698
v -0.446604 0.089531 -0.614698
v -0.366187 0.041482 -0.504013
v -0.592503 0.041482 -0.192516
v -0.722620 0.089531 -0.234794
v -0.722620 0.089531 -0.234794
v -0.592503 0.041482 -0.192516
v -0.592503 0.041482 0.192516
v -0.722620 0.089532 0.234794
v -0.722620 0.089532 0.234794
v -0.592503 0.041482 0.192516
v -0.366187 0.041482 0.504013
v -0.446604 0.089532 0.614698
v -0.479914 0.205533 0.660545
v 0.000000 0.607100 0.996081
v -0.585481 0.607100 0.805846
v 0.000000 0.205533 0.816478
v 0.000000 0.089532 0.759808
v -0.446604 0.089532 0.614698
v 0.000000 0.089532 0.759808
v 0.000000 0.041482 0.622995
v 0.366187 0.041482 0.504013
v 0.446604 0.089532 0.614698
v 0.446604 0.089532 0.614698
v 0.366187 0.041482 0.504013
v 0.592503 0.041482 0.192516
v 0.722620 0.089532 0.234794
v 0.722620 0.089532 0.234794
v 0.592503 0.041482 0.192516
v 0.592503 0.041482 -0.192516
v 0.722620 0.089531 -0.234794
v 0.722620 0.089531 -0.234794
v 0.592503 0.041482 -0.192516
v 0.366187 0.041482 -0.504013
v 0.446604 0.089531 -0.614698
v 0.446604 0.089531 -0.614698
v 0.366187 0.041482 -0.504013
v 0.000000 0.041482 -0.622995
v 0.000000 0.089531 -0.759808
v -0.366187 0.041482 0.504013
v -0.592503 0.041482 0.192516
v -0.592503 0.041482 -0.192516
v -0.366187 0.041482 -0.504013
v 0.000000 0.041482 -0.622995
v 0.000000 0.041482 0.622995
v 0.366187 0.041482 -0.504013
v 0.366187 0.041482 0.504013
v 0.592503 0.041482 -0.192516
v 0.592503 0.041482 0.192516
v -0.585481 0.607100 -0.805846
v -0.570251 0.663902 -0.784883
v 0.000000 0.663902 -0.970168
v 0.000000 0.607100 -0.996081
v -0.947329 0.607100 -0.307806
v -0.922685 0.663902 -0.299799
v -0.570251 0.663902 -0.784883
v -0.585481 0.607100 -0.805846
v -0.947329 0.607100 0.307806
v -0.922685 0.663902 0.299798
v -0.922685 0.663902 -0.299799
v -0.947329 0.607100 -0.307806
v -0.585481 0.607100 0.805846
v -0.570251 0.663903 0.784883
v -0.922685 0.663902 0.299798
v -0.947329 0.607100 0.307806
v 0.585482 0.607100 0.805846
v 0.570251 0.663903 0.784883
v 0.000000 0.663903 0.970168
v 0.000000 0.607100 0.996081
v 0.947329 0.607100 0.307806
v 0.922685 0.663902 0.299799
v 0.570251 0.663903 0.784883
v 0.585482 0.607100 0.805846
v 0.947329 0.607100 -0.307806
v 0.922685 0.663902 -0.299799
v 0.922685 0.663902 0.299799
v 0.947329 0.607100 0.307806
v 0.585481 0.607100 -0.805846
v 0.570250 0.663902 -0.784883
v 0.922685 0.663902 -0.299799
v 0.947329 0.607100 -0.307806
v 0.000000 0.607100 -0.996081
v 0.000000 0.663902 -0.970168
v 0.570250 0.663902 -0.784883
v 0.585481 0.607100 -0.805846
v -0.510237 0.663902 -0.702280
v -0.495208 0.607100 -0.681595
v 0.000000 0.607100 -0.842498
v 0.000000 0.663902 -0.868066
v -0.825580 0.663902 -0.268247
v -0.801263 0.607100 -0.260346
v -0.495208 0.607100 -0.681595
v -0.510237 0.663902 -0.702280
v -0.825580 0.663902 0.268247
v -0.801263 0.607100 0.260346
v -0.801263 0.607100 -0.260346
v -0.825580 0.663902 -0.268247
v -0.510236 0.663903 0.702280
v -0.495208 0.607100 0.681595
v -0.801263 0.607100 0.260346
v -0.825580 0.663902 0.268247
v 0.510237 0.663903 0.702280
v 0.495208 0.607100 0.681595
v 0.000000 0.607100 0.842498
v 0.000000 0.663903 0.868066
v 0.825580 0.663902 0.268247
v 0.801263 0.607100 0.260346
v 0.495208 0.607100 0.681595
v 0.510237 0.663903 0.702280
v 0.825580 0.663902 -0.268247
v 0.801263 0.607100 -0.260346
v 0.801263 0.607100 0.260346
v 0.825580 0.663902 0.268247
v 0.510236 0.663902 -0.702281
v 0.495208 0.607100 -0.681595
v 0.801263 0.607100 -0.260346
v 0.825580 0.663902 -0.268247
v 0.000000 0.663902 -0.868066
v 0.000000 0.607100 -0.842498
v 0.495208 0.607100 -0.681595
v 0.510236 0.663902 -0.702281
v -0.446604 0.089532 0.614698
v -0.366187 0.041482 0.504013
v 0.000000 0.041482 0.622995
v 0.000000 0.089532 0.759808
v -0.452662 0.385761 0.623036
v -0.495208 0.607100 0.681595
v 0.000000 0.607100 0.842498
v 0.000000 0.385761 0.770114
v 1.032115 0.629990 -0.000001
v 1.032115 0.516821 -0.000001
v 1.024313 0.516821 0.160487
v 1.024313 0.629990 0.160487
v 1.024313 0.629990 0.160487
v 1.013910 0.629990 0.266570
v 1.110608 0.623484 0.235920
v 1.137482 0.629990 0.160487
v 1.145284 0.629990 -0.000001
v 1.145284 0.516821 -0.000001
v 1.137482 0.516821 -0.160489
v 1.137482 0.629990 -0.160489
v 1.137482 0.629990 0.160487
v 1.110608 0.623484 0.235920
v 1.110608 0.523327 0.235921
v 1.137482 0.516821 0.160487
v 1.145284 0.516821 -0.000001
v 1.024313 0.516821 -0.160489
v 1.137482 0.516821 -0.160489
v 1.032115 0.516821 -0.000001
v 1.137482 0.516821 0.160487
v 1.024313 0.516821 0.160487
v 0.842260 0.516821 -0.160489
v 0.831858 0.516821 -0.266571
v 1.013909 0.516821 -0.266572
v 1.013910 0.516821 0.266570
v 0.842261 0.516821 0.160488
v 0.831858 0.516821 0.266570
v 1.013910 0.629990 0.266570
v 1.013910 0.516821 0.266570
v 1.110608 0.523327 0.235921
v 1.110608 0.623484 0.235920
v 1.110607 0.623484 -0.235922
v 1.110607 0.523327 -0.235922
v 1.013909 0.516821 -0.266572
v 1.013909 0.629990 -0.266572
v 1.024313 0.516821 -0.160489
v 1.013909 0.516821 -0.266572
v 1.110607 0.523327 -0.235922
v 1.137482 0.516821 -0.160489
v 1.137482 0.516821 -0.160489
v 1.110607 0.523327 -0.235922
v 1.110607 0.623484 -0.235922
v 1.137482 0.629990 -0.160489
v 1.137482 0.516821 0.160487
v 1.110608 0.523327 0.235921
v 1.013910 0.516821 0.266570
v 1.024313 0.516821 0.160487
v 1.137482 0.629990 -0.160489
v 1.110607 0.623484 -0.235922
v 1.013909 0.629990 -0.266572
v 1.024313 0.629990 -0.160489
v 0.842261 0.516821 0.160488
v 0.831858 0.516821 0.266570
v 0.831858 0.629990 0.266570
v 0.842261 0.629990 0.160487
v 0.842260 0.629990 -0.160489
v 0.831858 0.629990 -0.266571
v 0.831858 0.516821 -0.266571
v 0.842260 0.516821 -0.160489
v 1.013910 0.629990 0.266570
v 0.831858 0.629990 0.266570
v 0.831858 0.516821 0.266570
v 1.013910 0.516821 0.266570
v 1.024313 0.629990 0.160487
v 0.842261 0.629990 0.160487
v 0.831858 0.629990 0.266570
v 1.013910 0.629990 0.266570
v 1.137482 0.629990 0.160487
v 1.145284 0.629990 -0.000001
v 1.032115 0.629990 -0.000001
v 1.137482 0.629990 -0.160489
v 1.024313 0.629990 -0.160489
v 1.013909 0.629990 -0.266572
v 0.842260 0.629990 -0.160489
v 0.831858 0.629990 -0.266571
v 1.024313 0.516821 0.160487
v 0.842261 0.516821 0.160488
v 0.842261 0.629990 0.160487
v 1.024313 0.629990 0.160487
v 1.024313 0.629990 -0.160489
v 0.842260 0.629990 -0.160489
v 0.842260 0.516821 -0.160489
v 1.024313 0.516821 -0.160489
v 1.013909 0.516821 -0.266572
v 0.831858 0.516821 -0.266571
v 0.831858 0.629990 -0.266571
v 1.013909 0.629990 -0.266572
v 1.137482 0.629990 0.160487
v 1.137482 0.516821 0.160487
v 1.145284 0.516821 -0.000001
v 1.145284 0.629990 -0.000001
v 1.024313 0.629990 -0.160489
v 1.024313 0.516821 -0.160489
v 1.032115 0.516821 -0.000001
v 1.032115 0.629990 -0.000001
v -0.570251 0.663903 0.784883
v -0.510236 0.663903 0.702280
v -0.825580 0.663902 0.268247
v -0.922685 0.663902 0.299798
v 0.000000 0.663903 0.970168
v -0.825580 0.663902 -0.268247
v 0.000000 0.663903 0.868066
v -0.922685 0.663902 -0.299799
v 0.570251 0.663903 0.784883
v -0.510237 0.663902 -0.702280
v 0.510237 0.663903 0.702280
v -0.570251 0.663902 -0.784883
v 0.922685 0.663902 0.299799
v 0.000000 0.663902 -0.868066
v 0.825580 0.663902 0.268247
v 0.000000 0.663902 -0.970168
v 0.922685 0.663902 -0.299799
v 0.510236 0.663902 -0.702281
v 0.825580 0.663902 -0.268247
v 0.570250 0.663902 -0.784883
v -0.452662 0.385761 -0.623036
v -0.732422 0.385761 -0.237979
v -0.732422 0.385761 0.237978
v -0.452662 0.385761 0.623036
v 0.000000 0.385761 -0.770114
v 0.000000 0.385761 0.770114
v 0.452662 0.385761 -0.623036
v 0.452662 0.385761 0.623036
v 0.732422 0.385761 -0.237979
v 0.732422 0.385761 0.237978
vn -0.283486 0.398011 0.872481
vn -0.283486 0.398011 0.872481
vn -0.283486 0.398011 0.872481
vn -0.283486 0.398011 0.872481
vn 0.295075 0.296987 0.908146
vn 0.295075 0.296987 0.908146
vn 0.295075 0.296987 0.908146
vn 0.295075 0.296987 0.908146
vn -0.744466 -0.391424 -0.540886
vn -0.744466 -0.391424 -0.540886
vn -0.744466 -0.391424 -0.540886
vn -0.744466 -0.391424 -0.540886
vn -0.733693 -0.421359 -0.533059
vn -0.733693 -0.421359 -0.533059
vn 0.772515 0.296987 -0.561266
vn 0.772515 0.296987 -0.561266
vn 0.772515 0.296987 -0.561266
vn 0.772515 0.296987 -0.561266
vn 0.744466 -0.391424 -0.540886
vn 0.744466 -0.391424 -0.540886
vn 0.744466 -0.391424 -0.540886
vn 0.744466 -0.391424 -0.540886
vn 0.733693 -0.421358 -0.533059
vn 0.733693 -0.421358 -0.533059
vn 0.920210 -0.391424 0.000000
vn 0.920210 -0.391424 0.000000
vn 0.920210 -0.391424 0.000000
vn 0.920210 -0.391424 0.000000
vn 0.906895 -0.421358 0.000000
vn 0.906895 -0.421358 0.000000
vn 0.744466 -0.391424 0.540886
vn 0.744466 -0.391424 0.540886
vn 0.744466 -0.391424 0.540886
vn 0.744466 -0.391424 0.540886
vn 0.733693 -0.421358 0.533059
vn 0.733693 -0.421358 0.533059
vn 0.284361 -0.391424 0.875172
vn 0.284361 -0.391424 0.875172
vn 0.284361 -0.391424 0.875172
vn 0.284361 -0.391424 0.875172
vn 0.280246 -0.421358 0.862508
vn 0.280246 -0.421358 0.862508
vn -0.744466 -0.391424 0.540886
vn -0.744466 -0.391424 0.540886
vn -0.744466 -0.391424 0.540886
vn -0.744466 -0.391424 0.540886
vn -0.733693 -0.421358 0.533059
vn -0.733693 -0.421358 0.533059
vn 0.284361 -0.391424 -0.875172
vn 0.284361 -0.391424 -0.875172
vn 0.284361 -0.391424 -0.875172
vn 0.284361 -0.391424 -0.875172
vn 0.280246 -0.421359 -0.862508
vn 0.280246 -0.421359 -0.862508
vn -0.920210 -0.391424 0.000000
vn -0.920210 -0.391424 0.000000
vn -0.920210 -0.391424 0.000000
vn -0.920210 -0.391424 0.000000
vn -0.906894 -0.421358 0.000000
vn -0.906894 -0.421358 0.000000
vn 0.954882 0.296987 0.000000
vn 0.954882 0.296987 0.000000
vn 0.954882 0.296987 0.000000
vn 0.954882 0.296987 0.000000
vn -0.954882 0.296986 0.000000
vn -0.954882 0.296986 0.000000
vn -0.954882 0.296986 0.000000
vn -0.954882 0.296986 0.000000
vn 0.284081 0.393548 -0.874310
vn 0.284081 0.393548 -0.874310
vn 0.284081 0.393548 -0.874310
vn 0.284081 0.393548 -0.874310
vn 0.772516 0.296987 0.561265
vn 0.772516 0.296987 0.561265
vn 0.772516 0.296987 0.561265
vn 0.772516 0.296987 0.561265
vn -0.772515 0.296987 0.561266
vn -0.772515 0.296987 0.561266
vn -0.772515 0.296987 0.561266
vn -0.772515 0.296987 0.561266
vn -0.295075 0.296987 -0.908146
vn -0.295075 0.296987 -0.908146
vn -0.295075 0.296987 -0.908146
vn -0.295075 0.296987 -0.908146
vn -0.295075 0.296987 0.908146
vn -0.295075 0.296987 0.908146
vn -0.295075 0.296987 0.908146
vn -0.295075 0.296987 0.908146
vn -0.772516 0.296987 -0.561265
vn -0.772516 0.296987 -0.561265
vn -0.772516 0.296987 -0.561265
vn -0.772516 0.296987 -0.561265
vn 0.998820 0.000000 0.048558
vn 0.998820 0.000000 0.048558
vn 0.998820 0.000000 0.048558
vn 0.998820 0.000000 0.048558
vn -0.037294 0.998360 -0.043442
vn -0.037294 0.998360 -0.043442
vn -0.037294 0.998360 -0.043442
vn -0.037294 0.998360 -0.043442
vn -0.998820 0.000000 0.048559
vn -0.998820 0.000000 0.048559
vn -0.998820 0.000000 0.048559
vn -0.998820 0.000000 0.048559
vn -0.942004 0.000000 -0.335601
vn -0.942004 0.000000 -0.335601
vn -0.942004 0.000000 -0.335601
vn -0.942004 0.000000 -0.335601
vn 0.000000 -1.000000 0.000000
vn 0.000000 -1.000000 0.000000
vn 0.000000 -1.000000 0.000000
vn 0.000000 -1.000000 0.000000
vn 0.000000 -1.000000 0.000000
vn 0.000000 -1.000000 0.000000
vn 0.000000 -1.000000 0.000000
vn 0.000000 -1.000000 0.000000
vn 0.000000 -1.000000 0.000000
vn 0.000000 -1.000000 0.000000
vn 0.000000 -1.000000 0.000000
vn 0.000000 -1.000000 0.000000
vn -0.302146 0.000000 -0.953262
vn -0.302146 0.000000 -0.953262
vn -0.302146 0.000000 -0.953262
vn -0.302146 0.000000 -0.953262
vn -0.302146 0.000000 0.953262
vn -0.302146 0.000000 0.953262
vn -0.302146 0.000000 0.953262
vn -0.302146 0.000000 0.953262
vn -0.037294 -0.998360 0.043442
vn -0.037294 -0.998360 0.043442
vn -0.037294 -0.998360 0.043442
vn -0.037294 -0.998360 0.043442
vn -0.942003 0.000000 0.335604
vn -0.942003 0.000000 0.335604
vn -0.942003 0.000000 0.335604
vn -0.942003 0.000000 0.335604
vn -0.037294 -0.998360 -0.043442
vn -0.037294 -0.998360 -0.043442
vn -0.037294 -0.998360 -0.043442
vn -0.037294 -0.998360 -0.043442
vn -0.037293 0.998360 0.043442
vn -0.037293 0.998360 0.043442
vn -0.037293 0.998360 0.043442
vn -0.037293 0.998360 0.043442
vn 0.995226 0.000000 0.097596
vn 0.995226 0.000000 0.097596
vn 0.995226 0.000000 0.097596
vn 0.995226 0.000000 0.097596
vn 0.995226 0.000000 -0.097596
vn 0.995226 0.000000 -0.097596
vn 0.995226 0.000000 -0.097596
vn 0.995226 0.000000 -0.097596
vn 0.000000 0.000000 -1.000000
vn 0.000000 0.000000 -1.000000
vn 0.000000 0.000000 -1.000000
vn 0.000000 0.000000 -1.000000
vn 0.000000 1.000000 0.000000
vn 0.000000 1.000000 0.000000
vn 0.000000 1.000000 0.000000
vn 0.000000 1.000000 0.000000
vn 0.000000 1.000000 0.000000
vn 0.000000 1.000000 0.000000
vn 0.000000 1.000000 0.000000
vn 0.000000 1.000000 0.000000
vn 0.000000 1.000000 0.000000
vn 0.000000 1.000000 0.000000
vn 0.000000 1.000000 0.000000
vn 0.000000 1.000000 0.000000
vn 0.000000 0.000000 1.000000
vn 0.000000 0.000000 1.000000
vn 0.000000 0.000000 1.000000
vn 0.000000 0.000000 1.000000
vn 0.000000 0.000000 -1.000000
vn 0.000000 0.000000 -1.000000
vn 0.000000 0.000000 -1.000000
vn 0.000000 0.000000 -1.000000
vn 0.000000 0.000000 1.000000
vn 0.000000 0.000000 1.000000
vn 0.000000 0.000000 1.000000
vn 0.000000 0.000000 1.000000
vn -0.998820 0.000000 -0.048559
vn -0.998820 0.000000 -0.048559
vn -0.998820 0.000000 -0.048559
vn -0.998820 0.000000 -0.048559
vn 0.998820 0.000000 -0.048558
vn 0.998820 0.000000 -0.048558
vn 0.998820 0.000000 -0.048558
vn 0.998820 0.000000 -0.048558
vn -0.284361 -0.391424 -0.875172
vn -0.284361 -0.391424 -0.875172
vn -0.284361 -0.391424 -0.875172
vn -0.284361 -0.391424 -0.875172
vn -0.280246 -0.421358 -0.862508
vn -0.280246 -0.421358 -0.862508
vn -0.107048 -0.938082 -0.329458
vn -0.107048 -0.938082 -0.329458
vn -0.107048 -0.938082 -0.329458
vn -0.107048 -0.938082 -0.329458
vn -0.280254 -0.938082 -0.203616
vn -0.280254 -0.938082 -0.203616
vn -0.280254 -0.938082 -0.203616
vn -0.280254 -0.938082 -0.203616
vn -0.346413 -0.938082 0.000000
vn -0.346413 -0.938082 0.000000
vn -0.346413 -0.938082 0.000000
vn -0.346413 -0.938082 0.000000
vn -0.280254 -0.938082 0.203616
vn -0.280254 -0.938082 0.203616
vn -0.280254 -0.938082 0.203616
vn -0.280254 -0.938082 0.203616
vn -0.284361 -0.391424 0.875172
vn -0.284361 -0.391424 0.875172
vn -0.284361 -0.391424 0.875172
vn -0.284361 -0.391424 0.875172
vn -0.280246 -0.421358 0.862508
vn -0.280246 -0.421358 0.862508
vn 0.107048 -0.938082 0.329458
vn 0.107048 -0.938082 0.329458
vn 0.107048 -0.938082 0.329458
vn 0.107048 -0.938082 0.329458
vn 0.280254 -0.938082 0.203616
vn 0.280254 -0.938082 0.203616
vn 0.280254 -0.938082 0.203616
vn 0.280254 -0.938082 0.203616
vn 0.346413 -0.938082 0.000000
vn 0.346413 -0.938082 0.000000
vn 0.346413 -0.938082 0.000000
vn 0.346413 -0.938082 0.000000
vn 0.280254 -0.938082 -0.203616
vn 0.280254 -0.938082 -0.203616
vn 0.280254 -0.938082 -0.203616
vn 0.280254 -0.938082 -0.203616
vn 0.107047 -0.938082 -0.329458
vn 0.107047 -0.938082 -0.329458
vn 0.107047 -0.938082 -0.329458
vn 0.107047 -0.938082 -0.329458
vn 0.000000 -1.000000 0.000000
vn 0.000000 -1.000000 0.000000
vn 0.000000 -1.000000 0.000000
vn 0.000000 -1.000000 0.000000
vn 0.000000 -1.000000 0.000000
vn 0.000000 -1.000000 0.000000
vn 0.000000 -1.000000 0.000000
vn 0.000000 -1.000000 0.000000
vn 0.000000 -1.000000 0.000000
vn 0.000000 -1.000000 0.000000
vn -0.283487 0.398010 -0.872481
vn -0.283487 0.398010 -0.872481
vn -0.283487 0.398010 -0.872481
vn -0.283487 0.398010 -0.872481
vn -0.742177 0.398010 -0.539223
vn -0.742177 0.398010 -0.539223
vn -0.742177 0.398010 -0.539223
vn -0.742177 0.398010 -0.539223
vn -0.917381 0.398011 0.000000
vn -0.917381 0.398011 0.000000
vn -0.917381 0.398011 0.000000
vn -0.917381 0.398011 0.000000
vn -0.742177 0.398010 0.539223
vn -0.742177 0.398010 0.539223
vn -0.742177 0.398010 0.539223
vn -0.742177 0.398010 0.539223
vn 0.283487 0.398010 0.872481
vn 0.283487 0.398010 0.872481
vn 0.283487 0.398010 0.872481
vn 0.283487 0.398010 0.872481
vn 0.742177 0.398010 0.539223
vn 0.742177 0.398010 0.539223
vn 0.742177 0.398010 0.539223
vn 0.742177 0.398010 0.539223
vn 0.917381 0.398010 0.000000
vn 0.917381 0.398010 0.000000
vn 0.917381 0.398010 0.000000
vn 0.917381 0.398010 0.000000
vn 0.742177 0.398010 -0.539223
vn 0.742177 0.398010 -0.539223
vn 0.742177 0.398010 -0.539223
vn 0.742177 0.398010 -0.539223
vn 0.283486 0.398010 -0.872481
vn 0.283486 0.398010 -0.872481
vn 0.283486 0.398010 -0.872481
vn 0.283486 0.398010 -0.872481
vn 0.284081 0.393548 0.874310
vn 0.284081 0.393548 0.874310
vn 0.284081 0.393548 0.874310
vn 0.284081 0.393548 0.874310
vn 0.743733 0.393549 0.540353
vn 0.743733 0.393549 0.540353
vn 0.743733 0.393549 0.540353
vn 0.743733 0.393549 0.540353
vn 0.919304 0.393548 0.000000
vn 0.919304 0.393548 0.000000
vn 0.919304 0.393548 0.000000
vn 0.919304 0.393548 0.000000
vn 0.743732 0.393549 -0.540353
vn 0.743732 0.393549 -0.540353
vn 0.743732 0.393549 -0.540353
vn 0.743732 0.393549 -0.540353
vn -0.284081 0.393548 -0.874310
vn -0.284081 0.393548 -0.874310
vn -0.284081 0.393548 -0.874310
vn -0.284081 0.393548 -0.874310
vn -0.743733 0.393548 -0.540353
vn -0.743733 0.393548 -0.540353
vn -0.743733 0.393548 -0.540353
vn -0.743733 0.393548 -0.540353
vn -0.919304 0.393549 0.000000
vn -0.919304 0.393549 0.000000
vn -0.919304 0.393549 0.000000
vn -0.919304 0.393549 0.000000
vn -0.743733 0.393549 0.540353
vn -0.743733 0.393549 0.540353
vn -0.743733 0.393549 0.540353
vn -0.743733 0.393549 0.540353
vn -0.284080 0.393548 0.874310
vn -0.284080 0.393548 0.874310
vn -0.284080 0.393548 0.874310
vn -0.284080 0.393548 0.874310
vn -0.107048 -0.938082 0.329458
vn -0.107048 -0.938082 0.329458
vn -0.107048 -0.938082 0.329458
vn -0.107048 -0.938082 0.329458
vn 0.295075 0.296987 -0.908146
vn 0.295075 0.296987 -0.908146
vn 0.295075 0.296987 -0.908146
vn 0.295075 0.296987 -0.908146
vn -0.998820 0.000000 -0.048558
vn -0.998820 0.000000 -0.048558
vn -0.998820 0.000000 -0.048558
vn -0.998820 0.000000 -0.048558
vn 0.037293 0.998360 0.043442
vn 0.037293 0.998360 0.043442
vn 0.037293 0.998360 0.043442
vn 0.037293 0.998360 0.043442
vn 0.998820 0.000000 -0.048559
vn 0.998820 0.000000 -0.048559
vn 0.998820 0.000000 -0.048559
vn 0.998820 0.000000 -0.048559
vn 0.942005 0.000000 0.335600
vn 0.942005 0.000000 0.335600
vn 0.942005 0.000000 0.335600
vn 0.942005 0.000000 0.335600
vn 0.000000 -1.000000 0.000000
vn 0.000000 -1.000000 0.000000
vn 0.000000 -1.000000 0.000000
vn 0.000000 -1.000000 0.000000
vn 0.000000 -1.000000 0.000000
vn 0.000000 -1.000000 0.000000
vn 0.000000 -1.000000 0.000000
vn 0.000000 -1.000000 0.000000
vn 0.000000 -1.000000 0.000000
vn 0.000000 -1.000000 0.000000
vn 0.000000 -1.000000 0.000000
vn 0.000000 -1.000000 0.000000
vn 0.302146 0.000000 0.953262
vn 0.302146 0.000000 0.953262
vn 0.302146 0.000000 0.953262
vn 0.302146 0.000000 0.953262
vn 0.302145 0.000000 -0.953262
vn 0.302145 0.000000 -0.953262
vn 0.302145 0.000000 -0.953262
vn 0.302145 0.000000 -0.953262
vn 0.037294 -0.998360 -0.043442
vn 0.037294 -0.998360 -0.043442
vn 0.037294 -0.998360 -0.043442
vn 0.037294 -0.998360 -0.043442
vn 0.942003 0.000000 -0.335605
vn 0.942003 0.000000 -0.335605
vn 0.942003 0.000000 -0.335605
vn 0.942003 0.000000 -0.335605
vn 0.037294 -0.998360 0.043442
vn 0.037294 -0.998360 0.043442
vn 0.037294 -0.998360 0.043442
vn 0.037294 -0.998360 0.043442
vn 0.037293 0.998360 -0.043442
vn 0.037293 0.998360 -0.043442
vn 0.037293 0.998360 -0.043442
vn 0.037293 0.998360 -0.043442
vn -0.995226 0.000000 -0.097596
vn -0.995226 0.000000 -0.097596
vn -0.995226 0.000000 -0.097596
vn -0.995226 0.000000 -0.097596
vn -0.995226 0.000000 0.097596
vn -0.995226 0.000000 0.097596
vn -0.995226 0.000000 0.097596
vn -0.995226 0.000000 0.097596
vn 0.000001 0.000000 1.000000
vn 0.000001 0.000000 1.000000
vn 0.000001 0.000000 1.000000
vn 0.000001 0.000000 1.000000
vn 0.000000 1.000000 0.000000
vn 0.000000 1.000000 0.000000
vn 0.000000 1.000000 0.000000
vn 0.000000 1.000000 0.000000
vn 0.000000 1.000000 0.000000
vn 0.000000 1.000000 0.000000
vn 0.000000 1.000000 0.000000
vn 0.000000 1.000000 0.000000
vn 0.000000 1.000000 0.000000
vn 0.000000 1.000000 0.000000
vn 0.000000 1.000000 0.000000
vn 0.000000 1.000000 0.000000
vn -0.000001 0.000000 -1.000000
vn -0.000001 0.000000 -1.000000
vn -0.000001 0.000000 -1.000000
vn -0.000001 0.000000 -1.000000
vn 0.000001 0.000000 1.000000
vn 0.000001 0.000000 1.000000
vn 0.000001 0.000000 1.000000
vn 0.000001 0.000000 1.000000
vn -0.000001 0.000000 -1.000000
vn -0.000001 0.000000 -1.000000
vn -0.000001 0.000000 -1.000000
vn -0.000001 0.000000 -1.000000
vn 0.998820 0.000000 0.048559
vn 0.998820 0.000000 0.048559
vn 0.998820 0.000000 0.048559
vn 0.998820 0.000000 0.048559
vn -0.998820 0.000000 0.048558
vn -0.998820 0.000000 0.048558
vn -0.998820 0.000000 0.048558
vn -0.998820 0.000000 0.048558
vn 0.000000 1.000000 0.000000
vn 0.000000 1.000000 0.000000
vn 0.000000 1.000000 0.000000
vn 0.000000 1.000000 0.000000
vn 0.000000 1.000000 0.000000
vn -0.000001 1.000000 0.000000
vn 0.000000 1.000000 0.000000
vn -0.000001 1.000000 0.000000
vn 0.000000 1.000000 0.000000
vn 0.000000 1.000000 0.000000
vn 0.000000 1.000000 0.000000
vn 0.000000 1.000000 0.000000
vn 0.000000 1.000000 0.000000
vn 0.000000 1.000000 0.000000
vn 0.000000 1.000000 0.000000
vn 0.000000 1.000000 0.000000
vn 0.000000 1.000000 0.000000
vn 0.000000 1.000000 0.000000
vn 0.000000 1.000000 0.000000
vn 0.000000 1.000000 0.000000
vn 0.000000 1.000000 0.000000
vn 0.000000 1.000000 0.000000
vn 0.000000 1.000000 0.000000
vn 0.000000 1.000000 0.000000
vn 0.000000 1.000000 0.000000
vn 0.000000 1.000000 0.000000
vn 0.000000 1.000000 0.000000
vn 0.000000 1.000000 0.000000
vn 0.000000 1.000000 0.000000
vn 0.000000 1.000000 0.000000
g CookingPot2_Soup_Grey
usemtl Grey
f 1 2 3
f 1 3 4
f 5 6 7
f 5 7 8
f 9 10 11
f 9 12 10
f 9 13 12
f 9 14 13
f 15 16 17
f 15 17 18
f 19 20 21
f 19 22 20
f 19 23 22
f 19 24 23
f 25 26 27
f 25 28 26
f 25 29 28
f 25 30 29
f 31 32 33
f 31 34 32
f 31 35 34
f 31 36 35
f 37 38 39
f 37 40 38
f 37 41 40
f 37 42 41
f 43 44 45
f 43 46 44
f 43 47 46
f 43 48 47
f 49 50 51
f 49 52 50
f 49 53 52
f 49 54 53
f 55 56 57
f 55 58 56
f 55 59 58
f 55 60 59
f 61 62 63
f 61 63 64
f 65 66 67
f 65 67 68
f 69 70 71
f 69 71 72
f 73 74 75
f 73 75 76
f 77 78 79
f 77 79 80
f 81 82 83
f 81 83 84
f 85 86 87
f 85 87 88
f 89 90 91
f 89 91 92
f 93 94 95
f 93 95 96
f 97 98 99
f 97 99 100
f 101 102 103
f 101 103 104
f 105 106 107
f 105 107 108
f 109 110 111
f 109 112 110
f 113 112 109
f 113 114 112
f 110 115 116
f 110 116 117
f 118 119 114
f 118 120 119
f 121 122 123
f 121 123 124
f 125 126 127
f 125 127 128
f 129 130 131
f 129 131 132
f 133 134 135
f 133 135 136
f 137 138 139
f 137 139 140
f 141 142 143
f 141 143 144
f 145 146 147
f 145 147 148
f 149 150 151
f 149 151 152
f 153 154 155
f 153 155 156
f 157 158 159
f 157 159 160
f 157 161 162
f 157 162 163
f 163 162 164
f 163 164 165
f 166 167 165
f 166 168 167
f 169 170 171
f 169 171 172
f 173 174 175
f 173 175 176
f 177 178 179
f 177 179 180
f 181 182 183
f 181 183 184
f 185 186 187
f 185 187 188
f 189 190 191
f 189 192 190
f 189 193 192
f 189 194 193
f 195 196 197
f 195 197 198
f 199 200 201
f 199 201 202
f 203 204 205
f 203 205 206
f 207 208 209
f 207 209 210
f 211 212 213
f 211 214 212
f 211 215 214
f 211 216 215
f 217 218 219
f 217 219 220
f 221 222 223
f 221 223 224
f 225 226 227
f 225 227 228
f 229 230 231
f 229 231 232
f 233 234 235
f 233 235 236
f 237 238 239
f 239 240 237
f 240 241 237
f 241 242 237
f 241 243 242
f 243 244 242
f 243 245 244
f 245 246 244
f 247 248 249
f 247 249 250
f 251 252 253
f 251 253 254
f 255 256 257
f 255 257 258
f 259 260 261
f 259 261 262
f 263 264 265
f 263 265 266
f 267 268 269
f 267 269 270
f 271 272 273
f 271 273 274
f 275 276 277
f 275 277 278
f 279 280 281
f 279 281 282
f 283 284 285
f 283 285 286
f 287 288 289
f 287 289 290
f 291 292 293
f 291 293 294
f 295 296 297
f 295 297 298
f 299 300 301
f 299 301 302
f 303 304 305
f 303 305 306
f 307 308 309
f 307 309 310
f 311 312 313
f 311 313 314
f 315 316 317
f 315 317 318
f 319 320 321
f 319 321 322
f 323 324 325
f 323 325 326
f 327 328 329
f 327 329 330
f 331 332 333
f 331 333 334
f 335 336 337
f 335 337 338
f 339 340 341
f 339 341 342
f 343 344 345
f 343 346 344
f 347 346 343
f 347 348 346
f 344 349 350
f 344 350 351
f 352 353 348
f 352 354 353
f 355 356 357
f 355 357 358
f 359 360 361
f 359 361 362
f 363 364 365
f 363 365 366
f 367 368 369
f 367 369 370
f 371 372 373
f 371 373 374
f 375 376 377
f 375 377 378
f 379 380 381
f 379 381 382
f 383 384 385
f 383 385 386
f 387 388 389
f 387 389 390
f 391 392 393
f 391 393 394
f 391 395 396
f 391 396 397
f 397 396 398
f 397 398 399
f 400 401 399
f 400 402 401
f 403 404 405
f 403 405 406
f 407 408 409
f 407 409 410
f 411 412 413
f 411 413 414
f 415 416 417
f 415 417 418
f 419 420 421
f 419 421 422
f 423 424 425
f 423 425 426
f 427 424 423
f 426 425 428
f 427 429 424
f 426 428 430
f 431 429 427
f 430 428 432
f 431 433 429
f 430 432 434
f 435 433 431
f 434 432 436
f 435 437 433
f 434 436 438
f 439 437 435
f 438 436 440
f 439 441 437
f 438 440 442
f 442 441 439
f 442 440 441
g CookingPot2_Soup_Brown
usemtl Brown
f 443 444 445
f 445 446 443
f 446 447 443
f 446 448 447
f 448 449 447
f 448 450 449
f 450 451 449
f 450 452 451
