mtllib Materials.mtl
# Ultimate Food Pack - CookingPot_Soup
o CookingPot_Soup
v 0.000000 0.663903 0.970168
v -0.570251 0.663903 0.784883
v -0.585481 0.607100 0.805846
v 0.000000 0.607100 0.996081
v -0.495208 0.607100 -0.681595
v -0.495208 0.385761 -0.681595
v 0.000000 0.385761 -0.842498
v 0.000000 0.607100 -0.842498
v -0.585481 -0.211660 -0.805846
v -0.947329 -0.211660 -0.307806
v -0.947329 0.607100 -0.307806
v -0.585481 0.607100 -0.805846
v -0.495208 0.607100 0.681595
v -0.495208 0.385761 0.681595
v -0.801263 0.385761 0.260346
v -0.801263 0.607100 0.260346
v 0.947329 -0.211660 -0.307806
v 0.585481 -0.211660 -0.805846
v 0.585481 0.607100 -0.805846
v 0.947329 0.607100 -0.307806
v 0.947329 -0.211660 0.307806
v 0.947329 -0.211660 -0.307806
v 0.947329 0.607100 -0.307806
v 0.947329 0.607100 0.307806
v 0.585482 -0.211660 0.805846
v 0.947329 -0.211660 0.307806
v 0.947329 0.607100 0.307806
v 0.585482 0.607100 0.805846
v 0.000000 -0.211660 0.996081
v 0.585482 -0.211660 0.805846
v 0.585482 0.607100 0.805846
v 0.000000 0.607100 0.996081
v -0.947329 -0.211660 0.307806
v -0.585481 -0.211660 0.805846
v -0.585481 0.607100 0.805846
v -0.947329 0.607100 0.307806
v 0.585481 -0.211660 -0.805846
v 0.000000 -0.211660 -0.996081
v 0.000000 0.607100 -0.996081
v 0.585481 0.607100 -0.805846
v -0.947329 -0.211660 -0.307806
v -0.947329 -0.211660 0.307806
v -0.947329 0.607100 0.307806
v -0.947329 0.607100 -0.307806
v -0.801263 0.607100 0.260346
v -0.801263 0.385761 0.260346
v -0.801263 0.385761 -0.260346
v -0.801263 0.607100 -0.260346
v 0.801263 0.607100 -0.260346
v 0.801263 0.385761 -0.260346
v 0.801263 0.385761 0.260346
v 0.801263 0.607100 0.260346
v 0.000000 0.663903 0.868066
v 0.000000 0.607100 0.842498
v -0.495208 0.607100 0.681595
v -0.510236 0.663903 0.702280
v -0.801263 0.607100 -0.260346
v -0.801263 0.385761 -0.260346
v -0.495208 0.385761 -0.681595
v -0.495208 0.607100 -0.681595
v 0.495208 0.607100 -0.681595
v 0.495208 0.385761 -0.681595
v 0.801263 0.385761 -0.260346
v 0.801263 0.607100 -0.260346
v 0.495208 0.607100 0.681595
v 0.495208 0.385761 0.681595
v 0.000000 0.385761 0.842498
v 0.000000 0.607100 0.842498
v 0.000000 0.607100 -0.842498
v 0.000000 0.385761 -0.842498
v 0.495208 0.385761 -0.681595
v 0.495208 0.607100 -0.681595
v 0.801263 0.607100 0.260346
v 0.801263 0.385761 0.260346
v 0.495208 0.385761 0.681595
v 0.495208 0.607100 0.681595
v -1.070429 0.402008 0.000000
v -1.070429 0.288839 0.000000
v -1.062627 0.288839 -0.160488
v -1.062627 0.402008 -0.160488
v -1.062627 0.402008 -0.160488
v -1.052224 0.402008 -0.266570
v -1.148922 0.395502 -0.235921
v -1.175796 0.402008 -0.160488
v -1.183598 0.402008 0.000000
v -1.183598 0.288839 0.000000
v -1.175796 0.288839 0.160489
v -1.175796 0.402008 0.160489
v -1.175796 0.402008 -0.160488
v -1.148922 0.395502 -0.235921
v -1.148922 0.295344 -0.235921
v -1.175796 0.288839 -0.160488
v -1.183598 0.288839 0.000000
v -1.062627 0.288839 0.160489
v -1.175796 0.288839 0.160489
v -1.070429 0.288839 0.000000
v -1.175796 0.288839 -0.160488
v -1.062627 0.288839 -0.160488
v -0.880575 0.288839 0.160488
v -0.870172 0.288839 0.266571
v -1.052224 0.288839 0.266571
v -1.052224 0.288839 -0.266570
v -0.880575 0.288839 -0.160488
v -0.870172 0.288839 -0.266570
v -1.052224 0.402008 -0.266570
v -1.052224 0.288839 -0.266570
v -1.148922 0.295344 -0.235921
v -1.148922 0.395502 -0.235921
v -1.148922 0.395502 0.235922
v -1.148922 0.295345 0.235922
v -1.052224 0.288839 0.266571
v -1.052224 0.402008 0.266571
v -1.062627 0.288839 0.160489
v -1.052224 0.288839 0.266571
v -1.148922 0.295345 0.235922
v -1.175796 0.288839 0.160489
v -1.175796 0.288839 0.160489
v -1.148922 0.295345 0.235922
v -1.148922 0.395502 0.235922
v -1.175796 0.402008 0.160489
v -1.175796 0.288839 -0.160488
v -1.148922 0.295344 -0.235921
v -1.052224 0.288839 -0.266570
v -1.062627 0.288839 -0.160488
v -1.175796 0.402008 0.160489
v -1.148922 0.395502 0.235922
v -1.052224 0.402008 0.266571
v -1.062627 0.402008 0.160489
v -0.880575 0.288839 -0.160488
v -0.870172 0.288839 -0.266570
v -0.870172 0.402008 -0.266570
v -0.880575 0.402008 -0.160488
v -0.880575 0.402008 0.160488
v -0.870172 0.402008 0.266571
v -0.870172 0.288839 0.266571
v -0.880575 0.288839 0.160488
v -1.052224 0.402008 -0.266570
v -0.870172 0.402008 -0.266570
v -0.870172 0.288839 -0.266570
v -1.052224 0.288839 -0.266570
v -1.062627 0.402008 -0.160488
v -0.880575 0.402008 -0.160488
v -0.870172 0.402008 -0.266570
v -1.052224 0.402008 -0.266570
v -1.175796 0.402008 -0.160488
v -1.183598 0.402008 0.000000
v -1.070429 0.402008 0.000000
v -1.175796 0.402008 0.160489
v -1.062627 0.402008 0.160489
v -1.052224 0.402008 0.266571
v -0.880575 0.402008 0.160488
v -0.870172 0.402008 0.266571
v -1.062627 0.288839 -0.160488
v -0.880575 0.288839 -0.160488
v -0.880575 0.402008 -0.160488
v -1.062627 0.402008 -0.160488
v -1.062627 0.402008 0.160489
v -0.880575 0.402008 0.160488
v -0.880575 0.288839 0.160488
v -1.062627 0.288839 0.160489
v -1.052224 0.288839 0.266571
v -0.870172 0.288839 0.266571
v -0.870172 0.402008 0.266571
v -1.052224 0.402008 0.266571
v -1.175796 0.402008 -0.160488
v -1.175796 0.288839 -0.160488
v -1.183598 0.288839 0.000000
v -1.183598 0.402008 0.000000
v -1.062627 0.402008 0.160489
v -1.062627 0.288839 0.160489
v -1.070429 0.288839 0.000000
v -1.070429 0.402008 0.000000
v 1.120784 0.402008 0.000000
v 1.120784 0.288839 0.000000
v 1.112982 0.288839 0.160488
v 1.112982 0.402008 0.160488
v 1.112982 0.402008 0.160488
v 1.102579 0.402008 0.266571
v 1.199277 0.395502 0.235921
v 1.226151 0.402008 0.160488
v 1.233953 0.402008 0.000000
v 1.233953 0.288839 0.000000
v 1.226151 0.288839 -0.160488
v 1.226151 0.402008 -0.160488
v 1.226151 0.402008 0.160488
v 1.199277 0.395502 0.235921
v 1.199277 0.295345 0.235921
v 1.226151 0.288839 0.160488
v 1.233953 0.288839 0.000000
v 1.112982 0.288839 -0.160488
v 1.226151 0.288839 -0.160488
v 1.120784 0.288839 0.000000
v 1.226151 0.288839 0.160488
v 1.112982 0.288839 0.160488
v 0.930930 0.288839 -0.160488
v 0.920527 0.288839 -0.266571
v 1.102579 0.288839 -0.266571
v 1.102579 0.288839 0.266571
v 0.930930 0.288839 0.160488
v 0.920527 0.288839 0.266571
v 1.102579 0.402008 0.266571
v 1.102579 0.288839 0.266571
v 1.199277 0.295345 0.235921
v 1.199277 0.395502 0.235921
v 1.199277 0.395502 -0.235921
v 1.199277 0.295344 -0.235921
v 1.102579 0.288839 -0.266571
v 1.102579 0.402008 -0.266571
v 1.112982 0.288839 -0.160488
v 1.102579 0.288839 -0.266571
v 1.199277 0.295344 -0.235921
v 1.226151 0.288839 -0.160488
v 1.226151 0.288839 -0.160488
v 1.199277 0.295344 -0.235921
v 1.199277 0.395502 -0.235921
v 1.226151 0.402008 -0.160488
v 1.226151 0.288839 0.160488
v 1.199277 0.295345 0.235921
v 1.102579 0.288839 0.266571
v 1.112982 0.288839 0.160488
v 1.226151 0.402008 -0.160488
v 1.199277 0.395502 -0.235921
v 1.102579 0.402008 -0.266571
v 1.112982 0.402008 -0.160488
v 0.930930 0.288839 0.160488
v 0.920527 0.288839 0.266571
v 0.920527 0.402008 0.266571
v 0.930930 0.402008 0.160488
v 0.930930 0.402008 -0.160488
v 0.920527 0.402008 -0.266571
v 0.920527 0.288839 -0.266571
v 0.930930 0.288839 -0.160488
v 1.102579 0.402008 0.266571
v 0.920527 0.402008 0.266571
v 0.920527 0.288839 0.266571
v 1.102579 0.288839 0.266571
v 1.112982 0.402008 0.160488
v 0.930930 0.402008 0.160488
v 0.920527 0.402008 0.266571
v 1.102579 0.402008 0.266571
v 1.226151 0.402008 0.160488
v 1.233953 0.402008 0.000000
v 1.120784 0.402008 0.000000
v 1.226151 0.402008 -0.160488
v 1.112982 0.402008 -0.160488
v 1.102579 0.402008 -0.266571
v 0.930930 0.402008 -0.160488
v 0.920527 0.402008 -0.266571
v 1.112982 0.288839 0.160488
v 0.930930 0.288839 0.160488
v 0.930930 0.402008 0.160488
v 1.112982 0.402008 0.160488
v 1.112982 0.402008 -0.160488
v 0.930930 0.402008 -0.160488
v 0.930930 0.288839 -0.160488
v 1.112982 0.288839 -0.160488
v 1.102579 0.288839 -0.266571
v 0.920527 0.288839 -0.266571
v 0.920527 0.402008 -0.266571
v 1.102579 0.402008 -0.266571
v 1.226151 0.402008 0.160488
v 1.226151 0.288839 0.160488
v 1.233953 0.288839 0.000000
v 1.233953 0.402008 0.000000
v 1.112982 0.402008 -0.160488
v 1.112982 0.288839 -0.160488
v 1.120784 0.288839 0.000000
v 1.120784 0.402008 0.000000
v 0.000000 -0.211660 -0.996081
v -0.585481 -0.211660 -0.805846
v -0.585481 0.607100 -0.805846
v 0.000000 0.607100 -0.996081
v 0.000000 -0.211660 -0.996081
v 0.000000 -0.353179 -0.926945
v -0.544844 -0.353179 -0.749914
v -0.585481 -0.211660 -0.805846
v 0.000000 -0.353179 -0.926945
v 0.000000 -0.411798 -0.760036
v -0.446738 -0.411798 -0.614882
v -0.544844 -0.353179 -0.749914
v -0.585481 -0.211660 -0.805846
v -0.544844 -0.353179 -0.749914
v -0.881577 -0.353179 -0.286442
v -0.947329 -0.211660 -0.307806
v -0.544844 -0.353179 -0.749914
v -0.446738 -0.411798 -0.614882
v -0.722837 -0.411798 -0.234864
v -0.881577 -0.353179 -0.286442
v -0.947329 -0.211660 -0.307806
v -0.881577 -0.353179 -0.286442
v -0.881577 -0.353179 0.286442
v -0.947329 -0.211660 0.307806
v -0.881577 -0.353179 -0.286442
v -0.722837 -0.411798 -0.234864
v -0.722837 -0.411798 0.234864
v -0.881577 -0.353179 0.286442
v -0.947329 -0.211660 0.307806
v -0.881577 -0.353179 0.286442
v -0.544844 -0.353179 0.749914
v -0.585481 -0.211660 0.805846
v -0.881577 -0.353179 0.286442
v -0.722837 -0.411798 0.234864
v -0.446738 -0.411798 0.614882
v -0.544844 -0.353179 0.749914
v -0.585481 -0.211660 0.805846
v 0.000000 -0.211660 0.996081
v 0.000000 0.607100 0.996081
v -0.585481 0.607100 0.805846
v -0.585481 -0.211660 0.805846
v -0.544844 -0.353179 0.749914
v 0.000000 -0.353179 0.926945
v 0.000000 -0.211660 0.996081
v 0.000000 -0.211660 0.996081
v 0.000000 -0.353179 0.926945
v 0.544845 -0.353179 0.749914
v 0.585482 -0.211660 0.805846
v 0.000000 -0.353179 0.926945
v 0.000000 -0.411798 0.760036
v 0.446738 -0.411798 0.614882
v 0.544845 -0.353179 0.749914
v 0.585482 -0.211660 0.805846
v 0.544845 -0.353179 0.749914
v 0.881577 -0.353179 0.286442
v 0.947329 -0.211660 0.307806
v 0.544845 -0.353179 0.749914
v 0.446738 -0.411798 0.614882
v 0.722837 -0.411798 0.234864
v 0.881577 -0.353179 0.286442
v 0.947329 -0.211660 0.307806
v 0.881577 -0.353179 0.286442
v 0.881577 -0.353179 -0.286442
v 0.947329 -0.211660 -0.307806
v 0.881577 -0.353179 0.286442
v 0.722837 -0.411798 0.234864
v 0.722837 -0.411798 -0.234864
v 0.881577 -0.353179 -0.286442
v 0.947329 -0.211660 -0.307806
v 0.881577 -0.353179 -0.286442
v 0.544844 -0.353179 -0.749914
v 0.585481 -0.211660 -0.805846
v 0.881577 -0.353179 -0.286442
v 0.722837 -0.411798 -0.234864
v 0.446738 -0.411798 -0.614882
v 0.544844 -0.353179 -0.749914
v 0.585481 -0.211660 -0.805846
v 0.544844 -0.353179 -0.749914
v 0.000000 -0.353179 -0.926945
v 0.000000 -0.211660 -0.996081
v 0.544844 -0.353179 -0.749914
v 0.446738 -0.411798 -0.614882
v 0.000000 -0.411798 -0.760036
v 0.000000 -0.353179 -0.926945
v -0.446738 -0.411798 0.614882
v -0.722837 -0.411798 0.234864
v -0.722837 -0.411798 -0.234864
v -0.446738 -0.411798 -0.614882
v 0.000000 -0.411798 -0.760036
v 0.000000 -0.411798 0.760036
v 0.446738 -0.411798 -0.614882
v 0.446738 -0.411798 0.614882
v 0.722837 -0.411798 -0.234864
v 0.722837 -0.411798 0.234864
v -0.585481 0.607100 -0.805846
v -0.570251 0.663902 -0.784883
v 0.000000 0.663902 -0.970168
v 0.000000 0.607100 -0.996081
v -0.947329 0.607100 -0.307806
v -0.922685 0.663902 -0.299799
v -0.570251 0.663902 -0.784883
v -0.585481 0.607100 -0.805846
v -0.947329 0.607100 0.307806
v -0.922685 0.663902 0.299798
v -0.922685 0.663902 -0.299799
v -0.947329 0.607100 -0.307806
v -0.585481 0.607100 0.805846
v -0.570251 0.663903 0.784883
v -0.922685 0.663902 0.299798
v -0.947329 0.607100 0.307806
v 0.585482 0.607100 0.805846
v 0.570251 0.663903 0.784883
v 0.000000 0.663903 0.970168
v 0.000000 0.607100 0.996081
v 0.947329 0.607100 0.307806
v 0.922685 0.663902 0.299799
v 0.570251 0.663903 0.784883
v 0.585482 0.607100 0.805846
v 0.947329 0.607100 -0.307806
v 0.922685 0.663902 -0.299799
v 0.922685 0.663902 0.299799
v 0.947329 0.607100 0.307806
v 0.585481 0.607100 -0.805846
v 0.570250 0.663902 -0.784883
v 0.922685 0.663902 -0.299799
v 0.947329 0.607100 -0.307806
v 0.000000 0.607100 -0.996081
v 0.000000 0.663902 -0.970168
v 0.570250 0.663902 -0.784883
v 0.585481 0.607100 -0.805846
v -0.510237 0.663902 -0.702280
v -0.495208 0.607100 -0.681595
v 0.000000 0.607100 -0.842498
v 0.000000 0.663902 -0.868066
v -0.825580 0.663902 -0.268247
v -0.801263 0.607100 -0.260346
v -0.495208 0.607100 -0.681595
v -0.510237 0.663902 -0.702280
v -0.825580 0.663902 0.268247
v -0.801263 0.607100 0.260346
v -0.801263 0.607100 -0.260346
v -0.825580 0.663902 -0.268247
v -0.510236 0.663903 0.702280
v -0.495208 0.607100 0.681595
v -0.801263 0.607100 0.260346
v -0.825580 0.663902 0.268247
v 0.510237 0.663903 0.702280
v 0.495208 0.607100 0.681595
v 0.000000 0.607100 0.842498
v 0.000000 0.663903 0.868066
v 0.825580 0.663902 0.268247
v 0.801263 0.607100 0.260346
v 0.495208 0.607100 0.681595
v 0.510237 0.663903 0.702280
v 0.825580 0.663902 -0.268247
v 0.801263 0.607100 -0.260346
v 0.801263 0.607100 0.260346
v 0.825580 0.663902 0.268247
v 0.510236 0.663902 -0.702281
v 0.495208 0.607100 -0.681595
v 0.801263 0.607100 -0.260346
v 0.825580 0.663902 -0.268247
v 0.000000 0.663902 -0.868066
v 0.000000 0.607100 -0.842498
v 0.495208 0.607100 -0.681595
v 0.510236 0.663902 -0.702281
v -0.544844 -0.353179 0.749914
v -0.446738 -0.411798 0.614882
v 0.000000 -0.411798 0.760036
v 0.000000 -0.353179 0.926945
v -0.495208 0.385761 0.681595
v -0.495208 0.607100 0.681595
v 0.000000 0.607100 0.842498
v 0.000000 0.385761 0.842498
v -0.570251 0.663903 0.784883
v -0.510236 0.663903 0.702280
v -0.825580 0.663902 0.268247
v -0.922685 0.663902 0.299798
v 0.000000 0.663903 0.970168
v -0.825580 0.663902 -0.268247
v 0.000000 0.663903 0.868066
v -0.922685 0.663902 -0.299799
v 0.570251 0.663903 0.784883
v -0.510237 0.663902 -0.702280
v 0.510237 0.663903 0.702280
v -0.570251 0.663902 -0.784883
v 0.922685 0.663902 0.299799
v 0.000000 0.663902 -0.868066
v 0.825580 0.663902 0.268247
v 0.000000 0.663902 -0.970168
v 0.922685 0.663902 -0.299799
v 0.510236 0.663902 -0.702281
v 0.825580 0.663902 -0.268247
v 0.570250 0.663902 -0.784883
v -0.495208 0.385761 -0.681595
v -0.801263 0.385761 -0.260346
v -0.801263 0.385761 0.260346
v -0.495208 0.385761 0.681595
v 0.000000 0.385761 -0.842498
v 0.000000 0.385761 0.842498
v 0.495208 0.385761 -0.681595
v 0.495208 0.385761 0.681595
v 0.801263 0.385761 -0.260346
v 0.801263 0.385761 0.260346
vn -0.283486 0.398011 0.872481
vn -0.283486 0.398011 0.872481
vn -0.283486 0.398011 0.872481
vn -0.283486 0.398011 0.872481
vn 0.309017 0.000000 0.951057
vn 0.309017 0.000000 0.951057
vn 0.309017 0.000000 0.951057
vn 0.309017 0.000000 0.951057
vn -0.809017 0.000000 -0.587785
vn -0.809017 0.000000 -0.587785
vn -0.809017 0.000000 -0.587785
vn -0.809017 0.000000 -0.587785
vn 0.809017 0.000000 -0.587785
vn 0.809017 0.000000 -0.587785
vn 0.809017 0.000000 -0.587785
vn 0.809017 0.000000 -0.587785
vn 0.809017 0.000000 -0.587785
vn 0.809017 0.000000 -0.587785
vn 0.809017 0.000000 -0.587785
vn 0.809017 0.000000 -0.587785
vn 1.000000 0.000000 0.000000
vn 1.000000 0.000000 0.000000
vn 1.000000 0.000000 0.000000
vn 1.000000 0.000000 0.000000
vn 0.809017 0.000000 0.587785
vn 0.809017 0.000000 0.587785
vn 0.809017 0.000000 0.587785
vn 0.809017 0.000000 0.587785
vn 0.309017 0.000000 0.951057
vn 0.309017 0.000000 0.951057
vn 0.309017 0.000000 0.951057
vn 0.309017 0.000000 0.951057
vn -0.809017 0.000000 0.587785
vn -0.809017 0.000000 0.587785
vn -0.809017 0.000000 0.587785
vn -0.809017 0.000000 0.587785
vn 0.309017 0.000000 -0.951057
vn 0.309017 0.000000 -0.951057
vn 0.309017 0.000000 -0.951057
vn 0.309017 0.000000 -0.951057
vn -1.000000 0.000000 0.000000
vn -1.000000 0.000000 0.000000
vn -1.000000 0.000000 0.000000
vn -1.000000 0.000000 0.000000
vn 1.000000 0.000000 0.000000
vn 1.000000 0.000000 0.000000
vn 1.000000 0.000000 0.000000
vn 1.000000 0.000000 0.000000
vn -1.000000 0.000000 0.000000
vn -1.000000 0.000000 0.000000
vn -1.000000 0.000000 0.000000
vn -1.000000 0.000000 0.000000
vn 0.284081 0.393548 -0.874310
vn 0.284081 0.393548 -0.874310
vn 0.284081 0.393548 -0.874310
vn 0.284081 0.393548 -0.874310
vn 0.809017 0.000000 0.587785
vn 0.809017 0.000000 0.587785
vn 0.809017 0.000000 0.587785
vn 0.809017 0.000000 0.587785
vn -0.809017 0.000000 0.587785
vn -0.809017 0.000000 0.587785
vn -0.809017 0.000000 0.587785
vn -0.809017 0.000000 0.587785
vn -0.309017 0.000000 -0.951057
vn -0.309017 0.000000 -0.951057
vn -0.309017 0.000000 -0.951057
vn -0.309017 0.000000 -0.951057
vn -0.309017 0.000000 0.951057
vn -0.309017 0.000000 0.951057
vn -0.309017 0.000000 0.951057
vn -0.309017 0.000000 0.951057
vn -0.809017 0.000000 -0.587785
vn -0.809017 0.000000 -0.587785
vn -0.809017 0.000000 -0.587785
vn -0.809017 0.000000 -0.587785
vn 0.998820 0.000000 0.048558
vn 0.998820 0.000000 0.048558
vn 0.998820 0.000000 0.048558
vn 0.998820 0.000000 0.048558
vn -0.037294 0.998360 -0.043442
vn -0.037294 0.998360 -0.043442
vn -0.037294 0.998360 -0.043442
vn -0.037294 0.998360 -0.043442
vn -0.998820 0.000000 0.048559
vn -0.998820 0.000000 0.048559
vn -0.998820 0.000000 0.048559
vn -0.998820 0.000000 0.048559
vn -0.942005 0.000000 -0.335599
vn -0.942005 0.000000 -0.335599
vn -0.942005 0.000000 -0.335599
vn -0.942005 0.000000 -0.335599
vn 0.000000 -1.000000 0.000000
vn 0.000000 -1.000000 0.000000
vn 0.000000 -1.000000 0.000000
vn 0.000000 -1.000000 0.000000
vn 0.000000 -1.000000 0.000000
vn 0.000000 -1.000000 0.000000
vn 0.000000 -1.000000 0.000000
vn 0.000000 -1.000000 0.000000
vn 0.000000 -1.000000 0.000000
vn 0.000000 -1.000000 0.000000
vn 0.000000 -1.000000 0.000000
vn 0.000000 -1.000000 0.000000
vn -0.302146 0.000000 -0.953262
vn -0.302146 0.000000 -0.953262
vn -0.302146 0.000000 -0.953262
vn -0.302146 0.000000 -0.953262
vn -0.302145 0.000000 0.953262
vn -0.302145 0.000000 0.953262
vn -0.302145 0.000000 0.953262
vn -0.302145 0.000000 0.953262
vn -0.037294 -0.998360 0.043443
vn -0.037294 -0.998360 0.043443
vn -0.037294 -0.998360 0.043443
vn -0.037294 -0.998360 0.043443
vn -0.942004 0.000000 0.335602
vn -0.942004 0.000000 0.335602
vn -0.942004 0.000000 0.335602
vn -0.942004 0.000000 0.335602
vn -0.037294 -0.998360 -0.043442
vn -0.037294 -0.998360 -0.043442
vn -0.037294 -0.998360 -0.043442
vn -0.037294 -0.998360 -0.043442
vn -0.037294 0.998360 0.043442
vn -0.037294 0.998360 0.043442
vn -0.037294 0.998360 0.043442
vn -0.037294 0.998360 0.043442
vn 0.995226 0.000000 0.097595
vn 0.995226 0.000000 0.097595
vn 0.995226 0.000000 0.097595
vn 0.995226 0.000000 0.097595
vn 0.995226 0.000000 -0.097595
vn 0.995226 0.000000 -0.097595
vn 0.995226 0.000000 -0.097595
vn 0.995226 0.000000 -0.097595
vn 0.000000 0.000000 -1.000000
vn 0.000000 0.000000 -1.000000
vn 0.000000 0.000000 -1.000000
vn 0.000000 0.000000 -1.000000
vn 0.000000 1.000000 0.000000
vn 0.000000 1.000000 0.000000
vn 0.000000 1.000000 0.000000
vn 0.000000 1.000000 0.000000
vn 0.000000 1.000000 0.000000
vn 0.000000 1.000000 0.000000
vn 0.000000 1.000000 0.000000
vn 0.000000 1.000000 0.000000
vn 0.000000 1.000000 0.000000
vn 0.000000 1.000000 0.000000
vn 0.000000 1.000000 0.000000
vn 0.000000 1.000000 0.000000
vn 0.000000 0.000000 1.000000
vn 0.000000 0.000000 1.000000
vn 0.000000 0.000000 1.000000
vn 0.000000 0.000000 1.000000
vn 0.000000 0.000000 -1.000000
vn 0.000000 0.000000 -1.000000
vn 0.000000 0.000000 -1.000000
vn 0.000000 0.000000 -1.000000
vn 0.000000 0.000000 1.000000
vn 0.000000 0.000000 1.000000
vn 0.000000 0.000000 1.000000
vn 0.000000 0.000000 1.000000
vn -0.998820 0.000000 -0.048559
vn -0.998820 0.000000 -0.048559
vn -0.998820 0.000000 -0.048559
vn -0.998820 0.000000 -0.048559
vn 0.998820 0.000000 -0.048558
vn 0.998820 0.000000 -0.048558
vn 0.998820 0.000000 -0.048558
vn 0.998820 0.000000 -0.048558
vn -0.998820 0.000000 -0.048558
vn -0.998820 0.000000 -0.048558
vn -0.998820 0.000000 -0.048558
vn -0.998820 0.000000 -0.048558
vn 0.037294 0.998360 0.043442
vn 0.037294 0.998360 0.043442
vn 0.037294 0.998360 0.043442
vn 0.037294 0.998360 0.043442
vn 0.998820 0.000000 -0.048559
vn 0.998820 0.000000 -0.048559
vn 0.998820 0.000000 -0.048559
vn 0.998820 0.000000 -0.048559
vn 0.942003 0.000000 0.335604
vn 0.942003 0.000000 0.335604
vn 0.942003 0.000000 0.335604
vn 0.942003 0.000000 0.335604
vn 0.000000 -1.000000 0.000000
vn 0.000000 -1.000000 0.000000
vn 0.000000 -1.000000 0.000000
vn 0.000000 -1.000000 0.000000
vn 0.000000 -1.000000 0.000000
vn 0.000000 -1.000000 0.000000
vn 0.000000 -1.000000 0.000000
vn 0.000000 -1.000000 0.000000
vn 0.000000 -1.000000 0.000000
vn 0.000000 -1.000000 0.000000
vn 0.000000 -1.000000 0.000000
vn 0.000000 -1.000000 0.000000
vn 0.302146 0.000000 0.953262
vn 0.302146 0.000000 0.953262
vn 0.302146 0.000000 0.953262
vn 0.302146 0.000000 0.953262
vn 0.302145 0.000000 -0.953262
vn 0.302145 0.000000 -0.953262
vn 0.302145 0.000000 -0.953262
vn 0.302145 0.000000 -0.953262
vn 0.037294 -0.998360 -0.043442
vn 0.037294 -0.998360 -0.043442
vn 0.037294 -0.998360 -0.043442
vn 0.037294 -0.998360 -0.043442
vn 0.942003 0.000000 -0.335604
vn 0.942003 0.000000 -0.335604
vn 0.942003 0.000000 -0.335604
vn 0.942003 0.000000 -0.335604
vn 0.037294 -0.998360 0.043443
vn 0.037294 -0.998360 0.043443
vn 0.037294 -0.998360 0.043443
vn 0.037294 -0.998360 0.043443
vn 0.037294 0.998360 -0.043442
vn 0.037294 0.998360 -0.043442
vn 0.037294 0.998360 -0.043442
vn 0.037294 0.998360 -0.043442
vn -0.995226 0.000000 -0.097596
vn -0.995226 0.000000 -0.097596
vn -0.995226 0.000000 -0.097596
vn -0.995226 0.000000 -0.097596
vn -0.995226 0.000000 0.097596
vn -0.995226 0.000000 0.097596
vn -0.995226 0.000000 0.097596
vn -0.995226 0.000000 0.097596
vn 0.000000 0.000000 1.000000
vn 0.000000 0.000000 1.000000
vn 0.000000 0.000000 1.000000
vn 0.000000 0.000000 1.000000
vn 0.000000 1.000000 0.000000
vn 0.000000 1.000000 0.000000
vn 0.000000 1.000000 0.000000
vn 0.000000 1.000000 0.000000
vn 0.000000 1.000000 0.000000
vn 0.000000 1.000000 0.000000
vn 0.000000 1.000000 0.000000
vn 0.000000 1.000000 0.000000
vn 0.000000 1.000000 0.000000
vn 0.000000 1.000000 0.000000
vn 0.000000 1.000000 0.000000
vn 0.000000 1.000000 0.000000
vn 0.000000 0.000000 -1.000000
vn 0.000000 0.000000 -1.000000
vn 0.000000 0.000000 -1.000000
vn 0.000000 0.000000 -1.000000
vn 0.000000 0.000000 1.000000
vn 0.000000 0.000000 1.000000
vn 0.000000 0.000000 1.000000
vn 0.000000 0.000000 1.000000
vn 0.000000 0.000000 -1.000000
vn 0.000000 0.000000 -1.000000
vn 0.000000 0.000000 -1.000000
vn 0.000000 0.000000 -1.000000
vn 0.998820 0.000000 0.048559
vn 0.998820 0.000000 0.048559
vn 0.998820 0.000000 0.048559
vn 0.998820 0.000000 0.048559
vn -0.998820 0.000000 0.048558
vn -0.998820 0.000000 0.048558
vn -0.998820 0.000000 0.048558
vn -0.998820 0.000000 0.048558
vn -0.309017 0.000000 -0.951057
vn -0.309017 0.000000 -0.951057
vn -0.309017 0.000000 -0.951057
vn -0.309017 0.000000 -0.951057
vn -0.280246 -0.421358 -0.862508
vn -0.280246 -0.421358 -0.862508
vn -0.280246 -0.421358 -0.862508
vn -0.280246 -0.421358 -0.862508
vn -0.107048 -0.938082 -0.329458
vn -0.107048 -0.938082 -0.329458
vn -0.107048 -0.938082 -0.329458
vn -0.107048 -0.938082 -0.329458
vn -0.733693 -0.421358 -0.533059
vn -0.733693 -0.421358 -0.533059
vn -0.733693 -0.421358 -0.533059
vn -0.733693 -0.421358 -0.533059
vn -0.280254 -0.938082 -0.203616
vn -0.280254 -0.938082 -0.203616
vn -0.280254 -0.938082 -0.203616
vn -0.280254 -0.938082 -0.203616
vn -0.906894 -0.421358 0.000000
vn -0.906894 -0.421358 0.000000
vn -0.906894 -0.421358 0.000000
vn -0.906894 -0.421358 0.000000
vn -0.346413 -0.938082 0.000000
vn -0.346413 -0.938082 0.000000
vn -0.346413 -0.938082 0.000000
vn -0.346413 -0.938082 0.000000
vn -0.733693 -0.421358 0.533059
vn -0.733693 -0.421358 0.533059
vn -0.733693 -0.421358 0.533059
vn -0.733693 -0.421358 0.533059
vn -0.280254 -0.938082 0.203617
vn -0.280254 -0.938082 0.203617
vn -0.280254 -0.938082 0.203617
vn -0.280254 -0.938082 0.203617
vn -0.309017 0.000000 0.951057
vn -0.309017 0.000000 0.951057
vn -0.309017 0.000000 0.951057
vn -0.309017 0.000000 0.951057
vn -0.280246 -0.421358 0.862508
vn -0.280246 -0.421358 0.862508
vn -0.280246 -0.421358 0.862508
vn -0.280246 -0.421358 0.862508
vn 0.280246 -0.421358 0.862508
vn 0.280246 -0.421358 0.862508
vn 0.280246 -0.421358 0.862508
vn 0.280246 -0.421358 0.862508
vn 0.107048 -0.938082 0.329458
vn 0.107048 -0.938082 0.329458
vn 0.107048 -0.938082 0.329458
vn 0.107048 -0.938082 0.329458
vn 0.733693 -0.421358 0.533059
vn 0.733693 -0.421358 0.533059
vn 0.733693 -0.421358 0.533059
vn 0.733693 -0.421358 0.533059
vn 0.280254 -0.938082 0.203616
vn 0.280254 -0.938082 0.203616
vn 0.280254 -0.938082 0.203616
vn 0.280254 -0.938082 0.203616
vn 0.906894 -0.421358 0.000000
vn 0.906894 -0.421358 0.000000
vn 0.906894 -0.421358 0.000000
vn 0.906894 -0.421358 0.000000
vn 0.346413 -0.938082 0.000000
vn 0.346413 -0.938082 0.000000
vn 0.346413 -0.938082 0.000000
vn 0.346413 -0.938082 0.000000
vn 0.733693 -0.421358 -0.533059
vn 0.733693 -0.421358 -0.533059
vn 0.733693 -0.421358 -0.533059
vn 0.733693 -0.421358 -0.533059
vn 0.280254 -0.938082 -0.203616
vn 0.280254 -0.938082 -0.203616
vn 0.280254 -0.938082 -0.203616
vn 0.280254 -0.938082 -0.203616
vn 0.280246 -0.421358 -0.862508
vn 0.280246 -0.421358 -0.862508
vn 0.280246 -0.421358 -0.862508
vn 0.280246 -0.421358 -0.862508
vn 0.107047 -0.938082 -0.329458
vn 0.107047 -0.938082 -0.329458
vn 0.107047 -0.938082 -0.329458
vn 0.107047 -0.938082 -0.329458
vn 0.000000 -1.000000 0.000000
vn 0.000000 -1.000000 0.000000
vn 0.000000 -1.000000 0.000000
vn 0.000000 -1.000000 0.000000
vn 0.000000 -1.000000 0.000000
vn 0.000000 -1.000000 0.000000
vn 0.000000 -1.000000 0.000000
vn 0.000000 -1.000000 0.000000
vn 0.000000 -1.000000 0.000000
vn 0.000000 -1.000000 0.000000
vn -0.283487 0.398010 -0.872481
vn -0.283487 0.398010 -0.872481
vn -0.283487 0.398010 -0.872481
vn -0.283487 0.398010 -0.872481
vn -0.742177 0.398010 -0.539223
vn -0.742177 0.398010 -0.539223
vn -0.742177 0.398010 -0.539223
vn -0.742177 0.398010 -0.539223
vn -0.917381 0.398011 0.000000
vn -0.917381 0.398011 0.000000
vn -0.917381 0.398011 0.000000
vn -0.917381 0.398011 0.000000
vn -0.742177 0.398010 0.539223
vn -0.742177 0.398010 0.539223
vn -0.742177 0.398010 0.539223
vn -0.742177 0.398010 0.539223
vn 0.283487 0.398010 0.872481
vn 0.283487 0.398010 0.872481
vn 0.283487 0.398010 0.872481
vn 0.283487 0.398010 0.872481
vn 0.742177 0.398010 0.539223
vn 0.742177 0.398010 0.539223
vn 0.742177 0.398010 0.539223
vn 0.742177 0.398010 0.539223
vn 0.917381 0.398010 0.000000
vn 0.917381 0.398010 0.000000
vn 0.917381 0.398010 0.000000
vn 0.917381 0.398010 0.000000
vn 0.742177 0.398010 -0.539223
vn 0.742177 0.398010 -0.539223
vn 0.742177 0.398010 -0.539223
vn 0.742177 0.398010 -0.539223
vn 0.283486 0.398010 -0.872481
vn 0.283486 0.398010 -0.872481
vn 0.283486 0.398010 -0.872481
vn 0.283486 0.398010 -0.872481
vn 0.284081 0.393548 0.874310
vn 0.284081 0.393548 0.874310
vn 0.284081 0.393548 0.874310
vn 0.284081 0.393548 0.874310
vn 0.743733 0.393549 0.540353
vn 0.743733 0.393549 0.540353
vn 0.743733 0.393549 0.540353
vn 0.743733 0.393549 0.540353
vn 0.919304 0.393548 0.000000
vn 0.919304 0.393548 0.000000
vn 0.919304 0.393548 0.000000
vn 0.919304 0.393548 0.000000
vn 0.743732 0.393549 -0.540353
vn 0.743732 0.393549 -0.540353
vn 0.743732 0.393549 -0.540353
vn 0.743732 0.393549 -0.540353
vn -0.284081 0.393548 -0.874310
vn -0.284081 0.393548 -0.874310
vn -0.284081 0.393548 -0.874310
vn -0.284081 0.393548 -0.874310
vn -0.743733 0.393548 -0.540353
vn -0.743733 0.393548 -0.540353
vn -0.743733 0.393548 -0.540353
vn -0.743733 0.393548 -0.540353
vn -0.919304 0.393549 0.000000
vn -0.919304 0.393549 0.000000
vn -0.919304 0.393549 0.000000
vn -0.919304 0.393549 0.000000
vn -0.743733 0.393549 0.540353
vn -0.743733 0.393549 0.540353
vn -0.743733 0.393549 0.540353
vn -0.743733 0.393549 0.540353
vn -0.284080 0.393548 0.874310
vn -0.284080 0.393548 0.874310
vn -0.284080 0.393548 0.874310
vn -0.284080 0.393548 0.874310
vn -0.107048 -0.938082 0.329459
vn -0.107048 -0.938082 0.329459
vn -0.107048 -0.938082 0.329459
vn -0.107048 -0.938082 0.329459
vn 0.309017 0.000000 -0.951057
vn 0.309017 0.000000 -0.951057
vn 0.309017 0.000000 -0.951057
vn 0.309017 0.000000 -0.951057
vn 0.000000 1.000000 0.000000
vn 0.000000 1.000000 0.000000
vn 0.000000 1.000000 0.000000
vn 0.000000 1.000000 0.000000
vn 0.000000 1.000000 0.000000
vn -0.000001 1.000000 0.000000
vn 0.000000 1.000000 0.000000
vn -0.000001 1.000000 0.000000
vn 0.000000 1.000000 0.000000
vn 0.000000 1.000000 0.000000
vn 0.000000 1.000000 0.000000
vn 0.000000 1.000000 0.000000
vn 0.000000 1.000000 0.000000
vn 0.000000 1.000000 0.000000
vn 0.000000 1.000000 0.000000
vn 0.000000 1.000000 0.000000
vn 0.000000 1.000000 0.000000
vn 0.000000 1.000000 0.000000
vn 0.000000 1.000000 0.000000
vn 0.000000 1.000000 0.000000
vn 0.000000 1.000000 0.000000
vn 0.000000 1.000000 0.000000
vn 0.000000 1.000000 0.000000
vn 0.000000 1.000000 0.000000
vn 0.000000 1.000000 0.000000
vn 0.000000 1.000000 0.000000
vn 0.000000 1.000000 0.000000
vn 0.000000 1.000000 0.000000
vn 0.000000 1.000000 0.000000
vn 0.000000 1.000000 0.000000
g CookingPot_Soup_Grey
usemtl Grey
f 1 2 3
f 1 3 4
f 5 6 7
f 5 7 8
f 9 10 11
f 9 11 12
f 13 14 15
f 13 15 16
f 17 18 19
f 17 19 20
f 21 22 23
f 21 23 24
f 25 26 27
f 25 27 28
f 29 30 31
f 29 31 32
f 33 34 35
f 33 35 36
f 37 38 39
f 37 39 40
f 41 42 43
f 41 43 44
f 45 46 47
f 45 47 48
f 49 50 51
f 49 51 52
f 53 54 55
f 53 55 56
f 57 58 59
f 57 59 60
f 61 62 63
f 61 63 64
f 65 66 67
f 65 67 68
f 69 70 71
f 69 71 72
f 73 74 75
f 73 75 76
f 77 78 79
f 77 79 80
f 81 82 83
f 81 83 84
f 85 86 87
f 85 87 88
f 89 90 91
f 89 91 92
f 93 94 95
f 93 96 94
f 97 96 93
f 97 98 96
f 94 99 100
f 94 100 101
f 102 103 98
f 102 104 103
f 105 106 107
f 105 107 108
f 109 110 111
f 109 111 112
f 113 114 115
f 113 115 116
f 117 118 119
f 117 119 120
f 121 122 123
f 121 123 124
f 125 126 127
f 125 127 128
f 129 130 131
f 129 131 132
f 133 134 135
f 133 135 136
f 137 138 139
f 137 139 140
f 141 142 143
f 141 143 144
f 141 145 146
f 141 146 147
f 147 146 148
f 147 148 149
f 150 151 149
f 150 152 151
f 153 154 155
f 153 155 156
f 157 158 159
f 157 159 160
f 161 162 163
f 161 163 164
f 165 166 167
f 165 167 168
f 169 170 171
f 169 171 172
f 173 174 175
f 173 175 176
f 177 178 179
f 177 179 180
f 181 182 183
f 181 183 184
f 185 186 187
f 185 187 188
f 189 190 191
f 189 192 190
f 193 192 189
f 193 194 192
f 190 195 196
f 190 196 197
f 198 199 194
f 198 200 199
f 201 202 203
f 201 203 204
f 205 206 207
f 205 207 208
f 209 210 211
f 209 211 212
f 213 214 215
f 213 215 216
f 217 218 219
f 217 219 220
f 221 222 223
f 221 223 224
f 225 226 227
f 225 227 228
f 229 230 231
f 229 231 232
f 233 234 235
f 233 235 236
f 237 238 239
f 237 239 240
f 237 241 242
f 237 242 243
f 243 242 244
f 243 244 245
f 246 247 245
f 246 248 247
f 249 250 251
f 249 251 252
f 253 254 255
f 253 255 256
f 257 258 259
f 257 259 260
f 261 262 263
f 261 263 264
f 265 266 267
f 265 267 268
f 269 270 271
f 269 271 272
f 273 274 275
f 273 275 276
f 277 278 279
f 277 279 280
f 281 282 283
f 281 283 284
f 285 286 287
f 285 287 288
f 289 290 291
f 289 291 292
f 293 294 295
f 293 295 296
f 297 298 299
f 297 299 300
f 301 302 303
f 301 303 304
f 305 306 307
f 305 307 308
f 309 310 311
f 309 311 312
f 313 314 315
f 313 315 316
f 317 318 319
f 317 319 320
f 321 322 323
f 321 323 324
f 325 326 327
f 325 327 328
f 329 330 331
f 329 331 332
f 333 334 335
f 333 335 336
f 337 338 339
f 337 339 340
f 341 342 343
f 341 343 344
f 345 346 347
f 345 347 348
f 349 350 351
f 349 351 352
f 353 354 355
f 355 356 353
f 356 357 353
f 357 358 353
f 357 359 358
f 359 360 358
f 359 361 360
f 361 362 360
f 363 364 365
f 363 365 366
f 367 368 369
f 367 369 370
f 371 372 373
f 371 373 374
f 375 376 377
f 375 377 378
f 379 380 381
f 379 381 382
f 383 384 385
f 383 385 386
f 387 388 389
f 387 389 390
f 391 392 393
f 391 393 394
f 395 396 397
f 395 397 398
f 399 400 401
f 399 401 402
f 403 404 405
f 403 405 406
f 407 408 409
f 407 409 410
f 411 412 413
f 411 413 414
f 415 416 417
f 415 417 418
f 419 420 421
f 419 421 422
f 423 424 425
f 423 425 426
f 427 428 429
f 427 429 430
f 431 432 433
f 431 433 434
f 435 436 437
f 435 437 438
f 439 440 441
f 439 441 442
f 443 444 445
f 443 445 446
f 447 444 443
f 446 445 448
f 447 449 444
f 446 448 450
f 451 449 447
f 450 448 452
f 451 453 449
f 450 452 454
f 455 453 451
f 454 452 456
f 455 457 453
f 454 456 458
f 459 457 455
f 458 456 460
f 459 461 457
f 458 460 462
f 462 461 459
f 462 460 461
g CookingPot_Soup_Brown
usemtl Brown
f 463 464 465
f 465 466 463
f 466 467 463
f 466 468 467
f 468 469 467
f 468 470 469
f 470 471 469
f 470 472 471
