mtllib Materials.mtl
# Ultimate Food Pack - CookingPot2
o CookingPot2
v 0.000000 0.663903 0.970168
v -0.570251 0.663903 0.784883
v -0.585481 0.607100 0.805846
v 0.000000 0.607100 0.996081
v -0.495208 0.607100 -0.681595
v -0.381242 0.166728 -0.524734
v 0.000000 0.166728 -0.648607
v 0.000000 0.607100 -0.842498
v -0.510237 0.663902 -0.702280
v 0.000000 0.663902 -0.868066
v -0.479914 0.205533 -0.660545
v -0.947329 0.607100 -0.307806
v -0.585481 0.607100 -0.805846
v -0.776517 0.205533 -0.252306
v -0.722620 0.089531 -0.234794
v -0.446604 0.089531 -0.614698
v -0.495208 0.607100 0.681595
v -0.381242 0.166728 0.524734
v -0.616862 0.166728 0.200431
v -0.801263 0.607100 0.260346
v -0.510236 0.663903 0.702280
v -0.825580 0.663902 0.268247
v 0.776517 0.205533 -0.252306
v 0.585481 0.607100 -0.805846
v 0.947329 0.607100 -0.307806
v 0.479914 0.205533 -0.660545
v 0.446604 0.089531 -0.614698
v 0.722620 0.089531 -0.234794
v 0.776517 0.205533 0.252306
v 0.947329 0.607100 -0.307806
v 0.947329 0.607100 0.307806
v 0.776517 0.205533 -0.252306
v 0.722620 0.089531 -0.234794
v 0.722620 0.089532 0.234794
v 0.479914 0.205533 0.660545
v 0.947329 0.607100 0.307806
v 0.585482 0.607100 0.805846
v 0.776517 0.205533 0.252306
v 0.722620 0.089532 0.234794
v 0.446604 0.089532 0.614698
v 0.000000 0.205533 0.816478
v 0.585482 0.607100 0.805846
v 0.000000 0.607100 0.996081
v 0.479914 0.205533 0.660545
v 0.446604 0.089532 0.614698
v 0.000000 0.089532 0.759808
v -0.776517 0.205533 0.252306
v -0.585481 0.607100 0.805846
v -0.947329 0.607100 0.307806
v -0.479914 0.205533 0.660545
v -0.446604 0.089532 0.614698
v -0.722620 0.089532 0.234794
v 0.479914 0.205533 -0.660545
v 0.000000 0.607100 -0.996081
v 0.585481 0.607100 -0.805846
v 0.000000 0.205533 -0.816478
v 0.000000 0.089531 -0.759808
v 0.446604 0.089531 -0.614698
v -0.776517 0.205533 -0.252306
v -0.947329 0.607100 0.307806
v -0.947329 0.607100 -0.307806
v -0.776517 0.205533 0.252306
v -0.722620 0.089532 0.234794
v -0.722620 0.089531 -0.234794
v -0.381242 0.166728 -0.524734
v -0.616862 0.166728 -0.200431
v -0.616862 0.166728 0.200431
v -0.381242 0.166728 0.524734
v 0.000000 0.166728 -0.648607
v 0.000000 0.166728 0.648607
v 0.381241 0.166728 -0.524734
v 0.381242 0.166728 0.524734
v 0.616862 0.166728 -0.200431
v 0.616862 0.166728 0.200431
v -0.801263 0.607100 0.260346
v -0.616862 0.166728 0.200431
v -0.616862 0.166728 -0.200431
v -0.801263 0.607100 -0.260346
v -0.825580 0.663902 0.268247
v -0.825580 0.663902 -0.268247
v 0.801263 0.607100 -0.260346
v 0.616862 0.166728 -0.200431
v 0.616862 0.166728 0.200431
v 0.801263 0.607100 0.260346
v 0.825580 0.663902 -0.268247
v 0.825580 0.663902 0.268247
v 0.000000 0.663903 0.868066
v -0.495208 0.607100 0.681595
v -0.510236 0.663903 0.702280
v 0.000000 0.607100 0.842498
v -0.381242 0.166728 0.524734
v 0.000000 0.166728 0.648607
v -0.801263 0.607100 -0.260346
v -0.616862 0.166728 -0.200431
v -0.381242 0.166728 -0.524734
v -0.495208 0.607100 -0.681595
v -0.825580 0.663902 -0.268247
v -0.510237 0.663902 -0.702280
v 0.495208 0.607100 -0.681595
v 0.381241 0.166728 -0.524734
v 0.616862 0.166728 -0.200431
v 0.801263 0.607100 -0.260346
v 0.510236 0.663902 -0.702281
v 0.825580 0.663902 -0.268247
v 0.495208 0.607100 0.681595
v 0.381242 0.166728 0.524734
v 0.000000 0.166728 0.648607
v 0.000000 0.607100 0.842498
v 0.510237 0.663903 0.702280
v 0.000000 0.663903 0.868066
v 0.000000 0.607100 -0.842498
v 0.000000 0.166728 -0.648607
v 0.381241 0.166728 -0.524734
v 0.495208 0.607100 -0.681595
v 0.000000 0.663902 -0.868066
v 0.510236 0.663902 -0.702281
v 0.801263 0.607100 0.260346
v 0.616862 0.166728 0.200431
v 0.381242 0.166728 0.524734
v 0.495208 0.607100 0.681595
v 0.825580 0.663902 0.268247
v 0.510237 0.663903 0.702280
v -1.032115 0.629990 0.000000
v -1.032115 0.516821 0.000000
v -1.024313 0.516821 -0.160488
v -1.024313 0.629990 -0.160488
v -1.024313 0.629990 -0.160488
v -1.013910 0.629990 -0.266570
v -1.110608 0.623484 -0.235921
v -1.137482 0.629990 -0.160488
v -1.145284 0.629990 0.000000
v -1.145284 0.516821 0.000000
v -1.137482 0.516821 0.160489
v -1.137482 0.629990 0.160489
v -1.137482 0.629990 -0.160488
v -1.110608 0.623484 -0.235921
v -1.110608 0.523327 -0.235921
v -1.137482 0.516821 -0.160488
v -1.145284 0.516821 0.000000
v -1.024313 0.516821 0.160489
v -1.137482 0.516821 0.160489
v -1.032115 0.516821 0.000000
v -1.137482 0.516821 -0.160488
v -1.024313 0.516821 -0.160488
v -0.842261 0.516821 0.160488
v -0.831858 0.516821 0.266571
v -1.013909 0.516821 0.266571
v -1.013910 0.516821 -0.266570
v -0.842261 0.516821 -0.160488
v -0.831858 0.516821 -0.266570
v -1.013910 0.629990 -0.266570
v -1.013910 0.516821 -0.266570
v -1.110608 0.523327 -0.235921
v -1.110608 0.623484 -0.235921
v -1.110607 0.623484 0.235922
v -1.110607 0.523327 0.235922
v -1.013909 0.516821 0.266571
v -1.013909 0.629990 0.266571
v -1.024313 0.516821 0.160489
v -1.013909 0.516821 0.266571
v -1.110607 0.523327 0.235922
v -1.137482 0.516821 0.160489
v -1.137482 0.516821 0.160489
v -1.110607 0.523327 0.235922
v -1.110607 0.623484 0.235922
v -1.137482 0.629990 0.160489
v -1.137482 0.516821 -0.160488
v -1.110608 0.523327 -0.235921
v -1.013910 0.516821 -0.266570
v -1.024313 0.516821 -0.160488
v -1.137482 0.629990 0.160489
v -1.110607 0.623484 0.235922
v -1.013909 0.629990 0.266571
v -1.024313 0.629990 0.160489
v -0.842261 0.516821 -0.160488
v -0.831858 0.516821 -0.266570
v -0.831858 0.629990 -0.266570
v -0.842261 0.629990 -0.160488
v -0.842261 0.629990 0.160488
v -0.831858 0.629990 0.266571
v -0.831858 0.516821 0.266571
v -0.842261 0.516821 0.160488
v -1.013910 0.629990 -0.266570
v -0.831858 0.629990 -0.266570
v -0.831858 0.516821 -0.266570
v -1.013910 0.516821 -0.266570
v -1.024313 0.629990 -0.160488
v -0.842261 0.629990 -0.160488
v -0.831858 0.629990 -0.266570
v -1.013910 0.629990 -0.266570
v -1.137482 0.629990 -0.160488
v -1.145284 0.629990 0.000000
v -1.032115 0.629990 0.000000
v -1.137482 0.629990 0.160489
v -1.024313 0.629990 0.160489
v -1.013909 0.629990 0.266571
v -0.842261 0.629990 0.160488
v -0.831858 0.629990 0.266571
v -1.024313 0.516821 -0.160488
v -0.842261 0.516821 -0.160488
v -0.842261 0.629990 -0.160488
v -1.024313 0.629990 -0.160488
v -1.024313 0.629990 0.160489
v -0.842261 0.629990 0.160488
v -0.842261 0.516821 0.160488
v -1.024313 0.516821 0.160489
v -1.013909 0.516821 0.266571
v -0.831858 0.516821 0.266571
v -0.831858 0.629990 0.266571
v -1.013909 0.629990 0.266571
v -1.137482 0.629990 -0.160488
v -1.137482 0.516821 -0.160488
v -1.145284 0.516821 0.000000
v -1.145284 0.629990 0.000000
v -1.024313 0.629990 0.160489
v -1.024313 0.516821 0.160489
v -1.032115 0.516821 0.000000
v -1.032115 0.629990 0.000000
v 0.000000 0.205533 -0.816478
v -0.585481 0.607100 -0.805846
v 0.000000 0.607100 -0.996081
v -0.479914 0.205533 -0.660545
v -0.446604 0.089531 -0.614698
v 0.000000 0.089531 -0.759808
v 0.000000 0.089531 -0.759808
v 0.000000 0.041482 -0.622995
v -0.366187 0.041482 -0.504013
v -0.446604 0.089531 -0.614698
v -0.446604 0.089531 -0.614698
v -0.366187 0.041482 -0.504013
v -0.592503 0.041482 -0.192516
v -0.722620 0.089531 -0.234794
v -0.722620 0.089531 -0.234794
v -0.592503 0.041482 -0.192516
v -0.592503 0.041482 0.192516
v -0.722620 0.089532 0.234794
v -0.722620 0.089532 0.234794
v -0.592503 0.041482 0.192516
v -0.366187 0.041482 0.504013
v -0.446604 0.089532 0.614698
v -0.479914 0.205533 0.660545
v 0.000000 0.607100 0.996081
v -0.585481 0.607100 0.805846
v 0.000000 0.205533 0.816478
v 0.000000 0.089532 0.759808
v -0.446604 0.089532 0.614698
v 0.000000 0.089532 0.759808
v 0.000000 0.041482 0.622995
v 0.366187 0.041482 0.504013
v 0.446604 0.089532 0.614698
v 0.446604 0.089532 0.614698
v 0.366187 0.041482 0.504013
v 0.592503 0.041482 0.192516
v 0.722620 0.089532 0.234794
v 0.722620 0.089532 0.234794
v 0.592503 0.041482 0.192516
v 0.592503 0.041482 -0.192516
v 0.722620 0.089531 -0.234794
v 0.722620 0.089531 -0.234794
v 0.592503 0.041482 -0.192516
v 0.366187 0.041482 -0.504013
v 0.446604 0.089531 -0.614698
v 0.446604 0.089531 -0.614698
v 0.366187 0.041482 -0.504013
v 0.000000 0.041482 -0.622995
v 0.000000 0.089531 -0.759808
v -0.366187 0.041482 0.504013
v -0.592503 0.041482 0.192516
v -0.592503 0.041482 -0.192516
v -0.366187 0.041482 -0.504013
v 0.000000 0.041482 -0.622995
v 0.000000 0.041482 0.622995
v 0.366187 0.041482 -0.504013
v 0.366187 0.041482 0.504013
v 0.592503 0.041482 -0.192516
v 0.592503 0.041482 0.192516
v -0.585481 0.607100 -0.805846
v -0.570251 0.663902 -0.784883
v 0.000000 0.663902 -0.970168
v 0.000000 0.607100 -0.996081
v -0.947329 0.607100 -0.307806
v -0.922685 0.663902 -0.299799
v -0.570251 0.663902 -0.784883
v -0.585481 0.607100 -0.805846
v -0.947329 0.607100 0.307806
v -0.922685 0.663902 0.299798
v -0.922685 0.663902 -0.299799
v -0.947329 0.607100 -0.307806
v -0.585481 0.607100 0.805846
v -0.570251 0.663903 0.784883
v -0.922685 0.663902 0.299798
v -0.947329 0.607100 0.307806
v 0.585482 0.607100 0.805846
v 0.570251 0.663903 0.784883
v 0.000000 0.663903 0.970168
v 0.000000 0.607100 0.996081
v 0.947329 0.607100 0.307806
v 0.922685 0.663902 0.299799
v 0.570251 0.663903 0.784883
v 0.585482 0.607100 0.805846
v 0.947329 0.607100 -0.307806
v 0.922685 0.663902 -0.299799
v 0.922685 0.663902 0.299799
v 0.947329 0.607100 0.307806
v 0.585481 0.607100 -0.805846
v 0.570250 0.663902 -0.784883
v 0.922685 0.663902 -0.299799
v 0.947329 0.607100 -0.307806
v 0.000000 0.607100 -0.996081
v 0.000000 0.663902 -0.970168
v 0.570250 0.663902 -0.784883
v 0.585481 0.607100 -0.805846
v -0.446604 0.089532 0.614698
v -0.366187 0.041482 0.504013
v 0.000000 0.041482 0.622995
v 0.000000 0.089532 0.759808
v 1.032115 0.629990 -0.000001
v 1.032115 0.516821 -0.000001
v 1.024313 0.516821 0.160487
v 1.024313 0.629990 0.160487
v 1.024313 0.629990 0.160487
v 1.013910 0.629990 0.266570
v 1.110608 0.623484 0.235920
v 1.137482 0.629990 0.160487
v 1.145284 0.629990 -0.000001
v 1.145284 0.516821 -0.000001
v 1.137482 0.516821 -0.160489
v 1.137482 0.629990 -0.160489
v 1.137482 0.629990 0.160487
v 1.110608 0.623484 0.235920
v 1.110608 0.523327 0.235921
v 1.137482 0.516821 0.160487
v 1.145284 0.516821 -0.000001
v 1.024313 0.516821 -0.160489
v 1.137482 0.516821 -0.160489
v 1.032115 0.516821 -0.000001
v 1.137482 0.516821 0.160487
v 1.024313 0.516821 0.160487
v 0.842260 0.516821 -0.160489
v 0.831858 0.516821 -0.266571
v 1.013909 0.516821 -0.266572
v 1.013910 0.516821 0.266570
v 0.842261 0.516821 0.160488
v 0.831858 0.516821 0.266570
v 1.013910 0.629990 0.266570
v 1.013910 0.516821 0.266570
v 1.110608 0.523327 0.235921
v 1.110608 0.623484 0.235920
v 1.110607 0.623484 -0.235922
v 1.110607 0.523327 -0.235922
v 1.013909 0.516821 -0.266572
v 1.013909 0.629990 -0.266572
v 1.024313 0.516821 -0.160489
v 1.013909 0.516821 -0.266572
v 1.110607 0.523327 -0.235922
v 1.137482 0.516821 -0.160489
v 1.137482 0.516821 -0.160489
v 1.110607 0.523327 -0.235922
v 1.110607 0.623484 -0.235922
v 1.137482 0.629990 -0.160489
v 1.137482 0.516821 0.160487
v 1.110608 0.523327 0.235921
v 1.013910 0.516821 0.266570
v 1.024313 0.516821 0.160487
v 1.137482 0.629990 -0.160489
v 1.110607 0.623484 -0.235922
v 1.013909 0.629990 -0.266572
v 1.024313 0.629990 -0.160489
v 0.842261 0.516821 0.160488
v 0.831858 0.516821 0.266570
v 0.831858 0.629990 0.266570
v 0.842261 0.629990 0.160487
v 0.842260 0.629990 -0.160489
v 0.831858 0.629990 -0.266571
v 0.831858 0.516821 -0.266571
v 0.842260 0.516821 -0.160489
v 1.013910 0.629990 0.266570
v 0.831858 0.629990 0.266570
v 0.831858 0.516821 0.266570
v 1.013910 0.516821 0.266570
v 1.024313 0.629990 0.160487
v 0.842261 0.629990 0.160487
v 0.831858 0.629990 0.266570
v 1.013910 0.629990 0.266570
v 1.137482 0.629990 0.160487
v 1.145284 0.629990 -0.000001
v 1.032115 0.629990 -0.000001
v 1.137482 0.629990 -0.160489
v 1.024313 0.629990 -0.160489
v 1.013909 0.629990 -0.266572
v 0.842260 0.629990 -0.160489
v 0.831858 0.629990 -0.266571
v 1.024313 0.516821 0.160487
v 0.842261 0.516821 0.160488
v 0.842261 0.629990 0.160487
v 1.024313 0.629990 0.160487
v 1.024313 0.629990 -0.160489
v 0.842260 0.629990 -0.160489
v 0.842260 0.516821 -0.160489
v 1.024313 0.516821 -0.160489
v 1.013909 0.516821 -0.266572
v 0.831858 0.516821 -0.266571
v 0.831858 0.629990 -0.266571
v 1.013909 0.629990 -0.266572
v 1.137482 0.629990 0.160487
v 1.137482 0.516821 0.160487
v 1.145284 0.516821 -0.000001
v 1.145284 0.629990 -0.000001
v 1.024313 0.629990 -0.160489
v 1.024313 0.516821 -0.160489
v 1.032115 0.516821 -0.000001
v 1.032115 0.629990 -0.000001
v -0.570251 0.663903 0.784883
v -0.510236 0.663903 0.702280
v -0.825580 0.663902 0.268247
v -0.922685 0.663902 0.299798
v 0.000000 0.663903 0.970168
v -0.825580 0.663902 -0.268247
v 0.000000 0.663903 0.868066
v -0.922685 0.663902 -0.299799
v 0.570251 0.663903 0.784883
v -0.510237 0.663902 -0.702280
v 0.510237 0.663903 0.702280
v -0.570251 0.663902 -0.784883
v 0.922685 0.663902 0.299799
v 0.000000 0.663902 -0.868066
v 0.825580 0.663902 0.268247
v 0.000000 0.663902 -0.970168
v 0.922685 0.663902 -0.299799
v 0.510236 0.663902 -0.702281
v 0.825580 0.663902 -0.268247
v 0.570250 0.663902 -0.784883
vn -0.283486 0.398011 0.872481
vn -0.283486 0.398011 0.872481
vn -0.283486 0.398011 0.872481
vn -0.283486 0.398011 0.872481
vn 0.285036 0.386244 0.877251
vn 0.285036 0.386244 0.877251
vn 0.285036 0.386244 0.877251
vn 0.285036 0.386244 0.877251
vn 0.284081 0.393548 0.874310
vn 0.284081 0.393548 0.874310
vn -0.744466 -0.391424 -0.540886
vn -0.744466 -0.391424 -0.540886
vn -0.744466 -0.391424 -0.540886
vn -0.744466 -0.391424 -0.540886
vn -0.733693 -0.421359 -0.533059
vn -0.733693 -0.421359 -0.533059
vn 0.746235 0.386244 -0.542171
vn 0.746235 0.386244 -0.542171
vn 0.746235 0.386244 -0.542171
vn 0.746235 0.386244 -0.542171
vn 0.743732 0.393549 -0.540353
vn 0.743732 0.393549 -0.540353
vn 0.744466 -0.391424 -0.540886
vn 0.744466 -0.391424 -0.540886
vn 0.744466 -0.391424 -0.540886
vn 0.744466 -0.391424 -0.540886
vn 0.733693 -0.421358 -0.533059
vn 0.733693 -0.421358 -0.533059
vn 0.920210 -0.391424 0.000000
vn 0.920210 -0.391424 0.000000
vn 0.920210 -0.391424 0.000000
vn 0.920210 -0.391424 0.000000
vn 0.906895 -0.421358 0.000000
vn 0.906895 -0.421358 0.000000
vn 0.744466 -0.391424 0.540886
vn 0.744466 -0.391424 0.540886
vn 0.744466 -0.391424 0.540886
vn 0.744466 -0.391424 0.540886
vn 0.733693 -0.421358 0.533059
vn 0.733693 -0.421358 0.533059
vn 0.284361 -0.391424 0.875172
vn 0.284361 -0.391424 0.875172
vn 0.284361 -0.391424 0.875172
vn 0.284361 -0.391424 0.875172
vn 0.280246 -0.421358 0.862508
vn 0.280246 -0.421358 0.862508
vn -0.744466 -0.391424 0.540886
vn -0.744466 -0.391424 0.540886
vn -0.744466 -0.391424 0.540886
vn -0.744466 -0.391424 0.540886
vn -0.733693 -0.421358 0.533059
vn -0.733693 -0.421358 0.533059
vn 0.284361 -0.391424 -0.875172
vn 0.284361 -0.391424 -0.875172
vn 0.284361 -0.391424 -0.875172
vn 0.284361 -0.391424 -0.875172
vn 0.280246 -0.421359 -0.862508
vn 0.280246 -0.421359 -0.862508
vn -0.920210 -0.391424 0.000000
vn -0.920210 -0.391424 0.000000
vn -0.920210 -0.391424 0.000000
vn -0.920210 -0.391424 0.000000
vn -0.906894 -0.421358 0.000000
vn -0.906894 -0.421358 0.000000
vn 0.000000 1.000000 0.000000
vn 0.000000 1.000000 0.000000
vn 0.000000 1.000000 0.000000
vn 0.000000 1.000000 0.000000
vn 0.000000 1.000000 0.000000
vn 0.000000 1.000000 0.000000
vn 0.000000 1.000000 0.000000
vn 0.000000 1.000000 0.000000
vn 0.000000 1.000000 0.000000
vn 0.000000 1.000000 0.000000
vn 0.922397 0.386244 0.000000
vn 0.922397 0.386244 0.000000
vn 0.922397 0.386244 0.000000
vn 0.922397 0.386244 0.000000
vn 0.919304 0.393548 0.000000
vn 0.919304 0.393548 0.000000
vn -0.922397 0.386244 0.000000
vn -0.922397 0.386244 0.000000
vn -0.922397 0.386244 0.000000
vn -0.922397 0.386244 0.000000
vn -0.919304 0.393549 0.000000
vn -0.919304 0.393549 0.000000
vn 0.284081 0.393548 -0.874310
vn 0.284081 0.393548 -0.874310
vn 0.284081 0.393548 -0.874310
vn 0.284081 0.393548 -0.874310
vn 0.285036 0.386244 -0.877251
vn 0.285036 0.386244 -0.877251
vn 0.746235 0.386244 0.542171
vn 0.746235 0.386244 0.542171
vn 0.746235 0.386244 0.542171
vn 0.746235 0.386244 0.542171
vn 0.743733 0.393549 0.540353
vn 0.743733 0.393549 0.540353
vn -0.746235 0.386244 0.542171
vn -0.746235 0.386244 0.542171
vn -0.746235 0.386244 0.542171
vn -0.746235 0.386244 0.542171
vn -0.743733 0.393549 0.540353
vn -0.743733 0.393549 0.540353
vn -0.285036 0.386244 -0.877251
vn -0.285036 0.386244 -0.877251
vn -0.285036 0.386244 -0.877251
vn -0.285036 0.386244 -0.877251
vn -0.284081 0.393548 -0.874310
vn -0.284081 0.393548 -0.874310
vn -0.285036 0.386244 0.877251
vn -0.285036 0.386244 0.877251
vn -0.285036 0.386244 0.877251
vn -0.285036 0.386244 0.877251
vn -0.284080 0.393548 0.874310
vn -0.284080 0.393548 0.874310
vn -0.746235 0.386244 -0.542171
vn -0.746235 0.386244 -0.542171
vn -0.746235 0.386244 -0.542171
vn -0.746235 0.386244 -0.542171
vn -0.743733 0.393548 -0.540353
vn -0.743733 0.393548 -0.540353
vn 0.998820 0.000000 0.048558
vn 0.998820 0.000000 0.048558
vn 0.998820 0.000000 0.048558
vn 0.998820 0.000000 0.048558
vn -0.037294 0.998360 -0.043442
vn -0.037294 0.998360 -0.043442
vn -0.037294 0.998360 -0.043442
vn -0.037294 0.998360 -0.043442
vn -0.998820 0.000000 0.048559
vn -0.998820 0.000000 0.048559
vn -0.998820 0.000000 0.048559
vn -0.998820 0.000000 0.048559
vn -0.942004 0.000000 -0.335601
vn -0.942004 0.000000 -0.335601
vn -0.942004 0.000000 -0.335601
vn -0.942004 0.000000 -0.335601
vn 0.000000 -1.000000 0.000000
vn 0.000000 -1.000000 0.000000
vn 0.000000 -1.000000 0.000000
vn 0.000000 -1.000000 0.000000
vn 0.000000 -1.000000 0.000000
vn 0.000000 -1.000000 0.000000
vn 0.000000 -1.000000 0.000000
vn 0.000000 -1.000000 0.000000
vn 0.000000 -1.000000 0.000000
vn 0.000000 -1.000000 0.000000
vn 0.000000 -1.000000 0.000000
vn 0.000000 -1.000000 0.000000
vn -0.302146 0.000000 -0.953262
vn -0.302146 0.000000 -0.953262
vn -0.302146 0.000000 -0.953262
vn -0.302146 0.000000 -0.953262
vn -0.302146 0.000000 0.953262
vn -0.302146 0.000000 0.953262
vn -0.302146 0.000000 0.953262
vn -0.302146 0.000000 0.953262
vn -0.037294 -0.998360 0.043442
vn -0.037294 -0.998360 0.043442
vn -0.037294 -0.998360 0.043442
vn -0.037294 -0.998360 0.043442
vn -0.942003 0.000000 0.335604
vn -0.942003 0.000000 0.335604
vn -0.942003 0.000000 0.335604
vn -0.942003 0.000000 0.335604
vn -0.037294 -0.998360 -0.043442
vn -0.037294 -0.998360 -0.043442
vn -0.037294 -0.998360 -0.043442
vn -0.037294 -0.998360 -0.043442
vn -0.037293 0.998360 0.043442
vn -0.037293 0.998360 0.043442
vn -0.037293 0.998360 0.043442
vn -0.037293 0.998360 0.043442
vn 0.995226 0.000000 0.097596
vn 0.995226 0.000000 0.097596
vn 0.995226 0.000000 0.097596
vn 0.995226 0.000000 0.097596
vn 0.995226 0.000000 -0.097596
vn 0.995226 0.000000 -0.097596
vn 0.995226 0.000000 -0.097596
vn 0.995226 0.000000 -0.097596
vn 0.000000 0.000000 -1.000000
vn 0.000000 0.000000 -1.000000
vn 0.000000 0.000000 -1.000000
vn 0.000000 0.000000 -1.000000
vn 0.000000 1.000000 0.000000
vn 0.000000 1.000000 0.000000
vn 0.000000 1.000000 0.000000
vn 0.000000 1.000000 0.000000
vn 0.000000 1.000000 0.000000
vn 0.000000 1.000000 0.000000
vn 0.000000 1.000000 0.000000
vn 0.000000 1.000000 0.000000
vn 0.000000 1.000000 0.000000
vn 0.000000 1.000000 0.000000
vn 0.000000 1.000000 0.000000
vn 0.000000 1.000000 0.000000
vn 0.000000 0.000000 1.000000
vn 0.000000 0.000000 1.000000
vn 0.000000 0.000000 1.000000
vn 0.000000 0.000000 1.000000
vn 0.000000 0.000000 -1.000000
vn 0.000000 0.000000 -1.000000
vn 0.000000 0.000000 -1.000000
vn 0.000000 0.000000 -1.000000
vn 0.000000 0.000000 1.000000
vn 0.000000 0.000000 1.000000
vn 0.000000 0.000000 1.000000
vn 0.000000 0.000000 1.000000
vn -0.998820 0.000000 -0.048559
vn -0.998820 0.000000 -0.048559
vn -0.998820 0.000000 -0.048559
vn -0.998820 0.000000 -0.048559
vn 0.998820 0.000000 -0.048558
vn 0.998820 0.000000 -0.048558
vn 0.998820 0.000000 -0.048558
vn 0.998820 0.000000 -0.048558
vn -0.284361 -0.391424 -0.875172
vn -0.284361 -0.391424 -0.875172
vn -0.284361 -0.391424 -0.875172
vn -0.284361 -0.391424 -0.875172
vn -0.280246 -0.421358 -0.862508
vn -0.280246 -0.421358 -0.862508
vn -0.107048 -0.938082 -0.329458
vn -0.107048 -0.938082 -0.329458
vn -0.107048 -0.938082 -0.329458
vn -0.107048 -0.938082 -0.329458
vn -0.280254 -0.938082 -0.203616
vn -0.280254 -0.938082 -0.203616
vn -0.280254 -0.938082 -0.203616
vn -0.280254 -0.938082 -0.203616
vn -0.346413 -0.938082 0.000000
vn -0.346413 -0.938082 0.000000
vn -0.346413 -0.938082 0.000000
vn -0.346413 -0.938082 0.000000
vn -0.280254 -0.938082 0.203616
vn -0.280254 -0.938082 0.203616
vn -0.280254 -0.938082 0.203616
vn -0.280254 -0.938082 0.203616
vn -0.284361 -0.391424 0.875172
vn -0.284361 -0.391424 0.875172
vn -0.284361 -0.391424 0.875172
vn -0.284361 -0.391424 0.875172
vn -0.280246 -0.421358 0.862508
vn -0.280246 -0.421358 0.862508
vn 0.107048 -0.938082 0.329458
vn 0.107048 -0.938082 0.329458
vn 0.107048 -0.938082 0.329458
vn 0.107048 -0.938082 0.329458
vn 0.280254 -0.938082 0.203616
vn 0.280254 -0.938082 0.203616
vn 0.280254 -0.938082 0.203616
vn 0.280254 -0.938082 0.203616
vn 0.346413 -0.938082 0.000000
vn 0.346413 -0.938082 0.000000
vn 0.346413 -0.938082 0.000000
vn 0.346413 -0.938082 0.000000
vn 0.280254 -0.938082 -0.203616
vn 0.280254 -0.938082 -0.203616
vn 0.280254 -0.938082 -0.203616
vn 0.280254 -0.938082 -0.203616
vn 0.107047 -0.938082 -0.329458
vn 0.107047 -0.938082 -0.329458
vn 0.107047 -0.938082 -0.329458
vn 0.107047 -0.938082 -0.329458
vn 0.000000 -1.000000 0.000000
vn 0.000000 -1.000000 0.000000
vn 0.000000 -1.000000 0.000000
vn 0.000000 -1.000000 0.000000
vn 0.000000 -1.000000 0.000000
vn 0.000000 -1.000000 0.000000
vn 0.000000 -1.000000 0.000000
vn 0.000000 -1.000000 0.000000
vn 0.000000 -1.000000 0.000000
vn 0.000000 -1.000000 0.000000
vn -0.283487 0.398010 -0.872481
vn -0.283487 0.398010 -0.872481
vn -0.283487 0.398010 -0.872481
vn -0.283487 0.398010 -0.872481
vn -0.742177 0.398010 -0.539223
vn -0.742177 0.398010 -0.539223
vn -0.742177 0.398010 -0.539223
vn -0.742177 0.398010 -0.539223
vn -0.917381 0.398011 0.000000
vn -0.917381 0.398011 0.000000
vn -0.917381 0.398011 0.000000
vn -0.917381 0.398011 0.000000
vn -0.742177 0.398010 0.539223
vn -0.742177 0.398010 0.539223
vn -0.742177 0.398010 0.539223
vn -0.742177 0.398010 0.539223
vn 0.283487 0.398010 0.872481
vn 0.283487 0.398010 0.872481
vn 0.283487 0.398010 0.872481
vn 0.283487 0.398010 0.872481
vn 0.742177 0.398010 0.539223
vn 0.742177 0.398010 0.539223
vn 0.742177 0.398010 0.539223
vn 0.742177 0.398010 0.539223
vn 0.917381 0.398010 0.000000
vn 0.917381 0.398010 0.000000
vn 0.917381 0.398010 0.000000
vn 0.917381 0.398010 0.000000
vn 0.742177 0.398010 -0.539223
vn 0.742177 0.398010 -0.539223
vn 0.742177 0.398010 -0.539223
vn 0.742177 0.398010 -0.539223
vn 0.283486 0.398010 -0.872481
vn 0.283486 0.398010 -0.872481
vn 0.283486 0.398010 -0.872481
vn 0.283486 0.398010 -0.872481
vn -0.107048 -0.938082 0.329458
vn -0.107048 -0.938082 0.329458
vn -0.107048 -0.938082 0.329458
vn -0.107048 -0.938082 0.329458
vn -0.998820 0.000000 -0.048558
vn -0.998820 0.000000 -0.048558
vn -0.998820 0.000000 -0.048558
vn -0.998820 0.000000 -0.048558
vn 0.037293 0.998360 0.043442
vn 0.037293 0.998360 0.043442
vn 0.037293 0.998360 0.043442
vn 0.037293 0.998360 0.043442
vn 0.998820 0.000000 -0.048559
vn 0.998820 0.000000 -0.048559
vn 0.998820 0.000000 -0.048559
vn 0.998820 0.000000 -0.048559
vn 0.942005 0.000000 0.335600
vn 0.942005 0.000000 0.335600
vn 0.942005 0.000000 0.335600
vn 0.942005 0.000000 0.335600
vn 0.000000 -1.000000 0.000000
vn 0.000000 -1.000000 0.000000
vn 0.000000 -1.000000 0.000000
vn 0.000000 -1.000000 0.000000
vn 0.000000 -1.000000 0.000000
vn 0.000000 -1.000000 0.000000
vn 0.000000 -1.000000 0.000000
vn 0.000000 -1.000000 0.000000
vn 0.000000 -1.000000 0.000000
vn 0.000000 -1.000000 0.000000
vn 0.000000 -1.000000 0.000000
vn 0.000000 -1.000000 0.000000
vn 0.302146 0.000000 0.953262
vn 0.302146 0.000000 0.953262
vn 0.302146 0.000000 0.953262
vn 0.302146 0.000000 0.953262
vn 0.302145 0.000000 -0.953262
vn 0.302145 0.000000 -0.953262
vn 0.302145 0.000000 -0.953262
vn 0.302145 0.000000 -0.953262
vn 0.037294 -0.998360 -0.043442
vn 0.037294 -0.998360 -0.043442
vn 0.037294 -0.998360 -0.043442
vn 0.037294 -0.998360 -0.043442
vn 0.942003 0.000000 -0.335605
vn 0.942003 0.000000 -0.335605
vn 0.942003 0.000000 -0.335605
vn 0.942003 0.000000 -0.335605
vn 0.037294 -0.998360 0.043442
vn 0.037294 -0.998360 0.043442
vn 0.037294 -0.998360 0.043442
vn 0.037294 -0.998360 0.043442
vn 0.037293 0.998360 -0.043442
vn 0.037293 0.998360 -0.043442
vn 0.037293 0.998360 -0.043442
vn 0.037293 0.998360 -0.043442
vn -0.995226 0.000000 -0.097596
vn -0.995226 0.000000 -0.097596
vn -0.995226 0.000000 -0.097596
vn -0.995226 0.000000 -0.097596
vn -0.995226 0.000000 0.097596
vn -0.995226 0.000000 0.097596
vn -0.995226 0.000000 0.097596
vn -0.995226 0.000000 0.097596
vn 0.000001 0.000000 1.000000
vn 0.000001 0.000000 1.000000
vn 0.000001 0.000000 1.000000
vn 0.000001 0.000000 1.000000
vn 0.000000 1.000000 0.000000
vn 0.000000 1.000000 0.000000
vn 0.000000 1.000000 0.000000
vn 0.000000 1.000000 0.000000
vn 0.000000 1.000000 0.000000
vn 0.000000 1.000000 0.000000
vn 0.000000 1.000000 0.000000
vn 0.000000 1.000000 0.000000
vn 0.000000 1.000000 0.000000
vn 0.000000 1.000000 0.000000
vn 0.000000 1.000000 0.000000
vn 0.000000 1.000000 0.000000
vn -0.000001 0.000000 -1.000000
vn -0.000001 0.000000 -1.000000
vn -0.000001 0.000000 -1.000000
vn -0.000001 0.000000 -1.000000
vn 0.000001 0.000000 1.000000
vn 0.000001 0.000000 1.000000
vn 0.000001 0.000000 1.000000
vn 0.000001 0.000000 1.000000
vn -0.000001 0.000000 -1.000000
vn -0.000001 0.000000 -1.000000
vn -0.000001 0.000000 -1.000000
vn -0.000001 0.000000 -1.000000
vn 0.998820 0.000000 0.048559
vn 0.998820 0.000000 0.048559
vn 0.998820 0.000000 0.048559
vn 0.998820 0.000000 0.048559
vn -0.998820 0.000000 0.048558
vn -0.998820 0.000000 0.048558
vn -0.998820 0.000000 0.048558
vn -0.998820 0.000000 0.048558
vn 0.000000 1.000000 0.000000
vn 0.000000 1.000000 0.000000
vn 0.000000 1.000000 0.000000
vn 0.000000 1.000000 0.000000
vn 0.000000 1.000000 0.000000
vn -0.000001 1.000000 0.000000
vn 0.000000 1.000000 0.000000
vn -0.000001 1.000000 0.000000
vn 0.000000 1.000000 0.000000
vn 0.000000 1.000000 0.000000
vn 0.000000 1.000000 0.000000
vn 0.000000 1.000000 0.000000
vn 0.000000 1.000000 0.000000
vn 0.000000 1.000000 0.000000
vn 0.000000 1.000000 0.000000
vn 0.000000 1.000000 0.000000
vn 0.000000 1.000000 0.000000
vn 0.000000 1.000000 0.000000
vn 0.000000 1.000000 0.000000
vn 0.000000 1.000000 0.000000
g CookingPot2_Grey
usemtl Grey
f 1 2 3
f 1 3 4
f 5 6 7
f 5 7 8
f 9 5 8
f 9 8 10
f 11 12 13
f 11 14 12
f 11 15 14
f 11 16 15
f 17 18 19
f 17 19 20
f 21 17 20
f 21 20 22
f 23 24 25
f 23 26 24
f 23 27 26
f 23 28 27
f 29 30 31
f 29 32 30
f 29 33 32
f 29 34 33
f 35 36 37
f 35 38 36
f 35 39 38
f 35 40 39
f 41 42 43
f 41 44 42
f 41 45 44
f 41 46 45
f 47 48 49
f 47 50 48
f 47 51 50
f 47 52 51
f 53 54 55
f 53 56 54
f 53 57 56
f 53 58 57
f 59 60 61
f 59 62 60
f 59 63 62
f 59 64 63
f 65 66 67
f 67 68 65
f 68 69 65
f 68 70 69
f 70 71 69
f 70 72 71
f 72 73 71
f 72 74 73
f 75 76 77
f 75 77 78
f 79 75 78
f 79 78 80
f 81 82 83
f 81 83 84
f 85 81 84
f 85 84 86
f 87 88 89
f 87 90 88
f 91 88 90
f 91 90 92
f 93 94 95
f 93 95 96
f 97 93 96
f 97 96 98
f 99 100 101
f 99 101 102
f 103 99 102
f 103 102 104
f 105 106 107
f 105 107 108
f 109 105 108
f 109 108 110
f 111 112 113
f 111 113 114
f 115 111 114
f 115 114 116
f 117 118 119
f 117 119 120
f 121 117 120
f 121 120 122
f 123 124 125
f 123 125 126
f 127 128 129
f 127 129 130
f 131 132 133
f 131 133 134
f 135 136 137
f 135 137 138
f 139 140 141
f 139 142 140
f 143 142 139
f 143 144 142
f 140 145 146
f 140 146 147
f 148 149 144
f 148 150 149
f 151 152 153
f 151 153 154
f 155 156 157
f 155 157 158
f 159 160 161
f 159 161 162
f 163 164 165
f 163 165 166
f 167 168 169
f 167 169 170
f 171 172 173
f 171 173 174
f 175 176 177
f 175 177 178
f 179 180 181
f 179 181 182
f 183 184 185
f 183 185 186
f 187 188 189
f 187 189 190
f 187 191 192
f 187 192 193
f 193 192 194
f 193 194 195
f 196 197 195
f 196 198 197
f 199 200 201
f 199 201 202
f 203 204 205
f 203 205 206
f 207 208 209
f 207 209 210
f 211 212 213
f 211 213 214
f 215 216 217
f 215 217 218
f 219 220 221
f 219 222 220
f 219 223 222
f 219 224 223
f 225 226 227
f 225 227 228
f 229 230 231
f 229 231 232
f 233 234 235
f 233 235 236
f 237 238 239
f 237 239 240
f 241 242 243
f 241 244 242
f 241 245 244
f 241 246 245
f 247 248 249
f 247 249 250
f 251 252 253
f 251 253 254
f 255 256 257
f 255 257 258
f 259 260 261
f 259 261 262
f 263 264 265
f 263 265 266
f 267 268 269
f 269 270 267
f 270 271 267
f 271 272 267
f 271 273 272
f 273 274 272
f 273 275 274
f 275 276 274
f 277 278 279
f 277 279 280
f 281 282 283
f 281 283 284
f 285 286 287
f 285 287 288
f 289 290 291
f 289 291 292
f 293 294 295
f 293 295 296
f 297 298 299
f 297 299 300
f 301 302 303
f 301 303 304
f 305 306 307
f 305 307 308
f 309 310 311
f 309 311 312
f 313 314 315
f 313 315 316
f 317 318 319
f 317 319 320
f 321 322 323
f 321 323 324
f 325 326 327
f 325 327 328
f 329 330 331
f 329 331 332
f 333 334 335
f 333 336 334
f 337 336 333
f 337 338 336
f 334 339 340
f 334 340 341
f 342 343 338
f 342 344 343
f 345 346 347
f 345 347 348
f 349 350 351
f 349 351 352
f 353 354 355
f 353 355 356
f 357 358 359
f 357 359 360
f 361 362 363
f 361 363 364
f 365 366 367
f 365 367 368
f 369 370 371
f 369 371 372
f 373 374 375
f 373 375 376
f 377 378 379
f 377 379 380
f 381 382 383
f 381 383 384
f 381 385 386
f 381 386 387
f 387 386 388
f 387 388 389
f 390 391 389
f 390 392 391
f 393 394 395
f 393 395 396
f 397 398 399
f 397 399 400
f 401 402 403
f 401 403 404
f 405 406 407
f 405 407 408
f 409 410 411
f 409 411 412
f 413 414 415
f 413 415 416
f 417 414 413
f 416 415 418
f 417 419 414
f 416 418 420
f 421 419 417
f 420 418 422
f 421 423 419
f 420 422 424
f 425 423 421
f 424 422 426
f 425 427 423
f 424 426 428
f 429 427 425
f 428 426 430
f 429 431 427
f 428 430 432
f 432 431 429
f 432 430 431
