mtllib Materials.mtl
# Ultimate Food Pack - CookingPot
o CookingPot
v 0.000000 0.663903 0.970168
v -0.570251 0.663903 0.784883
v -0.585481 0.607100 0.805846
v 0.000000 0.607100 0.996081
v -0.495208 0.607100 -0.681595
v -0.495208 -0.359459 -0.681595
v 0.000000 -0.359459 -0.842498
v 0.000000 0.607100 -0.842498
v -0.585481 -0.211660 -0.805846
v -0.947329 -0.211660 -0.307806
v -0.947329 0.607100 -0.307806
v -0.585481 0.607100 -0.805846
v -0.495208 0.607100 0.681595
v -0.495208 -0.359458 0.681595
v -0.801263 -0.359459 0.260346
v -0.801263 0.607100 0.260346
v 0.947329 -0.211660 -0.307806
v 0.585481 -0.211660 -0.805846
v 0.585481 0.607100 -0.805846
v 0.947329 0.607100 -0.307806
v 0.947329 -0.211660 0.307806
v 0.947329 -0.211660 -0.307806
v 0.947329 0.607100 -0.307806
v 0.947329 0.607100 0.307806
v 0.585482 -0.211660 0.805846
v 0.947329 -0.211660 0.307806
v 0.947329 0.607100 0.307806
v 0.585482 0.607100 0.805846
v 0.000000 -0.211660 0.996081
v 0.585482 -0.211660 0.805846
v 0.585482 0.607100 0.805846
v 0.000000 0.607100 0.996081
v -0.947329 -0.211660 0.307806
v -0.585481 -0.211660 0.805846
v -0.585481 0.607100 0.805846
v -0.947329 0.607100 0.307806
v 0.585481 -0.211660 -0.805846
v 0.000000 -0.211660 -0.996081
v 0.000000 0.607100 -0.996081
v 0.585481 0.607100 -0.805846
v -0.947329 -0.211660 -0.307806
v -0.947329 -0.211660 0.307806
v -0.947329 0.607100 0.307806
v -0.947329 0.607100 -0.307806
v -0.495208 -0.359459 -0.681595
v -0.801263 -0.359459 -0.260346
v -0.801263 -0.359459 0.260346
v -0.495208 -0.359458 0.681595
v 0.000000 -0.359459 -0.842498
v 0.000000 -0.359458 0.842498
v 0.495208 -0.359459 -0.681595
v 0.495208 -0.359458 0.681595
v 0.801263 -0.359459 -0.260346
v 0.801263 -0.359459 0.260346
v -0.801263 0.607100 0.260346
v -0.801263 -0.359459 0.260346
v -0.801263 -0.359459 -0.260346
v -0.801263 0.607100 -0.260346
v 0.801263 0.607100 -0.260346
v 0.801263 -0.359459 -0.260346
v 0.801263 -0.359459 0.260346
v 0.801263 0.607100 0.260346
v 0.000000 0.663903 0.868066
v 0.000000 0.607100 0.842498
v -0.495208 0.607100 0.681595
v -0.510236 0.663903 0.702280
v -0.801263 0.607100 -0.260346
v -0.801263 -0.359459 -0.260346
v -0.495208 -0.359459 -0.681595
v -0.495208 0.607100 -0.681595
v 0.495208 0.607100 -0.681595
v 0.495208 -0.359459 -0.681595
v 0.801263 -0.359459 -0.260346
v 0.801263 0.607100 -0.260346
v 0.495208 0.607100 0.681595
v 0.495208 -0.359458 0.681595
v 0.000000 -0.359458 0.842498
v 0.000000 0.607100 0.842498
v 0.000000 0.607100 -0.842498
v 0.000000 -0.359459 -0.842498
v 0.495208 -0.359459 -0.681595
v 0.495208 0.607100 -0.681595
v 0.801263 0.607100 0.260346
v 0.801263 -0.359459 0.260346
v 0.495208 -0.359458 0.681595
v 0.495208 0.607100 0.681595
v -1.070429 0.402008 0.000000
v -1.070429 0.288839 0.000000
v -1.062627 0.288839 -0.160488
v -1.062627 0.402008 -0.160488
v -1.062627 0.402008 -0.160488
v -1.052224 0.402008 -0.266570
v -1.148922 0.395502 -0.235921
v -1.175796 0.402008 -0.160488
v -1.183598 0.402008 0.000000
v -1.183598 0.288839 0.000000
v -1.175796 0.288839 0.160489
v -1.175796 0.402008 0.160489
v -1.175796 0.402008 -0.160488
v -1.148922 0.395502 -0.235921
v -1.148922 0.295344 -0.235921
v -1.175796 0.288839 -0.160488
v -1.183598 0.288839 0.000000
v -1.062627 0.288839 0.160489
v -1.175796 0.288839 0.160489
v -1.070429 0.288839 0.000000
v -1.175796 0.288839 -0.160488
v -1.062627 0.288839 -0.160488
v -0.880575 0.288839 0.160488
v -0.870172 0.288839 0.266571
v -1.052224 0.288839 0.266571
v -1.052224 0.288839 -0.266570
v -0.880575 0.288839 -0.160488
v -0.870172 0.288839 -0.266570
v -1.052224 0.402008 -0.266570
v -1.052224 0.288839 -0.266570
v -1.148922 0.295344 -0.235921
v -1.148922 0.395502 -0.235921
v -1.148922 0.395502 0.235922
v -1.148922 0.295345 0.235922
v -1.052224 0.288839 0.266571
v -1.052224 0.402008 0.266571
v -1.062627 0.288839 0.160489
v -1.052224 0.288839 0.266571
v -1.148922 0.295345 0.235922
v -1.175796 0.288839 0.160489
v -1.175796 0.288839 0.160489
v -1.148922 0.295345 0.235922
v -1.148922 0.395502 0.235922
v -1.175796 0.402008 0.160489
v -1.175796 0.288839 -0.160488
v -1.148922 0.295344 -0.235921
v -1.052224 0.288839 -0.266570
v -1.062627 0.288839 -0.160488
v -1.175796 0.402008 0.160489
v -1.148922 0.395502 0.235922
v -1.052224 0.402008 0.266571
v -1.062627 0.402008 0.160489
v -0.880575 0.288839 -0.160488
v -0.870172 0.288839 -0.266570
v -0.870172 0.402008 -0.266570
v -0.880575 0.402008 -0.160488
v -0.880575 0.402008 0.160488
v -0.870172 0.402008 0.266571
v -0.870172 0.288839 0.266571
v -0.880575 0.288839 0.160488
v -1.052224 0.402008 -0.266570
v -0.870172 0.402008 -0.266570
v -0.870172 0.288839 -0.266570
v -1.052224 0.288839 -0.266570
v -1.062627 0.402008 -0.160488
v -0.880575 0.402008 -0.160488
v -0.870172 0.402008 -0.266570
v -1.052224 0.402008 -0.266570
v -1.175796 0.402008 -0.160488
v -1.183598 0.402008 0.000000
v -1.070429 0.402008 0.000000
v -1.175796 0.402008 0.160489
v -1.062627 0.402008 0.160489
v -1.052224 0.402008 0.266571
v -0.880575 0.402008 0.160488
v -0.870172 0.402008 0.266571
v -1.062627 0.288839 -0.160488
v -0.880575 0.288839 -0.160488
v -0.880575 0.402008 -0.160488
v -1.062627 0.402008 -0.160488
v -1.062627 0.402008 0.160489
v -0.880575 0.402008 0.160488
v -0.880575 0.288839 0.160488
v -1.062627 0.288839 0.160489
v -1.052224 0.288839 0.266571
v -0.870172 0.288839 0.266571
v -0.870172 0.402008 0.266571
v -1.052224 0.402008 0.266571
v -1.175796 0.402008 -0.160488
v -1.175796 0.288839 -0.160488
v -1.183598 0.288839 0.000000
v -1.183598 0.402008 0.000000
v -1.062627 0.402008 0.160489
v -1.062627 0.288839 0.160489
v -1.070429 0.288839 0.000000
v -1.070429 0.402008 0.000000
v 1.120784 0.402008 0.000000
v 1.120784 0.288839 0.000000
v 1.112982 0.288839 0.160488
v 1.112982 0.402008 0.160488
v 1.112982 0.402008 0.160488
v 1.102579 0.402008 0.266571
v 1.199277 0.395502 0.235921
v 1.226151 0.402008 0.160488
v 1.233953 0.402008 0.000000
v 1.233953 0.288839 0.000000
v 1.226151 0.288839 -0.160488
v 1.226151 0.402008 -0.160488
v 1.226151 0.402008 0.160488
v 1.199277 0.395502 0.235921
v 1.199277 0.295345 0.235921
v 1.226151 0.288839 0.160488
v 1.233953 0.288839 0.000000
v 1.112982 0.288839 -0.160488
v 1.226151 0.288839 -0.160488
v 1.120784 0.288839 0.000000
v 1.226151 0.288839 0.160488
v 1.112982 0.288839 0.160488
v 0.930930 0.288839 -0.160488
v 0.920527 0.288839 -0.266571
v 1.102579 0.288839 -0.266571
v 1.102579 0.288839 0.266571
v 0.930930 0.288839 0.160488
v 0.920527 0.288839 0.266571
v 1.102579 0.402008 0.266571
v 1.102579 0.288839 0.266571
v 1.199277 0.295345 0.235921
v 1.199277 0.395502 0.235921
v 1.199277 0.395502 -0.235921
v 1.199277 0.295344 -0.235921
v 1.102579 0.288839 -0.266571
v 1.102579 0.402008 -0.266571
v 1.112982 0.288839 -0.160488
v 1.102579 0.288839 -0.266571
v 1.199277 0.295344 -0.235921
v 1.226151 0.288839 -0.160488
v 1.226151 0.288839 -0.160488
v 1.199277 0.295344 -0.235921
v 1.199277 0.395502 -0.235921
v 1.226151 0.402008 -0.160488
v 1.226151 0.288839 0.160488
v 1.199277 0.295345 0.235921
v 1.102579 0.288839 0.266571
v 1.112982 0.288839 0.160488
v 1.226151 0.402008 -0.160488
v 1.199277 0.395502 -0.235921
v 1.102579 0.402008 -0.266571
v 1.112982 0.402008 -0.160488
v 0.930930 0.288839 0.160488
v 0.920527 0.288839 0.266571
v 0.920527 0.402008 0.266571
v 0.930930 0.402008 0.160488
v 0.930930 0.402008 -0.160488
v 0.920527 0.402008 -0.266571
v 0.920527 0.288839 -0.266571
v 0.930930 0.288839 -0.160488
v 1.102579 0.402008 0.266571
v 0.920527 0.402008 0.266571
v 0.920527 0.288839 0.266571
v 1.102579 0.288839 0.266571
v 1.112982 0.402008 0.160488
v 0.930930 0.402008 0.160488
v 0.920527 0.402008 0.266571
v 1.102579 0.402008 0.266571
v 1.226151 0.402008 0.160488
v 1.233953 0.402008 0.000000
v 1.120784 0.402008 0.000000
v 1.226151 0.402008 -0.160488
v 1.112982 0.402008 -0.160488
v 1.102579 0.402008 -0.266571
v 0.930930 0.402008 -0.160488
v 0.920527 0.402008 -0.266571
v 1.112982 0.288839 0.160488
v 0.930930 0.288839 0.160488
v 0.930930 0.402008 0.160488
v 1.112982 0.402008 0.160488
v 1.112982 0.402008 -0.160488
v 0.930930 0.402008 -0.160488
v 0.930930 0.288839 -0.160488
v 1.112982 0.288839 -0.160488
v 1.102579 0.288839 -0.266571
v 0.920527 0.288839 -0.266571
v 0.920527 0.402008 -0.266571
v 1.102579 0.402008 -0.266571
v 1.226151 0.402008 0.160488
v 1.226151 0.288839 0.160488
v 1.233953 0.288839 0.000000
v 1.233953 0.402008 0.000000
v 1.112982 0.402008 -0.160488
v 1.112982 0.288839 -0.160488
v 1.120784 0.288839 0.000000
v 1.120784 0.402008 0.000000
v 0.000000 -0.211660 -0.996081
v -0.585481 -0.211660 -0.805846
v -0.585481 0.607100 -0.805846
v 0.000000 0.607100 -0.996081
v 0.000000 -0.211660 -0.996081
v 0.000000 -0.353179 -0.926945
v -0.544844 -0.353179 -0.749914
v -0.585481 -0.211660 -0.805846
v 0.000000 -0.353179 -0.926945
v 0.000000 -0.411798 -0.760036
v -0.446738 -0.411798 -0.614882
v -0.544844 -0.353179 -0.749914
v -0.585481 -0.211660 -0.805846
v -0.544844 -0.353179 -0.749914
v -0.881577 -0.353179 -0.286442
v -0.947329 -0.211660 -0.307806
v -0.544844 -0.353179 -0.749914
v -0.446738 -0.411798 -0.614882
v -0.722837 -0.411798 -0.234864
v -0.881577 -0.353179 -0.286442
v -0.947329 -0.211660 -0.307806
v -0.881577 -0.353179 -0.286442
v -0.881577 -0.353179 0.286442
v -0.947329 -0.211660 0.307806
v -0.881577 -0.353179 -0.286442
v -0.722837 -0.411798 -0.234864
v -0.722837 -0.411798 0.234864
v -0.881577 -0.353179 0.286442
v -0.947329 -0.211660 0.307806
v -0.881577 -0.353179 0.286442
v -0.544844 -0.353179 0.749914
v -0.585481 -0.211660 0.805846
v -0.881577 -0.353179 0.286442
v -0.722837 -0.411798 0.234864
v -0.446738 -0.411798 0.614882
v -0.544844 -0.353179 0.749914
v -0.585481 -0.211660 0.805846
v 0.000000 -0.211660 0.996081
v 0.000000 0.607100 0.996081
v -0.585481 0.607100 0.805846
v -0.585481 -0.211660 0.805846
v -0.544844 -0.353179 0.749914
v 0.000000 -0.353179 0.926945
v 0.000000 -0.211660 0.996081
v 0.000000 -0.211660 0.996081
v 0.000000 -0.353179 0.926945
v 0.544845 -0.353179 0.749914
v 0.585482 -0.211660 0.805846
v 0.000000 -0.353179 0.926945
v 0.000000 -0.411798 0.760036
v 0.446738 -0.411798 0.614882
v 0.544845 -0.353179 0.749914
v 0.585482 -0.211660 0.805846
v 0.544845 -0.353179 0.749914
v 0.881577 -0.353179 0.286442
v 0.947329 -0.211660 0.307806
v 0.544845 -0.353179 0.749914
v 0.446738 -0.411798 0.614882
v 0.722837 -0.411798 0.234864
v 0.881577 -0.353179 0.286442
v 0.947329 -0.211660 0.307806
v 0.881577 -0.353179 0.286442
v 0.881577 -0.353179 -0.286442
v 0.947329 -0.211660 -0.307806
v 0.881577 -0.353179 0.286442
v 0.722837 -0.411798 0.234864
v 0.722837 -0.411798 -0.234864
v 0.881577 -0.353179 -0.286442
v 0.947329 -0.211660 -0.307806
v 0.881577 -0.353179 -0.286442
v 0.544844 -0.353179 -0.749914
v 0.585481 -0.211660 -0.805846
v 0.881577 -0.353179 -0.286442
v 0.722837 -0.411798 -0.234864
v 0.446738 -0.411798 -0.614882
v 0.544844 -0.353179 -0.749914
v 0.585481 -0.211660 -0.805846
v 0.544844 -0.353179 -0.749914
v 0.000000 -0.353179 -0.926945
v 0.000000 -0.211660 -0.996081
v 0.544844 -0.353179 -0.749914
v 0.446738 -0.411798 -0.614882
v 0.000000 -0.411798 -0.760036
v 0.000000 -0.353179 -0.926945
v -0.446738 -0.411798 0.614882
v -0.722837 -0.411798 0.234864
v -0.722837 -0.411798 -0.234864
v -0.446738 -0.411798 -0.614882
v 0.000000 -0.411798 -0.760036
v 0.000000 -0.411798 0.760036
v 0.446738 -0.411798 -0.614882
v 0.446738 -0.411798 0.614882
v 0.722837 -0.411798 -0.234864
v 0.722837 -0.411798 0.234864
v -0.585481 0.607100 -0.805846
v -0.570251 0.663902 -0.784883
v 0.000000 0.663902 -0.970168
v 0.000000 0.607100 -0.996081
v -0.947329 0.607100 -0.307806
v -0.922685 0.663902 -0.299799
v -0.570251 0.663902 -0.784883
v -0.585481 0.607100 -0.805846
v -0.947329 0.607100 0.307806
v -0.922685 0.663902 0.299798
v -0.922685 0.663902 -0.299799
v -0.947329 0.607100 -0.307806
v -0.585481 0.607100 0.805846
v -0.570251 0.663903 0.784883
v -0.922685 0.663902 0.299798
v -0.947329 0.607100 0.307806
v 0.585482 0.607100 0.805846
v 0.570251 0.663903 0.784883
v 0.000000 0.663903 0.970168
v 0.000000 0.607100 0.996081
v 0.947329 0.607100 0.307806
v 0.922685 0.663902 0.299799
v 0.570251 0.663903 0.784883
v 0.585482 0.607100 0.805846
v 0.947329 0.607100 -0.307806
v 0.922685 0.663902 -0.299799
v 0.922685 0.663902 0.299799
v 0.947329 0.607100 0.307806
v 0.585481 0.607100 -0.805846
v 0.570250 0.663902 -0.784883
v 0.922685 0.663902 -0.299799
v 0.947329 0.607100 -0.307806
v 0.000000 0.607100 -0.996081
v 0.000000 0.663902 -0.970168
v 0.570250 0.663902 -0.784883
v 0.585481 0.607100 -0.805846
v -0.510237 0.663902 -0.702280
v -0.495208 0.607100 -0.681595
v 0.000000 0.607100 -0.842498
v 0.000000 0.663902 -0.868066
v -0.825580 0.663902 -0.268247
v -0.801263 0.607100 -0.260346
v -0.495208 0.607100 -0.681595
v -0.510237 0.663902 -0.702280
v -0.825580 0.663902 0.268247
v -0.801263 0.607100 0.260346
v -0.801263 0.607100 -0.260346
v -0.825580 0.663902 -0.268247
v -0.510236 0.663903 0.702280
v -0.495208 0.607100 0.681595
v -0.801263 0.607100 0.260346
v -0.825580 0.663902 0.268247
v 0.510237 0.663903 0.702280
v 0.495208 0.607100 0.681595
v 0.000000 0.607100 0.842498
v 0.000000 0.663903 0.868066
v 0.825580 0.663902 0.268247
v 0.801263 0.607100 0.260346
v 0.495208 0.607100 0.681595
v 0.510237 0.663903 0.702280
v 0.825580 0.663902 -0.268247
v 0.801263 0.607100 -0.260346
v 0.801263 0.607100 0.260346
v 0.825580 0.663902 0.268247
v 0.510236 0.663902 -0.702281
v 0.495208 0.607100 -0.681595
v 0.801263 0.607100 -0.260346
v 0.825580 0.663902 -0.268247
v 0.000000 0.663902 -0.868066
v 0.000000 0.607100 -0.842498
v 0.495208 0.607100 -0.681595
v 0.510236 0.663902 -0.702281
v -0.544844 -0.353179 0.749914
v -0.446738 -0.411798 0.614882
v 0.000000 -0.411798 0.760036
v 0.000000 -0.353179 0.926945
v -0.495208 -0.359458 0.681595
v -0.495208 0.607100 0.681595
v 0.000000 0.607100 0.842498
v 0.000000 -0.359458 0.842498
v -0.570251 0.663903 0.784883
v -0.510236 0.663903 0.702280
v -0.825580 0.663902 0.268247
v -0.922685 0.663902 0.299798
v 0.000000 0.663903 0.970168
v -0.825580 0.663902 -0.268247
v 0.000000 0.663903 0.868066
v -0.922685 0.663902 -0.299799
v 0.570251 0.663903 0.784883
v -0.510237 0.663902 -0.702280
v 0.510237 0.663903 0.702280
v -0.570251 0.663902 -0.784883
v 0.922685 0.663902 0.299799
v 0.000000 0.663902 -0.868066
v 0.825580 0.663902 0.268247
v 0.000000 0.663902 -0.970168
v 0.922685 0.663902 -0.299799
v 0.510236 0.663902 -0.702281
v 0.825580 0.663902 -0.268247
v 0.570250 0.663902 -0.784883
vn -0.283486 0.398011 0.872481
vn -0.283486 0.398011 0.872481
vn -0.283486 0.398011 0.872481
vn -0.283486 0.398011 0.872481
vn 0.309017 0.000000 0.951057
vn 0.309017 0.000000 0.951057
vn 0.309017 0.000000 0.951057
vn 0.309017 0.000000 0.951057
vn -0.809017 0.000000 -0.587785
vn -0.809017 0.000000 -0.587785
vn -0.809017 0.000000 -0.587785
vn -0.809017 0.000000 -0.587785
vn 0.809017 0.000000 -0.587785
vn 0.809017 0.000000 -0.587785
vn 0.809017 0.000000 -0.587785
vn 0.809017 0.000000 -0.587785
vn 0.809017 0.000000 -0.587785
vn 0.809017 0.000000 -0.587785
vn 0.809017 0.000000 -0.587785
vn 0.809017 0.000000 -0.587785
vn 1.000000 0.000000 0.000000
vn 1.000000 0.000000 0.000000
vn 1.000000 0.000000 0.000000
vn 1.000000 0.000000 0.000000
vn 0.809017 0.000000 0.587785
vn 0.809017 0.000000 0.587785
vn 0.809017 0.000000 0.587785
vn 0.809017 0.000000 0.587785
vn 0.309017 0.000000 0.951057
vn 0.309017 0.000000 0.951057
vn 0.309017 0.000000 0.951057
vn 0.309017 0.000000 0.951057
vn -0.809017 0.000000 0.587785
vn -0.809017 0.000000 0.587785
vn -0.809017 0.000000 0.587785
vn -0.809017 0.000000 0.587785
vn 0.309017 0.000000 -0.951057
vn 0.309017 0.000000 -0.951057
vn 0.309017 0.000000 -0.951057
vn 0.309017 0.000000 -0.951057
vn -1.000000 0.000000 0.000000
vn -1.000000 0.000000 0.000000
vn -1.000000 0.000000 0.000000
vn -1.000000 0.000000 0.000000
vn 0.000000 1.000000 0.000000
vn 0.000000 1.000000 0.000000
vn 0.000000 1.000000 0.000000
vn 0.000000 1.000000 0.000000
vn 0.000000 1.000000 0.000000
vn 0.000000 1.000000 0.000000
vn 0.000000 1.000000 0.000000
vn 0.000000 1.000000 0.000000
vn 0.000000 1.000000 0.000000
vn 0.000000 1.000000 0.000000
vn 1.000000 0.000000 0.000000
vn 1.000000 0.000000 0.000000
vn 1.000000 0.000000 0.000000
vn 1.000000 0.000000 0.000000
vn -1.000000 0.000000 0.000000
vn -1.000000 0.000000 0.000000
vn -1.000000 0.000000 0.000000
vn -1.000000 0.000000 0.000000
vn 0.284081 0.393548 -0.874310
vn 0.284081 0.393548 -0.874310
vn 0.284081 0.393548 -0.874310
vn 0.284081 0.393548 -0.874310
vn 0.809017 0.000000 0.587785
vn 0.809017 0.000000 0.587785
vn 0.809017 0.000000 0.587785
vn 0.809017 0.000000 0.587785
vn -0.809017 0.000000 0.587785
vn -0.809017 0.000000 0.587785
vn -0.809017 0.000000 0.587785
vn -0.809017 0.000000 0.587785
vn -0.309017 0.000000 -0.951057
vn -0.309017 0.000000 -0.951057
vn -0.309017 0.000000 -0.951057
vn -0.309017 0.000000 -0.951057
vn -0.309017 0.000000 0.951057
vn -0.309017 0.000000 0.951057
vn -0.309017 0.000000 0.951057
vn -0.309017 0.000000 0.951057
vn -0.809017 0.000000 -0.587785
vn -0.809017 0.000000 -0.587785
vn -0.809017 0.000000 -0.587785
vn -0.809017 0.000000 -0.587785
vn 0.998820 0.000000 0.048558
vn 0.998820 0.000000 0.048558
vn 0.998820 0.000000 0.048558
vn 0.998820 0.000000 0.048558
vn -0.037294 0.998360 -0.043442
vn -0.037294 0.998360 -0.043442
vn -0.037294 0.998360 -0.043442
vn -0.037294 0.998360 -0.043442
vn -0.998820 0.000000 0.048559
vn -0.998820 0.000000 0.048559
vn -0.998820 0.000000 0.048559
vn -0.998820 0.000000 0.048559
vn -0.942005 0.000000 -0.335599
vn -0.942005 0.000000 -0.335599
vn -0.942005 0.000000 -0.335599
vn -0.942005 0.000000 -0.335599
vn 0.000000 -1.000000 0.000000
vn 0.000000 -1.000000 0.000000
vn 0.000000 -1.000000 0.000000
vn 0.000000 -1.000000 0.000000
vn 0.000000 -1.000000 0.000000
vn 0.000000 -1.000000 0.000000
vn 0.000000 -1.000000 0.000000
vn 0.000000 -1.000000 0.000000
vn 0.000000 -1.000000 0.000000
vn 0.000000 -1.000000 0.000000
vn 0.000000 -1.000000 0.000000
vn 0.000000 -1.000000 0.000000
vn -0.302146 0.000000 -0.953262
vn -0.302146 0.000000 -0.953262
vn -0.302146 0.000000 -0.953262
vn -0.302146 0.000000 -0.953262
vn -0.302145 0.000000 0.953262
vn -0.302145 0.000000 0.953262
vn -0.302145 0.000000 0.953262
vn -0.302145 0.000000 0.953262
vn -0.037294 -0.998360 0.043443
vn -0.037294 -0.998360 0.043443
vn -0.037294 -0.998360 0.043443
vn -0.037294 -0.998360 0.043443
vn -0.942004 0.000000 0.335602
vn -0.942004 0.000000 0.335602
vn -0.942004 0.000000 0.335602
vn -0.942004 0.000000 0.335602
vn -0.037294 -0.998360 -0.043442
vn -0.037294 -0.998360 -0.043442
vn -0.037294 -0.998360 -0.043442
vn -0.037294 -0.998360 -0.043442
vn -0.037294 0.998360 0.043442
vn -0.037294 0.998360 0.043442
vn -0.037294 0.998360 0.043442
vn -0.037294 0.998360 0.043442
vn 0.995226 0.000000 0.097595
vn 0.995226 0.000000 0.097595
vn 0.995226 0.000000 0.097595
vn 0.995226 0.000000 0.097595
vn 0.995226 0.000000 -0.097595
vn 0.995226 0.000000 -0.097595
vn 0.995226 0.000000 -0.097595
vn 0.995226 0.000000 -0.097595
vn 0.000000 0.000000 -1.000000
vn 0.000000 0.000000 -1.000000
vn 0.000000 0.000000 -1.000000
vn 0.000000 0.000000 -1.000000
vn 0.000000 1.000000 0.000000
vn 0.000000 1.000000 0.000000
vn 0.000000 1.000000 0.000000
vn 0.000000 1.000000 0.000000
vn 0.000000 1.000000 0.000000
vn 0.000000 1.000000 0.000000
vn 0.000000 1.000000 0.000000
vn 0.000000 1.000000 0.000000
vn 0.000000 1.000000 0.000000
vn 0.000000 1.000000 0.000000
vn 0.000000 1.000000 0.000000
vn 0.000000 1.000000 0.000000
vn 0.000000 0.000000 1.000000
vn 0.000000 0.000000 1.000000
vn 0.000000 0.000000 1.000000
vn 0.000000 0.000000 1.000000
vn 0.000000 0.000000 -1.000000
vn 0.000000 0.000000 -1.000000
vn 0.000000 0.000000 -1.000000
vn 0.000000 0.000000 -1.000000
vn 0.000000 0.000000 1.000000
vn 0.000000 0.000000 1.000000
vn 0.000000 0.000000 1.000000
vn 0.000000 0.000000 1.000000
vn -0.998820 0.000000 -0.048559
vn -0.998820 0.000000 -0.048559
vn -0.998820 0.000000 -0.048559
vn -0.998820 0.000000 -0.048559
vn 0.998820 0.000000 -0.048558
vn 0.998820 0.000000 -0.048558
vn 0.998820 0.000000 -0.048558
vn 0.998820 0.000000 -0.048558
vn -0.998820 0.000000 -0.048558
vn -0.998820 0.000000 -0.048558
vn -0.998820 0.000000 -0.048558
vn -0.998820 0.000000 -0.048558
vn 0.037294 0.998360 0.043442
vn 0.037294 0.998360 0.043442
vn 0.037294 0.998360 0.043442
vn 0.037294 0.998360 0.043442
vn 0.998820 0.000000 -0.048559
vn 0.998820 0.000000 -0.048559
vn 0.998820 0.000000 -0.048559
vn 0.998820 0.000000 -0.048559
vn 0.942003 0.000000 0.335604
vn 0.942003 0.000000 0.335604
vn 0.942003 0.000000 0.335604
vn 0.942003 0.000000 0.335604
vn 0.000000 -1.000000 0.000000
vn 0.000000 -1.000000 0.000000
vn 0.000000 -1.000000 0.000000
vn 0.000000 -1.000000 0.000000
vn 0.000000 -1.000000 0.000000
vn 0.000000 -1.000000 0.000000
vn 0.000000 -1.000000 0.000000
vn 0.000000 -1.000000 0.000000
vn 0.000000 -1.000000 0.000000
vn 0.000000 -1.000000 0.000000
vn 0.000000 -1.000000 0.000000
vn 0.000000 -1.000000 0.000000
vn 0.302146 0.000000 0.953262
vn 0.302146 0.000000 0.953262
vn 0.302146 0.000000 0.953262
vn 0.302146 0.000000 0.953262
vn 0.302145 0.000000 -0.953262
vn 0.302145 0.000000 -0.953262
vn 0.302145 0.000000 -0.953262
vn 0.302145 0.000000 -0.953262
vn 0.037294 -0.998360 -0.043442
vn 0.037294 -0.998360 -0.043442
vn 0.037294 -0.998360 -0.043442
vn 0.037294 -0.998360 -0.043442
vn 0.942003 0.000000 -0.335604
vn 0.942003 0.000000 -0.335604
vn 0.942003 0.000000 -0.335604
vn 0.942003 0.000000 -0.335604
vn 0.037294 -0.998360 0.043443
vn 0.037294 -0.998360 0.043443
vn 0.037294 -0.998360 0.043443
vn 0.037294 -0.998360 0.043443
vn 0.037294 0.998360 -0.043442
vn 0.037294 0.998360 -0.043442
vn 0.037294 0.998360 -0.043442
vn 0.037294 0.998360 -0.043442
vn -0.995226 0.000000 -0.097596
vn -0.995226 0.000000 -0.097596
vn -0.995226 0.000000 -0.097596
vn -0.995226 0.000000 -0.097596
vn -0.995226 0.000000 0.097596
vn -0.995226 0.000000 0.097596
vn -0.995226 0.000000 0.097596
vn -0.995226 0.000000 0.097596
vn 0.000000 0.000000 1.000000
vn 0.000000 0.000000 1.000000
vn 0.000000 0.000000 1.000000
vn 0.000000 0.000000 1.000000
vn 0.000000 1.000000 0.000000
vn 0.000000 1.000000 0.000000
vn 0.000000 1.000000 0.000000
vn 0.000000 1.000000 0.000000
vn 0.000000 1.000000 0.000000
vn 0.000000 1.000000 0.000000
vn 0.000000 1.000000 0.000000
vn 0.000000 1.000000 0.000000
vn 0.000000 1.000000 0.000000
vn 0.000000 1.000000 0.000000
vn 0.000000 1.000000 0.000000
vn 0.000000 1.000000 0.000000
vn 0.000000 0.000000 -1.000000
vn 0.000000 0.000000 -1.000000
vn 0.000000 0.000000 -1.000000
vn 0.000000 0.000000 -1.000000
vn 0.000000 0.000000 1.000000
vn 0.000000 0.000000 1.000000
vn 0.000000 0.000000 1.000000
vn 0.000000 0.000000 1.000000
vn 0.000000 0.000000 -1.000000
vn 0.000000 0.000000 -1.000000
vn 0.000000 0.000000 -1.000000
vn 0.000000 0.000000 -1.000000
vn 0.998820 0.000000 0.048559
vn 0.998820 0.000000 0.048559
vn 0.998820 0.000000 0.048559
vn 0.998820 0.000000 0.048559
vn -0.998820 0.000000 0.048558
vn -0.998820 0.000000 0.048558
vn -0.998820 0.000000 0.048558
vn -0.998820 0.000000 0.048558
vn -0.309017 0.000000 -0.951057
vn -0.309017 0.000000 -0.951057
vn -0.309017 0.000000 -0.951057
vn -0.309017 0.000000 -0.951057
vn -0.280246 -0.421358 -0.862508
vn -0.280246 -0.421358 -0.862508
vn -0.280246 -0.421358 -0.862508
vn -0.280246 -0.421358 -0.862508
vn -0.107048 -0.938082 -0.329458
vn -0.107048 -0.938082 -0.329458
vn -0.107048 -0.938082 -0.329458
vn -0.107048 -0.938082 -0.329458
vn -0.733693 -0.421358 -0.533059
vn -0.733693 -0.421358 -0.533059
vn -0.733693 -0.421358 -0.533059
vn -0.733693 -0.421358 -0.533059
vn -0.280254 -0.938082 -0.203616
vn -0.280254 -0.938082 -0.203616
vn -0.280254 -0.938082 -0.203616
vn -0.280254 -0.938082 -0.203616
vn -0.906894 -0.421358 0.000000
vn -0.906894 -0.421358 0.000000
vn -0.906894 -0.421358 0.000000
vn -0.906894 -0.421358 0.000000
vn -0.346413 -0.938082 0.000000
vn -0.346413 -0.938082 0.000000
vn -0.346413 -0.938082 0.000000
vn -0.346413 -0.938082 0.000000
vn -0.733693 -0.421358 0.533059
vn -0.733693 -0.421358 0.533059
vn -0.733693 -0.421358 0.533059
vn -0.733693 -0.421358 0.533059
vn -0.280254 -0.938082 0.203617
vn -0.280254 -0.938082 0.203617
vn -0.280254 -0.938082 0.203617
vn -0.280254 -0.938082 0.203617
vn -0.309017 0.000000 0.951057
vn -0.309017 0.000000 0.951057
vn -0.309017 0.000000 0.951057
vn -0.309017 0.000000 0.951057
vn -0.280246 -0.421358 0.862508
vn -0.280246 -0.421358 0.862508
vn -0.280246 -0.421358 0.862508
vn -0.280246 -0.421358 0.862508
vn 0.280246 -0.421358 0.862508
vn 0.280246 -0.421358 0.862508
vn 0.280246 -0.421358 0.862508
vn 0.280246 -0.421358 0.862508
vn 0.107048 -0.938082 0.329458
vn 0.107048 -0.938082 0.329458
vn 0.107048 -0.938082 0.329458
vn 0.107048 -0.938082 0.329458
vn 0.733693 -0.421358 0.533059
vn 0.733693 -0.421358 0.533059
vn 0.733693 -0.421358 0.533059
vn 0.733693 -0.421358 0.533059
vn 0.280254 -0.938082 0.203616
vn 0.280254 -0.938082 0.203616
vn 0.280254 -0.938082 0.203616
vn 0.280254 -0.938082 0.203616
vn 0.906894 -0.421358 0.000000
vn 0.906894 -0.421358 0.000000
vn 0.906894 -0.421358 0.000000
vn 0.906894 -0.421358 0.000000
vn 0.346413 -0.938082 0.000000
vn 0.346413 -0.938082 0.000000
vn 0.346413 -0.938082 0.000000
vn 0.346413 -0.938082 0.000000
vn 0.733693 -0.421358 -0.533059
vn 0.733693 -0.421358 -0.533059
vn 0.733693 -0.421358 -0.533059
vn 0.733693 -0.421358 -0.533059
vn 0.280254 -0.938082 -0.203616
vn 0.280254 -0.938082 -0.203616
vn 0.280254 -0.938082 -0.203616
vn 0.280254 -0.938082 -0.203616
vn 0.280246 -0.421358 -0.862508
vn 0.280246 -0.421358 -0.862508
vn 0.280246 -0.421358 -0.862508
vn 0.280246 -0.421358 -0.862508
vn 0.107047 -0.938082 -0.329458
vn 0.107047 -0.938082 -0.329458
vn 0.107047 -0.938082 -0.329458
vn 0.107047 -0.938082 -0.329458
vn 0.000000 -1.000000 0.000000
vn 0.000000 -1.000000 0.000000
vn 0.000000 -1.000000 0.000000
vn 0.000000 -1.000000 0.000000
vn 0.000000 -1.000000 0.000000
vn 0.000000 -1.000000 0.000000
vn 0.000000 -1.000000 0.000000
vn 0.000000 -1.000000 0.000000
vn 0.000000 -1.000000 0.000000
vn 0.000000 -1.000000 0.000000
vn -0.283487 0.398010 -0.872481
vn -0.283487 0.398010 -0.872481
vn -0.283487 0.398010 -0.872481
vn -0.283487 0.398010 -0.872481
vn -0.742177 0.398010 -0.539223
vn -0.742177 0.398010 -0.539223
vn -0.742177 0.398010 -0.539223
vn -0.742177 0.398010 -0.539223
vn -0.917381 0.398011 0.000000
vn -0.917381 0.398011 0.000000
vn -0.917381 0.398011 0.000000
vn -0.917381 0.398011 0.000000
vn -0.742177 0.398010 0.539223
vn -0.742177 0.398010 0.539223
vn -0.742177 0.398010 0.539223
vn -0.742177 0.398010 0.539223
vn 0.283487 0.398010 0.872481
vn 0.283487 0.398010 0.872481
vn 0.283487 0.398010 0.872481
vn 0.283487 0.398010 0.872481
vn 0.742177 0.398010 0.539223
vn 0.742177 0.398010 0.539223
vn 0.742177 0.398010 0.539223
vn 0.742177 0.398010 0.539223
vn 0.917381 0.398010 0.000000
vn 0.917381 0.398010 0.000000
vn 0.917381 0.398010 0.000000
vn 0.917381 0.398010 0.000000
vn 0.742177 0.398010 -0.539223
vn 0.742177 0.398010 -0.539223
vn 0.742177 0.398010 -0.539223
vn 0.742177 0.398010 -0.539223
vn 0.283486 0.398010 -0.872481
vn 0.283486 0.398010 -0.872481
vn 0.283486 0.398010 -0.872481
vn 0.283486 0.398010 -0.872481
vn 0.284081 0.393548 0.874310
vn 0.284081 0.393548 0.874310
vn 0.284081 0.393548 0.874310
vn 0.284081 0.393548 0.874310
vn 0.743733 0.393549 0.540353
vn 0.743733 0.393549 0.540353
vn 0.743733 0.393549 0.540353
vn 0.743733 0.393549 0.540353
vn 0.919304 0.393548 0.000000
vn 0.919304 0.393548 0.000000
vn 0.919304 0.393548 0.000000
vn 0.919304 0.393548 0.000000
vn 0.743732 0.393549 -0.540353
vn 0.743732 0.393549 -0.540353
vn 0.743732 0.393549 -0.540353
vn 0.743732 0.393549 -0.540353
vn -0.284081 0.393548 -0.874310
vn -0.284081 0.393548 -0.874310
vn -0.284081 0.393548 -0.874310
vn -0.284081 0.393548 -0.874310
vn -0.743733 0.393548 -0.540353
vn -0.743733 0.393548 -0.540353
vn -0.743733 0.393548 -0.540353
vn -0.743733 0.393548 -0.540353
vn -0.919304 0.393549 0.000000
vn -0.919304 0.393549 0.000000
vn -0.919304 0.393549 0.000000
vn -0.919304 0.393549 0.000000
vn -0.743733 0.393549 0.540353
vn -0.743733 0.393549 0.540353
vn -0.743733 0.393549 0.540353
vn -0.743733 0.393549 0.540353
vn -0.284080 0.393548 0.874310
vn -0.284080 0.393548 0.874310
vn -0.284080 0.393548 0.874310
vn -0.284080 0.393548 0.874310
vn -0.107048 -0.938082 0.329459
vn -0.107048 -0.938082 0.329459
vn -0.107048 -0.938082 0.329459
vn -0.107048 -0.938082 0.329459
vn 0.309017 0.000000 -0.951057
vn 0.309017 0.000000 -0.951057
vn 0.309017 0.000000 -0.951057
vn 0.309017 0.000000 -0.951057
vn 0.000000 1.000000 0.000000
vn 0.000000 1.000000 0.000000
vn 0.000000 1.000000 0.000000
vn 0.000000 1.000000 0.000000
vn 0.000000 1.000000 0.000000
vn -0.000001 1.000000 0.000000
vn 0.000000 1.000000 0.000000
vn -0.000001 1.000000 0.000000
vn 0.000000 1.000000 0.000000
vn 0.000000 1.000000 0.000000
vn 0.000000 1.000000 0.000000
vn 0.000000 1.000000 0.000000
vn 0.000000 1.000000 0.000000
vn 0.000000 1.000000 0.000000
vn 0.000000 1.000000 0.000000
vn 0.000000 1.000000 0.000000
vn 0.000000 1.000000 0.000000
vn 0.000000 1.000000 0.000000
vn 0.000000 1.000000 0.000000
vn 0.000000 1.000000 0.000000
g CookingPot_Grey
usemtl Grey
f 1 2 3
f 1 3 4
f 5 6 7
f 5 7 8
f 9 10 11
f 9 11 12
f 13 14 15
f 13 15 16
f 17 18 19
f 17 19 20
f 21 22 23
f 21 23 24
f 25 26 27
f 25 27 28
f 29 30 31
f 29 31 32
f 33 34 35
f 33 35 36
f 37 38 39
f 37 39 40
f 41 42 43
f 41 43 44
f 45 46 47
f 47 48 45
f 48 49 45
f 48 50 49
f 50 51 49
f 50 52 51
f 52 53 51
f 52 54 53
f 55 56 57
f 55 57 58
f 59 60 61
f 59 61 62
f 63 64 65
f 63 65 66
f 67 68 69
f 67 69 70
f 71 72 73
f 71 73 74
f 75 76 77
f 75 77 78
f 79 80 81
f 79 81 82
f 83 84 85
f 83 85 86
f 87 88 89
f 87 89 90
f 91 92 93
f 91 93 94
f 95 96 97
f 95 97 98
f 99 100 101
f 99 101 102
f 103 104 105
f 103 106 104
f 107 106 103
f 107 108 106
f 104 109 110
f 104 110 111
f 112 113 108
f 112 114 113
f 115 116 117
f 115 117 118
f 119 120 121
f 119 121 122
f 123 124 125
f 123 125 126
f 127 128 129
f 127 129 130
f 131 132 133
f 131 133 134
f 135 136 137
f 135 137 138
f 139 140 141
f 139 141 142
f 143 144 145
f 143 145 146
f 147 148 149
f 147 149 150
f 151 152 153
f 151 153 154
f 151 155 156
f 151 156 157
f 157 156 158
f 157 158 159
f 160 161 159
f 160 162 161
f 163 164 165
f 163 165 166
f 167 168 169
f 167 169 170
f 171 172 173
f 171 173 174
f 175 176 177
f 175 177 178
f 179 180 181
f 179 181 182
f 183 184 185
f 183 185 186
f 187 188 189
f 187 189 190
f 191 192 193
f 191 193 194
f 195 196 197
f 195 197 198
f 199 200 201
f 199 202 200
f 203 202 199
f 203 204 202
f 200 205 206
f 200 206 207
f 208 209 204
f 208 210 209
f 211 212 213
f 211 213 214
f 215 216 217
f 215 217 218
f 219 220 221
f 219 221 222
f 223 224 225
f 223 225 226
f 227 228 229
f 227 229 230
f 231 232 233
f 231 233 234
f 235 236 237
f 235 237 238
f 239 240 241
f 239 241 242
f 243 244 245
f 243 245 246
f 247 248 249
f 247 249 250
f 247 251 252
f 247 252 253
f 253 252 254
f 253 254 255
f 256 257 255
f 256 258 257
f 259 260 261
f 259 261 262
f 263 264 265
f 263 265 266
f 267 268 269
f 267 269 270
f 271 272 273
f 271 273 274
f 275 276 277
f 275 277 278
f 279 280 281
f 279 281 282
f 283 284 285
f 283 285 286
f 287 288 289
f 287 289 290
f 291 292 293
f 291 293 294
f 295 296 297
f 295 297 298
f 299 300 301
f 299 301 302
f 303 304 305
f 303 305 306
f 307 308 309
f 307 309 310
f 311 312 313
f 311 313 314
f 315 316 317
f 315 317 318
f 319 320 321
f 319 321 322
f 323 324 325
f 323 325 326
f 327 328 329
f 327 329 330
f 331 332 333
f 331 333 334
f 335 336 337
f 335 337 338
f 339 340 341
f 339 341 342
f 343 344 345
f 343 345 346
f 347 348 349
f 347 349 350
f 351 352 353
f 351 353 354
f 355 356 357
f 355 357 358
f 359 360 361
f 359 361 362
f 363 364 365
f 365 366 363
f 366 367 363
f 367 368 363
f 367 369 368
f 369 370 368
f 369 371 370
f 371 372 370
f 373 374 375
f 373 375 376
f 377 378 379
f 377 379 380
f 381 382 383
f 381 383 384
f 385 386 387
f 385 387 388
f 389 390 391
f 389 391 392
f 393 394 395
f 393 395 396
f 397 398 399
f 397 399 400
f 401 402 403
f 401 403 404
f 405 406 407
f 405 407 408
f 409 410 411
f 409 411 412
f 413 414 415
f 413 415 416
f 417 418 419
f 417 419 420
f 421 422 423
f 421 423 424
f 425 426 427
f 425 427 428
f 429 430 431
f 429 431 432
f 433 434 435
f 433 435 436
f 437 438 439
f 437 439 440
f 441 442 443
f 441 443 444
f 445 446 447
f 445 447 448
f 449 450 451
f 449 451 452
f 453 454 455
f 453 455 456
f 457 454 453
f 456 455 458
f 457 459 454
f 456 458 460
f 461 459 457
f 460 458 462
f 461 463 459
f 460 462 464
f 465 463 461
f 464 462 466
f 465 467 463
f 464 466 468
f 469 467 465
f 468 466 470
f 469 471 467
f 468 470 472
f 472 471 469
f 472 470 471
