mtllib Materials.mtl
# Ultimate Food Pack - Corndog
o Corndog
v -0.006724 -0.000269 0.014955
v 0.006724 -0.000269 0.014955
v 0.006724 0.623383 0.014955
v -0.006724 0.623383 0.014955
v -0.014955 -0.000269 -0.006724
v -0.014955 -0.000269 0.006724
v -0.014955 0.623383 0.006724
v -0.014955 0.623383 -0.006724
v -0.006724 0.623383 -0.014955
v -0.014955 0.623383 -0.006724
v -0.014955 0.623383 0.006724
v -0.006724 0.623383 0.014955
v 0.006724 0.623383 -0.014955
v 0.006724 0.623383 0.014955
v 0.014955 0.623383 -0.006724
v 0.014955 0.623383 0.006724
v 0.014955 -0.000269 0.006724
v 0.014955 -0.000269 -0.006724
v 0.014955 0.623383 -0.006724
v 0.014955 0.623383 0.006724
v 0.006724 -0.000269 -0.014955
v -0.006724 -0.000269 -0.014955
v -0.006724 0.623383 -0.014955
v 0.006724 0.623383 -0.014955
v 0.006724 -0.000269 0.014955
v 0.014955 -0.000269 0.006724
v 0.014955 0.623383 0.006724
v 0.006724 0.623383 0.014955
v 0.006724 0.623383 -0.014955
v 0.014955 0.623383 -0.006724
v 0.014955 -0.000269 -0.006724
v 0.006724 -0.000269 -0.014955
v -0.014955 0.623383 -0.006724
v -0.006724 0.623383 -0.014955
v -0.006724 -0.000269 -0.014955
v -0.014955 -0.000269 -0.006724
v -0.006724 0.623383 0.014955
v -0.014955 0.623383 0.006724
v -0.014955 -0.000269 0.006724
v -0.006724 -0.000269 0.014955
v -0.006724 -0.000269 0.014955
v -0.014955 -0.000269 0.006724
v -0.014955 -0.000269 -0.006724
v -0.006724 -0.000269 -0.014955
v 0.006724 -0.000269 0.014955
v 0.006724 -0.000269 -0.014955
v 0.014955 -0.000269 0.006724
v 0.014955 -0.000269 -0.006724
v 0.117584 1.195151 -0.048298
v 0.128078 1.219700 0.000000
v 0.127505 1.091695 0.000000
v 0.117058 1.077426 -0.048082
v 0.115478 0.920485 -0.047433
v 0.125785 0.921428 0.000000
v 0.124065 0.748092 0.000000
v 0.113899 0.760727 -0.046784
v 0.113373 0.634551 -0.046568
v 0.123491 0.610881 0.000000
v 0.117584 1.195151 -0.048298
v 0.102886 1.277066 -0.050921
v 0.112068 1.304019 0.000000
v 0.128078 1.219700 0.000000
v 0.117584 1.195151 -0.048298
v 0.089768 1.170602 -0.089768
v 0.083292 1.242451 -0.083292
v 0.102886 1.277066 -0.050921
v 0.117584 1.195151 -0.048298
v 0.089366 1.063157 -0.089366
v 0.089768 1.170602 -0.089768
v 0.117058 1.077426 -0.048082
v 0.115478 0.920485 -0.047433
v 0.088161 0.919543 -0.088161
v 0.086955 0.773363 -0.086955
v 0.113899 0.760727 -0.046784
v 0.113373 0.634551 -0.046568
v 0.086553 0.658221 -0.086553
v -0.048298 1.195151 -0.117584
v 0.000000 1.219700 -0.128078
v 0.000000 1.091695 -0.127505
v -0.048082 1.077426 -0.117058
v -0.047433 0.920485 -0.115479
v 0.000000 0.921428 -0.125785
v 0.000000 0.748092 -0.124065
v -0.046784 0.760727 -0.113899
v -0.046568 0.634551 -0.113373
v 0.000000 0.610881 -0.123491
v -0.048298 1.195151 -0.117584
v -0.050921 1.277066 -0.102886
v 0.000000 1.304019 -0.112068
v 0.000000 1.219700 -0.128078
v -0.048298 1.195151 -0.117584
v -0.089768 1.170602 -0.089768
v -0.083292 1.242451 -0.083292
v -0.050921 1.277066 -0.102886
v -0.048298 1.195151 -0.117584
v -0.089366 1.063157 -0.089366
v -0.089768 1.170602 -0.089768
v -0.048082 1.077426 -0.117058
v -0.047433 0.920485 -0.115479
v -0.088161 0.919543 -0.088161
v -0.086955 0.773363 -0.086955
v -0.046784 0.760727 -0.113899
v -0.046568 0.634551 -0.113373
v -0.086553 0.658221 -0.086553
v -0.117584 1.195151 0.048298
v -0.128078 1.219700 0.000000
v -0.127505 1.091695 0.000000
v -0.117058 1.077426 0.048081
v -0.115478 0.920485 0.047433
v -0.125785 0.921428 0.000000
v -0.124065 0.748092 0.000000
v -0.113899 0.760727 0.046784
v -0.113373 0.634551 0.046568
v -0.123491 0.610881 0.000000
v -0.117584 1.195151 0.048298
v -0.102886 1.277066 0.050921
v -0.112068 1.304019 0.000000
v -0.128078 1.219700 0.000000
v -0.117584 1.195151 0.048298
v -0.089768 1.170602 0.089768
v -0.083292 1.242451 0.083292
v -0.102886 1.277066 0.050921
v -0.117584 1.195151 0.048298
v -0.089366 1.063157 0.089366
v -0.089768 1.170602 0.089768
v -0.117058 1.077426 0.048081
v -0.115478 0.920485 0.047433
v -0.088161 0.919543 0.088161
v -0.086955 0.773363 0.086955
v -0.113899 0.760727 0.046784
v -0.113373 0.634551 0.046568
v -0.086553 0.658221 0.086553
v 0.048298 1.195151 0.117584
v 0.000000 1.219700 0.128078
v 0.000000 1.091695 0.127505
v 0.048082 1.077426 0.117057
v 0.047433 0.920485 0.115478
v 0.000000 0.921428 0.125785
v 0.000000 0.748092 0.124065
v 0.046784 0.760727 0.113899
v 0.046568 0.634551 0.113373
v 0.000000 0.610881 0.123491
v 0.048298 1.195151 0.117584
v 0.050921 1.277066 0.102886
v 0.000000 1.304019 0.112068
v 0.000000 1.219700 0.128078
v 0.048298 1.195151 0.117584
v 0.089768 1.170602 0.089768
v 0.083292 1.242451 0.083292
v 0.050921 1.277066 0.102886
v 0.048298 1.195151 0.117584
v 0.089366 1.063157 0.089366
v 0.089768 1.170602 0.089768
v 0.048082 1.077426 0.117057
v 0.047433 0.920485 0.115478
v 0.088161 0.919543 0.088161
v 0.086955 0.773363 0.086955
v 0.046784 0.760727 0.113899
v 0.046568 0.634551 0.113373
v 0.086553 0.658221 0.086553
v -0.056687 0.491734 0.056686
v -0.061746 0.475017 0.000000
v 0.000000 0.466659 0.000000
v 0.000000 0.475017 0.061746
v -0.056687 0.491734 0.056686
v -0.099201 0.544154 0.049098
v -0.108055 0.517341 0.000000
v -0.061746 0.475017 0.000000
v -0.056687 0.491734 0.056686
v -0.049098 0.544154 0.099201
v -0.080309 0.580587 0.080309
v -0.099201 0.544154 0.049098
v -0.056687 0.491734 0.056686
v 0.000000 0.475017 0.061746
v 0.000000 0.517341 0.108055
v -0.049098 0.544154 0.099201
v 0.058792 1.326574 0.058792
v 0.064039 1.343227 0.000000
v 0.000000 1.351554 0.000000
v 0.000000 1.343227 0.064039
v 0.058792 1.326574 0.058792
v 0.102886 1.277066 0.050921
v 0.112068 1.304019 0.000000
v 0.064039 1.343227 0.000000
v 0.058792 1.326574 0.058792
v 0.050921 1.277066 0.102886
v 0.083292 1.242451 0.083292
v 0.102886 1.277066 0.050921
v 0.058792 1.326574 0.058792
v 0.000000 1.343227 0.064039
v 0.000000 1.304019 0.112068
v 0.050921 1.277066 0.102886
v 0.046568 0.634551 0.113373
v 0.000000 0.610881 0.123491
v 0.000000 0.517341 0.108055
v 0.049098 0.544154 0.099201
v 0.046568 0.634551 0.113373
v 0.049098 0.544154 0.099201
v 0.080309 0.580587 0.080309
v 0.086553 0.658221 0.086553
v -0.113373 0.634551 0.046568
v -0.123491 0.610881 0.000000
v -0.108055 0.517341 0.000000
v -0.099201 0.544154 0.049098
v -0.113373 0.634551 0.046568
v -0.099201 0.544154 0.049098
v -0.080309 0.580587 0.080309
v -0.086553 0.658221 0.086553
v -0.046568 0.634551 -0.113373
v 0.000000 0.610881 -0.123491
v 0.000000 0.517341 -0.108055
v -0.049098 0.544154 -0.099201
v -0.046568 0.634551 -0.113373
v -0.049098 0.544154 -0.099201
v -0.080309 0.580587 -0.080309
v -0.086553 0.658221 -0.086553
v 0.113373 0.634551 -0.046568
v 0.123491 0.610881 0.000000
v 0.108055 0.517341 0.000000
v 0.099201 0.544154 -0.049098
v 0.113373 0.634551 -0.046568
v 0.099201 0.544154 -0.049098
v 0.080309 0.580587 -0.080309
v 0.086553 0.658221 -0.086553
v 0.113373 0.634551 0.046568
v 0.086553 0.658221 0.086553
v 0.080309 0.580587 0.080309
v 0.099201 0.544154 0.049098
v 0.113373 0.634551 0.046568
v 0.086955 0.773363 0.086955
v 0.086553 0.658221 0.086553
v 0.113899 0.760727 0.046784
v 0.115478 0.920485 0.047433
v 0.088161 0.919543 0.088161
v 0.089366 1.063157 0.089366
v 0.117058 1.077426 0.048081
v 0.117584 1.195151 0.048298
v 0.089768 1.170602 0.089768
v 0.113373 0.634551 0.046568
v 0.123491 0.610881 0.000000
v 0.124065 0.748092 0.000000
v 0.113899 0.760727 0.046784
v 0.115478 0.920485 0.047433
v 0.125785 0.921428 0.000000
v 0.127505 1.091695 0.000000
v 0.117058 1.077426 0.048081
v 0.117584 1.195151 0.048298
v 0.128078 1.219700 0.000000
v 0.113373 0.634551 0.046568
v 0.099201 0.544154 0.049098
v 0.108055 0.517341 0.000000
v 0.123491 0.610881 0.000000
v -0.113373 0.634551 -0.046568
v -0.086553 0.658221 -0.086553
v -0.080309 0.580587 -0.080309
v -0.099201 0.544154 -0.049098
v -0.113373 0.634551 -0.046568
v -0.086955 0.773363 -0.086955
v -0.086553 0.658221 -0.086553
v -0.113899 0.760727 -0.046784
v -0.115478 0.920485 -0.047433
v -0.088161 0.919543 -0.088161
v -0.089366 1.063157 -0.089366
v -0.117058 1.077426 -0.048082
v -0.117584 1.195151 -0.048298
v -0.089768 1.170602 -0.089768
v -0.113373 0.634551 -0.046568
v -0.123491 0.610881 0.000000
v -0.124065 0.748092 0.000000
v -0.113899 0.760727 -0.046784
v -0.115478 0.920485 -0.047433
v -0.125785 0.921428 0.000000
v -0.127505 1.091695 0.000000
v -0.117058 1.077426 -0.048082
v -0.117584 1.195151 -0.048298
v -0.128078 1.219700 0.000000
v -0.113373 0.634551 -0.046568
v -0.099201 0.544154 -0.049098
v -0.108055 0.517341 0.000000
v -0.123491 0.610881 0.000000
v 0.058792 1.326574 -0.058792
v 0.050921 1.277066 -0.102886
v 0.000000 1.304019 -0.112068
v 0.000000 1.343227 -0.064039
v 0.058792 1.326574 -0.058792
v 0.102886 1.277066 -0.050921
v 0.083292 1.242451 -0.083292
v 0.050921 1.277066 -0.102886
v 0.058792 1.326574 -0.058792
v 0.064039 1.343227 0.000000
v 0.112068 1.304019 0.000000
v 0.102886 1.277066 -0.050921
v 0.058792 1.326574 -0.058792
v 0.000000 1.343227 -0.064039
v 0.000000 1.351554 0.000000
v 0.064039 1.343227 0.000000
v -0.056687 0.491733 -0.056687
v -0.049098 0.544154 -0.099201
v 0.000000 0.517341 -0.108055
v 0.000000 0.475017 -0.061746
v -0.056687 0.491733 -0.056687
v -0.099201 0.544154 -0.049098
v -0.080309 0.580587 -0.080309
v -0.049098 0.544154 -0.099201
v -0.056687 0.491733 -0.056687
v -0.061746 0.475017 0.000000
v -0.108055 0.517341 0.000000
v -0.099201 0.544154 -0.049098
v -0.056687 0.491733 -0.056687
v 0.000000 0.475017 -0.061746
v 0.000000 0.466659 0.000000
v -0.061746 0.475017 0.000000
v -0.117584 1.195151 -0.048298
v -0.102886 1.277066 -0.050921
v -0.083292 1.242451 -0.083292
v -0.089768 1.170602 -0.089768
v -0.117584 1.195151 -0.048298
v -0.128078 1.219700 0.000000
v -0.112068 1.304019 0.000000
v -0.102886 1.277066 -0.050921
v 0.117584 1.195151 0.048298
v 0.102886 1.277066 0.050921
v 0.083292 1.242451 0.083292
v 0.089768 1.170602 0.089768
v 0.117584 1.195151 0.048298
v 0.128078 1.219700 0.000000
v 0.112068 1.304019 0.000000
v 0.102886 1.277066 0.050921
v 0.056687 0.491733 -0.056687
v 0.049098 0.544154 -0.099201
v 0.080309 0.580587 -0.080309
v 0.099201 0.544154 -0.049098
v 0.056687 0.491733 -0.056687
v 0.000000 0.475017 -0.061746
v 0.000000 0.517341 -0.108055
v 0.049098 0.544154 -0.099201
v 0.056687 0.491733 -0.056687
v 0.061746 0.475017 0.000000
v 0.000000 0.466659 0.000000
v 0.000000 0.475017 -0.061746
v 0.056687 0.491733 -0.056687
v 0.099201 0.544154 -0.049098
v 0.108055 0.517341 0.000000
v 0.061746 0.475017 0.000000
v -0.058792 1.326574 -0.058792
v -0.050921 1.277066 -0.102886
v -0.083292 1.242451 -0.083292
v -0.102886 1.277066 -0.050921
v -0.058792 1.326574 -0.058792
v 0.000000 1.343227 -0.064039
v 0.000000 1.304019 -0.112068
v -0.050921 1.277066 -0.102886
v -0.058792 1.326574 -0.058792
v -0.064039 1.343227 0.000000
v 0.000000 1.351554 0.000000
v 0.000000 1.343227 -0.064039
v -0.058792 1.326574 -0.058792
v -0.102886 1.277066 -0.050921
v -0.112068 1.304019 0.000000
v -0.064039 1.343227 0.000000
v 0.046568 0.634551 -0.113373
v 0.086553 0.658221 -0.086553
v 0.080309 0.580587 -0.080309
v 0.049098 0.544154 -0.099201
v 0.046568 0.634551 -0.113373
v 0.086955 0.773363 -0.086955
v 0.086553 0.658221 -0.086553
v 0.046784 0.760727 -0.113899
v 0.047433 0.920485 -0.115479
v 0.088161 0.919543 -0.088161
v 0.089366 1.063157 -0.089366
v 0.048082 1.077426 -0.117058
v 0.048298 1.195151 -0.117584
v 0.089768 1.170602 -0.089768
v 0.046568 0.634551 -0.113373
v 0.000000 0.610881 -0.123491
v 0.000000 0.748092 -0.124065
v 0.046784 0.760727 -0.113899
v 0.047433 0.920485 -0.115479
v 0.000000 0.921428 -0.125785
v 0.000000 1.091695 -0.127505
v 0.048082 1.077426 -0.117058
v 0.048298 1.195151 -0.117584
v 0.000000 1.219700 -0.128078
v 0.046568 0.634551 -0.113373
v 0.049098 0.544154 -0.099201
v 0.000000 0.517341 -0.108055
v 0.000000 0.610881 -0.123491
v -0.046568 0.634551 0.113373
v -0.086553 0.658221 0.086553
v -0.080309 0.580587 0.080309
v -0.049098 0.544154 0.099201
v -0.046568 0.634551 0.113373
v -0.086955 0.773363 0.086955
v -0.086553 0.658221 0.086553
v -0.046784 0.760727 0.113899
v -0.047433 0.920485 0.115478
v -0.088161 0.919543 0.088161
v -0.089366 1.063157 0.089366
v -0.048082 1.077426 0.117057
v -0.048298 1.195151 0.117584
v -0.089768 1.170602 0.089768
v -0.046568 0.634551 0.113373
v 0.000000 0.610881 0.123491
v 0.000000 0.748092 0.124065
v -0.046784 0.760727 0.113899
v -0.047433 0.920485 0.115478
v 0.000000 0.921428 0.125785
v 0.000000 1.091695 0.127505
v -0.048082 1.077426 0.117057
v -0.048298 1.195151 0.117584
v 0.000000 1.219700 0.128078
v -0.046568 0.634551 0.113373
v -0.049098 0.544154 0.099201
v 0.000000 0.517341 0.108055
v 0.000000 0.610881 0.123491
v -0.058792 1.326574 0.058792
v -0.064039 1.343227 0.000000
v -0.112068 1.304019 0.000000
v -0.102886 1.277066 0.050921
v -0.058792 1.326574 0.058792
v 0.000000 1.343227 0.064039
v 0.000000 1.351554 0.000000
v -0.064039 1.343227 0.000000
v -0.058792 1.326574 0.058792
v -0.050921 1.277066 0.102886
v 0.000000 1.304019 0.112068
v 0.000000 1.343227 0.064039
v -0.058792 1.326574 0.058792
v -0.102886 1.277066 0.050921
v -0.083292 1.242451 0.083292
v -0.050921 1.277066 0.102886
v 0.056687 0.491734 0.056686
v 0.061746 0.475017 0.000000
v 0.108055 0.517341 0.000000
v 0.099201 0.544154 0.049098
v 0.056687 0.491734 0.056686
v 0.000000 0.475017 0.061746
v 0.000000 0.466659 0.000000
v 0.061746 0.475017 0.000000
v 0.056687 0.491734 0.056686
v 0.049098 0.544154 0.099201
v 0.000000 0.517341 0.108055
v 0.000000 0.475017 0.061746
v 0.056687 0.491734 0.056686
v 0.099201 0.544154 0.049098
v 0.080309 0.580587 0.080309
v 0.049098 0.544154 0.099201
v -0.048298 1.195151 0.117584
v -0.050921 1.277066 0.102886
v -0.083292 1.242451 0.083292
v -0.089768 1.170602 0.089768
v -0.048298 1.195151 0.117584
v 0.000000 1.219700 0.128078
v 0.000000 1.304019 0.112068
v -0.050921 1.277066 0.102886
v 0.048298 1.195151 -0.117584
v 0.050921 1.277066 -0.102886
v 0.083292 1.242451 -0.083292
v 0.089768 1.170602 -0.089768
v 0.048298 1.195151 -0.117584
v 0.000000 1.219700 -0.128078
v 0.000000 1.304019 -0.112068
v 0.050921 1.277066 -0.102886
vn 0.000000 0.000000 1.000000
vn 0.000000 0.000000 1.000000
vn 0.000000 0.000000 1.000000
vn 0.000000 0.000000 1.000000
vn -1.000000 0.000000 0.000000
vn -1.000000 0.000000 0.000000
vn -1.000000 0.000000 0.000000
vn -1.000000 0.000000 0.000000
vn 0.000001 1.000000 0.000000
vn 0.000001 1.000000 0.000000
vn 0.000001 1.000000 0.000000
vn 0.000001 1.000000 0.000000
vn 0.000001 1.000000 0.000000
vn 0.000001 1.000000 0.000000
vn 0.000001 1.000000 0.000000
vn 0.000001 1.000000 0.000000
vn 1.000000 0.000000 0.000000
vn 1.000000 0.000000 0.000000
vn 1.000000 0.000000 0.000000
vn 1.000000 0.000000 0.000000
vn 0.000000 0.000000 -1.000000
vn 0.000000 0.000000 -1.000000
vn 0.000000 0.000000 -1.000000
vn 0.000000 0.000000 -1.000000
vn 0.707107 0.000000 0.707107
vn 0.707107 0.000000 0.707107
vn 0.707107 0.000000 0.707107
vn 0.707107 0.000000 0.707107
vn 0.707107 0.000000 -0.707107
vn 0.707107 0.000000 -0.707107
vn 0.707107 0.000000 -0.707107
vn 0.707107 0.000000 -0.707107
vn -0.707107 0.000000 -0.707107
vn -0.707107 0.000000 -0.707107
vn -0.707107 0.000000 -0.707107
vn -0.707107 0.000000 -0.707107
vn -0.707107 0.000000 0.707107
vn -0.707107 0.000000 0.707107
vn -0.707107 0.000000 0.707107
vn -0.707107 0.000000 0.707107
vn 0.000000 -1.000000 0.000000
vn 0.000000 -1.000000 0.000000
vn 0.000000 -1.000000 0.000000
vn 0.000000 -1.000000 0.000000
vn 0.000000 -1.000000 0.000000
vn 0.000000 -1.000000 0.000000
vn 0.000000 -1.000000 0.000000
vn 0.000000 -1.000000 0.000000
vn 0.977568 -0.004560 -0.210571
vn 0.977568 -0.004560 -0.210571
vn 0.977568 -0.004560 -0.210571
vn 0.977568 -0.004560 -0.210571
vn 0.976889 -0.010091 -0.213511
vn 0.976889 -0.010091 -0.213511
vn 0.976845 -0.004254 -0.213904
vn 0.976845 -0.004254 -0.213904
vn 0.976845 -0.004254 -0.213904
vn 0.976845 -0.004254 -0.213904
vn 0.945927 0.170381 -0.276032
vn 0.945927 0.170381 -0.276032
vn 0.945927 0.170381 -0.276032
vn 0.945927 0.170381 -0.276032
vn 0.787098 0.123530 -0.604332
vn 0.787098 0.123530 -0.604332
vn 0.787098 0.123530 -0.604332
vn 0.787098 0.123530 -0.604332
vn 0.831550 -0.004952 -0.555427
vn 0.831550 -0.004952 -0.555427
vn 0.831550 -0.004952 -0.555427
vn 0.831550 -0.004952 -0.555427
vn 0.831390 -0.011130 -0.555579
vn 0.831390 -0.011130 -0.555579
vn 0.829509 -0.004621 -0.558474
vn 0.829509 -0.004621 -0.558474
vn 0.829509 -0.004621 -0.558474
vn 0.829509 -0.004621 -0.558474
vn -0.210570 -0.004560 -0.977568
vn -0.210570 -0.004560 -0.977568
vn -0.210570 -0.004560 -0.977568
vn -0.210570 -0.004560 -0.977568
vn -0.213512 -0.010091 -0.976888
vn -0.213512 -0.010091 -0.976888
vn -0.213904 -0.004254 -0.976845
vn -0.213904 -0.004254 -0.976845
vn -0.213904 -0.004254 -0.976845
vn -0.213904 -0.004254 -0.976845
vn -0.276032 0.170381 -0.945926
vn -0.276032 0.170381 -0.945926
vn -0.276032 0.170381 -0.945926
vn -0.276032 0.170381 -0.945926
vn -0.604331 0.123530 -0.787099
vn -0.604331 0.123530 -0.787099
vn -0.604331 0.123530 -0.787099
vn -0.604331 0.123530 -0.787099
vn -0.555428 -0.004953 -0.831550
vn -0.555428 -0.004953 -0.831550
vn -0.555428 -0.004953 -0.831550
vn -0.555428 -0.004953 -0.831550
vn -0.555579 -0.011130 -0.831390
vn -0.555579 -0.011130 -0.831390
vn -0.558475 -0.004621 -0.829509
vn -0.558475 -0.004621 -0.829509
vn -0.558475 -0.004621 -0.829509
vn -0.558475 -0.004621 -0.829509
vn -0.977568 -0.004560 0.210571
vn -0.977568 -0.004560 0.210571
vn -0.977568 -0.004560 0.210571
vn -0.977568 -0.004560 0.210571
vn -0.976889 -0.010091 0.213511
vn -0.976889 -0.010091 0.213511
vn -0.976845 -0.004254 0.213904
vn -0.976845 -0.004254 0.213904
vn -0.976845 -0.004254 0.213904
vn -0.976845 -0.004254 0.213904
vn -0.945926 0.170381 0.276031
vn -0.945926 0.170381 0.276031
vn -0.945926 0.170381 0.276031
vn -0.945926 0.170381 0.276031
vn -0.787098 0.123531 0.604332
vn -0.787098 0.123531 0.604332
vn -0.787098 0.123531 0.604332
vn -0.787098 0.123531 0.604332
vn -0.831550 -0.004952 0.555427
vn -0.831550 -0.004952 0.555427
vn -0.831550 -0.004952 0.555427
vn -0.831550 -0.004952 0.555427
vn -0.831390 -0.011130 0.555579
vn -0.831390 -0.011130 0.555579
vn -0.829509 -0.004621 0.558474
vn -0.829509 -0.004621 0.558474
vn -0.829509 -0.004621 0.558474
vn -0.829509 -0.004621 0.558474
vn 0.210570 -0.004560 0.977568
vn 0.210570 -0.004560 0.977568
vn 0.210570 -0.004560 0.977568
vn 0.210570 -0.004560 0.977568
vn 0.213512 -0.010091 0.976888
vn 0.213512 -0.010091 0.976888
vn 0.213904 -0.004254 0.976845
vn 0.213904 -0.004254 0.976845
vn 0.213904 -0.004254 0.976845
vn 0.213904 -0.004254 0.976845
vn 0.276032 0.170382 0.945926
vn 0.276032 0.170382 0.945926
vn 0.276032 0.170382 0.945926
vn 0.276032 0.170382 0.945926
vn 0.604332 0.123530 0.787098
vn 0.604332 0.123530 0.787098
vn 0.604332 0.123530 0.787098
vn 0.604332 0.123530 0.787098
vn 0.555428 -0.004952 0.831550
vn 0.555428 -0.004952 0.831550
vn 0.555428 -0.004952 0.831550
vn 0.555428 -0.004952 0.831550
vn 0.555579 -0.011130 0.831390
vn 0.555579 -0.011130 0.831390
vn 0.558475 -0.004621 0.829509
vn 0.558475 -0.004621 0.829509
vn 0.558475 -0.004621 0.829509
vn 0.558475 -0.004621 0.829509
vn -0.211081 -0.954405 0.211081
vn -0.211081 -0.954405 0.211081
vn -0.211081 -0.954405 0.211081
vn -0.211081 -0.954405 0.211081
vn -0.697391 -0.625839 0.349244
vn -0.697391 -0.625839 0.349244
vn -0.697391 -0.625839 0.349244
vn -0.697391 -0.625839 0.349244
vn -0.661870 -0.351932 0.661870
vn -0.661870 -0.351932 0.661870
vn -0.661870 -0.351932 0.661870
vn -0.661870 -0.351932 0.661870
vn -0.349244 -0.625839 0.697391
vn -0.349244 -0.625839 0.697391
vn -0.349244 -0.625839 0.697391
vn -0.349244 -0.625839 0.697391
vn 0.203453 0.957712 0.203455
vn 0.203453 0.957712 0.203455
vn 0.203453 0.957712 0.203455
vn 0.203453 0.957712 0.203455
vn 0.665198 0.659716 0.349695
vn 0.665198 0.659716 0.349695
vn 0.665198 0.659716 0.349695
vn 0.665198 0.659716 0.349695
vn 0.653821 0.380837 0.653821
vn 0.653821 0.380837 0.653821
vn 0.653821 0.380837 0.653821
vn 0.653821 0.380837 0.653821
vn 0.349695 0.659716 0.665198
vn 0.349695 0.659716 0.665198
vn 0.349695 0.659716 0.665198
vn 0.349695 0.659716 0.665198
vn 0.267672 -0.149534 0.951836
vn 0.267672 -0.149534 0.951836
vn 0.267672 -0.149534 0.951836
vn 0.267672 -0.149534 0.951836
vn 0.600831 -0.109492 0.791842
vn 0.600831 -0.109492 0.791842
vn 0.600831 -0.109492 0.791842
vn 0.600831 -0.109492 0.791842
vn -0.951836 -0.149534 0.267671
vn -0.951836 -0.149534 0.267671
vn -0.951836 -0.149534 0.267671
vn -0.951836 -0.149534 0.267671
vn -0.791842 -0.109492 0.600831
vn -0.791842 -0.109492 0.600831
vn -0.791842 -0.109492 0.600831
vn -0.791842 -0.109492 0.600831
vn -0.267671 -0.149535 -0.951836
vn -0.267671 -0.149535 -0.951836
vn -0.267671 -0.149535 -0.951836
vn -0.267671 -0.149535 -0.951836
vn -0.600831 -0.109492 -0.791842
vn -0.600831 -0.109492 -0.791842
vn -0.600831 -0.109492 -0.791842
vn -0.600831 -0.109492 -0.791842
vn 0.951836 -0.149534 -0.267671
vn 0.951836 -0.149534 -0.267671
vn 0.951836 -0.149534 -0.267671
vn 0.951836 -0.149534 -0.267671
vn 0.791842 -0.109492 -0.600831
vn 0.791842 -0.109492 -0.600831
vn 0.791842 -0.109492 -0.600831
vn 0.791842 -0.109492 -0.600831
vn 0.791842 -0.109492 0.600831
vn 0.791842 -0.109492 0.600831
vn 0.791842 -0.109492 0.600831
vn 0.791842 -0.109492 0.600831
vn 0.829509 -0.004621 0.558474
vn 0.829706 -0.010934 0.558094
vn 0.829509 -0.004621 0.558474
vn 0.829706 -0.010934 0.558094
vn 0.829706 -0.010934 0.558094
vn 0.829706 -0.010934 0.558094
vn 0.831389 -0.011130 0.555579
vn 0.831389 -0.011130 0.555579
vn 0.831550 -0.004952 0.555427
vn 0.831550 -0.004952 0.555427
vn 0.976845 -0.004254 0.213904
vn 0.976845 -0.004254 0.213904
vn 0.976889 -0.010091 0.213512
vn 0.976889 -0.010091 0.213512
vn 0.977485 -0.010273 0.210753
vn 0.977485 -0.010273 0.210753
vn 0.977485 -0.010273 0.210753
vn 0.977485 -0.010273 0.210753
vn 0.977568 -0.004560 0.210571
vn 0.977568 -0.004560 0.210571
vn 0.951836 -0.149534 0.267672
vn 0.951836 -0.149534 0.267672
vn 0.951836 -0.149534 0.267672
vn 0.951836 -0.149534 0.267672
vn -0.791842 -0.109492 -0.600831
vn -0.791842 -0.109492 -0.600831
vn -0.791842 -0.109492 -0.600831
vn -0.791842 -0.109492 -0.600831
vn -0.829509 -0.004621 -0.558474
vn -0.829706 -0.010934 -0.558094
vn -0.829509 -0.004621 -0.558474
vn -0.829706 -0.010934 -0.558094
vn -0.829706 -0.010934 -0.558094
vn -0.829706 -0.010934 -0.558094
vn -0.831389 -0.011130 -0.555579
vn -0.831389 -0.011130 -0.555579
vn -0.831550 -0.004952 -0.555427
vn -0.831550 -0.004952 -0.555427
vn -0.976845 -0.004254 -0.213904
vn -0.976845 -0.004254 -0.213904
vn -0.976889 -0.010091 -0.213512
vn -0.976889 -0.010091 -0.213512
vn -0.977485 -0.010273 -0.210753
vn -0.977485 -0.010273 -0.210753
vn -0.977485 -0.010273 -0.210753
vn -0.977485 -0.010273 -0.210753
vn -0.977568 -0.004560 -0.210571
vn -0.977568 -0.004560 -0.210571
vn -0.951836 -0.149534 -0.267671
vn -0.951836 -0.149534 -0.267671
vn -0.951836 -0.149534 -0.267671
vn -0.951836 -0.149534 -0.267671
vn 0.349696 0.659715 -0.665198
vn 0.349696 0.659715 -0.665198
vn 0.349696 0.659715 -0.665198
vn 0.349696 0.659715 -0.665198
vn 0.653821 0.380837 -0.653821
vn 0.653821 0.380837 -0.653821
vn 0.653821 0.380837 -0.653821
vn 0.653821 0.380837 -0.653821
vn 0.665198 0.659716 -0.349695
vn 0.665198 0.659716 -0.349695
vn 0.665198 0.659716 -0.349695
vn 0.665198 0.659716 -0.349695
vn 0.203453 0.957712 -0.203455
vn 0.203453 0.957712 -0.203455
vn 0.203453 0.957712 -0.203455
vn 0.203453 0.957712 -0.203455
vn -0.349244 -0.625839 -0.697391
vn -0.349244 -0.625839 -0.697391
vn -0.349244 -0.625839 -0.697391
vn -0.349244 -0.625839 -0.697391
vn -0.661870 -0.351932 -0.661870
vn -0.661870 -0.351932 -0.661870
vn -0.661870 -0.351932 -0.661870
vn -0.661870 -0.351932 -0.661870
vn -0.697391 -0.625839 -0.349244
vn -0.697391 -0.625839 -0.349244
vn -0.697391 -0.625839 -0.349244
vn -0.697391 -0.625839 -0.349244
vn -0.211081 -0.954405 -0.211081
vn -0.211081 -0.954405 -0.211081
vn -0.211081 -0.954405 -0.211081
vn -0.211081 -0.954405 -0.211081
vn -0.787098 0.123530 -0.604332
vn -0.787098 0.123530 -0.604332
vn -0.787098 0.123530 -0.604332
vn -0.787098 0.123530 -0.604332
vn -0.945927 0.170381 -0.276031
vn -0.945927 0.170381 -0.276031
vn -0.945927 0.170381 -0.276031
vn -0.945927 0.170381 -0.276031
vn 0.787098 0.123531 0.604332
vn 0.787098 0.123531 0.604332
vn 0.787098 0.123531 0.604332
vn 0.787098 0.123531 0.604332
vn 0.945927 0.170381 0.276031
vn 0.945927 0.170381 0.276031
vn 0.945927 0.170381 0.276031
vn 0.945927 0.170381 0.276031
vn 0.661870 -0.351932 -0.661870
vn 0.661870 -0.351932 -0.661870
vn 0.661870 -0.351932 -0.661870
vn 0.661870 -0.351932 -0.661870
vn 0.349244 -0.625839 -0.697391
vn 0.349244 -0.625839 -0.697391
vn 0.349244 -0.625839 -0.697391
vn 0.349244 -0.625839 -0.697391
vn 0.211081 -0.954405 -0.211081
vn 0.211081 -0.954405 -0.211081
vn 0.211081 -0.954405 -0.211081
vn 0.211081 -0.954405 -0.211081
vn 0.697391 -0.625839 -0.349244
vn 0.697391 -0.625839 -0.349244
vn 0.697391 -0.625839 -0.349244
vn 0.697391 -0.625839 -0.349244
vn -0.653822 0.380837 -0.653820
vn -0.653822 0.380837 -0.653820
vn -0.653822 0.380837 -0.653820
vn -0.653822 0.380837 -0.653820
vn -0.349695 0.659715 -0.665198
vn -0.349695 0.659715 -0.665198
vn -0.349695 0.659715 -0.665198
vn -0.349695 0.659715 -0.665198
vn -0.203453 0.957712 -0.203455
vn -0.203453 0.957712 -0.203455
vn -0.203453 0.957712 -0.203455
vn -0.203453 0.957712 -0.203455
vn -0.665198 0.659716 -0.349695
vn -0.665198 0.659716 -0.349695
vn -0.665198 0.659716 -0.349695
vn -0.665198 0.659716 -0.349695
vn 0.600831 -0.109492 -0.791842
vn 0.600831 -0.109492 -0.791842
vn 0.600831 -0.109492 -0.791842
vn 0.600831 -0.109492 -0.791842
vn 0.558475 -0.004621 -0.829509
vn 0.558094 -0.010934 -0.829706
vn 0.558475 -0.004621 -0.829509
vn 0.558094 -0.010934 -0.829706
vn 0.558094 -0.010934 -0.829706
vn 0.558094 -0.010934 -0.829706
vn 0.555579 -0.011130 -0.831390
vn 0.555579 -0.011130 -0.831390
vn 0.555428 -0.004953 -0.831550
vn 0.555428 -0.004953 -0.831550
vn 0.213904 -0.004254 -0.976845
vn 0.213904 -0.004254 -0.976845
vn 0.213512 -0.010091 -0.976888
vn 0.213512 -0.010091 -0.976888
vn 0.210753 -0.010273 -0.977485
vn 0.210753 -0.010273 -0.977485
vn 0.210753 -0.010273 -0.977485
vn 0.210753 -0.010273 -0.977485
vn 0.210570 -0.004560 -0.977568
vn 0.210570 -0.004560 -0.977568
vn 0.267672 -0.149535 -0.951836
vn 0.267672 -0.149535 -0.951836
vn 0.267672 -0.149535 -0.951836
vn 0.267672 -0.149535 -0.951836
vn -0.600831 -0.109492 0.791842
vn -0.600831 -0.109492 0.791842
vn -0.600831 -0.109492 0.791842
vn -0.600831 -0.109492 0.791842
vn -0.558475 -0.004621 0.829509
vn -0.558094 -0.010934 0.829706
vn -0.558475 -0.004621 0.829509
vn -0.558094 -0.010934 0.829706
vn -0.558094 -0.010934 0.829706
vn -0.558094 -0.010934 0.829706
vn -0.555579 -0.011130 0.831390
vn -0.555579 -0.011130 0.831390
vn -0.555428 -0.004952 0.831550
vn -0.555428 -0.004952 0.831550
vn -0.213904 -0.004254 0.976845
vn -0.213904 -0.004254 0.976845
vn -0.213512 -0.010091 0.976888
vn -0.213512 -0.010091 0.976888
vn -0.210753 -0.010273 0.977485
vn -0.210753 -0.010273 0.977485
vn -0.210753 -0.010273 0.977485
vn -0.210753 -0.010273 0.977485
vn -0.210570 -0.004560 0.977568
vn -0.210570 -0.004560 0.977568
vn -0.267672 -0.149534 0.951836
vn -0.267672 -0.149534 0.951836
vn -0.267672 -0.149534 0.951836
vn -0.267672 -0.149534 0.951836
vn -0.665198 0.659716 0.349695
vn -0.665198 0.659716 0.349695
vn -0.665198 0.659716 0.349695
vn -0.665198 0.659716 0.349695
vn -0.203453 0.957712 0.203455
vn -0.203453 0.957712 0.203455
vn -0.203453 0.957712 0.203455
vn -0.203453 0.957712 0.203455
vn -0.349696 0.659716 0.665198
vn -0.349696 0.659716 0.665198
vn -0.349696 0.659716 0.665198
vn -0.349696 0.659716 0.665198
vn -0.653821 0.380837 0.653820
vn -0.653821 0.380837 0.653820
vn -0.653821 0.380837 0.653820
vn -0.653821 0.380837 0.653820
vn 0.697391 -0.625838 0.349245
vn 0.697391 -0.625838 0.349245
vn 0.697391 -0.625838 0.349245
vn 0.697391 -0.625838 0.349245
vn 0.211082 -0.954405 0.211082
vn 0.211082 -0.954405 0.211082
vn 0.211082 -0.954405 0.211082
vn 0.211082 -0.954405 0.211082
vn 0.349245 -0.625839 0.697391
vn 0.349245 -0.625839 0.697391
vn 0.349245 -0.625839 0.697391
vn 0.349245 -0.625839 0.697391
vn 0.661870 -0.351933 0.661870
vn 0.661870 -0.351933 0.661870
vn 0.661870 -0.351933 0.661870
vn 0.661870 -0.351933 0.661870
vn -0.604332 0.123531 0.787098
vn -0.604332 0.123531 0.787098
vn -0.604332 0.123531 0.787098
vn -0.604332 0.123531 0.787098
vn -0.276032 0.170382 0.945926
vn -0.276032 0.170382 0.945926
vn -0.276032 0.170382 0.945926
vn -0.276032 0.170382 0.945926
vn 0.604332 0.123530 -0.787098
vn 0.604332 0.123530 -0.787098
vn 0.604332 0.123530 -0.787098
vn 0.604332 0.123530 -0.787098
vn 0.276032 0.170381 -0.945926
vn 0.276032 0.170381 -0.945926
vn 0.276032 0.170381 -0.945926
vn 0.276032 0.170381 -0.945926
g Corndog_LightYellow
usemtl LightYellow
f 1 2 3
f 1 3 4
f 5 6 7
f 5 7 8
f 9 10 11
f 11 12 9
f 12 13 9
f 12 14 13
f 14 15 13
f 14 16 15
f 17 18 19
f 17 19 20
f 21 22 23
f 21 23 24
f 25 26 27
f 25 27 28
f 29 30 31
f 29 31 32
f 33 34 35
f 33 35 36
f 37 38 39
f 37 39 40
f 41 42 43
f 43 44 41
f 44 45 41
f 44 46 45
f 46 47 45
f 46 48 47
g Corndog_Corndog
usemtl Corndog
f 49 50 51
f 49 51 52
f 53 52 51
f 53 51 54
f 53 54 55
f 53 55 56
f 57 56 55
f 57 55 58
f 59 60 61
f 59 61 62
f 63 64 65
f 63 65 66
f 67 68 69
f 67 70 68
f 71 68 70
f 71 72 68
f 71 73 72
f 71 74 73
f 75 73 74
f 75 76 73
f 77 78 79
f 77 79 80
f 81 80 79
f 81 79 82
f 81 82 83
f 81 83 84
f 85 84 83
f 85 83 86
f 87 88 89
f 87 89 90
f 91 92 93
f 91 93 94
f 95 96 97
f 95 98 96
f 99 96 98
f 99 100 96
f 99 101 100
f 99 102 101
f 103 101 102
f 103 104 101
f 105 106 107
f 105 107 108
f 109 108 107
f 109 107 110
f 109 110 111
f 109 111 112
f 113 112 111
f 113 111 114
f 115 116 117
f 115 117 118
f 119 120 121
f 119 121 122
f 123 124 125
f 123 126 124
f 127 124 126
f 127 128 124
f 127 129 128
f 127 130 129
f 131 129 130
f 131 132 129
f 133 134 135
f 133 135 136
f 137 136 135
f 137 135 138
f 137 138 139
f 137 139 140
f 141 140 139
f 141 139 142
f 143 144 145
f 143 145 146
f 147 148 149
f 147 149 150
f 151 152 153
f 151 154 152
f 155 152 154
f 155 156 152
f 155 157 156
f 155 158 157
f 159 157 158
f 159 160 157
f 161 162 163
f 161 163 164
f 165 166 167
f 165 167 168
f 169 170 171
f 169 171 172
f 173 174 175
f 173 175 176
f 177 178 179
f 177 179 180
f 181 182 183
f 181 183 184
f 185 186 187
f 185 187 188
f 189 190 191
f 189 191 192
f 193 194 195
f 193 195 196
f 197 198 199
f 197 199 200
f 201 202 203
f 201 203 204
f 205 206 207
f 205 207 208
f 209 210 211
f 209 211 212
f 213 214 215
f 213 215 216
f 217 218 219
f 217 219 220
f 221 222 223
f 221 223 224
f 225 226 227
f 225 227 228
f 229 230 231
f 229 232 230
f 233 230 232
f 233 234 230
f 233 235 234
f 233 236 235
f 237 235 236
f 237 238 235
f 239 240 241
f 239 241 242
f 243 242 241
f 243 241 244
f 243 244 245
f 243 245 246
f 247 246 245
f 247 245 248
f 249 250 251
f 249 251 252
f 253 254 255
f 253 255 256
f 257 258 259
f 257 260 258
f 261 258 260
f 261 262 258
f 261 263 262
f 261 264 263
f 265 263 264
f 265 266 263
f 267 268 269
f 267 269 270
f 271 270 269
f 271 269 272
f 271 272 273
f 271 273 274
f 275 274 273
f 275 273 276
f 277 278 279
f 277 279 280
f 281 282 283
f 281 283 284
f 285 286 287
f 285 287 288
f 289 290 291
f 289 291 292
f 293 294 295
f 293 295 296
f 297 298 299
f 297 299 300
f 301 302 303
f 301 303 304
f 305 306 307
f 305 307 308
f 309 310 311
f 309 311 312
f 313 314 315
f 313 315 316
f 317 318 319
f 317 319 320
f 321 322 323
f 321 323 324
f 325 326 327
f 325 327 328
f 329 330 331
f 329 331 332
f 333 334 335
f 333 335 336
f 337 338 339
f 337 339 340
f 341 342 343
f 341 343 344
f 345 346 347
f 345 347 348
f 349 350 351
f 349 351 352
f 353 354 355
f 353 355 356
f 357 358 359
f 357 359 360
f 361 362 363
f 361 363 364
f 365 366 367
f 365 368 366
f 369 366 368
f 369 370 366
f 369 371 370
f 369 372 371
f 373 371 372
f 373 374 371
f 375 376 377
f 375 377 378
f 379 378 377
f 379 377 380
f 379 380 381
f 379 381 382
f 383 382 381
f 383 381 384
f 385 386 387
f 385 387 388
f 389 390 391
f 389 391 392
f 393 394 395
f 393 396 394
f 397 394 396
f 397 398 394
f 397 399 398
f 397 400 399
f 401 399 400
f 401 402 399
f 403 404 405
f 403 405 406
f 407 406 405
f 407 405 408
f 407 408 409
f 407 409 410
f 411 410 409
f 411 409 412
f 413 414 415
f 413 415 416
f 417 418 419
f 417 419 420
f 421 422 423
f 421 423 424
f 425 426 427
f 425 427 428
f 429 430 431
f 429 431 432
f 433 434 435
f 433 435 436
f 437 438 439
f 437 439 440
f 441 442 443
f 441 443 444
f 445 446 447
f 445 447 448
f 449 450 451
f 449 451 452
f 453 454 455
f 453 455 456
f 457 458 459
f 457 459 460
f 461 462 463
f 461 463 464
