mtllib Materials.mtl
# Ultimate Food Pack - Croissant
o Croissant
v 0.000000 -0.135573 -0.274892
v -0.466876 -0.130076 -0.162314
v -0.466876 0.098859 -0.162314
v 0.000000 0.103668 -0.274892
v -0.209729 -0.130076 0.296662
v 0.000000 -0.135573 0.274892
v 0.000000 0.103668 0.274892
v -0.209729 0.098859 0.296662
v 0.000000 -0.274892 -0.134063
v 0.000000 -0.274892 0.134590
v -0.277115 -0.263394 0.176386
v -0.399959 -0.263394 -0.042875
v -0.363576 -0.109559 -0.191597
v -0.652237 -0.101343 0.113038
v -0.652237 0.073718 0.113038
v -0.363576 0.080907 -0.191597
v 0.000000 0.274892 -0.101813
v 0.000000 0.103668 -0.274892
v -0.466876 0.098859 -0.162314
v -0.384635 0.262707 -0.015524
v -0.292547 0.262707 0.148843
v -0.209729 0.098859 0.296662
v 0.000000 0.103668 0.274892
v 0.000000 0.274892 0.102460
v -0.384635 0.262707 -0.015524
v -0.292547 0.262707 0.148843
v 0.000000 0.274892 0.102460
v 0.000000 0.274892 -0.101813
v 0.000000 -0.274892 0.134590
v 0.000000 -0.135573 0.274892
v -0.209729 -0.130076 0.296662
v -0.277115 -0.263394 0.176386
v -0.399959 -0.263394 -0.042875
v -0.466876 -0.130076 -0.162314
v 0.000000 -0.135573 -0.274892
v 0.000000 -0.274892 -0.134063
v -0.277115 -0.263394 0.176386
v -0.209729 -0.130076 0.296662
v -0.209729 0.098859 0.296662
v -0.292547 0.262707 0.148843
v -0.399959 -0.263394 -0.042875
v -0.384635 0.262707 -0.015524
v -0.466876 0.098859 -0.162314
v -0.466876 -0.130076 -0.162314
v -0.313446 -0.101343 0.329975
v -0.107394 -0.109559 0.163296
v -0.107394 0.080907 0.163296
v -0.313446 0.073718 0.329975
v -0.297954 -0.220475 -0.100690
v -0.172770 -0.220475 0.072729
v -0.402227 -0.203287 0.273126
v -0.564074 -0.203287 0.169491
v -0.282927 0.217222 -0.079873
v -0.363576 0.080907 -0.191597
v -0.652237 0.073718 0.113038
v -0.543884 0.199008 0.182419
v -0.422558 0.199008 0.260108
v -0.313446 0.073718 0.329975
v -0.107394 0.080907 0.163296
v -0.187742 0.217222 0.051989
v -0.543884 0.199008 0.182419
v -0.422558 0.199008 0.260108
v -0.187742 0.217222 0.051989
v -0.282927 0.217222 -0.079873
v -0.172770 -0.220475 0.072729
v -0.107394 -0.109559 0.163296
v -0.313446 -0.101343 0.329975
v -0.402227 -0.203287 0.273126
v -0.564074 -0.203287 0.169491
v -0.652237 -0.101343 0.113038
v -0.363576 -0.109559 -0.191597
v -0.297954 -0.220475 -0.100690
v -0.652237 -0.101343 0.113038
v -0.564074 -0.203287 0.169491
v -0.402227 -0.203287 0.273126
v -0.313446 -0.101343 0.329975
v -0.652237 0.073718 0.113038
v -0.313446 0.073718 0.329975
v -0.543884 0.199008 0.182419
v -0.422558 0.199008 0.260108
v -0.582977 -0.080878 0.089259
v -0.616186 -0.046397 0.441102
v -0.616186 0.025641 0.441102
v -0.582977 0.055811 0.089259
v -0.451277 -0.046397 0.455598
v -0.302027 -0.080878 0.229745
v -0.302027 0.055811 0.229745
v -0.451277 0.025641 0.455598
v -0.511011 -0.160478 0.125245
v -0.373724 -0.160478 0.193894
v -0.494492 -0.088347 0.451799
v -0.573272 -0.088347 0.444874
v -0.494531 0.153640 0.133486
v -0.582977 0.055811 0.089259
v -0.616186 0.025641 0.441102
v -0.563445 0.077198 0.445738
v -0.504388 0.077198 0.450929
v -0.451277 0.025641 0.455598
v -0.302027 0.055811 0.229745
v -0.390143 0.153640 0.185684
v -0.563445 0.077198 0.445738
v -0.504388 0.077198 0.450929
v -0.390143 0.153640 0.185684
v -0.494531 0.153640 0.133486
v -0.373724 -0.160478 0.193894
v -0.302027 -0.080878 0.229745
v -0.451277 -0.046397 0.455598
v -0.494492 -0.088347 0.451799
v -0.573272 -0.088347 0.444874
v -0.616186 -0.046397 0.441102
v -0.582977 -0.080878 0.089259
v -0.511011 -0.160478 0.125245
v -0.616186 -0.046397 0.441102
v -0.573272 -0.088347 0.444874
v -0.494492 -0.088347 0.451799
v -0.451277 -0.046397 0.455598
v -0.616186 0.025641 0.441102
v -0.451277 0.025641 0.455598
v -0.563445 0.077198 0.445738
v -0.504388 0.077198 0.450929
v 0.000000 -0.135573 -0.274892
v 0.000000 0.103668 -0.274892
v 0.466876 0.098859 -0.162314
v 0.466876 -0.130076 -0.162314
v 0.209729 -0.130076 0.296662
v 0.209729 0.098859 0.296662
v 0.000000 0.103668 0.274892
v 0.000000 -0.135573 0.274892
v 0.000000 -0.274892 -0.134063
v 0.399959 -0.263394 -0.042875
v 0.277115 -0.263394 0.176386
v 0.000000 -0.274892 0.134590
v 0.363576 -0.109559 -0.191597
v 0.363576 0.080907 -0.191597
v 0.652237 0.073718 0.113038
v 0.652237 -0.101343 0.113038
v 0.000000 0.274892 -0.101813
v 0.384635 0.262707 -0.015524
v 0.466876 0.098859 -0.162314
v 0.000000 0.103668 -0.274892
v 0.292547 0.262707 0.148843
v 0.000000 0.274892 0.102460
v 0.000000 0.103668 0.274892
v 0.209729 0.098859 0.296662
v 0.384635 0.262707 -0.015524
v 0.000000 0.274892 -0.101813
v 0.000000 0.274892 0.102460
v 0.292547 0.262707 0.148843
v 0.000000 -0.274892 0.134590
v 0.277115 -0.263394 0.176386
v 0.209729 -0.130076 0.296662
v 0.000000 -0.135573 0.274892
v 0.399959 -0.263394 -0.042875
v 0.000000 -0.274892 -0.134063
v 0.000000 -0.135573 -0.274892
v 0.466876 -0.130076 -0.162314
v 0.292547 0.262707 0.148843
v 0.209729 0.098859 0.296662
v 0.209729 -0.130076 0.296662
v 0.277115 -0.263394 0.176386
v 0.399959 -0.263394 -0.042875
v 0.384635 0.262707 -0.015524
v 0.466876 0.098859 -0.162314
v 0.466876 -0.130076 -0.162314
v 0.313446 -0.101343 0.329975
v 0.313446 0.073718 0.329975
v 0.107394 0.080907 0.163296
v 0.107394 -0.109559 0.163296
v 0.297954 -0.220475 -0.100690
v 0.564074 -0.203287 0.169491
v 0.402227 -0.203287 0.273126
v 0.172770 -0.220475 0.072729
v 0.282927 0.217222 -0.079873
v 0.543884 0.199008 0.182419
v 0.652237 0.073718 0.113038
v 0.363576 0.080907 -0.191597
v 0.422558 0.199008 0.260108
v 0.187742 0.217222 0.051989
v 0.107394 0.080907 0.163296
v 0.313446 0.073718 0.329975
v 0.543884 0.199008 0.182419
v 0.282927 0.217222 -0.079873
v 0.187742 0.217222 0.051989
v 0.422558 0.199008 0.260108
v 0.172770 -0.220475 0.072729
v 0.402227 -0.203287 0.273126
v 0.313446 -0.101343 0.329975
v 0.107394 -0.109559 0.163296
v 0.564074 -0.203287 0.169491
v 0.297954 -0.220475 -0.100690
v 0.363576 -0.109559 -0.191597
v 0.652237 -0.101343 0.113038
v 0.313446 -0.101343 0.329975
v 0.402227 -0.203287 0.273126
v 0.564074 -0.203287 0.169491
v 0.652237 -0.101343 0.113038
v 0.313446 0.073718 0.329975
v 0.652237 0.073718 0.113038
v 0.422558 0.199008 0.260108
v 0.543884 0.199008 0.182419
v 0.582977 -0.080878 0.089259
v 0.582977 0.055811 0.089259
v 0.616186 0.025641 0.441102
v 0.616186 -0.046397 0.441102
v 0.451277 -0.046397 0.455598
v 0.451277 0.025641 0.455598
v 0.302027 0.055811 0.229745
v 0.302027 -0.080878 0.229745
v 0.511011 -0.160478 0.125245
v 0.573272 -0.088347 0.444874
v 0.494492 -0.088347 0.451799
v 0.373724 -0.160478 0.193894
v 0.494531 0.153640 0.133486
v 0.563445 0.077198 0.445738
v 0.616186 0.025641 0.441102
v 0.582977 0.055811 0.089259
v 0.504388 0.077198 0.450929
v 0.390143 0.153640 0.185684
v 0.302027 0.055811 0.229745
v 0.451277 0.025641 0.455598
v 0.563445 0.077198 0.445738
v 0.494531 0.153640 0.133486
v 0.390143 0.153640 0.185684
v 0.504388 0.077198 0.450929
v 0.373724 -0.160478 0.193894
v 0.494492 -0.088347 0.451799
v 0.451277 -0.046397 0.455598
v 0.302027 -0.080878 0.229745
v 0.573272 -0.088347 0.444874
v 0.511011 -0.160478 0.125245
v 0.582977 -0.080878 0.089259
v 0.616186 -0.046397 0.441102
v 0.451277 -0.046397 0.455598
v 0.494492 -0.088347 0.451799
v 0.573272 -0.088347 0.444874
v 0.616186 -0.046397 0.441102
v 0.451277 0.025641 0.455598
v 0.616186 0.025641 0.441102
v 0.504388 0.077198 0.450929
v 0.563445 0.077198 0.445738
vn -0.234413 0.000000 -0.972137
vn -0.234413 0.000000 -0.972137
vn -0.234413 0.000000 -0.972137
vn -0.234413 0.000000 -0.972137
vn 0.103242 0.000000 0.994656
vn 0.103242 0.000000 0.994656
vn 0.103242 0.000000 0.994656
vn 0.103242 0.000000 0.994656
vn -0.032345 -0.999444 0.008144
vn -0.032345 -0.999444 0.008144
vn -0.032345 -0.999444 0.008144
vn -0.032345 -0.999444 0.008144
vn -0.725883 0.000000 -0.687819
vn -0.725883 0.000000 -0.687819
vn -0.725883 0.000000 -0.687819
vn -0.725883 0.000000 -0.687819
vn -0.175227 0.701986 -0.690298
vn -0.175227 0.701986 -0.690298
vn -0.175227 0.701986 -0.690298
vn -0.175227 0.701986 -0.690298
vn 0.072965 0.698462 0.711918
vn 0.072965 0.698462 0.711918
vn 0.072965 0.698462 0.711918
vn 0.072965 0.698462 0.711918
vn -0.034287 0.999375 0.008565
vn -0.034287 0.999375 0.008565
vn -0.034287 0.999375 0.008565
vn -0.034287 0.999375 0.008565
vn 0.068681 -0.698125 0.712674
vn 0.068681 -0.698125 0.712674
vn 0.068681 -0.698125 0.712674
vn 0.068681 -0.698125 0.712674
vn -0.175985 -0.701987 -0.690104
vn -0.175985 -0.701987 -0.690104
vn -0.175985 -0.701987 -0.690104
vn -0.175985 -0.701987 -0.690104
vn -0.872408 0.000000 0.488778
vn -0.872408 0.000000 0.488778
vn -0.872408 0.000000 0.488778
vn -0.872408 0.000000 0.488778
vn -0.872408 0.000000 0.488778
vn -0.872408 0.000000 0.488778
vn -0.872408 0.000000 0.488778
vn -0.872408 0.000000 0.488778
vn 0.628914 0.000000 0.777475
vn 0.628914 0.000000 0.777475
vn 0.628914 0.000000 0.777475
vn 0.628914 0.000000 0.777475
vn -0.034921 -0.998735 0.036179
vn -0.034921 -0.998735 0.036179
vn -0.034921 -0.998735 0.036179
vn -0.034921 -0.998735 0.036179
vn -0.523197 0.707200 -0.475535
vn -0.523197 0.707200 -0.475535
vn -0.523197 0.707200 -0.475535
vn -0.523197 0.707200 -0.475535
vn 0.436015 0.704008 0.560593
vn 0.436015 0.704008 0.560593
vn 0.436015 0.704008 0.560593
vn 0.436015 0.704008 0.560593
vn -0.037051 0.998580 0.038282
vn -0.037051 0.998580 0.038282
vn -0.037051 0.998580 0.038282
vn -0.037051 0.998580 0.038282
vn 0.433423 -0.703746 0.562926
vn 0.433423 -0.703746 0.562926
vn 0.433423 -0.703746 0.562926
vn 0.433423 -0.703746 0.562926
vn -0.524094 -0.707182 -0.474572
vn -0.524094 -0.707182 -0.474572
vn -0.524094 -0.707182 -0.474572
vn -0.524094 -0.707182 -0.474572
vn -0.539250 0.000000 0.842146
vn -0.539250 0.000000 0.842146
vn -0.539250 0.000000 0.842146
vn -0.539250 0.000000 0.842146
vn -0.539250 0.000000 0.842146
vn -0.539250 0.000000 0.842146
vn -0.539250 0.000000 0.842146
vn -0.539250 0.000000 0.842146
vn -0.995575 0.000000 -0.093969
vn -0.995575 0.000000 -0.093969
vn -0.995575 0.000000 -0.093969
vn -0.995575 0.000000 -0.093969
vn 0.834291 0.000000 0.551325
vn 0.834291 0.000000 0.551325
vn 0.834291 0.000000 0.551325
vn 0.834291 0.000000 0.551325
vn -0.076509 -0.972779 0.218741
vn -0.076509 -0.972779 0.218741
vn -0.076509 -0.972779 0.218741
vn -0.076509 -0.972779 0.218741
vn -0.726534 0.687130 -0.001416
vn -0.726534 0.687130 -0.001416
vn -0.726534 0.687130 -0.001416
vn -0.726534 0.687130 -0.001416
vn 0.568766 0.685817 0.454050
vn 0.568766 0.685817 0.454050
vn 0.568766 0.685817 0.454050
vn 0.568766 0.685817 0.454050
vn -0.081095 0.969578 0.230959
vn -0.081095 0.969578 0.230959
vn -0.081095 0.969578 0.230959
vn -0.081095 0.969578 0.230959
vn 0.562739 -0.683612 0.464759
vn 0.562739 -0.683612 0.464759
vn 0.562739 -0.683612 0.464759
vn 0.562739 -0.683612 0.464759
vn -0.727644 -0.685933 0.005450
vn -0.727644 -0.685933 0.005450
vn -0.727644 -0.685933 0.005450
vn -0.727644 -0.685933 0.005450
vn -0.087562 0.000000 0.996159
vn -0.087562 0.000000 0.996159
vn -0.087562 0.000000 0.996159
vn -0.087562 0.000000 0.996159
vn -0.087562 0.000000 0.996159
vn -0.087562 0.000000 0.996159
vn -0.087562 0.000000 0.996159
vn -0.087562 0.000000 0.996159
vn 0.234413 0.000000 -0.972137
vn 0.234413 0.000000 -0.972137
vn 0.234413 0.000000 -0.972137
vn 0.234413 0.000000 -0.972137
vn -0.103242 0.000000 0.994656
vn -0.103242 0.000000 0.994656
vn -0.103242 0.000000 0.994656
vn -0.103242 0.000000 0.994656
vn 0.032345 -0.999444 0.008144
vn 0.032345 -0.999444 0.008144
vn 0.032345 -0.999444 0.008144
vn 0.032345 -0.999444 0.008144
vn 0.725883 0.000000 -0.687819
vn 0.725883 0.000000 -0.687819
vn 0.725883 0.000000 -0.687819
vn 0.725883 0.000000 -0.687819
vn 0.175227 0.701986 -0.690298
vn 0.175227 0.701986 -0.690298
vn 0.175227 0.701986 -0.690298
vn 0.175227 0.701986 -0.690298
vn -0.072965 0.698462 0.711918
vn -0.072965 0.698462 0.711918
vn -0.072965 0.698462 0.711918
vn -0.072965 0.698462 0.711918
vn 0.034287 0.999375 0.008565
vn 0.034287 0.999375 0.008565
vn 0.034287 0.999375 0.008565
vn 0.034287 0.999375 0.008565
vn -0.068681 -0.698125 0.712674
vn -0.068681 -0.698125 0.712674
vn -0.068681 -0.698125 0.712674
vn -0.068681 -0.698125 0.712674
vn 0.175985 -0.701987 -0.690104
vn 0.175985 -0.701987 -0.690104
vn 0.175985 -0.701987 -0.690104
vn 0.175985 -0.701987 -0.690104
vn 0.872408 0.000000 0.488778
vn 0.872408 0.000000 0.488778
vn 0.872408 0.000000 0.488778
vn 0.872408 0.000000 0.488778
vn 0.872408 0.000000 0.488778
vn 0.872408 0.000000 0.488778
vn 0.872408 0.000000 0.488778
vn 0.872408 0.000000 0.488778
vn -0.628914 0.000000 0.777475
vn -0.628914 0.000000 0.777475
vn -0.628914 0.000000 0.777475
vn -0.628914 0.000000 0.777475
vn 0.034921 -0.998735 0.036179
vn 0.034921 -0.998735 0.036179
vn 0.034921 -0.998735 0.036179
vn 0.034921 -0.998735 0.036179
vn 0.523197 0.707200 -0.475535
vn 0.523197 0.707200 -0.475535
vn 0.523197 0.707200 -0.475535
vn 0.523197 0.707200 -0.475535
vn -0.436015 0.704008 0.560593
vn -0.436015 0.704008 0.560593
vn -0.436015 0.704008 0.560593
vn -0.436015 0.704008 0.560593
vn 0.037051 0.998580 0.038282
vn 0.037051 0.998580 0.038282
vn 0.037051 0.998580 0.038282
vn 0.037051 0.998580 0.038282
vn -0.433423 -0.703746 0.562926
vn -0.433423 -0.703746 0.562926
vn -0.433423 -0.703746 0.562926
vn -0.433423 -0.703746 0.562926
vn 0.524094 -0.707182 -0.474572
vn 0.524094 -0.707182 -0.474572
vn 0.524094 -0.707182 -0.474572
vn 0.524094 -0.707182 -0.474572
vn 0.539250 0.000000 0.842146
vn 0.539250 0.000000 0.842146
vn 0.539250 0.000000 0.842146
vn 0.539250 0.000000 0.842146
vn 0.539250 0.000000 0.842146
vn 0.539250 0.000000 0.842146
vn 0.539250 0.000000 0.842146
vn 0.539250 0.000000 0.842146
vn 0.995575 0.000000 -0.093969
vn 0.995575 0.000000 -0.093969
vn 0.995575 0.000000 -0.093969
vn 0.995575 0.000000 -0.093969
vn -0.834291 0.000000 0.551325
vn -0.834291 0.000000 0.551325
vn -0.834291 0.000000 0.551325
vn -0.834291 0.000000 0.551325
vn 0.076509 -0.972779 0.218741
vn 0.076509 -0.972779 0.218741
vn 0.076509 -0.972779 0.218741
vn 0.076509 -0.972779 0.218741
vn 0.726534 0.687130 -0.001416
vn 0.726534 0.687130 -0.001416
vn 0.726534 0.687130 -0.001416
vn 0.726534 0.687130 -0.001416
vn -0.568766 0.685817 0.454050
vn -0.568766 0.685817 0.454050
vn -0.568766 0.685817 0.454050
vn -0.568766 0.685817 0.454050
vn 0.081095 0.969578 0.230959
vn 0.081095 0.969578 0.230959
vn 0.081095 0.969578 0.230959
vn 0.081095 0.969578 0.230959
vn -0.562739 -0.683612 0.464759
vn -0.562739 -0.683612 0.464759
vn -0.562739 -0.683612 0.464759
vn -0.562739 -0.683612 0.464759
vn 0.727644 -0.685934 0.005450
vn 0.727644 -0.685934 0.005450
vn 0.727644 -0.685934 0.005450
vn 0.727644 -0.685934 0.005450
vn 0.087562 0.000000 0.996159
vn 0.087562 0.000000 0.996159
vn 0.087562 0.000000 0.996159
vn 0.087562 0.000000 0.996159
vn 0.087562 0.000000 0.996159
vn 0.087562 0.000000 0.996159
vn 0.087562 0.000000 0.996159
vn 0.087562 0.000000 0.996159
g Croissant_LightYellow
usemtl LightYellow
f 1 2 3
f 1 3 4
f 5 6 7
f 5 7 8
f 9 10 11
f 9 11 12
f 13 14 15
f 13 15 16
f 17 18 19
f 17 19 20
f 21 22 23
f 21 23 24
f 25 26 27
f 25 27 28
f 29 30 31
f 29 31 32
f 33 34 35
f 33 35 36
f 37 38 39
f 39 40 37
f 40 41 37
f 40 42 41
f 42 43 41
f 43 44 41
f 45 46 47
f 45 47 48
f 49 50 51
f 49 51 52
f 53 54 55
f 53 55 56
f 57 58 59
f 57 59 60
f 61 62 63
f 61 63 64
f 65 66 67
f 65 67 68
f 69 70 71
f 69 71 72
f 73 74 75
f 75 76 73
f 76 77 73
f 76 78 77
f 78 79 77
f 78 80 79
f 81 82 83
f 81 83 84
f 85 86 87
f 85 87 88
f 89 90 91
f 89 91 92
f 93 94 95
f 93 95 96
f 97 98 99
f 97 99 100
f 101 102 103
f 101 103 104
f 105 106 107
f 105 107 108
f 109 110 111
f 109 111 112
f 113 114 115
f 115 116 113
f 116 117 113
f 116 118 117
f 118 119 117
f 118 120 119
f 121 122 123
f 121 123 124
f 125 126 127
f 125 127 128
f 129 130 131
f 129 131 132
f 133 134 135
f 133 135 136
f 137 138 139
f 137 139 140
f 141 142 143
f 141 143 144
f 145 146 147
f 145 147 148
f 149 150 151
f 149 151 152
f 153 154 155
f 153 155 156
f 157 158 159
f 159 160 157
f 160 161 157
f 161 162 157
f 161 163 162
f 161 164 163
f 165 166 167
f 165 167 168
f 169 170 171
f 169 171 172
f 173 174 175
f 173 175 176
f 177 178 179
f 177 179 180
f 181 182 183
f 181 183 184
f 185 186 187
f 185 187 188
f 189 190 191
f 189 191 192
f 193 194 195
f 195 196 193
f 196 197 193
f 196 198 197
f 198 199 197
f 198 200 199
f 201 202 203
f 201 203 204
f 205 206 207
f 205 207 208
f 209 210 211
f 209 211 212
f 213 214 215
f 213 215 216
f 217 218 219
f 217 219 220
f 221 222 223
f 221 223 224
f 225 226 227
f 225 227 228
f 229 230 231
f 229 231 232
f 233 234 235
f 235 236 233
f 236 237 233
f 236 238 237
f 238 239 237
f 238 240 239
