mtllib Materials.mtl
# Ultimate Food Pack - Cupcake
o Cupcake
v 0.000000 -0.122494 -0.226716
v -0.058678 -0.122494 -0.218991
v -0.080526 0.313040 -0.300526
v 0.000000 0.313040 -0.342171
v -0.058678 -0.122494 -0.218991
v -0.113358 -0.122494 -0.196342
v -0.171086 0.313040 -0.296329
v -0.080526 0.313040 -0.300526
v -0.113358 -0.122494 -0.196342
v -0.160313 -0.122494 -0.160313
v -0.220000 0.313040 -0.220000
v -0.171086 0.313040 -0.296329
v -0.160313 -0.122494 -0.160313
v -0.196342 -0.122494 -0.113358
v -0.296329 0.313040 -0.171086
v -0.220000 0.313040 -0.220000
v -0.196342 -0.122494 -0.113358
v -0.218991 -0.122494 -0.058678
v -0.300526 0.313040 -0.080526
v -0.296329 0.313040 -0.171086
v -0.218991 -0.122494 -0.058678
v -0.226716 -0.122494 0.000000
v -0.342171 0.313040 0.000000
v -0.300526 0.313040 -0.080526
v -0.226716 -0.122494 0.000000
v -0.218991 -0.122494 0.058678
v -0.300526 0.313040 0.080526
v -0.342171 0.313040 0.000000
v -0.218991 -0.122494 0.058678
v -0.196342 -0.122494 0.113358
v -0.296329 0.313040 0.171086
v -0.300526 0.313040 0.080526
v -0.196342 -0.122494 0.113358
v -0.160313 -0.122494 0.160313
v -0.220000 0.313040 0.220000
v -0.296329 0.313040 0.171086
v -0.160313 -0.122494 0.160313
v -0.113358 -0.122494 0.196342
v -0.171086 0.313040 0.296329
v -0.220000 0.313040 0.220000
v -0.113358 -0.122494 0.196342
v -0.058679 -0.122494 0.218991
v -0.080526 0.313040 0.300526
v -0.171086 0.313040 0.296329
v -0.058679 -0.122494 0.218991
v 0.000000 -0.122494 0.226716
v 0.000000 0.313040 0.342171
v -0.080526 0.313040 0.300526
v 0.000000 -0.122494 0.226716
v 0.058678 -0.122494 0.218991
v 0.080526 0.313040 0.300526
v 0.000000 0.313040 0.342171
v 0.058678 -0.122494 0.218991
v 0.113358 -0.122494 0.196342
v 0.171085 0.313040 0.296329
v 0.080526 0.313040 0.300526
v 0.113358 -0.122494 0.196342
v 0.160312 -0.122494 0.160313
v 0.220000 0.313040 0.220000
v 0.171085 0.313040 0.296329
v 0.160312 -0.122494 0.160313
v 0.196342 -0.122494 0.113358
v 0.296329 0.313040 0.171086
v 0.220000 0.313040 0.220000
v 0.196342 -0.122494 0.113358
v 0.218991 -0.122494 0.058679
v 0.300526 0.313040 0.080526
v 0.296329 0.313040 0.171086
v 0.218991 -0.122494 0.058679
v 0.226716 -0.122494 0.000000
v 0.342171 0.313040 0.000000
v 0.300526 0.313040 0.080526
v 0.226716 -0.122494 0.000000
v 0.218991 -0.122494 -0.058678
v 0.300526 0.313040 -0.080526
v 0.342171 0.313040 0.000000
v 0.218991 -0.122494 -0.058678
v 0.196342 -0.122494 -0.113358
v 0.296329 0.313040 -0.171085
v 0.300526 0.313040 -0.080526
v 0.196342 -0.122494 -0.113358
v 0.160313 -0.122494 -0.160312
v 0.220000 0.313040 -0.220000
v 0.296329 0.313040 -0.171085
v 0.160313 -0.122494 -0.160312
v 0.113358 -0.122494 -0.196342
v 0.171086 0.313040 -0.296329
v 0.220000 0.313040 -0.220000
v -0.300526 0.313040 -0.080526
v -0.342171 0.313040 0.000000
v -0.300526 0.313040 0.080526
v -0.296329 0.313040 -0.171086
v -0.296329 0.313040 0.171086
v -0.220000 0.313040 0.220000
v -0.220000 0.313040 -0.220000
v -0.171086 0.313040 0.296329
v -0.171086 0.313040 -0.296329
v -0.080526 0.313040 0.300526
v -0.080526 0.313040 -0.300526
v 0.000000 0.313040 0.342171
v 0.000000 0.313040 -0.342171
v 0.080526 0.313040 0.300526
v 0.080526 0.313040 -0.300526
v 0.171085 0.313040 0.296329
v 0.171086 0.313040 -0.296329
v 0.220000 0.313040 0.220000
v 0.220000 0.313040 -0.220000
v 0.296329 0.313040 0.171086
v 0.296329 0.313040 -0.171085
v 0.300526 0.313040 0.080526
v 0.300526 0.313040 -0.080526
v 0.342171 0.313040 0.000000
v 0.113358 -0.122494 -0.196342
v 0.058679 -0.122494 -0.218991
v 0.080526 0.313040 -0.300526
v 0.171086 0.313040 -0.296329
v 0.058679 -0.122494 -0.218991
v 0.000000 -0.122494 -0.226716
v 0.000000 0.313040 -0.342171
v 0.080526 0.313040 -0.300526
v -0.218991 -0.122494 0.058678
v -0.226716 -0.122494 0.000000
v -0.218991 -0.122494 -0.058678
v -0.196342 -0.122494 0.113358
v -0.196342 -0.122494 -0.113358
v -0.160313 -0.122494 0.160313
v -0.160313 -0.122494 -0.160313
v -0.113358 -0.122494 0.196342
v -0.113358 -0.122494 -0.196342
v -0.058679 -0.122494 0.218991
v -0.058678 -0.122494 -0.218991
v 0.000000 -0.122494 0.226716
v 0.000000 -0.122494 -0.226716
v 0.058678 -0.122494 0.218991
v 0.058679 -0.122494 -0.218991
v 0.113358 -0.122494 0.196342
v 0.113358 -0.122494 -0.196342
v 0.160312 -0.122494 0.160313
v 0.160313 -0.122494 -0.160312
v 0.196342 -0.122494 0.113358
v 0.196342 -0.122494 -0.113358
v 0.218991 -0.122494 0.058679
v 0.218991 -0.122494 -0.058678
v 0.226716 -0.122494 0.000000
v 0.002234 0.305733 -0.341840
v -0.198767 0.302145 -0.276864
v -0.192834 0.417461 -0.288966
v 0.016092 0.394559 -0.360434
v -0.198767 0.302145 -0.276864
v -0.323160 0.300122 -0.106372
v -0.320086 0.429476 -0.109992
v -0.192834 0.417461 -0.288966
v -0.323160 0.300122 -0.106372
v -0.323444 0.298742 0.104276
v -0.320822 0.425837 0.108975
v -0.320086 0.429476 -0.109992
v -0.323444 0.298742 0.104276
v -0.199717 0.297532 0.274614
v -0.194773 0.407868 0.288302
v -0.320822 0.425837 0.108975
v -0.199717 0.297532 0.274614
v 0.000677 0.298145 0.339805
v 0.013670 0.382580 0.360372
v -0.194773 0.407868 0.288302
v 0.000677 0.298145 0.339805
v 0.201304 0.301924 0.275097
v 0.226345 0.360280 0.294222
v 0.013670 0.382580 0.360372
v 0.201304 0.301924 0.275097
v 0.325664 0.306898 0.105045
v 0.359462 0.349422 0.113185
v 0.226345 0.360280 0.294222
v 0.325664 0.306898 0.105045
v 0.326280 0.309921 -0.105586
v 0.360219 0.353167 -0.112169
v 0.359462 0.349422 0.113185
v 0.228320 0.370049 -0.293635
v 0.197081 0.409913 -0.247061
v 0.309302 0.393748 -0.094452
v 0.360219 0.353167 -0.112169
v 0.326280 0.309921 -0.105586
v 0.202808 0.309294 -0.276349
v 0.228320 0.370049 -0.293635
v 0.360219 0.353167 -0.112169
v 0.202808 0.309294 -0.276349
v 0.002234 0.305733 -0.341840
v 0.016092 0.394559 -0.360434
v 0.228320 0.370049 -0.293635
v 0.308788 0.391242 0.096083
v 0.287840 0.440144 0.094175
v 0.195025 0.443094 0.244657
v 0.195755 0.403456 0.248446
v 0.360219 0.353167 -0.112169
v 0.309302 0.393748 -0.094452
v 0.308788 0.391242 0.096083
v 0.359462 0.349422 0.113185
v 0.359462 0.349422 0.113185
v 0.308788 0.391242 0.096083
v 0.195755 0.403456 0.248446
v 0.226345 0.360280 0.294222
v 0.226345 0.360280 0.294222
v 0.195755 0.403456 0.248446
v 0.016503 0.425740 0.303186
v 0.013670 0.382580 0.360372
v 0.013670 0.382580 0.360372
v 0.016503 0.425740 0.303186
v -0.158235 0.449004 0.242237
v -0.194773 0.407868 0.288302
v -0.194773 0.407868 0.288302
v -0.158235 0.449004 0.242237
v -0.263824 0.464385 0.091940
v -0.320822 0.425837 0.108975
v -0.192834 0.417461 -0.288966
v -0.156945 0.455287 -0.241562
v 0.018112 0.433577 -0.302167
v 0.016092 0.394559 -0.360434
v -0.320822 0.425837 0.108975
v -0.263824 0.464385 0.091940
v -0.263332 0.466782 -0.091478
v -0.320086 0.429476 -0.109992
v -0.320086 0.429476 -0.109992
v -0.263332 0.466782 -0.091478
v -0.156945 0.455287 -0.241562
v -0.192834 0.417461 -0.288966
v 0.016092 0.394559 -0.360434
v 0.018112 0.433577 -0.302167
v 0.197081 0.409913 -0.247061
v 0.228320 0.370049 -0.293635
v -0.155534 0.474744 0.239830
v -0.175302 0.500331 0.258667
v -0.290784 0.500621 0.099038
v -0.261031 0.485395 0.091351
v -0.158235 0.449004 0.242237
v -0.155534 0.474744 0.239830
v -0.261031 0.485395 0.091351
v -0.263824 0.464385 0.091940
v -0.156945 0.455287 -0.241562
v -0.154422 0.480108 -0.238674
v 0.019320 0.465053 -0.297693
v 0.018112 0.433577 -0.302167
v 0.309302 0.393748 -0.094452
v 0.288155 0.441639 -0.092450
v 0.287840 0.440144 0.094175
v 0.308788 0.391242 0.096083
v 0.016503 0.425740 0.303186
v 0.018017 0.458797 0.299202
v -0.155534 0.474744 0.239830
v -0.158235 0.449004 0.242237
v -0.263332 0.466782 -0.091478
v -0.260591 0.487523 -0.090443
v -0.154422 0.480108 -0.238674
v -0.156945 0.455287 -0.241562
v 0.197081 0.409913 -0.247061
v 0.196035 0.447928 -0.242825
v 0.288155 0.441639 -0.092450
v 0.309302 0.393748 -0.094452
v 0.195755 0.403456 0.248446
v 0.195025 0.443094 0.244657
v 0.018017 0.458797 0.299202
v 0.016503 0.425740 0.303186
v -0.263824 0.464385 0.091940
v -0.261031 0.485395 0.091351
v -0.260591 0.487523 -0.090443
v -0.263332 0.466782 -0.091478
v 0.018112 0.433577 -0.302167
v 0.019320 0.465053 -0.297693
v 0.196035 0.447928 -0.242825
v 0.197081 0.409913 -0.247061
v -0.174170 0.505767 -0.257125
v -0.141828 0.543248 -0.220072
v 0.018718 0.540644 -0.272783
v 0.013465 0.506261 -0.318219
v -0.154422 0.480108 -0.238674
v -0.174170 0.505767 -0.257125
v 0.013465 0.506261 -0.318219
v 0.019320 0.465053 -0.297693
v 0.288155 0.441639 -0.092450
v 0.317380 0.502167 -0.098110
v 0.317223 0.501455 0.099417
v 0.287840 0.440144 0.094175
v 0.018017 0.458797 0.299202
v 0.012423 0.501349 0.319967
v -0.175302 0.500331 0.258667
v -0.155534 0.474744 0.239830
v -0.260591 0.487523 -0.090443
v -0.290287 0.503028 -0.097858
v -0.174170 0.505767 -0.257125
v -0.154422 0.480108 -0.238674
v 0.196035 0.447928 -0.242825
v 0.201240 0.504292 -0.257629
v 0.317380 0.502167 -0.098110
v 0.288155 0.441639 -0.092450
v 0.195025 0.443094 0.244657
v 0.200676 0.501691 0.259187
v 0.012423 0.501349 0.319967
v 0.018017 0.458797 0.299202
v -0.261031 0.485395 0.091351
v -0.290784 0.500621 0.099038
v -0.290287 0.503028 -0.097858
v -0.260591 0.487523 -0.090443
v 0.019320 0.465053 -0.297693
v 0.013465 0.506261 -0.318219
v 0.201240 0.504292 -0.257629
v 0.196035 0.447928 -0.242825
v 0.287840 0.440144 0.094175
v 0.317223 0.501455 0.099417
v 0.200676 0.501691 0.259187
v 0.195025 0.443094 0.244657
v 0.018397 0.539221 0.273602
v 0.017467 0.571032 0.180838
v -0.088696 0.573097 0.146301
v -0.142274 0.541203 0.221193
v 0.317380 0.502167 -0.098110
v 0.279459 0.534222 -0.084577
v 0.279438 0.534140 0.084815
v 0.317223 0.501455 0.099417
v 0.012423 0.501349 0.319967
v 0.018397 0.539221 0.273602
v -0.142274 0.541203 0.221193
v -0.175302 0.500331 0.258667
v -0.290287 0.503028 -0.097858
v -0.240995 0.543504 -0.083587
v -0.141828 0.543248 -0.220072
v -0.174170 0.505767 -0.257125
v 0.201240 0.504292 -0.257629
v 0.179690 0.536834 -0.221226
v 0.279459 0.534222 -0.084577
v 0.317380 0.502167 -0.098110
v 0.200676 0.501691 0.259187
v 0.179573 0.536346 0.221670
v 0.018397 0.539221 0.273602
v 0.012423 0.501349 0.319967
v -0.290784 0.500621 0.099038
v -0.241215 0.542482 0.084797
v -0.240995 0.543504 -0.083587
v -0.290287 0.503028 -0.097858
v 0.013465 0.506261 -0.318219
v 0.018718 0.540644 -0.272783
v 0.179690 0.536834 -0.221226
v 0.201240 0.504292 -0.257629
v 0.317223 0.501455 0.099417
v 0.279438 0.534140 0.084815
v 0.179573 0.536346 0.221670
v 0.200676 0.501691 0.259187
v -0.175302 0.500331 0.258667
v -0.142274 0.541203 0.221193
v -0.241215 0.542482 0.084797
v -0.290784 0.500621 0.099038
v 0.123629 0.568967 -0.146302
v 0.143498 0.604151 -0.160818
v 0.215714 0.598546 -0.062073
v 0.189241 0.567691 -0.055882
v -0.240995 0.543504 -0.083587
v -0.154346 0.574335 -0.055861
v -0.088696 0.573097 -0.146301
v -0.141828 0.543248 -0.220072
v 0.179690 0.536834 -0.221226
v 0.123629 0.568967 -0.146302
v 0.189241 0.567691 -0.055882
v 0.279459 0.534222 -0.084577
v 0.179573 0.536346 0.221670
v 0.123629 0.568967 0.146301
v 0.017467 0.571032 0.180838
v 0.018397 0.539221 0.273602
v -0.241215 0.542482 0.084797
v -0.154350 0.574322 0.055904
v -0.154346 0.574335 -0.055861
v -0.240995 0.543504 -0.083587
v 0.018718 0.540644 -0.272783
v 0.017467 0.571032 -0.180839
v 0.123629 0.568967 -0.146302
v 0.179690 0.536834 -0.221226
v 0.279438 0.534140 0.084815
v 0.189241 0.567691 0.055882
v 0.123629 0.568967 0.146301
v 0.179573 0.536346 0.221670
v -0.142274 0.541203 0.221193
v -0.088696 0.573097 0.146301
v -0.154350 0.574322 0.055904
v -0.241215 0.542482 0.084797
v -0.141828 0.543248 -0.220072
v -0.088696 0.573097 -0.146301
v 0.017467 0.571032 -0.180839
v 0.018718 0.540644 -0.272783
v 0.279459 0.534222 -0.084577
v 0.189241 0.567691 -0.055882
v 0.189241 0.567691 0.055882
v 0.279438 0.534140 0.084815
v 0.144721 0.600673 0.159772
v 0.064553 0.639615 0.108049
v -0.013851 0.641012 0.133556
v 0.028628 0.607593 0.198135
v 0.123629 0.568967 0.146301
v 0.144721 0.600673 0.159772
v 0.028628 0.607593 0.198135
v 0.017467 0.571032 0.180838
v -0.154350 0.574322 0.055904
v -0.159968 0.620938 0.062073
v -0.160435 0.622266 -0.060382
v -0.154346 0.574335 -0.055861
v 0.017467 0.571032 -0.180839
v 0.027117 0.611891 -0.198136
v 0.143498 0.604151 -0.160818
v 0.123629 0.568967 -0.146302
v 0.189241 0.567691 0.055882
v 0.216181 0.597218 0.060381
v 0.144721 0.600673 0.159772
v 0.123629 0.568967 0.146301
v -0.088696 0.573097 0.146301
v -0.087752 0.615333 0.160818
v -0.159968 0.620938 0.062073
v -0.154350 0.574322 0.055904
v -0.088696 0.573097 -0.146301
v -0.088975 0.618811 -0.159772
v 0.027117 0.611891 -0.198136
v 0.017467 0.571032 -0.180839
v 0.189241 0.567691 -0.055882
v 0.215714 0.598546 -0.062073
v 0.216181 0.597218 0.060381
v 0.189241 0.567691 0.055882
v 0.017467 0.571032 0.180838
v 0.028628 0.607593 0.198135
v -0.087752 0.615333 0.160818
v -0.088696 0.573097 0.146301
v -0.154346 0.574335 -0.055861
v -0.160435 0.622266 -0.060382
v -0.088975 0.618811 -0.159772
v -0.088696 0.573097 -0.146301
v -0.140712 0.643272 0.041271
v -0.103896 0.740121 0.030850
v -0.103896 0.740121 -0.030850
v -0.140712 0.643272 -0.041271
v -0.159968 0.620938 0.062073
v -0.140712 0.643272 0.041271
v -0.140712 0.643272 -0.041271
v -0.160435 0.622266 -0.060382
v 0.027117 0.611891 -0.198136
v -0.013851 0.641012 -0.133557
v 0.064553 0.639615 -0.108050
v 0.143498 0.604151 -0.160818
v 0.216181 0.597218 0.060381
v 0.113009 0.638751 0.041271
v 0.064553 0.639615 0.108049
v 0.144721 0.600673 0.159772
v -0.087752 0.615333 0.160818
v -0.092255 0.642408 0.108049
v -0.140712 0.643272 0.041271
v -0.159968 0.620938 0.062073
v -0.088975 0.618811 -0.159772
v -0.092255 0.642408 -0.108050
v -0.013851 0.641012 -0.133557
v 0.027117 0.611891 -0.198136
v 0.215714 0.598546 -0.062073
v 0.113009 0.638751 -0.041271
v 0.113009 0.638751 0.041271
v 0.216181 0.597218 0.060381
v 0.028628 0.607593 0.198135
v -0.013851 0.641012 0.133556
v -0.092255 0.642408 0.108049
v -0.087752 0.615333 0.160818
v -0.160435 0.622266 -0.060382
v -0.140712 0.643272 -0.041271
v -0.092255 0.642408 -0.108050
v -0.088975 0.618811 -0.159772
v 0.143498 0.604151 -0.160818
v 0.064553 0.639615 -0.108050
v 0.113009 0.638751 -0.041271
v 0.215714 0.598546 -0.062073
v 0.066930 0.667380 0.030850
v 0.029491 0.716352 0.018679
v 0.011645 0.730074 0.048903
v 0.028773 0.677439 0.080766
v -0.013851 0.641012 -0.133557
v -0.021103 0.707576 -0.099832
v 0.028773 0.677439 -0.080766
v 0.064553 0.639615 -0.108050
v 0.113009 0.638751 0.041271
v 0.066930 0.667380 0.030850
v 0.028773 0.677439 0.080766
v 0.064553 0.639615 0.108049
v -0.092255 0.642408 0.108049
v -0.069378 0.729846 0.080766
v -0.103896 0.740121 0.030850
v -0.140712 0.643272 0.041271
v -0.092255 0.642408 -0.108050
v -0.069378 0.729846 -0.080766
v -0.021103 0.707576 -0.099832
v -0.013851 0.641012 -0.133557
v 0.113009 0.638751 -0.041271
v 0.066930 0.667380 -0.030850
v 0.066930 0.667380 0.030850
v 0.113009 0.638751 0.041271
v -0.013851 0.641012 0.133556
v -0.021103 0.707576 0.099832
v -0.069378 0.729846 0.080766
v -0.092255 0.642408 0.108049
v -0.140712 0.643272 -0.041271
v -0.103896 0.740121 -0.030850
v -0.069378 0.729846 -0.080766
v -0.092255 0.642408 -0.108050
v 0.064553 0.639615 -0.108050
v 0.028773 0.677439 -0.080766
v 0.066930 0.667380 -0.030850
v 0.113009 0.638751 -0.041271
v 0.064553 0.639615 0.108049
v 0.028773 0.677439 0.080766
v -0.021103 0.707576 0.099832
v -0.013851 0.641012 0.133556
v -0.032862 0.757042 0.048903
v 0.030742 0.807398 0.007477
v 0.027828 0.809063 0.002856
v -0.050708 0.770764 0.018679
v -0.069378 0.729846 0.080766
v -0.032862 0.757042 0.048903
v -0.050708 0.770764 0.018679
v -0.103896 0.740121 0.030850
v -0.069378 0.729846 -0.080766
v -0.032862 0.757042 -0.048903
v -0.009100 0.744218 -0.060448
v -0.021103 0.707576 -0.099832
v 0.066930 0.667380 -0.030850
v 0.029491 0.716352 -0.018679
v 0.029491 0.716352 0.018679
v 0.066930 0.667380 0.030850
v -0.021103 0.707576 0.099832
v -0.009100 0.744218 0.060447
v -0.032862 0.757042 0.048903
v -0.069378 0.729846 0.080766
v -0.103896 0.740121 -0.030850
v -0.050708 0.770764 -0.018679
v -0.032862 0.757042 -0.048903
v -0.069378 0.729846 -0.080766
v 0.028773 0.677439 -0.080766
v 0.011645 0.730074 -0.048903
v 0.029491 0.716352 -0.018679
v 0.066930 0.667380 -0.030850
v 0.028773 0.677439 0.080766
v 0.011645 0.730074 0.048903
v -0.009100 0.744218 0.060447
v -0.021103 0.707576 0.099832
v -0.103896 0.740121 0.030850
v -0.050708 0.770764 0.018679
v -0.050708 0.770764 -0.018679
v -0.103896 0.740121 -0.030850
v -0.021103 0.707576 -0.099832
v -0.009100 0.744218 -0.060448
v 0.011645 0.730074 -0.048903
v 0.028773 0.677439 -0.080766
v -0.032862 0.757042 -0.048903
v 0.030742 0.807398 -0.007477
v 0.035457 0.804702 -0.009243
v -0.009100 0.744218 -0.060448
v 0.029491 0.716352 -0.018679
v 0.043086 0.800341 -0.002856
v 0.043086 0.800341 0.002856
v 0.029491 0.716352 0.018679
v -0.009100 0.744218 0.060447
v 0.035457 0.804702 0.009242
v 0.030742 0.807398 0.007477
v -0.032862 0.757042 0.048903
v -0.050708 0.770764 -0.018679
v 0.027828 0.809063 -0.002856
v 0.030742 0.807398 -0.007477
v -0.032862 0.757042 -0.048903
v 0.011645 0.730074 -0.048903
v 0.040172 0.802007 -0.007477
v 0.043086 0.800341 -0.002856
v 0.029491 0.716352 -0.018679
v 0.011645 0.730074 0.048903
v 0.040172 0.802007 0.007477
v 0.035457 0.804702 0.009242
v -0.009100 0.744218 0.060447
v -0.050708 0.770764 0.018679
v 0.027828 0.809063 0.002856
v 0.027828 0.809063 -0.002856
v -0.050708 0.770764 -0.018679
v -0.009100 0.744218 -0.060448
v 0.035457 0.804702 -0.009243
v 0.040172 0.802007 -0.007477
v 0.011645 0.730074 -0.048903
v 0.029491 0.716352 0.018679
v 0.043086 0.800341 0.002856
v 0.040172 0.802007 0.007477
v 0.011645 0.730074 0.048903
v 0.040172 0.802007 -0.007477
v 0.043086 0.800341 0.002856
v 0.043086 0.800341 -0.002856
v 0.037258 0.803673 -0.002856
v 0.035457 0.804702 -0.009243
v 0.040172 0.802007 0.007477
v 0.030742 0.807398 -0.007477
v 0.033656 0.805732 0.002856
v 0.035457 0.804702 0.009242
v 0.027828 0.809063 -0.002856
v 0.030742 0.807398 0.007477
v 0.027828 0.809063 0.002856
v 0.331826 0.310087 -0.152313
v 0.387714 0.303246 0.099182
v 0.358419 0.238136 -0.105584
v 0.257397 0.333425 -0.264755
v 0.331826 0.310087 -0.152313
v 0.358419 0.238136 -0.105584
v -0.274155 0.300900 -0.255248
v -0.108902 0.310383 -0.336470
v -0.239038 0.195490 -0.286029
v -0.278701 0.313526 0.273215
v -0.346444 0.317384 0.122603
v -0.289097 0.185586 0.240393
v 0.290687 0.280057 0.266124
v 0.119421 0.297400 0.341344
v 0.255008 0.178202 0.280096
v -0.163450 0.438532 0.158324
v -0.143970 0.446400 -0.091734
v -0.282118 0.389409 -0.117069
v -0.143970 0.446400 -0.091734
v -0.163450 0.438532 0.158324
v -0.001955 0.445444 0.159343
v -0.140455 0.398670 0.284281
v -0.163450 0.438532 0.158324
v -0.288689 0.395664 0.155816
v -0.001955 0.445444 0.159343
v 0.258867 0.383254 0.166036
v 0.157081 0.445988 -0.108095
v 0.258867 0.383254 0.166036
v -0.001955 0.445444 0.159343
v -0.140455 0.398670 0.284281
v -0.103647 0.229805 0.348338
v -0.158729 0.304319 0.332376
v -0.278701 0.313526 0.273215
v -0.158729 0.304319 0.332376
v -0.140455 0.398670 0.284281
v -0.278701 0.313526 0.273215
v -0.158729 0.304319 0.332376
v 0.119421 0.297400 0.341344
v -0.140455 0.398670 0.284281
v 0.088883 0.219815 -0.365429
v 0.139826 0.296195 -0.341482
v 0.257397 0.333425 -0.264755
v 0.139826 0.296195 -0.341482
v 0.110232 0.393585 -0.285002
v 0.257397 0.333425 -0.264755
v 0.110232 0.393585 -0.285002
v 0.139826 0.296195 -0.341482
v -0.108902 0.310383 -0.336470
v 0.157081 0.445988 -0.108095
v 0.283210 0.399638 -0.114884
v 0.257397 0.333425 -0.264755
v -0.282118 0.389409 -0.117069
v -0.143970 0.446400 -0.091734
v -0.156333 0.381952 -0.265598
v -0.346194 0.231674 -0.105780
v -0.332721 0.299131 -0.143335
v -0.274155 0.300900 -0.255248
v -0.332721 0.299131 -0.143335
v -0.282118 0.389409 -0.117069
v -0.274155 0.300900 -0.255248
v -0.282118 0.389409 -0.117069
v -0.332721 0.299131 -0.143335
v -0.346444 0.317384 0.122603
v 0.363989 0.208839 0.139309
v 0.387714 0.303246 0.099182
v 0.290687 0.280057 0.266124
v 0.387714 0.303246 0.099182
v 0.258867 0.383254 0.166036
v 0.290687 0.280057 0.266124
v 0.387714 0.303246 0.099182
v 0.363989 0.208839 0.139309
v 0.358419 0.238136 -0.105584
v -0.307251 0.190655 -0.053783
v -0.232116 0.142981 0.237190
v -0.289097 0.185586 0.240393
v -0.232116 0.142981 0.237190
v -0.103647 0.229805 0.348338
v -0.289097 0.185586 0.240393
v -0.103647 0.229805 0.348338
v -0.232116 0.142981 0.237190
v 0.043079 0.195943 0.301723
v -0.232116 0.142981 0.237190
v -0.163791 0.147101 0.190418
v 0.139760 0.194330 0.133186
v 0.238109 0.152965 -0.208269
v 0.326718 0.202151 -0.012672
v 0.326718 0.202151 -0.012672
v 0.238109 0.152965 -0.208269
v 0.358419 0.238136 -0.105584
v 0.088068 0.170407 -0.310703
v 0.088883 0.219815 -0.365429
v 0.260748 0.206047 -0.265326
v 0.326718 0.202151 -0.012672
v 0.363989 0.208839 0.139309
v 0.255008 0.178202 0.280096
v 0.326718 0.202151 -0.012672
v 0.255008 0.178202 0.280096
v 0.139760 0.194330 0.133186
v -0.307251 0.190655 -0.053783
v -0.346194 0.231674 -0.105780
v -0.239038 0.195490 -0.286029
v 0.088068 0.170407 -0.310703
v -0.221971 0.159120 -0.239783
v -0.239038 0.195490 -0.286029
v 0.139760 0.194330 0.133186
v 0.000000 0.166045 0.000000
v 0.238109 0.152965 -0.208269
v 0.238109 0.152965 -0.208269
v 0.000000 0.166045 0.000000
v -0.042732 0.166921 -0.195680
v -0.187849 0.164927 -0.081774
v 0.000000 0.166045 0.000000
v -0.163791 0.147101 0.190418
v -0.163791 0.147101 0.190418
v 0.000000 0.166045 0.000000
v 0.139760 0.194330 0.133186
v 0.331826 0.310087 -0.152313
v 0.283210 0.399638 -0.114884
v 0.387714 0.303246 0.099182
v 0.331826 0.310087 -0.152313
v 0.257397 0.333425 -0.264755
v 0.283210 0.399638 -0.114884
v 0.257397 0.333425 -0.264755
v 0.358419 0.238136 -0.105584
v 0.260748 0.206047 -0.265326
v -0.108902 0.310383 -0.336470
v 0.088883 0.219815 -0.365429
v -0.239038 0.195490 -0.286029
v -0.108902 0.310383 -0.336470
v -0.156333 0.381952 -0.265598
v 0.110232 0.393585 -0.285002
v -0.108902 0.310383 -0.336470
v -0.274155 0.300900 -0.255248
v -0.156333 0.381952 -0.265598
v -0.346444 0.317384 0.122603
v -0.346194 0.231674 -0.105780
v -0.289097 0.185586 0.240393
v -0.346444 0.317384 0.122603
v -0.288689 0.395664 0.155816
v -0.282118 0.389409 -0.117069
v -0.346444 0.317384 0.122603
v -0.278701 0.313526 0.273215
v -0.288689 0.395664 0.155816
v 0.119421 0.297400 0.341344
v -0.103647 0.229805 0.348338
v 0.255008 0.178202 0.280096
v 0.119421 0.297400 0.341344
v 0.157194 0.372976 0.278213
v -0.140455 0.398670 0.284281
v 0.119421 0.297400 0.341344
v 0.290687 0.280057 0.266124
v 0.157194 0.372976 0.278213
v -0.163450 0.438532 0.158324
v -0.282118 0.389409 -0.117069
v -0.288689 0.395664 0.155816
v -0.143970 0.446400 -0.091734
v -0.001955 0.445444 0.159343
v -0.004593 0.460635 -0.080837
v -0.163450 0.438532 0.158324
v -0.140455 0.398670 0.284281
v -0.001955 0.445444 0.159343
v -0.140455 0.398670 0.284281
v -0.288689 0.395664 0.155816
v -0.278701 0.313526 0.273215
v -0.001955 0.445444 0.159343
v 0.157081 0.445988 -0.108095
v -0.004593 0.460635 -0.080837
v 0.258867 0.383254 0.166036
v 0.283210 0.399638 -0.114884
v 0.157081 0.445988 -0.108095
v 0.258867 0.383254 0.166036
v 0.157194 0.372976 0.278213
v 0.290687 0.280057 0.266124
v 0.258867 0.383254 0.166036
v -0.140455 0.398670 0.284281
v 0.157194 0.372976 0.278213
v -0.103647 0.229805 0.348338
v -0.278701 0.313526 0.273215
v -0.289097 0.185586 0.240393
v -0.158729 0.304319 0.332376
v -0.103647 0.229805 0.348338
v 0.119421 0.297400 0.341344
v 0.088883 0.219815 -0.365429
v 0.257397 0.333425 -0.264755
v 0.260748 0.206047 -0.265326
v 0.139826 0.296195 -0.341482
v 0.088883 0.219815 -0.365429
v -0.108902 0.310383 -0.336470
v 0.157081 0.445988 -0.108095
v 0.110232 0.393585 -0.285002
v -0.004593 0.460635 -0.080837
v 0.157081 0.445988 -0.108095
v 0.257397 0.333425 -0.264755
v 0.110232 0.393585 -0.285002
v -0.282118 0.389409 -0.117069
v -0.156333 0.381952 -0.265598
v -0.274155 0.300900 -0.255248
v -0.346194 0.231674 -0.105780
v -0.274155 0.300900 -0.255248
v -0.239038 0.195490 -0.286029
v -0.332721 0.299131 -0.143335
v -0.346194 0.231674 -0.105780
v -0.346444 0.317384 0.122603
v 0.363989 0.208839 0.139309
v 0.290687 0.280057 0.266124
v 0.255008 0.178202 0.280096
v 0.258867 0.383254 0.166036
v 0.387714 0.303246 0.099182
v 0.283210 0.399638 -0.114884
v -0.307251 0.190655 -0.053783
v -0.289097 0.185586 0.240393
v -0.346194 0.231674 -0.105780
v -0.232116 0.142981 0.237190
v -0.307251 0.190655 -0.053783
v -0.163791 0.147101 0.190418
v -0.232116 0.142981 0.237190
v 0.139760 0.194330 0.133186
v 0.043079 0.195943 0.301723
v 0.238109 0.152965 -0.208269
v 0.260748 0.206047 -0.265326
v 0.358419 0.238136 -0.105584
v 0.088068 0.170407 -0.310703
v 0.260748 0.206047 -0.265326
v 0.238109 0.152965 -0.208269
v 0.088068 0.170407 -0.310703
v 0.238109 0.152965 -0.208269
v -0.042732 0.166921 -0.195680
v 0.363989 0.208839 0.139309
v 0.326718 0.202151 -0.012672
v 0.358419 0.238136 -0.105584
v -0.307251 0.190655 -0.053783
v -0.239038 0.195490 -0.286029
v -0.221971 0.159120 -0.239783
v -0.307251 0.190655 -0.053783
v -0.221971 0.159120 -0.239783
v -0.187849 0.164927 -0.081774
v 0.043079 0.195943 0.301723
v 0.255008 0.178202 0.280096
v -0.103647 0.229805 0.348338
v 0.043079 0.195943 0.301723
v 0.139760 0.194330 0.133186
v 0.255008 0.178202 0.280096
v 0.088068 0.170407 -0.310703
v -0.239038 0.195490 -0.286029
v 0.088883 0.219815 -0.365429
v -0.187849 0.164927 -0.081774
v -0.163791 0.147101 0.190418
v -0.307251 0.190655 -0.053783
v -0.143970 0.446400 -0.091734
v -0.004593 0.460635 -0.080837
v 0.110232 0.393585 -0.285002
v -0.156333 0.381952 -0.265598
v -0.221971 0.159120 -0.239783
v 0.088068 0.170407 -0.310703
v -0.042732 0.166921 -0.195680
v -0.187849 0.164927 -0.081774
v 0.000000 0.166045 0.000000
vn -0.326351 -0.216280 -0.920173
vn -0.326351 -0.216280 -0.920173
vn -0.326351 -0.216280 -0.920173
vn -0.326351 -0.216280 -0.920173
vn -0.177459 -0.216280 -0.960068
vn -0.177459 -0.216280 -0.960068
vn -0.177459 -0.216280 -0.960068
vn -0.177459 -0.216280 -0.960068
vn -0.742715 -0.216280 -0.633718
vn -0.742715 -0.216280 -0.633718
vn -0.742715 -0.216280 -0.633718
vn -0.742715 -0.216280 -0.633718
vn -0.633718 -0.216280 -0.742714
vn -0.633718 -0.216280 -0.742714
vn -0.633718 -0.216280 -0.742714
vn -0.633718 -0.216280 -0.742714
vn -0.960069 -0.216280 -0.177458
vn -0.960069 -0.216280 -0.177458
vn -0.960069 -0.216280 -0.177458
vn -0.960069 -0.216280 -0.177458
vn -0.920173 -0.216280 -0.326351
vn -0.920173 -0.216280 -0.326351
vn -0.920173 -0.216280 -0.326351
vn -0.920173 -0.216280 -0.326351
vn -0.920173 -0.216280 0.326351
vn -0.920173 -0.216280 0.326351
vn -0.920173 -0.216280 0.326351
vn -0.920173 -0.216280 0.326351
vn -0.960069 -0.216280 0.177458
vn -0.960069 -0.216280 0.177458
vn -0.960069 -0.216280 0.177458
vn -0.960069 -0.216280 0.177458
vn -0.633718 -0.216280 0.742715
vn -0.633718 -0.216280 0.742715
vn -0.633718 -0.216280 0.742715
vn -0.633718 -0.216280 0.742715
vn -0.742715 -0.216280 0.633718
vn -0.742715 -0.216280 0.633718
vn -0.742715 -0.216280 0.633718
vn -0.742715 -0.216280 0.633718
vn -0.177459 -0.216280 0.960068
vn -0.177459 -0.216280 0.960068
vn -0.177459 -0.216280 0.960068
vn -0.177459 -0.216280 0.960068
vn -0.326351 -0.216280 0.920173
vn -0.326351 -0.216280 0.920173
vn -0.326351 -0.216280 0.920173
vn -0.326351 -0.216280 0.920173
vn 0.326350 -0.216280 0.920173
vn 0.326350 -0.216280 0.920173
vn 0.326350 -0.216280 0.920173
vn 0.326350 -0.216280 0.920173
vn 0.177458 -0.216280 0.960069
vn 0.177458 -0.216280 0.960069
vn 0.177458 -0.216280 0.960069
vn 0.177458 -0.216280 0.960069
vn 0.742714 -0.216280 0.633718
vn 0.742714 -0.216280 0.633718
vn 0.742714 -0.216280 0.633718
vn 0.742714 -0.216280 0.633718
vn 0.633718 -0.216280 0.742715
vn 0.633718 -0.216280 0.742715
vn 0.633718 -0.216280 0.742715
vn 0.633718 -0.216280 0.742715
vn 0.960069 -0.216280 0.177459
vn 0.960069 -0.216280 0.177459
vn 0.960069 -0.216280 0.177459
vn 0.960069 -0.216280 0.177459
vn 0.920173 -0.216280 0.326352
vn 0.920173 -0.216280 0.326352
vn 0.920173 -0.216280 0.326352
vn 0.920173 -0.216280 0.326352
vn 0.920173 -0.216280 -0.326350
vn 0.920173 -0.216280 -0.326350
vn 0.920173 -0.216280 -0.326350
vn 0.920173 -0.216280 -0.326350
vn 0.960069 -0.216280 -0.177458
vn 0.960069 -0.216280 -0.177458
vn 0.960069 -0.216280 -0.177458
vn 0.960069 -0.216280 -0.177458
vn 0.633718 -0.216280 -0.742714
vn 0.633718 -0.216280 -0.742714
vn 0.633718 -0.216280 -0.742714
vn 0.633718 -0.216280 -0.742714
vn 0.742715 -0.216280 -0.633717
vn 0.742715 -0.216280 -0.633717
vn 0.742715 -0.216280 -0.633717
vn 0.742715 -0.216280 -0.633717
vn 0.000000 1.000000 0.000000
vn 0.000000 1.000000 0.000000
vn 0.000000 1.000000 0.000000
vn 0.000000 1.000000 0.000000
vn 0.000000 1.000000 0.000000
vn 0.000000 1.000000 0.000000
vn 0.000000 1.000000 0.000000
vn 0.000000 1.000000 0.000000
vn 0.000000 1.000000 0.000000
vn 0.000000 1.000000 0.000000
vn 0.000000 1.000000 0.000000
vn 0.000000 1.000000 0.000000
vn 0.000000 1.000000 0.000000
vn 0.000000 1.000000 0.000000
vn 0.000000 1.000000 0.000000
vn 0.000000 1.000000 0.000000
vn 0.000000 1.000000 0.000000
vn 0.000000 1.000000 0.000000
vn 0.000000 1.000000 0.000000
vn 0.000000 1.000000 0.000000
vn 0.000000 1.000000 0.000000
vn 0.000000 1.000000 0.000000
vn 0.000000 1.000000 0.000000
vn 0.000000 1.000000 0.000000
vn 0.177459 -0.216280 -0.960068
vn 0.177459 -0.216280 -0.960068
vn 0.177459 -0.216280 -0.960068
vn 0.177459 -0.216280 -0.960068
vn 0.326351 -0.216280 -0.920173
vn 0.326351 -0.216280 -0.920173
vn 0.326351 -0.216280 -0.920173
vn 0.326351 -0.216280 -0.920173
vn 0.000000 -1.000000 0.000000
vn 0.000000 -1.000000 0.000000
vn 0.000000 -1.000000 0.000000
vn 0.000000 -1.000000 0.000000
vn 0.000000 -1.000000 0.000000
vn 0.000000 -1.000000 0.000000
vn 0.000000 -1.000000 0.000000
vn 0.000000 -1.000000 0.000000
vn 0.000000 -1.000000 0.000000
vn 0.000000 -1.000000 0.000000
vn 0.000000 -1.000000 0.000000
vn 0.000000 -1.000000 0.000000
vn 0.000000 -1.000000 0.000000
vn 0.000000 -1.000000 0.000000
vn 0.000000 -1.000000 0.000000
vn 0.000000 -1.000000 0.000000
vn 0.000000 -1.000000 0.000000
vn 0.000000 -1.000000 0.000000
vn 0.000000 -1.000000 0.000000
vn 0.000000 -1.000000 0.000000
vn 0.000000 -1.000000 0.000000
vn 0.000000 -1.000000 0.000000
vn 0.000000 -1.000000 0.000000
vn 0.000000 -1.000000 0.000000
vn -0.318567 -0.110680 -0.941417
vn -0.318567 -0.110680 -0.941417
vn -0.318567 -0.110680 -0.941417
vn -0.318567 -0.110680 -0.941417
vn -0.811581 -0.007660 -0.584190
vn -0.811581 -0.007660 -0.584190
vn -0.811581 -0.007660 -0.584190
vn -0.811581 -0.007660 -0.584190
vn -0.999751 0.022217 -0.002114
vn -0.999751 0.022217 -0.002114
vn -0.999751 0.022217 -0.002114
vn -0.999751 0.022217 -0.002114
vn -0.814062 -0.019009 0.580467
vn -0.814062 -0.019009 0.580467
vn -0.814062 -0.019009 0.580467
vn -0.814062 -0.019009 0.580467
vn -0.322676 -0.135048 0.936826
vn -0.322676 -0.135048 0.936826
vn -0.322676 -0.135048 0.936826
vn -0.322676 -0.135048 0.936826
vn 0.272289 -0.324341 0.905904
vn 0.272289 -0.324341 0.905904
vn 0.272289 -0.324341 0.905904
vn 0.272289 -0.324341 0.905904
vn 0.678289 -0.532471 0.506358
vn 0.678289 -0.532471 0.506358
vn 0.678289 -0.532471 0.506358
vn 0.678289 -0.532471 0.506358
vn 0.784818 -0.619685 -0.007148
vn 0.784818 -0.619685 -0.007148
vn 0.784818 -0.619685 -0.007148
vn 0.784818 -0.619685 -0.007148
vn 0.530475 0.789152 -0.309574
vn 0.530475 0.789152 -0.309574
vn 0.530475 0.789152 -0.309574
vn 0.530475 0.789152 -0.309574
vn 0.684682 -0.510724 -0.519972
vn 0.684682 -0.510724 -0.519972
vn 0.684682 -0.510724 -0.519972
vn 0.684682 -0.510724 -0.519972
vn 0.278314 -0.292694 -0.914807
vn 0.278314 -0.292694 -0.914807
vn 0.278314 -0.292694 -0.914807
vn 0.278314 -0.292694 -0.914807
vn 0.809676 0.232903 0.538684
vn 0.809676 0.232903 0.538684
vn 0.809676 0.232903 0.538684
vn 0.809676 0.232903 0.538684
vn 0.629935 0.776529 0.013598
vn 0.629935 0.776529 0.013598
vn 0.629935 0.776529 0.013598
vn 0.629935 0.776529 0.013598
vn 0.538289 0.769274 0.344185
vn 0.538289 0.769274 0.344185
vn 0.538289 0.769274 0.344185
vn 0.538289 0.769274 0.344185
vn 0.265692 0.772791 0.576370
vn 0.265692 0.772791 0.576370
vn 0.265692 0.772791 0.576370
vn 0.265692 0.772791 0.576370
vn -0.109324 0.790004 0.603276
vn -0.109324 0.790004 0.603276
vn -0.109324 0.790004 0.603276
vn -0.109324 0.790004 0.603276
vn -0.432912 0.814321 0.386612
vn -0.432912 0.814321 0.386612
vn -0.432912 0.814321 0.386612
vn -0.432912 0.814321 0.386612
vn -0.097918 0.821257 -0.562094
vn -0.097918 0.821257 -0.562094
vn -0.097918 0.821257 -0.562094
vn -0.097918 0.821257 -0.562094
vn -0.554866 0.831870 0.010784
vn -0.554866 0.831870 0.010784
vn -0.554866 0.831870 0.010784
vn -0.554866 0.831870 0.010784
vn -0.420855 0.833345 -0.358354
vn -0.420855 0.833345 -0.358354
vn -0.420855 0.833345 -0.358354
vn -0.420855 0.833345 -0.358354
vn 0.264731 0.804571 -0.531585
vn 0.264731 0.804571 -0.531585
vn 0.264731 0.804571 -0.531585
vn 0.264731 0.804571 -0.531585
vn -0.492118 -0.807879 0.324269
vn -0.492118 -0.807879 0.324269
vn -0.492118 -0.807879 0.324269
vn -0.492118 -0.807879 0.324269
vn -0.804179 0.131652 0.579624
vn -0.804179 0.131652 0.579624
vn -0.804179 0.131652 0.579624
vn -0.804179 0.131652 0.579624
vn -0.307502 0.143383 -0.940683
vn -0.307502 0.143383 -0.940683
vn -0.307502 0.143383 -0.940683
vn -0.307502 0.143383 -0.940683
vn 0.917014 0.398807 0.006249
vn 0.917014 0.398807 0.006249
vn 0.917014 0.398807 0.006249
vn 0.917014 0.398807 0.006249
vn -0.311407 0.124717 0.942057
vn -0.311407 0.124717 0.942057
vn -0.311407 0.124717 0.942057
vn -0.311407 0.124717 0.942057
vn -0.801796 0.142607 -0.580334
vn -0.801796 0.142607 -0.580334
vn -0.801796 0.142607 -0.580334
vn -0.801796 0.142607 -0.580334
vn 0.811573 0.248082 -0.528966
vn 0.811573 0.248082 -0.528966
vn 0.811573 0.248082 -0.528966
vn 0.811573 0.248082 -0.528966
vn 0.301403 0.098141 0.948433
vn 0.301403 0.098141 0.948433
vn 0.301403 0.098141 0.948433
vn 0.301403 0.098141 0.948433
vn -0.991325 0.131428 -0.000902
vn -0.991325 0.131428 -0.000902
vn -0.991325 0.131428 -0.000902
vn -0.991325 0.131428 -0.000902
vn 0.305638 0.117724 -0.944842
vn 0.305638 0.117724 -0.944842
vn 0.305638 0.117724 -0.944842
vn 0.305638 0.117724 -0.944842
vn -0.189559 0.781483 -0.594434
vn -0.189559 0.781483 -0.594434
vn -0.189559 0.781483 -0.594434
vn -0.189559 0.781483 -0.594434
vn -0.281303 -0.561361 -0.778295
vn -0.281303 -0.561361 -0.778295
vn -0.281303 -0.561361 -0.778295
vn -0.281303 -0.561361 -0.778295
vn 0.901157 -0.433491 -0.001381
vn 0.901157 -0.433491 -0.001381
vn 0.901157 -0.433491 -0.001381
vn 0.901157 -0.433491 -0.001381
vn -0.283455 -0.558569 0.779522
vn -0.283455 -0.558569 0.779522
vn -0.283455 -0.558569 0.779522
vn -0.283455 -0.558569 0.779522
vn -0.489363 -0.802414 -0.341550
vn -0.489363 -0.802414 -0.341550
vn -0.489363 -0.802414 -0.341550
vn -0.489363 -0.802414 -0.341550
vn 0.781246 -0.323570 -0.533814
vn 0.781246 -0.323570 -0.533814
vn 0.781246 -0.323570 -0.533814
vn 0.781246 -0.323570 -0.533814
vn 0.273402 -0.317038 0.908151
vn 0.273402 -0.317038 0.908151
vn 0.273402 -0.317038 0.908151
vn 0.273402 -0.317038 0.908151
vn -0.459206 -0.888252 -0.011776
vn -0.459206 -0.888252 -0.011776
vn -0.459206 -0.888252 -0.011776
vn -0.459206 -0.888252 -0.011776
vn 0.269883 -0.326235 -0.905944
vn 0.269883 -0.326235 -0.905944
vn 0.269883 -0.326235 -0.905944
vn 0.269883 -0.326235 -0.905944
vn 0.784631 -0.317093 0.532734
vn 0.784631 -0.317093 0.532734
vn 0.784631 -0.317093 0.532734
vn 0.784631 -0.317093 0.532734
vn -0.092657 0.940084 0.328112
vn -0.092657 0.940084 0.328112
vn -0.092657 0.940084 0.328112
vn -0.092657 0.940084 0.328112
vn 0.649899 0.760018 0.001963
vn 0.649899 0.760018 0.001963
vn 0.649899 0.760018 0.001963
vn 0.649899 0.760018 0.001963
vn -0.200147 0.758910 0.619675
vn -0.200147 0.758910 0.619675
vn -0.200147 0.758910 0.619675
vn -0.200147 0.758910 0.619675
vn -0.511924 0.777105 -0.366118
vn -0.511924 0.777105 -0.366118
vn -0.511924 0.777105 -0.366118
vn -0.511924 0.777105 -0.366118
vn 0.523628 0.767673 -0.369448
vn 0.523628 0.767673 -0.369448
vn 0.523628 0.767673 -0.369448
vn 0.523628 0.767673 -0.369448
vn 0.205075 0.758371 0.618723
vn 0.205075 0.758371 0.618723
vn 0.205075 0.758371 0.618723
vn 0.205075 0.758371 0.618723
vn -0.639961 0.768385 0.005959
vn -0.639961 0.768385 0.005959
vn -0.639961 0.768385 0.005959
vn -0.639961 0.768385 0.005959
vn 0.204219 0.777338 -0.595013
vn 0.204219 0.777338 -0.595013
vn 0.204219 0.777338 -0.595013
vn 0.204219 0.777338 -0.595013
vn 0.529976 0.757896 0.380420
vn 0.529976 0.757896 0.380420
vn 0.529976 0.757896 0.380420
vn 0.529976 0.757896 0.380420
vn -0.523015 0.761485 0.382877
vn -0.523015 0.761485 0.382877
vn -0.523015 0.761485 0.382877
vn -0.523015 0.761485 0.382877
vn 0.636632 -0.599035 -0.485651
vn 0.636632 -0.599035 -0.485651
vn 0.636632 -0.599035 -0.485651
vn 0.636632 -0.599035 -0.485651
vn -0.265193 0.943472 -0.198828
vn -0.265193 0.943472 -0.198828
vn -0.265193 0.943472 -0.198828
vn -0.265193 0.943472 -0.198828
vn 0.285321 0.939059 -0.191727
vn 0.285321 0.939059 -0.191727
vn 0.285321 0.939059 -0.191727
vn 0.285321 0.939059 -0.191727
vn 0.120670 0.939913 0.319377
vn 0.120670 0.939913 0.319377
vn 0.120670 0.939913 0.319377
vn 0.120670 0.939913 0.319377
vn -0.339688 0.940533 0.003203
vn -0.339688 0.940533 0.003203
vn -0.339688 0.940533 0.003203
vn -0.339688 0.940533 0.003203
vn 0.121125 0.942490 -0.311516
vn 0.121125 0.942490 -0.311516
vn 0.121125 0.942490 -0.311516
vn 0.121125 0.942490 -0.311516
vn 0.286322 0.938268 0.194093
vn 0.286322 0.938268 0.194093
vn 0.286322 0.938268 0.194093
vn 0.286322 0.938268 0.194093
vn -0.272488 0.939378 0.208136
vn -0.272488 0.939378 0.208136
vn -0.272488 0.939378 0.208136
vn -0.272488 0.939378 0.208136
vn -0.086897 0.944709 -0.316187
vn -0.086897 0.944709 -0.316187
vn -0.086897 0.944709 -0.316187
vn -0.086897 0.944709 -0.316187
vn 0.348225 0.937411 0.000302
vn 0.348225 0.937411 0.000302
vn 0.348225 0.937411 0.000302
vn 0.348225 0.937411 0.000302
vn 0.166327 0.906320 0.388485
vn 0.166327 0.906320 0.388485
vn 0.166327 0.906320 0.388485
vn 0.166327 0.906320 0.388485
vn 0.252823 -0.494300 0.831714
vn 0.252823 -0.494300 0.831714
vn 0.252823 -0.494300 0.831714
vn 0.252823 -0.494300 0.831714
vn -0.992417 -0.122909 0.001259
vn -0.992417 -0.122909 0.001259
vn -0.992417 -0.122909 0.001259
vn -0.992417 -0.122909 0.001259
vn 0.255235 -0.455814 -0.852695
vn 0.255235 -0.455814 -0.852695
vn 0.255235 -0.455814 -0.852695
vn 0.255235 -0.455814 -0.852695
vn 0.624311 -0.626611 0.466470
vn 0.624311 -0.626611 0.466470
vn 0.624311 -0.626611 0.466470
vn 0.624311 -0.626611 0.466470
vn -0.798497 -0.176040 0.575684
vn -0.798497 -0.176040 0.575684
vn -0.798497 -0.176040 0.575684
vn -0.798497 -0.176040 0.575684
vn -0.308916 -0.288632 -0.906235
vn -0.308916 -0.288632 -0.906235
vn -0.308916 -0.288632 -0.906235
vn -0.308916 -0.288632 -0.906235
vn 0.748921 -0.662638 -0.005251
vn 0.748921 -0.662638 -0.005251
vn 0.748921 -0.662638 -0.005251
vn 0.748921 -0.662638 -0.005251
vn -0.304090 -0.316109 0.898668
vn -0.304090 -0.316109 0.898668
vn -0.304090 -0.316109 0.898668
vn -0.304090 -0.316109 0.898668
vn -0.801486 -0.164941 -0.574817
vn -0.801486 -0.164941 -0.574817
vn -0.801486 -0.164941 -0.574817
vn -0.801486 -0.164941 -0.574817
vn -0.934743 0.355324 0.000000
vn -0.934743 0.355324 0.000000
vn -0.934743 0.355324 0.000000
vn -0.934743 0.355324 0.000000
vn -0.743374 0.668849 0.006027
vn -0.743374 0.668849 0.006027
vn -0.743374 0.668849 0.006027
vn -0.743374 0.668849 0.006027
vn 0.155960 0.923993 -0.349161
vn 0.155960 0.923993 -0.349161
vn 0.155960 0.923993 -0.349161
vn 0.155960 0.923993 -0.349161
vn 0.323896 0.922546 0.209764
vn 0.323896 0.922546 0.209764
vn 0.323896 0.922546 0.209764
vn 0.323896 0.922546 0.209764
vn -0.514450 0.756071 0.404597
vn -0.514450 0.756071 0.404597
vn -0.514450 0.756071 0.404597
vn -0.514450 0.756071 0.404597
vn -0.107836 0.889421 -0.444187
vn -0.107836 0.889421 -0.444187
vn -0.107836 0.889421 -0.444187
vn -0.107836 0.889421 -0.444187
vn 0.369039 0.929400 0.005182
vn 0.369039 0.929400 0.005182
vn 0.369039 0.929400 0.005182
vn 0.369039 0.929400 0.005182
vn -0.118219 0.862543 0.491980
vn -0.118219 0.862543 0.491980
vn -0.118219 0.862543 0.491980
vn -0.118219 0.862543 0.491980
vn -0.495200 0.782381 -0.377699
vn -0.495200 0.782381 -0.377699
vn -0.495200 0.782381 -0.377699
vn -0.495200 0.782381 -0.377699
vn 0.310863 0.931221 -0.190241
vn 0.310863 0.931221 -0.190241
vn 0.310863 0.931221 -0.190241
vn 0.310863 0.931221 -0.190241
vn 0.749054 0.557431 0.358036
vn 0.749054 0.557431 0.358036
vn 0.749054 0.557431 0.358036
vn 0.749054 0.557431 0.358036
vn 0.390935 0.579213 -0.715320
vn 0.390935 0.579213 -0.715320
vn 0.390935 0.579213 -0.715320
vn 0.390935 0.579213 -0.715320
vn 0.511772 0.803285 0.304669
vn 0.511772 0.803285 0.304669
vn 0.511772 0.803285 0.304669
vn 0.511772 0.803285 0.304669
vn -0.744973 0.356651 0.563752
vn -0.744973 0.356651 0.563752
vn -0.744973 0.356651 0.563752
vn -0.744973 0.356651 0.563752
vn -0.243505 0.378475 -0.893007
vn -0.243505 0.378475 -0.893007
vn -0.243505 0.378475 -0.893007
vn -0.243505 0.378475 -0.893007
vn 0.527737 0.849408 0.000000
vn 0.527737 0.849408 0.000000
vn 0.527737 0.849408 0.000000
vn 0.527737 0.849408 0.000000
vn -0.243506 0.378475 0.893007
vn -0.243506 0.378475 0.893007
vn -0.243506 0.378475 0.893007
vn -0.243506 0.378475 0.893007
vn -0.744972 0.356651 -0.563752
vn -0.744972 0.356651 -0.563752
vn -0.744972 0.356651 -0.563752
vn -0.744972 0.356651 -0.563752
vn 0.511771 0.803285 -0.304670
vn 0.511771 0.803285 -0.304670
vn 0.511771 0.803285 -0.304670
vn 0.511771 0.803285 -0.304670
vn 0.390935 0.579214 0.715319
vn 0.390935 0.579214 0.715319
vn 0.390935 0.579214 0.715319
vn 0.390935 0.579214 0.715319
vn -0.287944 0.800797 0.525179
vn -0.287944 0.800797 0.525179
vn -0.287944 0.800797 0.525179
vn -0.287944 0.800797 0.525179
vn -0.314108 0.833373 0.454781
vn -0.314108 0.833373 0.454781
vn -0.314108 0.833373 0.454781
vn -0.314108 0.833373 0.454781
vn 0.059669 0.722901 -0.688370
vn 0.059669 0.722901 -0.688370
vn 0.059669 0.722901 -0.688370
vn 0.059669 0.722901 -0.688370
vn 0.794433 0.607352 0.000000
vn 0.794433 0.607352 0.000000
vn 0.794433 0.607352 0.000000
vn 0.794433 0.607352 0.000000
vn 0.059669 0.722902 0.688370
vn 0.059669 0.722902 0.688370
vn 0.059669 0.722902 0.688370
vn 0.059669 0.722902 0.688370
vn -0.314110 0.833372 -0.454781
vn -0.314110 0.833372 -0.454781
vn -0.314110 0.833372 -0.454781
vn -0.314110 0.833372 -0.454781
vn 0.749053 0.557431 -0.358037
vn 0.749053 0.557431 -0.358037
vn 0.749053 0.557431 -0.358037
vn 0.749053 0.557431 -0.358037
vn 0.593160 0.522703 0.612326
vn 0.593160 0.522703 0.612326
vn 0.593160 0.522703 0.612326
vn 0.593160 0.522703 0.612326
vn -0.499205 0.866484 0.000000
vn -0.499205 0.866484 0.000000
vn -0.499205 0.866484 0.000000
vn -0.499205 0.866484 0.000000
vn 0.593159 0.522703 -0.612326
vn 0.593159 0.522703 -0.612326
vn 0.593159 0.522703 -0.612326
vn 0.593159 0.522703 -0.612326
vn -0.005951 0.644665 -0.764442
vn -0.005951 0.644665 -0.764442
vn -0.005951 0.644665 -0.764442
vn -0.005951 0.644665 -0.764442
vn 0.987150 -0.159795 0.000000
vn 0.987150 -0.159795 0.000000
vn 0.987150 -0.159795 0.000000
vn 0.987150 -0.159795 0.000000
vn -0.005952 0.644666 0.764442
vn -0.005952 0.644666 0.764442
vn -0.005952 0.644666 0.764442
vn -0.005952 0.644666 0.764442
vn -0.287944 0.800797 -0.525179
vn -0.287944 0.800797 -0.525179
vn -0.287944 0.800797 -0.525179
vn -0.287944 0.800797 -0.525179
vn 0.851088 -0.037649 -0.523672
vn 0.851088 -0.037649 -0.523672
vn 0.851088 -0.037649 -0.523672
vn 0.851088 -0.037649 -0.523672
vn 0.568624 0.237167 0.787666
vn 0.568624 0.237167 0.787666
vn 0.568624 0.237167 0.787666
vn 0.568624 0.237167 0.787666
vn -0.438325 0.898816 0.000000
vn -0.438325 0.898816 0.000000
vn -0.438325 0.898816 0.000000
vn -0.438325 0.898816 0.000000
vn 0.568622 0.237167 -0.787668
vn 0.568622 0.237167 -0.787668
vn 0.568622 0.237167 -0.787668
vn 0.568622 0.237167 -0.787668
vn 0.851088 -0.037649 0.523672
vn 0.851088 -0.037649 0.523672
vn 0.851088 -0.037649 0.523672
vn 0.851088 -0.037649 0.523672
vn 0.496260 0.868174 -0.000003
vn 0.496286 0.868159 0.000005
vn 0.496286 0.868159 0.000005
vn 0.496260 0.868174 -0.000003
vn 0.496260 0.868174 -0.000003
vn 0.496275 0.868166 0.000009
vn 0.496260 0.868174 -0.000003
vn 0.496278 0.868164 0.000009
vn 0.496283 0.868161 -0.000014
vn 0.496278 0.868164 0.000009
vn 0.496291 0.868156 -0.000005
vn 0.496291 0.868156 -0.000005
vn 0.953794 0.218723 -0.206003
vn 0.953794 0.218723 -0.206003
vn 0.953794 0.218723 -0.206003
vn 0.826931 -0.057643 -0.559342
vn 0.826931 -0.057643 -0.559342
vn 0.826931 -0.057643 -0.559342
vn -0.443496 0.111923 -0.889261
vn -0.443496 0.111923 -0.889261
vn -0.443496 0.111923 -0.889261
vn -0.911856 -0.030921 0.409345
vn -0.911856 -0.030921 0.409345
vn -0.911856 -0.030921 0.409345
vn 0.400833 -0.014748 0.916033
vn 0.400833 -0.014748 0.916033
vn 0.400833 -0.014748 0.916033
vn -0.381266 0.924465 -0.000613
vn -0.381266 0.924465 -0.000613
vn -0.381266 0.924465 -0.000613
vn -0.042920 0.998684 0.028080
vn -0.042920 0.998684 0.028080
vn -0.042920 0.998684 0.028080
vn -0.310850 0.888369 0.337894
vn -0.310850 0.888369 0.337894
vn -0.310850 0.888369 0.337894
vn 0.226444 0.964395 0.136619
vn 0.226444 0.964395 0.136619
vn 0.226444 0.964395 0.136619
vn 0.185730 0.834730 0.518393
vn 0.185730 0.834730 0.518393
vn 0.185730 0.834730 0.518393
vn -0.446540 -0.140811 0.883614
vn -0.446540 -0.140811 0.883614
vn -0.446540 -0.140811 0.883614
vn -0.358653 0.478136 0.801719
vn -0.358653 0.478136 0.801719
vn -0.358653 0.478136 0.801719
vn -0.017316 0.456738 0.889433
vn -0.017316 0.456738 0.889433
vn -0.017316 0.456738 0.889433
vn 0.569748 -0.125365 -0.812201
vn 0.569748 -0.125365 -0.812201
vn 0.569748 -0.125365 -0.812201
vn 0.329364 0.546588 -0.769910
vn 0.329364 0.546588 -0.769910
vn 0.329364 0.546588 -0.769910
vn 0.011363 0.504230 -0.863495
vn 0.011363 0.504230 -0.863495
vn 0.011363 0.504230 -0.863495
vn 0.291322 0.855476 -0.428126
vn 0.291322 0.855476 -0.428126
vn 0.291322 0.855476 -0.428126
vn -0.313323 0.897485 -0.310402
vn -0.313323 0.897485 -0.310402
vn -0.313323 0.897485 -0.310402
vn -0.882529 -0.081572 -0.463130
vn -0.882529 -0.081572 -0.463130
vn -0.882529 -0.081572 -0.463130
vn -0.752569 0.533960 -0.385391
vn -0.752569 0.533960 -0.385391
vn -0.752569 0.533960 -0.385391
vn -0.859604 0.504815 -0.079006
vn -0.859604 0.504815 -0.079006
vn -0.859604 0.504815 -0.079006
vn 0.864809 -0.003927 0.502085
vn 0.864809 -0.003927 0.502085
vn 0.864809 -0.003927 0.502085
vn 0.627976 0.632877 0.452894
vn 0.627976 0.632877 0.452894
vn 0.627976 0.632877 0.452894
vn 0.962832 -0.264736 -0.053568
vn 0.962832 -0.264736 -0.053568
vn 0.962832 -0.264736 -0.053568
vn -0.597827 -0.801293 0.023087
vn -0.597827 -0.801293 0.023087
vn -0.597827 -0.801293 0.023087
vn -0.337955 -0.511400 0.790099
vn -0.337955 -0.511400 0.790099
vn -0.337955 -0.511400 0.790099
vn 0.010095 -0.793648 0.608294
vn 0.010095 -0.793648 0.608294
vn 0.010095 -0.793648 0.608294
vn 0.185112 -0.965067 0.185415
vn 0.185112 -0.965067 0.185415
vn 0.185112 -0.965067 0.185415
vn 0.170778 -0.971084 0.166828
vn 0.170778 -0.971084 0.166828
vn 0.624310 -0.776247 -0.087625
vn 0.624310 -0.776247 -0.087625
vn 0.624310 -0.776247 -0.087625
vn 0.312589 -0.707369 -0.633970
vn 0.312589 -0.707369 -0.633970
vn 0.312589 -0.707369 -0.633970
vn 0.248565 -0.968442 -0.018340
vn 0.248565 -0.968442 -0.018340
vn 0.248565 -0.968442 -0.018340
vn -0.027065 -0.995745 -0.088085
vn -0.027065 -0.995745 -0.088085
vn -0.027065 -0.995745 -0.088085
vn -0.582569 -0.790841 -0.187572
vn -0.582569 -0.790841 -0.187572
vn -0.582569 -0.790841 -0.187572
vn -0.105887 -0.800239 -0.590260
vn -0.105887 -0.800239 -0.590260
vn -0.105887 -0.800239 -0.590260
vn 0.067398 -0.987982 0.139099
vn 0.067398 -0.987982 0.139099
vn 0.067398 -0.987982 0.139099
vn -0.049349 -0.998762 0.006302
vn -0.049349 -0.998762 0.006302
vn -0.049349 -0.998762 0.006302
vn 0.035732 -0.997014 -0.068452
vn 0.035732 -0.997014 -0.068452
vn 0.035732 -0.997014 -0.068452
vn 0.161051 -0.986118 0.040427
vn 0.161051 -0.986118 0.040427
vn 0.161051 -0.986118 0.040427
vn 0.834133 0.524355 -0.171099
vn 0.834133 0.524355 -0.171099
vn 0.834133 0.524355 -0.171099
vn 0.740405 0.558363 -0.374208
vn 0.740405 0.558363 -0.374208
vn 0.740405 0.558363 -0.374208
vn 0.850682 0.024737 -0.525098
vn 0.850682 0.024737 -0.525098
vn 0.850682 0.024737 -0.525098
vn -0.219673 -0.172721 -0.960162
vn -0.219673 -0.172721 -0.960162
vn -0.219673 -0.172721 -0.960162
vn -0.082871 0.672953 -0.735028
vn -0.082871 0.672953 -0.735028
vn -0.082871 0.672953 -0.735028
vn -0.406473 0.492616 -0.769486
vn -0.406473 0.492616 -0.769486
vn -0.406473 0.492616 -0.769486
vn -0.944324 -0.308379 0.114697
vn -0.944324 -0.308379 0.114697
vn -0.944324 -0.308379 0.114697
vn -0.797504 0.602410 -0.033011
vn -0.797504 0.602410 -0.033011
vn -0.797504 0.602410 -0.033011
vn -0.814398 0.440661 0.377590
vn -0.814398 0.440661 0.377590
vn -0.814398 0.440661 0.377590
vn 0.129957 -0.332207 0.934211
vn 0.129957 -0.332207 0.934211
vn 0.129957 -0.332207 0.934211
vn 0.069378 0.618900 0.782400
vn 0.069378 0.618900 0.782400
vn 0.069378 0.618900 0.782400
vn 0.395119 0.464544 0.792515
vn 0.395119 0.464544 0.792515
vn 0.395119 0.464544 0.792515
vn -0.323180 0.945879 -0.029462
vn -0.323180 0.945879 -0.029462
vn -0.323180 0.945879 -0.029462
vn -0.106346 0.992272 0.063930
vn -0.106346 0.992272 0.063930
vn -0.106346 0.992272 0.063930
vn -0.042617 0.950265 0.308513
vn -0.042617 0.950265 0.308513
vn -0.042617 0.950265 0.308513
vn -0.474692 0.701690 0.531318
vn -0.474692 0.701690 0.531318
vn -0.474692 0.701690 0.531318
vn 0.100374 0.993034 0.061708
vn 0.100374 0.993034 0.061708
vn 0.100374 0.993034 0.061708
vn 0.347696 0.933784 0.084591
vn 0.347696 0.933784 0.084591
vn 0.347696 0.933784 0.084591
vn 0.516361 0.672922 0.529667
vn 0.516361 0.672922 0.529667
vn 0.516361 0.672922 0.529667
vn 0.088192 0.981514 0.169862
vn 0.088192 0.981514 0.169862
vn 0.088192 0.981514 0.169862
vn -0.461002 -0.185184 0.867862
vn -0.461002 -0.185184 0.867862
vn -0.461002 -0.185184 0.867862
vn -0.026906 0.190330 0.981351
vn -0.026906 0.190330 0.981351
vn -0.026906 0.190330 0.981351
vn 0.504251 0.017140 -0.863387
vn 0.504251 0.017140 -0.863387
vn 0.504251 0.017140 -0.863387
vn -0.002083 0.300423 -0.953804
vn -0.002083 0.300423 -0.953804
vn -0.002083 0.300423 -0.953804
vn 0.037187 0.955431 -0.292864
vn 0.037187 0.955431 -0.292864
vn 0.037187 0.955431 -0.292864
vn 0.395165 0.847012 -0.355549
vn 0.395165 0.847012 -0.355549
vn 0.395165 0.847012 -0.355549
vn -0.525384 0.702411 -0.480198
vn -0.525384 0.702411 -0.480198
vn -0.525384 0.702411 -0.480198
vn -0.862952 -0.146259 -0.483655
vn -0.862952 -0.146259 -0.483655
vn -0.862952 -0.146259 -0.483655
vn -0.984811 0.162203 -0.061952
vn -0.984811 0.162203 -0.061952
vn -0.984811 0.162203 -0.061952
vn 0.795372 -0.200125 0.572131
vn 0.795372 -0.200125 0.572131
vn 0.795372 -0.200125 0.572131
vn 0.560737 0.822346 0.096552
vn 0.560737 0.822346 0.096552
vn 0.560737 0.822346 0.096552
vn -0.746330 -0.664676 0.034605
vn -0.746330 -0.664676 0.034605
vn -0.746330 -0.664676 0.034605
vn -0.043530 -0.987640 -0.150575
vn -0.043530 -0.987640 -0.150575
vn -0.043530 -0.987640 -0.150575
vn 0.164455 -0.980915 0.103729
vn 0.164455 -0.980915 0.103729
vn 0.164455 -0.980915 0.103729
vn 0.710429 -0.633192 -0.307180
vn 0.710429 -0.633192 -0.307180
vn 0.710429 -0.633192 -0.307180
vn 0.308021 -0.754419 -0.579633
vn 0.308021 -0.754419 -0.579633
vn 0.308021 -0.754419 -0.579633
vn -0.053494 -0.994416 -0.090967
vn -0.053494 -0.994416 -0.090967
vn -0.053494 -0.994416 -0.090967
vn 0.588938 -0.800768 -0.109190
vn 0.588938 -0.800768 -0.109190
vn 0.588938 -0.800768 -0.109190
vn -0.735906 -0.637036 -0.229407
vn -0.735906 -0.637036 -0.229407
vn -0.735906 -0.637036 -0.229407
vn -0.192600 -0.978209 0.077539
vn -0.192600 -0.978209 0.077539
vn -0.192600 -0.978209 0.077539
vn -0.011666 -0.826113 0.563383
vn -0.011666 -0.826113 0.563383
vn -0.011666 -0.826113 0.563383
vn -0.087473 -0.995337 -0.040651
vn -0.087473 -0.995337 -0.040651
vn -0.087473 -0.995337 -0.040651
vn -0.106855 -0.737210 -0.667161
vn -0.106855 -0.737210 -0.667161
vn -0.106855 -0.737210 -0.667161
vn -0.220353 -0.974412 -0.044338
vn -0.220353 -0.974412 -0.044338
vn -0.220353 -0.974412 -0.044338
vn -0.068533 0.935777 -0.345868
vn -0.068533 0.935777 -0.345868
vn -0.068533 0.935777 -0.345868
vn -0.065841 0.937136 -0.342697
vn 0.039798 -0.999095 0.014980
vn 0.039798 -0.999095 0.014980
vn 0.039798 -0.999095 0.014980
vn 0.008731 -0.999942 -0.006387
vn 0.008731 -0.999942 -0.006387
g Cupcake_LightYellow
usemtl LightYellow
f 1 2 3
f 1 3 4
f 5 6 7
f 5 7 8
f 9 10 11
f 9 11 12
f 13 14 15
f 13 15 16
f 17 18 19
f 17 19 20
f 21 22 23
f 21 23 24
f 25 26 27
f 25 27 28
f 29 30 31
f 29 31 32
f 33 34 35
f 33 35 36
f 37 38 39
f 37 39 40
f 41 42 43
f 41 43 44
f 45 46 47
f 45 47 48
f 49 50 51
f 49 51 52
f 53 54 55
f 53 55 56
f 57 58 59
f 57 59 60
f 61 62 63
f 61 63 64
f 65 66 67
f 65 67 68
f 69 70 71
f 69 71 72
f 73 74 75
f 73 75 76
f 77 78 79
f 77 79 80
f 81 82 83
f 81 83 84
f 85 86 87
f 85 87 88
f 89 90 91
f 91 92 89
f 91 93 92
f 93 94 92
f 94 95 92
f 94 96 95
f 96 97 95
f 96 98 97
f 98 99 97
f 98 100 99
f 100 101 99
f 100 102 101
f 102 103 101
f 102 104 103
f 104 105 103
f 104 106 105
f 106 107 105
f 106 108 107
f 108 109 107
f 108 110 109
f 110 111 109
f 110 112 111
f 113 114 115
f 113 115 116
f 117 118 119
f 117 119 120
f 121 122 123
f 123 124 121
f 123 125 124
f 125 126 124
f 125 127 126
f 127 128 126
f 127 129 128
f 129 130 128
f 129 131 130
f 131 132 130
f 131 133 132
f 133 134 132
f 133 135 134
f 135 136 134
f 135 137 136
f 137 138 136
f 137 139 138
f 139 140 138
f 139 141 140
f 141 142 140
f 141 143 142
f 143 144 142
g Cupcake_Pink
usemtl Pink
f 145 146 147
f 145 147 148
f 149 150 151
f 149 151 152
f 153 154 155
f 153 155 156
f 157 158 159
f 157 159 160
f 161 162 163
f 161 163 164
f 165 166 167
f 165 167 168
f 169 170 171
f 169 171 172
f 173 174 175
f 173 175 176
f 177 178 179
f 177 179 180
f 181 182 183
f 181 183 184
f 185 186 187
f 185 187 188
f 189 190 191
f 189 191 192
f 193 194 195
f 193 195 196
f 197 198 199
f 197 199 200
f 201 202 203
f 201 203 204
f 205 206 207
f 205 207 208
f 209 210 211
f 209 211 212
f 213 214 215
f 213 215 216
f 217 218 219
f 217 219 220
f 221 222 223
f 221 223 224
f 225 226 227
f 225 227 228
f 229 230 231
f 229 231 232
f 233 234 235
f 233 235 236
f 237 238 239
f 237 239 240
f 241 242 243
f 241 243 244
f 245 246 247
f 245 247 248
f 249 250 251
f 249 251 252
f 253 254 255
f 253 255 256
f 257 258 259
f 257 259 260
f 261 262 263
f 261 263 264
f 265 266 267
f 265 267 268
f 269 270 271
f 269 271 272
f 273 274 275
f 273 275 276
f 277 278 279
f 277 279 280
f 281 282 283
f 281 283 284
f 285 286 287
f 285 287 288
f 289 290 291
f 289 291 292
f 293 294 295
f 293 295 296
f 297 298 299
f 297 299 300
f 301 302 303
f 301 303 304
f 305 306 307
f 305 307 308
f 309 310 311
f 309 311 312
f 313 314 315
f 313 315 316
f 317 318 319
f 317 319 320
f 321 322 323
f 321 323 324
f 325 326 327
f 325 327 328
f 329 330 331
f 329 331 332
f 333 334 335
f 333 335 336
f 337 338 339
f 337 339 340
f 341 342 343
f 341 343 344
f 345 346 347
f 345 347 348
f 349 350 351
f 349 351 352
f 353 354 355
f 353 355 356
f 357 358 359
f 357 359 360
f 361 362 363
f 361 363 364
f 365 366 367
f 365 367 368
f 369 370 371
f 369 371 372
f 373 374 375
f 373 375 376
f 377 378 379
f 377 379 380
f 381 382 383
f 381 383 384
f 385 386 387
f 385 387 388
f 389 390 391
f 389 391 392
f 393 394 395
f 393 395 396
f 397 398 399
f 397 399 400
f 401 402 403
f 401 403 404
f 405 406 407
f 405 407 408
f 409 410 411
f 409 411 412
f 413 414 415
f 413 415 416
f 417 418 419
f 417 419 420
f 421 422 423
f 421 423 424
f 425 426 427
f 425 427 428
f 429 430 431
f 429 431 432
f 433 434 435
f 433 435 436
f 437 438 439
f 437 439 440
f 441 442 443
f 441 443 444
f 445 446 447
f 445 447 448
f 449 450 451
f 449 451 452
f 453 454 455
f 453 455 456
f 457 458 459
f 457 459 460
f 461 462 463
f 461 463 464
f 465 466 467
f 465 467 468
f 469 470 471
f 469 471 472
f 473 474 475
f 473 475 476
f 477 478 479
f 477 479 480
f 481 482 483
f 481 483 484
f 485 486 487
f 485 487 488
f 489 490 491
f 489 491 492
f 493 494 495
f 493 495 496
f 497 498 499
f 497 499 500
f 501 502 503
f 501 503 504
f 505 506 507
f 505 507 508
f 509 510 511
f 509 511 512
f 513 514 515
f 513 515 516
f 517 518 519
f 517 519 520
f 521 522 523
f 521 523 524
f 525 526 527
f 525 527 528
f 529 530 531
f 529 531 532
f 533 534 535
f 533 535 536
f 537 538 539
f 537 539 540
f 541 542 543
f 541 543 544
f 545 546 547
f 545 547 548
f 549 550 551
f 549 551 552
f 553 554 555
f 553 555 556
f 557 558 559
f 557 559 560
f 561 562 563
f 561 563 564
f 565 566 567
f 565 567 568
f 569 570 571
f 569 571 572
f 573 574 575
f 573 575 576
f 577 578 579
f 577 579 580
f 581 582 583
f 581 583 584
f 585 586 587
f 585 588 586
f 589 588 585
f 588 590 586
f 589 591 588
f 588 592 590
f 591 592 588
f 592 593 590
f 591 594 592
f 592 595 593
f 594 595 592
f 594 596 595
g Cupcake_DarkBrown
usemtl DarkBrown
f 597 598 599
f 600 601 602
f 603 604 605
f 606 607 608
f 609 610 611
f 612 613 614
f 615 616 617
f 618 619 620
f 621 622 623
f 624 625 626
f 627 628 629
f 630 631 632
f 633 634 635
f 636 637 638
f 639 640 641
f 642 643 644
f 645 646 647
f 648 649 650
f 651 652 653
f 654 655 656
f 657 658 659
f 660 661 662
f 663 664 665
f 666 667 668
f 669 670 671
f 672 673 674
f 675 676 677
f 678 679 680
f 680 681 682
f 683 684 685
f 686 687 688
f 689 690 691
f 692 693 694
f 695 696 697
f 698 699 700
f 701 702 703
f 704 705 706
f 707 708 709
f 710 711 712
f 713 714 715
f 716 717 718
f 719 720 721
f 722 723 724
f 725 726 727
f 728 729 730
f 731 732 733
f 734 735 736
f 737 738 739
f 740 741 742
f 743 744 745
f 746 747 748
f 749 750 751
f 752 753 754
f 755 756 757
f 758 759 760
f 761 762 763
f 764 765 766
f 767 768 769
f 770 771 772
f 773 774 775
f 776 777 778
f 779 780 781
f 782 783 784
f 785 786 787
f 788 789 790
f 791 792 793
f 794 795 796
f 797 798 799
f 800 801 802
f 803 804 805
f 806 807 808
f 809 810 811
f 812 813 814
f 815 816 817
f 818 819 820
f 821 822 823
f 824 825 826
f 827 828 829
f 830 831 832
f 833 834 835
f 836 837 838
f 839 840 841
f 842 843 844
f 845 846 847
f 845 847 848
f 849 850 851
f 851 852 849
f 851 853 852
