mtllib Materials.mtl
# Ultimate Food Pack - Donut3
o Donut3
v 0.000000 -0.078799 0.177410
v 0.000000 -0.128725 0.223570
v -0.065898 -0.128725 0.213637
v -0.052292 -0.078799 0.169528
v 0.000000 -0.130666 0.353639
v 0.000000 -0.083204 0.416337
v -0.122718 -0.083204 0.397841
v -0.104237 -0.130666 0.337928
v 0.000000 -0.083204 0.416337
v -0.000708 -0.033189 0.430584
v -0.127668 -0.033189 0.411448
v -0.122718 -0.083204 0.397841
v -0.052292 -0.078799 0.169528
v -0.065898 -0.128725 0.213637
v -0.125941 -0.128725 0.184722
v -0.099938 -0.078799 0.146583
v -0.104237 -0.130666 0.337928
v -0.122718 -0.083204 0.397841
v -0.234531 -0.083204 0.343994
v -0.199212 -0.130666 0.292191
v -0.122718 -0.083204 0.397841
v -0.127668 -0.033189 0.411448
v -0.243346 -0.033189 0.355740
v -0.234531 -0.083204 0.343994
v -0.099938 -0.078799 0.146583
v -0.125941 -0.128725 0.184722
v -0.174794 -0.128725 0.139394
v -0.138704 -0.078799 0.110613
v -0.199212 -0.130666 0.292191
v -0.234531 -0.083204 0.343994
v -0.325506 -0.083204 0.259582
v -0.276486 -0.130666 0.220491
v -0.234531 -0.083204 0.343994
v -0.243346 -0.033189 0.355740
v -0.337466 -0.033190 0.268410
v -0.325506 -0.083204 0.259582
v -0.138704 -0.078799 0.110613
v -0.174794 -0.128725 0.139394
v -0.208115 -0.128725 0.081679
v -0.165146 -0.078799 0.064815
v -0.276486 -0.130666 0.220491
v -0.325506 -0.083204 0.259582
v -0.387558 -0.083204 0.152105
v -0.329194 -0.130666 0.129199
v -0.325506 -0.083204 0.259582
v -0.337466 -0.033190 0.268410
v -0.401663 -0.033190 0.157218
v -0.387558 -0.083204 0.152105
v -0.165146 -0.078799 0.064815
v -0.208115 -0.128725 0.081679
v -0.222945 -0.128725 0.016707
v -0.176913 -0.078799 0.013258
v -0.329194 -0.130666 0.129199
v -0.387558 -0.083204 0.152105
v -0.415173 -0.083204 0.031113
v -0.352651 -0.130666 0.026427
v -0.387558 -0.083204 0.152105
v -0.401663 -0.033190 0.157218
v -0.430233 -0.033190 0.032043
v -0.415173 -0.083204 0.031113
v -0.176913 -0.078799 0.013258
v -0.222945 -0.128725 0.016707
v -0.217965 -0.128725 -0.049749
v -0.172961 -0.078799 -0.039477
v -0.352651 -0.130666 0.026427
v -0.415173 -0.083204 0.031113
v -0.405899 -0.083204 -0.092644
v -0.344773 -0.130666 -0.078692
v -0.415173 -0.083204 0.031113
v -0.430233 -0.033190 0.032043
v -0.420638 -0.033190 -0.095991
v -0.405899 -0.083204 -0.092644
v -0.172961 -0.078799 -0.039477
v -0.217965 -0.128725 -0.049749
v -0.193617 -0.128725 -0.111785
v -0.153641 -0.078799 -0.088705
v -0.344773 -0.130666 -0.078692
v -0.405899 -0.083204 -0.092644
v -0.360559 -0.083204 -0.208169
v -0.306261 -0.130666 -0.176820
v -0.405899 -0.083204 -0.092644
v -0.420638 -0.033190 -0.095991
v -0.373730 -0.033190 -0.215510
v -0.360559 -0.083204 -0.208169
v -0.153641 -0.078799 -0.088705
v -0.193617 -0.128725 -0.111785
v -0.152066 -0.128725 -0.163888
v -0.120669 -0.078799 -0.130050
v -0.306261 -0.130666 -0.176820
v -0.360559 -0.083204 -0.208169
v -0.283181 -0.083204 -0.305197
v -0.240536 -0.130666 -0.259236
v -0.360559 -0.083204 -0.208169
v -0.373730 -0.033190 -0.215510
v -0.293678 -0.033190 -0.315892
v -0.283181 -0.083204 -0.305197
v -0.120669 -0.078799 -0.130050
v -0.152066 -0.128725 -0.163888
v -0.097003 -0.128725 -0.201429
v -0.076975 -0.078799 -0.159840
v -0.240536 -0.130666 -0.259236
v -0.283181 -0.083204 -0.305197
v -0.180642 -0.083204 -0.375107
v -0.153438 -0.130666 -0.318618
v -0.283181 -0.083204 -0.305197
v -0.293678 -0.033190 -0.315892
v -0.187594 -0.033190 -0.388219
v -0.180642 -0.083204 -0.375107
v -0.076975 -0.078799 -0.159840
v -0.097003 -0.128725 -0.201429
v -0.033321 -0.128725 -0.221073
v -0.026441 -0.078799 -0.175428
v -0.153438 -0.130666 -0.318618
v -0.180642 -0.083204 -0.375107
v -0.062052 -0.083204 -0.411687
v -0.052707 -0.130666 -0.349689
v -0.180642 -0.083204 -0.375107
v -0.187594 -0.033190 -0.388219
v -0.064905 -0.033190 -0.426064
v -0.062052 -0.083204 -0.411687
v -0.026441 -0.078799 -0.175428
v -0.033321 -0.128725 -0.221073
v 0.033321 -0.128725 -0.221073
v 0.026441 -0.078799 -0.175428
v -0.052707 -0.130666 -0.349689
v -0.062052 -0.083204 -0.411687
v 0.062052 -0.083204 -0.411687
v 0.052707 -0.130666 -0.349689
v -0.062052 -0.083204 -0.411687
v -0.064905 -0.033190 -0.426064
v 0.063489 -0.033190 -0.426064
v 0.062052 -0.083204 -0.411687
v 0.026441 -0.078799 -0.175428
v 0.033321 -0.128725 -0.221073
v 0.097003 -0.128725 -0.201430
v 0.076975 -0.078799 -0.159840
v 0.052707 -0.130666 -0.349689
v 0.062052 -0.083204 -0.411687
v 0.180642 -0.083204 -0.375107
v 0.153438 -0.130666 -0.318618
v 0.062052 -0.083204 -0.411687
v 0.063489 -0.033190 -0.426064
v 0.186179 -0.033190 -0.388219
v 0.180642 -0.083204 -0.375107
v 0.076975 -0.078799 -0.159840
v 0.097003 -0.128725 -0.201430
v 0.152066 -0.128725 -0.163888
v 0.120669 -0.078799 -0.130050
v 0.153438 -0.130666 -0.318618
v 0.180642 -0.083204 -0.375107
v 0.283181 -0.083204 -0.305197
v 0.240536 -0.130666 -0.259236
v 0.180642 -0.083204 -0.375107
v 0.186179 -0.033190 -0.388219
v 0.292263 -0.033190 -0.315892
v 0.283181 -0.083204 -0.305197
v 0.120669 -0.078799 -0.130050
v 0.152066 -0.128725 -0.163888
v 0.193617 -0.128725 -0.111785
v 0.153641 -0.078799 -0.088705
v 0.240536 -0.130666 -0.259236
v 0.283181 -0.083204 -0.305197
v 0.360559 -0.083204 -0.208169
v 0.306261 -0.130666 -0.176820
v 0.283181 -0.083204 -0.305197
v 0.292263 -0.033190 -0.315892
v 0.372315 -0.033190 -0.215510
v 0.360559 -0.083204 -0.208169
v 0.153641 -0.078799 -0.088705
v 0.193617 -0.128725 -0.111785
v 0.217965 -0.128725 -0.049749
v 0.172962 -0.078799 -0.039477
v 0.306261 -0.130666 -0.176820
v 0.360559 -0.083204 -0.208169
v 0.405899 -0.083204 -0.092644
v 0.344773 -0.130666 -0.078692
v 0.360559 -0.083204 -0.208169
v 0.372315 -0.033190 -0.215510
v 0.419222 -0.033190 -0.095992
v 0.405899 -0.083204 -0.092644
v 0.172962 -0.078799 -0.039477
v 0.217965 -0.128725 -0.049749
v 0.222945 -0.128725 0.016707
v 0.176913 -0.078799 0.013258
v 0.344773 -0.130666 -0.078692
v 0.405899 -0.083204 -0.092644
v 0.415173 -0.083204 0.031113
v 0.352651 -0.130666 0.026427
v 0.405899 -0.083204 -0.092644
v 0.419222 -0.033190 -0.095992
v 0.428817 -0.033190 0.032043
v 0.415173 -0.083204 0.031113
v 0.176913 -0.078799 0.013258
v 0.222945 -0.128725 0.016707
v 0.208115 -0.128725 0.081679
v 0.165146 -0.078799 0.064815
v 0.352651 -0.130666 0.026427
v 0.415173 -0.083204 0.031113
v 0.387558 -0.083204 0.152105
v 0.329194 -0.130666 0.129199
v 0.415173 -0.083204 0.031113
v 0.428817 -0.033190 0.032043
v 0.400247 -0.033190 0.157218
v 0.387558 -0.083204 0.152105
v 0.165146 -0.078799 0.064815
v 0.208115 -0.128725 0.081679
v 0.174794 -0.128725 0.139393
v 0.138704 -0.078799 0.110613
v 0.329194 -0.130666 0.129199
v 0.387558 -0.083204 0.152105
v 0.325506 -0.083204 0.259582
v 0.276487 -0.130666 0.220490
v 0.387558 -0.083204 0.152105
v 0.400247 -0.033190 0.157218
v 0.336050 -0.033190 0.268410
v 0.325506 -0.083204 0.259582
v 0.138704 -0.078799 0.110613
v 0.174794 -0.128725 0.139393
v 0.125941 -0.128725 0.184722
v 0.099938 -0.078799 0.146583
v 0.276487 -0.130666 0.220490
v 0.325506 -0.083204 0.259582
v 0.234531 -0.083204 0.343994
v 0.199212 -0.130666 0.292191
v 0.325506 -0.083204 0.259582
v 0.336050 -0.033190 0.268410
v 0.241931 -0.033189 0.355740
v 0.234531 -0.083204 0.343994
v 0.099938 -0.078799 0.146583
v 0.125941 -0.128725 0.184722
v 0.065898 -0.128725 0.213637
v 0.052292 -0.078799 0.169528
v 0.199212 -0.130666 0.292191
v 0.234531 -0.083204 0.343994
v 0.122718 -0.083204 0.397841
v 0.104237 -0.130666 0.337928
v 0.234531 -0.083204 0.343994
v 0.241931 -0.033189 0.355740
v 0.126252 -0.033189 0.411448
v 0.122718 -0.083204 0.397841
v 0.052292 -0.078799 0.169528
v 0.065898 -0.128725 0.213637
v 0.000000 -0.128725 0.223570
v 0.000000 -0.078799 0.177410
v 0.104237 -0.130666 0.337928
v 0.122718 -0.083204 0.397841
v 0.000000 -0.083204 0.416337
v 0.000000 -0.130666 0.353639
v 0.122718 -0.083204 0.397841
v 0.126252 -0.033189 0.411448
v -0.000708 -0.033189 0.430584
v 0.000000 -0.083204 0.416337
v -0.172961 -0.078799 -0.039477
v -0.155745 0.000000 -0.035548
v -0.159304 0.000000 0.011938
v -0.176913 -0.078799 0.013258
v 0.372315 -0.033190 -0.215510
v 0.419222 0.000000 -0.095992
v 0.419222 -0.033190 -0.095992
v 0.372315 0.000000 -0.215510
v 0.372315 0.033190 -0.215510
v 0.419222 0.033190 -0.095992
v -0.373730 -0.033190 -0.215510
v -0.293678 0.000000 -0.315892
v -0.293678 -0.033190 -0.315892
v -0.373730 0.000000 -0.215510
v -0.373730 0.033190 -0.215510
v -0.293678 0.033190 -0.315892
v 0.336050 -0.033190 0.268410
v 0.241931 0.000000 0.355740
v 0.241931 -0.033189 0.355740
v 0.336050 0.000000 0.268410
v 0.336050 0.033190 0.268410
v 0.241931 0.033190 0.355740
v 0.172962 -0.078799 -0.039477
v 0.155745 0.000000 -0.035548
v 0.138348 0.000000 -0.079875
v 0.153641 -0.078799 -0.088705
v -0.337466 -0.033190 0.268410
v -0.401663 0.000000 0.157218
v -0.401663 -0.033190 0.157218
v -0.337466 0.000000 0.268410
v -0.337466 0.033190 0.268410
v -0.401663 0.033190 0.157218
v 0.099938 -0.078799 0.146583
v 0.089991 0.000000 0.131992
v 0.124898 0.000000 0.099603
v 0.138704 -0.078799 0.110613
v 0.176913 -0.078799 0.013258
v 0.159304 0.000000 0.011938
v 0.155745 0.000000 -0.035548
v 0.172962 -0.078799 -0.039477
v -0.165146 -0.078799 0.064815
v -0.148707 0.000000 0.058363
v -0.124898 0.000000 0.099603
v -0.138704 -0.078799 0.110613
v -0.420638 -0.033190 -0.095991
v -0.373730 0.000000 -0.215510
v -0.373730 -0.033190 -0.215510
v -0.420638 0.000000 -0.095992
v -0.420638 0.033190 -0.095992
v -0.373730 0.033190 -0.215510
v -0.187594 -0.033190 -0.388219
v -0.064905 0.000000 -0.426064
v -0.064905 -0.033190 -0.426064
v -0.187594 0.000000 -0.388219
v -0.187594 0.033189 -0.388219
v -0.064905 0.033189 -0.426064
v 0.126252 -0.033189 0.411448
v -0.000708 0.000000 0.430584
v -0.000708 -0.033189 0.430584
v 0.126252 0.000000 0.411448
v 0.126252 0.033190 0.411448
v -0.000708 0.033190 0.430584
v -0.176913 -0.078799 0.013258
v -0.159304 0.000000 0.011938
v -0.148707 0.000000 0.058363
v -0.165146 -0.078799 0.064815
v -0.052292 -0.078799 0.169528
v -0.047087 0.000000 0.152653
v 0.000000 0.000000 0.159750
v 0.000000 -0.078799 0.177410
v -0.430233 -0.033190 0.032043
v -0.420638 0.000000 -0.095992
v -0.420638 -0.033190 -0.095991
v -0.430233 0.000000 0.032043
v -0.430233 0.033190 0.032043
v -0.420638 0.033190 -0.095992
v -0.243346 -0.033189 0.355740
v -0.337466 0.000000 0.268410
v -0.337466 -0.033190 0.268410
v -0.243346 0.000000 0.355740
v -0.243346 0.033190 0.355740
v -0.337466 0.033190 0.268410
v -0.127668 -0.033189 0.411448
v -0.243346 0.000000 0.355740
v -0.243346 -0.033189 0.355740
v -0.127668 0.000000 0.411448
v -0.127668 0.033190 0.411448
v -0.243346 0.033190 0.355740
v -0.153641 -0.078799 -0.088705
v -0.138348 0.000000 -0.079875
v -0.155745 0.000000 -0.035548
v -0.172961 -0.078799 -0.039477
v 0.165146 -0.078799 0.064815
v 0.148707 0.000000 0.058363
v 0.159304 0.000000 0.011938
v 0.176913 -0.078799 0.013258
v -0.293678 -0.033190 -0.315892
v -0.187594 0.000000 -0.388219
v -0.187594 -0.033190 -0.388219
v -0.293678 0.000000 -0.315892
v -0.293678 0.033190 -0.315892
v -0.187594 0.033189 -0.388219
v 0.076975 -0.078799 -0.159840
v 0.069313 0.000000 -0.143930
v 0.023810 0.000000 -0.157966
v 0.026441 -0.078799 -0.175428
v 0.400247 -0.033190 0.157218
v 0.336050 0.000000 0.268410
v 0.336050 -0.033190 0.268410
v 0.400247 0.000000 0.157218
v 0.400247 0.033190 0.157218
v 0.336050 0.033190 0.268410
v 0.138704 -0.078799 0.110613
v 0.124898 0.000000 0.099603
v 0.148707 0.000000 0.058363
v 0.165146 -0.078799 0.064815
v 0.026441 -0.078799 -0.175428
v 0.023810 0.000000 -0.157966
v -0.023810 0.000000 -0.157966
v -0.026441 -0.078799 -0.175428
v -0.076975 -0.078799 -0.159840
v -0.069313 0.000000 -0.143930
v -0.108658 0.000000 -0.117105
v -0.120669 -0.078799 -0.130050
v 0.292263 -0.033190 -0.315892
v 0.372315 0.000000 -0.215510
v 0.372315 -0.033190 -0.215510
v 0.292263 0.000000 -0.315892
v 0.292263 0.033190 -0.315892
v 0.372315 0.033190 -0.215510
v -0.401663 -0.033190 0.157218
v -0.430233 0.000000 0.032043
v -0.430233 -0.033190 0.032043
v -0.401663 0.000000 0.157218
v -0.401663 0.033190 0.157218
v -0.430233 0.033190 0.032043
v -0.064905 -0.033190 -0.426064
v 0.063489 0.000000 -0.426064
v 0.063489 -0.033190 -0.426064
v -0.064905 0.000000 -0.426064
v -0.064905 0.033189 -0.426064
v 0.063489 0.033189 -0.426064
v -0.099938 -0.078799 0.146583
v -0.089991 0.000000 0.131992
v -0.047087 0.000000 0.152653
v -0.052292 -0.078799 0.169528
v 0.052292 -0.078799 0.169528
v 0.047087 0.000000 0.152653
v 0.089991 0.000000 0.131992
v 0.099938 -0.078799 0.146583
v -0.120669 -0.078799 -0.130050
v -0.108658 0.000000 -0.117105
v -0.138348 0.000000 -0.079875
v -0.153641 -0.078799 -0.088705
v 0.186179 -0.033190 -0.388219
v 0.292263 0.000000 -0.315892
v 0.292263 -0.033190 -0.315892
v 0.186179 0.000000 -0.388219
v 0.186179 0.033189 -0.388219
v 0.292263 0.033190 -0.315892
v 0.000000 -0.078799 0.177410
v 0.000000 0.000000 0.159750
v 0.047087 0.000000 0.152653
v 0.052292 -0.078799 0.169528
v 0.063489 -0.033190 -0.426064
v 0.186179 0.000000 -0.388219
v 0.186179 -0.033190 -0.388219
v 0.063489 0.000000 -0.426064
v 0.063489 0.033189 -0.426064
v 0.186179 0.033189 -0.388219
v -0.000708 -0.033189 0.430584
v -0.127668 0.000000 0.411448
v -0.127668 -0.033189 0.411448
v -0.000708 0.000000 0.430584
v -0.000708 0.033190 0.430584
v -0.127668 0.033190 0.411448
v -0.026441 -0.078799 -0.175428
v -0.023810 0.000000 -0.157966
v -0.069313 0.000000 -0.143930
v -0.076975 -0.078799 -0.159840
v 0.241931 -0.033189 0.355740
v 0.126252 0.000000 0.411448
v 0.126252 -0.033189 0.411448
v 0.241931 0.000000 0.355740
v 0.241931 0.033190 0.355740
v 0.126252 0.033190 0.411448
v 0.419222 -0.033190 -0.095992
v 0.428817 0.000000 0.032043
v 0.428817 -0.033190 0.032043
v 0.419222 0.000000 -0.095992
v 0.419222 0.033190 -0.095992
v 0.428817 0.033190 0.032043
v -0.138704 -0.078799 0.110613
v -0.124898 0.000000 0.099603
v -0.089991 0.000000 0.131992
v -0.099938 -0.078799 0.146583
v 0.120669 -0.078799 -0.130050
v 0.108658 0.000000 -0.117105
v 0.069313 0.000000 -0.143930
v 0.076975 -0.078799 -0.159840
v 0.428817 -0.033190 0.032043
v 0.400247 0.000000 0.157218
v 0.400247 -0.033190 0.157218
v 0.428817 0.000000 0.032043
v 0.428817 0.033190 0.032043
v 0.400247 0.033190 0.157218
v 0.153641 -0.078799 -0.088705
v 0.138348 0.000000 -0.079875
v 0.108658 0.000000 -0.117105
v 0.120669 -0.078799 -0.130050
v 0.000000 0.078799 0.177410
v -0.052292 0.078799 0.169528
v -0.075392 0.149428 0.244413
v 0.000000 0.149428 0.255777
v 0.000000 0.149428 0.255777
v -0.075392 0.149428 0.244413
v -0.104237 0.130666 0.337928
v 0.000000 0.130666 0.353639
v 0.000000 0.130666 0.353639
v -0.104237 0.130666 0.337928
v -0.122718 0.083204 0.397841
v 0.000000 0.083204 0.416337
v 0.000000 0.083204 0.416337
v -0.122718 0.083204 0.397841
v -0.127668 0.033190 0.411448
v -0.000708 0.033190 0.430584
v -0.052292 0.078799 0.169528
v -0.099938 0.078799 0.146583
v -0.144084 0.149428 0.211333
v -0.075392 0.149428 0.244413
v -0.075392 0.149428 0.244413
v -0.144084 0.149428 0.211333
v -0.199212 0.130666 0.292191
v -0.104237 0.130666 0.337928
v -0.104237 0.130666 0.337928
v -0.199212 0.130666 0.292191
v -0.234531 0.083204 0.343994
v -0.122718 0.083204 0.397841
v -0.122718 0.083204 0.397841
v -0.234531 0.083204 0.343994
v -0.243346 0.033190 0.355740
v -0.127668 0.033190 0.411448
v -0.099938 0.078799 0.146583
v -0.138704 0.078799 0.110613
v -0.199974 0.149428 0.159474
v -0.144084 0.149428 0.211333
v -0.144084 0.149428 0.211333
v -0.199974 0.149428 0.159474
v -0.276486 0.130666 0.220491
v -0.199212 0.130666 0.292191
v -0.199212 0.130666 0.292191
v -0.276486 0.130666 0.220491
v -0.325506 0.083204 0.259582
v -0.234531 0.083204 0.343994
v -0.234531 0.083204 0.343994
v -0.325506 0.083204 0.259582
v -0.337466 0.033190 0.268410
v -0.243346 0.033190 0.355740
v -0.138704 0.078799 0.110613
v -0.165146 0.078799 0.064815
v -0.238096 0.149428 0.093446
v -0.199974 0.149428 0.159474
v -0.199974 0.149428 0.159474
v -0.238096 0.149428 0.093446
v -0.329194 0.130666 0.129199
v -0.276486 0.130666 0.220491
v -0.276486 0.130666 0.220491
v -0.329194 0.130666 0.129199
v -0.387558 0.083204 0.152105
v -0.325506 0.083204 0.259582
v -0.325506 0.083204 0.259582
v -0.387558 0.083204 0.152105
v -0.401663 0.033190 0.157218
v -0.337466 0.033190 0.268410
v -0.165146 0.078799 0.064815
v -0.176913 0.078799 0.013258
v -0.255062 0.149428 0.019114
v -0.238096 0.149428 0.093446
v -0.238096 0.149428 0.093446
v -0.255062 0.149428 0.019114
v -0.352651 0.130666 0.026427
v -0.329194 0.130666 0.129199
v -0.329194 0.130666 0.129199
v -0.352651 0.130666 0.026427
v -0.415173 0.083204 0.031113
v -0.387558 0.083204 0.152105
v -0.387558 0.083204 0.152105
v -0.415173 0.083204 0.031113
v -0.430233 0.033190 0.032043
v -0.401663 0.033190 0.157218
v -0.176913 0.078799 0.013258
v -0.172961 0.078799 -0.039477
v -0.249364 0.149428 -0.056916
v -0.255062 0.149428 0.019114
v -0.255062 0.149428 0.019114
v -0.249364 0.149428 -0.056916
v -0.344773 0.130666 -0.078692
v -0.352651 0.130666 0.026427
v -0.352651 0.130666 0.026427
v -0.344773 0.130666 -0.078692
v -0.405899 0.083204 -0.092644
v -0.415173 0.083204 0.031113
v -0.415173 0.083204 0.031113
v -0.405899 0.083204 -0.092644
v -0.420638 0.033190 -0.095992
v -0.430233 0.033190 0.032043
v -0.172961 0.078799 -0.039477
v -0.153641 0.078799 -0.088705
v -0.221509 0.149428 -0.127888
v -0.249364 0.149428 -0.056916
v -0.249364 0.149428 -0.056916
v -0.221509 0.149428 -0.127888
v -0.306261 0.130666 -0.176820
v -0.344773 0.130666 -0.078692
v -0.344773 0.130666 -0.078692
v -0.306261 0.130666 -0.176820
v -0.360559 0.083204 -0.208169
v -0.405899 0.083204 -0.092644
v -0.405899 0.083204 -0.092644
v -0.360559 0.083204 -0.208169
v -0.373730 0.033190 -0.215510
v -0.420638 0.033190 -0.095992
v -0.153641 0.078799 -0.088705
v -0.120669 0.078799 -0.130050
v -0.173973 0.149428 -0.187498
v -0.221509 0.149428 -0.127888
v -0.221509 0.149428 -0.127888
v -0.173973 0.149428 -0.187498
v -0.240536 0.130666 -0.259236
v -0.306261 0.130666 -0.176820
v -0.306261 0.130666 -0.176820
v -0.240536 0.130666 -0.259236
v -0.283181 0.083204 -0.305197
v -0.360559 0.083204 -0.208169
v -0.360559 0.083204 -0.208169
v -0.283181 0.083204 -0.305197
v -0.293678 0.033190 -0.315892
v -0.373730 0.033190 -0.215510
v -0.120669 0.078799 -0.130050
v -0.076975 0.078799 -0.159840
v -0.110978 0.149428 -0.230447
v -0.173973 0.149428 -0.187498
v -0.173973 0.149428 -0.187498
v -0.110978 0.149428 -0.230447
v -0.153438 0.130666 -0.318618
v -0.240536 0.130666 -0.259236
v -0.240536 0.130666 -0.259236
v -0.153438 0.130666 -0.318618
v -0.180642 0.083204 -0.375107
v -0.283181 0.083204 -0.305197
v -0.283181 0.083204 -0.305197
v -0.180642 0.083204 -0.375107
v -0.187594 0.033189 -0.388219
v -0.293678 0.033190 -0.315892
v -0.076975 0.078799 -0.159840
v -0.026441 0.078799 -0.175428
v -0.038122 0.149428 -0.252920
v -0.110978 0.149428 -0.230447
v -0.110978 0.149428 -0.230447
v -0.038122 0.149428 -0.252920
v -0.052707 0.130666 -0.349690
v -0.153438 0.130666 -0.318618
v -0.153438 0.130666 -0.318618
v -0.052707 0.130666 -0.349690
v -0.062052 0.083204 -0.411687
v -0.180642 0.083204 -0.375107
v -0.180642 0.083204 -0.375107
v -0.062052 0.083204 -0.411687
v -0.064905 0.033189 -0.426064
v -0.187594 0.033189 -0.388219
v -0.026441 0.078799 -0.175428
v 0.026441 0.078799 -0.175428
v 0.038122 0.149428 -0.252920
v -0.038122 0.149428 -0.252920
v -0.038122 0.149428 -0.252920
v 0.038122 0.149428 -0.252920
v 0.052707 0.130666 -0.349690
v -0.052707 0.130666 -0.349690
v -0.052707 0.130666 -0.349690
v 0.052707 0.130666 -0.349690
v 0.062052 0.083204 -0.411687
v -0.062052 0.083204 -0.411687
v -0.062052 0.083204 -0.411687
v 0.062052 0.083204 -0.411687
v 0.063489 0.033189 -0.426064
v -0.064905 0.033189 -0.426064
v 0.026441 0.078799 -0.175428
v 0.076975 0.078799 -0.159840
v 0.110977 0.149428 -0.230447
v 0.038122 0.149428 -0.252920
v 0.038122 0.149428 -0.252920
v 0.110977 0.149428 -0.230447
v 0.153438 0.130666 -0.318618
v 0.052707 0.130666 -0.349690
v 0.052707 0.130666 -0.349690
v 0.153438 0.130666 -0.318618
v 0.180642 0.083204 -0.375107
v 0.062052 0.083204 -0.411687
v 0.062052 0.083204 -0.411687
v 0.180642 0.083204 -0.375107
v 0.186179 0.033189 -0.388219
v 0.063489 0.033189 -0.426064
v 0.076975 0.078799 -0.159840
v 0.120669 0.078799 -0.130050
v 0.173973 0.149428 -0.187498
v 0.110977 0.149428 -0.230447
v 0.110977 0.149428 -0.230447
v 0.173973 0.149428 -0.187498
v 0.240536 0.130666 -0.259236
v 0.153438 0.130666 -0.318618
v 0.153438 0.130666 -0.318618
v 0.240536 0.130666 -0.259236
v 0.283181 0.083204 -0.305197
v 0.180642 0.083204 -0.375107
v 0.180642 0.083204 -0.375107
v 0.283181 0.083204 -0.305197
v 0.292263 0.033190 -0.315892
v 0.186179 0.033189 -0.388219
v 0.120669 0.078799 -0.130050
v 0.153641 0.078799 -0.088705
v 0.221509 0.149428 -0.127888
v 0.173973 0.149428 -0.187498
v 0.173973 0.149428 -0.187498
v 0.221509 0.149428 -0.127888
v 0.306261 0.130666 -0.176820
v 0.240536 0.130666 -0.259236
v 0.240536 0.130666 -0.259236
v 0.306261 0.130666 -0.176820
v 0.360559 0.083204 -0.208169
v 0.283181 0.083204 -0.305197
v 0.283181 0.083204 -0.305197
v 0.360559 0.083204 -0.208169
v 0.372315 0.033190 -0.215510
v 0.292263 0.033190 -0.315892
v 0.153641 0.078799 -0.088705
v 0.172962 0.078799 -0.039477
v 0.249364 0.149428 -0.056916
v 0.221509 0.149428 -0.127888
v 0.221509 0.149428 -0.127888
v 0.249364 0.149428 -0.056916
v 0.344773 0.130666 -0.078692
v 0.306261 0.130666 -0.176820
v 0.306261 0.130666 -0.176820
v 0.344773 0.130666 -0.078692
v 0.405899 0.083204 -0.092644
v 0.360559 0.083204 -0.208169
v 0.360559 0.083204 -0.208169
v 0.405899 0.083204 -0.092644
v 0.419222 0.033190 -0.095992
v 0.372315 0.033190 -0.215510
v 0.172962 0.078799 -0.039477
v 0.176913 0.078799 0.013258
v 0.255062 0.149428 0.019114
v 0.249364 0.149428 -0.056916
v 0.249364 0.149428 -0.056916
v 0.255062 0.149428 0.019114
v 0.352651 0.130666 0.026427
v 0.344773 0.130666 -0.078692
v 0.344773 0.130666 -0.078692
v 0.352651 0.130666 0.026427
v 0.415173 0.083204 0.031113
v 0.405899 0.083204 -0.092644
v 0.405899 0.083204 -0.092644
v 0.415173 0.083204 0.031113
v 0.428817 0.033190 0.032043
v 0.419222 0.033190 -0.095992
v 0.176913 0.078799 0.013258
v 0.165146 0.078799 0.064815
v 0.238096 0.149428 0.093446
v 0.255062 0.149428 0.019114
v 0.255062 0.149428 0.019114
v 0.238096 0.149428 0.093446
v 0.329194 0.130666 0.129199
v 0.352651 0.130666 0.026427
v 0.352651 0.130666 0.026427
v 0.329194 0.130666 0.129199
v 0.387558 0.083204 0.152105
v 0.415173 0.083204 0.031113
v 0.415173 0.083204 0.031113
v 0.387558 0.083204 0.152105
v 0.400247 0.033190 0.157218
v 0.428817 0.033190 0.032043
v 0.165146 0.078799 0.064815
v 0.138704 0.078799 0.110613
v 0.199975 0.149428 0.159474
v 0.238096 0.149428 0.093446
v 0.238096 0.149428 0.093446
v 0.199975 0.149428 0.159474
v 0.276487 0.130666 0.220490
v 0.329194 0.130666 0.129199
v 0.329194 0.130666 0.129199
v 0.276487 0.130666 0.220490
v 0.325506 0.083204 0.259582
v 0.387558 0.083204 0.152105
v 0.387558 0.083204 0.152105
v 0.325506 0.083204 0.259582
v 0.336050 0.033190 0.268410
v 0.400247 0.033190 0.157218
v 0.138704 0.078799 0.110613
v 0.099938 0.078799 0.146583
v 0.144084 0.149428 0.211333
v 0.199975 0.149428 0.159474
v 0.199975 0.149428 0.159474
v 0.144084 0.149428 0.211333
v 0.199212 0.130666 0.292191
v 0.276487 0.130666 0.220490
v 0.276487 0.130666 0.220490
v 0.199212 0.130666 0.292191
v 0.234531 0.083204 0.343994
v 0.325506 0.083204 0.259582
v 0.325506 0.083204 0.259582
v 0.234531 0.083204 0.343994
v 0.241931 0.033190 0.355740
v 0.336050 0.033190 0.268410
v 0.099938 0.078799 0.146583
v 0.052292 0.078799 0.169528
v 0.075392 0.149428 0.244413
v 0.144084 0.149428 0.211333
v 0.144084 0.149428 0.211333
v 0.075392 0.149428 0.244413
v 0.104237 0.130666 0.337928
v 0.199212 0.130666 0.292191
v 0.199212 0.130666 0.292191
v 0.104237 0.130666 0.337928
v 0.122718 0.083204 0.397841
v 0.234531 0.083204 0.343994
v 0.234531 0.083204 0.343994
v 0.122718 0.083204 0.397841
v 0.126252 0.033190 0.411448
v 0.241931 0.033190 0.355740
v 0.052292 0.078799 0.169528
v 0.000000 0.078799 0.177410
v 0.000000 0.149428 0.255777
v 0.075392 0.149428 0.244413
v 0.075392 0.149428 0.244413
v 0.000000 0.149428 0.255777
v 0.000000 0.130666 0.353639
v 0.104237 0.130666 0.337928
v 0.104237 0.130666 0.337928
v 0.000000 0.130666 0.353639
v 0.000000 0.083204 0.416337
v 0.122718 0.083204 0.397841
v 0.122718 0.083204 0.397841
v 0.000000 0.083204 0.416337
v -0.000708 0.033190 0.430584
v 0.126252 0.033190 0.411448
v -0.172961 0.078799 -0.039477
v -0.176913 0.078799 0.013258
v -0.159304 0.000000 0.011938
v -0.155745 0.000000 -0.035548
v 0.172962 0.078799 -0.039477
v 0.153641 0.078799 -0.088705
v 0.138348 0.000000 -0.079875
v 0.155745 0.000000 -0.035548
v 0.099938 0.078799 0.146583
v 0.138704 0.078799 0.110613
v 0.124898 0.000000 0.099603
v 0.089991 0.000000 0.131992
v 0.176913 0.078799 0.013258
v 0.172962 0.078799 -0.039477
v 0.155745 0.000000 -0.035548
v 0.159304 0.000000 0.011938
v -0.165146 0.078799 0.064815
v -0.138704 0.078799 0.110613
v -0.124898 0.000000 0.099603
v -0.148707 0.000000 0.058363
v -0.176913 0.078799 0.013258
v -0.165146 0.078799 0.064815
v -0.148707 0.000000 0.058363
v -0.159304 0.000000 0.011938
v -0.052292 0.078799 0.169528
v 0.000000 0.078799 0.177410
v 0.000000 0.000000 0.159750
v -0.047087 0.000000 0.152653
v -0.153641 0.078799 -0.088705
v -0.172961 0.078799 -0.039477
v -0.155745 0.000000 -0.035548
v -0.138348 0.000000 -0.079875
v 0.165146 0.078799 0.064815
v 0.176913 0.078799 0.013258
v 0.159304 0.000000 0.011938
v 0.148707 0.000000 0.058363
v 0.076975 0.078799 -0.159840
v 0.026441 0.078799 -0.175428
v 0.023810 0.000000 -0.157966
v 0.069313 0.000000 -0.143930
v 0.138704 0.078799 0.110613
v 0.165146 0.078799 0.064815
v 0.148707 0.000000 0.058363
v 0.124898 0.000000 0.099603
v 0.026441 0.078799 -0.175428
v -0.026441 0.078799 -0.175428
v -0.023810 0.000000 -0.157966
v 0.023810 0.000000 -0.157966
v -0.076975 0.078799 -0.159840
v -0.120669 0.078799 -0.130050
v -0.108658 0.000000 -0.117105
v -0.069313 0.000000 -0.143930
v -0.099938 0.078799 0.146583
v -0.052292 0.078799 0.169528
v -0.047087 0.000000 0.152653
v -0.089991 0.000000 0.131992
v 0.052292 0.078799 0.169528
v 0.099938 0.078799 0.146583
v 0.089991 0.000000 0.131992
v 0.047087 0.000000 0.152653
v -0.120669 0.078799 -0.130050
v -0.153641 0.078799 -0.088705
v -0.138348 0.000000 -0.079875
v -0.108658 0.000000 -0.117105
v 0.000000 0.078799 0.177410
v 0.052292 0.078799 0.169528
v 0.047087 0.000000 0.152653
v 0.000000 0.000000 0.159750
v -0.026441 0.078799 -0.175428
v -0.076975 0.078799 -0.159840
v -0.069313 0.000000 -0.143930
v -0.023810 0.000000 -0.157966
v -0.138704 0.078799 0.110613
v -0.099938 0.078799 0.146583
v -0.089991 0.000000 0.131992
v -0.124898 0.000000 0.099603
v 0.120669 0.078799 -0.130050
v 0.076975 0.078799 -0.159840
v 0.069313 0.000000 -0.143930
v 0.108658 0.000000 -0.117105
v 0.153641 0.078799 -0.088705
v 0.120669 0.078799 -0.130050
v 0.108658 0.000000 -0.117105
v 0.138348 0.000000 -0.079875
v 0.125941 -0.128725 0.184722
v 0.104237 -0.130666 0.337928
v 0.065898 -0.128725 0.213637
v 0.199212 -0.130666 0.292191
v 0.000000 -0.130666 0.353639
v 0.174794 -0.128725 0.139393
v 0.000000 -0.128725 0.223570
v 0.276487 -0.130666 0.220490
v -0.104237 -0.130666 0.337928
v 0.208115 -0.128725 0.081679
v -0.065898 -0.128725 0.213637
v 0.329194 -0.130666 0.129199
v -0.199212 -0.130666 0.292191
v 0.222945 -0.128725 0.016707
v -0.125941 -0.128725 0.184722
v 0.352651 -0.130666 0.026427
v -0.276486 -0.130666 0.220491
v 0.217965 -0.128725 -0.049749
v -0.174794 -0.128725 0.139394
v 0.344773 -0.130666 -0.078692
v -0.329194 -0.130666 0.129199
v 0.193617 -0.128725 -0.111785
v -0.208115 -0.128725 0.081679
v 0.306261 -0.130666 -0.176820
v -0.352651 -0.130666 0.026427
v 0.152066 -0.128725 -0.163888
v -0.222945 -0.128725 0.016707
v 0.240536 -0.130666 -0.259236
v -0.344773 -0.130666 -0.078692
v 0.097003 -0.128725 -0.201430
v -0.217965 -0.128725 -0.049749
v 0.153438 -0.130666 -0.318618
v -0.306261 -0.130666 -0.176820
v 0.033321 -0.128725 -0.221073
v -0.193617 -0.128725 -0.111785
v 0.052707 -0.130666 -0.349689
v -0.240536 -0.130666 -0.259236
v -0.033321 -0.128725 -0.221073
v -0.152066 -0.128725 -0.163888
v -0.052707 -0.130666 -0.349689
v -0.153438 -0.130666 -0.318618
v -0.097003 -0.128725 -0.201429
vn 0.109999 -0.674758 -0.729796
vn 0.109999 -0.674758 -0.729796
vn 0.109999 -0.674758 -0.729796
vn 0.109999 -0.674758 -0.729796
vn -0.090598 -0.794038 0.601079
vn -0.090598 -0.794038 0.601079
vn -0.090598 -0.794038 0.601079
vn -0.090598 -0.794038 0.601079
vn -0.143381 -0.273000 0.951269
vn -0.143381 -0.273000 0.951269
vn -0.143381 -0.273000 0.951269
vn -0.143381 -0.273000 0.951269
vn 0.320223 -0.674758 -0.664950
vn 0.320223 -0.674758 -0.664950
vn 0.320223 -0.674758 -0.664950
vn 0.320223 -0.674758 -0.664950
vn -0.263744 -0.794038 0.547671
vn -0.263744 -0.794038 0.547671
vn -0.263744 -0.794038 0.547671
vn -0.263744 -0.794038 0.547671
vn -0.416930 -0.276811 0.865763
vn -0.416930 -0.276811 0.865763
vn -0.416930 -0.276811 0.865763
vn -0.416930 -0.276811 0.865763
vn 0.501994 -0.674758 -0.541021
vn 0.501994 -0.674758 -0.541021
vn 0.501994 -0.674758 -0.541021
vn 0.501994 -0.674758 -0.541021
vn -0.413456 -0.794038 0.445599
vn -0.413456 -0.794038 0.445599
vn -0.413456 -0.794038 0.445599
vn -0.413456 -0.794038 0.445599
vn -0.652901 -0.280330 0.703659
vn -0.652901 -0.280330 0.703659
vn -0.652901 -0.280330 0.703659
vn -0.652901 -0.280330 0.703659
vn 0.639160 -0.674759 -0.369019
vn 0.639160 -0.674759 -0.369019
vn 0.639160 -0.674759 -0.369019
vn 0.639160 -0.674759 -0.369019
vn -0.526430 -0.794038 0.303935
vn -0.526430 -0.794038 0.303935
vn -0.526430 -0.794038 0.303935
vn -0.526430 -0.794038 0.303935
vn -0.830558 -0.283250 0.479523
vn -0.830558 -0.283250 0.479523
vn -0.830558 -0.283250 0.479523
vn -0.830558 -0.283250 0.479523
vn 0.719535 -0.674758 -0.164229
vn 0.719535 -0.674758 -0.164229
vn 0.719535 -0.674758 -0.164229
vn 0.719535 -0.674758 -0.164229
vn -0.592628 -0.794038 0.135264
vn -0.592628 -0.794038 0.135264
vn -0.592628 -0.794038 0.135264
vn -0.592628 -0.794038 0.135264
vn -0.934403 -0.285318 0.213271
vn -0.934403 -0.285318 0.213271
vn -0.934403 -0.285318 0.213271
vn -0.934403 -0.285318 0.213271
vn 0.735975 -0.674758 0.055154
vn 0.735975 -0.674758 0.055154
vn 0.735975 -0.674758 0.055154
vn 0.735975 -0.674758 0.055154
vn -0.606169 -0.794038 -0.045426
vn -0.606169 -0.794038 -0.045426
vn -0.606169 -0.794038 -0.045426
vn -0.606169 -0.794038 -0.045426
vn -0.955445 -0.286355 -0.071601
vn -0.955445 -0.286355 -0.071601
vn -0.955445 -0.286355 -0.071601
vn -0.955445 -0.286355 -0.071601
vn 0.687021 -0.674758 0.269636
vn 0.687021 -0.674758 0.269636
vn 0.687021 -0.674758 0.269636
vn 0.687021 -0.674758 0.269636
vn -0.565849 -0.794037 -0.222079
vn -0.565849 -0.794037 -0.222079
vn -0.565849 -0.794037 -0.222079
vn -0.565849 -0.794037 -0.222079
vn -0.891915 -0.286272 -0.350051
vn -0.891915 -0.286272 -0.350051
vn -0.891915 -0.286272 -0.350051
vn -0.891915 -0.286272 -0.350051
vn 0.577022 -0.674758 0.460160
vn 0.577022 -0.674758 0.460160
vn 0.577022 -0.674758 0.460160
vn 0.577022 -0.674758 0.460160
vn -0.475251 -0.794038 -0.379000
vn -0.475251 -0.794038 -0.379000
vn -0.475251 -0.794038 -0.379000
vn -0.475251 -0.794038 -0.379000
vn -0.749390 -0.285075 -0.597618
vn -0.749390 -0.285075 -0.597618
vn -0.749390 -0.285075 -0.597618
vn -0.749390 -0.285075 -0.597618
vn 0.415752 -0.674758 0.609797
vn 0.415752 -0.674758 0.609797
vn 0.415752 -0.674758 0.609797
vn 0.415752 -0.674758 0.609797
vn -0.342425 -0.794038 -0.502245
vn -0.342425 -0.794038 -0.502245
vn -0.342425 -0.794038 -0.502245
vn -0.342425 -0.794038 -0.502245
vn -0.540313 -0.282869 -0.792494
vn -0.540313 -0.282869 -0.792494
vn -0.540313 -0.282869 -0.792494
vn -0.540313 -0.282869 -0.792494
vn 0.217541 -0.674758 0.705250
vn 0.217541 -0.674758 0.705250
vn 0.217541 -0.674758 0.705250
vn 0.217541 -0.674758 0.705250
vn -0.179173 -0.794038 -0.580863
vn -0.179173 -0.794038 -0.580863
vn -0.179173 -0.794038 -0.580863
vn -0.179173 -0.794038 -0.580863
vn -0.282979 -0.279842 -0.917394
vn -0.282979 -0.279842 -0.917394
vn -0.282979 -0.279842 -0.917394
vn -0.282979 -0.279842 -0.917394
vn 0.000000 -0.674758 0.738039
vn 0.000000 -0.674758 0.738039
vn 0.000000 -0.674758 0.738039
vn 0.000000 -0.674758 0.738039
vn 0.000000 -0.794038 -0.607869
vn 0.000000 -0.794038 -0.607869
vn 0.000000 -0.794038 -0.607869
vn 0.000000 -0.794038 -0.607869
vn 0.000000 -0.276260 -0.961083
vn 0.000000 -0.276260 -0.961083
vn 0.000000 -0.276260 -0.961083
vn 0.000000 -0.276260 -0.961083
vn -0.217541 -0.674758 0.705250
vn -0.217541 -0.674758 0.705250
vn -0.217541 -0.674758 0.705250
vn -0.217541 -0.674758 0.705250
vn 0.179172 -0.794038 -0.580863
vn 0.179172 -0.794038 -0.580863
vn 0.179172 -0.794038 -0.580863
vn 0.179172 -0.794038 -0.580863
vn 0.283606 -0.272436 -0.919427
vn 0.283606 -0.272436 -0.919427
vn 0.283606 -0.272436 -0.919427
vn 0.283606 -0.272436 -0.919427
vn -0.415752 -0.674758 0.609797
vn -0.415752 -0.674758 0.609797
vn -0.415752 -0.674758 0.609797
vn -0.415752 -0.674758 0.609797
vn 0.342425 -0.794038 -0.502245
vn 0.342425 -0.794038 -0.502245
vn 0.342425 -0.794038 -0.502245
vn 0.342425 -0.794038 -0.502245
vn 0.542602 -0.268710 -0.795851
vn 0.542602 -0.268710 -0.795851
vn 0.542602 -0.268710 -0.795851
vn 0.542602 -0.268710 -0.795851
vn -0.577022 -0.674758 0.460160
vn -0.577022 -0.674758 0.460160
vn -0.577022 -0.674758 0.460160
vn -0.577022 -0.674758 0.460160
vn 0.475251 -0.794038 -0.379000
vn 0.475251 -0.794038 -0.379000
vn 0.475251 -0.794038 -0.379000
vn 0.475251 -0.794038 -0.379000
vn 0.753790 -0.265417 -0.601128
vn 0.753790 -0.265417 -0.601128
vn 0.753790 -0.265417 -0.601128
vn 0.753790 -0.265417 -0.601128
vn -0.687021 -0.674758 0.269636
vn -0.687021 -0.674758 0.269636
vn -0.687021 -0.674758 0.269636
vn -0.687021 -0.674758 0.269636
vn 0.565849 -0.794038 -0.222079
vn 0.565849 -0.794038 -0.222079
vn 0.565849 -0.794038 -0.222079
vn 0.565849 -0.794038 -0.222079
vn 0.898141 -0.262852 -0.352494
vn 0.898141 -0.262852 -0.352494
vn 0.898141 -0.262852 -0.352494
vn 0.898141 -0.262852 -0.352494
vn -0.735975 -0.674758 0.055154
vn -0.735975 -0.674758 0.055154
vn -0.735975 -0.674758 0.055154
vn -0.735975 -0.674758 0.055154
vn 0.606169 -0.794038 -0.045426
vn 0.606169 -0.794038 -0.045426
vn 0.606169 -0.794038 -0.045426
vn 0.606169 -0.794038 -0.045426
vn 0.962572 -0.261250 -0.072135
vn 0.962572 -0.261250 -0.072135
vn 0.962572 -0.261250 -0.072135
vn 0.962572 -0.261250 -0.072135
vn -0.719535 -0.674758 -0.164229
vn -0.719535 -0.674758 -0.164229
vn -0.719535 -0.674758 -0.164229
vn -0.719535 -0.674758 -0.164229
vn 0.592628 -0.794038 0.135264
vn 0.592628 -0.794038 0.135264
vn 0.592628 -0.794038 0.135264
vn 0.592628 -0.794038 0.135264
vn 0.941200 -0.260757 0.214823
vn 0.941200 -0.260757 0.214823
vn 0.941200 -0.260757 0.214823
vn 0.941200 -0.260757 0.214823
vn -0.639161 -0.674758 -0.369019
vn -0.639161 -0.674758 -0.369019
vn -0.639161 -0.674758 -0.369019
vn -0.639161 -0.674758 -0.369019
vn 0.526430 -0.794037 0.303934
vn 0.526430 -0.794037 0.303934
vn 0.526430 -0.794037 0.303934
vn 0.526430 -0.794037 0.303934
vn 0.835910 -0.261419 0.482612
vn 0.835910 -0.261419 0.482612
vn 0.835910 -0.261419 0.482612
vn 0.835910 -0.261419 0.482612
vn -0.501994 -0.674758 -0.541020
vn -0.501994 -0.674758 -0.541020
vn -0.501994 -0.674758 -0.541020
vn -0.501994 -0.674758 -0.541020
vn 0.413456 -0.794038 0.445599
vn 0.413456 -0.794038 0.445599
vn 0.413456 -0.794038 0.445599
vn 0.413456 -0.794038 0.445599
vn 0.656196 -0.263175 0.707210
vn 0.656196 -0.263175 0.707210
vn 0.656196 -0.263175 0.707210
vn 0.656196 -0.263175 0.707210
vn -0.320223 -0.674758 -0.664950
vn -0.320223 -0.674758 -0.664950
vn -0.320223 -0.674758 -0.664950
vn -0.320223 -0.674758 -0.664950
vn 0.263744 -0.794038 0.547671
vn 0.263744 -0.794038 0.547671
vn 0.263744 -0.794038 0.547671
vn 0.263744 -0.794038 0.547671
vn 0.418269 -0.265862 0.868544
vn 0.418269 -0.265862 0.868544
vn 0.418269 -0.265862 0.868544
vn 0.418269 -0.265862 0.868544
vn -0.109999 -0.674758 -0.729796
vn -0.109999 -0.674758 -0.729796
vn -0.109999 -0.674758 -0.729796
vn -0.109999 -0.674758 -0.729796
vn 0.090598 -0.794038 0.601079
vn 0.090598 -0.794038 0.601079
vn 0.090598 -0.794038 0.601079
vn 0.090598 -0.794038 0.601079
vn 0.143539 -0.269240 0.952316
vn 0.143539 -0.269240 0.952316
vn 0.143539 -0.269240 0.952316
vn 0.143539 -0.269240 0.952316
vn 0.973586 -0.216351 0.072960
vn 0.973586 -0.216351 0.072960
vn 0.973586 -0.216351 0.072960
vn 0.973586 -0.216351 0.072960
vn 0.930874 0.000000 -0.365341
vn 0.930874 0.000000 -0.365341
vn 0.930874 0.000000 -0.365341
vn 0.930874 0.000000 -0.365341
vn 0.930874 0.000000 -0.365341
vn 0.930874 0.000000 -0.365341
vn -0.781832 0.000000 -0.623490
vn -0.781832 0.000000 -0.623490
vn -0.781832 0.000000 -0.623490
vn -0.781832 0.000000 -0.623490
vn -0.781832 0.000000 -0.623490
vn -0.781832 0.000000 -0.623490
vn 0.680173 0.000000 0.733052
vn 0.680173 0.000000 0.733052
vn 0.680173 0.000000 0.733052
vn 0.680173 0.000000 0.733052
vn 0.680173 0.000000 0.733052
vn 0.680173 0.000000 0.733052
vn -0.908827 -0.216351 0.356688
vn -0.908827 -0.216351 0.356688
vn -0.908827 -0.216351 0.356688
vn -0.908827 -0.216351 0.356688
vn -0.866025 0.000000 0.500000
vn -0.866025 0.000000 0.500000
vn -0.866025 0.000000 0.500000
vn -0.866025 0.000000 0.500000
vn -0.866025 0.000000 0.500000
vn -0.866025 0.000000 0.500000
vn -0.664064 -0.216352 -0.715690
vn -0.664064 -0.216352 -0.715690
vn -0.664064 -0.216352 -0.715690
vn -0.664064 -0.216352 -0.715690
vn -0.973586 -0.216351 0.072960
vn -0.973586 -0.216351 0.072960
vn -0.973586 -0.216351 0.072960
vn -0.973586 -0.216351 0.072960
vn 0.845514 -0.216352 -0.488158
vn 0.845514 -0.216352 -0.488158
vn 0.845514 -0.216352 -0.488158
vn 0.845514 -0.216352 -0.488158
vn -0.930874 0.000000 -0.365341
vn -0.930874 0.000000 -0.365341
vn -0.930874 0.000000 -0.365341
vn -0.930874 0.000000 -0.365341
vn -0.930874 0.000000 -0.365341
vn -0.930874 0.000000 -0.365341
vn -0.294755 0.000000 -0.955573
vn -0.294755 0.000000 -0.955573
vn -0.294755 0.000000 -0.955573
vn -0.294755 0.000000 -0.955573
vn -0.294755 0.000000 -0.955573
vn -0.294755 0.000000 -0.955573
vn 0.149042 0.000000 0.988831
vn 0.149042 0.000000 0.988831
vn 0.149042 0.000000 0.988831
vn 0.149042 0.000000 0.988831
vn 0.149042 0.000000 0.988831
vn 0.149042 0.000000 0.988831
vn 0.951837 -0.216352 -0.217251
vn 0.951837 -0.216352 -0.217251
vn 0.951837 -0.216352 -0.217251
vn 0.951837 -0.216352 -0.217251
vn 0.145512 -0.216352 -0.965411
vn 0.145512 -0.216352 -0.965411
vn 0.145512 -0.216352 -0.965411
vn 0.145512 -0.216352 -0.965411
vn -0.997204 0.000000 -0.074730
vn -0.997204 0.000000 -0.074730
vn -0.997204 0.000000 -0.074730
vn -0.997204 0.000000 -0.074730
vn -0.997204 0.000000 -0.074730
vn -0.997204 0.000000 -0.074730
vn -0.680173 0.000000 0.733052
vn -0.680173 0.000000 0.733052
vn -0.680173 0.000000 0.733052
vn -0.680173 0.000000 0.733052
vn -0.680173 0.000000 0.733052
vn -0.680173 0.000000 0.733052
vn -0.433884 0.000000 0.900969
vn -0.433884 0.000000 0.900969
vn -0.433884 0.000000 0.900969
vn -0.433884 0.000000 0.900969
vn -0.433884 0.000000 0.900969
vn -0.433884 0.000000 0.900969
vn 0.908827 -0.216351 0.356688
vn 0.908827 -0.216351 0.356688
vn 0.908827 -0.216351 0.356688
vn 0.908827 -0.216351 0.356688
vn -0.951837 -0.216351 -0.217250
vn -0.951837 -0.216351 -0.217250
vn -0.951837 -0.216351 -0.217250
vn -0.951837 -0.216351 -0.217250
vn -0.563320 0.000000 -0.826239
vn -0.563320 0.000000 -0.826239
vn -0.563320 0.000000 -0.826239
vn -0.563320 0.000000 -0.826239
vn -0.563320 0.000000 -0.826239
vn -0.563320 0.000000 -0.826239
vn -0.287774 -0.216352 0.932941
vn -0.287774 -0.216352 0.932941
vn -0.287774 -0.216352 0.932941
vn -0.287774 -0.216352 0.932941
vn 0.866026 0.000000 0.499999
vn 0.866026 0.000000 0.499999
vn 0.866026 0.000000 0.499999
vn 0.866026 0.000000 0.499999
vn 0.866026 0.000000 0.499999
vn 0.866026 0.000000 0.499999
vn -0.845514 -0.216352 -0.488157
vn -0.845514 -0.216352 -0.488157
vn -0.845514 -0.216352 -0.488157
vn -0.845514 -0.216352 -0.488157
vn 0.000000 -0.216352 0.976316
vn 0.000000 -0.216352 0.976316
vn 0.000000 -0.216352 0.976316
vn 0.000000 -0.216352 0.976316
vn 0.549978 -0.216351 0.806670
vn 0.549978 -0.216351 0.806670
vn 0.549978 -0.216351 0.806670
vn 0.549978 -0.216351 0.806670
vn 0.781831 0.000000 -0.623490
vn 0.781831 0.000000 -0.623490
vn 0.781831 0.000000 -0.623490
vn 0.781831 0.000000 -0.623490
vn 0.781831 0.000000 -0.623490
vn 0.781831 0.000000 -0.623490
vn -0.974928 0.000000 0.222521
vn -0.974928 0.000000 0.222521
vn -0.974928 0.000000 0.222521
vn -0.974928 0.000000 0.222521
vn -0.974928 0.000000 0.222521
vn -0.974928 0.000000 0.222521
vn 0.000000 0.000000 -1.000000
vn 0.000000 0.000000 -1.000000
vn 0.000000 0.000000 -1.000000
vn 0.000000 0.000000 -1.000000
vn 0.000000 0.000000 -1.000000
vn 0.000000 0.000000 -1.000000
vn 0.423608 -0.216352 -0.879630
vn 0.423608 -0.216352 -0.879630
vn 0.423608 -0.216352 -0.879630
vn 0.423608 -0.216352 -0.879630
vn -0.423608 -0.216352 -0.879630
vn -0.423608 -0.216352 -0.879630
vn -0.423608 -0.216352 -0.879630
vn -0.423608 -0.216352 -0.879630
vn 0.763314 -0.216351 0.608723
vn 0.763314 -0.216351 0.608723
vn 0.763314 -0.216351 0.608723
vn 0.763314 -0.216351 0.608723
vn 0.563320 0.000000 -0.826239
vn 0.563320 0.000000 -0.826239
vn 0.563320 0.000000 -0.826239
vn 0.563320 0.000000 -0.826239
vn 0.563320 0.000000 -0.826239
vn 0.563320 0.000000 -0.826239
vn -0.145512 -0.216352 -0.965411
vn -0.145512 -0.216352 -0.965411
vn -0.145512 -0.216352 -0.965411
vn -0.145512 -0.216352 -0.965411
vn 0.294755 0.000000 -0.955573
vn 0.294755 0.000000 -0.955573
vn 0.294755 0.000000 -0.955573
vn 0.294755 0.000000 -0.955573
vn 0.294755 0.000000 -0.955573
vn 0.294755 0.000000 -0.955573
vn -0.149042 0.000000 0.988831
vn -0.149042 0.000000 0.988831
vn -0.149042 0.000000 0.988831
vn -0.149042 0.000000 0.988831
vn -0.149042 0.000000 0.988831
vn -0.149042 0.000000 0.988831
vn 0.287774 -0.216351 0.932941
vn 0.287774 -0.216351 0.932941
vn 0.287774 -0.216351 0.932941
vn 0.287774 -0.216351 0.932941
vn 0.433884 0.000000 0.900969
vn 0.433884 0.000000 0.900969
vn 0.433884 0.000000 0.900969
vn 0.433884 0.000000 0.900969
vn 0.433884 0.000000 0.900969
vn 0.433884 0.000000 0.900969
vn 0.997204 0.000000 -0.074730
vn 0.997204 0.000000 -0.074730
vn 0.997204 0.000000 -0.074730
vn 0.997204 0.000000 -0.074730
vn 0.997204 0.000000 -0.074730
vn 0.997204 0.000000 -0.074730
vn 0.664063 -0.216352 -0.715690
vn 0.664063 -0.216352 -0.715690
vn 0.664063 -0.216352 -0.715690
vn 0.664063 -0.216352 -0.715690
vn -0.549978 -0.216351 0.806670
vn -0.549978 -0.216351 0.806670
vn -0.549978 -0.216351 0.806670
vn -0.549978 -0.216351 0.806670
vn 0.974928 0.000000 0.222521
vn 0.974928 0.000000 0.222521
vn 0.974928 0.000000 0.222521
vn 0.974928 0.000000 0.222521
vn 0.974928 0.000000 0.222521
vn 0.974928 0.000000 0.222521
vn -0.763314 -0.216351 0.608723
vn -0.763314 -0.216351 0.608723
vn -0.763314 -0.216351 0.608723
vn -0.763314 -0.216351 0.608723
vn 0.100397 0.739081 -0.666093
vn 0.100397 0.739081 -0.666093
vn 0.100397 0.739081 -0.666093
vn 0.100397 0.739081 -0.666093
vn -0.028367 0.981720 0.188206
vn -0.028367 0.981720 0.188206
vn -0.028367 0.981720 0.188206
vn -0.028367 0.981720 0.188206
vn -0.090598 0.794038 0.601079
vn -0.090598 0.794038 0.601079
vn -0.090598 0.794038 0.601079
vn -0.090598 0.794038 0.601079
vn -0.143381 0.273001 0.951269
vn -0.143381 0.273001 0.951269
vn -0.143381 0.273001 0.951269
vn -0.143381 0.273001 0.951269
vn 0.292271 0.739081 -0.606908
vn 0.292271 0.739081 -0.606908
vn 0.292271 0.739081 -0.606908
vn 0.292271 0.739081 -0.606908
vn -0.082582 0.981720 0.171483
vn -0.082582 0.981720 0.171483
vn -0.082582 0.981720 0.171483
vn -0.082582 0.981720 0.171483
vn -0.263744 0.794038 0.547671
vn -0.263744 0.794038 0.547671
vn -0.263744 0.794038 0.547671
vn -0.263744 0.794038 0.547671
vn -0.416930 0.276811 0.865763
vn -0.416930 0.276811 0.865763
vn -0.416930 0.276811 0.865763
vn -0.416930 0.276811 0.865763
vn 0.458176 0.739081 -0.493796
vn 0.458176 0.739081 -0.493796
vn 0.458176 0.739081 -0.493796
vn 0.458176 0.739081 -0.493796
vn -0.129458 0.981720 0.139523
vn -0.129458 0.981720 0.139523
vn -0.129458 0.981720 0.139523
vn -0.129458 0.981720 0.139523
vn -0.413456 0.794038 0.445599
vn -0.413456 0.794038 0.445599
vn -0.413456 0.794038 0.445599
vn -0.413456 0.794038 0.445599
vn -0.652901 0.280330 0.703659
vn -0.652901 0.280330 0.703659
vn -0.652901 0.280330 0.703659
vn -0.652901 0.280330 0.703659
vn 0.583369 0.739081 -0.336808
vn 0.583369 0.739081 -0.336808
vn 0.583369 0.739081 -0.336808
vn 0.583369 0.739081 -0.336808
vn -0.164832 0.981720 0.095166
vn -0.164832 0.981720 0.095166
vn -0.164832 0.981720 0.095166
vn -0.164832 0.981720 0.095166
vn -0.526430 0.794038 0.303934
vn -0.526430 0.794038 0.303934
vn -0.526430 0.794038 0.303934
vn -0.526430 0.794038 0.303934
vn -0.830558 0.283250 0.479523
vn -0.830558 0.283250 0.479523
vn -0.830558 0.283250 0.479523
vn -0.830558 0.283250 0.479523
vn 0.656728 0.739081 -0.149894
vn 0.656728 0.739081 -0.149894
vn 0.656728 0.739081 -0.149894
vn 0.656728 0.739081 -0.149894
vn -0.185560 0.981720 0.042353
vn -0.185560 0.981720 0.042353
vn -0.185560 0.981720 0.042353
vn -0.185560 0.981720 0.042353
vn -0.592628 0.794038 0.135264
vn -0.592628 0.794038 0.135264
vn -0.592628 0.794038 0.135264
vn -0.592628 0.794038 0.135264
vn -0.934403 0.285318 0.213271
vn -0.934403 0.285318 0.213271
vn -0.934403 0.285318 0.213271
vn -0.934403 0.285318 0.213271
vn 0.671733 0.739081 0.050339
vn 0.671733 0.739081 0.050339
vn 0.671733 0.739081 0.050339
vn 0.671733 0.739081 0.050339
vn -0.189800 0.981720 -0.014224
vn -0.189800 0.981720 -0.014224
vn -0.189800 0.981720 -0.014224
vn -0.189800 0.981720 -0.014224
vn -0.606169 0.794038 -0.045426
vn -0.606169 0.794038 -0.045426
vn -0.606169 0.794038 -0.045426
vn -0.606169 0.794038 -0.045426
vn -0.955445 0.286355 -0.071601
vn -0.955445 0.286355 -0.071601
vn -0.955445 0.286355 -0.071601
vn -0.955445 0.286355 -0.071601
vn 0.627052 0.739081 0.246100
vn 0.627052 0.739081 0.246100
vn 0.627052 0.739081 0.246100
vn 0.627052 0.739081 0.246100
vn -0.177175 0.981720 -0.069536
vn -0.177175 0.981720 -0.069536
vn -0.177175 0.981720 -0.069536
vn -0.177175 0.981720 -0.069536
vn -0.565849 0.794037 -0.222079
vn -0.565849 0.794037 -0.222079
vn -0.565849 0.794037 -0.222079
vn -0.565849 0.794037 -0.222079
vn -0.891915 0.286272 -0.350051
vn -0.891915 0.286272 -0.350051
vn -0.891915 0.286272 -0.350051
vn -0.891915 0.286272 -0.350051
vn 0.526655 0.739081 0.419993
vn 0.526655 0.739081 0.419993
vn 0.526655 0.739081 0.419993
vn 0.526655 0.739081 0.419993
vn -0.148807 0.981720 -0.118670
vn -0.148807 0.981720 -0.118670
vn -0.148807 0.981720 -0.118670
vn -0.148807 0.981720 -0.118670
vn -0.475251 0.794038 -0.379000
vn -0.475251 0.794038 -0.379000
vn -0.475251 0.794038 -0.379000
vn -0.475251 0.794038 -0.379000
vn -0.749390 0.285075 -0.597618
vn -0.749390 0.285075 -0.597618
vn -0.749390 0.285075 -0.597618
vn -0.749390 0.285075 -0.597618
vn 0.379462 0.739081 0.556568
vn 0.379462 0.739081 0.556568
vn 0.379462 0.739081 0.556568
vn 0.379462 0.739081 0.556568
vn -0.107218 0.981720 -0.157260
vn -0.107218 0.981720 -0.157260
vn -0.107218 0.981720 -0.157260
vn -0.107218 0.981720 -0.157260
vn -0.342425 0.794038 -0.502245
vn -0.342425 0.794038 -0.502245
vn -0.342425 0.794038 -0.502245
vn -0.342425 0.794038 -0.502245
vn -0.540313 0.282868 -0.792494
vn -0.540313 0.282868 -0.792494
vn -0.540313 0.282868 -0.792494
vn -0.540313 0.282868 -0.792494
vn 0.198552 0.739081 0.643689
vn 0.198552 0.739081 0.643689
vn 0.198552 0.739081 0.643689
vn 0.198552 0.739081 0.643689
vn -0.056101 0.981720 -0.181876
vn -0.056101 0.981720 -0.181876
vn -0.056101 0.981720 -0.181876
vn -0.056101 0.981720 -0.181876
vn -0.179173 0.794038 -0.580863
vn -0.179173 0.794038 -0.580863
vn -0.179173 0.794038 -0.580863
vn -0.179173 0.794038 -0.580863
vn -0.282979 0.279842 -0.917394
vn -0.282979 0.279842 -0.917394
vn -0.282979 0.279842 -0.917394
vn -0.282979 0.279842 -0.917394
vn 0.000000 0.739081 0.673616
vn 0.000000 0.739081 0.673616
vn 0.000000 0.739081 0.673616
vn 0.000000 0.739081 0.673616
vn 0.000000 0.981720 -0.190332
vn 0.000000 0.981720 -0.190332
vn 0.000000 0.981720 -0.190332
vn 0.000000 0.981720 -0.190332
vn 0.000000 0.794037 -0.607869
vn 0.000000 0.794037 -0.607869
vn 0.000000 0.794037 -0.607869
vn 0.000000 0.794037 -0.607869
vn 0.000000 0.276260 -0.961083
vn 0.000000 0.276260 -0.961083
vn 0.000000 0.276260 -0.961083
vn 0.000000 0.276260 -0.961083
vn -0.198552 0.739081 0.643690
vn -0.198552 0.739081 0.643690
vn -0.198552 0.739081 0.643690
vn -0.198552 0.739081 0.643690
vn 0.056101 0.981720 -0.181876
vn 0.056101 0.981720 -0.181876
vn 0.056101 0.981720 -0.181876
vn 0.056101 0.981720 -0.181876
vn 0.179172 0.794038 -0.580863
vn 0.179172 0.794038 -0.580863
vn 0.179172 0.794038 -0.580863
vn 0.179172 0.794038 -0.580863
vn 0.283606 0.272436 -0.919427
vn 0.283606 0.272436 -0.919427
vn 0.283606 0.272436 -0.919427
vn 0.283606 0.272436 -0.919427
vn -0.379461 0.739081 0.556568
vn -0.379461 0.739081 0.556568
vn -0.379461 0.739081 0.556568
vn -0.379461 0.739081 0.556568
vn 0.107218 0.981720 -0.157260
vn 0.107218 0.981720 -0.157260
vn 0.107218 0.981720 -0.157260
vn 0.107218 0.981720 -0.157260
vn 0.342425 0.794038 -0.502245
vn 0.342425 0.794038 -0.502245
vn 0.342425 0.794038 -0.502245
vn 0.342425 0.794038 -0.502245
vn 0.542602 0.268710 -0.795851
vn 0.542602 0.268710 -0.795851
vn 0.542602 0.268710 -0.795851
vn 0.542602 0.268710 -0.795851
vn -0.526655 0.739081 0.419993
vn -0.526655 0.739081 0.419993
vn -0.526655 0.739081 0.419993
vn -0.526655 0.739081 0.419993
vn 0.148807 0.981720 -0.118670
vn 0.148807 0.981720 -0.118670
vn 0.148807 0.981720 -0.118670
vn 0.148807 0.981720 -0.118670
vn 0.475251 0.794037 -0.379000
vn 0.475251 0.794037 -0.379000
vn 0.475251 0.794037 -0.379000
vn 0.475251 0.794037 -0.379000
vn 0.753790 0.265416 -0.601128
vn 0.753790 0.265416 -0.601128
vn 0.753790 0.265416 -0.601128
vn 0.753790 0.265416 -0.601128
vn -0.627052 0.739081 0.246100
vn -0.627052 0.739081 0.246100
vn -0.627052 0.739081 0.246100
vn -0.627052 0.739081 0.246100
vn 0.177175 0.981720 -0.069536
vn 0.177175 0.981720 -0.069536
vn 0.177175 0.981720 -0.069536
vn 0.177175 0.981720 -0.069536
vn 0.565849 0.794038 -0.222079
vn 0.565849 0.794038 -0.222079
vn 0.565849 0.794038 -0.222079
vn 0.565849 0.794038 -0.222079
vn 0.898141 0.262852 -0.352494
vn 0.898141 0.262852 -0.352494
vn 0.898141 0.262852 -0.352494
vn 0.898141 0.262852 -0.352494
vn -0.671733 0.739081 0.050339
vn -0.671733 0.739081 0.050339
vn -0.671733 0.739081 0.050339
vn -0.671733 0.739081 0.050339
vn 0.189800 0.981720 -0.014224
vn 0.189800 0.981720 -0.014224
vn 0.189800 0.981720 -0.014224
vn 0.189800 0.981720 -0.014224
vn 0.606169 0.794038 -0.045426
vn 0.606169 0.794038 -0.045426
vn 0.606169 0.794038 -0.045426
vn 0.606169 0.794038 -0.045426
vn 0.962572 0.261250 -0.072135
vn 0.962572 0.261250 -0.072135
vn 0.962572 0.261250 -0.072135
vn 0.962572 0.261250 -0.072135
vn -0.656728 0.739081 -0.149894
vn -0.656728 0.739081 -0.149894
vn -0.656728 0.739081 -0.149894
vn -0.656728 0.739081 -0.149894
vn 0.185560 0.981720 0.042353
vn 0.185560 0.981720 0.042353
vn 0.185560 0.981720 0.042353
vn 0.185560 0.981720 0.042353
vn 0.592628 0.794038 0.135264
vn 0.592628 0.794038 0.135264
vn 0.592628 0.794038 0.135264
vn 0.592628 0.794038 0.135264
vn 0.941200 0.260757 0.214823
vn 0.941200 0.260757 0.214823
vn 0.941200 0.260757 0.214823
vn 0.941200 0.260757 0.214823
vn -0.583369 0.739081 -0.336808
vn -0.583369 0.739081 -0.336808
vn -0.583369 0.739081 -0.336808
vn -0.583369 0.739081 -0.336808
vn 0.164832 0.981720 0.095166
vn 0.164832 0.981720 0.095166
vn 0.164832 0.981720 0.095166
vn 0.164832 0.981720 0.095166
vn 0.526430 0.794038 0.303934
vn 0.526430 0.794038 0.303934
vn 0.526430 0.794038 0.303934
vn 0.526430 0.794038 0.303934
vn 0.835910 0.261419 0.482612
vn 0.835910 0.261419 0.482612
vn 0.835910 0.261419 0.482612
vn 0.835910 0.261419 0.482612
vn -0.458176 0.739081 -0.493796
vn -0.458176 0.739081 -0.493796
vn -0.458176 0.739081 -0.493796
vn -0.458176 0.739081 -0.493796
vn 0.129459 0.981720 0.139523
vn 0.129459 0.981720 0.139523
vn 0.129459 0.981720 0.139523
vn 0.129459 0.981720 0.139523
vn 0.413456 0.794038 0.445599
vn 0.413456 0.794038 0.445599
vn 0.413456 0.794038 0.445599
vn 0.413456 0.794038 0.445599
vn 0.656196 0.263175 0.707210
vn 0.656196 0.263175 0.707210
vn 0.656196 0.263175 0.707210
vn 0.656196 0.263175 0.707210
vn -0.292271 0.739081 -0.606908
vn -0.292271 0.739081 -0.606908
vn -0.292271 0.739081 -0.606908
vn -0.292271 0.739081 -0.606908
vn 0.082582 0.981720 0.171483
vn 0.082582 0.981720 0.171483
vn 0.082582 0.981720 0.171483
vn 0.082582 0.981720 0.171483
vn 0.263744 0.794038 0.547671
vn 0.263744 0.794038 0.547671
vn 0.263744 0.794038 0.547671
vn 0.263744 0.794038 0.547671
vn 0.418269 0.265862 0.868544
vn 0.418269 0.265862 0.868544
vn 0.418269 0.265862 0.868544
vn 0.418269 0.265862 0.868544
vn -0.100397 0.739081 -0.666093
vn -0.100397 0.739081 -0.666093
vn -0.100397 0.739081 -0.666093
vn -0.100397 0.739081 -0.666093
vn 0.028367 0.981720 0.188206
vn 0.028367 0.981720 0.188206
vn 0.028367 0.981720 0.188206
vn 0.028367 0.981720 0.188206
vn 0.090598 0.794038 0.601079
vn 0.090598 0.794038 0.601079
vn 0.090598 0.794038 0.601079
vn 0.090598 0.794038 0.601079
vn 0.143539 0.269240 0.952316
vn 0.143539 0.269240 0.952316
vn 0.143539 0.269240 0.952316
vn 0.143539 0.269240 0.952316
vn 0.973586 0.216352 0.072960
vn 0.973586 0.216352 0.072960
vn 0.973586 0.216352 0.072960
vn 0.973586 0.216352 0.072960
vn -0.908827 0.216351 0.356688
vn -0.908827 0.216351 0.356688
vn -0.908827 0.216351 0.356688
vn -0.908827 0.216351 0.356688
vn -0.664064 0.216352 -0.715690
vn -0.664064 0.216352 -0.715690
vn -0.664064 0.216352 -0.715690
vn -0.664064 0.216352 -0.715690
vn -0.973586 0.216351 0.072960
vn -0.973586 0.216351 0.072960
vn -0.973586 0.216351 0.072960
vn -0.973586 0.216351 0.072960
vn 0.845514 0.216351 -0.488158
vn 0.845514 0.216351 -0.488158
vn 0.845514 0.216351 -0.488158
vn 0.845514 0.216351 -0.488158
vn 0.951837 0.216351 -0.217251
vn 0.951837 0.216351 -0.217251
vn 0.951837 0.216351 -0.217251
vn 0.951837 0.216351 -0.217251
vn 0.145512 0.216352 -0.965411
vn 0.145512 0.216352 -0.965411
vn 0.145512 0.216352 -0.965411
vn 0.145512 0.216352 -0.965411
vn 0.908827 0.216352 0.356688
vn 0.908827 0.216352 0.356688
vn 0.908827 0.216352 0.356688
vn 0.908827 0.216352 0.356688
vn -0.951837 0.216351 -0.217250
vn -0.951837 0.216351 -0.217250
vn -0.951837 0.216351 -0.217250
vn -0.951837 0.216351 -0.217250
vn -0.287774 0.216352 0.932941
vn -0.287774 0.216352 0.932941
vn -0.287774 0.216352 0.932941
vn -0.287774 0.216352 0.932941
vn -0.845514 0.216351 -0.488158
vn -0.845514 0.216351 -0.488158
vn -0.845514 0.216351 -0.488158
vn -0.845514 0.216351 -0.488158
vn 0.000000 0.216352 0.976315
vn 0.000000 0.216352 0.976315
vn 0.000000 0.216352 0.976315
vn 0.000000 0.216352 0.976315
vn 0.549978 0.216351 0.806670
vn 0.549978 0.216351 0.806670
vn 0.549978 0.216351 0.806670
vn 0.549978 0.216351 0.806670
vn 0.423608 0.216351 -0.879630
vn 0.423608 0.216351 -0.879630
vn 0.423608 0.216351 -0.879630
vn 0.423608 0.216351 -0.879630
vn -0.423608 0.216351 -0.879630
vn -0.423608 0.216351 -0.879630
vn -0.423608 0.216351 -0.879630
vn -0.423608 0.216351 -0.879630
vn 0.763314 0.216351 0.608723
vn 0.763314 0.216351 0.608723
vn 0.763314 0.216351 0.608723
vn 0.763314 0.216351 0.608723
vn -0.145512 0.216351 -0.965411
vn -0.145512 0.216351 -0.965411
vn -0.145512 0.216351 -0.965411
vn -0.145512 0.216351 -0.965411
vn 0.287774 0.216352 0.932941
vn 0.287774 0.216352 0.932941
vn 0.287774 0.216352 0.932941
vn 0.287774 0.216352 0.932941
vn 0.664063 0.216351 -0.715690
vn 0.664063 0.216351 -0.715690
vn 0.664063 0.216351 -0.715690
vn 0.664063 0.216351 -0.715690
vn -0.549978 0.216351 0.806670
vn -0.549978 0.216351 0.806670
vn -0.549978 0.216351 0.806670
vn -0.549978 0.216351 0.806670
vn -0.763314 0.216351 0.608723
vn -0.763314 0.216351 0.608723
vn -0.763314 0.216351 0.608723
vn -0.763314 0.216351 0.608723
vn -0.010267 -0.999886 -0.011065
vn -0.006549 -0.999886 -0.013599
vn -0.006549 -0.999886 -0.013599
vn -0.010267 -0.999886 -0.011065
vn 0.002250 -0.999886 -0.014925
vn -0.013072 -0.999886 -0.007547
vn 0.002250 -0.999886 -0.014925
vn -0.013072 -0.999886 -0.007547
vn 0.002250 -0.999886 -0.014925
vn -0.014716 -0.999886 -0.003359
vn 0.002250 -0.999886 -0.014925
vn -0.014716 -0.999886 -0.003359
vn 0.006549 -0.999886 -0.013599
vn -0.015052 -0.999886 0.001128
vn 0.006549 -0.999886 -0.013599
vn -0.015052 -0.999886 0.001128
vn 0.010267 -0.999886 -0.011065
vn -0.014051 -0.999886 0.005515
vn 0.010267 -0.999886 -0.011065
vn -0.014051 -0.999886 0.005515
vn 0.013072 -0.999886 -0.007547
vn -0.011801 -0.999886 0.009411
vn 0.013072 -0.999886 -0.007547
vn -0.011801 -0.999886 0.009411
vn 0.014716 -0.999886 -0.003359
vn -0.008503 -0.999886 0.012471
vn 0.014716 -0.999886 -0.003359
vn -0.008503 -0.999886 0.012471
vn 0.015052 -0.999886 0.001128
vn -0.004449 -0.999886 0.014424
vn 0.015052 -0.999886 0.001128
vn -0.004449 -0.999886 0.014424
vn 0.014051 -0.999886 0.005515
vn 0.000000 -0.999886 0.015094
vn 0.014051 -0.999886 0.005515
vn 0.000000 -0.999886 0.015094
vn 0.011801 -0.999886 0.009411
vn 0.004449 -0.999886 0.014424
vn 0.011801 -0.999886 0.009411
vn 0.004449 -0.999886 0.014424
vn 0.008503 -0.999886 0.012471
vn 0.008503 -0.999886 0.012471
g Donut3_LightYellow
usemtl LightYellow
f 1 2 3
f 1 3 4
f 5 6 7
f 5 7 8
f 9 10 11
f 9 11 12
f 13 14 15
f 13 15 16
f 17 18 19
f 17 19 20
f 21 22 23
f 21 23 24
f 25 26 27
f 25 27 28
f 29 30 31
f 29 31 32
f 33 34 35
f 33 35 36
f 37 38 39
f 37 39 40
f 41 42 43
f 41 43 44
f 45 46 47
f 45 47 48
f 49 50 51
f 49 51 52
f 53 54 55
f 53 55 56
f 57 58 59
f 57 59 60
f 61 62 63
f 61 63 64
f 65 66 67
f 65 67 68
f 69 70 71
f 69 71 72
f 73 74 75
f 73 75 76
f 77 78 79
f 77 79 80
f 81 82 83
f 81 83 84
f 85 86 87
f 85 87 88
f 89 90 91
f 89 91 92
f 93 94 95
f 93 95 96
f 97 98 99
f 97 99 100
f 101 102 103
f 101 103 104
f 105 106 107
f 105 107 108
f 109 110 111
f 109 111 112
f 113 114 115
f 113 115 116
f 117 118 119
f 117 119 120
f 121 122 123
f 121 123 124
f 125 126 127
f 125 127 128
f 129 130 131
f 129 131 132
f 133 134 135
f 133 135 136
f 137 138 139
f 137 139 140
f 141 142 143
f 141 143 144
f 145 146 147
f 145 147 148
f 149 150 151
f 149 151 152
f 153 154 155
f 153 155 156
f 157 158 159
f 157 159 160
f 161 162 163
f 161 163 164
f 165 166 167
f 165 167 168
f 169 170 171
f 169 171 172
f 173 174 175
f 173 175 176
f 177 178 179
f 177 179 180
f 181 182 183
f 181 183 184
f 185 186 187
f 185 187 188
f 189 190 191
f 189 191 192
f 193 194 195
f 193 195 196
f 197 198 199
f 197 199 200
f 201 202 203
f 201 203 204
f 205 206 207
f 205 207 208
f 209 210 211
f 209 211 212
f 213 214 215
f 213 215 216
f 217 218 219
f 217 219 220
f 221 222 223
f 221 223 224
f 225 226 227
f 225 227 228
f 229 230 231
f 229 231 232
f 233 234 235
f 233 235 236
f 237 238 239
f 237 239 240
f 241 242 243
f 241 243 244
f 245 246 247
f 245 247 248
f 249 250 251
f 249 251 252
f 253 254 255
f 253 255 256
f 257 258 259
f 257 260 258
f 261 258 260
f 261 262 258
f 263 264 265
f 263 266 264
f 267 264 266
f 267 268 264
f 269 270 271
f 269 272 270
f 273 270 272
f 273 274 270
f 275 276 277
f 275 277 278
f 279 280 281
f 279 282 280
f 283 280 282
f 283 284 280
f 285 286 287
f 285 287 288
f 289 290 291
f 289 291 292
f 293 294 295
f 293 295 296
f 297 298 299
f 297 300 298
f 301 298 300
f 301 302 298
f 303 304 305
f 303 306 304
f 307 304 306
f 307 308 304
f 309 310 311
f 309 312 310
f 313 310 312
f 313 314 310
f 315 316 317
f 315 317 318
f 319 320 321
f 319 321 322
f 323 324 325
f 323 326 324
f 327 324 326
f 327 328 324
f 329 330 331
f 329 332 330
f 333 330 332
f 333 334 330
f 335 336 337
f 335 338 336
f 339 336 338
f 339 340 336
f 341 342 343
f 341 343 344
f 345 346 347
f 345 347 348
f 349 350 351
f 349 352 350
f 353 350 352
f 353 354 350
f 355 356 357
f 355 357 358
f 359 360 361
f 359 362 360
f 363 360 362
f 363 364 360
f 365 366 367
f 365 367 368
f 369 370 371
f 369 371 372
f 373 374 375
f 373 375 376
f 377 378 379
f 377 380 378
f 381 378 380
f 381 382 378
f 383 384 385
f 383 386 384
f 387 384 386
f 387 388 384
f 389 390 391
f 389 392 390
f 393 390 392
f 393 394 390
f 395 396 397
f 395 397 398
f 399 400 401
f 399 401 402
f 403 404 405
f 403 405 406
f 407 408 409
f 407 410 408
f 411 408 410
f 411 412 408
f 413 414 415
f 413 415 416
f 417 418 419
f 417 420 418
f 421 418 420
f 421 422 418
f 423 424 425
f 423 426 424
f 427 424 426
f 427 428 424
f 429 430 431
f 429 431 432
f 433 434 435
f 433 436 434
f 437 434 436
f 437 438 434
f 439 440 441
f 439 442 440
f 443 440 442
f 443 444 440
f 445 446 447
f 445 447 448
f 449 450 451
f 449 451 452
f 453 454 455
f 453 456 454
f 457 454 456
f 457 458 454
f 459 460 461
f 459 461 462
f 463 464 465
f 463 465 466
f 467 468 469
f 467 469 470
f 471 472 473
f 471 473 474
f 475 476 477
f 475 477 478
f 479 480 481
f 479 481 482
f 483 484 485
f 483 485 486
f 487 488 489
f 487 489 490
f 491 492 493
f 491 493 494
f 495 496 497
f 495 497 498
f 499 500 501
f 499 501 502
f 503 504 505
f 503 505 506
f 507 508 509
f 507 509 510
f 511 512 513
f 511 513 514
f 515 516 517
f 515 517 518
f 519 520 521
f 519 521 522
f 523 524 525
f 523 525 526
f 527 528 529
f 527 529 530
f 531 532 533
f 531 533 534
f 535 536 537
f 535 537 538
f 539 540 541
f 539 541 542
f 543 544 545
f 543 545 546
f 547 548 549
f 547 549 550
f 551 552 553
f 551 553 554
f 555 556 557
f 555 557 558
f 559 560 561
f 559 561 562
f 563 564 565
f 563 565 566
f 567 568 569
f 567 569 570
f 571 572 573
f 571 573 574
f 575 576 577
f 575 577 578
f 579 580 581
f 579 581 582
f 583 584 585
f 583 585 586
f 587 588 589
f 587 589 590
f 591 592 593
f 591 593 594
f 595 596 597
f 595 597 598
f 599 600 601
f 599 601 602
f 603 604 605
f 603 605 606
f 607 608 609
f 607 609 610
f 611 612 613
f 611 613 614
f 615 616 617
f 615 617 618
f 619 620 621
f 619 621 622
f 623 624 625
f 623 625 626
f 627 628 629
f 627 629 630
f 631 632 633
f 631 633 634
f 635 636 637
f 635 637 638
f 639 640 641
f 639 641 642
f 643 644 645
f 643 645 646
f 647 648 649
f 647 649 650
f 651 652 653
f 651 653 654
f 655 656 657
f 655 657 658
f 659 660 661
f 659 661 662
f 663 664 665
f 663 665 666
f 667 668 669
f 667 669 670
f 671 672 673
f 671 673 674
f 675 676 677
f 675 677 678
f 679 680 681
f 679 681 682
f 683 684 685
f 683 685 686
f 687 688 689
f 687 689 690
f 691 692 693
f 691 693 694
f 695 696 697
f 695 697 698
f 699 700 701
f 699 701 702
f 703 704 705
f 703 705 706
f 707 708 709
f 707 709 710
f 711 712 713
f 711 713 714
f 715 716 717
f 715 717 718
f 719 720 721
f 719 721 722
f 723 724 725
f 723 725 726
f 727 728 729
f 727 729 730
f 731 732 733
f 731 733 734
f 735 736 737
f 735 737 738
f 739 740 741
f 739 741 742
f 743 744 745
f 743 745 746
f 747 748 749
f 747 749 750
f 751 752 753
f 751 753 754
f 755 756 757
f 755 757 758
f 759 760 761
f 759 761 762
f 763 764 765
f 763 765 766
f 767 768 769
f 767 769 770
f 771 772 773
f 771 773 774
f 775 776 777
f 775 777 778
f 779 780 781
f 779 781 782
f 783 784 785
f 783 785 786
f 787 788 789
f 787 789 790
f 791 792 793
f 791 793 794
f 795 796 797
f 795 797 798
f 799 800 801
f 799 801 802
f 803 804 805
f 803 805 806
f 807 808 809
f 807 809 810
f 811 812 813
f 811 813 814
f 815 816 817
f 815 817 818
f 819 820 821
f 819 821 822
f 823 824 825
f 823 825 826
f 827 828 829
f 827 829 830
f 831 832 833
f 831 833 834
f 835 836 837
f 835 837 838
f 839 840 841
f 839 841 842
f 843 844 845
f 843 845 846
f 847 848 849
f 847 849 850
f 851 852 853
f 851 853 854
f 855 856 857
f 855 857 858
f 859 860 861
f 859 861 862
f 863 864 865
f 863 865 866
f 867 868 869
f 867 869 870
f 871 872 873
f 871 873 874
f 875 876 877
f 875 877 878
f 879 880 881
f 879 881 882
f 883 884 885
f 883 886 884
f 885 884 887
f 888 886 883
f 885 887 889
f 888 890 886
f 889 887 891
f 892 890 888
f 889 891 893
f 892 894 890
f 893 891 895
f 896 894 892
f 893 895 897
f 896 898 894
f 897 895 899
f 900 898 896
f 897 899 901
f 900 902 898
f 901 899 903
f 904 902 900
f 901 903 905
f 904 906 902
f 905 903 907
f 908 906 904
f 905 907 909
f 908 910 906
f 909 907 911
f 912 910 908
f 909 911 913
f 912 914 910
f 913 911 915
f 916 914 912
f 913 915 917
f 916 918 914
f 917 915 919
f 920 918 916
f 917 919 921
f 920 922 918
f 921 919 923
f 924 922 920
f 921 923 924
f 924 923 922
