mtllib Materials.mtl
# Ultimate Food Pack - Egg_Whole
o Egg_Whole
v 0.131947 0.131457 0.131947
v 0.168932 0.131916 0.071771
v 0.165618 0.218536 0.070979
v 0.130129 0.218536 0.130129
v 0.165618 0.218536 -0.070979
v 0.177448 0.218536 0.000000
v 0.181627 0.132375 0.000000
v 0.168932 0.131916 -0.071771
v 0.181627 0.132375 0.000000
v 0.168932 0.131916 0.071771
v 0.159211 0.092524 0.066663
v 0.172153 0.093672 0.000000
v 0.168932 0.131916 0.071771
v 0.131947 0.131457 0.131947
v 0.123131 0.091376 0.123131
v 0.159211 0.092524 0.066663
v 0.155288 0.316029 0.000000
v 0.177448 0.218536 0.000000
v 0.165618 0.218536 -0.070979
v 0.144936 0.316029 -0.062115
v 0.155288 0.316029 0.000000
v 0.144936 0.316029 0.062115
v 0.165618 0.218536 0.070979
v 0.177448 0.218536 0.000000
v 0.130129 0.218536 -0.130129
v 0.165618 0.218536 -0.070979
v 0.168932 0.131916 -0.071771
v 0.131947 0.131457 -0.131947
v 0.071771 0.131916 -0.168932
v 0.000000 0.132375 -0.181627
v 0.000000 0.218536 -0.177448
v 0.070979 0.218536 -0.165618
v 0.144936 0.316029 -0.062115
v 0.165618 0.218536 -0.070979
v 0.130129 0.218536 -0.130129
v 0.113878 0.316029 -0.113878
v 0.062115 0.316029 -0.144936
v 0.113878 0.316029 -0.113878
v 0.130129 0.218536 -0.130129
v 0.070979 0.218536 -0.165618
v 0.181627 0.132375 0.000000
v 0.172153 0.093672 0.000000
v 0.159211 0.092524 -0.066663
v 0.168932 0.131916 -0.071771
v 0.168932 0.131916 -0.071771
v 0.159211 0.092524 -0.066663
v 0.123131 0.091376 -0.123131
v 0.131947 0.131457 -0.131947
v 0.130129 0.218536 -0.130129
v 0.131947 0.131457 -0.131947
v 0.071771 0.131916 -0.168932
v 0.070979 0.218536 -0.165618
v -0.070979 0.218536 -0.165618
v 0.000000 0.218536 -0.177448
v 0.000000 0.132375 -0.181627
v -0.071771 0.131916 -0.168932
v 0.000000 0.132375 -0.181627
v 0.071771 0.131916 -0.168932
v 0.066663 0.092524 -0.159211
v 0.000000 0.093672 -0.172153
v 0.071771 0.131916 -0.168932
v 0.131947 0.131457 -0.131947
v 0.123131 0.091376 -0.123131
v 0.066663 0.092524 -0.159211
v 0.000000 0.316029 -0.155288
v 0.000000 0.218536 -0.177448
v -0.070979 0.218536 -0.165618
v -0.062115 0.316029 -0.144936
v 0.000000 0.316029 -0.155288
v 0.062115 0.316029 -0.144936
v 0.070979 0.218536 -0.165618
v 0.000000 0.218536 -0.177448
v -0.130129 0.218536 -0.130129
v -0.070979 0.218536 -0.165618
v -0.071771 0.131916 -0.168932
v -0.131947 0.131457 -0.131947
v -0.168932 0.131916 -0.071771
v -0.181627 0.132375 0.000000
v -0.177448 0.218536 0.000000
v -0.165618 0.218536 -0.070979
v -0.062115 0.316029 -0.144936
v -0.070979 0.218536 -0.165618
v -0.130129 0.218536 -0.130129
v -0.113878 0.316029 -0.113878
v -0.144936 0.316029 -0.062115
v -0.113878 0.316029 -0.113878
v -0.130129 0.218536 -0.130129
v -0.165618 0.218536 -0.070979
v 0.000000 0.132375 -0.181627
v 0.000000 0.093672 -0.172153
v -0.066663 0.092524 -0.159211
v -0.071771 0.131916 -0.168932
v -0.071771 0.131916 -0.168932
v -0.066663 0.092524 -0.159211
v -0.123131 0.091376 -0.123131
v -0.131947 0.131457 -0.131947
v -0.130129 0.218536 -0.130129
v -0.131947 0.131457 -0.131947
v -0.168932 0.131916 -0.071771
v -0.165618 0.218536 -0.070979
v -0.165618 0.218536 0.070979
v -0.177448 0.218536 0.000000
v -0.181627 0.132375 0.000000
v -0.168932 0.131916 0.071771
v -0.181627 0.132375 0.000000
v -0.168932 0.131916 -0.071771
v -0.159211 0.092524 -0.066663
v -0.172153 0.093672 0.000000
v -0.168932 0.131916 -0.071771
v -0.131947 0.131457 -0.131947
v -0.123131 0.091376 -0.123131
v -0.159211 0.092524 -0.066663
v -0.155288 0.316029 0.000000
v -0.177448 0.218536 0.000000
v -0.165618 0.218536 0.070979
v -0.144936 0.316029 0.062115
v -0.155288 0.316029 0.000000
v -0.144936 0.316029 -0.062115
v -0.165618 0.218536 -0.070979
v -0.177448 0.218536 0.000000
v -0.130129 0.218536 0.130129
v -0.165618 0.218536 0.070979
v -0.168932 0.131916 0.071771
v -0.131947 0.131457 0.131947
v -0.071771 0.131916 0.168932
v 0.000000 0.132375 0.181627
v 0.000000 0.218536 0.177448
v -0.070979 0.218536 0.165618
v -0.144936 0.316029 0.062115
v -0.165618 0.218536 0.070979
v -0.130129 0.218536 0.130129
v -0.113878 0.316029 0.113878
v -0.062115 0.316029 0.144936
v -0.113878 0.316029 0.113878
v -0.130129 0.218536 0.130129
v -0.070979 0.218536 0.165618
v -0.181627 0.132375 0.000000
v -0.172153 0.093672 0.000000
v -0.159211 0.092524 0.066663
v -0.168932 0.131916 0.071771
v -0.168932 0.131916 0.071771
v -0.159211 0.092524 0.066663
v -0.123131 0.091376 0.123131
v -0.131947 0.131457 0.131947
v -0.130129 0.218536 0.130129
v -0.131947 0.131457 0.131947
v -0.071771 0.131916 0.168932
v -0.070979 0.218536 0.165618
v 0.070979 0.218536 0.165618
v 0.000000 0.218536 0.177448
v 0.000000 0.132375 0.181627
v 0.071771 0.131916 0.168932
v 0.000000 0.132375 0.181627
v -0.071771 0.131916 0.168932
v -0.066663 0.092524 0.159211
v 0.000000 0.093672 0.172153
v -0.071771 0.131916 0.168932
v -0.131947 0.131457 0.131947
v -0.123131 0.091376 0.123131
v -0.066663 0.092524 0.159211
v 0.000000 0.316029 0.155288
v 0.000000 0.218536 0.177448
v 0.070979 0.218536 0.165618
v 0.062115 0.316029 0.144936
v 0.000000 0.316029 0.155288
v -0.062115 0.316029 0.144936
v -0.070979 0.218536 0.165618
v 0.000000 0.218536 0.177448
v 0.131947 0.131457 0.131947
v 0.130129 0.218536 0.130129
v 0.070979 0.218536 0.165618
v 0.071771 0.131916 0.168932
v 0.144936 0.316029 0.062115
v 0.113878 0.316029 0.113878
v 0.130129 0.218536 0.130129
v 0.165618 0.218536 0.070979
v 0.062115 0.316029 0.144936
v 0.070979 0.218536 0.165618
v 0.130129 0.218536 0.130129
v 0.113878 0.316029 0.113878
v 0.144936 0.316029 0.062115
v 0.155288 0.316029 0.000000
v 0.116358 0.405651 0.000000
v 0.109166 0.403011 0.047390
v 0.000000 0.132375 0.181627
v 0.000000 0.093672 0.172153
v 0.066663 0.092524 0.159211
v 0.071771 0.131916 0.168932
v 0.071771 0.131916 0.168932
v 0.066663 0.092524 0.159211
v 0.123131 0.091376 0.123131
v 0.131947 0.131457 0.131947
v 0.000000 0.035676 -0.127333
v 0.000000 0.057956 -0.152399
v 0.056563 0.055659 -0.139308
v 0.036124 0.026201 -0.111770
v 0.000000 0.057956 -0.152399
v 0.000000 0.093672 -0.172153
v 0.066663 0.092524 -0.159211
v 0.056563 0.055659 -0.139308
v 0.036124 0.026201 -0.111770
v 0.056563 0.055659 -0.139308
v 0.105531 0.053362 -0.105531
v 0.078594 0.022411 -0.078594
v 0.056563 0.055659 -0.139308
v 0.066663 0.092524 -0.159211
v 0.123131 0.091376 -0.123131
v 0.105531 0.053362 -0.105531
v 0.000000 0.035676 -0.127333
v -0.036124 0.026201 -0.111770
v -0.056563 0.055659 -0.139308
v 0.000000 0.057956 -0.152399
v -0.036124 0.026201 -0.111770
v -0.078594 0.022411 -0.078594
v -0.105531 0.053362 -0.105531
v -0.056563 0.055659 -0.139308
v 0.000000 0.057956 -0.152399
v -0.056563 0.055659 -0.139308
v -0.066663 0.092524 -0.159211
v 0.000000 0.093672 -0.172153
v -0.056563 0.055659 -0.139308
v -0.105531 0.053362 -0.105531
v -0.123131 0.091376 -0.123131
v -0.066663 0.092524 -0.159211
v 0.000000 0.035676 -0.127333
v 0.036124 0.026201 -0.111770
v 0.000000 0.009032 -0.079141
v -0.036124 0.026201 -0.111770
v 0.036124 0.026201 -0.111770
v 0.078594 0.022411 -0.078594
v 0.041769 0.003520 -0.041769
v 0.000000 0.009032 -0.079141
v -0.036124 0.026201 -0.111770
v 0.000000 0.009032 -0.079141
v -0.041769 0.003520 -0.041769
v -0.078594 0.022411 -0.078594
v 0.000000 0.009032 -0.079141
v 0.041769 0.003520 -0.041769
v 0.000000 -0.002912 0.000000
v -0.041769 0.003520 -0.041769
v 0.144936 0.316029 -0.062115
v 0.113878 0.316029 -0.113878
v 0.086529 0.400371 -0.086530
v 0.109166 0.403011 -0.047390
v -0.062115 0.316029 0.144936
v 0.000000 0.316029 0.155288
v 0.000000 0.405651 0.116358
v -0.047390 0.403011 0.109166
v 0.113878 0.316029 0.113878
v 0.144936 0.316029 0.062115
v 0.109166 0.403011 0.047390
v 0.086529 0.400371 0.086529
v 0.155288 0.316029 0.000000
v 0.144936 0.316029 -0.062115
v 0.109166 0.403011 -0.047390
v 0.116358 0.405651 0.000000
v 0.116358 0.405651 0.000000
v 0.086012 0.437427 0.000000
v 0.081125 0.432618 0.041676
v 0.109166 0.403011 0.047390
v 0.109166 0.403011 0.047390
v 0.081125 0.432618 0.041676
v 0.070856 0.422875 0.070856
v 0.086529 0.400371 0.086529
v 0.116358 0.405651 0.000000
v 0.109166 0.403011 -0.047390
v 0.081125 0.432618 -0.041677
v 0.086012 0.437427 0.000000
v 0.109166 0.403011 -0.047390
v 0.086529 0.400371 -0.086530
v 0.070856 0.422875 -0.070856
v 0.081125 0.432618 -0.041677
v 0.000000 0.462980 0.000000
v 0.000000 0.456568 -0.045538
v -0.043067 0.450533 -0.043067
v -0.045538 0.456568 0.000000
v 0.000000 0.456568 -0.045538
v 0.000000 0.437427 -0.086012
v -0.041676 0.432618 -0.081125
v -0.043067 0.450533 -0.043067
v -0.045538 0.456568 0.000000
v -0.043067 0.450533 -0.043067
v -0.081125 0.432618 -0.041677
v -0.086012 0.437427 0.000000
v -0.043067 0.450533 -0.043067
v -0.041676 0.432618 -0.081125
v -0.070856 0.422875 -0.070856
v -0.081125 0.432618 -0.041677
v 0.000000 0.462980 0.000000
v 0.045538 0.456568 0.000000
v 0.043067 0.450533 -0.043067
v 0.000000 0.456568 -0.045538
v 0.045538 0.456568 0.000000
v 0.086012 0.437427 0.000000
v 0.081125 0.432618 -0.041677
v 0.043067 0.450533 -0.043067
v 0.000000 0.456568 -0.045538
v 0.043067 0.450533 -0.043067
v 0.041676 0.432618 -0.081125
v 0.000000 0.437427 -0.086012
v 0.043067 0.450533 -0.043067
v 0.081125 0.432618 -0.041677
v 0.070856 0.422875 -0.070856
v 0.041676 0.432618 -0.081125
v 0.000000 0.462980 0.000000
v 0.000000 0.456568 0.045538
v 0.043067 0.450533 0.043067
v 0.045538 0.456568 0.000000
v 0.000000 0.456568 0.045538
v 0.000000 0.437427 0.086012
v 0.041676 0.432618 0.081125
v 0.043067 0.450533 0.043067
v 0.045538 0.456568 0.000000
v 0.043067 0.450533 0.043067
v 0.081125 0.432618 0.041676
v 0.086012 0.437427 0.000000
v 0.043067 0.450533 0.043067
v 0.041676 0.432618 0.081125
v 0.070856 0.422875 0.070856
v 0.081125 0.432618 0.041676
v 0.000000 0.462980 0.000000
v -0.045538 0.456568 0.000000
v -0.043067 0.450533 0.043067
v 0.000000 0.456568 0.045538
v -0.045538 0.456568 0.000000
v -0.086012 0.437427 0.000000
v -0.081125 0.432618 0.041676
v -0.043067 0.450533 0.043067
v 0.000000 0.456568 0.045538
v -0.043067 0.450533 0.043067
v -0.041676 0.432618 0.081125
v 0.000000 0.437427 0.086012
v -0.043067 0.450533 0.043067
v -0.081125 0.432618 0.041676
v -0.070856 0.422875 0.070856
v -0.041676 0.432618 0.081125
v 0.062115 0.316029 0.144936
v 0.113878 0.316029 0.113878
v 0.086529 0.400371 0.086529
v 0.047390 0.403011 0.109166
v 0.062115 0.316029 -0.144936
v 0.000000 0.316029 -0.155288
v 0.000000 0.405651 -0.116358
v 0.047390 0.403011 -0.109166
v -0.113878 0.316029 0.113878
v -0.062115 0.316029 0.144936
v -0.047390 0.403011 0.109166
v -0.086529 0.400371 0.086529
v 0.000000 0.316029 0.155288
v 0.062115 0.316029 0.144936
v 0.047390 0.403011 0.109166
v 0.000000 0.405651 0.116358
v 0.000000 0.405651 0.116358
v 0.000000 0.437427 0.086012
v -0.041676 0.432618 0.081125
v -0.047390 0.403011 0.109166
v -0.047390 0.403011 0.109166
v -0.041676 0.432618 0.081125
v -0.070856 0.422875 0.070856
v -0.086529 0.400371 0.086529
v 0.000000 0.405651 0.116358
v 0.047390 0.403011 0.109166
v 0.041676 0.432618 0.081125
v 0.000000 0.437427 0.086012
v 0.047390 0.403011 0.109166
v 0.086529 0.400371 0.086529
v 0.070856 0.422875 0.070856
v 0.041676 0.432618 0.081125
v -0.062115 0.316029 -0.144936
v -0.113878 0.316029 -0.113878
v -0.086529 0.400371 -0.086530
v -0.047390 0.403011 -0.109166
v -0.144936 0.316029 -0.062115
v -0.155288 0.316029 0.000000
v -0.116358 0.405651 0.000000
v -0.109166 0.403011 -0.047390
v 0.086529 0.400371 -0.086530
v 0.113878 0.316029 -0.113878
v 0.062115 0.316029 -0.144936
v 0.047390 0.403011 -0.109166
v 0.000000 0.316029 -0.155288
v -0.062115 0.316029 -0.144936
v -0.047390 0.403011 -0.109166
v 0.000000 0.405651 -0.116358
v 0.000000 0.405651 -0.116358
v 0.000000 0.437427 -0.086012
v 0.041676 0.432618 -0.081125
v 0.047390 0.403011 -0.109166
v 0.047390 0.403011 -0.109166
v 0.041676 0.432618 -0.081125
v 0.070856 0.422875 -0.070856
v 0.086529 0.400371 -0.086530
v 0.000000 0.405651 -0.116358
v -0.047390 0.403011 -0.109166
v -0.041676 0.432618 -0.081125
v 0.000000 0.437427 -0.086012
v -0.047390 0.403011 -0.109166
v -0.086529 0.400371 -0.086530
v -0.070856 0.422875 -0.070856
v -0.041676 0.432618 -0.081125
v -0.144936 0.316029 0.062115
v -0.113878 0.316029 0.113878
v -0.086529 0.400371 0.086529
v -0.109166 0.403011 0.047390
v -0.086529 0.400371 -0.086530
v -0.113878 0.316029 -0.113878
v -0.144936 0.316029 -0.062115
v -0.109166 0.403011 -0.047390
v -0.155288 0.316029 0.000000
v -0.144936 0.316029 0.062115
v -0.109166 0.403011 0.047390
v -0.116358 0.405651 0.000000
v -0.116358 0.405651 0.000000
v -0.086012 0.437427 0.000000
v -0.081125 0.432618 -0.041677
v -0.109166 0.403011 -0.047390
v -0.109166 0.403011 -0.047390
v -0.081125 0.432618 -0.041677
v -0.070856 0.422875 -0.070856
v -0.086529 0.400371 -0.086530
v -0.116358 0.405651 0.000000
v -0.109166 0.403011 0.047390
v -0.081125 0.432618 0.041676
v -0.086012 0.437427 0.000000
v -0.109166 0.403011 0.047390
v -0.086529 0.400371 0.086529
v -0.070856 0.422875 0.070856
v -0.081125 0.432618 0.041676
v 0.127333 0.035676 0.000000
v 0.152399 0.057956 0.000000
v 0.139308 0.055659 0.056563
v 0.111770 0.026201 0.036124
v 0.152399 0.057956 0.000000
v 0.172153 0.093672 0.000000
v 0.159211 0.092524 0.066663
v 0.139308 0.055659 0.056563
v 0.111770 0.026201 0.036124
v 0.139308 0.055659 0.056563
v 0.105531 0.053362 0.105531
v 0.078594 0.022411 0.078594
v 0.139308 0.055659 0.056563
v 0.159211 0.092524 0.066663
v 0.123131 0.091376 0.123131
v 0.105531 0.053362 0.105531
v 0.127333 0.035676 0.000000
v 0.111770 0.026201 -0.036124
v 0.139308 0.055659 -0.056563
v 0.152399 0.057956 0.000000
v 0.111770 0.026201 -0.036124
v 0.078594 0.022411 -0.078594
v 0.105531 0.053362 -0.105531
v 0.139308 0.055659 -0.056563
v 0.152399 0.057956 0.000000
v 0.139308 0.055659 -0.056563
v 0.159211 0.092524 -0.066663
v 0.172153 0.093672 0.000000
v 0.139308 0.055659 -0.056563
v 0.105531 0.053362 -0.105531
v 0.123131 0.091376 -0.123131
v 0.159211 0.092524 -0.066663
v 0.127333 0.035676 0.000000
v 0.111770 0.026201 0.036124
v 0.079141 0.009032 0.000000
v 0.111770 0.026201 -0.036124
v 0.111770 0.026201 0.036124
v 0.078594 0.022411 0.078594
v 0.041769 0.003520 0.041769
v 0.079141 0.009032 0.000000
v 0.111770 0.026201 -0.036124
v 0.079141 0.009032 0.000000
v 0.041769 0.003520 -0.041769
v 0.078594 0.022411 -0.078594
v 0.079141 0.009032 0.000000
v 0.041769 0.003520 0.041769
v 0.000000 -0.002912 0.000000
v 0.041769 0.003520 -0.041769
v -0.127333 0.035676 0.000000
v -0.152399 0.057956 0.000000
v -0.139308 0.055659 -0.056563
v -0.111770 0.026201 -0.036124
v -0.152399 0.057956 0.000000
v -0.172153 0.093672 0.000000
v -0.159211 0.092524 -0.066663
v -0.139308 0.055659 -0.056563
v -0.111770 0.026201 -0.036124
v -0.139308 0.055659 -0.056563
v -0.105531 0.053362 -0.105531
v -0.078594 0.022411 -0.078594
v -0.139308 0.055659 -0.056563
v -0.159211 0.092524 -0.066663
v -0.123131 0.091376 -0.123131
v -0.105531 0.053362 -0.105531
v -0.127333 0.035676 0.000000
v -0.111770 0.026201 0.036124
v -0.139308 0.055659 0.056563
v -0.152399 0.057956 0.000000
v -0.111770 0.026201 0.036124
v -0.078594 0.022411 0.078594
v -0.105531 0.053362 0.105531
v -0.139308 0.055659 0.056563
v -0.152399 0.057956 0.000000
v -0.139308 0.055659 0.056563
v -0.159211 0.092524 0.066663
v -0.172153 0.093672 0.000000
v -0.139308 0.055659 0.056563
v -0.105531 0.053362 0.105531
v -0.123131 0.091376 0.123131
v -0.159211 0.092524 0.066663
v -0.127333 0.035676 0.000000
v -0.111770 0.026201 -0.036124
v -0.079141 0.009032 0.000000
v -0.111770 0.026201 0.036124
v -0.111770 0.026201 -0.036124
v -0.078594 0.022411 -0.078594
v -0.041769 0.003520 -0.041769
v -0.079141 0.009032 0.000000
v -0.111770 0.026201 0.036124
v -0.079141 0.009032 0.000000
v -0.041769 0.003520 0.041769
v -0.078594 0.022411 0.078594
v -0.079141 0.009032 0.000000
v -0.041769 0.003520 -0.041769
v 0.000000 -0.002912 0.000000
v -0.041769 0.003520 0.041769
v 0.000000 0.035676 0.127333
v 0.000000 0.057956 0.152399
v -0.056563 0.055659 0.139308
v -0.036124 0.026201 0.111770
v 0.000000 0.057956 0.152399
v 0.000000 0.093672 0.172153
v -0.066663 0.092524 0.159211
v -0.056563 0.055659 0.139308
v -0.036124 0.026201 0.111770
v -0.056563 0.055659 0.139308
v -0.105531 0.053362 0.105531
v -0.078594 0.022411 0.078594
v -0.056563 0.055659 0.139308
v -0.066663 0.092524 0.159211
v -0.123131 0.091376 0.123131
v -0.105531 0.053362 0.105531
v 0.000000 0.035676 0.127333
v 0.036124 0.026201 0.111770
v 0.056563 0.055659 0.139308
v 0.000000 0.057956 0.152399
v 0.036124 0.026201 0.111770
v 0.078594 0.022411 0.078594
v 0.105531 0.053362 0.105531
v 0.056563 0.055659 0.139308
v 0.000000 0.057956 0.152399
v 0.056563 0.055659 0.139308
v 0.066663 0.092524 0.159211
v 0.000000 0.093672 0.172153
v 0.056563 0.055659 0.139308
v 0.105531 0.053362 0.105531
v 0.123131 0.091376 0.123131
v 0.066663 0.092524 0.159211
v 0.000000 0.035676 0.127333
v -0.036124 0.026201 0.111770
v 0.000000 0.009032 0.079141
v 0.036124 0.026201 0.111770
v -0.036124 0.026201 0.111770
v -0.078594 0.022411 0.078594
v -0.041769 0.003520 0.041769
v 0.000000 0.009032 0.079141
v 0.036124 0.026201 0.111770
v 0.000000 0.009032 0.079141
v 0.041769 0.003520 0.041769
v 0.078594 0.022411 0.078594
v 0.000000 0.009032 0.079141
v -0.041769 0.003520 0.041769
v 0.000000 -0.002912 0.000000
v 0.041769 0.003520 0.041769
v 0.168932 0.131916 0.071771
v 0.181627 0.132375 0.000000
v 0.177448 0.218536 0.000000
v 0.165618 0.218536 0.070979
vn 0.854178 0.033041 0.518929
vn 0.854178 0.033041 0.518929
vn 0.854178 0.033041 0.518929
vn 0.854178 0.033041 0.518929
vn 0.984606 0.043475 -0.169295
vn 0.984606 0.043475 -0.169295
vn 0.984606 0.043475 -0.169295
vn 0.984606 0.043475 -0.169295
vn 0.953629 -0.245769 0.173751
vn 0.953629 -0.245769 0.173751
vn 0.953629 -0.245769 0.173751
vn 0.953629 -0.245769 0.173751
vn 0.815528 -0.279064 0.506989
vn 0.815528 -0.279064 0.506989
vn 0.815528 -0.279064 0.506989
vn 0.815528 -0.279064 0.506989
vn 0.962499 0.218774 -0.160417
vn 0.962499 0.218774 -0.160417
vn 0.962499 0.218774 -0.160417
vn 0.962499 0.218774 -0.160417
vn 0.962499 0.218774 0.160416
vn 0.962499 0.218774 0.160416
vn 0.962499 0.218774 0.160416
vn 0.962499 0.218774 0.160416
vn 0.854179 0.033041 -0.518929
vn 0.854179 0.033041 -0.518929
vn 0.854179 0.033041 -0.518929
vn 0.854179 0.033041 -0.518929
vn 0.169295 0.043475 -0.984606
vn 0.169295 0.043475 -0.984606
vn 0.169295 0.043475 -0.984606
vn 0.169295 0.043475 -0.984606
vn 0.835913 0.222934 -0.501548
vn 0.835913 0.222934 -0.501548
vn 0.835913 0.222934 -0.501548
vn 0.835913 0.222934 -0.501548
vn 0.501548 0.222934 -0.835913
vn 0.501548 0.222934 -0.835913
vn 0.501548 0.222934 -0.835913
vn 0.501548 0.222934 -0.835913
vn 0.953629 -0.245769 -0.173751
vn 0.953629 -0.245769 -0.173751
vn 0.953629 -0.245769 -0.173751
vn 0.953629 -0.245769 -0.173751
vn 0.815528 -0.279064 -0.506989
vn 0.815528 -0.279064 -0.506989
vn 0.815528 -0.279064 -0.506989
vn 0.815528 -0.279064 -0.506989
vn 0.518929 0.033041 -0.854179
vn 0.518929 0.033041 -0.854179
vn 0.518929 0.033041 -0.854179
vn 0.518929 0.033041 -0.854179
vn -0.169295 0.043475 -0.984606
vn -0.169295 0.043475 -0.984606
vn -0.169295 0.043475 -0.984606
vn -0.169295 0.043475 -0.984606
vn 0.173751 -0.245770 -0.953629
vn 0.173751 -0.245770 -0.953629
vn 0.173751 -0.245770 -0.953629
vn 0.173751 -0.245770 -0.953629
vn 0.506989 -0.279064 -0.815528
vn 0.506989 -0.279064 -0.815528
vn 0.506989 -0.279064 -0.815528
vn 0.506989 -0.279064 -0.815528
vn -0.160417 0.218774 -0.962499
vn -0.160417 0.218774 -0.962499
vn -0.160417 0.218774 -0.962499
vn -0.160417 0.218774 -0.962499
vn 0.160417 0.218774 -0.962499
vn 0.160417 0.218774 -0.962499
vn 0.160417 0.218774 -0.962499
vn 0.160417 0.218774 -0.962499
vn -0.518929 0.033041 -0.854179
vn -0.518929 0.033041 -0.854179
vn -0.518929 0.033041 -0.854179
vn -0.518929 0.033041 -0.854179
vn -0.984606 0.043475 -0.169295
vn -0.984606 0.043475 -0.169295
vn -0.984606 0.043475 -0.169295
vn -0.984606 0.043475 -0.169295
vn -0.501548 0.222934 -0.835913
vn -0.501548 0.222934 -0.835913
vn -0.501548 0.222934 -0.835913
vn -0.501548 0.222934 -0.835913
vn -0.835913 0.222934 -0.501548
vn -0.835913 0.222934 -0.501548
vn -0.835913 0.222934 -0.501548
vn -0.835913 0.222934 -0.501548
vn -0.173751 -0.245770 -0.953629
vn -0.173751 -0.245770 -0.953629
vn -0.173751 -0.245770 -0.953629
vn -0.173751 -0.245770 -0.953629
vn -0.506989 -0.279064 -0.815528
vn -0.506989 -0.279064 -0.815528
vn -0.506989 -0.279064 -0.815528
vn -0.506989 -0.279064 -0.815528
vn -0.854178 0.033041 -0.518929
vn -0.854178 0.033041 -0.518929
vn -0.854178 0.033041 -0.518929
vn -0.854178 0.033041 -0.518929
vn -0.984606 0.043475 0.169295
vn -0.984606 0.043475 0.169295
vn -0.984606 0.043475 0.169295
vn -0.984606 0.043475 0.169295
vn -0.953629 -0.245770 -0.173751
vn -0.953629 -0.245770 -0.173751
vn -0.953629 -0.245770 -0.173751
vn -0.953629 -0.245770 -0.173751
vn -0.815528 -0.279064 -0.506988
vn -0.815528 -0.279064 -0.506988
vn -0.815528 -0.279064 -0.506988
vn -0.815528 -0.279064 -0.506988
vn -0.962499 0.218774 0.160416
vn -0.962499 0.218774 0.160416
vn -0.962499 0.218774 0.160416
vn -0.962499 0.218774 0.160416
vn -0.962499 0.218774 -0.160417
vn -0.962499 0.218774 -0.160417
vn -0.962499 0.218774 -0.160417
vn -0.962499 0.218774 -0.160417
vn -0.854179 0.033041 0.518929
vn -0.854179 0.033041 0.518929
vn -0.854179 0.033041 0.518929
vn -0.854179 0.033041 0.518929
vn -0.169295 0.043475 0.984606
vn -0.169295 0.043475 0.984606
vn -0.169295 0.043475 0.984606
vn -0.169295 0.043475 0.984606
vn -0.835913 0.222935 0.501548
vn -0.835913 0.222935 0.501548
vn -0.835913 0.222935 0.501548
vn -0.835913 0.222935 0.501548
vn -0.501548 0.222935 0.835913
vn -0.501548 0.222935 0.835913
vn -0.501548 0.222935 0.835913
vn -0.501548 0.222935 0.835913
vn -0.953629 -0.245769 0.173751
vn -0.953629 -0.245769 0.173751
vn -0.953629 -0.245769 0.173751
vn -0.953629 -0.245769 0.173751
vn -0.815528 -0.279064 0.506989
vn -0.815528 -0.279064 0.506989
vn -0.815528 -0.279064 0.506989
vn -0.815528 -0.279064 0.506989
vn -0.518929 0.033041 0.854179
vn -0.518929 0.033041 0.854179
vn -0.518929 0.033041 0.854179
vn -0.518929 0.033041 0.854179
vn 0.169295 0.043475 0.984606
vn 0.169295 0.043475 0.984606
vn 0.169295 0.043475 0.984606
vn 0.169295 0.043475 0.984606
vn -0.173751 -0.245770 0.953629
vn -0.173751 -0.245770 0.953629
vn -0.173751 -0.245770 0.953629
vn -0.173751 -0.245770 0.953629
vn -0.506989 -0.279064 0.815528
vn -0.506989 -0.279064 0.815528
vn -0.506989 -0.279064 0.815528
vn -0.506989 -0.279064 0.815528
vn 0.160417 0.218774 0.962499
vn 0.160417 0.218774 0.962499
vn 0.160417 0.218774 0.962499
vn 0.160417 0.218774 0.962499
vn -0.160417 0.218774 0.962499
vn -0.160417 0.218774 0.962499
vn -0.160417 0.218774 0.962499
vn -0.160417 0.218774 0.962499
vn 0.518929 0.033041 0.854179
vn 0.518929 0.033041 0.854179
vn 0.518929 0.033041 0.854179
vn 0.518929 0.033041 0.854179
vn 0.835913 0.222935 0.501548
vn 0.835913 0.222935 0.501548
vn 0.835913 0.222935 0.501548
vn 0.835913 0.222935 0.501548
vn 0.501548 0.222935 0.835913
vn 0.501548 0.222935 0.835913
vn 0.501548 0.222935 0.835913
vn 0.501548 0.222935 0.835913
vn 0.905240 0.395785 0.154580
vn 0.905240 0.395785 0.154580
vn 0.905240 0.395785 0.154580
vn 0.905240 0.395785 0.154580
vn 0.173751 -0.245770 0.953629
vn 0.173751 -0.245770 0.953629
vn 0.173751 -0.245770 0.953629
vn 0.173751 -0.245770 0.953629
vn 0.506989 -0.279064 0.815528
vn 0.506989 -0.279064 0.815528
vn 0.506989 -0.279064 0.815528
vn 0.506989 -0.279064 0.815528
vn 0.115428 -0.730245 -0.673364
vn 0.115428 -0.730245 -0.673364
vn 0.115428 -0.730245 -0.673364
vn 0.115428 -0.730245 -0.673364
vn 0.166977 -0.490532 -0.855276
vn 0.166977 -0.490532 -0.855276
vn 0.166977 -0.490532 -0.855276
vn 0.166977 -0.490532 -0.855276
vn 0.347696 -0.763478 -0.544251
vn 0.347696 -0.763478 -0.544251
vn 0.347696 -0.763478 -0.544251
vn 0.347696 -0.763478 -0.544251
vn 0.457113 -0.527691 -0.715954
vn 0.457113 -0.527691 -0.715954
vn 0.457113 -0.527691 -0.715954
vn 0.457113 -0.527691 -0.715954
vn -0.115428 -0.730245 -0.673364
vn -0.115428 -0.730245 -0.673364
vn -0.115428 -0.730245 -0.673364
vn -0.115428 -0.730245 -0.673364
vn -0.347696 -0.763478 -0.544251
vn -0.347696 -0.763478 -0.544251
vn -0.347696 -0.763478 -0.544251
vn -0.347696 -0.763478 -0.544251
vn -0.166977 -0.490532 -0.855276
vn -0.166977 -0.490532 -0.855276
vn -0.166977 -0.490532 -0.855276
vn -0.166977 -0.490532 -0.855276
vn -0.457113 -0.527691 -0.715954
vn -0.457113 -0.527691 -0.715954
vn -0.457113 -0.527691 -0.715954
vn -0.457113 -0.527691 -0.715954
vn 0.000000 -0.875153 -0.483846
vn 0.000000 -0.875153 -0.483846
vn 0.000000 -0.875153 -0.483846
vn 0.000000 -0.875153 -0.483846
vn 0.161361 -0.934952 -0.315955
vn 0.161361 -0.934952 -0.315955
vn 0.161361 -0.934952 -0.315955
vn 0.161361 -0.934952 -0.315955
vn -0.161361 -0.934952 -0.315955
vn -0.161361 -0.934952 -0.315955
vn -0.161361 -0.934952 -0.315955
vn -0.161361 -0.934952 -0.315955
vn 0.000000 -0.988803 -0.149227
vn 0.000000 -0.988803 -0.149227
vn 0.000000 -0.988803 -0.149227
vn 0.000000 -0.988803 -0.149227
vn 0.782222 0.404536 -0.473793
vn 0.782222 0.404536 -0.473793
vn 0.782222 0.404536 -0.473793
vn 0.782222 0.404536 -0.473793
vn -0.154580 0.395785 0.905240
vn -0.154580 0.395785 0.905240
vn -0.154580 0.395785 0.905240
vn -0.154580 0.395785 0.905240
vn 0.782222 0.404536 0.473793
vn 0.782222 0.404536 0.473793
vn 0.782222 0.404536 0.473793
vn 0.782222 0.404536 0.473793
vn 0.905240 0.395785 -0.154580
vn 0.905240 0.395785 -0.154580
vn 0.905240 0.395785 -0.154580
vn 0.905240 0.395785 -0.154580
vn 0.708771 0.688491 0.153706
vn 0.708771 0.688491 0.153706
vn 0.708771 0.688491 0.153706
vn 0.708771 0.688491 0.153706
vn 0.606021 0.678668 0.414907
vn 0.606021 0.678668 0.414907
vn 0.606021 0.678668 0.414907
vn 0.606021 0.678668 0.414907
vn 0.708770 0.688491 -0.153706
vn 0.708770 0.688491 -0.153706
vn 0.708770 0.688491 -0.153706
vn 0.708770 0.688491 -0.153706
vn 0.606021 0.678668 -0.414907
vn 0.606021 0.678668 -0.414907
vn 0.606021 0.678668 -0.414907
vn 0.606021 0.678668 -0.414907
vn -0.141575 0.979752 -0.141575
vn -0.141575 0.979752 -0.141575
vn -0.141575 0.979752 -0.141575
vn -0.141575 0.979752 -0.141575
vn -0.151077 0.892960 -0.424026
vn -0.151077 0.892960 -0.424026
vn -0.151077 0.892960 -0.424026
vn -0.151077 0.892960 -0.424026
vn -0.424026 0.892960 -0.151077
vn -0.424026 0.892960 -0.151077
vn -0.424026 0.892960 -0.151077
vn -0.424026 0.892960 -0.151077
vn -0.406968 0.817774 -0.406968
vn -0.406968 0.817774 -0.406968
vn -0.406968 0.817774 -0.406968
vn -0.406968 0.817774 -0.406968
vn 0.141575 0.979752 -0.141575
vn 0.141575 0.979752 -0.141575
vn 0.141575 0.979752 -0.141575
vn 0.141575 0.979752 -0.141575
vn 0.424025 0.892960 -0.151077
vn 0.424025 0.892960 -0.151077
vn 0.424025 0.892960 -0.151077
vn 0.424025 0.892960 -0.151077
vn 0.151076 0.892960 -0.424026
vn 0.151076 0.892960 -0.424026
vn 0.151076 0.892960 -0.424026
vn 0.151076 0.892960 -0.424026
vn 0.406967 0.817774 -0.406968
vn 0.406967 0.817774 -0.406968
vn 0.406967 0.817774 -0.406968
vn 0.406967 0.817774 -0.406968
vn 0.141575 0.979752 0.141575
vn 0.141575 0.979752 0.141575
vn 0.141575 0.979752 0.141575
vn 0.141575 0.979752 0.141575
vn 0.151077 0.892960 0.424026
vn 0.151077 0.892960 0.424026
vn 0.151077 0.892960 0.424026
vn 0.151077 0.892960 0.424026
vn 0.424025 0.892961 0.151077
vn 0.424025 0.892961 0.151077
vn 0.424025 0.892961 0.151077
vn 0.424025 0.892961 0.151077
vn 0.406967 0.817774 0.406968
vn 0.406967 0.817774 0.406968
vn 0.406967 0.817774 0.406968
vn 0.406967 0.817774 0.406968
vn -0.141575 0.979752 0.141575
vn -0.141575 0.979752 0.141575
vn -0.141575 0.979752 0.141575
vn -0.141575 0.979752 0.141575
vn -0.424026 0.892960 0.151077
vn -0.424026 0.892960 0.151077
vn -0.424026 0.892960 0.151077
vn -0.424026 0.892960 0.151077
vn -0.151076 0.892960 0.424026
vn -0.151076 0.892960 0.424026
vn -0.151076 0.892960 0.424026
vn -0.151076 0.892960 0.424026
vn -0.406967 0.817774 0.406968
vn -0.406967 0.817774 0.406968
vn -0.406967 0.817774 0.406968
vn -0.406967 0.817774 0.406968
vn 0.473793 0.404536 0.782222
vn 0.473793 0.404536 0.782222
vn 0.473793 0.404536 0.782222
vn 0.473793 0.404536 0.782222
vn 0.154580 0.395785 -0.905240
vn 0.154580 0.395785 -0.905240
vn 0.154580 0.395785 -0.905240
vn 0.154580 0.395785 -0.905240
vn -0.473793 0.404536 0.782222
vn -0.473793 0.404536 0.782222
vn -0.473793 0.404536 0.782222
vn -0.473793 0.404536 0.782222
vn 0.154580 0.395785 0.905240
vn 0.154580 0.395785 0.905240
vn 0.154580 0.395785 0.905240
vn 0.154580 0.395785 0.905240
vn -0.153706 0.688492 0.708769
vn -0.153706 0.688492 0.708769
vn -0.153706 0.688492 0.708769
vn -0.153706 0.688492 0.708769
vn -0.414908 0.678669 0.606020
vn -0.414908 0.678669 0.606020
vn -0.414908 0.678669 0.606020
vn -0.414908 0.678669 0.606020
vn 0.153706 0.688492 0.708769
vn 0.153706 0.688492 0.708769
vn 0.153706 0.688492 0.708769
vn 0.153706 0.688492 0.708769
vn 0.414908 0.678669 0.606020
vn 0.414908 0.678669 0.606020
vn 0.414908 0.678669 0.606020
vn 0.414908 0.678669 0.606020
vn -0.473793 0.404536 -0.782222
vn -0.473793 0.404536 -0.782222
vn -0.473793 0.404536 -0.782222
vn -0.473793 0.404536 -0.782222
vn -0.905240 0.395785 -0.154580
vn -0.905240 0.395785 -0.154580
vn -0.905240 0.395785 -0.154580
vn -0.905240 0.395785 -0.154580
vn 0.473793 0.404536 -0.782222
vn 0.473793 0.404536 -0.782222
vn 0.473793 0.404536 -0.782222
vn 0.473793 0.404536 -0.782222
vn -0.154580 0.395785 -0.905240
vn -0.154580 0.395785 -0.905240
vn -0.154580 0.395785 -0.905240
vn -0.154580 0.395785 -0.905240
vn 0.153706 0.688491 -0.708770
vn 0.153706 0.688491 -0.708770
vn 0.153706 0.688491 -0.708770
vn 0.153706 0.688491 -0.708770
vn 0.414908 0.678669 -0.606020
vn 0.414908 0.678669 -0.606020
vn 0.414908 0.678669 -0.606020
vn 0.414908 0.678669 -0.606020
vn -0.153706 0.688491 -0.708770
vn -0.153706 0.688491 -0.708770
vn -0.153706 0.688491 -0.708770
vn -0.153706 0.688491 -0.708770
vn -0.414908 0.678669 -0.606020
vn -0.414908 0.678669 -0.606020
vn -0.414908 0.678669 -0.606020
vn -0.414908 0.678669 -0.606020
vn -0.782222 0.404536 0.473793
vn -0.782222 0.404536 0.473793
vn -0.782222 0.404536 0.473793
vn -0.782222 0.404536 0.473793
vn -0.782222 0.404536 -0.473793
vn -0.782222 0.404536 -0.473793
vn -0.782222 0.404536 -0.473793
vn -0.782222 0.404536 -0.473793
vn -0.905240 0.395785 0.154580
vn -0.905240 0.395785 0.154580
vn -0.905240 0.395785 0.154580
vn -0.905240 0.395785 0.154580
vn -0.708770 0.688491 -0.153706
vn -0.708770 0.688491 -0.153706
vn -0.708770 0.688491 -0.153706
vn -0.708770 0.688491 -0.153706
vn -0.606022 0.678668 -0.414907
vn -0.606022 0.678668 -0.414907
vn -0.606022 0.678668 -0.414907
vn -0.606022 0.678668 -0.414907
vn -0.708770 0.688491 0.153706
vn -0.708770 0.688491 0.153706
vn -0.708770 0.688491 0.153706
vn -0.708770 0.688491 0.153706
vn -0.606021 0.678668 0.414907
vn -0.606021 0.678668 0.414907
vn -0.606021 0.678668 0.414907
vn -0.606021 0.678668 0.414907
vn 0.673364 -0.730245 0.115428
vn 0.673364 -0.730245 0.115428
vn 0.673364 -0.730245 0.115428
vn 0.673364 -0.730245 0.115428
vn 0.855276 -0.490532 0.166977
vn 0.855276 -0.490532 0.166977
vn 0.855276 -0.490532 0.166977
vn 0.855276 -0.490532 0.166977
vn 0.544251 -0.763478 0.347696
vn 0.544251 -0.763478 0.347696
vn 0.544251 -0.763478 0.347696
vn 0.544251 -0.763478 0.347696
vn 0.715954 -0.527691 0.457113
vn 0.715954 -0.527691 0.457113
vn 0.715954 -0.527691 0.457113
vn 0.715954 -0.527691 0.457113
vn 0.673364 -0.730245 -0.115428
vn 0.673364 -0.730245 -0.115428
vn 0.673364 -0.730245 -0.115428
vn 0.673364 -0.730245 -0.115428
vn 0.544251 -0.763478 -0.347696
vn 0.544251 -0.763478 -0.347696
vn 0.544251 -0.763478 -0.347696
vn 0.544251 -0.763478 -0.347696
vn 0.855276 -0.490532 -0.166977
vn 0.855276 -0.490532 -0.166977
vn 0.855276 -0.490532 -0.166977
vn 0.855276 -0.490532 -0.166977
vn 0.715954 -0.527691 -0.457113
vn 0.715954 -0.527691 -0.457113
vn 0.715954 -0.527691 -0.457113
vn 0.715954 -0.527691 -0.457113
vn 0.483846 -0.875153 0.000000
vn 0.483846 -0.875153 0.000000
vn 0.483846 -0.875153 0.000000
vn 0.483846 -0.875153 0.000000
vn 0.315955 -0.934952 0.161361
vn 0.315955 -0.934952 0.161361
vn 0.315955 -0.934952 0.161361
vn 0.315955 -0.934952 0.161361
vn 0.315955 -0.934952 -0.161361
vn 0.315955 -0.934952 -0.161361
vn 0.315955 -0.934952 -0.161361
vn 0.315955 -0.934952 -0.161361
vn 0.149227 -0.988803 0.000000
vn 0.149227 -0.988803 0.000000
vn 0.149227 -0.988803 0.000000
vn 0.149227 -0.988803 0.000000
vn -0.673364 -0.730245 -0.115428
vn -0.673364 -0.730245 -0.115428
vn -0.673364 -0.730245 -0.115428
vn -0.673364 -0.730245 -0.115428
vn -0.855276 -0.490532 -0.166977
vn -0.855276 -0.490532 -0.166977
vn -0.855276 -0.490532 -0.166977
vn -0.855276 -0.490532 -0.166977
vn -0.544251 -0.763478 -0.347696
vn -0.544251 -0.763478 -0.347696
vn -0.544251 -0.763478 -0.347696
vn -0.544251 -0.763478 -0.347696
vn -0.715954 -0.527691 -0.457113
vn -0.715954 -0.527691 -0.457113
vn -0.715954 -0.527691 -0.457113
vn -0.715954 -0.527691 -0.457113
vn -0.673364 -0.730245 0.115428
vn -0.673364 -0.730245 0.115428
vn -0.673364 -0.730245 0.115428
vn -0.673364 -0.730245 0.115428
vn -0.544251 -0.763478 0.347696
vn -0.544251 -0.763478 0.347696
vn -0.544251 -0.763478 0.347696
vn -0.544251 -0.763478 0.347696
vn -0.855276 -0.490532 0.166977
vn -0.855276 -0.490532 0.166977
vn -0.855276 -0.490532 0.166977
vn -0.855276 -0.490532 0.166977
vn -0.715954 -0.527691 0.457113
vn -0.715954 -0.527691 0.457113
vn -0.715954 -0.527691 0.457113
vn -0.715954 -0.527691 0.457113
vn -0.483846 -0.875153 0.000000
vn -0.483846 -0.875153 0.000000
vn -0.483846 -0.875153 0.000000
vn -0.483846 -0.875153 0.000000
vn -0.315955 -0.934952 -0.161361
vn -0.315955 -0.934952 -0.161361
vn -0.315955 -0.934952 -0.161361
vn -0.315955 -0.934952 -0.161361
vn -0.315955 -0.934952 0.161361
vn -0.315955 -0.934952 0.161361
vn -0.315955 -0.934952 0.161361
vn -0.315955 -0.934952 0.161361
vn -0.149227 -0.988803 0.000000
vn -0.149227 -0.988803 0.000000
vn -0.149227 -0.988803 0.000000
vn -0.149227 -0.988803 0.000000
vn -0.115428 -0.730245 0.673364
vn -0.115428 -0.730245 0.673364
vn -0.115428 -0.730245 0.673364
vn -0.115428 -0.730245 0.673364
vn -0.166977 -0.490532 0.855276
vn -0.166977 -0.490532 0.855276
vn -0.166977 -0.490532 0.855276
vn -0.166977 -0.490532 0.855276
vn -0.347696 -0.763478 0.544251
vn -0.347696 -0.763478 0.544251
vn -0.347696 -0.763478 0.544251
vn -0.347696 -0.763478 0.544251
vn -0.457113 -0.527691 0.715954
vn -0.457113 -0.527691 0.715954
vn -0.457113 -0.527691 0.715954
vn -0.457113 -0.527691 0.715954
vn 0.115428 -0.730245 0.673364
vn 0.115428 -0.730245 0.673364
vn 0.115428 -0.730245 0.673364
vn 0.115428 -0.730245 0.673364
vn 0.347696 -0.763478 0.544251
vn 0.347696 -0.763478 0.544251
vn 0.347696 -0.763478 0.544251
vn 0.347696 -0.763478 0.544251
vn 0.166977 -0.490532 0.855276
vn 0.166977 -0.490532 0.855276
vn 0.166977 -0.490532 0.855276
vn 0.166977 -0.490532 0.855276
vn 0.457113 -0.527691 0.715954
vn 0.457113 -0.527691 0.715954
vn 0.457113 -0.527691 0.715954
vn 0.457113 -0.527691 0.715954
vn 0.000000 -0.875153 0.483846
vn 0.000000 -0.875153 0.483846
vn 0.000000 -0.875153 0.483846
vn 0.000000 -0.875153 0.483846
vn -0.161361 -0.934952 0.315955
vn -0.161361 -0.934952 0.315955
vn -0.161361 -0.934952 0.315955
vn -0.161361 -0.934952 0.315955
vn 0.161361 -0.934952 0.315955
vn 0.161361 -0.934952 0.315955
vn 0.161361 -0.934952 0.315955
vn 0.161361 -0.934952 0.315955
vn 0.000000 -0.988803 0.149227
vn 0.000000 -0.988803 0.149227
vn 0.000000 -0.988803 0.149227
vn 0.000000 -0.988803 0.149227
vn 0.984606 0.043475 0.169295
vn 0.984606 0.043475 0.169295
vn 0.984606 0.043475 0.169295
vn 0.984606 0.043475 0.169295
vt 0.376849 0.058349
vt 0.370205 0.057912
vt 0.370354 0.067542
vt 0.376870 0.068001
vt 0.356161 0.068409
vt 0.363057 0.067702
vt 0.362815 0.058107
vt 0.355854 0.058789
vt 0.362815 0.058107
vt 0.370205 0.057912
vt 0.369782 0.053825
vt 0.362899 0.054060
vt 0.370205 0.057912
vt 0.376849 0.058349
vt 0.376038 0.054188
vt 0.369782 0.053825
vt 0.363626 0.078962
vt 0.363057 0.067702
vt 0.356161 0.068409
vt 0.357591 0.079581
vt 0.363626 0.078962
vt 0.370012 0.078822
vt 0.370354 0.067542
vt 0.363057 0.067702
vt 0.350849 0.069591
vt 0.356161 0.068409
vt 0.355854 0.058789
vt 0.350464 0.059961
vt 0.357026 0.129480
vt 0.364417 0.129664
vt 0.364599 0.120000
vt 0.357304 0.119780
vt 0.357591 0.079581
vt 0.356161 0.068409
vt 0.350849 0.069591
vt 0.352943 0.080615
vt 0.358110 0.108549
vt 0.352391 0.107972
vt 0.350769 0.119121
vt 0.357304 0.119780
vt 0.362815 0.058107
vt 0.362899 0.054060
vt 0.356452 0.054640
vt 0.355854 0.058789
vt 0.355854 0.058789
vt 0.356452 0.054640
vt 0.351416 0.055693
vt 0.350464 0.059961
vt 0.350769 0.119121
vt 0.350361 0.128843
vt 0.357026 0.129480
vt 0.357304 0.119780
vt 0.371474 0.119780
vt 0.364599 0.120000
vt 0.364417 0.129664
vt 0.371354 0.129480
vt 0.364417 0.129664
vt 0.357026 0.129480
vt 0.357247 0.133682
vt 0.364134 0.133794
vt 0.357026 0.129480
vt 0.350361 0.128843
vt 0.350965 0.133139
vt 0.357247 0.133682
vt 0.364494 0.108741
vt 0.364599 0.120000
vt 0.371474 0.119780
vt 0.370510 0.108549
vt 0.364494 0.108741
vt 0.358110 0.108549
vt 0.357304 0.119780
vt 0.364599 0.120000
vt 0.376747 0.119121
vt 0.371474 0.119780
vt 0.371354 0.129480
vt 0.376702 0.128843
vt 0.330814 0.081585
vt 0.338014 0.079722
vt 0.336063 0.070373
vt 0.328943 0.072153
vt 0.370510 0.108549
vt 0.371474 0.119780
vt 0.376747 0.119121
vt 0.375125 0.107972
vt 0.327399 0.061641
vt 0.321915 0.063313
vt 0.322677 0.074063
vt 0.328943 0.072153
vt 0.364417 0.129664
vt 0.364134 0.133794
vt 0.370555 0.133682
vt 0.371354 0.129480
vt 0.320018 0.085368
vt 0.321773 0.089542
vt 0.326071 0.087924
vt 0.324438 0.083593
vt 0.322677 0.074063
vt 0.324438 0.083593
vt 0.330814 0.081585
vt 0.328943 0.072153
vt 0.342878 0.068985
vt 0.336063 0.070373
vt 0.338014 0.079722
vt 0.344905 0.078382
vt 0.338014 0.079722
vt 0.330814 0.081585
vt 0.332057 0.085939
vt 0.338743 0.084110
vt 0.330814 0.081585
vt 0.324438 0.083593
vt 0.326071 0.087924
vt 0.332057 0.085939
vt 0.333631 0.060083
vt 0.336063 0.070373
vt 0.342878 0.068985
vt 0.339594 0.058869
vt 0.333631 0.060083
vt 0.327399 0.061641
vt 0.328943 0.072153
vt 0.336063 0.070373
vt 0.348224 0.068255
vt 0.342878 0.068985
vt 0.344905 0.078382
vt 0.350343 0.077704
vt 0.340107 0.101467
vt 0.332720 0.101136
vt 0.332385 0.110795
vt 0.339675 0.111159
vt 0.339594 0.058869
vt 0.342878 0.068985
vt 0.348224 0.068255
vt 0.344273 0.058230
vt 0.338690 0.122373
vt 0.344398 0.123063
vt 0.346199 0.111947
vt 0.339675 0.111159
vt 0.338014 0.079722
vt 0.338743 0.084110
vt 0.345144 0.082963
vt 0.344905 0.078382
vt 0.344905 0.078382
vt 0.345144 0.082963
vt 0.350245 0.082428
vt 0.350343 0.077704
vt 0.346199 0.111947
vt 0.346761 0.102234
vt 0.340107 0.101467
vt 0.339675 0.111159
vt 0.325508 0.110879
vt 0.332385 0.110795
vt 0.332720 0.101136
vt 0.325782 0.101184
vt 0.332720 0.101136
vt 0.340107 0.101467
vt 0.339954 0.097261
vt 0.333069 0.097012
vt 0.340107 0.101467
vt 0.346761 0.102234
vt 0.346226 0.097927
vt 0.339954 0.097261
vt 0.332310 0.122055
vt 0.332385 0.110795
vt 0.325508 0.110879
vt 0.326291 0.122128
vt 0.332310 0.122055
vt 0.338690 0.122373
vt 0.339675 0.111159
vt 0.332385 0.110795
vt 0.320425 0.101714
vt 0.320225 0.111435
vt 0.325508 0.110879
vt 0.325782 0.101184
vt 0.370012 0.078822
vt 0.375714 0.079224
vt 0.376870 0.068001
vt 0.370354 0.067542
vt 0.326291 0.122128
vt 0.325508 0.110879
vt 0.320225 0.111435
vt 0.321668 0.122614
vt 0.370012 0.078822
vt 0.363626 0.078962
vt 0.364464 0.089742
vt 0.369319 0.089328
vt 0.332720 0.101136
vt 0.333069 0.097012
vt 0.326648 0.096998
vt 0.325782 0.101184
vt 0.325782 0.101184
vt 0.326648 0.096998
vt 0.321649 0.097442
vt 0.320425 0.101714
vt 0.389137 0.124691
vt 0.388647 0.127467
vt 0.394525 0.127444
vt 0.393026 0.123878
vt 0.363677 0.137402
vt 0.364134 0.133794
vt 0.357247 0.133682
vt 0.357792 0.137414
vt 0.393026 0.123878
vt 0.394525 0.127444
vt 0.400119 0.124956
vt 0.397959 0.121291
vt 0.357792 0.137414
vt 0.357247 0.133682
vt 0.350965 0.133139
vt 0.352296 0.137042
vt 0.389137 0.124691
vt 0.385886 0.122066
vt 0.383345 0.124607
vt 0.388647 0.127467
vt 0.385886 0.122066
vt 0.382424 0.117348
vt 0.379260 0.119662
vt 0.383345 0.124607
vt 0.363677 0.137402
vt 0.369083 0.137414
vt 0.370555 0.133682
vt 0.364134 0.133794
vt 0.324407 0.093296
vt 0.328408 0.091979
vt 0.326071 0.087924
vt 0.321773 0.089542
vt 0.389137 0.124691
vt 0.393026 0.123878
vt 0.390134 0.119368
vt 0.385886 0.122066
vt 0.393026 0.123878
vt 0.397959 0.121291
vt 0.395087 0.116301
vt 0.390134 0.119368
vt 0.385886 0.122066
vt 0.390134 0.119368
vt 0.386831 0.114206
vt 0.382424 0.117348
vt 0.390134 0.119368
vt 0.395087 0.116301
vt 0.391879 0.110655
vt 0.386831 0.114206
vt 0.357591 0.079581
vt 0.352943 0.080615
vt 0.356308 0.090379
vt 0.359842 0.089907
vt 0.338690 0.122373
vt 0.332310 0.122055
vt 0.332565 0.132756
vt 0.337433 0.132692
vt 0.375714 0.079224
vt 0.370012 0.078822
vt 0.369319 0.089328
vt 0.373611 0.089321
vt 0.363626 0.078962
vt 0.357591 0.079581
vt 0.359842 0.089907
vt 0.364464 0.089742
vt 0.364464 0.089742
vt 0.365042 0.093947
vt 0.369282 0.093275
vt 0.369319 0.089328
vt 0.369319 0.089328
vt 0.369282 0.093275
vt 0.372354 0.092260
vt 0.373611 0.089321
vt 0.364464 0.089742
vt 0.359842 0.089907
vt 0.360948 0.093784
vt 0.365042 0.093947
vt 0.359842 0.089907
vt 0.356308 0.090379
vt 0.358186 0.093126
vt 0.360948 0.093784
vt 0.385366 0.059302
vt 0.384793 0.064450
vt 0.389194 0.064873
vt 0.389983 0.060039
vt 0.384793 0.064450
vt 0.384456 0.069277
vt 0.388738 0.069392
vt 0.389194 0.064873
vt 0.389983 0.060039
vt 0.389194 0.064873
vt 0.393234 0.065570
vt 0.394259 0.060945
vt 0.389194 0.064873
vt 0.388738 0.069392
vt 0.391917 0.068836
vt 0.393234 0.065570
vt 0.385366 0.059302
vt 0.380914 0.058805
vt 0.380617 0.063707
vt 0.384793 0.064450
vt 0.380914 0.058805
vt 0.377130 0.058615
vt 0.377078 0.063373
vt 0.380617 0.063707
vt 0.384793 0.064450
vt 0.380617 0.063707
vt 0.380438 0.068263
vt 0.384456 0.069277
vt 0.380617 0.063707
vt 0.377078 0.063373
vt 0.377806 0.066916
vt 0.380438 0.068263
vt 0.385366 0.059302
vt 0.386104 0.054394
vt 0.381857 0.054197
vt 0.380914 0.058805
vt 0.386104 0.054394
vt 0.386933 0.050283
vt 0.382774 0.050349
vt 0.381857 0.054197
vt 0.380914 0.058805
vt 0.381857 0.054197
vt 0.378278 0.054170
vt 0.377130 0.058615
vt 0.381857 0.054197
vt 0.382774 0.050349
vt 0.379846 0.051270
vt 0.378278 0.054170
vt 0.385366 0.059302
vt 0.389983 0.060039
vt 0.390434 0.055363
vt 0.386104 0.054394
vt 0.389983 0.060039
vt 0.394259 0.060945
vt 0.394434 0.056367
vt 0.390434 0.055363
vt 0.386104 0.054394
vt 0.390434 0.055363
vt 0.391074 0.051478
vt 0.386933 0.050283
vt 0.390434 0.055363
vt 0.394434 0.056367
vt 0.393957 0.053189
vt 0.391074 0.051478
vt 0.326291 0.122128
vt 0.321668 0.122614
vt 0.324476 0.132563
vt 0.327974 0.132506
vt 0.358110 0.108549
vt 0.364494 0.108741
vt 0.364068 0.098046
vt 0.359202 0.098206
vt 0.344398 0.123063
vt 0.338690 0.122373
vt 0.337433 0.132692
vt 0.341747 0.132904
vt 0.332310 0.122055
vt 0.326291 0.122128
vt 0.327974 0.132506
vt 0.332565 0.132756
vt 0.332565 0.132756
vt 0.332945 0.136864
vt 0.337212 0.136504
vt 0.337433 0.132692
vt 0.337433 0.132692
vt 0.337212 0.136504
vt 0.340350 0.135672
vt 0.341747 0.132904
vt 0.332565 0.132756
vt 0.327974 0.132506
vt 0.328894 0.136339
vt 0.332945 0.136864
vt 0.376544 0.090380
vt 0.373611 0.089321
vt 0.372354 0.092260
vt 0.373896 0.093947
vt 0.370510 0.108549
vt 0.375125 0.107972
vt 0.372159 0.098079
vt 0.368663 0.098206
vt 0.327399 0.061641
vt 0.333631 0.060083
vt 0.331154 0.050933
vt 0.326467 0.052399
vt 0.354885 0.098079
vt 0.352391 0.107972
vt 0.358110 0.108549
vt 0.359202 0.098206
vt 0.364494 0.108741
vt 0.370510 0.108549
vt 0.368663 0.098206
vt 0.364068 0.098046
vt 0.364068 0.098046
vt 0.363623 0.093947
vt 0.359362 0.094391
vt 0.359202 0.098206
vt 0.359202 0.098206
vt 0.359362 0.094391
vt 0.356238 0.095284
vt 0.354885 0.098079
vt 0.384428 0.073222
vt 0.389285 0.073120
vt 0.388738 0.069392
vt 0.384456 0.069277
vt 0.389285 0.073120
vt 0.393542 0.071200
vt 0.391917 0.068836
vt 0.388738 0.069392
vt 0.339594 0.058869
vt 0.344273 0.058230
vt 0.341747 0.132904
vt 0.344678 0.133983
vt 0.322389 0.053937
vt 0.321915 0.063313
vt 0.327399 0.061641
vt 0.326467 0.052399
vt 0.333631 0.060083
vt 0.339594 0.058869
vt 0.335771 0.050283
vt 0.331154 0.050933
vt 0.397690 0.061951
vt 0.394259 0.060945
vt 0.393234 0.065570
vt 0.396325 0.067136
vt 0.396325 0.067136
vt 0.393234 0.065570
vt 0.391917 0.068836
vt 0.393542 0.071200
vt 0.397690 0.061951
vt 0.397690 0.056671
vt 0.394434 0.056367
vt 0.394259 0.060945
vt 0.397690 0.056671
vt 0.396033 0.052092
vt 0.393957 0.053189
vt 0.394434 0.056367
vt 0.404595 0.113882
vt 0.407148 0.114530
vt 0.407123 0.107979
vt 0.403840 0.109510
vt 0.363164 0.050579
vt 0.362899 0.054060
vt 0.369782 0.053825
vt 0.369037 0.050283
vt 0.403840 0.109510
vt 0.407123 0.107979
vt 0.404882 0.101744
vt 0.401507 0.104004
vt 0.369037 0.050283
vt 0.369782 0.053825
vt 0.376038 0.054188
vt 0.374501 0.050513
vt 0.404595 0.113882
vt 0.402209 0.117456
vt 0.404570 0.120420
vt 0.407148 0.114530
vt 0.402209 0.117456
vt 0.397959 0.121291
vt 0.400119 0.124956
vt 0.404570 0.120420
vt 0.363164 0.050579
vt 0.357726 0.050975
vt 0.356452 0.054640
vt 0.362899 0.054060
vt 0.404570 0.120420
vt 0.400119 0.124956
vt 0.401590 0.127366
vt 0.406434 0.122062
vt 0.404595 0.113882
vt 0.403840 0.109510
vt 0.399741 0.112650
vt 0.402209 0.117456
vt 0.403840 0.109510
vt 0.401507 0.104004
vt 0.396972 0.107114
vt 0.399741 0.112650
vt 0.402209 0.117456
vt 0.399741 0.112650
vt 0.395087 0.116301
vt 0.397959 0.121291
vt 0.399741 0.112650
vt 0.396972 0.107114
vt 0.391879 0.110655
vt 0.395087 0.116301
vt 0.339439 0.091195
vt 0.339273 0.088343
vt 0.333602 0.090074
vt 0.335899 0.093296
vt 0.339273 0.088343
vt 0.338743 0.084110
vt 0.332057 0.085939
vt 0.333602 0.090074
vt 0.380117 0.111849
vt 0.377034 0.113431
vt 0.379260 0.119662
vt 0.382424 0.117348
vt 0.333602 0.090074
vt 0.332057 0.085939
vt 0.326071 0.087924
vt 0.328408 0.091979
vt 0.339439 0.091195
vt 0.342991 0.091684
vt 0.344706 0.087550
vt 0.339273 0.088343
vt 0.381748 0.103903
vt 0.385972 0.100061
vt 0.384023 0.096450
vt 0.379587 0.100990
vt 0.339273 0.088343
vt 0.344706 0.087550
vt 0.345144 0.082963
vt 0.338743 0.084110
vt 0.344706 0.087550
vt 0.349126 0.087269
vt 0.350245 0.082428
vt 0.345144 0.082963
vt 0.379426 0.107494
vt 0.380117 0.111849
vt 0.384099 0.108680
vt 0.381748 0.103903
vt 0.380117 0.111849
vt 0.382424 0.117348
vt 0.386831 0.114206
vt 0.384099 0.108680
vt 0.381748 0.103903
vt 0.384099 0.108680
vt 0.388716 0.105019
vt 0.385972 0.100061
vt 0.384099 0.108680
vt 0.386831 0.114206
vt 0.391879 0.110655
vt 0.388716 0.105019
vt 0.394884 0.096684
vt 0.395526 0.093947
vt 0.389633 0.093966
vt 0.390931 0.097482
vt 0.333584 0.093415
vt 0.333069 0.097012
vt 0.339954 0.097261
vt 0.339469 0.093519
vt 0.390931 0.097482
vt 0.389633 0.093966
vt 0.384023 0.096450
vt 0.385972 0.100061
vt 0.339469 0.093519
vt 0.339954 0.097261
vt 0.346226 0.097927
vt 0.344957 0.093999
vt 0.394884 0.096684
vt 0.398071 0.099294
vt 0.400813 0.096803
vt 0.395526 0.093947
vt 0.398071 0.099294
vt 0.401507 0.104004
vt 0.404882 0.101744
vt 0.400813 0.096803
vt 0.333584 0.093415
vt 0.328179 0.093296
vt 0.326648 0.096998
vt 0.333069 0.097012
vt 0.400813 0.096803
vt 0.404882 0.101744
vt 0.407148 0.100283
vt 0.402385 0.094900
vt 0.394884 0.096684
vt 0.390931 0.097482
vt 0.393706 0.101961
vt 0.398071 0.099294
vt 0.390931 0.097482
vt 0.385972 0.100061
vt 0.388716 0.105019
vt 0.393706 0.101961
vt 0.398071 0.099294
vt 0.393706 0.101961
vt 0.396972 0.107114
vt 0.401507 0.104004
vt 0.393706 0.101961
vt 0.388716 0.105019
vt 0.391879 0.110655
vt 0.396972 0.107114
vt 0.370205 0.057912
vt 0.362815 0.058107
vt 0.363057 0.067702
vt 0.370354 0.067542
g Egg_Whole_LightYellow
usemtl LightYellow
f 1/1/1 2/2/2 3/3/3
f 1/1/1 3/3/3 4/4/4
f 5/5/5 6/6/6 7/7/7
f 5/5/5 7/7/7 8/8/8
f 9/9/9 10/10/10 11/11/11
f 9/9/9 11/11/11 12/12/12
f 13/13/13 14/14/14 15/15/15
f 13/13/13 15/15/15 16/16/16
f 17/17/17 18/18/18 19/19/19
f 17/17/17 19/19/19 20/20/20
f 21/21/21 22/22/22 23/23/23
f 21/21/21 23/23/23 24/24/24
f 25/25/25 26/26/26 27/27/27
f 25/25/25 27/27/27 28/28/28
f 29/29/29 30/30/30 31/31/31
f 29/29/29 31/31/31 32/32/32
f 33/33/33 34/34/34 35/35/35
f 33/33/33 35/35/35 36/36/36
f 37/37/37 38/38/38 39/39/39
f 37/37/37 39/39/39 40/40/40
f 41/41/41 42/42/42 43/43/43
f 41/41/41 43/43/43 44/44/44
f 45/45/45 46/46/46 47/47/47
f 45/45/45 47/47/47 48/48/48
f 49/49/49 50/50/50 51/51/51
f 49/49/49 51/51/51 52/52/52
f 53/53/53 54/54/54 55/55/55
f 53/53/53 55/55/55 56/56/56
f 57/57/57 58/58/58 59/59/59
f 57/57/57 59/59/59 60/60/60
f 61/61/61 62/62/62 63/63/63
f 61/61/61 63/63/63 64/64/64
f 65/65/65 66/66/66 67/67/67
f 65/65/65 67/67/67 68/68/68
f 69/69/69 70/70/70 71/71/71
f 69/69/69 71/71/71 72/72/72
f 73/73/73 74/74/74 75/75/75
f 73/73/73 75/75/75 76/76/76
f 77/77/77 78/78/78 79/79/79
f 77/77/77 79/79/79 80/80/80
f 81/81/81 82/82/82 83/83/83
f 81/81/81 83/83/83 84/84/84
f 85/85/85 86/86/86 87/87/87
f 85/85/85 87/87/87 88/88/88
f 89/89/89 90/90/90 91/91/91
f 89/89/89 91/91/91 92/92/92
f 93/93/93 94/94/94 95/95/95
f 93/93/93 95/95/95 96/96/96
f 97/97/97 98/98/98 99/99/99
f 97/97/97 99/99/99 100/100/100
f 101/101/101 102/102/102 103/103/103
f 101/101/101 103/103/103 104/104/104
f 105/105/105 106/106/106 107/107/107
f 105/105/105 107/107/107 108/108/108
f 109/109/109 110/110/110 111/111/111
f 109/109/109 111/111/111 112/112/112
f 113/113/113 114/114/114 115/115/115
f 113/113/113 115/115/115 116/116/116
f 117/117/117 118/118/118 119/119/119
f 117/117/117 119/119/119 120/120/120
f 121/121/121 122/122/122 123/123/123
f 121/121/121 123/123/123 124/124/124
f 125/125/125 126/126/126 127/127/127
f 125/125/125 127/127/127 128/128/128
f 129/129/129 130/130/130 131/131/131
f 129/129/129 131/131/131 132/132/132
f 133/133/133 134/134/134 135/135/135
f 133/133/133 135/135/135 136/136/136
f 137/137/137 138/138/138 139/139/139
f 137/137/137 139/139/139 140/140/140
f 141/141/141 142/142/142 143/143/143
f 141/141/141 143/143/143 144/144/144
f 145/145/145 146/146/146 147/147/147
f 145/145/145 147/147/147 148/148/148
f 149/149/149 150/150/150 151/151/151
f 149/149/149 151/151/151 152/152/152
f 153/153/153 154/154/154 155/155/155
f 153/153/153 155/155/155 156/156/156
f 157/157/157 158/158/158 159/159/159
f 157/157/157 159/159/159 160/160/160
f 161/161/161 162/162/162 163/163/163
f 161/161/161 163/163/163 164/164/164
f 165/165/165 166/166/166 167/167/167
f 165/165/165 167/167/167 168/168/168
f 169/169/169 170/170/170 171/171/171
f 169/169/169 171/171/171 172/172/172
f 173/173/173 174/174/174 175/175/175
f 173/173/173 175/175/175 176/176/176
f 177/177/177 178/178/178 179/179/179
f 177/177/177 179/179/179 180/180/180
f 181/181/181 182/182/182 183/183/183
f 181/181/181 183/183/183 184/184/184
f 185/185/185 186/186/186 187/187/187
f 185/185/185 187/187/187 188/188/188
f 189/189/189 190/190/190 191/191/191
f 189/189/189 191/191/191 192/192/192
f 193/193/193 194/194/194 195/195/195
f 193/193/193 195/195/195 196/196/196
f 197/197/197 198/198/198 199/199/199
f 197/197/197 199/199/199 200/200/200
f 201/201/201 202/202/202 203/203/203
f 201/201/201 203/203/203 204/204/204
f 205/205/205 206/206/206 207/207/207
f 205/205/205 207/207/207 208/208/208
f 209/209/209 210/210/210 211/211/211
f 209/209/209 211/211/211 212/212/212
f 213/213/213 214/214/214 215/215/215
f 213/213/213 215/215/215 216/216/216
f 217/217/217 218/218/218 219/219/219
f 217/217/217 219/219/219 220/220/220
f 221/221/221 222/222/222 223/223/223
f 221/221/221 223/223/223 224/224/224
f 225/225/225 226/226/226 227/227/227
f 225/225/225 227/227/227 228/228/228
f 229/229/229 230/230/230 231/231/231
f 229/229/229 231/231/231 232/232/232
f 233/233/233 234/234/234 235/235/235
f 233/233/233 235/235/235 236/236/236
f 237/237/237 238/238/238 239/239/239
f 237/237/237 239/239/239 240/240/240
f 241/241/241 242/242/242 243/243/243
f 241/241/241 243/243/243 244/244/244
f 245/245/245 246/246/246 247/247/247
f 245/245/245 247/247/247 248/248/248
f 249/249/249 250/250/250 251/251/251
f 249/249/249 251/251/251 252/252/252
f 253/253/253 254/254/254 255/255/255
f 253/253/253 255/255/255 256/256/256
f 257/257/257 258/258/258 259/259/259
f 257/257/257 259/259/259 260/260/260
f 261/261/261 262/262/262 263/263/263
f 261/261/261 263/263/263 264/264/264
f 265/265/265 266/266/266 267/267/267
f 265/265/265 267/267/267 268/268/268
f 269/269/269 270/270/270 271/271/271
f 269/269/269 271/271/271 272/272/272
f 273/273/273 274/274/274 275/275/275
f 273/273/273 275/275/275 276/276/276
f 277/277/277 278/278/278 279/279/279
f 277/277/277 279/279/279 280/280/280
f 281/281/281 282/282/282 283/283/283
f 281/281/281 283/283/283 284/284/284
f 285/285/285 286/286/286 287/287/287
f 285/285/285 287/287/287 288/288/288
f 289/289/289 290/290/290 291/291/291
f 289/289/289 291/291/291 292/292/292
f 293/293/293 294/294/294 295/295/295
f 293/293/293 295/295/295 296/296/296
f 297/297/297 298/298/298 299/299/299
f 297/297/297 299/299/299 300/300/300
f 301/301/301 302/302/302 303/303/303
f 301/301/301 303/303/303 304/304/304
f 305/305/305 306/306/306 307/307/307
f 305/305/305 307/307/307 308/308/308
f 309/309/309 310/310/310 311/311/311
f 309/309/309 311/311/311 312/312/312
f 313/313/313 314/314/314 315/315/315
f 313/313/313 315/315/315 316/316/316
f 317/317/317 318/318/318 319/319/319
f 317/317/317 319/319/319 320/320/320
f 321/321/321 322/322/322 323/323/323
f 321/321/321 323/323/323 324/324/324
f 325/325/325 326/326/326 327/327/327
f 325/325/325 327/327/327 328/328/328
f 329/329/329 330/330/330 331/331/331
f 329/329/329 331/331/331 332/332/332
f 333/333/333 334/334/334 335/335/335
f 333/333/333 335/335/335 336/336/336
f 337/337/337 338/338/338 339/339/339
f 337/337/337 339/339/339 340/340/340
f 341/341/341 342/342/342 343/343/343
f 341/341/341 343/343/343 344/344/344
f 345/345/345 346/346/346 347/347/347
f 345/345/345 347/347/347 348/348/348
f 349/349/349 350/350/350 351/351/351
f 349/349/349 351/351/351 352/352/352
f 353/353/353 354/354/354 355/355/355
f 353/353/353 355/355/355 356/356/356
f 357/357/357 358/358/358 359/359/359
f 357/357/357 359/359/359 360/360/360
f 361/361/361 362/362/362 363/363/363
f 361/361/361 363/363/363 364/364/364
f 365/365/365 366/366/366 367/367/367
f 365/365/365 367/367/367 368/368/368
f 369/369/369 370/370/370 371/371/371
f 369/369/369 371/371/371 372/372/372
f 373/373/373 374/374/374 375/375/375
f 373/373/373 375/375/375 376/376/376
f 377/377/377 378/378/378 379/379/379
f 377/377/377 379/379/379 380/380/380
f 381/381/381 382/382/382 383/383/383
f 381/381/381 383/383/383 384/384/384
f 385/385/385 386/386/386 387/387/387
f 385/385/385 387/387/387 388/388/388
f 389/389/389 390/390/390 391/391/391
f 389/389/389 391/391/391 392/392/392
f 393/393/393 394/394/394 395/395/395
f 393/393/393 395/395/395 396/396/396
f 397/397/397 398/398/398 399/399/399
f 397/397/397 399/399/399 400/400/400
f 401/401/401 402/402/402 403/403/403
f 401/401/401 403/403/403 404/404/404
f 405/405/405 406/406/406 407/407/407
f 405/405/405 407/407/407 408/408/408
f 409/409/409 410/410/410 411/411/411
f 409/409/409 411/411/411 412/412/412
f 413/413/413 414/414/414 415/415/415
f 413/413/413 415/415/415 416/416/416
f 417/417/417 418/418/418 419/419/419
f 417/417/417 419/419/419 420/420/420
f 421/421/421 422/422/422 423/423/423
f 421/421/421 423/423/423 424/424/424
f 425/425/425 426/426/426 427/427/427
f 425/425/425 427/427/427 428/428/428
f 429/429/429 430/430/430 431/431/431
f 429/429/429 431/431/431 432/432/432
f 433/433/433 434/434/434 435/435/435
f 433/433/433 435/435/435 436/436/436
f 437/437/437 438/438/438 439/439/439
f 437/437/437 439/439/439 440/440/440
f 441/441/441 442/442/442 443/443/443
f 441/441/441 443/443/443 444/444/444
f 445/445/445 446/446/446 447/447/447
f 445/445/445 447/447/447 448/448/448
f 449/449/449 450/450/450 451/451/451
f 449/449/449 451/451/451 452/452/452
f 453/453/453 454/454/454 455/455/455
f 453/453/453 455/455/455 456/456/456
f 457/457/457 458/458/458 459/459/459
f 457/457/457 459/459/459 460/460/460
f 461/461/461 462/462/462 463/463/463
f 461/461/461 463/463/463 464/464/464
f 465/465/465 466/466/466 467/467/467
f 465/465/465 467/467/467 468/468/468
f 469/469/469 470/470/470 471/471/471
f 469/469/469 471/471/471 472/472/472
f 473/473/473 474/474/474 475/475/475
f 473/473/473 475/475/475 476/476/476
f 477/477/477 478/478/478 479/479/479
f 477/477/477 479/479/479 480/480/480
f 481/481/481 482/482/482 483/483/483
f 481/481/481 483/483/483 484/484/484
f 485/485/485 486/486/486 487/487/487
f 485/485/485 487/487/487 488/488/488
f 489/489/489 490/490/490 491/491/491
f 489/489/489 491/491/491 492/492/492
f 493/493/493 494/494/494 495/495/495
f 493/493/493 495/495/495 496/496/496
f 497/497/497 498/498/498 499/499/499
f 497/497/497 499/499/499 500/500/500
f 501/501/501 502/502/502 503/503/503
f 501/501/501 503/503/503 504/504/504
f 505/505/505 506/506/506 507/507/507
f 505/505/505 507/507/507 508/508/508
f 509/509/509 510/510/510 511/511/511
f 509/509/509 511/511/511 512/512/512
f 513/513/513 514/514/514 515/515/515
f 513/513/513 515/515/515 516/516/516
f 517/517/517 518/518/518 519/519/519
f 517/517/517 519/519/519 520/520/520
f 521/521/521 522/522/522 523/523/523
f 521/521/521 523/523/523 524/524/524
f 525/525/525 526/526/526 527/527/527
f 525/525/525 527/527/527 528/528/528
f 529/529/529 530/530/530 531/531/531
f 529/529/529 531/531/531 532/532/532
f 533/533/533 534/534/534 535/535/535
f 533/533/533 535/535/535 536/536/536
f 537/537/537 538/538/538 539/539/539
f 537/537/537 539/539/539 540/540/540
f 541/541/541 542/542/542 543/543/543
f 541/541/541 543/543/543 544/544/544
f 545/545/545 546/546/546 547/547/547
f 545/545/545 547/547/547 548/548/548
f 549/549/549 550/550/550 551/551/551
f 549/549/549 551/551/551 552/552/552
f 553/553/553 554/554/554 555/555/555
f 553/553/553 555/555/555 556/556/556
f 557/557/557 558/558/558 559/559/559
f 557/557/557 559/559/559 560/560/560
f 561/561/561 562/562/562 563/563/563
f 561/561/561 563/563/563 564/564/564
f 565/565/565 566/566/566 567/567/567
f 565/565/565 567/567/567 568/568/568
f 569/569/569 570/570/570 571/571/571
f 569/569/569 571/571/571 572/572/572
f 573/573/573 574/574/574 575/575/575
f 573/573/573 575/575/575 576/576/576
