mtllib Materials.mtl
# Ultimate Food Pack - Egg_Fried
o Egg_Fried
v 0.420042 0.000000 -0.023217
v 0.468386 0.000000 0.235762
v 0.468386 -0.013102 0.235762
v 0.420042 -0.013102 -0.023217
v 0.359930 0.000000 -0.280381
v 0.359930 -0.013102 -0.280381
v 0.193162 0.000000 -0.596895
v 0.359930 0.000000 -0.280381
v 0.359930 -0.013102 -0.280381
v 0.193162 -0.013102 -0.596895
v -0.358663 0.000000 -0.536586
v -0.178810 0.000000 -0.590892
v -0.178810 -0.013102 -0.590892
v -0.358663 -0.013102 -0.536586
v -0.304176 0.000000 0.519824
v -0.723748 0.000000 0.397978
v -0.723748 -0.013102 0.397978
v -0.304176 -0.013102 0.519824
v 0.468386 0.000000 0.235762
v 0.244102 0.000000 0.481891
v 0.244102 -0.013102 0.481891
v 0.468386 -0.013102 0.235762
v -0.178810 0.000000 -0.590892
v 0.193162 0.000000 -0.596895
v 0.193162 -0.013102 -0.596895
v -0.178810 -0.013102 -0.590892
v -0.723748 0.000000 0.397978
v -0.629367 0.000000 0.059383
v -0.629367 -0.013102 0.059383
v -0.723748 -0.013102 0.397978
v 0.244102 0.000000 0.481891
v -0.002613 0.000000 0.411337
v -0.002613 -0.013102 0.411337
v 0.244102 -0.013102 0.481891
v -0.002613 0.000000 0.411337
v -0.304176 0.000000 0.519824
v -0.304176 -0.013102 0.519824
v -0.002613 -0.013102 0.411337
v -0.629367 0.000000 0.059383
v -0.425078 0.000000 -0.211006
v -0.425078 -0.013102 -0.211006
v -0.629367 -0.013102 0.059383
v -0.425078 0.000000 -0.211006
v -0.358663 0.000000 -0.536586
v -0.358663 -0.013102 -0.536586
v -0.425078 -0.013102 -0.211006
v -0.304176 -0.013102 0.519824
v -0.723748 -0.013102 0.397978
v -0.368345 -0.013102 0.322820
v -0.002613 -0.013102 0.411337
v -0.629367 -0.013102 0.059383
v 0.016873 -0.013102 0.228351
v 0.244102 -0.013102 0.481891
v -0.285009 -0.013102 0.050801
v -0.425078 -0.013102 -0.211006
v 0.256960 -0.013102 0.233599
v 0.468386 -0.013102 0.235762
v 0.027164 -0.013102 0.024093
v -0.209085 -0.013102 -0.202466
v -0.358663 -0.013102 -0.536586
v 0.247899 -0.013102 -0.027815
v 0.420042 -0.013102 -0.023217
v -0.023566 -0.013102 -0.257438
v -0.178810 -0.013102 -0.590892
v 0.193162 -0.013102 -0.596895
v 0.226032 -0.013102 -0.294199
v 0.359930 -0.013102 -0.280381
v -0.304176 0.000000 0.519824
v -0.368345 0.000000 0.322820
v -0.723748 0.000000 0.397978
v -0.002613 0.000000 0.411337
v -0.629367 0.000000 0.059383
v 0.016873 0.000000 0.228351
v 0.244102 0.000000 0.481891
v -0.285009 0.000000 0.050801
v -0.425078 0.000000 -0.211006
v 0.256960 0.000000 0.233599
v 0.468386 0.000000 0.235762
v 0.027164 0.000000 0.024093
v -0.209085 0.000000 -0.202466
v -0.358663 0.000000 -0.536586
v 0.247899 0.000000 -0.027815
v 0.420042 0.000000 -0.023217
v -0.023566 0.000000 -0.257438
v -0.178810 0.000000 -0.590892
v 0.193162 0.000000 -0.596895
v 0.226032 0.000000 -0.294199
v 0.359930 0.000000 -0.280381
v 0.120824 0.045992 0.026285
v 0.032959 0.090433 -0.030948
v -0.053661 0.033713 0.151978
v 0.055203 0.034998 -0.178501
v 0.032959 0.090433 -0.030948
v 0.120824 0.045992 0.026285
v -0.071056 0.094029 -0.086769
v 0.032959 0.090433 -0.030948
v 0.055203 0.034998 -0.178501
v 0.032959 0.090433 -0.030948
v -0.071056 0.094029 -0.086769
v -0.122397 0.090433 0.019530
v 0.032959 0.090433 -0.030948
v -0.122397 0.090433 0.019530
v -0.053661 0.033713 0.151978
v -0.267899 -0.003592 -0.031323
v -0.227122 0.041302 0.024874
v -0.159840 0.035252 -0.179374
v -0.267899 -0.003592 -0.031323
v -0.159840 0.035252 -0.179374
v -0.119051 -0.003592 -0.234478
v -0.119051 -0.003592 -0.234478
v 0.055203 0.034998 -0.178501
v 0.067581 -0.003592 -0.196801
v 0.161085 -0.003592 -0.030948
v 0.055203 0.034998 -0.178501
v 0.120824 0.045992 0.026285
v 0.067581 -0.003592 0.134906
v 0.120824 0.045992 0.026285
v -0.053661 0.033713 0.151978
v 0.067581 -0.003592 0.134906
v -0.053661 0.033713 0.151978
v -0.052662 -0.003592 0.174427
v -0.173419 -0.003592 0.134906
v -0.227122 0.041302 0.024874
v -0.267899 -0.003592 -0.031323
v 0.067581 -0.003592 -0.196801
v 0.055203 0.034998 -0.178501
v 0.161085 -0.003592 -0.030948
v 0.161085 -0.003592 -0.030948
v 0.120824 0.045992 0.026285
v 0.067581 -0.003592 0.134906
v -0.052662 -0.003592 0.174427
v -0.053661 0.033713 0.151978
v -0.173419 -0.003592 0.134906
v -0.053661 0.033713 0.151978
v -0.122397 0.090433 0.019530
v -0.227122 0.041302 0.024874
v -0.173419 -0.003592 0.134906
v -0.159840 0.035252 -0.179374
v -0.071056 0.094029 -0.086769
v 0.055203 0.034998 -0.178501
v -0.119051 -0.003592 -0.234478
v -0.227122 0.041302 0.024874
v -0.122397 0.090433 0.019530
v -0.159840 0.035252 -0.179374
v -0.071056 0.094029 -0.086769
vn 0.983019 0.000000 -0.183503
vn 0.983019 0.000000 -0.183503
vn 0.983019 0.000000 -0.183503
vn 0.983019 0.000000 -0.183503
vn 0.973752 0.000000 -0.227614
vn 0.973752 0.000000 -0.227614
vn 0.884709 0.000000 -0.466143
vn 0.884709 0.000000 -0.466143
vn 0.884709 0.000000 -0.466143
vn 0.884709 0.000000 -0.466143
vn -0.289056 0.000000 -0.957312
vn -0.289056 0.000000 -0.957312
vn -0.289056 0.000000 -0.957312
vn -0.289056 0.000000 -0.957312
vn -0.278883 0.000000 0.960325
vn -0.278883 0.000000 0.960325
vn -0.278883 0.000000 0.960325
vn -0.278883 0.000000 0.960325
vn 0.739146 0.000000 0.673545
vn 0.739146 0.000000 0.673545
vn 0.739146 0.000000 0.673545
vn 0.739146 0.000000 0.673545
vn -0.016136 0.000000 -0.999870
vn -0.016136 0.000000 -0.999870
vn -0.016136 0.000000 -0.999870
vn -0.016136 0.000000 -0.999870
vn -0.963278 0.000000 -0.268506
vn -0.963278 0.000000 -0.268506
vn -0.963278 0.000000 -0.268506
vn -0.963278 0.000000 -0.268506
vn -0.274951 0.000000 0.961458
vn -0.274951 0.000000 0.961458
vn -0.274951 0.000000 0.961458
vn -0.274951 0.000000 0.961458
vn 0.338509 0.000000 0.940963
vn 0.338509 0.000000 0.940963
vn 0.338509 0.000000 0.940963
vn 0.338509 0.000000 0.940963
vn -0.797875 0.000000 -0.602823
vn -0.797875 0.000000 -0.602823
vn -0.797875 0.000000 -0.602823
vn -0.797875 0.000000 -0.602823
vn -0.979822 0.000000 -0.199872
vn -0.979822 0.000000 -0.199872
vn -0.979822 0.000000 -0.199872
vn -0.979822 0.000000 -0.199872
vn 0.000000 -1.000000 0.000000
vn 0.000000 -1.000000 0.000000
vn 0.000000 -1.000000 0.000000
vn 0.000000 -1.000000 0.000000
vn 0.000000 -1.000000 0.000000
vn 0.000000 -1.000000 0.000000
vn 0.000000 -1.000000 0.000000
vn 0.000000 -1.000000 0.000000
vn 0.000000 -1.000000 0.000000
vn 0.000000 -1.000000 0.000000
vn 0.000000 -1.000000 0.000000
vn 0.000000 -1.000000 0.000000
vn 0.000000 -1.000000 0.000000
vn 0.000000 -1.000000 0.000000
vn 0.000000 -1.000000 0.000000
vn 0.000000 -1.000000 0.000000
vn 0.000000 -1.000000 0.000000
vn 0.000000 -1.000000 0.000000
vn 0.000000 -1.000000 0.000000
vn 0.000000 -1.000000 0.000000
vn 0.000000 -1.000000 0.000000
vn 0.000000 1.000000 0.000000
vn 0.000000 1.000000 0.000000
vn 0.000000 1.000000 0.000000
vn 0.000000 1.000000 0.000000
vn 0.000000 1.000000 0.000000
vn 0.000000 1.000000 0.000000
vn 0.000000 1.000000 0.000000
vn 0.000000 1.000000 0.000000
vn 0.000000 1.000000 0.000000
vn 0.000000 1.000000 0.000000
vn 0.000000 1.000000 0.000000
vn 0.000000 1.000000 0.000000
vn 0.000000 1.000000 0.000000
vn 0.000000 1.000000 0.000000
vn 0.000000 1.000000 0.000000
vn 0.000000 1.000000 0.000000
vn 0.000000 1.000000 0.000000
vn 0.000000 1.000000 0.000000
vn 0.000000 1.000000 0.000000
vn 0.000000 1.000000 0.000000
vn 0.000000 1.000000 0.000000
vn 0.209338 0.901546 0.378673
vn 0.209338 0.901546 0.378673
vn 0.209338 0.901546 0.378673
vn 0.550455 0.805459 -0.219627
vn 0.550455 0.805459 -0.219627
vn 0.550455 0.805459 -0.219627
vn 0.202431 0.926391 -0.317524
vn 0.202431 0.926391 -0.317524
vn 0.202431 0.926391 -0.317524
vn 0.013027 0.999111 0.040091
vn 0.013027 0.999111 0.040091
vn 0.013027 0.999111 0.040091
vn 0.111107 0.933126 0.341951
vn 0.111107 0.933126 0.341951
vn 0.111107 0.933126 0.341951
vn -0.575633 0.789478 -0.213005
vn -0.575633 0.789478 -0.213005
vn -0.575633 0.789478 -0.213005
vn -0.806625 -0.008631 -0.591000
vn -0.806625 -0.008631 -0.591000
vn -0.806625 -0.008631 -0.591000
vn 0.174966 0.467135 -0.866702
vn 0.174966 0.467135 -0.866702
vn 0.174966 0.467135 -0.866702
vn 0.604344 0.761422 -0.234531
vn 0.604344 0.761422 -0.234531
vn 0.604344 0.761422 -0.234531
vn 0.317340 0.794259 0.518120
vn 0.317340 0.794259 0.518120
vn 0.317340 0.794259 0.518120
vn 0.270093 0.501749 0.821765
vn 0.270093 0.501749 0.821765
vn 0.270093 0.501749 0.821765
vn -0.856929 0.168681 0.487052
vn -0.856929 0.168681 0.487052
vn -0.856929 0.168681 0.487052
vn 0.775284 0.455951 -0.437086
vn 0.775284 0.455951 -0.437086
vn 0.775284 0.455951 -0.437086
vn 0.862634 0.139083 0.486332
vn 0.862634 0.139083 0.486332
vn 0.862634 0.139083 0.486332
vn -0.270968 0.490984 0.827956
vn -0.270968 0.490984 0.827956
vn -0.270968 0.490984 0.827956
vn -0.342563 0.786132 0.514438
vn -0.342563 0.786132 0.514438
vn -0.342563 0.786132 0.514438
vn -0.322240 0.811067 0.488192
vn 0.003181 0.842908 -0.538048
vn 0.003181 0.842908 -0.538048
vn 0.003181 0.842908 -0.538048
vn 0.003300 0.818479 -0.574527
vn -0.425746 0.889375 -0.166589
vn -0.425746 0.889375 -0.166589
vn -0.425746 0.889375 -0.166589
vn -0.414560 0.894006 -0.169980
g Egg_Fried_White
usemtl White
f 1 2 3
f 1 3 4
f 5 1 4
f 5 4 6
f 7 8 9
f 7 9 10
f 11 12 13
f 11 13 14
f 15 16 17
f 15 17 18
f 19 20 21
f 19 21 22
f 23 24 25
f 23 25 26
f 27 28 29
f 27 29 30
f 31 32 33
f 31 33 34
f 35 36 37
f 35 37 38
f 39 40 41
f 39 41 42
f 43 44 45
f 43 45 46
f 47 48 49
f 50 47 49
f 49 48 51
f 50 49 52
f 53 50 52
f 49 51 54
f 52 49 54
f 54 51 55
f 53 52 56
f 57 53 56
f 52 54 58
f 56 52 58
f 54 55 59
f 58 54 59
f 59 55 60
f 57 56 61
f 56 58 61
f 57 61 62
f 63 59 60
f 58 59 63
f 61 58 63
f 63 60 64
f 63 64 65
f 62 61 66
f 61 63 66
f 63 65 66
f 62 66 67
f 67 66 65
f 68 69 70
f 71 69 68
f 69 72 70
f 71 73 69
f 74 73 71
f 69 75 72
f 73 75 69
f 75 76 72
f 74 77 73
f 78 77 74
f 73 79 75
f 77 79 73
f 75 80 76
f 79 80 75
f 80 81 76
f 78 82 77
f 77 82 79
f 78 83 82
f 84 81 80
f 79 84 80
f 82 84 79
f 84 85 81
f 84 86 85
f 83 87 82
f 82 87 84
f 84 87 86
f 83 88 87
f 88 86 87
g Egg_Fried_Yellow
usemtl Yellow
f 89 90 91
f 92 93 94
f 95 96 97
f 98 99 100
f 101 102 103
f 104 105 106
f 107 108 109
f 110 111 112
f 113 114 115
f 116 117 118
f 119 120 121
f 122 123 124
f 125 126 127
f 128 129 130
f 131 132 133
f 134 135 136
f 137 134 136
f 138 139 140
f 141 138 140
f 142 143 144
f 143 145 144
