mtllib Materials.mtl
# Ultimate Food Pack - Eggplant
o Eggplant
v 0.111601 0.717988 0.000000
v 0.050929 0.717988 0.182014
v 0.074353 0.477070 0.192403
v 0.138131 0.479663 0.000000
v 0.111601 0.717988 0.000000
v 0.046353 0.906866 0.000000
v 0.001706 0.857898 0.132792
v 0.050929 0.717988 0.182014
v 0.111601 0.717988 0.000000
v 0.050929 0.717988 -0.182014
v 0.001706 0.857897 -0.132792
v 0.046353 0.906866 0.000000
v 0.111601 0.717988 0.000000
v 0.138131 0.479663 0.000000
v 0.074353 0.477070 -0.192403
v 0.050929 0.717988 -0.182014
v -0.131085 0.717987 -0.242686
v 0.050929 0.717988 -0.182014
v 0.074353 0.477070 -0.192403
v -0.116981 0.469290 -0.256537
v -0.131085 0.717987 -0.242686
v -0.131085 0.906866 -0.177438
v 0.001706 0.857897 -0.132792
v 0.050929 0.717988 -0.182014
v -0.131085 0.717987 -0.242686
v -0.313100 0.717988 -0.182014
v -0.263877 0.857897 -0.132792
v -0.131085 0.906866 -0.177438
v -0.131085 0.717987 -0.242686
v -0.308315 0.461511 -0.192403
v -0.313100 0.717988 -0.182014
v -0.116981 0.469290 -0.256537
v -0.074667 0.226875 -0.279787
v -0.280233 0.195757 -0.209840
v -0.220673 -0.070900 -0.233564
v -0.002629 -0.001053 -0.311048
v 0.100651 -0.206288 -0.348931
v -0.121456 -0.330085 -0.262813
v -0.373771 0.717988 0.000000
v -0.313100 0.717988 -0.182014
v -0.308315 0.461511 -0.192403
v -0.372093 0.458918 0.000000
v -0.373771 0.717988 0.000000
v -0.308524 0.906866 0.000000
v -0.263877 0.857897 -0.132792
v -0.313100 0.717988 -0.182014
v -0.373771 0.717988 0.000000
v -0.313100 0.717988 0.182014
v -0.263877 0.857898 0.132792
v -0.308524 0.906866 0.000000
v -0.373771 0.717988 0.000000
v -0.372093 0.458918 0.000000
v -0.308315 0.461511 0.192403
v -0.313100 0.717988 0.182014
v -0.131085 0.717988 0.242686
v -0.313100 0.717988 0.182014
v -0.308315 0.461511 0.192403
v -0.116981 0.469291 0.256537
v -0.074667 0.226875 0.279787
v -0.280233 0.195757 0.209840
v -0.220673 -0.070900 0.233564
v -0.002629 -0.001053 0.311048
v 0.100651 -0.206288 0.348931
v -0.121456 -0.330085 0.262813
v -0.131085 0.717988 0.242686
v -0.131085 0.906866 0.177438
v -0.263877 0.857898 0.132792
v -0.313100 0.717988 0.182014
v -0.131085 0.717988 0.242686
v 0.050929 0.717988 0.182014
v 0.001706 0.857898 0.132792
v -0.131085 0.906866 0.177438
v -0.131085 0.717988 0.242686
v -0.116981 0.469291 0.256537
v 0.074353 0.477070 0.192403
v 0.050929 0.717988 0.182014
v -0.074667 0.226875 -0.279787
v -0.116981 0.469290 -0.256537
v 0.074353 0.477070 -0.192403
v 0.130898 0.257994 -0.209840
v -0.074667 0.226875 -0.279787
v 0.130898 0.257994 -0.209840
v 0.215416 0.068795 -0.233007
v -0.002629 -0.001053 -0.311048
v -0.131085 0.969825 0.000000
v -0.131085 0.906866 -0.177438
v -0.263877 0.857897 -0.132792
v -0.308524 0.906866 0.000000
v -0.131085 0.969825 0.000000
v 0.046353 0.906866 0.000000
v 0.001706 0.857897 -0.132792
v -0.131085 0.906866 -0.177438
v -0.131085 0.969825 0.000000
v -0.131085 0.906866 0.177438
v 0.001706 0.857898 0.132792
v 0.046353 0.906866 0.000000
v -0.131085 0.969825 0.000000
v -0.308524 0.906866 0.000000
v -0.263877 0.857898 0.132792
v -0.131085 0.906866 0.177438
v -0.195492 -0.371351 0.000000
v -0.293355 -0.094183 0.000000
v -0.220673 -0.070900 -0.233564
v -0.121456 -0.330085 -0.262813
v -0.195492 -0.371351 0.000000
v -0.121456 -0.330085 0.262813
v -0.220673 -0.070900 0.233564
v -0.293355 -0.094183 0.000000
v -0.195492 -0.371351 0.000000
v -0.060841 -0.594201 0.000000
v 0.009263 -0.540780 0.270925
v -0.121456 -0.330085 0.262813
v -0.195492 -0.371351 0.000000
v -0.121456 -0.330085 -0.262813
v 0.009263 -0.540780 -0.270925
v -0.060841 -0.594201 0.000000
v 0.199420 0.268367 0.000000
v 0.138131 0.479663 0.000000
v 0.074353 0.477070 0.192403
v 0.130898 0.257994 0.209840
v 0.199420 0.268367 0.000000
v 0.130898 0.257994 -0.209840
v 0.074353 0.477070 -0.192403
v 0.138131 0.479663 0.000000
v 0.199420 0.268367 0.000000
v 0.288097 0.092077 0.000000
v 0.215416 0.068795 -0.233007
v 0.130898 0.257994 -0.209840
v 0.199420 0.268367 0.000000
v 0.130898 0.257994 0.209840
v 0.215416 0.068795 0.233007
v 0.288097 0.092077 0.000000
v -0.348755 0.185384 0.000000
v -0.372093 0.458918 0.000000
v -0.308315 0.461511 -0.192403
v -0.280233 0.195757 -0.209840
v -0.348755 0.185384 0.000000
v -0.280233 0.195757 0.209840
v -0.308315 0.461511 0.192403
v -0.372093 0.458918 0.000000
v -0.348755 0.185384 0.000000
v -0.293355 -0.094183 0.000000
v -0.220673 -0.070900 0.233564
v -0.280233 0.195757 0.209840
v -0.348755 0.185384 0.000000
v -0.280233 0.195757 -0.209840
v -0.220673 -0.070900 -0.233564
v -0.293355 -0.094183 0.000000
v -0.074667 0.226875 0.279787
v 0.130898 0.257994 0.209840
v 0.074353 0.477070 0.192403
v -0.116981 0.469291 0.256537
v -0.074667 0.226875 0.279787
v -0.002629 -0.001053 0.311048
v 0.215416 0.068795 0.233007
v 0.130898 0.257994 0.209840
v 0.100651 -0.206288 -0.348931
v -0.002629 -0.001053 -0.311048
v 0.215416 0.068795 -0.233007
v 0.322758 -0.082492 -0.260583
v 0.100651 -0.206288 -0.348931
v 0.219573 -0.380517 -0.359004
v 0.009263 -0.540780 -0.270925
v -0.121456 -0.330085 -0.262813
v 0.100651 -0.206288 -0.348931
v 0.322758 -0.082492 -0.260583
v 0.429883 -0.220254 -0.267581
v 0.219573 -0.380517 -0.359004
v 0.100651 -0.206288 0.348931
v 0.322758 -0.082492 0.260583
v 0.215416 0.068795 0.233007
v -0.002629 -0.001053 0.311048
v 0.100651 -0.206288 0.348931
v 0.219573 -0.380517 0.359004
v 0.429883 -0.220254 0.267581
v 0.322758 -0.082492 0.260583
v 0.100651 -0.206288 0.348931
v -0.121456 -0.330085 0.262813
v 0.009263 -0.540780 0.270925
v 0.219573 -0.380517 0.359004
v 0.457527 -0.630672 0.000000
v 0.427780 -0.601860 -0.188479
v 0.520578 -0.482400 -0.151458
v 0.571825 -0.481191 0.000000
v 0.457527 -0.630672 0.000000
v 0.283735 -0.722529 0.000000
v 0.288709 -0.676502 -0.152449
v 0.427780 -0.601860 -0.188479
v 0.457527 -0.630672 0.000000
v 0.427780 -0.601860 0.188479
v 0.288709 -0.676502 0.152449
v 0.283735 -0.722529 0.000000
v 0.457527 -0.630672 0.000000
v 0.571825 -0.481191 0.000000
v 0.520578 -0.482400 0.151458
v 0.427780 -0.601860 0.188479
v 0.572155 -0.320033 0.000000
v 0.571825 -0.481191 0.000000
v 0.520578 -0.482400 -0.151458
v 0.513751 -0.368881 -0.229010
v 0.572155 -0.320033 0.000000
v 0.513751 -0.368881 0.229010
v 0.520578 -0.482400 0.151458
v 0.571825 -0.481191 0.000000
v 0.572155 -0.320033 0.000000
v 0.499987 -0.166833 0.000000
v 0.429883 -0.220254 0.267581
v 0.513751 -0.368881 0.229010
v 0.572155 -0.320033 0.000000
v 0.513751 -0.368881 -0.229010
v 0.429883 -0.220254 -0.267581
v 0.499987 -0.166833 0.000000
v 0.338539 -0.515425 -0.306833
v 0.427780 -0.601860 -0.188479
v 0.288709 -0.676502 -0.152449
v 0.163328 -0.661969 -0.231240
v 0.338539 -0.515425 -0.306833
v 0.513751 -0.368881 -0.229010
v 0.520578 -0.482400 -0.151458
v 0.427780 -0.601860 -0.188479
v 0.338539 -0.515425 -0.306833
v 0.219573 -0.380517 -0.359004
v 0.429883 -0.220254 -0.267581
v 0.513751 -0.368881 -0.229010
v 0.338539 -0.515425 -0.306833
v 0.163328 -0.661969 -0.231240
v 0.009263 -0.540780 -0.270925
v 0.219573 -0.380517 -0.359004
v 0.104924 -0.710816 0.000000
v 0.283735 -0.722529 0.000000
v 0.288709 -0.676502 0.152449
v 0.163328 -0.661968 0.231240
v 0.104924 -0.710816 0.000000
v 0.163328 -0.661969 -0.231240
v 0.288709 -0.676502 -0.152449
v 0.283735 -0.722529 0.000000
v 0.104924 -0.710816 0.000000
v -0.060841 -0.594201 0.000000
v 0.009263 -0.540780 -0.270925
v 0.163328 -0.661969 -0.231240
v 0.104924 -0.710816 0.000000
v 0.163328 -0.661968 0.231240
v 0.009263 -0.540780 0.270925
v -0.060841 -0.594201 0.000000
v 0.338539 -0.515424 0.306833
v 0.427780 -0.601860 0.188479
v 0.520578 -0.482400 0.151458
v 0.513751 -0.368881 0.229010
v 0.338539 -0.515424 0.306833
v 0.163328 -0.661968 0.231240
v 0.288709 -0.676502 0.152449
v 0.427780 -0.601860 0.188479
v 0.338539 -0.515424 0.306833
v 0.219573 -0.380517 0.359004
v 0.009263 -0.540780 0.270925
v 0.163328 -0.661968 0.231240
v 0.338539 -0.515424 0.306833
v 0.513751 -0.368881 0.229010
v 0.429883 -0.220254 0.267581
v 0.219573 -0.380517 0.359004
v 0.396793 -0.041226 0.000000
v 0.288097 0.092077 0.000000
v 0.215416 0.068795 0.233007
v 0.322758 -0.082492 0.260583
v 0.429883 -0.220254 0.267581
v 0.499987 -0.166833 0.000000
v 0.396793 -0.041226 0.000000
v 0.215416 0.068795 -0.233007
v 0.288097 0.092077 0.000000
v 0.322758 -0.082492 -0.260583
v 0.429883 -0.220254 -0.267581
v 0.499987 -0.166833 0.000000
v 0.127912 0.711792 0.000000
v 0.058279 0.913365 0.000000
v 0.010631 0.861106 0.141717
v 0.061786 0.716083 0.182944
v 0.127912 0.711792 0.000000
v 0.063162 0.711792 -0.194248
v 0.010631 0.861106 -0.141717
v 0.058279 0.913365 0.000000
v -0.131085 0.711792 -0.258997
v -0.131085 0.913365 -0.189364
v 0.010631 0.861106 -0.141717
v 0.063162 0.711792 -0.194248
v -0.131085 0.711792 -0.258997
v -0.325333 0.711792 -0.194248
v -0.272802 0.861106 -0.141717
v -0.131085 0.913365 -0.189364
v -0.390082 0.711792 0.000000
v -0.320450 0.913365 0.000000
v -0.272802 0.861106 -0.141717
v -0.325333 0.711792 -0.194248
v -0.390082 0.711792 0.000000
v -0.326705 0.714337 0.182539
v -0.272802 0.861106 0.141717
v -0.320450 0.913365 0.000000
v -0.132539 0.717816 0.247438
v -0.131085 0.913365 0.189364
v -0.272802 0.861106 0.141717
v -0.326705 0.714337 0.182539
v -0.132539 0.717816 0.247438
v 0.061786 0.716083 0.182944
v 0.010631 0.861106 0.141717
v -0.131085 0.913365 0.189364
v -0.272802 0.861106 -0.141717
v -0.173578 0.942650 -0.042492
v -0.131085 0.954634 -0.056779
v -0.131085 0.913365 -0.189364
v -0.320450 0.913365 0.000000
v -0.187864 0.954634 0.000000
v -0.173578 0.942650 -0.042492
v -0.272802 0.861106 -0.141717
v 0.010631 0.861106 0.141717
v -0.088593 0.942650 0.042492
v -0.131085 0.954634 0.056779
v -0.131085 0.913365 0.189364
v 0.010631 0.861106 -0.141717
v -0.088593 0.942650 -0.042492
v -0.074307 0.954634 0.000000
v 0.058279 0.913365 0.000000
v -0.132539 0.717816 0.247438
v -0.037622 0.637328 0.225122
v 0.061786 0.716083 0.182944
v -0.132003 0.639701 0.256104
v -0.109584 0.539000 0.258305
v -0.131772 0.539558 0.265589
v -0.326705 0.714337 0.182539
v -0.132003 0.639701 0.256104
v -0.132539 0.717816 0.247438
v -0.226136 0.634904 0.224653
v -0.131772 0.539558 0.265589
v -0.153902 0.538430 0.258195
v -0.390082 0.711792 0.000000
v -0.386546 0.620498 0.000000
v -0.362941 0.620498 0.070817
v -0.326705 0.714337 0.182539
v -0.325333 0.711792 -0.194248
v -0.362941 0.620498 -0.070817
v -0.386546 0.620498 0.000000
v -0.390082 0.711792 0.000000
v -0.386546 0.620498 0.000000
v -0.373238 0.541580 0.000000
v -0.364942 0.541580 0.024888
v -0.362941 0.620498 0.070817
v -0.362941 0.620498 -0.070817
v -0.364942 0.541580 -0.024888
v -0.373238 0.541580 0.000000
v -0.386546 0.620498 0.000000
v -0.131085 0.711792 -0.258997
v -0.131085 0.589527 -0.262630
v -0.189441 0.589527 -0.243178
v -0.325333 0.711792 -0.194248
v 0.063162 0.711792 -0.194248
v -0.072730 0.589527 -0.243178
v -0.131085 0.589527 -0.262630
v -0.131085 0.711792 -0.258997
v -0.131085 0.589527 -0.262630
v -0.131085 0.519561 -0.255019
v -0.155193 0.519561 -0.246983
v -0.189441 0.589527 -0.243178
v -0.072730 0.589527 -0.243178
v -0.106978 0.519561 -0.246983
v -0.131085 0.519561 -0.255019
v -0.131085 0.589527 -0.262630
v 0.127912 0.711792 0.000000
v 0.133231 0.653995 -0.003392
v 0.108393 0.651333 -0.087799
v 0.063162 0.711792 -0.194248
v 0.061786 0.716083 0.182944
v 0.133231 0.653995 -0.003392
v 0.127912 0.711792 0.000000
v 0.103119 0.649338 0.083480
v 0.135275 0.564269 0.003117
v 0.125693 0.564570 0.028793
v 0.133231 0.653995 -0.003392
v 0.135275 0.564269 0.003117
v 0.127542 0.563440 -0.023164
v 0.108393 0.651333 -0.087799
v -0.131085 0.954634 -0.056779
v -0.131085 1.017842 -0.042777
v -0.099072 1.008813 -0.032014
v -0.088593 0.942650 -0.042492
v -0.187864 0.954634 0.000000
v -0.173862 1.017842 0.000000
v -0.163099 1.008813 -0.032014
v -0.173578 0.942650 -0.042492
v -0.131085 0.954634 0.056779
v -0.131085 1.017842 0.042777
v -0.163099 1.008813 0.032013
v -0.173578 0.942650 0.042492
v -0.088593 0.942650 -0.042492
v -0.099072 1.008813 -0.032014
v -0.088308 1.017842 0.000000
v -0.074307 0.954634 0.000000
v 0.058279 0.913365 0.000000
v -0.074307 0.954634 0.000000
v -0.088593 0.942650 0.042492
v 0.010631 0.861106 0.141717
v -0.131085 0.913365 0.189364
v -0.131085 0.954634 0.056779
v -0.173578 0.942650 0.042492
v -0.272802 0.861106 0.141717
v -0.272802 0.861106 0.141717
v -0.173578 0.942650 0.042492
v -0.187864 0.954634 0.000000
v -0.320450 0.913365 0.000000
v -0.131085 0.913365 -0.189364
v -0.131085 0.954634 -0.056779
v -0.088593 0.942650 -0.042492
v 0.010631 0.861106 -0.141717
v -0.131085 1.029450 0.000000
v -0.131085 1.017842 -0.042777
v -0.163099 1.008813 -0.032014
v -0.173862 1.017842 0.000000
v -0.131085 1.029450 0.000000
v -0.088308 1.017842 0.000000
v -0.099072 1.008813 -0.032014
v -0.131085 1.017842 -0.042777
v -0.131085 1.029450 0.000000
v -0.131085 1.017842 0.042777
v -0.099072 1.008813 0.032013
v -0.088308 1.017842 0.000000
v -0.131085 1.029450 0.000000
v -0.173862 1.017842 0.000000
v -0.163099 1.008813 0.032013
v -0.131085 1.017842 0.042777
v -0.074307 0.954634 0.000000
v -0.088308 1.017842 0.000000
v -0.099072 1.008813 0.032013
v -0.088593 0.942650 0.042492
v -0.088593 0.942650 0.042492
v -0.099072 1.008813 0.032013
v -0.131085 1.017842 0.042777
v -0.131085 0.954634 0.056779
v -0.173578 0.942650 0.042492
v -0.163099 1.008813 0.032013
v -0.173862 1.017842 0.000000
v -0.187864 0.954634 0.000000
v -0.173578 0.942650 -0.042492
v -0.163099 1.008813 -0.032014
v -0.131085 1.017842 -0.042777
v -0.131085 0.954634 -0.056779
v 0.117207 0.709183 -0.000186
v 0.054401 0.712968 0.175383
v 0.004291 0.854909 0.135174
v 0.050724 0.905344 -0.000031
v 0.117207 0.709183 -0.000186
v 0.050724 0.905344 -0.000031
v 0.004278 0.854726 -0.135364
v 0.055928 0.708531 -0.186603
v -0.131085 0.709595 -0.248199
v 0.055928 0.708531 -0.186603
v 0.004278 0.854726 -0.135364
v -0.131085 0.905330 -0.181824
v -0.131085 0.709595 -0.248199
v -0.131085 0.905330 -0.181824
v -0.266449 0.854726 -0.135364
v -0.317901 0.708881 -0.186651
v -0.379215 0.709967 -0.000039
v -0.317901 0.708881 -0.186651
v -0.266449 0.854726 -0.135364
v -0.312901 0.905338 -0.000017
v -0.379215 0.709967 -0.000039
v -0.312901 0.905338 -0.000017
v -0.266467 0.854886 0.135190
v -0.319107 0.711469 0.175091
v -0.132501 0.715421 0.236682
v -0.319107 0.711469 0.175091
v -0.266467 0.854886 0.135190
v -0.131088 0.905497 0.181650
v -0.132501 0.715421 0.236682
v -0.131088 0.905497 0.181650
v 0.004291 0.854909 0.135174
v 0.054401 0.712968 0.175383
v -0.266449 0.854726 -0.135364
v -0.131085 0.905330 -0.181824
v -0.131085 0.947251 -0.048599
v -0.168002 0.934952 -0.036917
v -0.312901 0.905338 -0.000017
v -0.266449 0.854726 -0.135364
v -0.168002 0.934952 -0.036917
v -0.179684 0.947251 0.000000
v 0.004291 0.854909 0.135174
v -0.131088 0.905497 0.181650
v -0.131085 0.947251 0.048599
v -0.094168 0.934952 0.036917
v 0.004278 0.854726 -0.135364
v 0.050724 0.905344 -0.000031
v -0.082487 0.947251 0.000000
v -0.094168 0.934952 -0.036917
v -0.132501 0.715421 0.236682
v 0.054401 0.712968 0.175383
v -0.041075 0.636189 0.214720
v -0.131975 0.638578 0.245142
v -0.113029 0.538005 0.247886
v -0.131708 0.538519 0.254619
v -0.319107 0.711469 0.175091
v -0.132501 0.715421 0.236682
v -0.131975 0.638578 0.245142
v -0.222627 0.633838 0.214262
v -0.131708 0.538519 0.254619
v -0.150379 0.537454 0.247800
v -0.379215 0.709967 -0.000039
v -0.319107 0.711469 0.175091
v -0.352534 0.621248 0.067273
v -0.375581 0.621594 -0.000026
v -0.317901 0.708881 -0.186651
v -0.379215 0.709967 -0.000039
v -0.375581 0.621594 -0.000026
v -0.352515 0.621300 -0.067341
v -0.375581 0.621594 -0.000026
v -0.352534 0.621248 0.067273
v -0.354620 0.543321 0.021448
v -0.362373 0.543412 0.000000
v -0.352515 0.621300 -0.067341
v -0.375581 0.621594 -0.000026
v -0.362373 0.543412 0.000000
v -0.354620 0.543321 -0.021448
v -0.131085 0.709595 -0.248199
v -0.317901 0.708881 -0.186651
v -0.185957 0.589671 -0.232725
v -0.131085 0.589954 -0.251619
v 0.055928 0.708531 -0.186603
v -0.131085 0.709595 -0.248199
v -0.131085 0.589954 -0.251619
v -0.076214 0.589671 -0.232725
v -0.131085 0.589954 -0.251619
v -0.185957 0.589671 -0.232725
v -0.151727 0.520692 -0.236585
v -0.131085 0.520753 -0.244065
v -0.076214 0.589671 -0.232725
v -0.131085 0.589954 -0.251619
v -0.131085 0.520753 -0.244065
v -0.110444 0.520692 -0.236585
v 0.117207 0.709183 -0.000186
v 0.055928 0.708531 -0.186603
v 0.097938 0.650213 -0.084504
v 0.122237 0.653248 -0.003483
v 0.054401 0.712968 0.175383
v 0.117207 0.709183 -0.000186
v 0.122237 0.653248 -0.003483
v 0.092761 0.648619 0.079792
v 0.124266 0.564018 0.002712
v 0.115315 0.564121 0.025116
v 0.122237 0.653248 -0.003483
v 0.097938 0.650213 -0.084504
v 0.116971 0.563425 -0.020053
v 0.124266 0.564018 0.002712
v -0.131085 0.947251 -0.048599
v -0.094168 0.934952 -0.036917
v -0.105698 1.003016 -0.025387
v -0.131085 1.010441 -0.034613
v -0.179684 0.947251 0.000000
v -0.168002 0.934952 -0.036917
v -0.156473 1.003016 -0.025387
v -0.165698 1.010441 0.000000
v -0.131085 0.947251 0.048599
v -0.168002 0.934952 0.036917
v -0.156473 1.003016 0.025387
v -0.131085 1.010441 0.034613
v -0.094168 0.934952 -0.036917
v -0.082487 0.947251 0.000000
v -0.096473 1.010441 0.000000
v -0.105698 1.003016 -0.025387
v 0.050724 0.905344 -0.000031
v 0.004291 0.854909 0.135174
v -0.094168 0.934952 0.036917
v -0.082487 0.947251 0.000000
v -0.131088 0.905497 0.181650
v -0.266467 0.854886 0.135190
v -0.168002 0.934952 0.036917
v -0.131085 0.947251 0.048599
v -0.266467 0.854886 0.135190
v -0.312901 0.905338 -0.000017
v -0.179684 0.947251 0.000000
v -0.168002 0.934952 0.036917
v -0.131085 0.905330 -0.181824
v 0.004278 0.854726 -0.135364
v -0.094168 0.934952 -0.036917
v -0.131085 0.947251 -0.048599
v -0.131085 1.018431 0.000000
v -0.165698 1.010441 0.000000
v -0.156473 1.003016 -0.025387
v -0.131085 1.010441 -0.034613
v -0.131085 1.018431 0.000000
v -0.131085 1.010441 -0.034613
v -0.105698 1.003016 -0.025387
v -0.096473 1.010441 0.000000
v -0.131085 1.018431 0.000000
v -0.096473 1.010441 0.000000
v -0.105698 1.003016 0.025387
v -0.131085 1.010441 0.034613
v -0.131085 1.018431 0.000000
v -0.131085 1.010441 0.034613
v -0.156473 1.003016 0.025387
v -0.165698 1.010441 0.000000
v -0.082487 0.947251 0.000000
v -0.094168 0.934952 0.036917
v -0.105698 1.003016 0.025387
v -0.096473 1.010441 0.000000
v -0.094168 0.934952 0.036917
v -0.131085 0.947251 0.048599
v -0.131085 1.010441 0.034613
v -0.105698 1.003016 0.025387
v -0.168002 0.934952 0.036917
v -0.179684 0.947251 0.000000
v -0.165698 1.010441 0.000000
v -0.156473 1.003016 0.025387
v -0.168002 0.934952 -0.036917
v -0.131085 0.947251 -0.048599
v -0.131085 1.010441 -0.034613
v -0.156473 1.003016 -0.025387
v -0.037622 0.637328 0.225122
v -0.041075 0.636189 0.214720
v 0.054401 0.712968 0.175383
v 0.061786 0.716083 0.182944
v -0.326705 0.714337 0.182539
v -0.319107 0.711469 0.175091
v -0.222627 0.633838 0.214262
v -0.226136 0.634904 0.224653
v -0.153902 0.538430 0.258195
v -0.150379 0.537454 0.247800
v -0.131708 0.538519 0.254619
v -0.131772 0.539558 0.265589
v -0.113029 0.538005 0.247886
v -0.109584 0.539000 0.258305
v -0.109584 0.539000 0.258305
v -0.113029 0.538005 0.247886
v -0.041075 0.636189 0.214720
v -0.037622 0.637328 0.225122
v -0.226136 0.634904 0.224653
v -0.222627 0.633838 0.214262
v -0.150379 0.537454 0.247800
v -0.153902 0.538430 0.258195
v -0.362941 0.620498 0.070817
v -0.352534 0.621248 0.067273
v -0.319107 0.711469 0.175091
v -0.326705 0.714337 0.182539
v -0.325333 0.711792 -0.194248
v -0.317901 0.708881 -0.186651
v -0.352515 0.621300 -0.067341
v -0.362941 0.620498 -0.070817
v -0.364942 0.541580 -0.024888
v -0.354620 0.543321 -0.021448
v -0.362373 0.543412 0.000000
v -0.373238 0.541580 0.000000
v -0.373238 0.541580 0.000000
v -0.362373 0.543412 0.000000
v -0.354620 0.543321 0.021448
v -0.364942 0.541580 0.024888
v -0.364942 0.541580 0.024888
v -0.354620 0.543321 0.021448
v -0.352534 0.621248 0.067273
v -0.362941 0.620498 0.070817
v -0.362941 0.620498 -0.070817
v -0.352515 0.621300 -0.067341
v -0.354620 0.543321 -0.021448
v -0.364942 0.541580 -0.024888
v -0.189441 0.589527 -0.243178
v -0.185957 0.589671 -0.232725
v -0.317901 0.708881 -0.186651
v -0.325333 0.711792 -0.194248
v 0.063162 0.711792 -0.194248
v 0.055928 0.708531 -0.186603
v -0.076214 0.589671 -0.232725
v -0.072730 0.589527 -0.243178
v -0.106978 0.519561 -0.246983
v -0.110444 0.520692 -0.236585
v -0.131085 0.520753 -0.244065
v -0.131085 0.519561 -0.255019
v -0.131085 0.519561 -0.255019
v -0.131085 0.520753 -0.244065
v -0.151727 0.520692 -0.236585
v -0.155193 0.519561 -0.246983
v -0.155193 0.519561 -0.246983
v -0.151727 0.520692 -0.236585
v -0.185957 0.589671 -0.232725
v -0.189441 0.589527 -0.243178
v -0.072730 0.589527 -0.243178
v -0.076214 0.589671 -0.232725
v -0.110444 0.520692 -0.236585
v -0.106978 0.519561 -0.246983
v 0.108393 0.651333 -0.087799
v 0.097938 0.650213 -0.084504
v 0.055928 0.708531 -0.186603
v 0.063162 0.711792 -0.194248
v 0.061786 0.716083 0.182944
v 0.054401 0.712968 0.175383
v 0.092761 0.648619 0.079792
v 0.103119 0.649338 0.083480
v 0.125693 0.564570 0.028793
v 0.115315 0.564121 0.025116
v 0.124266 0.564018 0.002712
v 0.135275 0.564269 0.003117
v 0.116971 0.563425 -0.020053
v 0.127542 0.563440 -0.023164
v 0.127542 0.563440 -0.023164
v 0.116971 0.563425 -0.020053
v 0.097938 0.650213 -0.084504
v 0.108393 0.651333 -0.087799
v 0.103119 0.649338 0.083480
v 0.092761 0.648619 0.079792
v 0.115315 0.564121 0.025116
v 0.125693 0.564570 0.028793
vn 0.943474 0.105160 0.314322
vn 0.943474 0.105160 0.314322
vn 0.943474 0.105160 0.314322
vn 0.943474 0.105160 0.314322
vn 0.868865 0.354269 0.345785
vn 0.868865 0.354269 0.345785
vn 0.868865 0.354269 0.345785
vn 0.868865 0.354269 0.345785
vn 0.868865 0.354269 -0.345785
vn 0.868865 0.354269 -0.345785
vn 0.868865 0.354269 -0.345785
vn 0.868865 0.354269 -0.345785
vn 0.943474 0.105159 -0.314322
vn 0.943474 0.105159 -0.314322
vn 0.943474 0.105159 -0.314322
vn 0.943474 0.105159 -0.314322
vn 0.314911 0.070995 -0.946462
vn 0.314911 0.070995 -0.946462
vn 0.314911 0.070995 -0.946462
vn 0.314911 0.070995 -0.946462
vn 0.345785 0.354269 -0.868865
vn 0.345785 0.354269 -0.868865
vn 0.345785 0.354269 -0.868865
vn 0.345785 0.354269 -0.868865
vn -0.345785 0.354269 -0.868865
vn -0.345785 0.354269 -0.868865
vn -0.345785 0.354269 -0.868865
vn -0.345785 0.354269 -0.868865
vn -0.317493 0.033600 -0.947665
vn -0.317493 0.033600 -0.947665
vn -0.317493 0.033600 -0.947665
vn -0.317493 0.033600 -0.947665
vn -0.322628 0.031051 -0.946017
vn -0.322628 0.031051 -0.946017
vn -0.332149 0.016468 -0.943083
vn -0.332149 0.016468 -0.943083
vn -0.343030 -0.013803 -0.939223
vn -0.343030 -0.013803 -0.939223
vn -0.948928 -0.005539 -0.315445
vn -0.948928 -0.005539 -0.315445
vn -0.948928 -0.005539 -0.315445
vn -0.948928 -0.005539 -0.315445
vn -0.868865 0.354269 -0.345785
vn -0.868865 0.354269 -0.345785
vn -0.868865 0.354269 -0.345785
vn -0.868865 0.354269 -0.345785
vn -0.868865 0.354270 0.345785
vn -0.868865 0.354270 0.345785
vn -0.868865 0.354270 0.345785
vn -0.868865 0.354270 0.345785
vn -0.948928 -0.005539 0.315445
vn -0.948928 -0.005539 0.315445
vn -0.948928 -0.005539 0.315445
vn -0.948928 -0.005539 0.315445
vn -0.317493 0.033601 0.947665
vn -0.317493 0.033601 0.947665
vn -0.317493 0.033601 0.947665
vn -0.317493 0.033601 0.947665
vn -0.322628 0.031051 0.946017
vn -0.322628 0.031051 0.946017
vn -0.332149 0.016468 0.943083
vn -0.332149 0.016468 0.943083
vn -0.343030 -0.013803 0.939223
vn -0.343030 -0.013803 0.939223
vn -0.345785 0.354269 0.868865
vn -0.345785 0.354269 0.868865
vn -0.345785 0.354269 0.868865
vn -0.345785 0.354269 0.868865
vn 0.345785 0.354269 0.868865
vn 0.345785 0.354269 0.868865
vn 0.345785 0.354269 0.868865
vn 0.345785 0.354269 0.868865
vn 0.314911 0.070995 0.946462
vn 0.314911 0.070995 0.946462
vn 0.314911 0.070995 0.946462
vn 0.314911 0.070995 0.946462
vn 0.303478 0.147997 -0.941275
vn 0.303478 0.147997 -0.941275
vn 0.303478 0.147997 -0.941275
vn 0.303478 0.147997 -0.941275
vn 0.273234 0.224597 -0.935360
vn 0.273234 0.224597 -0.935360
vn 0.273234 0.224597 -0.935360
vn 0.273234 0.224597 -0.935360
vn -0.362020 0.859002 -0.362019
vn -0.362020 0.859002 -0.362019
vn -0.362020 0.859002 -0.362019
vn -0.362020 0.859002 -0.362019
vn 0.362019 0.859002 -0.362019
vn 0.362019 0.859002 -0.362019
vn 0.362019 0.859002 -0.362019
vn 0.362019 0.859002 -0.362019
vn 0.362020 0.859002 0.362019
vn 0.362020 0.859002 0.362019
vn 0.362020 0.859002 0.362019
vn 0.362020 0.859002 0.362019
vn -0.362019 0.859002 0.362019
vn -0.362019 0.859002 0.362019
vn -0.362019 0.859002 0.362019
vn -0.362019 0.859002 0.362019
vn -0.898774 -0.313540 -0.306428
vn -0.898774 -0.313540 -0.306428
vn -0.898774 -0.313540 -0.306428
vn -0.898774 -0.313540 -0.306428
vn -0.898774 -0.313539 0.306428
vn -0.898774 -0.313539 0.306428
vn -0.898774 -0.313539 0.306428
vn -0.898774 -0.313539 0.306428
vn -0.814197 -0.492614 0.307270
vn -0.814197 -0.492614 0.307270
vn -0.814197 -0.492614 0.307270
vn -0.814197 -0.492614 0.307270
vn -0.814197 -0.492614 -0.307270
vn -0.814197 -0.492614 -0.307270
vn -0.814197 -0.492614 -0.307270
vn -0.814197 -0.492614 -0.307270
vn 0.914009 0.262773 0.309093
vn 0.914009 0.262773 0.309093
vn 0.914009 0.262773 0.309093
vn 0.914009 0.262773 0.309093
vn 0.914009 0.262773 -0.309093
vn 0.914009 0.262773 -0.309093
vn 0.914009 0.262773 -0.309093
vn 0.914009 0.262773 -0.309093
vn 0.853226 0.423603 -0.304247
vn 0.853226 0.423603 -0.304247
vn 0.853226 0.423603 -0.304247
vn 0.853226 0.423603 -0.304247
vn 0.853226 0.423603 0.304247
vn 0.853226 0.423603 0.304247
vn 0.853226 0.423603 0.304247
vn 0.853226 0.423603 0.304247
vn -0.946119 -0.080066 -0.313765
vn -0.946119 -0.080066 -0.313765
vn -0.946119 -0.080066 -0.313765
vn -0.946119 -0.080066 -0.313765
vn -0.946119 -0.080066 0.313765
vn -0.946119 -0.080066 0.313765
vn -0.946119 -0.080066 0.313765
vn -0.946119 -0.080066 0.313765
vn -0.932700 -0.182796 0.310895
vn -0.932700 -0.182796 0.310895
vn -0.932700 -0.182796 0.310895
vn -0.932700 -0.182796 0.310895
vn -0.932700 -0.182796 -0.310895
vn -0.932700 -0.182796 -0.310895
vn -0.932700 -0.182796 -0.310895
vn -0.932700 -0.182796 -0.310895
vn 0.303478 0.147997 0.941275
vn 0.303478 0.147997 0.941275
vn 0.303478 0.147997 0.941275
vn 0.303478 0.147997 0.941275
vn 0.273235 0.224597 0.935360
vn 0.273235 0.224597 0.935360
vn 0.273235 0.224597 0.935360
vn 0.273235 0.224597 0.935360
vn 0.219055 0.299887 -0.928484
vn 0.219055 0.299887 -0.928484
vn 0.219055 0.299887 -0.928484
vn 0.219055 0.299887 -0.928484
vn -0.288125 -0.142124 -0.946987
vn -0.288125 -0.142124 -0.946987
vn -0.288125 -0.142124 -0.946987
vn -0.288125 -0.142124 -0.946987
vn 0.242672 0.227423 -0.943074
vn 0.242672 0.227423 -0.943074
vn 0.242672 0.227423 -0.943074
vn 0.242672 0.227423 -0.943074
vn 0.219055 0.299887 0.928484
vn 0.219055 0.299887 0.928484
vn 0.219055 0.299887 0.928484
vn 0.219055 0.299887 0.928484
vn 0.242672 0.227423 0.943074
vn 0.242672 0.227423 0.943074
vn 0.242672 0.227423 0.943074
vn 0.242672 0.227423 0.943074
vn -0.288125 -0.142124 0.946987
vn -0.288125 -0.142124 0.946987
vn -0.288125 -0.142124 0.946987
vn -0.288125 -0.142124 0.946987
vn 0.785659 -0.572819 -0.233705
vn 0.785659 -0.572819 -0.233705
vn 0.785659 -0.572819 -0.233705
vn 0.785659 -0.572819 -0.233705
vn 0.437827 -0.870963 -0.223004
vn 0.437827 -0.870963 -0.223004
vn 0.437827 -0.870963 -0.223004
vn 0.437827 -0.870963 -0.223004
vn 0.437827 -0.870963 0.223004
vn 0.437827 -0.870963 0.223004
vn 0.437827 -0.870963 0.223004
vn 0.437827 -0.870963 0.223004
vn 0.785659 -0.572819 0.233705
vn 0.785659 -0.572819 0.233705
vn 0.785659 -0.572819 0.233705
vn 0.785659 -0.572819 0.233705
vn 0.961366 -0.053496 -0.270027
vn 0.961366 -0.053496 -0.270027
vn 0.961366 -0.053496 -0.270027
vn 0.961366 -0.053496 -0.270027
vn 0.961366 -0.053496 0.270027
vn 0.961366 -0.053496 0.270027
vn 0.961366 -0.053496 0.270027
vn 0.961366 -0.053496 0.270027
vn 0.860997 0.405952 0.306411
vn 0.860997 0.405952 0.306411
vn 0.860997 0.405952 0.306411
vn 0.860997 0.405952 0.306411
vn 0.860997 0.405952 -0.306411
vn 0.860997 0.405952 -0.306411
vn 0.860997 0.405952 -0.306411
vn 0.860997 0.405952 -0.306411
vn 0.266693 -0.708613 -0.653255
vn 0.266693 -0.708613 -0.653255
vn 0.266693 -0.708613 -0.653255
vn 0.266693 -0.708613 -0.653255
vn 0.643293 -0.355356 -0.678157
vn 0.643293 -0.355356 -0.678157
vn 0.643293 -0.355356 -0.678157
vn 0.643293 -0.355356 -0.678157
vn 0.404298 -0.003486 -0.914621
vn 0.404298 -0.003486 -0.914621
vn 0.404298 -0.003486 -0.914621
vn 0.404298 -0.003486 -0.914621
vn -0.068746 -0.400950 -0.913517
vn -0.068746 -0.400950 -0.913517
vn -0.068746 -0.400950 -0.913517
vn -0.068746 -0.400950 -0.913517
vn -0.020676 -0.969754 0.243207
vn -0.020676 -0.969754 0.243207
vn -0.020676 -0.969754 0.243207
vn -0.020676 -0.969754 0.243207
vn -0.020676 -0.969754 -0.243207
vn -0.020676 -0.969754 -0.243207
vn -0.020676 -0.969754 -0.243207
vn -0.020676 -0.969754 -0.243207
vn -0.545203 -0.783162 -0.299017
vn -0.545203 -0.783162 -0.299017
vn -0.545203 -0.783162 -0.299017
vn -0.545203 -0.783162 -0.299017
vn -0.545203 -0.783162 0.299017
vn -0.545203 -0.783162 0.299017
vn -0.545203 -0.783162 0.299017
vn -0.545203 -0.783162 0.299017
vn 0.643293 -0.355356 0.678157
vn 0.643293 -0.355356 0.678157
vn 0.643293 -0.355356 0.678157
vn 0.643293 -0.355356 0.678157
vn 0.266693 -0.708613 0.653255
vn 0.266693 -0.708613 0.653255
vn 0.266693 -0.708613 0.653255
vn 0.266693 -0.708613 0.653255
vn -0.068745 -0.400950 0.913517
vn -0.068745 -0.400950 0.913517
vn -0.068745 -0.400950 0.913517
vn -0.068745 -0.400950 0.913517
vn 0.404298 -0.003486 0.914621
vn 0.404298 -0.003486 0.914621
vn 0.404298 -0.003486 0.914621
vn 0.404298 -0.003486 0.914621
vn 0.745738 0.595129 0.299493
vn 0.745738 0.595129 0.299493
vn 0.745738 0.595129 0.299493
vn 0.745738 0.595129 0.299493
vn 0.739150 0.598474 0.309010
vn 0.739150 0.598474 0.309010
vn 0.745738 0.595129 -0.299493
vn 0.745738 0.595129 -0.299493
vn 0.745738 0.595129 -0.299493
vn 0.745738 0.595129 -0.299493
vn 0.739149 0.598474 -0.309010
vn 0.739149 0.598474 -0.309010
vn 0.868707 0.345017 0.355403
vn 0.868707 0.345017 0.355403
vn 0.868707 0.345017 0.355403
vn 0.868707 0.345017 0.355403
vn 0.868865 0.354269 -0.345785
vn 0.868865 0.354269 -0.345785
vn 0.868865 0.354269 -0.345785
vn 0.868865 0.354269 -0.345785
vn 0.345785 0.354269 -0.868865
vn 0.345785 0.354269 -0.868865
vn 0.345785 0.354269 -0.868865
vn 0.345785 0.354269 -0.868865
vn -0.345785 0.354269 -0.868865
vn -0.345785 0.354269 -0.868865
vn -0.345785 0.354269 -0.868865
vn -0.345785 0.354269 -0.868865
vn -0.868865 0.354269 -0.345785
vn -0.868865 0.354269 -0.345785
vn -0.868865 0.354269 -0.345785
vn -0.868865 0.354269 -0.345785
vn -0.868798 0.349247 0.351022
vn -0.868798 0.349247 0.351022
vn -0.868798 0.349247 0.351022
vn -0.868798 0.349247 0.351022
vn -0.347989 0.311708 0.884161
vn -0.347989 0.311708 0.884161
vn -0.347989 0.311708 0.884161
vn -0.347989 0.311708 0.884161
vn 0.345356 0.308795 0.886214
vn 0.345356 0.308795 0.886214
vn 0.345356 0.308795 0.886214
vn 0.345356 0.308795 0.886214
vn -0.400473 0.869466 -0.289225
vn -0.400473 0.869466 -0.289225
vn -0.400473 0.869466 -0.289225
vn -0.400473 0.869466 -0.289225
vn -0.289226 0.869465 -0.400473
vn -0.289226 0.869465 -0.400473
vn -0.289226 0.869465 -0.400473
vn -0.289226 0.869465 -0.400473
vn 0.400474 0.869465 0.289225
vn 0.400474 0.869465 0.289225
vn 0.400474 0.869465 0.289225
vn 0.400474 0.869465 0.289225
vn 0.289226 0.869465 -0.400473
vn 0.289226 0.869465 -0.400473
vn 0.289226 0.869465 -0.400473
vn 0.289226 0.869465 -0.400473
vn 0.313523 0.108158 0.943401
vn 0.313523 0.108158 0.943401
vn 0.313523 0.108158 0.943401
vn 0.313523 0.108158 0.943401
vn 0.312662 0.090281 0.945564
vn 0.312662 0.090281 0.945564
vn -0.317963 0.099835 0.942832
vn -0.317963 0.099835 0.942832
vn -0.317963 0.099835 0.942832
vn -0.317963 0.099835 0.942832
vn -0.319705 0.088614 0.943364
vn -0.319705 0.088614 0.943364
vn -0.945321 -0.029065 0.324843
vn -0.945321 -0.029065 0.324843
vn -0.945321 -0.029065 0.324843
vn -0.945321 -0.029065 0.324843
vn -0.948043 -0.036723 -0.316015
vn -0.948043 -0.036723 -0.316015
vn -0.948043 -0.036723 -0.316015
vn -0.948043 -0.036723 -0.316015
vn -0.936772 -0.157966 0.312258
vn -0.936772 -0.157966 0.312258
vn -0.936772 -0.157966 0.312258
vn -0.936772 -0.157966 0.312258
vn -0.936772 -0.157966 -0.312258
vn -0.936772 -0.157966 -0.312258
vn -0.936772 -0.157966 -0.312258
vn -0.936772 -0.157966 -0.312258
vn -0.316102 0.028174 -0.948307
vn -0.316102 0.028174 -0.948307
vn -0.316102 0.028174 -0.948307
vn -0.316102 0.028174 -0.948307
vn 0.316102 0.028174 -0.948307
vn 0.316102 0.028174 -0.948307
vn 0.316102 0.028174 -0.948307
vn 0.316102 0.028174 -0.948307
vn -0.314557 -0.102648 -0.943672
vn -0.314557 -0.102648 -0.943672
vn -0.314557 -0.102648 -0.943672
vn -0.314557 -0.102648 -0.943672
vn 0.314557 -0.102648 -0.943672
vn 0.314557 -0.102648 -0.943672
vn 0.314557 -0.102648 -0.943672
vn 0.314557 -0.102648 -0.943672
vn 0.942560 0.137674 -0.304346
vn 0.942560 0.137674 -0.304346
vn 0.942560 0.137674 -0.304346
vn 0.942560 0.137674 -0.304346
vn 0.939192 0.075071 0.335087
vn 0.939192 0.075071 0.335087
vn 0.939192 0.075071 0.335087
vn 0.939192 0.075071 0.335087
vn 0.941790 0.040727 0.333725
vn 0.941790 0.040727 0.333725
vn 0.959316 0.001379 -0.282331
vn 0.959316 0.001379 -0.282331
vn 0.959316 0.001379 -0.282331
vn 0.959316 0.001379 -0.282331
vn 0.362744 0.201548 -0.909833
vn 0.362744 0.201548 -0.909833
vn 0.362744 0.201548 -0.909833
vn 0.362744 0.201548 -0.909833
vn -0.909833 0.201548 -0.362743
vn -0.909833 0.201548 -0.362743
vn -0.909833 0.201548 -0.362743
vn -0.909833 0.201548 -0.362743
vn -0.362744 0.201548 0.909833
vn -0.362744 0.201548 0.909833
vn -0.362744 0.201548 0.909833
vn -0.362744 0.201548 0.909833
vn 0.909833 0.201548 -0.362744
vn 0.909833 0.201548 -0.362744
vn 0.909833 0.201548 -0.362744
vn 0.909833 0.201548 -0.362744
vn 0.289225 0.869466 0.400473
vn 0.289225 0.869466 0.400473
vn 0.289225 0.869466 0.400473
vn 0.289225 0.869466 0.400473
vn -0.400474 0.869465 0.289224
vn -0.400474 0.869465 0.289224
vn -0.400474 0.869465 0.289224
vn -0.400474 0.869465 0.289224
vn -0.289225 0.869466 0.400473
vn -0.289225 0.869466 0.400473
vn -0.289225 0.869466 0.400473
vn -0.289225 0.869466 0.400473
vn 0.400473 0.869466 -0.289225
vn 0.400473 0.869466 -0.289225
vn 0.400473 0.869466 -0.289225
vn 0.400473 0.869466 -0.289225
vn -0.293290 0.909924 -0.293291
vn -0.293290 0.909924 -0.293291
vn -0.293290 0.909924 -0.293291
vn -0.293290 0.909924 -0.293291
vn 0.293289 0.909924 -0.293291
vn 0.293289 0.909924 -0.293291
vn 0.293289 0.909924 -0.293291
vn 0.293289 0.909924 -0.293291
vn 0.293290 0.909924 0.293291
vn 0.293290 0.909924 0.293291
vn 0.293290 0.909924 0.293291
vn 0.293290 0.909924 0.293291
vn -0.293289 0.909924 0.293291
vn -0.293289 0.909924 0.293291
vn -0.293289 0.909924 0.293291
vn -0.293289 0.909924 0.293291
vn 0.909833 0.201548 0.362744
vn 0.909833 0.201548 0.362744
vn 0.909833 0.201548 0.362744
vn 0.909833 0.201548 0.362744
vn 0.362744 0.201548 0.909833
vn 0.362744 0.201548 0.909833
vn 0.362744 0.201548 0.909833
vn 0.362744 0.201548 0.909833
vn -0.909833 0.201548 0.362743
vn -0.909833 0.201548 0.362743
vn -0.909833 0.201548 0.362743
vn -0.909833 0.201548 0.362743
vn -0.362744 0.201548 -0.909833
vn -0.362744 0.201548 -0.909833
vn -0.362744 0.201548 -0.909833
vn -0.362744 0.201548 -0.909833
vn -0.869268 -0.342047 -0.356900
vn -0.869268 -0.342047 -0.356900
vn -0.869268 -0.342047 -0.356900
vn -0.869268 -0.342047 -0.356900
vn -0.869234 -0.352046 0.347125
vn -0.869234 -0.352046 0.347125
vn -0.869234 -0.352046 0.347125
vn -0.869234 -0.352046 0.347125
vn -0.347690 -0.351509 0.869225
vn -0.347690 -0.351509 0.869225
vn -0.347690 -0.351509 0.869225
vn -0.347690 -0.351509 0.869225
vn 0.347432 -0.351753 0.869230
vn 0.347432 -0.351753 0.869230
vn 0.347432 -0.351753 0.869230
vn 0.347432 -0.351753 0.869230
vn 0.869051 -0.352187 0.347440
vn 0.869051 -0.352187 0.347440
vn 0.869051 -0.352187 0.347440
vn 0.869051 -0.352187 0.347440
vn 0.869014 -0.346682 -0.353026
vn 0.869014 -0.346682 -0.353026
vn 0.869014 -0.346682 -0.353026
vn 0.869014 -0.346682 -0.353026
vn 0.349199 -0.308475 -0.884818
vn 0.349199 -0.308475 -0.884818
vn 0.349199 -0.308475 -0.884818
vn 0.349199 -0.308475 -0.884818
vn -0.346823 -0.305271 -0.886862
vn -0.346823 -0.305271 -0.886862
vn -0.346823 -0.305271 -0.886862
vn -0.346823 -0.305271 -0.886862
vn 0.411603 -0.866631 0.282018
vn 0.411603 -0.866631 0.282018
vn 0.411603 -0.866631 0.282018
vn 0.411603 -0.866631 0.282018
vn 0.281953 -0.866632 0.411646
vn 0.281953 -0.866632 0.411646
vn 0.281953 -0.866632 0.411646
vn 0.281953 -0.866632 0.411646
vn -0.411406 -0.866932 -0.281378
vn -0.411406 -0.866932 -0.281378
vn -0.411406 -0.866932 -0.281378
vn -0.411406 -0.866932 -0.281378
vn -0.281898 -0.866633 0.411682
vn -0.281898 -0.866633 0.411682
vn -0.281898 -0.866633 0.411682
vn -0.281898 -0.866633 0.411682
vn -0.313521 -0.100022 -0.944299
vn -0.313521 -0.100022 -0.944299
vn -0.313521 -0.100022 -0.944299
vn -0.313521 -0.100022 -0.944299
vn -0.321960 -0.086376 -0.942805
vn -0.321960 -0.086376 -0.942805
vn 0.317640 -0.091532 -0.943783
vn 0.317640 -0.091532 -0.943783
vn 0.317640 -0.091532 -0.943783
vn 0.317640 -0.091532 -0.943783
vn 0.328846 -0.084571 -0.940589
vn 0.328846 -0.084571 -0.940589
vn 0.945157 0.038138 -0.324381
vn 0.945157 0.038138 -0.324381
vn 0.945157 0.038138 -0.324381
vn 0.945157 0.038138 -0.324381
vn 0.948023 0.046551 0.314778
vn 0.948023 0.046551 0.314778
vn 0.948023 0.046551 0.314778
vn 0.948023 0.046551 0.314778
vn 0.932614 0.161177 -0.322882
vn 0.932614 0.161177 -0.322882
vn 0.932614 0.161177 -0.322882
vn 0.932614 0.161177 -0.322882
vn 0.932520 0.161313 0.323085
vn 0.932520 0.161313 0.323085
vn 0.932520 0.161313 0.323085
vn 0.932520 0.161313 0.323085
vn 0.315807 -0.022101 0.948566
vn 0.315807 -0.022101 0.948566
vn 0.315807 -0.022101 0.948566
vn 0.315807 -0.022101 0.948566
vn -0.315773 -0.022084 0.948578
vn -0.315773 -0.022084 0.948578
vn -0.315773 -0.022084 0.948578
vn -0.315773 -0.022084 0.948578
vn 0.327432 0.106214 0.938886
vn 0.327432 0.106214 0.938886
vn 0.327432 0.106214 0.938886
vn 0.327432 0.106214 0.938886
vn -0.327432 0.106214 0.938886
vn -0.327432 0.106214 0.938886
vn -0.327432 0.106214 0.938886
vn -0.327432 0.106214 0.938886
vn -0.944332 -0.125978 0.303919
vn -0.944332 -0.125978 0.303919
vn -0.944332 -0.125978 0.303919
vn -0.944332 -0.125978 0.303919
vn -0.939968 -0.063394 -0.335324
vn -0.939968 -0.063394 -0.335324
vn -0.939968 -0.063394 -0.335324
vn -0.939968 -0.063394 -0.335324
vn -0.938638 -0.037131 -0.342901
vn -0.938638 -0.037131 -0.342901
vn -0.956675 0.002379 0.291148
vn -0.956675 0.002379 0.291148
vn -0.956675 0.002379 0.291148
vn -0.956675 0.002379 0.291148
vn -0.369829 -0.208499 0.905403
vn -0.369829 -0.208499 0.905403
vn -0.369829 -0.208499 0.905403
vn -0.369829 -0.208499 0.905403
vn 0.905403 -0.208499 0.369829
vn 0.905403 -0.208499 0.369829
vn 0.905403 -0.208499 0.369829
vn 0.905403 -0.208499 0.369829
vn 0.369829 -0.208499 -0.905403
vn 0.369829 -0.208499 -0.905403
vn 0.369829 -0.208499 -0.905403
vn 0.369829 -0.208499 -0.905403
vn -0.905403 -0.208499 0.369829
vn -0.905403 -0.208499 0.369829
vn -0.905403 -0.208499 0.369829
vn -0.905403 -0.208499 0.369829
vn -0.281983 -0.866854 -0.411157
vn -0.281983 -0.866854 -0.411157
vn -0.281983 -0.866854 -0.411157
vn -0.281983 -0.866854 -0.411157
vn 0.411481 -0.866898 -0.281376
vn 0.411481 -0.866898 -0.281376
vn 0.411481 -0.866898 -0.281376
vn 0.411481 -0.866898 -0.281376
vn 0.281980 -0.866822 -0.411226
vn 0.281980 -0.866822 -0.411226
vn 0.281980 -0.866822 -0.411226
vn 0.281980 -0.866822 -0.411226
vn -0.411603 -0.866631 0.282018
vn -0.411603 -0.866631 0.282018
vn -0.411603 -0.866631 0.282018
vn -0.411603 -0.866631 0.282018
vn 0.278966 -0.918889 0.278964
vn 0.278966 -0.918889 0.278964
vn 0.278966 -0.918889 0.278964
vn 0.278966 -0.918889 0.278964
vn -0.278966 -0.918889 0.278964
vn -0.278966 -0.918889 0.278964
vn -0.278966 -0.918889 0.278964
vn -0.278966 -0.918889 0.278964
vn -0.278962 -0.918890 -0.278964
vn -0.278962 -0.918890 -0.278964
vn -0.278962 -0.918890 -0.278964
vn -0.278962 -0.918890 -0.278964
vn 0.278962 -0.918890 -0.278964
vn 0.278962 -0.918890 -0.278964
vn 0.278962 -0.918890 -0.278964
vn 0.278962 -0.918890 -0.278964
vn -0.905403 -0.208499 -0.369829
vn -0.905403 -0.208499 -0.369829
vn -0.905403 -0.208499 -0.369829
vn -0.905403 -0.208499 -0.369829
vn -0.369829 -0.208499 -0.905403
vn -0.369829 -0.208499 -0.905403
vn -0.369829 -0.208499 -0.905403
vn -0.369829 -0.208499 -0.905403
vn 0.905403 -0.208499 -0.369828
vn 0.905403 -0.208499 -0.369828
vn 0.905403 -0.208499 -0.369828
vn 0.905403 -0.208499 -0.369828
vn 0.369829 -0.208499 0.905403
vn 0.369829 -0.208499 0.905403
vn 0.369829 -0.208499 0.905403
vn 0.369829 -0.208499 0.905403
vn 0.575135 -0.802874 -0.156885
vn 0.575135 -0.802874 -0.156885
vn 0.575135 -0.802874 -0.156885
vn 0.575135 -0.802874 -0.156885
vn -0.568017 -0.803898 -0.176368
vn -0.568017 -0.803898 -0.176368
vn -0.568017 -0.803898 -0.176368
vn -0.568017 -0.803898 -0.176368
vn 0.019641 -0.995076 0.097147
vn 0.019641 -0.995076 0.097147
vn 0.019641 -0.995076 0.097147
vn 0.019641 -0.995076 0.097147
vn 0.006028 -0.995582 0.093699
vn 0.006028 -0.995582 0.093699
vn 0.760917 -0.620882 -0.188442
vn 0.760917 -0.620882 -0.188442
vn 0.760917 -0.620882 -0.188442
vn 0.760917 -0.620882 -0.188442
vn -0.752062 -0.630362 -0.192475
vn -0.752062 -0.630362 -0.192475
vn -0.752062 -0.630362 -0.192475
vn -0.752062 -0.630362 -0.192475
vn 0.257278 -0.779156 0.571599
vn 0.257278 -0.779156 0.571599
vn 0.257278 -0.779156 0.571599
vn 0.257278 -0.779156 0.571599
vn 0.233003 -0.814695 -0.531019
vn 0.233003 -0.814695 -0.531019
vn 0.233003 -0.814695 -0.531019
vn 0.233003 -0.814695 -0.531019
vn 0.157103 -0.985973 0.056361
vn 0.157103 -0.985973 0.056361
vn 0.157103 -0.985973 0.056361
vn 0.157103 -0.985973 0.056361
vn 0.157103 -0.985973 -0.056361
vn 0.157103 -0.985973 -0.056361
vn 0.157103 -0.985973 -0.056361
vn 0.157103 -0.985973 -0.056361
vn 0.331163 -0.482859 0.810665
vn 0.331163 -0.482859 0.810665
vn 0.331163 -0.482859 0.810665
vn 0.331163 -0.482859 0.810665
vn 0.329571 -0.483285 -0.811060
vn 0.329571 -0.483285 -0.811060
vn 0.329571 -0.483285 -0.811060
vn 0.329571 -0.483285 -0.811060
vn -0.599520 -0.761680 0.245803
vn -0.599520 -0.761680 0.245803
vn -0.599520 -0.761680 0.245803
vn -0.599520 -0.761680 0.245803
vn 0.605520 -0.762688 0.227274
vn 0.605520 -0.762688 0.227274
vn 0.605520 -0.762688 0.227274
vn 0.605520 -0.762688 0.227274
vn -0.036765 -0.994089 0.102152
vn -0.036765 -0.994089 0.102152
vn -0.036765 -0.994089 0.102152
vn -0.036765 -0.994089 0.102152
vn 0.036767 -0.994089 0.102152
vn 0.036767 -0.994089 0.102152
vn 0.036767 -0.994089 0.102152
vn 0.036767 -0.994089 0.102152
vn -0.846325 -0.434126 0.308657
vn -0.846325 -0.434126 0.308657
vn -0.846325 -0.434126 0.308657
vn -0.846325 -0.434126 0.308657
vn 0.846325 -0.434126 0.308656
vn 0.846325 -0.434126 0.308656
vn 0.846325 -0.434126 0.308656
vn 0.846325 -0.434126 0.308656
vn -0.073032 -0.879458 -0.470341
vn -0.073032 -0.879458 -0.470341
vn -0.073032 -0.879458 -0.470341
vn -0.073032 -0.879458 -0.470341
vn -0.141389 -0.847409 0.511769
vn -0.141389 -0.847409 0.511769
vn -0.141389 -0.847409 0.511769
vn -0.141389 -0.847409 0.511769
vn 0.028949 -0.999390 0.019532
vn 0.028949 -0.999390 0.019532
vn 0.028949 -0.999390 0.019532
vn 0.028949 -0.999390 0.019532
vn 0.015351 -0.999587 0.024287
vn 0.015351 -0.999587 0.024287
vn -0.200577 -0.610216 -0.766424
vn -0.200577 -0.610216 -0.766424
vn -0.200577 -0.610216 -0.766424
vn -0.200577 -0.610216 -0.766424
vn -0.245937 -0.571427 0.782934
vn -0.245937 -0.571427 0.782934
vn -0.245937 -0.571427 0.782934
vn -0.245937 -0.571427 0.782934
g Eggplant_Purple
usemtl Purple
f 1 2 3
f 1 3 4
f 5 6 7
f 5 7 8
f 9 10 11
f 9 11 12
f 13 14 15
f 13 15 16
f 17 18 19
f 17 19 20
f 21 22 23
f 21 23 24
f 25 26 27
f 25 27 28
f 29 30 31
f 29 32 30
f 33 30 32
f 33 34 30
f 33 35 34
f 33 36 35
f 37 35 36
f 37 38 35
f 39 40 41
f 39 41 42
f 43 44 45
f 43 45 46
f 47 48 49
f 47 49 50
f 51 52 53
f 51 53 54
f 55 56 57
f 55 57 58
f 59 58 57
f 59 57 60
f 59 60 61
f 59 61 62
f 63 62 61
f 63 61 64
f 65 66 67
f 65 67 68
f 69 70 71
f 69 71 72
f 73 74 75
f 73 75 76
f 77 78 79
f 77 79 80
f 81 82 83
f 81 83 84
f 85 86 87
f 85 87 88
f 89 90 91
f 89 91 92
f 93 94 95
f 93 95 96
f 97 98 99
f 97 99 100
f 101 102 103
f 101 103 104
f 105 106 107
f 105 107 108
f 109 110 111
f 109 111 112
f 113 114 115
f 113 115 116
f 117 118 119
f 117 119 120
f 121 122 123
f 121 123 124
f 125 126 127
f 125 127 128
f 129 130 131
f 129 131 132
f 133 134 135
f 133 135 136
f 137 138 139
f 137 139 140
f 141 142 143
f 141 143 144
f 145 146 147
f 145 147 148
f 149 150 151
f 149 151 152
f 153 154 155
f 153 155 156
f 157 158 159
f 157 159 160
f 161 162 163
f 161 163 164
f 165 166 167
f 165 167 168
f 169 170 171
f 169 171 172
f 173 174 175
f 173 175 176
f 177 178 179
f 177 179 180
f 181 182 183
f 181 183 184
f 185 186 187
f 185 187 188
f 189 190 191
f 189 191 192
f 193 194 195
f 193 195 196
f 197 198 199
f 197 199 200
f 201 202 203
f 201 203 204
f 205 206 207
f 205 207 208
f 209 210 211
f 209 211 212
f 213 214 215
f 213 215 216
f 217 218 219
f 217 219 220
f 221 222 223
f 221 223 224
f 225 226 227
f 225 227 228
f 229 230 231
f 229 231 232
f 233 234 235
f 233 235 236
f 237 238 239
f 237 239 240
f 241 242 243
f 241 243 244
f 245 246 247
f 245 247 248
f 249 250 251
f 249 251 252
f 253 254 255
f 253 255 256
f 257 258 259
f 257 259 260
f 261 262 263
f 261 263 264
f 261 264 265
f 261 265 266
f 267 268 269
f 267 270 268
f 267 271 270
f 267 272 271
g Eggplant_DarkGreen
usemtl DarkGreen
f 273 274 275
f 273 275 276
f 277 278 279
f 277 279 280
f 281 282 283
f 281 283 284
f 285 286 287
f 285 287 288
f 289 290 291
f 289 291 292
f 293 294 295
f 293 295 296
f 297 298 299
f 297 299 300
f 301 302 303
f 301 303 304
f 305 306 307
f 305 307 308
f 309 310 311
f 309 311 312
f 313 314 315
f 313 315 316
f 317 318 319
f 317 319 320
f 321 322 323
f 321 324 322
f 324 325 322
f 324 326 325
f 327 328 329
f 327 330 328
f 330 331 328
f 330 332 331
f 333 334 335
f 333 335 336
f 337 338 339
f 337 339 340
f 341 342 343
f 341 343 344
f 345 346 347
f 345 347 348
f 349 350 351
f 349 351 352
f 353 354 355
f 353 355 356
f 357 358 359
f 357 359 360
f 361 362 363
f 361 363 364
f 365 366 367
f 365 367 368
f 369 370 371
f 369 372 370
f 372 373 370
f 372 374 373
f 375 376 377
f 375 377 378
f 379 380 381
f 379 381 382
f 383 384 385
f 383 385 386
f 387 388 389
f 387 389 390
f 391 392 393
f 391 393 394
f 395 396 397
f 395 397 398
f 399 400 401
f 399 401 402
f 403 404 405
f 403 405 406
f 407 408 409
f 407 409 410
f 411 412 413
f 411 413 414
f 415 416 417
f 415 417 418
f 419 420 421
f 419 421 422
f 423 424 425
f 423 425 426
f 427 428 429
f 427 429 430
f 431 432 433
f 431 433 434
f 435 436 437
f 435 437 438
f 439 440 441
f 439 441 442
f 443 444 445
f 443 445 446
f 447 448 449
f 447 449 450
f 451 452 453
f 451 453 454
f 455 456 457
f 455 457 458
f 459 460 461
f 459 461 462
f 463 464 465
f 463 465 466
f 467 468 469
f 467 469 470
f 471 472 473
f 471 473 474
f 475 476 477
f 475 477 478
f 479 480 481
f 479 481 482
f 483 484 485
f 483 485 486
f 487 488 489
f 487 489 490
f 491 492 493
f 491 493 494
f 494 493 495
f 494 495 496
f 497 498 499
f 497 499 500
f 500 499 501
f 500 501 502
f 503 504 505
f 503 505 506
f 507 508 509
f 507 509 510
f 511 512 513
f 511 513 514
f 515 516 517
f 515 517 518
f 519 520 521
f 519 521 522
f 523 524 525
f 523 525 526
f 527 528 529
f 527 529 530
f 531 532 533
f 531 533 534
f 535 536 537
f 535 537 538
f 539 540 541
f 539 541 542
f 542 541 543
f 542 543 544
f 545 546 547
f 545 547 548
f 549 550 551
f 549 551 552
f 553 554 555
f 553 555 556
f 557 558 559
f 557 559 560
f 561 562 563
f 561 563 564
f 565 566 567
f 565 567 568
f 569 570 571
f 569 571 572
f 573 574 575
f 573 575 576
f 577 578 579
f 577 579 580
f 581 582 583
f 581 583 584
f 585 586 587
f 585 587 588
f 589 590 591
f 589 591 592
f 593 594 595
f 593 595 596
f 597 598 599
f 597 599 600
f 601 602 603
f 601 603 604
f 605 606 607
f 605 607 608
f 609 610 611
f 609 611 612
f 613 614 615
f 613 615 616
f 617 618 619
f 617 619 620
f 621 622 623
f 621 623 624
f 624 623 625
f 624 625 626
f 627 628 629
f 627 629 630
f 631 632 633
f 631 633 634
f 635 636 637
f 635 637 638
f 639 640 641
f 639 641 642
f 643 644 645
f 643 645 646
f 647 648 649
f 647 649 650
f 651 652 653
f 651 653 654
f 655 656 657
f 655 657 658
f 659 660 661
f 659 661 662
f 663 664 665
f 663 665 666
f 667 668 669
f 667 669 670
f 671 672 673
f 671 673 674
f 675 676 677
f 675 677 678
f 679 680 681
f 679 681 682
f 683 684 685
f 683 685 686
f 687 688 689
f 687 689 690
f 691 692 693
f 691 693 694
f 694 693 695
f 694 695 696
f 697 698 699
f 697 699 700
f 701 702 703
f 701 703 704
