mtllib Materials.mtl
# Ultimate Food Pack - Fish
o Fish
v 1.500031 -0.023649 -0.061601
v 1.500527 -0.017955 -0.061728
v 1.499567 -0.023616 -0.049849
v -1.102332 0.070423 0.180041
v -0.786331 0.158444 0.003216
v -1.105884 0.131710 -0.006021
v -0.786331 0.158444 0.003216
v -0.843971 0.117585 -0.210301
v -1.105884 0.131710 -0.006021
v -1.329068 0.043043 -0.051030
v -1.330645 0.004050 -0.079982
v -1.335046 0.004024 -0.044023
v -1.010200 0.018319 -0.287920
v -1.076000 0.014283 -0.271987
v -1.057027 0.082116 -0.248067
v -0.939721 0.098539 -0.248706
v -1.010200 0.018319 -0.287920
v -1.057027 0.082116 -0.248067
v -1.334897 -0.019364 -0.044022
v -1.330496 -0.019337 -0.079981
v -1.316740 -0.023561 -0.007619
v 0.059523 -0.023176 0.372618
v 0.462546 -0.020251 0.300697
v 0.462452 0.028563 0.300697
v 0.059212 0.025646 0.372616
v -1.100194 -0.019382 0.193615
v -0.726995 -0.031008 0.353802
v -0.727342 0.023452 0.353799
v -1.100362 0.007056 0.193614
v -1.010200 0.018319 -0.287920
v -1.009895 -0.029540 -0.287918
v -1.075741 -0.026342 -0.271986
v -1.076000 0.014283 -0.271987
v -1.076000 0.014283 -0.271987
v -1.075741 -0.026342 -0.271986
v -1.330496 -0.019337 -0.079981
v -1.330645 0.004050 -0.079982
v -1.316740 -0.023561 -0.007619
v -1.241856 -0.021686 0.084343
v -1.242042 0.007544 0.084342
v -1.316944 0.008456 -0.007621
v -1.316944 0.008456 -0.007621
v -1.335046 0.004024 -0.044023
v -1.334897 -0.019364 -0.044022
v -1.316740 -0.023561 -0.007619
v -1.330645 0.004050 -0.079982
v -1.330496 -0.019337 -0.079981
v -1.334897 -0.019364 -0.044022
v -1.335046 0.004024 -0.044023
v -0.726995 -0.031008 0.353802
v -0.635073 -0.031605 0.366513
v -0.635435 0.025222 0.366510
v -0.727342 0.023452 0.353799
v -0.986525 0.012824 -0.271033
v -0.986292 -0.023743 -0.271031
v -1.009895 -0.029540 -0.287918
v -1.010200 0.018319 -0.287920
v -1.100362 0.007056 0.193614
v -1.182028 0.006758 0.137617
v -1.181857 -0.020130 0.137618
v -1.100194 -0.019382 0.193615
v -1.241856 -0.021686 0.084343
v -1.181857 -0.020130 0.137618
v -1.182028 0.006758 0.137617
v -1.242042 0.007544 0.084342
v -0.177941 -0.024689 0.374219
v 0.059523 -0.023176 0.372618
v 0.059212 0.025646 0.372616
v -0.178252 0.024132 0.374216
v -0.635073 -0.031605 0.366513
v -0.631451 -0.025489 0.337998
v -0.631736 0.019150 0.337996
v -0.635435 0.025222 0.366510
v -0.631451 -0.025489 0.337998
v -0.340886 -0.025727 0.375317
v -0.341198 0.023094 0.375315
v -0.631736 0.019150 0.337996
v 1.200423 -0.001116 -0.019164
v 1.199963 -0.020787 -0.019171
v 1.342476 -0.024770 -0.036266
v 1.343123 -0.017165 -0.036254
v 0.803167 0.019423 0.193207
v 0.802466 -0.020008 0.193197
v 1.199963 -0.020787 -0.019171
v 1.200423 -0.001116 -0.019164
v 0.475419 0.144422 -0.047925
v 0.464650 0.109848 0.238130
v 0.899571 0.076172 0.093475
v 0.906666 0.092869 -0.072583
v 0.059212 0.025646 0.372616
v 0.462452 0.028563 0.300697
v 0.464650 0.109848 0.238130
v 0.061160 0.107027 0.310045
v -0.178252 0.024132 0.374216
v 0.059212 0.025646 0.372616
v 0.061160 0.107027 0.310045
v -0.176304 0.105514 0.311646
v -0.341198 0.023094 0.375315
v -0.339249 0.104476 0.312744
v 0.475419 0.144422 -0.047925
v 0.061160 0.107027 0.310045
v 0.464650 0.109848 0.238130
v 0.073946 0.141835 -0.019846
v -0.176304 0.105514 0.311646
v -0.164094 0.140319 -0.003617
v -0.339249 0.104476 0.312744
v -0.327435 0.139279 0.007520
v -0.609252 0.102139 0.218031
v -0.614346 0.093660 0.278718
v -0.714494 0.116901 0.065019
v -0.712439 0.124211 0.011727
v -0.784653 0.119906 0.009562
v 0.906666 0.092869 -0.072583
v 0.899571 0.076172 0.093475
v 1.202101 0.031583 -0.042219
v 1.203877 0.040915 -0.081716
v 0.803167 0.019423 0.193207
v 1.200423 -0.001116 -0.019164
v 1.202101 0.031583 -0.042219
v 0.899571 0.076172 0.093475
v 1.347072 0.012297 -0.072111
v 1.345105 0.005013 -0.038539
v 1.499567 -0.023616 -0.049849
v 1.500527 -0.017955 -0.061728
v 1.203877 0.040915 -0.081716
v 1.202101 0.031583 -0.042219
v 1.345105 0.005013 -0.038539
v 1.347072 0.012297 -0.072111
v -0.614346 0.093660 0.278718
v -0.609252 0.102139 0.218031
v -0.612815 0.132276 0.217288
v -0.619136 0.094038 0.333813
v -0.631736 0.019150 0.337996
v -0.614346 0.093660 0.278718
v -0.619136 0.094038 0.333813
v -0.635435 0.025222 0.366510
v -0.609252 0.102139 0.218031
v -0.714494 0.116901 0.065019
v -0.716760 0.153902 0.064361
v -0.612815 0.132276 0.217288
v -0.784653 0.119906 0.009562
v -0.844425 0.087446 -0.208818
v -0.843971 0.117585 -0.210301
v -0.786331 0.158444 0.003216
v -0.844425 0.087446 -0.208818
v -0.940103 0.074069 -0.249015
v -0.939721 0.098539 -0.248706
v -0.843971 0.117585 -0.210301
v -0.714494 0.116901 0.065019
v -0.784653 0.119906 0.009562
v -0.786331 0.158444 0.003216
v -0.716760 0.153902 0.064361
v -0.341198 0.023094 0.375315
v -0.339249 0.104476 0.312744
v -0.614346 0.093660 0.278718
v -0.631736 0.019150 0.337996
v -0.635435 0.025222 0.366510
v -0.619136 0.094038 0.333813
v -0.726331 0.077047 0.319509
v -0.727342 0.023452 0.353799
v -0.619136 0.094038 0.333813
v -0.612815 0.132276 0.217288
v -0.726331 0.077047 0.319509
v -0.716760 0.153902 0.064361
v -1.105884 0.131710 -0.006021
v -1.057027 0.082116 -0.248067
v -1.329068 0.043043 -0.051030
v -1.310978 0.061857 -0.014376
v -0.843971 0.117585 -0.210301
v -0.939721 0.098539 -0.248706
v -1.057027 0.082116 -0.248067
v -1.105884 0.131710 -0.006021
v -1.105884 0.131710 -0.006021
v -1.310978 0.061857 -0.014376
v -1.236207 0.056299 0.076371
v -1.180554 0.051583 0.131520
v -1.102332 0.070423 0.180041
v -1.316944 0.008456 -0.007621
v -1.242042 0.007544 0.084342
v -1.236207 0.056299 0.076371
v -1.310978 0.061857 -0.014376
v -1.242042 0.007544 0.084342
v -1.182028 0.006758 0.137617
v -1.180554 0.051583 0.131520
v -1.236207 0.056299 0.076371
v -0.727342 0.023452 0.353799
v -0.726331 0.077047 0.319509
v -1.102332 0.070423 0.180041
v -1.100362 0.007056 0.193614
v -1.102332 0.070423 0.180041
v -1.180554 0.051583 0.131520
v -1.182028 0.006758 0.137617
v -1.100362 0.007056 0.193614
v -1.310978 0.061857 -0.014376
v -1.329068 0.043043 -0.051030
v -1.335046 0.004024 -0.044023
v -1.316944 0.008456 -0.007621
v -1.057027 0.082116 -0.248067
v -1.076000 0.014283 -0.271987
v -1.330645 0.004050 -0.079982
v -1.329068 0.043043 -0.051030
v -0.940103 0.074069 -0.249015
v -0.986525 0.012824 -0.271033
v -1.010200 0.018319 -0.287920
v -0.939721 0.098539 -0.248706
v 1.202101 0.031583 -0.042219
v 1.200423 -0.001116 -0.019164
v 1.343123 -0.017165 -0.036254
v 1.345105 0.005013 -0.038539
v 0.464650 0.109848 0.238130
v 0.462452 0.028563 0.300697
v 0.803167 0.019423 0.193207
v 0.899571 0.076172 0.093475
v -0.726331 0.077047 0.319509
v -0.716760 0.153902 0.064361
v -0.786331 0.158444 0.003216
v -1.102332 0.070423 0.180041
v -0.986292 -0.023743 -0.271031
v -0.972012 -0.023744 -0.245438
v -0.995190 -0.029437 -0.260609
v -1.009895 -0.029540 -0.287918
v 1.351106 -0.026968 -0.116479
v 1.323367 -0.026912 -0.106591
v 1.180232 -0.020908 -0.141893
v 1.205351 -0.020855 -0.155774
v -1.009895 -0.029540 -0.287918
v -0.995190 -0.029437 -0.260609
v -1.059853 -0.026296 -0.246296
v -1.075741 -0.026342 -0.271986
v -1.310028 -0.019418 -0.073801
v -1.330496 -0.019337 -0.079981
v -1.330496 -0.019337 -0.079981
v -1.310028 -0.019418 -0.073801
v -1.296519 -0.023566 -0.008792
v -1.316740 -0.023561 -0.007619
v 1.199963 -0.020787 -0.019171
v 1.174941 -0.020842 -0.019170
v 1.314893 -0.024753 -0.034528
v 1.342476 -0.024770 -0.036266
v -0.726995 -0.031008 0.353802
v -0.627106 -0.031465 0.327323
v -0.635073 -0.031605 0.366513
v -0.717376 -0.030878 0.315904
v -1.100194 -0.019382 0.193615
v -1.083866 -0.019462 0.171994
v -1.181857 -0.020130 0.137618
v -1.164061 -0.020197 0.121687
v -1.241856 -0.021686 0.084343
v -1.222981 -0.021724 0.073826
v -1.316740 -0.023561 -0.007619
v -1.296519 -0.023566 -0.008792
v -0.631451 -0.025489 0.337998
v -0.623550 -0.025459 0.301706
v -0.338209 -0.025693 0.335233
v -0.340886 -0.025727 0.375317
v -0.178193 -0.024673 0.334246
v -0.177941 -0.024689 0.374219
v 0.055002 -0.023187 0.332808
v 0.059523 -0.023176 0.372618
v 0.450781 -0.020315 0.268195
v 0.462546 -0.020251 0.300697
v 0.784590 -0.020076 0.171618
v 0.802466 -0.020008 0.193197
v 1.174941 -0.020842 -0.019170
v 1.199963 -0.020787 -0.019171
v 1.205351 -0.020855 -0.155774
v 1.180232 -0.020908 -0.141893
v 0.891367 -0.021863 -0.230545
v 0.911197 -0.021827 -0.254453
v 0.477072 -0.020277 -0.341607
v 0.489319 -0.020212 -0.378077
v 0.086646 -0.023023 -0.401368
v 0.091746 -0.023008 -0.444597
v -0.146443 -0.024508 -0.402389
v -0.145610 -0.024521 -0.445734
v -0.306386 -0.025528 -0.403089
v -0.308481 -0.025559 -0.446513
v -0.687266 -0.025093 -0.336655
v -0.696334 -0.025116 -0.372565
v -0.972012 -0.023744 -0.245438
v -0.986292 -0.023743 -0.271031
v 1.342476 -0.024770 -0.036266
v 1.314893 -0.024753 -0.034528
v 1.323367 -0.026912 -0.106591
v 1.351106 -0.026968 -0.116479
v -0.635073 -0.031605 0.366513
v -0.627106 -0.031465 0.327323
v -0.623550 -0.025459 0.301706
v -0.631451 -0.025489 0.337998
v -0.103779 -0.009868 0.436574
v -0.013644 -0.008821 0.458402
v -0.104458 -0.009871 0.475801
v -0.177941 -0.024689 0.374219
v -0.179861 -0.010807 0.464667
v -0.340886 -0.025727 0.375317
v 0.751345 -0.014912 0.342876
v 0.780479 -0.009456 0.376762
v 0.691192 -0.015732 0.371336
v -0.335143 0.191459 -0.091831
v -0.303429 0.191663 -0.176024
v -0.208540 0.196214 -0.103386
v -0.312420 0.225524 -0.172693
v -0.344567 0.225094 -0.089269
v -0.206996 0.232678 -0.100686
v -0.103908 0.010264 0.436574
v -0.104587 0.010262 0.475800
v -0.013766 0.010368 0.458402
v -0.178252 0.024132 0.374216
v -0.341198 0.023094 0.375315
v -0.179995 0.010235 0.464666
v 0.751752 0.018414 0.342883
v 0.691600 0.021011 0.371342
v 0.780743 0.012247 0.376766
v 0.091435 0.025813 -0.444600
v 0.091746 -0.023008 -0.444597
v 0.091105 -0.024222 -0.505006
v 0.090778 0.027012 -0.505008
v 0.091105 -0.024222 -0.505006
v -0.144942 -0.025726 -0.509625
v 0.001196 -0.024797 -0.557602
v 0.101519 -0.024159 -0.583277
v 0.115857 -0.024065 -0.536669
v 0.192109 -0.023581 -0.576188
v 0.608531 -0.017027 0.344132
v 0.746965 -0.016465 0.285633
v 0.836611 -0.018294 0.247755
v 0.691192 -0.015732 0.371336
v 0.751345 -0.014912 0.342876
v 1.482923 -0.037711 -0.218293
v 1.351106 -0.026968 -0.116479
v 1.351987 -0.016694 -0.116463
v 1.483710 -0.028572 -0.218279
v 1.865202 -0.070283 -0.308965
v 1.725137 -0.057509 -0.314550
v 1.725786 -0.049952 -0.314538
v 1.865989 -0.061117 -0.308950
v 1.867301 -0.045839 -0.308926
v 1.726869 -0.037355 -0.314518
v 1.658214 -0.051219 0.149780
v 1.557000 -0.042353 -0.058206
v 1.557443 -0.037219 -0.058198
v 1.658635 -0.046332 0.149787
v 1.660149 -0.038260 0.151780
v 1.558195 -0.028663 -0.058567
v 1.706488 -0.055552 0.348300
v 1.658214 -0.051219 0.149780
v 1.658635 -0.046332 0.149787
v 1.706883 -0.050958 0.348307
v 1.707543 -0.043302 0.348319
v 1.660149 -0.038260 0.151780
v 1.557000 -0.042353 -0.058206
v 1.728134 -0.057646 -0.178954
v 1.728754 -0.050418 -0.178943
v 1.557443 -0.037219 -0.058198
v 1.558195 -0.028663 -0.058567
v 1.732581 -0.038636 -0.181376
v 1.725137 -0.057509 -0.314550
v 1.482923 -0.037711 -0.218293
v 1.483710 -0.028572 -0.218279
v 1.725786 -0.049952 -0.314538
v 1.558654 -0.038061 0.264472
v 1.558258 -0.042655 0.264465
v 1.706488 -0.055552 0.348300
v 1.706883 -0.050958 0.348307
v 1.559313 -0.030404 0.264484
v 1.707543 -0.043302 0.348319
v 1.728134 -0.057646 -0.178954
v 1.865202 -0.070283 -0.308965
v 1.865989 -0.061117 -0.308950
v 1.728754 -0.050418 -0.178943
v 1.732581 -0.038636 -0.181376
v 1.867301 -0.045839 -0.308926
v 1.422479 -0.025211 0.124218
v 1.421935 -0.031529 0.124208
v 1.558258 -0.042655 0.264465
v 1.558654 -0.038061 0.264472
v 1.423385 -0.014681 0.124234
v 1.559313 -0.030404 0.264484
v 1.343123 -0.017165 -0.036254
v 1.342476 -0.024770 -0.036266
v 1.421935 -0.031529 0.124208
v 1.422479 -0.025211 0.124218
v 1.345105 0.005013 -0.038539
v 1.423385 -0.014681 0.124234
v 0.836611 -0.018294 0.247755
v 0.802466 -0.020008 0.193197
v 0.803167 0.019423 0.193207
v 0.837188 0.017428 0.247764
v -0.179995 0.010235 0.464666
v -0.179861 -0.010807 0.464667
v -0.104458 -0.009871 0.475801
v -0.104587 0.010262 0.475800
v 0.556164 -0.011688 -0.448195
v 0.489319 -0.020212 -0.378077
v 0.489209 0.028601 -0.378076
v 0.556283 0.020327 -0.448192
v 0.090778 0.027012 -0.505008
v 0.091105 -0.024222 -0.505006
v 0.115857 -0.024065 -0.536669
v 0.115531 0.027169 -0.536671
v 0.115531 0.027169 -0.536671
v 0.115857 -0.024065 -0.536669
v 0.192109 -0.023581 -0.576188
v 0.191783 0.027653 -0.576191
v 0.101193 0.027075 -0.583280
v 0.191783 0.027653 -0.576191
v 0.192109 -0.023581 -0.576188
v 0.101519 -0.024159 -0.583277
v -0.340886 -0.025727 0.375317
v -0.179861 -0.010807 0.464667
v -0.179995 0.010235 0.464666
v -0.341198 0.023094 0.375315
v -0.013644 -0.008821 0.458402
v -0.103779 -0.009868 0.436574
v -0.103908 0.010264 0.436574
v -0.013766 0.010368 0.458402
v -0.308792 0.023262 -0.446516
v -0.145268 0.025508 -0.509627
v -0.144942 -0.025726 -0.509625
v -0.308481 -0.025559 -0.446513
v -0.103779 -0.009868 0.436574
v -0.177941 -0.024689 0.374219
v -0.178252 0.024132 0.374216
v -0.103908 0.010264 0.436574
v -0.177941 -0.024689 0.374219
v -0.103779 -0.009868 0.436574
v -0.104458 -0.009871 0.475801
v -0.179861 -0.010807 0.464667
v 0.001196 -0.024797 -0.557602
v -0.144942 -0.025726 -0.509625
v -0.145268 0.025508 -0.509627
v 0.000869 0.026437 -0.557604
v 0.101519 -0.024159 -0.583277
v 0.001196 -0.024797 -0.557602
v 0.000869 0.026437 -0.557604
v 0.101193 0.027075 -0.583280
v -0.104587 0.010262 0.475800
v -0.104458 -0.009871 0.475801
v -0.013644 -0.008821 0.458402
v -0.013766 0.010368 0.458402
v 0.911990 0.014825 -0.254442
v 0.911197 -0.021827 -0.254453
v 0.734062 -0.014765 -0.376387
v 0.734417 0.019695 -0.376382
v 0.652244 -0.012372 -0.512652
v 0.556164 -0.011688 -0.448195
v 0.556283 0.020327 -0.448192
v 0.652470 0.019642 -0.512648
v 0.734417 0.019695 -0.376382
v 0.734062 -0.014765 -0.376387
v 0.708606 -0.014043 -0.469126
v 0.708870 0.020309 -0.469121
v 0.489319 -0.020212 -0.378077
v 0.556164 -0.011688 -0.448195
v 0.734062 -0.014765 -0.376387
v 0.911197 -0.021827 -0.254453
v 0.652244 -0.012372 -0.512652
v 0.729500 -0.012977 -0.543968
v 0.743979 -0.014263 -0.534359
v 0.708606 -0.014043 -0.469126
v 0.556164 -0.011688 -0.448195
v 0.734062 -0.014765 -0.376387
v 0.743979 -0.014263 -0.534359
v 0.729500 -0.012977 -0.543968
v 0.729738 0.019036 -0.543964
v 0.744236 0.020082 -0.534355
v 0.729500 -0.012977 -0.543968
v 0.652244 -0.012372 -0.512652
v 0.652470 0.019642 -0.512648
v 0.729738 0.019036 -0.543964
v 0.708870 0.020309 -0.469121
v 0.708606 -0.014043 -0.469126
v 0.743979 -0.014263 -0.534359
v 0.744236 0.020082 -0.534355
v 0.462452 0.028563 0.300697
v 0.462546 -0.020251 0.300697
v 0.608531 -0.017027 0.344132
v 0.608857 0.024596 0.344137
v 0.691192 -0.015732 0.371336
v 0.691600 0.021011 0.371342
v 0.837188 0.017428 0.247764
v 0.747456 0.019526 0.285641
v 0.746965 -0.016465 0.285633
v 0.836611 -0.018294 0.247755
v 0.780479 -0.009456 0.376762
v 0.751345 -0.014912 0.342876
v 0.751752 0.018414 0.342883
v 0.780743 0.012247 0.376766
v 0.751345 -0.014912 0.342876
v 0.746965 -0.016465 0.285633
v 0.747456 0.019526 0.285641
v 0.751752 0.018414 0.342883
v 0.691600 0.021011 0.371342
v 0.691192 -0.015732 0.371336
v 0.780479 -0.009456 0.376762
v 0.780743 0.012247 0.376766
v -0.145921 0.024300 -0.445736
v 0.091435 0.025813 -0.444600
v 0.090778 0.027012 -0.505008
v -0.145268 0.025508 -0.509627
v -0.308792 0.023262 -0.446516
v 0.000869 0.026437 -0.557604
v 0.101193 0.027075 -0.583280
v 0.115531 0.027169 -0.536671
v 0.191783 0.027653 -0.576191
v 0.803167 0.019423 0.193207
v 0.462452 0.028563 0.300697
v 0.608857 0.024596 0.344137
v 0.747456 0.019526 0.285641
v 0.837188 0.017428 0.247764
v 0.691600 0.021011 0.371342
v 0.751752 0.018414 0.342883
v 1.483710 -0.028572 -0.218279
v 1.487743 -0.013582 -0.214446
v 1.726869 -0.037355 -0.314518
v 1.725786 -0.049952 -0.314538
v 1.511973 -0.024678 -0.060876
v 1.500682 -0.023677 -0.078055
v 1.500031 -0.023649 -0.061601
v 1.618395 -0.030920 -0.186485
v 1.493165 -0.017793 -0.157302
v 1.726869 -0.037355 -0.314518
v 1.347386 0.000977 -0.104261
v 1.487743 -0.013582 -0.214446
v 1.345105 0.005013 -0.038539
v 1.423385 -0.014681 0.124234
v 1.450188 -0.017782 0.062992
v 1.499567 -0.023616 -0.049849
v 1.618395 -0.030920 -0.186485
v 1.867301 -0.045839 -0.308926
v 1.726869 -0.037355 -0.314518
v 1.732581 -0.038636 -0.181376
v 1.511973 -0.024678 -0.060876
v 1.558195 -0.028663 -0.058567
v 1.538732 -0.027877 0.123017
v 1.500031 -0.023649 -0.061601
v 1.499567 -0.023616 -0.049849
v 1.660149 -0.038260 0.151780
v 1.450188 -0.017782 0.062992
v 1.559313 -0.030404 0.264484
v 1.707543 -0.043302 0.348319
v 1.423385 -0.014681 0.124234
v 1.351987 -0.016694 -0.116463
v 1.347386 0.000977 -0.104261
v 1.487743 -0.013582 -0.214446
v 1.483710 -0.028572 -0.218279
v -0.547087 0.124756 -0.049030
v -0.499809 0.126508 -0.051731
v -0.492852 0.144339 -0.053128
v -0.529709 0.161564 -0.051651
v -0.499809 0.126508 -0.051731
v -0.502458 0.111478 -0.203157
v -0.487215 0.143558 -0.204435
v -0.492852 0.144339 -0.053128
v -0.427783 0.180403 -0.073021
v -0.423340 0.179900 -0.202078
v -0.303429 0.191663 -0.176024
v -0.335143 0.191459 -0.091831
v -0.546425 0.109635 -0.199690
v -0.547087 0.124756 -0.049030
v -0.529709 0.161564 -0.051651
v -0.524018 0.161235 -0.202205
v -0.502458 0.111478 -0.203157
v -0.546425 0.109635 -0.199690
v -0.524018 0.161235 -0.202205
v -0.487215 0.143558 -0.204435
v -0.423340 0.179900 -0.202078
v -0.446285 0.208585 -0.199299
v -0.312420 0.225524 -0.172693
v -0.303429 0.191663 -0.176024
v -0.446285 0.208585 -0.199299
v -0.450981 0.208729 -0.071003
v -0.344567 0.225094 -0.089269
v -0.312420 0.225524 -0.172693
v -0.450981 0.208729 -0.071003
v -0.427783 0.180403 -0.073021
v -0.335143 0.191459 -0.091831
v -0.344567 0.225094 -0.089269
v -0.344567 0.225094 -0.089269
v -0.335143 0.191459 -0.091831
v -0.208540 0.196214 -0.103386
v -0.206996 0.232678 -0.100686
v -0.303429 0.191663 -0.176024
v -0.312420 0.225524 -0.172693
v -0.206996 0.232678 -0.100686
v -0.208540 0.196214 -0.103386
v -0.529709 0.161564 -0.051651
v -0.492852 0.144339 -0.053128
v -0.427783 0.180403 -0.073021
v -0.450981 0.208729 -0.071003
v -0.524018 0.161235 -0.202205
v -0.529709 0.161564 -0.051651
v -0.450981 0.208729 -0.071003
v -0.446285 0.208585 -0.199299
v -0.487215 0.143558 -0.204435
v -0.524018 0.161235 -0.202205
v -0.446285 0.208585 -0.199299
v -0.423340 0.179900 -0.202078
v -0.492852 0.144339 -0.053128
v -0.487215 0.143558 -0.204435
v -0.423340 0.179900 -0.202078
v -0.427783 0.180403 -0.073021
v -0.178252 0.024132 0.374216
v -0.179995 0.010235 0.464666
v -0.104587 0.010262 0.475800
v -0.103908 0.010264 0.436574
v 0.489209 0.028601 -0.378076
v 0.911990 0.014825 -0.254442
v 0.734417 0.019695 -0.376382
v 0.556283 0.020327 -0.448192
v 0.652470 0.019642 -0.512648
v 0.744236 0.020082 -0.534355
v 0.729738 0.019036 -0.543964
v 0.708870 0.020309 -0.469121
v 0.556283 0.020327 -0.448192
v 0.734417 0.019695 -0.376382
v 1.706488 -0.055552 0.348300
v 1.558258 -0.042655 0.264465
v 1.658214 -0.051219 0.149780
v 1.421935 -0.031529 0.124208
v 1.557000 -0.042353 -0.058206
v 1.482923 -0.037711 -0.218293
v 1.342476 -0.024770 -0.036266
v 1.351106 -0.026968 -0.116479
v 1.728134 -0.057646 -0.178954
v 1.725137 -0.057509 -0.314550
v 1.865202 -0.070283 -0.308965
v 1.500682 -0.023677 -0.078055
v 1.351106 -0.026968 -0.116479
v 1.205351 -0.020855 -0.155774
v 1.205810 -0.001184 -0.155768
v 1.351987 -0.016694 -0.116463
v -0.696608 0.017883 -0.372567
v -0.696334 -0.025116 -0.372565
v -0.986292 -0.023743 -0.271031
v -0.986525 0.012824 -0.271033
v 0.091435 0.025813 -0.444600
v 0.489209 0.028601 -0.378076
v 0.489319 -0.020212 -0.378077
v 0.091746 -0.023008 -0.444597
v 1.205351 -0.020855 -0.155774
v 0.911197 -0.021827 -0.254453
v 0.911990 0.014825 -0.254442
v 1.205810 -0.001184 -0.155768
v 0.489209 0.028601 -0.378076
v 0.486467 0.109904 -0.315510
v 0.911123 0.075631 -0.197639
v 0.911990 0.014825 -0.254442
v 1.205504 0.031580 -0.128555
v 1.205810 -0.001184 -0.155768
v 0.486467 0.109904 -0.315510
v 0.073946 0.141835 -0.019846
v 0.475419 0.144422 -0.047925
v 0.088449 0.107169 -0.382037
v -0.164094 0.140319 -0.003617
v -0.148907 0.105656 -0.383173
v -0.327435 0.139279 0.007520
v -0.311778 0.104618 -0.383953
v -0.502458 0.111478 -0.203157
v -0.499809 0.126508 -0.051731
v -0.546425 0.109635 -0.199690
v -0.547087 0.124756 -0.049030
v -0.699461 0.089537 -0.311797
v -0.712439 0.124211 0.011727
v -0.844425 0.087446 -0.208818
v -0.784653 0.119906 0.009562
v -0.940103 0.074069 -0.249015
v 0.486467 0.109904 -0.315510
v 0.475419 0.144422 -0.047925
v 0.906666 0.092869 -0.072583
v 0.911123 0.075631 -0.197639
v 0.911123 0.075631 -0.197639
v 0.906666 0.092869 -0.072583
v 1.203877 0.040915 -0.081716
v 1.205504 0.031580 -0.128555
v 1.347386 0.000977 -0.104261
v 1.347072 0.012297 -0.072111
v 1.500527 -0.017955 -0.061728
v 1.500682 -0.023677 -0.078055
v 1.205810 -0.001184 -0.155768
v 1.205504 0.031580 -0.128555
v 1.347386 0.000977 -0.104261
v 1.351987 -0.016694 -0.116463
v 1.205504 0.031580 -0.128555
v 1.203877 0.040915 -0.081716
v 1.347072 0.012297 -0.072111
v 1.347386 0.000977 -0.104261
v -0.699461 0.089537 -0.311797
v -0.696608 0.017883 -0.372567
v -0.986525 0.012824 -0.271033
v -0.940103 0.074069 -0.249015
v -0.148907 0.105656 -0.383173
v 0.088449 0.107169 -0.382037
v 0.091435 0.025813 -0.444600
v -0.145921 0.024300 -0.445736
v -0.311778 0.104618 -0.383953
v -0.308792 0.023262 -0.446516
v -0.311778 0.104618 -0.383953
v -0.308792 0.023262 -0.446516
v -0.696608 0.017883 -0.372567
v -0.699461 0.089537 -0.311797
v 0.088449 0.107169 -0.382037
v 0.486467 0.109904 -0.315510
v 0.489209 0.028601 -0.378076
v 0.091435 0.025813 -0.444600
v -0.308792 0.023262 -0.446516
v -0.308481 -0.025559 -0.446513
v -0.696334 -0.025116 -0.372565
v -0.696608 0.017883 -0.372567
v -0.995190 -0.029437 -0.260609
v -0.972012 -0.023744 -0.245438
v -1.083866 -0.019462 0.171994
vn 0.995530 -0.085769 0.039543
vn 0.995530 -0.085769 0.039543
vn 0.995530 -0.085769 0.039543
vn -0.088164 0.945601 0.313155
vn -0.088164 0.945601 0.313155
vn -0.088164 0.945601 0.313155
vn -0.077397 0.982882 -0.167192
vn -0.077397 0.982882 -0.167192
vn -0.077397 0.982882 -0.167192
vn -0.984288 0.129179 -0.120378
vn -0.984288 0.129179 -0.120378
vn -0.984288 0.129179 -0.120378
vn -0.239565 0.381792 -0.892661
vn -0.239565 0.381792 -0.892661
vn -0.239565 0.381792 -0.892661
vn -0.073221 0.489174 -0.869108
vn -0.073221 0.489174 -0.869108
vn -0.073221 0.489174 -0.869108
vn -0.181330 -0.983155 -0.022915
vn -0.181330 -0.983155 -0.022915
vn -0.181330 -0.983155 -0.022915
vn 0.175626 0.000747 0.984457
vn 0.175626 0.000747 0.984457
vn 0.175626 0.000747 0.984457
vn 0.175626 0.000747 0.984457
vn -0.394491 -0.002470 0.918897
vn -0.394491 -0.002470 0.918897
vn -0.394491 -0.002470 0.918897
vn -0.394491 -0.002470 0.918897
vn -0.235246 -0.001545 -0.971935
vn -0.235246 -0.001545 -0.971935
vn -0.235246 -0.001545 -0.971935
vn -0.235246 -0.001545 -0.971935
vn -0.601944 -0.003873 -0.798529
vn -0.601944 -0.003873 -0.798529
vn -0.601944 -0.003873 -0.798529
vn -0.601944 -0.003873 -0.798529
vn -0.775376 -0.004912 0.631481
vn -0.775376 -0.004912 0.631481
vn -0.775376 -0.004912 0.631481
vn -0.775376 -0.004912 0.631481
vn -0.895110 -0.005684 0.445810
vn -0.895110 -0.005684 0.445810
vn -0.895110 -0.005684 0.445810
vn -0.895110 -0.005684 0.445810
vn -0.992572 -0.006330 -0.121491
vn -0.992572 -0.006330 -0.121491
vn -0.992572 -0.006330 -0.121491
vn -0.992572 -0.006330 -0.121491
vn -0.136985 -0.000827 0.990573
vn -0.136985 -0.000827 0.990573
vn -0.136985 -0.000827 0.990573
vn -0.136985 -0.000827 0.990573
vn 0.581267 0.003668 -0.813705
vn 0.581267 0.003668 -0.813705
vn 0.581267 0.003668 -0.813705
vn 0.581267 0.003668 -0.813705
vn -0.565499 -0.003565 0.824741
vn -0.565499 -0.003565 0.824741
vn -0.565499 -0.003565 0.824741
vn -0.565499 -0.003565 0.824741
vn -0.663898 -0.004196 0.747812
vn -0.663898 -0.004196 0.747812
vn -0.663898 -0.004196 0.747812
vn -0.663898 -0.004196 0.747812
vn 0.006739 0.000089 0.999977
vn 0.006739 0.000089 0.999977
vn 0.006739 0.000089 0.999977
vn 0.006739 0.000089 0.999977
vn 0.991842 0.006327 0.127317
vn 0.991842 0.006327 0.127317
vn 0.991842 0.006327 0.127317
vn 0.991842 0.006327 0.127317
vn -0.127390 -0.000766 0.991853
vn -0.127390 -0.000766 0.991853
vn -0.127390 -0.000766 0.991853
vn -0.127390 -0.000766 0.991853
vn 0.118624 -0.005480 0.992924
vn 0.118624 -0.005480 0.992924
vn 0.118624 -0.005480 0.992924
vn 0.118624 -0.005480 0.992924
vn 0.471120 -0.009502 0.882018
vn 0.471120 -0.009502 0.882018
vn 0.471120 -0.009502 0.882018
vn 0.471120 -0.009502 0.882018
vn 0.119796 0.985934 0.116544
vn 0.119796 0.985934 0.116544
vn 0.119796 0.985934 0.116544
vn 0.119796 0.985934 0.116544
vn 0.136019 0.601895 0.786906
vn 0.136019 0.601895 0.786906
vn 0.136019 0.601895 0.786906
vn 0.136019 0.601895 0.786906
vn 0.001460 0.609501 0.792784
vn 0.001460 0.609501 0.792784
vn 0.001460 0.609501 0.792784
vn 0.001460 0.609501 0.792784
vn 0.001460 0.609501 0.792784
vn 0.001460 0.609501 0.792784
vn 0.007264 0.993658 0.112208
vn 0.007264 0.993658 0.112208
vn 0.007264 0.993658 0.112208
vn 0.007264 0.993658 0.112208
vn -0.002154 0.993773 0.111401
vn -0.002154 0.993773 0.111401
vn -0.002154 0.993773 0.111401
vn -0.002154 0.993773 0.111401
vn -0.038684 0.991350 0.125413
vn -0.048961 0.992147 0.115094
vn -0.062959 0.989082 0.133243
vn -0.062959 0.989082 0.133243
vn -0.062959 0.989082 0.133243
vn 0.188394 0.973267 0.131376
vn 0.188394 0.973267 0.131376
vn 0.188394 0.973267 0.131376
vn 0.188394 0.973267 0.131376
vn 0.413125 0.546742 0.728287
vn 0.413125 0.546742 0.728287
vn 0.413125 0.546742 0.728287
vn 0.413125 0.546742 0.728287
vn 0.181112 0.942716 0.280152
vn 0.181112 0.942716 0.280152
vn 0.181112 0.942716 0.280152
vn 0.181112 0.942716 0.280152
vn 0.174248 0.958218 0.226837
vn 0.174248 0.958218 0.226837
vn 0.174248 0.958218 0.226837
vn 0.174248 0.958218 0.226837
vn 0.989979 0.107126 0.092011
vn 0.989979 0.107126 0.092011
vn 0.989979 0.107126 0.092011
vn 0.989979 0.107126 0.092011
vn 0.980955 -0.158789 0.111860
vn 0.980955 -0.158789 0.111860
vn 0.980955 -0.158789 0.111860
vn 0.980955 -0.158789 0.111860
vn 0.827307 0.060181 -0.558517
vn 0.827307 0.060181 -0.558517
vn 0.827307 0.060181 -0.558517
vn 0.827307 0.060181 -0.558517
vn 0.965437 -0.012459 -0.260339
vn 0.965437 -0.012459 -0.260339
vn 0.965437 -0.012459 -0.260339
vn 0.965437 -0.012459 -0.260339
vn 0.383430 -0.025717 -0.923212
vn 0.383430 -0.025717 -0.923212
vn 0.383430 -0.025717 -0.923212
vn 0.383430 -0.025717 -0.923212
vn 0.639036 -0.037858 -0.768245
vn 0.639036 -0.037858 -0.768245
vn 0.639036 -0.037858 -0.768245
vn 0.639036 -0.037858 -0.768245
vn -0.114050 0.620552 0.775827
vn -0.114050 0.620552 0.775827
vn -0.114050 0.620552 0.775827
vn -0.114050 0.620552 0.775827
vn -0.162400 0.491253 0.855743
vn -0.162400 0.491253 0.855743
vn -0.162400 0.491253 0.855743
vn -0.162400 0.491253 0.855743
vn -0.188023 0.936180 0.297010
vn -0.188023 0.936180 0.297010
vn -0.188023 0.936180 0.297010
vn -0.209102 0.938476 0.274843
vn -0.311106 0.914458 -0.258803
vn -0.311106 0.914458 -0.258803
vn -0.311106 0.914458 -0.258803
vn -0.311106 0.914458 -0.258803
vn -0.122862 0.968521 -0.216502
vn -0.122862 0.968521 -0.216502
vn -0.122862 0.968521 -0.216502
vn -0.122862 0.968521 -0.216502
vn -0.317372 0.894010 0.316261
vn -0.317372 0.894010 0.316261
vn -0.317372 0.894010 0.316261
vn -0.344985 0.880338 0.325563
vn -0.344985 0.880338 0.325563
vn -0.758119 0.178010 0.627350
vn -0.758119 0.178010 0.627350
vn -0.758119 0.178010 0.627350
vn -0.758119 0.178010 0.627350
vn -0.670862 0.161214 0.723846
vn -0.670862 0.161214 0.723846
vn -0.670862 0.161214 0.723846
vn -0.670862 0.161214 0.723846
vn -0.357057 0.351259 0.865522
vn -0.357057 0.351259 0.865522
vn -0.357057 0.351259 0.865522
vn -0.357057 0.351259 0.865522
vn -0.553478 0.146523 0.819874
vn -0.553478 0.146523 0.819874
vn -0.553478 0.146523 0.819874
vn -0.553478 0.146523 0.819874
vn -0.903257 0.175059 0.391767
vn -0.903257 0.175059 0.391767
vn -0.903257 0.175059 0.391767
vn -0.903257 0.175059 0.391767
vn -0.556981 0.451998 -0.696757
vn -0.556981 0.451998 -0.696757
vn -0.556981 0.451998 -0.696757
vn -0.556981 0.451998 -0.696757
vn 0.522718 -0.063998 -0.850100
vn 0.522718 -0.063998 -0.850100
vn 0.522718 -0.063998 -0.850100
vn 0.522718 -0.063998 -0.850100
vn 0.103852 0.411255 0.905585
vn 0.103852 0.411255 0.905585
vn 0.103852 0.411255 0.905585
vn 0.103852 0.411255 0.905585
vn 0.267664 0.647620 0.713404
vn 0.267664 0.647620 0.713404
vn 0.267664 0.647620 0.713404
vn 0.267664 0.647620 0.713404
vn -0.125830 0.954725 0.269567
vn -0.125830 0.954725 0.269567
vn -0.125830 0.954725 0.269567
vn -0.125830 0.954725 0.269567
vn 0.357387 -0.913573 -0.194058
vn 0.357387 -0.913573 -0.194058
vn 0.357387 -0.913573 -0.194058
vn 0.357387 -0.913573 -0.194058
vn -0.026609 -0.997901 -0.059031
vn -0.026609 -0.997901 -0.059031
vn -0.026609 -0.997901 -0.059031
vn -0.026609 -0.997901 -0.059031
vn -0.042221 -0.998739 0.027164
vn -0.042221 -0.998739 0.027164
vn -0.042221 -0.998739 0.027164
vn -0.042221 -0.998739 0.027164
vn -0.017096 -0.999839 -0.005540
vn -0.015512 -0.999742 0.016590
vn 0.005529 -0.998066 -0.061920
vn 0.005529 -0.998066 -0.061920
vn 0.005529 -0.998066 -0.061920
vn 0.005529 -0.998066 -0.061920
vn 0.011593 -0.943751 0.330454
vn 0.011593 -0.943751 0.330454
vn 0.011593 -0.943751 0.330454
vn 0.011593 -0.943751 0.330454
vn -0.026116 -0.999584 -0.012216
vn -0.005862 -0.999971 -0.004829
vn -0.005862 -0.999971 -0.004829
vn -0.026116 -0.999584 -0.012216
vn -0.026116 -0.999584 -0.012216
vn -0.026116 -0.999584 -0.012216
vn 0.004140 -0.999962 0.007652
vn 0.004140 -0.999962 0.007652
vn 0.010350 -0.999779 0.018307
vn -0.016300 -0.999796 0.011957
vn 0.004198 -0.999834 0.017715
vn -0.017096 -0.999839 -0.005540
vn -0.000703 -0.999999 -0.000940
vn -0.001021 -0.999999 -0.000363
vn 0.006372 -0.999980 0.000051
vn -0.000703 -0.999999 -0.000940
vn 0.006372 -0.999980 0.000051
vn 0.006369 -0.999980 -0.000432
vn 0.007146 -0.999974 0.000158
vn 0.007160 -0.999974 -0.000566
vn 0.001251 -0.999998 0.001767
vn 0.015390 -0.999101 0.039504
vn 0.001251 -0.999998 0.001767
vn 0.015390 -0.999101 0.039504
vn -0.035625 -0.999326 0.008902
vn 0.000474 -0.999989 0.004758
vn 0.002938 -0.999995 0.001138
vn -0.035625 -0.999326 0.008902
vn -0.002923 -0.999991 -0.003220
vn -0.002923 -0.999991 -0.003220
vn -0.002923 -0.999991 -0.003220
vn -0.002923 -0.999991 -0.003220
vn 0.006949 -0.999976 0.000516
vn 0.006135 -0.999792 0.019452
vn 0.006372 -0.999980 0.000051
vn 0.006135 -0.999792 0.019452
vn -0.000991 -0.999999 0.000827
vn 0.006281 -0.999801 0.018923
vn -0.000991 -0.999999 0.000827
vn -0.000991 -0.999999 0.000827
vn 0.008528 -0.999907 -0.010608
vn -0.004095 -0.999990 0.001911
vn 0.004793 -0.999564 0.029142
vn -0.035625 -0.999326 0.008902
vn -0.035625 -0.999326 0.008902
vn 0.004793 -0.999564 0.029142
vn 0.925632 0.324125 0.195315
vn 0.925632 0.324125 0.195315
vn 0.925632 0.324125 0.195315
vn 0.925632 0.324125 0.195315
vn 0.011585 -0.999933 0.000137
vn 0.011585 -0.999933 0.000137
vn 0.011585 -0.999933 0.000137
vn 0.007322 -0.988376 0.151852
vn 0.007322 -0.988376 0.151852
vn 0.007322 -0.988376 0.151852
vn 0.063355 -0.992419 0.105313
vn 0.063355 -0.992419 0.105313
vn 0.063355 -0.992419 0.105313
vn 0.038633 -0.999180 0.012136
vn 0.038633 -0.999180 0.012136
vn 0.038633 -0.999180 0.012136
vn -0.056407 0.998270 -0.016597
vn -0.056407 0.998270 -0.016597
vn -0.056407 0.998270 -0.016597
vn -0.001159 0.999999 0.000044
vn -0.001159 0.999999 0.000044
vn -0.001159 0.999999 0.000044
vn -0.005275 0.988403 0.151760
vn -0.005275 0.988403 0.151760
vn -0.005275 0.988403 0.151760
vn 0.091163 0.990569 0.102284
vn 0.091163 0.990569 0.102284
vn 0.091163 0.990569 0.102284
vn 0.999922 0.006372 -0.010741
vn 0.999922 0.006372 -0.010741
vn 0.999922 0.006372 -0.010741
vn 0.999922 0.006372 -0.010741
vn 0.006135 -0.999792 0.019452
vn 0.006135 -0.999792 0.019452
vn 0.006372 -0.999980 0.000047
vn 0.006372 -0.999980 0.000047
vn 0.006372 -0.999980 0.000047
vn 0.006372 -0.999980 0.000047
vn 0.015390 -0.999101 0.039504
vn 0.015390 -0.999101 0.039504
vn -0.005635 -0.999374 0.034914
vn 0.014968 -0.999721 0.018295
vn 0.014968 -0.999721 0.018295
vn -0.607666 0.053480 -0.792390
vn -0.607666 0.053480 -0.792390
vn -0.607666 0.053480 -0.792390
vn -0.607666 0.053480 -0.792390
vn 0.039677 -0.001840 -0.999211
vn 0.039677 -0.001840 -0.999211
vn 0.039677 -0.001840 -0.999211
vn 0.039677 -0.001840 -0.999211
vn 0.039677 -0.001837 -0.999211
vn 0.039677 -0.001837 -0.999211
vn 0.895266 -0.076427 -0.438929
vn 0.895266 -0.076427 -0.438929
vn 0.895266 -0.076427 -0.438929
vn 0.895266 -0.076427 -0.438929
vn 0.895319 -0.079238 -0.438320
vn 0.895319 -0.079238 -0.438320
vn 0.967918 -0.082955 -0.237177
vn 0.967918 -0.082955 -0.237177
vn 0.967918 -0.082955 -0.237177
vn 0.967918 -0.082955 -0.237177
vn 0.966135 -0.103371 -0.236426
vn 0.966135 -0.103371 -0.236426
vn 0.572765 -0.050501 0.818162
vn 0.572765 -0.050501 0.818162
vn 0.572765 -0.050501 0.818162
vn 0.572765 -0.050501 0.818162
vn 0.575110 -0.016813 0.817903
vn 0.575110 -0.016813 0.817903
vn -0.366778 0.033031 -0.929722
vn -0.366778 0.033031 -0.929722
vn -0.366778 0.033031 -0.929722
vn -0.366778 0.033031 -0.929722
vn -0.489197 0.040742 0.871221
vn -0.489197 0.040742 0.871221
vn -0.489197 0.040742 0.871221
vn -0.489197 0.040742 0.871221
vn -0.489196 0.040766 0.871221
vn -0.489196 0.040766 0.871221
vn 0.684038 -0.059832 0.726989
vn 0.684038 -0.059832 0.726989
vn 0.684038 -0.059832 0.726989
vn 0.684038 -0.059832 0.726989
vn 0.683898 -0.065187 0.726660
vn 0.683898 -0.065187 0.726660
vn -0.713392 0.060311 0.698166
vn -0.713392 0.060311 0.698166
vn -0.713392 0.060311 0.698166
vn -0.713392 0.060311 0.698166
vn -0.713388 0.060308 0.698169
vn -0.713388 0.060308 0.698169
vn -0.892316 0.075602 0.445035
vn -0.892316 0.075602 0.445035
vn -0.892316 0.075602 0.445035
vn -0.892316 0.075602 0.445035
vn -0.889705 0.109305 0.443257
vn -0.889705 0.109305 0.443257
vn 0.848003 -0.014278 -0.529799
vn 0.848003 -0.014278 -0.529799
vn 0.848003 -0.014278 -0.529799
vn 0.848003 -0.014278 -0.529799
vn -0.146069 -0.000885 0.989274
vn -0.146069 -0.000885 0.989274
vn -0.146069 -0.000885 0.989274
vn -0.146069 -0.000885 0.989274
vn -0.723204 0.000105 -0.690635
vn -0.723204 0.000105 -0.690635
vn -0.723204 0.000105 -0.690635
vn -0.723204 0.000105 -0.690635
vn 0.787809 0.005049 0.615899
vn 0.787809 0.005049 0.615899
vn 0.787809 0.005049 0.615899
vn 0.787809 0.005049 0.615899
vn 0.460131 0.002973 0.887846
vn 0.460131 0.002973 0.887846
vn 0.460131 0.002973 0.887846
vn 0.460131 0.002973 0.887846
vn 0.078013 0.000450 -0.996952
vn 0.078013 0.000450 -0.996952
vn 0.078013 0.000450 -0.996952
vn 0.078013 0.000450 -0.996952
vn -0.484973 -0.003050 0.874524
vn -0.484973 -0.003050 0.874524
vn -0.484973 -0.003050 0.874524
vn -0.484973 -0.003050 0.874524
vn 0.235349 0.001453 -0.971910
vn 0.235349 0.001453 -0.971910
vn 0.235349 0.001453 -0.971910
vn 0.235349 0.001453 -0.971910
vn -0.360030 -0.002338 -0.932938
vn -0.360030 -0.002338 -0.932938
vn -0.360030 -0.002338 -0.932938
vn -0.360030 -0.002338 -0.932938
vn 0.643074 0.004063 -0.765794
vn 0.643074 0.004063 -0.765794
vn 0.643074 0.004063 -0.765794
vn 0.643074 0.004063 -0.765794
vn 0.051868 -0.992872 0.107310
vn 0.051868 -0.992872 0.107310
vn 0.051868 -0.992872 0.107310
vn 0.051868 -0.992872 0.107310
vn -0.311909 -0.002033 -0.950110
vn -0.311909 -0.002033 -0.950110
vn -0.311909 -0.002033 -0.950110
vn -0.311909 -0.002033 -0.950110
vn -0.247928 -0.001625 -0.968777
vn -0.247928 -0.001625 -0.968777
vn -0.247928 -0.001625 -0.968777
vn -0.247928 -0.001625 -0.968777
vn 0.188148 0.001244 0.982140
vn 0.188148 0.001244 0.982140
vn 0.188148 0.001244 0.982140
vn 0.188148 0.001244 0.982140
vn 0.566321 -0.008939 -0.824136
vn 0.566321 -0.008939 -0.824136
vn 0.566321 -0.008939 -0.824136
vn 0.566321 -0.008939 -0.824136
vn -0.556877 0.003083 -0.830589
vn -0.556877 0.003083 -0.830589
vn -0.556877 0.003083 -0.830589
vn -0.556877 0.003083 -0.830589
vn 0.964158 -0.008632 -0.265188
vn 0.964158 -0.008632 -0.265188
vn 0.964158 -0.008632 -0.265188
vn 0.964158 -0.008632 -0.265188
vn 0.022801 -0.995323 -0.093872
vn 0.022801 -0.995323 -0.093872
vn 0.022801 -0.995323 -0.093872
vn 0.022801 -0.995323 -0.093872
vn -0.025676 -0.999441 -0.021405
vn -0.025676 -0.999441 -0.021405
vn -0.025676 -0.999441 -0.021405
vn -0.025676 -0.999441 -0.021405
vn -0.016500 -0.999835 -0.007655
vn -0.016500 -0.999835 -0.007655
vn 0.552657 -0.004009 -0.833399
vn 0.552657 -0.004009 -0.833399
vn 0.552657 -0.004009 -0.833399
vn 0.552657 -0.004009 -0.833399
vn -0.375616 0.002835 -0.926771
vn -0.375616 0.002835 -0.926771
vn -0.375616 0.002835 -0.926771
vn -0.375616 0.002835 -0.926771
vn 0.879065 -0.006731 0.476654
vn 0.879065 -0.006731 0.476654
vn 0.879065 -0.006731 0.476654
vn 0.879065 -0.006731 0.476654
vn -0.284814 0.000667 0.958583
vn -0.284814 0.000667 0.958583
vn -0.284814 0.000667 0.958583
vn -0.284814 0.000667 0.958583
vn -0.312437 0.002786 0.949934
vn -0.312437 0.002786 0.949934
vn 0.388932 -0.005991 0.921247
vn 0.388932 -0.005991 0.921247
vn 0.388932 -0.005991 0.921247
vn 0.388932 -0.005991 0.921247
vn 0.758976 -0.009129 -0.651055
vn 0.758976 -0.009129 -0.651055
vn 0.758976 -0.009129 -0.651055
vn 0.758976 -0.009129 -0.651055
vn 0.997062 -0.012893 -0.075507
vn 0.997062 -0.012893 -0.075507
vn 0.997062 -0.012893 -0.075507
vn 0.997062 -0.012893 -0.075507
vn -0.060695 0.000518 0.998156
vn -0.060695 0.000518 0.998156
vn -0.060695 0.000518 0.998156
vn -0.060695 0.000518 0.998156
vn -0.006607 0.999791 0.019359
vn -0.006607 0.999791 0.019359
vn -0.006607 0.999791 0.019359
vn -0.006607 0.999791 0.019359
vn -0.006462 0.999802 0.018830
vn -0.006372 0.999980 -0.000047
vn -0.006372 0.999980 -0.000047
vn -0.006372 0.999980 -0.000047
vn -0.006372 0.999980 -0.000047
vn 0.032063 0.999461 0.007023
vn 0.032063 0.999461 0.007023
vn 0.032063 0.999461 0.007023
vn 0.032063 0.999461 0.007023
vn 0.030715 0.999377 0.017403
vn 0.043317 0.999002 0.010919
vn 0.043317 0.999002 0.010919
vn -0.355002 0.193550 -0.914610
vn -0.355002 0.193550 -0.914610
vn -0.355002 0.193550 -0.914610
vn -0.355002 0.193550 -0.914610
vn 0.106845 0.993053 0.049304
vn 0.106845 0.993053 0.049304
vn 0.106845 0.993053 0.049304
vn 0.106845 0.993053 0.049304
vn 0.148448 0.987179 0.058656
vn 0.119822 0.991283 0.054774
vn 0.148448 0.987179 0.058656
vn 0.148448 0.987179 0.058656
vn 0.183568 0.982531 0.030595
vn 0.183568 0.982531 0.030595
vn 0.183568 0.982531 0.030595
vn 0.184271 0.982422 0.029843
vn 0.071996 0.997272 0.016289
vn 0.063206 0.997977 0.006891
vn 0.063206 0.997977 0.006891
vn 0.071996 0.997272 0.016289
vn 0.071996 0.997272 0.016289
vn 0.071996 0.997272 0.016289
vn 0.113665 0.993519 0.000680
vn 0.109843 0.993949 -0.000428
vn 0.109843 0.993949 -0.000428
vn 0.083747 0.996472 0.005473
vn 0.113665 0.993519 0.000680
vn 0.113665 0.993519 0.000680
vn 0.083747 0.996472 0.005473
vn 0.113665 0.993519 0.000680
vn -0.551444 0.359871 -0.752597
vn -0.551444 0.359871 -0.752597
vn -0.551444 0.359871 -0.752597
vn -0.551444 0.359871 -0.752597
vn 0.058239 0.047398 0.997177
vn 0.058239 0.047398 0.997177
vn 0.058239 0.047398 0.997177
vn 0.058239 0.047398 0.997177
vn 0.913873 -0.404879 0.030166
vn 0.913873 -0.404879 0.030166
vn 0.913873 -0.404879 0.030166
vn 0.913873 -0.404879 0.030166
vn 0.106070 -0.994170 0.019377
vn 0.106070 -0.994170 0.019377
vn 0.106070 -0.994170 0.019377
vn 0.106070 -0.994170 0.019377
vn -0.912051 0.408105 -0.040166
vn -0.912051 0.408105 -0.040166
vn -0.912051 0.408105 -0.040166
vn -0.912051 0.408105 -0.040166
vn -0.072794 -0.012455 -0.997269
vn -0.072794 -0.012455 -0.997269
vn -0.072794 -0.012455 -0.997269
vn -0.072794 -0.012455 -0.997269
vn 0.179420 0.185982 -0.966033
vn 0.179420 0.185982 -0.966033
vn 0.179420 0.185982 -0.966033
vn 0.179420 0.185982 -0.966033
vn -0.136493 0.990387 -0.022418
vn -0.136493 0.990387 -0.022418
vn -0.136493 0.990387 -0.022418
vn -0.136493 0.990387 -0.022418
vn 0.180123 0.022138 0.983395
vn 0.180123 0.022138 0.983395
vn 0.180123 0.022138 0.983395
vn 0.180123 0.022138 0.983395
vn 0.089441 -0.064550 0.993898
vn 0.089441 -0.064550 0.993898
vn 0.089441 -0.064550 0.993898
vn 0.089441 -0.064550 0.993898
vn 0.575432 0.130172 -0.807424
vn 0.575432 0.130172 -0.807424
vn 0.575432 0.130172 -0.807424
vn 0.575432 0.130172 -0.807424
vn 0.174968 0.156082 0.972124
vn 0.174968 0.156082 0.972124
vn 0.174968 0.156082 0.972124
vn 0.174968 0.156082 0.972124
vn -0.518551 0.854795 -0.020766
vn -0.518551 0.854795 -0.020766
vn -0.518551 0.854795 -0.020766
vn -0.518551 0.854795 -0.020766
vn -0.015092 0.088180 -0.995990
vn -0.015092 0.088180 -0.995990
vn -0.015092 0.088180 -0.995990
vn -0.015092 0.088180 -0.995990
vn 0.491744 -0.870471 0.021663
vn 0.491744 -0.870471 0.021663
vn 0.491744 -0.870471 0.021663
vn 0.491744 -0.870471 0.021663
vn 0.039210 0.993462 0.107218
vn 0.039210 0.993462 0.107218
vn 0.039210 0.993462 0.107218
vn 0.039210 0.993462 0.107218
vn 0.036533 0.998582 -0.038712
vn 0.036533 0.998582 -0.038712
vn 0.036533 0.998582 -0.038712
vn 0.036533 0.998582 -0.038712
vn -0.009442 0.999762 -0.019648
vn -0.009442 0.999762 -0.019648
vn -0.009442 0.999762 -0.019648
vn -0.009442 0.999762 -0.019648
vn 0.000058 1.000000 -0.000427
vn 0.000058 1.000000 -0.000427
vn -0.086249 -0.996273 -0.000771
vn -0.086249 -0.996273 -0.000771
vn -0.086249 -0.996273 -0.000771
vn -0.082979 -0.996551 -0.000609
vn -0.082979 -0.996551 -0.000609
vn -0.081864 -0.996630 0.005233
vn -0.084181 -0.996433 0.005890
vn -0.084181 -0.996433 0.005890
vn -0.090861 -0.995863 0.001006
vn -0.090861 -0.995863 0.001006
vn -0.090861 -0.995863 0.001006
vn 0.995532 -0.085770 0.039489
vn 0.259215 -0.010874 -0.965758
vn 0.259215 -0.010874 -0.965758
vn 0.259215 -0.010874 -0.965758
vn 0.259215 -0.010874 -0.965758
vn -0.330500 -0.002150 -0.943804
vn -0.330500 -0.002150 -0.943804
vn -0.330500 -0.002150 -0.943804
vn -0.330500 -0.002150 -0.943804
vn 0.164981 0.000691 -0.986297
vn 0.164981 0.000691 -0.986297
vn 0.164981 0.000691 -0.986297
vn 0.164981 0.000691 -0.986297
vn 0.318041 -0.006768 -0.948053
vn 0.318041 -0.006768 -0.948053
vn 0.318041 -0.006768 -0.948053
vn 0.318041 -0.006768 -0.948053
vn 0.246172 0.627046 -0.739062
vn 0.246172 0.627046 -0.739062
vn 0.246172 0.627046 -0.739062
vn 0.246172 0.627046 -0.739062
vn 0.269750 0.645197 -0.714812
vn 0.269750 0.645197 -0.714812
vn -0.001363 0.994013 -0.109255
vn -0.001363 0.994013 -0.109255
vn -0.001363 0.994013 -0.109255
vn -0.001363 0.994013 -0.109255
vn -0.009199 0.995907 -0.089910
vn -0.009199 0.995907 -0.089910
vn -0.009199 0.995907 -0.089910
vn -0.009199 0.995907 -0.089910
vn -0.056241 0.993530 -0.098670
vn -0.040268 0.994278 -0.098942
vn -0.056241 0.993530 -0.098670
vn -0.040268 0.994278 -0.098942
vn -0.092253 0.989666 -0.109775
vn -0.082757 0.989856 -0.115483
vn -0.092253 0.989666 -0.109775
vn -0.082757 0.989856 -0.115483
vn -0.092253 0.989666 -0.109775
vn 0.112507 0.985695 -0.125487
vn 0.112507 0.985695 -0.125487
vn 0.112507 0.985695 -0.125487
vn 0.112507 0.985695 -0.125487
vn 0.172756 0.974308 -0.144499
vn 0.172756 0.974308 -0.144499
vn 0.172756 0.974308 -0.144499
vn 0.172756 0.974308 -0.144499
vn 0.203942 0.924193 -0.322915
vn 0.203942 0.924193 -0.322915
vn 0.203942 0.924193 -0.322915
vn 0.203942 0.924193 -0.322915
vn 0.262707 0.609878 -0.747686
vn 0.262707 0.609878 -0.747686
vn 0.262707 0.609878 -0.747686
vn 0.262707 0.609878 -0.747686
vn 0.224813 0.944043 -0.241333
vn 0.224813 0.944043 -0.241333
vn 0.224813 0.944043 -0.241333
vn 0.224813 0.944043 -0.241333
vn -0.262985 0.570778 -0.777850
vn -0.262985 0.570778 -0.777850
vn -0.262985 0.570778 -0.777850
vn -0.262985 0.570778 -0.777850
vn -0.000090 0.609596 -0.792712
vn -0.000090 0.609596 -0.792712
vn -0.000090 0.609596 -0.792712
vn -0.000090 0.609596 -0.792712
vn -0.000090 0.609596 -0.792712
vn -0.000090 0.609596 -0.792712
vn -0.161563 0.615576 -0.771339
vn -0.161563 0.615576 -0.771339
vn -0.161563 0.615576 -0.771339
vn -0.161563 0.615576 -0.771339
vn 0.126868 0.607608 -0.784039
vn 0.126868 0.607608 -0.784039
vn 0.126868 0.607608 -0.784039
vn 0.126868 0.607608 -0.784039
vn -0.187288 -0.001239 -0.982304
vn -0.187288 -0.001239 -0.982304
vn -0.187288 -0.001239 -0.982304
vn -0.187288 -0.001239 -0.982304
vn 0.042055 -0.998614 0.031649
vn 0.042055 -0.998614 0.031649
vn 0.042055 -0.998614 0.031649
g Fish_Bottom
usemtl Bottom
f 1 2 3
f 4 5 6
f 7 8 9
f 10 11 12
f 13 14 15
f 16 17 18
f 19 20 21
f 22 23 24
f 22 24 25
f 26 27 28
f 26 28 29
f 30 31 32
f 30 32 33
f 34 35 36
f 34 36 37
f 38 39 40
f 38 40 41
f 42 43 44
f 42 44 45
f 46 47 48
f 46 48 49
f 50 51 52
f 50 52 53
f 54 55 56
f 54 56 57
f 58 59 60
f 58 60 61
f 62 63 64
f 62 64 65
f 66 67 68
f 66 68 69
f 70 71 72
f 70 72 73
f 74 75 76
f 74 76 77
f 78 79 80
f 78 80 81
f 82 83 84
f 82 84 85
f 86 87 88
f 86 88 89
f 90 91 92
f 90 92 93
f 94 95 96
f 94 96 97
f 98 94 97
f 98 97 99
f 100 101 102
f 100 103 101
f 103 104 101
f 103 105 104
f 105 106 104
f 105 107 106
f 106 107 108
f 106 108 109
f 107 110 108
f 107 111 110
f 110 111 112
f 113 114 115
f 113 115 116
f 117 118 119
f 117 119 120
f 121 122 123
f 121 123 124
f 125 126 127
f 125 127 128
f 129 130 131
f 129 131 132
f 133 134 135
f 133 135 136
f 137 138 139
f 137 139 140
f 141 142 143
f 141 143 144
f 145 146 147
f 145 147 148
f 149 150 151
f 149 151 152
f 153 154 155
f 153 155 156
f 157 158 159
f 157 159 160
f 161 162 163
f 162 164 163
f 165 166 167
f 165 167 168
f 169 170 171
f 169 171 172
f 173 174 175
f 176 173 175
f 176 177 173
f 178 179 180
f 178 180 181
f 182 183 184
f 182 184 185
f 186 187 188
f 186 188 189
f 190 191 192
f 190 192 193
f 194 195 196
f 194 196 197
f 198 199 200
f 198 200 201
f 202 203 204
f 202 204 205
f 206 207 208
f 206 208 209
f 210 211 212
f 210 212 213
f 214 215 216
f 214 216 217
f 218 219 220
f 218 220 221
f 222 223 224
f 222 224 225
f 226 227 228
f 226 228 229
f 229 228 230
f 229 230 231
f 232 233 234
f 232 234 235
f 236 237 238
f 236 238 239
f 240 241 242
f 240 243 241
f 244 243 240
f 244 245 243
f 246 245 244
f 246 247 245
f 248 247 246
f 248 249 247
f 250 249 248
f 250 251 249
f 252 253 254
f 252 254 255
f 255 254 256
f 255 256 257
f 257 256 258
f 257 258 259
f 259 258 260
f 259 260 261
f 261 260 262
f 261 262 263
f 263 262 264
f 263 264 265
f 266 267 268
f 266 268 269
f 269 268 270
f 269 270 271
f 271 270 272
f 271 272 273
f 273 272 274
f 273 274 275
f 275 274 276
f 275 276 277
f 277 276 278
f 277 278 279
f 279 278 280
f 279 280 281
f 282 283 284
f 282 284 285
f 286 287 288
f 286 288 289
g Fish_Fins
usemtl Fins
f 290 291 292
f 293 294 295
f 296 297 298
f 299 300 301
f 302 303 304
f 305 306 307
f 308 309 310
f 311 312 313
f 314 315 316
f 314 316 317
f 275 318 273
f 275 319 318
f 277 319 275
f 319 320 318
f 318 320 321
f 318 321 322
f 322 321 323
f 263 324 261
f 263 325 324
f 326 325 263
f 325 327 324
f 325 328 327
f 329 330 331
f 329 331 332
f 333 334 335
f 333 335 336
f 335 337 336
f 335 338 337
f 339 340 341
f 339 341 342
f 341 343 342
f 341 344 343
f 345 346 347
f 345 347 348
f 347 349 348
f 347 350 349
f 351 352 353
f 351 353 354
f 353 355 354
f 353 356 355
f 357 358 359
f 357 359 360
f 361 362 363
f 361 363 364
f 365 361 364
f 365 364 366
f 367 368 369
f 367 369 370
f 369 371 370
f 369 372 371
f 373 374 375
f 373 375 376
f 377 373 376
f 377 376 378
f 379 380 381
f 379 381 382
f 383 379 382
f 383 382 384
f 385 386 387
f 385 387 388
f 389 390 391
f 389 391 392
f 393 394 395
f 393 395 396
f 397 398 399
f 397 399 400
f 401 402 403
f 401 403 404
f 405 406 407
f 405 407 408
f 409 410 411
f 409 411 412
f 413 414 415
f 413 415 416
f 417 418 419
f 417 419 420
f 421 422 423
f 421 423 424
f 425 426 427
f 425 427 428
f 429 430 431
f 429 431 432
f 433 434 435
f 433 435 436
f 437 438 439
f 437 439 440
f 441 442 443
f 441 443 444
f 445 446 447
f 445 447 448
f 449 450 451
f 449 451 452
f 453 454 455
f 453 455 456
f 457 458 459
f 457 459 460
f 461 457 460
f 461 460 462
f 463 464 465
f 463 465 466
f 467 468 469
f 467 469 470
f 471 472 473
f 471 473 474
f 475 476 477
f 475 477 478
f 478 477 479
f 478 479 480
f 481 482 483
f 481 483 484
f 485 486 487
f 485 487 488
f 489 490 491
f 489 491 492
f 493 494 495
f 493 495 496
f 497 498 499
f 497 499 500
f 501 497 500
f 500 499 502
f 499 503 502
f 499 504 503
f 504 505 503
f 506 507 508
f 506 508 509
f 510 506 509
f 509 508 511
f 509 511 512
f 513 514 515
f 513 515 516
f 517 518 519
f 518 517 520
f 520 521 518
f 521 520 522
f 523 518 521
f 521 522 524
f 524 523 521
f 525 526 527
f 528 525 527
f 529 530 531
f 529 532 530
f 533 532 529
f 533 534 532
f 534 533 535
f 535 533 536
f 535 536 537
f 534 535 538
f 537 539 535
f 538 535 540
f 539 540 535
f 538 540 541
f 539 542 540
f 543 544 545
f 543 545 546
f 547 548 549
f 547 549 550
f 551 552 553
f 551 553 554
f 555 556 557
f 555 557 558
f 559 560 561
f 559 561 562
f 563 564 565
f 563 565 566
f 567 568 569
f 567 569 570
f 571 572 573
f 571 573 574
f 575 576 577
f 575 577 578
f 579 580 581
f 579 581 582
f 583 584 585
f 583 585 586
f 587 588 589
f 587 589 590
f 591 592 593
f 591 593 594
f 595 596 597
f 595 597 598
f 599 600 601
f 599 601 602
f 603 604 605
f 603 605 606
f 607 608 609
f 607 609 610
f 611 612 613
f 611 614 612
f 615 614 611
f 615 616 614
f 617 618 619
f 619 618 620
f 619 620 621
f 620 622 621
f 622 620 623
f 622 623 624
f 625 621 622
f 625 622 626
f 627 625 626
g Fish_Top
usemtl Top
f 628 2 1
f 629 630 631
f 629 631 632
f 633 634 635
f 633 635 636
f 637 638 639
f 637 639 640
f 641 642 643
f 641 643 644
f 645 646 647
f 645 647 648
f 648 647 649
f 648 649 650
f 651 652 653
f 651 654 652
f 654 655 652
f 654 656 655
f 656 657 655
f 656 658 657
f 657 658 659
f 657 659 660
f 658 661 659
f 662 657 660
f 658 663 661
f 662 661 663
f 662 664 657
f 662 663 664
f 664 663 665
f 664 665 666
f 663 667 665
f 668 669 670
f 668 670 671
f 672 673 674
f 672 674 675
f 676 677 678
f 676 678 679
f 680 681 682
f 680 682 683
f 684 685 686
f 684 686 687
f 688 689 690
f 688 690 691
f 692 693 694
f 692 694 695
f 696 692 695
f 696 695 697
f 698 699 700
f 698 700 701
f 702 703 704
f 702 704 705
f 706 707 708
f 706 708 709
f 283 267 284
f 283 264 267
f 267 264 262
f 267 262 268
f 268 262 260
f 268 260 270
f 272 270 260
f 272 260 258
f 256 272 258
f 256 274 272
f 254 274 256
f 254 276 274
f 253 276 254
f 253 278 276
f 278 253 241
f 278 241 243
f 243 280 278
f 245 280 243
f 247 710 711
f 247 711 712
f 249 227 247
f 249 228 227
f 251 228 249
f 251 230 228
