mtllib Materials.mtl
# Ultimate Food Pack - FishBone
o FishBone
v 0.922296 0.224214 -0.059949
v 0.921468 0.223807 -0.074691
v 0.890325 0.300594 -0.075063
v 0.891152 0.301001 -0.060322
v 0.923123 0.224621 -0.045208
v 0.891980 0.301408 -0.045580
v 0.924779 0.225436 -0.015725
v 0.893635 0.302223 -0.016097
v 0.617061 0.099265 -0.297393
v 0.519261 0.059436 -0.330917
v 0.488117 0.136223 -0.331289
v 0.585918 0.176052 -0.297765
v 0.716976 0.139955 -0.263144
v 0.685833 0.216742 -0.263517
v 0.480352 0.045185 -0.015393
v 0.554264 0.076655 0.292534
v 0.523120 0.153442 0.292162
v 0.449209 0.121972 -0.015765
v 0.742909 0.152712 0.198745
v 0.924779 0.225436 -0.015725
v 0.893635 0.302223 -0.016097
v 0.711765 0.229499 0.198373
v 0.665868 0.120374 -0.026319
v 0.634724 0.197161 -0.026691
v 0.686509 0.218087 -0.042529
v 0.717652 0.141301 -0.042157
v 0.647578 0.114277 0.246141
v 0.742909 0.152712 0.198745
v 0.711765 0.229499 0.198373
v 0.616434 0.191064 0.245769
v 0.554264 0.076655 0.292534
v 0.523120 0.153442 0.292162
v 0.921468 0.223807 -0.074691
v 0.716976 0.139955 -0.263144
v 0.685833 0.216742 -0.263517
v 0.890325 0.300594 -0.075063
v 0.499806 0.052311 -0.173155
v 0.480352 0.045185 -0.015393
v 0.449209 0.121972 -0.015765
v 0.468663 0.129098 -0.173527
v 0.519261 0.059436 -0.330917
v 0.488117 0.136223 -0.331289
v 0.480652 0.061629 -0.031336
v 0.481556 0.062073 -0.015240
v 0.292028 0.004708 -0.006549
v 0.291206 0.004385 -0.022672
v -0.466256 0.119601 0.012459
v -0.473417 0.146322 0.011670
v -0.691612 0.119462 0.021655
v -0.684624 0.092612 0.022487
v -0.464856 0.106010 -0.026373
v -0.464107 0.106673 -0.010276
v -0.682567 0.079662 -0.000229
v -0.683302 0.078973 -0.016325
v -0.682567 0.079662 -0.000229
v -0.684624 0.092612 0.022487
v -0.691612 0.119462 0.021655
v -0.695776 0.130418 -0.001800
v -0.683302 0.078973 -0.016325
v -0.696512 0.129729 -0.017901
v -0.687471 0.089947 -0.039784
v -0.694459 0.116797 -0.040616
v -0.476306 0.143755 -0.050606
v -0.469150 0.117036 -0.049817
v -0.687471 0.089947 -0.039784
v -0.694459 0.116797 -0.040616
v -0.477662 0.157225 -0.011765
v -0.478409 0.156563 -0.027867
v -0.696512 0.129729 -0.017901
v -0.695776 0.130418 -0.001800
v 0.120106 0.013335 0.028539
v -0.057603 0.073123 0.038172
v -0.049051 0.045585 0.038821
v 0.110485 0.040722 0.028087
v 0.289130 0.017623 0.016313
v 0.278678 0.044297 0.016082
v 0.478208 0.074161 0.007792
v 0.467776 0.099883 0.007667
v -0.049051 0.045585 0.038821
v -0.057603 0.073123 0.038172
v -0.255128 0.122413 0.020599
v -0.247463 0.095262 0.021352
v -0.247463 0.095262 0.021352
v -0.255128 0.122413 0.020599
v -0.473417 0.146322 0.011670
v -0.466256 0.119601 0.012459
v 0.272665 0.055406 -0.007081
v 0.271842 0.055095 -0.023211
v 0.104047 0.051593 -0.011281
v 0.104915 0.052023 0.004828
v 0.104915 0.052023 0.004828
v 0.104047 0.051593 -0.011281
v -0.063530 0.083692 -0.001247
v -0.062666 0.084279 0.014845
v -0.062666 0.084279 0.014845
v -0.063530 0.083692 -0.001247
v -0.260419 0.132840 -0.018909
v -0.259645 0.133443 -0.002805
v 0.461836 0.110696 -0.015474
v 0.460932 0.110251 -0.031574
v 0.271842 0.055095 -0.023211
v 0.272665 0.055406 -0.007081
v 0.107143 0.039042 -0.034215
v -0.052324 0.043287 -0.023421
v -0.060922 0.070841 -0.024064
v 0.116791 0.011632 -0.033765
v 0.275500 0.043076 -0.046300
v 0.285951 0.016375 -0.046066
v 0.464280 0.098163 -0.054604
v 0.474712 0.072441 -0.054480
v -0.060922 0.070841 -0.024064
v -0.052324 0.043287 -0.023421
v -0.250431 0.092922 -0.040936
v -0.258113 0.120077 -0.041687
v -0.258113 0.120077 -0.041687
v -0.250431 0.092922 -0.040936
v -0.469150 0.117036 -0.049817
v -0.476306 0.143755 -0.050606
v -0.259645 0.133443 -0.002805
v -0.260419 0.132840 -0.018909
v -0.478409 0.156563 -0.027867
v -0.477662 0.157225 -0.011765
v 0.467776 0.099883 0.007667
v 0.478208 0.074161 0.007792
v 0.481556 0.062073 -0.015240
v 0.461836 0.110696 -0.015474
v 0.480652 0.061629 -0.031336
v 0.460932 0.110251 -0.031574
v 0.474712 0.072441 -0.054480
v 0.464280 0.098163 -0.054604
v 0.291206 0.004385 -0.022672
v 0.292028 0.004708 -0.006549
v 0.123146 0.000238 0.005675
v 0.122291 -0.000204 -0.010430
v 0.122291 -0.000204 -0.010430
v 0.123146 0.000238 0.005675
v -0.046449 0.032212 0.016062
v -0.047290 0.031616 -0.000027
v -0.047290 0.031616 -0.000027
v -0.046449 0.032212 0.016062
v -0.245129 0.082115 -0.001388
v -0.245894 0.081510 -0.017489
v -0.245894 0.081510 -0.017489
v -0.245129 0.082115 -0.001388
v -0.464107 0.106673 -0.010276
v -0.464856 0.106010 -0.026373
v -0.949596 -0.009950 -0.146680
v -0.970452 0.070207 -0.149165
v -1.030062 0.049953 -0.302209
v -1.009206 -0.030204 -0.299725
v -0.938266 0.002811 0.169828
v -0.959121 0.082968 0.167343
v -0.958483 0.078150 0.006585
v -0.937627 -0.002007 0.009070
v -0.665276 0.066803 -0.040827
v -0.680037 0.062269 -0.075735
v -0.700899 0.142424 -0.078219
v -0.686157 0.146954 -0.043307
v -0.650458 0.071143 -0.005906
v -0.671370 0.151286 -0.008380
v -0.663670 0.069477 0.030435
v -0.650458 0.071143 -0.005906
v -0.671370 0.151286 -0.008380
v -0.684549 0.149628 0.027954
v -0.676813 0.067569 0.066792
v -0.697672 0.147725 0.064308
v -0.970452 0.070207 -0.149165
v -0.700899 0.142424 -0.078219
v -1.030062 0.049953 -0.302209
v -0.686157 0.146954 -0.043307
v -0.958483 0.078150 0.006585
v -0.671370 0.151286 -0.008380
v -0.959121 0.082968 0.167343
v -0.684549 0.149628 0.027954
v -1.004844 0.075848 0.321415
v -0.697672 0.147725 0.064308
v -0.983988 -0.004309 0.323899
v -0.676813 0.067569 0.066792
v -0.697672 0.147725 0.064308
v -1.004844 0.075848 0.321415
v -1.030062 0.049953 -0.302209
v -0.700899 0.142424 -0.078219
v -0.680037 0.062269 -0.075735
v -1.009206 -0.030204 -0.299725
v -0.938266 0.002811 0.169828
v -0.676813 0.067569 0.066792
v -0.983988 -0.004309 0.323899
v -0.663670 0.069477 0.030435
v -0.937627 -0.002007 0.009070
v -0.650458 0.071143 -0.005906
v -0.949596 -0.009950 -0.146680
v -0.665276 0.066803 -0.040827
v -1.009206 -0.030204 -0.299725
v -0.680037 0.062269 -0.075735
v -0.937627 -0.002007 0.009070
v -0.958483 0.078150 0.006585
v -0.970452 0.070207 -0.149165
v -0.949596 -0.009950 -0.146680
v -0.983988 -0.004309 0.323899
v -1.004844 0.075848 0.321415
v -0.959121 0.082968 0.167343
v -0.938266 0.002811 0.169828
v -0.469150 0.117036 -0.049817
v -0.464856 0.106010 -0.026373
v -0.683302 0.078973 -0.016325
v -0.687471 0.089947 -0.039784
v 0.275500 0.043076 -0.046300
v 0.271842 0.055095 -0.023211
v 0.460932 0.110251 -0.031574
v 0.464280 0.098163 -0.054604
v -0.464107 0.106673 -0.010276
v -0.466256 0.119601 0.012459
v -0.684624 0.092612 0.022487
v -0.682567 0.079662 -0.000229
v 0.272665 0.055406 -0.007081
v 0.278678 0.044297 0.016082
v 0.467776 0.099883 0.007667
v 0.461836 0.110696 -0.015474
v 0.474712 0.072441 -0.054480
v 0.480652 0.061629 -0.031336
v 0.291206 0.004385 -0.022672
v 0.285951 0.016375 -0.046066
v 0.285951 0.016375 -0.046066
v 0.291206 0.004385 -0.022672
v 0.122291 -0.000204 -0.010430
v 0.116791 0.011632 -0.033765
v 0.116791 0.011632 -0.033765
v 0.122291 -0.000204 -0.010430
v -0.047290 0.031616 -0.000027
v -0.052324 0.043287 -0.023421
v -0.245894 0.081510 -0.017489
v -0.250431 0.092922 -0.040936
v -0.250431 0.092922 -0.040936
v -0.245894 0.081510 -0.017489
v -0.464856 0.106010 -0.026373
v -0.469150 0.117036 -0.049817
v -0.694459 0.116797 -0.040616
v -0.696512 0.129729 -0.017901
v -0.478409 0.156563 -0.027867
v -0.476306 0.143755 -0.050606
v -0.476306 0.143755 -0.050606
v -0.478409 0.156563 -0.027867
v -0.260419 0.132840 -0.018909
v -0.258113 0.120077 -0.041687
v -0.258113 0.120077 -0.041687
v -0.260419 0.132840 -0.018909
v -0.063530 0.083692 -0.001247
v -0.060922 0.070841 -0.024064
v -0.060922 0.070841 -0.024064
v -0.063530 0.083692 -0.001247
v 0.104047 0.051593 -0.011281
v 0.107143 0.039042 -0.034215
v 0.107143 0.039042 -0.034215
v 0.104047 0.051593 -0.011281
v 0.271842 0.055095 -0.023211
v 0.275500 0.043076 -0.046300
v 0.481556 0.062073 -0.015240
v 0.478208 0.074161 0.007792
v 0.289130 0.017623 0.016313
v 0.292028 0.004708 -0.006549
v 0.292028 0.004708 -0.006549
v 0.289130 0.017623 0.016313
v 0.120106 0.013335 0.028539
v 0.123146 0.000238 0.005675
v 0.123146 0.000238 0.005675
v 0.120106 0.013335 0.028539
v -0.049051 0.045585 0.038821
v -0.046449 0.032212 0.016062
v -0.046449 0.032212 0.016062
v -0.049051 0.045585 0.038821
v -0.247463 0.095262 0.021352
v -0.245129 0.082115 -0.001388
v -0.245129 0.082115 -0.001388
v -0.247463 0.095262 0.021352
v -0.466256 0.119601 0.012459
v -0.464107 0.106673 -0.010276
v -0.695776 0.130418 -0.001800
v -0.691612 0.119462 0.021655
v -0.473417 0.146322 0.011670
v -0.477662 0.157225 -0.011765
v -0.477662 0.157225 -0.011765
v -0.473417 0.146322 0.011670
v -0.255128 0.122413 0.020599
v -0.259645 0.133443 -0.002805
v -0.259645 0.133443 -0.002805
v -0.255128 0.122413 0.020599
v -0.057603 0.073123 0.038172
v -0.062666 0.084279 0.014845
v 0.110485 0.040722 0.028087
v 0.104915 0.052023 0.004828
v 0.104915 0.052023 0.004828
v 0.110485 0.040722 0.028087
v 0.278678 0.044297 0.016082
v 0.272665 0.055406 -0.007081
v 0.356760 0.060373 -0.197155
v 0.322475 0.052118 -0.288488
v 0.292393 0.045726 -0.262635
v 0.320572 0.051472 -0.187331
v 0.346263 0.023282 -0.015360
v 0.367423 0.033416 -0.196959
v 0.397002 0.037897 -0.017520
v 0.331233 0.024272 -0.187107
v 0.333053 0.025099 -0.288271
v 0.302985 0.018489 -0.262395
v 0.382746 0.073715 -0.017762
v 0.356760 0.060373 -0.197155
v 0.320572 0.051472 -0.187331
v 0.332052 0.059590 -0.015666
v 0.342431 0.064190 0.154026
v 0.380979 0.075084 0.160909
v 0.397002 0.037897 -0.017520
v 0.367423 0.033416 -0.196959
v 0.356760 0.060373 -0.197155
v 0.382746 0.073715 -0.017762
v 0.332052 0.059590 -0.015666
v 0.320572 0.051472 -0.187331
v 0.331233 0.024272 -0.187107
v 0.346263 0.023282 -0.015360
v 0.352747 0.036981 0.154309
v 0.342431 0.064190 0.154026
v 0.333053 0.025099 -0.288271
v 0.252512 0.018271 -0.390667
v 0.249515 0.026123 -0.390746
v 0.322475 0.052118 -0.288488
v 0.367423 0.033416 -0.196959
v 0.333053 0.025099 -0.288271
v 0.322475 0.052118 -0.288488
v 0.356760 0.060373 -0.197155
v 0.320572 0.051472 -0.187331
v 0.292393 0.045726 -0.262635
v 0.302985 0.018489 -0.262395
v 0.331233 0.024272 -0.187107
v 0.252512 0.018271 -0.390667
v 0.246305 0.017694 -0.380541
v 0.243316 0.025566 -0.380623
v 0.249515 0.026123 -0.390746
v 0.292393 0.045726 -0.262635
v 0.243316 0.025566 -0.380623
v 0.246305 0.017694 -0.380541
v 0.302985 0.018489 -0.262395
v 0.302985 0.018489 -0.262395
v 0.246305 0.017694 -0.380541
v 0.252512 0.018271 -0.390667
v 0.333053 0.025099 -0.288271
v 0.322475 0.052118 -0.288488
v 0.249515 0.026123 -0.390746
v 0.243316 0.025566 -0.380623
v 0.292393 0.045726 -0.262635
v 0.221502 0.040035 -0.191915
v 0.184230 0.037757 -0.301999
v 0.149199 0.037741 -0.273062
v 0.180736 0.039122 -0.182536
v 0.245236 0.048039 -0.013724
v 0.189091 0.044456 -0.013410
v 0.199460 0.049113 0.153101
v 0.242373 0.051852 0.162130
v 0.205685 0.000450 -0.012893
v 0.233975 0.007261 -0.191560
v 0.261912 0.004287 -0.013250
v 0.192878 0.006070 -0.182094
v 0.196087 0.004838 -0.301524
v 0.160880 0.004588 -0.272530
v 0.261912 0.004287 -0.013250
v 0.233975 0.007261 -0.191560
v 0.221502 0.040035 -0.191915
v 0.245236 0.048039 -0.013724
v 0.189091 0.044456 -0.013410
v 0.180736 0.039122 -0.182536
v 0.192878 0.006070 -0.182094
v 0.205685 0.000450 -0.012893
v 0.210965 0.015855 0.153674
v 0.199460 0.049113 0.153101
v 0.196087 0.004838 -0.301524
v 0.105605 0.015297 -0.427118
v 0.102485 0.024879 -0.427315
v 0.184230 0.037757 -0.301999
v 0.233975 0.007261 -0.191560
v 0.196087 0.004838 -0.301524
v 0.184230 0.037757 -0.301999
v 0.221502 0.040035 -0.191915
v 0.180736 0.039122 -0.182536
v 0.160880 0.004588 -0.272530
v 0.192878 0.006070 -0.182094
v 0.149199 0.037741 -0.273062
v 0.098086 0.016354 -0.415463
v 0.094975 0.025950 -0.415663
v 0.105605 0.015297 -0.427118
v 0.098086 0.016354 -0.415463
v 0.094975 0.025950 -0.415663
v 0.102485 0.024879 -0.427315
v 0.160880 0.004588 -0.272530
v 0.098086 0.016354 -0.415463
v 0.105605 0.015297 -0.427118
v 0.196087 0.004838 -0.301524
v 0.184230 0.037757 -0.301999
v 0.102485 0.024879 -0.427315
v 0.094975 0.025950 -0.415663
v 0.149199 0.037741 -0.273062
v 0.090650 0.044385 -0.191800
v 0.055509 0.046251 -0.303684
v 0.019662 0.052613 -0.277029
v 0.049585 0.050050 -0.184977
v 0.108091 0.047618 -0.014079
v 0.052883 0.054808 -0.015107
v 0.066092 0.059736 0.152329
v 0.108972 0.054722 0.160486
v 0.068010 0.010075 -0.014261
v 0.060257 0.016202 -0.184197
v 0.102039 0.010902 -0.191182
v 0.123810 0.003095 -0.013356
v 0.123810 0.003095 -0.013356
v 0.102039 0.010902 -0.191182
v 0.090650 0.044385 -0.191800
v 0.108091 0.047618 -0.014079
v 0.052883 0.054808 -0.015107
v 0.049585 0.050050 -0.184977
v 0.060257 0.016202 -0.184197
v 0.068010 0.010075 -0.014261
v 0.066265 0.012768 -0.302959
v -0.021357 0.035712 -0.433420
v -0.024138 0.045379 -0.433684
v 0.055509 0.046251 -0.303684
v 0.102039 0.010902 -0.191182
v 0.066265 0.012768 -0.302959
v 0.055509 0.046251 -0.303684
v 0.090650 0.044385 -0.191800
v 0.049585 0.050050 -0.184977
v 0.030227 0.019051 -0.276263
v 0.060257 0.016202 -0.184197
v 0.019662 0.052613 -0.277029
v -0.029415 0.038063 -0.422222
v -0.032188 0.047734 -0.422487
v 0.060257 0.016202 -0.184197
v 0.030227 0.019051 -0.276263
v 0.066265 0.012768 -0.302959
v 0.102039 0.010902 -0.191182
v -0.021357 0.035712 -0.433420
v -0.029415 0.038063 -0.422222
v -0.032188 0.047734 -0.422487
v -0.024138 0.045379 -0.433684
v 0.030227 0.019051 -0.276263
v -0.029415 0.038063 -0.422222
v -0.021357 0.035712 -0.433420
v 0.066265 0.012768 -0.302959
v 0.055509 0.046251 -0.303684
v -0.024138 0.045379 -0.433684
v -0.032188 0.047734 -0.422487
v 0.019662 0.052613 -0.277029
v -0.052908 0.069374 -0.198029
v -0.088899 0.074871 -0.301628
v -0.123430 0.084379 -0.276311
v -0.093317 0.078799 -0.190993
v -0.033168 0.070792 -0.017194
v -0.086516 0.084058 -0.018576
v -0.077262 0.089819 0.151948
v -0.036086 0.080609 0.160613
v -0.073710 0.042425 -0.017575
v -0.043463 0.037980 -0.197233
v -0.019906 0.029089 -0.016261
v -0.084049 0.047538 -0.190183
v -0.079930 0.043651 -0.300772
v -0.114588 0.053208 -0.275440
v -0.019906 0.029089 -0.016261
v -0.043463 0.037980 -0.197233
v -0.052908 0.069374 -0.198029
v -0.033168 0.070792 -0.017194
v -0.086516 0.084058 -0.018576
v -0.093317 0.078799 -0.190993
v -0.084049 0.047538 -0.190183
v -0.073710 0.042425 -0.017575
v -0.068061 0.058625 0.152762
v -0.077262 0.089819 0.151948
v -0.079930 0.043651 -0.300772
v -0.167200 0.071731 -0.420740
v -0.169511 0.080693 -0.421027
v -0.088899 0.074871 -0.301628
v -0.043463 0.037980 -0.197233
v -0.079930 0.043651 -0.300772
v -0.088899 0.074871 -0.301628
v -0.052908 0.069374 -0.198029
v -0.093317 0.078799 -0.190993
v -0.123430 0.084379 -0.276311
v -0.114588 0.053208 -0.275440
v -0.084049 0.047538 -0.190183
v -0.167200 0.071731 -0.420740
v -0.175018 0.074467 -0.410155
v -0.177327 0.083425 -0.410443
v -0.169511 0.080693 -0.421027
v -0.123430 0.084379 -0.276311
v -0.177327 0.083425 -0.410443
v -0.175018 0.074467 -0.410155
v -0.114588 0.053208 -0.275440
v -0.114588 0.053208 -0.275440
v -0.175018 0.074467 -0.410155
v -0.167200 0.071731 -0.420740
v -0.079930 0.043651 -0.300772
v -0.088899 0.074871 -0.301628
v -0.169511 0.080693 -0.421027
v -0.177327 0.083425 -0.410443
v -0.123430 0.084379 -0.276311
v -0.200135 0.102522 -0.191126
v -0.237258 0.109611 -0.275479
v -0.266629 0.116217 -0.251537
v -0.235717 0.110778 -0.182215
v -0.171126 0.103240 -0.020421
v -0.218722 0.115236 -0.021184
v -0.220845 0.122314 0.138712
v -0.184411 0.114516 0.148291
v -0.208784 0.080671 -0.020250
v -0.192854 0.076506 -0.190387
v -0.160929 0.068530 -0.019514
v -0.228549 0.084843 -0.181467
v -0.230339 0.083687 -0.274690
v -0.259733 0.090353 -0.250751
v -0.315311 0.103966 -0.368283
v -0.321824 0.105369 -0.358732
v -0.160929 0.068530 -0.019514
v -0.192854 0.076506 -0.190387
v -0.200135 0.102522 -0.191126
v -0.171126 0.103240 -0.020421
v -0.218722 0.115236 -0.021184
v -0.235717 0.110778 -0.182215
v -0.228549 0.084843 -0.181467
v -0.208784 0.080671 -0.020250
v -0.230339 0.083687 -0.274690
v -0.315311 0.103966 -0.368283
v -0.317142 0.111412 -0.368534
v -0.237258 0.109611 -0.275479
v -0.192854 0.076506 -0.190387
v -0.230339 0.083687 -0.274690
v -0.237258 0.109611 -0.275479
v -0.200135 0.102522 -0.191126
v -0.235717 0.110778 -0.182215
v -0.266629 0.116217 -0.251537
v -0.259733 0.090353 -0.250751
v -0.228549 0.084843 -0.181467
v -0.315311 0.103966 -0.368283
v -0.321824 0.105369 -0.358732
v -0.323660 0.112811 -0.358981
v -0.317142 0.111412 -0.368534
v -0.266629 0.116217 -0.251537
v -0.323660 0.112811 -0.358981
v -0.321824 0.105369 -0.358732
v -0.259733 0.090353 -0.250751
v -0.237258 0.109611 -0.275479
v -0.317142 0.111412 -0.368534
v -0.323660 0.112811 -0.358981
v -0.266629 0.116217 -0.251537
v -0.334394 0.129816 -0.149747
v -0.351925 0.130720 -0.212183
v -0.383468 0.134648 -0.187840
v -0.372989 0.134926 -0.142593
v -0.311999 0.135016 -0.021722
v -0.363114 0.142676 -0.021361
v -0.353772 0.108553 -0.020378
v -0.327453 0.104113 -0.148987
v -0.302479 0.100746 -0.020752
v -0.366128 0.109303 -0.141829
v -0.345179 0.105025 -0.211392
v -0.376727 0.109026 -0.187056
v -0.435326 0.117213 -0.303723
v -0.442196 0.117675 -0.294066
v -0.302479 0.100746 -0.020752
v -0.327453 0.104113 -0.148987
v -0.334394 0.129816 -0.149747
v -0.311999 0.135016 -0.021722
v -0.363114 0.142676 -0.021361
v -0.372989 0.134926 -0.142593
v -0.366128 0.109303 -0.141829
v -0.353772 0.108553 -0.020378
v -0.345179 0.105025 -0.211392
v -0.435326 0.117213 -0.303723
v -0.437158 0.124598 -0.303967
v -0.351925 0.130720 -0.212183
v -0.327453 0.104113 -0.148987
v -0.345179 0.105025 -0.211392
v -0.351925 0.130720 -0.212183
v -0.334394 0.129816 -0.149747
v -0.372989 0.134926 -0.142593
v -0.383468 0.134648 -0.187840
v -0.376727 0.109026 -0.187056
v -0.366128 0.109303 -0.141829
v -0.435326 0.117213 -0.303723
v -0.442196 0.117675 -0.294066
v -0.444036 0.125055 -0.294308
v -0.437158 0.124598 -0.303967
v -0.383468 0.134648 -0.187840
v -0.444036 0.125055 -0.294308
v -0.442196 0.117675 -0.294066
v -0.376727 0.109026 -0.187056
v -0.351925 0.130720 -0.212183
v -0.437158 0.124598 -0.303967
v -0.444036 0.125055 -0.294308
v -0.383468 0.134648 -0.187840
v -0.460460 0.142803 -0.089989
v -0.481244 0.139896 -0.157098
v -0.517117 0.139300 -0.129817
v -0.504994 0.141822 -0.081029
v -0.486816 0.112595 -0.016802
v -0.497658 0.114193 -0.080203
v -0.453075 0.115128 -0.089166
v -0.427411 0.113040 -0.018852
v -0.437359 0.149935 -0.019933
v -0.460460 0.142803 -0.089989
v -0.504994 0.141822 -0.081029
v -0.496658 0.149394 -0.017890
v -0.427411 0.113040 -0.018852
v -0.460460 0.142803 -0.089989
v -0.437359 0.149935 -0.019933
v -0.453075 0.115128 -0.089166
v -0.481244 0.139896 -0.157098
v -0.473988 0.112218 -0.156253
v -0.496658 0.149394 -0.017890
v -0.504994 0.141822 -0.081029
v -0.497658 0.114193 -0.080203
v -0.486816 0.112595 -0.016802
v -0.473988 0.112218 -0.156253
v -0.574736 0.111524 -0.254512
v -0.576739 0.119514 -0.254771
v -0.481244 0.139896 -0.157098
v -0.504994 0.141822 -0.081029
v -0.517117 0.139300 -0.129817
v -0.509859 0.111660 -0.128977
v -0.497658 0.114193 -0.080203
v -0.497658 0.114193 -0.080203
v -0.509859 0.111660 -0.128977
v -0.473988 0.112218 -0.156253
v -0.453075 0.115128 -0.089166
v -0.574736 0.111524 -0.254512
v -0.582121 0.111155 -0.243931
v -0.584132 0.119143 -0.244189
v -0.576739 0.119514 -0.254771
v -0.517117 0.139300 -0.129817
v -0.584132 0.119143 -0.244189
v -0.582121 0.111155 -0.243931
v -0.509859 0.111660 -0.128977
v -0.509859 0.111660 -0.128977
v -0.582121 0.111155 -0.243931
v -0.574736 0.111524 -0.254512
v -0.473988 0.112218 -0.156253
v -0.481244 0.139896 -0.157098
v -0.576739 0.119514 -0.254771
v -0.584132 0.119143 -0.244189
v -0.517117 0.139300 -0.129817
v 0.380979 0.075084 0.160909
v 0.342431 0.064190 0.154026
v 0.321562 0.062368 0.229681
v 0.352398 0.067593 0.254018
v 0.346263 0.023282 -0.015360
v 0.397002 0.037897 -0.017520
v 0.391349 0.048164 0.161150
v 0.352747 0.036981 0.154309
v 0.397002 0.037897 -0.017520
v 0.382746 0.073715 -0.017762
v 0.380979 0.075084 0.160909
v 0.391349 0.048164 0.161150
v 0.362978 0.040790 0.254210
v 0.352398 0.067593 0.254018
v 0.289000 0.047616 0.359359
v 0.291963 0.039824 0.359436
v 0.391349 0.048164 0.161150
v 0.380979 0.075084 0.160909
v 0.352398 0.067593 0.254018
v 0.362978 0.040790 0.254210
v 0.342431 0.064190 0.154026
v 0.352747 0.036981 0.154309
v 0.332123 0.035371 0.229898
v 0.321562 0.062368 0.229681
v 0.352747 0.036981 0.154309
v 0.391349 0.048164 0.161150
v 0.362978 0.040790 0.254210
v 0.332123 0.035371 0.229898
v 0.291963 0.039824 0.359436
v 0.289000 0.047616 0.359359
v 0.281764 0.046473 0.349497
v 0.284717 0.038660 0.349578
v 0.321562 0.062368 0.229681
v 0.332123 0.035371 0.229898
v 0.284717 0.038660 0.349578
v 0.281764 0.046473 0.349497
v 0.332123 0.035371 0.229898
v 0.362978 0.040790 0.254210
v 0.291963 0.039824 0.359436
v 0.284717 0.038660 0.349578
v 0.352398 0.067593 0.254018
v 0.321562 0.062368 0.229681
v 0.281764 0.046473 0.349497
v 0.289000 0.047616 0.359359
v 0.242373 0.051852 0.162130
v 0.199460 0.049113 0.153101
v 0.179139 0.058036 0.241456
v 0.215128 0.055621 0.270769
v 0.205685 0.000450 -0.012893
v 0.261912 0.004287 -0.013250
v 0.254118 0.018873 0.162630
v 0.210965 0.015855 0.153674
v 0.261912 0.004287 -0.013250
v 0.245236 0.048039 -0.013724
v 0.242373 0.051852 0.162130
v 0.254118 0.018873 0.162630
v 0.226768 0.022889 0.271259
v 0.215128 0.055621 0.270769
v 0.143400 0.051210 0.394605
v 0.146446 0.041672 0.394809
v 0.254118 0.018873 0.162630
v 0.242373 0.051852 0.162130
v 0.215128 0.055621 0.270769
v 0.226768 0.022889 0.271259
v 0.199460 0.049113 0.153101
v 0.210965 0.015855 0.153674
v 0.190443 0.025019 0.242035
v 0.179139 0.058036 0.241456
v 0.210965 0.015855 0.153674
v 0.254118 0.018873 0.162630
v 0.226768 0.022889 0.271259
v 0.190443 0.025019 0.242035
v 0.146446 0.041672 0.394809
v 0.143400 0.051210 0.394605
v 0.134760 0.051614 0.382851
v 0.137794 0.042060 0.383059
v 0.179139 0.058036 0.241456
v 0.190443 0.025019 0.242035
v 0.137794 0.042060 0.383059
v 0.134760 0.051614 0.382851
v 0.190443 0.025019 0.242035
v 0.226768 0.022889 0.271259
v 0.146446 0.041672 0.394809
v 0.137794 0.042060 0.383059
v 0.215128 0.055621 0.270769
v 0.179139 0.058036 0.241456
v 0.134760 0.051614 0.382851
v 0.143400 0.051210 0.394605
v 0.108972 0.054722 0.160486
v 0.066092 0.059736 0.152329
v 0.048164 0.074633 0.241244
v 0.086473 0.069059 0.269109
v 0.068010 0.010075 -0.014261
v 0.123810 0.003095 -0.013356
v 0.120144 0.021293 0.161134
v 0.076999 0.026243 0.153029
v 0.096882 0.035702 0.269877
v 0.058207 0.040996 0.242105
v 0.123810 0.003095 -0.013356
v 0.108091 0.047618 -0.014079
v 0.108972 0.054722 0.160486
v 0.120144 0.021293 0.161134
v 0.052883 0.054808 -0.015107
v 0.068010 0.010075 -0.014261
v 0.076999 0.026243 0.153029
v 0.066092 0.059736 0.152329
v 0.096882 0.035702 0.269877
v 0.086473 0.069059 0.269109
v 0.015633 0.075747 0.395650
v 0.018332 0.066101 0.395925
v 0.120144 0.021293 0.161134
v 0.108972 0.054722 0.160486
v 0.086473 0.069059 0.269109
v 0.096882 0.035702 0.269877
v 0.066092 0.059736 0.152329
v 0.076999 0.026243 0.153029
v 0.058207 0.040996 0.242105
v 0.048164 0.074633 0.241244
v 0.018332 0.066101 0.395925
v 0.015633 0.075747 0.395650
v 0.006542 0.077419 0.384116
v 0.009234 0.067768 0.384393
v 0.048164 0.074633 0.241244
v 0.058207 0.040996 0.242105
v 0.009234 0.067768 0.384393
v 0.006542 0.077419 0.384116
v 0.058207 0.040996 0.242105
v 0.096882 0.035702 0.269877
v 0.018332 0.066101 0.395925
v 0.009234 0.067768 0.384393
v 0.086473 0.069059 0.269109
v 0.048164 0.074633 0.241244
v 0.006542 0.077419 0.384116
v 0.015633 0.075747 0.395650
v -0.036086 0.080609 0.160613
v -0.077262 0.089819 0.151948
v -0.098262 0.105272 0.234533
v -0.060184 0.099771 0.260710
v -0.073710 0.042425 -0.017575
v -0.019906 0.029089 -0.016261
v -0.026677 0.049382 0.161396
v -0.068061 0.058625 0.152762
v -0.051512 0.068596 0.261611
v -0.089634 0.074129 0.235437
v -0.130182 0.105064 0.377137
v -0.138944 0.107020 0.366282
v -0.019906 0.029089 -0.016261
v -0.033168 0.070792 -0.017194
v -0.036086 0.080609 0.160613
v -0.026677 0.049382 0.161396
v -0.051512 0.068596 0.261611
v -0.060184 0.099771 0.260710
v -0.132436 0.114025 0.376840
v -0.130182 0.105064 0.377137
v -0.026677 0.049382 0.161396
v -0.036086 0.080609 0.160613
v -0.060184 0.099771 0.260710
v -0.051512 0.068596 0.261611
v -0.077262 0.089819 0.151948
v -0.068061 0.058625 0.152762
v -0.089634 0.074129 0.235437
v -0.098262 0.105272 0.234533
v -0.130182 0.105064 0.377137
v -0.132436 0.114025 0.376840
v -0.141199 0.115978 0.365985
v -0.138944 0.107020 0.366282
v -0.098262 0.105272 0.234533
v -0.089634 0.074129 0.235437
v -0.138944 0.107020 0.366282
v -0.141199 0.115978 0.365985
v -0.060184 0.099771 0.260710
v -0.098262 0.105272 0.234533
v -0.141199 0.115978 0.365985
v -0.132436 0.114025 0.376840
v -0.184411 0.114516 0.148291
v -0.220845 0.122314 0.138712
v -0.245765 0.134202 0.206697
v -0.213651 0.130190 0.230621
v -0.208784 0.080671 -0.020250
v -0.160929 0.068530 -0.019514
v -0.177157 0.088534 0.149031
v -0.213693 0.096405 0.139460
v -0.206833 0.104259 0.231428
v -0.238945 0.108340 0.207496
v -0.160929 0.068530 -0.019514
v -0.171126 0.103240 -0.020421
v -0.184411 0.114516 0.148291
v -0.177157 0.088534 0.149031
v -0.218722 0.115236 -0.021184
v -0.208784 0.080671 -0.020250
v -0.213693 0.096405 0.139460
v -0.220845 0.122314 0.138712
v -0.206833 0.104259 0.231428
v -0.213651 0.130190 0.230621
v -0.285699 0.144801 0.323239
v -0.283901 0.137354 0.323496
v -0.177157 0.088534 0.149031
v -0.184411 0.114516 0.148291
v -0.213651 0.130190 0.230621
v -0.206833 0.104259 0.231428
v -0.220845 0.122314 0.138712
v -0.213693 0.096405 0.139460
v -0.238945 0.108340 0.207496
v -0.245765 0.134202 0.206697
v -0.283901 0.137354 0.323496
v -0.285699 0.144801 0.323239
v -0.293094 0.144834 0.313915
v -0.291286 0.137391 0.314170
v -0.245765 0.134202 0.206697
v -0.238945 0.108340 0.207496
v -0.291286 0.137391 0.314170
v -0.293094 0.144834 0.313915
v -0.238945 0.108340 0.207496
v -0.206833 0.104259 0.231428
v -0.283901 0.137354 0.323496
v -0.291286 0.137391 0.314170
v -0.213651 0.130190 0.230621
v -0.245765 0.134202 0.206697
v -0.293094 0.144834 0.313915
v -0.285699 0.144801 0.323239
v -0.322573 0.139706 0.106294
v -0.361801 0.144530 0.100013
v -0.368184 0.147983 0.145298
v -0.334507 0.145767 0.168529
v -0.353772 0.108553 -0.020378
v -0.302479 0.100746 -0.020752
v -0.315631 0.114011 0.107053
v -0.354935 0.118911 0.100776
v -0.327767 0.120081 0.169321
v -0.361440 0.122360 0.146082
v -0.409817 0.142241 0.264207
v -0.417490 0.141738 0.255035
v -0.311999 0.135016 -0.021722
v -0.363114 0.142676 -0.021361
v -0.361801 0.144530 0.100013
v -0.322573 0.139706 0.106294
v -0.302479 0.100746 -0.020752
v -0.311999 0.135016 -0.021722
v -0.322573 0.139706 0.106294
v -0.315631 0.114011 0.107053
v -0.363114 0.142676 -0.021361
v -0.353772 0.108553 -0.020378
v -0.354935 0.118911 0.100776
v -0.361801 0.144530 0.100013
v -0.327767 0.120081 0.169321
v -0.334507 0.145767 0.168529
v -0.411649 0.149630 0.263962
v -0.409817 0.142241 0.264207
v -0.315631 0.114011 0.107053
v -0.322573 0.139706 0.106294
v -0.334507 0.145767 0.168529
v -0.327767 0.120081 0.169321
v -0.361801 0.144530 0.100013
v -0.354935 0.118911 0.100776
v -0.361440 0.122360 0.146082
v -0.368184 0.147983 0.145298
v -0.409817 0.142241 0.264207
v -0.411649 0.149630 0.263962
v -0.419330 0.149123 0.254792
v -0.417490 0.141738 0.255035
v -0.368184 0.147983 0.145298
v -0.361440 0.122360 0.146082
v -0.417490 0.141738 0.255035
v -0.419330 0.149123 0.254792
v -0.334507 0.145767 0.168529
v -0.368184 0.147983 0.145298
v -0.419330 0.149123 0.254792
v -0.411649 0.149630 0.263962
v -0.453905 0.148621 0.051664
v -0.499122 0.147115 0.046050
v -0.506731 0.148701 0.095621
v -0.468463 0.151363 0.120001
v -0.486816 0.112595 -0.016802
v -0.427411 0.113040 -0.018852
v -0.446512 0.120943 0.052486
v -0.491776 0.119481 0.046875
v -0.437359 0.149935 -0.019933
v -0.496658 0.149394 -0.017890
v -0.499122 0.147115 0.046050
v -0.453905 0.148621 0.051664
v -0.427411 0.113040 -0.018852
v -0.437359 0.149935 -0.019933
v -0.453905 0.148621 0.051664
v -0.446512 0.120943 0.052486
v -0.468463 0.151363 0.120001
v -0.461200 0.123677 0.120846
v -0.496658 0.149394 -0.017890
v -0.486816 0.112595 -0.016802
v -0.491776 0.119481 0.046875
v -0.499122 0.147115 0.046050
v -0.461200 0.123677 0.120846
v -0.468463 0.151363 0.120001
v -0.555034 0.140468 0.225901
v -0.553023 0.132469 0.226160
v -0.499122 0.147115 0.046050
v -0.491776 0.119481 0.046875
v -0.499463 0.121050 0.096460
v -0.506731 0.148701 0.095621
v -0.491776 0.119481 0.046875
v -0.446512 0.120943 0.052486
v -0.461200 0.123677 0.120846
v -0.499463 0.121050 0.096460
v -0.553023 0.132469 0.226160
v -0.555034 0.140468 0.225901
v -0.563312 0.139122 0.216017
v -0.561294 0.131124 0.216274
v -0.506731 0.148701 0.095621
v -0.499463 0.121050 0.096460
v -0.561294 0.131124 0.216274
v -0.563312 0.139122 0.216017
v -0.499463 0.121050 0.096460
v -0.461200 0.123677 0.120846
v -0.553023 0.132469 0.226160
v -0.561294 0.131124 0.216274
v -0.468463 0.151363 0.120001
v -0.506731 0.148701 0.095621
v -0.563312 0.139122 0.216017
v -0.555034 0.140468 0.225901
v 0.623638 0.103119 -0.052745
v 0.607952 0.096392 -0.128021
v 0.576809 0.173179 -0.128394
v 0.592495 0.179906 -0.053117
v 0.637719 0.108287 -0.164730
v 0.681071 0.125823 -0.174241
v 0.649927 0.202610 -0.174613
v 0.606576 0.185074 -0.165102
v 0.712206 0.228352 -0.075058
v 0.700907 0.223417 -0.147623
v 0.732050 0.146630 -0.147250
v 0.743349 0.151565 -0.074686
v 0.607952 0.096392 -0.128021
v 0.637719 0.108287 -0.164730
v 0.606576 0.185074 -0.165102
v 0.576809 0.173179 -0.128394
v 0.681071 0.125823 -0.174241
v 0.732050 0.146630 -0.147250
v 0.700907 0.223417 -0.147623
v 0.649927 0.202610 -0.174613
v 0.665868 0.120374 -0.026319
v 0.623638 0.103119 -0.052745
v 0.592495 0.179906 -0.053117
v 0.634724 0.197161 -0.026691
v 0.743349 0.151565 -0.074686
v 0.717652 0.141301 -0.042157
v 0.686509 0.218087 -0.042529
v 0.712206 0.228352 -0.075058
v 0.488117 0.136223 -0.331289
v 0.468663 0.129098 -0.173527
v 0.576809 0.173179 -0.128394
v 0.585918 0.176052 -0.297765
v 0.606576 0.185074 -0.165102
v 0.649927 0.202610 -0.174613
v 0.685833 0.216742 -0.263517
v 0.592495 0.179906 -0.053117
v 0.700907 0.223417 -0.147623
v 0.449209 0.121972 -0.015765
v 0.523120 0.153442 0.292162
v 0.616434 0.191064 0.245769
v 0.634724 0.197161 -0.026691
v 0.890325 0.300594 -0.075063
v 0.891152 0.301001 -0.060322
v 0.891980 0.301408 -0.045580
v 0.711765 0.229499 0.198373
v 0.686509 0.218087 -0.042529
v 0.712206 0.228352 -0.075058
v 0.893635 0.302223 -0.016097
v 0.743349 0.151565 -0.074686
v 0.924779 0.225436 -0.015725
v 0.742909 0.152712 0.198745
v 0.923123 0.224621 -0.045208
v 0.922296 0.224214 -0.059949
v 0.717652 0.141301 -0.042157
v 0.732050 0.146630 -0.147250
v 0.921468 0.223807 -0.074691
v 0.647578 0.114277 0.246141
v 0.665868 0.120374 -0.026319
v 0.716976 0.139955 -0.263144
v 0.681071 0.125823 -0.174241
v 0.637719 0.108287 -0.164730
v 0.617061 0.099265 -0.297393
v 0.623638 0.103119 -0.052745
v 0.554264 0.076655 0.292534
v 0.480352 0.045185 -0.015393
v 0.607952 0.096392 -0.128021
v 0.519261 0.059436 -0.330917
v 0.499806 0.052311 -0.173155
vn 0.924988 0.374857 -0.062287
vn 0.924988 0.374857 -0.062287
vn 0.924988 0.374857 -0.062287
vn 0.924988 0.374857 -0.062287
vn 0.924988 0.374858 -0.062287
vn 0.924988 0.374858 -0.062287
vn 0.924988 0.374858 -0.062287
vn 0.924988 0.374858 -0.062287
vn 0.282007 0.109756 -0.953114
vn 0.282007 0.109756 -0.953114
vn 0.282007 0.109756 -0.953114
vn 0.282007 0.109756 -0.953114
vn 0.282009 0.109756 -0.953113
vn 0.282009 0.109756 -0.953113
vn -0.897106 -0.362628 0.252392
vn -0.897106 -0.362628 0.252392
vn -0.897106 -0.362628 0.252392
vn -0.897106 -0.362628 0.252392
vn 0.683129 0.280337 0.674349
vn 0.683129 0.280337 0.674349
vn 0.683129 0.280337 0.674349
vn 0.683129 0.280337 0.674349
vn -0.251195 -0.106546 -0.962055
vn -0.251195 -0.106546 -0.962055
vn -0.251195 -0.106546 -0.962055
vn -0.251195 -0.106546 -0.962055
vn 0.386504 0.161164 0.908098
vn 0.386504 0.161164 0.908098
vn 0.386504 0.161164 0.908098
vn 0.386504 0.161164 0.908098
vn 0.386504 0.161163 0.908098
vn 0.386504 0.161163 0.908098
vn 0.602548 0.240692 -0.760923
vn 0.602548 0.240692 -0.760923
vn 0.602548 0.240692 -0.760923
vn 0.602548 0.240692 -0.760923
vn -0.918582 -0.373194 -0.130129
vn -0.918582 -0.373194 -0.130129
vn -0.918582 -0.373194 -0.130129
vn -0.918582 -0.373194 -0.130129
vn -0.918582 -0.373194 -0.130129
vn -0.918582 -0.373194 -0.130129
vn 0.289768 -0.957069 0.007285
vn 0.289768 -0.957069 0.007285
vn 0.289768 -0.957069 0.007285
vn 0.289768 -0.957069 0.007285
vn 0.040717 0.040948 0.998331
vn 0.040717 0.040948 0.998331
vn 0.040717 0.040948 0.998331
vn 0.040717 0.040948 0.998331
vn 0.124315 -0.991594 0.035889
vn 0.124315 -0.991594 0.035889
vn 0.124315 -0.991594 0.035889
vn 0.124315 -0.991594 0.035889
vn -0.966715 -0.249899 0.054894
vn -0.966715 -0.249899 0.054894
vn -0.966715 -0.249899 0.054894
vn -0.966715 -0.249899 0.054894
vn -0.966715 -0.249899 0.054894
vn -0.966715 -0.249899 0.054894
vn -0.966715 -0.249899 0.054894
vn -0.966715 -0.249899 0.054894
vn -0.040723 -0.040961 -0.998331
vn -0.040723 -0.040961 -0.998331
vn -0.040723 -0.040961 -0.998331
vn -0.040723 -0.040961 -0.998331
vn -0.123587 0.991684 -0.035914
vn -0.123587 0.991684 -0.035914
vn -0.123587 0.991684 -0.035914
vn -0.123587 0.991684 -0.035914
vn 0.068364 0.042609 0.996750
vn 0.068364 0.042609 0.996750
vn 0.068364 0.042609 0.996750
vn 0.068364 0.042609 0.996750
vn 0.038212 0.022012 0.999027
vn 0.038212 0.022012 0.999027
vn 0.038212 0.022012 0.999027
vn 0.038212 0.022012 0.999027
vn -0.088319 -0.000648 0.996092
vn -0.088319 -0.000648 0.996092
vn -0.088319 -0.000648 0.996092
vn -0.088319 -0.000648 0.996092
vn -0.038762 0.017920 0.999088
vn -0.038762 0.017920 0.999088
vn -0.038762 0.017920 0.999088
vn -0.038762 0.017920 0.999088
vn -0.022058 0.999518 -0.021835
vn -0.022058 0.999518 -0.021835
vn -0.022058 0.999518 -0.021835
vn -0.022058 0.999518 -0.021835
vn 0.186042 0.981684 -0.041043
vn 0.186042 0.981684 -0.041043
vn 0.186042 0.981684 -0.041043
vn 0.186042 0.981684 -0.041043
vn 0.245966 0.968074 -0.048310
vn 0.245966 0.968074 -0.048310
vn 0.245966 0.968074 -0.048310
vn 0.245966 0.968074 -0.048310
vn -0.280580 0.959801 -0.007477
vn -0.280580 0.959801 -0.007477
vn -0.280580 0.959801 -0.007477
vn -0.280580 0.959801 -0.007477
vn -0.071003 -0.038988 -0.996714
vn -0.068600 -0.042608 -0.996734
vn -0.068600 -0.042608 -0.996734
vn -0.071003 -0.038988 -0.996714
vn -0.071003 -0.038988 -0.996714
vn -0.071003 -0.038988 -0.996714
vn -0.037791 -0.021895 -0.999046
vn -0.037791 -0.021895 -0.999046
vn 0.088798 0.001043 -0.996049
vn 0.088798 0.001043 -0.996049
vn 0.088798 0.001043 -0.996049
vn 0.088798 0.001043 -0.996049
vn 0.038746 -0.017883 -0.999089
vn 0.038746 -0.017883 -0.999089
vn 0.038746 -0.017883 -0.999089
vn 0.038746 -0.017883 -0.999089
vn 0.110004 0.992948 -0.044196
vn 0.110004 0.992948 -0.044196
vn 0.110004 0.992948 -0.044196
vn 0.110004 0.992948 -0.044196
vn 0.924988 0.374857 -0.062287
vn 0.924988 0.374857 -0.062287
vn 0.924988 0.374857 -0.062287
vn 0.924988 0.374857 -0.062287
vn 0.924988 0.374857 -0.062287
vn 0.924988 0.374857 -0.062287
vn 0.924988 0.374857 -0.062287
vn 0.924988 0.374857 -0.062287
vn 0.028410 -0.999349 0.022248
vn 0.028410 -0.999349 0.022248
vn 0.028410 -0.999349 0.022248
vn 0.028410 -0.999349 0.022248
vn -0.182243 -0.982388 0.041243
vn -0.182243 -0.982388 0.041243
vn -0.182243 -0.982388 0.041243
vn -0.182243 -0.982388 0.041243
vn -0.247343 -0.967717 0.048426
vn -0.247343 -0.967717 0.048426
vn -0.247343 -0.967717 0.048426
vn -0.247343 -0.967717 0.048426
vn -0.112993 -0.992604 0.044387
vn -0.112993 -0.992604 0.044387
vn -0.112993 -0.992604 0.044387
vn -0.112993 -0.992604 0.044387
vn -0.898278 -0.221963 0.379248
vn -0.898278 -0.221963 0.379248
vn -0.898278 -0.221963 0.379248
vn -0.898278 -0.221963 0.379248
vn -0.967799 -0.251696 0.003701
vn -0.967799 -0.251696 0.003701
vn -0.967799 -0.251696 0.003701
vn -0.967799 -0.251696 0.003701
vn 0.888314 0.218813 -0.403755
vn 0.888314 0.218813 -0.403755
vn 0.888314 0.218813 -0.403755
vn 0.888314 0.218813 -0.403755
vn 0.888259 0.219120 -0.403711
vn 0.888259 0.219120 -0.403711
vn 0.907130 0.247034 0.340719
vn 0.907130 0.247034 0.340719
vn 0.907130 0.247034 0.340719
vn 0.907130 0.247034 0.340719
vn 0.907229 0.246762 0.340653
vn 0.907229 0.246762 0.340653
vn -0.251815 0.967372 -0.027948
vn -0.251815 0.967372 -0.027948
vn -0.251815 0.967372 -0.027948
vn -0.251815 0.967372 -0.027948
vn -0.249927 0.967701 -0.033037
vn -0.249927 0.967701 -0.033037
vn -0.249927 0.967701 -0.033037
vn -0.249927 0.967701 -0.033037
vn -0.252204 0.967141 -0.032112
vn -0.252204 0.967141 -0.032112
vn 0.605825 0.181654 0.774583
vn 0.605825 0.181654 0.774583
vn 0.605825 0.181654 0.774583
vn 0.605825 0.181654 0.774583
vn 0.536876 0.113801 -0.835951
vn 0.536876 0.113801 -0.835951
vn 0.536876 0.113801 -0.835951
vn 0.536876 0.113801 -0.835951
vn 0.252204 -0.967141 0.032112
vn 0.252204 -0.967141 0.032112
vn 0.252204 -0.967141 0.032112
vn 0.252204 -0.967141 0.032112
vn 0.249562 -0.967974 0.027293
vn 0.249562 -0.967974 0.027293
vn 0.249562 -0.967974 0.027293
vn 0.249562 -0.967974 0.027293
vn 0.251815 -0.967372 0.027949
vn 0.251815 -0.967372 0.027949
vn -0.964778 -0.248333 0.086805
vn -0.964778 -0.248333 0.086805
vn -0.964778 -0.248333 0.086805
vn -0.964778 -0.248333 0.086805
vn -0.925132 -0.249578 -0.286079
vn -0.925132 -0.249578 -0.286079
vn -0.925132 -0.249578 -0.286079
vn -0.925132 -0.249578 -0.286079
vn 0.090880 -0.895211 -0.436278
vn 0.090880 -0.895211 -0.436278
vn 0.090880 -0.895211 -0.436278
vn 0.090880 -0.895211 -0.436278
vn -0.265374 0.837322 -0.477983
vn -0.265374 0.837322 -0.477983
vn -0.265374 0.837322 -0.477983
vn -0.265374 0.837322 -0.477983
vn 0.128854 -0.856598 0.499637
vn 0.128854 -0.856598 0.499637
vn 0.128854 -0.856598 0.499637
vn 0.128854 -0.856598 0.499637
vn -0.230063 0.855271 0.464308
vn -0.230063 0.855271 0.464308
vn -0.230063 0.855271 0.464308
vn -0.230063 0.855271 0.464308
vn 0.233280 -0.849868 -0.472552
vn 0.233280 -0.849868 -0.472552
vn 0.233280 -0.849868 -0.472552
vn 0.233280 -0.849868 -0.472552
vn -0.008255 -0.891618 -0.452713
vn -0.008255 -0.891618 -0.452713
vn -0.008255 -0.891618 -0.452713
vn -0.008255 -0.891618 -0.452713
vn -0.192300 -0.893392 -0.406043
vn -0.192300 -0.893392 -0.406043
vn -0.192300 -0.893392 -0.406043
vn -0.192300 -0.893392 -0.406043
vn -0.189188 -0.895586 -0.402658
vn -0.189188 -0.895586 -0.402658
vn -0.083577 -0.904933 -0.417266
vn -0.083577 -0.904933 -0.417266
vn -0.083577 -0.904933 -0.417266
vn -0.083577 -0.904933 -0.417266
vn -0.128538 0.857860 -0.497548
vn -0.128538 0.857860 -0.497548
vn -0.128538 0.857860 -0.497548
vn -0.128538 0.857860 -0.497548
vn 0.114232 0.870819 -0.478149
vn 0.114232 0.870819 -0.478149
vn 0.114232 0.870819 -0.478149
vn 0.114232 0.870819 -0.478149
vn 0.253922 0.854702 -0.452779
vn 0.253922 0.854702 -0.452779
vn 0.253922 0.854702 -0.452779
vn 0.253922 0.854702 -0.452779
vn 0.138102 0.873115 -0.467544
vn 0.138102 0.873115 -0.467544
vn 0.138102 0.873115 -0.467544
vn 0.138102 0.873115 -0.467544
vn -0.053706 0.877597 -0.476381
vn -0.053706 0.877597 -0.476381
vn -0.053706 0.877597 -0.476381
vn -0.053706 0.877597 -0.476381
vn 0.271652 -0.829105 0.488662
vn 0.271652 -0.829105 0.488662
vn 0.271652 -0.829105 0.488662
vn 0.271652 -0.829105 0.488662
vn 0.058536 -0.864433 0.499329
vn 0.058536 -0.864433 0.499329
vn 0.058536 -0.864433 0.499329
vn 0.058536 -0.864433 0.499329
vn -0.134272 -0.864250 0.484813
vn -0.134272 -0.864250 0.484813
vn -0.134272 -0.864250 0.484813
vn -0.134272 -0.864250 0.484813
vn -0.253533 -0.847435 0.466449
vn -0.253533 -0.847435 0.466449
vn -0.253533 -0.847435 0.466449
vn -0.253533 -0.847435 0.466449
vn -0.116500 -0.866503 0.485388
vn -0.116500 -0.866503 0.485388
vn -0.116500 -0.866503 0.485388
vn -0.116500 -0.866503 0.485388
vn -0.090405 0.896336 0.434060
vn -0.090405 0.896336 0.434060
vn -0.090405 0.896336 0.434060
vn -0.090405 0.896336 0.434060
vn 0.082487 0.908388 0.409911
vn 0.082487 0.908388 0.409911
vn 0.082487 0.908388 0.409911
vn 0.082487 0.908388 0.409911
vn 0.190231 0.901407 0.388944
vn 0.190231 0.901407 0.388944
vn 0.190231 0.901407 0.388944
vn 0.190231 0.901407 0.388944
vn 0.196657 0.900010 0.388984
vn 0.196657 0.900010 0.388984
vn 0.012097 0.901662 0.432272
vn 0.012097 0.901662 0.432272
vn 0.012097 0.901662 0.432272
vn 0.012097 0.901662 0.432272
vn -0.223823 0.974628 0.002017
vn -0.223823 0.974628 0.002017
vn -0.223823 0.974628 0.002017
vn -0.223823 0.974628 0.002017
vn 0.260552 -0.965174 -0.023501
vn 0.260552 -0.965174 -0.023501
vn 0.260552 -0.965174 -0.023501
vn 0.260552 -0.965174 -0.023501
vn 0.229365 -0.973333 -0.003832
vn 0.229365 -0.973333 -0.003832
vn -0.260067 0.965085 -0.031241
vn -0.260067 0.965085 -0.031241
vn -0.260067 0.965085 -0.031241
vn -0.260067 0.965085 -0.031241
vn -0.269451 0.962964 -0.009839
vn -0.269451 0.962964 -0.009839
vn 0.917835 0.363217 -0.160166
vn 0.917835 0.363217 -0.160166
vn 0.917835 0.363217 -0.160166
vn 0.917835 0.363217 -0.160166
vn -0.928438 -0.362946 0.079203
vn -0.928438 -0.362946 0.079203
vn -0.928438 -0.362946 0.079203
vn -0.928438 -0.362946 0.079203
vn -0.931063 -0.358910 0.065621
vn -0.931063 -0.358910 0.065621
vn 0.744406 0.284684 -0.603999
vn 0.744406 0.284684 -0.603999
vn 0.744406 0.284684 -0.603999
vn 0.744406 0.284684 -0.603999
vn 0.869866 0.339588 -0.357789
vn 0.869866 0.339588 -0.357789
vn 0.869866 0.339588 -0.357789
vn 0.869866 0.339588 -0.357789
vn -0.872629 -0.337687 0.352827
vn -0.872629 -0.337687 0.352827
vn -0.872629 -0.337687 0.352827
vn -0.872629 -0.337687 0.352827
vn -0.802619 -0.310717 -0.509174
vn -0.802619 -0.310717 -0.509174
vn -0.802619 -0.310717 -0.509174
vn -0.802619 -0.310717 -0.509174
vn -0.851755 -0.325728 0.410384
vn -0.851755 -0.325728 0.410384
vn -0.851755 -0.325728 0.410384
vn -0.851755 -0.325728 0.410384
vn 0.142018 -0.988379 -0.054204
vn 0.142018 -0.988379 -0.054204
vn 0.142018 -0.988379 -0.054204
vn 0.142018 -0.988379 -0.054204
vn -0.249052 0.966339 -0.064512
vn -0.249052 0.966339 -0.064512
vn -0.249052 0.966339 -0.064512
vn -0.249052 0.966339 -0.064512
vn -0.018300 0.999761 -0.011959
vn -0.018300 0.999761 -0.011959
vn -0.018300 0.999761 -0.011959
vn -0.018300 0.999761 -0.011959
vn -0.049689 0.998195 -0.033742
vn -0.049689 0.998195 -0.033742
vn -0.061634 0.997826 -0.023334
vn -0.061634 0.997826 -0.023334
vn 0.048509 -0.998361 -0.030374
vn 0.048509 -0.998361 -0.030374
vn 0.048509 -0.998361 -0.030374
vn 0.048509 -0.998361 -0.030374
vn 0.024401 -0.999642 0.010966
vn 0.024401 -0.999642 0.010966
vn 0.925916 0.351162 -0.139157
vn 0.925916 0.351162 -0.139157
vn 0.925916 0.351162 -0.139157
vn 0.925916 0.351162 -0.139157
vn -0.935615 -0.348186 0.058226
vn -0.935615 -0.348186 0.058226
vn -0.935615 -0.348186 0.058226
vn -0.935615 -0.348186 0.058226
vn -0.938114 -0.340256 0.064570
vn -0.938114 -0.340256 0.064570
vn 0.792477 0.270620 -0.546576
vn 0.792477 0.270620 -0.546576
vn 0.792477 0.270620 -0.546576
vn 0.792477 0.270620 -0.546576
vn 0.892297 0.326527 -0.311747
vn 0.892297 0.326527 -0.311747
vn 0.892297 0.326527 -0.311747
vn 0.892297 0.326527 -0.311747
vn -0.893366 -0.316774 0.318670
vn -0.893366 -0.316774 0.318670
vn -0.893366 -0.316774 0.318670
vn -0.893366 -0.316774 0.318670
vn -0.882884 -0.299294 0.361854
vn -0.882884 -0.299294 0.361854
vn -0.818967 -0.276494 -0.502836
vn -0.818967 -0.276494 -0.502836
vn -0.818967 -0.276494 -0.502836
vn -0.818967 -0.276494 -0.502836
vn -0.063084 -0.996924 -0.046502
vn -0.063084 -0.996924 -0.046502
vn -0.063084 -0.996924 -0.046502
vn -0.063084 -0.996924 -0.046502
vn -0.042333 0.996628 -0.070284
vn -0.042333 0.996628 -0.070284
vn -0.042333 0.996628 -0.070284
vn -0.042333 0.996628 -0.070284
vn 0.144048 0.989268 -0.024473
vn 0.144048 0.989268 -0.024473
vn 0.144048 0.989268 -0.024473
vn 0.144048 0.989268 -0.024473
vn 0.130480 0.990980 -0.030569
vn 0.130480 0.990980 -0.030569
vn 0.127057 0.991085 -0.040101
vn 0.127057 0.991085 -0.040101
vn -0.126589 -0.991532 -0.028979
vn -0.126589 -0.991532 -0.028979
vn -0.126589 -0.991532 -0.028979
vn -0.126589 -0.991532 -0.028979
vn 0.940426 0.325103 -0.099534
vn 0.940426 0.325103 -0.099534
vn 0.940426 0.325103 -0.099534
vn 0.940426 0.325103 -0.099534
vn -0.949868 -0.311243 0.029637
vn -0.949868 -0.311243 0.029637
vn -0.949868 -0.311243 0.029637
vn -0.949868 -0.311243 0.029637
vn 0.824730 0.247053 -0.508709
vn 0.824730 0.247053 -0.508709
vn 0.824730 0.247053 -0.508709
vn 0.824730 0.247053 -0.508709
vn 0.911967 0.295870 -0.284214
vn 0.911967 0.295870 -0.284214
vn 0.911967 0.295870 -0.284214
vn 0.911967 0.295870 -0.284214
vn -0.914800 -0.281551 0.289603
vn -0.914800 -0.281551 0.289603
vn -0.914800 -0.281551 0.289603
vn -0.914800 -0.281551 0.289603
vn -0.903390 -0.270806 0.332492
vn -0.903390 -0.270806 0.332492
vn -0.138015 -0.990194 0.021649
vn -0.138015 -0.990194 0.021649
vn -0.138015 -0.990194 0.021649
vn -0.138015 -0.990194 0.021649
vn -0.810472 -0.247317 -0.531008
vn -0.810472 -0.247317 -0.531008
vn -0.810472 -0.247317 -0.531008
vn -0.810472 -0.247317 -0.531008
vn -0.218282 -0.975369 -0.031759
vn -0.218282 -0.975369 -0.031759
vn -0.218282 -0.975369 -0.031759
vn -0.218282 -0.975369 -0.031759
vn 0.126457 0.988659 -0.081007
vn 0.126457 0.988659 -0.081007
vn 0.126457 0.988659 -0.081007
vn 0.126457 0.988659 -0.081007
vn 0.234651 0.971755 -0.025127
vn 0.234651 0.971755 -0.025127
vn 0.234651 0.971755 -0.025127
vn 0.234651 0.971755 -0.025127
vn 0.233038 0.971806 -0.035878
vn 0.233038 0.971806 -0.035878
vn 0.235863 0.970615 -0.047699
vn 0.235863 0.970615 -0.047699
vn -0.236585 -0.971483 -0.015797
vn -0.236585 -0.971483 -0.015797
vn -0.236585 -0.971483 -0.015797
vn -0.236585 -0.971483 -0.015797
vn -0.235868 -0.971454 0.025353
vn -0.235868 -0.971454 0.025353
vn 0.950152 0.292612 -0.107658
vn 0.950152 0.292612 -0.107658
vn 0.950152 0.292612 -0.107658
vn 0.950152 0.292612 -0.107658
vn -0.956324 -0.288403 0.047631
vn -0.956324 -0.288403 0.047631
vn -0.956324 -0.288403 0.047631
vn -0.956324 -0.288403 0.047631
vn -0.955923 -0.287356 0.060306
vn -0.955923 -0.287356 0.060306
vn 0.813839 0.213070 -0.540617
vn 0.813839 0.213070 -0.540617
vn 0.813839 0.213070 -0.540617
vn 0.813839 0.213070 -0.540617
vn 0.915464 0.261142 -0.306155
vn 0.915464 0.261142 -0.306155
vn 0.915464 0.261142 -0.306155
vn 0.915464 0.261142 -0.306155
vn -0.915716 -0.257311 0.308634
vn -0.915716 -0.257311 0.308634
vn -0.915716 -0.257311 0.308634
vn -0.915716 -0.257311 0.308634
vn -0.810548 -0.226382 -0.540152
vn -0.810548 -0.226382 -0.540152
vn -0.810548 -0.226382 -0.540152
vn -0.810548 -0.226382 -0.540152
vn -0.899840 -0.239545 0.364564
vn -0.899840 -0.239545 0.364564
vn -0.899840 -0.239545 0.364564
vn -0.899840 -0.239545 0.364564
vn -0.290910 -0.956606 -0.016611
vn -0.290910 -0.956606 -0.016611
vn -0.290910 -0.956606 -0.016611
vn -0.290910 -0.956606 -0.016611
vn 0.205218 0.974554 -0.090167
vn 0.205218 0.974554 -0.090167
vn 0.205218 0.974554 -0.090167
vn 0.205218 0.974554 -0.090167
vn 0.215421 0.976394 -0.015775
vn 0.215421 0.976394 -0.015775
vn 0.215421 0.976394 -0.015775
vn 0.215421 0.976394 -0.015775
vn 0.231927 0.971582 -0.047321
vn 0.231927 0.971582 -0.047321
vn 0.234114 0.971246 -0.043273
vn 0.234114 0.971246 -0.043273
vn -0.237922 -0.971283 0.001506
vn -0.237922 -0.971283 0.001506
vn -0.237922 -0.971283 0.001506
vn -0.237922 -0.971283 0.001506
vn -0.216783 -0.976084 0.016275
vn -0.216783 -0.976084 0.016275
vn -0.224994 -0.974339 -0.006461
vn -0.224994 -0.974339 -0.006461
vn 0.949204 0.268777 -0.163617
vn 0.949204 0.268777 -0.163617
vn 0.949204 0.268777 -0.163617
vn 0.949204 0.268777 -0.163617
vn -0.957283 -0.267645 0.109438
vn -0.957283 -0.267645 0.109438
vn -0.957283 -0.267645 0.109438
vn -0.957283 -0.267645 0.109438
vn 0.748027 0.176193 -0.639853
vn 0.748027 0.176193 -0.639853
vn 0.748027 0.176193 -0.639853
vn 0.748027 0.176193 -0.639853
vn 0.896302 0.233967 -0.376699
vn 0.896302 0.233967 -0.376699
vn 0.896302 0.233967 -0.376699
vn 0.896302 0.233967 -0.376699
vn -0.894492 -0.231556 0.382448
vn -0.894492 -0.231556 0.382448
vn -0.894492 -0.231556 0.382448
vn -0.894492 -0.231556 0.382448
vn -0.820608 -0.219902 -0.527490
vn -0.820608 -0.219902 -0.527490
vn -0.820608 -0.219902 -0.527490
vn -0.820608 -0.219902 -0.527490
vn -0.860170 -0.211112 0.464262
vn -0.860170 -0.211112 0.464262
vn -0.860170 -0.211112 0.464262
vn -0.860170 -0.211112 0.464262
vn 0.129913 0.986807 -0.096618
vn 0.129913 0.986807 -0.096618
vn 0.129913 0.986807 -0.096618
vn 0.129913 0.986807 -0.096618
vn 0.116871 0.992841 -0.024638
vn 0.116871 0.992841 -0.024638
vn 0.116871 0.992841 -0.024638
vn 0.116871 0.992841 -0.024638
vn 0.134936 0.988461 -0.068822
vn 0.134936 0.988461 -0.068822
vn -0.142561 -0.989773 0.004997
vn -0.142561 -0.989773 0.004997
vn -0.142561 -0.989773 0.004997
vn -0.142561 -0.989773 0.004997
vn -0.118536 -0.992626 0.025341
vn -0.118536 -0.992626 0.025341
vn -0.122460 -0.992440 -0.008141
vn -0.122460 -0.992440 -0.008141
vn 0.950320 0.255711 -0.177496
vn 0.950320 0.255711 -0.177496
vn 0.950320 0.255711 -0.177496
vn 0.950320 0.255711 -0.177496
vn -0.961425 -0.257953 0.095511
vn -0.961425 -0.257953 0.095511
vn -0.961425 -0.257953 0.095511
vn -0.961425 -0.257953 0.095511
vn 0.716893 0.164691 -0.677452
vn 0.716893 0.164691 -0.677452
vn 0.716893 0.164691 -0.677452
vn 0.716893 0.164691 -0.677452
vn 0.934885 0.241077 -0.260523
vn 0.934885 0.241077 -0.260523
vn 0.934885 0.241077 -0.260523
vn 0.934885 0.241077 -0.260523
vn -0.944170 -0.243910 0.221473
vn -0.944170 -0.243910 0.221473
vn -0.944170 -0.243910 0.221473
vn -0.944170 -0.243910 0.221473
vn -0.800078 -0.217369 -0.559129
vn -0.800078 -0.217369 -0.559129
vn -0.800078 -0.217369 -0.559129
vn -0.800078 -0.217369 -0.559129
vn -0.842694 -0.203577 0.498421
vn -0.842694 -0.203577 0.498421
vn -0.842694 -0.203577 0.498421
vn -0.842694 -0.203577 0.498421
vn 0.026519 0.994798 -0.098357
vn 0.026519 0.994798 -0.098357
vn 0.026519 0.994798 -0.098357
vn 0.026519 0.994798 -0.098357
vn -0.036060 0.998681 -0.036541
vn -0.036060 0.998681 -0.036541
vn -0.036060 0.998681 -0.036541
vn -0.036060 0.998681 -0.036541
vn 0.010065 -0.999490 -0.030297
vn 0.010065 -0.999490 -0.030297
vn 0.010065 -0.999490 -0.030297
vn 0.010065 -0.999490 -0.030297
vn -0.025561 0.994277 -0.103726
vn -0.025561 0.994277 -0.103726
vn -0.025561 0.994277 -0.103726
vn -0.025561 0.994277 -0.103726
vn 0.915264 0.236068 -0.326442
vn 0.915264 0.236068 -0.326442
vn 0.915264 0.236068 -0.326442
vn 0.915264 0.236068 -0.326442
vn 0.925109 0.235719 -0.297673
vn 0.925109 0.235719 -0.297673
vn -0.955471 -0.250093 0.156617
vn -0.955471 -0.250093 0.156617
vn -0.955471 -0.250093 0.156617
vn -0.955471 -0.250093 0.156617
vn 0.689286 0.157023 -0.707268
vn 0.689286 0.157023 -0.707268
vn 0.689286 0.157023 -0.707268
vn 0.689286 0.157023 -0.707268
vn -0.938832 -0.240455 0.246529
vn -0.938832 -0.240455 0.246529
vn -0.938832 -0.240455 0.246529
vn -0.938832 -0.240455 0.246529
vn 0.035150 -0.998702 0.036868
vn 0.035150 -0.998702 0.036868
vn 0.035150 -0.998702 0.036868
vn 0.035150 -0.998702 0.036868
vn -0.796514 -0.218291 -0.563840
vn -0.796514 -0.218291 -0.563840
vn -0.796514 -0.218291 -0.563840
vn -0.796514 -0.218291 -0.563840
vn -0.829420 -0.199669 0.521722
vn -0.829420 -0.199669 0.521722
vn -0.829420 -0.199669 0.521722
vn -0.829420 -0.199669 0.521722
vn 0.015410 -0.999858 -0.006879
vn 0.015410 -0.999858 -0.006879
vn 0.015410 -0.999858 -0.006879
vn 0.015410 -0.999858 -0.006879
vn -0.112200 0.988337 -0.102960
vn -0.112200 0.988337 -0.102960
vn -0.112200 0.988337 -0.102960
vn -0.112200 0.988337 -0.102960
vn -0.221538 0.975089 -0.011100
vn -0.221538 0.975089 -0.011100
vn -0.221538 0.975089 -0.011100
vn -0.221538 0.975089 -0.011100
vn 0.273670 -0.959600 0.065368
vn 0.273670 -0.959600 0.065368
vn 0.273670 -0.959600 0.065368
vn 0.273670 -0.959600 0.065368
vn 0.930817 0.365409 0.007427
vn 0.930817 0.365409 0.007427
vn 0.930817 0.365409 0.007427
vn 0.930817 0.365409 0.007427
vn 0.786441 0.312039 0.533050
vn 0.786441 0.312039 0.533050
vn 0.786441 0.312039 0.533050
vn 0.786441 0.312039 0.533050
vn 0.888073 0.348729 0.299525
vn 0.888073 0.348729 0.299525
vn 0.888073 0.348729 0.299525
vn 0.888073 0.348729 0.299525
vn -0.901475 -0.349556 -0.255253
vn -0.901475 -0.349556 -0.255253
vn -0.901475 -0.349556 -0.255253
vn -0.901475 -0.349556 -0.255253
vn 0.226540 -0.973902 0.013935
vn 0.226540 -0.973902 0.013935
vn 0.226540 -0.973902 0.013935
vn 0.226540 -0.973902 0.013935
vn -0.757488 -0.281254 0.589159
vn -0.757488 -0.281254 0.589159
vn -0.757488 -0.281254 0.589159
vn -0.757488 -0.281254 0.589159
vn -0.876614 -0.343231 -0.337254
vn -0.876614 -0.343231 -0.337254
vn -0.876614 -0.343231 -0.337254
vn -0.876614 -0.343231 -0.337254
vn 0.110133 -0.991572 0.068232
vn 0.110133 -0.991572 0.068232
vn 0.110133 -0.991572 0.068232
vn 0.110133 -0.991572 0.068232
vn -0.214375 0.975081 0.057094
vn -0.214375 0.975081 0.057094
vn -0.214375 0.975081 0.057094
vn -0.214375 0.975081 0.057094
vn 0.024287 0.997996 -0.058437
vn 0.024287 0.997996 -0.058437
vn 0.024287 0.997996 -0.058437
vn 0.024287 0.997996 -0.058437
vn 0.061014 -0.994292 0.087525
vn 0.061014 -0.994292 0.087525
vn 0.061014 -0.994292 0.087525
vn 0.061014 -0.994292 0.087525
vn 0.937651 0.347426 0.010239
vn 0.937651 0.347426 0.010239
vn 0.937651 0.347426 0.010239
vn 0.937651 0.347426 0.010239
vn 0.821920 0.293572 0.488122
vn 0.821920 0.293572 0.488122
vn 0.821920 0.293572 0.488122
vn 0.821920 0.293572 0.488122
vn 0.918224 0.330075 0.218897
vn 0.918224 0.330075 0.218897
vn 0.918224 0.330075 0.218897
vn 0.918224 0.330075 0.218897
vn -0.928867 -0.322819 -0.181641
vn -0.928867 -0.322819 -0.181641
vn -0.928867 -0.322819 -0.181641
vn -0.928867 -0.322819 -0.181641
vn -0.018728 -0.997887 0.062211
vn -0.018728 -0.997887 0.062211
vn -0.018728 -0.997887 0.062211
vn -0.018728 -0.997887 0.062211
vn -0.786159 -0.238052 0.570338
vn -0.786159 -0.238052 0.570338
vn -0.786159 -0.238052 0.570338
vn -0.786159 -0.238052 0.570338
vn -0.902794 -0.309591 -0.298525
vn -0.902794 -0.309591 -0.298525
vn -0.902794 -0.309591 -0.298525
vn -0.902794 -0.309591 -0.298525
vn -0.121764 -0.989883 0.072840
vn -0.121764 -0.989883 0.072840
vn -0.121764 -0.989883 0.072840
vn -0.121764 -0.989883 0.072840
vn 0.018198 0.998645 0.048758
vn 0.018198 0.998645 0.048758
vn 0.018198 0.998645 0.048758
vn 0.018198 0.998645 0.048758
vn 0.175870 0.978382 -0.108802
vn 0.175870 0.978382 -0.108802
vn 0.175870 0.978382 -0.108802
vn 0.175870 0.978382 -0.108802
vn -0.128177 -0.986575 0.101194
vn -0.128177 -0.986575 0.101194
vn -0.128177 -0.986575 0.101194
vn -0.128177 -0.986575 0.101194
vn -0.170101 -0.979465 0.108231
vn -0.170101 -0.979465 0.108231
vn 0.945297 0.325815 -0.016076
vn 0.945297 0.325815 -0.016076
vn 0.945297 0.325815 -0.016076
vn 0.945297 0.325815 -0.016076
vn -0.946082 -0.313250 0.082482
vn -0.946082 -0.313250 0.082482
vn -0.946082 -0.313250 0.082482
vn -0.946082 -0.313250 0.082482
vn 0.845792 0.268996 0.460736
vn 0.845792 0.268996 0.460736
vn 0.845792 0.268996 0.460736
vn 0.845792 0.268996 0.460736
vn 0.938761 0.306685 0.157075
vn 0.938761 0.306685 0.157075
vn 0.938761 0.306685 0.157075
vn 0.938761 0.306685 0.157075
vn -0.943534 -0.297840 -0.145037
vn -0.943534 -0.297840 -0.145037
vn -0.943534 -0.297840 -0.145037
vn -0.943534 -0.297840 -0.145037
vn -0.783064 -0.201958 0.588239
vn -0.783064 -0.201958 0.588239
vn -0.783064 -0.201958 0.588239
vn -0.783064 -0.201958 0.588239
vn -0.923287 -0.278580 -0.264451
vn -0.923287 -0.278580 -0.264451
vn -0.923287 -0.278580 -0.264451
vn -0.923287 -0.278580 -0.264451
vn -0.223740 -0.969482 0.100225
vn -0.223740 -0.969482 0.100225
vn -0.223740 -0.969482 0.100225
vn -0.223740 -0.969482 0.100225
vn 0.133954 0.990764 0.021073
vn 0.133954 0.990764 0.021073
vn 0.133954 0.990764 0.021073
vn 0.133954 0.990764 0.021073
vn 0.233904 0.964197 -0.124956
vn 0.233904 0.964197 -0.124956
vn 0.233904 0.964197 -0.124956
vn 0.233904 0.964197 -0.124956
vn -0.239564 -0.965665 0.100497
vn -0.239564 -0.965665 0.100497
vn -0.239564 -0.965665 0.100497
vn -0.239564 -0.965665 0.100497
vn -0.233465 -0.964447 0.123835
vn -0.233465 -0.964447 0.123835
vn -0.259132 -0.956412 0.134639
vn -0.259132 -0.956412 0.134639
vn 0.954918 0.296870 0.000880
vn 0.954918 0.296870 0.000880
vn 0.954918 0.296870 0.000880
vn 0.954918 0.296870 0.000880
vn 0.836313 0.242321 0.491795
vn 0.836313 0.242321 0.491795
vn 0.836313 0.242321 0.491795
vn 0.836313 0.242321 0.491795
vn 0.943992 0.278295 0.177288
vn 0.943992 0.278295 0.177288
vn 0.943992 0.278295 0.177288
vn 0.943992 0.278295 0.177288
vn -0.942292 -0.274779 -0.191268
vn -0.942292 -0.274779 -0.191268
vn -0.942292 -0.274779 -0.191268
vn -0.942292 -0.274779 -0.191268
vn -0.781191 -0.176692 0.598766
vn -0.781191 -0.176692 0.598766
vn -0.781191 -0.176692 0.598766
vn -0.781191 -0.176692 0.598766
vn -0.923810 -0.259134 -0.281826
vn -0.923810 -0.259134 -0.281826
vn -0.923810 -0.259134 -0.281826
vn -0.923810 -0.259134 -0.281826
vn 0.171974 0.984913 -0.019280
vn 0.171974 0.984913 -0.019280
vn 0.171974 0.984913 -0.019280
vn 0.171974 0.984913 -0.019280
vn 0.216265 0.971184 -0.100152
vn 0.216265 0.971184 -0.100152
vn 0.216265 0.971184 -0.100152
vn 0.216265 0.971184 -0.100152
vn -0.240179 -0.966569 0.089763
vn -0.240179 -0.966569 0.089763
vn -0.240179 -0.966569 0.089763
vn -0.240179 -0.966569 0.089763
vn -0.217464 -0.971020 0.099142
vn -0.217464 -0.971020 0.099142
vn 0.959012 0.277325 0.058201
vn 0.959012 0.277325 0.058201
vn 0.959012 0.277325 0.058201
vn 0.959012 0.277325 0.058201
vn -0.962292 -0.272012 -0.001759
vn -0.962292 -0.272012 -0.001759
vn -0.962292 -0.272012 -0.001759
vn -0.962292 -0.272012 -0.001759
vn 0.785909 0.221267 0.577397
vn 0.785909 0.221267 0.577397
vn 0.785909 0.221267 0.577397
vn 0.785909 0.221267 0.577397
vn 0.924090 0.258843 0.281171
vn 0.924090 0.258843 0.281171
vn 0.924090 0.258843 0.281171
vn 0.924090 0.258843 0.281171
vn -0.920405 -0.257212 -0.294442
vn -0.920405 -0.257212 -0.294442
vn -0.920405 -0.257212 -0.294442
vn -0.920405 -0.257212 -0.294442
vn -0.773141 -0.166183 0.612075
vn -0.773141 -0.166183 0.612075
vn -0.773141 -0.166183 0.612075
vn -0.773141 -0.166183 0.612075
vn -0.895601 -0.243789 -0.372109
vn -0.895601 -0.243789 -0.372109
vn -0.895601 -0.243789 -0.372109
vn -0.895601 -0.243789 -0.372109
vn -0.228303 -0.961645 0.152042
vn -0.228303 -0.961645 0.152042
vn -0.228303 -0.961645 0.152042
vn -0.228303 -0.961645 0.152042
vn 0.137417 0.989583 -0.042912
vn 0.137417 0.989583 -0.042912
vn 0.137417 0.989583 -0.042912
vn 0.137417 0.989583 -0.042912
vn 0.122624 0.990207 -0.066728
vn 0.122624 0.990207 -0.066728
vn 0.122624 0.990207 -0.066728
vn 0.122624 0.990207 -0.066728
vn -0.143836 -0.985920 0.085277
vn -0.143836 -0.985920 0.085277
vn -0.143836 -0.985920 0.085277
vn -0.143836 -0.985920 0.085277
vn -0.124123 -0.990063 0.066093
vn -0.124123 -0.990063 0.066093
vn -0.130405 -0.985070 0.112391
vn -0.130405 -0.985070 0.112391
vn 0.138198 0.990185 -0.020853
vn 0.138198 0.990185 -0.020853
vn 0.138198 0.990185 -0.020853
vn 0.138198 0.990185 -0.020853
vn 0.961403 0.265957 0.070501
vn 0.961403 0.265957 0.070501
vn 0.961403 0.265957 0.070501
vn 0.961403 0.265957 0.070501
vn -0.965120 -0.261447 0.013759
vn -0.965120 -0.261447 0.013759
vn -0.965120 -0.261447 0.013759
vn -0.965120 -0.261447 0.013759
vn 0.763180 0.216851 0.608714
vn 0.763180 0.216851 0.608714
vn 0.763180 0.216851 0.608714
vn 0.763180 0.216851 0.608714
vn 0.952831 0.258509 0.159015
vn 0.952831 0.258509 0.159015
vn 0.952831 0.258509 0.159015
vn 0.952831 0.258509 0.159015
vn -0.959001 -0.258231 -0.116761
vn -0.959001 -0.258231 -0.116761
vn -0.959001 -0.258231 -0.116761
vn -0.959001 -0.258231 -0.116761
vn -0.751702 -0.165725 0.638341
vn -0.751702 -0.165725 0.638341
vn -0.751702 -0.165725 0.638341
vn -0.751702 -0.165725 0.638341
vn -0.879937 -0.241541 -0.409108
vn -0.879937 -0.241541 -0.409108
vn -0.879937 -0.241541 -0.409108
vn -0.879937 -0.241541 -0.409108
vn 0.040510 0.999179 0.000965
vn 0.040510 0.999179 0.000965
vn 0.040510 0.999179 0.000965
vn 0.040510 0.999179 0.000965
vn -0.034357 0.998479 -0.043118
vn -0.034357 0.998479 -0.043118
vn -0.034357 0.998479 -0.043118
vn -0.034357 0.998479 -0.043118
vn 0.014319 -0.993673 0.111397
vn 0.014319 -0.993673 0.111397
vn 0.014319 -0.993673 0.111397
vn 0.014319 -0.993673 0.111397
vn -0.020380 0.999513 0.023637
vn -0.020380 0.999513 0.023637
vn -0.020380 0.999513 0.023637
vn -0.020380 0.999513 0.023637
vn 0.939915 0.258977 0.222468
vn 0.939915 0.258977 0.222468
vn 0.939915 0.258977 0.222468
vn 0.939915 0.258977 0.222468
vn 0.947198 0.256531 0.192374
vn 0.947198 0.256531 0.192374
vn -0.964811 -0.258749 -0.046791
vn -0.964811 -0.258749 -0.046791
vn -0.964811 -0.258749 -0.046791
vn -0.964811 -0.258749 -0.046791
vn 0.745349 0.213228 0.631656
vn 0.745349 0.213228 0.631656
vn 0.745349 0.213228 0.631656
vn 0.745349 0.213228 0.631656
vn -0.956318 -0.256981 -0.139343
vn -0.956318 -0.256981 -0.139343
vn -0.956318 -0.256981 -0.139343
vn -0.956318 -0.256981 -0.139343
vn 0.033518 -0.998522 0.042787
vn 0.033518 -0.998522 0.042787
vn 0.033518 -0.998522 0.042787
vn 0.033518 -0.998522 0.042787
vn -0.744803 -0.166760 0.646112
vn -0.744803 -0.166760 0.646112
vn -0.744803 -0.166760 0.646112
vn -0.744803 -0.166760 0.646112
vn -0.870907 -0.240072 -0.428821
vn -0.870907 -0.240072 -0.428821
vn -0.870907 -0.240072 -0.428821
vn -0.870907 -0.240072 -0.428821
vn 0.015651 -0.995440 0.094101
vn 0.015651 -0.995440 0.094101
vn 0.015651 -0.995440 0.094101
vn 0.015651 -0.995440 0.094101
vn -0.103607 0.994318 0.024422
vn -0.103607 0.994318 0.024422
vn -0.103607 0.994318 0.024422
vn -0.103607 0.994318 0.024422
vn 0.904125 0.365625 -0.221078
vn 0.904125 0.365625 -0.221078
vn 0.904125 0.365625 -0.221078
vn 0.904125 0.365625 -0.221078
vn 0.183046 0.078992 0.979926
vn 0.183046 0.078992 0.979926
vn 0.183046 0.078992 0.979926
vn 0.183046 0.078992 0.979926
vn -0.913881 -0.369842 0.167450
vn -0.913881 -0.369842 0.167450
vn -0.913881 -0.369842 0.167450
vn -0.913881 -0.369842 0.167450
vn 0.696898 0.285839 0.657746
vn 0.696898 0.285839 0.657746
vn 0.696898 0.285839 0.657746
vn 0.696898 0.285839 0.657746
vn -0.409400 -0.161692 0.897913
vn -0.409400 -0.161692 0.897913
vn -0.409400 -0.161692 0.897913
vn -0.409400 -0.161692 0.897913
vn 0.465969 0.184792 -0.865289
vn 0.465969 0.184792 -0.865289
vn 0.465969 0.184792 -0.865289
vn 0.465969 0.184792 -0.865289
vn -0.704757 -0.288979 -0.647927
vn -0.704757 -0.288979 -0.647927
vn -0.704757 -0.288979 -0.647927
vn -0.704757 -0.288979 -0.647927
vn -0.375843 0.926673 -0.004493
vn -0.375843 0.926673 -0.004493
vn -0.375843 0.926673 -0.004493
vn -0.375843 0.926673 -0.004494
vn -0.375843 0.926673 -0.004494
vn -0.375843 0.926673 -0.004494
vn -0.375843 0.926673 -0.004494
vn -0.375843 0.926673 -0.004493
vn -0.375843 0.926672 -0.004493
vn -0.375843 0.926673 -0.004493
vn -0.375843 0.926673 -0.004493
vn -0.375843 0.926673 -0.004493
vn -0.375843 0.926673 -0.004493
vn -0.375843 0.926673 -0.004494
vn -0.375843 0.926672 -0.004493
vn -0.375843 0.926672 -0.004493
vn -0.375843 0.926672 -0.004493
vn -0.375843 0.926672 -0.004493
vn -0.375843 0.926672 -0.004493
vn -0.375843 0.926673 -0.004493
vn 0.375843 -0.926673 0.004493
vn 0.375843 -0.926673 0.004493
vn 0.375843 -0.926673 0.004493
vn 0.375843 -0.926673 0.004493
vn 0.375843 -0.926673 0.004493
vn 0.375843 -0.926673 0.004493
vn 0.375843 -0.926673 0.004493
vn 0.375843 -0.926672 0.004493
vn 0.375843 -0.926673 0.004493
vn 0.375843 -0.926673 0.004493
vn 0.375843 -0.926672 0.004493
vn 0.375843 -0.926672 0.004493
vn 0.375843 -0.926673 0.004493
vn 0.375843 -0.926673 0.004493
vn 0.375843 -0.926673 0.004493
vn 0.375843 -0.926673 0.004493
vn 0.375843 -0.926673 0.004493
vn 0.375843 -0.926673 0.004493
vn 0.375843 -0.926673 0.004493
vn 0.375843 -0.926673 0.004493
g FishBone_Beige
usemtl Beige
f 1 2 3
f 1 3 4
f 5 1 4
f 5 4 6
f 7 5 6
f 7 6 8
f 9 10 11
f 9 11 12
f 13 9 12
f 13 12 14
f 15 16 17
f 15 17 18
f 19 20 21
f 19 21 22
f 23 24 25
f 23 25 26
f 27 28 29
f 27 29 30
f 31 27 30
f 31 30 32
f 33 34 35
f 33 35 36
f 37 38 39
f 37 39 40
f 41 37 40
f 41 40 42
f 43 44 45
f 43 45 46
f 47 48 49
f 47 49 50
f 51 52 53
f 51 53 54
f 55 56 57
f 57 58 55
f 58 59 55
f 58 60 59
f 60 61 59
f 60 62 61
f 63 64 65
f 63 65 66
f 67 68 69
f 67 69 70
f 71 72 73
f 71 74 72
f 75 74 71
f 75 76 74
f 77 76 75
f 77 78 76
f 79 80 81
f 79 81 82
f 83 84 85
f 83 85 86
f 87 88 89
f 87 89 90
f 91 92 93
f 91 93 94
f 95 96 97
f 95 97 98
f 99 100 101
f 99 101 102
f 103 104 105
f 103 106 104
f 107 106 103
f 107 108 106
f 109 108 107
f 109 110 108
f 111 112 113
f 111 113 114
f 115 116 117
f 115 117 118
f 119 120 121
f 119 121 122
f 123 124 125
f 125 126 123
f 125 127 126
f 127 128 126
f 127 129 128
f 129 130 128
f 131 132 133
f 131 133 134
f 135 136 137
f 135 137 138
f 139 140 141
f 139 141 142
f 143 144 145
f 143 145 146
f 147 148 149
f 147 149 150
f 151 152 153
f 151 153 154
f 155 156 157
f 155 157 158
f 159 155 158
f 159 158 160
f 161 162 163
f 161 163 164
f 165 161 164
f 165 164 166
f 167 168 169
f 167 170 168
f 171 170 167
f 171 172 170
f 173 172 171
f 173 174 172
f 175 174 173
f 175 176 174
f 177 178 179
f 177 179 180
f 181 182 183
f 181 183 184
f 185 186 187
f 185 188 186
f 189 188 185
f 189 190 188
f 191 190 189
f 191 192 190
f 193 192 191
f 193 194 192
f 195 196 197
f 195 197 198
f 199 200 201
f 199 201 202
f 203 204 205
f 203 205 206
f 207 208 209
f 207 209 210
f 211 212 213
f 211 213 214
f 215 216 217
f 215 217 218
f 219 220 221
f 219 221 222
f 223 224 225
f 223 225 226
f 227 228 229
f 227 229 230
f 230 229 231
f 230 231 232
f 233 234 235
f 233 235 236
f 237 238 239
f 237 239 240
f 241 242 243
f 241 243 244
f 245 246 247
f 245 247 248
f 249 250 251
f 249 251 252
f 253 254 255
f 253 255 256
f 257 258 259
f 257 259 260
f 261 262 263
f 261 263 264
f 265 266 267
f 265 267 268
f 269 270 271
f 269 271 272
f 273 274 275
f 273 275 276
f 277 278 279
f 277 279 280
f 281 282 283
f 281 283 284
f 285 286 287
f 285 287 288
f 288 287 289
f 288 289 290
f 291 292 293
f 291 293 294
f 295 296 297
f 295 297 298
f 299 300 301
f 299 302 300
f 302 303 300
f 302 304 303
f 305 306 307
f 305 307 308
f 305 308 309
f 305 309 310
f 311 312 313
f 311 313 314
f 315 316 317
f 315 317 318
f 315 318 319
f 315 319 320
f 321 322 323
f 321 323 324
f 325 326 327
f 325 327 328
f 329 330 331
f 329 331 332
f 333 334 335
f 333 335 336
f 337 338 339
f 337 339 340
f 341 342 343
f 341 343 344
f 345 346 347
f 345 347 348
f 349 350 351
f 349 351 352
f 353 349 352
f 353 352 354
f 353 354 355
f 353 355 356
f 357 358 359
f 357 360 358
f 360 361 358
f 360 362 361
f 363 364 365
f 363 365 366
f 367 368 369
f 367 369 370
f 367 370 371
f 367 371 372
f 373 374 375
f 373 375 376
f 377 378 379
f 377 379 380
f 381 382 383
f 381 384 382
f 384 385 382
f 384 386 385
f 387 388 389
f 387 389 390
f 391 392 393
f 391 393 394
f 395 396 397
f 395 397 398
f 399 400 401
f 399 401 402
f 403 399 402
f 403 402 404
f 403 404 405
f 403 405 406
f 407 408 409
f 407 409 410
f 411 412 413
f 411 413 414
f 415 416 417
f 415 417 418
f 419 420 421
f 419 421 422
f 423 424 425
f 423 425 426
f 427 428 429
f 427 430 428
f 430 431 428
f 430 432 431
f 433 434 435
f 433 435 436
f 437 438 439
f 437 439 440
f 441 442 443
f 441 443 444
f 445 446 447
f 445 447 448
f 449 450 451
f 449 451 452
f 453 449 452
f 453 452 454
f 453 454 455
f 453 455 456
f 457 458 459
f 457 460 458
f 460 461 458
f 460 462 461
f 463 464 465
f 463 465 466
f 467 468 469
f 467 469 470
f 467 470 471
f 467 471 472
f 473 474 475
f 473 475 476
f 477 478 479
f 477 479 480
f 481 482 483
f 481 483 484
f 485 486 487
f 485 487 488
f 489 490 491
f 489 491 492
f 493 494 495
f 493 495 496
f 497 498 499
f 497 499 500
f 501 502 503
f 501 503 504
f 505 501 504
f 505 504 506
f 505 506 507
f 505 507 508
f 509 510 511
f 509 512 510
f 512 513 510
f 512 514 513
f 514 515 513
f 514 516 515
f 517 518 519
f 517 519 520
f 521 522 523
f 521 523 524
f 525 526 527
f 525 527 528
f 529 530 531
f 529 531 532
f 533 534 535
f 533 535 536
f 537 538 539
f 537 539 540
f 541 542 543
f 541 543 544
f 545 546 547
f 545 547 548
f 549 550 551
f 549 551 552
f 553 549 552
f 553 552 554
f 555 556 557
f 555 558 556
f 558 559 556
f 558 560 559
f 560 561 559
f 560 562 561
f 563 564 565
f 563 565 566
f 567 568 569
f 567 569 570
f 571 572 573
f 571 573 574
f 575 576 577
f 575 577 578
f 579 580 581
f 579 581 582
f 583 584 585
f 583 585 586
f 587 588 589
f 587 589 590
f 591 592 593
f 591 593 594
f 595 596 597
f 595 597 598
f 599 600 601
f 599 601 602
f 603 604 605
f 603 605 606
f 607 608 609
f 607 610 608
f 610 611 608
f 610 612 611
f 613 614 615
f 613 615 616
f 617 618 619
f 617 619 620
f 621 622 623
f 621 623 624
f 625 626 627
f 625 627 628
f 629 630 631
f 629 631 632
f 633 634 635
f 633 635 636
f 637 638 639
f 637 639 640
f 641 642 643
f 641 643 644
f 645 646 647
f 645 647 648
f 649 650 651
f 649 651 652
f 653 654 655
f 653 655 656
f 657 658 659
f 657 659 660
f 661 662 663
f 661 663 664
f 665 666 667
f 665 667 668
f 669 670 671
f 669 671 672
f 673 674 675
f 673 675 676
f 677 678 679
f 677 679 680
f 681 682 683
f 681 683 684
f 685 686 687
f 685 687 688
f 689 690 691
f 689 691 692
f 693 694 695
f 693 695 696
f 697 698 699
f 697 699 700
f 701 702 703
f 701 703 704
f 705 706 707
f 705 707 708
f 709 710 711
f 709 711 712
f 713 714 715
f 713 715 716
f 717 718 719
f 717 719 720
f 721 722 723
f 721 723 724
f 725 726 727
f 725 727 728
f 729 730 731
f 729 731 732
f 733 734 735
f 733 735 736
f 737 738 739
f 737 739 740
f 740 739 741
f 740 741 742
f 743 744 745
f 743 745 746
f 747 748 749
f 747 749 750
f 751 752 753
f 751 753 754
f 755 756 757
f 755 757 758
f 759 760 761
f 759 761 762
f 763 764 765
f 763 765 766
f 767 768 769
f 767 769 770
f 771 772 773
f 771 773 774
f 775 776 777
f 775 777 778
f 779 780 781
f 779 781 782
f 783 784 785
f 783 785 786
f 786 785 787
f 786 787 788
f 788 787 789
f 788 789 790
f 791 792 793
f 791 793 794
f 795 796 797
f 795 797 798
f 799 800 801
f 799 801 802
f 803 804 805
f 803 805 806
f 807 808 809
f 807 809 810
f 811 812 813
f 811 813 814
f 815 816 817
f 815 817 818
f 819 820 821
f 819 821 822
f 823 824 825
f 823 825 826
f 826 825 827
f 826 827 828
f 829 830 831
f 829 831 832
f 833 834 835
f 833 835 836
f 837 838 839
f 837 839 840
f 841 842 843
f 841 843 844
f 845 846 847
f 845 847 848
f 849 850 851
f 849 851 852
f 853 854 855
f 853 855 856
f 857 858 859
f 857 859 860
f 861 862 863
f 861 863 864
f 865 866 867
f 865 867 868
f 869 870 871
f 869 871 872
f 872 871 873
f 872 873 874
f 874 873 875
f 874 875 876
f 877 878 879
f 877 879 880
f 881 882 883
f 881 883 884
f 885 886 887
f 885 887 888
f 889 890 891
f 889 891 892
f 893 894 895
f 893 895 896
f 897 898 899
f 897 899 900
f 901 902 903
f 901 903 904
f 905 906 907
f 905 907 908
f 909 910 911
f 909 911 912
f 913 914 915
f 913 915 916
f 917 918 919
f 917 919 920
f 921 922 923
f 921 923 924
f 925 926 927
f 925 927 928
f 928 927 929
f 928 929 930
f 931 932 933
f 931 933 934
f 935 936 937
f 935 937 938
f 939 940 941
f 939 941 942
f 943 944 945
f 943 945 946
f 947 948 949
f 947 949 950
f 951 952 953
f 951 953 954
f 955 956 957
f 955 957 958
f 959 960 961
f 959 961 962
f 963 964 965
f 963 965 966
f 967 968 969
f 967 969 970
f 971 972 973
f 971 973 974
f 975 976 977
f 975 977 978
f 979 980 981
f 979 981 982
f 983 984 985
f 983 985 986
f 987 988 989
f 987 989 990
f 991 992 993
f 993 994 991
f 993 995 994
f 994 995 996
f 994 996 997
f 992 998 993
f 997 996 999
f 992 1000 998
f 998 1000 1001
f 1001 1002 998
f 1002 1003 998
f 999 1004 997
f 999 1005 1004
f 999 1006 1005
f 1003 1002 1007
f 1003 1007 1008
f 999 1009 1006
f 1009 1008 1007
f 1010 1006 1009
f 1007 1010 1009
f 1011 1012 1013
f 1011 1014 1012
f 1015 1014 1011
f 1013 1016 1011
f 1015 1011 1017
f 1018 1015 1017
f 1016 1013 1019
f 1016 1019 1020
f 1021 1018 1017
f 1017 1022 1021
f 1021 1022 1023
f 1021 1023 1024
f 1025 1020 1019
f 1025 1019 1026
f 1026 1027 1025
f 1024 1023 1028
f 1028 1025 1027
f 1029 1024 1028
f 1028 1027 1030
f 1028 1030 1029
