mtllib Materials.mtl
# Ultimate Food Pack - Fork
o Fork
v -0.074240 0.000000 -0.415379
v -0.103937 0.000000 -0.415379
v -0.103937 0.000000 -0.206075
v 0.000000 0.000000 -0.206075
v -0.044544 0.000000 -0.415379
v -0.014848 0.000000 -0.415379
v 0.000000 0.000000 -0.415379
v 0.103937 0.000000 -0.206075
v 0.014848 0.000000 -0.415379
v 0.044544 0.000000 -0.415379
v 0.074240 0.000000 -0.415379
v 0.103937 0.000000 -0.415379
v -0.078033 0.013743 -0.563614
v -0.081826 0.027485 -0.711848
v -0.096351 0.027485 -0.711848
v -0.100144 0.013743 -0.563614
v -0.074240 0.000000 -0.415379
v -0.103937 0.000000 -0.415379
v 0.100144 0.013743 -0.563614
v 0.096351 0.027485 -0.711848
v 0.081826 0.027485 -0.711848
v 0.078033 0.013743 -0.563614
v 0.103937 0.000000 -0.415379
v 0.074240 0.000000 -0.415379
v 0.040751 0.013743 -0.563614
v 0.036959 0.027485 -0.711848
v 0.022434 0.027485 -0.711848
v 0.018641 0.013743 -0.563614
v 0.044544 0.000000 -0.415379
v 0.014848 0.000000 -0.415379
v -0.018641 0.013743 -0.563614
v -0.022434 0.027485 -0.711848
v -0.036959 0.027485 -0.711848
v -0.040751 0.013743 -0.563614
v -0.014848 0.000000 -0.415379
v -0.044544 0.000000 -0.415379
v -0.057714 0.000000 1.200527
v -0.042883 0.000000 1.272153
v -0.001799 0.000000 1.291942
v 0.000000 0.000000 1.200527
v -0.026804 0.013116 -0.130515
v 0.042883 0.000000 1.272153
v 0.000000 0.013116 -0.130515
v 0.057714 0.000000 1.200527
v 0.026804 0.013116 -0.130515
v 0.053982 0.005902 -0.173692
v 0.103937 0.000000 -0.206075
v 0.000000 0.000000 -0.206075
v 0.000000 0.005902 -0.173692
v 0.026804 0.013116 -0.130515
v -0.103937 0.000000 -0.206075
v 0.000000 0.013116 -0.130515
v -0.053982 0.005902 -0.173692
v -0.026804 0.013116 -0.130515
v -0.022434 0.027485 -0.711848
v -0.025258 0.027485 -0.725383
v -0.034134 0.027485 -0.725383
v -0.036959 0.027485 -0.711848
v 0.096351 0.027485 -0.711848
v 0.093526 0.027485 -0.725383
v 0.084651 0.027485 -0.725383
v 0.081826 0.027485 -0.711848
v 0.036959 0.027485 -0.711848
v 0.034134 0.027485 -0.725383
v 0.025258 0.027485 -0.725383
v 0.022434 0.027485 -0.711848
v -0.081826 0.027485 -0.711848
v -0.084651 0.027485 -0.725383
v -0.093526 0.027485 -0.725383
v -0.096351 0.027485 -0.711848
v 0.000000 -0.019914 -0.206343
v -0.103937 -0.019914 -0.206343
v -0.103937 -0.019914 -0.415647
v -0.074240 -0.019914 -0.415647
v -0.044544 -0.019914 -0.415647
v -0.014848 -0.019914 -0.415647
v 0.000000 -0.019914 -0.415647
v 0.103937 -0.019914 -0.206343
v 0.014848 -0.019914 -0.415647
v 0.044544 -0.019914 -0.415647
v 0.074240 -0.019914 -0.415647
v 0.103937 -0.019914 -0.415647
v -0.078033 -0.006171 -0.563881
v -0.096351 0.007571 -0.712116
v -0.081826 0.007571 -0.712116
v -0.100144 -0.006171 -0.563881
v -0.074240 -0.019914 -0.415647
v -0.103937 -0.019914 -0.415647
v 0.100144 -0.006171 -0.563881
v 0.081826 0.007571 -0.712116
v 0.096351 0.007571 -0.712116
v 0.078033 -0.006171 -0.563881
v 0.103937 -0.019914 -0.415647
v 0.074240 -0.019914 -0.415647
v 0.040751 -0.006171 -0.563881
v 0.022434 0.007571 -0.712116
v 0.036959 0.007571 -0.712116
v 0.018641 -0.006171 -0.563881
v 0.044544 -0.019914 -0.415647
v 0.014848 -0.019914 -0.415647
v -0.018641 -0.006171 -0.563881
v -0.036959 0.007571 -0.712116
v -0.022434 0.007571 -0.712116
v -0.040751 -0.006171 -0.563881
v -0.014848 -0.019914 -0.415647
v -0.044544 -0.019914 -0.415647
v -0.057714 -0.019914 1.200259
v -0.001799 -0.019914 1.291675
v -0.042883 -0.019914 1.271885
v 0.000000 -0.019914 1.200259
v -0.026804 -0.006798 -0.130782
v 0.042883 -0.019914 1.271885
v 0.000000 -0.006798 -0.130782
v 0.057714 -0.019914 1.200259
v 0.026804 -0.006798 -0.130782
v 0.053982 -0.014012 -0.173960
v 0.000000 -0.019914 -0.206343
v 0.103937 -0.019914 -0.206343
v 0.000000 -0.014012 -0.173960
v 0.026804 -0.006798 -0.130782
v -0.103937 -0.019914 -0.206343
v 0.000000 -0.006798 -0.130782
v -0.053982 -0.014012 -0.173960
v -0.026804 -0.006798 -0.130782
v -0.022434 0.007571 -0.712116
v -0.036959 0.007571 -0.712116
v -0.034134 0.007571 -0.725650
v -0.025258 0.007571 -0.725650
v 0.096351 0.007571 -0.712116
v 0.081826 0.007571 -0.712116
v 0.084651 0.007571 -0.725650
v 0.093526 0.007571 -0.725650
v 0.036959 0.007571 -0.712116
v 0.022434 0.007571 -0.712116
v 0.025258 0.007571 -0.725650
v 0.034134 0.007571 -0.725650
v -0.081826 0.007571 -0.712116
v -0.096351 0.007571 -0.712116
v -0.093526 0.007571 -0.725650
v -0.084651 0.007571 -0.725650
v 0.057714 0.000000 1.200527
v 0.042883 0.000000 1.272153
v 0.042883 -0.019914 1.271885
v 0.057714 -0.019914 1.200259
v 0.096351 0.027485 -0.711848
v 0.100144 -0.006171 -0.563881
v 0.096351 0.007571 -0.712116
v 0.100144 0.013743 -0.563614
v 0.103937 -0.019914 -0.415647
v 0.103937 0.000000 -0.415379
v 0.103937 -0.019914 -0.206343
v 0.103937 0.000000 -0.206075
v -0.081826 0.027485 -0.711848
v -0.078033 -0.006171 -0.563881
v -0.081826 0.007571 -0.712116
v -0.078033 0.013743 -0.563614
v -0.074240 -0.019914 -0.415647
v -0.074240 0.000000 -0.415379
v 0.074240 0.000000 -0.415379
v 0.078033 -0.006171 -0.563881
v 0.074240 -0.019914 -0.415647
v 0.078033 0.013743 -0.563614
v 0.081826 0.007571 -0.712116
v 0.081826 0.027485 -0.711848
v -0.001799 0.000000 1.291942
v -0.042883 0.000000 1.272153
v -0.042883 -0.019914 1.271885
v -0.001799 -0.019914 1.291675
v 0.084651 0.027485 -0.725383
v 0.093526 0.027485 -0.725383
v 0.093526 0.007571 -0.725650
v 0.084651 0.007571 -0.725650
v -0.026804 0.013116 -0.130515
v -0.053982 0.005902 -0.173692
v -0.053982 -0.014012 -0.173960
v -0.026804 -0.006798 -0.130782
v -0.093526 0.027485 -0.725383
v -0.084651 0.027485 -0.725383
v -0.084651 0.007571 -0.725650
v -0.093526 0.007571 -0.725650
v 0.053982 0.005902 -0.173692
v 0.026804 0.013116 -0.130515
v 0.026804 -0.006798 -0.130782
v 0.053982 -0.014012 -0.173960
v 0.040751 0.013743 -0.563614
v 0.044544 0.000000 -0.415379
v 0.044544 -0.019914 -0.415647
v 0.040751 -0.006171 -0.563881
v 0.036959 0.027485 -0.711848
v 0.036959 0.007571 -0.712116
v -0.014848 0.000000 -0.415379
v 0.000000 -0.019914 -0.415647
v -0.014848 -0.019914 -0.415647
v 0.000000 0.000000 -0.415379
v 0.014848 -0.019914 -0.415647
v 0.014848 0.000000 -0.415379
v -0.034134 0.027485 -0.725383
v -0.025258 0.027485 -0.725383
v -0.025258 0.007571 -0.725650
v -0.034134 0.007571 -0.725650
v -0.074240 0.000000 -0.415379
v -0.044544 0.000000 -0.415379
v -0.044544 -0.019914 -0.415647
v -0.074240 -0.019914 -0.415647
v 0.014848 0.000000 -0.415379
v 0.018641 -0.006171 -0.563881
v 0.014848 -0.019914 -0.415647
v 0.018641 0.013743 -0.563614
v 0.022434 0.007571 -0.712116
v 0.022434 0.027485 -0.711848
v 0.025258 0.027485 -0.725383
v 0.034134 0.027485 -0.725383
v 0.034134 0.007571 -0.725650
v 0.025258 0.007571 -0.725650
v -0.053982 0.005902 -0.173692
v -0.103937 0.000000 -0.206075
v -0.103937 -0.019914 -0.206343
v -0.053982 -0.014012 -0.173960
v -0.036959 0.027485 -0.711848
v -0.034134 0.027485 -0.725383
v -0.034134 0.007571 -0.725650
v -0.036959 0.007571 -0.712116
v 0.103937 0.000000 -0.206075
v 0.053982 0.005902 -0.173692
v 0.053982 -0.014012 -0.173960
v 0.103937 -0.019914 -0.206343
v -0.018641 0.013743 -0.563614
v -0.014848 0.000000 -0.415379
v -0.014848 -0.019914 -0.415647
v -0.018641 -0.006171 -0.563881
v -0.022434 0.027485 -0.711848
v -0.022434 0.007571 -0.712116
v -0.025258 0.027485 -0.725383
v -0.022434 0.027485 -0.711848
v -0.022434 0.007571 -0.712116
v -0.025258 0.007571 -0.725650
v -0.044544 0.000000 -0.415379
v -0.040751 -0.006171 -0.563881
v -0.044544 -0.019914 -0.415647
v -0.040751 0.013743 -0.563614
v -0.036959 0.007571 -0.712116
v -0.036959 0.027485 -0.711848
v 0.081826 0.027485 -0.711848
v 0.084651 0.027485 -0.725383
v 0.084651 0.007571 -0.725650
v 0.081826 0.007571 -0.712116
v -0.100144 0.013743 -0.563614
v -0.096351 0.027485 -0.711848
v -0.096351 0.007571 -0.712116
v -0.100144 -0.006171 -0.563881
v -0.103937 0.000000 -0.415379
v -0.103937 -0.019914 -0.415647
v -0.103937 0.000000 -0.206075
v -0.103937 -0.019914 -0.206343
v 0.044544 0.000000 -0.415379
v 0.074240 0.000000 -0.415379
v 0.074240 -0.019914 -0.415647
v 0.044544 -0.019914 -0.415647
v 0.093526 0.027485 -0.725383
v 0.096351 0.027485 -0.711848
v 0.096351 0.007571 -0.712116
v 0.093526 0.007571 -0.725650
v 0.022434 0.027485 -0.711848
v 0.025258 0.027485 -0.725383
v 0.025258 0.007571 -0.725650
v 0.022434 0.007571 -0.712116
v 0.026804 0.013116 -0.130515
v 0.057714 0.000000 1.200527
v 0.057714 -0.019914 1.200259
v 0.026804 -0.006798 -0.130782
v 0.042883 0.000000 1.272153
v -0.001799 0.000000 1.291942
v -0.001799 -0.019914 1.291675
v 0.042883 -0.019914 1.271885
v 0.034134 0.027485 -0.725383
v 0.036959 0.027485 -0.711848
v 0.036959 0.007571 -0.712116
v 0.034134 0.007571 -0.725650
v -0.057714 0.000000 1.200527
v -0.026804 0.013116 -0.130515
v -0.026804 -0.006798 -0.130782
v -0.057714 -0.019914 1.200259
v -0.096351 0.027485 -0.711848
v -0.093526 0.027485 -0.725383
v -0.093526 0.007571 -0.725650
v -0.096351 0.007571 -0.712116
v -0.042883 0.000000 1.272153
v -0.057714 0.000000 1.200527
v -0.057714 -0.019914 1.200259
v -0.042883 -0.019914 1.271885
v -0.084651 0.027485 -0.725383
v -0.081826 0.027485 -0.711848
v -0.081826 0.007571 -0.712116
v -0.084651 0.007571 -0.725650
vn 0.000000 1.000000 0.000000
vn 0.000000 1.000000 0.000000
vn 0.000000 1.000000 0.000000
vn 0.000000 1.000000 0.000000
vn 0.000000 1.000000 0.000000
vn 0.000000 1.000000 0.000000
vn 0.000000 1.000000 0.000000
vn 0.000000 1.000000 0.000000
vn 0.000000 1.000000 0.000000
vn 0.000000 1.000000 0.000000
vn 0.000000 1.000000 0.000000
vn 0.000000 1.000000 0.000000
vn 0.000000 0.995730 0.092314
vn 0.000000 0.995730 0.092314
vn 0.000000 0.995730 0.092314
vn 0.000000 0.995730 0.092314
vn 0.000000 0.995730 0.092314
vn 0.000000 0.995730 0.092314
vn 0.000000 0.995730 0.092314
vn 0.000000 0.995730 0.092314
vn 0.000000 0.995730 0.092314
vn 0.000000 0.995730 0.092314
vn 0.000000 0.995730 0.092314
vn 0.000000 0.995730 0.092314
vn 0.000000 0.995730 0.092314
vn 0.000000 0.995730 0.092314
vn 0.000000 0.995730 0.092314
vn 0.000000 0.995730 0.092314
vn 0.000000 0.995730 0.092314
vn 0.000000 0.995730 0.092314
vn 0.000000 0.995730 0.092314
vn 0.000000 0.995730 0.092314
vn 0.000000 0.995730 0.092314
vn 0.000000 0.995730 0.092314
vn 0.000000 0.995730 0.092314
vn 0.000000 0.995730 0.092314
vn 0.000000 0.999952 0.009854
vn 0.000000 1.000000 0.000000
vn 0.000000 1.000000 0.000000
vn 0.000000 1.000000 0.000000
vn 0.000000 0.999952 0.009854
vn 0.000000 1.000000 0.000000
vn 0.000000 0.999952 0.009854
vn 0.000000 1.000000 0.000000
vn 0.000000 0.999952 0.009854
vn 0.000000 0.986328 -0.164793
vn 0.000000 0.983792 -0.179312
vn 0.000000 0.983792 -0.179312
vn 0.000000 0.986328 -0.164793
vn 0.000000 0.986328 -0.164793
vn 0.000000 0.983792 -0.179312
vn 0.000000 0.986328 -0.164793
vn 0.000000 0.983792 -0.179312
vn 0.000000 0.986328 -0.164793
vn 0.000000 1.000000 0.000000
vn 0.000000 1.000000 0.000000
vn 0.000000 1.000000 0.000000
vn 0.000000 1.000000 0.000000
vn 0.000000 1.000000 0.000000
vn 0.000000 1.000000 0.000000
vn 0.000000 1.000000 0.000000
vn 0.000000 1.000000 0.000000
vn 0.000000 1.000000 0.000000
vn 0.000000 1.000000 0.000000
vn 0.000000 1.000000 0.000000
vn 0.000000 1.000000 0.000000
vn 0.000000 1.000000 0.000000
vn 0.000000 1.000000 0.000000
vn 0.000000 1.000000 0.000000
vn 0.000000 1.000000 0.000000
vn 0.000000 -1.000000 0.000000
vn 0.000000 -1.000000 0.000000
vn 0.000000 -1.000000 0.000000
vn 0.000000 -1.000000 0.000000
vn 0.000000 -1.000000 0.000000
vn 0.000000 -1.000000 0.000000
vn 0.000000 -1.000000 0.000000
vn 0.000000 -1.000000 0.000000
vn 0.000000 -1.000000 0.000000
vn 0.000000 -1.000000 0.000000
vn 0.000000 -1.000000 0.000000
vn 0.000000 -1.000000 0.000000
vn 0.000000 -0.995730 -0.092314
vn 0.000000 -0.995730 -0.092314
vn 0.000000 -0.995730 -0.092314
vn 0.000000 -0.995730 -0.092314
vn 0.000000 -0.995730 -0.092314
vn 0.000000 -0.995730 -0.092314
vn 0.000000 -0.995730 -0.092314
vn 0.000000 -0.995730 -0.092314
vn 0.000000 -0.995730 -0.092314
vn 0.000000 -0.995730 -0.092314
vn 0.000000 -0.995730 -0.092314
vn 0.000000 -0.995730 -0.092314
vn 0.000000 -0.995730 -0.092314
vn 0.000000 -0.995730 -0.092314
vn 0.000000 -0.995730 -0.092314
vn 0.000000 -0.995730 -0.092314
vn 0.000000 -0.995730 -0.092314
vn 0.000000 -0.995730 -0.092314
vn 0.000000 -0.995730 -0.092314
vn 0.000000 -0.995730 -0.092314
vn 0.000000 -0.995730 -0.092314
vn 0.000000 -0.995730 -0.092314
vn 0.000000 -0.995730 -0.092314
vn 0.000000 -0.995730 -0.092314
vn 0.000000 -0.999952 -0.009854
vn 0.000000 -1.000000 0.000000
vn 0.000000 -1.000000 0.000000
vn 0.000000 -1.000000 0.000000
vn 0.000000 -0.999952 -0.009854
vn 0.000000 -1.000000 0.000000
vn 0.000000 -0.999952 -0.009854
vn 0.000000 -1.000000 0.000000
vn 0.000000 -0.999952 -0.009854
vn 0.000000 -0.986328 0.164793
vn 0.000000 -0.983792 0.179312
vn 0.000000 -0.983792 0.179312
vn 0.000000 -0.986328 0.164793
vn 0.000000 -0.986328 0.164793
vn 0.000000 -0.983792 0.179312
vn 0.000000 -0.986328 0.164793
vn 0.000000 -0.983792 0.179312
vn 0.000000 -0.986328 0.164793
vn 0.000000 -1.000000 0.000000
vn 0.000000 -1.000000 0.000000
vn 0.000000 -1.000000 0.000000
vn 0.000000 -1.000000 0.000000
vn 0.000000 -1.000000 0.000000
vn 0.000000 -1.000000 0.000000
vn 0.000000 -1.000000 0.000000
vn 0.000000 -1.000000 0.000000
vn 0.000000 -1.000000 0.000000
vn 0.000000 -1.000000 0.000000
vn 0.000000 -1.000000 0.000000
vn 0.000000 -1.000000 0.000000
vn 0.000000 -1.000000 0.000000
vn 0.000000 -1.000000 0.000000
vn 0.000000 -1.000000 0.000000
vn 0.000000 -1.000000 0.000000
vn 0.979225 -0.002726 0.202760
vn 0.979225 -0.002726 0.202760
vn 0.979225 -0.002726 0.202760
vn 0.979225 -0.002726 0.202760
vn 0.999674 0.000341 -0.025546
vn 0.999674 0.000341 -0.025546
vn 0.999674 0.000341 -0.025546
vn 0.999674 0.000341 -0.025546
vn 1.000000 -0.000002 0.000000
vn 1.000000 -0.000002 0.000000
vn 1.000000 -0.000002 0.000000
vn 1.000000 -0.000002 0.000000
vn 0.999674 0.000341 -0.025546
vn 0.999674 0.000341 -0.025546
vn 0.999674 0.000341 -0.025546
vn 0.999674 0.000341 -0.025546
vn 0.999674 0.000341 -0.025546
vn 0.999674 0.000341 -0.025546
vn -0.999674 0.000345 -0.025546
vn -0.999674 0.000345 -0.025546
vn -0.999674 0.000345 -0.025546
vn -0.999674 0.000345 -0.025546
vn -0.999674 0.000345 -0.025546
vn -0.999674 0.000345 -0.025546
vn -0.433931 -0.012093 0.900865
vn -0.433931 -0.012093 0.900865
vn -0.433931 -0.012093 0.900865
vn -0.433931 -0.012093 0.900865
vn 0.000000 0.013432 -0.999910
vn 0.000000 0.013432 -0.999910
vn 0.000000 0.013432 -0.999910
vn 0.000000 0.013432 -0.999910
vn -0.845743 -0.007165 0.533543
vn -0.845743 -0.007165 0.533543
vn -0.845743 -0.007165 0.533543
vn -0.845743 -0.007165 0.533543
vn 0.000000 0.013432 -0.999910
vn 0.000000 0.013432 -0.999910
vn 0.000000 0.013432 -0.999910
vn 0.000000 0.013432 -0.999910
vn 0.845742 -0.007169 0.533544
vn 0.845742 -0.007169 0.533544
vn 0.845742 -0.007169 0.533544
vn 0.845742 -0.007169 0.533544
vn 0.999674 0.000341 -0.025546
vn 0.999674 0.000341 -0.025546
vn 0.999674 0.000341 -0.025546
vn 0.999674 0.000341 -0.025546
vn 0.999674 0.000341 -0.025546
vn 0.999674 0.000341 -0.025546
vn 0.000000 0.013430 -0.999910
vn 0.000000 0.013430 -0.999910
vn 0.000000 0.013430 -0.999910
vn 0.000000 0.013430 -0.999910
vn 0.000000 0.013430 -0.999910
vn 0.000000 0.013430 -0.999910
vn 0.000000 0.013431 -0.999910
vn 0.000000 0.013431 -0.999910
vn 0.000000 0.013431 -0.999910
vn 0.000000 0.013431 -0.999910
vn 0.000000 0.013429 -0.999910
vn 0.000000 0.013429 -0.999910
vn 0.000000 0.013429 -0.999910
vn 0.000000 0.013429 -0.999910
vn -0.999674 0.000345 -0.025546
vn -0.999674 0.000345 -0.025546
vn -0.999674 0.000345 -0.025546
vn -0.999674 0.000345 -0.025546
vn -0.999674 0.000345 -0.025546
vn -0.999674 0.000345 -0.025546
vn 0.000000 0.013429 -0.999910
vn 0.000000 0.013429 -0.999910
vn 0.000000 0.013429 -0.999910
vn 0.000000 0.013429 -0.999910
vn -0.542981 -0.011278 0.839670
vn -0.542981 -0.011278 0.839670
vn -0.542981 -0.011278 0.839670
vn -0.542981 -0.011278 0.839670
vn -0.978906 0.002747 -0.204294
vn -0.978906 0.002747 -0.204294
vn -0.978906 0.002747 -0.204294
vn -0.978906 0.002747 -0.204294
vn 0.542981 -0.011280 0.839670
vn 0.542981 -0.011280 0.839670
vn 0.542981 -0.011280 0.839670
vn 0.542981 -0.011280 0.839670
vn 0.999674 0.000341 -0.025547
vn 0.999674 0.000341 -0.025547
vn 0.999674 0.000341 -0.025547
vn 0.999674 0.000341 -0.025547
vn 0.999674 0.000341 -0.025546
vn 0.999674 0.000341 -0.025546
vn 0.978906 0.002742 -0.204293
vn 0.978906 0.002742 -0.204293
vn 0.978906 0.002742 -0.204293
vn 0.978906 0.002742 -0.204293
vn -0.999674 0.000345 -0.025546
vn -0.999674 0.000345 -0.025546
vn -0.999674 0.000345 -0.025546
vn -0.999674 0.000345 -0.025546
vn -0.999674 0.000345 -0.025546
vn -0.999674 0.000345 -0.025546
vn -0.978906 0.002746 -0.204293
vn -0.978906 0.002746 -0.204293
vn -0.978906 0.002746 -0.204293
vn -0.978906 0.002746 -0.204293
vn -0.999674 0.000345 -0.025546
vn -0.999674 0.000345 -0.025546
vn -0.999674 0.000345 -0.025546
vn -0.999674 0.000345 -0.025546
vn -0.999674 0.000345 -0.025546
vn -0.999674 0.000345 -0.025546
vn -1.000000 0.000002 0.000000
vn -1.000000 0.000002 0.000000
vn -0.000001 0.013429 -0.999910
vn -0.000001 0.013429 -0.999910
vn -0.000001 0.013429 -0.999910
vn -0.000001 0.013429 -0.999910
vn 0.978906 0.002742 -0.204293
vn 0.978906 0.002742 -0.204293
vn 0.978906 0.002742 -0.204293
vn 0.978906 0.002742 -0.204293
vn -0.978906 0.002746 -0.204293
vn -0.978906 0.002746 -0.204293
vn -0.978906 0.002746 -0.204293
vn -0.978906 0.002746 -0.204293
vn 0.999731 0.000310 -0.023213
vn 0.999731 0.000310 -0.023213
vn 0.999731 0.000310 -0.023213
vn 0.999731 0.000310 -0.023213
vn 0.404924 -0.012277 0.914268
vn 0.404924 -0.012277 0.914268
vn 0.404924 -0.012277 0.914268
vn 0.404924 -0.012277 0.914268
vn 0.978906 0.002743 -0.204294
vn 0.978906 0.002743 -0.204294
vn 0.978906 0.002743 -0.204294
vn 0.978906 0.002743 -0.204294
vn -0.999731 0.000314 -0.023213
vn -0.999731 0.000314 -0.023213
vn -0.999731 0.000314 -0.023213
vn -0.999731 0.000314 -0.023213
vn -0.978906 0.002746 -0.204293
vn -0.978906 0.002746 -0.204293
vn -0.978906 0.002746 -0.204293
vn -0.978906 0.002746 -0.204293
vn -0.979225 -0.002722 0.202760
vn -0.979225 -0.002722 0.202760
vn -0.979225 -0.002722 0.202760
vn -0.979225 -0.002722 0.202760
vn 0.978906 0.002742 -0.204293
vn 0.978906 0.002742 -0.204293
vn 0.978906 0.002742 -0.204293
vn 0.978906 0.002742 -0.204293
g Fork_Metal
usemtl Metal
f 1 2 3
f 3 4 1
f 4 5 1
f 4 6 5
f 4 7 6
f 7 4 8
f 8 9 7
f 8 10 9
f 8 11 10
f 8 12 11
f 13 14 15
f 13 15 16
f 17 13 16
f 17 16 18
f 19 20 21
f 19 21 22
f 23 19 22
f 23 22 24
f 25 26 27
f 25 27 28
f 29 25 28
f 29 28 30
f 31 32 33
f 31 33 34
f 35 31 34
f 35 34 36
f 37 38 39
f 37 39 40
f 40 41 37
f 40 39 42
f 40 43 41
f 40 42 44
f 44 43 40
f 44 45 43
f 46 47 48
f 46 48 49
f 50 46 49
f 49 48 51
f 50 49 52
f 49 51 53
f 52 49 53
f 52 53 54
f 55 56 57
f 55 57 58
f 59 60 61
f 59 61 62
f 63 64 65
f 63 65 66
f 67 68 69
f 67 69 70
f 71 72 73
f 73 74 71
f 74 75 71
f 75 76 71
f 76 77 71
f 78 71 77
f 77 79 78
f 79 80 78
f 80 81 78
f 81 82 78
f 83 84 85
f 83 86 84
f 87 86 83
f 87 88 86
f 89 90 91
f 89 92 90
f 93 92 89
f 93 94 92
f 95 96 97
f 95 98 96
f 99 98 95
f 99 100 98
f 101 102 103
f 101 104 102
f 105 104 101
f 105 106 104
f 107 108 109
f 107 110 108
f 110 107 111
f 110 112 108
f 110 111 113
f 110 114 112
f 114 110 113
f 114 113 115
f 116 117 118
f 116 119 117
f 120 119 116
f 119 121 117
f 120 122 119
f 119 123 121
f 122 123 119
f 122 124 123
f 125 126 127
f 125 127 128
f 129 130 131
f 129 131 132
f 133 134 135
f 133 135 136
f 137 138 139
f 137 139 140
f 141 142 143
f 141 143 144
f 145 146 147
f 145 148 146
f 148 149 146
f 148 150 149
f 150 151 149
f 150 152 151
f 153 154 155
f 153 156 154
f 156 157 154
f 156 158 157
f 159 160 161
f 159 162 160
f 162 163 160
f 162 164 163
f 165 166 167
f 165 167 168
f 169 170 171
f 169 171 172
f 173 174 175
f 173 175 176
f 177 178 179
f 177 179 180
f 181 182 183
f 181 183 184
f 185 186 187
f 185 187 188
f 189 185 188
f 189 188 190
f 191 192 193
f 191 194 192
f 194 195 192
f 194 196 195
f 197 198 199
f 197 199 200
f 201 202 203
f 201 203 204
f 205 206 207
f 205 208 206
f 208 209 206
f 208 210 209
f 211 212 213
f 211 213 214
f 215 216 217
f 215 217 218
f 219 220 221
f 219 221 222
f 223 224 225
f 223 225 226
f 227 228 229
f 227 229 230
f 231 227 230
f 231 230 232
f 233 234 235
f 233 235 236
f 237 238 239
f 237 240 238
f 240 241 238
f 240 242 241
f 243 244 245
f 243 245 246
f 247 248 249
f 247 249 250
f 251 247 250
f 251 250 252
f 253 251 252
f 253 252 254
f 255 256 257
f 255 257 258
f 259 260 261
f 259 261 262
f 263 264 265
f 263 265 266
f 267 268 269
f 267 269 270
f 271 272 273
f 271 273 274
f 275 276 277
f 275 277 278
f 279 280 281
f 279 281 282
f 283 284 285
f 283 285 286
f 287 288 289
f 287 289 290
f 291 292 293
f 291 293 294
