mtllib Materials.mtl
# Ultimate Food Pack - Fries
o Fries
v 0.289619 0.029778 0.417449
v 0.465786 0.074906 -0.463157
v 0.465786 0.467637 -0.407181
v 0.289619 0.264939 0.450966
v -0.290153 0.532546 -0.397929
v -0.264059 0.509652 -0.405509
v -0.423897 0.450580 -0.413929
v -0.465786 0.467637 -0.407181
v -0.465786 0.074906 -0.463157
v -0.289619 0.029778 0.417449
v -0.289619 0.264939 0.450966
v -0.465786 0.467637 -0.407181
v 0.184453 -0.005082 0.383802
v 0.289619 0.029778 0.417449
v 0.289619 0.264939 0.450966
v 0.184453 0.307812 0.428399
v -0.290153 0.009997 -0.472408
v -0.184453 -0.005082 0.383802
v -0.289619 0.029778 0.417449
v -0.465786 0.074906 -0.463157
v 0.290153 0.532546 -0.397929
v 0.184453 0.307812 0.428399
v 0.289619 0.264939 0.450966
v 0.465786 0.467637 -0.407181
v -0.465786 0.467637 -0.407181
v -0.289619 0.264939 0.450966
v -0.184453 0.307812 0.428399
v -0.290153 0.532546 -0.397929
v 0.000000 0.573798 -0.523163
v 0.000000 0.328983 0.378173
v 0.057199 0.328411 0.382189
v 0.095525 0.569792 -0.495056
v 0.465786 0.074906 -0.463157
v 0.289619 0.029778 0.417449
v 0.184453 -0.005082 0.383802
v 0.290153 0.009997 -0.472408
v 0.000000 0.005376 -0.604180
v 0.000000 -0.011378 0.329661
v -0.057199 -0.011951 0.333677
v -0.095525 0.001370 -0.576074
v -0.289619 0.029778 0.417449
v -0.184453 -0.005082 0.383802
v -0.184453 0.307812 0.428399
v -0.289619 0.264939 0.450966
v 0.000000 -0.011378 0.329661
v 0.057199 -0.011951 0.333677
v 0.057199 0.328411 0.382189
v 0.000000 0.328983 0.378173
v -0.465786 0.074906 -0.463157
v -0.423897 0.093168 -0.464871
v -0.264059 0.034097 -0.473290
v -0.290153 0.009997 -0.472408
v 0.290153 0.009997 -0.472408
v 0.264059 0.034097 -0.473290
v 0.423897 0.093168 -0.464871
v 0.465786 0.074906 -0.463157
v 0.000000 0.573798 -0.523163
v 0.000000 0.547194 -0.519480
v -0.086935 0.543548 -0.493901
v -0.095525 0.569792 -0.495056
v 0.465786 0.074906 -0.463157
v 0.423897 0.093168 -0.464871
v 0.423897 0.450580 -0.413929
v 0.465786 0.467637 -0.407181
v -0.057199 -0.011951 0.333677
v 0.000000 -0.011378 0.329661
v 0.000000 0.328983 0.378173
v -0.057199 0.328411 0.382189
v 0.095525 0.001370 -0.576074
v 0.057199 -0.011951 0.333677
v 0.000000 -0.011378 0.329661
v 0.000000 0.005376 -0.604180
v -0.095525 0.569792 -0.495056
v -0.057199 0.328411 0.382189
v 0.000000 0.328983 0.378173
v 0.000000 0.573798 -0.523163
v -0.465786 0.467637 -0.407181
v -0.423897 0.450580 -0.413929
v -0.423897 0.093168 -0.464871
v -0.465786 0.074906 -0.463157
v 0.000000 0.005376 -0.604180
v 0.000000 0.029892 -0.593211
v 0.086935 0.026246 -0.567632
v 0.095525 0.001370 -0.576074
v -0.095525 0.001370 -0.576074
v -0.086935 0.026246 -0.567632
v 0.000000 0.029892 -0.593211
v 0.000000 0.005376 -0.604180
v 0.095525 0.569792 -0.495056
v 0.086935 0.543548 -0.493901
v 0.000000 0.547194 -0.519480
v 0.000000 0.573798 -0.523163
v 0.465786 0.467637 -0.407181
v 0.423897 0.450580 -0.413929
v 0.264059 0.509652 -0.405509
v 0.290153 0.532546 -0.397929
v -0.423897 0.093168 -0.464871
v -0.321493 0.079410 -0.055365
v -0.200269 0.034609 -0.061751
v -0.264059 0.034097 -0.473290
v 0.423897 0.093168 -0.464871
v 0.321493 0.079410 -0.055365
v 0.321493 0.350479 -0.016730
v 0.423897 0.450580 -0.413929
v -0.423897 0.450580 -0.413929
v -0.321493 0.350479 -0.016730
v -0.321493 0.079410 -0.055365
v -0.423897 0.093168 -0.464871
v 0.423897 0.450580 -0.413929
v 0.321493 0.350479 -0.016730
v 0.200269 0.395280 -0.010344
v 0.264059 0.509652 -0.405509
v -0.264059 0.509652 -0.405509
v -0.200269 0.395280 -0.010344
v -0.321493 0.350479 -0.016730
v -0.423897 0.450580 -0.413929
v 0.264059 0.034097 -0.473290
v 0.200269 0.034609 -0.061751
v 0.321493 0.079410 -0.055365
v 0.423897 0.093168 -0.464871
v 0.000000 0.547194 -0.519480
v 0.000000 0.423753 -0.096782
v -0.065933 0.420988 -0.077383
v -0.086935 0.543548 -0.493901
v -0.086935 0.026246 -0.567632
v -0.065933 0.028654 -0.133302
v 0.000000 0.031419 -0.152702
v 0.000000 0.029892 -0.593211
v 0.086935 0.543548 -0.493901
v 0.065933 0.420988 -0.077383
v 0.000000 0.423753 -0.096782
v 0.000000 0.547194 -0.519480
v 0.000000 0.029892 -0.593211
v 0.000000 0.031419 -0.152702
v 0.065933 0.028654 -0.133302
v 0.086935 0.026246 -0.567632
v -0.321493 0.079410 -0.055365
v -0.321493 0.350479 -0.016730
v -0.200269 0.395280 -0.010344
v -0.200269 0.034609 -0.061751
v 0.200269 0.034609 -0.061751
v 0.200269 0.395280 -0.010344
v 0.321493 0.350479 -0.016730
v 0.321493 0.079410 -0.055365
v 0.000000 0.423753 -0.096782
v 0.000000 0.031419 -0.152702
v -0.065933 0.028654 -0.133302
v -0.065933 0.420988 -0.077383
v 0.000000 0.031419 -0.152702
v 0.000000 0.423753 -0.096782
v 0.065933 0.420988 -0.077383
v 0.065933 0.028654 -0.133302
v -0.290153 0.532546 -0.397929
v -0.184453 0.307812 0.428399
v -0.057199 0.328411 0.382189
v -0.095525 0.569792 -0.495056
v 0.095525 0.569792 -0.495056
v 0.057199 0.328411 0.382189
v 0.184453 0.307812 0.428399
v 0.290153 0.532546 -0.397929
v 0.290153 0.009997 -0.472408
v 0.184453 -0.005082 0.383802
v 0.057199 -0.011951 0.333677
v 0.095525 0.001370 -0.576074
v -0.095525 0.001370 -0.576074
v -0.057199 -0.011951 0.333677
v -0.184453 -0.005082 0.383802
v -0.290153 0.009997 -0.472408
v -0.184453 -0.005082 0.383802
v -0.057199 -0.011951 0.333677
v -0.057199 0.328411 0.382189
v -0.184453 0.307812 0.428399
v 0.057199 -0.011951 0.333677
v 0.184453 -0.005082 0.383802
v 0.184453 0.307812 0.428399
v 0.057199 0.328411 0.382189
v -0.095525 0.569792 -0.495056
v -0.086935 0.543548 -0.493901
v -0.264059 0.509652 -0.405509
v -0.290153 0.532546 -0.397929
v -0.290153 0.009997 -0.472408
v -0.264059 0.034097 -0.473290
v -0.086935 0.026246 -0.567632
v -0.095525 0.001370 -0.576074
v 0.095525 0.001370 -0.576074
v 0.086935 0.026246 -0.567632
v 0.264059 0.034097 -0.473290
v 0.290153 0.009997 -0.472408
v 0.290153 0.532546 -0.397929
v 0.264059 0.509652 -0.405509
v 0.086935 0.543548 -0.493901
v 0.095525 0.569792 -0.495056
v 0.086935 0.026246 -0.567632
v 0.065933 0.028654 -0.133302
v 0.200269 0.034609 -0.061751
v 0.264059 0.034097 -0.473290
v 0.264059 0.509652 -0.405509
v 0.200269 0.395280 -0.010344
v 0.065933 0.420988 -0.077383
v 0.086935 0.543548 -0.493901
v -0.086935 0.543548 -0.493901
v -0.065933 0.420988 -0.077383
v -0.200269 0.395280 -0.010344
v -0.264059 0.509652 -0.405509
v -0.264059 0.034097 -0.473290
v -0.200269 0.034609 -0.061751
v -0.065933 0.028654 -0.133302
v -0.086935 0.026246 -0.567632
v 0.065933 0.028654 -0.133302
v 0.065933 0.420988 -0.077383
v 0.200269 0.395280 -0.010344
v 0.200269 0.034609 -0.061751
v -0.200269 0.034609 -0.061751
v -0.200269 0.395280 -0.010344
v -0.065933 0.420988 -0.077383
v -0.065933 0.028654 -0.133302
v -0.157747 0.065883 0.160390
v -0.383058 0.065883 -0.707477
v -0.383058 0.166912 -0.707477
v -0.157747 0.166912 0.160390
v -0.383058 0.065883 -0.707477
v -0.480619 0.065883 -0.681236
v -0.480619 0.166912 -0.681236
v -0.383058 0.166912 -0.707477
v -0.480619 0.065883 -0.681236
v -0.255308 0.065883 0.186631
v -0.255308 0.166912 0.186631
v -0.480619 0.166912 -0.681236
v -0.255308 0.065883 0.186631
v -0.157747 0.065883 0.160390
v -0.157747 0.166912 0.160390
v -0.255308 0.166912 0.186631
v -0.383058 0.065883 -0.707477
v -0.157747 0.065883 0.160390
v -0.255308 0.065883 0.186631
v -0.480619 0.065883 -0.681236
v -0.480619 0.166912 -0.681236
v -0.255308 0.166912 0.186631
v -0.157747 0.166912 0.160390
v -0.383058 0.166912 -0.707477
v -0.131715 0.065883 0.112252
v -0.241009 0.065883 -0.777698
v -0.241009 0.166912 -0.777698
v -0.131715 0.166912 0.112252
v -0.241009 0.065883 -0.777698
v -0.341173 0.065883 -0.764507
v -0.341173 0.166912 -0.764507
v -0.241009 0.166912 -0.777698
v -0.341173 0.065883 -0.764507
v -0.231878 0.065883 0.125444
v -0.231878 0.166912 0.125444
v -0.341173 0.166912 -0.764507
v -0.231878 0.065883 0.125444
v -0.131715 0.065883 0.112252
v -0.131715 0.166912 0.112252
v -0.231878 0.166912 0.125444
v -0.241009 0.065883 -0.777698
v -0.131715 0.065883 0.112252
v -0.231878 0.065883 0.125444
v -0.341173 0.065883 -0.764507
v -0.341173 0.166912 -0.764507
v -0.231878 0.166912 0.125444
v -0.131715 0.166912 0.112252
v -0.241009 0.166912 -0.777698
v -0.108670 0.065883 0.100121
v 0.013406 0.065883 -0.788167
v 0.013406 0.166912 -0.788167
v -0.108670 0.166912 0.100121
v 0.013406 0.065883 -0.788167
v -0.086799 0.065883 -0.801046
v -0.086799 0.166912 -0.801046
v 0.013406 0.166912 -0.788167
v -0.086799 0.065883 -0.801046
v -0.208875 0.065883 0.087242
v -0.208875 0.166912 0.087242
v -0.086799 0.166912 -0.801046
v -0.208875 0.065883 0.087242
v -0.108670 0.065883 0.100121
v -0.108670 0.166912 0.100121
v -0.208875 0.166912 0.087242
v 0.013406 0.065883 -0.788167
v -0.108670 0.065883 0.100121
v -0.208875 0.065883 0.087242
v -0.086799 0.065883 -0.801046
v -0.086799 0.166912 -0.801046
v -0.208875 0.166912 0.087242
v -0.108670 0.166912 0.100121
v 0.013406 0.166912 -0.788167
v 0.117110 0.065883 0.088774
v 0.138862 0.065883 -0.807599
v 0.138862 0.166912 -0.807599
v 0.117110 0.166912 0.088774
v 0.138862 0.065883 -0.807599
v 0.037845 0.065883 -0.809167
v 0.037845 0.166912 -0.809167
v 0.138862 0.166912 -0.807599
v 0.037845 0.065883 -0.809167
v 0.016093 0.065883 0.087206
v 0.016093 0.166912 0.087206
v 0.037845 0.166912 -0.809167
v 0.016093 0.065883 0.087206
v 0.117110 0.065883 0.088774
v 0.117110 0.166912 0.088774
v 0.016093 0.166912 0.087206
v 0.138862 0.065883 -0.807599
v 0.117110 0.065883 0.088774
v 0.016093 0.065883 0.087206
v 0.037845 0.065883 -0.809167
v 0.037845 0.166912 -0.809167
v 0.016093 0.166912 0.087206
v 0.117110 0.166912 0.088774
v 0.138862 0.166912 -0.807599
v 0.282013 0.065883 0.129998
v 0.463617 0.065883 -0.748056
v 0.463617 0.166912 -0.748056
v 0.282013 0.166912 0.129998
v 0.463617 0.065883 -0.748056
v 0.364508 0.065883 -0.767652
v 0.364508 0.166912 -0.767652
v 0.463617 0.166912 -0.748056
v 0.364508 0.065883 -0.767652
v 0.182904 0.065883 0.110402
v 0.182904 0.166912 0.110402
v 0.364508 0.166912 -0.767652
v 0.182904 0.065883 0.110402
v 0.282013 0.065883 0.129998
v 0.282013 0.166912 0.129998
v 0.182904 0.166912 0.110402
v 0.463617 0.065883 -0.748056
v 0.282013 0.065883 0.129998
v 0.182904 0.065883 0.110402
v 0.364508 0.065883 -0.767652
v 0.364508 0.166912 -0.767652
v 0.182904 0.166912 0.110402
v 0.282013 0.166912 0.129998
v 0.463617 0.166912 -0.748056
v 0.197101 0.062362 0.211919
v 0.289392 0.062362 -0.742775
v 0.289392 0.170433 -0.742775
v 0.197101 0.170433 0.211919
v 0.289392 0.062362 -0.742775
v 0.181735 0.062362 -0.752233
v 0.181735 0.170433 -0.752233
v 0.289392 0.170433 -0.742775
v 0.181735 0.062362 -0.752233
v 0.089444 0.062362 0.202461
v 0.089444 0.170433 0.202461
v 0.181735 0.170433 -0.752233
v 0.089444 0.062362 0.202461
v 0.197101 0.062362 0.211919
v 0.197101 0.170433 0.211919
v 0.089444 0.170433 0.202461
v 0.289392 0.062362 -0.742775
v 0.197101 0.062362 0.211919
v 0.089444 0.062362 0.202461
v 0.181735 0.062362 -0.752233
v 0.181735 0.170433 -0.752233
v 0.089444 0.170433 0.202461
v 0.197101 0.170433 0.211919
v 0.289392 0.170433 -0.742775
v -0.125906 0.177824 0.216632
v -0.291665 0.177824 -0.664550
v -0.291665 0.278853 -0.664550
v -0.125906 0.278853 0.216632
v -0.291665 0.177824 -0.664550
v -0.390785 0.177824 -0.645005
v -0.390785 0.278853 -0.645005
v -0.291665 0.278853 -0.664550
v -0.390785 0.177824 -0.645005
v -0.225026 0.177824 0.236177
v -0.225026 0.278853 0.236177
v -0.390785 0.278853 -0.645005
v -0.225026 0.177824 0.236177
v -0.125906 0.177824 0.216632
v -0.125906 0.278853 0.216632
v -0.225026 0.278853 0.236177
v -0.291665 0.177824 -0.664550
v -0.125906 0.177824 0.216632
v -0.225026 0.177824 0.236177
v -0.390785 0.177824 -0.645005
v -0.390785 0.278853 -0.645005
v -0.225026 0.278853 0.236177
v -0.125906 0.278853 0.216632
v -0.291665 0.278853 -0.664550
v -0.146781 0.177824 0.051069
v -0.088960 0.177824 -0.843701
v -0.088960 0.278853 -0.843701
v -0.146781 0.278853 0.051069
v -0.088960 0.177824 -0.843701
v -0.189831 0.177824 -0.849334
v -0.189831 0.278853 -0.849334
v -0.088960 0.278853 -0.843701
v -0.189831 0.177824 -0.849334
v -0.247652 0.177824 0.045436
v -0.247652 0.278853 0.045436
v -0.189831 0.278853 -0.849334
v -0.247652 0.177824 0.045436
v -0.146781 0.177824 0.051069
v -0.146781 0.278853 0.051069
v -0.247652 0.278853 0.045436
v -0.088960 0.177824 -0.843701
v -0.146781 0.177824 0.051069
v -0.247652 0.177824 0.045436
v -0.189831 0.177824 -0.849334
v -0.189831 0.278853 -0.849334
v -0.247652 0.278853 0.045436
v -0.146781 0.278853 0.051069
v -0.088960 0.278853 -0.843701
v 0.157673 0.177824 0.033840
v 0.043840 0.177824 -0.855541
v 0.043840 0.278853 -0.855541
v 0.157673 0.278853 0.033840
v 0.043840 0.177824 -0.855541
v -0.056255 0.177824 -0.841839
v -0.056255 0.278853 -0.841839
v 0.043840 0.278853 -0.855541
v -0.056255 0.177824 -0.841839
v 0.057578 0.177824 0.047542
v 0.057578 0.278853 0.047542
v -0.056255 0.278853 -0.841839
v 0.057578 0.177824 0.047542
v 0.157673 0.177824 0.033840
v 0.157673 0.278853 0.033840
v 0.057578 0.278853 0.047542
v 0.043840 0.177824 -0.855541
v 0.157673 0.177824 0.033840
v 0.057578 0.177824 0.047542
v -0.056255 0.177824 -0.841839
v -0.056255 0.278853 -0.841839
v 0.057578 0.278853 0.047542
v 0.157673 0.278853 0.033840
v 0.043840 0.278853 -0.855541
v 0.139441 0.177824 0.170551
v 0.208777 0.177824 -0.723401
v 0.208777 0.278853 -0.723401
v 0.139441 0.278853 0.170551
v 0.208777 0.177824 -0.723401
v 0.107987 0.177824 -0.730333
v 0.107987 0.278853 -0.730333
v 0.208777 0.278853 -0.723401
v 0.107987 0.177824 -0.730333
v 0.038651 0.177824 0.163619
v 0.038651 0.278853 0.163619
v 0.107987 0.278853 -0.730333
v 0.038651 0.177824 0.163619
v 0.139441 0.177824 0.170551
v 0.139441 0.278853 0.170551
v 0.038651 0.278853 0.163619
v 0.208777 0.177824 -0.723401
v 0.139441 0.177824 0.170551
v 0.038651 0.177824 0.163619
v 0.107987 0.177824 -0.730333
v 0.107987 0.278853 -0.730333
v 0.038651 0.278853 0.163619
v 0.139441 0.278853 0.170551
v 0.208777 0.278853 -0.723401
v 0.288973 0.177824 0.058860
v 0.380266 0.177824 -0.833117
v 0.380266 0.278853 -0.833117
v 0.288973 0.278853 0.058860
v 0.380266 0.177824 -0.833117
v 0.279676 0.177824 -0.842524
v 0.279676 0.278853 -0.842524
v 0.380266 0.278853 -0.833117
v 0.279676 0.177824 -0.842524
v 0.188384 0.177824 0.049453
v 0.188384 0.278853 0.049453
v 0.279676 0.278853 -0.842524
v 0.188384 0.177824 0.049453
v 0.288973 0.177824 0.058860
v 0.288973 0.278853 0.058860
v 0.188384 0.278853 0.049453
v 0.380266 0.177824 -0.833117
v 0.288973 0.177824 0.058860
v 0.188384 0.177824 0.049453
v 0.279676 0.177824 -0.842524
v 0.279676 0.278853 -0.842524
v 0.188384 0.278853 0.049453
v 0.288973 0.278853 0.058860
v 0.380266 0.278853 -0.833117
v -0.256179 0.237147 0.156691
v -0.385491 0.287331 -0.714777
v -0.385491 0.388360 -0.714777
v -0.256179 0.290554 0.156691
v -0.385491 0.287331 -0.714777
v -0.483052 0.287331 -0.688536
v -0.483052 0.388360 -0.688536
v -0.385491 0.388360 -0.714777
v -0.483052 0.287331 -0.688536
v -0.307753 0.237147 0.170563
v -0.307753 0.290554 0.170563
v -0.483052 0.388360 -0.688536
v -0.307753 0.237147 0.170563
v -0.256179 0.237147 0.156691
v -0.256179 0.290554 0.156691
v -0.307753 0.290554 0.170563
v -0.385491 0.287331 -0.714777
v -0.256179 0.237147 0.156691
v -0.307753 0.237147 0.170563
v -0.483052 0.287331 -0.688536
v -0.483052 0.388360 -0.688536
v -0.307753 0.290554 0.170563
v -0.256179 0.290554 0.156691
v -0.385491 0.388360 -0.714777
v -0.227500 0.237147 0.122963
v -0.197373 0.287331 -0.757936
v -0.197373 0.388360 -0.757936
v -0.227500 0.290554 0.122963
v -0.197373 0.287331 -0.757936
v -0.298400 0.287331 -0.758455
v -0.298400 0.388360 -0.758455
v -0.197373 0.388360 -0.757936
v -0.298400 0.287331 -0.758455
v -0.280906 0.237147 0.122689
v -0.280906 0.290554 0.122689
v -0.298400 0.388360 -0.758455
v -0.280906 0.237147 0.122689
v -0.227500 0.237147 0.122963
v -0.227500 0.290554 0.122963
v -0.280906 0.290554 0.122689
v -0.197373 0.287331 -0.757936
v -0.227500 0.237147 0.122963
v -0.280906 0.237147 0.122689
v -0.298400 0.287331 -0.758455
v -0.298400 0.388360 -0.758455
v -0.280906 0.290554 0.122689
v -0.227500 0.290554 0.122963
v -0.197373 0.388360 -0.757936
v -0.053558 0.237147 0.041480
v -0.089456 0.287331 -0.840714
v -0.089456 0.388360 -0.840714
v -0.053558 0.290554 0.041480
v -0.089456 0.287331 -0.840714
v -0.189925 0.287331 -0.830090
v -0.189925 0.388360 -0.830090
v -0.089456 0.388360 -0.840714
v -0.189925 0.287331 -0.830090
v -0.106669 0.237147 0.047097
v -0.106669 0.290554 0.047097
v -0.189925 0.388360 -0.830090
v -0.106669 0.237147 0.047097
v -0.053558 0.237147 0.041480
v -0.053558 0.290554 0.041480
v -0.106669 0.290554 0.047097
v -0.089456 0.287331 -0.840714
v -0.053558 0.237147 0.041480
v -0.106669 0.237147 0.047097
v -0.189925 0.287331 -0.830090
v -0.189925 0.388360 -0.830090
v -0.106669 0.290554 0.047097
v -0.053558 0.290554 0.041480
v -0.089456 0.388360 -0.840714
v 0.068117 0.237147 0.077983
v 0.032219 0.287331 -0.804212
v 0.032219 0.388360 -0.804212
v 0.068117 0.290554 0.077983
v 0.032219 0.287331 -0.804212
v -0.068250 0.287331 -0.793588
v -0.068250 0.388360 -0.793588
v 0.032219 0.388360 -0.804212
v -0.068250 0.287331 -0.793588
v 0.015006 0.237147 0.083599
v 0.015006 0.290554 0.083599
v -0.068250 0.388360 -0.793588
v 0.015006 0.237147 0.083599
v 0.068117 0.237147 0.077983
v 0.068117 0.290554 0.077983
v 0.015006 0.290554 0.083599
v 0.032219 0.287331 -0.804212
v 0.068117 0.237147 0.077983
v 0.015006 0.237147 0.083599
v -0.068250 0.287331 -0.793588
v -0.068250 0.388360 -0.793588
v 0.015006 0.290554 0.083599
v 0.068117 0.290554 0.077983
v 0.032219 0.388360 -0.804212
v 0.100812 0.237147 0.008740
v 0.189350 0.287331 -0.864872
v 0.189350 0.388360 -0.864872
v 0.100812 0.290554 0.008740
v 0.189350 0.287331 -0.864872
v 0.088863 0.287331 -0.875321
v 0.088863 0.388360 -0.875321
v 0.189350 0.388360 -0.864872
v 0.088863 0.287331 -0.875321
v 0.047692 0.237147 0.003217
v 0.047692 0.290554 0.003217
v 0.088863 0.388360 -0.875321
v 0.047692 0.237147 0.003217
v 0.100812 0.237147 0.008740
v 0.100812 0.290554 0.008740
v 0.047692 0.290554 0.003217
v 0.189350 0.287331 -0.864872
v 0.100812 0.237147 0.008740
v 0.047692 0.237147 0.003217
v 0.088863 0.287331 -0.875321
v 0.088863 0.388360 -0.875321
v 0.047692 0.290554 0.003217
v 0.100812 0.290554 0.008740
v 0.189350 0.388360 -0.864872
v 0.234194 0.237147 0.130513
v 0.275376 0.287331 -0.749453
v 0.275376 0.388360 -0.749453
v 0.234194 0.290554 0.130513
v 0.275376 0.287331 -0.749453
v 0.174376 0.287331 -0.751846
v 0.174376 0.388360 -0.751846
v 0.275376 0.388360 -0.749453
v 0.174376 0.287331 -0.751846
v 0.180802 0.237147 0.129248
v 0.180802 0.290554 0.129248
v 0.174376 0.388360 -0.751846
v 0.180802 0.237147 0.129248
v 0.234194 0.237147 0.130513
v 0.234194 0.290554 0.130513
v 0.180802 0.290554 0.129248
v 0.275376 0.287331 -0.749453
v 0.234194 0.237147 0.130513
v 0.180802 0.237147 0.129248
v 0.174376 0.287331 -0.751846
v 0.174376 0.388360 -0.751846
v 0.180802 0.290554 0.129248
v 0.234194 0.290554 0.130513
v 0.275376 0.388360 -0.749453
v 0.334107 0.226191 -0.043554
v 0.398025 0.287331 -0.637342
v 0.398025 0.388360 -0.637342
v 0.334107 0.306444 -0.043554
v 0.398025 0.287331 -0.637342
v 0.297178 0.287331 -0.643392
v 0.297178 0.388360 -0.643392
v 0.398025 0.388360 -0.637342
v 0.297178 0.287331 -0.643392
v 0.253998 0.226191 -0.048360
v 0.253998 0.306444 -0.048360
v 0.297178 0.388360 -0.643392
v 0.253998 0.226191 -0.048360
v 0.334107 0.226191 -0.043554
v 0.334107 0.306444 -0.043554
v 0.253998 0.306444 -0.048360
v 0.398025 0.287331 -0.637342
v 0.334107 0.226191 -0.043554
v 0.253998 0.226191 -0.048360
v 0.297178 0.287331 -0.643392
v 0.297178 0.388360 -0.643392
v 0.253998 0.306444 -0.048360
v 0.334107 0.306444 -0.043554
v 0.398025 0.388360 -0.637342
vn 0.980466 -0.027754 0.194721
vn 0.980466 -0.027754 0.194721
vn 0.980466 -0.027754 0.194721
vn 0.980466 -0.027754 0.194721
vn -0.047219 0.265034 -0.963082
vn -0.047219 0.265034 -0.963082
vn -0.047219 0.265034 -0.963082
vn -0.047219 0.265034 -0.963082
vn -0.980466 -0.027754 0.194721
vn -0.980466 -0.027754 0.194721
vn -0.980466 -0.027754 0.194721
vn -0.980466 -0.027754 0.194721
vn -0.260632 -0.136228 0.955779
vn -0.260632 -0.136228 0.955779
vn -0.260632 -0.136228 0.955779
vn -0.260632 -0.136228 0.955779
vn -0.331853 -0.943094 0.021164
vn -0.331853 -0.943094 0.021164
vn -0.331853 -0.943094 0.021164
vn -0.331853 -0.943094 0.021164
vn 0.331853 0.899626 0.283808
vn 0.331853 0.899626 0.283808
vn 0.331853 0.899626 0.283808
vn 0.331853 0.899626 0.283808
vn -0.331853 0.899626 0.283808
vn -0.331853 0.899626 0.283808
vn -0.331853 0.899626 0.283808
vn -0.331853 0.899626 0.283808
vn -0.026418 0.964416 0.263065
vn -0.026418 0.964416 0.263065
vn -0.026418 0.964416 0.263065
vn -0.026418 0.964416 0.263065
vn 0.331853 -0.943094 0.021164
vn 0.331853 -0.943094 0.021164
vn 0.331853 -0.943094 0.021164
vn 0.331853 -0.943094 0.021164
vn 0.026418 -0.999509 -0.016855
vn 0.026418 -0.999509 -0.016855
vn 0.026418 -0.999509 -0.016855
vn 0.026418 -0.999509 -0.016855
vn 0.260632 -0.136228 0.955779
vn 0.260632 -0.136228 0.955779
vn 0.260632 -0.136228 0.955779
vn 0.260632 -0.136228 0.955779
vn -0.070729 -0.140751 0.987515
vn -0.070729 -0.140751 0.987515
vn -0.070729 -0.140751 0.987515
vn -0.070729 -0.140751 0.987515
vn -0.047218 0.014591 -0.998778
vn -0.047218 0.014591 -0.998778
vn -0.047218 0.014591 -0.998778
vn -0.047218 0.014591 -0.998778
vn 0.047218 0.014591 -0.998778
vn 0.047218 0.014591 -0.998778
vn 0.047218 0.014591 -0.998778
vn 0.047218 0.014591 -0.998778
vn -0.274711 -0.131851 -0.952444
vn -0.274711 -0.131851 -0.952444
vn -0.274711 -0.131851 -0.952444
vn -0.274711 -0.131851 -0.952444
vn 0.101490 0.140376 -0.984883
vn 0.101490 0.140376 -0.984883
vn 0.101490 0.140376 -0.984883
vn 0.101490 0.140376 -0.984883
vn 0.070729 -0.140751 0.987515
vn 0.070729 -0.140751 0.987515
vn 0.070729 -0.140751 0.987515
vn 0.070729 -0.140751 0.987515
vn -0.026418 -0.999509 -0.016855
vn -0.026418 -0.999509 -0.016855
vn -0.026418 -0.999509 -0.016855
vn -0.026418 -0.999509 -0.016855
vn 0.026418 0.964416 0.263065
vn 0.026418 0.964416 0.263065
vn 0.026418 0.964416 0.263065
vn 0.026418 0.964416 0.263065
vn -0.101490 0.140376 -0.984883
vn -0.101490 0.140376 -0.984883
vn -0.101490 0.140376 -0.984883
vn -0.101490 0.140376 -0.984883
vn 0.274711 0.392701 -0.877679
vn 0.274711 0.392701 -0.877679
vn 0.274711 0.392701 -0.877679
vn 0.274711 0.392701 -0.877679
vn -0.274711 0.392701 -0.877679
vn -0.274711 0.392701 -0.877679
vn -0.274711 0.392701 -0.877679
vn -0.274711 0.392701 -0.877679
vn 0.274711 -0.131851 -0.952444
vn 0.274711 -0.131851 -0.952444
vn 0.274711 -0.131851 -0.952444
vn 0.274711 -0.131851 -0.952444
vn 0.047219 0.265034 -0.963082
vn 0.047219 0.265034 -0.963082
vn 0.047219 0.265034 -0.963082
vn 0.047219 0.265034 -0.963082
vn 0.343619 0.937531 -0.054429
vn 0.343619 0.937531 -0.054429
vn 0.343619 0.937531 -0.054429
vn 0.343619 0.937531 -0.054429
vn -0.969824 0.034402 -0.241365
vn -0.969824 0.034402 -0.241365
vn -0.969824 0.034402 -0.241365
vn -0.969824 0.034402 -0.241365
vn 0.969824 0.034402 -0.241365
vn 0.969824 0.034402 -0.241365
vn 0.969824 0.034402 -0.241365
vn 0.969824 0.034402 -0.241365
vn -0.343778 -0.885755 -0.311857
vn -0.343778 -0.885755 -0.311857
vn -0.343778 -0.885755 -0.311857
vn -0.343778 -0.885755 -0.311857
vn 0.343778 -0.885755 -0.311857
vn 0.343778 -0.885755 -0.311857
vn 0.343778 -0.885755 -0.311857
vn 0.343778 -0.885755 -0.311857
vn -0.343619 0.937531 -0.054429
vn -0.343619 0.937531 -0.054429
vn -0.343619 0.937531 -0.054429
vn -0.343619 0.937531 -0.054429
vn -0.042187 -0.959051 -0.280073
vn -0.042187 -0.959051 -0.280073
vn -0.042187 -0.959051 -0.280073
vn -0.042187 -0.959051 -0.280073
vn -0.042918 0.999073 -0.003465
vn -0.042918 0.999073 -0.003465
vn -0.042918 0.999073 -0.003465
vn -0.042918 0.999073 -0.003465
vn 0.042187 -0.959051 -0.280073
vn 0.042187 -0.959051 -0.280073
vn 0.042187 -0.959051 -0.280073
vn 0.042187 -0.959051 -0.280073
vn 0.042918 0.999073 -0.003465
vn 0.042918 0.999073 -0.003465
vn 0.042918 0.999073 -0.003465
vn 0.042918 0.999073 -0.003465
vn 0.000000 0.141104 -0.989995
vn 0.000000 0.141104 -0.989995
vn 0.000000 0.141104 -0.989995
vn 0.000000 0.141104 -0.989995
vn 0.000000 0.141104 -0.989995
vn 0.000000 0.141104 -0.989995
vn 0.000000 0.141104 -0.989995
vn 0.000000 0.141104 -0.989995
vn -0.284891 0.135257 -0.948969
vn -0.284891 0.135257 -0.948969
vn -0.284891 0.135257 -0.948969
vn -0.284891 0.135257 -0.948969
vn 0.284891 0.135257 -0.948969
vn 0.284891 0.135257 -0.948969
vn 0.284891 0.135257 -0.948969
vn 0.284891 0.135257 -0.948969
vn -0.053649 0.961995 0.267747
vn -0.053649 0.961995 0.267747
vn -0.053649 0.961995 0.267747
vn -0.053649 0.961995 0.267747
vn 0.053649 0.961995 0.267747
vn 0.053649 0.961995 0.267747
vn 0.053649 0.961995 0.267747
vn 0.053649 0.961995 0.267747
vn 0.053649 -0.998492 -0.011682
vn 0.053649 -0.998492 -0.011682
vn 0.053649 -0.998492 -0.011682
vn 0.053649 -0.998492 -0.011682
vn -0.053649 -0.998492 -0.011682
vn -0.053649 -0.998492 -0.011682
vn -0.053649 -0.998492 -0.011682
vn -0.053649 -0.998492 -0.011682
vn 0.357130 -0.131799 0.924709
vn 0.357130 -0.131799 0.924709
vn 0.357130 -0.131799 0.924709
vn 0.357130 -0.131799 0.924709
vn -0.357130 -0.131799 0.924709
vn -0.357130 -0.131799 0.924709
vn -0.357130 -0.131799 0.924709
vn -0.357130 -0.131799 0.924709
vn -0.412744 -0.174465 -0.893982
vn -0.412744 -0.174465 -0.893982
vn -0.412744 -0.174465 -0.893982
vn -0.412744 -0.174465 -0.893982
vn -0.412745 0.417280 -0.809641
vn -0.412745 0.417280 -0.809641
vn -0.412745 0.417280 -0.809641
vn -0.412745 0.417280 -0.809641
vn 0.412745 0.417280 -0.809641
vn 0.412745 0.417280 -0.809641
vn 0.412745 0.417280 -0.809641
vn 0.412745 0.417280 -0.809641
vn 0.412744 -0.174465 -0.893982
vn 0.412744 -0.174465 -0.893982
vn 0.412744 -0.174465 -0.893982
vn 0.412744 -0.174465 -0.893982
vn -0.040299 0.999160 -0.007489
vn -0.040299 0.999160 -0.007489
vn -0.040299 0.999160 -0.007489
vn -0.040299 0.999160 -0.007489
vn -0.041608 -0.957931 -0.283968
vn -0.041608 -0.957931 -0.283968
vn -0.041608 -0.957931 -0.283968
vn -0.041608 -0.957931 -0.283968
vn 0.041608 -0.957931 -0.283968
vn 0.041608 -0.957931 -0.283968
vn 0.041608 -0.957931 -0.283968
vn 0.041608 -0.957931 -0.283968
vn 0.040299 0.999160 -0.007489
vn 0.040299 0.999160 -0.007489
vn 0.040299 0.999160 -0.007489
vn 0.040299 0.999160 -0.007489
vn 0.462085 0.125136 -0.877963
vn 0.462085 0.125136 -0.877963
vn 0.462085 0.125136 -0.877963
vn 0.462085 0.125136 -0.877963
vn -0.462085 0.125136 -0.877963
vn -0.462085 0.125136 -0.877963
vn -0.462085 0.125136 -0.877963
vn -0.462085 0.125136 -0.877963
vn 0.967913 0.000000 -0.251285
vn 0.967913 0.000000 -0.251285
vn 0.967913 0.000000 -0.251285
vn 0.967913 0.000000 -0.251285
vn -0.259739 0.000000 -0.965679
vn -0.259739 0.000000 -0.965679
vn -0.259739 0.000000 -0.965679
vn -0.259739 0.000000 -0.965679
vn -0.967913 0.000000 0.251285
vn -0.967913 0.000000 0.251285
vn -0.967913 0.000000 0.251285
vn -0.967913 0.000000 0.251285
vn 0.259740 0.000000 0.965679
vn 0.259740 0.000000 0.965679
vn 0.259740 0.000000 0.965679
vn 0.259740 0.000000 0.965679
vn 0.000000 -1.000000 0.000000
vn 0.000000 -1.000000 0.000000
vn 0.000000 -1.000000 0.000000
vn 0.000000 -1.000000 0.000000
vn 0.000000 1.000000 0.000000
vn 0.000000 1.000000 0.000000
vn 0.000000 1.000000 0.000000
vn 0.000000 1.000000 0.000000
vn 0.992543 0.000000 -0.121894
vn 0.992543 0.000000 -0.121894
vn 0.992543 0.000000 -0.121894
vn 0.992543 0.000000 -0.121894
vn -0.130569 0.000000 -0.991439
vn -0.130569 0.000000 -0.991439
vn -0.130569 0.000000 -0.991439
vn -0.130569 0.000000 -0.991439
vn -0.992543 0.000000 0.121894
vn -0.992543 0.000000 0.121894
vn -0.992543 0.000000 0.121894
vn -0.992543 0.000000 0.121894
vn 0.130570 0.000000 0.991439
vn 0.130570 0.000000 0.991439
vn 0.130570 0.000000 0.991439
vn 0.130570 0.000000 0.991439
vn 0.000000 -1.000000 0.000000
vn 0.000000 -1.000000 0.000000
vn 0.000000 -1.000000 0.000000
vn 0.000000 -1.000000 0.000000
vn 0.000000 1.000000 0.000000
vn 0.000000 1.000000 0.000000
vn 0.000000 1.000000 0.000000
vn 0.000000 1.000000 0.000000
vn 0.990688 0.000000 0.136149
vn 0.990688 0.000000 0.136149
vn 0.990688 0.000000 0.136149
vn 0.990688 0.000000 0.136149
vn 0.127480 0.000000 -0.991841
vn 0.127480 0.000000 -0.991841
vn 0.127480 0.000000 -0.991841
vn 0.127480 0.000000 -0.991841
vn -0.990688 0.000000 -0.136149
vn -0.990688 0.000000 -0.136149
vn -0.990688 0.000000 -0.136149
vn -0.990688 0.000000 -0.136149
vn -0.127479 0.000000 0.991841
vn -0.127479 0.000000 0.991841
vn -0.127479 0.000000 0.991841
vn -0.127479 0.000000 0.991841
vn 0.000000 -1.000000 0.000000
vn 0.000000 -1.000000 0.000000
vn 0.000000 -1.000000 0.000000
vn 0.000000 -1.000000 0.000000
vn 0.000000 1.000000 0.000000
vn 0.000000 1.000000 0.000000
vn 0.000000 1.000000 0.000000
vn 0.000000 1.000000 0.000000
vn 0.999706 0.000000 0.024259
vn 0.999706 0.000000 0.024259
vn 0.999706 0.000000 0.024259
vn 0.999706 0.000000 0.024259
vn 0.015515 0.000000 -0.999880
vn 0.015515 0.000000 -0.999880
vn 0.015515 0.000000 -0.999880
vn 0.015515 0.000000 -0.999880
vn -0.999706 0.000000 -0.024260
vn -0.999706 0.000000 -0.024260
vn -0.999706 0.000000 -0.024260
vn -0.999706 0.000000 -0.024260
vn -0.015515 0.000000 0.999880
vn -0.015515 0.000000 0.999880
vn -0.015515 0.000000 0.999880
vn -0.015515 0.000000 0.999880
vn 0.000000 -1.000000 0.000000
vn 0.000000 -1.000000 0.000000
vn 0.000000 -1.000000 0.000000
vn 0.000000 -1.000000 0.000000
vn 0.000000 1.000000 0.000000
vn 0.000000 1.000000 0.000000
vn 0.000000 1.000000 0.000000
vn 0.000000 1.000000 0.000000
vn 0.979274 0.000000 0.202539
vn 0.979274 0.000000 0.202539
vn 0.979274 0.000000 0.202539
vn 0.979274 0.000000 0.202539
vn 0.193967 0.000000 -0.981008
vn 0.193967 0.000000 -0.981008
vn 0.193967 0.000000 -0.981008
vn 0.193967 0.000000 -0.981008
vn -0.979274 0.000000 -0.202539
vn -0.979274 0.000000 -0.202539
vn -0.979274 0.000000 -0.202539
vn -0.979274 0.000000 -0.202539
vn -0.193967 0.000000 0.981008
vn -0.193967 0.000000 0.981008
vn -0.193967 0.000000 0.981008
vn -0.193967 0.000000 0.981008
vn 0.000000 -1.000000 0.000000
vn 0.000000 -1.000000 0.000000
vn 0.000000 -1.000000 0.000000
vn 0.000000 -1.000000 0.000000
vn 0.000000 1.000000 0.000000
vn 0.000000 1.000000 0.000000
vn 0.000000 1.000000 0.000000
vn 0.000000 1.000000 0.000000
vn 0.995360 0.000000 0.096222
vn 0.995360 0.000000 0.096222
vn 0.995360 0.000000 0.096222
vn 0.995360 0.000000 0.096222
vn 0.087514 0.000000 -0.996163
vn 0.087514 0.000000 -0.996163
vn 0.087514 0.000000 -0.996163
vn 0.087514 0.000000 -0.996163
vn -0.995360 0.000000 -0.096223
vn -0.995360 0.000000 -0.096223
vn -0.995360 0.000000 -0.096223
vn -0.995360 0.000000 -0.096223
vn -0.087514 0.000000 0.996163
vn -0.087514 0.000000 0.996163
vn -0.087514 0.000000 0.996163
vn -0.087514 0.000000 0.996163
vn 0.000000 -1.000000 0.000000
vn 0.000000 -1.000000 0.000000
vn 0.000000 -1.000000 0.000000
vn 0.000000 -1.000000 0.000000
vn 0.000000 1.000000 0.000000
vn 0.000000 1.000000 0.000000
vn 0.000000 1.000000 0.000000
vn 0.000000 1.000000 0.000000
vn 0.982763 0.000000 -0.184868
vn 0.982763 0.000000 -0.184868
vn 0.982763 0.000000 -0.184868
vn 0.982763 0.000000 -0.184868
vn -0.193455 0.000000 -0.981109
vn -0.193455 0.000000 -0.981109
vn -0.193455 0.000000 -0.981109
vn -0.193455 0.000000 -0.981109
vn -0.982763 0.000000 0.184868
vn -0.982763 0.000000 0.184868
vn -0.982763 0.000000 0.184868
vn -0.982763 0.000000 0.184868
vn 0.193455 0.000000 0.981109
vn 0.193455 0.000000 0.981109
vn 0.193455 0.000000 0.981109
vn 0.193455 0.000000 0.981109
vn 0.000000 -1.000000 0.000000
vn 0.000000 -1.000000 0.000000
vn 0.000000 -1.000000 0.000000
vn 0.000000 -1.000000 0.000000
vn 0.000000 1.000000 0.000000
vn 0.000000 1.000000 0.000000
vn 0.000000 1.000000 0.000000
vn 0.000000 1.000000 0.000000
vn 0.997919 0.000000 0.064486
vn 0.997919 0.000000 0.064486
vn 0.997919 0.000000 0.064486
vn 0.997919 0.000000 0.064486
vn 0.055758 0.000000 -0.998444
vn 0.055758 0.000000 -0.998444
vn 0.055758 0.000000 -0.998444
vn 0.055758 0.000000 -0.998444
vn -0.997919 0.000000 -0.064486
vn -0.997919 0.000000 -0.064486
vn -0.997919 0.000000 -0.064486
vn -0.997919 0.000000 -0.064486
vn -0.055757 0.000000 0.998444
vn -0.055757 0.000000 0.998444
vn -0.055757 0.000000 0.998444
vn -0.055757 0.000000 0.998444
vn 0.000000 -1.000000 0.000000
vn 0.000000 -1.000000 0.000000
vn 0.000000 -1.000000 0.000000
vn 0.000000 -1.000000 0.000000
vn 0.000000 1.000000 0.000000
vn 0.000000 1.000000 0.000000
vn 0.000000 1.000000 0.000000
vn 0.000000 1.000000 0.000000
vn 0.991908 0.000000 -0.126956
vn 0.991908 0.000000 -0.126956
vn 0.991908 0.000000 -0.126956
vn 0.991908 0.000000 -0.126956
vn -0.135624 0.000000 -0.990760
vn -0.135624 0.000000 -0.990760
vn -0.135624 0.000000 -0.990760
vn -0.135624 0.000000 -0.990760
vn -0.991908 0.000000 0.126956
vn -0.991908 0.000000 0.126956
vn -0.991908 0.000000 0.126956
vn -0.991908 0.000000 0.126956
vn 0.135625 0.000000 0.990760
vn 0.135625 0.000000 0.990760
vn 0.135625 0.000000 0.990760
vn 0.135625 0.000000 0.990760
vn 0.000000 -1.000000 0.000000
vn 0.000000 -1.000000 0.000000
vn 0.000000 -1.000000 0.000000
vn 0.000000 -1.000000 0.000000
vn 0.000000 1.000000 0.000000
vn 0.000000 1.000000 0.000000
vn 0.000000 1.000000 0.000000
vn 0.000000 1.000000 0.000000
vn 0.997006 0.000000 0.077329
vn 0.997006 0.000000 0.077329
vn 0.997006 0.000000 0.077329
vn 0.997006 0.000000 0.077329
vn 0.068609 0.000000 -0.997644
vn 0.068609 0.000000 -0.997644
vn 0.068609 0.000000 -0.997644
vn 0.068609 0.000000 -0.997644
vn -0.997006 0.000000 -0.077329
vn -0.997006 0.000000 -0.077329
vn -0.997006 0.000000 -0.077329
vn -0.997006 0.000000 -0.077329
vn -0.068607 0.000000 0.997644
vn -0.068607 0.000000 0.997644
vn -0.068607 0.000000 0.997644
vn -0.068607 0.000000 0.997644
vn 0.000000 -1.000000 0.000000
vn 0.000000 -1.000000 0.000000
vn 0.000000 -1.000000 0.000000
vn 0.000000 -1.000000 0.000000
vn 0.000000 1.000000 0.000000
vn 0.000000 1.000000 0.000000
vn 0.000000 1.000000 0.000000
vn 0.000000 1.000000 0.000000
vn 0.994803 0.000000 0.101816
vn 0.994803 0.000000 0.101816
vn 0.994803 0.000000 0.101816
vn 0.994803 0.000000 0.101816
vn 0.093114 0.000000 -0.995656
vn 0.093114 0.000000 -0.995656
vn 0.093114 0.000000 -0.995656
vn 0.093114 0.000000 -0.995656
vn -0.994803 0.000000 -0.101816
vn -0.994803 0.000000 -0.101816
vn -0.994803 0.000000 -0.101816
vn -0.994803 0.000000 -0.101816
vn -0.093113 0.000000 0.995656
vn -0.093113 0.000000 0.995656
vn -0.093113 0.000000 0.995656
vn -0.093113 0.000000 0.995656
vn 0.000000 -1.000000 0.000000
vn 0.000000 -1.000000 0.000000
vn 0.000000 -1.000000 0.000000
vn 0.000000 -1.000000 0.000000
vn 0.000000 1.000000 0.000000
vn 0.000000 1.000000 0.000000
vn 0.000000 1.000000 0.000000
vn 0.000000 1.000000 0.000000
vn 0.989170 0.000000 -0.146778
vn 0.989170 0.000000 -0.146778
vn 0.989170 0.000000 -0.146778
vn 0.989170 0.000000 -0.146778
vn -0.259739 0.000000 -0.965679
vn -0.259739 0.000000 -0.965679
vn -0.259739 0.000000 -0.965679
vn -0.259739 0.000000 -0.965679
vn -0.979810 0.000000 0.199931
vn -0.979810 0.000000 0.199931
vn -0.979810 0.000000 0.199931
vn -0.979810 0.000000 0.199931
vn 0.259740 0.000000 0.965679
vn 0.259740 0.000000 0.965679
vn 0.259740 0.000000 0.965679
vn 0.259740 0.000000 0.965679
vn -0.014870 -0.998360 -0.055285
vn -0.014870 -0.998360 -0.055285
vn -0.014870 -0.998360 -0.055285
vn -0.014870 -0.998360 -0.055285
vn 0.028849 0.993813 0.107256
vn 0.028849 0.993813 0.107256
vn 0.028849 0.993813 0.107256
vn 0.028849 0.993813 0.107256
vn 0.999416 0.000000 0.034181
vn 0.999416 0.000000 0.034181
vn 0.999416 0.000000 0.034181
vn 0.999416 0.000000 0.034181
vn 0.005134 0.000000 -0.999987
vn 0.005134 0.000000 -0.999987
vn 0.005134 0.000000 -0.999987
vn 0.005134 0.000000 -0.999987
vn -0.999803 0.000000 0.019849
vn -0.999803 0.000000 0.019849
vn -0.999803 0.000000 0.019849
vn -0.999803 0.000000 0.019849
vn -0.005134 0.000000 0.999987
vn -0.005134 0.000000 0.999987
vn -0.005134 0.000000 0.999987
vn -0.005134 0.000000 0.999987
vn 0.000292 -0.998382 -0.056867
vn 0.000292 -0.998382 -0.056867
vn 0.000292 -0.998382 -0.056867
vn 0.000292 -0.998382 -0.056867
vn -0.000566 0.993895 0.110333
vn -0.000566 0.993895 0.110333
vn -0.000566 0.993895 0.110333
vn -0.000566 0.993895 0.110333
vn 0.999173 0.000000 -0.040658
vn 0.999173 0.000000 -0.040658
vn 0.999173 0.000000 -0.040658
vn 0.999173 0.000000 -0.040658
vn -0.105158 0.000000 -0.994456
vn -0.105158 0.000000 -0.994456
vn -0.105158 0.000000 -0.994456
vn -0.105158 0.000000 -0.994456
vn -0.995526 0.000000 0.094488
vn -0.995526 0.000000 0.094488
vn -0.995526 0.000000 0.094488
vn -0.995526 0.000000 0.094488
vn 0.105159 0.000000 0.994456
vn 0.105159 0.000000 0.994456
vn 0.105159 0.000000 0.994456
vn 0.105159 0.000000 0.994456
vn -0.005980 -0.998382 -0.056550
vn -0.005980 -0.998382 -0.056550
vn -0.005980 -0.998382 -0.056550
vn -0.005980 -0.998382 -0.056550
vn 0.011602 0.993895 0.109718
vn 0.011602 0.993895 0.109718
vn 0.011602 0.993895 0.109718
vn 0.011602 0.993895 0.109718
vn 0.999173 0.000000 -0.040658
vn 0.999173 0.000000 -0.040658
vn 0.999173 0.000000 -0.040658
vn 0.999173 0.000000 -0.040658
vn -0.105159 0.000000 -0.994456
vn -0.105159 0.000000 -0.994456
vn -0.105159 0.000000 -0.994456
vn -0.105159 0.000000 -0.994456
vn -0.995526 0.000000 0.094488
vn -0.995526 0.000000 0.094488
vn -0.995526 0.000000 0.094488
vn -0.995526 0.000000 0.094488
vn 0.105159 0.000000 0.994456
vn 0.105159 0.000000 0.994456
vn 0.105159 0.000000 0.994456
vn 0.105159 0.000000 0.994456
vn -0.005980 -0.998382 -0.056550
vn -0.005980 -0.998382 -0.056550
vn -0.005980 -0.998382 -0.056550
vn -0.005980 -0.998382 -0.056550
vn 0.011602 0.993895 0.109718
vn 0.011602 0.993895 0.109718
vn 0.011602 0.993895 0.109718
vn 0.011602 0.993895 0.109718
vn 0.994904 0.000000 0.100831
vn 0.994904 0.000000 0.100831
vn 0.994904 0.000000 0.100831
vn 0.994904 0.000000 0.100831
vn 0.103422 0.000000 -0.994638
vn 0.103422 0.000000 -0.994638
vn 0.103422 0.000000 -0.994638
vn 0.103422 0.000000 -0.994638
vn -0.998904 0.000000 -0.046813
vn -0.998904 0.000000 -0.046813
vn -0.998904 0.000000 -0.046813
vn -0.998904 0.000000 -0.046813
vn -0.103422 0.000000 0.994638
vn -0.103422 0.000000 0.994638
vn -0.103422 0.000000 0.994638
vn -0.103422 0.000000 0.994638
vn 0.005901 -0.998371 -0.056753
vn 0.005901 -0.998371 -0.056753
vn 0.005901 -0.998371 -0.056753
vn 0.005901 -0.998371 -0.056753
vn -0.011449 0.993854 0.110107
vn -0.011449 0.993854 0.110107
vn -0.011449 0.993854 0.110107
vn -0.011449 0.993854 0.110107
vn 0.998907 0.000000 0.046749
vn 0.998907 0.000000 0.046749
vn 0.998907 0.000000 0.046749
vn 0.998907 0.000000 0.046749
vn 0.023684 0.000000 -0.999720
vn 0.023684 0.000000 -0.999720
vn 0.023684 0.000000 -0.999720
vn 0.023684 0.000000 -0.999720
vn -0.999973 0.000000 0.007293
vn -0.999973 0.000000 0.007293
vn -0.999973 0.000000 0.007293
vn -0.999973 0.000000 0.007293
vn -0.023684 0.000000 0.999720
vn -0.023684 0.000000 0.999720
vn -0.023684 0.000000 0.999720
vn -0.023684 0.000000 0.999720
vn 0.001347 -0.998380 -0.056874
vn 0.001347 -0.998380 -0.056874
vn 0.001347 -0.998380 -0.056874
vn 0.001347 -0.998380 -0.056874
vn -0.002614 0.993890 0.110346
vn -0.002614 0.993890 0.110346
vn -0.002614 0.993890 0.110346
vn -0.002614 0.993890 0.110346
vn 0.994256 0.000000 0.107026
vn 0.994256 0.000000 0.107026
vn 0.994256 0.000000 0.107026
vn 0.994256 0.000000 0.107026
vn 0.059886 0.000000 -0.998205
vn 0.059886 0.000000 -0.998205
vn 0.059886 0.000000 -0.998205
vn 0.059886 0.000000 -0.998205
vn -0.997377 0.000000 -0.072376
vn -0.997377 0.000000 -0.072376
vn -0.997377 0.000000 -0.072376
vn -0.997377 0.000000 -0.072376
vn -0.059886 0.000000 0.998205
vn -0.059886 0.000000 0.998205
vn -0.059886 0.000000 0.998205
vn -0.059886 0.000000 0.998205
vn 0.006106 -0.994789 -0.101774
vn 0.006106 -0.994789 -0.101774
vn 0.006106 -0.994789 -0.101774
vn 0.006106 -0.994789 -0.101774
vn -0.008147 0.990703 0.135796
vn -0.008147 0.990703 0.135796
vn -0.008147 0.990703 0.135796
vn -0.008147 0.990703 0.135796
g Fries_DarkRed
usemtl DarkRed
f 1 2 3
f 1 3 4
f 5 6 7
f 5 7 8
f 9 10 11
f 9 11 12
f 13 14 15
f 13 15 16
f 17 18 19
f 17 19 20
f 21 22 23
f 21 23 24
f 25 26 27
f 25 27 28
f 29 30 31
f 29 31 32
f 33 34 35
f 33 35 36
f 37 38 39
f 37 39 40
f 41 42 43
f 41 43 44
f 45 46 47
f 45 47 48
f 49 50 51
f 49 51 52
f 53 54 55
f 53 55 56
f 57 58 59
f 57 59 60
f 61 62 63
f 61 63 64
f 65 66 67
f 65 67 68
f 69 70 71
f 69 71 72
f 73 74 75
f 73 75 76
f 77 78 79
f 77 79 80
f 81 82 83
f 81 83 84
f 85 86 87
f 85 87 88
f 89 90 91
f 89 91 92
f 93 94 95
f 93 95 96
f 97 98 99
f 97 99 100
f 101 102 103
f 101 103 104
f 105 106 107
f 105 107 108
f 109 110 111
f 109 111 112
f 113 114 115
f 113 115 116
f 117 118 119
f 117 119 120
f 121 122 123
f 121 123 124
f 125 126 127
f 125 127 128
f 129 130 131
f 129 131 132
f 133 134 135
f 133 135 136
f 137 138 139
f 137 139 140
f 141 142 143
f 141 143 144
f 145 146 147
f 145 147 148
f 149 150 151
f 149 151 152
g Fries_White
usemtl White
f 153 154 155
f 153 155 156
f 157 158 159
f 157 159 160
f 161 162 163
f 161 163 164
f 165 166 167
f 165 167 168
f 169 170 171
f 169 171 172
f 173 174 175
f 173 175 176
f 177 178 179
f 177 179 180
f 181 182 183
f 181 183 184
f 185 186 187
f 185 187 188
f 189 190 191
f 189 191 192
f 193 194 195
f 193 195 196
f 197 198 199
f 197 199 200
f 201 202 203
f 201 203 204
f 205 206 207
f 205 207 208
f 209 210 211
f 209 211 212
f 213 214 215
f 213 215 216
g Fries_Yellow
usemtl Yellow
f 217 218 219
f 217 219 220
f 221 222 223
f 221 223 224
f 225 226 227
f 225 227 228
f 229 230 231
f 229 231 232
f 233 234 235
f 233 235 236
f 237 238 239
f 237 239 240
f 241 242 243
f 241 243 244
f 245 246 247
f 245 247 248
f 249 250 251
f 249 251 252
f 253 254 255
f 253 255 256
f 257 258 259
f 257 259 260
f 261 262 263
f 261 263 264
f 265 266 267
f 265 267 268
f 269 270 271
f 269 271 272
f 273 274 275
f 273 275 276
f 277 278 279
f 277 279 280
f 281 282 283
f 281 283 284
f 285 286 287
f 285 287 288
f 289 290 291
f 289 291 292
f 293 294 295
f 293 295 296
f 297 298 299
f 297 299 300
f 301 302 303
f 301 303 304
f 305 306 307
f 305 307 308
f 309 310 311
f 309 311 312
f 313 314 315
f 313 315 316
f 317 318 319
f 317 319 320
f 321 322 323
f 321 323 324
f 325 326 327
f 325 327 328
f 329 330 331
f 329 331 332
f 333 334 335
f 333 335 336
f 337 338 339
f 337 339 340
f 341 342 343
f 341 343 344
f 345 346 347
f 345 347 348
f 349 350 351
f 349 351 352
f 353 354 355
f 353 355 356
f 357 358 359
f 357 359 360
f 361 362 363
f 361 363 364
f 365 366 367
f 365 367 368
f 369 370 371
f 369 371 372
f 373 374 375
f 373 375 376
f 377 378 379
f 377 379 380
f 381 382 383
f 381 383 384
f 385 386 387
f 385 387 388
f 389 390 391
f 389 391 392
f 393 394 395
f 393 395 396
f 397 398 399
f 397 399 400
f 401 402 403
f 401 403 404
f 405 406 407
f 405 407 408
f 409 410 411
f 409 411 412
f 413 414 415
f 413 415 416
f 417 418 419
f 417 419 420
f 421 422 423
f 421 423 424
f 425 426 427
f 425 427 428
f 429 430 431
f 429 431 432
f 433 434 435
f 433 435 436
f 437 438 439
f 437 439 440
f 441 442 443
f 441 443 444
f 445 446 447
f 445 447 448
f 449 450 451
f 449 451 452
f 453 454 455
f 453 455 456
f 457 458 459
f 457 459 460
f 461 462 463
f 461 463 464
f 465 466 467
f 465 467 468
f 469 470 471
f 469 471 472
f 473 474 475
f 473 475 476
f 477 478 479
f 477 479 480
f 481 482 483
f 481 483 484
f 485 486 487
f 485 487 488
f 489 490 491
f 489 491 492
f 493 494 495
f 493 495 496
f 497 498 499
f 497 499 500
f 501 502 503
f 501 503 504
f 505 506 507
f 505 507 508
f 509 510 511
f 509 511 512
f 513 514 515
f 513 515 516
f 517 518 519
f 517 519 520
f 521 522 523
f 521 523 524
f 525 526 527
f 525 527 528
f 529 530 531
f 529 531 532
f 533 534 535
f 533 535 536
f 537 538 539
f 537 539 540
f 541 542 543
f 541 543 544
f 545 546 547
f 545 547 548
f 549 550 551
f 549 551 552
f 553 554 555
f 553 555 556
f 557 558 559
f 557 559 560
f 561 562 563
f 561 563 564
f 565 566 567
f 565 567 568
f 569 570 571
f 569 571 572
f 573 574 575
f 573 575 576
f 577 578 579
f 577 579 580
f 581 582 583
f 581 583 584
f 585 586 587
f 585 587 588
f 589 590 591
f 589 591 592
f 593 594 595
f 593 595 596
f 597 598 599
f 597 599 600
f 601 602 603
f 601 603 604
f 605 606 607
f 605 607 608
f 609 610 611
f 609 611 612
f 613 614 615
f 613 615 616
f 617 618 619
f 617 619 620
f 621 622 623
f 621 623 624
f 625 626 627
f 625 627 628
f 629 630 631
f 629 631 632
f 633 634 635
f 633 635 636
f 637 638 639
f 637 639 640
f 641 642 643
f 641 643 644
f 645 646 647
f 645 647 648
