mtllib Materials.mtl
# Ultimate Food Pack - FryingPan
o FryingPan
v 0.000000 0.292263 -0.889602
v 0.000000 0.283456 -0.817443
v 0.480481 0.283456 -0.661325
v 0.522895 0.292263 -0.719703
v 0.000000 0.292264 0.889602
v -0.522895 0.292264 0.719703
v -0.536861 0.225083 0.738925
v 0.000000 0.225083 0.913362
v 0.522895 0.292264 0.719703
v 0.480481 0.283456 0.661325
v 0.000000 0.283456 0.817443
v 0.000000 0.292264 0.889602
v 0.846062 0.292263 0.274902
v 0.777434 0.283456 0.252604
v 0.480481 0.283456 0.661325
v 0.522895 0.292264 0.719703
v 0.846062 0.292263 -0.274902
v 0.777434 0.283456 -0.252604
v 0.777434 0.283456 0.252604
v 0.846062 0.292263 0.274902
v 0.522895 0.292263 -0.719703
v 0.480481 0.283456 -0.661325
v 0.777434 0.283456 -0.252604
v 0.846062 0.292263 -0.274902
v -0.454084 0.225082 -0.624993
v -0.348946 0.142394 -0.480283
v 0.000000 0.142394 -0.593663
v 0.000000 0.225082 -0.772534
v -0.522895 0.292264 0.719703
v -0.480481 0.283456 0.661325
v -0.777434 0.283456 0.252604
v -0.846062 0.292263 0.274902
v -0.846062 0.292263 0.274902
v -0.777434 0.283456 0.252604
v -0.777434 0.283456 -0.252604
v -0.846062 0.292263 -0.274902
v -0.798581 0.121189 0.259475
v -0.868659 0.225083 0.282244
v -0.868659 0.225083 -0.282244
v -0.798581 0.121189 -0.259475
v -0.454084 0.225083 0.624993
v -0.348946 0.142395 0.480283
v -0.564607 0.142394 0.183452
v -0.734723 0.225083 0.238726
v -0.846062 0.292263 -0.274902
v -0.777434 0.283456 -0.252604
v -0.480481 0.283456 -0.661325
v -0.522895 0.292263 -0.719703
v 0.000000 0.121189 -0.839678
v 0.000000 0.225082 -0.913362
v 0.536860 0.225082 -0.738926
v 0.493550 0.121189 -0.679314
v 0.493550 0.121189 -0.679314
v 0.536860 0.225082 -0.738926
v 0.868659 0.225083 -0.282245
v 0.798581 0.121189 -0.259475
v 0.798581 0.121189 -0.259475
v 0.868659 0.225083 -0.282245
v 0.868659 0.225083 0.282244
v 0.798581 0.121189 0.259475
v 0.798581 0.121189 0.259475
v 0.868659 0.225083 0.282244
v 0.536861 0.225083 0.738925
v 0.493550 0.121189 0.679314
v 0.493550 0.121189 0.679314
v 0.536861 0.225083 0.738925
v 0.000000 0.225083 0.913362
v 0.000000 0.121189 0.839678
v 0.000000 0.121189 0.839678
v 0.000000 0.225083 0.913362
v -0.536861 0.225083 0.738925
v -0.493550 0.121189 0.679314
v -0.493550 0.121189 0.679314
v -0.536861 0.225083 0.738925
v -0.868659 0.225083 0.282244
v -0.798581 0.121189 0.259475
v -0.734723 0.225083 0.238726
v -0.564607 0.142394 0.183452
v -0.564607 0.142394 -0.183452
v -0.734723 0.225083 -0.238726
v 0.734723 0.225083 -0.238726
v 0.564607 0.142394 -0.183452
v 0.564607 0.142394 0.183452
v 0.734723 0.225083 0.238726
v 0.000000 0.283456 0.817443
v 0.000000 0.225083 0.772534
v -0.454084 0.225083 0.624993
v -0.480481 0.283456 0.661325
v -0.734723 0.225083 -0.238726
v -0.564607 0.142394 -0.183452
v -0.348946 0.142394 -0.480283
v -0.454084 0.225082 -0.624993
v 0.454084 0.225082 -0.624993
v 0.348946 0.142394 -0.480283
v 0.564607 0.142394 -0.183452
v 0.734723 0.225083 -0.238726
v 0.454084 0.225083 0.624993
v 0.348946 0.142395 0.480283
v 0.000000 0.142395 0.593663
v 0.000000 0.225083 0.772534
v 0.000000 0.225082 -0.772534
v 0.000000 0.142394 -0.593663
v 0.348946 0.142394 -0.480283
v 0.454084 0.225082 -0.624993
v 0.734723 0.225083 0.238726
v 0.564607 0.142394 0.183452
v 0.348946 0.142395 0.480283
v 0.454084 0.225083 0.624993
v -0.798581 0.121189 -0.259475
v -0.868659 0.225083 -0.282244
v -0.536861 0.225082 -0.738926
v -0.493550 0.121189 -0.679313
v 0.000000 0.121189 -0.839678
v 0.000000 0.039239 -0.349679
v -0.205536 0.039239 -0.282896
v -0.493550 0.121189 -0.679313
v -0.493550 0.121189 -0.679313
v -0.205536 0.039239 -0.282896
v -0.332565 0.039239 -0.108057
v -0.798581 0.121189 -0.259475
v -0.798581 0.121189 -0.259475
v -0.332565 0.039239 -0.108057
v -0.332565 0.039239 0.108057
v -0.798581 0.121189 0.259475
v -0.798581 0.121189 0.259475
v -0.332565 0.039239 0.108057
v -0.205536 0.039239 0.282897
v -0.493550 0.121189 0.679314
v 0.000000 0.121189 0.839678
v 0.000000 0.039239 0.349679
v 0.205536 0.039239 0.282897
v 0.493550 0.121189 0.679314
v 0.493550 0.121189 0.679314
v 0.205536 0.039239 0.282897
v 0.332565 0.039239 0.108057
v 0.798581 0.121189 0.259475
v 0.798581 0.121189 0.259475
v 0.332565 0.039239 0.108057
v 0.332565 0.039239 -0.108057
v 0.798581 0.121189 -0.259475
v 0.798581 0.121189 -0.259475
v 0.332565 0.039239 -0.108057
v 0.205536 0.039239 -0.282897
v 0.493550 0.121189 -0.679314
v 0.493550 0.121189 -0.679314
v 0.205536 0.039239 -0.282897
v 0.000000 0.039239 -0.349679
v 0.000000 0.121189 -0.839678
v -0.205536 0.039239 0.282897
v -0.332565 0.039239 0.108057
v -0.332565 0.039239 -0.108057
v -0.205536 0.039239 -0.282896
v 0.000000 0.039239 -0.349679
v 0.000000 0.039239 0.349679
v 0.205536 0.039239 -0.282897
v 0.205536 0.039239 0.282897
v 0.332565 0.039239 -0.108057
v 0.332565 0.039239 0.108057
v -0.536861 0.225082 -0.738926
v -0.522895 0.292263 -0.719703
v 0.000000 0.292263 -0.889602
v 0.000000 0.225082 -0.913362
v -0.868659 0.225083 -0.282244
v -0.846062 0.292263 -0.274902
v -0.522895 0.292263 -0.719703
v -0.536861 0.225082 -0.738926
v -0.868659 0.225083 0.282244
v -0.846062 0.292263 0.274902
v -0.846062 0.292263 -0.274902
v -0.868659 0.225083 -0.282244
v -0.536861 0.225083 0.738925
v -0.522895 0.292264 0.719703
v -0.846062 0.292263 0.274902
v -0.868659 0.225083 0.282244
v 0.536861 0.225083 0.738925
v 0.522895 0.292264 0.719703
v 0.000000 0.292264 0.889602
v 0.000000 0.225083 0.913362
v 0.868659 0.225083 0.282244
v 0.846062 0.292263 0.274902
v 0.522895 0.292264 0.719703
v 0.536861 0.225083 0.738925
v 0.868659 0.225083 -0.282245
v 0.846062 0.292263 -0.274902
v 0.846062 0.292263 0.274902
v 0.868659 0.225083 0.282244
v 0.536860 0.225082 -0.738926
v 0.522895 0.292263 -0.719703
v 0.846062 0.292263 -0.274902
v 0.868659 0.225083 -0.282245
v 0.000000 0.225082 -0.913362
v 0.000000 0.292263 -0.889602
v 0.522895 0.292263 -0.719703
v 0.536860 0.225082 -0.738926
v -0.480481 0.283456 -0.661325
v -0.454084 0.225082 -0.624993
v 0.000000 0.225082 -0.772534
v 0.000000 0.283456 -0.817443
v -0.777434 0.283456 -0.252604
v -0.734723 0.225083 -0.238726
v -0.454084 0.225082 -0.624993
v -0.480481 0.283456 -0.661325
v -0.777434 0.283456 0.252604
v -0.734723 0.225083 0.238726
v -0.734723 0.225083 -0.238726
v -0.777434 0.283456 -0.252604
v -0.480481 0.283456 0.661325
v -0.454084 0.225083 0.624993
v -0.734723 0.225083 0.238726
v -0.777434 0.283456 0.252604
v 0.000000 0.292264 0.889602
v 0.000000 0.283456 0.817443
v -0.480481 0.283456 0.661325
v -0.522895 0.292264 0.719703
v 0.480481 0.283456 0.661325
v 0.454084 0.225083 0.624993
v 0.000000 0.225083 0.772534
v 0.000000 0.283456 0.817443
v 0.777434 0.283456 0.252604
v 0.734723 0.225083 0.238726
v 0.454084 0.225083 0.624993
v 0.480481 0.283456 0.661325
v 0.777434 0.283456 -0.252604
v 0.734723 0.225083 -0.238726
v 0.734723 0.225083 0.238726
v 0.777434 0.283456 0.252604
v 0.480481 0.283456 -0.661325
v 0.454084 0.225082 -0.624993
v 0.734723 0.225083 -0.238726
v 0.777434 0.283456 -0.252604
v 0.000000 0.283456 -0.817443
v 0.000000 0.225082 -0.772534
v 0.454084 0.225082 -0.624993
v 0.480481 0.283456 -0.661325
v -0.522895 0.292263 -0.719703
v -0.480481 0.283456 -0.661325
v 0.000000 0.283456 -0.817443
v 0.000000 0.292263 -0.889602
v -0.493550 0.121189 0.679314
v -0.205536 0.039239 0.282897
v 0.000000 0.039239 0.349679
v 0.000000 0.121189 0.839678
v -0.348946 0.142395 0.480283
v -0.454084 0.225083 0.624993
v 0.000000 0.225083 0.772534
v 0.000000 0.142395 0.593663
v 0.348946 0.142395 0.480283
v 0.196566 0.071296 0.270550
v 0.000000 0.071296 0.334418
v 0.000000 0.142395 0.593663
v 0.348946 0.142394 -0.480283
v 0.196566 0.071296 -0.270550
v 0.318050 0.071296 -0.103341
v 0.564607 0.142394 -0.183452
v -0.348946 0.142394 -0.480283
v -0.196566 0.071296 -0.270550
v 0.000000 0.071296 -0.334418
v 0.000000 0.142394 -0.593663
v -0.348946 0.142395 0.480283
v -0.196566 0.071296 0.270550
v -0.318050 0.071296 0.103341
v -0.564607 0.142394 0.183452
v 0.564607 0.142394 -0.183452
v 0.318050 0.071296 -0.103341
v 0.318050 0.071296 0.103341
v 0.564607 0.142394 0.183452
v 0.000000 0.142395 0.593663
v 0.000000 0.071296 0.334418
v -0.196566 0.071296 0.270550
v -0.348946 0.142395 0.480283
v -0.318050 0.071296 -0.103341
v -0.318050 0.071296 0.103341
v -0.196566 0.071296 0.270550
v -0.060348 0.067653 0.083062
v 0.000000 0.071296 0.334418
v -0.196566 0.071296 -0.270550
v 0.196566 0.071296 0.270550
v 0.060348 0.067653 -0.083062
v 0.000000 0.071296 -0.334418
v 0.318050 0.071296 0.103341
v 0.196566 0.071296 -0.270550
v 0.318050 0.071296 -0.103341
v -0.564607 0.142394 -0.183452
v -0.318050 0.071296 -0.103341
v -0.196566 0.071296 -0.270550
v -0.348946 0.142394 -0.480283
v 0.000000 0.142394 -0.593663
v 0.000000 0.071296 -0.334418
v 0.196566 0.071296 -0.270550
v 0.348946 0.142394 -0.480283
v 0.564607 0.142394 0.183452
v 0.318050 0.071296 0.103341
v 0.196566 0.071296 0.270550
v 0.348946 0.142395 0.480283
v -0.564607 0.142394 0.183452
v -0.318050 0.071296 0.103341
v -0.318050 0.071296 -0.103341
v -0.564607 0.142394 -0.183452
v -0.493550 0.121189 -0.679313
v -0.536861 0.225082 -0.738926
v 0.000000 0.225082 -0.913362
v 0.000000 0.121189 -0.839678
v 0.039101 0.276013 1.661327
v 0.061352 0.211277 0.817781
v 0.026779 0.246367 0.817781
v 0.090963 0.223374 1.661327
v 0.090963 0.223374 1.772484
v 0.039101 0.276013 1.772484
v -0.086681 0.150797 1.661327
v -0.056958 0.212156 0.817781
v -0.057071 0.162895 0.817781
v -0.086513 0.224693 1.661327
v -0.086513 0.224693 1.772484
v -0.086681 0.150797 1.772484
v -0.034818 0.098160 1.661327
v -0.057071 0.162895 0.817781
v -0.022497 0.127805 0.817781
v -0.086681 0.150797 1.661327
v -0.086681 0.150797 1.772484
v -0.034818 0.098160 1.772484
v 0.038695 0.097614 1.661327
v -0.022497 0.127805 0.817781
v 0.026509 0.127441 0.817781
v -0.034818 0.098160 1.661327
v -0.034818 0.098160 1.772484
v 0.038695 0.097614 1.772484
v 0.090797 0.149480 1.661327
v 0.026509 0.127441 0.817781
v 0.061241 0.162016 0.817781
v 0.038695 0.097614 1.661327
v 0.038695 0.097614 1.772484
v 0.090797 0.149480 1.772484
v 0.090963 0.223374 1.661327
v 0.061241 0.162016 0.817781
v 0.061352 0.211277 0.817781
v 0.090797 0.149480 1.661327
v 0.090797 0.149480 1.772484
v 0.090963 0.223374 1.772484
v -0.086513 0.224693 1.661327
v -0.022227 0.246731 0.817781
v -0.056958 0.212156 0.817781
v -0.034413 0.276558 1.661327
v -0.034413 0.276558 1.772484
v -0.086513 0.224693 1.772484
v -0.034413 0.276558 1.661327
v 0.026779 0.246367 0.817781
v -0.022227 0.246731 0.817781
v 0.039101 0.276013 1.661327
v 0.039101 0.276013 1.772484
v -0.034413 0.276558 1.772484
v -0.086513 0.224693 1.772484
v -0.070012 0.217693 1.875016
v -0.027610 0.259905 1.875016
v -0.034413 0.276558 1.772484
v -0.086681 0.150797 1.772484
v -0.070149 0.157552 1.875016
v -0.070012 0.217693 1.875016
v -0.086513 0.224693 1.772484
v -0.034818 0.098160 1.772484
v -0.027939 0.114711 1.875016
v -0.070149 0.157552 1.875016
v -0.086681 0.150797 1.772484
v 0.038695 0.097614 1.772484
v 0.031891 0.114267 1.875016
v -0.027939 0.114711 1.875016
v -0.034818 0.098160 1.772484
v 0.090797 0.149480 1.772484
v 0.074295 0.156479 1.875016
v 0.031891 0.114267 1.875016
v 0.038695 0.097614 1.772484
v 0.090963 0.223374 1.772484
v 0.074432 0.216620 1.875016
v 0.074295 0.156479 1.875016
v 0.090797 0.149480 1.772484
v 0.039101 0.276013 1.772484
v 0.032221 0.259461 1.875016
v 0.074432 0.216620 1.875016
v 0.090963 0.223374 1.772484
v -0.034413 0.276558 1.772484
v -0.027610 0.259905 1.875016
v 0.032221 0.259461 1.875016
v 0.039101 0.276013 1.772484
v -0.027939 0.114711 1.875016
v 0.031891 0.114267 1.875016
v 0.074295 0.156479 1.875016
v -0.070149 0.157552 1.875016
v 0.074432 0.216620 1.875016
v -0.070012 0.217693 1.875016
v 0.032221 0.259461 1.875016
v -0.027610 0.259905 1.875016
vn -0.039335 0.991866 0.121060
vn -0.039335 0.991866 0.121060
vn -0.039335 0.991866 0.121060
vn -0.039335 0.991866 0.121060
vn -0.292892 0.318815 0.901428
vn -0.292892 0.318815 0.901428
vn -0.292892 0.318815 0.901428
vn -0.292892 0.318815 0.901428
vn -0.039335 0.991866 -0.121060
vn -0.039335 0.991866 -0.121060
vn -0.039335 0.991866 -0.121060
vn -0.039335 0.991866 -0.121060
vn -0.102980 0.991866 -0.074819
vn -0.102980 0.991866 -0.074819
vn -0.102980 0.991866 -0.074819
vn -0.102980 0.991866 -0.074819
vn -0.127289 0.991866 0.000000
vn -0.127289 0.991866 0.000000
vn -0.127289 0.991866 0.000000
vn -0.127289 0.991866 0.000000
vn -0.102980 0.991866 0.074819
vn -0.102980 0.991866 0.074819
vn -0.102980 0.991866 0.074819
vn -0.102980 0.991866 0.074819
vn 0.135090 0.899383 0.415765
vn 0.135090 0.899383 0.415765
vn 0.135090 0.899383 0.415765
vn 0.135090 0.899383 0.415765
vn 0.102980 0.991866 -0.074819
vn 0.102980 0.991866 -0.074819
vn 0.102980 0.991866 -0.074819
vn 0.102980 0.991866 -0.074819
vn 0.127291 0.991866 0.000000
vn 0.127291 0.991866 0.000000
vn 0.127291 0.991866 0.000000
vn 0.127291 0.991866 0.000000
vn -0.829035 -0.559197 0.000000
vn -0.829035 -0.559197 0.000000
vn -0.829035 -0.559197 0.000000
vn -0.829035 -0.559197 0.000000
vn 0.353671 0.899383 -0.256957
vn 0.353671 0.899383 -0.256957
vn 0.353671 0.899383 -0.256957
vn 0.353671 0.899383 -0.256957
vn 0.102980 0.991866 0.074819
vn 0.102980 0.991866 0.074819
vn 0.102980 0.991866 0.074819
vn 0.102980 0.991866 0.074819
vn 0.256186 -0.559197 -0.788459
vn 0.256186 -0.559197 -0.788459
vn 0.256186 -0.559197 -0.788459
vn 0.256186 -0.559197 -0.788459
vn 0.670703 -0.559197 -0.487295
vn 0.670703 -0.559197 -0.487295
vn 0.670703 -0.559197 -0.487295
vn 0.670703 -0.559197 -0.487295
vn 0.829035 -0.559197 0.000000
vn 0.829035 -0.559197 0.000000
vn 0.829035 -0.559197 0.000000
vn 0.829035 -0.559197 0.000000
vn 0.670704 -0.559197 0.487295
vn 0.670704 -0.559197 0.487295
vn 0.670704 -0.559197 0.487295
vn 0.670704 -0.559197 0.487295
vn 0.256186 -0.559196 0.788460
vn 0.256186 -0.559196 0.788460
vn 0.256186 -0.559196 0.788460
vn 0.256186 -0.559196 0.788460
vn -0.256186 -0.559197 0.788459
vn -0.256186 -0.559197 0.788459
vn -0.256186 -0.559197 0.788459
vn -0.256186 -0.559197 0.788459
vn -0.670703 -0.559197 0.487295
vn -0.670703 -0.559197 0.487295
vn -0.670703 -0.559197 0.487295
vn -0.670703 -0.559197 0.487295
vn 0.437162 0.899383 0.000000
vn 0.437162 0.899383 0.000000
vn 0.437162 0.899383 0.000000
vn 0.437162 0.899383 0.000000
vn -0.437161 0.899383 0.000000
vn -0.437161 0.899383 0.000000
vn -0.437161 0.899383 0.000000
vn -0.437161 0.899383 0.000000
vn 0.249389 0.590498 -0.767540
vn 0.249389 0.590498 -0.767540
vn 0.249389 0.590498 -0.767540
vn 0.249389 0.590498 -0.767540
vn 0.353671 0.899383 0.256957
vn 0.353671 0.899383 0.256957
vn 0.353671 0.899383 0.256957
vn 0.353671 0.899383 0.256957
vn -0.353671 0.899383 0.256957
vn -0.353671 0.899383 0.256957
vn -0.353671 0.899383 0.256957
vn -0.353671 0.899383 0.256957
vn -0.135090 0.899383 -0.415765
vn -0.135090 0.899383 -0.415765
vn -0.135090 0.899383 -0.415765
vn -0.135090 0.899383 -0.415765
vn -0.135090 0.899383 0.415765
vn -0.135090 0.899383 0.415765
vn -0.135090 0.899383 0.415765
vn -0.135090 0.899383 0.415765
vn -0.353671 0.899383 -0.256957
vn -0.353671 0.899383 -0.256957
vn -0.353671 0.899383 -0.256957
vn -0.353671 0.899383 -0.256957
vn -0.670703 -0.559197 -0.487295
vn -0.670703 -0.559197 -0.487295
vn -0.670703 -0.559197 -0.487295
vn -0.670703 -0.559197 -0.487295
vn -0.053520 -0.984888 -0.164717
vn -0.053520 -0.984888 -0.164717
vn -0.053520 -0.984888 -0.164717
vn -0.053520 -0.984888 -0.164717
vn -0.140117 -0.984888 -0.101801
vn -0.140117 -0.984888 -0.101801
vn -0.140117 -0.984888 -0.101801
vn -0.140117 -0.984888 -0.101801
vn -0.173194 -0.984888 0.000000
vn -0.173194 -0.984888 0.000000
vn -0.173194 -0.984888 0.000000
vn -0.173194 -0.984888 0.000000
vn -0.140117 -0.984888 0.101801
vn -0.140117 -0.984888 0.101801
vn -0.140117 -0.984888 0.101801
vn -0.140117 -0.984888 0.101801
vn 0.053520 -0.984888 0.164717
vn 0.053520 -0.984888 0.164717
vn 0.053520 -0.984888 0.164717
vn 0.053520 -0.984888 0.164717
vn 0.140117 -0.984888 0.101801
vn 0.140117 -0.984888 0.101801
vn 0.140117 -0.984888 0.101801
vn 0.140117 -0.984888 0.101801
vn 0.173194 -0.984888 0.000000
vn 0.173194 -0.984888 0.000000
vn 0.173194 -0.984888 0.000000
vn 0.173194 -0.984888 0.000000
vn 0.140116 -0.984888 -0.101801
vn 0.140116 -0.984888 -0.101801
vn 0.140116 -0.984888 -0.101801
vn 0.140116 -0.984888 -0.101801
vn 0.053520 -0.984888 -0.164717
vn 0.053520 -0.984888 -0.164717
vn 0.053520 -0.984888 -0.164717
vn 0.053520 -0.984888 -0.164717
vn 0.000000 -1.000000 0.000000
vn 0.000000 -1.000000 0.000000
vn 0.000000 -1.000000 0.000000
vn 0.000000 -1.000000 0.000000
vn 0.000000 -1.000000 0.000000
vn 0.000000 -1.000000 0.000000
vn 0.000000 -1.000000 0.000000
vn 0.000000 -1.000000 0.000000
vn 0.000000 -1.000000 0.000000
vn 0.000000 -1.000000 0.000000
vn -0.292892 0.318814 -0.901428
vn -0.292892 0.318814 -0.901428
vn -0.292892 0.318814 -0.901428
vn -0.292892 0.318814 -0.901428
vn -0.766800 0.318815 -0.557113
vn -0.766800 0.318815 -0.557113
vn -0.766800 0.318815 -0.557113
vn -0.766800 0.318815 -0.557113
vn -0.947817 0.318814 0.000000
vn -0.947817 0.318814 0.000000
vn -0.947817 0.318814 0.000000
vn -0.947817 0.318814 0.000000
vn -0.766800 0.318814 0.557113
vn -0.766800 0.318814 0.557113
vn -0.766800 0.318814 0.557113
vn -0.766800 0.318814 0.557113
vn 0.292892 0.318814 0.901428
vn 0.292892 0.318814 0.901428
vn 0.292892 0.318814 0.901428
vn 0.292892 0.318814 0.901428
vn 0.766800 0.318814 0.557113
vn 0.766800 0.318814 0.557113
vn 0.766800 0.318814 0.557113
vn 0.766800 0.318814 0.557113
vn 0.947817 0.318814 0.000000
vn 0.947817 0.318814 0.000000
vn 0.947817 0.318814 0.000000
vn 0.947817 0.318814 0.000000
vn 0.766800 0.318814 -0.557113
vn 0.766800 0.318814 -0.557113
vn 0.766800 0.318814 -0.557113
vn 0.766800 0.318814 -0.557113
vn 0.292891 0.318814 -0.901428
vn 0.292891 0.318814 -0.901428
vn 0.292891 0.318814 -0.901428
vn 0.292891 0.318814 -0.901428
vn 0.249389 0.590499 0.767539
vn 0.249389 0.590499 0.767539
vn 0.249389 0.590499 0.767539
vn 0.249389 0.590499 0.767539
vn 0.652908 0.590499 0.474365
vn 0.652908 0.590499 0.474365
vn 0.652908 0.590499 0.474365
vn 0.652908 0.590499 0.474365
vn 0.807039 0.590498 0.000000
vn 0.807039 0.590498 0.000000
vn 0.807039 0.590498 0.000000
vn 0.807039 0.590498 0.000000
vn 0.652908 0.590498 -0.474366
vn 0.652908 0.590498 -0.474366
vn 0.652908 0.590498 -0.474366
vn 0.652908 0.590498 -0.474366
vn 0.039335 0.991866 -0.121060
vn 0.039335 0.991866 -0.121060
vn 0.039335 0.991866 -0.121060
vn 0.039335 0.991866 -0.121060
vn -0.249389 0.590498 -0.767540
vn -0.249389 0.590498 -0.767540
vn -0.249389 0.590498 -0.767540
vn -0.249389 0.590498 -0.767540
vn -0.652909 0.590498 -0.474366
vn -0.652909 0.590498 -0.474366
vn -0.652909 0.590498 -0.474366
vn -0.652909 0.590498 -0.474366
vn -0.807040 0.590497 0.000000
vn -0.807040 0.590497 0.000000
vn -0.807040 0.590497 0.000000
vn -0.807040 0.590497 0.000000
vn -0.652908 0.590498 0.474366
vn -0.652908 0.590498 0.474366
vn -0.652908 0.590498 0.474366
vn -0.652908 0.590498 0.474366
vn -0.249389 0.590499 0.767539
vn -0.249389 0.590499 0.767539
vn -0.249389 0.590499 0.767539
vn -0.249389 0.590499 0.767539
vn 0.039335 0.991866 0.121060
vn 0.039335 0.991866 0.121060
vn 0.039335 0.991866 0.121060
vn 0.039335 0.991866 0.121060
vn -0.053520 -0.984888 0.164717
vn -0.053520 -0.984888 0.164717
vn -0.053520 -0.984888 0.164717
vn -0.053520 -0.984888 0.164717
vn 0.135090 0.899383 -0.415765
vn 0.135090 0.899383 -0.415765
vn 0.135090 0.899383 -0.415765
vn 0.135090 0.899383 -0.415765
vn -0.085621 0.960849 -0.263513
vn -0.085621 0.960849 -0.263513
vn -0.085621 0.960849 -0.263513
vn -0.085621 0.960849 -0.263513
vn -0.224158 0.960849 0.162860
vn -0.224158 0.960849 0.162860
vn -0.224158 0.960849 0.162860
vn -0.224158 0.960849 0.162860
vn 0.085621 0.960849 0.263513
vn 0.085621 0.960849 0.263513
vn 0.085621 0.960849 0.263513
vn 0.085621 0.960849 0.263513
vn 0.224158 0.960849 -0.162860
vn 0.224158 0.960849 -0.162860
vn 0.224158 0.960849 -0.162860
vn 0.224158 0.960849 -0.162860
vn -0.277074 0.960849 0.000000
vn -0.277074 0.960849 0.000000
vn -0.277074 0.960849 0.000000
vn -0.277074 0.960849 0.000000
vn 0.085621 0.960849 -0.263513
vn 0.085621 0.960849 -0.263513
vn 0.085621 0.960849 -0.263513
vn 0.085621 0.960849 -0.263513
vn 0.013785 0.999895 -0.004479
vn 0.013785 0.999895 -0.004479
vn 0.000000 0.999895 -0.014495
vn 0.000000 0.999895 -0.014495
vn 0.000000 0.999895 -0.014495
vn 0.009268 0.999934 0.006733
vn 0.000000 0.999895 -0.014495
vn -0.009268 0.999934 -0.006734
vn 0.000000 0.999895 0.014495
vn -0.009268 0.999934 -0.006734
vn -0.013785 0.999895 0.004479
vn -0.013785 0.999895 0.004479
vn 0.224158 0.960849 0.162860
vn 0.224158 0.960849 0.162860
vn 0.224158 0.960849 0.162860
vn 0.224158 0.960849 0.162860
vn -0.085621 0.960849 0.263513
vn -0.085621 0.960849 0.263513
vn -0.085621 0.960849 0.263513
vn -0.085621 0.960849 0.263513
vn -0.224158 0.960849 -0.162860
vn -0.224158 0.960849 -0.162860
vn -0.224158 0.960849 -0.162860
vn -0.224158 0.960849 -0.162860
vn 0.277074 0.960849 0.000000
vn 0.277074 0.960849 0.000000
vn 0.277074 0.960849 0.000000
vn 0.277074 0.960849 0.000000
vn -0.256186 -0.559197 -0.788459
vn -0.256186 -0.559197 -0.788459
vn -0.256186 -0.559197 -0.788459
vn -0.256186 -0.559197 -0.788459
vn 0.711903 0.701402 -0.035049
vn 0.711903 0.701402 -0.035049
vn 0.711903 0.701402 -0.035049
vn 0.711903 0.701402 -0.035049
vn 0.712344 0.701831 0.000000
vn 0.712344 0.701831 0.000000
vn -0.999383 0.002280 -0.035048
vn -0.999383 0.002280 -0.035048
vn -0.999383 0.002280 -0.035048
vn -0.999383 0.002280 -0.035048
vn -0.999997 0.002280 0.000000
vn -0.999997 0.002280 0.000000
vn -0.711883 -0.701424 -0.035048
vn -0.711883 -0.701424 -0.035048
vn -0.711883 -0.701424 -0.035048
vn -0.711883 -0.701424 -0.035048
vn -0.712321 -0.701854 0.000000
vn -0.712321 -0.701854 0.000000
vn -0.007424 -0.999352 -0.035229
vn -0.007424 -0.999352 -0.035229
vn -0.007424 -0.999352 -0.035229
vn -0.007424 -0.999352 -0.035229
vn -0.007430 -0.999972 0.000000
vn -0.007430 -0.999972 0.000000
vn 0.705065 -0.708268 -0.035229
vn 0.705065 -0.708268 -0.035229
vn 0.705065 -0.708268 -0.035229
vn 0.705065 -0.708268 -0.035229
vn 0.705502 -0.708708 0.000000
vn 0.705502 -0.708708 0.000000
vn 0.999383 -0.002254 -0.035049
vn 0.999383 -0.002254 -0.035049
vn 0.999383 -0.002254 -0.035049
vn 0.999383 -0.002254 -0.035049
vn 0.999998 -0.002251 0.000000
vn 0.999998 -0.002251 0.000000
vn -0.705073 0.708259 -0.035229
vn -0.705073 0.708259 -0.035229
vn -0.705073 0.708259 -0.035229
vn -0.705073 0.708259 -0.035229
vn -0.705512 0.708698 0.000000
vn -0.705512 0.708698 0.000000
vn 0.007413 0.999352 -0.035230
vn 0.007413 0.999352 -0.035230
vn 0.007413 0.999352 -0.035230
vn 0.007413 0.999352 -0.035230
vn 0.007417 0.999973 0.000000
vn 0.007417 0.999973 0.000000
vn -0.696441 0.699588 0.159836
vn -0.696441 0.699588 0.159836
vn -0.696441 0.699588 0.159836
vn -0.696441 0.699588 0.159836
vn -0.987270 0.002248 0.159037
vn -0.987270 0.002248 0.159037
vn -0.987270 0.002248 0.159037
vn -0.987270 0.002248 0.159037
vn -0.703257 -0.692919 0.159037
vn -0.703257 -0.692919 0.159037
vn -0.703257 -0.692919 0.159037
vn -0.703257 -0.692919 0.159037
vn -0.007335 -0.987116 0.159836
vn -0.007335 -0.987116 0.159836
vn -0.007335 -0.987116 0.159836
vn -0.007335 -0.987116 0.159836
vn 0.696434 -0.699594 0.159838
vn 0.696434 -0.699594 0.159838
vn 0.696434 -0.699594 0.159838
vn 0.696434 -0.699594 0.159838
vn 0.987270 -0.002232 0.159038
vn 0.987270 -0.002232 0.159038
vn 0.987270 -0.002232 0.159038
vn 0.987270 -0.002232 0.159038
vn 0.703271 0.692905 0.159037
vn 0.703271 0.692905 0.159037
vn 0.703271 0.692905 0.159037
vn 0.703271 0.692905 0.159037
vn 0.007325 0.987116 0.159838
vn 0.007325 0.987116 0.159838
vn 0.007325 0.987116 0.159838
vn 0.007325 0.987116 0.159838
vn 0.000000 0.000000 1.000000
vn 0.000000 0.000000 1.000000
vn 0.000000 0.000000 1.000000
vn 0.000000 0.000000 1.000000
vn 0.000000 0.000000 1.000000
vn 0.000000 0.000000 1.000000
vn 0.000000 0.000000 1.000000
vn 0.000000 0.000000 1.000000
g FryingPan_Grey
usemtl Grey
f 1 2 3
f 1 3 4
f 5 6 7
f 5 7 8
f 9 10 11
f 9 11 12
f 13 14 15
f 13 15 16
f 17 18 19
f 17 19 20
f 21 22 23
f 21 23 24
f 25 26 27
f 25 27 28
f 29 30 31
f 29 31 32
f 33 34 35
f 33 35 36
f 37 38 39
f 37 39 40
f 41 42 43
f 41 43 44
f 45 46 47
f 45 47 48
f 49 50 51
f 49 51 52
f 53 54 55
f 53 55 56
f 57 58 59
f 57 59 60
f 61 62 63
f 61 63 64
f 65 66 67
f 65 67 68
f 69 70 71
f 69 71 72
f 73 74 75
f 73 75 76
f 77 78 79
f 77 79 80
f 81 82 83
f 81 83 84
f 85 86 87
f 85 87 88
f 89 90 91
f 89 91 92
f 93 94 95
f 93 95 96
f 97 98 99
f 97 99 100
f 101 102 103
f 101 103 104
f 105 106 107
f 105 107 108
f 109 110 111
f 109 111 112
f 113 114 115
f 113 115 116
f 117 118 119
f 117 119 120
f 121 122 123
f 121 123 124
f 125 126 127
f 125 127 128
f 129 130 131
f 129 131 132
f 133 134 135
f 133 135 136
f 137 138 139
f 137 139 140
f 141 142 143
f 141 143 144
f 145 146 147
f 145 147 148
f 149 150 151
f 151 152 149
f 152 153 149
f 153 154 149
f 153 155 154
f 155 156 154
f 155 157 156
f 157 158 156
f 159 160 161
f 159 161 162
f 163 164 165
f 163 165 166
f 167 168 169
f 167 169 170
f 171 172 173
f 171 173 174
f 175 176 177
f 175 177 178
f 179 180 181
f 179 181 182
f 183 184 185
f 183 185 186
f 187 188 189
f 187 189 190
f 191 192 193
f 191 193 194
f 195 196 197
f 195 197 198
f 199 200 201
f 199 201 202
f 203 204 205
f 203 205 206
f 207 208 209
f 207 209 210
f 211 212 213
f 211 213 214
f 215 216 217
f 215 217 218
f 219 220 221
f 219 221 222
f 223 224 225
f 223 225 226
f 227 228 229
f 227 229 230
f 231 232 233
f 231 233 234
f 235 236 237
f 235 237 238
f 239 240 241
f 239 241 242
f 243 244 245
f 243 245 246
f 247 248 249
f 247 249 250
f 251 252 253
f 251 253 254
f 255 256 257
f 255 257 258
f 259 260 261
f 259 261 262
f 263 264 265
f 263 265 266
f 267 268 269
f 267 269 270
f 271 272 273
f 271 273 274
f 274 273 275
f 276 271 274
f 274 275 277
f 276 274 278
f 278 274 277
f 279 276 278
f 278 277 280
f 279 278 281
f 281 278 280
f 281 280 282
f 283 284 285
f 283 285 286
f 287 288 289
f 287 289 290
f 291 292 293
f 291 293 294
f 295 296 297
f 295 297 298
f 299 300 301
f 299 301 302
g FryingPan_DarkBrown
usemtl DarkBrown
f 303 304 305
f 303 306 304
f 303 307 306
f 303 308 307
f 309 310 311
f 309 312 310
f 309 313 312
f 309 314 313
f 315 316 317
f 315 318 316
f 315 319 318
f 315 320 319
f 321 322 323
f 321 324 322
f 321 325 324
f 321 326 325
f 327 328 329
f 327 330 328
f 327 331 330
f 327 332 331
f 333 334 335
f 333 336 334
f 333 337 336
f 333 338 337
f 339 340 341
f 339 342 340
f 339 343 342
f 339 344 343
f 345 346 347
f 345 348 346
f 345 349 348
f 345 350 349
f 351 352 353
f 351 353 354
f 355 356 357
f 355 357 358
f 359 360 361
f 359 361 362
f 363 364 365
f 363 365 366
f 367 368 369
f 367 369 370
f 371 372 373
f 371 373 374
f 375 376 377
f 375 377 378
f 379 380 381
f 379 381 382
f 383 384 385
f 385 386 383
f 385 387 386
f 387 388 386
f 387 389 388
f 389 390 388
