mtllib Materials.mtl
# Ultimate Food Pack - Hotdog_Bun
o Hotdog_Bun
v 0.283732 -0.061437 -0.755334
v 0.345720 -0.048980 -0.628978
v 0.353710 -0.125159 -0.629805
v 0.289888 -0.121027 -0.756071
v 0.283732 -0.061437 -0.755334
v 0.238432 -0.006855 -0.749910
v 0.286919 0.020704 -0.622890
v 0.345720 -0.048980 -0.628978
v 0.283732 -0.061437 -0.755334
v 0.213206 -0.068274 -0.799593
v 0.200221 -0.030464 -0.784374
v 0.238432 -0.006855 -0.749910
v 0.283732 -0.061437 -0.755334
v 0.289888 -0.121027 -0.756071
v 0.216795 -0.111065 -0.800022
v 0.213206 -0.068274 -0.799593
v 0.149396 -0.055568 -0.809520
v 0.213206 -0.068274 -0.799593
v 0.216795 -0.111065 -0.800022
v 0.150156 -0.092197 -0.809611
v 0.149396 -0.055568 -0.809520
v 0.149008 -0.013803 -0.791905
v 0.200221 -0.030464 -0.784374
v 0.213206 -0.068274 -0.799593
v 0.149396 -0.055568 -0.809520
v 0.102737 -0.027855 -0.786365
v 0.113879 0.003575 -0.774035
v 0.149008 -0.013803 -0.791905
v 0.149396 -0.055568 -0.809520
v 0.150156 -0.092197 -0.809611
v 0.100917 -0.069435 -0.786147
v 0.102737 -0.027855 -0.786365
v 0.070034 0.010328 0.698641
v 0.081443 -0.031973 0.528089
v 0.066462 -0.047789 0.697819
v 0.086093 0.042890 0.529012
v 0.106459 0.053744 0.262838
v 0.101408 -0.026701 0.262264
v 0.070034 0.010328 0.698641
v 0.090597 0.047254 0.703374
v 0.112851 0.090573 0.534324
v 0.086093 0.042890 0.529012
v 0.070034 0.010328 0.698641
v 0.074440 -0.027855 0.793073
v 0.089087 0.003575 0.772225
v 0.090597 0.047254 0.703374
v 0.070034 0.010328 0.698641
v 0.066462 -0.047789 0.697819
v 0.072654 -0.069435 0.792662
v 0.074440 -0.027855 0.793073
v 0.115463 -0.055568 0.833655
v 0.074440 -0.027855 0.793073
v 0.072654 -0.069435 0.792662
v 0.116209 -0.092197 0.833827
v 0.115463 -0.055568 0.833655
v 0.119854 -0.013803 0.803527
v 0.089087 0.003575 0.772225
v 0.074440 -0.027855 0.793073
v 0.115463 -0.055568 0.833655
v 0.182862 -0.068274 0.818030
v 0.173829 -0.030464 0.791732
v 0.119854 -0.013803 0.803527
v 0.115463 -0.055568 0.833655
v 0.116209 -0.092197 0.833827
v 0.186385 -0.111065 0.818841
v 0.182862 -0.068274 0.818030
v -0.384104 -0.044828 0.294380
v -0.321239 0.029890 0.287238
v -0.320462 0.029890 -0.368974
v -0.383913 -0.044828 -0.372759
v 0.327450 -0.206064 -0.369391
v 0.392535 -0.126536 -0.373274
v 0.392646 -0.126536 0.295351
v 0.328162 -0.206064 0.288025
v 0.328162 -0.206064 0.288025
v 0.290139 -0.199137 0.569519
v 0.195775 -0.256871 0.550143
v 0.224019 -0.268202 0.276148
v 0.328162 -0.206064 0.288025
v 0.392646 -0.126536 0.295351
v 0.349487 -0.125159 0.581301
v 0.290139 -0.199137 0.569519
v 0.152283 0.035451 0.717574
v 0.193125 0.075200 0.550260
v 0.112851 0.090573 0.534324
v 0.090597 0.047254 0.703374
v 0.152283 0.035451 0.717574
v 0.221936 -0.006855 0.733607
v 0.283766 0.020704 0.568254
v 0.193125 0.075200 0.550260
v 0.152283 0.035451 0.717574
v 0.119854 -0.013803 0.803527
v 0.173829 -0.030464 0.791732
v 0.221936 -0.006855 0.733607
v 0.152283 0.035451 0.717574
v 0.090597 0.047254 0.703374
v 0.089087 0.003575 0.772225
v 0.119854 -0.013803 0.803527
v 0.069104 -0.099556 -0.729633
v 0.067129 -0.098141 -0.600134
v 0.081303 -0.031974 -0.601602
v 0.080024 -0.047789 -0.730941
v 0.069104 -0.099556 -0.729633
v 0.051366 -0.138633 -0.726641
v 0.046926 -0.145664 -0.597428
v 0.067129 -0.098141 -0.600134
v 0.069104 -0.099556 -0.729633
v 0.090553 -0.107121 -0.784906
v 0.070086 -0.137639 -0.781494
v 0.051366 -0.138633 -0.726641
v 0.069104 -0.099556 -0.729633
v 0.080024 -0.047789 -0.730941
v 0.100917 -0.069435 -0.786147
v 0.090553 -0.107121 -0.784906
v 0.083288 -0.097670 -0.354824
v 0.060131 -0.148008 -0.353257
v 0.062843 -0.148008 0.257837
v 0.086253 -0.097670 0.260543
v 0.086253 -0.097670 0.260543
v 0.081443 -0.031973 0.528089
v 0.101408 -0.026701 0.262264
v 0.067496 -0.098141 0.525321
v 0.055744 -0.099555 0.695352
v 0.066462 -0.047789 0.697819
v 0.086253 -0.097670 0.260543
v 0.062843 -0.148008 0.257837
v 0.047436 -0.145664 0.520695
v 0.067496 -0.098141 0.525321
v 0.055744 -0.099555 0.695352
v 0.039844 -0.138633 0.690377
v 0.327450 -0.206064 -0.369391
v 0.328162 -0.206064 0.288025
v 0.224019 -0.268202 0.276148
v 0.222807 -0.268202 -0.362963
v 0.036645 -0.170575 0.807790
v 0.070603 -0.153407 0.821399
v 0.045692 -0.137639 0.784679
v 0.024058 -0.157718 0.774369
v 0.036645 -0.170575 0.807790
v 0.055517 -0.198826 0.781610
v 0.108633 -0.182849 0.799167
v 0.070603 -0.153407 0.821399
v 0.036645 -0.170575 0.807790
v 0.000000 -0.176611 0.799712
v 0.000000 -0.202953 0.771667
v 0.055517 -0.198826 0.781610
v 0.036645 -0.170575 0.807790
v 0.024058 -0.157718 0.774369
v 0.000000 -0.165147 0.768047
v 0.000000 -0.176611 0.799712
v 0.053213 -0.170575 -0.794035
v 0.099721 -0.153407 -0.802579
v 0.134214 -0.182849 -0.789173
v 0.070010 -0.198826 -0.778602
v 0.053213 -0.170575 -0.794035
v 0.037958 -0.157718 -0.774764
v 0.070086 -0.137639 -0.781494
v 0.099721 -0.153407 -0.802579
v 0.053213 -0.170575 -0.794035
v 0.000000 -0.176612 -0.788864
v 0.000000 -0.165148 -0.770569
v 0.037958 -0.157718 -0.774764
v 0.053213 -0.170575 -0.794035
v 0.070010 -0.198826 -0.778602
v 0.000000 -0.202954 -0.772489
v 0.000000 -0.176612 -0.788864
v 0.020727 -0.158683 0.682031
v 0.039844 -0.138633 0.690377
v 0.047436 -0.145664 0.520695
v 0.024450 -0.164591 0.514203
v 0.020727 -0.158683 0.682031
v 0.024058 -0.157718 0.774369
v 0.045692 -0.137639 0.784679
v 0.039844 -0.138633 0.690377
v 0.020727 -0.158683 0.682031
v 0.000000 -0.163952 0.677015
v 0.000000 -0.165147 0.768047
v 0.024058 -0.157718 0.774369
v 0.020727 -0.158683 0.682031
v 0.024450 -0.164591 0.514203
v 0.000000 -0.166905 0.510490
v 0.000000 -0.163952 0.677015
v 0.085322 -0.244042 -0.728104
v 0.167507 -0.222879 -0.740549
v 0.197679 -0.256871 -0.613036
v 0.099464 -0.284315 -0.601023
v 0.085322 -0.244042 -0.728104
v 0.070010 -0.198826 -0.778602
v 0.134214 -0.182849 -0.789173
v 0.167507 -0.222879 -0.740549
v 0.085322 -0.244042 -0.728104
v 0.000000 -0.202954 -0.772489
v 0.070010 -0.198826 -0.778602
v 0.000000 -0.248784 -0.721260
v -0.085322 -0.244042 -0.728104
v -0.070010 -0.198826 -0.778602
v 0.085322 -0.244042 -0.728104
v 0.099464 -0.284315 -0.601023
v 0.000000 -0.290464 -0.594645
v 0.000000 -0.248784 -0.721260
v 0.077701 -0.244042 0.695145
v 0.153835 -0.222879 0.716616
v 0.108633 -0.182849 0.799167
v 0.055517 -0.198826 0.781610
v 0.077701 -0.244042 0.695145
v 0.098592 -0.284315 0.528921
v 0.195775 -0.256871 0.550143
v 0.153835 -0.222879 0.716616
v 0.077701 -0.244042 0.695145
v 0.000000 -0.248784 0.683572
v 0.000000 -0.290464 0.517849
v 0.098592 -0.284315 0.528921
v 0.077701 -0.244042 0.695145
v 0.055517 -0.198826 0.781610
v 0.000000 -0.202953 0.771667
v 0.000000 -0.248784 0.683572
v -0.077701 -0.244042 0.695145
v -0.055517 -0.198826 0.781610
v 0.033024 -0.166560 0.254312
v 0.024450 -0.164591 0.514203
v 0.047436 -0.145664 0.520695
v 0.062843 -0.148008 0.257837
v 0.033024 -0.166560 0.254312
v 0.000000 -0.166905 0.510490
v 0.024450 -0.164591 0.514203
v 0.000000 -0.167890 0.252345
v 0.031447 -0.166560 -0.350990
v 0.000000 -0.167890 -0.349682
v 0.000000 -0.166906 -0.590744
v 0.024115 -0.164591 -0.593222
v 0.083288 -0.097670 -0.354824
v 0.086253 -0.097670 0.260543
v 0.101408 -0.026701 0.262264
v 0.098583 -0.026702 -0.355737
v 0.243421 -0.178357 -0.750507
v 0.289888 -0.121027 -0.756071
v 0.353710 -0.125159 -0.629805
v 0.293395 -0.199138 -0.623561
v 0.243421 -0.178357 -0.750507
v 0.186803 -0.151426 -0.796431
v 0.216795 -0.111065 -0.800022
v 0.289888 -0.121027 -0.756071
v 0.243421 -0.178357 -0.750507
v 0.167507 -0.222879 -0.740549
v 0.134214 -0.182849 -0.789173
v 0.186803 -0.151426 -0.796431
v 0.243421 -0.178357 -0.750507
v 0.293395 -0.199138 -0.623561
v 0.197679 -0.256871 -0.613036
v 0.167507 -0.222879 -0.740549
v 0.132816 -0.126046 -0.807535
v 0.090553 -0.107121 -0.784906
v 0.100917 -0.069435 -0.786147
v 0.150156 -0.092197 -0.809611
v 0.132816 -0.126046 -0.807535
v 0.099721 -0.153407 -0.802579
v 0.070086 -0.137639 -0.781494
v 0.090553 -0.107121 -0.784906
v 0.132816 -0.126046 -0.807535
v 0.186803 -0.151426 -0.796431
v 0.134214 -0.182849 -0.789173
v 0.099721 -0.153407 -0.802579
v 0.132816 -0.126046 -0.807535
v 0.150156 -0.092197 -0.809611
v 0.216795 -0.111065 -0.800022
v 0.186803 -0.151426 -0.796431
v 0.031447 -0.166560 -0.350990
v 0.033024 -0.166560 0.254312
v 0.062843 -0.148008 0.257837
v 0.060131 -0.148008 -0.353257
v 0.221060 0.088449 -0.363044
v 0.133026 0.105013 -0.357792
v 0.135533 0.105013 0.266141
v 0.222754 0.088449 0.276050
v 0.222754 0.088449 0.276050
v 0.193125 0.075200 0.550260
v 0.283766 0.020704 0.568254
v 0.321239 0.029890 0.287238
v 0.222754 0.088449 0.276050
v 0.135533 0.105013 0.266141
v 0.112851 0.090573 0.534324
v 0.193125 0.075200 0.550260
v 0.221060 0.088449 -0.363044
v 0.222754 0.088449 0.276050
v 0.321239 0.029890 0.287238
v 0.320462 0.029890 -0.368974
v 0.103682 0.053744 -0.356041
v 0.098583 -0.026702 -0.355737
v 0.101408 -0.026701 0.262264
v 0.106459 0.053744 0.262838
v 0.106459 0.053744 0.262838
v 0.086093 0.042890 0.529012
v 0.112851 0.090573 0.534324
v 0.135533 0.105013 0.266141
v 0.266397 -0.061437 0.743841
v 0.182862 -0.068274 0.818030
v 0.186385 -0.111065 0.818841
v 0.272439 -0.121027 0.745232
v 0.266397 -0.061437 0.743841
v 0.221936 -0.006855 0.733607
v 0.173829 -0.030464 0.791732
v 0.182862 -0.068274 0.818030
v 0.266397 -0.061437 0.743841
v 0.341625 -0.048980 0.579740
v 0.283766 0.020704 0.568254
v 0.221936 -0.006855 0.733607
v 0.266397 -0.061437 0.743841
v 0.272439 -0.121027 0.745232
v 0.349487 -0.125159 0.581301
v 0.341625 -0.048980 0.579740
v 0.083664 0.010327 -0.731377
v 0.102737 -0.027855 -0.786365
v 0.100917 -0.069435 -0.786147
v 0.080024 -0.047789 -0.730941
v 0.083664 0.010327 -0.731377
v 0.104614 0.047254 -0.733886
v 0.113879 0.003575 -0.774035
v 0.102737 -0.027855 -0.786365
v 0.083664 0.010327 -0.731377
v 0.086028 0.042890 -0.602091
v 0.113222 0.090573 -0.604906
v 0.104614 0.047254 -0.733886
v 0.083664 0.010327 -0.731377
v 0.080024 -0.047789 -0.730941
v 0.081303 -0.031974 -0.601602
v 0.086028 0.042890 -0.602091
v 0.167465 0.035451 -0.741412
v 0.149008 -0.013803 -0.791905
v 0.113879 0.003575 -0.774035
v 0.104614 0.047254 -0.733886
v 0.167465 0.035451 -0.741412
v 0.238432 -0.006855 -0.749910
v 0.200221 -0.030464 -0.784374
v 0.149008 -0.013803 -0.791905
v 0.167465 0.035451 -0.741412
v 0.194803 0.075200 -0.613353
v 0.286919 0.020704 -0.622890
v 0.238432 -0.006855 -0.749910
v 0.167465 0.035451 -0.741412
v 0.104614 0.047254 -0.733886
v 0.113222 0.090573 -0.604906
v 0.194803 0.075200 -0.613353
v 0.099190 -0.126045 0.829909
v 0.156949 -0.151426 0.812065
v 0.186385 -0.111065 0.818841
v 0.116209 -0.092197 0.833827
v 0.099190 -0.126045 0.829909
v 0.070603 -0.153407 0.821399
v 0.108633 -0.182849 0.799167
v 0.156949 -0.151426 0.812065
v 0.099190 -0.126045 0.829909
v 0.062481 -0.107121 0.790320
v 0.045692 -0.137639 0.784679
v 0.070603 -0.153407 0.821399
v 0.099190 -0.126045 0.829909
v 0.116209 -0.092197 0.833827
v 0.072654 -0.069435 0.792662
v 0.062481 -0.107121 0.790320
v 0.027272 -0.158684 -0.721153
v 0.051366 -0.138633 -0.726641
v 0.070086 -0.137639 -0.781494
v 0.037958 -0.157718 -0.774764
v 0.027272 -0.158684 -0.721153
v 0.024115 -0.164591 -0.593222
v 0.046926 -0.145664 -0.597428
v 0.051366 -0.138633 -0.726641
v 0.027272 -0.158684 -0.721153
v 0.000000 -0.163952 -0.717784
v 0.000000 -0.166906 -0.590744
v 0.024115 -0.164591 -0.593222
v 0.027272 -0.158684 -0.721153
v 0.037958 -0.157718 -0.774764
v 0.000000 -0.165148 -0.770569
v 0.000000 -0.163952 -0.717784
v 0.113583 -0.297739 0.263464
v 0.000000 -0.304358 0.256921
v 0.000000 -0.304358 -0.352107
v 0.112756 -0.297739 -0.355841
v 0.112756 -0.297739 -0.355841
v 0.099464 -0.284315 -0.601023
v 0.197679 -0.256871 -0.613036
v 0.222807 -0.268202 -0.362963
v 0.112756 -0.297739 -0.355841
v 0.000000 -0.304358 -0.352107
v 0.000000 -0.290464 -0.594645
v 0.099464 -0.284315 -0.601023
v 0.103682 0.053744 -0.356041
v 0.106459 0.053744 0.262838
v 0.135533 0.105013 0.266141
v 0.133026 0.105013 -0.357792
v 0.113222 0.090573 -0.604906
v 0.086028 0.042890 -0.602091
v 0.055744 -0.099555 0.695352
v 0.062481 -0.107121 0.790320
v 0.072654 -0.069435 0.792662
v 0.066462 -0.047789 0.697819
v 0.055744 -0.099555 0.695352
v 0.039844 -0.138633 0.690377
v 0.045692 -0.137639 0.784679
v 0.062481 -0.107121 0.790320
v 0.113583 -0.297739 0.263464
v 0.112756 -0.297739 -0.355841
v 0.222807 -0.268202 -0.362963
v 0.224019 -0.268202 0.276148
v 0.384104 -0.044828 0.294380
v 0.392646 -0.126536 0.295351
v 0.392535 -0.126536 -0.373274
v 0.383913 -0.044828 -0.372759
v 0.383913 -0.044828 -0.372759
v 0.345720 -0.048980 -0.628978
v 0.286919 0.020704 -0.622890
v 0.320462 0.029890 -0.368974
v 0.383913 -0.044828 -0.372759
v 0.392535 -0.126536 -0.373274
v 0.353710 -0.125159 -0.629805
v 0.345720 -0.048980 -0.628978
v 0.226833 -0.178357 0.734734
v 0.290139 -0.199137 0.569519
v 0.349487 -0.125159 0.581301
v 0.272439 -0.121027 0.745232
v 0.226833 -0.178357 0.734734
v 0.153835 -0.222879 0.716616
v 0.195775 -0.256871 0.550143
v 0.290139 -0.199137 0.569519
v 0.226833 -0.178357 0.734734
v 0.156949 -0.151426 0.812065
v 0.108633 -0.182849 0.799167
v 0.153835 -0.222879 0.716616
v 0.226833 -0.178357 0.734734
v 0.272439 -0.121027 0.745232
v 0.186385 -0.111065 0.818841
v 0.156949 -0.151426 0.812065
v 0.384104 -0.044828 0.294380
v 0.341625 -0.048980 0.579740
v 0.349487 -0.125159 0.581301
v 0.392646 -0.126536 0.295351
v 0.384104 -0.044828 0.294380
v 0.321239 0.029890 0.287238
v 0.283766 0.020704 0.568254
v 0.341625 -0.048980 0.579740
v 0.113583 -0.297739 0.263464
v 0.224019 -0.268202 0.276148
v 0.195775 -0.256871 0.550143
v 0.098592 -0.284315 0.528921
v 0.113583 -0.297739 0.263464
v 0.098592 -0.284315 0.528921
v 0.000000 -0.290464 0.517849
v 0.000000 -0.304358 0.256921
v 0.103682 0.053744 -0.356041
v 0.086028 0.042890 -0.602091
v 0.081303 -0.031974 -0.601602
v 0.098583 -0.026702 -0.355737
v 0.221060 0.088449 -0.363044
v 0.194803 0.075200 -0.613353
v 0.113222 0.090573 -0.604906
v 0.133026 0.105013 -0.357792
v 0.221060 0.088449 -0.363044
v 0.320462 0.029890 -0.368974
v 0.286919 0.020704 -0.622890
v 0.194803 0.075200 -0.613353
v 0.031447 -0.166560 -0.350990
v 0.060131 -0.148008 -0.353257
v 0.046926 -0.145664 -0.597428
v 0.024115 -0.164591 -0.593222
v 0.083288 -0.097670 -0.354824
v 0.098583 -0.026702 -0.355737
v 0.081303 -0.031974 -0.601602
v 0.067129 -0.098141 -0.600134
v 0.083288 -0.097670 -0.354824
v 0.067129 -0.098141 -0.600134
v 0.046926 -0.145664 -0.597428
v 0.060131 -0.148008 -0.353257
v 0.327450 -0.206064 -0.369391
v 0.293395 -0.199138 -0.623561
v 0.353710 -0.125159 -0.629805
v 0.392535 -0.126536 -0.373274
v 0.327450 -0.206064 -0.369391
v 0.222807 -0.268202 -0.362963
v 0.197679 -0.256871 -0.613036
v 0.293395 -0.199138 -0.623561
v -0.283732 -0.061437 -0.755334
v -0.289888 -0.121027 -0.756071
v -0.353710 -0.125159 -0.629805
v -0.345720 -0.048980 -0.628978
v -0.283732 -0.061437 -0.755334
v -0.213206 -0.068274 -0.799593
v -0.216795 -0.111065 -0.800022
v -0.289888 -0.121027 -0.756071
v -0.283732 -0.061437 -0.755334
v -0.238432 -0.006855 -0.749910
v -0.200221 -0.030464 -0.784374
v -0.213206 -0.068274 -0.799593
v -0.283732 -0.061437 -0.755334
v -0.345720 -0.048980 -0.628978
v -0.286919 0.020704 -0.622890
v -0.238432 -0.006855 -0.749910
v -0.149396 -0.055568 -0.809520
v -0.150156 -0.092197 -0.809611
v -0.216795 -0.111065 -0.800022
v -0.213206 -0.068274 -0.799593
v -0.149396 -0.055568 -0.809520
v -0.102737 -0.027855 -0.786365
v -0.100917 -0.069435 -0.786147
v -0.150156 -0.092197 -0.809611
v -0.149396 -0.055568 -0.809520
v -0.149008 -0.013803 -0.791905
v -0.113879 0.003575 -0.774035
v -0.102737 -0.027855 -0.786365
v -0.149396 -0.055568 -0.809520
v -0.213206 -0.068274 -0.799593
v -0.200221 -0.030464 -0.784374
v -0.149008 -0.013803 -0.791905
v -0.070034 0.010328 0.698641
v -0.066462 -0.047789 0.697819
v -0.081443 -0.031973 0.528089
v -0.086093 0.042890 0.529012
v -0.106459 0.053744 0.262838
v -0.101408 -0.026701 0.262264
v -0.070034 0.010328 0.698641
v -0.074440 -0.027855 0.793073
v -0.072654 -0.069435 0.792662
v -0.066462 -0.047789 0.697819
v -0.070034 0.010328 0.698641
v -0.090597 0.047254 0.703374
v -0.089087 0.003575 0.772225
v -0.074440 -0.027855 0.793073
v -0.070034 0.010328 0.698641
v -0.086093 0.042890 0.529012
v -0.112851 0.090573 0.534324
v -0.090597 0.047254 0.703374
v -0.115463 -0.055568 0.833655
v -0.116209 -0.092197 0.833827
v -0.072654 -0.069435 0.792662
v -0.074440 -0.027855 0.793073
v -0.115463 -0.055568 0.833655
v -0.182862 -0.068274 0.818030
v -0.186385 -0.111065 0.818841
v -0.116209 -0.092197 0.833827
v -0.115463 -0.055568 0.833655
v -0.119854 -0.013803 0.803527
v -0.173829 -0.030464 0.791732
v -0.182862 -0.068274 0.818030
v -0.115463 -0.055568 0.833655
v -0.074440 -0.027855 0.793073
v -0.089087 0.003575 0.772225
v -0.119854 -0.013803 0.803527
v -0.328162 -0.206064 0.288025
v -0.290139 -0.199137 0.569519
v -0.349487 -0.125159 0.581301
v -0.392646 -0.126536 0.295351
v -0.328162 -0.206064 0.288025
v -0.224019 -0.268202 0.276148
v -0.195775 -0.256871 0.550143
v -0.290139 -0.199137 0.569519
v -0.327450 -0.206064 -0.369391
v -0.328162 -0.206064 0.288025
v -0.392646 -0.126536 0.295351
v -0.392535 -0.126536 -0.373274
v -0.152283 0.035451 0.717574
v -0.090597 0.047254 0.703374
v -0.112851 0.090573 0.534324
v -0.193125 0.075200 0.550260
v -0.152283 0.035451 0.717574
v -0.119854 -0.013803 0.803527
v -0.089087 0.003575 0.772225
v -0.090597 0.047254 0.703374
v -0.152283 0.035451 0.717574
v -0.221936 -0.006855 0.733607
v -0.173829 -0.030464 0.791732
v -0.119854 -0.013803 0.803527
v -0.152283 0.035451 0.717574
v -0.193125 0.075200 0.550260
v -0.283766 0.020704 0.568254
v -0.221936 -0.006855 0.733607
v -0.069104 -0.099556 -0.729633
v -0.080024 -0.047789 -0.730941
v -0.081303 -0.031974 -0.601602
v -0.067129 -0.098141 -0.600134
v -0.069104 -0.099556 -0.729633
v -0.090553 -0.107121 -0.784906
v -0.100917 -0.069435 -0.786147
v -0.080024 -0.047789 -0.730941
v -0.069104 -0.099556 -0.729633
v -0.051366 -0.138633 -0.726641
v -0.070086 -0.137639 -0.781494
v -0.090553 -0.107121 -0.784906
v -0.069104 -0.099556 -0.729633
v -0.067129 -0.098141 -0.600134
v -0.046926 -0.145664 -0.597428
v -0.051366 -0.138633 -0.726641
v -0.083288 -0.097670 -0.354824
v -0.086253 -0.097670 0.260542
v -0.062843 -0.148008 0.257837
v -0.060131 -0.148008 -0.353257
v -0.327450 -0.206064 -0.369391
v -0.222807 -0.268202 -0.362963
v -0.224019 -0.268202 0.276148
v -0.328162 -0.206064 0.288025
v -0.086253 -0.097670 0.260542
v -0.047436 -0.145664 0.520695
v -0.062843 -0.148008 0.257837
v -0.067496 -0.098141 0.525321
v -0.055744 -0.099555 0.695352
v -0.039844 -0.138633 0.690377
v -0.086253 -0.097670 0.260542
v -0.101408 -0.026701 0.262264
v -0.081443 -0.031973 0.528089
v -0.067496 -0.098141 0.525321
v -0.055744 -0.099555 0.695352
v -0.066462 -0.047789 0.697819
v -0.036645 -0.170575 0.807790
v -0.024058 -0.157718 0.774369
v -0.045692 -0.137639 0.784679
v -0.070603 -0.153407 0.821399
v -0.036645 -0.170575 0.807790
v 0.000000 -0.176611 0.799712
v 0.000000 -0.165147 0.768047
v -0.024058 -0.157718 0.774369
v -0.036645 -0.170575 0.807790
v -0.055517 -0.198826 0.781610
v 0.000000 -0.202953 0.771667
v 0.000000 -0.176611 0.799712
v -0.036645 -0.170575 0.807790
v -0.070603 -0.153407 0.821399
v -0.108633 -0.182849 0.799167
v -0.055517 -0.198826 0.781610
v -0.053213 -0.170575 -0.794035
v -0.070010 -0.198826 -0.778602
v -0.134214 -0.182849 -0.789173
v -0.099721 -0.153407 -0.802579
v -0.053213 -0.170575 -0.794035
v 0.000000 -0.176612 -0.788864
v 0.000000 -0.202954 -0.772489
v -0.070010 -0.198826 -0.778602
v -0.053213 -0.170575 -0.794035
v -0.037958 -0.157718 -0.774764
v 0.000000 -0.165148 -0.770569
v 0.000000 -0.176612 -0.788864
v -0.053213 -0.170575 -0.794035
v -0.099721 -0.153407 -0.802579
v -0.070086 -0.137639 -0.781494
v -0.037958 -0.157718 -0.774764
v -0.020727 -0.158683 0.682031
v -0.024450 -0.164591 0.514203
v -0.047436 -0.145664 0.520695
v -0.039844 -0.138633 0.690377
v -0.020727 -0.158683 0.682031
v 0.000000 -0.163952 0.677015
v 0.000000 -0.166905 0.510490
v -0.024450 -0.164591 0.514203
v -0.020727 -0.158683 0.682031
v -0.024058 -0.157718 0.774369
v 0.000000 -0.165147 0.768047
v 0.000000 -0.163952 0.677015
v -0.020727 -0.158683 0.682031
v -0.039844 -0.138633 0.690377
v -0.045692 -0.137639 0.784679
v -0.024058 -0.157718 0.774369
v -0.085322 -0.244042 -0.728104
v -0.099464 -0.284315 -0.601023
v -0.197679 -0.256871 -0.613036
v -0.167507 -0.222879 -0.740549
v -0.085322 -0.244042 -0.728104
v 0.000000 -0.248784 -0.721260
v 0.000000 -0.290464 -0.594645
v -0.099464 -0.284315 -0.601023
v -0.085322 -0.244042 -0.728104
v -0.167507 -0.222879 -0.740549
v -0.134214 -0.182849 -0.789173
v -0.070010 -0.198826 -0.778602
v -0.077701 -0.244042 0.695145
v -0.055517 -0.198826 0.781610
v -0.108633 -0.182849 0.799167
v -0.153835 -0.222879 0.716616
v -0.077701 -0.244042 0.695145
v -0.098592 -0.284315 0.528921
v 0.000000 -0.290464 0.517849
v 0.000000 -0.248784 0.683572
v -0.077701 -0.244042 0.695145
v -0.153835 -0.222879 0.716616
v -0.195775 -0.256871 0.550143
v -0.098592 -0.284315 0.528921
v -0.083288 -0.097670 -0.354824
v -0.098583 -0.026702 -0.355737
v -0.101408 -0.026701 0.262264
v -0.086253 -0.097670 0.260542
v -0.033024 -0.166560 0.254312
v -0.024450 -0.164591 0.514203
v 0.000000 -0.166905 0.510490
v 0.000000 -0.167890 0.252345
v -0.031447 -0.166560 -0.350990
v 0.000000 -0.167890 -0.349682
v 0.000000 -0.166906 -0.590744
v -0.024115 -0.164591 -0.593222
v -0.033024 -0.166560 0.254312
v -0.062843 -0.148008 0.257837
v -0.047436 -0.145664 0.520695
v -0.024450 -0.164591 0.514203
v -0.243421 -0.178357 -0.750507
v -0.293395 -0.199138 -0.623561
v -0.353710 -0.125159 -0.629805
v -0.289888 -0.121027 -0.756071
v -0.243421 -0.178357 -0.750507
v -0.167507 -0.222879 -0.740549
v -0.197679 -0.256871 -0.613036
v -0.293395 -0.199138 -0.623561
v -0.243421 -0.178357 -0.750507
v -0.186803 -0.151426 -0.796431
v -0.134214 -0.182849 -0.789173
v -0.167507 -0.222879 -0.740549
v -0.243421 -0.178357 -0.750507
v -0.289888 -0.121027 -0.756071
v -0.216795 -0.111065 -0.800022
v -0.186803 -0.151426 -0.796431
v -0.132816 -0.126046 -0.807535
v -0.150156 -0.092197 -0.809611
v -0.100917 -0.069435 -0.786147
v -0.090553 -0.107121 -0.784906
v -0.132816 -0.126046 -0.807535
v -0.186803 -0.151426 -0.796431
v -0.216795 -0.111065 -0.800022
v -0.150156 -0.092197 -0.809611
v -0.132816 -0.126046 -0.807535
v -0.099721 -0.153407 -0.802579
v -0.134214 -0.182849 -0.789173
v -0.186803 -0.151426 -0.796431
v -0.132816 -0.126046 -0.807535
v -0.090553 -0.107121 -0.784906
v -0.070086 -0.137639 -0.781494
v -0.099721 -0.153407 -0.802579
v -0.031447 -0.166560 -0.350990
v -0.060131 -0.148008 -0.353257
v -0.062843 -0.148008 0.257837
v -0.033024 -0.166560 0.254312
v -0.222754 0.088449 0.276050
v -0.193125 0.075200 0.550260
v -0.112851 0.090573 0.534324
v -0.135533 0.105013 0.266141
v -0.222754 0.088449 0.276050
v -0.321239 0.029890 0.287238
v -0.283766 0.020704 0.568254
v -0.193125 0.075200 0.550260
v -0.221060 0.088449 -0.363044
v -0.222754 0.088449 0.276050
v -0.135533 0.105013 0.266141
v -0.133026 0.105013 -0.357792
v -0.221060 0.088449 -0.363044
v -0.320462 0.029890 -0.368974
v -0.321239 0.029890 0.287238
v -0.222754 0.088449 0.276050
v -0.106459 0.053744 0.262838
v -0.135533 0.105013 0.266141
v -0.112851 0.090573 0.534324
v -0.086093 0.042890 0.529012
v -0.103682 0.053744 -0.356041
v -0.106459 0.053744 0.262838
v -0.101408 -0.026701 0.262264
v -0.098583 -0.026702 -0.355737
v -0.266397 -0.061437 0.743841
v -0.272439 -0.121027 0.745232
v -0.186385 -0.111065 0.818841
v -0.182862 -0.068274 0.818030
v -0.266397 -0.061437 0.743841
v -0.341625 -0.048980 0.579740
v -0.349487 -0.125159 0.581301
v -0.272439 -0.121027 0.745232
v -0.266397 -0.061437 0.743841
v -0.221936 -0.006855 0.733607
v -0.283766 0.020704 0.568254
v -0.341625 -0.048980 0.579740
v -0.266397 -0.061437 0.743841
v -0.182862 -0.068274 0.818030
v -0.173829 -0.030464 0.791732
v -0.221936 -0.006855 0.733607
v -0.083664 0.010327 -0.731377
v -0.080024 -0.047789 -0.730941
v -0.100917 -0.069435 -0.786147
v -0.102737 -0.027855 -0.786365
v -0.083664 0.010327 -0.731377
v -0.086028 0.042890 -0.602091
v -0.081303 -0.031974 -0.601602
v -0.080024 -0.047789 -0.730941
v -0.083664 0.010327 -0.731377
v -0.104614 0.047254 -0.733886
v -0.113222 0.090573 -0.604906
v -0.086028 0.042890 -0.602091
v -0.083664 0.010327 -0.731377
v -0.102737 -0.027855 -0.786365
v -0.113879 0.003575 -0.774035
v -0.104614 0.047254 -0.733886
v -0.167465 0.035451 -0.741412
v -0.104614 0.047254 -0.733886
v -0.113879 0.003575 -0.774035
v -0.149008 -0.013803 -0.791905
v -0.167465 0.035451 -0.741412
v -0.194803 0.075200 -0.613353
v -0.113222 0.090573 -0.604906
v -0.104614 0.047254 -0.733886
v -0.167465 0.035451 -0.741412
v -0.238432 -0.006855 -0.749910
v -0.286919 0.020704 -0.622890
v -0.194803 0.075200 -0.613353
v -0.167465 0.035451 -0.741412
v -0.149008 -0.013803 -0.791905
v -0.200221 -0.030464 -0.784374
v -0.238432 -0.006855 -0.749910
v -0.099190 -0.126045 0.829909
v -0.116209 -0.092197 0.833827
v -0.186385 -0.111065 0.818841
v -0.156949 -0.151426 0.812065
v -0.099190 -0.126045 0.829909
v -0.062481 -0.107121 0.790320
v -0.072654 -0.069435 0.792662
v -0.116209 -0.092197 0.833827
v -0.099190 -0.126045 0.829909
v -0.070603 -0.153407 0.821399
v -0.045692 -0.137639 0.784679
v -0.062481 -0.107121 0.790320
v -0.099190 -0.126045 0.829909
v -0.156949 -0.151426 0.812065
v -0.108633 -0.182849 0.799167
v -0.070603 -0.153407 0.821399
v -0.027272 -0.158684 -0.721153
v -0.037958 -0.157718 -0.774764
v -0.070086 -0.137639 -0.781494
v -0.051366 -0.138633 -0.726641
v -0.027272 -0.158684 -0.721153
v 0.000000 -0.163952 -0.717784
v 0.000000 -0.165148 -0.770569
v -0.037958 -0.157718 -0.774764
v -0.027272 -0.158684 -0.721153
v -0.024115 -0.164591 -0.593222
v 0.000000 -0.166906 -0.590744
v 0.000000 -0.163952 -0.717784
v -0.027272 -0.158684 -0.721153
v -0.051366 -0.138633 -0.726641
v -0.046926 -0.145664 -0.597428
v -0.024115 -0.164591 -0.593222
v -0.113583 -0.297739 0.263464
v -0.112756 -0.297739 -0.355841
v 0.000000 -0.304358 -0.352107
v 0.000000 -0.304358 0.256921
v -0.103682 0.053744 -0.356041
v -0.135533 0.105013 0.266141
v -0.106459 0.053744 0.262838
v -0.133026 0.105013 -0.357792
v -0.113222 0.090573 -0.604906
v -0.086028 0.042890 -0.602091
v -0.112756 -0.297739 -0.355841
v -0.099464 -0.284315 -0.601023
v 0.000000 -0.290464 -0.594645
v 0.000000 -0.304358 -0.352107
v -0.112756 -0.297739 -0.355841
v -0.222807 -0.268202 -0.362963
v -0.197679 -0.256871 -0.613036
v -0.099464 -0.284315 -0.601023
v -0.055744 -0.099555 0.695352
v -0.066462 -0.047789 0.697819
v -0.072654 -0.069435 0.792662
v -0.062481 -0.107121 0.790320
v -0.055744 -0.099555 0.695352
v -0.062481 -0.107121 0.790320
v -0.045692 -0.137639 0.784679
v -0.039844 -0.138633 0.690377
v -0.113583 -0.297739 0.263464
v -0.224019 -0.268202 0.276148
v -0.222807 -0.268202 -0.362963
v -0.112756 -0.297739 -0.355841
v -0.383913 -0.044828 -0.372759
v -0.345720 -0.048980 -0.628978
v -0.353710 -0.125159 -0.629805
v -0.392535 -0.126536 -0.373274
v -0.383913 -0.044828 -0.372759
v -0.320462 0.029890 -0.368974
v -0.286919 0.020704 -0.622890
v -0.345720 -0.048980 -0.628978
v -0.384104 -0.044828 0.294380
v -0.383913 -0.044828 -0.372759
v -0.392535 -0.126536 -0.373274
v -0.392646 -0.126536 0.295351
v -0.226833 -0.178357 0.734734
v -0.272439 -0.121027 0.745232
v -0.349487 -0.125159 0.581301
v -0.290139 -0.199137 0.569519
v -0.226833 -0.178357 0.734734
v -0.156949 -0.151426 0.812065
v -0.186385 -0.111065 0.818841
v -0.272439 -0.121027 0.745232
v -0.226833 -0.178357 0.734734
v -0.153835 -0.222879 0.716616
v -0.108633 -0.182849 0.799167
v -0.156949 -0.151426 0.812065
v -0.226833 -0.178357 0.734734
v -0.290139 -0.199137 0.569519
v -0.195775 -0.256871 0.550143
v -0.153835 -0.222879 0.716616
v -0.384104 -0.044828 0.294380
v -0.392646 -0.126536 0.295351
v -0.349487 -0.125159 0.581301
v -0.341625 -0.048980 0.579740
v -0.384104 -0.044828 0.294380
v -0.341625 -0.048980 0.579740
v -0.283766 0.020704 0.568254
v -0.321239 0.029890 0.287238
v -0.113583 -0.297739 0.263464
v -0.098592 -0.284315 0.528921
v -0.195775 -0.256871 0.550143
v -0.224019 -0.268202 0.276148
v -0.113583 -0.297739 0.263464
v 0.000000 -0.304358 0.256921
v 0.000000 -0.290464 0.517849
v -0.098592 -0.284315 0.528921
v -0.103682 0.053744 -0.356041
v -0.098583 -0.026702 -0.355737
v -0.081303 -0.031974 -0.601602
v -0.086028 0.042890 -0.602091
v -0.221060 0.088449 -0.363044
v -0.133026 0.105013 -0.357792
v -0.113222 0.090573 -0.604906
v -0.194803 0.075200 -0.613353
v -0.221060 0.088449 -0.363044
v -0.194803 0.075200 -0.613353
v -0.286919 0.020704 -0.622890
v -0.320462 0.029890 -0.368974
v -0.031447 -0.166560 -0.350990
v -0.024115 -0.164591 -0.593222
v -0.046926 -0.145664 -0.597428
v -0.060131 -0.148008 -0.353257
v -0.083288 -0.097670 -0.354824
v -0.067129 -0.098141 -0.600134
v -0.081303 -0.031974 -0.601602
v -0.098583 -0.026702 -0.355737
v -0.083288 -0.097670 -0.354824
v -0.060131 -0.148008 -0.353257
v -0.046926 -0.145664 -0.597428
v -0.067129 -0.098141 -0.600134
v -0.327450 -0.206064 -0.369391
v -0.392535 -0.126536 -0.373274
v -0.353710 -0.125159 -0.629805
v -0.293395 -0.199138 -0.623561
v -0.327450 -0.206064 -0.369391
v -0.293395 -0.199138 -0.623561
v -0.197679 -0.256871 -0.613036
v -0.222807 -0.268202 -0.362963
v 0.384104 -0.044828 0.294380
v 0.383913 -0.044828 -0.372759
v 0.320462 0.029890 -0.368974
v 0.321239 0.029890 0.287238
vn 0.889554 0.097824 -0.446234
vn 0.889554 0.097824 -0.446234
vn 0.889554 0.097824 -0.446234
vn 0.889554 0.097824 -0.446234
vn 0.685704 0.611069 -0.395482
vn 0.685704 0.611069 -0.395482
vn 0.685704 0.611069 -0.395482
vn 0.685704 0.611069 -0.395482
vn 0.437600 0.449990 -0.778470
vn 0.437600 0.449990 -0.778470
vn 0.437600 0.449990 -0.778470
vn 0.437600 0.449990 -0.778470
vn 0.523374 0.059501 -0.850023
vn 0.523374 0.059501 -0.850023
vn 0.523374 0.059501 -0.850023
vn 0.523374 0.059501 -0.850023
vn 0.151437 0.014772 -0.988357
vn 0.151437 0.014772 -0.988357
vn 0.151437 0.014772 -0.988357
vn 0.151437 0.014772 -0.988357
vn 0.237302 0.404329 -0.883293
vn 0.237302 0.404329 -0.883293
vn 0.237302 0.404329 -0.883293
vn 0.237302 0.404329 -0.883293
vn -0.227086 0.397147 -0.889217
vn -0.227086 0.397147 -0.889217
vn -0.227086 0.397147 -0.889217
vn -0.227086 0.397147 -0.889217
vn -0.435314 0.004440 -0.900268
vn -0.435314 0.004440 -0.900268
vn -0.435314 0.004440 -0.900268
vn -0.435314 0.004440 -0.900268
vn -0.994661 0.062574 -0.082057
vn -0.994661 0.062574 -0.082057
vn -0.994661 0.062574 -0.082057
vn -0.994661 0.062574 -0.082057
vn -0.995308 0.062876 -0.073549
vn -0.995308 0.062876 -0.073549
vn -0.873252 0.487159 0.010365
vn -0.873252 0.487159 0.010365
vn -0.873252 0.487159 0.010365
vn -0.873252 0.487159 0.010365
vn -0.831979 0.489916 0.260371
vn -0.831979 0.489916 0.260371
vn -0.831979 0.489916 0.260371
vn -0.831979 0.489916 0.260371
vn -0.995986 0.052639 0.072402
vn -0.995986 0.052639 0.072402
vn -0.995986 0.052639 0.072402
vn -0.995986 0.052639 0.072402
vn -0.692787 0.007008 0.721108
vn -0.692787 0.007008 0.721108
vn -0.692787 0.007008 0.721108
vn -0.692787 0.007008 0.721108
vn -0.350573 0.594924 0.723300
vn -0.350573 0.594924 0.723300
vn -0.350573 0.594924 0.723300
vn -0.350573 0.594924 0.723300
vn 0.309284 0.562014 0.767127
vn 0.309284 0.562014 0.767127
vn 0.309284 0.562014 0.767127
vn 0.309284 0.562014 0.767127
vn 0.222376 0.024013 0.974665
vn 0.222376 0.024013 0.974665
vn 0.222376 0.024013 0.974665
vn 0.222376 0.024013 0.974665
vn -0.763720 0.645548 -0.000559
vn -0.763720 0.645548 -0.000559
vn -0.763720 0.645548 -0.000559
vn -0.763720 0.645548 -0.000559
vn 0.775319 -0.631570 -0.000482
vn 0.775319 -0.631570 -0.000482
vn 0.775319 -0.631570 -0.000482
vn 0.775319 -0.631570 -0.000482
vn 0.504664 -0.858775 0.088430
vn 0.504664 -0.858775 0.088430
vn 0.504664 -0.858775 0.088430
vn 0.504664 -0.858775 0.088430
vn 0.765536 -0.632334 0.118777
vn 0.765536 -0.632334 0.118777
vn 0.765536 -0.632334 0.118777
vn 0.765536 -0.632334 0.118777
vn 0.127941 0.957003 0.260339
vn 0.127941 0.957003 0.260339
vn 0.127941 0.957003 0.260339
vn 0.127941 0.957003 0.260339
vn 0.443320 0.842078 0.307200
vn 0.443320 0.842078 0.307200
vn 0.443320 0.842078 0.307200
vn 0.443320 0.842078 0.307200
vn 0.338254 0.750023 0.568375
vn 0.338254 0.750023 0.568375
vn 0.338254 0.750023 0.568375
vn 0.338254 0.750023 0.568375
vn 0.015587 0.855753 0.517150
vn 0.015587 0.855753 0.517150
vn 0.015587 0.855753 0.517150
vn 0.015587 0.855753 0.517150
vn -0.978048 0.207727 -0.016455
vn -0.978048 0.207727 -0.016455
vn -0.978048 0.207727 -0.016455
vn -0.978048 0.207727 -0.016455
vn -0.916197 0.400482 -0.014023
vn -0.916197 0.400482 -0.014023
vn -0.916197 0.400482 -0.014023
vn -0.916197 0.400482 -0.014023
vn -0.839466 0.430294 -0.331880
vn -0.839466 0.430294 -0.331880
vn -0.839466 0.430294 -0.331880
vn -0.839466 0.430294 -0.331880
vn -0.895544 0.201790 -0.396587
vn -0.895544 0.201790 -0.396587
vn -0.895544 0.201790 -0.396587
vn -0.895544 0.201790 -0.396587
vn -0.907618 0.419776 0.004202
vn -0.907618 0.419776 0.004202
vn -0.907618 0.419776 0.004202
vn -0.907618 0.419776 0.004202
vn -0.975430 0.209254 -0.068919
vn -0.975430 0.209254 -0.068919
vn -0.975430 0.209254 -0.068919
vn -0.975430 0.209254 -0.068919
vn -0.976074 0.207085 -0.066299
vn -0.976074 0.207085 -0.066299
vn -0.910536 0.408994 -0.060409
vn -0.910536 0.408994 -0.060409
vn -0.910536 0.408994 -0.060409
vn -0.910536 0.408994 -0.060409
vn -0.919623 0.388378 -0.058785
vn -0.919623 0.388378 -0.058785
vn 0.511494 -0.859287 -0.000759
vn 0.511494 -0.859287 -0.000759
vn 0.511494 -0.859287 -0.000759
vn 0.511494 -0.859287 -0.000759
vn -0.614241 0.559331 0.556648
vn -0.614241 0.559331 0.556648
vn -0.614241 0.559331 0.556648
vn -0.614241 0.559331 0.556648
vn -0.021140 -0.654810 0.755498
vn -0.021140 -0.654810 0.755498
vn -0.021140 -0.654810 0.755498
vn -0.021140 -0.654810 0.755498
vn -0.057849 -0.713522 0.698241
vn -0.057849 -0.713522 0.698241
vn -0.057849 -0.713522 0.698241
vn -0.057849 -0.713522 0.698241
vn -0.285784 0.878236 0.383445
vn -0.285784 0.878236 0.383445
vn -0.285784 0.878236 0.383445
vn -0.285784 0.878236 0.383445
vn -0.016146 -0.458510 -0.888543
vn -0.016146 -0.458510 -0.888543
vn -0.016146 -0.458510 -0.888543
vn -0.016146 -0.458510 -0.888543
vn -0.385443 0.494157 -0.779258
vn -0.385443 0.494157 -0.779258
vn -0.385443 0.494157 -0.779258
vn -0.385443 0.494157 -0.779258
vn -0.176989 0.791833 -0.584531
vn -0.176989 0.791833 -0.584531
vn -0.176989 0.791833 -0.584531
vn -0.176989 0.791833 -0.584531
vn -0.036434 -0.511436 -0.858549
vn -0.036434 -0.511436 -0.858549
vn -0.036434 -0.511436 -0.858549
vn -0.036434 -0.511436 -0.858549
vn -0.668745 0.741751 -0.050853
vn -0.668745 0.741751 -0.050853
vn -0.668745 0.741751 -0.050853
vn -0.668745 0.741751 -0.050853
vn -0.707713 0.705969 0.027394
vn -0.707713 0.705969 0.027394
vn -0.707713 0.705969 0.027394
vn -0.707713 0.705969 0.027394
vn -0.274224 0.961646 0.006190
vn -0.274224 0.961646 0.006190
vn -0.274224 0.961646 0.006190
vn -0.274224 0.961646 0.006190
vn -0.160219 0.986686 -0.027934
vn -0.160219 0.986686 -0.027934
vn -0.160219 0.986686 -0.027934
vn -0.160219 0.986686 -0.027934
vn 0.208539 -0.928530 -0.307154
vn 0.208539 -0.928530 -0.307154
vn 0.208539 -0.928530 -0.307154
vn 0.208539 -0.928530 -0.307154
vn 0.080944 -0.735730 -0.672420
vn 0.080944 -0.735730 -0.672420
vn 0.080944 -0.735730 -0.672420
vn 0.080944 -0.735730 -0.672420
vn -0.012939 -0.746048 -0.665767
vn -0.012939 -0.746048 -0.665767
vn -0.012939 -0.746048 -0.665767
vn -0.012939 -0.746048 -0.665767
vn 0.012939 -0.746048 -0.665767
vn 0.012939 -0.746048 -0.665767
vn 0.033915 -0.950479 -0.308932
vn 0.033915 -0.950479 -0.308932
vn 0.033915 -0.950479 -0.308932
vn 0.033915 -0.950479 -0.308932
vn 0.104937 -0.870486 0.480877
vn 0.104937 -0.870486 0.480877
vn 0.104937 -0.870486 0.480877
vn 0.104937 -0.870486 0.480877
vn 0.203932 -0.946576 0.249813
vn 0.203932 -0.946576 0.249813
vn 0.203932 -0.946576 0.249813
vn 0.203932 -0.946576 0.249813
vn 0.028929 -0.970018 0.241307
vn 0.028929 -0.970018 0.241307
vn 0.028929 -0.970018 0.241307
vn 0.028929 -0.970018 0.241307
vn -0.015357 -0.887341 0.460859
vn -0.015357 -0.887341 0.460859
vn -0.015357 -0.887341 0.460859
vn -0.015357 -0.887341 0.460859
vn 0.015357 -0.887341 0.460859
vn 0.015357 -0.887341 0.460859
vn -0.574294 0.817980 -0.033094
vn -0.574294 0.817980 -0.033094
vn -0.574294 0.817980 -0.033094
vn -0.574294 0.817980 -0.033094
vn -0.041226 0.999150 0.000054
vn -0.062623 0.998015 -0.006727
vn -0.062623 0.998015 -0.006727
vn -0.041226 0.999150 0.000054
vn -0.041226 0.999150 0.000054
vn -0.041226 0.999150 0.000054
vn -0.064973 0.997862 0.007084
vn -0.064973 0.997862 0.007084
vn -0.977748 0.209732 0.004590
vn -0.977748 0.209732 0.004590
vn -0.977748 0.209732 0.004590
vn -0.977748 0.209732 0.004590
vn 0.702375 -0.604912 -0.375168
vn 0.702375 -0.604912 -0.375168
vn 0.702375 -0.604912 -0.375168
vn 0.702375 -0.604912 -0.375168
vn 0.435239 -0.415494 -0.798707
vn 0.435239 -0.415494 -0.798707
vn 0.435239 -0.415494 -0.798707
vn 0.435239 -0.415494 -0.798707
vn 0.280388 -0.637180 -0.717903
vn 0.280388 -0.637180 -0.717903
vn 0.280388 -0.637180 -0.717903
vn 0.280388 -0.637180 -0.717903
vn 0.455871 -0.829689 -0.322177
vn 0.455871 -0.829689 -0.322177
vn 0.455871 -0.829689 -0.322177
vn 0.455871 -0.829689 -0.322177
vn -0.404745 0.114681 -0.907210
vn -0.404745 0.114681 -0.907210
vn -0.404745 0.114681 -0.907210
vn -0.404745 0.114681 -0.907210
vn -0.410449 0.253200 -0.876026
vn -0.410449 0.253200 -0.876026
vn -0.410449 0.253200 -0.876026
vn -0.410449 0.253200 -0.876026
vn 0.073976 -0.305086 -0.949447
vn 0.073976 -0.305086 -0.949447
vn 0.073976 -0.305086 -0.949447
vn 0.073976 -0.305086 -0.949447
vn 0.114261 -0.147903 -0.982379
vn 0.114261 -0.147903 -0.982379
vn 0.114261 -0.147903 -0.982379
vn 0.114261 -0.147903 -0.982379
vn -0.535628 0.844452 0.001889
vn -0.535628 0.844452 0.001889
vn -0.535628 0.844452 0.001889
vn -0.535628 0.844452 0.001889
vn 0.185749 0.982597 -0.000618
vn 0.185749 0.982597 -0.000618
vn 0.185749 0.982597 -0.000618
vn 0.185749 0.982597 -0.000618
vn 0.499897 0.860837 0.095200
vn 0.499897 0.860837 0.095200
vn 0.499897 0.860837 0.095200
vn 0.499897 0.860837 0.095200
vn 0.176862 0.981940 0.067185
vn 0.176862 0.981940 0.067185
vn 0.176862 0.981940 0.067185
vn 0.176862 0.981940 0.067185
vn 0.509344 0.860562 -0.000972
vn 0.509344 0.860562 -0.000972
vn 0.509344 0.860562 -0.000972
vn 0.509344 0.860562 -0.000972
vn -0.998006 0.062953 0.004520
vn -0.998006 0.062953 0.004520
vn -0.998006 0.062953 0.004520
vn -0.998006 0.062953 0.004520
vn -0.868245 0.493946 -0.046567
vn -0.868245 0.493946 -0.046567
vn -0.868245 0.493946 -0.046567
vn -0.868245 0.493946 -0.046567
vn 0.655853 0.077415 0.750909
vn 0.655853 0.077415 0.750909
vn 0.655853 0.077415 0.750909
vn 0.655853 0.077415 0.750909
vn 0.520966 0.557286 0.646550
vn 0.520966 0.557286 0.646550
vn 0.520966 0.557286 0.646550
vn 0.520966 0.557286 0.646550
vn 0.687422 0.629366 0.362423
vn 0.687422 0.629366 0.362423
vn 0.687422 0.629366 0.362423
vn 0.687422 0.629366 0.362423
vn 0.901368 0.101459 0.421001
vn 0.901368 0.101459 0.421001
vn 0.901368 0.101459 0.421001
vn 0.901368 0.101459 0.421001
vn -0.930229 0.048558 -0.363754
vn -0.930229 0.048558 -0.363754
vn -0.930229 0.048558 -0.363754
vn -0.930229 0.048558 -0.363754
vn -0.710124 0.415099 -0.568698
vn -0.710124 0.415099 -0.568698
vn -0.710124 0.415099 -0.568698
vn -0.710124 0.415099 -0.568698
vn -0.867092 0.486704 -0.106163
vn -0.867092 0.486704 -0.106163
vn -0.867092 0.486704 -0.106163
vn -0.867092 0.486704 -0.106163
vn -0.998024 0.062795 0.002315
vn -0.998024 0.062795 0.002315
vn -0.998024 0.062795 0.002315
vn -0.998024 0.062795 0.002315
vn 0.021785 0.696962 -0.716777
vn 0.021785 0.696962 -0.716777
vn 0.021785 0.696962 -0.716777
vn 0.021785 0.696962 -0.716777
vn 0.293509 0.620079 -0.727568
vn 0.293509 0.620079 -0.727568
vn 0.293509 0.620079 -0.727568
vn 0.293509 0.620079 -0.727568
vn 0.449112 0.821907 -0.350382
vn 0.449112 0.821907 -0.350382
vn 0.449112 0.821907 -0.350382
vn 0.449112 0.821907 -0.350382
vn 0.140522 0.936184 -0.322201
vn 0.140522 0.936184 -0.322201
vn 0.140522 0.936184 -0.322201
vn 0.140522 0.936184 -0.322201
vn 0.162687 -0.239755 0.957105
vn 0.162687 -0.239755 0.957105
vn 0.162687 -0.239755 0.957105
vn 0.162687 -0.239755 0.957105
vn 0.105861 -0.459632 0.881778
vn 0.105861 -0.459632 0.881778
vn 0.105861 -0.459632 0.881778
vn 0.105861 -0.459632 0.881778
vn -0.648769 0.342449 0.679579
vn -0.648769 0.342449 0.679579
vn -0.648769 0.342449 0.679579
vn -0.648769 0.342449 0.679579
vn -0.648835 0.181985 0.738847
vn -0.648835 0.181985 0.738847
vn -0.648835 0.181985 0.738847
vn -0.648835 0.181985 0.738847
vn -0.595626 0.789656 -0.147221
vn -0.595626 0.789656 -0.147221
vn -0.595626 0.789656 -0.147221
vn -0.595626 0.789656 -0.147221
vn -0.636546 0.770980 0.019986
vn -0.636546 0.770980 0.019986
vn -0.636546 0.770980 0.019986
vn -0.636546 0.770980 0.019986
vn -0.142275 0.989290 0.032619
vn -0.142275 0.989290 0.032619
vn -0.142275 0.989290 0.032619
vn -0.142275 0.989290 0.032619
vn -0.193439 0.980876 -0.021553
vn -0.193439 0.980876 -0.021553
vn -0.193439 0.980876 -0.021553
vn -0.193439 0.980876 -0.021553
vn 0.058383 -0.998294 -0.000039
vn 0.058383 -0.998294 -0.000039
vn 0.058383 -0.998294 -0.000039
vn 0.058383 -0.998294 -0.000039
vn 0.257453 -0.963884 -0.068152
vn 0.257453 -0.963884 -0.068152
vn 0.257453 -0.963884 -0.068152
vn 0.257453 -0.963884 -0.068152
vn 0.057229 -0.996710 -0.057387
vn 0.057229 -0.996710 -0.057387
vn 0.057229 -0.996710 -0.057387
vn 0.057229 -0.996710 -0.057387
vn -0.868898 0.494978 0.003694
vn -0.868898 0.494978 0.003694
vn -0.868898 0.494978 0.003694
vn -0.868898 0.494978 0.003694
vn -0.866755 0.497100 0.040339
vn -0.866755 0.497100 0.040339
vn -0.970083 0.221170 0.100113
vn -0.970083 0.221170 0.100113
vn -0.970083 0.221170 0.100113
vn -0.970083 0.221170 0.100113
vn -0.906941 0.414583 0.074698
vn -0.906941 0.414583 0.074698
vn -0.906941 0.414583 0.074698
vn -0.906941 0.414583 0.074698
vn 0.258808 -0.965929 -0.000419
vn 0.258808 -0.965929 -0.000419
vn 0.258808 -0.965929 -0.000419
vn 0.258808 -0.965929 -0.000419
vn 0.994529 0.104460 -0.000226
vn 0.994529 0.104460 -0.000226
vn 0.994529 0.104460 -0.000226
vn 0.994529 0.104460 -0.000226
vn 0.753283 0.646127 -0.122822
vn 0.753283 0.646127 -0.122822
vn 0.753283 0.646127 -0.122822
vn 0.753283 0.646127 -0.122822
vn 0.983385 0.104727 -0.148277
vn 0.983385 0.104727 -0.148277
vn 0.983385 0.104727 -0.148277
vn 0.983385 0.104727 -0.148277
vn 0.703083 -0.620811 0.346797
vn 0.703083 -0.620811 0.346797
vn 0.703083 -0.620811 0.346797
vn 0.703083 -0.620811 0.346797
vn 0.452991 -0.845297 0.283324
vn 0.452991 -0.845297 0.283324
vn 0.452991 -0.845297 0.283324
vn 0.452991 -0.845297 0.283324
vn 0.333095 -0.760005 0.558069
vn 0.333095 -0.760005 0.558069
vn 0.333095 -0.760005 0.558069
vn 0.333095 -0.760005 0.558069
vn 0.525894 -0.522621 0.671046
vn 0.525894 -0.522621 0.671046
vn 0.525894 -0.522621 0.671046
vn 0.525894 -0.522621 0.671046
vn 0.983456 0.104554 0.147926
vn 0.983456 0.104554 0.147926
vn 0.983456 0.104554 0.147926
vn 0.983456 0.104554 0.147926
vn 0.753735 0.645829 0.121609
vn 0.753735 0.645829 0.121609
vn 0.753735 0.645829 0.121609
vn 0.753735 0.645829 0.121609
vn 0.254275 -0.964968 0.064661
vn 0.254275 -0.964968 0.064661
vn 0.254275 -0.964968 0.064661
vn 0.254275 -0.964968 0.064661
vn 0.055569 -0.997030 0.053326
vn 0.055569 -0.997030 0.053326
vn 0.055569 -0.997030 0.053326
vn 0.055569 -0.997030 0.053326
vn -0.995630 0.063324 0.068630
vn -0.995630 0.063324 0.068630
vn -0.995630 0.063324 0.068630
vn -0.995630 0.063324 0.068630
vn 0.179013 0.981267 -0.071199
vn 0.179013 0.981267 -0.071199
vn 0.179013 0.981267 -0.071199
vn 0.179013 0.981267 -0.071199
vn 0.500062 0.860473 -0.097593
vn 0.500062 0.860473 -0.097593
vn 0.500062 0.860473 -0.097593
vn 0.500062 0.860473 -0.097593
vn -0.585544 0.810013 0.031905
vn -0.585544 0.810013 0.031905
vn -0.585544 0.810013 0.031905
vn -0.585544 0.810013 0.031905
vn -0.975451 0.210730 0.063945
vn -0.975451 0.210730 0.063945
vn -0.975451 0.210730 0.063945
vn -0.975451 0.210730 0.063945
vn -0.911911 0.406513 0.056261
vn -0.911911 0.406513 0.056261
vn -0.911911 0.406513 0.056261
vn -0.911911 0.406513 0.056261
vn 0.765024 -0.632825 -0.119463
vn 0.765024 -0.632825 -0.119463
vn 0.765024 -0.632825 -0.119463
vn 0.765024 -0.632825 -0.119463
vn 0.505666 -0.857978 -0.090416
vn 0.505666 -0.857978 -0.090416
vn 0.505666 -0.857978 -0.090416
vn 0.505666 -0.857978 -0.090416
vn -0.889554 0.097824 -0.446234
vn -0.889554 0.097824 -0.446234
vn -0.889554 0.097824 -0.446234
vn -0.889554 0.097824 -0.446234
vn -0.523374 0.059501 -0.850023
vn -0.523374 0.059501 -0.850023
vn -0.523374 0.059501 -0.850023
vn -0.523374 0.059501 -0.850023
vn -0.437600 0.449989 -0.778470
vn -0.437600 0.449989 -0.778470
vn -0.437600 0.449989 -0.778470
vn -0.437600 0.449989 -0.778470
vn -0.685704 0.611069 -0.395481
vn -0.685704 0.611069 -0.395481
vn -0.685704 0.611069 -0.395481
vn -0.685704 0.611069 -0.395481
vn -0.151437 0.014772 -0.988357
vn -0.151437 0.014772 -0.988357
vn -0.151437 0.014772 -0.988357
vn -0.151437 0.014772 -0.988357
vn 0.435314 0.004439 -0.900268
vn 0.435314 0.004439 -0.900268
vn 0.435314 0.004439 -0.900268
vn 0.435314 0.004439 -0.900268
vn 0.227087 0.397146 -0.889217
vn 0.227087 0.397146 -0.889217
vn 0.227087 0.397146 -0.889217
vn 0.227087 0.397146 -0.889217
vn -0.237301 0.404330 -0.883292
vn -0.237301 0.404330 -0.883292
vn -0.237301 0.404330 -0.883292
vn -0.237301 0.404330 -0.883292
vn 0.994661 0.062574 -0.082057
vn 0.994661 0.062574 -0.082057
vn 0.994661 0.062574 -0.082057
vn 0.994661 0.062574 -0.082057
vn 0.995308 0.062876 -0.073549
vn 0.995308 0.062876 -0.073549
vn 0.995986 0.052639 0.072402
vn 0.995986 0.052639 0.072402
vn 0.995986 0.052639 0.072402
vn 0.995986 0.052639 0.072402
vn 0.831979 0.489916 0.260371
vn 0.831979 0.489916 0.260371
vn 0.831979 0.489916 0.260371
vn 0.831979 0.489916 0.260371
vn 0.873252 0.487159 0.010365
vn 0.873252 0.487159 0.010365
vn 0.873252 0.487159 0.010365
vn 0.873252 0.487159 0.010365
vn 0.692788 0.007007 0.721108
vn 0.692788 0.007007 0.721108
vn 0.692788 0.007007 0.721108
vn 0.692788 0.007007 0.721108
vn -0.222376 0.024011 0.974665
vn -0.222376 0.024011 0.974665
vn -0.222376 0.024011 0.974665
vn -0.222376 0.024011 0.974665
vn -0.309285 0.562015 0.767126
vn -0.309285 0.562015 0.767126
vn -0.309285 0.562015 0.767126
vn -0.309285 0.562015 0.767126
vn 0.350574 0.594925 0.723300
vn 0.350574 0.594925 0.723300
vn 0.350574 0.594925 0.723300
vn 0.350574 0.594925 0.723300
vn -0.765536 -0.632334 0.118777
vn -0.765536 -0.632334 0.118777
vn -0.765536 -0.632334 0.118777
vn -0.765536 -0.632334 0.118777
vn -0.504664 -0.858775 0.088430
vn -0.504664 -0.858775 0.088430
vn -0.504664 -0.858775 0.088430
vn -0.504664 -0.858775 0.088430
vn -0.775319 -0.631570 -0.000482
vn -0.775319 -0.631570 -0.000482
vn -0.775319 -0.631570 -0.000482
vn -0.775319 -0.631570 -0.000482
vn -0.127941 0.957003 0.260339
vn -0.127941 0.957003 0.260339
vn -0.127941 0.957003 0.260339
vn -0.127941 0.957003 0.260339
vn -0.015587 0.855753 0.517150
vn -0.015587 0.855753 0.517150
vn -0.015587 0.855753 0.517150
vn -0.015587 0.855753 0.517150
vn -0.338254 0.750023 0.568375
vn -0.338254 0.750023 0.568375
vn -0.338254 0.750023 0.568375
vn -0.338254 0.750023 0.568375
vn -0.443320 0.842078 0.307200
vn -0.443320 0.842078 0.307200
vn -0.443320 0.842078 0.307200
vn -0.443320 0.842078 0.307200
vn 0.978048 0.207727 -0.016455
vn 0.978048 0.207727 -0.016455
vn 0.978048 0.207727 -0.016455
vn 0.978048 0.207727 -0.016455
vn 0.895544 0.201791 -0.396587
vn 0.895544 0.201791 -0.396587
vn 0.895544 0.201791 -0.396587
vn 0.895544 0.201791 -0.396587
vn 0.839466 0.430294 -0.331880
vn 0.839466 0.430294 -0.331880
vn 0.839466 0.430294 -0.331880
vn 0.839466 0.430294 -0.331880
vn 0.916197 0.400482 -0.014023
vn 0.916197 0.400482 -0.014023
vn 0.916197 0.400482 -0.014023
vn 0.916197 0.400482 -0.014023
vn 0.907618 0.419776 0.004202
vn 0.907618 0.419776 0.004202
vn 0.907618 0.419776 0.004202
vn 0.907618 0.419776 0.004202
vn -0.511494 -0.859287 -0.000759
vn -0.511494 -0.859287 -0.000759
vn -0.511494 -0.859287 -0.000759
vn -0.511494 -0.859287 -0.000759
vn 0.910536 0.408994 -0.060409
vn 0.910536 0.408994 -0.060409
vn 0.910536 0.408994 -0.060409
vn 0.910536 0.408994 -0.060409
vn 0.919623 0.388378 -0.058785
vn 0.919623 0.388378 -0.058785
vn 0.975430 0.209254 -0.068919
vn 0.975430 0.209254 -0.068919
vn 0.975430 0.209254 -0.068919
vn 0.975430 0.209254 -0.068919
vn 0.976074 0.207085 -0.066299
vn 0.976074 0.207085 -0.066299
vn 0.614241 0.559331 0.556648
vn 0.614241 0.559331 0.556648
vn 0.614241 0.559331 0.556648
vn 0.614241 0.559331 0.556648
vn 0.285784 0.878236 0.383445
vn 0.285784 0.878236 0.383445
vn 0.285784 0.878236 0.383445
vn 0.285784 0.878236 0.383445
vn 0.057849 -0.713522 0.698241
vn 0.057849 -0.713522 0.698241
vn 0.057849 -0.713522 0.698241
vn 0.057849 -0.713522 0.698241
vn 0.021140 -0.654810 0.755498
vn 0.021140 -0.654810 0.755498
vn 0.021140 -0.654810 0.755498
vn 0.021140 -0.654810 0.755498
vn 0.016145 -0.458510 -0.888542
vn 0.016145 -0.458510 -0.888542
vn 0.016145 -0.458510 -0.888542
vn 0.016145 -0.458510 -0.888542
vn 0.036434 -0.511436 -0.858549
vn 0.036434 -0.511436 -0.858549
vn 0.036434 -0.511436 -0.858549
vn 0.036434 -0.511436 -0.858549
vn 0.176990 0.791833 -0.584530
vn 0.176990 0.791833 -0.584530
vn 0.176990 0.791833 -0.584530
vn 0.176990 0.791833 -0.584530
vn 0.385443 0.494157 -0.779258
vn 0.385443 0.494157 -0.779258
vn 0.385443 0.494157 -0.779258
vn 0.385443 0.494157 -0.779258
vn 0.668744 0.741752 -0.050853
vn 0.668744 0.741752 -0.050853
vn 0.668744 0.741752 -0.050853
vn 0.668744 0.741752 -0.050853
vn 0.160220 0.986686 -0.027934
vn 0.160220 0.986686 -0.027934
vn 0.160220 0.986686 -0.027934
vn 0.160220 0.986686 -0.027934
vn 0.274224 0.961646 0.006190
vn 0.274224 0.961646 0.006190
vn 0.274224 0.961646 0.006190
vn 0.274224 0.961646 0.006190
vn 0.707713 0.705969 0.027394
vn 0.707713 0.705969 0.027394
vn 0.707713 0.705969 0.027394
vn 0.707713 0.705969 0.027394
vn -0.208539 -0.928530 -0.307154
vn -0.208539 -0.928530 -0.307154
vn -0.208539 -0.928530 -0.307154
vn -0.208539 -0.928530 -0.307154
vn -0.033915 -0.950479 -0.308932
vn -0.033915 -0.950479 -0.308932
vn -0.033915 -0.950479 -0.308932
vn -0.033915 -0.950479 -0.308932
vn -0.080944 -0.735730 -0.672420
vn -0.080944 -0.735730 -0.672420
vn -0.080944 -0.735730 -0.672420
vn -0.080944 -0.735730 -0.672420
vn -0.104937 -0.870486 0.480877
vn -0.104937 -0.870486 0.480877
vn -0.104937 -0.870486 0.480877
vn -0.104937 -0.870486 0.480877
vn -0.028929 -0.970018 0.241307
vn -0.028929 -0.970018 0.241307
vn -0.028929 -0.970018 0.241307
vn -0.028929 -0.970018 0.241307
vn -0.203932 -0.946576 0.249813
vn -0.203932 -0.946576 0.249813
vn -0.203932 -0.946576 0.249813
vn -0.203932 -0.946576 0.249813
vn 0.977748 0.209732 0.004590
vn 0.977748 0.209732 0.004590
vn 0.977748 0.209732 0.004590
vn 0.977748 0.209732 0.004590
vn 0.041226 0.999150 0.000054
vn 0.062623 0.998015 -0.006727
vn 0.062623 0.998015 -0.006727
vn 0.041226 0.999150 0.000054
vn 0.041226 0.999150 0.000054
vn 0.041226 0.999150 0.000054
vn 0.064973 0.997862 0.007084
vn 0.064973 0.997862 0.007084
vn 0.574294 0.817980 -0.033094
vn 0.574294 0.817980 -0.033094
vn 0.574294 0.817980 -0.033094
vn 0.574294 0.817980 -0.033094
vn -0.702375 -0.604912 -0.375168
vn -0.702375 -0.604912 -0.375168
vn -0.702375 -0.604912 -0.375168
vn -0.702375 -0.604912 -0.375168
vn -0.455871 -0.829689 -0.322177
vn -0.455871 -0.829689 -0.322177
vn -0.455871 -0.829689 -0.322177
vn -0.455871 -0.829689 -0.322177
vn -0.280388 -0.637180 -0.717903
vn -0.280388 -0.637180 -0.717903
vn -0.280388 -0.637180 -0.717903
vn -0.280388 -0.637180 -0.717903
vn -0.435238 -0.415495 -0.798707
vn -0.435238 -0.415495 -0.798707
vn -0.435238 -0.415495 -0.798707
vn -0.435238 -0.415495 -0.798707
vn 0.404745 0.114679 -0.907210
vn 0.404745 0.114679 -0.907210
vn 0.404745 0.114679 -0.907210
vn 0.404745 0.114679 -0.907210
vn -0.114260 -0.147905 -0.982379
vn -0.114260 -0.147905 -0.982379
vn -0.114260 -0.147905 -0.982379
vn -0.114260 -0.147905 -0.982379
vn -0.073976 -0.305087 -0.949447
vn -0.073976 -0.305087 -0.949447
vn -0.073976 -0.305087 -0.949447
vn -0.073976 -0.305087 -0.949447
vn 0.410448 0.253202 -0.876026
vn 0.410448 0.253202 -0.876026
vn 0.410448 0.253202 -0.876026
vn 0.410448 0.253202 -0.876026
vn 0.535628 0.844452 0.001889
vn 0.535628 0.844452 0.001889
vn 0.535628 0.844452 0.001889
vn 0.535628 0.844452 0.001889
vn -0.176863 0.981940 0.067185
vn -0.176863 0.981940 0.067185
vn -0.176863 0.981940 0.067185
vn -0.176863 0.981940 0.067185
vn -0.499897 0.860837 0.095199
vn -0.499897 0.860837 0.095199
vn -0.499897 0.860837 0.095199
vn -0.499897 0.860837 0.095199
vn -0.185749 0.982597 -0.000618
vn -0.185749 0.982597 -0.000618
vn -0.185749 0.982597 -0.000618
vn -0.185749 0.982597 -0.000618
vn -0.509344 0.860562 -0.000972
vn -0.509344 0.860562 -0.000972
vn -0.509344 0.860562 -0.000972
vn -0.509344 0.860562 -0.000972
vn 0.868245 0.493946 -0.046567
vn 0.868245 0.493946 -0.046567
vn 0.868245 0.493946 -0.046567
vn 0.868245 0.493946 -0.046567
vn 0.998006 0.062953 0.004520
vn 0.998006 0.062953 0.004520
vn 0.998006 0.062953 0.004520
vn 0.998006 0.062953 0.004520
vn -0.655852 0.077416 0.750909
vn -0.655852 0.077416 0.750909
vn -0.655852 0.077416 0.750909
vn -0.655852 0.077416 0.750909
vn -0.901368 0.101460 0.421001
vn -0.901368 0.101460 0.421001
vn -0.901368 0.101460 0.421001
vn -0.901368 0.101460 0.421001
vn -0.687422 0.629366 0.362423
vn -0.687422 0.629366 0.362423
vn -0.687422 0.629366 0.362423
vn -0.687422 0.629366 0.362423
vn -0.520966 0.557286 0.646550
vn -0.520966 0.557286 0.646550
vn -0.520966 0.557286 0.646550
vn -0.520966 0.557286 0.646550
vn 0.930229 0.048558 -0.363754
vn 0.930229 0.048558 -0.363754
vn 0.930229 0.048558 -0.363754
vn 0.930229 0.048558 -0.363754
vn 0.998024 0.062795 0.002315
vn 0.998024 0.062795 0.002315
vn 0.998024 0.062795 0.002315
vn 0.998024 0.062795 0.002315
vn 0.867092 0.486704 -0.106163
vn 0.867092 0.486704 -0.106163
vn 0.867092 0.486704 -0.106163
vn 0.867092 0.486704 -0.106163
vn 0.710124 0.415098 -0.568698
vn 0.710124 0.415098 -0.568698
vn 0.710124 0.415098 -0.568698
vn 0.710124 0.415098 -0.568698
vn -0.021786 0.696961 -0.716778
vn -0.021786 0.696961 -0.716778
vn -0.021786 0.696961 -0.716778
vn -0.021786 0.696961 -0.716778
vn -0.140522 0.936184 -0.322201
vn -0.140522 0.936184 -0.322201
vn -0.140522 0.936184 -0.322201
vn -0.140522 0.936184 -0.322201
vn -0.449112 0.821907 -0.350382
vn -0.449112 0.821907 -0.350382
vn -0.449112 0.821907 -0.350382
vn -0.449112 0.821907 -0.350382
vn -0.293509 0.620080 -0.727567
vn -0.293509 0.620080 -0.727567
vn -0.293509 0.620080 -0.727567
vn -0.293509 0.620080 -0.727567
vn -0.162687 -0.239756 0.957105
vn -0.162687 -0.239756 0.957105
vn -0.162687 -0.239756 0.957105
vn -0.162687 -0.239756 0.957105
vn 0.648835 0.181985 0.738847
vn 0.648835 0.181985 0.738847
vn 0.648835 0.181985 0.738847
vn 0.648835 0.181985 0.738847
vn 0.648769 0.342448 0.679580
vn 0.648769 0.342448 0.679580
vn 0.648769 0.342448 0.679580
vn 0.648769 0.342448 0.679580
vn -0.105861 -0.459630 0.881779
vn -0.105861 -0.459630 0.881779
vn -0.105861 -0.459630 0.881779
vn -0.105861 -0.459630 0.881779
vn 0.595626 0.789656 -0.147221
vn 0.595626 0.789656 -0.147221
vn 0.595626 0.789656 -0.147221
vn 0.595626 0.789656 -0.147221
vn 0.193438 0.980876 -0.021553
vn 0.193438 0.980876 -0.021553
vn 0.193438 0.980876 -0.021553
vn 0.193438 0.980876 -0.021553
vn 0.142275 0.989290 0.032619
vn 0.142275 0.989290 0.032619
vn 0.142275 0.989290 0.032619
vn 0.142275 0.989290 0.032619
vn 0.636546 0.770980 0.019986
vn 0.636546 0.770980 0.019986
vn 0.636546 0.770980 0.019986
vn 0.636546 0.770980 0.019986
vn -0.058383 -0.998294 -0.000039
vn -0.058383 -0.998294 -0.000039
vn -0.058383 -0.998294 -0.000039
vn -0.058383 -0.998294 -0.000039
vn 0.868898 0.494978 0.003694
vn 0.868898 0.494978 0.003694
vn 0.868898 0.494978 0.003694
vn 0.868898 0.494978 0.003694
vn 0.866755 0.497100 0.040339
vn 0.866755 0.497100 0.040339
vn -0.057230 -0.996710 -0.057387
vn -0.057230 -0.996710 -0.057387
vn -0.057230 -0.996710 -0.057387
vn -0.057230 -0.996710 -0.057387
vn -0.257453 -0.963885 -0.068152
vn -0.257453 -0.963885 -0.068152
vn -0.257453 -0.963885 -0.068152
vn -0.257453 -0.963885 -0.068152
vn 0.970083 0.221170 0.100113
vn 0.970083 0.221170 0.100113
vn 0.970083 0.221170 0.100113
vn 0.970083 0.221170 0.100113
vn 0.906941 0.414583 0.074698
vn 0.906941 0.414583 0.074698
vn 0.906941 0.414583 0.074698
vn 0.906941 0.414583 0.074698
vn -0.258808 -0.965929 -0.000419
vn -0.258808 -0.965929 -0.000419
vn -0.258808 -0.965929 -0.000419
vn -0.258808 -0.965929 -0.000419
vn -0.983385 0.104727 -0.148277
vn -0.983385 0.104727 -0.148277
vn -0.983385 0.104727 -0.148277
vn -0.983385 0.104727 -0.148277
vn -0.753283 0.646127 -0.122822
vn -0.753283 0.646127 -0.122822
vn -0.753283 0.646127 -0.122822
vn -0.753283 0.646127 -0.122822
vn -0.994529 0.104460 -0.000226
vn -0.994529 0.104460 -0.000226
vn -0.994529 0.104460 -0.000226
vn -0.994529 0.104460 -0.000226
vn -0.703083 -0.620811 0.346797
vn -0.703083 -0.620811 0.346797
vn -0.703083 -0.620811 0.346797
vn -0.703083 -0.620811 0.346797
vn -0.525893 -0.522622 0.671046
vn -0.525893 -0.522622 0.671046
vn -0.525893 -0.522622 0.671046
vn -0.525893 -0.522622 0.671046
vn -0.333095 -0.760005 0.558069
vn -0.333095 -0.760005 0.558069
vn -0.333095 -0.760005 0.558069
vn -0.333095 -0.760005 0.558069
vn -0.452991 -0.845297 0.283325
vn -0.452991 -0.845297 0.283325
vn -0.452991 -0.845297 0.283325
vn -0.452991 -0.845297 0.283325
vn -0.983456 0.104554 0.147926
vn -0.983456 0.104554 0.147926
vn -0.983456 0.104554 0.147926
vn -0.983456 0.104554 0.147926
vn -0.753735 0.645829 0.121609
vn -0.753735 0.645829 0.121609
vn -0.753735 0.645829 0.121609
vn -0.753735 0.645829 0.121609
vn -0.254274 -0.964968 0.064661
vn -0.254274 -0.964968 0.064661
vn -0.254274 -0.964968 0.064661
vn -0.254274 -0.964968 0.064661
vn -0.055569 -0.997030 0.053326
vn -0.055569 -0.997030 0.053326
vn -0.055569 -0.997030 0.053326
vn -0.055569 -0.997030 0.053326
vn 0.995630 0.063324 0.068630
vn 0.995630 0.063324 0.068630
vn 0.995630 0.063324 0.068630
vn 0.995630 0.063324 0.068630
vn -0.179013 0.981267 -0.071199
vn -0.179013 0.981267 -0.071199
vn -0.179013 0.981267 -0.071199
vn -0.179013 0.981267 -0.071199
vn -0.500062 0.860473 -0.097593
vn -0.500062 0.860473 -0.097593
vn -0.500062 0.860473 -0.097593
vn -0.500062 0.860473 -0.097593
vn 0.585544 0.810013 0.031905
vn 0.585544 0.810013 0.031905
vn 0.585544 0.810013 0.031905
vn 0.585544 0.810013 0.031905
vn 0.975451 0.210730 0.063945
vn 0.975451 0.210730 0.063945
vn 0.975451 0.210730 0.063945
vn 0.975451 0.210730 0.063945
vn 0.911911 0.406513 0.056261
vn 0.911911 0.406513 0.056261
vn 0.911911 0.406513 0.056261
vn 0.911911 0.406513 0.056261
vn -0.765024 -0.632825 -0.119463
vn -0.765024 -0.632825 -0.119463
vn -0.765024 -0.632825 -0.119463
vn -0.765024 -0.632825 -0.119463
vn -0.505666 -0.857978 -0.090416
vn -0.505666 -0.857978 -0.090416
vn -0.505666 -0.857978 -0.090416
vn -0.505666 -0.857978 -0.090416
vn 0.763720 0.645548 -0.000559
vn 0.763720 0.645548 -0.000559
vn 0.763720 0.645548 -0.000559
vn 0.763720 0.645548 -0.000559
g Hotdog_Bun_LightYellow
usemtl LightYellow
f 1 2 3
f 1 3 4
f 5 6 7
f 5 7 8
f 9 10 11
f 9 11 12
f 13 14 15
f 13 15 16
f 17 18 19
f 17 19 20
f 21 22 23
f 21 23 24
f 25 26 27
f 25 27 28
f 29 30 31
f 29 31 32
f 33 34 35
f 33 36 34
f 37 34 36
f 37 38 34
f 39 40 41
f 39 41 42
f 43 44 45
f 43 45 46
f 47 48 49
f 47 49 50
f 51 52 53
f 51 53 54
f 55 56 57
f 55 57 58
f 59 60 61
f 59 61 62
f 63 64 65
f 63 65 66
f 67 68 69
f 67 69 70
f 71 72 73
f 71 73 74
f 75 76 77
f 75 77 78
f 79 80 81
f 79 81 82
f 83 84 85
f 83 85 86
f 87 88 89
f 87 89 90
f 91 92 93
f 91 93 94
f 95 96 97
f 95 97 98
f 99 100 101
f 99 101 102
f 103 104 105
f 103 105 106
f 107 108 109
f 107 109 110
f 111 112 113
f 111 113 114
f 115 116 117
f 115 117 118
f 119 120 121
f 119 122 120
f 123 120 122
f 123 124 120
f 125 126 127
f 125 127 128
f 129 128 127
f 129 127 130
f 131 132 133
f 131 133 134
f 135 136 137
f 135 137 138
f 139 140 141
f 139 141 142
f 143 144 145
f 143 145 146
f 147 148 149
f 147 149 150
f 151 152 153
f 151 153 154
f 155 156 157
f 155 157 158
f 159 160 161
f 159 161 162
f 163 164 165
f 163 165 166
f 167 168 169
f 167 169 170
f 171 172 173
f 171 173 174
f 175 176 177
f 175 177 178
f 179 180 181
f 179 181 182
f 183 184 185
f 183 185 186
f 187 188 189
f 187 189 190
f 191 192 193
f 191 194 192
f 195 192 194
f 195 196 192
f 197 198 199
f 197 199 200
f 201 202 203
f 201 203 204
f 205 206 207
f 205 207 208
f 209 210 211
f 209 211 212
f 213 214 215
f 213 215 216
f 217 216 215
f 217 215 218
f 219 220 221
f 219 221 222
f 223 224 225
f 223 226 224
f 227 226 223
f 227 228 226
f 227 229 228
f 227 230 229
f 231 232 233
f 231 233 234
f 235 236 237
f 235 237 238
f 239 240 241
f 239 241 242
f 243 244 245
f 243 245 246
f 247 248 249
f 247 249 250
f 251 252 253
f 251 253 254
f 255 256 257
f 255 257 258
f 259 260 261
f 259 261 262
f 263 264 265
f 263 265 266
f 267 268 269
f 267 269 270
f 271 272 273
f 271 273 274
f 275 276 277
f 275 277 278
f 279 280 281
f 279 281 282
f 283 284 285
f 283 285 286
f 287 288 289
f 287 289 290
f 291 292 293
f 291 293 294
f 295 296 297
f 295 297 298
f 299 300 301
f 299 301 302
f 303 304 305
f 303 305 306
f 307 308 309
f 307 309 310
f 311 312 313
f 311 313 314
f 315 316 317
f 315 317 318
f 319 320 321
f 319 321 322
f 323 324 325
f 323 325 326
f 327 328 329
f 327 329 330
f 331 332 333
f 331 333 334
f 335 336 337
f 335 337 338
f 339 340 341
f 339 341 342
f 343 344 345
f 343 345 346
f 347 348 349
f 347 349 350
f 351 352 353
f 351 353 354
f 355 356 357
f 355 357 358
f 359 360 361
f 359 361 362
f 363 364 365
f 363 365 366
f 367 368 369
f 367 369 370
f 371 372 373
f 371 373 374
f 375 376 377
f 375 377 378
f 379 380 381
f 379 381 382
f 383 384 385
f 383 385 386
f 387 388 389
f 387 389 390
f 387 390 391
f 387 391 392
f 393 394 395
f 393 395 396
f 397 398 399
f 397 399 400
f 401 402 403
f 401 403 404
f 405 406 407
f 405 407 408
f 409 410 411
f 409 411 412
f 413 414 415
f 413 415 416
f 417 418 419
f 417 419 420
f 421 422 423
f 421 423 424
f 425 426 427
f 425 427 428
f 429 430 431
f 429 431 432
f 433 434 435
f 433 435 436
f 437 438 439
f 437 439 440
f 441 442 443
f 441 443 444
f 445 446 447
f 445 447 448
f 449 450 451
f 449 451 452
f 453 454 455
f 453 455 456
f 457 458 459
f 457 459 460
f 461 462 463
f 461 463 464
f 465 466 467
f 465 467 468
f 469 470 471
f 469 471 472
f 473 474 475
f 473 475 476
f 477 478 479
f 477 479 480
f 481 482 483
f 481 483 484
f 485 486 487
f 485 487 488
f 489 490 491
f 489 491 492
f 493 494 495
f 493 495 496
f 497 498 499
f 497 499 500
f 501 502 503
f 501 503 504
f 505 506 507
f 505 507 508
f 509 510 511
f 509 511 512
f 513 514 515
f 513 515 516
f 517 516 515
f 517 515 518
f 519 520 521
f 519 521 522
f 523 524 525
f 523 525 526
f 527 528 529
f 527 529 530
f 531 532 533
f 531 533 534
f 535 536 537
f 535 537 538
f 539 540 541
f 539 541 542
f 543 544 545
f 543 545 546
f 547 548 549
f 547 549 550
f 551 552 553
f 551 553 554
f 555 556 557
f 555 557 558
f 559 560 561
f 559 561 562
f 563 564 565
f 563 565 566
f 567 568 569
f 567 569 570
f 571 572 573
f 571 573 574
f 575 576 577
f 575 577 578
f 579 580 581
f 579 581 582
f 583 584 585
f 583 585 586
f 587 588 589
f 587 589 590
f 591 592 593
f 591 593 594
f 595 596 597
f 595 597 598
f 599 600 601
f 599 602 600
f 603 600 602
f 603 604 600
f 605 606 607
f 605 607 608
f 609 608 607
f 609 607 610
f 611 612 613
f 611 613 614
f 615 616 617
f 615 617 618
f 619 620 621
f 619 621 622
f 623 624 625
f 623 625 626
f 627 628 629
f 627 629 630
f 631 632 633
f 631 633 634
f 635 636 637
f 635 637 638
f 639 640 641
f 639 641 642
f 643 644 645
f 643 645 646
f 647 648 649
f 647 649 650
f 651 652 653
f 651 653 654
f 655 656 657
f 655 657 658
f 659 660 661
f 659 661 662
f 663 664 665
f 663 665 666
f 667 668 669
f 667 669 670
f 671 672 673
f 671 673 674
f 675 676 677
f 675 677 678
f 679 680 681
f 679 681 682
f 683 684 685
f 683 685 686
f 687 688 689
f 687 689 690
f 691 687 690
f 691 690 692
f 691 692 693
f 691 693 694
f 695 696 697
f 695 697 698
f 699 700 701
f 699 701 702
f 703 704 705
f 703 705 706
f 707 708 709
f 707 709 710
f 711 712 713
f 711 713 714
f 715 716 717
f 715 717 718
f 719 720 721
f 719 721 722
f 723 724 725
f 723 725 726
f 727 728 729
f 727 729 730
f 731 732 733
f 731 733 734
f 735 736 737
f 735 737 738
f 739 740 741
f 739 741 742
f 743 744 745
f 743 745 746
f 747 748 749
f 747 749 750
f 751 752 753
f 751 753 754
f 755 756 757
f 755 757 758
f 759 760 761
f 759 761 762
f 763 764 765
f 763 765 766
f 767 768 769
f 767 769 770
f 771 772 773
f 771 773 774
f 775 776 777
f 775 777 778
f 779 780 781
f 779 781 782
f 783 784 785
f 783 785 786
f 787 788 789
f 787 789 790
f 791 792 793
f 791 793 794
f 795 796 797
f 795 797 798
f 799 800 801
f 799 801 802
f 803 804 805
f 803 805 806
f 807 808 809
f 807 809 810
f 811 812 813
f 811 813 814
f 815 816 817
f 815 817 818
f 819 820 821
f 819 821 822
f 823 824 825
f 823 825 826
f 827 828 829
f 827 829 830
f 831 832 833
f 831 833 834
f 835 836 837
f 835 837 838
f 839 840 841
f 839 841 842
f 843 844 845
f 843 846 844
f 843 847 846
f 843 848 847
f 849 850 851
f 849 851 852
f 853 854 855
f 853 855 856
f 857 858 859
f 857 859 860
f 861 862 863
f 861 863 864
f 865 866 867
f 865 867 868
f 869 870 871
f 869 871 872
f 873 874 875
f 873 875 876
f 877 878 879
f 877 879 880
f 881 882 883
f 881 883 884
f 885 886 887
f 885 887 888
f 889 890 891
f 889 891 892
f 893 894 895
f 893 895 896
f 897 898 899
f 897 899 900
f 901 902 903
f 901 903 904
f 905 906 907
f 905 907 908
f 909 910 911
f 909 911 912
f 913 914 915
f 913 915 916
f 917 918 919
f 917 919 920
f 921 922 923
f 921 923 924
f 925 926 927
f 925 927 928
f 929 930 931
f 929 931 932
f 933 934 935
f 933 935 936
f 937 938 939
f 937 939 940
f 941 942 943
f 941 943 944
f 945 946 947
f 945 947 948
