mtllib Materials.mtl
# Ultimate Food Pack - IceCream_1
o IceCream_1
v -0.252863 0.455186 0.035344
v -0.166337 0.540489 0.224297
v -0.276220 0.540489 0.040984
v -0.153809 0.455186 0.203793
v -0.229872 0.369882 0.026532
v -0.143783 0.369882 0.181305
v -0.206854 0.284578 0.016036
v -0.134929 0.284578 0.157607
v -0.183478 0.199274 0.005174
v -0.126080 0.199274 0.133398
v 0.203793 0.455186 0.153809
v 0.276220 0.540489 -0.040984
v 0.224297 0.540489 0.166337
v 0.252863 0.455186 -0.035344
v 0.181305 0.369882 0.143783
v 0.229872 0.369882 -0.026532
v 0.157607 0.284578 0.134929
v 0.206854 0.284578 -0.016036
v 0.133398 0.199274 0.126080
v 0.183478 0.199274 -0.005174
v 0.252863 0.455186 -0.035344
v 0.166337 0.540489 -0.224297
v 0.276220 0.540489 -0.040984
v 0.153809 0.455186 -0.203793
v 0.229872 0.369882 -0.026532
v 0.143783 0.369882 -0.181305
v 0.206854 0.284578 -0.016036
v 0.134929 0.284578 -0.157607
v 0.183478 0.199274 -0.005174
v 0.126080 0.199274 -0.133398
v 0.153809 0.455186 -0.203793
v -0.040984 0.540489 -0.276220
v 0.166337 0.540489 -0.224297
v -0.035344 0.455186 -0.252863
v 0.143783 0.369882 -0.181305
v -0.026532 0.369882 -0.229872
v 0.134929 0.284578 -0.157607
v -0.016036 0.284578 -0.206854
v 0.126080 0.199274 -0.133398
v -0.005174 0.199274 -0.183478
v -0.035344 0.455186 -0.252863
v -0.224297 0.540489 -0.166337
v -0.040984 0.540489 -0.276220
v -0.203793 0.455186 -0.153809
v -0.026532 0.369882 -0.229872
v -0.181305 0.369882 -0.143783
v -0.016036 0.284578 -0.206854
v -0.157607 0.284578 -0.134929
v -0.005174 0.199274 -0.183478
v -0.133398 0.199274 -0.126080
v -0.203793 0.455186 -0.153809
v -0.276220 0.540489 0.040984
v -0.224297 0.540489 -0.166337
v -0.252863 0.455186 0.035344
v -0.181305 0.369882 -0.143783
v -0.229872 0.369882 0.026532
v -0.157607 0.284578 -0.134929
v -0.206854 0.284578 0.016036
v -0.133398 0.199274 -0.126080
v -0.183478 0.199274 0.005174
v -0.224297 0.540489 -0.166337
v -0.276220 0.540489 0.040984
v -0.166337 0.540489 0.224297
v -0.040984 0.540489 -0.276220
v 0.040984 0.540489 0.276220
v 0.166337 0.540489 -0.224297
v 0.224297 0.540489 0.166337
v 0.276220 0.540489 -0.040984
v 0.035344 0.455186 0.252863
v 0.224297 0.540489 0.166337
v 0.040984 0.540489 0.276220
v 0.203793 0.455186 0.153809
v 0.026532 0.369882 0.229872
v 0.181305 0.369882 0.143783
v 0.016036 0.284578 0.206854
v 0.157607 0.284578 0.134929
v 0.005174 0.199274 0.183478
v 0.133398 0.199274 0.126080
v -0.153809 0.455186 0.203793
v 0.040984 0.540489 0.276220
v -0.166337 0.540489 0.224297
v 0.035344 0.455186 0.252863
v -0.143783 0.369882 0.181305
v 0.026532 0.369882 0.229872
v -0.134929 0.284578 0.157607
v 0.016036 0.284578 0.206854
v -0.126080 0.199274 0.133398
v 0.005174 0.199274 0.183478
v -0.057238 -0.227245 0.028487
v -0.025203 -0.260483 0.011466
v -0.009714 -0.260483 0.025929
v -0.020330 -0.227245 0.060617
v -0.020330 -0.227245 0.060617
v -0.009714 -0.260483 0.025929
v 0.011466 -0.260483 0.025203
v 0.028487 -0.227245 0.057238
v 0.028487 -0.227245 0.057238
v 0.011466 -0.260483 0.025203
v 0.025929 -0.260483 0.009714
v 0.060617 -0.227245 0.020330
v 0.060617 -0.227245 0.020330
v 0.025929 -0.260483 0.009714
v 0.025203 -0.260483 -0.011466
v 0.057238 -0.227245 -0.028487
v 0.057238 -0.227245 -0.028487
v 0.025203 -0.260483 -0.011466
v 0.009714 -0.260483 -0.025929
v 0.020330 -0.227245 -0.060617
v 0.020330 -0.227245 -0.060617
v 0.009714 -0.260483 -0.025929
v -0.011466 -0.260483 -0.025203
v -0.028487 -0.227245 -0.057238
v -0.028487 -0.227245 -0.057238
v -0.011466 -0.260483 -0.025203
v -0.025929 -0.260483 -0.009714
v -0.060617 -0.227245 -0.020330
v -0.060617 -0.227245 -0.020330
v -0.025929 -0.260483 -0.009714
v -0.025203 -0.260483 0.011466
v -0.057238 -0.227245 0.028487
v -0.025203 -0.260483 0.011466
v -0.025929 -0.260483 -0.009714
v -0.011466 -0.260483 -0.025203
v -0.009714 -0.260483 0.025929
v 0.009714 -0.260483 -0.025929
v 0.011466 -0.260483 0.025203
v 0.025203 -0.260483 -0.011466
v 0.025929 -0.260483 0.009714
v -0.057238 -0.227245 0.028487
v -0.020330 -0.227245 0.060617
v -0.021365 -0.141941 0.085221
v -0.075368 -0.141941 0.045153
v -0.075368 -0.141941 0.045153
v -0.021365 -0.141941 0.085221
v -0.018859 -0.056637 0.110180
v -0.091244 -0.056637 0.064574
v -0.091244 -0.056637 0.064574
v -0.018859 -0.056637 0.110180
v -0.013171 0.028666 0.135064
v -0.104818 0.028666 0.086192
v -0.104818 0.028666 0.086192
v -0.013171 0.028666 0.135064
v -0.004892 0.113970 0.159553
v -0.116280 0.113970 0.109362
v -0.116280 0.113970 0.109362
v -0.004892 0.113970 0.159553
v 0.005174 0.199274 0.183478
v -0.126080 0.199274 0.133398
v -0.020330 -0.227245 0.060617
v 0.028487 -0.227245 0.057238
v 0.045153 -0.141941 0.075368
v -0.021365 -0.141941 0.085221
v -0.021365 -0.141941 0.085221
v 0.045153 -0.141941 0.075368
v 0.064574 -0.056637 0.091244
v -0.018859 -0.056637 0.110180
v -0.018859 -0.056637 0.110180
v 0.064574 -0.056637 0.091244
v 0.086192 0.028666 0.104818
v -0.013171 0.028666 0.135064
v -0.013171 0.028666 0.135064
v 0.086192 0.028666 0.104818
v 0.109362 0.113970 0.116280
v -0.004892 0.113970 0.159553
v -0.004892 0.113970 0.159553
v 0.109362 0.113970 0.116280
v 0.133398 0.199274 0.126080
v 0.005174 0.199274 0.183478
v -0.028487 -0.227245 -0.057238
v -0.060617 -0.227245 -0.020330
v -0.085221 -0.141941 -0.021365
v -0.045153 -0.141941 -0.075368
v -0.045153 -0.141941 -0.075368
v -0.085221 -0.141941 -0.021365
v -0.110180 -0.056637 -0.018859
v -0.064574 -0.056638 -0.091244
v -0.064574 -0.056638 -0.091244
v -0.110180 -0.056637 -0.018859
v -0.135064 0.028666 -0.013171
v -0.086192 0.028666 -0.104818
v -0.086192 0.028666 -0.104818
v -0.135064 0.028666 -0.013171
v -0.159553 0.113970 -0.004892
v -0.109362 0.113970 -0.116280
v -0.109362 0.113970 -0.116280
v -0.159553 0.113970 -0.004892
v -0.183478 0.199274 0.005174
v -0.133398 0.199274 -0.126080
v 0.020330 -0.227245 -0.060617
v -0.028487 -0.227245 -0.057238
v -0.045153 -0.141941 -0.075368
v 0.021365 -0.141941 -0.085221
v 0.021365 -0.141941 -0.085221
v -0.045153 -0.141941 -0.075368
v -0.064574 -0.056638 -0.091244
v 0.018859 -0.056638 -0.110180
v 0.018859 -0.056638 -0.110180
v -0.064574 -0.056638 -0.091244
v -0.086192 0.028666 -0.104818
v 0.013171 0.028666 -0.135064
v 0.013171 0.028666 -0.135064
v -0.086192 0.028666 -0.104818
v -0.109362 0.113970 -0.116280
v 0.004892 0.113970 -0.159553
v 0.004892 0.113970 -0.159553
v -0.109362 0.113970 -0.116280
v -0.133398 0.199274 -0.126080
v -0.005174 0.199274 -0.183478
v 0.057238 -0.227245 -0.028487
v 0.020330 -0.227245 -0.060617
v 0.021365 -0.141941 -0.085221
v 0.075368 -0.141941 -0.045153
v 0.075368 -0.141941 -0.045153
v 0.021365 -0.141941 -0.085221
v 0.018859 -0.056638 -0.110180
v 0.091244 -0.056638 -0.064574
v 0.091244 -0.056638 -0.064574
v 0.018859 -0.056638 -0.110180
v 0.013171 0.028666 -0.135064
v 0.104818 0.028666 -0.086192
v 0.104818 0.028666 -0.086192
v 0.013171 0.028666 -0.135064
v 0.004892 0.113970 -0.159553
v 0.116280 0.113970 -0.109362
v 0.116280 0.113970 -0.109362
v 0.004892 0.113970 -0.159553
v -0.005174 0.199274 -0.183478
v 0.126080 0.199274 -0.133398
v 0.060617 -0.227245 0.020330
v 0.057238 -0.227245 -0.028487
v 0.075368 -0.141941 -0.045153
v 0.085221 -0.141941 0.021365
v 0.085221 -0.141941 0.021365
v 0.075368 -0.141941 -0.045153
v 0.091244 -0.056638 -0.064574
v 0.110180 -0.056637 0.018859
v 0.110180 -0.056637 0.018859
v 0.091244 -0.056638 -0.064574
v 0.104818 0.028666 -0.086192
v 0.135064 0.028666 0.013171
v 0.135064 0.028666 0.013171
v 0.104818 0.028666 -0.086192
v 0.116280 0.113970 -0.109362
v 0.159553 0.113970 0.004892
v 0.159553 0.113970 0.004892
v 0.116280 0.113970 -0.109362
v 0.126080 0.199274 -0.133398
v 0.183478 0.199274 -0.005174
v 0.028487 -0.227245 0.057238
v 0.060617 -0.227245 0.020330
v 0.085221 -0.141941 0.021365
v 0.045153 -0.141941 0.075368
v 0.045153 -0.141941 0.075368
v 0.085221 -0.141941 0.021365
v 0.110180 -0.056637 0.018859
v 0.064574 -0.056637 0.091244
v 0.064574 -0.056637 0.091244
v 0.110180 -0.056637 0.018859
v 0.135064 0.028666 0.013171
v 0.086192 0.028666 0.104818
v 0.086192 0.028666 0.104818
v 0.135064 0.028666 0.013171
v 0.159553 0.113970 0.004892
v 0.109362 0.113970 0.116280
v 0.109362 0.113970 0.116280
v 0.159553 0.113970 0.004892
v 0.183478 0.199274 -0.005174
v 0.133398 0.199274 0.126080
v -0.060617 -0.227245 -0.020330
v -0.057238 -0.227245 0.028487
v -0.075368 -0.141941 0.045153
v -0.085221 -0.141941 -0.021365
v -0.085221 -0.141941 -0.021365
v -0.075368 -0.141941 0.045153
v -0.091244 -0.056637 0.064574
v -0.110180 -0.056637 -0.018859
v -0.110180 -0.056637 -0.018859
v -0.091244 -0.056637 0.064574
v -0.104818 0.028666 0.086192
v -0.135064 0.028666 -0.013171
v -0.135064 0.028666 -0.013171
v -0.104818 0.028666 0.086192
v -0.116280 0.113970 0.109362
v -0.159553 0.113970 -0.004892
v -0.159553 0.113970 -0.004892
v -0.116280 0.113970 0.109362
v -0.126080 0.199274 0.133398
v -0.183478 0.199274 0.005174
v -0.103001 0.645654 -0.300719
v -0.117048 0.646860 -0.292691
v -0.110067 0.702992 -0.288908
v -0.096019 0.701786 -0.296935
v -0.117048 0.646860 -0.292691
v -0.109180 0.644934 -0.278634
v -0.102198 0.701066 -0.274850
v -0.110067 0.702992 -0.288908
v -0.109180 0.644934 -0.278634
v -0.095133 0.643728 -0.286662
v -0.088151 0.699860 -0.282878
v -0.102198 0.701066 -0.274850
v -0.095133 0.643728 -0.286662
v -0.103001 0.645654 -0.300719
v -0.096019 0.701786 -0.296935
v -0.088151 0.699860 -0.282878
v -0.117048 0.646860 -0.292691
v -0.103001 0.645654 -0.300719
v -0.095133 0.643728 -0.286662
v -0.109180 0.644934 -0.278634
v -0.102198 0.701066 -0.274850
v -0.088151 0.699860 -0.282878
v -0.096019 0.701786 -0.296935
v -0.110067 0.702992 -0.288908
v -0.285521 0.674526 -0.092301
v -0.285874 0.680622 -0.077270
v -0.274696 0.732216 -0.097932
v -0.274343 0.726120 -0.112963
v -0.285874 0.680622 -0.077270
v -0.269972 0.677787 -0.075747
v -0.258794 0.729381 -0.096409
v -0.274696 0.732216 -0.097932
v -0.269972 0.677787 -0.075747
v -0.269619 0.671691 -0.090778
v -0.258441 0.723285 -0.111440
v -0.258794 0.729381 -0.096409
v -0.269619 0.671691 -0.090778
v -0.285521 0.674526 -0.092301
v -0.274343 0.726120 -0.112963
v -0.258441 0.723285 -0.111440
v -0.285874 0.680622 -0.077270
v -0.285521 0.674526 -0.092301
v -0.269619 0.671691 -0.090778
v -0.269972 0.677787 -0.075747
v -0.258794 0.729381 -0.096409
v -0.258441 0.723285 -0.111440
v -0.274343 0.726120 -0.112963
v -0.274696 0.732216 -0.097932
v 0.155540 0.888055 -0.020802
v 0.166709 0.899186 -0.024622
v 0.128455 0.926776 -0.056075
v 0.117286 0.915646 -0.052254
v 0.166709 0.899186 -0.024622
v 0.171025 0.890412 -0.037569
v 0.132771 0.918002 -0.069021
v 0.128455 0.926776 -0.056075
v 0.171025 0.890412 -0.037569
v 0.159856 0.879281 -0.033748
v 0.121602 0.906871 -0.065201
v 0.132771 0.918002 -0.069021
v 0.159856 0.879281 -0.033748
v 0.155540 0.888055 -0.020802
v 0.117286 0.915646 -0.052254
v 0.121602 0.906871 -0.065201
v 0.166709 0.899186 -0.024622
v 0.155540 0.888055 -0.020802
v 0.159856 0.879281 -0.033748
v 0.171025 0.890412 -0.037569
v 0.132771 0.918002 -0.069021
v 0.121602 0.906871 -0.065201
v 0.117286 0.915646 -0.052254
v 0.128455 0.926776 -0.056075
v -0.069459 0.916941 -0.004679
v -0.075532 0.931982 -0.004332
v -0.075164 0.930822 0.052346
v -0.069091 0.915781 0.051999
v -0.075532 0.931982 -0.004332
v -0.090577 0.925908 -0.004358
v -0.090208 0.924747 0.052319
v -0.075164 0.930822 0.052346
v -0.090577 0.925908 -0.004358
v -0.084503 0.910867 -0.004706
v -0.084135 0.909707 0.051972
v -0.090208 0.924747 0.052319
v -0.084503 0.910867 -0.004706
v -0.069459 0.916941 -0.004679
v -0.069091 0.915781 0.051999
v -0.084135 0.909707 0.051972
v -0.075532 0.931982 -0.004332
v -0.069459 0.916941 -0.004679
v -0.084503 0.910867 -0.004706
v -0.090577 0.925908 -0.004358
v -0.090208 0.924747 0.052319
v -0.084135 0.909707 0.051972
v -0.069091 0.915781 0.051999
v -0.075164 0.930822 0.052346
v -0.036504 0.867459 -0.183861
v -0.041677 0.873280 -0.198095
v -0.094987 0.873052 -0.178813
v -0.089814 0.867231 -0.164580
v -0.041677 0.873280 -0.198095
v -0.043599 0.858136 -0.203590
v -0.096910 0.857908 -0.184308
v -0.094987 0.873052 -0.178813
v -0.043599 0.858136 -0.203590
v -0.038426 0.852315 -0.189356
v -0.091737 0.852087 -0.170075
v -0.096910 0.857908 -0.184308
v -0.038426 0.852315 -0.189356
v -0.036504 0.867459 -0.183861
v -0.089814 0.867231 -0.164580
v -0.091737 0.852087 -0.170075
v -0.041677 0.873280 -0.198095
v -0.036504 0.867459 -0.183861
v -0.038426 0.852315 -0.189356
v -0.043599 0.858136 -0.203590
v -0.096910 0.857908 -0.184308
v -0.091737 0.852087 -0.170075
v -0.089814 0.867231 -0.164580
v -0.094987 0.873052 -0.178813
v 0.218110 0.832689 0.108930
v 0.212897 0.842465 0.097077
v 0.168292 0.857172 0.128825
v 0.173505 0.847396 0.140678
v 0.212897 0.842465 0.097077
v 0.204347 0.830220 0.090738
v 0.159742 0.844927 0.122486
v 0.168292 0.857172 0.128825
v 0.204347 0.830220 0.090738
v 0.209560 0.820444 0.102590
v 0.164956 0.835151 0.134339
v 0.159742 0.844927 0.122486
v 0.209560 0.820444 0.102590
v 0.218110 0.832689 0.108930
v 0.173505 0.847396 0.140678
v 0.164956 0.835151 0.134339
v 0.212897 0.842465 0.097077
v 0.218110 0.832689 0.108930
v 0.209560 0.820444 0.102590
v 0.204347 0.830220 0.090738
v 0.159742 0.844927 0.122486
v 0.164956 0.835151 0.134339
v 0.173505 0.847396 0.140678
v 0.168292 0.857172 0.128825
v -0.046095 0.822123 0.225135
v -0.041388 0.833652 0.214735
v 0.012673 0.824670 0.229246
v 0.007966 0.813141 0.239646
v -0.041388 0.833652 0.214735
v -0.042692 0.844774 0.226475
v 0.011370 0.835793 0.240985
v 0.012673 0.824670 0.229246
v -0.042692 0.844774 0.226475
v -0.047398 0.833245 0.236875
v 0.006663 0.824264 0.251385
v 0.011370 0.835793 0.240985
v -0.047398 0.833245 0.236875
v -0.046095 0.822123 0.225135
v 0.007966 0.813141 0.239646
v 0.006663 0.824264 0.251385
v -0.041388 0.833652 0.214735
v -0.046095 0.822123 0.225135
v -0.047398 0.833245 0.236875
v -0.042692 0.844774 0.226475
v 0.011370 0.835793 0.240985
v 0.006663 0.824264 0.251385
v 0.007966 0.813141 0.239646
v 0.012673 0.824670 0.229246
v -0.017619 0.921185 0.075354
v -0.023868 0.925040 0.089822
v 0.028396 0.928218 0.111551
v 0.034646 0.924363 0.097083
v -0.023868 0.925040 0.089822
v -0.024535 0.909307 0.093726
v 0.027730 0.912485 0.115456
v 0.028396 0.928218 0.111551
v -0.024535 0.909307 0.093726
v -0.018285 0.905452 0.079259
v 0.033979 0.908630 0.100988
v 0.027730 0.912485 0.115456
v -0.018285 0.905452 0.079259
v -0.017619 0.921185 0.075354
v 0.034646 0.924363 0.097083
v 0.033979 0.908630 0.100988
v -0.023868 0.925040 0.089822
v -0.017619 0.921185 0.075354
v -0.018285 0.905452 0.079259
v -0.024535 0.909307 0.093726
v 0.027730 0.912485 0.115456
v 0.033979 0.908630 0.100988
v 0.034646 0.924363 0.097083
v 0.028396 0.928218 0.111551
v 0.115313 0.809850 -0.224922
v 0.109364 0.824403 -0.220919
v 0.151240 0.831176 -0.183311
v 0.157190 0.816623 -0.187315
v 0.109364 0.824403 -0.220919
v 0.100188 0.817499 -0.209458
v 0.142064 0.824272 -0.171850
v 0.151240 0.831176 -0.183311
v 0.100188 0.817499 -0.209458
v 0.106137 0.802946 -0.213461
v 0.148013 0.809719 -0.175854
v 0.142064 0.824272 -0.171850
v 0.106137 0.802946 -0.213461
v 0.115313 0.809850 -0.224922
v 0.157190 0.816623 -0.187315
v 0.148013 0.809719 -0.175854
v 0.109364 0.824403 -0.220919
v 0.115313 0.809850 -0.224922
v 0.106137 0.802946 -0.213461
v 0.100188 0.817499 -0.209458
v 0.142064 0.824272 -0.171850
v 0.148013 0.809719 -0.175854
v 0.157190 0.816623 -0.187315
v 0.151240 0.831176 -0.183311
v -0.015506 0.905061 -0.097231
v -0.015153 0.921090 -0.099715
v 0.032974 0.924640 -0.069966
v 0.032621 0.908610 -0.067482
v -0.015153 0.921090 -0.099715
v -0.023720 0.923384 -0.086129
v 0.024407 0.926934 -0.056380
v 0.032974 0.924640 -0.069966
v -0.023720 0.923384 -0.086129
v -0.024073 0.907355 -0.083646
v 0.024054 0.910904 -0.053897
v 0.024407 0.926934 -0.056380
v -0.024073 0.907355 -0.083646
v -0.015506 0.905061 -0.097231
v 0.032621 0.908610 -0.067482
v 0.024054 0.910904 -0.053897
v -0.015153 0.921090 -0.099715
v -0.015506 0.905061 -0.097231
v -0.024073 0.907355 -0.083646
v -0.023720 0.923384 -0.086129
v 0.024407 0.926934 -0.056380
v 0.024054 0.910904 -0.053897
v 0.032621 0.908610 -0.067482
v 0.032974 0.924640 -0.069966
v -0.185375 0.868841 -0.024444
v -0.189050 0.884547 -0.026192
v -0.162629 0.885147 -0.076346
v -0.158955 0.869441 -0.074598
v -0.189050 0.884547 -0.026192
v -0.175173 0.888613 -0.018833
v -0.148753 0.889212 -0.068987
v -0.162629 0.885147 -0.076346
v -0.175173 0.888613 -0.018833
v -0.171499 0.872907 -0.017085
v -0.145078 0.873506 -0.067239
v -0.148753 0.889212 -0.068987
v -0.171499 0.872907 -0.017085
v -0.185375 0.868841 -0.024444
v -0.158955 0.869441 -0.074598
v -0.145078 0.873506 -0.067239
v -0.189050 0.884547 -0.026192
v -0.185375 0.868841 -0.024444
v -0.171499 0.872907 -0.017085
v -0.175173 0.888613 -0.018833
v -0.148753 0.889212 -0.068987
v -0.145078 0.873506 -0.067239
v -0.158955 0.869441 -0.074598
v -0.162629 0.885147 -0.076346
v -0.184386 0.806334 0.161610
v -0.193249 0.816799 0.170279
v -0.229673 0.821705 0.127115
v -0.220810 0.811239 0.118447
v -0.193249 0.816799 0.170279
v -0.184531 0.829117 0.164321
v -0.220955 0.834023 0.121158
v -0.229673 0.821705 0.127115
v -0.184531 0.829117 0.164321
v -0.175668 0.818651 0.155653
v -0.212092 0.823557 0.112489
v -0.220955 0.834023 0.121158
v -0.175668 0.818651 0.155653
v -0.184386 0.806334 0.161610
v -0.220810 0.811239 0.118447
v -0.212092 0.823557 0.112489
v -0.193249 0.816799 0.170279
v -0.184386 0.806334 0.161610
v -0.175668 0.818651 0.155653
v -0.184531 0.829117 0.164321
v -0.220955 0.834023 0.121158
v -0.212092 0.823557 0.112489
v -0.220810 0.811239 0.118447
v -0.229673 0.821705 0.127115
v -0.054992 0.557256 -0.292038
v 0.135633 0.623760 -0.284909
v 0.049470 0.481236 -0.238483
v 0.053706 0.790609 -0.270448
v 0.044338 0.867678 -0.207304
v 0.225572 0.804730 -0.151707
v -0.067990 0.673331 -0.308362
v -0.224474 0.631077 -0.225965
v -0.151707 0.804730 -0.225572
v -0.054992 0.557256 -0.292038
v 0.049470 0.481236 -0.238483
v -0.136849 0.498361 -0.214567
v -0.067990 0.673331 -0.308362
v -0.054992 0.557256 -0.292038
v -0.224474 0.631077 -0.225965
v -0.292038 0.557256 0.054992
v -0.284909 0.623760 -0.135633
v -0.238483 0.481236 -0.049470
v -0.270448 0.790609 -0.053706
v -0.207304 0.867678 -0.044338
v -0.151707 0.804730 -0.225572
v -0.308362 0.673331 0.067990
v -0.225964 0.631077 0.224473
v -0.225572 0.804730 0.151707
v -0.292038 0.557256 0.054992
v -0.238483 0.481236 -0.049470
v -0.214567 0.498361 0.136849
v -0.308362 0.673331 0.067990
v -0.292038 0.557256 0.054992
v -0.225964 0.631077 0.224473
v 0.054992 0.557256 0.292038
v -0.135633 0.623760 0.284909
v -0.049470 0.481236 0.238483
v -0.053706 0.790609 0.270448
v -0.044338 0.867678 0.207304
v -0.225572 0.804730 0.151707
v 0.054992 0.557256 0.292038
v -0.049470 0.481236 0.238483
v 0.136849 0.498361 0.214567
v 0.067990 0.673331 0.308361
v 0.054992 0.557256 0.292038
v 0.224474 0.631077 0.225964
v 0.292038 0.557256 -0.054992
v 0.284909 0.623760 0.135633
v 0.238483 0.481236 0.049470
v 0.270448 0.790609 0.053706
v 0.207304 0.867678 0.044338
v 0.198151 0.782741 0.197473
v 0.308362 0.673331 -0.067990
v 0.225964 0.631077 -0.224474
v 0.225572 0.804730 -0.151707
v 0.292038 0.557256 -0.054992
v 0.238483 0.481236 0.049470
v 0.214567 0.498361 -0.136849
v 0.308362 0.673331 -0.067990
v 0.292038 0.557256 -0.054992
v 0.225964 0.631077 -0.224474
v -0.146506 0.430460 -0.059689
v -0.238483 0.481236 -0.049470
v -0.136849 0.498361 -0.214567
v -0.059689 0.430460 0.146506
v -0.049470 0.481236 0.238483
v -0.214567 0.498361 0.136849
v 0.146506 0.430460 0.059689
v 0.238483 0.481236 0.049470
v 0.136849 0.498361 0.214567
v 0.059689 0.430460 -0.146506
v 0.049470 0.481236 -0.238483
v 0.214567 0.498361 -0.136849
v -0.123239 0.916974 0.050431
v -0.207304 0.867678 -0.044338
v -0.225572 0.804730 0.151707
v 0.039497 0.937731 0.075178
v -0.123239 0.916974 0.050431
v -0.044338 0.867678 0.207304
v -0.050431 0.916974 -0.123240
v 0.044338 0.867678 -0.207304
v -0.151707 0.804730 -0.225572
v -0.123239 0.916974 0.050431
v -0.050431 0.916974 -0.123240
v -0.207304 0.867678 -0.044338
v 0.123239 0.916974 -0.050431
v 0.207304 0.867678 0.044338
v 0.225572 0.804730 -0.151707
v -0.050431 0.916974 -0.123240
v 0.123239 0.916974 -0.050431
v 0.044338 0.867678 -0.207304
v 0.039497 0.937731 0.075178
v -0.044338 0.867678 0.207304
v 0.097170 0.820923 0.237459
v 0.123239 0.916974 -0.050431
v 0.039497 0.937731 0.075178
v 0.207304 0.867678 0.044338
v 0.056391 0.669868 0.100507
v -0.059999 0.617857 0.307553
v 0.140528 0.613347 0.284399
v 0.056391 0.669868 0.100507
v -0.230724 0.653120 0.001113
v -0.059999 0.617857 0.307553
v -0.100507 0.439356 -0.056391
v -0.307553 0.491367 0.059999
v -0.284399 0.495877 -0.140528
v -0.100507 0.439356 -0.056391
v -0.001113 0.456104 0.230724
v -0.307553 0.491367 0.059999
v -0.139265 0.554612 0.325411
v -0.059999 0.617857 0.307553
v -0.258186 0.554612 0.258186
v 0.076787 0.554598 0.350295
v 0.066471 0.505052 0.319861
v 0.258186 0.554612 0.258186
v -0.001113 0.456104 0.230724
v 0.066471 0.505052 0.319861
v -0.140528 0.495877 0.284399
v -0.001113 0.653120 -0.230724
v 0.107137 0.577452 -0.337454
v -0.140528 0.613347 -0.284399
v -0.076787 0.554598 -0.350295
v -0.066471 0.505052 -0.319861
v -0.258186 0.554612 -0.258186
v 0.001113 0.456104 -0.230724
v -0.066471 0.505052 -0.319861
v 0.140528 0.495877 -0.284399
v 0.230724 0.653120 -0.001113
v 0.337454 0.577452 0.107137
v 0.284399 0.613347 -0.140528
v 0.350295 0.554598 -0.076787
v 0.319861 0.505052 -0.066471
v 0.258186 0.554612 -0.258186
v 0.230724 0.456104 0.001113
v 0.319861 0.505052 -0.066471
v 0.284399 0.495877 0.140528
v -0.230724 0.653120 0.001113
v -0.337454 0.577452 -0.107137
v -0.284399 0.613347 0.140528
v -0.350295 0.554598 0.076787
v -0.307553 0.491367 0.059999
v -0.258186 0.554612 0.258186
v -0.067990 0.673331 -0.308362
v 0.135633 0.623760 -0.284909
v -0.054992 0.557256 -0.292038
v -0.067990 0.673331 -0.308362
v 0.053706 0.790609 -0.270448
v 0.135633 0.623760 -0.284909
v -0.067990 0.673331 -0.308362
v -0.151707 0.804730 -0.225572
v 0.053706 0.790609 -0.270448
v 0.053706 0.790609 -0.270448
v -0.151707 0.804730 -0.225572
v 0.044338 0.867678 -0.207304
v -0.054992 0.557256 -0.292038
v -0.136849 0.498361 -0.214567
v -0.224474 0.631077 -0.225965
v -0.308362 0.673331 0.067990
v -0.284909 0.623760 -0.135633
v -0.292038 0.557256 0.054992
v -0.308362 0.673331 0.067990
v -0.270448 0.790609 -0.053706
v -0.284909 0.623760 -0.135633
v -0.308362 0.673331 0.067990
v -0.225572 0.804730 0.151707
v -0.270448 0.790609 -0.053706
v -0.270448 0.790609 -0.053706
v -0.225572 0.804730 0.151707
v -0.207304 0.867678 -0.044338
v -0.292038 0.557256 0.054992
v -0.214567 0.498361 0.136849
v -0.225964 0.631077 0.224473
v 0.067990 0.673331 0.308361
v -0.135633 0.623760 0.284909
v 0.054992 0.557256 0.292038
v 0.067990 0.673331 0.308361
v -0.053706 0.790609 0.270448
v -0.135633 0.623760 0.284909
v 0.067990 0.673331 0.308361
v 0.097170 0.820923 0.237459
v -0.053706 0.790609 0.270448
v -0.053706 0.790609 0.270448
v 0.097170 0.820923 0.237459
v -0.044338 0.867678 0.207304
v 0.054992 0.557256 0.292038
v 0.136849 0.498361 0.214567
v 0.224474 0.631077 0.225964
v 0.308362 0.673331 -0.067990
v 0.284909 0.623760 0.135633
v 0.292038 0.557256 -0.054992
v 0.308362 0.673331 -0.067990
v 0.270448 0.790609 0.053706
v 0.284909 0.623760 0.135633
v 0.308362 0.673331 -0.067990
v 0.225572 0.804730 -0.151707
v 0.270448 0.790609 0.053706
v 0.270448 0.790609 0.053706
v 0.225572 0.804730 -0.151707
v 0.207304 0.867678 0.044338
v 0.292038 0.557256 -0.054992
v 0.214567 0.498361 -0.136849
v 0.225964 0.631077 -0.224474
v 0.000000 0.407779 0.000000
v -0.146506 0.430460 -0.059689
v 0.059689 0.430460 -0.146506
v 0.000000 0.407779 0.000000
v -0.059689 0.430460 0.146506
v -0.146506 0.430460 -0.059689
v 0.000000 0.407779 0.000000
v 0.146506 0.430460 0.059689
v -0.059689 0.430460 0.146506
v 0.000000 0.407779 0.000000
v 0.059689 0.430460 -0.146506
v 0.146506 0.430460 0.059689
v -0.123239 0.916974 0.050431
v -0.225572 0.804730 0.151707
v -0.044338 0.867678 0.207304
v 0.039497 0.937731 0.075178
v -0.050431 0.916974 -0.123240
v -0.123239 0.916974 0.050431
v -0.050431 0.916974 -0.123240
v -0.151707 0.804730 -0.225572
v -0.207304 0.867678 -0.044338
v 0.039497 0.937731 0.075178
v 0.123239 0.916974 -0.050431
v -0.050431 0.916974 -0.123240
v 0.123239 0.916974 -0.050431
v 0.225572 0.804730 -0.151707
v 0.044338 0.867678 -0.207304
v 0.056391 0.669868 0.100507
v -0.001113 0.653120 -0.230724
v -0.230724 0.653120 0.001113
v -0.001113 0.653120 -0.230724
v -0.140528 0.613347 -0.284399
v -0.230724 0.653120 0.001113
v 0.056391 0.669868 0.100507
v 0.230724 0.653120 -0.001113
v -0.001113 0.653120 -0.230724
v 0.230724 0.653120 -0.001113
v 0.284399 0.613347 -0.140528
v -0.001113 0.653120 -0.230724
v 0.056391 0.669868 0.100507
v 0.140528 0.613347 0.284399
v 0.230724 0.653120 -0.001113
v -0.230724 0.653120 0.001113
v -0.284399 0.613347 0.140528
v -0.059999 0.617857 0.307553
v -0.100507 0.439356 -0.056391
v -0.284399 0.495877 -0.140528
v 0.001113 0.456104 -0.230724
v -0.001113 0.456104 0.230724
v -0.140528 0.495877 0.284399
v -0.307553 0.491367 0.059999
v -0.100507 0.439356 -0.056391
v 0.230724 0.456104 0.001113
v -0.001113 0.456104 0.230724
v 0.230724 0.456104 0.001113
v 0.284399 0.495877 0.140528
v -0.001113 0.456104 0.230724
v -0.100507 0.439356 -0.056391
v 0.001113 0.456104 -0.230724
v 0.230724 0.456104 0.001113
v 0.001113 0.456104 -0.230724
v 0.140528 0.495877 -0.284399
v 0.230724 0.456104 0.001113
v 0.076787 0.554598 0.350295
v -0.059999 0.617857 0.307553
v -0.139265 0.554612 0.325411
v -0.059999 0.617857 0.307553
v -0.284399 0.613347 0.140528
v -0.258186 0.554612 0.258186
v 0.076787 0.554598 0.350295
v 0.140528 0.613347 0.284399
v -0.059999 0.617857 0.307553
v 0.076787 0.554598 0.350295
v 0.258186 0.554612 0.258186
v 0.140528 0.613347 0.284399
v -0.139265 0.554612 0.325411
v -0.258186 0.554612 0.258186
v -0.140528 0.495877 0.284399
v -0.076787 0.554598 -0.350295
v -0.140528 0.613347 -0.284399
v 0.107137 0.577452 -0.337454
v -0.076787 0.554598 -0.350295
v -0.258186 0.554612 -0.258186
v -0.140528 0.613347 -0.284399
v 0.107137 0.577452 -0.337454
v 0.258186 0.554612 -0.258186
v 0.140528 0.495877 -0.284399
v 0.350295 0.554598 -0.076787
v 0.284399 0.613347 -0.140528
v 0.337454 0.577452 0.107137
v 0.350295 0.554598 -0.076787
v 0.258186 0.554612 -0.258186
v 0.284399 0.613347 -0.140528
v 0.337454 0.577452 0.107137
v 0.258186 0.554612 0.258186
v 0.284399 0.495877 0.140528
v -0.350295 0.554598 0.076787
v -0.284399 0.613347 0.140528
v -0.337454 0.577452 -0.107137
v -0.350295 0.554598 0.076787
v -0.258186 0.554612 0.258186
v -0.284399 0.613347 0.140528
v -0.307553 0.491367 0.059999
v -0.140528 0.495877 0.284399
v -0.258186 0.554612 0.258186
v -0.337454 0.577452 -0.107137
v -0.258186 0.554612 -0.258186
v -0.284399 0.495877 -0.140528
v 0.225572 0.804730 -0.151707
v 0.225964 0.631077 -0.224474
v 0.135633 0.623760 -0.284909
v 0.053706 0.790609 -0.270448
v -0.136849 0.498361 -0.214567
v -0.238483 0.481236 -0.049470
v -0.284909 0.623760 -0.135633
v -0.224474 0.631077 -0.225965
v 0.214567 0.498361 -0.136849
v 0.049470 0.481236 -0.238483
v 0.135633 0.623760 -0.284909
v 0.225964 0.631077 -0.224474
v -0.151707 0.804730 -0.225572
v -0.224474 0.631077 -0.225965
v -0.284909 0.623760 -0.135633
v -0.270448 0.790609 -0.053706
v -0.214567 0.498361 0.136849
v -0.049470 0.481236 0.238483
v -0.135633 0.623760 0.284909
v -0.225964 0.631077 0.224473
v -0.225572 0.804730 0.151707
v -0.225964 0.631077 0.224473
v -0.135633 0.623760 0.284909
v -0.053706 0.790609 0.270448
v 0.198151 0.782741 0.197473
v 0.097170 0.820923 0.237459
v 0.067990 0.673331 0.308361
v 0.224474 0.631077 0.225964
v 0.136849 0.498361 0.214567
v 0.238483 0.481236 0.049470
v 0.284909 0.623760 0.135633
v 0.224474 0.631077 0.225964
v 0.198151 0.782741 0.197473
v 0.224474 0.631077 0.225964
v 0.284909 0.623760 0.135633
v 0.270448 0.790609 0.053706
v -0.136849 0.498361 -0.214567
v 0.049470 0.481236 -0.238483
v 0.059689 0.430460 -0.146506
v -0.146506 0.430460 -0.059689
v -0.214567 0.498361 0.136849
v -0.238483 0.481236 -0.049470
v -0.146506 0.430460 -0.059689
v -0.059689 0.430460 0.146506
v 0.136849 0.498361 0.214567
v -0.049470 0.481236 0.238483
v -0.059689 0.430460 0.146506
v 0.146506 0.430460 0.059689
v 0.214567 0.498361 -0.136849
v 0.238483 0.481236 0.049470
v 0.146506 0.430460 0.059689
v 0.059689 0.430460 -0.146506
v 0.198151 0.782741 0.197473
v 0.207304 0.867678 0.044338
v 0.039497 0.937731 0.075178
v 0.097170 0.820923 0.237459
v 0.284399 0.495877 0.140528
v 0.258186 0.554612 0.258186
v 0.066471 0.505052 0.319861
v -0.001113 0.456104 0.230724
v -0.140528 0.495877 0.284399
v 0.066471 0.505052 0.319861
v 0.076787 0.554598 0.350295
v -0.139265 0.554612 0.325411
v 0.284399 0.613347 -0.140528
v 0.258186 0.554612 -0.258186
v 0.107137 0.577452 -0.337454
v -0.001113 0.653120 -0.230724
v -0.284399 0.495877 -0.140528
v -0.258186 0.554612 -0.258186
v -0.066471 0.505052 -0.319861
v 0.001113 0.456104 -0.230724
v 0.140528 0.495877 -0.284399
v -0.066471 0.505052 -0.319861
v -0.076787 0.554598 -0.350295
v 0.107137 0.577452 -0.337454
v 0.140528 0.613347 0.284399
v 0.258186 0.554612 0.258186
v 0.337454 0.577452 0.107137
v 0.230724 0.653120 -0.001113
v 0.140528 0.495877 -0.284399
v 0.258186 0.554612 -0.258186
v 0.319861 0.505052 -0.066471
v 0.230724 0.456104 0.001113
v 0.284399 0.495877 0.140528
v 0.319861 0.505052 -0.066471
v 0.350295 0.554598 -0.076787
v 0.337454 0.577452 0.107137
v -0.140528 0.613347 -0.284399
v -0.258186 0.554612 -0.258186
v -0.337454 0.577452 -0.107137
v -0.230724 0.653120 0.001113
v -0.284399 0.495877 -0.140528
v -0.307553 0.491367 0.059999
v -0.350295 0.554598 0.076787
v -0.337454 0.577452 -0.107137
vn -0.832288 -0.250819 0.494356
vn -0.832288 -0.250819 0.494356
vn -0.832288 -0.250819 0.494356
vn -0.832288 -0.250819 0.494356
vn -0.854182 -0.250858 0.455460
vn -0.854182 -0.250858 0.455460
vn -0.872913 -0.250888 0.418423
vn -0.872913 -0.250888 0.418423
vn -0.872913 -0.250888 0.418423
vn -0.872913 -0.250888 0.418423
vn 0.938078 -0.250819 0.238954
vn 0.938078 -0.250819 0.238954
vn 0.938078 -0.250819 0.238954
vn 0.938078 -0.250819 0.238954
vn 0.926057 -0.250858 0.281939
vn 0.926057 -0.250858 0.281939
vn 0.913113 -0.250888 0.321373
vn 0.913113 -0.250888 0.321373
vn 0.913113 -0.250888 0.321373
vn 0.913113 -0.250888 0.321373
vn 0.832287 -0.250819 -0.494356
vn 0.832287 -0.250819 -0.494356
vn 0.832287 -0.250819 -0.494356
vn 0.832287 -0.250819 -0.494356
vn 0.854182 -0.250858 -0.455460
vn 0.854182 -0.250858 -0.455460
vn 0.872913 -0.250888 -0.418423
vn 0.872913 -0.250888 -0.418423
vn 0.872913 -0.250888 -0.418423
vn 0.872913 -0.250888 -0.418423
vn 0.238954 -0.250819 -0.938078
vn 0.238954 -0.250819 -0.938078
vn 0.238954 -0.250819 -0.938078
vn 0.238954 -0.250819 -0.938078
vn 0.281939 -0.250859 -0.926057
vn 0.281939 -0.250859 -0.926057
vn 0.321373 -0.250888 -0.913113
vn 0.321373 -0.250888 -0.913113
vn 0.321373 -0.250888 -0.913113
vn 0.321373 -0.250888 -0.913113
vn -0.494356 -0.250819 -0.832287
vn -0.494356 -0.250819 -0.832287
vn -0.494356 -0.250819 -0.832287
vn -0.494356 -0.250819 -0.832287
vn -0.455460 -0.250858 -0.854182
vn -0.455460 -0.250858 -0.854182
vn -0.418423 -0.250888 -0.872913
vn -0.418423 -0.250888 -0.872913
vn -0.418423 -0.250888 -0.872913
vn -0.418423 -0.250888 -0.872913
vn -0.938078 -0.250819 -0.238954
vn -0.938078 -0.250819 -0.238954
vn -0.938078 -0.250819 -0.238954
vn -0.938078 -0.250819 -0.238954
vn -0.926056 -0.250858 -0.281939
vn -0.926056 -0.250858 -0.281939
vn -0.913113 -0.250888 -0.321373
vn -0.913113 -0.250888 -0.321373
vn -0.913113 -0.250888 -0.321373
vn -0.913113 -0.250888 -0.321373
vn 0.000000 1.000000 0.000000
vn 0.000000 1.000000 0.000000
vn 0.000000 1.000000 0.000000
vn 0.000000 1.000000 0.000000
vn 0.000000 1.000000 0.000000
vn 0.000000 1.000000 0.000000
vn 0.000000 1.000000 0.000000
vn 0.000000 1.000000 0.000000
vn 0.494356 -0.250819 0.832287
vn 0.494356 -0.250819 0.832287
vn 0.494356 -0.250819 0.832287
vn 0.494356 -0.250819 0.832287
vn 0.455460 -0.250858 0.854182
vn 0.455460 -0.250858 0.854182
vn 0.418423 -0.250888 0.872913
vn 0.418423 -0.250888 0.872913
vn 0.418423 -0.250888 0.872913
vn 0.418423 -0.250888 0.872913
vn -0.238954 -0.250819 0.938079
vn -0.238954 -0.250819 0.938079
vn -0.238954 -0.250819 0.938079
vn -0.238954 -0.250819 0.938079
vn -0.281939 -0.250858 0.926057
vn -0.281939 -0.250858 0.926057
vn -0.321373 -0.250888 0.913113
vn -0.321373 -0.250888 0.913113
vn -0.321373 -0.250888 0.913113
vn -0.321373 -0.250888 0.913113
vn -0.468076 -0.709797 0.526396
vn -0.468076 -0.709797 0.526396
vn -0.468076 -0.709797 0.526396
vn -0.468076 -0.709797 0.526396
vn 0.041237 -0.709797 0.703198
vn 0.041237 -0.709797 0.703198
vn 0.041237 -0.709797 0.703198
vn 0.041237 -0.709797 0.703198
vn 0.526396 -0.709797 0.468076
vn 0.526396 -0.709797 0.468076
vn 0.526396 -0.709797 0.468076
vn 0.526396 -0.709797 0.468076
vn 0.703198 -0.709797 -0.041237
vn 0.703198 -0.709797 -0.041237
vn 0.703198 -0.709797 -0.041237
vn 0.703198 -0.709797 -0.041237
vn 0.468076 -0.709797 -0.526395
vn 0.468076 -0.709797 -0.526395
vn 0.468076 -0.709797 -0.526395
vn 0.468076 -0.709797 -0.526395
vn -0.041238 -0.709798 -0.703198
vn -0.041238 -0.709798 -0.703198
vn -0.041238 -0.709798 -0.703198
vn -0.041238 -0.709798 -0.703198
vn -0.526396 -0.709797 -0.468076
vn -0.526396 -0.709797 -0.468076
vn -0.526396 -0.709797 -0.468076
vn -0.526396 -0.709797 -0.468076
vn -0.703198 -0.709797 0.041238
vn -0.703198 -0.709797 0.041238
vn -0.703198 -0.709797 0.041238
vn -0.703198 -0.709797 0.041238
vn 0.000000 -1.000000 0.000000
vn 0.000000 -1.000000 0.000000
vn 0.000000 -1.000000 0.000000
vn 0.000000 -1.000000 0.000000
vn 0.000000 -1.000000 0.000000
vn 0.000000 -1.000000 0.000000
vn 0.000000 -1.000000 0.000000
vn 0.000000 -1.000000 0.000000
vn -0.601992 -0.250991 0.758030
vn -0.601992 -0.250991 0.758030
vn -0.601992 -0.250991 0.758030
vn -0.601992 -0.250991 0.758030
vn -0.543140 -0.250985 0.801253
vn -0.543140 -0.250985 0.801253
vn -0.543140 -0.250985 0.801253
vn -0.543140 -0.250985 0.801253
vn -0.483132 -0.250969 0.838808
vn -0.483132 -0.250969 0.838808
vn -0.483132 -0.250969 0.838808
vn -0.483132 -0.250969 0.838808
vn -0.424470 -0.250946 0.869972
vn -0.424470 -0.250946 0.869972
vn -0.424470 -0.250946 0.869972
vn -0.424470 -0.250946 0.869972
vn -0.369704 -0.250918 0.894628
vn -0.369704 -0.250918 0.894628
vn -0.369704 -0.250918 0.894628
vn -0.369704 -0.250918 0.894628
vn 0.110335 -0.250991 0.961681
vn 0.110335 -0.250991 0.961681
vn 0.110335 -0.250991 0.961681
vn 0.110335 -0.250991 0.961681
vn 0.182513 -0.250984 0.950629
vn 0.182513 -0.250984 0.950629
vn 0.182513 -0.250984 0.950629
vn 0.182513 -0.250984 0.950629
vn 0.251500 -0.250969 0.934753
vn 0.251500 -0.250969 0.934753
vn 0.251500 -0.250969 0.934753
vn 0.251500 -0.250969 0.934753
vn 0.315017 -0.250946 0.915309
vn 0.315017 -0.250946 0.915309
vn 0.315017 -0.250946 0.915309
vn 0.315017 -0.250946 0.915309
vn 0.371177 -0.250918 0.894018
vn 0.371177 -0.250918 0.894018
vn 0.371177 -0.250918 0.894018
vn 0.371177 -0.250918 0.894018
vn -0.758029 -0.250991 -0.601993
vn -0.758029 -0.250991 -0.601993
vn -0.758029 -0.250991 -0.601993
vn -0.758029 -0.250991 -0.601993
vn -0.801253 -0.250985 -0.543140
vn -0.801253 -0.250985 -0.543140
vn -0.801253 -0.250985 -0.543140
vn -0.801253 -0.250985 -0.543140
vn -0.838808 -0.250969 -0.483132
vn -0.838808 -0.250969 -0.483132
vn -0.838808 -0.250969 -0.483132
vn -0.838808 -0.250969 -0.483132
vn -0.869972 -0.250946 -0.424470
vn -0.869972 -0.250946 -0.424470
vn -0.869972 -0.250946 -0.424470
vn -0.869972 -0.250946 -0.424470
vn -0.894628 -0.250918 -0.369705
vn -0.894628 -0.250918 -0.369705
vn -0.894628 -0.250918 -0.369705
vn -0.894628 -0.250918 -0.369705
vn -0.110335 -0.250991 -0.961681
vn -0.110335 -0.250991 -0.961681
vn -0.110335 -0.250991 -0.961681
vn -0.110335 -0.250991 -0.961681
vn -0.182513 -0.250985 -0.950629
vn -0.182513 -0.250985 -0.950629
vn -0.182513 -0.250985 -0.950629
vn -0.182513 -0.250985 -0.950629
vn -0.251501 -0.250969 -0.934752
vn -0.251501 -0.250969 -0.934752
vn -0.251501 -0.250969 -0.934752
vn -0.251501 -0.250969 -0.934752
vn -0.315017 -0.250946 -0.915309
vn -0.315017 -0.250946 -0.915309
vn -0.315017 -0.250946 -0.915309
vn -0.315017 -0.250946 -0.915309
vn -0.371177 -0.250918 -0.894018
vn -0.371177 -0.250918 -0.894018
vn -0.371177 -0.250918 -0.894018
vn -0.371177 -0.250918 -0.894018
vn 0.601992 -0.250991 -0.758030
vn 0.601992 -0.250991 -0.758030
vn 0.601992 -0.250991 -0.758030
vn 0.601992 -0.250991 -0.758030
vn 0.543140 -0.250985 -0.801253
vn 0.543140 -0.250985 -0.801253
vn 0.543140 -0.250985 -0.801253
vn 0.543140 -0.250985 -0.801253
vn 0.483132 -0.250969 -0.838807
vn 0.483132 -0.250969 -0.838807
vn 0.483132 -0.250969 -0.838807
vn 0.483132 -0.250969 -0.838807
vn 0.424470 -0.250946 -0.869972
vn 0.424470 -0.250946 -0.869972
vn 0.424470 -0.250946 -0.869972
vn 0.424470 -0.250946 -0.869972
vn 0.369704 -0.250918 -0.894628
vn 0.369704 -0.250918 -0.894628
vn 0.369704 -0.250918 -0.894628
vn 0.369704 -0.250918 -0.894628
vn 0.961681 -0.250991 -0.110334
vn 0.961681 -0.250991 -0.110334
vn 0.961681 -0.250991 -0.110334
vn 0.961681 -0.250991 -0.110334
vn 0.950629 -0.250985 -0.182513
vn 0.950629 -0.250985 -0.182513
vn 0.950629 -0.250985 -0.182513
vn 0.950629 -0.250985 -0.182513
vn 0.934753 -0.250969 -0.251500
vn 0.934753 -0.250969 -0.251500
vn 0.934753 -0.250969 -0.251500
vn 0.934753 -0.250969 -0.251500
vn 0.915309 -0.250946 -0.315017
vn 0.915309 -0.250946 -0.315017
vn 0.915309 -0.250946 -0.315017
vn 0.915309 -0.250946 -0.315017
vn 0.894018 -0.250918 -0.371177
vn 0.894018 -0.250918 -0.371177
vn 0.894018 -0.250918 -0.371177
vn 0.894018 -0.250918 -0.371177
vn 0.758030 -0.250991 0.601992
vn 0.758030 -0.250991 0.601992
vn 0.758030 -0.250991 0.601992
vn 0.758030 -0.250991 0.601992
vn 0.801253 -0.250984 0.543140
vn 0.801253 -0.250984 0.543140
vn 0.801253 -0.250984 0.543140
vn 0.801253 -0.250984 0.543140
vn 0.838808 -0.250969 0.483132
vn 0.838808 -0.250969 0.483132
vn 0.838808 -0.250969 0.483132
vn 0.838808 -0.250969 0.483132
vn 0.869972 -0.250946 0.424470
vn 0.869972 -0.250946 0.424470
vn 0.869972 -0.250946 0.424470
vn 0.869972 -0.250946 0.424470
vn 0.894628 -0.250918 0.369704
vn 0.894628 -0.250918 0.369704
vn 0.894628 -0.250918 0.369704
vn 0.894628 -0.250918 0.369704
vn -0.961681 -0.250991 0.110335
vn -0.961681 -0.250991 0.110335
vn -0.961681 -0.250991 0.110335
vn -0.961681 -0.250991 0.110335
vn -0.950629 -0.250985 0.182513
vn -0.950629 -0.250985 0.182513
vn -0.950629 -0.250985 0.182513
vn -0.950629 -0.250985 0.182513
vn -0.934753 -0.250969 0.251500
vn -0.934753 -0.250969 0.251500
vn -0.934753 -0.250969 0.251500
vn -0.934753 -0.250969 0.251500
vn -0.915309 -0.250946 0.315017
vn -0.915309 -0.250946 0.315017
vn -0.915309 -0.250946 0.315017
vn -0.915309 -0.250946 0.315017
vn -0.894018 -0.250918 0.371177
vn -0.894018 -0.250918 0.371177
vn -0.894018 -0.250918 0.371177
vn -0.894018 -0.250918 0.371177
vn -0.484958 0.118724 -0.866441
vn -0.484958 0.118724 -0.866441
vn -0.484958 0.118724 -0.866441
vn -0.484958 0.118724 -0.866441
vn -0.865823 0.074338 0.494798
vn -0.865823 0.074338 0.494798
vn -0.865823 0.074338 0.494798
vn -0.865823 0.074338 0.494798
vn 0.484959 -0.118724 0.866441
vn 0.484959 -0.118724 0.866441
vn 0.484959 -0.118724 0.866441
vn 0.484959 -0.118724 0.866441
vn 0.865823 -0.074338 -0.494798
vn 0.865823 -0.074338 -0.494798
vn 0.865823 -0.074338 -0.494798
vn 0.865823 -0.074338 -0.494798
vn -0.123149 -0.990141 -0.066743
vn -0.123149 -0.990141 -0.066743
vn -0.123149 -0.990141 -0.066743
vn -0.123149 -0.990141 -0.066743
vn 0.123153 0.990141 0.066743
vn 0.123153 0.990141 0.066743
vn 0.123153 0.990141 0.066743
vn 0.123153 0.990141 0.066743
vn -0.980127 0.174756 -0.093870
vn -0.980127 0.174756 -0.093870
vn -0.980127 0.174756 -0.093870
vn -0.980127 0.174756 -0.093870
vn -0.021740 0.375735 0.926472
vn -0.021740 0.375735 0.926472
vn -0.021740 0.375735 0.926472
vn -0.021740 0.375735 0.926472
vn 0.980127 -0.174755 0.093871
vn 0.980127 -0.174755 0.093871
vn 0.980127 -0.174755 0.093871
vn 0.980127 -0.174755 0.093871
vn 0.021738 -0.375734 -0.926473
vn 0.021738 -0.375734 -0.926473
vn 0.021738 -0.375734 -0.926473
vn 0.021738 -0.375734 -0.926473
vn -0.197180 -0.910101 0.364468
vn -0.197180 -0.910101 0.364468
vn -0.197180 -0.910101 0.364468
vn -0.197180 -0.910101 0.364468
vn 0.197175 0.910101 -0.364471
vn 0.197175 0.910101 -0.364471
vn 0.197175 0.910101 -0.364471
vn 0.197175 0.910101 -0.364471
vn -0.266019 0.540824 0.797962
vn -0.266019 0.540824 0.797962
vn -0.266019 0.540824 0.797962
vn -0.266019 0.540824 0.797962
vn 0.688401 0.686042 -0.235478
vn 0.688401 0.686042 -0.235478
vn 0.688401 0.686042 -0.235478
vn 0.688401 0.686042 -0.235478
vn 0.266020 -0.540825 -0.797961
vn 0.266020 -0.540825 -0.797961
vn 0.266020 -0.540825 -0.797961
vn 0.266020 -0.540825 -0.797961
vn -0.688400 -0.686044 0.235475
vn -0.688400 -0.686044 0.235475
vn -0.688400 -0.686044 0.235475
vn -0.688400 -0.686044 0.235475
vn 0.674787 -0.486677 0.554804
vn 0.674787 -0.486677 0.554804
vn 0.674787 -0.486677 0.554804
vn 0.674787 -0.486677 0.554804
vn -0.674789 0.486673 -0.554806
vn -0.674789 0.486673 -0.554806
vn -0.674789 0.486673 -0.554806
vn -0.674789 0.486673 -0.554806
vn 0.927268 0.374396 0.001640
vn 0.927268 0.374396 0.001640
vn 0.927268 0.374396 0.001640
vn 0.927268 0.374396 0.001640
vn -0.374336 0.927046 0.021412
vn -0.374336 0.927046 0.021412
vn -0.374336 0.927046 0.021412
vn -0.374336 0.927046 0.021412
vn -0.927268 -0.374394 -0.001639
vn -0.927268 -0.374394 -0.001639
vn -0.927268 -0.374394 -0.001639
vn -0.927268 -0.374394 -0.001639
vn 0.374336 -0.927046 -0.021411
vn 0.374336 -0.927046 -0.021411
vn 0.374336 -0.927046 -0.021411
vn 0.374336 -0.927046 -0.021411
vn -0.006494 0.020468 -0.999769
vn -0.006494 0.020468 -0.999769
vn -0.006494 0.020468 -0.999769
vn -0.006494 0.020468 -0.999769
vn 0.006493 -0.020469 0.999769
vn 0.006493 -0.020469 0.999769
vn 0.006493 -0.020469 0.999769
vn 0.006493 -0.020469 0.999769
vn 0.118500 0.933414 0.338669
vn 0.118500 0.933414 0.338669
vn 0.118500 0.933414 0.338669
vn 0.118500 0.933414 0.338669
vn -0.318831 0.358783 -0.877281
vn -0.318831 0.358783 -0.877281
vn -0.318831 0.358783 -0.877281
vn -0.318831 0.358783 -0.877281
vn -0.118505 -0.933413 -0.338669
vn -0.118505 -0.933413 -0.338669
vn -0.118505 -0.933413 -0.338669
vn -0.118505 -0.933413 -0.338669
vn 0.318832 -0.358781 0.877281
vn 0.318832 -0.358781 0.877281
vn 0.318832 -0.358781 0.877281
vn 0.318832 -0.358781 0.877281
vn 0.940375 0.004022 -0.340117
vn 0.940375 0.004022 -0.340117
vn 0.940375 0.004022 -0.340117
vn 0.940375 0.004022 -0.340117
vn -0.940374 -0.004023 0.340119
vn -0.940374 -0.004023 0.340119
vn -0.940374 -0.004023 0.340119
vn -0.940374 -0.004023 0.340119
vn 0.526959 0.754740 0.390744
vn 0.526959 0.754740 0.390744
vn 0.526959 0.754740 0.390744
vn 0.526959 0.754740 0.390744
vn -0.321307 0.602552 -0.730543
vn -0.321307 0.602552 -0.730543
vn -0.321307 0.602552 -0.730543
vn -0.321307 0.602552 -0.730543
vn -0.526960 -0.754741 -0.390742
vn -0.526960 -0.754741 -0.390742
vn -0.526960 -0.754741 -0.390742
vn -0.526960 -0.754741 -0.390742
vn 0.321309 -0.602551 0.730543
vn 0.321309 -0.602551 0.730543
vn 0.321309 -0.602551 0.730543
vn 0.321309 -0.602551 0.730543
vn 0.786814 -0.259415 -0.560025
vn 0.786814 -0.259415 -0.560025
vn 0.786814 -0.259415 -0.560025
vn 0.786814 -0.259415 -0.560025
vn -0.786816 0.259415 0.560022
vn -0.786816 0.259415 0.560022
vn -0.786816 0.259415 0.560022
vn -0.786816 0.259415 0.560022
vn 0.080328 -0.685539 -0.723591
vn 0.080328 -0.685539 -0.723591
vn 0.080328 -0.685539 -0.723591
vn 0.080328 -0.685539 -0.723591
vn 0.290110 0.710586 -0.641018
vn 0.290110 0.710586 -0.641018
vn 0.290110 0.710586 -0.641018
vn 0.290110 0.710586 -0.641018
vn -0.080327 0.685540 0.723591
vn -0.080327 0.685540 0.723591
vn -0.080327 0.685540 0.723591
vn -0.080327 0.685540 0.723591
vn -0.290107 -0.710589 0.641016
vn -0.290107 -0.710589 0.641016
vn -0.290107 -0.710589 0.641016
vn -0.290107 -0.710589 0.641016
vn -0.953617 0.158425 -0.255963
vn -0.953617 0.158425 -0.255963
vn -0.953617 0.158425 -0.255963
vn -0.953617 0.158425 -0.255963
vn 0.953616 -0.158427 0.255963
vn 0.953616 -0.158427 0.255963
vn 0.953616 -0.158427 0.255963
vn 0.953616 -0.158427 0.255963
vn 0.041083 0.969745 -0.240638
vn 0.041083 0.969745 -0.240638
vn 0.041083 0.969745 -0.240638
vn 0.041083 0.969745 -0.240638
vn -0.385184 0.237601 0.891728
vn -0.385184 0.237601 0.891728
vn -0.385184 0.237601 0.891728
vn -0.385184 0.237601 0.891728
vn -0.041083 -0.969744 0.240641
vn -0.041083 -0.969744 0.240641
vn -0.041083 -0.969744 0.240641
vn -0.041083 -0.969744 0.240641
vn 0.385184 -0.237600 -0.891728
vn 0.385184 -0.237600 -0.891728
vn 0.385184 -0.237600 -0.891728
vn 0.385184 -0.237600 -0.891728
vn -0.921925 -0.056055 -0.383291
vn -0.921925 -0.056055 -0.383291
vn -0.921925 -0.056055 -0.383291
vn -0.921925 -0.056055 -0.383291
vn 0.921926 0.056053 0.383290
vn 0.921926 0.056053 0.383290
vn 0.921926 0.056053 0.383290
vn 0.921926 0.056053 0.383290
vn 0.565587 0.425528 -0.706426
vn 0.565587 0.425528 -0.706426
vn 0.565587 0.425528 -0.706426
vn 0.565587 0.425528 -0.706426
vn -0.366683 0.897025 0.246758
vn -0.366683 0.897025 0.246758
vn -0.366683 0.897025 0.246758
vn -0.366683 0.897025 0.246758
vn -0.565588 -0.425525 0.706427
vn -0.565588 -0.425525 0.706427
vn -0.565588 -0.425525 0.706427
vn -0.565588 -0.425525 0.706427
vn 0.366686 -0.897024 -0.246757
vn 0.366686 -0.897024 -0.246757
vn 0.366686 -0.897024 -0.246757
vn 0.366686 -0.897024 -0.246757
vn -0.738684 -0.119472 -0.663380
vn -0.738684 -0.119472 -0.663380
vn -0.738684 -0.119472 -0.663380
vn -0.738684 -0.119472 -0.663380
vn 0.738685 0.119468 0.663379
vn 0.738685 0.119468 0.663379
vn 0.738685 0.119468 0.663379
vn 0.738685 0.119468 0.663379
vn 0.528035 -0.141378 -0.837372
vn 0.528035 -0.141378 -0.837372
vn 0.528035 -0.141378 -0.837372
vn 0.528035 -0.141378 -0.837372
vn 0.021758 0.987974 -0.153084
vn 0.021758 0.987974 -0.153084
vn 0.021758 0.987974 -0.153084
vn 0.021758 0.987974 -0.153084
vn -0.528034 0.141380 0.837372
vn -0.528034 0.141380 0.837372
vn -0.528034 0.141380 0.837372
vn -0.528034 0.141380 0.837372
vn -0.021762 -0.987974 0.153083
vn -0.021762 -0.987974 0.153083
vn -0.021762 -0.987974 0.153083
vn -0.021762 -0.987974 0.153083
vn -0.848942 -0.062613 -0.524763
vn -0.848942 -0.062613 -0.524763
vn -0.848942 -0.062613 -0.524763
vn -0.848942 -0.062613 -0.524763
vn 0.848944 0.062612 0.524762
vn 0.848944 0.062612 0.524762
vn 0.848944 0.062612 0.524762
vn 0.848944 0.062612 0.524762
vn -0.855284 -0.250563 -0.453550
vn -0.855284 -0.250563 -0.453550
vn -0.855284 -0.250563 -0.453550
vn -0.855284 -0.250563 -0.453550
vn -0.226468 0.968043 -0.107729
vn -0.226468 0.968043 -0.107729
vn -0.226468 0.968043 -0.107729
vn -0.226468 0.968043 -0.107729
vn 0.855285 0.250565 0.453547
vn 0.855285 0.250565 0.453547
vn 0.855285 0.250565 0.453547
vn 0.855285 0.250565 0.453547
vn 0.226464 -0.968044 0.107726
vn 0.226464 -0.968044 0.107726
vn 0.226464 -0.968044 0.107726
vn 0.226464 -0.968044 0.107726
vn -0.466053 -0.010576 0.884694
vn -0.466053 -0.010576 0.884694
vn -0.466053 -0.010576 0.884694
vn -0.466053 -0.010576 0.884694
vn 0.466050 0.010575 -0.884695
vn 0.466050 0.010575 -0.884695
vn 0.466050 0.010575 -0.884695
vn 0.466050 0.010575 -0.884695
vn -0.537374 -0.759210 0.367191
vn -0.537374 -0.759210 0.367191
vn -0.537374 -0.759210 0.367191
vn -0.537374 -0.759210 0.367191
vn -0.546281 0.645063 0.534294
vn -0.546281 0.645063 0.534294
vn -0.546281 0.645063 0.534294
vn -0.546281 0.645063 0.534294
vn 0.537369 0.759214 -0.367190
vn 0.537369 0.759214 -0.367190
vn 0.537369 0.759214 -0.367190
vn 0.537369 0.759214 -0.367190
vn 0.546279 -0.645065 -0.534294
vn 0.546279 -0.645065 -0.534294
vn 0.546279 -0.645065 -0.534294
vn 0.546279 -0.645065 -0.534294
vn 0.642504 -0.086524 0.761382
vn 0.642504 -0.086524 0.761382
vn 0.642504 -0.086524 0.761382
vn 0.642504 -0.086524 0.761382
vn -0.642503 0.086527 -0.761382
vn -0.642503 0.086527 -0.761382
vn -0.642503 0.086527 -0.761382
vn -0.642503 0.086527 -0.761382
vn 0.172483 -0.397804 -0.901111
vn 0.172483 -0.397804 -0.901111
vn 0.172483 -0.397804 -0.901111
vn 0.418059 0.605591 -0.677116
vn 0.418059 0.605591 -0.677116
vn 0.418059 0.605591 -0.677116
vn -0.499443 0.211182 -0.840214
vn -0.499443 0.211182 -0.840214
vn -0.499443 0.211182 -0.840214
vn -0.153799 -0.701545 -0.695831
vn -0.153799 -0.701545 -0.695831
vn -0.153799 -0.701545 -0.695831
vn -0.422080 -0.172426 -0.890010
vn -0.422080 -0.172426 -0.890010
vn -0.422080 -0.172426 -0.890010
vn -0.901111 -0.397804 -0.172483
vn -0.901111 -0.397804 -0.172483
vn -0.901111 -0.397804 -0.172483
vn -0.677116 0.605591 -0.418059
vn -0.677116 0.605591 -0.418059
vn -0.677116 0.605591 -0.418059
vn -0.840214 0.211182 0.499442
vn -0.840214 0.211182 0.499442
vn -0.840214 0.211182 0.499442
vn -0.695831 -0.701545 0.153799
vn -0.695831 -0.701545 0.153799
vn -0.695831 -0.701545 0.153799
vn -0.890010 -0.172426 0.422081
vn -0.890010 -0.172426 0.422081
vn -0.890010 -0.172426 0.422081
vn -0.172483 -0.397804 0.901111
vn -0.172483 -0.397804 0.901111
vn -0.172483 -0.397804 0.901111
vn -0.418059 0.605591 0.677116
vn -0.418059 0.605591 0.677116
vn -0.418059 0.605591 0.677116
vn 0.153799 -0.701545 0.695831
vn 0.153799 -0.701545 0.695831
vn 0.153799 -0.701545 0.695831
vn 0.422080 -0.172426 0.890010
vn 0.422080 -0.172426 0.890010
vn 0.422080 -0.172426 0.890010
vn 0.901111 -0.397804 0.172483
vn 0.901111 -0.397804 0.172483
vn 0.901111 -0.397804 0.172483
vn 0.691776 0.613150 0.381434
vn 0.691776 0.613150 0.381434
vn 0.691776 0.613150 0.381434
vn 0.840214 0.211182 -0.499443
vn 0.840214 0.211182 -0.499443
vn 0.840214 0.211182 -0.499443
vn 0.695831 -0.701545 -0.153799
vn 0.695831 -0.701545 -0.153799
vn 0.695831 -0.701545 -0.153799
vn 0.890010 -0.172426 -0.422081
vn 0.890010 -0.172426 -0.422081
vn 0.890010 -0.172426 -0.422081
vn -0.479353 -0.792387 -0.377285
vn -0.479353 -0.792387 -0.377285
vn -0.479353 -0.792387 -0.377285
vn -0.377285 -0.792387 0.479353
vn -0.377285 -0.792387 0.479353
vn -0.377285 -0.792387 0.479353
vn 0.479353 -0.792387 0.377285
vn 0.479353 -0.792387 0.377285
vn 0.479353 -0.792387 0.377285
vn 0.377285 -0.792387 -0.479352
vn 0.377285 -0.792387 -0.479352
vn 0.377285 -0.792387 -0.479352
vn -0.640628 0.746459 0.179986
vn -0.640628 0.746459 0.179986
vn -0.640628 0.746459 0.179986
vn -0.173031 0.911382 0.373421
vn -0.173031 0.911382 0.373421
vn -0.173031 0.911382 0.373421
vn -0.179986 0.746459 -0.640628
vn -0.179986 0.746459 -0.640628
vn -0.179986 0.746459 -0.640628
vn -0.365582 0.918074 -0.153264
vn -0.365582 0.918074 -0.153264
vn -0.365582 0.918074 -0.153264
vn 0.640628 0.746459 -0.179986
vn 0.640628 0.746459 -0.179986
vn 0.640628 0.746459 -0.179986
vn 0.153264 0.918074 -0.365582
vn 0.153264 0.918074 -0.365582
vn 0.153264 0.918074 -0.365582
vn 0.158431 0.827203 0.539105
vn 0.158431 0.827203 0.539105
vn 0.158431 0.827203 0.539105
vn 0.400838 0.908637 0.117080
vn 0.400838 0.908637 0.117080
vn 0.400838 0.908637 0.117080
vn 0.052928 0.961073 0.271179
vn 0.052928 0.961073 0.271179
vn 0.052928 0.961073 0.271179
vn -0.118794 0.976728 0.178578
vn -0.118794 0.976728 0.178578
vn -0.118794 0.976728 0.178578
vn -0.271179 -0.961073 -0.052928
vn -0.271179 -0.961073 -0.052928
vn -0.271179 -0.961073 -0.052928
vn -0.178578 -0.976728 0.118795
vn -0.178578 -0.976728 0.118795
vn -0.178578 -0.976728 0.118795
vn -0.372632 0.653158 0.659190
vn -0.372632 0.653158 0.659190
vn -0.372632 0.653158 0.659190
vn 0.381027 -0.540224 0.750317
vn 0.381027 -0.540224 0.750317
vn 0.381027 -0.540224 0.750317
vn -0.049132 -0.859291 0.509122
vn -0.049132 -0.859291 0.509122
vn -0.049132 -0.859291 0.509122
vn -0.007204 0.812296 -0.583201
vn -0.007204 0.812296 -0.583201
vn -0.007204 0.812296 -0.583201
vn -0.381027 -0.540224 -0.750317
vn -0.381027 -0.540224 -0.750317
vn -0.381027 -0.540224 -0.750317
vn 0.049132 -0.859291 -0.509122
vn 0.049132 -0.859291 -0.509122
vn 0.049132 -0.859291 -0.509122
vn 0.583201 0.812296 -0.007204
vn 0.583201 0.812296 -0.007204
vn 0.583201 0.812296 -0.007204
vn 0.750317 -0.540223 -0.381029
vn 0.750317 -0.540223 -0.381029
vn 0.750317 -0.540223 -0.381029
vn 0.509121 -0.859292 0.049132
vn 0.509121 -0.859292 0.049132
vn 0.509121 -0.859292 0.049132
vn -0.583201 0.812296 0.007204
vn -0.583201 0.812296 0.007204
vn -0.583201 0.812296 0.007204
vn -0.722575 -0.585864 0.366946
vn -0.722575 -0.585864 0.366946
vn -0.722575 -0.585864 0.366946
vn 0.082221 -0.129752 -0.988132
vn 0.082221 -0.129752 -0.988132
vn 0.082221 -0.129752 -0.988132
vn 0.151016 0.158718 -0.975706
vn 0.151016 0.158718 -0.975706
vn 0.151016 0.158718 -0.975706
vn -0.160837 0.450747 -0.878043
vn -0.160837 0.450747 -0.878043
vn -0.160837 0.450747 -0.878043
vn -0.126686 0.619396 -0.774790
vn -0.126686 0.619396 -0.774790
vn -0.126686 0.619396 -0.774790
vn -0.475344 -0.381909 -0.792587
vn -0.475344 -0.381909 -0.792587
vn -0.475344 -0.381909 -0.792587
vn -0.988132 -0.129753 -0.082221
vn -0.988132 -0.129753 -0.082221
vn -0.988132 -0.129753 -0.082221
vn -0.975706 0.158718 -0.151016
vn -0.975706 0.158718 -0.151016
vn -0.975706 0.158718 -0.151016
vn -0.878043 0.450747 0.160837
vn -0.878043 0.450747 0.160837
vn -0.878043 0.450747 0.160837
vn -0.774790 0.619396 0.126686
vn -0.774790 0.619396 0.126686
vn -0.774790 0.619396 0.126686
vn -0.792587 -0.381910 0.475343
vn -0.792587 -0.381910 0.475343
vn -0.792587 -0.381910 0.475343
vn -0.082221 -0.129752 0.988132
vn -0.082221 -0.129752 0.988132
vn -0.082221 -0.129752 0.988132
vn -0.151016 0.158719 0.975706
vn -0.151016 0.158719 0.975706
vn -0.151016 0.158719 0.975706
vn 0.114982 0.411585 0.904089
vn 0.114982 0.411585 0.904089
vn 0.114982 0.411585 0.904089
vn 0.042943 0.630050 0.775367
vn 0.042943 0.630050 0.775367
vn 0.042943 0.630050 0.775367
vn 0.475344 -0.381909 0.792587
vn 0.475344 -0.381909 0.792587
vn 0.475344 -0.381909 0.792587
vn 0.988132 -0.129753 0.082221
vn 0.988132 -0.129753 0.082221
vn 0.988132 -0.129753 0.082221
vn 0.975706 0.158718 0.151016
vn 0.975706 0.158718 0.151016
vn 0.975706 0.158718 0.151016
vn 0.878043 0.450747 -0.160837
vn 0.878043 0.450747 -0.160837
vn 0.878043 0.450747 -0.160837
vn 0.774790 0.619396 -0.126686
vn 0.774790 0.619396 -0.126686
vn 0.774790 0.619396 -0.126686
vn 0.792587 -0.381910 -0.475343
vn 0.792587 -0.381910 -0.475343
vn 0.792587 -0.381910 -0.475343
vn -0.077112 -0.980057 -0.183145
vn -0.077112 -0.980057 -0.183145
vn -0.077112 -0.980057 -0.183145
vn -0.183145 -0.980057 0.077112
vn -0.183145 -0.980057 0.077112
vn -0.183145 -0.980057 0.077112
vn 0.077112 -0.980057 0.183145
vn 0.077112 -0.980057 0.183145
vn 0.077112 -0.980057 0.183145
vn 0.183145 -0.980057 -0.077112
vn 0.183145 -0.980057 -0.077112
vn 0.183145 -0.980057 -0.077112
vn -0.413570 0.788223 0.455702
vn -0.413570 0.788223 0.455702
vn -0.413570 0.788223 0.455702
vn -0.118905 0.991654 -0.049849
vn -0.118905 0.991654 -0.049849
vn -0.118905 0.991654 -0.049849
vn -0.455703 0.788223 -0.413569
vn -0.455703 0.788223 -0.413569
vn -0.455703 0.788223 -0.413569
vn 0.053621 0.990336 -0.127906
vn 0.053621 0.990336 -0.127906
vn 0.053621 0.990336 -0.127906
vn 0.413569 0.788223 -0.455703
vn 0.413569 0.788223 -0.455703
vn 0.413569 0.788223 -0.455703
vn -0.043357 0.998136 -0.042941
vn -0.043357 0.998136 -0.042941
vn -0.043357 0.998136 -0.042941
vn -0.198325 0.960253 -0.196421
vn -0.198325 0.960253 -0.196421
vn -0.198325 0.960253 -0.196421
vn 0.060253 0.996328 -0.060837
vn 0.060253 0.996328 -0.060837
vn 0.060253 0.996328 -0.060837
vn 0.196420 0.960253 -0.198325
vn 0.196420 0.960253 -0.198325
vn 0.196420 0.960253 -0.198325
vn 0.208075 0.957627 0.199135
vn 0.208075 0.957627 0.199135
vn 0.208075 0.957627 0.199135
vn -0.173915 0.962616 0.207663
vn -0.173915 0.962616 0.207663
vn -0.173915 0.962616 0.207663
vn -0.199135 -0.957628 -0.208074
vn -0.199135 -0.957628 -0.208074
vn -0.199135 -0.957628 -0.208074
vn -0.207663 -0.962616 0.173915
vn -0.207663 -0.962616 0.173915
vn -0.207663 -0.962616 0.173915
vn 0.042941 -0.998136 0.043357
vn 0.042941 -0.998136 0.043357
vn 0.042941 -0.998136 0.043357
vn 0.196421 -0.960253 0.198325
vn 0.196421 -0.960253 0.198325
vn 0.196421 -0.960253 0.198325
vn 0.060837 -0.996328 -0.060253
vn 0.060837 -0.996328 -0.060253
vn 0.060837 -0.996328 -0.060253
vn 0.198324 -0.960253 -0.196421
vn 0.198324 -0.960253 -0.196421
vn 0.198324 -0.960253 -0.196421
vn -0.105319 0.390269 0.914658
vn -0.105319 0.390269 0.914658
vn -0.105319 0.390269 0.914658
vn -0.372938 0.794294 0.479598
vn -0.372938 0.794294 0.479598
vn -0.372938 0.794294 0.479598
vn 0.097979 0.693875 0.713399
vn 0.097979 0.693875 0.713399
vn 0.097979 0.693875 0.713399
vn 0.403465 0.453578 0.794659
vn 0.403465 0.453578 0.794659
vn 0.403465 0.453578 0.794659
vn -0.422483 -0.512777 0.747374
vn -0.422483 -0.512777 0.747374
vn -0.422483 -0.512777 0.747374
vn -0.042127 0.725173 -0.687277
vn -0.042127 0.725173 -0.687277
vn -0.042127 0.725173 -0.687277
vn -0.403465 0.453578 -0.794659
vn -0.403465 0.453578 -0.794659
vn -0.403465 0.453578 -0.794659
vn 0.381169 -0.389336 -0.838528
vn 0.381169 -0.389336 -0.838528
vn 0.381169 -0.389336 -0.838528
vn 0.687277 0.725173 -0.042127
vn 0.687277 0.725173 -0.042127
vn 0.687277 0.725173 -0.042127
vn 0.794660 0.453577 -0.403465
vn 0.794660 0.453577 -0.403465
vn 0.794660 0.453577 -0.403465
vn 0.838527 -0.389337 0.381169
vn 0.838527 -0.389337 0.381169
vn 0.838527 -0.389337 0.381169
vn -0.687277 0.725173 0.042127
vn -0.687277 0.725173 0.042127
vn -0.687277 0.725173 0.042127
vn -0.794660 0.453578 0.403464
vn -0.794660 0.453578 0.403464
vn -0.794660 0.453578 0.403464
vn -0.479598 -0.794294 0.372938
vn -0.479598 -0.794294 0.372938
vn -0.479598 -0.794294 0.372938
vn -0.838527 -0.389337 -0.381169
vn -0.838527 -0.389337 -0.381169
vn -0.838527 -0.389337 -0.381169
vn 0.514715 0.327422 -0.792378
vn 0.514715 0.327422 -0.792378
vn 0.514715 0.327422 -0.792378
vn 0.514715 0.327422 -0.792378
vn -0.700120 -0.515940 -0.493597
vn -0.700120 -0.515940 -0.493597
vn -0.700120 -0.515940 -0.493597
vn -0.700120 -0.515940 -0.493597
vn 0.493598 -0.515940 -0.700120
vn 0.493598 -0.515940 -0.700120
vn 0.493598 -0.515940 -0.700120
vn 0.493598 -0.515940 -0.700120
vn -0.792378 0.327423 -0.514715
vn -0.792378 0.327423 -0.514715
vn -0.792378 0.327423 -0.514715
vn -0.792378 0.327423 -0.514715
vn -0.493598 -0.515939 0.700120
vn -0.493598 -0.515939 0.700120
vn -0.493598 -0.515939 0.700120
vn -0.493598 -0.515939 0.700120
vn -0.514715 0.327423 0.792378
vn -0.514715 0.327423 0.792378
vn -0.514715 0.327423 0.792378
vn -0.514715 0.327423 0.792378
vn 0.481143 0.272180 0.833318
vn 0.481143 0.272180 0.833318
vn 0.481143 0.272180 0.833318
vn 0.481143 0.272180 0.833318
vn 0.700120 -0.515939 0.493597
vn 0.700120 -0.515939 0.493597
vn 0.700120 -0.515939 0.493597
vn 0.700120 -0.515939 0.493597
vn 0.836859 0.271869 0.475136
vn 0.836859 0.271869 0.475136
vn 0.836859 0.271869 0.475136
vn 0.836859 0.271869 0.475136
vn -0.159413 -0.889873 -0.427449
vn -0.159413 -0.889873 -0.427449
vn -0.159413 -0.889873 -0.427449
vn -0.159413 -0.889873 -0.427449
vn -0.427449 -0.889873 0.159414
vn -0.427449 -0.889873 0.159414
vn -0.427449 -0.889873 0.159414
vn -0.427449 -0.889873 0.159414
vn 0.159413 -0.889873 0.427450
vn 0.159413 -0.889873 0.427450
vn 0.159413 -0.889873 0.427450
vn 0.159413 -0.889873 0.427450
vn 0.427449 -0.889873 -0.159413
vn 0.427449 -0.889873 -0.159413
vn 0.427449 -0.889873 -0.159413
vn 0.427449 -0.889873 -0.159413
vn 0.432703 0.788215 0.437591
vn 0.432703 0.788215 0.437591
vn 0.432703 0.788215 0.437591
vn 0.432703 0.788215 0.437591
vn 0.289162 -0.871540 0.395984
vn 0.289162 -0.871540 0.395984
vn 0.289162 -0.871540 0.395984
vn 0.289162 -0.871540 0.395984
vn -0.107438 -0.539522 0.835089
vn -0.107438 -0.539522 0.835089
vn -0.107438 -0.539522 0.835089
vn -0.107438 -0.539522 0.835089
vn 0.284666 0.864691 -0.413854
vn 0.284666 0.864691 -0.413854
vn 0.284666 0.864691 -0.413854
vn 0.284666 0.864691 -0.413854
vn -0.289162 -0.871540 -0.395984
vn -0.289162 -0.871540 -0.395984
vn -0.289162 -0.871540 -0.395984
vn -0.289162 -0.871540 -0.395984
vn 0.123287 -0.503431 -0.855195
vn 0.123287 -0.503431 -0.855195
vn 0.123287 -0.503431 -0.855195
vn 0.123287 -0.503431 -0.855195
vn 0.413854 0.864691 0.284666
vn 0.413854 0.864691 0.284666
vn 0.413854 0.864691 0.284666
vn 0.413854 0.864691 0.284666
vn 0.395984 -0.871540 -0.289162
vn 0.395984 -0.871540 -0.289162
vn 0.395984 -0.871540 -0.289162
vn 0.395984 -0.871540 -0.289162
vn 0.855195 -0.503430 0.123287
vn 0.855195 -0.503430 0.123287
vn 0.855195 -0.503430 0.123287
vn 0.855195 -0.503430 0.123287
vn -0.413854 0.864691 -0.284666
vn -0.413854 0.864691 -0.284666
vn -0.413854 0.864691 -0.284666
vn -0.413854 0.864691 -0.284666
vn -0.846422 -0.519672 -0.116238
vn -0.846422 -0.519672 -0.116238
vn -0.846422 -0.519672 -0.116238
vn -0.846422 -0.519672 -0.116238
g IceCream_1_LightYellow
usemtl LightYellow
f 1 2 3
f 1 4 2
f 5 4 1
f 5 6 4
f 7 6 5
f 7 8 6
f 9 8 7
f 9 10 8
f 11 12 13
f 11 14 12
f 15 14 11
f 15 16 14
f 17 16 15
f 17 18 16
f 19 18 17
f 19 20 18
f 21 22 23
f 21 24 22
f 25 24 21
f 25 26 24
f 27 26 25
f 27 28 26
f 29 28 27
f 29 30 28
f 31 32 33
f 31 34 32
f 35 34 31
f 35 36 34
f 37 36 35
f 37 38 36
f 39 38 37
f 39 40 38
f 41 42 43
f 41 44 42
f 45 44 41
f 45 46 44
f 47 46 45
f 47 48 46
f 49 48 47
f 49 50 48
f 51 52 53
f 51 54 52
f 55 54 51
f 55 56 54
f 57 56 55
f 57 58 56
f 59 58 57
f 59 60 58
f 61 62 63
f 63 64 61
f 63 65 64
f 65 66 64
f 65 67 66
f 67 68 66
f 69 70 71
f 69 72 70
f 73 72 69
f 73 74 72
f 75 74 73
f 75 76 74
f 77 76 75
f 77 78 76
f 79 80 81
f 79 82 80
f 83 82 79
f 83 84 82
f 85 84 83
f 85 86 84
f 87 86 85
f 87 88 86
f 89 90 91
f 89 91 92
f 93 94 95
f 93 95 96
f 97 98 99
f 97 99 100
f 101 102 103
f 101 103 104
f 105 106 107
f 105 107 108
f 109 110 111
f 109 111 112
f 113 114 115
f 113 115 116
f 117 118 119
f 117 119 120
f 121 122 123
f 123 124 121
f 123 125 124
f 125 126 124
f 125 127 126
f 127 128 126
f 129 130 131
f 129 131 132
f 133 134 135
f 133 135 136
f 137 138 139
f 137 139 140
f 141 142 143
f 141 143 144
f 145 146 147
f 145 147 148
f 149 150 151
f 149 151 152
f 153 154 155
f 153 155 156
f 157 158 159
f 157 159 160
f 161 162 163
f 161 163 164
f 165 166 167
f 165 167 168
f 169 170 171
f 169 171 172
f 173 174 175
f 173 175 176
f 177 178 179
f 177 179 180
f 181 182 183
f 181 183 184
f 185 186 187
f 185 187 188
f 189 190 191
f 189 191 192
f 193 194 195
f 193 195 196
f 197 198 199
f 197 199 200
f 201 202 203
f 201 203 204
f 205 206 207
f 205 207 208
f 209 210 211
f 209 211 212
f 213 214 215
f 213 215 216
f 217 218 219
f 217 219 220
f 221 222 223
f 221 223 224
f 225 226 227
f 225 227 228
f 229 230 231
f 229 231 232
f 233 234 235
f 233 235 236
f 237 238 239
f 237 239 240
f 241 242 243
f 241 243 244
f 245 246 247
f 245 247 248
f 249 250 251
f 249 251 252
f 253 254 255
f 253 255 256
f 257 258 259
f 257 259 260
f 261 262 263
f 261 263 264
f 265 266 267
f 265 267 268
f 269 270 271
f 269 271 272
f 273 274 275
f 273 275 276
f 277 278 279
f 277 279 280
f 281 282 283
f 281 283 284
f 285 286 287
f 285 287 288
g IceCream_1_LightGreen
usemtl LightGreen
f 289 290 291
f 289 291 292
f 293 294 295
f 293 295 296
f 297 298 299
f 297 299 300
f 301 302 303
f 301 303 304
f 305 306 307
f 305 307 308
f 309 310 311
f 309 311 312
f 313 314 315
f 313 315 316
f 317 318 319
f 317 319 320
f 321 322 323
f 321 323 324
f 325 326 327
f 325 327 328
f 329 330 331
f 329 331 332
f 333 334 335
f 333 335 336
f 337 338 339
f 337 339 340
f 341 342 343
f 341 343 344
f 345 346 347
f 345 347 348
f 349 350 351
f 349 351 352
f 353 354 355
f 353 355 356
f 357 358 359
f 357 359 360
f 361 362 363
f 361 363 364
f 365 366 367
f 365 367 368
f 369 370 371
f 369 371 372
f 373 374 375
f 373 375 376
f 377 378 379
f 377 379 380
f 381 382 383
f 381 383 384
f 385 386 387
f 385 387 388
f 389 390 391
f 389 391 392
f 393 394 395
f 393 395 396
f 397 398 399
f 397 399 400
f 401 402 403
f 401 403 404
f 405 406 407
f 405 407 408
f 409 410 411
f 409 411 412
f 413 414 415
f 413 415 416
f 417 418 419
f 417 419 420
f 421 422 423
f 421 423 424
f 425 426 427
f 425 427 428
f 429 430 431
f 429 431 432
f 433 434 435
f 433 435 436
f 437 438 439
f 437 439 440
f 441 442 443
f 441 443 444
f 445 446 447
f 445 447 448
f 449 450 451
f 449 451 452
f 453 454 455
f 453 455 456
f 457 458 459
f 457 459 460
f 461 462 463
f 461 463 464
f 465 466 467
f 465 467 468
f 469 470 471
f 469 471 472
f 473 474 475
f 473 475 476
f 477 478 479
f 477 479 480
f 481 482 483
f 481 483 484
f 485 486 487
f 485 487 488
f 489 490 491
f 489 491 492
f 493 494 495
f 493 495 496
f 497 498 499
f 497 499 500
f 501 502 503
f 501 503 504
f 505 506 507
f 505 507 508
f 509 510 511
f 509 511 512
f 513 514 515
f 513 515 516
f 517 518 519
f 517 519 520
f 521 522 523
f 521 523 524
f 525 526 527
f 525 527 528
f 529 530 531
f 529 531 532
f 533 534 535
f 533 535 536
f 537 538 539
f 537 539 540
f 541 542 543
f 541 543 544
f 545 546 547
f 545 547 548
f 549 550 551
f 549 551 552
f 553 554 555
f 553 555 556
f 557 558 559
f 557 559 560
f 561 562 563
f 561 563 564
f 565 566 567
f 565 567 568
f 569 570 571
f 569 571 572
f 573 574 575
f 573 575 576
g IceCream_1_PaleGreen
usemtl PaleGreen
f 577 578 579
f 580 581 582
f 583 584 585
f 586 587 588
f 589 590 591
f 592 593 594
f 595 596 597
f 598 599 600
f 601 602 603
f 604 605 606
f 607 608 609
f 610 611 612
f 613 614 615
f 616 617 618
f 619 620 621
f 622 623 624
f 625 626 627
f 628 629 630
f 631 632 633
f 634 635 636
f 637 638 639
f 640 641 642
f 643 644 645
f 646 647 648
f 649 650 651
f 652 653 654
f 655 656 657
f 658 659 660
f 661 662 663
f 664 665 666
f 667 668 669
f 670 671 672
f 673 674 675
f 676 677 678
f 679 680 681
f 682 683 684
f 685 686 687
f 688 689 690
f 691 692 693
f 694 695 696
f 697 698 699
f 700 701 702
f 703 704 705
f 706 707 708
f 709 710 711
f 712 713 714
f 715 716 717
f 718 719 720
f 721 722 723
f 724 725 726
f 727 728 729
f 730 731 732
f 733 734 735
f 736 737 738
f 739 740 741
f 742 743 744
f 745 746 747
f 748 749 750
f 751 752 753
f 754 755 756
f 757 758 759
f 760 761 762
f 763 764 765
f 766 767 768
f 769 770 771
f 772 773 774
f 775 776 777
f 778 779 780
f 781 782 783
f 784 785 786
f 787 788 789
f 790 791 792
f 793 794 795
f 796 797 798
f 799 800 801
f 802 803 804
f 805 806 807
f 808 809 810
f 811 812 813
f 814 815 816
f 817 818 819
f 820 821 822
f 823 824 825
f 826 827 828
f 829 830 831
f 832 833 834
f 835 836 837
f 838 839 840
f 841 842 843
f 844 845 846
f 847 848 849
f 850 851 852
f 853 854 855
f 856 857 858
f 859 860 861
f 862 863 864
f 865 866 867
f 868 869 870
f 871 872 873
f 874 875 876
f 877 878 879
f 880 881 882
f 883 884 885
f 883 885 886
f 887 888 889
f 887 889 890
f 891 892 893
f 891 893 894
f 895 896 897
f 895 897 898
f 899 900 901
f 899 901 902
f 903 904 905
f 903 905 906
f 907 908 909
f 907 909 910
f 911 912 913
f 911 913 914
f 915 916 917
f 915 917 918
f 919 920 921
f 919 921 922
f 923 924 925
f 923 925 926
f 927 928 929
f 927 929 930
f 931 932 933
f 931 933 934
f 935 936 937
f 935 937 938
f 939 940 941
f 939 941 942
f 943 944 945
f 943 945 946
f 947 948 949
f 947 949 950
f 951 952 953
f 951 953 954
f 955 956 957
f 955 957 958
f 959 960 961
f 959 961 962
f 963 964 965
f 963 965 966
f 967 968 969
f 967 969 970
f 971 972 973
f 971 973 974
f 975 976 977
f 975 977 978
