mtllib Materials.mtl
# Ultimate Food Pack - IceCream_Cone
o IceCream_Cone
v -0.252863 0.455186 0.035344
v -0.166337 0.540489 0.224297
v -0.276220 0.540489 0.040984
v -0.153809 0.455186 0.203793
v -0.229872 0.369882 0.026532
v -0.143783 0.369882 0.181305
v -0.206854 0.284578 0.016036
v -0.134929 0.284578 0.157607
v -0.183478 0.199274 0.005174
v -0.126080 0.199274 0.133398
v 0.203793 0.455186 0.153809
v 0.276220 0.540489 -0.040984
v 0.224297 0.540489 0.166337
v 0.252863 0.455186 -0.035344
v 0.181305 0.369882 0.143783
v 0.229872 0.369882 -0.026532
v 0.157607 0.284578 0.134929
v 0.206854 0.284578 -0.016036
v 0.133398 0.199274 0.126080
v 0.183478 0.199274 -0.005174
v 0.252863 0.455186 -0.035344
v 0.166337 0.540489 -0.224297
v 0.276220 0.540489 -0.040984
v 0.153809 0.455186 -0.203793
v 0.229872 0.369882 -0.026532
v 0.143783 0.369882 -0.181305
v 0.206854 0.284578 -0.016036
v 0.134929 0.284578 -0.157607
v 0.183478 0.199274 -0.005174
v 0.126080 0.199274 -0.133398
v 0.153809 0.455186 -0.203793
v -0.040984 0.540489 -0.276220
v 0.166337 0.540489 -0.224297
v -0.035344 0.455186 -0.252863
v 0.143783 0.369882 -0.181305
v -0.026532 0.369882 -0.229872
v 0.134929 0.284578 -0.157607
v -0.016036 0.284578 -0.206854
v 0.126080 0.199274 -0.133398
v -0.005174 0.199274 -0.183478
v -0.035344 0.455186 -0.252863
v -0.224297 0.540489 -0.166337
v -0.040984 0.540489 -0.276220
v -0.203793 0.455186 -0.153809
v -0.026532 0.369882 -0.229872
v -0.181305 0.369882 -0.143783
v -0.016036 0.284578 -0.206854
v -0.157607 0.284578 -0.134929
v -0.005174 0.199274 -0.183478
v -0.133398 0.199274 -0.126080
v -0.203793 0.455186 -0.153809
v -0.276220 0.540489 0.040984
v -0.224297 0.540489 -0.166337
v -0.252863 0.455186 0.035344
v -0.181305 0.369882 -0.143783
v -0.229872 0.369882 0.026532
v -0.157607 0.284578 -0.134929
v -0.206854 0.284578 0.016036
v -0.133398 0.199274 -0.126080
v -0.183478 0.199274 0.005174
v 0.035344 0.455186 0.252863
v 0.224297 0.540489 0.166337
v 0.040984 0.540489 0.276220
v 0.203793 0.455186 0.153809
v 0.026532 0.369882 0.229872
v 0.181305 0.369882 0.143783
v 0.016036 0.284578 0.206854
v 0.157607 0.284578 0.134929
v 0.005174 0.199274 0.183478
v 0.133398 0.199274 0.126080
v -0.153809 0.455186 0.203793
v 0.040984 0.540489 0.276220
v -0.166337 0.540489 0.224297
v 0.035344 0.455186 0.252863
v -0.143783 0.369882 0.181305
v 0.026532 0.369882 0.229872
v -0.134929 0.284578 0.157607
v 0.016036 0.284578 0.206854
v -0.126080 0.199274 0.133398
v 0.005174 0.199274 0.183478
v -0.057238 -0.227245 0.028487
v -0.025203 -0.260483 0.011466
v -0.009714 -0.260483 0.025929
v -0.020330 -0.227245 0.060617
v -0.020330 -0.227245 0.060617
v -0.009714 -0.260483 0.025929
v 0.011466 -0.260483 0.025203
v 0.028487 -0.227245 0.057238
v 0.028487 -0.227245 0.057238
v 0.011466 -0.260483 0.025203
v 0.025929 -0.260483 0.009714
v 0.060617 -0.227245 0.020330
v 0.060617 -0.227245 0.020330
v 0.025929 -0.260483 0.009714
v 0.025203 -0.260483 -0.011466
v 0.057238 -0.227245 -0.028487
v 0.057238 -0.227245 -0.028487
v 0.025203 -0.260483 -0.011466
v 0.009714 -0.260483 -0.025929
v 0.020330 -0.227245 -0.060617
v 0.020330 -0.227245 -0.060617
v 0.009714 -0.260483 -0.025929
v -0.011466 -0.260483 -0.025203
v -0.028487 -0.227245 -0.057238
v -0.028487 -0.227245 -0.057238
v -0.011466 -0.260483 -0.025203
v -0.025929 -0.260483 -0.009714
v -0.060617 -0.227245 -0.020330
v -0.060617 -0.227245 -0.020330
v -0.025929 -0.260483 -0.009714
v -0.025203 -0.260483 0.011466
v -0.057238 -0.227245 0.028487
v -0.025203 -0.260483 0.011466
v -0.025929 -0.260483 -0.009714
v -0.011466 -0.260483 -0.025203
v -0.009714 -0.260483 0.025929
v 0.009714 -0.260483 -0.025929
v 0.011466 -0.260483 0.025203
v 0.025203 -0.260483 -0.011466
v 0.025929 -0.260483 0.009714
v -0.057238 -0.227245 0.028487
v -0.020330 -0.227245 0.060617
v -0.021365 -0.141941 0.085221
v -0.075368 -0.141941 0.045153
v -0.075368 -0.141941 0.045153
v -0.021365 -0.141941 0.085221
v -0.018859 -0.056637 0.110180
v -0.091244 -0.056637 0.064574
v -0.091244 -0.056637 0.064574
v -0.018859 -0.056637 0.110180
v -0.013171 0.028666 0.135064
v -0.104818 0.028666 0.086192
v -0.104818 0.028666 0.086192
v -0.013171 0.028666 0.135064
v -0.004892 0.113970 0.159553
v -0.116280 0.113970 0.109362
v -0.116280 0.113970 0.109362
v -0.004892 0.113970 0.159553
v 0.005174 0.199274 0.183478
v -0.126080 0.199274 0.133398
v -0.020330 -0.227245 0.060617
v 0.028487 -0.227245 0.057238
v 0.045153 -0.141941 0.075368
v -0.021365 -0.141941 0.085221
v -0.021365 -0.141941 0.085221
v 0.045153 -0.141941 0.075368
v 0.064574 -0.056637 0.091244
v -0.018859 -0.056637 0.110180
v -0.018859 -0.056637 0.110180
v 0.064574 -0.056637 0.091244
v 0.086192 0.028666 0.104818
v -0.013171 0.028666 0.135064
v -0.013171 0.028666 0.135064
v 0.086192 0.028666 0.104818
v 0.109362 0.113970 0.116280
v -0.004892 0.113970 0.159553
v -0.004892 0.113970 0.159553
v 0.109362 0.113970 0.116280
v 0.133398 0.199274 0.126080
v 0.005174 0.199274 0.183478
v -0.028487 -0.227245 -0.057238
v -0.060617 -0.227245 -0.020330
v -0.085221 -0.141941 -0.021365
v -0.045153 -0.141941 -0.075368
v -0.045153 -0.141941 -0.075368
v -0.085221 -0.141941 -0.021365
v -0.110180 -0.056637 -0.018859
v -0.064574 -0.056638 -0.091244
v -0.064574 -0.056638 -0.091244
v -0.110180 -0.056637 -0.018859
v -0.135064 0.028666 -0.013171
v -0.086192 0.028666 -0.104818
v -0.086192 0.028666 -0.104818
v -0.135064 0.028666 -0.013171
v -0.159553 0.113970 -0.004892
v -0.109362 0.113970 -0.116280
v -0.109362 0.113970 -0.116280
v -0.159553 0.113970 -0.004892
v -0.183478 0.199274 0.005174
v -0.133398 0.199274 -0.126080
v 0.020330 -0.227245 -0.060617
v -0.028487 -0.227245 -0.057238
v -0.045153 -0.141941 -0.075368
v 0.021365 -0.141941 -0.085221
v 0.021365 -0.141941 -0.085221
v -0.045153 -0.141941 -0.075368
v -0.064574 -0.056638 -0.091244
v 0.018859 -0.056638 -0.110180
v 0.018859 -0.056638 -0.110180
v -0.064574 -0.056638 -0.091244
v -0.086192 0.028666 -0.104818
v 0.013171 0.028666 -0.135064
v 0.013171 0.028666 -0.135064
v -0.086192 0.028666 -0.104818
v -0.109362 0.113970 -0.116280
v 0.004892 0.113970 -0.159553
v 0.004892 0.113970 -0.159553
v -0.109362 0.113970 -0.116280
v -0.133398 0.199274 -0.126080
v -0.005174 0.199274 -0.183478
v 0.057238 -0.227245 -0.028487
v 0.020330 -0.227245 -0.060617
v 0.021365 -0.141941 -0.085221
v 0.075368 -0.141941 -0.045153
v 0.075368 -0.141941 -0.045153
v 0.021365 -0.141941 -0.085221
v 0.018859 -0.056638 -0.110180
v 0.091244 -0.056638 -0.064574
v 0.091244 -0.056638 -0.064574
v 0.018859 -0.056638 -0.110180
v 0.013171 0.028666 -0.135064
v 0.104818 0.028666 -0.086192
v 0.104818 0.028666 -0.086192
v 0.013171 0.028666 -0.135064
v 0.004892 0.113970 -0.159553
v 0.116280 0.113970 -0.109362
v 0.116280 0.113970 -0.109362
v 0.004892 0.113970 -0.159553
v -0.005174 0.199274 -0.183478
v 0.126080 0.199274 -0.133398
v 0.060617 -0.227245 0.020330
v 0.057238 -0.227245 -0.028487
v 0.075368 -0.141941 -0.045153
v 0.085221 -0.141941 0.021365
v 0.085221 -0.141941 0.021365
v 0.075368 -0.141941 -0.045153
v 0.091244 -0.056638 -0.064574
v 0.110180 -0.056637 0.018859
v 0.110180 -0.056637 0.018859
v 0.091244 -0.056638 -0.064574
v 0.104818 0.028666 -0.086192
v 0.135064 0.028666 0.013171
v 0.135064 0.028666 0.013171
v 0.104818 0.028666 -0.086192
v 0.116280 0.113970 -0.109362
v 0.159553 0.113970 0.004892
v 0.159553 0.113970 0.004892
v 0.116280 0.113970 -0.109362
v 0.126080 0.199274 -0.133398
v 0.183478 0.199274 -0.005174
v 0.028487 -0.227245 0.057238
v 0.060617 -0.227245 0.020330
v 0.085221 -0.141941 0.021365
v 0.045153 -0.141941 0.075368
v 0.045153 -0.141941 0.075368
v 0.085221 -0.141941 0.021365
v 0.110180 -0.056637 0.018859
v 0.064574 -0.056637 0.091244
v 0.064574 -0.056637 0.091244
v 0.110180 -0.056637 0.018859
v 0.135064 0.028666 0.013171
v 0.086192 0.028666 0.104818
v 0.086192 0.028666 0.104818
v 0.135064 0.028666 0.013171
v 0.159553 0.113970 0.004892
v 0.109362 0.113970 0.116280
v 0.109362 0.113970 0.116280
v 0.159553 0.113970 0.004892
v 0.183478 0.199274 -0.005174
v 0.133398 0.199274 0.126080
v -0.060617 -0.227245 -0.020330
v -0.057238 -0.227245 0.028487
v -0.075368 -0.141941 0.045153
v -0.085221 -0.141941 -0.021365
v -0.085221 -0.141941 -0.021365
v -0.075368 -0.141941 0.045153
v -0.091244 -0.056637 0.064574
v -0.110180 -0.056637 -0.018859
v -0.110180 -0.056637 -0.018859
v -0.091244 -0.056637 0.064574
v -0.104818 0.028666 0.086192
v -0.135064 0.028666 -0.013171
v -0.135064 0.028666 -0.013171
v -0.104818 0.028666 0.086192
v -0.116280 0.113970 0.109362
v -0.159553 0.113970 -0.004892
v -0.159553 0.113970 -0.004892
v -0.116280 0.113970 0.109362
v -0.126080 0.199274 0.133398
v -0.183478 0.199274 0.005174
v -0.219428 0.464654 0.030622
v -0.242831 0.549958 0.035950
v -0.146288 0.549958 0.197128
v -0.133506 0.464654 0.176812
v -0.196330 0.379350 0.022637
v -0.122820 0.379351 0.154834
v -0.173188 0.294047 0.013419
v -0.112975 0.294047 0.131951
v -0.149725 0.208744 0.004223
v -0.102886 0.208744 0.108857
v 0.176813 0.464654 0.133505
v 0.197128 0.549958 0.146288
v 0.242831 0.549958 -0.035950
v 0.219428 0.464654 -0.030622
v 0.154834 0.379351 0.122820
v 0.196330 0.379350 -0.022638
v 0.131951 0.294047 0.112975
v 0.173188 0.294047 -0.013419
v 0.108857 0.208744 0.102886
v 0.149725 0.208744 -0.004223
v 0.219428 0.464654 -0.030622
v 0.242831 0.549958 -0.035950
v 0.146288 0.549958 -0.197128
v 0.133506 0.464654 -0.176813
v 0.196330 0.379350 -0.022638
v 0.122820 0.379350 -0.154834
v 0.173188 0.294047 -0.013419
v 0.112975 0.294047 -0.131951
v 0.149725 0.208744 -0.004223
v 0.102886 0.208744 -0.108857
v 0.133506 0.464654 -0.176813
v 0.146288 0.549958 -0.197128
v -0.035950 0.549958 -0.242831
v -0.030622 0.464654 -0.219428
v 0.122820 0.379350 -0.154834
v -0.022638 0.379350 -0.196330
v 0.112975 0.294047 -0.131951
v -0.013419 0.294047 -0.173188
v 0.102886 0.208744 -0.108857
v -0.004223 0.208744 -0.149725
v -0.030622 0.464654 -0.219428
v -0.035950 0.549958 -0.242831
v -0.197128 0.549958 -0.146288
v -0.176813 0.464654 -0.133506
v -0.022638 0.379350 -0.196330
v -0.154834 0.379350 -0.122820
v -0.013419 0.294047 -0.173188
v -0.131951 0.294047 -0.112975
v -0.004223 0.208744 -0.149725
v -0.108857 0.208744 -0.102886
v -0.176813 0.464654 -0.133506
v -0.197128 0.549958 -0.146288
v -0.242831 0.549958 0.035950
v -0.219428 0.464654 0.030622
v -0.154834 0.379350 -0.122820
v -0.196330 0.379350 0.022637
v -0.131951 0.294047 -0.112975
v -0.173188 0.294047 0.013419
v -0.108857 0.208744 -0.102886
v -0.149725 0.208744 0.004223
v 0.030622 0.464654 0.219428
v 0.035950 0.549958 0.242831
v 0.197128 0.549958 0.146288
v 0.176813 0.464654 0.133505
v 0.022638 0.379351 0.196330
v 0.154834 0.379351 0.122820
v 0.013419 0.294047 0.173188
v 0.131951 0.294047 0.112975
v 0.004223 0.208744 0.149725
v 0.108857 0.208744 0.102886
v -0.133506 0.464654 0.176812
v -0.146288 0.549958 0.197128
v 0.035950 0.549958 0.242831
v 0.030622 0.464654 0.219428
v -0.122820 0.379351 0.154834
v 0.022638 0.379351 0.196330
v -0.112975 0.294047 0.131951
v 0.013419 0.294047 0.173188
v -0.102886 0.208744 0.108857
v 0.004223 0.208744 0.149725
v -0.030194 -0.209855 0.014485
v -0.011109 -0.209855 0.031593
v -0.004562 -0.228918 0.011543
v -0.011388 -0.228918 0.004936
v -0.011109 -0.209855 0.031593
v 0.014485 -0.209855 0.030194
v 0.004936 -0.228918 0.011388
v -0.004562 -0.228918 0.011543
v 0.014485 -0.209855 0.030194
v 0.031593 -0.209855 0.011109
v 0.011543 -0.228918 0.004562
v 0.004936 -0.228918 0.011388
v 0.031593 -0.209855 0.011109
v 0.030194 -0.209855 -0.014485
v 0.011388 -0.228918 -0.004936
v 0.011543 -0.228918 0.004562
v 0.030194 -0.209855 -0.014485
v 0.011109 -0.209855 -0.031593
v 0.004562 -0.228918 -0.011543
v 0.011388 -0.228918 -0.004936
v 0.011109 -0.209855 -0.031593
v -0.014485 -0.209855 -0.030194
v -0.004936 -0.228918 -0.011388
v 0.004562 -0.228918 -0.011543
v -0.014485 -0.209855 -0.030194
v -0.031593 -0.209855 -0.011109
v -0.011543 -0.228918 -0.004562
v -0.004936 -0.228918 -0.011388
v -0.031593 -0.209855 -0.011109
v -0.030194 -0.209855 0.014485
v -0.011388 -0.228918 0.004936
v -0.011543 -0.228918 -0.004562
v -0.004936 -0.228918 -0.011388
v -0.011543 -0.228918 -0.004562
v -0.011388 -0.228918 0.004936
v -0.004562 -0.228918 0.011543
v 0.004562 -0.228918 -0.011543
v 0.004936 -0.228918 0.011388
v 0.011388 -0.228918 -0.004936
v 0.011543 -0.228918 0.004562
v -0.030194 -0.209855 0.014485
v -0.046448 -0.132465 0.027728
v -0.013237 -0.132465 0.052449
v -0.011109 -0.209855 0.031593
v -0.046448 -0.132465 0.027728
v -0.063706 -0.047163 0.045036
v -0.013202 -0.047163 0.076892
v -0.013237 -0.132465 0.052449
v -0.063706 -0.047163 0.045036
v -0.078747 0.038138 0.064735
v -0.009909 0.038138 0.101457
v -0.013202 -0.047163 0.076892
v -0.078747 0.038138 0.064735
v -0.091685 0.123441 0.086228
v -0.003859 0.123441 0.125803
v -0.009909 0.038138 0.101457
v -0.091685 0.123441 0.086228
v -0.102886 0.208744 0.108857
v 0.004223 0.208744 0.149725
v -0.003859 0.123441 0.125803
v -0.011109 -0.209855 0.031593
v -0.013237 -0.132465 0.052449
v 0.027728 -0.132465 0.046448
v 0.014485 -0.209855 0.030194
v -0.013237 -0.132465 0.052449
v -0.013202 -0.047163 0.076892
v 0.045036 -0.047163 0.063706
v 0.027728 -0.132465 0.046448
v -0.013202 -0.047163 0.076892
v -0.009909 0.038138 0.101457
v 0.064735 0.038138 0.078747
v 0.045036 -0.047163 0.063706
v -0.009909 0.038138 0.101457
v -0.003859 0.123441 0.125803
v 0.086228 0.123441 0.091685
v 0.064735 0.038138 0.078747
v -0.003859 0.123441 0.125803
v 0.004223 0.208744 0.149725
v 0.108857 0.208744 0.102886
v 0.086228 0.123441 0.091685
v -0.014485 -0.209855 -0.030194
v -0.027728 -0.132465 -0.046448
v -0.052449 -0.132465 -0.013237
v -0.031593 -0.209855 -0.011109
v -0.027728 -0.132465 -0.046448
v -0.045036 -0.047163 -0.063706
v -0.076892 -0.047163 -0.013202
v -0.052449 -0.132465 -0.013237
v -0.045036 -0.047163 -0.063706
v -0.064735 0.038138 -0.078747
v -0.101457 0.038138 -0.009909
v -0.076892 -0.047163 -0.013202
v -0.064735 0.038138 -0.078747
v -0.086228 0.123441 -0.091685
v -0.125803 0.123441 -0.003859
v -0.101457 0.038138 -0.009909
v -0.086228 0.123441 -0.091685
v -0.108857 0.208744 -0.102886
v -0.149725 0.208744 0.004223
v -0.125803 0.123441 -0.003859
v 0.011109 -0.209855 -0.031593
v 0.013237 -0.132465 -0.052449
v -0.027728 -0.132465 -0.046448
v -0.014485 -0.209855 -0.030194
v 0.013237 -0.132465 -0.052449
v 0.013202 -0.047163 -0.076892
v -0.045036 -0.047163 -0.063706
v -0.027728 -0.132465 -0.046448
v 0.013202 -0.047163 -0.076892
v 0.009909 0.038138 -0.101457
v -0.064735 0.038138 -0.078747
v -0.045036 -0.047163 -0.063706
v 0.009909 0.038138 -0.101457
v 0.003859 0.123441 -0.125803
v -0.086228 0.123441 -0.091685
v -0.064735 0.038138 -0.078747
v 0.003859 0.123441 -0.125803
v -0.004223 0.208744 -0.149725
v -0.108857 0.208744 -0.102886
v -0.086228 0.123441 -0.091685
v 0.030194 -0.209855 -0.014485
v 0.046448 -0.132465 -0.027728
v 0.013237 -0.132465 -0.052449
v 0.011109 -0.209855 -0.031593
v 0.046448 -0.132465 -0.027728
v 0.063706 -0.047163 -0.045036
v 0.013202 -0.047163 -0.076892
v 0.013237 -0.132465 -0.052449
v 0.063706 -0.047163 -0.045036
v 0.078747 0.038138 -0.064735
v 0.009909 0.038138 -0.101457
v 0.013202 -0.047163 -0.076892
v 0.078747 0.038138 -0.064735
v 0.091685 0.123441 -0.086228
v 0.003859 0.123441 -0.125803
v 0.009909 0.038138 -0.101457
v 0.091685 0.123441 -0.086228
v 0.102886 0.208744 -0.108857
v -0.004223 0.208744 -0.149725
v 0.003859 0.123441 -0.125803
v 0.031593 -0.209855 0.011109
v 0.052449 -0.132465 0.013237
v 0.046448 -0.132465 -0.027728
v 0.030194 -0.209855 -0.014485
v 0.052449 -0.132465 0.013237
v 0.076892 -0.047163 0.013202
v 0.063706 -0.047163 -0.045036
v 0.046448 -0.132465 -0.027728
v 0.076892 -0.047163 0.013202
v 0.101457 0.038138 0.009909
v 0.078747 0.038138 -0.064735
v 0.063706 -0.047163 -0.045036
v 0.101457 0.038138 0.009909
v 0.125803 0.123441 0.003859
v 0.091685 0.123441 -0.086228
v 0.078747 0.038138 -0.064735
v 0.125803 0.123441 0.003859
v 0.149725 0.208744 -0.004223
v 0.102886 0.208744 -0.108857
v 0.091685 0.123441 -0.086228
v 0.014485 -0.209855 0.030194
v 0.027728 -0.132465 0.046448
v 0.052449 -0.132465 0.013237
v 0.031593 -0.209855 0.011109
v 0.027728 -0.132465 0.046448
v 0.045036 -0.047163 0.063706
v 0.076892 -0.047163 0.013202
v 0.052449 -0.132465 0.013237
v 0.045036 -0.047163 0.063706
v 0.064735 0.038138 0.078747
v 0.101457 0.038138 0.009909
v 0.076892 -0.047163 0.013202
v 0.064735 0.038138 0.078747
v 0.086228 0.123441 0.091685
v 0.125803 0.123441 0.003859
v 0.101457 0.038138 0.009909
v 0.086228 0.123441 0.091685
v 0.108857 0.208744 0.102886
v 0.149725 0.208744 -0.004223
v 0.125803 0.123441 0.003859
v -0.031593 -0.209855 -0.011109
v -0.052449 -0.132465 -0.013237
v -0.046448 -0.132465 0.027728
v -0.030194 -0.209855 0.014485
v -0.052449 -0.132465 -0.013237
v -0.076892 -0.047163 -0.013202
v -0.063706 -0.047163 0.045036
v -0.046448 -0.132465 0.027728
v -0.076892 -0.047163 -0.013202
v -0.101457 0.038138 -0.009909
v -0.078747 0.038138 0.064735
v -0.063706 -0.047163 0.045036
v -0.101457 0.038138 -0.009909
v -0.125803 0.123441 -0.003859
v -0.091685 0.123441 0.086228
v -0.078747 0.038138 0.064735
v -0.125803 0.123441 -0.003859
v -0.149725 0.208744 0.004223
v -0.102886 0.208744 0.108857
v -0.091685 0.123441 0.086228
v 0.040984 0.540489 0.276220
v 0.035950 0.549958 0.242831
v -0.146288 0.549958 0.197128
v -0.166337 0.540489 0.224297
v 0.224297 0.540489 0.166337
v 0.197128 0.549958 0.146288
v 0.035950 0.549958 0.242831
v 0.040984 0.540489 0.276220
v 0.276220 0.540489 -0.040984
v 0.242831 0.549958 -0.035950
v 0.197128 0.549958 0.146288
v 0.224297 0.540489 0.166337
v 0.166337 0.540489 -0.224297
v 0.146288 0.549958 -0.197128
v 0.242831 0.549958 -0.035950
v 0.276220 0.540489 -0.040984
v -0.040984 0.540489 -0.276220
v -0.035950 0.549958 -0.242831
v 0.146288 0.549958 -0.197128
v 0.166337 0.540489 -0.224297
v -0.224297 0.540489 -0.166337
v -0.197128 0.549958 -0.146288
v -0.035950 0.549958 -0.242831
v -0.040984 0.540489 -0.276220
v -0.276220 0.540489 0.040984
v -0.242831 0.549958 0.035950
v -0.197128 0.549958 -0.146288
v -0.224297 0.540489 -0.166337
v -0.166337 0.540489 0.224297
v -0.146288 0.549958 0.197128
v -0.242831 0.549958 0.035950
v -0.276220 0.540489 0.040984
vn -0.832288 -0.250819 0.494356
vn -0.832288 -0.250819 0.494356
vn -0.832288 -0.250819 0.494356
vn -0.832288 -0.250819 0.494356
vn -0.854182 -0.250858 0.455460
vn -0.854182 -0.250858 0.455460
vn -0.872913 -0.250888 0.418423
vn -0.872913 -0.250888 0.418423
vn -0.872913 -0.250888 0.418423
vn -0.872913 -0.250888 0.418423
vn 0.938078 -0.250819 0.238954
vn 0.938078 -0.250819 0.238954
vn 0.938078 -0.250819 0.238954
vn 0.938078 -0.250819 0.238954
vn 0.926057 -0.250858 0.281939
vn 0.926057 -0.250858 0.281939
vn 0.913113 -0.250888 0.321373
vn 0.913113 -0.250888 0.321373
vn 0.913113 -0.250888 0.321373
vn 0.913113 -0.250888 0.321373
vn 0.832287 -0.250819 -0.494356
vn 0.832287 -0.250819 -0.494356
vn 0.832287 -0.250819 -0.494356
vn 0.832287 -0.250819 -0.494356
vn 0.854182 -0.250858 -0.455460
vn 0.854182 -0.250858 -0.455460
vn 0.872913 -0.250888 -0.418423
vn 0.872913 -0.250888 -0.418423
vn 0.872913 -0.250888 -0.418423
vn 0.872913 -0.250888 -0.418423
vn 0.238954 -0.250819 -0.938078
vn 0.238954 -0.250819 -0.938078
vn 0.238954 -0.250819 -0.938078
vn 0.238954 -0.250819 -0.938078
vn 0.281939 -0.250859 -0.926057
vn 0.281939 -0.250859 -0.926057
vn 0.321373 -0.250888 -0.913113
vn 0.321373 -0.250888 -0.913113
vn 0.321373 -0.250888 -0.913113
vn 0.321373 -0.250888 -0.913113
vn -0.494356 -0.250819 -0.832287
vn -0.494356 -0.250819 -0.832287
vn -0.494356 -0.250819 -0.832287
vn -0.494356 -0.250819 -0.832287
vn -0.455460 -0.250858 -0.854182
vn -0.455460 -0.250858 -0.854182
vn -0.418423 -0.250888 -0.872913
vn -0.418423 -0.250888 -0.872913
vn -0.418423 -0.250888 -0.872913
vn -0.418423 -0.250888 -0.872913
vn -0.938078 -0.250819 -0.238954
vn -0.938078 -0.250819 -0.238954
vn -0.938078 -0.250819 -0.238954
vn -0.938078 -0.250819 -0.238954
vn -0.926056 -0.250858 -0.281939
vn -0.926056 -0.250858 -0.281939
vn -0.913113 -0.250888 -0.321373
vn -0.913113 -0.250888 -0.321373
vn -0.913113 -0.250888 -0.321373
vn -0.913113 -0.250888 -0.321373
vn 0.494356 -0.250819 0.832287
vn 0.494356 -0.250819 0.832287
vn 0.494356 -0.250819 0.832287
vn 0.494356 -0.250819 0.832287
vn 0.455460 -0.250858 0.854182
vn 0.455460 -0.250858 0.854182
vn 0.418423 -0.250888 0.872913
vn 0.418423 -0.250888 0.872913
vn 0.418423 -0.250888 0.872913
vn 0.418423 -0.250888 0.872913
vn -0.238954 -0.250819 0.938079
vn -0.238954 -0.250819 0.938079
vn -0.238954 -0.250819 0.938079
vn -0.238954 -0.250819 0.938079
vn -0.281939 -0.250858 0.926057
vn -0.281939 -0.250858 0.926057
vn -0.321373 -0.250888 0.913113
vn -0.321373 -0.250888 0.913113
vn -0.321373 -0.250888 0.913113
vn -0.321373 -0.250888 0.913113
vn -0.468076 -0.709797 0.526396
vn -0.468076 -0.709797 0.526396
vn -0.468076 -0.709797 0.526396
vn -0.468076 -0.709797 0.526396
vn 0.041237 -0.709797 0.703198
vn 0.041237 -0.709797 0.703198
vn 0.041237 -0.709797 0.703198
vn 0.041237 -0.709797 0.703198
vn 0.526396 -0.709797 0.468076
vn 0.526396 -0.709797 0.468076
vn 0.526396 -0.709797 0.468076
vn 0.526396 -0.709797 0.468076
vn 0.703198 -0.709797 -0.041237
vn 0.703198 -0.709797 -0.041237
vn 0.703198 -0.709797 -0.041237
vn 0.703198 -0.709797 -0.041237
vn 0.468076 -0.709797 -0.526395
vn 0.468076 -0.709797 -0.526395
vn 0.468076 -0.709797 -0.526395
vn 0.468076 -0.709797 -0.526395
vn -0.041238 -0.709798 -0.703198
vn -0.041238 -0.709798 -0.703198
vn -0.041238 -0.709798 -0.703198
vn -0.041238 -0.709798 -0.703198
vn -0.526396 -0.709797 -0.468076
vn -0.526396 -0.709797 -0.468076
vn -0.526396 -0.709797 -0.468076
vn -0.526396 -0.709797 -0.468076
vn -0.703198 -0.709797 0.041238
vn -0.703198 -0.709797 0.041238
vn -0.703198 -0.709797 0.041238
vn -0.703198 -0.709797 0.041238
vn 0.000000 -1.000000 0.000000
vn 0.000000 -1.000000 0.000000
vn 0.000000 -1.000000 0.000000
vn 0.000000 -1.000000 0.000000
vn 0.000000 -1.000000 0.000000
vn 0.000000 -1.000000 0.000000
vn 0.000000 -1.000000 0.000000
vn 0.000000 -1.000000 0.000000
vn -0.601992 -0.250991 0.758030
vn -0.601992 -0.250991 0.758030
vn -0.601992 -0.250991 0.758030
vn -0.601992 -0.250991 0.758030
vn -0.543140 -0.250985 0.801253
vn -0.543140 -0.250985 0.801253
vn -0.543140 -0.250985 0.801253
vn -0.543140 -0.250985 0.801253
vn -0.483132 -0.250969 0.838808
vn -0.483132 -0.250969 0.838808
vn -0.483132 -0.250969 0.838808
vn -0.483132 -0.250969 0.838808
vn -0.424470 -0.250946 0.869972
vn -0.424470 -0.250946 0.869972
vn -0.424470 -0.250946 0.869972
vn -0.424470 -0.250946 0.869972
vn -0.369704 -0.250918 0.894628
vn -0.369704 -0.250918 0.894628
vn -0.369704 -0.250918 0.894628
vn -0.369704 -0.250918 0.894628
vn 0.110335 -0.250991 0.961681
vn 0.110335 -0.250991 0.961681
vn 0.110335 -0.250991 0.961681
vn 0.110335 -0.250991 0.961681
vn 0.182513 -0.250984 0.950629
vn 0.182513 -0.250984 0.950629
vn 0.182513 -0.250984 0.950629
vn 0.182513 -0.250984 0.950629
vn 0.251500 -0.250969 0.934753
vn 0.251500 -0.250969 0.934753
vn 0.251500 -0.250969 0.934753
vn 0.251500 -0.250969 0.934753
vn 0.315017 -0.250946 0.915309
vn 0.315017 -0.250946 0.915309
vn 0.315017 -0.250946 0.915309
vn 0.315017 -0.250946 0.915309
vn 0.371177 -0.250918 0.894018
vn 0.371177 -0.250918 0.894018
vn 0.371177 -0.250918 0.894018
vn 0.371177 -0.250918 0.894018
vn -0.758029 -0.250991 -0.601993
vn -0.758029 -0.250991 -0.601993
vn -0.758029 -0.250991 -0.601993
vn -0.758029 -0.250991 -0.601993
vn -0.801253 -0.250985 -0.543140
vn -0.801253 -0.250985 -0.543140
vn -0.801253 -0.250985 -0.543140
vn -0.801253 -0.250985 -0.543140
vn -0.838808 -0.250969 -0.483132
vn -0.838808 -0.250969 -0.483132
vn -0.838808 -0.250969 -0.483132
vn -0.838808 -0.250969 -0.483132
vn -0.869972 -0.250946 -0.424470
vn -0.869972 -0.250946 -0.424470
vn -0.869972 -0.250946 -0.424470
vn -0.869972 -0.250946 -0.424470
vn -0.894628 -0.250918 -0.369705
vn -0.894628 -0.250918 -0.369705
vn -0.894628 -0.250918 -0.369705
vn -0.894628 -0.250918 -0.369705
vn -0.110335 -0.250991 -0.961681
vn -0.110335 -0.250991 -0.961681
vn -0.110335 -0.250991 -0.961681
vn -0.110335 -0.250991 -0.961681
vn -0.182513 -0.250985 -0.950629
vn -0.182513 -0.250985 -0.950629
vn -0.182513 -0.250985 -0.950629
vn -0.182513 -0.250985 -0.950629
vn -0.251501 -0.250969 -0.934752
vn -0.251501 -0.250969 -0.934752
vn -0.251501 -0.250969 -0.934752
vn -0.251501 -0.250969 -0.934752
vn -0.315017 -0.250946 -0.915309
vn -0.315017 -0.250946 -0.915309
vn -0.315017 -0.250946 -0.915309
vn -0.315017 -0.250946 -0.915309
vn -0.371177 -0.250918 -0.894018
vn -0.371177 -0.250918 -0.894018
vn -0.371177 -0.250918 -0.894018
vn -0.371177 -0.250918 -0.894018
vn 0.601992 -0.250991 -0.758030
vn 0.601992 -0.250991 -0.758030
vn 0.601992 -0.250991 -0.758030
vn 0.601992 -0.250991 -0.758030
vn 0.543140 -0.250985 -0.801253
vn 0.543140 -0.250985 -0.801253
vn 0.543140 -0.250985 -0.801253
vn 0.543140 -0.250985 -0.801253
vn 0.483132 -0.250969 -0.838807
vn 0.483132 -0.250969 -0.838807
vn 0.483132 -0.250969 -0.838807
vn 0.483132 -0.250969 -0.838807
vn 0.424470 -0.250946 -0.869972
vn 0.424470 -0.250946 -0.869972
vn 0.424470 -0.250946 -0.869972
vn 0.424470 -0.250946 -0.869972
vn 0.369704 -0.250918 -0.894628
vn 0.369704 -0.250918 -0.894628
vn 0.369704 -0.250918 -0.894628
vn 0.369704 -0.250918 -0.894628
vn 0.961681 -0.250991 -0.110334
vn 0.961681 -0.250991 -0.110334
vn 0.961681 -0.250991 -0.110334
vn 0.961681 -0.250991 -0.110334
vn 0.950629 -0.250985 -0.182513
vn 0.950629 -0.250985 -0.182513
vn 0.950629 -0.250985 -0.182513
vn 0.950629 -0.250985 -0.182513
vn 0.934753 -0.250969 -0.251500
vn 0.934753 -0.250969 -0.251500
vn 0.934753 -0.250969 -0.251500
vn 0.934753 -0.250969 -0.251500
vn 0.915309 -0.250946 -0.315017
vn 0.915309 -0.250946 -0.315017
vn 0.915309 -0.250946 -0.315017
vn 0.915309 -0.250946 -0.315017
vn 0.894018 -0.250918 -0.371177
vn 0.894018 -0.250918 -0.371177
vn 0.894018 -0.250918 -0.371177
vn 0.894018 -0.250918 -0.371177
vn 0.758030 -0.250991 0.601992
vn 0.758030 -0.250991 0.601992
vn 0.758030 -0.250991 0.601992
vn 0.758030 -0.250991 0.601992
vn 0.801253 -0.250984 0.543140
vn 0.801253 -0.250984 0.543140
vn 0.801253 -0.250984 0.543140
vn 0.801253 -0.250984 0.543140
vn 0.838808 -0.250969 0.483132
vn 0.838808 -0.250969 0.483132
vn 0.838808 -0.250969 0.483132
vn 0.838808 -0.250969 0.483132
vn 0.869972 -0.250946 0.424470
vn 0.869972 -0.250946 0.424470
vn 0.869972 -0.250946 0.424470
vn 0.869972 -0.250946 0.424470
vn 0.894628 -0.250918 0.369704
vn 0.894628 -0.250918 0.369704
vn 0.894628 -0.250918 0.369704
vn 0.894628 -0.250918 0.369704
vn -0.961681 -0.250991 0.110335
vn -0.961681 -0.250991 0.110335
vn -0.961681 -0.250991 0.110335
vn -0.961681 -0.250991 0.110335
vn -0.950629 -0.250985 0.182513
vn -0.950629 -0.250985 0.182513
vn -0.950629 -0.250985 0.182513
vn -0.950629 -0.250985 0.182513
vn -0.934753 -0.250969 0.251500
vn -0.934753 -0.250969 0.251500
vn -0.934753 -0.250969 0.251500
vn -0.934753 -0.250969 0.251500
vn -0.915309 -0.250946 0.315017
vn -0.915309 -0.250946 0.315017
vn -0.915309 -0.250946 0.315017
vn -0.915309 -0.250946 0.315017
vn -0.894018 -0.250918 0.371177
vn -0.894018 -0.250918 0.371177
vn -0.894018 -0.250918 0.371177
vn -0.894018 -0.250918 0.371177
vn 0.832409 0.250822 -0.494150
vn 0.832409 0.250822 -0.494150
vn 0.832409 0.250822 -0.494150
vn 0.832409 0.250822 -0.494150
vn 0.854137 0.250860 -0.455544
vn 0.854137 0.250860 -0.455544
vn 0.872792 0.250891 -0.418674
vn 0.872792 0.250891 -0.418674
vn 0.872792 0.250891 -0.418674
vn 0.872792 0.250891 -0.418674
vn -0.938021 0.250817 -0.239182
vn -0.938021 0.250817 -0.239182
vn -0.938021 0.250817 -0.239182
vn -0.938021 0.250817 -0.239182
vn -0.926086 0.250862 -0.281839
vn -0.926086 0.250862 -0.281839
vn -0.913207 0.250890 -0.321104
vn -0.913207 0.250890 -0.321104
vn -0.913207 0.250890 -0.321104
vn -0.913207 0.250890 -0.321104
vn -0.832408 0.250822 0.494150
vn -0.832408 0.250822 0.494150
vn -0.832408 0.250822 0.494150
vn -0.832408 0.250822 0.494150
vn -0.854137 0.250860 0.455544
vn -0.854137 0.250860 0.455544
vn -0.872792 0.250891 0.418674
vn -0.872792 0.250891 0.418674
vn -0.872792 0.250891 0.418674
vn -0.872792 0.250891 0.418674
vn -0.239182 0.250817 0.938021
vn -0.239182 0.250817 0.938021
vn -0.239182 0.250817 0.938021
vn -0.239182 0.250817 0.938021
vn -0.281839 0.250863 0.926086
vn -0.281839 0.250863 0.926086
vn -0.321104 0.250890 0.913207
vn -0.321104 0.250890 0.913207
vn -0.321104 0.250890 0.913207
vn -0.321104 0.250890 0.913207
vn 0.494151 0.250822 0.832408
vn 0.494151 0.250822 0.832408
vn 0.494151 0.250822 0.832408
vn 0.494151 0.250822 0.832408
vn 0.455544 0.250860 0.854136
vn 0.455544 0.250860 0.854136
vn 0.418674 0.250891 0.872792
vn 0.418674 0.250891 0.872792
vn 0.418674 0.250891 0.872792
vn 0.418674 0.250891 0.872792
vn 0.938021 0.250817 0.239182
vn 0.938021 0.250817 0.239182
vn 0.938021 0.250817 0.239182
vn 0.938021 0.250817 0.239182
vn 0.926086 0.250862 0.281839
vn 0.926086 0.250862 0.281839
vn 0.913207 0.250890 0.321105
vn 0.913207 0.250890 0.321105
vn 0.913207 0.250890 0.321105
vn 0.913207 0.250890 0.321105
vn -0.494151 0.250822 -0.832408
vn -0.494151 0.250822 -0.832408
vn -0.494151 0.250822 -0.832408
vn -0.494151 0.250822 -0.832408
vn -0.455544 0.250860 -0.854137
vn -0.455544 0.250860 -0.854137
vn -0.418674 0.250891 -0.872792
vn -0.418674 0.250891 -0.872792
vn -0.418674 0.250891 -0.872792
vn -0.418674 0.250891 -0.872792
vn 0.239182 0.250817 -0.938021
vn 0.239182 0.250817 -0.938021
vn 0.239182 0.250817 -0.938021
vn 0.239182 0.250817 -0.938021
vn 0.281839 0.250862 -0.926086
vn 0.281839 0.250862 -0.926086
vn 0.321104 0.250890 -0.913207
vn 0.321104 0.250890 -0.913207
vn 0.321104 0.250890 -0.913207
vn 0.321104 0.250890 -0.913207
vn 0.472272 0.714646 -0.515985
vn 0.472272 0.714646 -0.515985
vn 0.472272 0.714646 -0.515985
vn 0.472272 0.714646 -0.515985
vn -0.030951 0.714640 -0.698807
vn -0.030951 0.714640 -0.698807
vn -0.030951 0.714640 -0.698807
vn -0.030951 0.714640 -0.698807
vn -0.515985 0.714646 -0.472272
vn -0.515985 0.714646 -0.472272
vn -0.515985 0.714646 -0.472272
vn -0.515985 0.714646 -0.472272
vn -0.698807 0.714640 0.030951
vn -0.698807 0.714640 0.030951
vn -0.698807 0.714640 0.030951
vn -0.698807 0.714640 0.030951
vn -0.472272 0.714646 0.515985
vn -0.472272 0.714646 0.515985
vn -0.472272 0.714646 0.515985
vn -0.472272 0.714646 0.515985
vn 0.030953 0.714641 0.698807
vn 0.030953 0.714641 0.698807
vn 0.030953 0.714641 0.698807
vn 0.030953 0.714641 0.698807
vn 0.515984 0.714647 0.472273
vn 0.515984 0.714647 0.472273
vn 0.515984 0.714647 0.472273
vn 0.515984 0.714647 0.472273
vn 0.698807 0.714641 -0.030952
vn 0.698807 0.714641 -0.030952
vn 0.698807 0.714641 -0.030952
vn 0.698807 0.714641 -0.030952
vn -0.000001 1.000000 0.000000
vn -0.000001 1.000000 0.000000
vn -0.000001 1.000000 0.000000
vn -0.000001 1.000000 0.000000
vn -0.000001 1.000000 0.000000
vn -0.000001 1.000000 0.000000
vn -0.000001 1.000000 0.000000
vn -0.000001 1.000000 0.000000
vn 0.606517 0.239081 -0.758273
vn 0.606517 0.239081 -0.758273
vn 0.606517 0.239081 -0.758273
vn 0.606517 0.239081 -0.758273
vn 0.542028 0.250984 -0.802005
vn 0.542028 0.250984 -0.802005
vn 0.542028 0.250984 -0.802005
vn 0.542028 0.250984 -0.802005
vn 0.482286 0.250970 -0.839294
vn 0.482286 0.250970 -0.839294
vn 0.482286 0.250970 -0.839294
vn 0.482286 0.250970 -0.839294
vn 0.423833 0.250948 -0.870282
vn 0.423833 0.250948 -0.870282
vn 0.423833 0.250948 -0.870282
vn 0.423833 0.250948 -0.870282
vn 0.369259 0.250908 -0.894815
vn 0.369259 0.250908 -0.894815
vn 0.369259 0.250908 -0.894815
vn 0.369259 0.250908 -0.894815
vn -0.107302 0.239083 -0.965052
vn -0.107302 0.239083 -0.965052
vn -0.107302 0.239083 -0.965052
vn -0.107302 0.239083 -0.965052
vn -0.183821 0.250983 -0.950378
vn -0.183821 0.250983 -0.950378
vn -0.183821 0.250983 -0.950378
vn -0.183821 0.250983 -0.950378
vn -0.252438 0.250971 -0.934499
vn -0.252438 0.250971 -0.934499
vn -0.252438 0.250971 -0.934499
vn -0.252438 0.250971 -0.934499
vn -0.315676 0.250947 -0.915081
vn -0.315676 0.250947 -0.915081
vn -0.315676 0.250947 -0.915081
vn -0.315676 0.250947 -0.915081
vn -0.371619 0.250911 -0.893836
vn -0.371619 0.250911 -0.893836
vn -0.371619 0.250911 -0.893836
vn -0.371619 0.250911 -0.893836
vn 0.758273 0.239081 0.606517
vn 0.758273 0.239081 0.606517
vn 0.758273 0.239081 0.606517
vn 0.758273 0.239081 0.606517
vn 0.802005 0.250984 0.542028
vn 0.802005 0.250984 0.542028
vn 0.802005 0.250984 0.542028
vn 0.802005 0.250984 0.542028
vn 0.839294 0.250970 0.482286
vn 0.839294 0.250970 0.482286
vn 0.839294 0.250970 0.482286
vn 0.839294 0.250970 0.482286
vn 0.870282 0.250948 0.423833
vn 0.870282 0.250948 0.423833
vn 0.870282 0.250948 0.423833
vn 0.870282 0.250948 0.423833
vn 0.894814 0.250908 0.369259
vn 0.894814 0.250908 0.369259
vn 0.894814 0.250908 0.369259
vn 0.894814 0.250908 0.369259
vn 0.107302 0.239083 0.965052
vn 0.107302 0.239083 0.965052
vn 0.107302 0.239083 0.965052
vn 0.107302 0.239083 0.965052
vn 0.183821 0.250983 0.950378
vn 0.183821 0.250983 0.950378
vn 0.183821 0.250983 0.950378
vn 0.183821 0.250983 0.950378
vn 0.252438 0.250971 0.934499
vn 0.252438 0.250971 0.934499
vn 0.252438 0.250971 0.934499
vn 0.252438 0.250971 0.934499
vn 0.315677 0.250948 0.915081
vn 0.315677 0.250948 0.915081
vn 0.315677 0.250948 0.915081
vn 0.315677 0.250948 0.915081
vn 0.371619 0.250912 0.893836
vn 0.371619 0.250912 0.893836
vn 0.371619 0.250912 0.893836
vn 0.371619 0.250912 0.893836
vn -0.606517 0.239081 0.758273
vn -0.606517 0.239081 0.758273
vn -0.606517 0.239081 0.758273
vn -0.606517 0.239081 0.758273
vn -0.542028 0.250984 0.802005
vn -0.542028 0.250984 0.802005
vn -0.542028 0.250984 0.802005
vn -0.542028 0.250984 0.802005
vn -0.482286 0.250970 0.839294
vn -0.482286 0.250970 0.839294
vn -0.482286 0.250970 0.839294
vn -0.482286 0.250970 0.839294
vn -0.423833 0.250948 0.870282
vn -0.423833 0.250948 0.870282
vn -0.423833 0.250948 0.870282
vn -0.423833 0.250948 0.870282
vn -0.369259 0.250909 0.894814
vn -0.369259 0.250909 0.894814
vn -0.369259 0.250909 0.894814
vn -0.369259 0.250909 0.894814
vn -0.965052 0.239083 0.107302
vn -0.965052 0.239083 0.107302
vn -0.965052 0.239083 0.107302
vn -0.965052 0.239083 0.107302
vn -0.950378 0.250983 0.183821
vn -0.950378 0.250983 0.183821
vn -0.950378 0.250983 0.183821
vn -0.950378 0.250983 0.183821
vn -0.934499 0.250971 0.252438
vn -0.934499 0.250971 0.252438
vn -0.934499 0.250971 0.252438
vn -0.934499 0.250971 0.252438
vn -0.915081 0.250948 0.315676
vn -0.915081 0.250948 0.315676
vn -0.915081 0.250948 0.315676
vn -0.915081 0.250948 0.315676
vn -0.893836 0.250911 0.371618
vn -0.893836 0.250911 0.371618
vn -0.893836 0.250911 0.371618
vn -0.893836 0.250911 0.371618
vn -0.758273 0.239081 -0.606517
vn -0.758273 0.239081 -0.606517
vn -0.758273 0.239081 -0.606517
vn -0.758273 0.239081 -0.606517
vn -0.802005 0.250984 -0.542028
vn -0.802005 0.250984 -0.542028
vn -0.802005 0.250984 -0.542028
vn -0.802005 0.250984 -0.542028
vn -0.839294 0.250970 -0.482286
vn -0.839294 0.250970 -0.482286
vn -0.839294 0.250970 -0.482286
vn -0.839294 0.250970 -0.482286
vn -0.870282 0.250948 -0.423833
vn -0.870282 0.250948 -0.423833
vn -0.870282 0.250948 -0.423833
vn -0.870282 0.250948 -0.423833
vn -0.894815 0.250908 -0.369259
vn -0.894815 0.250908 -0.369259
vn -0.894815 0.250908 -0.369259
vn -0.894815 0.250908 -0.369259
vn 0.965052 0.239083 -0.107302
vn 0.965052 0.239083 -0.107302
vn 0.965052 0.239083 -0.107302
vn 0.965052 0.239083 -0.107302
vn 0.950378 0.250983 -0.183821
vn 0.950378 0.250983 -0.183821
vn 0.950378 0.250983 -0.183821
vn 0.950378 0.250983 -0.183821
vn 0.934499 0.250971 -0.252438
vn 0.934499 0.250971 -0.252438
vn 0.934499 0.250971 -0.252438
vn 0.934499 0.250971 -0.252438
vn 0.915081 0.250947 -0.315676
vn 0.915081 0.250947 -0.315676
vn 0.915081 0.250947 -0.315676
vn 0.915081 0.250947 -0.315676
vn 0.893836 0.250911 -0.371619
vn 0.893836 0.250911 -0.371619
vn 0.893836 0.250911 -0.371619
vn 0.893836 0.250911 -0.371619
vn -0.070602 0.956894 0.281727
vn -0.070602 0.956894 0.281727
vn -0.070602 0.956894 0.281727
vn -0.070602 0.956894 0.281727
vn 0.149288 0.956893 0.249137
vn 0.149288 0.956893 0.249137
vn 0.149288 0.956893 0.249137
vn 0.149288 0.956893 0.249137
vn 0.281727 0.956894 0.070602
vn 0.281727 0.956894 0.070602
vn 0.281727 0.956894 0.070602
vn 0.281727 0.956894 0.070602
vn 0.249137 0.956893 -0.149288
vn 0.249137 0.956893 -0.149288
vn 0.249137 0.956893 -0.149288
vn 0.249137 0.956893 -0.149288
vn 0.070602 0.956894 -0.281727
vn 0.070602 0.956894 -0.281727
vn 0.070602 0.956894 -0.281727
vn 0.070602 0.956894 -0.281727
vn -0.149288 0.956893 -0.249137
vn -0.149288 0.956893 -0.249137
vn -0.149288 0.956893 -0.249137
vn -0.149288 0.956893 -0.249137
vn -0.281727 0.956894 -0.070602
vn -0.281727 0.956894 -0.070602
vn -0.281727 0.956894 -0.070602
vn -0.281727 0.956894 -0.070602
vn -0.249137 0.956893 0.149288
vn -0.249137 0.956893 0.149288
vn -0.249137 0.956893 0.149288
vn -0.249137 0.956893 0.149288
g IceCream_Cone_LightYellow
usemtl LightYellow
f 1 2 3
f 1 4 2
f 5 4 1
f 5 6 4
f 7 6 5
f 7 8 6
f 9 8 7
f 9 10 8
f 11 12 13
f 11 14 12
f 15 14 11
f 15 16 14
f 17 16 15
f 17 18 16
f 19 18 17
f 19 20 18
f 21 22 23
f 21 24 22
f 25 24 21
f 25 26 24
f 27 26 25
f 27 28 26
f 29 28 27
f 29 30 28
f 31 32 33
f 31 34 32
f 35 34 31
f 35 36 34
f 37 36 35
f 37 38 36
f 39 38 37
f 39 40 38
f 41 42 43
f 41 44 42
f 45 44 41
f 45 46 44
f 47 46 45
f 47 48 46
f 49 48 47
f 49 50 48
f 51 52 53
f 51 54 52
f 55 54 51
f 55 56 54
f 57 56 55
f 57 58 56
f 59 58 57
f 59 60 58
f 61 62 63
f 61 64 62
f 65 64 61
f 65 66 64
f 67 66 65
f 67 68 66
f 69 68 67
f 69 70 68
f 71 72 73
f 71 74 72
f 75 74 71
f 75 76 74
f 77 76 75
f 77 78 76
f 79 78 77
f 79 80 78
f 81 82 83
f 81 83 84
f 85 86 87
f 85 87 88
f 89 90 91
f 89 91 92
f 93 94 95
f 93 95 96
f 97 98 99
f 97 99 100
f 101 102 103
f 101 103 104
f 105 106 107
f 105 107 108
f 109 110 111
f 109 111 112
f 113 114 115
f 115 116 113
f 115 117 116
f 117 118 116
f 117 119 118
f 119 120 118
f 121 122 123
f 121 123 124
f 125 126 127
f 125 127 128
f 129 130 131
f 129 131 132
f 133 134 135
f 133 135 136
f 137 138 139
f 137 139 140
f 141 142 143
f 141 143 144
f 145 146 147
f 145 147 148
f 149 150 151
f 149 151 152
f 153 154 155
f 153 155 156
f 157 158 159
f 157 159 160
f 161 162 163
f 161 163 164
f 165 166 167
f 165 167 168
f 169 170 171
f 169 171 172
f 173 174 175
f 173 175 176
f 177 178 179
f 177 179 180
f 181 182 183
f 181 183 184
f 185 186 187
f 185 187 188
f 189 190 191
f 189 191 192
f 193 194 195
f 193 195 196
f 197 198 199
f 197 199 200
f 201 202 203
f 201 203 204
f 205 206 207
f 205 207 208
f 209 210 211
f 209 211 212
f 213 214 215
f 213 215 216
f 217 218 219
f 217 219 220
f 221 222 223
f 221 223 224
f 225 226 227
f 225 227 228
f 229 230 231
f 229 231 232
f 233 234 235
f 233 235 236
f 237 238 239
f 237 239 240
f 241 242 243
f 241 243 244
f 245 246 247
f 245 247 248
f 249 250 251
f 249 251 252
f 253 254 255
f 253 255 256
f 257 258 259
f 257 259 260
f 261 262 263
f 261 263 264
f 265 266 267
f 265 267 268
f 269 270 271
f 269 271 272
f 273 274 275
f 273 275 276
f 277 278 279
f 277 279 280
f 281 282 283
f 281 283 284
f 285 281 284
f 285 284 286
f 287 285 286
f 287 286 288
f 289 287 288
f 289 288 290
f 291 292 293
f 291 293 294
f 295 291 294
f 295 294 296
f 297 295 296
f 297 296 298
f 299 297 298
f 299 298 300
f 301 302 303
f 301 303 304
f 305 301 304
f 305 304 306
f 307 305 306
f 307 306 308
f 309 307 308
f 309 308 310
f 311 312 313
f 311 313 314
f 315 311 314
f 315 314 316
f 317 315 316
f 317 316 318
f 319 317 318
f 319 318 320
f 321 322 323
f 321 323 324
f 325 321 324
f 325 324 326
f 327 325 326
f 327 326 328
f 329 327 328
f 329 328 330
f 331 332 333
f 331 333 334
f 335 331 334
f 335 334 336
f 337 335 336
f 337 336 338
f 339 337 338
f 339 338 340
f 341 342 343
f 341 343 344
f 345 341 344
f 345 344 346
f 347 345 346
f 347 346 348
f 349 347 348
f 349 348 350
f 351 352 353
f 351 353 354
f 355 351 354
f 355 354 356
f 357 355 356
f 357 356 358
f 359 357 358
f 359 358 360
f 361 362 363
f 361 363 364
f 365 366 367
f 365 367 368
f 369 370 371
f 369 371 372
f 373 374 375
f 373 375 376
f 377 378 379
f 377 379 380
f 381 382 383
f 381 383 384
f 385 386 387
f 385 387 388
f 389 390 391
f 389 391 392
f 393 394 395
f 395 396 393
f 396 397 393
f 396 398 397
f 398 399 397
f 398 400 399
f 401 402 403
f 401 403 404
f 405 406 407
f 405 407 408
f 409 410 411
f 409 411 412
f 413 414 415
f 413 415 416
f 417 418 419
f 417 419 420
f 421 422 423
f 421 423 424
f 425 426 427
f 425 427 428
f 429 430 431
f 429 431 432
f 433 434 435
f 433 435 436
f 437 438 439
f 437 439 440
f 441 442 443
f 441 443 444
f 445 446 447
f 445 447 448
f 449 450 451
f 449 451 452
f 453 454 455
f 453 455 456
f 457 458 459
f 457 459 460
f 461 462 463
f 461 463 464
f 465 466 467
f 465 467 468
f 469 470 471
f 469 471 472
f 473 474 475
f 473 475 476
f 477 478 479
f 477 479 480
f 481 482 483
f 481 483 484
f 485 486 487
f 485 487 488
f 489 490 491
f 489 491 492
f 493 494 495
f 493 495 496
f 497 498 499
f 497 499 500
f 501 502 503
f 501 503 504
f 505 506 507
f 505 507 508
f 509 510 511
f 509 511 512
f 513 514 515
f 513 515 516
f 517 518 519
f 517 519 520
f 521 522 523
f 521 523 524
f 525 526 527
f 525 527 528
f 529 530 531
f 529 531 532
f 533 534 535
f 533 535 536
f 537 538 539
f 537 539 540
f 541 542 543
f 541 543 544
f 545 546 547
f 545 547 548
f 549 550 551
f 549 551 552
f 553 554 555
f 553 555 556
f 557 558 559
f 557 559 560
f 561 562 563
f 561 563 564
f 565 566 567
f 565 567 568
f 569 570 571
f 569 571 572
f 573 574 575
f 573 575 576
f 577 578 579
f 577 579 580
f 581 582 583
f 581 583 584
f 585 586 587
f 585 587 588
f 589 590 591
f 589 591 592
