mtllib Materials.mtl
# Ultimate Food Pack - IceCream_2
o IceCream_2
v -0.252863 0.455186 0.035344
v -0.166337 0.540489 0.224297
v -0.276220 0.540489 0.040984
v -0.153809 0.455186 0.203793
v -0.229872 0.369882 0.026532
v -0.143783 0.369882 0.181305
v -0.206854 0.284578 0.016036
v -0.134929 0.284578 0.157607
v -0.183478 0.199274 0.005174
v -0.126080 0.199274 0.133398
v 0.203793 0.455186 0.153809
v 0.276220 0.540489 -0.040984
v 0.224297 0.540489 0.166337
v 0.252863 0.455186 -0.035344
v 0.181305 0.369882 0.143783
v 0.229872 0.369882 -0.026532
v 0.157607 0.284578 0.134929
v 0.206854 0.284578 -0.016036
v 0.133398 0.199274 0.126080
v 0.183478 0.199274 -0.005174
v 0.252863 0.455186 -0.035344
v 0.166337 0.540489 -0.224297
v 0.276220 0.540489 -0.040984
v 0.153809 0.455186 -0.203793
v 0.229872 0.369882 -0.026532
v 0.143783 0.369882 -0.181305
v 0.206854 0.284578 -0.016036
v 0.134929 0.284578 -0.157607
v 0.183478 0.199274 -0.005174
v 0.126080 0.199274 -0.133398
v 0.153809 0.455186 -0.203793
v -0.040984 0.540489 -0.276220
v 0.166337 0.540489 -0.224297
v -0.035344 0.455186 -0.252863
v 0.143783 0.369882 -0.181305
v -0.026532 0.369882 -0.229872
v 0.134929 0.284578 -0.157607
v -0.016036 0.284578 -0.206854
v 0.126080 0.199274 -0.133398
v -0.005174 0.199274 -0.183478
v -0.035344 0.455186 -0.252863
v -0.224297 0.540489 -0.166337
v -0.040984 0.540489 -0.276220
v -0.203793 0.455186 -0.153809
v -0.026532 0.369882 -0.229872
v -0.181305 0.369882 -0.143783
v -0.016036 0.284578 -0.206854
v -0.157607 0.284578 -0.134929
v -0.005174 0.199274 -0.183478
v -0.133398 0.199274 -0.126080
v -0.203793 0.455186 -0.153809
v -0.276220 0.540489 0.040984
v -0.224297 0.540489 -0.166337
v -0.252863 0.455186 0.035344
v -0.181305 0.369882 -0.143783
v -0.229872 0.369882 0.026532
v -0.157607 0.284578 -0.134929
v -0.206854 0.284578 0.016036
v -0.133398 0.199274 -0.126080
v -0.183478 0.199274 0.005174
v -0.224297 0.540489 -0.166337
v -0.276220 0.540489 0.040984
v -0.166337 0.540489 0.224297
v -0.040984 0.540489 -0.276220
v 0.040984 0.540489 0.276220
v 0.166337 0.540489 -0.224297
v 0.224297 0.540489 0.166337
v 0.276220 0.540489 -0.040984
v 0.035344 0.455186 0.252863
v 0.224297 0.540489 0.166337
v 0.040984 0.540489 0.276220
v 0.203793 0.455186 0.153809
v 0.026532 0.369882 0.229872
v 0.181305 0.369882 0.143783
v 0.016036 0.284578 0.206854
v 0.157607 0.284578 0.134929
v 0.005174 0.199274 0.183478
v 0.133398 0.199274 0.126080
v -0.153809 0.455186 0.203793
v 0.040984 0.540489 0.276220
v -0.166337 0.540489 0.224297
v 0.035344 0.455186 0.252863
v -0.143783 0.369882 0.181305
v 0.026532 0.369882 0.229872
v -0.134929 0.284578 0.157607
v 0.016036 0.284578 0.206854
v -0.126080 0.199274 0.133398
v 0.005174 0.199274 0.183478
v -0.057238 -0.227245 0.028487
v -0.025203 -0.260483 0.011466
v -0.009714 -0.260483 0.025929
v -0.020330 -0.227245 0.060617
v -0.020330 -0.227245 0.060617
v -0.009714 -0.260483 0.025929
v 0.011466 -0.260483 0.025203
v 0.028487 -0.227245 0.057238
v 0.028487 -0.227245 0.057238
v 0.011466 -0.260483 0.025203
v 0.025929 -0.260483 0.009714
v 0.060617 -0.227245 0.020330
v 0.060617 -0.227245 0.020330
v 0.025929 -0.260483 0.009714
v 0.025203 -0.260483 -0.011466
v 0.057238 -0.227245 -0.028487
v 0.057238 -0.227245 -0.028487
v 0.025203 -0.260483 -0.011466
v 0.009714 -0.260483 -0.025929
v 0.020330 -0.227245 -0.060617
v 0.020330 -0.227245 -0.060617
v 0.009714 -0.260483 -0.025929
v -0.011466 -0.260483 -0.025203
v -0.028487 -0.227245 -0.057238
v -0.028487 -0.227245 -0.057238
v -0.011466 -0.260483 -0.025203
v -0.025929 -0.260483 -0.009714
v -0.060617 -0.227245 -0.020330
v -0.060617 -0.227245 -0.020330
v -0.025929 -0.260483 -0.009714
v -0.025203 -0.260483 0.011466
v -0.057238 -0.227245 0.028487
v -0.025203 -0.260483 0.011466
v -0.025929 -0.260483 -0.009714
v -0.011466 -0.260483 -0.025203
v -0.009714 -0.260483 0.025929
v 0.009714 -0.260483 -0.025929
v 0.011466 -0.260483 0.025203
v 0.025203 -0.260483 -0.011466
v 0.025929 -0.260483 0.009714
v -0.057238 -0.227245 0.028487
v -0.020330 -0.227245 0.060617
v -0.021365 -0.141941 0.085221
v -0.075368 -0.141941 0.045153
v -0.075368 -0.141941 0.045153
v -0.021365 -0.141941 0.085221
v -0.018859 -0.056637 0.110180
v -0.091244 -0.056637 0.064574
v -0.091244 -0.056637 0.064574
v -0.018859 -0.056637 0.110180
v -0.013171 0.028666 0.135064
v -0.104818 0.028666 0.086192
v -0.104818 0.028666 0.086192
v -0.013171 0.028666 0.135064
v -0.004892 0.113970 0.159553
v -0.116280 0.113970 0.109362
v -0.116280 0.113970 0.109362
v -0.004892 0.113970 0.159553
v 0.005174 0.199274 0.183478
v -0.126080 0.199274 0.133398
v -0.020330 -0.227245 0.060617
v 0.028487 -0.227245 0.057238
v 0.045153 -0.141941 0.075368
v -0.021365 -0.141941 0.085221
v -0.021365 -0.141941 0.085221
v 0.045153 -0.141941 0.075368
v 0.064574 -0.056637 0.091244
v -0.018859 -0.056637 0.110180
v -0.018859 -0.056637 0.110180
v 0.064574 -0.056637 0.091244
v 0.086192 0.028666 0.104818
v -0.013171 0.028666 0.135064
v -0.013171 0.028666 0.135064
v 0.086192 0.028666 0.104818
v 0.109362 0.113970 0.116280
v -0.004892 0.113970 0.159553
v -0.004892 0.113970 0.159553
v 0.109362 0.113970 0.116280
v 0.133398 0.199274 0.126080
v 0.005174 0.199274 0.183478
v -0.028487 -0.227245 -0.057238
v -0.060617 -0.227245 -0.020330
v -0.085221 -0.141941 -0.021365
v -0.045153 -0.141941 -0.075368
v -0.045153 -0.141941 -0.075368
v -0.085221 -0.141941 -0.021365
v -0.110180 -0.056637 -0.018859
v -0.064574 -0.056638 -0.091244
v -0.064574 -0.056638 -0.091244
v -0.110180 -0.056637 -0.018859
v -0.135064 0.028666 -0.013171
v -0.086192 0.028666 -0.104818
v -0.086192 0.028666 -0.104818
v -0.135064 0.028666 -0.013171
v -0.159553 0.113970 -0.004892
v -0.109362 0.113970 -0.116280
v -0.109362 0.113970 -0.116280
v -0.159553 0.113970 -0.004892
v -0.183478 0.199274 0.005174
v -0.133398 0.199274 -0.126080
v 0.020330 -0.227245 -0.060617
v -0.028487 -0.227245 -0.057238
v -0.045153 -0.141941 -0.075368
v 0.021365 -0.141941 -0.085221
v 0.021365 -0.141941 -0.085221
v -0.045153 -0.141941 -0.075368
v -0.064574 -0.056638 -0.091244
v 0.018859 -0.056638 -0.110180
v 0.018859 -0.056638 -0.110180
v -0.064574 -0.056638 -0.091244
v -0.086192 0.028666 -0.104818
v 0.013171 0.028666 -0.135064
v 0.013171 0.028666 -0.135064
v -0.086192 0.028666 -0.104818
v -0.109362 0.113970 -0.116280
v 0.004892 0.113970 -0.159553
v 0.004892 0.113970 -0.159553
v -0.109362 0.113970 -0.116280
v -0.133398 0.199274 -0.126080
v -0.005174 0.199274 -0.183478
v 0.057238 -0.227245 -0.028487
v 0.020330 -0.227245 -0.060617
v 0.021365 -0.141941 -0.085221
v 0.075368 -0.141941 -0.045153
v 0.075368 -0.141941 -0.045153
v 0.021365 -0.141941 -0.085221
v 0.018859 -0.056638 -0.110180
v 0.091244 -0.056638 -0.064574
v 0.091244 -0.056638 -0.064574
v 0.018859 -0.056638 -0.110180
v 0.013171 0.028666 -0.135064
v 0.104818 0.028666 -0.086192
v 0.104818 0.028666 -0.086192
v 0.013171 0.028666 -0.135064
v 0.004892 0.113970 -0.159553
v 0.116280 0.113970 -0.109362
v 0.116280 0.113970 -0.109362
v 0.004892 0.113970 -0.159553
v -0.005174 0.199274 -0.183478
v 0.126080 0.199274 -0.133398
v 0.060617 -0.227245 0.020330
v 0.057238 -0.227245 -0.028487
v 0.075368 -0.141941 -0.045153
v 0.085221 -0.141941 0.021365
v 0.085221 -0.141941 0.021365
v 0.075368 -0.141941 -0.045153
v 0.091244 -0.056638 -0.064574
v 0.110180 -0.056637 0.018859
v 0.110180 -0.056637 0.018859
v 0.091244 -0.056638 -0.064574
v 0.104818 0.028666 -0.086192
v 0.135064 0.028666 0.013171
v 0.135064 0.028666 0.013171
v 0.104818 0.028666 -0.086192
v 0.116280 0.113970 -0.109362
v 0.159553 0.113970 0.004892
v 0.159553 0.113970 0.004892
v 0.116280 0.113970 -0.109362
v 0.126080 0.199274 -0.133398
v 0.183478 0.199274 -0.005174
v 0.028487 -0.227245 0.057238
v 0.060617 -0.227245 0.020330
v 0.085221 -0.141941 0.021365
v 0.045153 -0.141941 0.075368
v 0.045153 -0.141941 0.075368
v 0.085221 -0.141941 0.021365
v 0.110180 -0.056637 0.018859
v 0.064574 -0.056637 0.091244
v 0.064574 -0.056637 0.091244
v 0.110180 -0.056637 0.018859
v 0.135064 0.028666 0.013171
v 0.086192 0.028666 0.104818
v 0.086192 0.028666 0.104818
v 0.135064 0.028666 0.013171
v 0.159553 0.113970 0.004892
v 0.109362 0.113970 0.116280
v 0.109362 0.113970 0.116280
v 0.159553 0.113970 0.004892
v 0.183478 0.199274 -0.005174
v 0.133398 0.199274 0.126080
v -0.060617 -0.227245 -0.020330
v -0.057238 -0.227245 0.028487
v -0.075368 -0.141941 0.045153
v -0.085221 -0.141941 -0.021365
v -0.085221 -0.141941 -0.021365
v -0.075368 -0.141941 0.045153
v -0.091244 -0.056637 0.064574
v -0.110180 -0.056637 -0.018859
v -0.110180 -0.056637 -0.018859
v -0.091244 -0.056637 0.064574
v -0.104818 0.028666 0.086192
v -0.135064 0.028666 -0.013171
v -0.135064 0.028666 -0.013171
v -0.104818 0.028666 0.086192
v -0.116280 0.113970 0.109362
v -0.159553 0.113970 -0.004892
v -0.159553 0.113970 -0.004892
v -0.116280 0.113970 0.109362
v -0.126080 0.199274 0.133398
v -0.183478 0.199274 0.005174
v 0.177241 0.557256 -0.235484
v 0.301004 0.623760 -0.090324
v 0.208512 0.481236 -0.122335
v 0.180461 0.673331 -0.256100
v 0.013897 0.631076 -0.315537
v 0.062855 0.804730 -0.261702
v 0.177241 0.557256 -0.235484
v 0.208512 0.481236 -0.122335
v 0.064809 0.498361 -0.243315
v 0.180461 0.673331 -0.256100
v 0.177241 0.557256 -0.235484
v 0.013897 0.631076 -0.315537
v -0.238666 0.557256 -0.175132
v -0.093505 0.623760 -0.298895
v -0.125517 0.481236 -0.206403
v -0.259282 0.673331 -0.178352
v -0.318719 0.631077 -0.011788
v -0.264883 0.804730 -0.060746
v -0.238666 0.557256 -0.175132
v -0.125517 0.481236 -0.206403
v -0.246497 0.498361 -0.062700
v -0.259282 0.673331 -0.178352
v -0.238666 0.557256 -0.175132
v -0.318719 0.631077 -0.011788
v -0.178314 0.557256 0.240775
v -0.302076 0.623760 0.095614
v -0.209585 0.481236 0.127626
v -0.181534 0.673331 0.261391
v -0.014970 0.631077 0.320828
v -0.063928 0.804730 0.266992
v -0.178314 0.557256 0.240775
v -0.209585 0.481236 0.127626
v -0.065882 0.498361 0.248606
v -0.181534 0.673331 0.261391
v -0.178314 0.557256 0.240775
v -0.014970 0.631077 0.320828
v 0.237593 0.557256 0.180423
v 0.092433 0.623760 0.304185
v 0.124444 0.481236 0.211694
v 0.258209 0.673331 0.183643
v 0.317646 0.631077 0.017079
v 0.263810 0.804730 0.066037
v 0.237593 0.557256 0.180423
v 0.124444 0.481236 0.211694
v 0.245424 0.498361 0.067991
v 0.258209 0.673331 0.183643
v 0.237593 0.557256 0.180423
v 0.317646 0.631077 0.017079
v -0.055746 0.430460 -0.145607
v -0.125517 0.481236 -0.206403
v 0.064809 0.498361 -0.243315
v -0.148788 0.430460 0.057855
v -0.209585 0.481236 0.127626
v -0.246497 0.498361 -0.062700
v 0.054673 0.430460 0.150897
v 0.124444 0.481236 0.211694
v -0.065882 0.498361 0.248606
v 0.147716 0.430460 -0.052564
v 0.208512 0.481236 -0.122335
v 0.245424 0.498361 0.067991
v -0.121069 0.916974 -0.053951
v -0.130861 0.832641 -0.212699
v -0.264883 0.804730 -0.060746
v -0.057133 0.916974 0.123178
v -0.121069 0.916974 -0.053951
v -0.215880 0.832641 0.132970
v 0.056060 0.916974 -0.117887
v 0.214808 0.832641 -0.127679
v 0.062855 0.804730 -0.261702
v -0.121069 0.916974 -0.053951
v 0.056060 0.916974 -0.117887
v -0.130861 0.832641 -0.212699
v 0.079420 0.937731 0.031259
v 0.129788 0.832641 0.217989
v 0.263810 0.804730 0.066037
v 0.056060 0.916974 -0.117887
v 0.079420 0.937731 0.031259
v 0.214808 0.832641 -0.127679
v -0.057133 0.916974 0.123178
v -0.215880 0.832641 0.132970
v -0.063928 0.804730 0.266992
v 0.079420 0.937731 0.031259
v -0.057133 0.916974 0.123178
v 0.129788 0.832641 0.217989
v 0.035292 0.669868 -0.106890
v 0.266486 0.617857 -0.161329
v 0.113728 0.613347 -0.293285
v 0.035292 0.669868 -0.106890
v 0.156432 0.653120 0.171748
v 0.266486 0.617857 -0.161329
v -0.027043 0.439356 -0.109511
v -0.252852 0.491367 -0.183165
v -0.089556 0.495877 -0.301832
v -0.027043 0.439356 -0.109511
v -0.171146 0.456104 0.157975
v -0.252852 0.491367 -0.183165
v -0.169639 0.653120 0.159613
v -0.321473 0.577452 0.152153
v -0.114801 0.613347 0.298575
v -0.206451 0.554598 0.296247
v -0.191028 0.505052 0.268055
v -0.015875 0.554612 0.367454
v -0.171146 0.456104 0.157975
v -0.191028 0.505052 0.268055
v -0.305013 0.495877 0.091665
v 0.333279 0.554612 -0.115061
v 0.266486 0.617857 -0.161329
v 0.364272 0.554612 0.017984
v 0.205379 0.554598 -0.290956
v 0.189956 0.505052 -0.262765
v 0.014802 0.554612 -0.362163
v 0.170073 0.456104 -0.152685
v 0.189956 0.505052 -0.262765
v 0.303941 0.495877 -0.086375
v 0.156432 0.653120 0.171748
v 0.148972 0.577452 0.323582
v 0.295394 0.613347 0.116910
v 0.293065 0.554598 0.208560
v 0.264874 0.505052 0.193137
v 0.364272 0.554612 0.017984
v 0.154794 0.456104 0.173255
v 0.264874 0.505052 0.193137
v 0.088484 0.495877 0.307122
v -0.157504 0.653120 -0.166458
v -0.150044 0.577452 -0.318292
v -0.296466 0.613347 -0.111619
v -0.294138 0.554598 -0.203270
v -0.252852 0.491367 -0.183165
v -0.365345 0.554612 -0.012694
v 0.180461 0.673331 -0.256100
v 0.301004 0.623760 -0.090324
v 0.177241 0.557256 -0.235484
v 0.180461 0.673331 -0.256100
v 0.214808 0.832641 -0.127679
v 0.301004 0.623760 -0.090324
v 0.180461 0.673331 -0.256100
v 0.062855 0.804730 -0.261702
v 0.214808 0.832641 -0.127679
v 0.177241 0.557256 -0.235484
v 0.064809 0.498361 -0.243315
v 0.013897 0.631076 -0.315537
v -0.259282 0.673331 -0.178352
v -0.093505 0.623760 -0.298895
v -0.238666 0.557256 -0.175132
v -0.259282 0.673331 -0.178352
v -0.130861 0.832641 -0.212699
v -0.093505 0.623760 -0.298895
v -0.259282 0.673331 -0.178352
v -0.264883 0.804730 -0.060746
v -0.130861 0.832641 -0.212699
v -0.238666 0.557256 -0.175132
v -0.246497 0.498361 -0.062700
v -0.318719 0.631077 -0.011788
v -0.181534 0.673331 0.261391
v -0.302076 0.623760 0.095614
v -0.178314 0.557256 0.240775
v -0.181534 0.673331 0.261391
v -0.215880 0.832641 0.132970
v -0.302076 0.623760 0.095614
v -0.181534 0.673331 0.261391
v -0.063928 0.804730 0.266992
v -0.215880 0.832641 0.132970
v -0.178314 0.557256 0.240775
v -0.065882 0.498361 0.248606
v -0.014970 0.631077 0.320828
v 0.258209 0.673331 0.183643
v 0.092433 0.623760 0.304185
v 0.237593 0.557256 0.180423
v 0.258209 0.673331 0.183643
v 0.129788 0.832641 0.217989
v 0.092433 0.623760 0.304185
v 0.258209 0.673331 0.183643
v 0.263810 0.804730 0.066037
v 0.129788 0.832641 0.217989
v 0.237593 0.557256 0.180423
v 0.245424 0.498361 0.067991
v 0.317646 0.631077 0.017079
v -0.000536 0.407779 0.002645
v -0.055746 0.430460 -0.145607
v 0.147716 0.430460 -0.052564
v -0.000536 0.407779 0.002645
v -0.148788 0.430460 0.057855
v -0.055746 0.430460 -0.145607
v -0.000536 0.407779 0.002645
v 0.054673 0.430460 0.150897
v -0.148788 0.430460 0.057855
v -0.000536 0.407779 0.002645
v 0.147716 0.430460 -0.052564
v 0.054673 0.430460 0.150897
v 0.079420 0.937731 0.031259
v -0.121069 0.916974 -0.053951
v -0.057133 0.916974 0.123178
v -0.121069 0.916974 -0.053951
v -0.264883 0.804730 -0.060746
v -0.215880 0.832641 0.132970
v 0.079420 0.937731 0.031259
v 0.056060 0.916974 -0.117887
v -0.121069 0.916974 -0.053951
v 0.056060 0.916974 -0.117887
v 0.062855 0.804730 -0.261702
v -0.130861 0.832641 -0.212699
v 0.079420 0.937731 0.031259
v 0.263810 0.804730 0.066037
v 0.214808 0.832641 -0.127679
v -0.057133 0.916974 0.123178
v -0.063928 0.804730 0.266992
v 0.129788 0.832641 0.217989
v 0.035292 0.669868 -0.106890
v 0.113728 0.613347 -0.293285
v -0.157504 0.653120 -0.166458
v 0.156432 0.653120 0.171748
v 0.295394 0.613347 0.116910
v 0.266486 0.617857 -0.161329
v 0.035292 0.669868 -0.106890
v -0.169639 0.653120 0.159613
v 0.156432 0.653120 0.171748
v -0.169639 0.653120 0.159613
v -0.114801 0.613347 0.298575
v 0.156432 0.653120 0.171748
v 0.035292 0.669868 -0.106890
v -0.157504 0.653120 -0.166458
v -0.169639 0.653120 0.159613
v -0.157504 0.653120 -0.166458
v -0.296466 0.613347 -0.111619
v -0.169639 0.653120 0.159613
v -0.027043 0.439356 -0.109511
v -0.089556 0.495877 -0.301832
v 0.170073 0.456104 -0.152685
v -0.171146 0.456104 0.157975
v -0.305013 0.495877 0.091665
v -0.252852 0.491367 -0.183165
v -0.027043 0.439356 -0.109511
v 0.154794 0.456104 0.173255
v -0.171146 0.456104 0.157975
v 0.154794 0.456104 0.173255
v 0.088484 0.495877 0.307122
v -0.171146 0.456104 0.157975
v -0.027043 0.439356 -0.109511
v 0.170073 0.456104 -0.152685
v 0.154794 0.456104 0.173255
v 0.170073 0.456104 -0.152685
v 0.303941 0.495877 -0.086375
v 0.154794 0.456104 0.173255
v -0.206451 0.554598 0.296247
v -0.114801 0.613347 0.298575
v -0.321473 0.577452 0.152153
v -0.206451 0.554598 0.296247
v -0.015875 0.554612 0.367454
v -0.114801 0.613347 0.298575
v -0.321473 0.577452 0.152153
v -0.365345 0.554612 -0.012694
v -0.305013 0.495877 0.091665
v 0.205379 0.554598 -0.290956
v 0.266486 0.617857 -0.161329
v 0.333279 0.554612 -0.115061
v 0.266486 0.617857 -0.161329
v 0.295394 0.613347 0.116910
v 0.364272 0.554612 0.017984
v 0.205379 0.554598 -0.290956
v 0.113728 0.613347 -0.293285
v 0.266486 0.617857 -0.161329
v 0.205379 0.554598 -0.290956
v 0.014802 0.554612 -0.362163
v 0.113728 0.613347 -0.293285
v 0.333279 0.554612 -0.115061
v 0.364272 0.554612 0.017984
v 0.303941 0.495877 -0.086375
v 0.293065 0.554598 0.208560
v 0.295394 0.613347 0.116910
v 0.148972 0.577452 0.323582
v 0.293065 0.554598 0.208560
v 0.364272 0.554612 0.017984
v 0.295394 0.613347 0.116910
v 0.148972 0.577452 0.323582
v -0.015875 0.554612 0.367454
v 0.088484 0.495877 0.307122
v -0.294138 0.554598 -0.203270
v -0.296466 0.613347 -0.111619
v -0.150044 0.577452 -0.318292
v -0.294138 0.554598 -0.203270
v -0.365345 0.554612 -0.012694
v -0.296466 0.613347 -0.111619
v -0.252852 0.491367 -0.183165
v -0.305013 0.495877 0.091665
v -0.365345 0.554612 -0.012694
v -0.150044 0.577452 -0.318292
v 0.014802 0.554612 -0.362163
v -0.089556 0.495877 -0.301832
v 0.263810 0.804730 0.066037
v 0.317646 0.631077 0.017079
v 0.301004 0.623760 -0.090324
v 0.214808 0.832641 -0.127679
v 0.064809 0.498361 -0.243315
v -0.125517 0.481236 -0.206403
v -0.093505 0.623760 -0.298895
v 0.013897 0.631076 -0.315537
v 0.245424 0.498361 0.067991
v 0.208512 0.481236 -0.122335
v 0.301004 0.623760 -0.090324
v 0.317646 0.631077 0.017079
v 0.062855 0.804730 -0.261702
v 0.013897 0.631076 -0.315537
v -0.093505 0.623760 -0.298895
v -0.130861 0.832641 -0.212699
v -0.246497 0.498361 -0.062700
v -0.209585 0.481236 0.127626
v -0.302076 0.623760 0.095614
v -0.318719 0.631077 -0.011788
v -0.264883 0.804730 -0.060746
v -0.318719 0.631077 -0.011788
v -0.302076 0.623760 0.095614
v -0.215880 0.832641 0.132970
v -0.065882 0.498361 0.248606
v 0.124444 0.481236 0.211694
v 0.092433 0.623760 0.304185
v -0.014970 0.631077 0.320828
v -0.063928 0.804730 0.266992
v -0.014970 0.631077 0.320828
v 0.092433 0.623760 0.304185
v 0.129788 0.832641 0.217989
v 0.064809 0.498361 -0.243315
v 0.208512 0.481236 -0.122335
v 0.147716 0.430460 -0.052564
v -0.055746 0.430460 -0.145607
v -0.246497 0.498361 -0.062700
v -0.125517 0.481236 -0.206403
v -0.055746 0.430460 -0.145607
v -0.148788 0.430460 0.057855
v -0.065882 0.498361 0.248606
v -0.209585 0.481236 0.127626
v -0.148788 0.430460 0.057855
v 0.054673 0.430460 0.150897
v 0.245424 0.498361 0.067991
v 0.124444 0.481236 0.211694
v 0.054673 0.430460 0.150897
v 0.147716 0.430460 -0.052564
v -0.296466 0.613347 -0.111619
v -0.365345 0.554612 -0.012694
v -0.321473 0.577452 0.152153
v -0.169639 0.653120 0.159613
v 0.088484 0.495877 0.307122
v -0.015875 0.554612 0.367454
v -0.191028 0.505052 0.268055
v -0.171146 0.456104 0.157975
v -0.305013 0.495877 0.091665
v -0.191028 0.505052 0.268055
v -0.206451 0.554598 0.296247
v -0.321473 0.577452 0.152153
v -0.089556 0.495877 -0.301832
v 0.014802 0.554612 -0.362163
v 0.189956 0.505052 -0.262765
v 0.170073 0.456104 -0.152685
v 0.303941 0.495877 -0.086375
v 0.189956 0.505052 -0.262765
v 0.205379 0.554598 -0.290956
v 0.333279 0.554612 -0.115061
v -0.114801 0.613347 0.298575
v -0.015875 0.554612 0.367454
v 0.148972 0.577452 0.323582
v 0.156432 0.653120 0.171748
v 0.303941 0.495877 -0.086375
v 0.364272 0.554612 0.017984
v 0.264874 0.505052 0.193137
v 0.154794 0.456104 0.173255
v 0.088484 0.495877 0.307122
v 0.264874 0.505052 0.193137
v 0.293065 0.554598 0.208560
v 0.148972 0.577452 0.323582
v 0.113728 0.613347 -0.293285
v 0.014802 0.554612 -0.362163
v -0.150044 0.577452 -0.318292
v -0.157504 0.653120 -0.166458
v -0.089556 0.495877 -0.301832
v -0.252852 0.491367 -0.183165
v -0.294138 0.554598 -0.203270
v -0.150044 0.577452 -0.318292
v -0.246760 0.920305 -0.147121
v -0.110845 0.986809 -0.280970
v -0.136144 0.844285 -0.186422
v -0.156504 1.153658 -0.211427
v -0.116972 1.230727 -0.161305
v 0.047779 1.167779 -0.255082
v -0.267554 1.036379 -0.148855
v -0.314898 0.994125 0.021542
v -0.264710 1.167779 -0.031150
v -0.246760 0.920305 -0.147121
v -0.136144 0.844285 -0.186422
v -0.246512 0.861410 -0.034416
v -0.267554 1.036379 -0.148855
v -0.246760 0.920305 -0.147121
v -0.314898 0.994125 0.021542
v -0.156749 0.920305 0.263390
v -0.290599 0.986809 0.127475
v -0.196051 0.844285 0.152774
v -0.221055 1.153658 0.173133
v -0.170934 1.230727 0.133602
v -0.264710 1.167779 -0.031150
v -0.158483 1.036380 0.284184
v 0.011913 0.994125 0.331528
v -0.040778 1.167779 0.281340
v -0.156749 0.920305 0.263390
v -0.196051 0.844285 0.152774
v -0.044045 0.861410 0.263141
v -0.158483 1.036380 0.284184
v -0.156749 0.920305 0.263390
v 0.011913 0.994125 0.331528
v 0.253761 0.920305 0.173379
v 0.117846 0.986809 0.307229
v 0.143145 0.844285 0.212681
v 0.163505 1.153658 0.237685
v 0.123973 1.230727 0.187563
v -0.040778 1.167779 0.281340
v 0.274555 1.036380 0.175113
v 0.321899 0.994125 0.004717
v 0.271711 1.167779 0.057408
v 0.253761 0.920305 0.173379
v 0.143145 0.844285 0.212681
v 0.253513 0.861410 0.060675
v 0.274555 1.036380 0.175113
v 0.253761 0.920305 0.173379
v 0.321899 0.994125 0.004717
v 0.163750 0.920305 -0.237131
v 0.297600 0.986809 -0.101216
v 0.203052 0.844285 -0.126515
v 0.228056 1.153658 -0.146875
v 0.177935 1.230727 -0.107343
v 0.271711 1.167779 0.057408
v 0.165484 1.036379 -0.257926
v -0.004912 0.994125 -0.305269
v 0.047779 1.167779 -0.255082
v 0.163750 0.920305 -0.237131
v 0.203052 0.844285 -0.126515
v 0.051046 0.861410 -0.236883
v 0.165484 1.036379 -0.257926
v 0.163750 0.920305 -0.237131
v -0.004912 0.994125 -0.305269
v -0.140412 0.793509 0.078824
v -0.196051 0.844285 0.152774
v -0.246512 0.861410 -0.034416
v 0.069195 0.793509 0.157042
v 0.143145 0.844285 0.212681
v -0.044045 0.861410 0.263141
v 0.147413 0.793509 -0.052566
v 0.203052 0.844285 -0.126515
v 0.253513 0.861410 0.060675
v -0.062194 0.793509 -0.130784
v -0.136144 0.844285 -0.186422
v 0.051046 0.861410 -0.236883
v -0.019308 1.300780 0.094930
v -0.170934 1.230727 0.133602
v -0.040778 1.167779 0.281340
v 0.127780 1.280023 0.060940
v -0.019308 1.300780 0.094930
v 0.123973 1.230727 0.187563
v -0.120779 1.280023 -0.034682
v -0.116972 1.230727 -0.161305
v -0.264710 1.167779 -0.031150
v -0.019308 1.300780 0.094930
v -0.120779 1.280023 -0.034682
v -0.170934 1.230727 0.133602
v 0.051311 1.280023 -0.111150
v 0.177935 1.230727 -0.107343
v 0.047779 1.167779 -0.255082
v -0.120779 1.280023 -0.034682
v 0.051311 1.280023 -0.111150
v -0.116972 1.230727 -0.161305
v 0.127780 1.280023 0.060940
v 0.123973 1.230727 0.187563
v 0.271711 1.167779 0.057408
v 0.051311 1.280023 -0.111150
v 0.127780 1.280023 0.060940
v 0.177935 1.230727 -0.107343
v -0.267554 1.036379 -0.148855
v -0.110845 0.986809 -0.280970
v -0.246760 0.920305 -0.147121
v -0.267554 1.036379 -0.148855
v -0.156504 1.153658 -0.211427
v -0.110845 0.986809 -0.280970
v -0.267554 1.036379 -0.148855
v -0.264710 1.167779 -0.031150
v -0.156504 1.153658 -0.211427
v -0.156504 1.153658 -0.211427
v -0.264710 1.167779 -0.031150
v -0.116972 1.230727 -0.161305
v -0.246760 0.920305 -0.147121
v -0.246512 0.861410 -0.034416
v -0.314898 0.994125 0.021542
v -0.158483 1.036380 0.284184
v -0.290599 0.986809 0.127475
v -0.156749 0.920305 0.263390
v -0.158483 1.036380 0.284184
v -0.221055 1.153658 0.173133
v -0.290599 0.986809 0.127475
v -0.158483 1.036380 0.284184
v -0.040778 1.167779 0.281340
v -0.221055 1.153658 0.173133
v -0.221055 1.153658 0.173133
v -0.040778 1.167779 0.281340
v -0.170934 1.230727 0.133602
v -0.156749 0.920305 0.263390
v -0.044045 0.861410 0.263141
v 0.011913 0.994125 0.331528
v 0.274555 1.036380 0.175113
v 0.117846 0.986809 0.307229
v 0.253761 0.920305 0.173379
v 0.274555 1.036380 0.175113
v 0.163505 1.153658 0.237685
v 0.117846 0.986809 0.307229
v 0.274555 1.036380 0.175113
v 0.271711 1.167779 0.057408
v 0.163505 1.153658 0.237685
v 0.163505 1.153658 0.237685
v 0.271711 1.167779 0.057408
v 0.123973 1.230727 0.187563
v 0.253761 0.920305 0.173379
v 0.253513 0.861410 0.060675
v 0.321899 0.994125 0.004717
v 0.165484 1.036379 -0.257926
v 0.297600 0.986809 -0.101216
v 0.163750 0.920305 -0.237131
v 0.165484 1.036379 -0.257926
v 0.228056 1.153658 -0.146875
v 0.297600 0.986809 -0.101216
v 0.165484 1.036379 -0.257926
v 0.047779 1.167779 -0.255082
v 0.228056 1.153658 -0.146875
v 0.228056 1.153658 -0.146875
v 0.047779 1.167779 -0.255082
v 0.177935 1.230727 -0.107343
v 0.163750 0.920305 -0.237131
v 0.051046 0.861410 -0.236883
v -0.004912 0.994125 -0.305269
v 0.003500 0.770828 0.013129
v -0.140412 0.793509 0.078824
v -0.062194 0.793509 -0.130784
v 0.003500 0.770828 0.013129
v 0.069195 0.793509 0.157042
v -0.140412 0.793509 0.078824
v 0.003500 0.770828 0.013129
v 0.147413 0.793509 -0.052566
v 0.069195 0.793509 0.157042
v 0.003500 0.770828 0.013129
v -0.062194 0.793509 -0.130784
v 0.147413 0.793509 -0.052566
v -0.019308 1.300780 0.094930
v -0.040778 1.167779 0.281340
v 0.123973 1.230727 0.187563
v -0.120779 1.280023 -0.034682
v -0.264710 1.167779 -0.031150
v -0.170934 1.230727 0.133602
v -0.019308 1.300780 0.094930
v 0.051311 1.280023 -0.111150
v -0.120779 1.280023 -0.034682
v 0.051311 1.280023 -0.111150
v 0.047779 1.167779 -0.255082
v -0.116972 1.230727 -0.161305
v -0.019308 1.300780 0.094930
v 0.127780 1.280023 0.060940
v 0.051311 1.280023 -0.111150
v 0.127780 1.280023 0.060940
v 0.271711 1.167779 0.057408
v 0.177935 1.230727 -0.107343
v 0.051046 0.861410 -0.236883
v -0.136144 0.844285 -0.186422
v -0.110845 0.986809 -0.280970
v -0.004912 0.994125 -0.305269
v 0.047779 1.167779 -0.255082
v -0.004912 0.994125 -0.305269
v -0.110845 0.986809 -0.280970
v -0.156504 1.153658 -0.211427
v -0.246512 0.861410 -0.034416
v -0.196051 0.844285 0.152774
v -0.290599 0.986809 0.127475
v -0.314898 0.994125 0.021542
v -0.264710 1.167779 -0.031150
v -0.314898 0.994125 0.021542
v -0.290599 0.986809 0.127475
v -0.221055 1.153658 0.173133
v -0.044045 0.861410 0.263141
v 0.143145 0.844285 0.212681
v 0.117846 0.986809 0.307229
v 0.011913 0.994125 0.331528
v -0.040778 1.167779 0.281340
v 0.011913 0.994125 0.331528
v 0.117846 0.986809 0.307229
v 0.163505 1.153658 0.237685
v 0.253513 0.861410 0.060675
v 0.203052 0.844285 -0.126515
v 0.297600 0.986809 -0.101216
v 0.321899 0.994125 0.004717
v 0.271711 1.167779 0.057408
v 0.321899 0.994125 0.004717
v 0.297600 0.986809 -0.101216
v 0.228056 1.153658 -0.146875
v -0.246512 0.861410 -0.034416
v -0.136144 0.844285 -0.186422
v -0.062194 0.793509 -0.130784
v -0.140412 0.793509 0.078824
v -0.044045 0.861410 0.263141
v -0.196051 0.844285 0.152774
v -0.140412 0.793509 0.078824
v 0.069195 0.793509 0.157042
v 0.253513 0.861410 0.060675
v 0.143145 0.844285 0.212681
v 0.069195 0.793509 0.157042
v 0.147413 0.793509 -0.052566
v 0.051046 0.861410 -0.236883
v 0.203052 0.844285 -0.126515
v 0.147413 0.793509 -0.052566
v -0.062194 0.793509 -0.130784
v 0.151141 0.645654 -0.276703
v 0.135724 0.646860 -0.281611
v 0.137663 0.702992 -0.273911
v 0.153080 0.701786 -0.269002
v 0.135724 0.646860 -0.281611
v 0.130700 0.644934 -0.266305
v 0.132639 0.701066 -0.258604
v 0.137663 0.702992 -0.273911
v 0.130700 0.644934 -0.266305
v 0.146117 0.643728 -0.261396
v 0.148056 0.699860 -0.253696
v 0.132639 0.701066 -0.258604
v 0.146117 0.643728 -0.261396
v 0.151141 0.645654 -0.276703
v 0.153080 0.701786 -0.269002
v 0.148056 0.699860 -0.253696
v 0.135724 0.646860 -0.281611
v 0.151141 0.645654 -0.276703
v 0.146117 0.643728 -0.261396
v 0.130700 0.644934 -0.266305
v 0.132639 0.701066 -0.258604
v 0.148056 0.699860 -0.253696
v 0.153080 0.701786 -0.269002
v 0.137663 0.702992 -0.273911
v -0.125820 0.674526 -0.270019
v -0.137124 0.680622 -0.260106
v -0.114348 0.732216 -0.265860
v -0.103044 0.726120 -0.275774
v -0.137124 0.680622 -0.260106
v -0.127484 0.677787 -0.247368
v -0.104708 0.729381 -0.253123
v -0.114348 0.732216 -0.265860
v -0.127484 0.677787 -0.247368
v -0.116179 0.671691 -0.257282
v -0.093403 0.723285 -0.263036
v -0.104708 0.729381 -0.253123
v -0.116179 0.671691 -0.257282
v -0.125820 0.674526 -0.270019
v -0.103044 0.726120 -0.275774
v -0.093403 0.723285 -0.263036
v -0.137124 0.680622 -0.260106
v -0.125820 0.674526 -0.270019
v -0.116179 0.671691 -0.257282
v -0.127484 0.677787 -0.247368
v -0.104708 0.729381 -0.253123
v -0.093403 0.723285 -0.263036
v -0.103044 0.726120 -0.275774
v -0.114348 0.732216 -0.265860
v 0.110115 0.867459 -0.148662
v 0.117093 0.873280 -0.162103
v 0.066819 0.873052 -0.188300
v 0.059841 0.867231 -0.174859
v 0.117093 0.873280 -0.162103
v 0.119837 0.858136 -0.167237
v 0.069563 0.857908 -0.193434
v 0.066819 0.873052 -0.188300
v 0.119837 0.858136 -0.167237
v 0.112859 0.852315 -0.153796
v 0.062585 0.852087 -0.179993
v 0.069563 0.857908 -0.193434
v 0.112859 0.852315 -0.153796
v 0.110115 0.867459 -0.148662
v 0.059841 0.867231 -0.174859
v 0.062585 0.852087 -0.179993
v 0.117093 0.873280 -0.162103
v 0.110115 0.867459 -0.148662
v 0.112859 0.852315 -0.153796
v 0.119837 0.858136 -0.167237
v 0.069563 0.857908 -0.193434
v 0.062585 0.852087 -0.179993
v 0.059841 0.867231 -0.174859
v 0.066819 0.873052 -0.188300
v 0.066883 0.832689 0.236937
v 0.072081 0.842465 0.225077
v 0.018520 0.857172 0.213726
v 0.013323 0.847396 0.225585
v 0.072081 0.842465 0.225077
v 0.070961 0.830220 0.214493
v 0.017401 0.844927 0.203141
v 0.018520 0.857172 0.213726
v 0.070961 0.830220 0.214493
v 0.065764 0.820444 0.226352
v 0.012204 0.835151 0.215001
v 0.017401 0.844927 0.203141
v 0.065764 0.820444 0.226352
v 0.066883 0.832689 0.236937
v 0.013323 0.847396 0.225585
v 0.012204 0.835151 0.215001
v 0.072081 0.842465 0.225077
v 0.066883 0.832689 0.236937
v 0.065764 0.820444 0.226352
v 0.070961 0.830220 0.214493
v 0.017401 0.844927 0.203141
v 0.012204 0.835151 0.215001
v 0.013323 0.847396 0.225585
v 0.018520 0.857172 0.213726
v -0.197474 0.822123 0.121077
v -0.186632 0.833652 0.117504
v -0.160727 0.824670 0.167123
v -0.171569 0.813141 0.170697
v -0.186632 0.833652 0.117504
v -0.196157 0.844774 0.124489
v -0.170252 0.835793 0.174109
v -0.160727 0.824670 0.167123
v -0.196157 0.844774 0.124489
v -0.206999 0.833245 0.128063
v -0.181094 0.824264 0.177682
v -0.170252 0.835793 0.174109
v -0.206999 0.833245 0.128063
v -0.197474 0.822123 0.121077
v -0.171569 0.813141 0.170697
v -0.181094 0.824264 0.177682
v -0.186632 0.833652 0.117504
v -0.197474 0.822123 0.121077
v -0.206999 0.833245 0.128063
v -0.196157 0.844774 0.124489
v -0.170252 0.835793 0.174109
v -0.181094 0.824264 0.177682
v -0.171569 0.813141 0.170697
v -0.160727 0.824670 0.167123
v 0.243090 0.809850 -0.064685
v 0.236116 0.824403 -0.066355
v 0.236771 0.831176 -0.010074
v 0.243745 0.816623 -0.008404
v 0.236116 0.824403 -0.066355
v 0.221468 0.817499 -0.065354
v 0.222123 0.824272 -0.009073
v 0.236771 0.831176 -0.010074
v 0.221468 0.817499 -0.065354
v 0.228442 0.802946 -0.063684
v 0.229097 0.809719 -0.007403
v 0.222123 0.824272 -0.009073
v 0.228442 0.802946 -0.063684
v 0.243090 0.809850 -0.064685
v 0.243745 0.816623 -0.008404
v 0.229097 0.809719 -0.007403
v 0.236116 0.824403 -0.066355
v 0.243090 0.809850 -0.064685
v 0.228442 0.802946 -0.063684
v 0.221468 0.817499 -0.065354
v 0.222123 0.824272 -0.009073
v 0.229097 0.809719 -0.007403
v 0.243745 0.816623 -0.008404
v 0.236771 0.831176 -0.010074
v -0.107999 0.868841 -0.150369
v -0.109199 0.884547 -0.154256
v -0.054395 0.885147 -0.168749
v -0.053195 0.869441 -0.164861
v -0.109199 0.884547 -0.154256
v -0.105225 0.888613 -0.139061
v -0.050421 0.889212 -0.153553
v -0.054395 0.885147 -0.168749
v -0.105225 0.888613 -0.139061
v -0.104025 0.872907 -0.135173
v -0.049221 0.873506 -0.149665
v -0.050421 0.889212 -0.153553
v -0.104025 0.872907 -0.135173
v -0.107999 0.868841 -0.150369
v -0.053195 0.869441 -0.164861
v -0.049221 0.873506 -0.149665
v -0.109199 0.884547 -0.154256
v -0.107999 0.868841 -0.150369
v -0.104025 0.872907 -0.135173
v -0.105225 0.888613 -0.139061
v -0.050421 0.889212 -0.153553
v -0.049221 0.873506 -0.149665
v -0.053195 0.869441 -0.164861
v -0.054395 0.885147 -0.168749
v -0.244300 0.806334 -0.023723
v -0.256680 0.816799 -0.024382
v -0.249555 0.821705 -0.080408
v -0.237175 0.811239 -0.079750
v -0.256680 0.816799 -0.024382
v -0.246394 0.829117 -0.021995
v -0.239269 0.834022 -0.078022
v -0.249555 0.821705 -0.080408
v -0.246394 0.829117 -0.021995
v -0.234014 0.818651 -0.021337
v -0.226889 0.823557 -0.077364
v -0.239269 0.834022 -0.078022
v -0.234014 0.818651 -0.021337
v -0.244300 0.806334 -0.023723
v -0.237175 0.811239 -0.079750
v -0.226889 0.823557 -0.077364
v -0.256680 0.816799 -0.024382
v -0.244300 0.806334 -0.023723
v -0.234014 0.818651 -0.021337
v -0.246394 0.829117 -0.021995
v -0.239269 0.834022 -0.078022
v -0.226889 0.823557 -0.077364
v -0.237175 0.811239 -0.079750
v -0.249555 0.821705 -0.080408
v -0.286002 1.010351 -0.118133
v -0.289792 1.011557 -0.102404
v -0.282251 1.067689 -0.104890
v -0.278460 1.066483 -0.120619
v -0.289792 1.011557 -0.102404
v -0.274165 1.009631 -0.098490
v -0.266624 1.065762 -0.100976
v -0.282251 1.067689 -0.104890
v -0.274165 1.009631 -0.098490
v -0.270375 1.008425 -0.114219
v -0.262833 1.064556 -0.116705
v -0.266624 1.065762 -0.100976
v -0.270375 1.008425 -0.114219
v -0.286002 1.010351 -0.118133
v -0.278460 1.066483 -0.120619
v -0.262833 1.064556 -0.116705
v -0.289792 1.011557 -0.102404
v -0.286002 1.010351 -0.118133
v -0.270375 1.008425 -0.114219
v -0.274165 1.009631 -0.098490
v -0.266624 1.065762 -0.100976
v -0.262833 1.064556 -0.116705
v -0.278460 1.066483 -0.120619
v -0.282251 1.067689 -0.104890
v -0.259482 1.039223 0.157636
v -0.248784 1.045319 0.168201
v -0.256156 1.096913 0.145896
v -0.266854 1.090817 0.135331
v -0.248784 1.045319 0.168201
v -0.236770 1.042484 0.157672
v -0.244142 1.094078 0.135367
v -0.256156 1.096913 0.145896
v -0.236770 1.042484 0.157672
v -0.247468 1.036387 0.147107
v -0.254840 1.087981 0.124802
v -0.244142 1.094078 0.135367
v -0.247468 1.036387 0.147107
v -0.259482 1.039223 0.157636
v -0.266854 1.090817 0.135331
v -0.254840 1.087981 0.124802
v -0.248784 1.045319 0.168201
v -0.259482 1.039223 0.157636
v -0.247468 1.036387 0.147107
v -0.236770 1.042484 0.157672
v -0.244142 1.094078 0.135367
v -0.254840 1.087981 0.124802
v -0.266854 1.090817 0.135331
v -0.256156 1.096913 0.145896
v 0.095027 1.252752 -0.114340
v 0.099906 1.263883 -0.125089
v 0.050781 1.291473 -0.118817
v 0.045902 1.280342 -0.108068
v 0.099906 1.263883 -0.125089
v 0.093443 1.255108 -0.137109
v 0.044318 1.282698 -0.130836
v 0.050781 1.291473 -0.118817
v 0.093443 1.255108 -0.137109
v 0.088564 1.243978 -0.126360
v 0.039439 1.271568 -0.120087
v 0.044318 1.282698 -0.130836
v 0.088564 1.243978 -0.126360
v 0.095027 1.252752 -0.114340
v 0.045902 1.280342 -0.108068
v 0.039439 1.271568 -0.120087
v 0.099906 1.263883 -0.125089
v 0.095027 1.252752 -0.114340
v 0.088564 1.243978 -0.126360
v 0.093443 1.255108 -0.137109
v 0.044318 1.282698 -0.130836
v 0.039439 1.271568 -0.120087
v 0.045902 1.280342 -0.108068
v 0.050781 1.291473 -0.118817
v -0.047945 1.297214 0.060878
v -0.052234 1.312251 0.065206
v -0.009955 1.313444 0.102954
v -0.005667 1.298407 0.098627
v -0.052234 1.312251 0.065206
v -0.062155 1.306168 0.076510
v -0.019877 1.307361 0.114259
v -0.009955 1.313444 0.102954
v -0.062155 1.306168 0.076510
v -0.057867 1.291131 0.072182
v -0.015589 1.292324 0.109931
v -0.019877 1.307361 0.114259
v -0.057867 1.291131 0.072182
v -0.047945 1.297214 0.060878
v -0.005667 1.298407 0.098627
v -0.015589 1.292324 0.109931
v -0.052234 1.312251 0.065206
v -0.047945 1.297214 0.060878
v -0.057867 1.291131 0.072182
v -0.062155 1.306168 0.076510
v -0.019877 1.307361 0.114259
v -0.015589 1.292324 0.109931
v -0.005667 1.298407 0.098627
v -0.009955 1.313444 0.102954
v -0.155349 1.232156 -0.086391
v -0.169256 1.237977 -0.092387
v -0.191782 1.237749 -0.040365
v -0.177875 1.231928 -0.034369
v -0.169256 1.237977 -0.092387
v -0.174573 1.222833 -0.094756
v -0.197099 1.222605 -0.042733
v -0.191782 1.237749 -0.040365
v -0.174573 1.222833 -0.094756
v -0.160667 1.217011 -0.088760
v -0.183193 1.216784 -0.036737
v -0.197099 1.222605 -0.042733
v -0.160667 1.217011 -0.088760
v -0.155349 1.232156 -0.086391
v -0.177875 1.231928 -0.034369
v -0.183193 1.216784 -0.036737
v -0.169256 1.237977 -0.092387
v -0.155349 1.232156 -0.086391
v -0.160667 1.217011 -0.088760
v -0.174573 1.222833 -0.094756
v -0.197099 1.222605 -0.042733
v -0.183193 1.216784 -0.036737
v -0.177875 1.231928 -0.034369
v -0.191782 1.237749 -0.040365
v 0.232356 1.197386 -0.070912
v 0.220155 1.207162 -0.075246
v 0.212672 1.221868 -0.021010
v 0.224874 1.212092 -0.016675
v 0.220155 1.207162 -0.075246
v 0.209678 1.194916 -0.073371
v 0.202195 1.209623 -0.019135
v 0.212672 1.221868 -0.021010
v 0.209678 1.194916 -0.073371
v 0.221879 1.185140 -0.069037
v 0.214396 1.199847 -0.014801
v 0.202195 1.209623 -0.019135
v 0.221879 1.185140 -0.069037
v 0.232356 1.197386 -0.070912
v 0.224874 1.212092 -0.016675
v 0.214396 1.199847 -0.014801
v 0.220155 1.207162 -0.075246
v 0.232356 1.197386 -0.070912
v 0.221879 1.185140 -0.069037
v 0.209678 1.194916 -0.073371
v 0.202195 1.209623 -0.019135
v 0.214396 1.199847 -0.014801
v 0.224874 1.212092 -0.016675
v 0.212672 1.221868 -0.021010
v 0.135745 1.186819 0.201071
v 0.131404 1.198348 0.190513
v 0.179039 1.189367 0.161118
v 0.183380 1.177838 0.171675
v 0.131404 1.198348 0.190513
v 0.139054 1.209471 0.199512
v 0.186689 1.200489 0.170117
v 0.179039 1.189367 0.161118
v 0.139054 1.209471 0.199512
v 0.143396 1.197942 0.210070
v 0.191031 1.188960 0.180675
v 0.186689 1.200489 0.170117
v 0.143396 1.197942 0.210070
v 0.135745 1.186819 0.201071
v 0.183380 1.177838 0.171675
v 0.191031 1.188960 0.180675
v 0.131404 1.198348 0.190513
v 0.135745 1.186819 0.201071
v 0.143396 1.197942 0.210070
v 0.139054 1.209471 0.199512
v 0.186689 1.200489 0.170117
v 0.191031 1.188960 0.180675
v 0.183380 1.177838 0.171675
v 0.179039 1.189367 0.161118
v 0.047518 1.292516 0.073041
v 0.052369 1.296179 0.088083
v 0.106341 1.288440 0.072562
v 0.101490 1.284776 0.057519
v 0.052369 1.296179 0.088083
v 0.051318 1.280530 0.092234
v 0.105291 1.272790 0.076712
v 0.106341 1.288440 0.072562
v 0.051318 1.280530 0.092234
v 0.046467 1.276866 0.077191
v 0.100440 1.269127 0.061670
v 0.105291 1.272790 0.076712
v 0.046467 1.276866 0.077191
v 0.047518 1.292516 0.073041
v 0.101490 1.284776 0.057519
v 0.100440 1.269127 0.061670
v 0.052369 1.296179 0.088083
v 0.047518 1.292516 0.073041
v 0.046467 1.276866 0.077191
v 0.051318 1.280530 0.092234
v 0.105291 1.272790 0.076712
v 0.100440 1.269127 0.061670
v 0.101490 1.284776 0.057519
v 0.106341 1.288440 0.072562
v -0.081121 1.174546 -0.225044
v -0.082287 1.189100 -0.217968
v -0.026198 1.195873 -0.222656
v -0.025032 1.181319 -0.229732
v -0.082287 1.189100 -0.217968
v -0.080238 1.182196 -0.203430
v -0.024149 1.188969 -0.208118
v -0.026198 1.195873 -0.222656
v -0.080238 1.182196 -0.203430
v -0.079072 1.167642 -0.210505
v -0.022983 1.174415 -0.215193
v -0.024149 1.188969 -0.208118
v -0.079072 1.167642 -0.210505
v -0.081121 1.174546 -0.225044
v -0.025032 1.181319 -0.229732
v -0.022983 1.174415 -0.215193
v -0.082287 1.189100 -0.217968
v -0.081121 1.174546 -0.225044
v -0.079072 1.167642 -0.210505
v -0.080238 1.182196 -0.203430
v -0.024149 1.188969 -0.208118
v -0.022983 1.174415 -0.215193
v -0.025032 1.181319 -0.229732
v -0.026198 1.195873 -0.222656
v -0.077899 1.269757 -0.042265
v -0.079465 1.285787 -0.044225
v -0.024808 1.289336 -0.058851
v -0.023243 1.273307 -0.056891
v -0.079465 1.285787 -0.044225
v -0.075452 1.288080 -0.028673
v -0.020796 1.291630 -0.043299
v -0.024808 1.289336 -0.058851
v -0.075452 1.288080 -0.028673
v -0.073886 1.272051 -0.026712
v -0.019230 1.275601 -0.041339
v -0.020796 1.291630 -0.043299
v -0.073886 1.272051 -0.026712
v -0.077899 1.269757 -0.042265
v -0.023243 1.273307 -0.056891
v -0.019230 1.275601 -0.041339
v -0.079465 1.285787 -0.044225
v -0.077899 1.269757 -0.042265
v -0.073886 1.272051 -0.026712
v -0.075452 1.288080 -0.028673
v -0.020796 1.291630 -0.043299
v -0.019230 1.275601 -0.041339
v -0.023243 1.273307 -0.056891
v -0.024808 1.289336 -0.058851
v -0.141416 1.233538 0.131284
v -0.145208 1.249244 0.132760
v -0.163592 1.249843 0.079136
v -0.159800 1.234138 0.077660
v -0.145208 1.249244 0.132760
v -0.130336 1.253309 0.127707
v -0.148720 1.253909 0.074083
v -0.163592 1.249843 0.079136
v -0.130336 1.253309 0.127707
v -0.126544 1.237603 0.126231
v -0.144928 1.238203 0.072607
v -0.148720 1.253909 0.074083
v -0.126544 1.237603 0.126231
v -0.141416 1.233538 0.131284
v -0.159800 1.234138 0.077660
v -0.144928 1.238203 0.072607
v -0.145208 1.249244 0.132760
v -0.141416 1.233538 0.131284
v -0.126544 1.237603 0.126231
v -0.130336 1.253309 0.127707
v -0.148720 1.253909 0.074083
v -0.144928 1.238203 0.072607
v -0.159800 1.234138 0.077660
v -0.163592 1.249843 0.079136
v -0.005326 1.171030 0.258156
v -0.005095 1.181496 0.270552
v -0.061489 1.186401 0.267461
v -0.061720 1.175936 0.255066
v -0.005095 1.181496 0.270552
v -0.003452 1.193814 0.260121
v -0.059846 1.198719 0.257030
v -0.061489 1.186401 0.267461
v -0.003452 1.193814 0.260121
v -0.003683 1.183348 0.247725
v -0.060077 1.188253 0.244635
v -0.059846 1.198719 0.257030
v -0.003683 1.183348 0.247725
v -0.005326 1.171030 0.258156
v -0.061720 1.175936 0.255066
v -0.060077 1.188253 0.244635
v -0.005095 1.181496 0.270552
v -0.005326 1.171030 0.258156
v -0.003683 1.183348 0.247725
v -0.003452 1.193814 0.260121
v -0.059846 1.198719 0.257030
v -0.060077 1.188253 0.244635
v -0.061720 1.175936 0.255066
v -0.061489 1.186401 0.267461
vn -0.832288 -0.250819 0.494356
vn -0.832288 -0.250819 0.494356
vn -0.832288 -0.250819 0.494356
vn -0.832288 -0.250819 0.494356
vn -0.854182 -0.250858 0.455460
vn -0.854182 -0.250858 0.455460
vn -0.872913 -0.250888 0.418423
vn -0.872913 -0.250888 0.418423
vn -0.872913 -0.250888 0.418423
vn -0.872913 -0.250888 0.418423
vn 0.938078 -0.250819 0.238954
vn 0.938078 -0.250819 0.238954
vn 0.938078 -0.250819 0.238954
vn 0.938078 -0.250819 0.238954
vn 0.926057 -0.250858 0.281939
vn 0.926057 -0.250858 0.281939
vn 0.913113 -0.250888 0.321373
vn 0.913113 -0.250888 0.321373
vn 0.913113 -0.250888 0.321373
vn 0.913113 -0.250888 0.321373
vn 0.832287 -0.250819 -0.494356
vn 0.832287 -0.250819 -0.494356
vn 0.832287 -0.250819 -0.494356
vn 0.832287 -0.250819 -0.494356
vn 0.854182 -0.250858 -0.455460
vn 0.854182 -0.250858 -0.455460
vn 0.872913 -0.250888 -0.418423
vn 0.872913 -0.250888 -0.418423
vn 0.872913 -0.250888 -0.418423
vn 0.872913 -0.250888 -0.418423
vn 0.238954 -0.250819 -0.938078
vn 0.238954 -0.250819 -0.938078
vn 0.238954 -0.250819 -0.938078
vn 0.238954 -0.250819 -0.938078
vn 0.281939 -0.250859 -0.926057
vn 0.281939 -0.250859 -0.926057
vn 0.321373 -0.250888 -0.913113
vn 0.321373 -0.250888 -0.913113
vn 0.321373 -0.250888 -0.913113
vn 0.321373 -0.250888 -0.913113
vn -0.494356 -0.250819 -0.832287
vn -0.494356 -0.250819 -0.832287
vn -0.494356 -0.250819 -0.832287
vn -0.494356 -0.250819 -0.832287
vn -0.455460 -0.250858 -0.854182
vn -0.455460 -0.250858 -0.854182
vn -0.418423 -0.250888 -0.872913
vn -0.418423 -0.250888 -0.872913
vn -0.418423 -0.250888 -0.872913
vn -0.418423 -0.250888 -0.872913
vn -0.938078 -0.250819 -0.238954
vn -0.938078 -0.250819 -0.238954
vn -0.938078 -0.250819 -0.238954
vn -0.938078 -0.250819 -0.238954
vn -0.926056 -0.250858 -0.281939
vn -0.926056 -0.250858 -0.281939
vn -0.913113 -0.250888 -0.321373
vn -0.913113 -0.250888 -0.321373
vn -0.913113 -0.250888 -0.321373
vn -0.913113 -0.250888 -0.321373
vn 0.000000 1.000000 0.000000
vn 0.000000 1.000000 0.000000
vn 0.000000 1.000000 0.000000
vn 0.000000 1.000000 0.000000
vn 0.000000 1.000000 0.000000
vn 0.000000 1.000000 0.000000
vn 0.000000 1.000000 0.000000
vn 0.000000 1.000000 0.000000
vn 0.494356 -0.250819 0.832287
vn 0.494356 -0.250819 0.832287
vn 0.494356 -0.250819 0.832287
vn 0.494356 -0.250819 0.832287
vn 0.455460 -0.250858 0.854182
vn 0.455460 -0.250858 0.854182
vn 0.418423 -0.250888 0.872913
vn 0.418423 -0.250888 0.872913
vn 0.418423 -0.250888 0.872913
vn 0.418423 -0.250888 0.872913
vn -0.238954 -0.250819 0.938079
vn -0.238954 -0.250819 0.938079
vn -0.238954 -0.250819 0.938079
vn -0.238954 -0.250819 0.938079
vn -0.281939 -0.250858 0.926057
vn -0.281939 -0.250858 0.926057
vn -0.321373 -0.250888 0.913113
vn -0.321373 -0.250888 0.913113
vn -0.321373 -0.250888 0.913113
vn -0.321373 -0.250888 0.913113
vn -0.468076 -0.709797 0.526396
vn -0.468076 -0.709797 0.526396
vn -0.468076 -0.709797 0.526396
vn -0.468076 -0.709797 0.526396
vn 0.041237 -0.709797 0.703198
vn 0.041237 -0.709797 0.703198
vn 0.041237 -0.709797 0.703198
vn 0.041237 -0.709797 0.703198
vn 0.526396 -0.709797 0.468076
vn 0.526396 -0.709797 0.468076
vn 0.526396 -0.709797 0.468076
vn 0.526396 -0.709797 0.468076
vn 0.703198 -0.709797 -0.041237
vn 0.703198 -0.709797 -0.041237
vn 0.703198 -0.709797 -0.041237
vn 0.703198 -0.709797 -0.041237
vn 0.468076 -0.709797 -0.526395
vn 0.468076 -0.709797 -0.526395
vn 0.468076 -0.709797 -0.526395
vn 0.468076 -0.709797 -0.526395
vn -0.041238 -0.709798 -0.703198
vn -0.041238 -0.709798 -0.703198
vn -0.041238 -0.709798 -0.703198
vn -0.041238 -0.709798 -0.703198
vn -0.526396 -0.709797 -0.468076
vn -0.526396 -0.709797 -0.468076
vn -0.526396 -0.709797 -0.468076
vn -0.526396 -0.709797 -0.468076
vn -0.703198 -0.709797 0.041238
vn -0.703198 -0.709797 0.041238
vn -0.703198 -0.709797 0.041238
vn -0.703198 -0.709797 0.041238
vn 0.000000 -1.000000 0.000000
vn 0.000000 -1.000000 0.000000
vn 0.000000 -1.000000 0.000000
vn 0.000000 -1.000000 0.000000
vn 0.000000 -1.000000 0.000000
vn 0.000000 -1.000000 0.000000
vn 0.000000 -1.000000 0.000000
vn 0.000000 -1.000000 0.000000
vn -0.601992 -0.250991 0.758030
vn -0.601992 -0.250991 0.758030
vn -0.601992 -0.250991 0.758030
vn -0.601992 -0.250991 0.758030
vn -0.543140 -0.250985 0.801253
vn -0.543140 -0.250985 0.801253
vn -0.543140 -0.250985 0.801253
vn -0.543140 -0.250985 0.801253
vn -0.483132 -0.250969 0.838808
vn -0.483132 -0.250969 0.838808
vn -0.483132 -0.250969 0.838808
vn -0.483132 -0.250969 0.838808
vn -0.424470 -0.250946 0.869972
vn -0.424470 -0.250946 0.869972
vn -0.424470 -0.250946 0.869972
vn -0.424470 -0.250946 0.869972
vn -0.369704 -0.250918 0.894628
vn -0.369704 -0.250918 0.894628
vn -0.369704 -0.250918 0.894628
vn -0.369704 -0.250918 0.894628
vn 0.110335 -0.250991 0.961681
vn 0.110335 -0.250991 0.961681
vn 0.110335 -0.250991 0.961681
vn 0.110335 -0.250991 0.961681
vn 0.182513 -0.250984 0.950629
vn 0.182513 -0.250984 0.950629
vn 0.182513 -0.250984 0.950629
vn 0.182513 -0.250984 0.950629
vn 0.251500 -0.250969 0.934753
vn 0.251500 -0.250969 0.934753
vn 0.251500 -0.250969 0.934753
vn 0.251500 -0.250969 0.934753
vn 0.315017 -0.250946 0.915309
vn 0.315017 -0.250946 0.915309
vn 0.315017 -0.250946 0.915309
vn 0.315017 -0.250946 0.915309
vn 0.371177 -0.250918 0.894018
vn 0.371177 -0.250918 0.894018
vn 0.371177 -0.250918 0.894018
vn 0.371177 -0.250918 0.894018
vn -0.758029 -0.250991 -0.601993
vn -0.758029 -0.250991 -0.601993
vn -0.758029 -0.250991 -0.601993
vn -0.758029 -0.250991 -0.601993
vn -0.801253 -0.250985 -0.543140
vn -0.801253 -0.250985 -0.543140
vn -0.801253 -0.250985 -0.543140
vn -0.801253 -0.250985 -0.543140
vn -0.838808 -0.250969 -0.483132
vn -0.838808 -0.250969 -0.483132
vn -0.838808 -0.250969 -0.483132
vn -0.838808 -0.250969 -0.483132
vn -0.869972 -0.250946 -0.424470
vn -0.869972 -0.250946 -0.424470
vn -0.869972 -0.250946 -0.424470
vn -0.869972 -0.250946 -0.424470
vn -0.894628 -0.250918 -0.369705
vn -0.894628 -0.250918 -0.369705
vn -0.894628 -0.250918 -0.369705
vn -0.894628 -0.250918 -0.369705
vn -0.110335 -0.250991 -0.961681
vn -0.110335 -0.250991 -0.961681
vn -0.110335 -0.250991 -0.961681
vn -0.110335 -0.250991 -0.961681
vn -0.182513 -0.250985 -0.950629
vn -0.182513 -0.250985 -0.950629
vn -0.182513 -0.250985 -0.950629
vn -0.182513 -0.250985 -0.950629
vn -0.251501 -0.250969 -0.934752
vn -0.251501 -0.250969 -0.934752
vn -0.251501 -0.250969 -0.934752
vn -0.251501 -0.250969 -0.934752
vn -0.315017 -0.250946 -0.915309
vn -0.315017 -0.250946 -0.915309
vn -0.315017 -0.250946 -0.915309
vn -0.315017 -0.250946 -0.915309
vn -0.371177 -0.250918 -0.894018
vn -0.371177 -0.250918 -0.894018
vn -0.371177 -0.250918 -0.894018
vn -0.371177 -0.250918 -0.894018
vn 0.601992 -0.250991 -0.758030
vn 0.601992 -0.250991 -0.758030
vn 0.601992 -0.250991 -0.758030
vn 0.601992 -0.250991 -0.758030
vn 0.543140 -0.250985 -0.801253
vn 0.543140 -0.250985 -0.801253
vn 0.543140 -0.250985 -0.801253
vn 0.543140 -0.250985 -0.801253
vn 0.483132 -0.250969 -0.838807
vn 0.483132 -0.250969 -0.838807
vn 0.483132 -0.250969 -0.838807
vn 0.483132 -0.250969 -0.838807
vn 0.424470 -0.250946 -0.869972
vn 0.424470 -0.250946 -0.869972
vn 0.424470 -0.250946 -0.869972
vn 0.424470 -0.250946 -0.869972
vn 0.369704 -0.250918 -0.894628
vn 0.369704 -0.250918 -0.894628
vn 0.369704 -0.250918 -0.894628
vn 0.369704 -0.250918 -0.894628
vn 0.961681 -0.250991 -0.110334
vn 0.961681 -0.250991 -0.110334
vn 0.961681 -0.250991 -0.110334
vn 0.961681 -0.250991 -0.110334
vn 0.950629 -0.250985 -0.182513
vn 0.950629 -0.250985 -0.182513
vn 0.950629 -0.250985 -0.182513
vn 0.950629 -0.250985 -0.182513
vn 0.934753 -0.250969 -0.251500
vn 0.934753 -0.250969 -0.251500
vn 0.934753 -0.250969 -0.251500
vn 0.934753 -0.250969 -0.251500
vn 0.915309 -0.250946 -0.315017
vn 0.915309 -0.250946 -0.315017
vn 0.915309 -0.250946 -0.315017
vn 0.915309 -0.250946 -0.315017
vn 0.894018 -0.250918 -0.371177
vn 0.894018 -0.250918 -0.371177
vn 0.894018 -0.250918 -0.371177
vn 0.894018 -0.250918 -0.371177
vn 0.758030 -0.250991 0.601992
vn 0.758030 -0.250991 0.601992
vn 0.758030 -0.250991 0.601992
vn 0.758030 -0.250991 0.601992
vn 0.801253 -0.250984 0.543140
vn 0.801253 -0.250984 0.543140
vn 0.801253 -0.250984 0.543140
vn 0.801253 -0.250984 0.543140
vn 0.838808 -0.250969 0.483132
vn 0.838808 -0.250969 0.483132
vn 0.838808 -0.250969 0.483132
vn 0.838808 -0.250969 0.483132
vn 0.869972 -0.250946 0.424470
vn 0.869972 -0.250946 0.424470
vn 0.869972 -0.250946 0.424470
vn 0.869972 -0.250946 0.424470
vn 0.894628 -0.250918 0.369704
vn 0.894628 -0.250918 0.369704
vn 0.894628 -0.250918 0.369704
vn 0.894628 -0.250918 0.369704
vn -0.961681 -0.250991 0.110335
vn -0.961681 -0.250991 0.110335
vn -0.961681 -0.250991 0.110335
vn -0.961681 -0.250991 0.110335
vn -0.950629 -0.250985 0.182513
vn -0.950629 -0.250985 0.182513
vn -0.950629 -0.250985 0.182513
vn -0.950629 -0.250985 0.182513
vn -0.934753 -0.250969 0.251500
vn -0.934753 -0.250969 0.251500
vn -0.934753 -0.250969 0.251500
vn -0.934753 -0.250969 0.251500
vn -0.915309 -0.250946 0.315017
vn -0.915309 -0.250946 0.315017
vn -0.915309 -0.250946 0.315017
vn -0.915309 -0.250946 0.315017
vn -0.894018 -0.250918 0.371177
vn -0.894018 -0.250918 0.371177
vn -0.894018 -0.250918 0.371177
vn -0.894018 -0.250918 0.371177
vn 0.780119 -0.397804 -0.482873
vn 0.780119 -0.397804 -0.482873
vn 0.780119 -0.397804 -0.482873
vn 0.280543 0.211182 -0.936321
vn 0.280543 0.211182 -0.936321
vn 0.280543 0.211182 -0.936321
vn 0.408174 -0.701545 -0.584148
vn 0.408174 -0.701545 -0.584148
vn 0.408174 -0.701545 -0.584148
vn 0.369560 -0.172426 -0.913069
vn 0.369560 -0.172426 -0.913069
vn 0.369560 -0.172426 -0.913069
vn -0.482872 -0.397804 -0.780119
vn -0.482872 -0.397804 -0.780119
vn -0.482872 -0.397804 -0.780119
vn -0.936321 0.211182 -0.280543
vn -0.936321 0.211182 -0.280543
vn -0.936321 0.211182 -0.280543
vn -0.584148 -0.701545 -0.408174
vn -0.584148 -0.701545 -0.408174
vn -0.584148 -0.701545 -0.408174
vn -0.913069 -0.172426 -0.369560
vn -0.913069 -0.172426 -0.369560
vn -0.913069 -0.172426 -0.369560
vn -0.780120 -0.397804 0.482872
vn -0.780120 -0.397804 0.482872
vn -0.780120 -0.397804 0.482872
vn -0.280543 0.211182 0.936321
vn -0.280543 0.211182 0.936321
vn -0.280543 0.211182 0.936321
vn -0.408174 -0.701545 0.584148
vn -0.408174 -0.701545 0.584148
vn -0.408174 -0.701545 0.584148
vn -0.369560 -0.172426 0.913069
vn -0.369560 -0.172426 0.913069
vn -0.369560 -0.172426 0.913069
vn 0.482873 -0.397804 0.780119
vn 0.482873 -0.397804 0.780119
vn 0.482873 -0.397804 0.780119
vn 0.936321 0.211182 0.280543
vn 0.936321 0.211182 0.280543
vn 0.936321 0.211182 0.280543
vn 0.584148 -0.701545 0.408174
vn 0.584148 -0.701545 0.408174
vn 0.584148 -0.701545 0.408174
vn 0.913069 -0.172426 0.369560
vn 0.913069 -0.172426 0.369560
vn 0.913069 -0.172426 0.369560
vn -0.046663 -0.792387 -0.608231
vn -0.046663 -0.792387 -0.608231
vn -0.046663 -0.792387 -0.608231
vn -0.608232 -0.792386 0.046663
vn -0.608232 -0.792386 0.046663
vn -0.608232 -0.792386 0.046663
vn 0.046663 -0.792387 0.608232
vn 0.046663 -0.792387 0.608232
vn 0.046663 -0.792387 0.608232
vn 0.608232 -0.792387 -0.046663
vn 0.608232 -0.792387 -0.046663
vn 0.608232 -0.792387 -0.046663
vn -0.563313 0.743565 -0.360263
vn -0.563313 0.743565 -0.360263
vn -0.563313 0.743565 -0.360263
vn -0.454862 0.875296 0.164186
vn -0.454862 0.875296 0.164186
vn -0.454862 0.875296 0.164186
vn 0.360263 0.743565 -0.563314
vn 0.360263 0.743565 -0.563314
vn 0.360263 0.743565 -0.563314
vn -0.164186 0.875296 -0.454863
vn -0.164186 0.875296 -0.454863
vn -0.164186 0.875296 -0.454863
vn 0.517165 0.797938 0.309572
vn 0.517165 0.797938 0.309572
vn 0.517165 0.797938 0.309572
vn 0.451162 0.871553 -0.191958
vn 0.451162 0.871553 -0.191958
vn 0.451162 0.871553 -0.191958
vn -0.360263 0.743565 0.563313
vn -0.360263 0.743565 0.563313
vn -0.360263 0.743565 0.563313
vn 0.168499 0.877740 0.448532
vn 0.168499 0.877740 0.448532
vn 0.168499 0.877740 0.448532
vn 0.163819 0.961073 -0.222493
vn 0.163819 0.961073 -0.222493
vn 0.163819 0.961073 -0.222493
vn 0.211865 0.976728 -0.033403
vn 0.211865 0.976728 -0.033403
vn 0.211865 0.976728 -0.033403
vn -0.144563 -0.961073 -0.235459
vn -0.144563 -0.961073 -0.235459
vn -0.144563 -0.961073 -0.235459
vn -0.208313 -0.976728 -0.051069
vn -0.208313 -0.976728 -0.051069
vn -0.208313 -0.976728 -0.051069
vn -0.424469 0.812297 0.400000
vn -0.424469 0.812297 0.400000
vn -0.424469 0.812297 0.400000
vn -0.294502 -0.540223 0.788307
vn -0.294502 -0.540223 0.788307
vn -0.294502 -0.540223 0.788307
vn -0.408060 -0.859291 0.308392
vn -0.408060 -0.859291 0.308392
vn -0.408060 -0.859291 0.308392
vn 0.737476 0.653157 -0.171798
vn 0.737476 0.653157 -0.171798
vn 0.737476 0.653157 -0.171798
vn 0.294503 -0.540222 -0.788307
vn 0.294503 -0.540222 -0.788307
vn 0.294503 -0.540222 -0.788307
vn 0.408059 -0.859292 -0.308392
vn 0.408059 -0.859292 -0.308392
vn 0.408059 -0.859292 -0.308392
vn 0.400001 0.812297 0.424469
vn 0.400001 0.812297 0.424469
vn 0.400001 0.812297 0.424469
vn 0.788306 -0.540223 0.294503
vn 0.788306 -0.540223 0.294503
vn 0.788306 -0.540223 0.294503
vn 0.308391 -0.859291 0.408060
vn 0.308391 -0.859291 0.408060
vn 0.308391 -0.859291 0.408060
vn -0.400002 0.812296 -0.424469
vn -0.400002 0.812296 -0.424469
vn -0.400002 0.812296 -0.424469
vn -0.759164 -0.585863 -0.283610
vn -0.759164 -0.585863 -0.283610
vn -0.759164 -0.585863 -0.283610
vn 0.783095 -0.129752 -0.608216
vn 0.783095 -0.129752 -0.608216
vn 0.783095 -0.129752 -0.608216
vn 0.817585 0.244117 -0.521500
vn 0.817585 0.244117 -0.521500
vn 0.817585 0.244117 -0.521500
vn 0.541001 0.454034 -0.707935
vn 0.541001 0.454034 -0.707935
vn 0.541001 0.454034 -0.707935
vn 0.261791 -0.381910 -0.886347
vn 0.261791 -0.381910 -0.886347
vn 0.261791 -0.381910 -0.886347
vn -0.608216 -0.129752 -0.783095
vn -0.608216 -0.129752 -0.783095
vn -0.608216 -0.129752 -0.783095
vn -0.521500 0.244117 -0.817585
vn -0.521500 0.244117 -0.817585
vn -0.521500 0.244117 -0.817585
vn -0.707935 0.454034 -0.541001
vn -0.707935 0.454034 -0.541001
vn -0.707935 0.454034 -0.541001
vn -0.886347 -0.381910 -0.261790
vn -0.886347 -0.381910 -0.261790
vn -0.886347 -0.381910 -0.261790
vn -0.783095 -0.129753 0.608216
vn -0.783095 -0.129753 0.608216
vn -0.783095 -0.129753 0.608216
vn -0.817585 0.244118 0.521499
vn -0.817585 0.244118 0.521499
vn -0.817585 0.244118 0.521499
vn -0.541001 0.454034 0.707935
vn -0.541001 0.454034 0.707935
vn -0.541001 0.454034 0.707935
vn -0.261791 -0.381910 0.886347
vn -0.261791 -0.381910 0.886347
vn -0.261791 -0.381910 0.886347
vn 0.608216 -0.129752 0.783095
vn 0.608216 -0.129752 0.783095
vn 0.608216 -0.129752 0.783095
vn 0.521500 0.244118 0.817585
vn 0.521500 0.244118 0.817585
vn 0.521500 0.244118 0.817585
vn 0.707935 0.454034 0.541001
vn 0.707935 0.454034 0.541001
vn 0.707935 0.454034 0.541001
vn 0.886347 -0.381910 0.261791
vn 0.886347 -0.381910 0.261791
vn 0.886347 -0.381910 0.261791
vn 0.082642 -0.980057 -0.180717
vn 0.082642 -0.980057 -0.180717
vn 0.082642 -0.980057 -0.180717
vn -0.180717 -0.980057 -0.082641
vn -0.180717 -0.980057 -0.082641
vn -0.180717 -0.980057 -0.082641
vn -0.082642 -0.980057 0.180717
vn -0.082642 -0.980057 0.180717
vn -0.082642 -0.980057 0.180717
vn 0.180718 -0.980057 0.082642
vn 0.180718 -0.980057 0.082642
vn 0.180718 -0.980057 0.082642
vn -0.121273 0.991654 0.043774
vn -0.121273 0.991654 0.043774
vn -0.121273 0.991654 0.043774
vn -0.615958 0.786633 0.042473
vn -0.615958 0.786633 0.042473
vn -0.615958 0.786633 0.042473
vn -0.047088 0.990336 -0.130453
vn -0.047088 0.990336 -0.130453
vn -0.047088 0.990336 -0.130453
vn -0.042473 0.786634 -0.615957
vn -0.042473 0.786634 -0.615957
vn -0.042473 0.786634 -0.615957
vn 0.588720 0.807681 -0.032551
vn 0.588720 0.807681 -0.032551
vn 0.588720 0.807681 -0.032551
vn 0.042473 0.786634 0.615957
vn 0.042473 0.786634 0.615957
vn 0.042473 0.786634 0.615957
vn 0.005781 0.957628 -0.287952
vn 0.005781 0.957628 -0.287952
vn 0.005781 0.957628 -0.287952
vn 0.270582 0.962616 -0.012508
vn 0.270582 0.962616 -0.012508
vn 0.270582 0.962616 -0.012508
vn -0.002270 0.998136 0.060980
vn -0.002270 0.998136 0.060980
vn -0.002270 0.998136 0.060980
vn -0.010381 0.960253 0.278937
vn -0.010381 0.960253 0.278937
vn -0.010381 0.960253 0.278937
vn -0.085565 0.996328 -0.003184
vn -0.085565 0.996328 -0.003184
vn -0.085565 0.996328 -0.003184
vn -0.278936 0.960254 -0.010381
vn -0.278936 0.960254 -0.010381
vn -0.278936 0.960254 -0.010381
vn 0.018412 -0.957627 -0.287421
vn 0.018412 -0.957627 -0.287421
vn 0.018412 -0.957627 -0.287421
vn -0.268576 -0.962616 -0.035177
vn -0.268576 -0.962616 -0.035177
vn -0.268576 -0.962616 -0.035177
vn -0.002857 -0.998136 0.060956
vn -0.002857 -0.998136 0.060956
vn -0.002857 -0.998136 0.060956
vn -0.013071 -0.960253 0.278824
vn -0.013071 -0.960253 0.278824
vn -0.013071 -0.960253 0.278824
vn 0.085530 -0.996328 0.004010
vn 0.085530 -0.996328 0.004010
vn 0.085530 -0.996328 0.004010
vn 0.278825 -0.960253 0.013071
vn 0.278825 -0.960253 0.013071
vn 0.278825 -0.960253 0.013071
vn -0.477455 0.725173 0.496147
vn -0.477455 0.725173 0.496147
vn -0.477455 0.725173 0.496147
vn -0.311963 0.453577 0.834833
vn -0.311963 0.453577 0.834833
vn -0.311963 0.453577 0.834833
vn -0.875279 -0.389336 0.286886
vn -0.875279 -0.389336 0.286886
vn -0.875279 -0.389336 0.286886
vn 0.744637 0.390268 -0.541486
vn 0.744637 0.390268 -0.541486
vn 0.744637 0.390268 -0.541486
vn 0.605469 0.794295 -0.050030
vn 0.605469 0.794295 -0.050030
vn 0.605469 0.794295 -0.050030
vn 0.458886 0.693874 -0.554943
vn 0.458886 0.693874 -0.554943
vn 0.458886 0.693874 -0.554943
vn 0.311963 0.453577 -0.834834
vn 0.311963 0.453577 -0.834834
vn 0.311963 0.453577 -0.834834
vn 0.836134 -0.512777 -0.194780
vn 0.836134 -0.512777 -0.194780
vn 0.836134 -0.512777 -0.194780
vn 0.496147 0.725173 0.477454
vn 0.496147 0.725173 0.477454
vn 0.496147 0.725173 0.477454
vn 0.834834 0.453577 0.311962
vn 0.834834 0.453577 0.311962
vn 0.834834 0.453577 0.311962
vn 0.286885 -0.389337 0.875279
vn 0.286885 -0.389337 0.875279
vn 0.286885 -0.389337 0.875279
vn -0.496148 0.725172 -0.477454
vn -0.496148 0.725172 -0.477454
vn -0.496148 0.725172 -0.477454
vn -0.834834 0.453577 -0.311963
vn -0.834834 0.453577 -0.311963
vn -0.834834 0.453577 -0.311963
vn -0.599133 -0.794294 -0.100678
vn -0.599133 -0.794294 -0.100678
vn -0.599133 -0.794294 -0.100678
vn -0.286886 -0.389336 -0.875279
vn -0.286886 -0.389336 -0.875279
vn -0.286886 -0.389336 -0.875279
vn 0.922377 0.343034 -0.177620
vn 0.922377 0.343034 -0.177620
vn 0.922377 0.343034 -0.177620
vn 0.922377 0.343034 -0.177620
vn -0.110445 -0.515940 -0.849475
vn -0.110445 -0.515940 -0.849475
vn -0.110445 -0.515940 -0.849475
vn -0.110445 -0.515940 -0.849475
vn 0.849475 -0.515939 -0.110445
vn 0.849475 -0.515939 -0.110445
vn 0.849475 -0.515939 -0.110445
vn 0.849475 -0.515939 -0.110445
vn -0.177620 0.343034 -0.922377
vn -0.177620 0.343034 -0.922377
vn -0.177620 0.343034 -0.922377
vn -0.177620 0.343034 -0.922377
vn -0.849475 -0.515940 0.110445
vn -0.849475 -0.515940 0.110445
vn -0.849475 -0.515940 0.110445
vn -0.849475 -0.515940 0.110445
vn -0.922377 0.343034 0.177620
vn -0.922377 0.343034 0.177620
vn -0.922377 0.343034 0.177620
vn -0.922377 0.343034 0.177620
vn 0.110445 -0.515940 0.849475
vn 0.110445 -0.515940 0.849475
vn 0.110445 -0.515940 0.849475
vn 0.110445 -0.515940 0.849475
vn 0.177620 0.343034 0.922377
vn 0.177620 0.343034 0.922377
vn 0.177620 0.343034 0.922377
vn 0.177620 0.343034 0.922377
vn 0.206796 -0.889873 -0.406646
vn 0.206796 -0.889873 -0.406646
vn 0.206796 -0.889873 -0.406646
vn 0.206796 -0.889873 -0.406646
vn -0.406646 -0.889873 -0.206795
vn -0.406646 -0.889873 -0.206795
vn -0.406646 -0.889873 -0.206795
vn -0.406646 -0.889873 -0.206795
vn -0.206795 -0.889873 0.406647
vn -0.206795 -0.889873 0.406647
vn -0.206795 -0.889873 0.406647
vn -0.206795 -0.889873 0.406647
vn 0.406646 -0.889873 0.206796
vn 0.406646 -0.889873 0.206796
vn 0.406646 -0.889873 0.206796
vn 0.406646 -0.889873 0.206796
vn -0.497331 0.864690 0.070519
vn -0.497331 0.864690 0.070519
vn -0.497331 0.864690 0.070519
vn -0.497331 0.864690 0.070519
vn -0.095820 -0.871540 0.480871
vn -0.095820 -0.871540 0.480871
vn -0.095820 -0.871540 0.480871
vn -0.095820 -0.871540 0.480871
vn -0.713021 -0.503431 0.488015
vn -0.713021 -0.503431 0.488015
vn -0.713021 -0.503431 0.488015
vn -0.713021 -0.503431 0.488015
vn 0.095820 -0.871540 -0.480871
vn 0.095820 -0.871540 -0.480871
vn 0.095820 -0.871540 -0.480871
vn 0.095820 -0.871540 -0.480871
vn 0.687495 -0.539521 -0.486075
vn 0.687495 -0.539521 -0.486075
vn 0.687495 -0.539521 -0.486075
vn 0.687495 -0.539521 -0.486075
vn 0.070519 0.864691 0.497330
vn 0.070519 0.864691 0.497330
vn 0.070519 0.864691 0.497330
vn 0.070519 0.864691 0.497330
vn 0.480871 -0.871540 0.095820
vn 0.480871 -0.871540 0.095820
vn 0.480871 -0.871540 0.095820
vn 0.480871 -0.871540 0.095820
vn 0.488015 -0.503430 0.713022
vn 0.488015 -0.503430 0.713022
vn 0.488015 -0.503430 0.713022
vn 0.488015 -0.503430 0.713022
vn -0.070520 0.864691 -0.497330
vn -0.070520 0.864691 -0.497330
vn -0.070520 0.864691 -0.497330
vn -0.070520 0.864691 -0.497330
vn -0.487266 -0.519672 -0.701792
vn -0.487266 -0.519672 -0.701792
vn -0.487266 -0.519672 -0.701792
vn -0.487266 -0.519672 -0.701792
vn -0.537553 -0.397804 -0.743498
vn -0.537553 -0.397804 -0.743498
vn -0.537553 -0.397804 -0.743498
vn -0.206116 0.605591 -0.768620
vn -0.206116 0.605591 -0.768620
vn -0.206116 0.605591 -0.768620
vn -0.954023 0.211182 -0.212701
vn -0.954023 0.211182 -0.212701
vn -0.954023 0.211182 -0.212701
vn -0.611906 -0.701545 -0.365249
vn -0.611906 -0.701545 -0.365249
vn -0.611906 -0.701545 -0.365249
vn -0.937212 -0.172426 -0.303156
vn -0.937212 -0.172426 -0.303156
vn -0.937212 -0.172426 -0.303156
vn -0.743498 -0.397804 0.537552
vn -0.743498 -0.397804 0.537552
vn -0.743498 -0.397804 0.537552
vn -0.768619 0.605591 0.206116
vn -0.768619 0.605591 0.206116
vn -0.768619 0.605591 0.206116
vn -0.212701 0.211183 0.954023
vn -0.212701 0.211183 0.954023
vn -0.212701 0.211183 0.954023
vn -0.365249 -0.701545 0.611905
vn -0.365249 -0.701545 0.611905
vn -0.365249 -0.701545 0.611905
vn -0.303157 -0.172425 0.937212
vn -0.303157 -0.172425 0.937212
vn -0.303157 -0.172425 0.937212
vn 0.537552 -0.397804 0.743498
vn 0.537552 -0.397804 0.743498
vn 0.537552 -0.397804 0.743498
vn 0.206116 0.605591 0.768620
vn 0.206116 0.605591 0.768620
vn 0.206116 0.605591 0.768620
vn 0.954023 0.211182 0.212701
vn 0.954023 0.211182 0.212701
vn 0.954023 0.211182 0.212701
vn 0.611905 -0.701545 0.365249
vn 0.611905 -0.701545 0.365249
vn 0.611905 -0.701545 0.365249
vn 0.937212 -0.172426 0.303156
vn 0.937212 -0.172426 0.303156
vn 0.937212 -0.172426 0.303156
vn 0.743499 -0.397803 -0.537552
vn 0.743499 -0.397803 -0.537552
vn 0.743499 -0.397803 -0.537552
vn 0.768619 0.605592 -0.206117
vn 0.768619 0.605592 -0.206117
vn 0.768619 0.605592 -0.206117
vn 0.212701 0.211182 -0.954023
vn 0.212701 0.211182 -0.954023
vn 0.212701 0.211182 -0.954023
vn 0.365249 -0.701545 -0.611905
vn 0.365249 -0.701545 -0.611905
vn 0.365249 -0.701545 -0.611905
vn 0.303157 -0.172426 -0.937212
vn 0.303157 -0.172426 -0.937212
vn 0.303157 -0.172426 -0.937212
vn -0.603322 -0.792387 0.090143
vn -0.603322 -0.792387 0.090143
vn -0.603322 -0.792387 0.090143
vn 0.090143 -0.792387 0.603321
vn 0.090143 -0.792387 0.603321
vn 0.090143 -0.792387 0.603321
vn 0.603322 -0.792387 -0.090143
vn 0.603322 -0.792387 -0.090143
vn 0.603322 -0.792387 -0.090143
vn -0.090143 -0.792388 -0.603321
vn -0.090143 -0.792388 -0.603321
vn -0.090143 -0.792388 -0.603321
vn -0.232045 0.804259 0.547104
vn -0.232045 0.804259 0.547104
vn -0.232045 0.804259 0.547104
vn 0.211443 0.908637 0.360099
vn 0.211443 0.908637 0.360099
vn 0.211443 0.908637 0.360099
vn -0.589686 0.746459 -0.308334
vn -0.589686 0.746459 -0.308334
vn -0.589686 0.746459 -0.308334
vn -0.382019 0.911382 0.153118
vn -0.382019 0.911382 0.153118
vn -0.382019 0.911382 0.153118
vn 0.308335 0.746459 -0.589686
vn 0.308335 0.746459 -0.589686
vn 0.308335 0.746459 -0.589686
vn -0.160969 0.918074 -0.362256
vn -0.160969 0.918074 -0.362256
vn -0.160969 0.918074 -0.362256
vn 0.589685 0.746460 0.308333
vn 0.589685 0.746460 0.308333
vn 0.589685 0.746460 0.308333
vn 0.362256 0.918074 -0.160969
vn 0.362256 0.918074 -0.160969
vn 0.362256 0.918074 -0.160969
vn -0.662787 -0.129752 -0.737481
vn -0.662787 -0.129752 -0.737481
vn -0.662787 -0.129752 -0.737481
vn -0.606565 0.158718 -0.779030
vn -0.606565 0.158718 -0.779030
vn -0.606565 0.158718 -0.779030
vn -0.749347 0.450747 -0.485084
vn -0.749347 0.450747 -0.485084
vn -0.749347 0.450747 -0.485084
vn -0.650779 0.619395 -0.439132
vn -0.650779 0.619395 -0.439132
vn -0.650779 0.619395 -0.439132
vn -0.902833 -0.381910 -0.197580
vn -0.902833 -0.381910 -0.197580
vn -0.902833 -0.381910 -0.197580
vn -0.737481 -0.129752 0.662787
vn -0.737481 -0.129752 0.662787
vn -0.737481 -0.129752 0.662787
vn -0.779030 0.158718 0.606565
vn -0.779030 0.158718 0.606565
vn -0.779030 0.158718 0.606565
vn -0.485085 0.450747 0.749346
vn -0.485085 0.450747 0.749346
vn -0.485085 0.450747 0.749346
vn -0.439133 0.619395 0.650778
vn -0.439133 0.619395 0.650778
vn -0.439133 0.619395 0.650778
vn -0.197579 -0.381911 0.902832
vn -0.197579 -0.381911 0.902832
vn -0.197579 -0.381911 0.902832
vn 0.662787 -0.129753 0.737480
vn 0.662787 -0.129753 0.737480
vn 0.662787 -0.129753 0.737480
vn 0.606565 0.158719 0.779030
vn 0.606565 0.158719 0.779030
vn 0.606565 0.158719 0.779030
vn 0.749346 0.450748 0.485084
vn 0.749346 0.450748 0.485084
vn 0.749346 0.450748 0.485084
vn 0.650780 0.619394 0.439132
vn 0.650780 0.619394 0.439132
vn 0.650780 0.619394 0.439132
vn 0.902833 -0.381910 0.197579
vn 0.902833 -0.381910 0.197579
vn 0.902833 -0.381910 0.197579
vn 0.737481 -0.129752 -0.662787
vn 0.737481 -0.129752 -0.662787
vn 0.737481 -0.129752 -0.662787
vn 0.779030 0.158718 -0.606565
vn 0.779030 0.158718 -0.606565
vn 0.779030 0.158718 -0.606565
vn 0.485085 0.450747 -0.749346
vn 0.485085 0.450747 -0.749346
vn 0.485085 0.450747 -0.749346
vn 0.439132 0.619395 -0.650779
vn 0.439132 0.619395 -0.650779
vn 0.439132 0.619395 -0.650779
vn 0.197579 -0.381910 -0.902833
vn 0.197579 -0.381910 -0.902833
vn 0.197579 -0.381910 -0.902833
vn -0.186176 -0.980057 -0.069474
vn -0.186176 -0.980057 -0.069474
vn -0.186176 -0.980057 -0.069474
vn -0.069474 -0.980057 0.186176
vn -0.069474 -0.980057 0.186176
vn -0.069474 -0.980057 0.186176
vn 0.186176 -0.980057 0.069474
vn 0.186176 -0.980057 0.069474
vn 0.186176 -0.980057 0.069474
vn 0.069474 -0.980057 -0.186175
vn 0.069474 -0.980057 -0.186175
vn 0.069474 -0.980057 -0.186175
vn 0.020909 0.812722 0.582276
vn 0.020909 0.812722 0.582276
vn 0.020909 0.812722 0.582276
vn -0.613510 0.788224 0.048048
vn -0.613510 0.788224 0.048048
vn -0.613510 0.788224 0.048048
vn -0.052354 0.991653 -0.117824
vn -0.052354 0.991653 -0.117824
vn -0.052354 0.991653 -0.117824
vn -0.048049 0.788224 -0.613510
vn -0.048049 0.788224 -0.613510
vn -0.048049 0.788224 -0.613510
vn 0.126742 0.990336 -0.056318
vn 0.126742 0.990336 -0.056318
vn 0.126742 0.990336 -0.056318
vn 0.613510 0.788224 -0.048048
vn 0.613510 0.788224 -0.048048
vn 0.613510 0.788224 -0.048048
vn -0.171056 -0.515939 -0.839373
vn -0.171056 -0.515939 -0.839373
vn -0.171056 -0.515939 -0.839373
vn -0.171056 -0.515939 -0.839373
vn -0.223720 0.327422 -0.918011
vn -0.223720 0.327422 -0.918011
vn -0.223720 0.327422 -0.918011
vn -0.223720 0.327422 -0.918011
vn -0.839373 -0.515940 0.171055
vn -0.839373 -0.515940 0.171055
vn -0.839373 -0.515940 0.171055
vn -0.839373 -0.515940 0.171055
vn -0.918011 0.327422 0.223720
vn -0.918011 0.327422 0.223720
vn -0.918011 0.327422 0.223720
vn -0.918011 0.327422 0.223720
vn 0.171055 -0.515940 0.839373
vn 0.171055 -0.515940 0.839373
vn 0.171055 -0.515940 0.839373
vn 0.171055 -0.515940 0.839373
vn 0.223720 0.327423 0.918011
vn 0.223720 0.327423 0.918011
vn 0.223720 0.327423 0.918011
vn 0.223720 0.327423 0.918011
vn 0.839373 -0.515939 -0.171055
vn 0.839373 -0.515939 -0.171055
vn 0.839373 -0.515939 -0.171055
vn 0.839373 -0.515939 -0.171055
vn 0.918011 0.327422 -0.223720
vn 0.918011 0.327422 -0.223720
vn 0.918011 0.327422 -0.223720
vn 0.918011 0.327422 -0.223720
vn -0.420424 -0.889874 -0.177113
vn -0.420424 -0.889874 -0.177113
vn -0.420424 -0.889874 -0.177113
vn -0.420424 -0.889874 -0.177113
vn -0.177113 -0.889873 0.420424
vn -0.177113 -0.889873 0.420424
vn -0.177113 -0.889873 0.420424
vn -0.177113 -0.889873 0.420424
vn 0.420424 -0.889873 0.177113
vn 0.420424 -0.889873 0.177113
vn 0.420424 -0.889873 0.177113
vn 0.420424 -0.889873 0.177113
vn 0.177113 -0.889873 -0.420424
vn 0.177113 -0.889873 -0.420424
vn 0.177113 -0.889873 -0.420424
vn 0.177113 -0.889873 -0.420424
vn 0.309653 0.118723 -0.943409
vn 0.309653 0.118723 -0.943409
vn 0.309653 0.118723 -0.943409
vn 0.309653 0.118723 -0.943409
vn -0.950234 0.074337 -0.302538
vn -0.950234 0.074337 -0.302538
vn -0.950234 0.074337 -0.302538
vn -0.950234 0.074337 -0.302538
vn -0.309655 -0.118724 0.943408
vn -0.309655 -0.118724 0.943408
vn -0.309655 -0.118724 0.943408
vn -0.309655 -0.118724 0.943408
vn 0.950233 -0.074338 0.302540
vn 0.950233 -0.074338 0.302540
vn 0.950233 -0.074338 0.302540
vn 0.950233 -0.074338 0.302540
vn -0.034213 -0.990141 -0.135834
vn -0.034213 -0.990141 -0.135834
vn -0.034213 -0.990141 -0.135834
vn -0.034213 -0.990141 -0.135834
vn 0.034213 0.990141 0.135834
vn 0.034213 0.990141 0.135834
vn 0.034213 0.990141 0.135834
vn 0.034213 0.990141 0.135834
vn -0.594223 0.174755 -0.785086
vn -0.594223 0.174755 -0.785086
vn -0.594223 0.174755 -0.785086
vn -0.594223 0.174755 -0.785086
vn -0.696769 0.375734 0.611013
vn -0.696769 0.375734 0.611013
vn -0.696769 0.375734 0.611013
vn -0.696769 0.375734 0.611013
vn 0.594223 -0.174755 0.785086
vn 0.594223 -0.174755 0.785086
vn 0.594223 -0.174755 0.785086
vn 0.594223 -0.174755 0.785086
vn 0.696769 -0.375734 -0.611013
vn 0.696769 -0.375734 -0.611013
vn 0.696769 -0.375734 -0.611013
vn 0.696769 -0.375734 -0.611013
vn -0.401763 -0.910101 0.101504
vn -0.401763 -0.910101 0.101504
vn -0.401763 -0.910101 0.101504
vn -0.401763 -0.910101 0.101504
vn 0.401763 0.910100 -0.101507
vn 0.401763 0.910100 -0.101507
vn 0.401763 0.910100 -0.101507
vn 0.401763 0.910100 -0.101507
vn -0.169127 0.933413 0.316442
vn -0.169127 0.933413 0.316442
vn -0.169127 0.933413 0.316442
vn -0.169127 0.933413 0.316442
vn 0.430064 0.358783 -0.828444
vn 0.430064 0.358783 -0.828444
vn 0.430064 0.358783 -0.828444
vn 0.430064 0.358783 -0.828444
vn 0.169127 -0.933413 -0.316443
vn 0.169127 -0.933413 -0.316443
vn 0.169127 -0.933413 -0.316443
vn 0.169127 -0.933413 -0.316443
vn -0.430064 -0.358782 0.828445
vn -0.430064 -0.358782 0.828445
vn -0.430064 -0.358782 0.828445
vn -0.430064 -0.358782 0.828445
vn 0.886816 0.004022 0.462106
vn 0.886816 0.004022 0.462106
vn 0.886816 0.004022 0.462106
vn 0.886816 0.004022 0.462106
vn -0.886815 -0.004024 -0.462107
vn -0.886815 -0.004024 -0.462107
vn -0.886815 -0.004024 -0.462107
vn -0.886815 -0.004024 -0.462107
vn 0.068973 0.754741 0.652386
vn 0.068973 0.754741 0.652386
vn 0.068973 0.754741 0.652386
vn 0.068973 0.754741 0.652386
vn 0.320361 0.602551 -0.730959
vn 0.320361 0.602551 -0.730959
vn 0.320361 0.602551 -0.730959
vn 0.320361 0.602551 -0.730959
vn -0.068974 -0.754742 -0.652386
vn -0.068974 -0.754742 -0.652386
vn -0.068974 -0.754742 -0.652386
vn -0.068974 -0.754742 -0.652386
vn -0.320361 -0.602552 0.730959
vn -0.320361 -0.602552 0.730959
vn -0.320361 -0.602552 0.730959
vn -0.320361 -0.602552 0.730959
vn 0.944781 -0.259416 0.200228
vn 0.944781 -0.259416 0.200228
vn 0.944781 -0.259416 0.200228
vn 0.944781 -0.259416 0.200228
vn -0.944781 0.259415 -0.200233
vn -0.944781 0.259415 -0.200233
vn -0.944781 0.259415 -0.200233
vn -0.944781 0.259415 -0.200233
vn 0.587061 -0.685540 -0.430575
vn 0.587061 -0.685540 -0.430575
vn 0.587061 -0.685540 -0.430575
vn 0.587061 -0.685540 -0.430575
vn 0.668249 0.710586 -0.220252
vn 0.668249 0.710586 -0.220252
vn 0.668249 0.710586 -0.220252
vn 0.668249 0.710586 -0.220252
vn -0.587062 0.685539 0.430575
vn -0.587062 0.685539 0.430575
vn -0.587062 0.685539 0.430575
vn -0.587062 0.685539 0.430575
vn -0.668245 -0.710590 0.220252
vn -0.668245 -0.710590 0.220252
vn -0.668245 -0.710590 0.220252
vn -0.668245 -0.710590 0.220252
vn -0.456948 0.158424 -0.875271
vn -0.456948 0.158424 -0.875271
vn -0.456948 0.158424 -0.875271
vn -0.456948 0.158424 -0.875271
vn 0.456953 -0.158426 0.875269
vn 0.456953 -0.158426 0.875269
vn 0.456953 -0.158426 0.875269
vn 0.456953 -0.158426 0.875269
vn 0.902838 0.425529 -0.061716
vn 0.902838 0.425529 -0.061716
vn 0.902838 0.425529 -0.061716
vn 0.902838 0.425529 -0.061716
vn -0.429818 0.897027 -0.102947
vn -0.429818 0.897027 -0.102947
vn -0.429818 0.897027 -0.102947
vn -0.429818 0.897027 -0.102947
vn -0.902840 -0.425526 0.061716
vn -0.902840 -0.425526 0.061716
vn -0.902840 -0.425526 0.061716
vn -0.902840 -0.425526 0.061716
vn 0.429825 -0.897024 0.102948
vn 0.429825 -0.897024 0.102948
vn 0.429825 -0.897024 0.102948
vn 0.429825 -0.897024 0.102948
vn -0.011552 -0.119469 -0.992771
vn -0.011552 -0.119469 -0.992771
vn -0.011552 -0.119469 -0.992771
vn -0.011552 -0.119469 -0.992771
vn 0.011553 0.119468 0.992771
vn 0.011553 0.119468 0.992771
vn 0.011553 0.119468 0.992771
vn 0.011553 0.119468 0.992771
vn -0.244939 -0.250565 -0.936601
vn -0.244939 -0.250565 -0.936601
vn -0.244939 -0.250565 -0.936601
vn -0.244939 -0.250565 -0.936601
vn -0.073962 0.968042 -0.239634
vn -0.073962 0.968042 -0.239634
vn -0.073962 0.968042 -0.239634
vn -0.073962 0.968042 -0.239634
vn 0.244939 0.250565 0.936601
vn 0.244939 0.250565 0.936601
vn 0.244939 0.250565 0.936601
vn 0.244939 0.250565 0.936601
vn 0.073963 -0.968043 0.239630
vn 0.073963 -0.968043 0.239630
vn 0.073963 -0.968043 0.239630
vn 0.073963 -0.968043 0.239630
vn -0.966714 -0.010576 0.255641
vn -0.966714 -0.010576 0.255641
vn -0.966714 -0.010576 0.255641
vn -0.966714 -0.010576 0.255641
vn 0.966714 0.010575 -0.255642
vn 0.966714 0.010575 -0.255642
vn 0.966714 0.010575 -0.255642
vn 0.966714 0.010575 -0.255642
vn -0.634004 -0.759211 -0.147099
vn -0.634004 -0.759211 -0.147099
vn -0.634004 -0.759211 -0.147099
vn -0.634004 -0.759211 -0.147099
vn -0.763054 0.645060 -0.040566
vn -0.763054 0.645060 -0.040566
vn -0.763054 0.645060 -0.040566
vn -0.763054 0.645060 -0.040566
vn 0.634004 0.759211 0.147098
vn 0.634004 0.759211 0.147098
vn 0.634004 0.759211 0.147098
vn 0.634004 0.759211 0.147098
vn 0.763048 -0.645068 0.040564
vn 0.763048 -0.645068 0.040564
vn 0.763048 -0.645068 0.040564
vn 0.763048 -0.645068 0.040564
vn -0.125687 -0.086524 0.988290
vn -0.125687 -0.086524 0.988290
vn -0.125687 -0.086524 0.988290
vn -0.125687 -0.086524 0.988290
vn 0.125689 0.086527 -0.988289
vn 0.125689 0.086527 -0.988289
vn 0.125689 0.086527 -0.988289
vn 0.125689 0.086527 -0.988289
vn -0.963179 0.118724 -0.241229
vn -0.963179 0.118724 -0.241229
vn -0.963179 0.118724 -0.241229
vn -0.963179 0.118724 -0.241229
vn -0.233642 0.074338 0.969477
vn -0.233642 0.074338 0.969477
vn -0.233642 0.074338 0.969477
vn -0.233642 0.074338 0.969477
vn 0.963178 -0.118724 0.241230
vn 0.963178 -0.118724 0.241230
vn 0.963178 -0.118724 0.241230
vn 0.963178 -0.118724 0.241230
vn 0.233645 -0.074338 -0.969476
vn 0.233645 -0.074338 -0.969476
vn 0.233645 -0.074338 -0.969476
vn 0.233645 -0.074338 -0.969476
vn -0.133036 -0.990140 0.043862
vn -0.133036 -0.990140 0.043862
vn -0.133036 -0.990140 0.043862
vn -0.133036 -0.990140 0.043862
vn 0.133039 0.990140 -0.043863
vn 0.133039 0.990140 -0.043863
vn 0.133039 0.990140 -0.043863
vn 0.133039 0.990140 -0.043863
vn -0.740473 0.174754 0.648970
vn -0.740473 0.174754 0.648970
vn -0.740473 0.174754 0.648970
vn -0.740473 0.174754 0.648970
vn 0.659387 0.375735 0.651177
vn 0.659387 0.375735 0.651177
vn 0.659387 0.375735 0.651177
vn 0.659387 0.375735 0.651177
vn 0.740471 -0.174754 -0.648972
vn 0.740471 -0.174754 -0.648972
vn 0.740471 -0.174754 -0.648972
vn 0.740471 -0.174754 -0.648972
vn -0.659387 -0.375735 -0.651177
vn -0.659387 -0.375735 -0.651177
vn -0.659387 -0.375735 -0.651177
vn -0.659387 -0.375735 -0.651177
vn 0.130041 -0.910101 0.393453
vn 0.130041 -0.910101 0.393453
vn 0.130041 -0.910101 0.393453
vn 0.130041 -0.910101 0.393453
vn -0.130045 0.910101 -0.393453
vn -0.130045 0.910101 -0.393453
vn -0.130045 0.910101 -0.393453
vn -0.130045 0.910101 -0.393453
vn 0.398336 0.540825 0.740836
vn 0.398336 0.540825 0.740836
vn 0.398336 0.540825 0.740836
vn 0.398336 0.540825 0.740836
vn 0.300707 0.686042 -0.662511
vn 0.300707 0.686042 -0.662511
vn 0.300707 0.686042 -0.662511
vn 0.300707 0.686042 -0.662511
vn -0.398334 -0.540828 -0.740834
vn -0.398334 -0.540828 -0.740834
vn -0.398334 -0.540828 -0.740834
vn -0.398334 -0.540828 -0.740834
vn -0.300713 -0.686047 0.662504
vn -0.300713 -0.686047 0.662504
vn -0.300713 -0.686047 0.662504
vn -0.300713 -0.686047 0.662504
vn 0.866547 -0.486678 -0.110643
vn 0.866547 -0.486678 -0.110643
vn 0.866547 -0.486678 -0.110643
vn 0.866547 -0.486678 -0.110643
vn -0.866547 0.486677 0.110642
vn -0.866547 0.486677 0.110642
vn -0.866547 0.486677 0.110642
vn -0.866547 0.486677 0.110642
vn 0.611518 0.374940 -0.696754
vn 0.611518 0.374940 -0.696754
vn 0.611518 0.374940 -0.696754
vn 0.611518 0.374940 -0.696754
vn -0.264315 0.926816 0.266738
vn -0.264315 0.926816 0.266738
vn -0.264315 0.926816 0.266738
vn -0.264315 0.926816 0.266738
vn -0.611524 -0.374933 0.696752
vn -0.611524 -0.374933 0.696752
vn -0.611524 -0.374933 0.696752
vn -0.611524 -0.374933 0.696752
vn 0.264322 -0.926812 -0.266745
vn 0.264322 -0.926812 -0.266745
vn 0.264322 -0.926812 -0.266745
vn 0.264322 -0.926812 -0.266745
vn -0.745767 -0.021046 -0.665875
vn -0.745767 -0.021046 -0.665875
vn -0.745767 -0.021046 -0.665875
vn -0.745767 -0.021046 -0.665875
vn 0.745770 0.021045 0.665871
vn 0.745770 0.021045 0.665871
vn 0.745770 0.021045 0.665871
vn 0.745770 0.021045 0.665871
vn 0.327746 0.933416 0.146006
vn 0.327746 0.933416 0.146006
vn 0.327746 0.933416 0.146006
vn 0.327746 0.933416 0.146006
vn -0.857143 0.358782 -0.369569
vn -0.857143 0.358782 -0.369569
vn -0.857143 0.358782 -0.369569
vn -0.857143 0.358782 -0.369569
vn -0.327753 -0.933413 -0.146007
vn -0.327753 -0.933413 -0.146007
vn -0.327753 -0.933413 -0.146007
vn -0.327753 -0.933413 -0.146007
vn 0.857144 -0.358779 0.369570
vn 0.857144 -0.358779 0.369570
vn 0.857144 -0.358779 0.369570
vn 0.857144 -0.358779 0.369570
vn 0.397349 0.004023 -0.917659
vn 0.397349 0.004023 -0.917659
vn 0.397349 0.004023 -0.917659
vn 0.397349 0.004023 -0.917659
vn -0.397347 -0.004021 0.917660
vn -0.397347 -0.004021 0.917660
vn -0.397347 -0.004021 0.917660
vn -0.397347 -0.004021 0.917660
vn 0.645774 0.754733 -0.115561
vn 0.645774 0.754733 -0.115561
vn 0.645774 0.754733 -0.115561
vn 0.645774 0.754733 -0.115561
vn -0.752041 0.602554 -0.267138
vn -0.752041 0.602554 -0.267138
vn -0.752041 0.602554 -0.267138
vn -0.752041 0.602554 -0.267138
vn -0.645768 -0.754738 0.115562
vn -0.645768 -0.754738 0.115562
vn -0.645768 -0.754738 0.115562
vn -0.645768 -0.754738 0.115562
vn 0.752043 -0.602552 0.267138
vn 0.752043 -0.602552 0.267138
vn 0.752043 -0.602552 0.267138
vn 0.752043 -0.602552 0.267138
vn 0.131988 -0.259417 -0.956704
vn 0.131988 -0.259417 -0.956704
vn 0.131988 -0.259417 -0.956704
vn 0.131988 -0.259417 -0.956704
vn -0.131993 0.259414 0.956704
vn -0.131993 0.259414 0.956704
vn -0.131993 0.259414 0.956704
vn -0.131993 0.259414 0.956704
vn -0.471549 -0.685538 -0.554688
vn -0.471549 -0.685538 -0.554688
vn -0.471549 -0.685538 -0.554688
vn -0.471549 -0.685538 -0.554688
vn -0.267587 0.710588 -0.650740
vn -0.267587 0.710588 -0.650740
vn -0.267587 0.710588 -0.650740
vn -0.267587 0.710588 -0.650740
vn 0.471550 0.685537 0.554688
vn 0.471550 0.685537 0.554688
vn 0.471550 0.685537 0.554688
vn 0.471550 0.685537 0.554688
vn 0.267579 -0.710593 0.650737
vn 0.267579 -0.710593 0.650737
vn 0.267579 -0.710593 0.650737
vn 0.267579 -0.710593 0.650737
vn -0.840260 0.158425 0.518522
vn -0.840260 0.158425 0.518522
vn -0.840260 0.158425 0.518522
vn -0.840260 0.158425 0.518522
vn 0.840260 -0.158427 -0.518521
vn 0.840260 -0.158427 -0.518521
vn 0.840260 -0.158427 -0.518521
vn 0.840260 -0.158427 -0.518521
vn 0.064751 0.964556 -0.255810
vn 0.064751 0.964556 -0.255810
vn 0.064751 0.964556 -0.255810
vn 0.064751 0.964556 -0.255810
vn 0.299015 0.225813 0.927146
vn 0.299015 0.225813 0.927146
vn 0.299015 0.225813 0.927146
vn 0.299015 0.225813 0.927146
vn -0.064751 -0.964557 0.255807
vn -0.064751 -0.964557 0.255807
vn -0.064751 -0.964557 0.255807
vn -0.064751 -0.964557 0.255807
vn -0.299010 -0.225818 -0.927146
vn -0.299010 -0.225818 -0.927146
vn -0.299010 -0.225818 -0.927146
vn -0.299010 -0.225818 -0.927146
vn -0.952051 0.136524 0.273789
vn -0.952051 0.136524 0.273789
vn -0.952051 0.136524 0.273789
vn -0.952051 0.136524 0.273789
vn 0.952048 -0.136529 -0.273796
vn 0.952048 -0.136529 -0.273796
vn 0.952048 -0.136529 -0.273796
vn 0.952048 -0.136529 -0.273796
vn -0.126277 0.425524 -0.896094
vn -0.126277 0.425524 -0.896094
vn -0.126277 0.425524 -0.896094
vn -0.126277 0.425524 -0.896094
vn -0.071872 0.897023 0.436101
vn -0.071872 0.897023 0.436101
vn -0.071872 0.897023 0.436101
vn -0.071872 0.897023 0.436101
vn 0.126276 -0.425525 0.896093
vn 0.126276 -0.425525 0.896093
vn 0.126276 -0.425525 0.896093
vn 0.126276 -0.425525 0.896093
vn 0.071870 -0.897024 -0.436099
vn 0.071870 -0.897024 -0.436099
vn 0.071870 -0.897024 -0.436099
vn 0.071870 -0.897024 -0.436099
vn -0.989389 -0.119469 0.082688
vn -0.989389 -0.119469 0.082688
vn -0.989389 -0.119469 0.082688
vn -0.989389 -0.119469 0.082688
vn 0.989389 0.119468 -0.082689
vn 0.989389 0.119468 -0.082689
vn 0.989389 0.119468 -0.082689
vn 0.989389 0.119468 -0.082689
vn -0.247336 -0.141379 -0.958560
vn -0.247336 -0.141379 -0.958560
vn -0.247336 -0.141379 -0.958560
vn -0.247336 -0.141379 -0.958560
vn -0.096494 0.987973 -0.120824
vn -0.096494 0.987973 -0.120824
vn -0.096494 0.987973 -0.120824
vn -0.096494 0.987973 -0.120824
vn 0.247334 0.141380 0.958560
vn 0.247334 0.141380 0.958560
vn 0.247334 0.141380 0.958560
vn 0.247334 0.141380 0.958560
vn 0.096492 -0.987975 0.120810
vn 0.096492 -0.987975 0.120810
vn 0.096492 -0.987975 0.120810
vn 0.096492 -0.987975 0.120810
vn -0.964114 -0.062613 0.257999
vn -0.964114 -0.062613 0.257999
vn -0.964114 -0.062613 0.257999
vn -0.964114 -0.062613 0.257999
vn 0.964114 0.062611 -0.258001
vn 0.964114 0.062611 -0.258001
vn 0.964114 0.062611 -0.258001
vn 0.964114 0.062611 -0.258001
vn -0.916634 -0.250563 0.311449
vn -0.916634 -0.250563 0.311449
vn -0.916634 -0.250563 0.311449
vn -0.916634 -0.250563 0.311449
vn -0.233714 0.968042 0.090949
vn -0.233714 0.968042 0.090949
vn -0.233714 0.968042 0.090949
vn -0.233714 0.968042 0.090949
vn 0.916633 0.250568 -0.311449
vn 0.916633 0.250568 -0.311449
vn 0.916633 0.250568 -0.311449
vn 0.916633 0.250568 -0.311449
vn 0.233713 -0.968043 -0.090947
vn 0.233713 -0.968043 -0.090947
vn 0.233713 -0.968043 -0.090947
vn 0.233713 -0.968043 -0.090947
vn 0.324282 -0.010576 0.945901
vn 0.324282 -0.010576 0.945901
vn 0.324282 -0.010576 0.945901
vn 0.324282 -0.010576 0.945901
vn -0.324283 0.010575 -0.945901
vn -0.324283 0.010575 -0.945901
vn -0.324283 0.010575 -0.945901
vn -0.324283 0.010575 -0.945901
vn -0.101272 -0.759215 0.642913
vn -0.101272 -0.759215 0.642913
vn -0.101272 -0.759215 0.642913
vn -0.101272 -0.759215 0.642913
vn 0.014239 0.645064 0.763996
vn 0.014239 0.645064 0.763996
vn 0.014239 0.645064 0.763996
vn 0.014239 0.645064 0.763996
vn 0.101271 0.759214 -0.642914
vn 0.101271 0.759214 -0.642914
vn 0.101271 0.759214 -0.642914
vn 0.101271 0.759214 -0.642914
vn -0.014240 -0.645067 -0.763993
vn -0.014240 -0.645067 -0.763993
vn -0.014240 -0.645067 -0.763993
vn -0.014240 -0.645067 -0.763993
vn 0.994757 -0.086524 0.054519
vn 0.994757 -0.086524 0.054519
vn 0.994757 -0.086524 0.054519
vn 0.994757 -0.086524 0.054519
vn -0.994757 0.086525 -0.054520
vn -0.994757 0.086525 -0.054520
vn -0.994757 0.086525 -0.054520
vn -0.994757 0.086525 -0.054520
g IceCream_2_LightYellow
usemtl LightYellow
f 1 2 3
f 1 4 2
f 5 4 1
f 5 6 4
f 7 6 5
f 7 8 6
f 9 8 7
f 9 10 8
f 11 12 13
f 11 14 12
f 15 14 11
f 15 16 14
f 17 16 15
f 17 18 16
f 19 18 17
f 19 20 18
f 21 22 23
f 21 24 22
f 25 24 21
f 25 26 24
f 27 26 25
f 27 28 26
f 29 28 27
f 29 30 28
f 31 32 33
f 31 34 32
f 35 34 31
f 35 36 34
f 37 36 35
f 37 38 36
f 39 38 37
f 39 40 38
f 41 42 43
f 41 44 42
f 45 44 41
f 45 46 44
f 47 46 45
f 47 48 46
f 49 48 47
f 49 50 48
f 51 52 53
f 51 54 52
f 55 54 51
f 55 56 54
f 57 56 55
f 57 58 56
f 59 58 57
f 59 60 58
f 61 62 63
f 63 64 61
f 63 65 64
f 65 66 64
f 65 67 66
f 67 68 66
f 69 70 71
f 69 72 70
f 73 72 69
f 73 74 72
f 75 74 73
f 75 76 74
f 77 76 75
f 77 78 76
f 79 80 81
f 79 82 80
f 83 82 79
f 83 84 82
f 85 84 83
f 85 86 84
f 87 86 85
f 87 88 86
f 89 90 91
f 89 91 92
f 93 94 95
f 93 95 96
f 97 98 99
f 97 99 100
f 101 102 103
f 101 103 104
f 105 106 107
f 105 107 108
f 109 110 111
f 109 111 112
f 113 114 115
f 113 115 116
f 117 118 119
f 117 119 120
f 121 122 123
f 123 124 121
f 123 125 124
f 125 126 124
f 125 127 126
f 127 128 126
f 129 130 131
f 129 131 132
f 133 134 135
f 133 135 136
f 137 138 139
f 137 139 140
f 141 142 143
f 141 143 144
f 145 146 147
f 145 147 148
f 149 150 151
f 149 151 152
f 153 154 155
f 153 155 156
f 157 158 159
f 157 159 160
f 161 162 163
f 161 163 164
f 165 166 167
f 165 167 168
f 169 170 171
f 169 171 172
f 173 174 175
f 173 175 176
f 177 178 179
f 177 179 180
f 181 182 183
f 181 183 184
f 185 186 187
f 185 187 188
f 189 190 191
f 189 191 192
f 193 194 195
f 193 195 196
f 197 198 199
f 197 199 200
f 201 202 203
f 201 203 204
f 205 206 207
f 205 207 208
f 209 210 211
f 209 211 212
f 213 214 215
f 213 215 216
f 217 218 219
f 217 219 220
f 221 222 223
f 221 223 224
f 225 226 227
f 225 227 228
f 229 230 231
f 229 231 232
f 233 234 235
f 233 235 236
f 237 238 239
f 237 239 240
f 241 242 243
f 241 243 244
f 245 246 247
f 245 247 248
f 249 250 251
f 249 251 252
f 253 254 255
f 253 255 256
f 257 258 259
f 257 259 260
f 261 262 263
f 261 263 264
f 265 266 267
f 265 267 268
f 269 270 271
f 269 271 272
f 273 274 275
f 273 275 276
f 277 278 279
f 277 279 280
f 281 282 283
f 281 283 284
f 285 286 287
f 285 287 288
g IceCream_2_PalePink2
usemtl PalePink2
f 289 290 291
f 292 293 294
f 295 296 297
f 298 299 300
f 301 302 303
f 304 305 306
f 307 308 309
f 310 311 312
f 313 314 315
f 316 317 318
f 319 320 321
f 322 323 324
f 325 326 327
f 328 329 330
f 331 332 333
f 334 335 336
f 337 338 339
f 340 341 342
f 343 344 345
f 346 347 348
f 349 350 351
f 352 353 354
f 355 356 357
f 358 359 360
f 361 362 363
f 364 365 366
f 367 368 369
f 370 371 372
f 373 374 375
f 376 377 378
f 379 380 381
f 382 383 384
f 385 386 387
f 388 389 390
f 391 392 393
f 394 395 396
f 397 398 399
f 400 401 402
f 403 404 405
f 406 407 408
f 409 410 411
f 412 413 414
f 415 416 417
f 418 419 420
f 421 422 423
f 424 425 426
f 427 428 429
f 430 431 432
f 433 434 435
f 436 437 438
f 439 440 441
f 442 443 444
f 445 446 447
f 448 449 450
f 451 452 453
f 454 455 456
f 457 458 459
f 460 461 462
f 463 464 465
f 466 467 468
f 469 470 471
f 472 473 474
f 475 476 477
f 478 479 480
f 481 482 483
f 484 485 486
f 487 488 489
f 490 491 492
f 493 494 495
f 496 497 498
f 499 500 501
f 502 503 504
f 505 506 507
f 508 509 510
f 511 512 513
f 514 515 516
f 517 518 519
f 520 521 522
f 523 524 525
f 526 527 528
f 529 530 531
f 532 533 534
f 535 536 537
f 538 539 540
f 541 542 543
f 544 545 546
f 547 548 549
f 550 551 552
f 553 554 555
f 556 557 558
f 559 560 561
f 562 563 564
f 565 566 567
f 568 569 570
f 571 572 573
f 574 575 576
f 577 578 579
f 577 579 580
f 581 582 583
f 581 583 584
f 585 586 587
f 585 587 588
f 589 590 591
f 589 591 592
f 593 594 595
f 593 595 596
f 597 598 599
f 597 599 600
f 601 602 603
f 601 603 604
f 605 606 607
f 605 607 608
f 609 610 611
f 609 611 612
f 613 614 615
f 613 615 616
f 617 618 619
f 617 619 620
f 621 622 623
f 621 623 624
f 625 626 627
f 625 627 628
f 629 630 631
f 629 631 632
f 633 634 635
f 633 635 636
f 637 638 639
f 637 639 640
f 641 642 643
f 641 643 644
f 645 646 647
f 645 647 648
f 649 650 651
f 649 651 652
f 653 654 655
f 653 655 656
f 657 658 659
f 657 659 660
f 661 662 663
f 661 663 664
g IceCream_2_PalePink
usemtl PalePink
f 665 666 667
f 668 669 670
f 671 672 673
f 674 675 676
f 677 678 679
f 680 681 682
f 683 684 685
f 686 687 688
f 689 690 691
f 692 693 694
f 695 696 697
f 698 699 700
f 701 702 703
f 704 705 706
f 707 708 709
f 710 711 712
f 713 714 715
f 716 717 718
f 719 720 721
f 722 723 724
f 725 726 727
f 728 729 730
f 731 732 733
f 734 735 736
f 737 738 739
f 740 741 742
f 743 744 745
f 746 747 748
f 749 750 751
f 752 753 754
f 755 756 757
f 758 759 760
f 761 762 763
f 764 765 766
f 767 768 769
f 770 771 772
f 773 774 775
f 776 777 778
f 779 780 781
f 782 783 784
f 785 786 787
f 788 789 790
f 791 792 793
f 794 795 796
f 797 798 799
f 800 801 802
f 803 804 805
f 806 807 808
f 809 810 811
f 812 813 814
f 815 816 817
f 818 819 820
f 821 822 823
f 824 825 826
f 827 828 829
f 830 831 832
f 833 834 835
f 836 837 838
f 839 840 841
f 842 843 844
f 845 846 847
f 848 849 850
f 851 852 853
f 851 853 854
f 855 856 857
f 855 857 858
f 859 860 861
f 859 861 862
f 863 864 865
f 863 865 866
f 867 868 869
f 867 869 870
f 871 872 873
f 871 873 874
f 875 876 877
f 875 877 878
f 879 880 881
f 879 881 882
f 883 884 885
f 883 885 886
f 887 888 889
f 887 889 890
f 891 892 893
f 891 893 894
f 895 896 897
f 895 897 898
g IceCream_2_White
usemtl White
f 899 900 901
f 899 901 902
f 903 904 905
f 903 905 906
f 907 908 909
f 907 909 910
f 911 912 913
f 911 913 914
f 915 916 917
f 915 917 918
f 919 920 921
f 919 921 922
f 923 924 925
f 923 925 926
f 927 928 929
f 927 929 930
f 931 932 933
f 931 933 934
f 935 936 937
f 935 937 938
f 939 940 941
f 939 941 942
f 943 944 945
f 943 945 946
f 947 948 949
f 947 949 950
f 951 952 953
f 951 953 954
f 955 956 957
f 955 957 958
f 959 960 961
f 959 961 962
f 963 964 965
f 963 965 966
f 967 968 969
f 967 969 970
f 971 972 973
f 971 973 974
f 975 976 977
f 975 977 978
f 979 980 981
f 979 981 982
f 983 984 985
f 983 985 986
f 987 988 989
f 987 989 990
f 991 992 993
f 991 993 994
f 995 996 997
f 995 997 998
f 999 1000 1001
f 999 1001 1002
f 1003 1004 1005
f 1003 1005 1006
f 1007 1008 1009
f 1007 1009 1010
f 1011 1012 1013
f 1011 1013 1014
f 1015 1016 1017
f 1015 1017 1018
f 1019 1020 1021
f 1019 1021 1022
f 1023 1024 1025
f 1023 1025 1026
f 1027 1028 1029
f 1027 1029 1030
f 1031 1032 1033
f 1031 1033 1034
f 1035 1036 1037
f 1035 1037 1038
f 1039 1040 1041
f 1039 1041 1042
f 1043 1044 1045
f 1043 1045 1046
f 1047 1048 1049
f 1047 1049 1050
f 1051 1052 1053
f 1051 1053 1054
f 1055 1056 1057
f 1055 1057 1058
f 1059 1060 1061
f 1059 1061 1062
f 1063 1064 1065
f 1063 1065 1066
f 1067 1068 1069
f 1067 1069 1070
f 1071 1072 1073
f 1071 1073 1074
f 1075 1076 1077
f 1075 1077 1078
f 1079 1080 1081
f 1079 1081 1082
f 1083 1084 1085
f 1083 1085 1086
f 1087 1088 1089
f 1087 1089 1090
f 1091 1092 1093
f 1091 1093 1094
f 1095 1096 1097
f 1095 1097 1098
f 1099 1100 1101
f 1099 1101 1102
f 1103 1104 1105
f 1103 1105 1106
f 1107 1108 1109
f 1107 1109 1110
f 1111 1112 1113
f 1111 1113 1114
f 1115 1116 1117
f 1115 1117 1118
f 1119 1120 1121
f 1119 1121 1122
f 1123 1124 1125
f 1123 1125 1126
f 1127 1128 1129
f 1127 1129 1130
f 1131 1132 1133
f 1131 1133 1134
f 1135 1136 1137
f 1135 1137 1138
f 1139 1140 1141
f 1139 1141 1142
f 1143 1144 1145
f 1143 1145 1146
f 1147 1148 1149
f 1147 1149 1150
f 1151 1152 1153
f 1151 1153 1154
f 1155 1156 1157
f 1155 1157 1158
f 1159 1160 1161
f 1159 1161 1162
f 1163 1164 1165
f 1163 1165 1166
f 1167 1168 1169
f 1167 1169 1170
f 1171 1172 1173
f 1171 1173 1174
f 1175 1176 1177
f 1175 1177 1178
f 1179 1180 1181
f 1179 1181 1182
f 1183 1184 1185
f 1183 1185 1186
f 1187 1188 1189
f 1187 1189 1190
f 1191 1192 1193
f 1191 1193 1194
f 1195 1196 1197
f 1195 1197 1198
f 1199 1200 1201
f 1199 1201 1202
f 1203 1204 1205
f 1203 1205 1206
f 1207 1208 1209
f 1207 1209 1210
f 1211 1212 1213
f 1211 1213 1214
f 1215 1216 1217
f 1215 1217 1218
f 1219 1220 1221
f 1219 1221 1222
f 1223 1224 1225
f 1223 1225 1226
f 1227 1228 1229
f 1227 1229 1230
f 1231 1232 1233
f 1231 1233 1234
f 1235 1236 1237
f 1235 1237 1238
f 1239 1240 1241
f 1239 1241 1242
f 1243 1244 1245
f 1243 1245 1246
f 1247 1248 1249
f 1247 1249 1250
f 1251 1252 1253
f 1251 1253 1254
f 1255 1256 1257
f 1255 1257 1258
f 1259 1260 1261
f 1259 1261 1262
f 1263 1264 1265
f 1263 1265 1266
f 1267 1268 1269
f 1267 1269 1270
f 1271 1272 1273
f 1271 1273 1274
f 1275 1276 1277
f 1275 1277 1278
f 1279 1280 1281
f 1279 1281 1282
f 1283 1284 1285
f 1283 1285 1286
f 1287 1288 1289
f 1287 1289 1290
f 1291 1292 1293
f 1291 1293 1294
f 1295 1296 1297
f 1295 1297 1298
f 1299 1300 1301
f 1299 1301 1302
f 1303 1304 1305
f 1303 1305 1306
f 1307 1308 1309
f 1307 1309 1310
f 1311 1312 1313
f 1311 1313 1314
f 1315 1316 1317
f 1315 1317 1318
f 1319 1320 1321
f 1319 1321 1322
f 1323 1324 1325
f 1323 1325 1326
f 1327 1328 1329
f 1327 1329 1330
f 1331 1332 1333
f 1331 1333 1334
f 1335 1336 1337
f 1335 1337 1338
f 1339 1340 1341
f 1339 1341 1342
f 1343 1344 1345
f 1343 1345 1346
f 1347 1348 1349
f 1347 1349 1350
f 1351 1352 1353
f 1351 1353 1354
f 1355 1356 1357
f 1355 1357 1358
f 1359 1360 1361
f 1359 1361 1362
f 1363 1364 1365
f 1363 1365 1366
f 1367 1368 1369
f 1367 1369 1370
f 1371 1372 1373
f 1371 1373 1374
f 1375 1376 1377
f 1375 1377 1378
