mtllib Materials.mtl
# Ultimate Food Pack - Jar_Large
o Jar_Large
v -0.248951 0.442458 -0.180873
v -0.307720 0.442458 0.000000
v -0.302973 0.503318 0.000000
v -0.245111 0.503318 -0.178083
v -0.095091 0.442458 0.292659
v 0.095091 0.442458 0.292659
v 0.093624 0.503318 0.288145
v -0.093624 0.503318 0.288145
v 0.095091 0.442458 0.292659
v 0.248951 0.442458 0.180873
v 0.245111 0.503318 0.178083
v 0.093624 0.503318 0.288145
v 0.248951 0.442458 0.180873
v 0.307720 0.442458 0.000000
v 0.302973 0.503318 0.000000
v 0.245111 0.503318 0.178083
v 0.307720 0.442458 0.000000
v 0.248951 0.442458 -0.180873
v 0.245111 0.503318 -0.178083
v 0.302973 0.503318 0.000000
v 0.248951 0.442458 -0.180873
v 0.095091 0.442458 -0.292659
v 0.093624 0.503318 -0.288145
v 0.245111 0.503318 -0.178083
v 0.095091 0.442458 -0.292659
v -0.095091 0.442458 -0.292659
v -0.093624 0.503318 -0.288145
v 0.093624 0.503318 -0.288145
v -0.095091 0.442458 -0.292659
v -0.248951 0.442458 -0.180873
v -0.245111 0.503318 -0.178083
v -0.093624 0.503318 -0.288145
v -0.093624 0.503318 0.288145
v -0.072726 0.533846 0.223828
v -0.190400 0.533846 0.138334
v -0.245111 0.503318 0.178083
v -0.248951 0.442458 0.180873
v -0.095091 0.442458 0.292659
v -0.093624 0.503318 0.288145
v -0.245111 0.503318 0.178083
v -0.307720 0.442458 0.000000
v -0.248951 0.442458 0.180873
v -0.245111 0.503318 0.178083
v -0.302973 0.503318 0.000000
v -0.302973 0.030808 0.000000
v -0.260936 -0.004289 0.000000
v -0.211102 -0.004289 0.153375
v -0.245111 0.030808 0.178083
v -0.245111 0.030808 0.178083
v -0.211102 -0.004289 0.153375
v -0.080634 -0.004289 0.248165
v -0.093624 0.030808 0.288145
v -0.093624 0.030808 0.288145
v -0.080634 -0.004289 0.248165
v 0.080634 -0.004289 0.248165
v 0.093624 0.030808 0.288145
v 0.093624 0.030808 0.288145
v 0.080634 -0.004289 0.248165
v 0.211102 -0.004289 0.153375
v 0.245111 0.030808 0.178083
v 0.245111 0.030808 0.178083
v 0.211102 -0.004289 0.153375
v 0.260936 -0.004289 0.000000
v 0.302973 0.030808 0.000000
v 0.302973 0.030808 0.000000
v 0.260936 -0.004289 0.000000
v 0.211102 -0.004289 -0.153374
v 0.245111 0.030808 -0.178083
v 0.245111 0.030808 -0.178083
v 0.211102 -0.004289 -0.153374
v 0.080634 -0.004289 -0.248165
v 0.093624 0.030808 -0.288145
v 0.093624 0.030808 -0.288145
v 0.080634 -0.004289 -0.248165
v -0.080634 -0.004289 -0.248165
v -0.093624 0.030808 -0.288145
v -0.093624 0.030808 -0.288145
v -0.080634 -0.004289 -0.248165
v -0.211102 -0.004289 -0.153374
v -0.245111 0.030808 -0.178083
v -0.245111 0.030808 -0.178083
v -0.211102 -0.004289 -0.153374
v -0.260936 -0.004289 0.000000
v -0.302973 0.030808 0.000000
v -0.211102 -0.004289 0.153375
v -0.260936 -0.004289 0.000000
v -0.211102 -0.004289 -0.153374
v -0.080634 -0.004289 0.248165
v -0.080634 -0.004289 -0.248165
v 0.080634 -0.004289 -0.248165
v 0.080634 -0.004289 0.248165
v 0.211102 -0.004289 -0.153374
v 0.211102 -0.004289 0.153375
v 0.260936 -0.004289 0.000000
v -0.302973 0.030808 0.000000
v -0.245111 0.030808 0.178083
v -0.248951 0.123782 0.180873
v -0.307720 0.123782 0.000000
v -0.245111 0.030808 0.178083
v -0.093624 0.030808 0.288145
v -0.095091 0.123782 0.292659
v -0.248951 0.123782 0.180873
v -0.093624 0.030808 -0.288145
v -0.245111 0.030808 -0.178083
v -0.248951 0.123782 -0.180873
v -0.095091 0.123782 -0.292659
v 0.093624 0.030808 -0.288145
v -0.093624 0.030808 -0.288145
v -0.095091 0.123782 -0.292659
v 0.095091 0.123782 -0.292659
v 0.245111 0.030808 -0.178083
v 0.093624 0.030808 -0.288145
v 0.095091 0.123782 -0.292659
v 0.248951 0.123782 -0.180873
v 0.302973 0.030808 0.000000
v 0.245111 0.030808 -0.178083
v 0.248951 0.123782 -0.180873
v 0.307720 0.123782 0.000000
v 0.245111 0.030808 0.178083
v 0.302973 0.030808 0.000000
v 0.307720 0.123782 0.000000
v 0.248951 0.123782 0.180873
v 0.093624 0.030808 0.288145
v 0.245111 0.030808 0.178083
v 0.248951 0.123782 0.180873
v 0.095091 0.123782 0.292659
v -0.093624 0.030808 0.288145
v 0.093624 0.030808 0.288145
v 0.095091 0.123782 0.292659
v -0.095091 0.123782 0.292659
v -0.245111 0.030808 -0.178083
v -0.302973 0.030808 0.000000
v -0.307720 0.123782 0.000000
v -0.248951 0.123782 -0.180873
v -0.245111 0.503318 -0.178083
v -0.190400 0.533846 -0.138334
v -0.072726 0.533846 -0.223829
v -0.093624 0.503318 -0.288145
v 0.245111 0.503318 -0.178083
v 0.190400 0.533846 -0.138334
v 0.235347 0.533846 0.000000
v 0.302973 0.503318 0.000000
v 0.093624 0.503318 0.288145
v 0.072726 0.533846 0.223828
v -0.072726 0.533846 0.223828
v -0.093624 0.503318 0.288145
v -0.302973 0.503318 0.000000
v -0.235347 0.533846 0.000000
v -0.190400 0.533846 -0.138334
v -0.245111 0.503318 -0.178083
v 0.093624 0.503318 -0.288145
v 0.072726 0.533846 -0.223829
v 0.190400 0.533846 -0.138334
v 0.245111 0.503318 -0.178083
v 0.245111 0.503318 0.178083
v 0.190400 0.533846 0.138334
v 0.072726 0.533846 0.223828
v 0.093624 0.503318 0.288145
v -0.245111 0.503318 0.178083
v -0.190400 0.533846 0.138334
v -0.235347 0.533846 0.000000
v -0.302973 0.503318 0.000000
v -0.093624 0.503318 -0.288145
v -0.072726 0.533846 -0.223829
v 0.072726 0.533846 -0.223829
v 0.093624 0.503318 -0.288145
v 0.302973 0.503318 0.000000
v 0.235347 0.533846 0.000000
v 0.190400 0.533846 0.138334
v 0.245111 0.503318 0.178083
v -0.248951 0.123782 -0.180873
v -0.256151 0.130071 -0.186105
v -0.097841 0.130071 -0.301124
v -0.095091 0.123782 -0.292659
v 0.248951 0.442458 -0.180873
v 0.256151 0.436168 -0.186105
v 0.097841 0.436168 -0.301124
v 0.095091 0.442458 -0.292659
v -0.307720 0.123782 0.000000
v -0.316620 0.130071 0.000000
v -0.256151 0.130071 -0.186105
v -0.248951 0.123782 -0.180873
v -0.095091 0.123782 0.292659
v -0.097841 0.130071 0.301124
v -0.256151 0.130071 0.186105
v -0.248951 0.123782 0.180873
v 0.095091 0.442458 -0.292659
v 0.097841 0.436168 -0.301124
v -0.097841 0.436168 -0.301124
v -0.095091 0.442458 -0.292659
v 0.095091 0.123782 0.292659
v 0.097841 0.130071 0.301124
v -0.097841 0.130071 0.301124
v -0.095091 0.123782 0.292659
v -0.248951 0.123782 0.180873
v -0.256151 0.130071 0.186105
v -0.316620 0.130071 0.000000
v -0.307720 0.123782 0.000000
v -0.095091 0.442458 -0.292659
v -0.097841 0.436168 -0.301124
v -0.256151 0.436168 -0.186105
v -0.248951 0.442458 -0.180873
v 0.248951 0.123782 0.180873
v 0.256151 0.130071 0.186105
v 0.097841 0.130071 0.301124
v 0.095091 0.123782 0.292659
v -0.248951 0.442458 -0.180873
v -0.256151 0.436168 -0.186105
v -0.316620 0.436168 0.000000
v -0.307720 0.442458 0.000000
v -0.316620 0.130071 0.000000
v -0.256151 0.130071 0.186105
v -0.256151 0.436168 0.186105
v -0.316620 0.436168 0.000000
v -0.256151 0.130071 0.186105
v -0.097841 0.130071 0.301124
v -0.097841 0.436168 0.301124
v -0.256151 0.436168 0.186105
v -0.097841 0.130071 -0.301124
v -0.256151 0.130071 -0.186105
v -0.256151 0.436168 -0.186105
v -0.097841 0.436168 -0.301124
v 0.097841 0.130071 -0.301124
v -0.097841 0.130071 -0.301124
v -0.097841 0.436168 -0.301124
v 0.097841 0.436168 -0.301124
v 0.256151 0.130071 -0.186105
v 0.097841 0.130071 -0.301124
v 0.097841 0.436168 -0.301124
v 0.256151 0.436168 -0.186105
v 0.316620 0.130071 0.000000
v 0.256151 0.130071 -0.186105
v 0.256151 0.436168 -0.186105
v 0.316620 0.436168 0.000000
v 0.256151 0.130071 0.186105
v 0.316620 0.130071 0.000000
v 0.316620 0.436168 0.000000
v 0.256151 0.436168 0.186105
v 0.097841 0.130071 0.301124
v 0.256151 0.130071 0.186105
v 0.256151 0.436168 0.186105
v 0.097841 0.436168 0.301124
v -0.097841 0.130071 0.301124
v 0.097841 0.130071 0.301124
v 0.097841 0.436168 0.301124
v -0.097841 0.436168 0.301124
v -0.256151 0.130071 -0.186105
v -0.316620 0.130071 0.000000
v -0.316620 0.436168 0.000000
v -0.256151 0.436168 -0.186105
v 0.307720 0.442458 0.000000
v 0.316620 0.436168 0.000000
v 0.256151 0.436168 -0.186105
v 0.248951 0.442458 -0.180873
v -0.095091 0.123782 -0.292659
v -0.097841 0.130071 -0.301124
v 0.097841 0.130071 -0.301124
v 0.095091 0.123782 -0.292659
v 0.248951 0.442458 0.180873
v 0.256151 0.436168 0.186105
v 0.316620 0.436168 0.000000
v 0.307720 0.442458 0.000000
v 0.095091 0.123782 -0.292659
v 0.097841 0.130071 -0.301124
v 0.256151 0.130071 -0.186105
v 0.248951 0.123782 -0.180873
v 0.095091 0.442458 0.292659
v 0.097841 0.436168 0.301124
v 0.256151 0.436168 0.186105
v 0.248951 0.442458 0.180873
v 0.248951 0.123782 -0.180873
v 0.256151 0.130071 -0.186105
v 0.316620 0.130071 0.000000
v 0.307720 0.123782 0.000000
v -0.307720 0.442458 0.000000
v -0.316620 0.436168 0.000000
v -0.256151 0.436168 0.186105
v -0.248951 0.442458 0.180873
v -0.095091 0.442458 0.292659
v -0.097841 0.436168 0.301124
v 0.097841 0.436168 0.301124
v 0.095091 0.442458 0.292659
v 0.307720 0.123782 0.000000
v 0.316620 0.130071 0.000000
v 0.256151 0.130071 0.186105
v 0.248951 0.123782 0.180873
v -0.248951 0.442458 0.180873
v -0.256151 0.436168 0.186105
v -0.097841 0.436168 0.301124
v -0.095091 0.442458 0.292659
v 0.190400 0.533846 0.138334
v 0.190400 0.634120 0.138334
v 0.072726 0.634120 0.223828
v 0.072726 0.533846 0.223828
v -0.190400 0.533846 0.138334
v -0.190400 0.634120 0.138334
v -0.235347 0.634120 0.000000
v -0.235347 0.533846 0.000000
v -0.072726 0.533846 -0.223829
v -0.072726 0.634120 -0.223829
v 0.072726 0.634120 -0.223829
v 0.072726 0.533846 -0.223829
v 0.235347 0.533846 0.000000
v 0.235347 0.634120 0.000000
v 0.190400 0.634120 0.138334
v 0.190400 0.533846 0.138334
v -0.072726 0.533846 0.223828
v -0.072726 0.634120 0.223828
v -0.190400 0.634120 0.138334
v -0.190400 0.533846 0.138334
v -0.190400 0.533846 -0.138334
v -0.190400 0.634120 -0.138334
v -0.072726 0.634120 -0.223829
v -0.072726 0.533846 -0.223829
v 0.190400 0.533846 -0.138334
v 0.190400 0.634120 -0.138334
v 0.235347 0.634120 0.000000
v 0.235347 0.533846 0.000000
v 0.072726 0.533846 0.223828
v 0.072726 0.634120 0.223828
v -0.072726 0.634120 0.223828
v -0.072726 0.533846 0.223828
v -0.235347 0.533846 0.000000
v -0.235347 0.634120 0.000000
v -0.190400 0.634120 -0.138334
v -0.190400 0.533846 -0.138334
v 0.072726 0.533846 -0.223829
v 0.072726 0.634120 -0.223829
v 0.190400 0.634120 -0.138334
v 0.190400 0.533846 -0.138334
v 0.062870 0.634120 0.193493
v 0.062870 0.628271 0.193493
v -0.062870 0.628271 0.193493
v -0.062870 0.634120 0.193493
v -0.164595 0.628271 -0.119585
v -0.203450 0.628271 0.000000
v -0.164595 0.628271 0.119585
v -0.062870 0.628271 -0.193493
v -0.062870 0.628271 0.193493
v 0.062870 0.628271 -0.193493
v 0.062870 0.628271 0.193493
v 0.164595 0.628271 -0.119585
v 0.164595 0.628271 0.119585
v 0.203450 0.628271 0.000000
v -0.203450 0.634120 0.000000
v -0.203450 0.628271 0.000000
v -0.164595 0.628271 -0.119585
v -0.164595 0.634120 -0.119585
v 0.062870 0.634120 -0.193493
v 0.062870 0.628271 -0.193493
v 0.164595 0.628271 -0.119585
v 0.164595 0.634120 -0.119585
v 0.164595 0.634120 0.119585
v 0.164595 0.628271 0.119585
v 0.062870 0.628271 0.193493
v 0.062870 0.634120 0.193493
v -0.164595 0.634120 0.119585
v -0.164595 0.628271 0.119585
v -0.203450 0.628271 0.000000
v -0.203450 0.634120 0.000000
v -0.062870 0.634120 -0.193493
v -0.062870 0.628271 -0.193493
v 0.062870 0.628271 -0.193493
v 0.062870 0.634120 -0.193493
v 0.203450 0.634120 0.000000
v 0.203450 0.628271 0.000000
v 0.164595 0.628271 0.119585
v 0.164595 0.634120 0.119585
v -0.062870 0.634120 0.193493
v -0.062870 0.628271 0.193493
v -0.164595 0.628271 0.119585
v -0.164595 0.634120 0.119585
v -0.164595 0.634120 -0.119585
v -0.164595 0.628271 -0.119585
v -0.062870 0.628271 -0.193493
v -0.062870 0.634120 -0.193493
v 0.164595 0.634120 -0.119585
v 0.164595 0.628271 -0.119585
v 0.203450 0.628271 0.000000
v 0.203450 0.634120 0.000000
v 0.072726 0.634120 -0.223829
v 0.062870 0.634120 -0.193493
v 0.164595 0.634120 -0.119585
v 0.190400 0.634120 -0.138334
v -0.072726 0.634120 -0.223829
v 0.203450 0.634120 0.000000
v -0.062870 0.634120 -0.193493
v 0.235347 0.634120 0.000000
v -0.190400 0.634120 -0.138334
v 0.164595 0.634120 0.119585
v -0.164595 0.634120 -0.119585
v 0.190400 0.634120 0.138334
v -0.235347 0.634120 0.000000
v 0.062870 0.634120 0.193493
v -0.203450 0.634120 0.000000
v 0.072726 0.634120 0.223828
v -0.190400 0.634120 0.138334
v -0.062870 0.634120 0.193493
v -0.164595 0.634120 0.119585
v -0.072726 0.634120 0.223828
vn -0.948451 0.073969 -0.308170
vn -0.948451 0.073969 -0.308170
vn -0.948451 0.073969 -0.308170
vn -0.948451 0.073969 -0.308170
vn 0.000000 0.073971 0.997261
vn 0.000000 0.073971 0.997261
vn 0.000000 0.073971 0.997261
vn 0.000000 0.073971 0.997261
vn 0.586175 0.073971 0.806801
vn 0.586175 0.073971 0.806801
vn 0.586175 0.073971 0.806801
vn 0.586175 0.073971 0.806801
vn 0.948451 0.073970 0.308170
vn 0.948451 0.073970 0.308170
vn 0.948451 0.073970 0.308170
vn 0.948451 0.073970 0.308170
vn 0.948451 0.073970 -0.308170
vn 0.948451 0.073970 -0.308170
vn 0.948451 0.073970 -0.308170
vn 0.948451 0.073970 -0.308170
vn 0.586175 0.073970 -0.806801
vn 0.586175 0.073970 -0.806801
vn 0.586175 0.073970 -0.806801
vn 0.586175 0.073970 -0.806801
vn 0.000000 0.073970 -0.997261
vn 0.000000 0.073970 -0.997261
vn 0.000000 0.073970 -0.997261
vn 0.000000 0.073970 -0.997261
vn -0.586175 0.073970 -0.806801
vn -0.586175 0.073970 -0.806801
vn -0.586175 0.073970 -0.806801
vn -0.586175 0.073970 -0.806801
vn -0.252041 0.903400 0.346905
vn -0.252041 0.903400 0.346905
vn -0.252041 0.903400 0.346905
vn -0.252041 0.903400 0.346905
vn -0.586175 0.073970 0.806801
vn -0.586175 0.073970 0.806801
vn -0.586175 0.073970 0.806801
vn -0.586175 0.073970 0.806801
vn -0.948451 0.073970 0.308170
vn -0.948451 0.073970 0.308170
vn -0.948451 0.073970 0.308170
vn -0.948451 0.073970 0.308170
vn -0.627434 -0.751509 0.203866
vn -0.627434 -0.751509 0.203866
vn -0.627434 -0.751509 0.203866
vn -0.627434 -0.751509 0.203866
vn -0.387775 -0.751509 0.533727
vn -0.387775 -0.751509 0.533727
vn -0.387775 -0.751509 0.533727
vn -0.387775 -0.751509 0.533727
vn 0.000000 -0.751509 0.659722
vn 0.000000 -0.751509 0.659722
vn 0.000000 -0.751509 0.659722
vn 0.000000 -0.751509 0.659722
vn 0.387775 -0.751509 0.533727
vn 0.387775 -0.751509 0.533727
vn 0.387775 -0.751509 0.533727
vn 0.387775 -0.751509 0.533727
vn 0.627433 -0.751509 0.203865
vn 0.627433 -0.751509 0.203865
vn 0.627433 -0.751509 0.203865
vn 0.627433 -0.751509 0.203865
vn 0.627434 -0.751509 -0.203865
vn 0.627434 -0.751509 -0.203865
vn 0.627434 -0.751509 -0.203865
vn 0.627434 -0.751509 -0.203865
vn 0.387775 -0.751509 -0.533727
vn 0.387775 -0.751509 -0.533727
vn 0.387775 -0.751509 -0.533727
vn 0.387775 -0.751509 -0.533727
vn 0.000000 -0.751509 -0.659723
vn 0.000000 -0.751509 -0.659723
vn 0.000000 -0.751509 -0.659723
vn 0.000000 -0.751509 -0.659723
vn -0.387775 -0.751509 -0.533727
vn -0.387775 -0.751509 -0.533727
vn -0.387775 -0.751509 -0.533727
vn -0.387775 -0.751509 -0.533727
vn -0.627434 -0.751509 -0.203866
vn -0.627434 -0.751509 -0.203866
vn -0.627434 -0.751509 -0.203866
vn -0.627434 -0.751509 -0.203866
vn 0.000000 -1.000000 0.000000
vn 0.000000 -1.000000 0.000000
vn 0.000000 -1.000000 0.000000
vn 0.000000 -1.000000 0.000000
vn 0.000000 -1.000000 0.000000
vn 0.000000 -1.000000 0.000000
vn 0.000000 -1.000000 0.000000
vn 0.000000 -1.000000 0.000000
vn 0.000000 -1.000000 0.000000
vn 0.000000 -1.000000 0.000000
vn -0.949938 -0.048496 0.308653
vn -0.949938 -0.048496 0.308653
vn -0.949938 -0.048496 0.308653
vn -0.949938 -0.048496 0.308653
vn -0.587093 -0.048496 0.808065
vn -0.587093 -0.048496 0.808065
vn -0.587093 -0.048496 0.808065
vn -0.587093 -0.048496 0.808065
vn -0.587094 -0.048497 -0.808065
vn -0.587094 -0.048497 -0.808065
vn -0.587094 -0.048497 -0.808065
vn -0.587094 -0.048497 -0.808065
vn 0.000000 -0.048497 -0.998823
vn 0.000000 -0.048497 -0.998823
vn 0.000000 -0.048497 -0.998823
vn 0.000000 -0.048497 -0.998823
vn 0.587093 -0.048497 -0.808065
vn 0.587093 -0.048497 -0.808065
vn 0.587093 -0.048497 -0.808065
vn 0.587093 -0.048497 -0.808065
vn 0.949938 -0.048496 -0.308653
vn 0.949938 -0.048496 -0.308653
vn 0.949938 -0.048496 -0.308653
vn 0.949938 -0.048496 -0.308653
vn 0.949938 -0.048496 0.308653
vn 0.949938 -0.048496 0.308653
vn 0.949938 -0.048496 0.308653
vn 0.949938 -0.048496 0.308653
vn 0.587094 -0.048497 0.808065
vn 0.587094 -0.048497 0.808065
vn 0.587094 -0.048497 0.808065
vn 0.587094 -0.048497 0.808065
vn 0.000000 -0.048496 0.998823
vn 0.000000 -0.048496 0.998823
vn 0.000000 -0.048496 0.998823
vn 0.000000 -0.048496 0.998823
vn -0.949938 -0.048496 -0.308653
vn -0.949938 -0.048496 -0.308653
vn -0.949938 -0.048496 -0.308653
vn -0.949938 -0.048496 -0.308653
vn -0.252042 0.903400 -0.346906
vn -0.252042 0.903400 -0.346906
vn -0.252042 0.903400 -0.346906
vn -0.252042 0.903400 -0.346906
vn 0.407812 0.903400 -0.132506
vn 0.407812 0.903400 -0.132506
vn 0.407812 0.903400 -0.132506
vn 0.407812 0.903400 -0.132506
vn 0.000000 0.903400 0.428799
vn 0.000000 0.903400 0.428799
vn 0.000000 0.903400 0.428799
vn 0.000000 0.903400 0.428799
vn -0.407812 0.903400 -0.132506
vn -0.407812 0.903400 -0.132506
vn -0.407812 0.903400 -0.132506
vn -0.407812 0.903400 -0.132506
vn 0.252041 0.903400 -0.346906
vn 0.252041 0.903400 -0.346906
vn 0.252041 0.903400 -0.346906
vn 0.252041 0.903400 -0.346906
vn 0.252041 0.903400 0.346905
vn 0.252041 0.903400 0.346905
vn 0.252041 0.903400 0.346905
vn 0.252041 0.903400 0.346905
vn -0.407812 0.903400 0.132506
vn -0.407812 0.903400 0.132506
vn -0.407812 0.903400 0.132506
vn -0.407812 0.903400 0.132506
vn 0.000000 0.903400 -0.428799
vn 0.000000 0.903400 -0.428799
vn 0.000000 0.903400 -0.428799
vn 0.000000 0.903400 -0.428799
vn 0.407811 0.903400 0.132506
vn 0.407811 0.903400 0.132506
vn 0.407811 0.903400 0.132506
vn 0.407811 0.903400 0.132506
vn -0.350569 -0.802670 -0.482517
vn -0.350569 -0.802670 -0.482517
vn -0.350569 -0.802670 -0.482517
vn -0.350569 -0.802670 -0.482517
vn 0.350570 0.802669 -0.482518
vn 0.350570 0.802669 -0.482518
vn 0.350570 0.802669 -0.482518
vn 0.350570 0.802669 -0.482518
vn -0.567233 -0.802670 -0.184305
vn -0.567233 -0.802670 -0.184305
vn -0.567233 -0.802670 -0.184305
vn -0.567233 -0.802670 -0.184305
vn -0.350569 -0.802670 0.482517
vn -0.350569 -0.802670 0.482517
vn -0.350569 -0.802670 0.482517
vn -0.350569 -0.802670 0.482517
vn 0.000000 0.802668 -0.596427
vn 0.000000 0.802668 -0.596427
vn 0.000000 0.802668 -0.596427
vn 0.000000 0.802668 -0.596427
vn 0.000000 -0.802670 0.596424
vn 0.000000 -0.802670 0.596424
vn 0.000000 -0.802670 0.596424
vn 0.000000 -0.802670 0.596424
vn -0.567232 -0.802670 0.184305
vn -0.567232 -0.802670 0.184305
vn -0.567232 -0.802670 0.184305
vn -0.567232 -0.802670 0.184305
vn -0.350570 0.802669 -0.482518
vn -0.350570 0.802669 -0.482518
vn -0.350570 0.802669 -0.482518
vn -0.350570 0.802669 -0.482518
vn 0.350570 -0.802669 0.482517
vn 0.350570 -0.802669 0.482517
vn 0.350570 -0.802669 0.482517
vn 0.350570 -0.802669 0.482517
vn -0.567235 0.802668 -0.184306
vn -0.567235 0.802668 -0.184306
vn -0.567235 0.802668 -0.184306
vn -0.567235 0.802668 -0.184306
vn -0.951057 0.000000 0.309017
vn -0.951057 0.000000 0.309017
vn -0.951057 0.000000 0.309017
vn -0.951057 0.000000 0.309017
vn -0.587785 0.000000 0.809017
vn -0.587785 0.000000 0.809017
vn -0.587785 0.000000 0.809017
vn -0.587785 0.000000 0.809017
vn -0.587786 0.000000 -0.809017
vn -0.587786 0.000000 -0.809017
vn -0.587786 0.000000 -0.809017
vn -0.587786 0.000000 -0.809017
vn 0.000000 0.000000 -1.000000
vn 0.000000 0.000000 -1.000000
vn 0.000000 0.000000 -1.000000
vn 0.000000 0.000000 -1.000000
vn 0.587785 0.000000 -0.809017
vn 0.587785 0.000000 -0.809017
vn 0.587785 0.000000 -0.809017
vn 0.587785 0.000000 -0.809017
vn 0.951057 0.000000 -0.309017
vn 0.951057 0.000000 -0.309017
vn 0.951057 0.000000 -0.309017
vn 0.951057 0.000000 -0.309017
vn 0.951057 0.000000 0.309017
vn 0.951057 0.000000 0.309017
vn 0.951057 0.000000 0.309017
vn 0.951057 0.000000 0.309017
vn 0.587786 0.000000 0.809017
vn 0.587786 0.000000 0.809017
vn 0.587786 0.000000 0.809017
vn 0.587786 0.000000 0.809017
vn 0.000000 0.000000 1.000000
vn 0.000000 0.000000 1.000000
vn 0.000000 0.000000 1.000000
vn 0.000000 0.000000 1.000000
vn -0.951057 0.000000 -0.309017
vn -0.951057 0.000000 -0.309017
vn -0.951057 0.000000 -0.309017
vn -0.951057 0.000000 -0.309017
vn 0.567234 0.802669 -0.184306
vn 0.567234 0.802669 -0.184306
vn 0.567234 0.802669 -0.184306
vn 0.567234 0.802669 -0.184306
vn 0.000000 -0.802669 -0.596425
vn 0.000000 -0.802669 -0.596425
vn 0.000000 -0.802669 -0.596425
vn 0.000000 -0.802669 -0.596425
vn 0.567237 0.802667 0.184305
vn 0.567237 0.802667 0.184305
vn 0.567237 0.802667 0.184305
vn 0.567237 0.802667 0.184305
vn 0.350569 -0.802670 -0.482517
vn 0.350569 -0.802670 -0.482517
vn 0.350569 -0.802670 -0.482517
vn 0.350569 -0.802670 -0.482517
vn 0.350569 0.802669 0.482519
vn 0.350569 0.802669 0.482519
vn 0.350569 0.802669 0.482519
vn 0.350569 0.802669 0.482519
vn 0.567232 -0.802670 -0.184305
vn 0.567232 -0.802670 -0.184305
vn 0.567232 -0.802670 -0.184305
vn 0.567232 -0.802670 -0.184305
vn -0.567234 0.802669 0.184305
vn -0.567234 0.802669 0.184305
vn -0.567234 0.802669 0.184305
vn -0.567234 0.802669 0.184305
vn 0.000000 0.802669 0.596425
vn 0.000000 0.802669 0.596425
vn 0.000000 0.802669 0.596425
vn 0.000000 0.802669 0.596425
vn 0.567233 -0.802670 0.184305
vn 0.567233 -0.802670 0.184305
vn 0.567233 -0.802670 0.184305
vn 0.567233 -0.802670 0.184305
vn -0.350568 0.802669 0.482518
vn -0.350568 0.802669 0.482518
vn -0.350568 0.802669 0.482518
vn -0.350568 0.802669 0.482518
vn 0.587785 0.000000 0.809017
vn 0.587785 0.000000 0.809017
vn 0.587785 0.000000 0.809017
vn 0.587785 0.000000 0.809017
vn -0.951057 0.000000 0.309017
vn -0.951057 0.000000 0.309017
vn -0.951057 0.000000 0.309017
vn -0.951057 0.000000 0.309017
vn 0.000000 0.000000 -1.000000
vn 0.000000 0.000000 -1.000000
vn 0.000000 0.000000 -1.000000
vn 0.000000 0.000000 -1.000000
vn 0.951057 0.000000 0.309017
vn 0.951057 0.000000 0.309017
vn 0.951057 0.000000 0.309017
vn 0.951057 0.000000 0.309017
vn -0.587785 0.000000 0.809017
vn -0.587785 0.000000 0.809017
vn -0.587785 0.000000 0.809017
vn -0.587785 0.000000 0.809017
vn -0.587786 0.000000 -0.809017
vn -0.587786 0.000000 -0.809017
vn -0.587786 0.000000 -0.809017
vn -0.587786 0.000000 -0.809017
vn 0.951057 0.000000 -0.309017
vn 0.951057 0.000000 -0.309017
vn 0.951057 0.000000 -0.309017
vn 0.951057 0.000000 -0.309017
vn 0.000000 0.000000 1.000000
vn 0.000000 0.000000 1.000000
vn 0.000000 0.000000 1.000000
vn 0.000000 0.000000 1.000000
vn -0.951057 0.000000 -0.309017
vn -0.951057 0.000000 -0.309017
vn -0.951057 0.000000 -0.309017
vn -0.951057 0.000000 -0.309017
vn 0.587785 0.000000 -0.809017
vn 0.587785 0.000000 -0.809017
vn 0.587785 0.000000 -0.809017
vn 0.587785 0.000000 -0.809017
vn 0.000000 0.000000 -1.000000
vn 0.000000 0.000000 -1.000000
vn 0.000000 0.000000 -1.000000
vn 0.000000 0.000000 -1.000000
vn 0.000000 1.000000 0.000000
vn 0.000000 1.000000 0.000000
vn 0.000000 1.000000 0.000000
vn 0.000000 1.000000 0.000000
vn 0.000000 1.000000 0.000000
vn 0.000000 1.000000 0.000000
vn 0.000000 1.000000 0.000000
vn 0.000000 1.000000 0.000000
vn 0.000000 1.000000 0.000000
vn 0.000000 1.000000 0.000000
vn 0.951057 0.000000 0.309017
vn 0.951057 0.000000 0.309017
vn 0.951057 0.000000 0.309017
vn 0.951057 0.000000 0.309017
vn -0.587785 0.000000 0.809017
vn -0.587785 0.000000 0.809017
vn -0.587785 0.000000 0.809017
vn -0.587785 0.000000 0.809017
vn -0.587785 0.000000 -0.809017
vn -0.587785 0.000000 -0.809017
vn -0.587785 0.000000 -0.809017
vn -0.587785 0.000000 -0.809017
vn 0.951057 0.000000 -0.309017
vn 0.951057 0.000000 -0.309017
vn 0.951057 0.000000 -0.309017
vn 0.951057 0.000000 -0.309017
vn 0.000000 0.000000 1.000000
vn 0.000000 0.000000 1.000000
vn 0.000000 0.000000 1.000000
vn 0.000000 0.000000 1.000000
vn -0.951057 0.000000 -0.309017
vn -0.951057 0.000000 -0.309017
vn -0.951057 0.000000 -0.309017
vn -0.951057 0.000000 -0.309017
vn 0.587785 0.000000 -0.809017
vn 0.587785 0.000000 -0.809017
vn 0.587785 0.000000 -0.809017
vn 0.587785 0.000000 -0.809017
vn 0.587785 0.000000 0.809017
vn 0.587785 0.000000 0.809017
vn 0.587785 0.000000 0.809017
vn 0.587785 0.000000 0.809017
vn -0.951057 0.000000 0.309017
vn -0.951057 0.000000 0.309017
vn -0.951057 0.000000 0.309017
vn -0.951057 0.000000 0.309017
vn -0.000001 1.000000 0.000000
vn -0.000001 1.000000 0.000000
vn 0.000000 1.000000 0.000000
vn 0.000000 1.000000 0.000000
vn 0.000001 1.000000 0.000000
vn 0.000000 1.000000 0.000000
vn 0.000001 1.000000 0.000000
vn 0.000000 1.000000 0.000000
vn 0.000001 1.000000 0.000000
vn 0.000000 1.000000 0.000000
vn 0.000001 1.000000 0.000000
vn 0.000000 1.000000 0.000000
vn 0.000002 1.000000 0.000000
vn 0.000000 1.000000 0.000000
vn 0.000002 1.000000 0.000000
vn 0.000000 1.000000 0.000000
vn 0.000000 1.000000 0.000000
vn 0.000000 1.000000 0.000000
vn 0.000000 1.000000 0.000000
vn 0.000000 1.000000 0.000000
g Jar_Large_LightYellow
usemtl LightYellow
f 1 2 3
f 1 3 4
f 5 6 7
f 5 7 8
f 9 10 11
f 9 11 12
f 13 14 15
f 13 15 16
f 17 18 19
f 17 19 20
f 21 22 23
f 21 23 24
f 25 26 27
f 25 27 28
f 29 30 31
f 29 31 32
f 33 34 35
f 33 35 36
f 37 38 39
f 37 39 40
f 41 42 43
f 41 43 44
f 45 46 47
f 45 47 48
f 49 50 51
f 49 51 52
f 53 54 55
f 53 55 56
f 57 58 59
f 57 59 60
f 61 62 63
f 61 63 64
f 65 66 67
f 65 67 68
f 69 70 71
f 69 71 72
f 73 74 75
f 73 75 76
f 77 78 79
f 77 79 80
f 81 82 83
f 81 83 84
f 85 86 87
f 87 88 85
f 87 89 88
f 89 90 88
f 90 91 88
f 90 92 91
f 92 93 91
f 92 94 93
f 95 96 97
f 95 97 98
f 99 100 101
f 99 101 102
f 103 104 105
f 103 105 106
f 107 108 109
f 107 109 110
f 111 112 113
f 111 113 114
f 115 116 117
f 115 117 118
f 119 120 121
f 119 121 122
f 123 124 125
f 123 125 126
f 127 128 129
f 127 129 130
f 131 132 133
f 131 133 134
f 135 136 137
f 135 137 138
f 139 140 141
f 139 141 142
f 143 144 145
f 143 145 146
f 147 148 149
f 147 149 150
f 151 152 153
f 151 153 154
f 155 156 157
f 155 157 158
f 159 160 161
f 159 161 162
f 163 164 165
f 163 165 166
f 167 168 169
f 167 169 170
g Jar_Large_PaleRed
usemtl PaleRed
f 171 172 173
f 171 173 174
f 175 176 177
f 175 177 178
f 179 180 181
f 179 181 182
f 183 184 185
f 183 185 186
f 187 188 189
f 187 189 190
f 191 192 193
f 191 193 194
f 195 196 197
f 195 197 198
f 199 200 201
f 199 201 202
f 203 204 205
f 203 205 206
f 207 208 209
f 207 209 210
f 211 212 213
f 211 213 214
f 215 216 217
f 215 217 218
f 219 220 221
f 219 221 222
f 223 224 225
f 223 225 226
f 227 228 229
f 227 229 230
f 231 232 233
f 231 233 234
f 235 236 237
f 235 237 238
f 239 240 241
f 239 241 242
f 243 244 245
f 243 245 246
f 247 248 249
f 247 249 250
f 251 252 253
f 251 253 254
f 255 256 257
f 255 257 258
f 259 260 261
f 259 261 262
f 263 264 265
f 263 265 266
f 267 268 269
f 267 269 270
f 271 272 273
f 271 273 274
f 275 276 277
f 275 277 278
f 279 280 281
f 279 281 282
f 283 284 285
f 283 285 286
f 287 288 289
f 287 289 290
g Jar_Large_White
usemtl White
f 291 292 293
f 291 293 294
f 295 296 297
f 295 297 298
f 299 300 301
f 299 301 302
f 303 304 305
f 303 305 306
f 307 308 309
f 307 309 310
f 311 312 313
f 311 313 314
f 315 316 317
f 315 317 318
f 319 320 321
f 319 321 322
f 323 324 325
f 323 325 326
f 327 328 329
f 327 329 330
f 331 332 333
f 331 333 334
f 335 336 337
f 337 338 335
f 337 339 338
f 339 340 338
f 339 341 340
f 341 342 340
f 341 343 342
f 343 344 342
f 345 346 347
f 345 347 348
f 349 350 351
f 349 351 352
f 353 354 355
f 353 355 356
f 357 358 359
f 357 359 360
f 361 362 363
f 361 363 364
f 365 366 367
f 365 367 368
f 369 370 371
f 369 371 372
f 373 374 375
f 373 375 376
f 377 378 379
f 377 379 380
f 381 382 383
f 381 383 384
f 385 382 381
f 384 383 386
f 385 387 382
f 384 386 388
f 389 387 385
f 388 386 390
f 389 391 387
f 388 390 392
f 393 391 389
f 392 390 394
f 393 395 391
f 392 394 396
f 397 395 393
f 396 394 398
f 397 399 395
f 396 398 400
f 400 399 397
f 400 398 399
