mtllib Materials.mtl
# Ultimate Food Pack - KetchupBottle
o KetchupBottle
v 0.176622 0.066152 -0.176622
v 0.000000 0.066152 -0.249782
v 0.000000 1.037771 -0.249782
v 0.176622 1.037771 -0.176623
v -0.249782 0.066152 0.000000
v -0.176622 0.066152 0.176622
v -0.176622 1.037771 0.176622
v -0.249782 1.037771 0.000000
v -0.176622 0.066152 0.176622
v 0.000000 0.066152 0.249782
v 0.000000 1.037771 0.249782
v -0.176622 1.037771 0.176622
v 0.000000 0.066152 0.249782
v 0.176622 0.066152 0.176622
v 0.176622 1.037771 0.176622
v 0.000000 1.037771 0.249782
v 0.176622 0.066152 0.176622
v 0.249782 0.066152 0.000000
v 0.249782 1.037771 0.000000
v 0.176622 1.037771 0.176622
v 0.249782 0.066152 0.000000
v 0.176622 0.066152 -0.176622
v 0.176622 1.037771 -0.176623
v 0.249782 1.037771 0.000000
v 0.000000 1.037771 -0.249782
v 0.000000 1.106992 -0.192918
v 0.136414 1.106992 -0.136414
v 0.176622 1.037771 -0.176623
v 0.136414 1.106992 -0.136414
v 0.136414 1.117675 -0.136414
v 0.192918 1.117675 0.000000
v 0.192918 1.106992 0.000000
v -0.176622 0.066152 -0.176622
v -0.249782 0.066152 0.000000
v -0.249782 1.037771 0.000000
v -0.176622 1.037771 -0.176623
v 0.000000 0.066152 -0.249782
v -0.176622 0.066152 -0.176622
v -0.176622 1.037771 -0.176623
v 0.000000 1.037771 -0.249782
v 0.000000 0.030854 -0.249782
v 0.000000 -0.016749 -0.213428
v -0.150916 -0.016749 -0.150916
v -0.176622 0.030854 -0.176622
v -0.176622 0.030854 -0.176622
v -0.150916 -0.016749 -0.150916
v -0.213428 -0.016749 0.000000
v -0.249782 0.030854 0.000000
v -0.249782 0.030854 0.000000
v -0.213428 -0.016749 0.000000
v -0.150916 -0.016749 0.150916
v -0.176622 0.030854 0.176622
v -0.176622 0.030854 0.176622
v -0.150916 -0.016749 0.150916
v 0.000000 -0.016749 0.213428
v 0.000000 0.030854 0.249782
v 0.000000 0.030854 0.249782
v 0.000000 -0.016749 0.213428
v 0.150916 -0.016749 0.150916
v 0.176622 0.030854 0.176622
v 0.176622 0.030854 0.176622
v 0.150916 -0.016749 0.150916
v 0.213428 -0.016749 0.000000
v 0.249782 0.030854 0.000000
v 0.249782 0.030854 0.000000
v 0.213428 -0.016749 0.000000
v 0.150916 -0.016749 -0.150916
v 0.176622 0.030854 -0.176622
v 0.176622 0.030854 -0.176622
v 0.150916 -0.016749 -0.150916
v 0.000000 -0.016749 -0.213428
v 0.000000 0.030854 -0.249782
v -0.150916 -0.016749 0.150916
v -0.213428 -0.016749 0.000000
v -0.150916 -0.016749 -0.150916
v 0.000000 -0.016749 0.213428
v 0.000000 -0.016749 -0.213428
v 0.150916 -0.016749 -0.150916
v 0.150916 -0.016749 0.150916
v 0.213428 -0.016749 0.000000
v -0.176622 1.037771 -0.176623
v -0.136414 1.106992 -0.136414
v 0.000000 1.106992 -0.192918
v 0.000000 1.037771 -0.249782
v -0.176622 1.037771 0.176622
v -0.136414 1.106992 0.136414
v -0.192918 1.106992 0.000000
v -0.249782 1.037771 0.000000
v 0.249782 1.037771 0.000000
v 0.192918 1.106992 0.000000
v 0.136414 1.106992 0.136413
v 0.176622 1.037771 0.176622
v 0.000000 1.037771 0.249782
v 0.000000 1.106992 0.192918
v -0.136414 1.106992 0.136414
v -0.176622 1.037771 0.176622
v 0.176622 1.037771 -0.176623
v 0.136414 1.106992 -0.136414
v 0.192918 1.106992 0.000000
v 0.249782 1.037771 0.000000
v -0.249782 1.037771 0.000000
v -0.192918 1.106992 0.000000
v -0.136414 1.106992 -0.136414
v -0.176622 1.037771 -0.176623
v 0.176622 1.037771 0.176622
v 0.136414 1.106992 0.136413
v 0.000000 1.106992 0.192918
v 0.000000 1.037771 0.249782
v -0.161376 1.137496 -0.161376
v -0.140482 1.230864 -0.140482
v 0.000000 1.230864 -0.198672
v 0.000000 1.137496 -0.228220
v -0.136414 1.106992 -0.136414
v -0.136414 1.117675 -0.136414
v 0.000000 1.117675 -0.192918
v 0.000000 1.106992 -0.192918
v 0.000000 1.106992 -0.192918
v 0.000000 1.117675 -0.192918
v 0.136414 1.117675 -0.136414
v 0.136414 1.106992 -0.136414
v -0.192918 1.106992 0.000000
v -0.192918 1.117675 0.000000
v -0.136414 1.117675 -0.136414
v -0.136414 1.106992 -0.136414
v 0.136414 1.106992 0.136413
v 0.136414 1.117675 0.136413
v 0.000000 1.117675 0.192918
v 0.000000 1.106992 0.192918
v 0.192918 1.106992 0.000000
v 0.192918 1.117675 0.000000
v 0.136414 1.117675 0.136413
v 0.136414 1.106992 0.136413
v -0.136414 1.106992 0.136414
v -0.136414 1.117675 0.136414
v -0.192918 1.117675 0.000000
v -0.192918 1.106992 0.000000
v 0.000000 1.106992 0.192918
v 0.000000 1.117675 0.192918
v -0.136414 1.117675 0.136414
v -0.136414 1.106992 0.136414
v -0.038043 1.258002 -0.038043
v -0.015636 1.515945 -0.015636
v 0.000000 1.515945 -0.022113
v 0.000000 1.258002 -0.053801
v -0.228219 1.137496 0.000000
v -0.198672 1.230864 0.000000
v -0.140482 1.230864 -0.140482
v -0.161376 1.137496 -0.161376
v 0.000000 1.137496 0.228219
v 0.000000 1.230864 0.198672
v -0.140482 1.230864 0.140482
v -0.161376 1.137496 0.161375
v 0.228219 1.137496 0.000000
v 0.198672 1.230864 0.000000
v 0.140482 1.230864 0.140482
v 0.161376 1.137496 0.161375
v -0.161376 1.137496 0.161375
v -0.140482 1.230864 0.140482
v -0.198672 1.230864 0.000000
v -0.228219 1.137496 0.000000
v 0.161376 1.137496 0.161375
v 0.140482 1.230864 0.140482
v 0.000000 1.230864 0.198672
v 0.000000 1.137496 0.228219
v 0.161376 1.137496 -0.161376
v 0.140482 1.230864 -0.140482
v 0.198672 1.230864 0.000000
v 0.228219 1.137496 0.000000
v 0.000000 1.230864 -0.198672
v 0.000000 1.258002 -0.173118
v 0.122413 1.258002 -0.122413
v 0.140482 1.230864 -0.140482
v 0.140482 1.230864 -0.140482
v 0.122413 1.258002 -0.122413
v 0.173118 1.258002 0.000000
v 0.198672 1.230864 0.000000
v 0.198672 1.230864 0.000000
v 0.173118 1.258002 0.000000
v 0.122413 1.258002 0.122413
v 0.140482 1.230864 0.140482
v 0.140482 1.230864 0.140482
v 0.122413 1.258002 0.122413
v 0.000000 1.258002 0.173118
v 0.000000 1.230864 0.198672
v 0.000000 1.230864 0.198672
v 0.000000 1.258002 0.173118
v -0.122413 1.258002 0.122413
v -0.140482 1.230864 0.140482
v -0.140482 1.230864 0.140482
v -0.122413 1.258002 0.122413
v -0.173118 1.258002 0.000000
v -0.198672 1.230864 0.000000
v -0.198672 1.230864 0.000000
v -0.173118 1.258002 0.000000
v -0.122413 1.258002 -0.122413
v -0.140482 1.230864 -0.140482
v -0.140482 1.230864 -0.140482
v -0.122413 1.258002 -0.122413
v 0.000000 1.258002 -0.173118
v 0.000000 1.230864 -0.198672
v -0.015636 1.515945 -0.015636
v -0.022113 1.515945 0.000000
v -0.015636 1.515945 0.015636
v 0.000000 1.515945 -0.022113
v 0.000000 1.515945 0.022113
v 0.015636 1.515945 -0.015636
v 0.015636 1.515945 0.015636
v 0.022113 1.515945 0.000000
v 0.038043 1.258002 0.038043
v 0.015636 1.515945 0.015636
v 0.000000 1.515945 0.022113
v 0.000000 1.258002 0.053801
v 0.000000 1.258002 -0.053801
v 0.000000 1.515945 -0.022113
v 0.015636 1.515945 -0.015636
v 0.038043 1.258002 -0.038043
v 0.053801 1.258002 0.000000
v 0.022113 1.515945 0.000000
v 0.015636 1.515945 0.015636
v 0.038043 1.258002 0.038043
v -0.053801 1.258002 0.000000
v -0.022113 1.515945 0.000000
v -0.015636 1.515945 -0.015636
v -0.038043 1.258002 -0.038043
v -0.038043 1.258002 0.038043
v -0.015636 1.515945 0.015636
v -0.022113 1.515945 0.000000
v -0.053801 1.258002 0.000000
v 0.038043 1.258002 -0.038043
v 0.015636 1.515945 -0.015636
v 0.022113 1.515945 0.000000
v 0.053801 1.258002 0.000000
v 0.000000 1.258002 0.053801
v 0.000000 1.515945 0.022113
v -0.015636 1.515945 0.015636
v -0.038043 1.258002 0.038043
v 0.000000 1.117675 -0.218107
v 0.000000 1.137496 -0.228220
v 0.161376 1.137496 -0.161376
v 0.154225 1.117675 -0.154225
v 0.154225 1.117675 -0.154225
v 0.161376 1.137496 -0.161376
v 0.228219 1.137496 0.000000
v 0.218107 1.117675 0.000000
v 0.218107 1.117675 0.000000
v 0.228219 1.137496 0.000000
v 0.161376 1.137496 0.161375
v 0.154225 1.117675 0.154225
v 0.154225 1.117675 0.154225
v 0.161376 1.137496 0.161375
v 0.000000 1.137496 0.228219
v 0.000000 1.117675 0.218107
v 0.000000 1.117675 0.218107
v 0.000000 1.137496 0.228219
v -0.161376 1.137496 0.161375
v -0.154225 1.117675 0.154225
v -0.154225 1.117675 0.154225
v -0.161376 1.137496 0.161375
v -0.228219 1.137496 0.000000
v -0.218107 1.117675 0.000000
v -0.218107 1.117675 0.000000
v -0.228219 1.137496 0.000000
v -0.161376 1.137496 -0.161376
v -0.154225 1.117675 -0.154225
v -0.154225 1.117675 -0.154225
v -0.161376 1.137496 -0.161376
v 0.000000 1.137496 -0.228220
v 0.000000 1.117675 -0.218107
v 0.000000 1.137496 -0.228220
v 0.000000 1.230864 -0.198672
v 0.140482 1.230864 -0.140482
v 0.161376 1.137496 -0.161376
v 0.000000 0.030854 -0.249782
v -0.176622 0.030854 -0.176622
v -0.176622 0.045716 -0.176622
v 0.000000 0.045716 -0.249782
v -0.176622 0.030854 -0.176622
v -0.249782 0.030854 0.000000
v -0.249782 0.045716 0.000000
v -0.176622 0.045716 -0.176622
v 0.249782 0.030854 0.000000
v 0.176622 0.030854 -0.176622
v 0.176622 0.045716 -0.176622
v 0.249782 0.045716 0.000000
v 0.176622 0.030854 0.176622
v 0.249782 0.030854 0.000000
v 0.249782 0.045716 0.000000
v 0.176622 0.045716 0.176622
v 0.000000 0.030854 0.249782
v 0.176622 0.030854 0.176622
v 0.176622 0.045716 0.176622
v 0.000000 0.045716 0.249782
v -0.176622 0.030854 0.176622
v 0.000000 0.030854 0.249782
v 0.000000 0.045716 0.249782
v -0.176622 0.045716 0.176622
v -0.249782 0.030854 0.000000
v -0.176622 0.030854 0.176622
v -0.176622 0.045716 0.176622
v -0.249782 0.045716 0.000000
v 0.176622 0.030854 -0.176622
v 0.000000 0.030854 -0.249782
v 0.000000 0.045716 -0.249782
v 0.176622 0.045716 -0.176622
v 0.000000 0.046277 -0.236078
v -0.166933 0.046277 -0.166933
v -0.166933 0.065591 -0.166933
v 0.000000 0.065591 -0.236078
v -0.166933 0.046277 -0.166933
v -0.236078 0.046277 0.000000
v -0.236078 0.065591 0.000000
v -0.166933 0.065591 -0.166933
v 0.236078 0.046277 0.000000
v 0.166933 0.046277 -0.166933
v 0.166933 0.065591 -0.166933
v 0.236078 0.065591 0.000000
v 0.166933 0.046277 0.166933
v 0.236078 0.046277 0.000000
v 0.236078 0.065591 0.000000
v 0.166933 0.065591 0.166933
v 0.000000 0.046277 0.236078
v 0.166933 0.046277 0.166933
v 0.166933 0.065591 0.166933
v 0.000000 0.065591 0.236078
v -0.166933 0.046277 0.166933
v 0.000000 0.046277 0.236078
v 0.000000 0.065591 0.236078
v -0.166933 0.065591 0.166933
v -0.236078 0.046277 0.000000
v -0.166933 0.046277 0.166933
v -0.166933 0.065591 0.166933
v -0.236078 0.065591 0.000000
v 0.166933 0.046277 -0.166933
v 0.000000 0.046277 -0.236078
v 0.000000 0.065591 -0.236078
v 0.166933 0.065591 -0.166933
v 0.000000 0.066152 -0.249782
v -0.166933 0.065591 -0.166933
v -0.176622 0.066152 -0.176622
v 0.000000 0.065591 -0.236078
v -0.236078 0.065591 0.000000
v 0.176622 0.066152 -0.176622
v -0.249782 0.066152 0.000000
v 0.166933 0.065591 -0.166933
v -0.166933 0.065591 0.166933
v 0.249782 0.066152 0.000000
v -0.176622 0.066152 0.176622
v 0.236078 0.065591 0.000000
v 0.000000 0.065591 0.236078
v 0.176622 0.066152 0.176622
v 0.000000 0.066152 0.249782
v 0.166933 0.065591 0.166933
v -0.176622 0.045716 -0.176622
v -0.166933 0.046277 -0.166933
v 0.000000 0.046277 -0.236078
v 0.000000 0.045716 -0.249782
v -0.249782 0.045716 0.000000
v 0.166933 0.046277 -0.166933
v -0.236078 0.046277 0.000000
v 0.176622 0.045716 -0.176622
v -0.176622 0.045716 0.176622
v 0.236078 0.046277 0.000000
v -0.166933 0.046277 0.166933
v 0.249782 0.045716 0.000000
v 0.000000 0.045716 0.249782
v 0.166933 0.046277 0.166933
v 0.000000 0.046277 0.236078
v 0.176622 0.045716 0.176622
v 0.122413 1.258002 -0.122413
v 0.053801 1.258002 0.000000
v 0.173118 1.258002 0.000000
v 0.038043 1.258002 -0.038043
v 0.038043 1.258002 0.038043
v 0.000000 1.258002 -0.173118
v 0.122413 1.258002 0.122413
v 0.000000 1.258002 -0.053801
v 0.000000 1.258002 0.053801
v -0.122413 1.258002 -0.122413
v 0.000000 1.258002 0.173118
v -0.038043 1.258002 -0.038043
v -0.038043 1.258002 0.038043
v -0.173118 1.258002 0.000000
v -0.122413 1.258002 0.122413
v -0.053801 1.258002 0.000000
v -0.192918 1.117675 0.000000
v -0.154225 1.117675 -0.154225
v -0.136414 1.117675 -0.136414
v -0.218107 1.117675 0.000000
v 0.000000 1.117675 -0.218107
v -0.136414 1.117675 0.136414
v 0.000000 1.117675 -0.192918
v -0.154225 1.117675 0.154225
v 0.154225 1.117675 -0.154225
v 0.000000 1.117675 0.192918
v 0.136414 1.117675 -0.136414
v 0.000000 1.117675 0.218107
v 0.218107 1.117675 0.000000
v 0.136414 1.117675 0.136413
v 0.192918 1.117675 0.000000
v 0.154225 1.117675 0.154225
vn 0.382684 0.000000 -0.923880
vn 0.382684 0.000000 -0.923880
vn 0.382684 0.000000 -0.923880
vn 0.382684 0.000000 -0.923880
vn -0.923880 0.000000 0.382684
vn -0.923880 0.000000 0.382684
vn -0.923880 0.000000 0.382684
vn -0.923880 0.000000 0.382684
vn -0.382684 0.000000 0.923880
vn -0.382684 0.000000 0.923880
vn -0.382684 0.000000 0.923880
vn -0.382684 0.000000 0.923880
vn 0.382684 0.000000 0.923880
vn 0.382684 0.000000 0.923880
vn 0.382684 0.000000 0.923880
vn 0.382684 0.000000 0.923880
vn 0.923880 0.000000 0.382683
vn 0.923880 0.000000 0.382683
vn 0.923880 0.000000 0.382683
vn 0.923880 0.000000 0.382683
vn 0.923880 0.000000 -0.382683
vn 0.923880 0.000000 -0.382683
vn 0.923880 0.000000 -0.382683
vn 0.923880 0.000000 -0.382683
vn 0.304833 0.604549 -0.735933
vn 0.304833 0.604549 -0.735933
vn 0.304833 0.604549 -0.735933
vn 0.304833 0.604549 -0.735933
vn 0.923879 0.000000 -0.382684
vn 0.923879 0.000000 -0.382684
vn 0.923879 0.000000 -0.382684
vn 0.923879 0.000000 -0.382684
vn -0.923880 0.000000 -0.382683
vn -0.923880 0.000000 -0.382683
vn -0.923880 0.000000 -0.382683
vn -0.923880 0.000000 -0.382683
vn -0.382684 0.000000 -0.923880
vn -0.382684 0.000000 -0.923880
vn -0.382684 0.000000 -0.923880
vn -0.382684 0.000000 -0.923880
vn -0.312687 -0.576510 -0.754893
vn -0.312687 -0.576510 -0.754893
vn -0.312687 -0.576510 -0.754893
vn -0.312687 -0.576510 -0.754893
vn -0.754893 -0.576509 -0.312687
vn -0.754893 -0.576509 -0.312687
vn -0.754893 -0.576509 -0.312687
vn -0.754893 -0.576509 -0.312687
vn -0.754893 -0.576509 0.312687
vn -0.754893 -0.576509 0.312687
vn -0.754893 -0.576509 0.312687
vn -0.754893 -0.576509 0.312687
vn -0.312687 -0.576509 0.754893
vn -0.312687 -0.576509 0.754893
vn -0.312687 -0.576509 0.754893
vn -0.312687 -0.576509 0.754893
vn 0.312687 -0.576509 0.754893
vn 0.312687 -0.576509 0.754893
vn 0.312687 -0.576509 0.754893
vn 0.312687 -0.576509 0.754893
vn 0.754893 -0.576509 0.312687
vn 0.754893 -0.576509 0.312687
vn 0.754893 -0.576509 0.312687
vn 0.754893 -0.576509 0.312687
vn 0.754893 -0.576509 -0.312687
vn 0.754893 -0.576509 -0.312687
vn 0.754893 -0.576509 -0.312687
vn 0.754893 -0.576509 -0.312687
vn 0.312687 -0.576509 -0.754893
vn 0.312687 -0.576509 -0.754893
vn 0.312687 -0.576509 -0.754893
vn 0.312687 -0.576509 -0.754893
vn 0.000000 -1.000000 0.000000
vn 0.000000 -1.000000 0.000000
vn 0.000000 -1.000000 0.000000
vn 0.000000 -1.000000 0.000000
vn 0.000000 -1.000000 0.000000
vn 0.000000 -1.000000 0.000000
vn 0.000000 -1.000000 0.000000
vn 0.000000 -1.000000 0.000000
vn -0.304833 0.604549 -0.735933
vn -0.304833 0.604549 -0.735933
vn -0.304833 0.604549 -0.735933
vn -0.304833 0.604549 -0.735933
vn -0.735932 0.604550 0.304833
vn -0.735932 0.604550 0.304833
vn -0.735932 0.604550 0.304833
vn -0.735932 0.604550 0.304833
vn 0.735933 0.604549 0.304833
vn 0.735933 0.604549 0.304833
vn 0.735933 0.604549 0.304833
vn 0.735933 0.604549 0.304833
vn -0.304833 0.604549 0.735933
vn -0.304833 0.604549 0.735933
vn -0.304833 0.604549 0.735933
vn -0.304833 0.604549 0.735933
vn 0.735933 0.604549 -0.304833
vn 0.735933 0.604549 -0.304833
vn 0.735933 0.604549 -0.304833
vn 0.735933 0.604549 -0.304833
vn -0.735932 0.604550 -0.304834
vn -0.735932 0.604550 -0.304834
vn -0.735932 0.604550 -0.304834
vn -0.735932 0.604550 -0.304834
vn 0.304834 0.604549 0.735933
vn 0.304834 0.604549 0.735933
vn 0.304834 0.604549 0.735933
vn 0.304834 0.604549 0.735933
vn -0.367306 0.280627 -0.886755
vn -0.367306 0.280627 -0.886755
vn -0.367306 0.280627 -0.886755
vn -0.367306 0.280627 -0.886755
vn -0.382684 0.000000 -0.923879
vn -0.382684 0.000000 -0.923879
vn -0.382684 0.000000 -0.923879
vn -0.382684 0.000000 -0.923879
vn 0.382684 0.000000 -0.923879
vn 0.382684 0.000000 -0.923879
vn 0.382684 0.000000 -0.923879
vn 0.382684 0.000000 -0.923879
vn -0.923881 0.000000 -0.382680
vn -0.923881 0.000000 -0.382680
vn -0.923881 0.000000 -0.382680
vn -0.923881 0.000000 -0.382680
vn 0.382684 0.000000 0.923879
vn 0.382684 0.000000 0.923879
vn 0.382684 0.000000 0.923879
vn 0.382684 0.000000 0.923879
vn 0.923879 0.000000 0.382684
vn 0.923879 0.000000 0.382684
vn 0.923879 0.000000 0.382684
vn 0.923879 0.000000 0.382684
vn -0.923879 0.000000 0.382684
vn -0.923879 0.000000 0.382684
vn -0.923879 0.000000 0.382684
vn -0.923879 0.000000 0.382684
vn -0.382684 0.000000 0.923879
vn -0.382684 0.000000 0.923879
vn -0.382684 0.000000 0.923879
vn -0.382684 0.000000 0.923879
vn -0.380242 0.112772 -0.917986
vn -0.380242 0.112772 -0.917986
vn -0.380242 0.112772 -0.917986
vn -0.380242 0.112772 -0.917986
vn -0.886755 0.280627 -0.367306
vn -0.886755 0.280627 -0.367306
vn -0.886755 0.280627 -0.367306
vn -0.886755 0.280627 -0.367306
vn -0.367306 0.280627 0.886755
vn -0.367306 0.280627 0.886755
vn -0.367306 0.280627 0.886755
vn -0.367306 0.280627 0.886755
vn 0.886755 0.280627 0.367306
vn 0.886755 0.280627 0.367306
vn 0.886755 0.280627 0.367306
vn 0.886755 0.280627 0.367306
vn -0.886755 0.280627 0.367306
vn -0.886755 0.280627 0.367306
vn -0.886755 0.280627 0.367306
vn -0.886755 0.280627 0.367306
vn 0.367306 0.280627 0.886755
vn 0.367306 0.280627 0.886755
vn 0.367306 0.280627 0.886755
vn 0.367306 0.280627 0.886755
vn 0.886755 0.280627 -0.367306
vn 0.886755 0.280627 -0.367306
vn 0.886755 0.280627 -0.367306
vn 0.886755 0.280627 -0.367306
vn 0.288723 0.656339 -0.697035
vn 0.288723 0.656339 -0.697035
vn 0.288723 0.656339 -0.697035
vn 0.288723 0.656339 -0.697035
vn 0.697037 0.656338 -0.288721
vn 0.697037 0.656338 -0.288721
vn 0.697037 0.656338 -0.288721
vn 0.697037 0.656338 -0.288721
vn 0.697035 0.656340 0.288721
vn 0.697035 0.656340 0.288721
vn 0.697035 0.656340 0.288721
vn 0.697035 0.656340 0.288721
vn 0.288721 0.656340 0.697035
vn 0.288721 0.656340 0.697035
vn 0.288721 0.656340 0.697035
vn 0.288721 0.656340 0.697035
vn -0.288721 0.656340 0.697035
vn -0.288721 0.656340 0.697035
vn -0.288721 0.656340 0.697035
vn -0.288721 0.656340 0.697035
vn -0.697037 0.656339 0.288721
vn -0.697037 0.656339 0.288721
vn -0.697037 0.656339 0.288721
vn -0.697037 0.656339 0.288721
vn -0.697035 0.656340 -0.288722
vn -0.697035 0.656340 -0.288722
vn -0.697035 0.656340 -0.288722
vn -0.697035 0.656340 -0.288722
vn -0.288721 0.656339 -0.697036
vn -0.288721 0.656339 -0.697036
vn -0.288721 0.656339 -0.697036
vn -0.288721 0.656339 -0.697036
vn 0.000000 1.000000 0.000000
vn 0.000000 1.000000 0.000000
vn 0.000000 1.000000 0.000000
vn 0.000000 1.000000 0.000000
vn 0.000000 1.000000 0.000000
vn 0.000000 1.000000 0.000000
vn 0.000000 1.000000 0.000000
vn 0.000000 1.000000 0.000000
vn 0.380242 0.112773 0.917986
vn 0.380242 0.112773 0.917986
vn 0.380242 0.112773 0.917986
vn 0.380242 0.112773 0.917986
vn 0.380242 0.112772 -0.917986
vn 0.380242 0.112772 -0.917986
vn 0.380242 0.112772 -0.917986
vn 0.380242 0.112772 -0.917986
vn 0.917986 0.112772 0.380242
vn 0.917986 0.112772 0.380242
vn 0.917986 0.112772 0.380242
vn 0.917986 0.112772 0.380242
vn -0.917986 0.112772 -0.380242
vn -0.917986 0.112772 -0.380242
vn -0.917986 0.112772 -0.380242
vn -0.917986 0.112772 -0.380242
vn -0.917986 0.112773 0.380242
vn -0.917986 0.112773 0.380242
vn -0.917986 0.112773 0.380242
vn -0.917986 0.112773 0.380242
vn 0.917986 0.112772 -0.380242
vn 0.917986 0.112772 -0.380242
vn 0.917986 0.112772 -0.380242
vn 0.917986 0.112772 -0.380242
vn -0.380242 0.112773 0.917986
vn -0.380242 0.112773 0.917986
vn -0.380242 0.112773 0.917986
vn -0.380242 0.112773 0.917986
vn 0.346155 -0.426374 -0.835693
vn 0.346155 -0.426374 -0.835693
vn 0.346155 -0.426374 -0.835693
vn 0.346155 -0.426374 -0.835693
vn 0.835692 -0.426374 -0.346156
vn 0.835692 -0.426374 -0.346156
vn 0.835692 -0.426374 -0.346156
vn 0.835692 -0.426374 -0.346156
vn 0.835692 -0.426374 0.346156
vn 0.835692 -0.426374 0.346156
vn 0.835692 -0.426374 0.346156
vn 0.835692 -0.426374 0.346156
vn 0.346156 -0.426373 0.835692
vn 0.346156 -0.426373 0.835692
vn 0.346156 -0.426373 0.835692
vn 0.346156 -0.426373 0.835692
vn -0.346155 -0.426373 0.835693
vn -0.346155 -0.426373 0.835693
vn -0.346155 -0.426373 0.835693
vn -0.346155 -0.426373 0.835693
vn -0.835692 -0.426374 0.346156
vn -0.835692 -0.426374 0.346156
vn -0.835692 -0.426374 0.346156
vn -0.835692 -0.426374 0.346156
vn -0.835692 -0.426374 -0.346156
vn -0.835692 -0.426374 -0.346156
vn -0.835692 -0.426374 -0.346156
vn -0.835692 -0.426374 -0.346156
vn -0.346155 -0.426374 -0.835693
vn -0.346155 -0.426374 -0.835693
vn -0.346155 -0.426374 -0.835693
vn -0.346155 -0.426374 -0.835693
vn 0.367306 0.280627 -0.886755
vn 0.367306 0.280627 -0.886755
vn 0.367306 0.280627 -0.886755
vn 0.367306 0.280627 -0.886755
vn -0.382684 0.000000 -0.923880
vn -0.382684 0.000000 -0.923880
vn -0.382684 0.000000 -0.923880
vn -0.382684 0.000000 -0.923880
vn -0.923880 0.000000 -0.382683
vn -0.923880 0.000000 -0.382683
vn -0.923880 0.000000 -0.382683
vn -0.923880 0.000000 -0.382683
vn 0.923880 0.000000 -0.382683
vn 0.923880 0.000000 -0.382683
vn 0.923880 0.000000 -0.382683
vn 0.923880 0.000000 -0.382683
vn 0.923880 0.000000 0.382683
vn 0.923880 0.000000 0.382683
vn 0.923880 0.000000 0.382683
vn 0.923880 0.000000 0.382683
vn 0.382684 0.000000 0.923880
vn 0.382684 0.000000 0.923880
vn 0.382684 0.000000 0.923880
vn 0.382684 0.000000 0.923880
vn -0.382684 0.000000 0.923880
vn -0.382684 0.000000 0.923880
vn -0.382684 0.000000 0.923880
vn -0.382684 0.000000 0.923880
vn -0.923880 0.000000 0.382683
vn -0.923880 0.000000 0.382683
vn -0.923880 0.000000 0.382683
vn -0.923880 0.000000 0.382683
vn 0.382684 0.000000 -0.923880
vn 0.382684 0.000000 -0.923880
vn 0.382684 0.000000 -0.923880
vn 0.382684 0.000000 -0.923880
vn -0.382684 0.000000 -0.923880
vn -0.382684 0.000000 -0.923880
vn -0.382684 0.000000 -0.923880
vn -0.382684 0.000000 -0.923880
vn -0.923880 0.000000 -0.382683
vn -0.923880 0.000000 -0.382683
vn -0.923880 0.000000 -0.382683
vn -0.923880 0.000000 -0.382683
vn 0.923880 0.000000 -0.382683
vn 0.923880 0.000000 -0.382683
vn 0.923880 0.000000 -0.382683
vn 0.923880 0.000000 -0.382683
vn 0.923880 0.000000 0.382683
vn 0.923880 0.000000 0.382683
vn 0.923880 0.000000 0.382683
vn 0.923880 0.000000 0.382683
vn 0.382684 0.000000 0.923880
vn 0.382684 0.000000 0.923880
vn 0.382684 0.000000 0.923880
vn 0.382684 0.000000 0.923880
vn -0.382683 0.000000 0.923880
vn -0.382683 0.000000 0.923880
vn -0.382683 0.000000 0.923880
vn -0.382683 0.000000 0.923880
vn -0.923880 0.000000 0.382683
vn -0.923880 0.000000 0.382683
vn -0.923880 0.000000 0.382683
vn -0.923880 0.000000 0.382683
vn 0.382684 0.000000 -0.923880
vn 0.382684 0.000000 -0.923880
vn 0.382684 0.000000 -0.923880
vn 0.382684 0.000000 -0.923880
vn 0.016928 -0.999021 -0.040867
vn -0.016928 -0.999021 -0.040867
vn -0.016928 -0.999021 -0.040867
vn 0.016928 -0.999021 -0.040867
vn -0.040867 -0.999021 0.016928
vn 0.040867 -0.999021 -0.016928
vn -0.040867 -0.999021 0.016928
vn 0.040867 -0.999021 -0.016928
vn -0.016928 -0.999021 0.040867
vn 0.040867 -0.999021 0.016928
vn -0.016928 -0.999021 0.040867
vn 0.040867 -0.999021 0.016928
vn -0.016928 -0.999021 0.040867
vn 0.016928 -0.999021 0.040867
vn -0.016928 -0.999021 0.040867
vn 0.016928 -0.999021 0.040867
vn -0.016928 0.999021 -0.040867
vn -0.016928 0.999021 -0.040867
vn 0.016927 0.999021 -0.040867
vn 0.016927 0.999021 -0.040867
vn -0.040866 0.999021 0.016927
vn 0.016927 0.999021 -0.040867
vn -0.040866 0.999021 0.016927
vn 0.016927 0.999021 -0.040867
vn -0.040866 0.999021 0.016927
vn 0.040867 0.999021 0.016927
vn -0.040866 0.999021 0.016927
vn 0.040867 0.999021 0.016927
vn -0.016928 0.999021 0.040867
vn 0.016928 0.999021 0.040867
vn -0.016928 0.999021 0.040867
vn 0.016928 0.999021 0.040867
vn -0.000001 1.000000 0.000000
vn 0.000000 1.000000 0.000000
vn 0.000000 1.000000 0.000000
vn -0.000001 1.000000 0.000000
vn -0.000001 1.000000 0.000000
vn -0.000001 1.000000 0.000000
vn -0.000001 1.000000 0.000000
vn -0.000001 1.000000 0.000000
vn -0.000001 1.000000 0.000000
vn 0.000000 1.000000 0.000000
vn -0.000001 1.000000 0.000000
vn 0.000000 1.000000 0.000000
vn 0.000000 1.000000 0.000000
vn 0.000000 1.000000 0.000000
vn 0.000000 1.000000 0.000000
vn 0.000000 1.000000 0.000000
vn 0.000000 -1.000000 0.000000
vn 0.000004 -1.000000 0.000000
vn 0.000004 -1.000000 0.000000
vn 0.000000 -1.000000 0.000000
vn 0.000000 -1.000000 0.000000
vn 0.000000 -1.000000 0.000000
vn 0.000000 -1.000000 0.000000
vn 0.000000 -1.000000 0.000000
vn 0.000000 -1.000000 0.000000
vn -0.000002 -1.000000 0.000000
vn 0.000000 -1.000000 0.000000
vn -0.000002 -1.000000 0.000000
vn 0.000000 -1.000000 0.000000
vn -0.000002 -1.000000 0.000000
vn 0.000000 -1.000000 0.000000
vn -0.000002 -1.000000 0.000000
g KetchupBottle_Red
usemtl Red
f 1 2 3
f 1 3 4
f 5 6 7
f 5 7 8
f 9 10 11
f 9 11 12
f 13 14 15
f 13 15 16
f 17 18 19
f 17 19 20
f 21 22 23
f 21 23 24
f 25 26 27
f 25 27 28
f 29 30 31
f 29 31 32
f 33 34 35
f 33 35 36
f 37 38 39
f 37 39 40
f 41 42 43
f 41 43 44
f 45 46 47
f 45 47 48
f 49 50 51
f 49 51 52
f 53 54 55
f 53 55 56
f 57 58 59
f 57 59 60
f 61 62 63
f 61 63 64
f 65 66 67
f 65 67 68
f 69 70 71
f 69 71 72
f 73 74 75
f 75 76 73
f 75 77 76
f 77 78 76
f 78 79 76
f 78 80 79
f 81 82 83
f 81 83 84
f 85 86 87
f 85 87 88
f 89 90 91
f 89 91 92
f 93 94 95
f 93 95 96
f 97 98 99
f 97 99 100
f 101 102 103
f 101 103 104
f 105 106 107
f 105 107 108
f 109 110 111
f 109 111 112
f 113 114 115
f 113 115 116
f 117 118 119
f 117 119 120
f 121 122 123
f 121 123 124
f 125 126 127
f 125 127 128
f 129 130 131
f 129 131 132
f 133 134 135
f 133 135 136
f 137 138 139
f 137 139 140
f 141 142 143
f 141 143 144
f 145 146 147
f 145 147 148
f 149 150 151
f 149 151 152
f 153 154 155
f 153 155 156
f 157 158 159
f 157 159 160
f 161 162 163
f 161 163 164
f 165 166 167
f 165 167 168
f 169 170 171
f 169 171 172
f 173 174 175
f 173 175 176
f 177 178 179
f 177 179 180
f 181 182 183
f 181 183 184
f 185 186 187
f 185 187 188
f 189 190 191
f 189 191 192
f 193 194 195
f 193 195 196
f 197 198 199
f 197 199 200
f 201 202 203
f 203 204 201
f 203 205 204
f 205 206 204
f 205 207 206
f 207 208 206
f 209 210 211
f 209 211 212
f 213 214 215
f 213 215 216
f 217 218 219
f 217 219 220
f 221 222 223
f 221 223 224
f 225 226 227
f 225 227 228
f 229 230 231
f 229 231 232
f 233 234 235
f 233 235 236
f 237 238 239
f 237 239 240
f 241 242 243
f 241 243 244
f 245 246 247
f 245 247 248
f 249 250 251
f 249 251 252
f 253 254 255
f 253 255 256
f 257 258 259
f 257 259 260
f 261 262 263
f 261 263 264
f 265 266 267
f 265 267 268
f 269 270 271
f 269 271 272
f 273 274 275
f 273 275 276
f 277 278 279
f 277 279 280
f 281 282 283
f 281 283 284
f 285 286 287
f 285 287 288
f 289 290 291
f 289 291 292
f 293 294 295
f 293 295 296
f 297 298 299
f 297 299 300
f 301 302 303
f 301 303 304
f 305 306 307
f 305 307 308
f 309 310 311
f 309 311 312
f 313 314 315
f 313 315 316
f 317 318 319
f 317 319 320
f 321 322 323
f 321 323 324
f 325 326 327
f 325 327 328
f 329 330 331
f 329 331 332
f 333 334 335
f 333 335 336
f 337 338 339
f 337 340 338
f 339 338 341
f 342 340 337
f 339 341 343
f 342 344 340
f 343 341 345
f 346 344 342
f 343 345 347
f 346 348 344
f 347 345 349
f 350 348 346
f 347 349 351
f 350 352 348
f 351 349 352
f 351 352 350
f 353 354 355
f 353 355 356
f 357 354 353
f 356 355 358
f 357 359 354
f 356 358 360
f 361 359 357
f 360 358 362
f 361 363 359
f 360 362 364
f 365 363 361
f 364 362 366
f 365 367 363
f 364 366 368
f 368 367 365
f 368 366 367
f 369 370 371
f 369 372 370
f 371 370 373
f 374 372 369
f 371 373 375
f 374 376 372
f 375 373 377
f 378 376 374
f 375 377 379
f 378 380 376
f 379 377 381
f 382 380 378
f 379 381 383
f 382 384 380
f 383 381 384
f 383 384 382
f 385 386 387
f 385 388 386
f 387 386 389
f 390 388 385
f 387 389 391
f 390 392 388
f 391 389 393
f 394 392 390
f 391 393 395
f 394 396 392
f 395 393 397
f 398 396 394
f 395 397 399
f 398 400 396
f 399 397 400
f 399 400 398
