mtllib Materials.mtl
# Ultimate Food Pack - KetchupMustard
o KetchupMustard
v -0.030569 0.000000 -0.649323
v -0.036135 0.020581 -0.647840
v -0.024880 0.024289 -0.616254
v -0.019394 0.000000 -0.617178
v -0.030569 0.000000 -0.649323
v -0.040587 0.000000 -0.664539
v -0.043762 0.016845 -0.659055
v -0.036135 0.020581 -0.647840
v -0.058770 0.000000 -0.665654
v -0.057286 0.016214 -0.660087
v -0.043762 0.016845 -0.659055
v -0.040587 0.000000 -0.664539
v -0.058770 0.000000 -0.665654
v -0.073986 0.000000 -0.655636
v -0.068502 0.008319 -0.652461
v -0.057286 0.016214 -0.660087
v -0.075101 0.000000 -0.637453
v -0.069534 0.010515 -0.638937
v -0.068502 0.008319 -0.652461
v -0.073986 0.000000 -0.655636
v -0.075101 0.000000 -0.637453
v -0.063279 0.000000 -0.609789
v -0.057793 0.018495 -0.610713
v -0.069534 0.010515 -0.638937
v 0.042806 0.024289 -0.540218
v -0.024880 0.024289 -0.616254
v -0.041336 0.026990 -0.613483
v 0.026358 0.030050 -0.540966
v -0.052835 0.019779 -0.643388
v -0.057286 0.016214 -0.660087
v -0.068502 0.008319 -0.652461
v -0.069534 0.010515 -0.638937
v -0.052835 0.019779 -0.643388
v -0.036135 0.020581 -0.647840
v -0.043762 0.016845 -0.659055
v -0.057286 0.016214 -0.660087
v -0.052835 0.019779 -0.643388
v -0.041336 0.026990 -0.613483
v -0.024880 0.024289 -0.616254
v -0.036135 0.020581 -0.647840
v -0.052835 0.019779 -0.643388
v -0.069534 0.010515 -0.638937
v -0.057793 0.018495 -0.610713
v -0.041336 0.026990 -0.613483
v 0.009910 0.024289 -0.541715
v -0.057793 0.018495 -0.610713
v -0.063279 0.000000 -0.609789
v 0.004427 0.000000 -0.541964
v -0.041336 0.026990 -0.613483
v -0.057793 0.018495 -0.610713
v 0.009910 0.024289 -0.541715
v 0.026358 0.030050 -0.540966
v -0.031298 0.000000 -0.375167
v -0.036524 0.017725 -0.374536
v -0.014325 0.019472 -0.285772
v -0.011225 0.000000 -0.289921
v 0.028007 0.030050 -0.505048
v -0.026230 0.030116 -0.421317
v -0.009963 0.024333 -0.417896
v 0.044260 0.024289 -0.500248
v 0.052550 0.000000 -0.061037
v 0.087691 0.000000 -0.152682
v 0.082023 0.010856 -0.152799
v 0.047733 0.024247 -0.063688
v -0.026230 0.030116 -0.421317
v -0.052201 0.014916 -0.372643
v -0.036524 0.017725 -0.374536
v -0.009963 0.024333 -0.417896
v -0.026230 0.030116 -0.421317
v -0.042496 0.023569 -0.424737
v -0.067878 0.003552 -0.370750
v -0.052201 0.014916 -0.372643
v -0.032928 0.018672 -0.260881
v -0.023626 0.023402 -0.273326
v 0.049678 0.000000 -0.498648
v 0.048289 0.000000 -0.539968
v 0.042806 0.024289 -0.540218
v 0.044260 0.024289 -0.500248
v -0.047919 0.000000 -0.425877
v -0.042496 0.023569 -0.424737
v 0.011754 0.024289 -0.509848
v 0.006336 0.000000 -0.511449
v 0.028007 0.030050 -0.505048
v 0.026358 0.030050 -0.540966
v 0.009910 0.024289 -0.541715
v 0.011754 0.024289 -0.509848
v 0.028007 0.030050 -0.505048
v 0.044260 0.024289 -0.500248
v 0.042806 0.024289 -0.540218
v 0.026358 0.030050 -0.540966
v 0.006336 0.000000 -0.511449
v 0.011754 0.024289 -0.509848
v 0.009910 0.024289 -0.541715
v 0.004427 0.000000 -0.541964
v 0.028007 0.030050 -0.505048
v 0.011754 0.024289 -0.509848
v -0.042496 0.023569 -0.424737
v -0.026230 0.030116 -0.421317
v -0.047919 0.000000 -0.425877
v -0.073104 0.000000 -0.370119
v -0.067878 0.003552 -0.370750
v -0.042496 0.023569 -0.424737
v -0.004540 0.000000 -0.416756
v -0.036524 0.017725 -0.374536
v -0.031298 0.000000 -0.375167
v -0.009963 0.024333 -0.417896
v 0.044260 0.024289 -0.500248
v 0.049678 0.000000 -0.498648
v -0.014325 0.019472 -0.285772
v -0.036524 0.017725 -0.374536
v -0.052201 0.014916 -0.372643
v -0.023626 0.023402 -0.273326
v -0.032928 0.018672 -0.260881
v -0.067878 0.003552 -0.370750
v -0.073104 0.000000 -0.370119
v -0.036028 0.000000 -0.256732
v -0.011225 0.000000 -0.289921
v -0.014325 0.019472 -0.285772
v 0.072985 0.010370 -0.201074
v 0.079741 0.000000 -0.199628
v 0.065022 0.014377 -0.153150
v 0.058055 0.018451 -0.196016
v 0.042986 0.018879 -0.191203
v 0.048020 0.013546 -0.153501
v 0.065022 0.014377 -0.153150
v 0.082023 0.010856 -0.152799
v 0.072985 0.010370 -0.201074
v 0.058055 0.018451 -0.196016
v 0.052550 0.000000 -0.061037
v 0.047733 0.024247 -0.063688
v -0.010385 0.024289 0.006754
v -0.005516 0.000000 0.008667
v 0.033284 0.029988 -0.071643
v 0.047733 0.024247 -0.063688
v 0.082023 0.010856 -0.152799
v 0.065022 0.014377 -0.153150
v 0.072985 0.010370 -0.201074
v -0.014325 0.019472 -0.285772
v -0.023626 0.023402 -0.273326
v 0.058055 0.018451 -0.196016
v 0.042986 0.018879 -0.191203
v -0.032928 0.018672 -0.260881
v -0.036028 0.000000 -0.256732
v 0.037736 0.000000 -0.189998
v -0.023626 0.023402 -0.273326
v -0.032928 0.018672 -0.260881
v 0.042986 0.018879 -0.191203
v 0.058055 0.018451 -0.196016
v -0.034427 0.019331 0.042818
v -0.050198 0.018691 0.043704
v -0.039791 0.030050 0.159531
v -0.028282 0.024289 0.147524
v 0.042353 0.000000 -0.153618
v 0.048020 0.013546 -0.153501
v 0.042986 0.018879 -0.191203
v 0.037736 0.000000 -0.189998
v 0.033284 0.029988 -0.071643
v 0.065022 0.014377 -0.153150
v 0.048020 0.013546 -0.153501
v 0.018835 0.024289 -0.079597
v 0.087691 0.000000 -0.152682
v 0.079741 0.000000 -0.199628
v 0.072985 0.010370 -0.201074
v 0.082023 0.010856 -0.152799
v 0.014019 0.000000 -0.082248
v 0.018835 0.024289 -0.079597
v 0.048020 0.013546 -0.153501
v 0.042353 0.000000 -0.153618
v -0.044468 0.000000 -0.006637
v -0.039599 0.024289 -0.004724
v 0.018835 0.024289 -0.079597
v 0.014019 0.000000 -0.082248
v -0.005516 0.000000 0.008667
v -0.010385 0.024289 0.006754
v -0.034427 0.019331 0.042818
v -0.029170 0.000000 0.042523
v 0.064271 0.000000 0.249108
v 0.001477 0.000000 0.178003
v -0.002086 0.017953 0.182530
v 0.059633 0.017953 0.251003
v -0.024992 0.030050 0.001015
v -0.010385 0.024289 0.006754
v 0.047733 0.024247 -0.063688
v 0.033284 0.029988 -0.071643
v -0.024992 0.030050 0.001015
v 0.033284 0.029988 -0.071643
v 0.018835 0.024289 -0.079597
v -0.039599 0.024289 -0.004724
v -0.051301 0.024289 0.171539
v -0.065970 0.009702 0.044591
v -0.071227 0.000000 0.044886
v -0.055137 0.000000 0.175542
v -0.050198 0.018691 0.043704
v -0.065970 0.009702 0.044591
v -0.051301 0.024289 0.171539
v -0.039791 0.030050 0.159531
v -0.024992 0.030050 0.001015
v -0.050198 0.018691 0.043704
v -0.034427 0.019331 0.042818
v -0.010385 0.024289 0.006754
v -0.024992 0.030050 0.001015
v -0.039599 0.024289 -0.004724
v -0.065970 0.009702 0.044591
v -0.050198 0.018691 0.043704
v -0.044468 0.000000 -0.006637
v -0.071227 0.000000 0.044886
v -0.065970 0.009702 0.044591
v -0.039599 0.024289 -0.004724
v -0.029170 0.000000 0.042523
v -0.034427 0.019331 0.042818
v -0.028282 0.024289 0.147524
v -0.024446 0.000000 0.143521
v -0.039558 0.000000 0.442771
v -0.043826 0.016933 0.444961
v -0.007415 0.025332 0.521861
v -0.003297 0.000000 0.517547
v -0.012775 0.023714 0.196111
v 0.045718 0.023714 0.256689
v 0.059633 0.017953 0.251003
v -0.002086 0.017953 0.182530
v 0.045718 0.023714 0.256689
v 0.060766 0.030050 0.290559
v 0.076673 0.024289 0.291830
v 0.059633 0.017953 0.251003
v 0.045718 0.023714 0.256689
v 0.031803 0.017953 0.262375
v 0.044858 0.023909 0.289288
v 0.060766 0.030050 0.290559
v 0.001477 0.000000 0.178003
v -0.024446 0.000000 0.143521
v -0.028282 0.024289 0.147524
v -0.002086 0.017953 0.182530
v 0.027165 0.000000 0.264271
v 0.031803 0.017953 0.262375
v -0.023463 0.017953 0.209692
v -0.027026 0.000000 0.214219
v -0.012775 0.023714 0.196111
v -0.039791 0.030050 0.159531
v -0.051301 0.024289 0.171539
v -0.023463 0.017953 0.209692
v -0.012775 0.023714 0.196111
v -0.002086 0.017953 0.182530
v -0.028282 0.024289 0.147524
v -0.039791 0.030050 0.159531
v -0.027026 0.000000 0.214219
v -0.023463 0.017953 0.209692
v -0.051301 0.024289 0.171539
v -0.055137 0.000000 0.175542
v -0.012775 0.023714 0.196111
v -0.023463 0.017953 0.209692
v 0.031803 0.017953 0.262375
v 0.045718 0.023714 0.256689
v 0.035488 0.000000 0.315384
v 0.040632 0.024289 0.317502
v 0.044858 0.023909 0.289288
v 0.039556 0.000000 0.288864
v 0.035488 0.000000 0.315384
v 0.017705 0.000000 0.337763
v 0.022040 0.024289 0.341175
v 0.040632 0.024289 0.317502
v 0.027165 0.000000 0.264271
v 0.039556 0.000000 0.288864
v 0.044858 0.023909 0.289288
v 0.031803 0.017953 0.262375
v 0.064271 0.000000 0.249108
v 0.059633 0.017953 0.251003
v 0.076673 0.024289 0.291830
v 0.081976 0.000000 0.292254
v 0.076646 0.000000 0.332328
v 0.081976 0.000000 0.292254
v 0.076673 0.024289 0.291830
v 0.071501 0.024289 0.330210
v 0.076646 0.000000 0.332328
v 0.071501 0.024289 0.330210
v 0.048052 0.024289 0.361644
v 0.052387 0.000000 0.365056
v 0.056067 0.030050 0.323856
v 0.060766 0.030050 0.290559
v 0.044858 0.023909 0.289288
v 0.040632 0.024289 0.317502
v 0.056067 0.030050 0.323856
v 0.071501 0.024289 0.330210
v 0.076673 0.024289 0.291830
v 0.060766 0.030050 0.290559
v 0.056067 0.030050 0.323856
v 0.035046 0.030050 0.351410
v 0.048052 0.024289 0.361644
v 0.071501 0.024289 0.330210
v 0.056067 0.030050 0.323856
v 0.040632 0.024289 0.317502
v 0.022040 0.024289 0.341175
v 0.035046 0.030050 0.351410
v -0.052450 0.029025 0.414381
v -0.032450 0.030050 0.385225
v -0.039397 0.024289 0.372556
v -0.062032 0.023444 0.410645
v -0.052450 0.029025 0.414381
v -0.042868 0.024118 0.418117
v -0.025502 0.024289 0.397894
v -0.032450 0.030050 0.385225
v -0.052450 0.029025 0.414381
v -0.056628 0.015491 0.451531
v -0.043826 0.016933 0.444961
v -0.042868 0.024118 0.418117
v -0.052450 0.029025 0.414381
v -0.062032 0.023444 0.410645
v -0.069431 0.006189 0.458101
v -0.056628 0.015491 0.451531
v 0.013305 0.000000 0.386167
v 0.052387 0.000000 0.365056
v 0.048052 0.024289 0.361644
v 0.010260 0.024289 0.381638
v 0.013305 0.000000 0.386167
v 0.010260 0.024289 0.381638
v -0.025502 0.024289 0.397894
v -0.023187 0.000000 0.402117
v 0.001128 0.030050 0.368050
v 0.035046 0.030050 0.351410
v 0.022040 0.024289 0.341175
v -0.008005 0.024289 0.354462
v -0.039397 0.024289 0.372556
v -0.032450 0.030050 0.385225
v 0.001128 0.030050 0.368050
v 0.048052 0.024289 0.361644
v 0.035046 0.030050 0.351410
v 0.010260 0.024289 0.381638
v -0.025502 0.024289 0.397894
v -0.032450 0.030050 0.385225
v -0.011049 0.000000 0.349933
v -0.008005 0.024289 0.354462
v 0.022040 0.024289 0.341175
v 0.017705 0.000000 0.337763
v -0.011049 0.000000 0.349933
v -0.041713 0.000000 0.368333
v -0.039397 0.024289 0.372556
v -0.008005 0.024289 0.354462
v -0.065226 0.000000 0.409400
v -0.062032 0.023444 0.410645
v -0.039397 0.024289 0.372556
v -0.041713 0.000000 0.368333
v -0.065226 0.000000 0.409400
v -0.073699 0.000000 0.460291
v -0.069431 0.006189 0.458101
v -0.062032 0.023444 0.410645
v -0.039674 0.000000 0.419362
v -0.023187 0.000000 0.402117
v -0.025502 0.024289 0.397894
v -0.042868 0.024118 0.418117
v -0.039674 0.000000 0.419362
v -0.042868 0.024118 0.418117
v -0.043826 0.016933 0.444961
v -0.039558 0.000000 0.442771
v -0.007415 0.025332 0.521861
v -0.043826 0.016933 0.444961
v -0.056628 0.015491 0.451531
v -0.019770 0.030983 0.534803
v -0.032125 0.025055 0.547745
v -0.069431 0.006189 0.458101
v -0.073699 0.000000 0.460291
v -0.036244 0.000000 0.552059
v -0.056628 0.015491 0.451531
v -0.069431 0.006189 0.458101
v -0.032125 0.025055 0.547745
v -0.019770 0.030983 0.534803
v 0.026439 0.000000 0.613836
v 0.020656 0.031243 0.604086
v 0.001738 0.024136 0.604950
v -0.000592 0.000000 0.614992
v 0.026439 0.000000 0.613836
v 0.041905 0.000000 0.593180
v 0.030580 0.024136 0.588058
v 0.020656 0.031243 0.604086
v 0.025706 0.000000 0.558644
v -0.003297 0.000000 0.517547
v -0.007415 0.025332 0.521861
v 0.020106 0.028462 0.562693
v 0.025706 0.000000 0.558644
v 0.020106 0.028462 0.562693
v 0.030580 0.024136 0.588058
v 0.041905 0.000000 0.593180
v 0.003308 0.035613 0.574839
v -0.019770 0.030983 0.534803
v -0.032125 0.025055 0.547745
v -0.013490 0.028462 0.586986
v 0.003308 0.035613 0.574839
v 0.020106 0.028462 0.562693
v -0.007415 0.025332 0.521861
v -0.019770 0.030983 0.534803
v 0.003308 0.035613 0.574839
v 0.020656 0.031243 0.604086
v 0.030580 0.024136 0.588058
v 0.020106 0.028462 0.562693
v 0.003308 0.035613 0.574839
v -0.013490 0.028462 0.586986
v 0.001738 0.024136 0.604950
v 0.020656 0.031243 0.604086
v -0.019090 0.000000 0.591035
v -0.013490 0.028462 0.586986
v -0.032125 0.025055 0.547745
v -0.036244 0.000000 0.552059
v -0.019090 0.000000 0.591035
v -0.000592 0.000000 0.614992
v 0.001738 0.024136 0.604950
v -0.013490 0.028462 0.586986
v -0.019394 0.000000 -0.617178
v -0.024880 0.024289 -0.616254
v 0.042806 0.024289 -0.540218
v 0.048289 0.000000 -0.539968
v -0.030569 0.000000 -0.649323
v -0.019394 0.000000 -0.617178
v -0.024880 -0.024289 -0.616254
v -0.036135 -0.020581 -0.647840
v -0.030569 0.000000 -0.649323
v -0.036135 -0.020581 -0.647840
v -0.043762 -0.016845 -0.659055
v -0.040587 0.000000 -0.664539
v -0.058770 0.000000 -0.665654
v -0.040587 0.000000 -0.664539
v -0.043762 -0.016845 -0.659055
v -0.057286 -0.016214 -0.660087
v -0.058770 0.000000 -0.665654
v -0.057286 -0.016214 -0.660087
v -0.068502 -0.008319 -0.652461
v -0.073986 0.000000 -0.655636
v -0.075101 0.000000 -0.637453
v -0.073986 0.000000 -0.655636
v -0.068502 -0.008319 -0.652461
v -0.069534 -0.010516 -0.638937
v -0.075101 0.000000 -0.637453
v -0.069534 -0.010516 -0.638937
v -0.057793 -0.018495 -0.610713
v -0.063279 0.000000 -0.609789
v 0.042806 -0.024289 -0.540218
v 0.026358 -0.030050 -0.540966
v -0.041336 -0.026990 -0.613483
v -0.024880 -0.024289 -0.616254
v -0.052835 -0.019779 -0.643388
v -0.069534 -0.010516 -0.638937
v -0.068502 -0.008319 -0.652461
v -0.057286 -0.016214 -0.660087
v -0.052835 -0.019779 -0.643388
v -0.057286 -0.016214 -0.660087
v -0.043762 -0.016845 -0.659055
v -0.036135 -0.020581 -0.647840
v -0.052835 -0.019779 -0.643388
v -0.036135 -0.020581 -0.647840
v -0.024880 -0.024289 -0.616254
v -0.041336 -0.026990 -0.613483
v -0.052835 -0.019779 -0.643388
v -0.041336 -0.026990 -0.613483
v -0.057793 -0.018495 -0.610713
v -0.069534 -0.010516 -0.638937
v 0.009910 -0.024289 -0.541715
v 0.004427 0.000000 -0.541964
v -0.063279 0.000000 -0.609789
v -0.057793 -0.018495 -0.610713
v -0.041336 -0.026990 -0.613483
v 0.026358 -0.030050 -0.540966
v 0.009910 -0.024289 -0.541715
v -0.057793 -0.018495 -0.610713
v -0.031298 0.000000 -0.375167
v -0.011225 0.000000 -0.289921
v -0.014325 -0.019472 -0.285772
v -0.036524 -0.017725 -0.374536
v 0.028007 -0.030050 -0.505048
v 0.044260 -0.024289 -0.500248
v -0.009963 -0.024333 -0.417896
v -0.026230 -0.030116 -0.421317
v 0.052550 0.000000 -0.061037
v 0.047733 -0.024247 -0.063688
v 0.082023 -0.010856 -0.152799
v 0.087691 0.000000 -0.152682
v -0.026230 -0.030116 -0.421317
v -0.009963 -0.024333 -0.417896
v -0.036524 -0.017725 -0.374536
v -0.052201 -0.014916 -0.372643
v -0.026230 -0.030116 -0.421317
v -0.067878 -0.003552 -0.370750
v -0.042496 -0.023569 -0.424737
v -0.052201 -0.014916 -0.372643
v -0.032928 -0.018672 -0.260881
v -0.023626 -0.023402 -0.273326
v 0.049678 0.000000 -0.498648
v 0.044260 -0.024289 -0.500248
v 0.042806 -0.024289 -0.540218
v 0.048289 0.000000 -0.539968
v -0.047919 0.000000 -0.425877
v 0.006336 0.000000 -0.511449
v 0.011754 -0.024289 -0.509848
v -0.042496 -0.023569 -0.424737
v 0.028007 -0.030050 -0.505048
v 0.011754 -0.024289 -0.509848
v 0.009910 -0.024289 -0.541715
v 0.026358 -0.030050 -0.540966
v 0.028007 -0.030050 -0.505048
v 0.026358 -0.030050 -0.540966
v 0.042806 -0.024289 -0.540218
v 0.044260 -0.024289 -0.500248
v 0.006336 0.000000 -0.511449
v 0.004427 0.000000 -0.541964
v 0.009910 -0.024289 -0.541715
v 0.011754 -0.024289 -0.509848
v 0.028007 -0.030050 -0.505048
v -0.026230 -0.030116 -0.421317
v -0.042496 -0.023569 -0.424737
v 0.011754 -0.024289 -0.509848
v -0.047919 0.000000 -0.425877
v -0.042496 -0.023569 -0.424737
v -0.067878 -0.003552 -0.370750
v -0.073104 0.000000 -0.370119
v -0.004540 0.000000 -0.416756
v -0.031298 0.000000 -0.375167
v -0.036524 -0.017725 -0.374536
v -0.009963 -0.024333 -0.417896
v 0.044260 -0.024289 -0.500248
v 0.049678 0.000000 -0.498648
v -0.014325 -0.019472 -0.285772
v -0.023626 -0.023402 -0.273326
v -0.052201 -0.014916 -0.372643
v -0.036524 -0.017725 -0.374536
v -0.032928 -0.018672 -0.260881
v -0.036028 0.000000 -0.256732
v -0.073104 0.000000 -0.370119
v -0.067878 -0.003552 -0.370750
v -0.011225 0.000000 -0.289921
v 0.079741 0.000000 -0.199628
v 0.072985 -0.010370 -0.201074
v -0.014325 -0.019472 -0.285772
v 0.065022 -0.014377 -0.153150
v 0.048020 -0.013546 -0.153501
v 0.042986 -0.018879 -0.191203
v 0.058055 -0.018451 -0.196016
v 0.065022 -0.014377 -0.153150
v 0.058055 -0.018451 -0.196016
v 0.072985 -0.010370 -0.201074
v 0.082023 -0.010856 -0.152799
v 0.052550 0.000000 -0.061037
v -0.005516 0.000000 0.008667
v -0.010385 -0.024289 0.006754
v 0.047733 -0.024247 -0.063688
v 0.033284 -0.029988 -0.071643
v 0.065022 -0.014377 -0.153150
v 0.082023 -0.010856 -0.152799
v 0.047733 -0.024247 -0.063688
v 0.072985 -0.010370 -0.201074
v 0.058055 -0.018451 -0.196016
v -0.023626 -0.023402 -0.273326
v -0.014325 -0.019472 -0.285772
v 0.042986 -0.018879 -0.191203
v 0.037736 0.000000 -0.189998
v -0.036028 0.000000 -0.256732
v -0.032928 -0.018672 -0.260881
v -0.023626 -0.023402 -0.273326
v 0.058055 -0.018451 -0.196016
v 0.042986 -0.018879 -0.191203
v -0.032928 -0.018672 -0.260881
v -0.034427 -0.019331 0.042818
v -0.028282 -0.024289 0.147524
v -0.039791 -0.030050 0.159531
v -0.050198 -0.018691 0.043704
v 0.042353 0.000000 -0.153618
v 0.037736 0.000000 -0.189998
v 0.042986 -0.018879 -0.191203
v 0.048020 -0.013546 -0.153501
v 0.033284 -0.029988 -0.071643
v 0.018835 -0.024289 -0.079597
v 0.048020 -0.013546 -0.153501
v 0.065022 -0.014377 -0.153150
v 0.087691 0.000000 -0.152682
v 0.082023 -0.010856 -0.152799
v 0.072985 -0.010370 -0.201074
v 0.079741 0.000000 -0.199628
v 0.014019 0.000000 -0.082248
v 0.042353 0.000000 -0.153618
v 0.048020 -0.013546 -0.153501
v 0.018835 -0.024289 -0.079597
v -0.044468 0.000000 -0.006637
v 0.014019 0.000000 -0.082248
v 0.018835 -0.024289 -0.079597
v -0.039599 -0.024289 -0.004724
v -0.005516 0.000000 0.008667
v -0.029170 0.000000 0.042523
v -0.034427 -0.019331 0.042818
v -0.010385 -0.024289 0.006754
v 0.064271 0.000000 0.249108
v 0.059633 -0.017953 0.251003
v -0.002086 -0.017953 0.182530
v 0.001477 0.000000 0.178003
v -0.024992 -0.030050 0.001015
v 0.033284 -0.029988 -0.071643
v 0.047733 -0.024247 -0.063688
v -0.010385 -0.024289 0.006754
v -0.024992 -0.030050 0.001015
v -0.039599 -0.024289 -0.004724
v 0.018835 -0.024289 -0.079597
v 0.033284 -0.029988 -0.071643
v -0.051301 -0.024289 0.171539
v -0.055137 0.000000 0.175542
v -0.071227 0.000000 0.044886
v -0.065970 -0.009701 0.044591
v -0.050198 -0.018691 0.043704
v -0.039791 -0.030050 0.159531
v -0.051301 -0.024289 0.171539
v -0.065970 -0.009701 0.044591
v -0.024992 -0.030050 0.001015
v -0.010385 -0.024289 0.006754
v -0.034427 -0.019331 0.042818
v -0.050198 -0.018691 0.043704
v -0.024992 -0.030050 0.001015
v -0.050198 -0.018691 0.043704
v -0.065970 -0.009701 0.044591
v -0.039599 -0.024289 -0.004724
v -0.044468 0.000000 -0.006637
v -0.039599 -0.024289 -0.004724
v -0.065970 -0.009701 0.044591
v -0.071227 0.000000 0.044886
v -0.029170 0.000000 0.042523
v -0.024446 0.000000 0.143521
v -0.028282 -0.024289 0.147524
v -0.034427 -0.019331 0.042818
v -0.039558 0.000000 0.442771
v -0.003297 0.000000 0.517547
v -0.007415 -0.025332 0.521861
v -0.043826 -0.016933 0.444961
v -0.012775 -0.023714 0.196111
v -0.002086 -0.017953 0.182530
v 0.059633 -0.017953 0.251003
v 0.045718 -0.023714 0.256689
v 0.045718 -0.023714 0.256689
v 0.059633 -0.017953 0.251003
v 0.076673 -0.024289 0.291830
v 0.060766 -0.030050 0.290559
v 0.045718 -0.023714 0.256689
v 0.060766 -0.030050 0.290559
v 0.044858 -0.023909 0.289288
v 0.031803 -0.017953 0.262375
v 0.001477 0.000000 0.178003
v -0.002086 -0.017953 0.182530
v -0.028282 -0.024289 0.147524
v -0.024446 0.000000 0.143521
v 0.027165 0.000000 0.264271
v -0.027026 0.000000 0.214219
v -0.023463 -0.017953 0.209692
v 0.031803 -0.017953 0.262375
v -0.012775 -0.023714 0.196111
v -0.023463 -0.017953 0.209692
v -0.051301 -0.024289 0.171539
v -0.039791 -0.030050 0.159531
v -0.012775 -0.023714 0.196111
v -0.039791 -0.030050 0.159531
v -0.028282 -0.024289 0.147524
v -0.002086 -0.017953 0.182530
v -0.027026 0.000000 0.214219
v -0.055137 0.000000 0.175542
v -0.051301 -0.024289 0.171539
v -0.023463 -0.017953 0.209692
v -0.012775 -0.023714 0.196111
v 0.045718 -0.023714 0.256689
v 0.031803 -0.017953 0.262375
v -0.023463 -0.017953 0.209692
v 0.035488 0.000000 0.315384
v 0.039556 0.000000 0.288864
v 0.044858 -0.023909 0.289288
v 0.040632 -0.024289 0.317502
v 0.035488 0.000000 0.315384
v 0.040632 -0.024289 0.317502
v 0.022040 -0.024289 0.341175
v 0.017705 0.000000 0.337763
v 0.027165 0.000000 0.264271
v 0.031803 -0.017953 0.262375
v 0.044858 -0.023909 0.289288
v 0.039556 0.000000 0.288864
v 0.064271 0.000000 0.249108
v 0.081976 0.000000 0.292254
v 0.076673 -0.024289 0.291830
v 0.059633 -0.017953 0.251003
v 0.076646 0.000000 0.332328
v 0.071501 -0.024289 0.330210
v 0.076673 -0.024289 0.291830
v 0.081976 0.000000 0.292254
v 0.076646 0.000000 0.332328
v 0.052387 0.000000 0.365056
v 0.048052 -0.024289 0.361644
v 0.071501 -0.024289 0.330210
v 0.056067 -0.030050 0.323856
v 0.040632 -0.024289 0.317502
v 0.044858 -0.023909 0.289288
v 0.060766 -0.030050 0.290559
v 0.056067 -0.030050 0.323856
v 0.060766 -0.030050 0.290559
v 0.076673 -0.024289 0.291830
v 0.071501 -0.024289 0.330210
v 0.056067 -0.030050 0.323856
v 0.071501 -0.024289 0.330210
v 0.048052 -0.024289 0.361644
v 0.035046 -0.030050 0.351410
v 0.056067 -0.030050 0.323856
v 0.035046 -0.030050 0.351410
v 0.022040 -0.024289 0.341175
v 0.040632 -0.024289 0.317502
v -0.052450 -0.029025 0.414381
v -0.062032 -0.023444 0.410645
v -0.039397 -0.024289 0.372556
v -0.032450 -0.030050 0.385225
v -0.052450 -0.029025 0.414381
v -0.032450 -0.030050 0.385225
v -0.025502 -0.024289 0.397894
v -0.042868 -0.024118 0.418117
v -0.052450 -0.029025 0.414381
v -0.042868 -0.024118 0.418117
v -0.043826 -0.016933 0.444961
v -0.056628 -0.015491 0.451531
v -0.052450 -0.029025 0.414381
v -0.056628 -0.015491 0.451531
v -0.069431 -0.006189 0.458101
v -0.062032 -0.023444 0.410645
v 0.013305 0.000000 0.386167
v 0.010260 -0.024289 0.381638
v 0.048052 -0.024289 0.361644
v 0.052387 0.000000 0.365056
v 0.013305 0.000000 0.386167
v -0.023187 0.000000 0.402117
v -0.025502 -0.024289 0.397894
v 0.010260 -0.024289 0.381638
v 0.001128 -0.030050 0.368050
v 0.022040 -0.024289 0.341175
v 0.035046 -0.030050 0.351410
v -0.008005 -0.024289 0.354462
v -0.039397 -0.024289 0.372556
v -0.032450 -0.030050 0.385225
v 0.001128 -0.030050 0.368050
v 0.035046 -0.030050 0.351410
v 0.048052 -0.024289 0.361644
v 0.010260 -0.024289 0.381638
v -0.025502 -0.024289 0.397894
v -0.032450 -0.030050 0.385225
v -0.011049 0.000000 0.349933
v 0.017705 0.000000 0.337763
v 0.022040 -0.024289 0.341175
v -0.008005 -0.024289 0.354462
v -0.011049 0.000000 0.349933
v -0.008005 -0.024289 0.354462
v -0.039397 -0.024289 0.372556
v -0.041713 0.000000 0.368333
v -0.065226 0.000000 0.409400
v -0.041713 0.000000 0.368333
v -0.039397 -0.024289 0.372556
v -0.062032 -0.023444 0.410645
v -0.065226 0.000000 0.409400
v -0.062032 -0.023444 0.410645
v -0.069431 -0.006189 0.458101
v -0.073699 0.000000 0.460291
v -0.039674 0.000000 0.419362
v -0.042868 -0.024118 0.418117
v -0.025502 -0.024289 0.397894
v -0.023187 0.000000 0.402117
v -0.039674 0.000000 0.419362
v -0.039558 0.000000 0.442771
v -0.043826 -0.016933 0.444961
v -0.042868 -0.024118 0.418117
v -0.007415 -0.025332 0.521861
v -0.019770 -0.030983 0.534803
v -0.056628 -0.015491 0.451531
v -0.043826 -0.016933 0.444961
v -0.032125 -0.025055 0.547745
v -0.036244 0.000000 0.552059
v -0.073699 0.000000 0.460291
v -0.069431 -0.006189 0.458101
v -0.056628 -0.015491 0.451531
v -0.019770 -0.030983 0.534803
v -0.032125 -0.025055 0.547745
v -0.069431 -0.006189 0.458101
v 0.026439 0.000000 0.613836
v -0.000592 0.000000 0.614992
v 0.001738 -0.024135 0.604950
v 0.020656 -0.031243 0.604086
v 0.026439 0.000000 0.613836
v 0.020656 -0.031243 0.604086
v 0.030580 -0.024135 0.588058
v 0.041905 0.000000 0.593180
v 0.025706 0.000000 0.558644
v 0.020106 -0.028462 0.562693
v -0.007415 -0.025332 0.521861
v -0.003297 0.000000 0.517547
v 0.025706 0.000000 0.558644
v 0.041905 0.000000 0.593180
v 0.030580 -0.024135 0.588058
v 0.020106 -0.028462 0.562693
v 0.003308 -0.035613 0.574839
v -0.013490 -0.028462 0.586986
v -0.032125 -0.025055 0.547745
v -0.019770 -0.030983 0.534803
v 0.003308 -0.035613 0.574839
v -0.019770 -0.030983 0.534803
v -0.007415 -0.025332 0.521861
v 0.020106 -0.028462 0.562693
v 0.003308 -0.035613 0.574839
v 0.020106 -0.028462 0.562693
v 0.030580 -0.024135 0.588058
v 0.020656 -0.031243 0.604086
v 0.003308 -0.035613 0.574839
v 0.020656 -0.031243 0.604086
v 0.001738 -0.024135 0.604950
v -0.013490 -0.028462 0.586986
v -0.019090 0.000000 0.591035
v -0.036244 0.000000 0.552059
v -0.032125 -0.025055 0.547745
v -0.013490 -0.028462 0.586986
v -0.019090 0.000000 0.591035
v -0.013490 -0.028462 0.586986
v 0.001738 -0.024135 0.604950
v -0.000592 0.000000 0.614992
v -0.019394 0.000000 -0.617178
v 0.048289 0.000000 -0.539968
v 0.042806 -0.024289 -0.540218
v -0.024880 -0.024289 -0.616254
v 0.055618 0.000000 0.544541
v 0.049859 0.031281 0.544397
v 0.045059 0.027545 0.557083
v 0.049426 0.000000 0.561674
v 0.032005 0.000000 0.567000
v 0.049426 0.000000 0.561674
v 0.045059 0.027545 0.557083
v 0.032149 0.026914 0.561241
v 0.032005 0.000000 0.567000
v 0.032149 0.026914 0.561241
v 0.019464 0.019020 0.556441
v 0.014872 0.000000 0.560808
v 0.009546 0.000000 0.543387
v 0.014872 0.000000 0.560808
v 0.019464 0.019020 0.556441
v 0.015305 0.021216 0.543531
v 0.049859 0.031281 0.544397
v 0.055618 0.000000 0.544541
v 0.064700 0.000000 0.448036
v 0.059283 0.024289 0.449636
v 0.032582 0.030480 0.543964
v 0.015305 0.021216 0.543531
v 0.019464 0.019020 0.556441
v 0.032149 0.026914 0.561241
v 0.032582 0.030480 0.543964
v 0.032149 0.026914 0.561241
v 0.045059 0.027545 0.557083
v 0.049859 0.031281 0.544397
v -0.016275 0.000000 0.324555
v 0.003798 0.000000 0.239309
v 0.000697 0.025400 0.235160
v -0.021501 0.017725 0.323924
v 0.043029 0.030050 0.454436
v 0.059283 0.024289 0.449636
v 0.005060 0.033250 0.367285
v -0.011207 0.039033 0.370705
v 0.067572 0.000000 0.010425
v 0.062756 0.024247 0.013077
v 0.060458 0.009805 0.101587
v 0.066126 0.000000 0.101470
v -0.011207 0.039033 0.370705
v 0.005060 0.033250 0.367285
v -0.021501 0.017725 0.323924
v -0.037178 0.019166 0.322031
v -0.011207 0.039033 0.370705
v -0.037178 0.019166 0.322031
v -0.052856 0.013672 0.320138
v -0.027474 0.032486 0.374125
v 0.015305 0.021216 0.543531
v 0.026776 0.024289 0.459237
v 0.021359 0.000000 0.460837
v 0.009546 0.000000 0.543387
v -0.032896 0.000000 0.375265
v 0.021359 0.000000 0.460837
v 0.026776 0.024289 0.459237
v -0.027474 0.032486 0.374125
v 0.032582 0.030480 0.543964
v 0.049859 0.031281 0.544397
v 0.059283 0.024289 0.449636
v 0.043029 0.030050 0.454436
v 0.015305 0.021216 0.543531
v 0.032582 0.030480 0.543964
v 0.043029 0.030050 0.454436
v 0.026776 0.024289 0.459237
v 0.043029 0.030050 0.454436
v -0.011207 0.039033 0.370705
v -0.027474 0.032486 0.374125
v 0.026776 0.024289 0.459237
v -0.032896 0.000000 0.375265
v -0.027474 0.032486 0.374125
v -0.052856 0.013672 0.320138
v -0.058082 0.000000 0.319508
v 0.010482 0.000000 0.366144
v -0.016275 0.000000 0.324555
v -0.021501 0.017725 0.323924
v 0.005060 0.033250 0.367285
v 0.059283 0.024289 0.449636
v 0.064700 0.000000 0.448036
v 0.000697 0.025400 0.235160
v -0.008604 0.029329 0.222715
v -0.037178 0.019166 0.322031
v -0.021501 0.017725 0.323924
v -0.017906 0.024600 0.210269
v -0.021006 0.000000 0.206120
v -0.058082 0.000000 0.319508
v -0.052856 0.013672 0.320138
v -0.037178 0.019166 0.322031
v -0.008604 0.029329 0.222715
v -0.017906 0.024600 0.210269
v -0.052856 0.013672 0.320138
v 0.003798 0.000000 0.239309
v 0.058176 0.000000 0.148417
v 0.052925 0.019289 0.147213
v 0.000697 0.025400 0.235160
v 0.043457 0.022296 0.101938
v 0.026455 0.024718 0.102289
v 0.021422 0.030051 0.139990
v 0.037173 0.028601 0.143602
v 0.043457 0.022296 0.101938
v 0.037173 0.028601 0.143602
v 0.052925 0.019289 0.147213
v 0.060458 0.009805 0.101587
v 0.067572 0.000000 0.010425
v 0.026167 0.000000 -0.045048
v 0.021298 0.033370 -0.043135
v 0.062756 0.024247 0.013077
v 0.048306 0.029988 0.021031
v 0.043457 0.022296 0.101938
v 0.060458 0.009805 0.101587
v 0.062756 0.024247 0.013077
v 0.052925 0.019289 0.147213
v 0.037173 0.028601 0.143602
v -0.008604 0.029329 0.222715
v 0.000697 0.025400 0.235160
v 0.021422 0.030051 0.139990
v 0.016171 0.000000 0.138787
v -0.021006 0.000000 0.206120
v -0.017906 0.024600 0.210269
v -0.008604 0.029329 0.222715
v 0.037173 0.028601 0.143602
v 0.021422 0.030051 0.139990
v -0.017906 0.024600 0.210269
v -0.007603 0.025813 -0.101066
v -0.013260 0.024289 -0.198135
v -0.024769 0.030050 -0.210143
v -0.023375 0.025173 -0.101952
v 0.020788 0.000000 0.102406
v 0.016171 0.000000 0.138787
v 0.021422 0.030051 0.139990
v 0.026455 0.024718 0.102289
v 0.029041 0.000000 0.031637
v 0.033857 0.024289 0.028985
v 0.048306 0.029988 0.021031
v 0.033857 0.024289 0.028985
v 0.026455 0.024718 0.102289
v 0.043457 0.022296 0.101938
v 0.066126 0.000000 0.101470
v 0.060458 0.009805 0.101587
v 0.052925 0.019289 0.147213
v 0.058176 0.000000 0.148417
v -0.012785 0.000000 -0.029743
v 0.029041 0.000000 0.031637
v 0.033857 0.024289 0.028985
v -0.007916 0.033370 -0.031656
v 0.026167 0.000000 -0.045048
v -0.002346 0.000000 -0.100771
v -0.007603 0.025813 -0.101066
v 0.021298 0.033370 -0.043135
v 0.061564 0.000000 -0.313501
v 0.056560 0.024289 -0.313751
v 0.012936 0.026020 -0.233142
v 0.016499 0.000000 -0.228615
v 0.006691 0.039131 -0.037395
v 0.048306 0.029988 0.021031
v 0.062756 0.024247 0.013077
v 0.021298 0.033370 -0.043135
v 0.006691 0.039131 -0.037395
v -0.007916 0.033370 -0.031656
v 0.033857 0.024289 0.028985
v 0.048306 0.029988 0.021031
v -0.036279 0.024289 -0.222151
v -0.040115 0.000000 -0.226154
v -0.044403 0.000000 -0.103134
v -0.039146 0.016183 -0.102839
v -0.023375 0.025173 -0.101952
v -0.024769 0.030050 -0.210143
v -0.036279 0.024289 -0.222151
v -0.039146 0.016183 -0.102839
v 0.006691 0.039131 -0.037395
v 0.021298 0.033370 -0.043135
v -0.007603 0.025813 -0.101066
v -0.023375 0.025173 -0.101952
v 0.006691 0.039131 -0.037395
v -0.023375 0.025173 -0.101952
v -0.039146 0.016183 -0.102839
v -0.007916 0.033370 -0.031656
v -0.012785 0.000000 -0.029743
v -0.007916 0.033370 -0.031656
v -0.039146 0.016183 -0.102839
v -0.044403 0.000000 -0.103134
v -0.002346 0.000000 -0.100771
v -0.009424 0.000000 -0.194133
v -0.013260 0.024289 -0.198135
v -0.007603 0.025813 -0.101066
v 0.025685 0.000000 -0.399753
v 0.000560 0.000000 -0.478969
v -0.005396 0.047274 -0.479267
v 0.021081 0.039180 -0.398407
v 0.002247 0.031781 -0.246723
v 0.012936 0.026020 -0.233142
v 0.056560 0.024289 -0.313751
v 0.041547 0.030050 -0.314498
v 0.016499 0.000000 -0.228615
v 0.012936 0.026020 -0.233142
v -0.013260 0.024289 -0.198135
v -0.009424 0.000000 -0.194133
v 0.021529 0.000000 -0.315495
v -0.012004 0.000000 -0.264831
v -0.008441 0.026020 -0.260304
v 0.026534 0.024289 -0.315246
v 0.002247 0.031781 -0.246723
v -0.036279 0.024289 -0.222151
v -0.024769 0.030050 -0.210143
v -0.008441 0.026020 -0.260304
v 0.026534 0.024289 -0.315246
v 0.041547 0.030050 -0.314498
v 0.002247 0.031781 -0.246723
v -0.024769 0.030050 -0.210143
v -0.013260 0.024289 -0.198135
v 0.012936 0.026020 -0.233142
v -0.012004 0.000000 -0.264831
v -0.040115 0.000000 -0.226154
v -0.036279 0.024289 -0.222151
v -0.008441 0.026020 -0.260304
v 0.041547 0.030050 -0.314498
v 0.056560 0.024289 -0.313751
v 0.036654 0.027910 -0.378441
v 0.026077 0.029373 -0.367168
v 0.026077 0.029373 -0.367168
v 0.036654 0.027910 -0.378441
v 0.021081 0.039180 -0.398407
v 0.007269 0.042986 -0.394367
v 0.026077 0.029373 -0.367168
v 0.007269 0.042986 -0.394367
v -0.006543 0.038837 -0.390328
v 0.018279 0.023444 -0.356778
v 0.061564 0.000000 -0.313501
v 0.041705 0.000000 -0.382684
v 0.036654 0.027910 -0.378441
v 0.056560 0.024289 -0.313751
v 0.026534 0.024289 -0.315246
v 0.041547 0.030050 -0.314498
v 0.026077 0.029373 -0.367168
v 0.018279 0.023444 -0.356778
v 0.016817 0.000000 -0.353677
v 0.018279 0.023444 -0.356778
v -0.006543 0.038837 -0.390328
v -0.011147 0.000000 -0.388982
v 0.021529 0.000000 -0.315495
v 0.026534 0.024289 -0.315246
v 0.018279 0.023444 -0.356778
v 0.016817 0.000000 -0.353677
v 0.041705 0.000000 -0.382684
v 0.025685 0.000000 -0.399753
v 0.021081 0.039180 -0.398407
v 0.036654 0.027910 -0.378441
v -0.005396 0.047274 -0.479267
v -0.023266 0.052924 -0.480160
v 0.007269 0.042986 -0.394367
v 0.021081 0.039180 -0.398407
v -0.041136 0.046997 -0.481053
v -0.047093 0.000000 -0.481351
v -0.011147 0.000000 -0.388982
v -0.006543 0.038837 -0.390328
v 0.007269 0.042986 -0.394367
v -0.023266 0.052924 -0.480160
v -0.041136 0.046997 -0.481053
v -0.006543 0.038837 -0.390328
v -0.044099 0.000000 -0.569309
v -0.064513 0.000000 -0.551553
v -0.055913 0.024135 -0.545867
v -0.041589 0.031243 -0.558255
v -0.044099 0.000000 -0.569309
v -0.041589 0.031243 -0.558255
v -0.023360 0.024135 -0.553448
v -0.018665 0.000000 -0.564957
v -0.006663 0.000000 -0.528747
v -0.013512 0.028462 -0.527834
v -0.005396 0.047274 -0.479267
v 0.000560 0.000000 -0.478969
v -0.006663 0.000000 -0.528747
v -0.018665 0.000000 -0.564957
v -0.023360 0.024135 -0.553448
v -0.013512 0.028462 -0.527834
v -0.034059 0.035613 -0.525093
v -0.054607 0.028462 -0.522353
v -0.041136 0.046997 -0.481053
v -0.023266 0.052924 -0.480160
v -0.034059 0.035613 -0.525093
v -0.023266 0.052924 -0.480160
v -0.005396 0.047274 -0.479267
v -0.013512 0.028462 -0.527834
v -0.034059 0.035613 -0.525093
v -0.013512 0.028462 -0.527834
v -0.023360 0.024135 -0.553448
v -0.041589 0.031243 -0.558255
v -0.034059 0.035613 -0.525093
v -0.041589 0.031243 -0.558255
v -0.055913 0.024135 -0.545867
v -0.054607 0.028462 -0.522353
v -0.061456 0.000000 -0.521439
v -0.047093 0.000000 -0.481351
v -0.041136 0.046997 -0.481053
v -0.054607 0.028462 -0.522353
v -0.061456 0.000000 -0.521439
v -0.054607 0.028462 -0.522353
v -0.055913 0.024135 -0.545867
v -0.064513 0.000000 -0.551553
v 0.055618 0.000000 0.544541
v 0.049426 0.000000 0.561674
v 0.045059 -0.027545 0.557083
v 0.049859 -0.031281 0.544397
v 0.032005 0.000000 0.567000
v 0.032149 -0.026914 0.561241
v 0.045059 -0.027545 0.557083
v 0.049426 0.000000 0.561674
v 0.032005 0.000000 0.567000
v 0.014872 0.000000 0.560808
v 0.019464 -0.019020 0.556441
v 0.032149 -0.026914 0.561241
v 0.009546 0.000000 0.543387
v 0.015305 -0.021216 0.543531
v 0.019464 -0.019020 0.556441
v 0.014872 0.000000 0.560808
v 0.049859 -0.031281 0.544397
v 0.059283 -0.024289 0.449636
v 0.064700 0.000000 0.448036
v 0.055618 0.000000 0.544541
v 0.032582 -0.030479 0.543964
v 0.032149 -0.026914 0.561241
v 0.019464 -0.019020 0.556441
v 0.015305 -0.021216 0.543531
v 0.032582 -0.030479 0.543964
v 0.049859 -0.031281 0.544397
v 0.045059 -0.027545 0.557083
v 0.032149 -0.026914 0.561241
v -0.016275 0.000000 0.324555
v -0.021501 -0.017725 0.323924
v 0.000697 -0.025400 0.235160
v 0.003798 0.000000 0.239309
v 0.043029 -0.030050 0.454436
v -0.011207 -0.039033 0.370705
v 0.005060 -0.033250 0.367285
v 0.059283 -0.024289 0.449636
v 0.067572 0.000000 0.010425
v 0.066126 0.000000 0.101470
v 0.060458 -0.009805 0.101587
v 0.062756 -0.024247 0.013077
v -0.011207 -0.039033 0.370705
v -0.037178 -0.019166 0.322031
v -0.021501 -0.017725 0.323924
v 0.005060 -0.033250 0.367285
v -0.011207 -0.039033 0.370705
v -0.027474 -0.032486 0.374125
v -0.052856 -0.013672 0.320138
v -0.037178 -0.019166 0.322031
v 0.015305 -0.021216 0.543531
v 0.009546 0.000000 0.543387
v 0.021359 0.000000 0.460837
v 0.026776 -0.024289 0.459237
v -0.032896 0.000000 0.375265
v -0.027474 -0.032486 0.374125
v 0.026776 -0.024289 0.459237
v 0.021359 0.000000 0.460837
v 0.032582 -0.030479 0.543964
v 0.043029 -0.030050 0.454436
v 0.059283 -0.024289 0.449636
v 0.049859 -0.031281 0.544397
v 0.015305 -0.021216 0.543531
v 0.026776 -0.024289 0.459237
v 0.043029 -0.030050 0.454436
v 0.032582 -0.030479 0.543964
v 0.043029 -0.030050 0.454436
v 0.026776 -0.024289 0.459237
v -0.027474 -0.032486 0.374125
v -0.011207 -0.039033 0.370705
v -0.032896 0.000000 0.375265
v -0.058082 0.000000 0.319508
v -0.052856 -0.013672 0.320138
v -0.027474 -0.032486 0.374125
v 0.010482 0.000000 0.366144
v -0.021501 -0.017725 0.323924
v -0.016275 0.000000 0.324555
v 0.005060 -0.033250 0.367285
v 0.059283 -0.024289 0.449636
v 0.064700 0.000000 0.448036
v 0.000697 -0.025400 0.235160
v -0.021501 -0.017725 0.323924
v -0.037178 -0.019166 0.322031
v -0.008604 -0.029329 0.222715
v -0.017906 -0.024600 0.210269
v -0.052856 -0.013672 0.320138
v -0.058082 0.000000 0.319508
v -0.021006 0.000000 0.206120
v -0.037178 -0.019166 0.322031
v -0.052856 -0.013672 0.320138
v -0.017906 -0.024600 0.210269
v -0.008604 -0.029329 0.222715
v 0.003798 0.000000 0.239309
v 0.000697 -0.025400 0.235160
v 0.052925 -0.019289 0.147213
v 0.058176 0.000000 0.148417
v 0.043457 -0.022295 0.101938
v 0.037173 -0.028601 0.143602
v 0.021422 -0.030051 0.139990
v 0.026455 -0.024718 0.102289
v 0.043457 -0.022295 0.101938
v 0.060458 -0.009805 0.101587
v 0.052925 -0.019289 0.147213
v 0.037173 -0.028601 0.143602
v 0.067572 0.000000 0.010425
v 0.062756 -0.024247 0.013077
v 0.021298 -0.033370 -0.043135
v 0.026167 0.000000 -0.045048
v 0.048306 -0.029988 0.021031
v 0.062756 -0.024247 0.013077
v 0.060458 -0.009805 0.101587
v 0.043457 -0.022295 0.101938
v 0.052925 -0.019289 0.147213
v 0.000697 -0.025400 0.235160
v -0.008604 -0.029329 0.222715
v 0.037173 -0.028601 0.143602
v 0.021422 -0.030051 0.139990
v -0.017906 -0.024600 0.210269
v -0.021006 0.000000 0.206120
v 0.016171 0.000000 0.138787
v -0.008604 -0.029329 0.222715
v -0.017906 -0.024600 0.210269
v 0.021422 -0.030051 0.139990
v 0.037173 -0.028601 0.143602
v -0.007603 -0.025813 -0.101066
v -0.023375 -0.025173 -0.101952
v -0.024769 -0.030050 -0.210143
v -0.013260 -0.024289 -0.198135
v 0.020788 0.000000 0.102406
v 0.021422 -0.030051 0.139990
v 0.016171 0.000000 0.138787
v 0.026455 -0.024718 0.102289
v 0.029041 0.000000 0.031637
v 0.033857 -0.024289 0.028985
v 0.048306 -0.029988 0.021031
v 0.043457 -0.022295 0.101938
v 0.026455 -0.024718 0.102289
v 0.033857 -0.024289 0.028985
v 0.066126 0.000000 0.101470
v 0.058176 0.000000 0.148417
v 0.052925 -0.019289 0.147213
v 0.060458 -0.009805 0.101587
v -0.012785 0.000000 -0.029743
v -0.007916 -0.033370 -0.031656
v 0.033857 -0.024289 0.028985
v 0.029041 0.000000 0.031637
v 0.026167 0.000000 -0.045048
v 0.021298 -0.033370 -0.043135
v -0.007603 -0.025813 -0.101066
v -0.002346 0.000000 -0.100771
v 0.061564 0.000000 -0.313501
v 0.016499 0.000000 -0.228615
v 0.012936 -0.026020 -0.233142
v 0.056560 -0.024289 -0.313751
v 0.006691 -0.039131 -0.037395
v 0.021298 -0.033370 -0.043135
v 0.062756 -0.024247 0.013077
v 0.048306 -0.029988 0.021031
v 0.006691 -0.039131 -0.037395
v 0.048306 -0.029988 0.021031
v 0.033857 -0.024289 0.028985
v -0.007916 -0.033370 -0.031656
v -0.036279 -0.024289 -0.222151
v -0.039146 -0.016183 -0.102839
v -0.044403 0.000000 -0.103134
v -0.040115 0.000000 -0.226154
v -0.023375 -0.025173 -0.101952
v -0.039146 -0.016183 -0.102839
v -0.036279 -0.024289 -0.222151
v -0.024769 -0.030050 -0.210143
v 0.006691 -0.039131 -0.037395
v -0.023375 -0.025173 -0.101952
v -0.007603 -0.025813 -0.101066
v 0.021298 -0.033370 -0.043135
v 0.006691 -0.039131 -0.037395
v -0.007916 -0.033370 -0.031656
v -0.039146 -0.016183 -0.102839
v -0.023375 -0.025173 -0.101952
v -0.012785 0.000000 -0.029743
v -0.044403 0.000000 -0.103134
v -0.039146 -0.016183 -0.102839
v -0.007916 -0.033370 -0.031656
v -0.002346 0.000000 -0.100771
v -0.007603 -0.025813 -0.101066
v -0.013260 -0.024289 -0.198135
v -0.009424 0.000000 -0.194133
v 0.025685 0.000000 -0.399753
v 0.021081 -0.039180 -0.398407
v -0.005396 -0.047274 -0.479266
v 0.000560 0.000000 -0.478969
v 0.002247 -0.031781 -0.246723
v 0.041547 -0.030050 -0.314498
v 0.056560 -0.024289 -0.313751
v 0.012936 -0.026020 -0.233142
v 0.016499 0.000000 -0.228615
v -0.009424 0.000000 -0.194133
v -0.013260 -0.024289 -0.198135
v 0.012936 -0.026020 -0.233142
v 0.021529 0.000000 -0.315495
v 0.026534 -0.024289 -0.315246
v -0.008441 -0.026020 -0.260304
v -0.012004 0.000000 -0.264831
v 0.002247 -0.031781 -0.246723
v -0.024769 -0.030050 -0.210143
v -0.036279 -0.024289 -0.222151
v -0.008441 -0.026020 -0.260304
v 0.026534 -0.024289 -0.315246
v 0.041547 -0.030050 -0.314498
v 0.002247 -0.031781 -0.246723
v 0.012936 -0.026020 -0.233142
v -0.013260 -0.024289 -0.198135
v -0.024769 -0.030050 -0.210143
v -0.012004 0.000000 -0.264831
v -0.008441 -0.026020 -0.260304
v -0.036279 -0.024289 -0.222151
v -0.040115 0.000000 -0.226154
v 0.041547 -0.030050 -0.314498
v 0.026077 -0.029373 -0.367168
v 0.036654 -0.027910 -0.378441
v 0.056560 -0.024289 -0.313751
v 0.026077 -0.029373 -0.367168
v 0.007269 -0.042986 -0.394367
v 0.021081 -0.039180 -0.398407
v 0.036654 -0.027910 -0.378441
v 0.026077 -0.029373 -0.367168
v 0.018279 -0.023444 -0.356778
v -0.006543 -0.038837 -0.390328
v 0.007269 -0.042986 -0.394367
v 0.061564 0.000000 -0.313501
v 0.056560 -0.024289 -0.313751
v 0.036654 -0.027910 -0.378441
v 0.041705 0.000000 -0.382684
v 0.026534 -0.024289 -0.315246
v 0.018279 -0.023444 -0.356778
v 0.026077 -0.029373 -0.367168
v 0.041547 -0.030050 -0.314498
v 0.016817 0.000000 -0.353677
v -0.011147 0.000000 -0.388982
v -0.006543 -0.038837 -0.390328
v 0.018279 -0.023444 -0.356778
v 0.021529 0.000000 -0.315495
v 0.016817 0.000000 -0.353677
v 0.018279 -0.023444 -0.356778
v 0.026534 -0.024289 -0.315246
v 0.041705 0.000000 -0.382684
v 0.036654 -0.027910 -0.378441
v 0.021081 -0.039180 -0.398407
v 0.025685 0.000000 -0.399753
v -0.005396 -0.047274 -0.479266
v 0.021081 -0.039180 -0.398407
v 0.007269 -0.042986 -0.394367
v -0.023266 -0.052924 -0.480160
v -0.041136 -0.046997 -0.481053
v -0.006543 -0.038837 -0.390328
v -0.011147 0.000000 -0.388982
v -0.047093 0.000000 -0.481351
v 0.007269 -0.042986 -0.394367
v -0.006543 -0.038837 -0.390328
v -0.041136 -0.046997 -0.481053
v -0.023266 -0.052924 -0.480160
v -0.044099 0.000000 -0.569309
v -0.041589 -0.031243 -0.558255
v -0.055913 -0.024136 -0.545867
v -0.064513 0.000000 -0.551553
v -0.044099 0.000000 -0.569309
v -0.018665 0.000000 -0.564957
v -0.023360 -0.024136 -0.553448
v -0.041589 -0.031243 -0.558255
v -0.006663 0.000000 -0.528747
v 0.000560 0.000000 -0.478969
v -0.005396 -0.047274 -0.479266
v -0.013512 -0.028462 -0.527834
v -0.006663 0.000000 -0.528747
v -0.013512 -0.028462 -0.527834
v -0.023360 -0.024136 -0.553448
v -0.018665 0.000000 -0.564957
v -0.034059 -0.035613 -0.525093
v -0.023266 -0.052924 -0.480160
v -0.041136 -0.046997 -0.481053
v -0.054607 -0.028462 -0.522353
v -0.034059 -0.035613 -0.525093
v -0.013512 -0.028462 -0.527834
v -0.005396 -0.047274 -0.479266
v -0.023266 -0.052924 -0.480160
v -0.034059 -0.035613 -0.525093
v -0.041589 -0.031243 -0.558255
v -0.023360 -0.024136 -0.553448
v -0.013512 -0.028462 -0.527834
v -0.034059 -0.035613 -0.525093
v -0.054607 -0.028462 -0.522353
v -0.055913 -0.024136 -0.545867
v -0.041589 -0.031243 -0.558255
v -0.061456 0.000000 -0.521439
v -0.054607 -0.028462 -0.522353
v -0.041136 -0.046997 -0.481053
v -0.047093 0.000000 -0.481351
v -0.061456 0.000000 -0.521439
v -0.064513 0.000000 -0.551553
v -0.055913 -0.024136 -0.545867
v -0.054607 -0.028462 -0.522353
vn 0.910680 0.242268 -0.334618
vn 0.910680 0.242268 -0.334618
vn 0.910680 0.242268 -0.334618
vn 0.910680 0.242268 -0.334618
vn 0.777842 0.285882 -0.559673
vn 0.777842 0.285882 -0.559673
vn 0.777842 0.285882 -0.559673
vn 0.777842 0.285882 -0.559673
vn 0.057700 0.319141 -0.945949
vn 0.057700 0.319141 -0.945949
vn 0.057700 0.319141 -0.945949
vn 0.057700 0.319141 -0.945949
vn -0.587670 0.414502 -0.694862
vn -0.587670 0.414502 -0.694862
vn -0.587670 0.414502 -0.694862
vn -0.587670 0.414502 -0.694862
vn -0.855086 0.510035 -0.093230
vn -0.855086 0.510035 -0.093230
vn -0.855086 0.510035 -0.093230
vn -0.855086 0.510035 -0.093230
vn -0.876822 0.360448 0.318215
vn -0.876822 0.360448 0.318215
vn -0.876822 0.360448 0.318215
vn -0.876822 0.360448 0.318215
vn 0.229285 0.946173 -0.228440
vn 0.229285 0.946173 -0.228440
vn 0.229285 0.946173 -0.228440
vn 0.229285 0.946173 -0.228440
vn -0.550964 0.829023 -0.095702
vn -0.550964 0.829023 -0.095702
vn -0.550964 0.829023 -0.095702
vn -0.550964 0.829023 -0.095702
vn -0.071352 0.972117 -0.223378
vn -0.071352 0.972117 -0.223378
vn -0.071352 0.972117 -0.223378
vn -0.071352 0.972117 -0.223378
vn 0.016938 0.983356 -0.180897
vn 0.016938 0.983356 -0.180897
vn 0.016938 0.983356 -0.180897
vn 0.016938 0.983356 -0.180897
vn -0.478247 0.877399 -0.038090
vn -0.478247 0.877399 -0.038090
vn -0.478247 0.877399 -0.038090
vn -0.478247 0.877399 -0.038090
vn -0.701750 0.190718 0.686421
vn -0.701750 0.190718 0.686421
vn -0.701750 0.190718 0.686421
vn -0.701750 0.190718 0.686421
vn -0.364754 0.883567 0.293706
vn -0.364754 0.883567 0.293706
vn -0.364754 0.883567 0.293706
vn -0.364754 0.883567 0.293706
vn 0.942606 0.240723 -0.231400
vn 0.942606 0.240723 -0.231400
vn 0.942606 0.240723 -0.231400
vn 0.942606 0.240723 -0.231400
vn 0.286464 0.939774 0.186450
vn 0.286464 0.939774 0.186450
vn 0.286464 0.939774 0.186450
vn 0.286464 0.939774 0.186450
vn 0.899307 0.294102 0.323652
vn 0.899307 0.294102 0.323652
vn 0.899307 0.294102 0.323652
vn 0.899307 0.294102 0.323652
vn 0.076365 0.959557 0.270958
vn 0.076365 0.959557 0.270958
vn 0.076365 0.959557 0.270958
vn 0.076365 0.959557 0.270958
vn -0.490297 0.869932 0.053168
vn -0.490297 0.869932 0.053168
vn -0.490297 0.869932 0.053168
vn -0.490297 0.869932 0.053168
vn -0.515947 0.854498 0.060256
vn -0.515947 0.854498 0.060256
vn 0.975445 0.217583 -0.034114
vn 0.975445 0.217583 -0.034114
vn 0.975445 0.217583 -0.034114
vn 0.975445 0.217583 -0.034114
vn -0.824280 0.216652 -0.523091
vn -0.824280 0.216652 -0.523091
vn -0.824280 0.216652 -0.523091
vn -0.824280 0.216652 -0.523091
vn -0.334860 0.942110 0.017259
vn -0.334860 0.942110 0.017259
vn -0.334860 0.942110 0.017259
vn -0.334860 0.942110 0.017259
vn 0.334338 0.942354 -0.013672
vn 0.334338 0.942354 -0.013672
vn 0.334338 0.942354 -0.013672
vn 0.334338 0.942354 -0.013672
vn -0.974532 0.216444 0.058645
vn -0.974532 0.216444 0.058645
vn -0.974532 0.216444 0.058645
vn -0.974532 0.216444 0.058645
vn -0.304534 0.932937 -0.192062
vn -0.304534 0.932937 -0.192062
vn -0.304534 0.932937 -0.192062
vn -0.304534 0.932937 -0.192062
vn -0.873596 0.349339 -0.338811
vn -0.873596 0.349339 -0.338811
vn -0.873596 0.349339 -0.338811
vn -0.873596 0.349339 -0.338811
vn 0.819793 0.213979 0.531180
vn 0.819793 0.213979 0.531180
vn 0.819793 0.213979 0.531180
vn 0.819793 0.213979 0.531180
vn 0.815541 0.212163 0.538405
vn 0.815541 0.212163 0.538405
vn 0.011750 0.998277 -0.057484
vn 0.011750 0.998277 -0.057484
vn 0.011750 0.998277 -0.057484
vn 0.011750 0.998277 -0.057484
vn -0.884792 0.387231 0.259223
vn -0.884792 0.387231 0.259223
vn -0.884792 0.387231 0.259223
vn -0.884792 0.387231 0.259223
vn 0.678738 0.285462 -0.676629
vn 0.678738 0.285462 -0.676629
vn 0.678738 0.285462 -0.676629
vn 0.678738 0.285462 -0.676629
vn 0.003546 0.993307 0.115450
vn 0.003546 0.993307 0.115450
vn 0.003546 0.993307 0.115450
vn 0.003546 0.993307 0.115450
vn 0.338509 0.940696 -0.022421
vn 0.338509 0.940696 -0.022421
vn 0.338509 0.940696 -0.022421
vn 0.338509 0.940696 -0.022421
vn 0.752893 0.208930 0.624100
vn 0.752893 0.208930 0.624100
vn 0.752893 0.208930 0.624100
vn 0.752893 0.208930 0.624100
vn 0.293918 0.954598 -0.048517
vn 0.293918 0.954598 -0.048517
vn 0.293918 0.954598 -0.048517
vn 0.293918 0.954598 -0.048517
vn 0.295435 0.927835 -0.227685
vn 0.295435 0.927835 -0.227685
vn 0.295435 0.927835 -0.227685
vn 0.295435 0.927835 -0.227685
vn -0.652867 0.247249 0.715984
vn -0.652867 0.247249 0.715984
vn -0.652867 0.247249 0.715984
vn -0.652867 0.247249 0.715984
vn -0.086342 0.988460 0.124470
vn -0.086342 0.988460 0.124470
vn -0.086342 0.988460 0.124470
vn -0.086342 0.988460 0.124470
vn 0.145424 0.985810 -0.083854
vn 0.145424 0.985810 -0.083854
vn 0.145424 0.985810 -0.083854
vn 0.145424 0.985810 -0.083854
vn -0.936222 0.320097 0.145003
vn -0.936222 0.320097 0.145003
vn -0.936222 0.320097 0.145003
vn -0.936222 0.320097 0.145003
vn -0.142439 0.965158 -0.219504
vn -0.142439 0.965158 -0.219504
vn -0.142439 0.965158 -0.219504
vn -0.142439 0.965158 -0.219504
vn 0.857494 0.490435 -0.155493
vn 0.857494 0.490435 -0.155493
vn 0.857494 0.490435 -0.155493
vn 0.857494 0.490435 -0.155493
vn -0.887357 0.273065 -0.371529
vn -0.887357 0.273065 -0.371529
vn -0.887357 0.273065 -0.371529
vn -0.887357 0.273065 -0.371529
vn -0.772008 0.210281 -0.599822
vn -0.772008 0.210281 -0.599822
vn -0.772008 0.210281 -0.599822
vn -0.772008 0.210281 -0.599822
vn 0.801347 0.206843 0.561302
vn 0.801347 0.206843 0.561302
vn 0.801347 0.206843 0.561302
vn 0.801347 0.206843 0.561302
vn 0.716794 0.278087 -0.639433
vn 0.716794 0.278087 -0.639433
vn 0.716794 0.278087 -0.639433
vn 0.716794 0.278087 -0.639433
vn 0.268708 0.938256 0.217880
vn 0.268708 0.938256 0.217880
vn 0.268708 0.938256 0.217880
vn 0.268708 0.938256 0.217880
vn -0.269615 0.938960 -0.213686
vn -0.269615 0.938960 -0.213686
vn -0.269615 0.938960 -0.213686
vn -0.269615 0.938960 -0.213686
vn -0.958063 0.268851 0.099170
vn -0.958063 0.268851 0.099170
vn -0.958063 0.268851 0.099170
vn -0.958063 0.268851 0.099170
vn -0.490606 0.870352 -0.042344
vn -0.490606 0.870352 -0.042344
vn -0.490606 0.870352 -0.042344
vn -0.490606 0.870352 -0.042344
vn 0.117659 0.955222 0.271491
vn 0.117659 0.955222 0.271491
vn 0.117659 0.955222 0.271491
vn 0.117659 0.955222 0.271491
vn -0.437823 0.899025 0.008094
vn -0.437823 0.899025 0.008094
vn -0.437823 0.899025 0.008094
vn -0.437823 0.899025 0.008094
vn -0.865888 0.277756 -0.416040
vn -0.865888 0.277756 -0.416040
vn -0.865888 0.277756 -0.416040
vn -0.865888 0.277756 -0.416040
vn 0.976253 0.209101 -0.056623
vn 0.976253 0.209101 -0.056623
vn 0.976253 0.209101 -0.056623
vn 0.976253 0.209101 -0.056623
vn 0.870490 0.238933 -0.430301
vn 0.870490 0.238933 -0.430301
vn 0.870490 0.238933 -0.430301
vn 0.870490 0.238933 -0.430301
vn 0.253945 0.937846 -0.236551
vn 0.253945 0.937846 -0.236551
vn 0.253945 0.937846 -0.236551
vn 0.253945 0.937846 -0.236551
vn 0.308129 0.907251 -0.286272
vn 0.308129 0.907251 -0.286272
vn 0.308129 0.907251 -0.286272
vn 0.308129 0.907251 -0.286272
vn -0.372568 0.927878 -0.015385
vn -0.372568 0.927878 -0.015385
vn -0.372568 0.927878 -0.015385
vn -0.372568 0.927878 -0.015385
vn 0.785098 0.251783 -0.565885
vn 0.785098 0.251783 -0.565885
vn 0.785098 0.251783 -0.565885
vn 0.785098 0.251783 -0.565885
vn -0.657855 0.275621 0.700900
vn -0.657855 0.275621 0.700900
vn -0.657855 0.275621 0.700900
vn -0.657855 0.275621 0.700900
vn -0.165647 0.945058 0.281828
vn -0.165647 0.945058 0.281828
vn -0.165647 0.945058 0.281828
vn -0.165647 0.945058 0.281828
vn 0.360894 0.926766 -0.104218
vn 0.360894 0.926766 -0.104218
vn 0.360894 0.926766 -0.104218
vn 0.360894 0.926766 -0.104218
vn -0.772037 0.252966 0.583067
vn -0.772037 0.252966 0.583067
vn -0.772037 0.252966 0.583067
vn -0.772037 0.252966 0.583067
vn -0.245715 0.937399 0.246794
vn -0.245715 0.937399 0.246794
vn -0.245715 0.937399 0.246794
vn -0.245715 0.937399 0.246794
vn -0.964942 0.216947 -0.147717
vn -0.964942 0.216947 -0.147717
vn -0.964942 0.216947 -0.147717
vn -0.964942 0.216947 -0.147717
vn -0.765804 0.218301 -0.604887
vn -0.765804 0.218301 -0.604887
vn -0.765804 0.218301 -0.604887
vn -0.765804 0.218301 -0.604887
vn -0.883763 0.224298 0.410674
vn -0.883763 0.224298 0.410674
vn -0.883763 0.224298 0.410674
vn -0.883763 0.224298 0.410674
vn 0.894463 0.223974 -0.387005
vn 0.894463 0.223974 -0.387005
vn 0.894463 0.223974 -0.387005
vn 0.894463 0.223974 -0.387005
vn 0.967989 0.214957 0.129582
vn 0.967989 0.214957 0.129582
vn 0.967989 0.214957 0.129582
vn 0.967989 0.214957 0.129582
vn 0.782984 0.219069 0.582190
vn 0.782984 0.219069 0.582190
vn 0.782984 0.219069 0.582190
vn 0.782984 0.219069 0.582190
vn -0.342616 0.937835 -0.055498
vn -0.342616 0.937835 -0.055498
vn -0.342616 0.937835 -0.055498
vn -0.342616 0.937835 -0.055498
vn 0.334768 0.941172 0.046104
vn 0.334768 0.941172 0.046104
vn 0.334768 0.941172 0.046104
vn 0.334768 0.941172 0.046104
vn 0.265392 0.943153 0.200075
vn 0.265392 0.943153 0.200075
vn 0.265392 0.943153 0.200075
vn 0.265392 0.943153 0.200075
vn -0.263275 0.942994 -0.203590
vn -0.263275 0.942994 -0.203590
vn -0.263275 0.942994 -0.203590
vn -0.263275 0.942994 -0.203590
vn -0.391159 0.892853 -0.223177
vn -0.391159 0.892853 -0.223177
vn -0.391159 0.892853 -0.223177
vn -0.391159 0.892853 -0.223177
vn 0.322393 0.908477 0.265957
vn 0.322393 0.908477 0.265957
vn 0.322393 0.908477 0.265957
vn 0.322393 0.908477 0.265957
vn 0.184080 0.930696 0.316101
vn 0.184080 0.930696 0.316101
vn 0.184080 0.930696 0.316101
vn 0.184080 0.930696 0.316101
vn -0.518721 0.823760 0.228798
vn -0.518721 0.823760 0.228798
vn -0.518721 0.823760 0.228798
vn -0.518721 0.823760 0.228798
vn 0.460918 0.210926 0.862012
vn 0.460918 0.210926 0.862012
vn 0.460918 0.210926 0.862012
vn 0.460918 0.210926 0.862012
vn 0.398469 0.205032 0.893971
vn 0.398469 0.205032 0.893971
vn 0.398469 0.205032 0.893971
vn 0.398469 0.205032 0.893971
vn -0.147814 0.937204 -0.315912
vn -0.147814 0.937204 -0.315912
vn -0.147814 0.937204 -0.315912
vn -0.147814 0.937204 -0.315912
vn -0.167405 0.936414 -0.308390
vn -0.167405 0.936414 -0.308390
vn 0.157218 0.938389 0.307748
vn 0.157218 0.938389 0.307748
vn 0.157218 0.938389 0.307748
vn 0.157218 0.938389 0.307748
vn 0.152880 0.935990 0.317097
vn 0.152880 0.935990 0.317097
vn -0.388813 0.205861 -0.898023
vn -0.388813 0.205861 -0.898023
vn -0.388813 0.205861 -0.898023
vn -0.388813 0.205861 -0.898023
vn -0.495965 0.206675 -0.843389
vn -0.495965 0.206675 -0.843389
vn -0.495965 0.206675 -0.843389
vn -0.495965 0.206675 -0.843389
vn -0.854126 0.155448 -0.496292
vn -0.854126 0.155448 -0.496292
vn -0.854126 0.155448 -0.496292
vn -0.854126 0.155448 -0.496292
vn -0.964297 0.239189 -0.113667
vn -0.964297 0.239189 -0.113667
vn -0.964297 0.239189 -0.113667
vn -0.964297 0.239189 -0.113667
vn 0.732308 0.158175 0.662349
vn 0.732308 0.158175 0.662349
vn 0.732308 0.158175 0.662349
vn 0.732308 0.158175 0.662349
vn 0.983184 0.177746 0.041891
vn 0.983184 0.177746 0.041891
vn 0.983184 0.177746 0.041891
vn 0.983184 0.177746 0.041891
vn 0.037530 0.985714 -0.164195
vn 0.037530 0.985714 -0.164195
vn 0.037530 0.985714 -0.164195
vn 0.037530 0.985714 -0.164195
vn -0.890302 0.308656 0.334804
vn -0.890302 0.308656 0.334804
vn -0.890302 0.308656 0.334804
vn -0.890302 0.308656 0.334804
vn -0.494742 0.868133 0.039698
vn -0.494742 0.868133 0.039698
vn -0.494742 0.868133 0.039698
vn -0.494742 0.868133 0.039698
vn -0.010552 0.335936 0.941826
vn -0.010552 0.335936 0.941826
vn -0.010552 0.335936 0.941826
vn -0.010552 0.335936 0.941826
vn 0.794966 0.373881 0.477748
vn 0.794966 0.373881 0.477748
vn 0.794966 0.373881 0.477748
vn 0.794966 0.373881 0.477748
vn 0.796756 0.230757 -0.558508
vn 0.796756 0.230757 -0.558508
vn 0.796756 0.230757 -0.558508
vn 0.796756 0.230757 -0.558508
vn 0.885027 0.277140 -0.374060
vn 0.885027 0.277140 -0.374060
vn 0.885027 0.277140 -0.374060
vn 0.885027 0.277140 -0.374060
vn -0.344765 0.934681 0.086650
vn -0.344765 0.934681 0.086650
vn -0.344765 0.934681 0.086650
vn -0.344765 0.934681 0.086650
vn 0.219808 0.948395 -0.228540
vn 0.219808 0.948395 -0.228540
vn 0.219808 0.948395 -0.228540
vn 0.219808 0.948395 -0.228540
vn 0.414269 0.907721 -0.066507
vn 0.414269 0.907721 -0.066507
vn 0.414269 0.907721 -0.066507
vn 0.414269 0.907721 -0.066507
vn -0.241762 0.910825 0.334588
vn -0.241762 0.910825 0.334588
vn -0.241762 0.910825 0.334588
vn -0.241762 0.910825 0.334588
vn -0.889936 0.223705 0.397454
vn -0.889936 0.223705 0.397454
vn -0.889936 0.223705 0.397454
vn -0.889936 0.223705 0.397454
vn -0.734585 0.276716 0.619526
vn -0.734585 0.276716 0.619526
vn -0.734585 0.276716 0.619526
vn -0.734585 0.276716 0.619526
vn 0.737819 0.175633 -0.651749
vn 0.737819 0.175633 -0.651749
vn 0.737819 0.175633 -0.651749
vn 0.737819 0.175633 -0.651749
vn 0.910680 -0.242268 -0.334618
vn 0.910680 -0.242268 -0.334618
vn 0.910680 -0.242268 -0.334618
vn 0.910680 -0.242268 -0.334618
vn 0.777842 -0.285882 -0.559673
vn 0.777842 -0.285882 -0.559673
vn 0.777842 -0.285882 -0.559673
vn 0.777842 -0.285882 -0.559673
vn 0.057701 -0.319139 -0.945950
vn 0.057701 -0.319139 -0.945950
vn 0.057701 -0.319139 -0.945950
vn 0.057701 -0.319139 -0.945950
vn -0.587670 -0.414501 -0.694862
vn -0.587670 -0.414501 -0.694862
vn -0.587670 -0.414501 -0.694862
vn -0.587670 -0.414501 -0.694862
vn -0.855086 -0.510035 -0.093230
vn -0.855086 -0.510035 -0.093230
vn -0.855086 -0.510035 -0.093230
vn -0.855086 -0.510035 -0.093230
vn -0.876822 -0.360448 0.318215
vn -0.876822 -0.360448 0.318215
vn -0.876822 -0.360448 0.318215
vn -0.876822 -0.360448 0.318215
vn 0.229285 -0.946173 -0.228440
vn 0.229285 -0.946173 -0.228440
vn 0.229285 -0.946173 -0.228440
vn 0.229285 -0.946173 -0.228440
vn -0.550965 -0.829023 -0.095702
vn -0.550965 -0.829023 -0.095702
vn -0.550965 -0.829023 -0.095702
vn -0.550965 -0.829023 -0.095702
vn -0.071352 -0.972117 -0.223378
vn -0.071352 -0.972117 -0.223378
vn -0.071352 -0.972117 -0.223378
vn -0.071352 -0.972117 -0.223378
vn 0.016938 -0.983356 -0.180897
vn 0.016938 -0.983356 -0.180897
vn 0.016938 -0.983356 -0.180897
vn 0.016938 -0.983356 -0.180897
vn -0.478247 -0.877399 -0.038090
vn -0.478247 -0.877399 -0.038090
vn -0.478247 -0.877399 -0.038090
vn -0.478247 -0.877399 -0.038090
vn -0.701750 -0.190719 0.686421
vn -0.701750 -0.190719 0.686421
vn -0.701750 -0.190719 0.686421
vn -0.701750 -0.190719 0.686421
vn -0.364754 -0.883567 0.293707
vn -0.364754 -0.883567 0.293707
vn -0.364754 -0.883567 0.293707
vn -0.364754 -0.883567 0.293707
vn 0.942606 -0.240723 -0.231400
vn 0.942606 -0.240723 -0.231400
vn 0.942606 -0.240723 -0.231400
vn 0.942606 -0.240723 -0.231400
vn 0.286464 -0.939774 0.186450
vn 0.286464 -0.939774 0.186450
vn 0.286464 -0.939774 0.186450
vn 0.286464 -0.939774 0.186450
vn 0.899307 -0.294102 0.323652
vn 0.899307 -0.294102 0.323652
vn 0.899307 -0.294102 0.323652
vn 0.899307 -0.294102 0.323652
vn 0.076365 -0.959557 0.270959
vn 0.076365 -0.959557 0.270959
vn 0.076365 -0.959557 0.270959
vn 0.076365 -0.959557 0.270959
vn -0.490297 -0.869932 0.053168
vn -0.490297 -0.869932 0.053168
vn -0.490297 -0.869932 0.053168
vn -0.490297 -0.869932 0.053168
vn -0.515947 -0.854499 0.060256
vn -0.515947 -0.854499 0.060256
vn 0.975445 -0.217583 -0.034114
vn 0.975445 -0.217583 -0.034114
vn 0.975445 -0.217583 -0.034114
vn 0.975445 -0.217583 -0.034114
vn -0.824280 -0.216652 -0.523091
vn -0.824280 -0.216652 -0.523091
vn -0.824280 -0.216652 -0.523091
vn -0.824280 -0.216652 -0.523091
vn -0.334860 -0.942110 0.017259
vn -0.334860 -0.942110 0.017259
vn -0.334860 -0.942110 0.017259
vn -0.334860 -0.942110 0.017259
vn 0.334338 -0.942354 -0.013671
vn 0.334338 -0.942354 -0.013671
vn 0.334338 -0.942354 -0.013671
vn 0.334338 -0.942354 -0.013671
vn -0.974532 -0.216444 0.058645
vn -0.974532 -0.216444 0.058645
vn -0.974532 -0.216444 0.058645
vn -0.974532 -0.216444 0.058645
vn -0.304534 -0.932937 -0.192062
vn -0.304534 -0.932937 -0.192062
vn -0.304534 -0.932937 -0.192062
vn -0.304534 -0.932937 -0.192062
vn -0.873596 -0.349339 -0.338811
vn -0.873596 -0.349339 -0.338811
vn -0.873596 -0.349339 -0.338811
vn -0.873596 -0.349339 -0.338811
vn 0.819793 -0.213979 0.531180
vn 0.819793 -0.213979 0.531180
vn 0.819793 -0.213979 0.531180
vn 0.819793 -0.213979 0.531180
vn 0.815541 -0.212163 0.538405
vn 0.815541 -0.212163 0.538405
vn 0.011750 -0.998277 -0.057484
vn 0.011750 -0.998277 -0.057484
vn 0.011750 -0.998277 -0.057484
vn 0.011750 -0.998277 -0.057484
vn -0.884792 -0.387231 0.259223
vn -0.884792 -0.387231 0.259223
vn -0.884792 -0.387231 0.259223
vn -0.884792 -0.387231 0.259223
vn 0.678738 -0.285463 -0.676628
vn 0.678738 -0.285463 -0.676628
vn 0.678738 -0.285463 -0.676628
vn 0.678738 -0.285463 -0.676628
vn 0.003546 -0.993307 0.115450
vn 0.003546 -0.993307 0.115450
vn 0.003546 -0.993307 0.115450
vn 0.003546 -0.993307 0.115450
vn 0.338509 -0.940696 -0.022421
vn 0.338509 -0.940696 -0.022421
vn 0.338509 -0.940696 -0.022421
vn 0.338509 -0.940696 -0.022421
vn 0.752893 -0.208930 0.624100
vn 0.752893 -0.208930 0.624100
vn 0.752893 -0.208930 0.624100
vn 0.752893 -0.208930 0.624100
vn 0.293918 -0.954598 -0.048517
vn 0.293918 -0.954598 -0.048517
vn 0.293918 -0.954598 -0.048517
vn 0.293918 -0.954598 -0.048517
vn 0.295435 -0.927835 -0.227685
vn 0.295435 -0.927835 -0.227685
vn 0.295435 -0.927835 -0.227685
vn 0.295435 -0.927835 -0.227685
vn -0.652867 -0.247250 0.715984
vn -0.652867 -0.247250 0.715984
vn -0.652867 -0.247250 0.715984
vn -0.652867 -0.247250 0.715984
vn -0.086341 -0.988460 0.124470
vn -0.086341 -0.988460 0.124470
vn -0.086341 -0.988460 0.124470
vn -0.086341 -0.988460 0.124470
vn 0.145424 -0.985810 -0.083854
vn 0.145424 -0.985810 -0.083854
vn 0.145424 -0.985810 -0.083854
vn 0.145424 -0.985810 -0.083854
vn -0.936222 -0.320097 0.145003
vn -0.936222 -0.320097 0.145003
vn -0.936222 -0.320097 0.145003
vn -0.936222 -0.320097 0.145003
vn -0.142439 -0.965158 -0.219504
vn -0.142439 -0.965158 -0.219504
vn -0.142439 -0.965158 -0.219504
vn -0.142439 -0.965158 -0.219504
vn 0.857494 -0.490435 -0.155493
vn 0.857494 -0.490435 -0.155493
vn 0.857494 -0.490435 -0.155493
vn 0.857494 -0.490435 -0.155493
vn -0.887357 -0.273065 -0.371529
vn -0.887357 -0.273065 -0.371529
vn -0.887357 -0.273065 -0.371529
vn -0.887357 -0.273065 -0.371529
vn -0.772008 -0.210281 -0.599822
vn -0.772008 -0.210281 -0.599822
vn -0.772008 -0.210281 -0.599822
vn -0.772008 -0.210281 -0.599822
vn 0.801347 -0.206843 0.561302
vn 0.801347 -0.206843 0.561302
vn 0.801347 -0.206843 0.561302
vn 0.801347 -0.206843 0.561302
vn 0.716794 -0.278087 -0.639433
vn 0.716794 -0.278087 -0.639433
vn 0.716794 -0.278087 -0.639433
vn 0.716794 -0.278087 -0.639433
vn 0.268708 -0.938256 0.217880
vn 0.268708 -0.938256 0.217880
vn 0.268708 -0.938256 0.217880
vn 0.268708 -0.938256 0.217880
vn -0.269615 -0.938960 -0.213686
vn -0.269615 -0.938960 -0.213686
vn -0.269615 -0.938960 -0.213686
vn -0.269615 -0.938960 -0.213686
vn -0.958063 -0.268851 0.099170
vn -0.958063 -0.268851 0.099170
vn -0.958063 -0.268851 0.099170
vn -0.958063 -0.268851 0.099170
vn -0.490606 -0.870352 -0.042344
vn -0.490606 -0.870352 -0.042344
vn -0.490606 -0.870352 -0.042344
vn -0.490606 -0.870352 -0.042344
vn 0.117659 -0.955222 0.271491
vn 0.117659 -0.955222 0.271491
vn 0.117659 -0.955222 0.271491
vn 0.117659 -0.955222 0.271491
vn -0.437823 -0.899025 0.008094
vn -0.437823 -0.899025 0.008094
vn -0.437823 -0.899025 0.008094
vn -0.437823 -0.899025 0.008094
vn -0.865888 -0.277756 -0.416040
vn -0.865888 -0.277756 -0.416040
vn -0.865888 -0.277756 -0.416040
vn -0.865888 -0.277756 -0.416040
vn 0.976253 -0.209101 -0.056623
vn 0.976253 -0.209101 -0.056623
vn 0.976253 -0.209101 -0.056623
vn 0.976253 -0.209101 -0.056623
vn 0.870490 -0.238933 -0.430301
vn 0.870490 -0.238933 -0.430301
vn 0.870490 -0.238933 -0.430301
vn 0.870490 -0.238933 -0.430301
vn 0.253945 -0.937846 -0.236551
vn 0.253945 -0.937846 -0.236551
vn 0.253945 -0.937846 -0.236551
vn 0.253945 -0.937846 -0.236551
vn 0.308129 -0.907251 -0.286272
vn 0.308129 -0.907251 -0.286272
vn 0.308129 -0.907251 -0.286272
vn 0.308129 -0.907251 -0.286272
vn -0.372568 -0.927878 -0.015384
vn -0.372568 -0.927878 -0.015384
vn -0.372568 -0.927878 -0.015384
vn -0.372568 -0.927878 -0.015384
vn 0.785098 -0.251784 -0.565885
vn 0.785098 -0.251784 -0.565885
vn 0.785098 -0.251784 -0.565885
vn 0.785098 -0.251784 -0.565885
vn -0.657855 -0.275621 0.700900
vn -0.657855 -0.275621 0.700900
vn -0.657855 -0.275621 0.700900
vn -0.657855 -0.275621 0.700900
vn -0.165647 -0.945058 0.281828
vn -0.165647 -0.945058 0.281828
vn -0.165647 -0.945058 0.281828
vn -0.165647 -0.945058 0.281828
vn 0.360893 -0.926766 -0.104217
vn 0.360893 -0.926766 -0.104217
vn 0.360893 -0.926766 -0.104217
vn 0.360893 -0.926766 -0.104217
vn -0.772037 -0.252966 0.583067
vn -0.772037 -0.252966 0.583067
vn -0.772037 -0.252966 0.583067
vn -0.772037 -0.252966 0.583067
vn -0.245715 -0.937399 0.246795
vn -0.245715 -0.937399 0.246795
vn -0.245715 -0.937399 0.246795
vn -0.245715 -0.937399 0.246795
vn -0.964942 -0.216947 -0.147717
vn -0.964942 -0.216947 -0.147717
vn -0.964942 -0.216947 -0.147717
vn -0.964942 -0.216947 -0.147717
vn -0.765804 -0.218301 -0.604887
vn -0.765804 -0.218301 -0.604887
vn -0.765804 -0.218301 -0.604887
vn -0.765804 -0.218301 -0.604887
vn -0.883763 -0.224298 0.410674
vn -0.883763 -0.224298 0.410674
vn -0.883763 -0.224298 0.410674
vn -0.883763 -0.224298 0.410674
vn 0.894463 -0.223974 -0.387004
vn 0.894463 -0.223974 -0.387004
vn 0.894463 -0.223974 -0.387004
vn 0.894463 -0.223974 -0.387004
vn 0.967989 -0.214957 0.129582
vn 0.967989 -0.214957 0.129582
vn 0.967989 -0.214957 0.129582
vn 0.967989 -0.214957 0.129582
vn 0.782984 -0.219069 0.582190
vn 0.782984 -0.219069 0.582190
vn 0.782984 -0.219069 0.582190
vn 0.782984 -0.219069 0.582190
vn -0.342616 -0.937835 -0.055498
vn -0.342616 -0.937835 -0.055498
vn -0.342616 -0.937835 -0.055498
vn -0.342616 -0.937835 -0.055498
vn 0.334768 -0.941172 0.046104
vn 0.334768 -0.941172 0.046104
vn 0.334768 -0.941172 0.046104
vn 0.334768 -0.941172 0.046104
vn 0.265392 -0.943153 0.200075
vn 0.265392 -0.943153 0.200075
vn 0.265392 -0.943153 0.200075
vn 0.265392 -0.943153 0.200075
vn -0.263275 -0.942994 -0.203589
vn -0.263275 -0.942994 -0.203589
vn -0.263275 -0.942994 -0.203589
vn -0.263275 -0.942994 -0.203589
vn -0.391159 -0.892853 -0.223177
vn -0.391159 -0.892853 -0.223177
vn -0.391159 -0.892853 -0.223177
vn -0.391159 -0.892853 -0.223177
vn 0.322393 -0.908477 0.265957
vn 0.322393 -0.908477 0.265957
vn 0.322393 -0.908477 0.265957
vn 0.322393 -0.908477 0.265957
vn 0.184080 -0.930696 0.316101
vn 0.184080 -0.930696 0.316101
vn 0.184080 -0.930696 0.316101
vn 0.184080 -0.930696 0.316101
vn -0.518721 -0.823760 0.228798
vn -0.518721 -0.823760 0.228798
vn -0.518721 -0.823760 0.228798
vn -0.518721 -0.823760 0.228798
vn 0.460918 -0.210926 0.862012
vn 0.460918 -0.210926 0.862012
vn 0.460918 -0.210926 0.862012
vn 0.460918 -0.210926 0.862012
vn 0.398469 -0.205031 0.893971
vn 0.398469 -0.205031 0.893971
vn 0.398469 -0.205031 0.893971
vn 0.398469 -0.205031 0.893971
vn -0.147814 -0.937204 -0.315911
vn -0.147814 -0.937204 -0.315911
vn -0.147814 -0.937204 -0.315911
vn -0.147814 -0.937204 -0.315911
vn -0.167405 -0.936414 -0.308390
vn -0.167405 -0.936414 -0.308390
vn 0.157218 -0.938389 0.307749
vn 0.157218 -0.938389 0.307749
vn 0.157218 -0.938389 0.307749
vn 0.157218 -0.938389 0.307749
vn 0.152880 -0.935990 0.317098
vn 0.152880 -0.935990 0.317098
vn -0.388813 -0.205861 -0.898023
vn -0.388813 -0.205861 -0.898023
vn -0.388813 -0.205861 -0.898023
vn -0.388813 -0.205861 -0.898023
vn -0.495964 -0.206676 -0.843389
vn -0.495964 -0.206676 -0.843389
vn -0.495964 -0.206676 -0.843389
vn -0.495964 -0.206676 -0.843389
vn -0.854126 -0.155448 -0.496292
vn -0.854126 -0.155448 -0.496292
vn -0.854126 -0.155448 -0.496292
vn -0.854126 -0.155448 -0.496292
vn -0.964297 -0.239189 -0.113667
vn -0.964297 -0.239189 -0.113667
vn -0.964297 -0.239189 -0.113667
vn -0.964297 -0.239189 -0.113667
vn 0.732308 -0.158175 0.662349
vn 0.732308 -0.158175 0.662349
vn 0.732308 -0.158175 0.662349
vn 0.732308 -0.158175 0.662349
vn 0.983184 -0.177746 0.041891
vn 0.983184 -0.177746 0.041891
vn 0.983184 -0.177746 0.041891
vn 0.983184 -0.177746 0.041891
vn 0.037530 -0.985714 -0.164195
vn 0.037530 -0.985714 -0.164195
vn 0.037530 -0.985714 -0.164195
vn 0.037530 -0.985714 -0.164195
vn -0.890302 -0.308655 0.334804
vn -0.890302 -0.308655 0.334804
vn -0.890302 -0.308655 0.334804
vn -0.890302 -0.308655 0.334804
vn -0.494742 -0.868133 0.039698
vn -0.494742 -0.868133 0.039698
vn -0.494742 -0.868133 0.039698
vn -0.494742 -0.868133 0.039698
vn -0.010552 -0.335935 0.941826
vn -0.010552 -0.335935 0.941826
vn -0.010552 -0.335935 0.941826
vn -0.010552 -0.335935 0.941826
vn 0.794966 -0.373881 0.477748
vn 0.794966 -0.373881 0.477748
vn 0.794966 -0.373881 0.477748
vn 0.794966 -0.373881 0.477748
vn 0.796756 -0.230757 -0.558508
vn 0.796756 -0.230757 -0.558508
vn 0.796756 -0.230757 -0.558508
vn 0.796756 -0.230757 -0.558508
vn 0.885027 -0.277140 -0.374060
vn 0.885027 -0.277140 -0.374060
vn 0.885027 -0.277140 -0.374060
vn 0.885027 -0.277140 -0.374060
vn -0.344765 -0.934681 0.086650
vn -0.344765 -0.934681 0.086650
vn -0.344765 -0.934681 0.086650
vn -0.344765 -0.934681 0.086650
vn 0.219808 -0.948395 -0.228540
vn 0.219808 -0.948395 -0.228540
vn 0.219808 -0.948395 -0.228540
vn 0.219808 -0.948395 -0.228540
vn 0.414269 -0.907721 -0.066506
vn 0.414269 -0.907721 -0.066506
vn 0.414269 -0.907721 -0.066506
vn 0.414269 -0.907721 -0.066506
vn -0.241762 -0.910825 0.334589
vn -0.241762 -0.910825 0.334589
vn -0.241762 -0.910825 0.334589
vn -0.241762 -0.910825 0.334589
vn -0.889936 -0.223705 0.397454
vn -0.889936 -0.223705 0.397454
vn -0.889936 -0.223705 0.397454
vn -0.889936 -0.223705 0.397454
vn -0.734586 -0.276715 0.619526
vn -0.734586 -0.276715 0.619526
vn -0.734586 -0.276715 0.619526
vn -0.734586 -0.276715 0.619526
vn 0.737819 -0.175633 -0.651749
vn 0.737819 -0.175633 -0.651749
vn 0.737819 -0.175633 -0.651749
vn 0.737819 -0.175633 -0.651749
vn 0.914043 0.186342 0.360280
vn 0.914043 0.186342 0.360280
vn 0.914043 0.186342 0.360280
vn 0.914043 0.186342 0.360280
vn 0.288604 0.200321 0.936258
vn 0.288604 0.200321 0.936258
vn 0.288604 0.200321 0.936258
vn 0.288604 0.200321 0.936258
vn -0.390554 0.236400 0.889709
vn -0.390554 0.236400 0.889709
vn -0.390554 0.236400 0.889709
vn -0.390554 0.236400 0.889709
vn -0.914053 0.267164 0.305175
vn -0.914053 0.267164 0.305175
vn -0.914053 0.267164 0.305175
vn -0.914053 0.267164 0.305175
vn 0.977053 0.194225 0.087433
vn 0.977053 0.194225 0.087433
vn 0.977053 0.194225 0.087433
vn 0.977053 0.194225 0.087433
vn -0.513435 0.829023 0.221596
vn -0.513435 0.829023 0.221596
vn -0.513435 0.829023 0.221596
vn -0.513435 0.829023 0.221596
vn -0.017271 0.972117 0.233859
vn -0.017271 0.972117 0.233859
vn -0.017271 0.972117 0.233859
vn -0.017271 0.972117 0.233859
vn 0.947998 0.209577 0.239535
vn 0.947998 0.209577 0.239535
vn 0.947998 0.209577 0.239535
vn 0.947998 0.209577 0.239535
vn 0.310192 0.945355 -0.100429
vn 0.310192 0.945355 -0.100429
vn 0.310192 0.945355 -0.100429
vn 0.310192 0.945355 -0.100429
vn 0.955819 0.290748 0.043312
vn 0.955819 0.290748 0.043312
vn 0.955819 0.290748 0.043312
vn 0.955819 0.290748 0.043312
vn 0.177982 0.880154 -0.440058
vn 0.177982 0.880154 -0.440058
vn 0.177982 0.880154 -0.440058
vn 0.177982 0.880154 -0.440058
vn -0.354702 0.919568 -0.169061
vn -0.354702 0.919568 -0.169061
vn -0.354702 0.919568 -0.169061
vn -0.354702 0.919568 -0.169061
vn -0.963824 0.232563 -0.130225
vn -0.963824 0.232563 -0.130225
vn -0.963824 0.232563 -0.130225
vn -0.963824 0.232563 -0.130225
vn -0.825588 0.183383 0.533644
vn -0.825588 0.183383 0.533644
vn -0.825588 0.183383 0.533644
vn -0.825588 0.183383 0.533644
vn 0.143158 0.989399 -0.024410
vn 0.143158 0.989399 -0.024410
vn 0.143158 0.989399 -0.024410
vn 0.143158 0.989399 -0.024410
vn -0.412752 0.910042 -0.038209
vn -0.412752 0.910042 -0.038209
vn -0.412752 0.910042 -0.038209
vn -0.412752 0.910042 -0.038209
vn -0.279336 0.920522 0.273150
vn -0.279336 0.920522 0.273150
vn -0.279336 0.920522 0.273150
vn -0.279336 0.920522 0.273150
vn -0.900887 0.212002 0.378759
vn -0.900887 0.212002 0.378759
vn -0.900887 0.212002 0.378759
vn -0.900887 0.212002 0.378759
vn 0.818849 0.176500 -0.546199
vn 0.818849 0.176500 -0.546199
vn 0.818849 0.176500 -0.546199
vn 0.818849 0.176500 -0.546199
vn 0.825248 0.180950 -0.534998
vn 0.825248 0.180950 -0.534998
vn 0.136491 0.982076 0.129989
vn 0.136491 0.982076 0.129989
vn 0.136491 0.982076 0.129989
vn 0.136491 0.982076 0.129989
vn -0.927748 0.237763 -0.287668
vn -0.927748 0.237763 -0.287668
vn -0.927748 0.237763 -0.287668
vn -0.927748 0.237763 -0.287668
vn -0.369584 0.929012 -0.018565
vn -0.369584 0.929012 -0.018565
vn -0.369584 0.929012 -0.018565
vn -0.369584 0.929012 -0.018565
vn 0.841826 0.216530 0.494412
vn 0.841826 0.216530 0.494412
vn 0.841826 0.216530 0.494412
vn 0.841826 0.216530 0.494412
vn 0.128835 0.983646 -0.125870
vn 0.128835 0.983646 -0.125870
vn 0.128835 0.983646 -0.125870
vn 0.128835 0.983646 -0.125870
vn 0.557309 0.828020 -0.061560
vn 0.557309 0.828020 -0.061560
vn 0.557309 0.828020 -0.061560
vn 0.557309 0.828020 -0.061560
vn 0.796998 0.179653 -0.576645
vn 0.796998 0.179653 -0.576645
vn 0.796998 0.179653 -0.576645
vn 0.796998 0.179653 -0.576645
vn 0.522991 0.842043 0.132077
vn 0.522991 0.842043 0.132077
vn 0.522991 0.842043 0.132077
vn 0.522991 0.842043 0.132077
vn 0.367923 0.912567 0.178477
vn 0.367923 0.912567 0.178477
vn 0.367923 0.912567 0.178477
vn 0.367923 0.912567 0.178477
vn -0.863011 0.178172 -0.472723
vn -0.863011 0.178172 -0.472723
vn -0.863011 0.178172 -0.472723
vn -0.863011 0.178172 -0.472723
vn -0.110002 0.993440 -0.031261
vn -0.110002 0.993440 -0.031261
vn -0.110002 0.993440 -0.031261
vn -0.110002 0.993440 -0.031261
vn 0.179974 0.983622 0.009886
vn 0.179974 0.983622 0.009886
vn 0.179974 0.983622 0.009886
vn 0.179974 0.983622 0.009886
vn -0.970432 0.196240 -0.140540
vn -0.970432 0.196240 -0.140540
vn -0.970432 0.196240 -0.140540
vn -0.970432 0.196240 -0.140540
vn -0.973538 0.202250 -0.106393
vn -0.973538 0.202250 -0.106393
vn -0.093213 0.994864 0.039451
vn -0.093213 0.994864 0.039451
vn -0.093213 0.994864 0.039451
vn -0.093213 0.994864 0.039451
vn 0.928111 0.352743 0.119092
vn 0.928111 0.352743 0.119092
vn 0.928111 0.352743 0.119092
vn 0.928111 0.352743 0.119092
vn -0.805191 0.179982 0.565043
vn -0.805191 0.179982 0.565043
vn -0.805191 0.179982 0.565043
vn -0.805191 0.179982 0.565043
vn 0.876349 0.162336 -0.453496
vn 0.876349 0.162336 -0.453496
vn 0.876349 0.162336 -0.453496
vn 0.876349 0.162336 -0.453496
vn 0.865960 0.191333 0.462067
vn 0.865960 0.191333 0.462067
vn 0.865960 0.191333 0.462067
vn 0.865960 0.191333 0.462067
vn 0.329901 0.939781 -0.089316
vn 0.329901 0.939781 -0.089316
vn 0.329901 0.939781 -0.089316
vn 0.329901 0.939781 -0.089316
vn -0.224682 0.927330 0.299296
vn -0.224682 0.927330 0.299296
vn -0.224682 0.927330 0.299296
vn -0.224682 0.927330 0.299296
vn -0.974964 0.221331 -0.021386
vn -0.974964 0.221331 -0.021386
vn -0.974964 0.221331 -0.021386
vn -0.974964 0.221331 -0.021386
vn -0.491998 0.869358 0.046425
vn -0.491998 0.869358 0.046425
vn -0.491998 0.869358 0.046425
vn -0.491998 0.869358 0.046425
vn 0.125913 0.964982 -0.230123
vn 0.125913 0.964982 -0.230123
vn 0.125913 0.964982 -0.230123
vn 0.125913 0.964982 -0.230123
vn -0.437879 0.898994 -0.008540
vn -0.437879 0.898994 -0.008540
vn -0.437879 0.898994 -0.008540
vn -0.437879 0.898994 -0.008540
vn -0.907390 0.197531 0.370978
vn -0.907390 0.197531 0.370978
vn -0.907390 0.197531 0.370978
vn -0.907390 0.197531 0.370978
vn 0.982703 0.172607 -0.067094
vn 0.982703 0.172607 -0.067094
vn 0.982703 0.172607 -0.067094
vn 0.982703 0.172607 -0.067094
vn 0.946722 0.119273 -0.299151
vn 0.946722 0.119273 -0.299151
vn 0.946722 0.119273 -0.299151
vn 0.946722 0.119273 -0.299151
vn 0.327449 0.931005 0.161267
vn 0.327449 0.931005 0.161267
vn 0.327449 0.931005 0.161267
vn 0.327449 0.931005 0.161267
vn 0.778801 0.214482 0.589463
vn 0.778801 0.214482 0.589463
vn 0.778801 0.214482 0.589463
vn 0.778801 0.214482 0.589463
vn -0.822076 0.190918 -0.536416
vn -0.822076 0.190918 -0.536416
vn -0.822076 0.190918 -0.536416
vn -0.822076 0.190918 -0.536416
vn -0.291830 0.941133 -0.170600
vn -0.291830 0.941133 -0.170600
vn -0.291830 0.941133 -0.170600
vn -0.291830 0.941133 -0.170600
vn -0.300973 0.930579 -0.208418
vn -0.300973 0.930579 -0.208418
vn 0.236077 0.946211 0.221251
vn 0.236077 0.946211 0.221251
vn 0.236077 0.946211 0.221251
vn 0.236077 0.946211 0.221251
vn -0.792026 0.213460 -0.571952
vn -0.792026 0.213460 -0.571952
vn -0.792026 0.213460 -0.571952
vn -0.792026 0.213460 -0.571952
vn 0.251629 0.966447 -0.051604
vn 0.251629 0.966447 -0.051604
vn 0.251629 0.966447 -0.051604
vn 0.251629 0.966447 -0.051604
vn 0.341975 0.910816 0.231232
vn 0.341975 0.910816 0.231232
vn 0.341975 0.910816 0.231232
vn 0.341975 0.910816 0.231232
vn -0.087083 0.873226 0.479471
vn -0.087083 0.873226 0.479471
vn -0.087083 0.873226 0.479471
vn -0.087083 0.873226 0.479471
vn 0.940304 0.202085 -0.273843
vn 0.940304 0.202085 -0.273843
vn 0.940304 0.202085 -0.273843
vn 0.940304 0.202085 -0.273843
vn -0.423061 0.901420 0.091988
vn -0.423061 0.901420 0.091988
vn -0.423061 0.901420 0.091988
vn -0.423061 0.901420 0.091988
vn -0.774798 0.119782 0.620758
vn -0.774798 0.119782 0.620758
vn -0.774798 0.119782 0.620758
vn -0.774798 0.119782 0.620758
vn -0.977292 0.141792 0.157469
vn -0.977292 0.141792 0.157469
vn -0.977292 0.141792 0.157469
vn -0.977292 0.141792 0.157469
vn 0.774545 0.162393 -0.611317
vn 0.774545 0.162393 -0.611317
vn 0.774545 0.162393 -0.611317
vn 0.774545 0.162393 -0.611317
vn 0.286519 0.958058 0.005645
vn 0.286519 0.958058 0.005645
vn 0.286519 0.958058 0.005645
vn 0.286519 0.958058 0.005645
vn -0.924822 0.118203 0.361569
vn -0.924822 0.118203 0.361569
vn -0.924822 0.118203 0.361569
vn -0.924822 0.118203 0.361569
vn -0.278976 0.939400 0.199248
vn -0.278976 0.939400 0.199248
vn -0.278976 0.939400 0.199248
vn -0.278976 0.939400 0.199248
vn -0.655574 0.335936 -0.676291
vn -0.655574 0.335936 -0.676291
vn -0.655574 0.335936 -0.676291
vn -0.655574 0.335936 -0.676291
vn 0.248300 0.373877 -0.893624
vn 0.248300 0.373877 -0.893624
vn 0.248300 0.373877 -0.893624
vn 0.248300 0.373877 -0.893624
vn 0.969148 0.165356 -0.182783
vn 0.969148 0.165356 -0.182783
vn 0.969148 0.165356 -0.182783
vn 0.969148 0.165356 -0.182783
vn 0.899657 0.277138 -0.337359
vn 0.899657 0.277138 -0.337359
vn 0.899657 0.277138 -0.337359
vn 0.899657 0.277138 -0.337359
vn -0.321166 0.903108 -0.285043
vn -0.321166 0.903108 -0.285043
vn -0.321166 0.903108 -0.285043
vn -0.321166 0.903108 -0.285043
vn 0.273424 0.877382 -0.394260
vn 0.273424 0.877382 -0.394260
vn 0.273424 0.877382 -0.394260
vn 0.273424 0.877382 -0.394260
vn 0.346416 0.907722 -0.236721
vn 0.346416 0.907722 -0.236721
vn 0.346416 0.907722 -0.236721
vn 0.346416 0.907722 -0.236721
vn -0.405638 0.910825 -0.076517
vn -0.405638 0.910825 -0.076517
vn -0.405638 0.910825 -0.076517
vn -0.405638 0.910825 -0.076517
vn -0.944355 0.162597 0.285931
vn -0.944355 0.162597 0.285931
vn -0.944355 0.162597 0.285931
vn -0.944355 0.162597 0.285931
vn -0.959336 0.276713 0.055718
vn -0.959336 0.276713 0.055718
vn -0.959336 0.276713 0.055718
vn -0.959336 0.276713 0.055718
vn 0.914043 -0.186342 0.360280
vn 0.914043 -0.186342 0.360280
vn 0.914043 -0.186342 0.360280
vn 0.914043 -0.186342 0.360280
vn 0.288604 -0.200321 0.936258
vn 0.288604 -0.200321 0.936258
vn 0.288604 -0.200321 0.936258
vn 0.288604 -0.200321 0.936258
vn -0.390554 -0.236401 0.889709
vn -0.390554 -0.236401 0.889709
vn -0.390554 -0.236401 0.889709
vn -0.390554 -0.236401 0.889709
vn -0.914053 -0.267164 0.305175
vn -0.914053 -0.267164 0.305175
vn -0.914053 -0.267164 0.305175
vn -0.914053 -0.267164 0.305175
vn 0.977053 -0.194224 0.087433
vn 0.977053 -0.194224 0.087433
vn 0.977053 -0.194224 0.087433
vn 0.977053 -0.194224 0.087433
vn -0.513435 -0.829023 0.221596
vn -0.513435 -0.829023 0.221596
vn -0.513435 -0.829023 0.221596
vn -0.513435 -0.829023 0.221596
vn -0.017271 -0.972117 0.233859
vn -0.017271 -0.972117 0.233859
vn -0.017271 -0.972117 0.233859
vn -0.017271 -0.972117 0.233859
vn 0.947998 -0.209576 0.239535
vn 0.947998 -0.209576 0.239535
vn 0.947998 -0.209576 0.239535
vn 0.947998 -0.209576 0.239535
vn 0.310192 -0.945355 -0.100428
vn 0.310192 -0.945355 -0.100428
vn 0.310192 -0.945355 -0.100428
vn 0.310192 -0.945355 -0.100428
vn 0.955819 -0.290748 0.043312
vn 0.955819 -0.290748 0.043312
vn 0.955819 -0.290748 0.043312
vn 0.955819 -0.290748 0.043312
vn 0.177982 -0.880154 -0.440058
vn 0.177982 -0.880154 -0.440058
vn 0.177982 -0.880154 -0.440058
vn 0.177982 -0.880154 -0.440058
vn -0.354702 -0.919568 -0.169061
vn -0.354702 -0.919568 -0.169061
vn -0.354702 -0.919568 -0.169061
vn -0.354702 -0.919568 -0.169061
vn -0.963824 -0.232563 -0.130225
vn -0.963824 -0.232563 -0.130225
vn -0.963824 -0.232563 -0.130225
vn -0.963824 -0.232563 -0.130225
vn -0.825588 -0.183383 0.533644
vn -0.825588 -0.183383 0.533644
vn -0.825588 -0.183383 0.533644
vn -0.825588 -0.183383 0.533644
vn 0.143158 -0.989399 -0.024409
vn 0.143158 -0.989399 -0.024409
vn 0.143158 -0.989399 -0.024409
vn 0.143158 -0.989399 -0.024409
vn -0.412752 -0.910042 -0.038208
vn -0.412752 -0.910042 -0.038208
vn -0.412752 -0.910042 -0.038208
vn -0.412752 -0.910042 -0.038208
vn -0.279336 -0.920522 0.273150
vn -0.279336 -0.920522 0.273150
vn -0.279336 -0.920522 0.273150
vn -0.279336 -0.920522 0.273150
vn -0.900887 -0.212001 0.378759
vn -0.900887 -0.212001 0.378759
vn -0.900887 -0.212001 0.378759
vn -0.900887 -0.212001 0.378759
vn 0.818849 -0.176500 -0.546199
vn 0.818849 -0.176500 -0.546199
vn 0.818849 -0.176500 -0.546199
vn 0.818849 -0.176500 -0.546199
vn 0.825248 -0.180950 -0.534998
vn 0.825248 -0.180950 -0.534998
vn 0.136491 -0.982076 0.129989
vn 0.136491 -0.982076 0.129989
vn 0.136491 -0.982076 0.129989
vn 0.136491 -0.982076 0.129989
vn -0.927748 -0.237763 -0.287668
vn -0.927748 -0.237763 -0.287668
vn -0.927748 -0.237763 -0.287668
vn -0.927748 -0.237763 -0.287668
vn -0.369584 -0.929012 -0.018565
vn -0.369584 -0.929012 -0.018565
vn -0.369584 -0.929012 -0.018565
vn -0.369584 -0.929012 -0.018565
vn 0.841826 -0.216530 0.494412
vn 0.841826 -0.216530 0.494412
vn 0.841826 -0.216530 0.494412
vn 0.841826 -0.216530 0.494412
vn 0.128835 -0.983646 -0.125870
vn 0.128835 -0.983646 -0.125870
vn 0.128835 -0.983646 -0.125870
vn 0.128835 -0.983646 -0.125870
vn 0.557309 -0.828020 -0.061560
vn 0.557309 -0.828020 -0.061560
vn 0.557309 -0.828020 -0.061560
vn 0.557309 -0.828020 -0.061560
vn 0.796998 -0.179653 -0.576645
vn 0.796998 -0.179653 -0.576645
vn 0.796998 -0.179653 -0.576645
vn 0.796998 -0.179653 -0.576645
vn 0.522991 -0.842043 0.132077
vn 0.522991 -0.842043 0.132077
vn 0.522991 -0.842043 0.132077
vn 0.522991 -0.842043 0.132077
vn 0.367923 -0.912567 0.178477
vn 0.367923 -0.912567 0.178477
vn 0.367923 -0.912567 0.178477
vn 0.367923 -0.912567 0.178477
vn -0.863011 -0.178172 -0.472723
vn -0.863011 -0.178172 -0.472723
vn -0.863011 -0.178172 -0.472723
vn -0.863011 -0.178172 -0.472723
vn -0.110003 -0.993440 -0.031261
vn -0.110003 -0.993440 -0.031261
vn -0.110003 -0.993440 -0.031261
vn -0.110003 -0.993440 -0.031261
vn 0.179974 -0.983622 0.009886
vn 0.179974 -0.983622 0.009886
vn 0.179974 -0.983622 0.009886
vn 0.179974 -0.983622 0.009886
vn -0.970432 -0.196240 -0.140540
vn -0.970432 -0.196240 -0.140540
vn -0.970432 -0.196240 -0.140540
vn -0.970432 -0.196240 -0.140540
vn -0.973538 -0.202250 -0.106393
vn -0.973538 -0.202250 -0.106393
vn -0.093213 -0.994864 0.039451
vn -0.093213 -0.994864 0.039451
vn -0.093213 -0.994864 0.039451
vn -0.093213 -0.994864 0.039451
vn 0.928111 -0.352743 0.119092
vn 0.928111 -0.352743 0.119092
vn 0.928111 -0.352743 0.119092
vn 0.928111 -0.352743 0.119092
vn -0.805191 -0.179982 0.565044
vn -0.805191 -0.179982 0.565044
vn -0.805191 -0.179982 0.565044
vn -0.805191 -0.179982 0.565044
vn 0.876349 -0.162336 -0.453496
vn 0.876349 -0.162336 -0.453496
vn 0.876349 -0.162336 -0.453496
vn 0.876349 -0.162336 -0.453496
vn 0.865960 -0.191332 0.462067
vn 0.865960 -0.191332 0.462067
vn 0.865960 -0.191332 0.462067
vn 0.865960 -0.191332 0.462067
vn 0.329901 -0.939781 -0.089316
vn 0.329901 -0.939781 -0.089316
vn 0.329901 -0.939781 -0.089316
vn 0.329901 -0.939781 -0.089316
vn -0.224682 -0.927330 0.299296
vn -0.224682 -0.927330 0.299296
vn -0.224682 -0.927330 0.299296
vn -0.224682 -0.927330 0.299296
vn -0.974964 -0.221331 -0.021386
vn -0.974964 -0.221331 -0.021386
vn -0.974964 -0.221331 -0.021386
vn -0.974964 -0.221331 -0.021386
vn -0.491998 -0.869358 0.046425
vn -0.491998 -0.869358 0.046425
vn -0.491998 -0.869358 0.046425
vn -0.491998 -0.869358 0.046425
vn 0.125913 -0.964982 -0.230123
vn 0.125913 -0.964982 -0.230123
vn 0.125913 -0.964982 -0.230123
vn 0.125913 -0.964982 -0.230123
vn -0.437879 -0.898994 -0.008540
vn -0.437879 -0.898994 -0.008540
vn -0.437879 -0.898994 -0.008540
vn -0.437879 -0.898994 -0.008540
vn -0.907390 -0.197531 0.370978
vn -0.907390 -0.197531 0.370978
vn -0.907390 -0.197531 0.370978
vn -0.907390 -0.197531 0.370978
vn 0.982703 -0.172607 -0.067094
vn 0.982703 -0.172607 -0.067094
vn 0.982703 -0.172607 -0.067094
vn 0.982703 -0.172607 -0.067094
vn 0.946722 -0.119274 -0.299151
vn 0.946722 -0.119274 -0.299151
vn 0.946722 -0.119274 -0.299151
vn 0.946722 -0.119274 -0.299151
vn 0.327449 -0.931005 0.161267
vn 0.327449 -0.931005 0.161267
vn 0.327449 -0.931005 0.161267
vn 0.327449 -0.931005 0.161267
vn 0.778801 -0.214482 0.589463
vn 0.778801 -0.214482 0.589463
vn 0.778801 -0.214482 0.589463
vn 0.778801 -0.214482 0.589463
vn -0.822076 -0.190918 -0.536416
vn -0.822076 -0.190918 -0.536416
vn -0.822076 -0.190918 -0.536416
vn -0.822076 -0.190918 -0.536416
vn -0.291830 -0.941133 -0.170600
vn -0.291830 -0.941133 -0.170600
vn -0.291830 -0.941133 -0.170600
vn -0.291830 -0.941133 -0.170600
vn -0.300972 -0.930579 -0.208418
vn -0.300972 -0.930579 -0.208418
vn 0.236077 -0.946211 0.221251
vn 0.236077 -0.946211 0.221251
vn 0.236077 -0.946211 0.221251
vn 0.236077 -0.946211 0.221251
vn -0.792026 -0.213460 -0.571952
vn -0.792026 -0.213460 -0.571952
vn -0.792026 -0.213460 -0.571952
vn -0.792026 -0.213460 -0.571952
vn 0.251629 -0.966447 -0.051604
vn 0.251629 -0.966447 -0.051604
vn 0.251629 -0.966447 -0.051604
vn 0.251629 -0.966447 -0.051604
vn 0.341975 -0.910816 0.231233
vn 0.341975 -0.910816 0.231233
vn 0.341975 -0.910816 0.231233
vn 0.341975 -0.910816 0.231233
vn -0.087083 -0.873226 0.479471
vn -0.087083 -0.873226 0.479471
vn -0.087083 -0.873226 0.479471
vn -0.087083 -0.873226 0.479471
vn 0.940304 -0.202085 -0.273843
vn 0.940304 -0.202085 -0.273843
vn 0.940304 -0.202085 -0.273843
vn 0.940304 -0.202085 -0.273843
vn -0.423061 -0.901420 0.091988
vn -0.423061 -0.901420 0.091988
vn -0.423061 -0.901420 0.091988
vn -0.423061 -0.901420 0.091988
vn -0.774798 -0.119782 0.620758
vn -0.774798 -0.119782 0.620758
vn -0.774798 -0.119782 0.620758
vn -0.774798 -0.119782 0.620758
vn -0.977292 -0.141792 0.157469
vn -0.977292 -0.141792 0.157469
vn -0.977292 -0.141792 0.157469
vn -0.977292 -0.141792 0.157469
vn 0.774545 -0.162393 -0.611317
vn 0.774545 -0.162393 -0.611317
vn 0.774545 -0.162393 -0.611317
vn 0.774545 -0.162393 -0.611317
vn 0.286519 -0.958058 0.005645
vn 0.286519 -0.958058 0.005645
vn 0.286519 -0.958058 0.005645
vn 0.286519 -0.958058 0.005645
vn -0.924822 -0.118203 0.361569
vn -0.924822 -0.118203 0.361569
vn -0.924822 -0.118203 0.361569
vn -0.924822 -0.118203 0.361569
vn -0.278976 -0.939400 0.199248
vn -0.278976 -0.939400 0.199248
vn -0.278976 -0.939400 0.199248
vn -0.278976 -0.939400 0.199248
vn -0.655574 -0.335936 -0.676291
vn -0.655574 -0.335936 -0.676291
vn -0.655574 -0.335936 -0.676291
vn -0.655574 -0.335936 -0.676291
vn 0.248300 -0.373877 -0.893624
vn 0.248300 -0.373877 -0.893624
vn 0.248300 -0.373877 -0.893624
vn 0.248300 -0.373877 -0.893624
vn 0.969148 -0.165356 -0.182783
vn 0.969148 -0.165356 -0.182783
vn 0.969148 -0.165356 -0.182783
vn 0.969148 -0.165356 -0.182783
vn 0.899657 -0.277138 -0.337359
vn 0.899657 -0.277138 -0.337359
vn 0.899657 -0.277138 -0.337359
vn 0.899657 -0.277138 -0.337359
vn -0.321165 -0.903108 -0.285043
vn -0.321165 -0.903108 -0.285043
vn -0.321165 -0.903108 -0.285043
vn -0.321165 -0.903108 -0.285043
vn 0.273424 -0.877382 -0.394260
vn 0.273424 -0.877382 -0.394260
vn 0.273424 -0.877382 -0.394260
vn 0.273424 -0.877382 -0.394260
vn 0.346416 -0.907722 -0.236721
vn 0.346416 -0.907722 -0.236721
vn 0.346416 -0.907722 -0.236721
vn 0.346416 -0.907722 -0.236721
vn -0.405638 -0.910825 -0.076516
vn -0.405638 -0.910825 -0.076516
vn -0.405638 -0.910825 -0.076516
vn -0.405638 -0.910825 -0.076516
vn -0.944355 -0.162597 0.285932
vn -0.944355 -0.162597 0.285932
vn -0.944355 -0.162597 0.285932
vn -0.944355 -0.162597 0.285932
vn -0.959336 -0.276713 0.055718
vn -0.959336 -0.276713 0.055718
vn -0.959336 -0.276713 0.055718
vn -0.959336 -0.276713 0.055718
g KetchupMustard_Cheese
usemtl Cheese
f 1 2 3
f 1 3 4
f 5 6 7
f 5 7 8
f 9 10 11
f 9 11 12
f 13 14 15
f 13 15 16
f 17 18 19
f 17 19 20
f 21 22 23
f 21 23 24
f 25 26 27
f 25 27 28
f 29 30 31
f 29 31 32
f 33 34 35
f 33 35 36
f 37 38 39
f 37 39 40
f 41 42 43
f 41 43 44
f 45 46 47
f 45 47 48
f 49 50 51
f 49 51 52
f 53 54 55
f 53 55 56
f 57 58 59
f 57 59 60
f 61 62 63
f 61 63 64
f 65 66 67
f 65 67 68
f 69 70 71
f 69 71 72
f 72 71 73
f 72 73 74
f 75 76 77
f 75 77 78
f 79 80 81
f 79 81 82
f 83 84 85
f 83 85 86
f 87 88 89
f 87 89 90
f 91 92 93
f 91 93 94
f 95 96 97
f 95 97 98
f 99 100 101
f 99 101 102
f 103 104 105
f 103 106 104
f 103 107 106
f 103 108 107
f 109 110 111
f 109 111 112
f 113 114 115
f 113 115 116
f 117 118 119
f 117 119 120
f 121 122 123
f 121 123 124
f 125 126 127
f 125 127 128
f 129 130 131
f 129 131 132
f 133 134 135
f 133 135 136
f 137 138 139
f 137 139 140
f 141 142 143
f 141 143 144
f 145 146 147
f 145 147 148
f 149 150 151
f 149 151 152
f 153 154 155
f 153 155 156
f 157 158 159
f 157 159 160
f 161 162 163
f 161 163 164
f 165 166 167
f 165 167 168
f 169 170 171
f 169 171 172
f 173 174 175
f 173 175 176
f 177 178 179
f 177 179 180
f 181 182 183
f 181 183 184
f 185 186 187
f 185 187 188
f 189 190 191
f 189 191 192
f 193 194 195
f 193 195 196
f 197 198 199
f 197 199 200
f 201 202 203
f 201 203 204
f 205 206 207
f 205 207 208
f 209 210 211
f 209 211 212
f 213 214 215
f 213 215 216
f 217 218 219
f 217 219 220
f 221 222 223
f 221 223 224
f 225 226 227
f 225 227 228
f 229 230 231
f 229 231 232
f 233 234 235
f 233 235 236
f 237 238 239
f 237 239 240
f 241 242 243
f 241 243 244
f 245 246 247
f 245 247 248
f 249 250 251
f 249 251 252
f 253 254 255
f 253 255 256
f 257 258 259
f 257 259 260
f 261 262 263
f 261 263 264
f 265 266 267
f 265 267 268
f 269 270 271
f 269 271 272
f 273 274 275
f 273 275 276
f 277 278 279
f 277 279 280
f 281 282 283
f 281 283 284
f 285 286 287
f 285 287 288
f 289 290 291
f 289 291 292
f 293 294 295
f 293 295 296
f 297 298 299
f 297 299 300
f 301 302 303
f 301 303 304
f 305 306 307
f 305 307 308
f 309 310 311
f 309 311 312
f 313 314 315
f 313 315 316
f 317 318 319
f 317 319 320
f 317 320 321
f 317 321 322
f 323 324 325
f 323 326 324
f 323 327 326
f 323 328 327
f 329 330 331
f 329 331 332
f 333 334 335
f 333 335 336
f 337 338 339
f 337 339 340
f 341 342 343
f 341 343 344
f 345 346 347
f 345 347 348
f 349 350 351
f 349 351 352
f 353 354 355
f 353 355 356
f 357 358 359
f 357 359 360
f 361 362 363
f 361 363 364
f 365 366 367
f 365 367 368
f 369 370 371
f 369 371 372
f 373 374 375
f 373 375 376
f 377 378 379
f 377 379 380
f 381 382 383
f 381 383 384
f 385 386 387
f 385 387 388
f 389 390 391
f 389 391 392
f 393 394 395
f 393 395 396
f 397 398 399
f 397 399 400
f 401 402 403
f 401 403 404
f 405 406 407
f 405 407 408
f 409 410 411
f 409 411 412
f 413 414 415
f 413 415 416
f 417 418 419
f 417 419 420
f 421 422 423
f 421 423 424
f 425 426 427
f 425 427 428
f 429 430 431
f 429 431 432
f 433 434 435
f 433 435 436
f 437 438 439
f 437 439 440
f 441 442 443
f 441 443 444
f 445 446 447
f 445 447 448
f 449 450 451
f 449 451 452
f 453 454 455
f 453 455 456
f 457 458 459
f 457 459 460
f 461 462 463
f 461 463 464
f 465 466 467
f 465 467 468
f 469 470 471
f 469 471 472
f 473 474 475
f 473 475 476
f 477 478 479
f 477 480 478
f 480 481 478
f 480 482 481
f 483 484 485
f 483 485 486
f 487 488 489
f 487 489 490
f 491 492 493
f 491 493 494
f 495 496 497
f 495 497 498
f 499 500 501
f 499 501 502
f 503 504 505
f 503 505 506
f 507 508 509
f 507 509 510
f 511 512 513
f 511 513 514
f 511 514 515
f 511 515 516
f 517 518 519
f 517 519 520
f 521 522 523
f 521 523 524
f 525 526 527
f 525 527 528
f 529 530 531
f 529 531 532
f 533 534 535
f 533 535 536
f 537 538 539
f 537 539 540
f 541 542 543
f 541 543 544
f 545 546 547
f 545 547 548
f 549 550 551
f 549 551 552
f 553 554 555
f 553 555 556
f 557 558 559
f 557 559 560
f 561 562 563
f 561 563 564
f 565 566 567
f 565 567 568
f 569 570 571
f 569 571 572
f 573 574 575
f 573 575 576
f 577 578 579
f 577 579 580
f 581 582 583
f 581 583 584
f 585 586 587
f 585 587 588
f 589 590 591
f 589 591 592
f 593 594 595
f 593 595 596
f 597 598 599
f 597 599 600
f 601 602 603
f 601 603 604
f 605 606 607
f 605 607 608
f 609 610 611
f 609 611 612
f 613 614 615
f 613 615 616
f 617 618 619
f 617 619 620
f 621 622 623
f 621 623 624
f 625 626 627
f 625 627 628
f 629 630 631
f 629 631 632
f 633 634 635
f 633 635 636
f 637 638 639
f 637 639 640
f 641 642 643
f 641 643 644
f 645 646 647
f 645 647 648
f 649 650 651
f 649 651 652
f 653 654 655
f 653 655 656
f 657 658 659
f 657 659 660
f 661 662 663
f 661 663 664
f 665 666 667
f 665 667 668
f 669 670 671
f 669 671 672
f 673 674 675
f 673 675 676
f 677 678 679
f 677 679 680
f 681 682 683
f 681 683 684
f 685 686 687
f 685 687 688
f 689 690 691
f 689 691 692
f 693 694 695
f 693 695 696
f 697 698 699
f 697 699 700
f 701 702 703
f 701 703 704
f 705 706 707
f 705 707 708
f 709 710 711
f 709 711 712
f 713 714 715
f 713 715 716
f 717 718 719
f 717 719 720
f 721 722 723
f 721 723 724
f 725 726 727
f 725 728 726
f 725 729 728
f 725 730 729
f 731 732 733
f 731 733 734
f 731 734 735
f 731 735 736
f 737 738 739
f 737 739 740
f 741 742 743
f 741 743 744
f 745 746 747
f 745 747 748
f 749 750 751
f 749 751 752
f 753 754 755
f 753 755 756
f 757 758 759
f 757 759 760
f 761 762 763
f 761 763 764
f 765 766 767
f 765 767 768
f 769 770 771
f 769 771 772
f 773 774 775
f 773 775 776
f 777 778 779
f 777 779 780
f 781 782 783
f 781 783 784
f 785 786 787
f 785 787 788
f 789 790 791
f 789 791 792
f 793 794 795
f 793 795 796
f 797 798 799
f 797 799 800
f 801 802 803
f 801 803 804
f 805 806 807
f 805 807 808
f 809 810 811
f 809 811 812
f 813 814 815
f 813 815 816
g KetchupMustard_Red
usemtl Red
f 817 818 819
f 817 819 820
f 821 822 823
f 821 823 824
f 825 826 827
f 825 827 828
f 829 830 831
f 829 831 832
f 833 834 835
f 833 835 836
f 837 838 839
f 837 839 840
f 841 842 843
f 841 843 844
f 845 846 847
f 845 847 848
f 849 850 851
f 849 851 852
f 853 854 855
f 853 855 856
f 857 858 859
f 857 859 860
f 861 862 863
f 861 863 864
f 865 866 867
f 865 867 868
f 869 870 871
f 869 871 872
f 873 874 875
f 873 875 876
f 877 878 879
f 877 879 880
f 881 882 883
f 881 883 884
f 885 886 887
f 885 887 888
f 889 890 891
f 889 891 892
f 889 892 893
f 889 893 894
f 895 896 897
f 895 897 898
f 899 900 901
f 899 901 902
f 903 904 905
f 903 905 906
f 907 908 909
f 907 909 910
f 911 912 913
f 911 913 914
f 915 916 917
f 915 917 918
f 919 920 921
f 919 921 922
f 923 924 925
f 923 925 926
f 927 928 929
f 927 929 930
f 931 932 933
f 931 933 934
f 935 936 937
f 935 937 938
f 939 940 941
f 939 941 942
f 943 944 945
f 943 945 946
f 947 943 946
f 947 946 948
f 949 950 951
f 949 951 952
f 953 954 955
f 953 955 956
f 957 958 959
f 957 959 960
f 961 962 963
f 961 963 964
f 965 966 967
f 965 967 968
f 969 970 971
f 969 971 972
f 973 974 975
f 973 975 976
f 977 978 979
f 977 979 980
f 981 982 983
f 981 983 984
f 985 986 987
f 985 987 988
f 989 990 991
f 989 991 992
f 993 994 995
f 993 995 996
f 997 998 999
f 997 999 1000
f 1001 1002 1003
f 1001 1003 1004
f 1005 1006 1007
f 1005 1007 1008
f 1009 1010 1011
f 1009 1011 1012
f 1013 1014 1015
f 1013 1015 1016
f 1017 1018 1019
f 1017 1020 1018
f 1017 1021 1020
f 1017 1022 1021
f 1023 1024 1025
f 1023 1025 1026
f 1027 1028 1029
f 1027 1029 1030
f 1031 1032 1033
f 1031 1033 1034
f 1035 1036 1037
f 1035 1037 1038
f 1039 1040 1041
f 1039 1041 1042
f 1043 1044 1045
f 1043 1045 1046
f 1047 1048 1049
f 1047 1049 1050
f 1051 1052 1053
f 1051 1053 1054
f 1055 1056 1057
f 1055 1057 1058
f 1059 1060 1061
f 1059 1061 1062
f 1063 1064 1065
f 1063 1065 1066
f 1067 1068 1069
f 1067 1069 1070
f 1071 1072 1073
f 1071 1073 1074
f 1075 1076 1077
f 1075 1077 1078
f 1079 1080 1081
f 1079 1081 1082
f 1083 1084 1085
f 1083 1085 1086
f 1087 1088 1089
f 1087 1089 1090
f 1091 1092 1093
f 1091 1093 1094
f 1095 1096 1097
f 1095 1097 1098
f 1099 1100 1101
f 1099 1101 1102
f 1103 1104 1105
f 1103 1105 1106
f 1107 1108 1109
f 1107 1109 1110
f 1111 1112 1113
f 1111 1113 1114
f 1115 1116 1117
f 1115 1117 1118
f 1119 1120 1121
f 1119 1121 1122
f 1123 1124 1125
f 1123 1125 1126
f 1127 1128 1129
f 1127 1129 1130
f 1131 1132 1133
f 1131 1133 1134
f 1135 1136 1137
f 1135 1137 1138
f 1139 1140 1141
f 1139 1141 1142
f 1143 1144 1145
f 1143 1145 1146
f 1147 1148 1149
f 1147 1149 1150
f 1151 1152 1153
f 1151 1153 1154
f 1155 1156 1157
f 1155 1157 1158
f 1159 1160 1161
f 1159 1161 1162
f 1163 1164 1165
f 1163 1165 1166
f 1167 1168 1169
f 1167 1169 1170
f 1171 1172 1173
f 1171 1173 1174
f 1175 1176 1177
f 1175 1177 1178
f 1179 1180 1181
f 1179 1181 1182
f 1183 1184 1185
f 1183 1185 1186
f 1187 1188 1189
f 1187 1190 1188
f 1187 1191 1190
f 1187 1192 1191
f 1193 1194 1195
f 1193 1195 1196
f 1197 1198 1199
f 1197 1199 1200
f 1201 1202 1203
f 1201 1203 1204
f 1205 1206 1207
f 1205 1207 1208
f 1209 1210 1211
f 1209 1211 1212
f 1213 1214 1215
f 1213 1215 1216
f 1217 1218 1219
f 1217 1219 1220
f 1221 1222 1223
f 1221 1223 1224
f 1225 1226 1227
f 1225 1227 1228
f 1229 1230 1231
f 1229 1231 1232
f 1233 1234 1235
f 1233 1235 1236
f 1237 1238 1239
f 1237 1239 1240
f 1241 1242 1243
f 1241 1244 1242
f 1245 1244 1241
f 1245 1246 1244
f 1247 1248 1249
f 1247 1249 1250
f 1251 1252 1253
f 1251 1253 1254
f 1255 1256 1257
f 1255 1257 1258
f 1259 1260 1261
f 1259 1261 1262
f 1263 1264 1265
f 1263 1265 1266
f 1267 1268 1269
f 1267 1269 1270
f 1271 1272 1273
f 1271 1273 1274
f 1275 1276 1277
f 1275 1277 1278
f 1279 1280 1281
f 1279 1281 1282
f 1283 1284 1285
f 1283 1285 1286
f 1287 1288 1289
f 1287 1289 1290
f 1291 1292 1293
f 1291 1293 1294
f 1295 1296 1297
f 1295 1297 1298
f 1299 1300 1301
f 1299 1301 1302
f 1303 1304 1305
f 1303 1305 1306
f 1307 1308 1309
f 1307 1309 1310
f 1311 1312 1313
f 1311 1313 1314
f 1315 1316 1317
f 1315 1317 1318
f 1315 1318 1319
f 1315 1319 1320
f 1321 1322 1323
f 1321 1323 1324
f 1325 1326 1327
f 1325 1327 1328
f 1329 1330 1331
f 1329 1331 1332
f 1333 1334 1335
f 1333 1335 1336
f 1337 1338 1339
f 1337 1339 1340
f 1341 1342 1343
f 1341 1343 1344
f 1345 1346 1347
f 1345 1347 1348
f 1349 1350 1351
f 1349 1351 1352
f 1353 1354 1355
f 1353 1355 1356
f 1357 1358 1359
f 1357 1359 1360
f 1361 1362 1363
f 1361 1363 1364
f 1365 1366 1367
f 1365 1367 1368
f 1369 1370 1371
f 1369 1371 1372
f 1373 1374 1375
f 1373 1375 1376
f 1377 1378 1379
f 1377 1379 1380
f 1381 1382 1383
f 1381 1383 1384
f 1385 1386 1387
f 1385 1387 1388
f 1389 1390 1391
f 1389 1391 1392
f 1393 1394 1395
f 1393 1395 1396
f 1397 1398 1399
f 1397 1399 1400
f 1401 1402 1403
f 1401 1403 1404
f 1405 1406 1407
f 1405 1407 1408
f 1409 1410 1411
f 1409 1411 1412
