mtllib Materials.mtl
# Ultimate Food Pack - Knife
o Knife
v -0.057714 0.000000 1.200527
v -0.042883 0.000000 1.272153
v -0.001799 0.000000 1.291942
v 0.000000 0.000000 1.200527
v 0.042883 0.000000 1.272153
v -0.034088 0.010025 0.183148
v 0.057714 0.000000 1.200527
v 0.000000 0.010025 0.183148
v -0.032462 0.010715 0.113125
v 0.034088 0.010025 0.183148
v 0.000000 0.010715 0.113125
v -0.029633 0.011916 -0.008695
v 0.091306 0.010715 0.113125
v 0.000000 0.011916 -0.008695
v -0.026804 0.013116 -0.130515
v 0.104219 0.011916 -0.011694
v 0.000000 0.013116 -0.130515
v -0.026804 0.013116 -0.276792
v 0.097642 0.013116 -0.135013
v 0.000000 0.013116 -0.276792
v -0.026804 0.013116 -0.423069
v 0.083889 0.013116 -0.265725
v 0.000000 0.013116 -0.423069
v -0.026804 0.013116 -0.569347
v 0.070136 0.013116 -0.409931
v 0.000000 0.013116 -0.569347
v -0.026804 0.013116 -0.715624
v 0.060880 0.013116 -0.545141
v 0.000000 0.013116 -0.715624
v 0.050125 0.013116 -0.663859
v -0.057714 -0.019914 1.200259
v -0.001799 -0.019914 1.291675
v -0.042883 -0.019914 1.271885
v 0.000000 -0.019914 1.200259
v 0.042883 -0.019914 1.271885
v -0.034088 -0.009889 0.182881
v 0.057714 -0.019914 1.200259
v 0.000000 -0.009889 0.182881
v -0.032462 -0.009199 0.112857
v 0.034088 -0.009889 0.182881
v 0.000000 -0.009199 0.112857
v -0.029633 -0.007998 -0.008963
v 0.091306 -0.009199 0.112857
v 0.000000 -0.007998 -0.008963
v 0.104219 -0.007998 -0.011961
v -0.026804 -0.006798 -0.130782
v 0.000000 -0.006798 -0.130782
v 0.097642 -0.006798 -0.135280
v 0.083889 -0.006798 -0.265993
v 0.000000 -0.006798 -0.277060
v -0.026804 -0.006798 -0.277060
v 0.070136 -0.006798 -0.410198
v 0.000000 -0.006798 -0.423337
v -0.026804 -0.006798 -0.423337
v 0.060880 -0.006798 -0.545408
v 0.000000 -0.006798 -0.569614
v 0.050125 -0.006798 -0.664127
v -0.026804 -0.006798 -0.569614
v 0.000000 -0.006798 -0.715891
v -0.026804 -0.006798 -0.715891
v 0.057714 0.000000 1.200527
v 0.042883 0.000000 1.272153
v 0.042883 -0.019914 1.271885
v 0.057714 -0.019914 1.200259
v -0.001799 0.000000 1.291942
v -0.042883 0.000000 1.272153
v -0.042883 -0.019914 1.271885
v -0.001799 -0.019914 1.291675
v 0.097642 0.013116 -0.135013
v 0.104219 0.011916 -0.011694
v 0.104219 -0.007998 -0.011961
v 0.097642 -0.006798 -0.135280
v 0.060880 -0.006798 -0.545408
v 0.050125 -0.006798 -0.664127
v 0.050125 0.013116 -0.663859
v 0.060880 0.013116 -0.545141
v 0.070136 -0.006798 -0.410198
v 0.070136 0.013116 -0.409931
v 0.083889 -0.006798 -0.265993
v 0.083889 0.013116 -0.265725
v 0.097642 -0.006798 -0.135280
v 0.097642 0.013116 -0.135013
v -0.026804 0.013116 -0.569347
v -0.026804 0.013116 -0.715624
v -0.026804 -0.006798 -0.715891
v -0.026804 -0.006798 -0.569614
v -0.026804 0.013116 -0.423069
v -0.026804 -0.006798 -0.423337
v -0.026804 0.013116 -0.276792
v -0.026804 -0.006798 -0.277060
v -0.026804 0.013116 -0.130515
v -0.026804 -0.006798 -0.130782
v -0.029633 0.011916 -0.008695
v -0.029633 -0.007998 -0.008963
v -0.032462 0.010715 0.113125
v -0.032462 -0.009199 0.112857
v -0.034088 0.010025 0.183148
v -0.034088 -0.009889 0.182881
v -0.057714 0.000000 1.200527
v -0.057714 -0.019914 1.200259
v 0.034088 0.010025 0.183148
v 0.057714 0.000000 1.200527
v 0.057714 -0.019914 1.200259
v 0.034088 -0.009889 0.182881
v 0.042883 0.000000 1.272153
v -0.001799 0.000000 1.291942
v -0.001799 -0.019914 1.291675
v 0.042883 -0.019914 1.271885
v 0.104219 0.011916 -0.011694
v 0.091306 0.010715 0.113125
v 0.091306 -0.009199 0.112857
v 0.104219 -0.007998 -0.011961
v -0.042883 0.000000 1.272153
v -0.057714 0.000000 1.200527
v -0.057714 -0.019914 1.200259
v -0.042883 -0.019914 1.271885
v 0.091306 0.010715 0.113125
v 0.034088 0.010025 0.183148
v 0.034088 -0.009889 0.182881
v 0.091306 -0.009199 0.112857
vn 0.000000 1.000000 0.000000
vn 0.000000 1.000000 0.000000
vn 0.000000 1.000000 0.000000
vn 0.000000 1.000000 0.000000
vn 0.000000 1.000000 0.000000
vn 0.000000 0.999952 0.009854
vn 0.000000 1.000000 0.000000
vn 0.000000 0.999952 0.009854
vn 0.000000 0.999952 0.009854
vn 0.000000 0.999952 0.009854
vn 0.000000 0.999952 0.009854
vn 0.000000 0.999952 0.009854
vn 0.000149 0.999953 0.009742
vn 0.000000 0.999952 0.009854
vn 0.000000 0.999952 0.009854
vn 0.000363 0.999952 0.009784
vn 0.000000 0.999952 0.009854
vn 0.000000 1.000000 0.000000
vn 0.000363 0.999952 0.009784
vn 0.000000 1.000000 0.000000
vn 0.000000 1.000000 0.000000
vn 0.000000 1.000000 0.000000
vn 0.000000 1.000000 0.000000
vn 0.000000 1.000000 0.000000
vn 0.000000 1.000000 0.000000
vn 0.000000 1.000000 0.000000
vn 0.000000 1.000000 0.000000
vn 0.000000 1.000000 0.000000
vn 0.000000 1.000000 0.000000
vn 0.000000 1.000000 0.000000
vn 0.000000 -1.000000 0.000000
vn 0.000000 -1.000000 0.000000
vn 0.000000 -1.000000 0.000000
vn 0.000000 -1.000000 0.000000
vn 0.000000 -1.000000 0.000000
vn 0.000000 -0.999952 -0.009854
vn 0.000000 -1.000000 0.000000
vn 0.000000 -0.999952 -0.009854
vn 0.000000 -0.999952 -0.009854
vn 0.000000 -0.999952 -0.009854
vn 0.000000 -0.999952 -0.009854
vn 0.000000 -0.999952 -0.009854
vn -0.000149 -0.999953 -0.009742
vn 0.000000 -0.999952 -0.009854
vn -0.000363 -0.999952 -0.009784
vn 0.000000 -0.999952 -0.009854
vn 0.000000 -0.999952 -0.009854
vn -0.000363 -0.999952 -0.009784
vn 0.000000 -1.000000 0.000000
vn 0.000000 -1.000000 0.000000
vn 0.000000 -1.000000 0.000000
vn 0.000000 -1.000000 0.000000
vn 0.000000 -1.000000 0.000000
vn 0.000000 -1.000000 0.000000
vn 0.000000 -1.000000 0.000000
vn 0.000000 -1.000000 0.000000
vn 0.000000 -1.000000 0.000000
vn 0.000000 -1.000000 0.000000
vn 0.000000 -1.000000 0.000000
vn 0.000000 -1.000000 0.000000
vn 0.979225 -0.002726 0.202760
vn 0.979225 -0.002726 0.202760
vn 0.979225 -0.002726 0.202760
vn 0.979225 -0.002726 0.202760
vn -0.433931 -0.012093 0.900865
vn -0.433931 -0.012093 0.900865
vn -0.433931 -0.012093 0.900865
vn -0.433931 -0.012093 0.900865
vn 0.998581 0.000713 -0.053250
vn 0.998581 0.000713 -0.053250
vn 0.998581 0.000713 -0.053250
vn 0.998581 0.000713 -0.053250
vn 0.995921 0.001209 -0.090221
vn 0.995921 0.001209 -0.090221
vn 0.995921 0.001209 -0.090221
vn 0.995921 0.001209 -0.090221
vn 0.995482 0.001273 -0.094941
vn 0.995482 0.001273 -0.094941
vn 0.994509 0.001404 -0.104639
vn 0.994509 0.001404 -0.104639
vn 0.994509 0.001404 -0.104639
vn 0.994509 0.001404 -0.104639
vn -1.000000 0.000002 0.000000
vn -1.000000 0.000002 0.000000
vn -1.000000 0.000002 0.000000
vn -1.000000 0.000002 0.000000
vn -1.000000 0.000002 0.000000
vn -1.000000 0.000002 0.000000
vn -1.000000 0.000002 0.000000
vn -1.000000 0.000002 0.000000
vn -0.999731 0.000314 -0.023213
vn -0.999731 0.000314 -0.023213
vn -0.999731 0.000314 -0.023213
vn -0.999731 0.000314 -0.023213
vn -0.999731 0.000314 -0.023213
vn -0.999731 0.000314 -0.023213
vn -0.999731 0.000314 -0.023213
vn -0.999731 0.000314 -0.023213
vn -0.999731 0.000314 -0.023213
vn -0.999731 0.000314 -0.023213
vn 0.999731 0.000310 -0.023213
vn 0.999731 0.000310 -0.023213
vn 0.999731 0.000310 -0.023213
vn 0.999731 0.000310 -0.023213
vn 0.404924 -0.012277 0.914268
vn 0.404924 -0.012277 0.914268
vn 0.404924 -0.012277 0.914268
vn 0.404924 -0.012277 0.914268
vn 0.994692 -0.001384 0.102890
vn 0.994692 -0.001384 0.102890
vn 0.994692 -0.001384 0.102890
vn 0.994692 -0.001384 0.102890
vn -0.979225 -0.002722 0.202760
vn -0.979225 -0.002722 0.202760
vn -0.979225 -0.002722 0.202760
vn -0.979225 -0.002722 0.202760
vn 0.774371 -0.008500 0.632675
vn 0.774371 -0.008500 0.632675
vn 0.774371 -0.008500 0.632675
vn 0.774371 -0.008500 0.632675
g Knife_Metal
usemtl Metal
f 1 2 3
f 1 3 4
f 4 3 5
f 4 6 1
f 4 5 7
f 4 8 6
f 7 8 4
f 8 9 6
f 7 10 8
f 8 11 9
f 10 11 8
f 11 12 9
f 10 13 11
f 11 14 12
f 13 14 11
f 14 15 12
f 13 16 14
f 14 17 15
f 16 17 14
f 17 18 15
f 16 19 17
f 17 20 18
f 19 20 17
f 20 21 18
f 19 22 20
f 20 23 21
f 22 23 20
f 23 24 21
f 22 25 23
f 23 26 24
f 25 26 23
f 26 27 24
f 25 28 26
f 26 29 27
f 28 29 26
f 28 30 29
f 31 32 33
f 31 34 32
f 34 35 32
f 34 31 36
f 34 37 35
f 34 36 38
f 37 34 38
f 38 36 39
f 37 38 40
f 38 39 41
f 40 38 41
f 41 39 42
f 40 41 43
f 41 42 44
f 43 41 44
f 43 44 45
f 44 42 46
f 45 44 47
f 44 46 47
f 45 47 48
f 47 49 48
f 46 50 47
f 47 50 49
f 46 51 50
f 50 52 49
f 51 53 50
f 50 53 52
f 51 54 53
f 53 55 52
f 54 56 53
f 53 56 55
f 56 57 55
f 54 58 56
f 56 59 57
f 58 59 56
f 58 60 59
f 61 62 63
f 61 63 64
f 65 66 67
f 65 67 68
f 69 70 71
f 69 71 72
f 73 74 75
f 73 75 76
f 77 73 76
f 77 76 78
f 79 77 78
f 79 78 80
f 81 79 80
f 81 80 82
f 83 84 85
f 83 85 86
f 87 83 86
f 87 86 88
f 89 87 88
f 89 88 90
f 91 89 90
f 91 90 92
f 93 91 92
f 93 92 94
f 95 93 94
f 95 94 96
f 97 95 96
f 97 96 98
f 99 97 98
f 99 98 100
f 101 102 103
f 101 103 104
f 105 106 107
f 105 107 108
f 109 110 111
f 109 111 112
f 113 114 115
f 113 115 116
f 117 118 119
f 117 119 120
