mtllib Materials.mtl
# Ultimate Food Pack - Lettuce_Whole
o Lettuce_Whole
v -0.128766 -0.526779 -0.136649
v -0.399381 -0.450739 -0.387556
v -0.453315 -0.450739 -0.059882
v -0.333664 -0.526779 0.068249
v -0.399381 -0.450739 -0.387556
v -0.445755 -0.164326 -0.433930
v -0.629041 -0.164326 0.023097
v -0.453315 -0.450739 -0.059882
v -0.445755 -0.164326 -0.433930
v -0.609989 0.150910 0.032422
v -0.629041 -0.164326 0.023097
v -0.431567 0.150910 -0.419741
v -0.609989 0.307682 0.032422
v -0.400597 0.632088 -0.389620
v -0.128766 -0.526779 -0.136649
v 0.256030 -0.526779 -0.161650
v 0.076132 -0.526779 -0.341547
v 0.051132 -0.526779 0.043249
v -0.333664 -0.526779 0.068249
v -0.153766 -0.526779 0.248147
v -0.060996 -0.164326 -0.595316
v -0.431567 0.150910 -0.419741
v -0.445755 -0.164326 -0.433930
v -0.051671 0.150910 -0.576264
v -0.400597 0.632088 -0.389620
v -0.051671 0.307682 -0.576264
v -0.051998 -0.450740 -0.461198
v -0.060996 -0.164326 -0.595316
v -0.445755 -0.164326 -0.433930
v -0.399381 -0.450739 -0.387556
v 0.076132 -0.526779 -0.341547
v -0.051998 -0.450740 -0.461198
v -0.399381 -0.450739 -0.387556
v -0.128766 -0.526779 -0.136649
v -0.136649 -0.526779 0.128766
v -0.387556 -0.450739 0.399382
v -0.059882 -0.450739 0.453315
v 0.068249 -0.526778 0.333664
v -0.387556 -0.450739 0.399382
v -0.433929 -0.164326 0.445755
v 0.023097 -0.164326 0.629041
v -0.059882 -0.450739 0.453315
v -0.433929 -0.164326 0.445755
v 0.032422 0.150910 0.609989
v 0.023097 -0.164326 0.629041
v -0.419741 0.150910 0.431567
v 0.032422 0.307682 0.609989
v -0.389619 0.632088 0.400597
v -0.136649 -0.526779 0.128766
v -0.161650 -0.526779 -0.256030
v -0.341548 -0.526779 -0.076132
v 0.043248 -0.526779 -0.051132
v 0.068249 -0.526778 0.333664
v 0.248147 -0.526779 0.153766
v -0.595316 -0.164326 0.060996
v -0.419741 0.150910 0.431567
v -0.433929 -0.164326 0.445755
v -0.576264 0.150910 0.051671
v -0.389619 0.632088 0.400597
v -0.576264 0.307682 0.051671
v -0.461198 -0.450739 0.051998
v -0.595316 -0.164326 0.060996
v -0.433929 -0.164326 0.445755
v -0.387556 -0.450739 0.399382
v -0.341548 -0.526779 -0.076132
v -0.461198 -0.450739 0.051998
v -0.387556 -0.450739 0.399382
v -0.136649 -0.526779 0.128766
v 0.136650 -0.526779 -0.128766
v 0.387556 -0.450739 -0.399381
v 0.059882 -0.450740 -0.453314
v -0.068249 -0.526779 -0.333664
v 0.387556 -0.450739 -0.399381
v 0.433930 -0.164326 -0.445755
v -0.023097 -0.164326 -0.629041
v 0.059882 -0.450740 -0.453314
v 0.433930 -0.164326 -0.445755
v -0.032422 0.150910 -0.609989
v -0.023097 -0.164326 -0.629041
v 0.419741 0.150910 -0.431567
v -0.032422 0.307682 -0.609989
v 0.389620 0.632088 -0.400597
v 0.136650 -0.526779 -0.128766
v 0.161650 -0.526779 0.256030
v 0.341548 -0.526779 0.076132
v -0.043248 -0.526779 0.051132
v -0.068249 -0.526779 -0.333664
v -0.248147 -0.526779 -0.153766
v 0.595316 -0.164326 -0.060996
v 0.419741 0.150910 -0.431567
v 0.433930 -0.164326 -0.445755
v 0.576264 0.150910 -0.051671
v 0.389620 0.632088 -0.400597
v 0.576264 0.307682 -0.051671
v 0.461198 -0.450739 -0.051998
v 0.595316 -0.164326 -0.060996
v 0.433930 -0.164326 -0.445755
v 0.387556 -0.450739 -0.399381
v 0.341548 -0.526779 0.076132
v 0.461198 -0.450739 -0.051998
v 0.387556 -0.450739 -0.399381
v 0.136650 -0.526779 -0.128766
v 0.128766 -0.526779 0.136650
v 0.399381 -0.450739 0.387556
v 0.453314 -0.450739 0.059882
v 0.333664 -0.526779 -0.068249
v 0.399381 -0.450739 0.387556
v 0.445755 -0.164326 0.433930
v 0.629041 -0.164326 -0.023097
v 0.453314 -0.450739 0.059882
v 0.445755 -0.164326 0.433930
v 0.609989 0.150910 -0.032422
v 0.629041 -0.164326 -0.023097
v 0.431567 0.150910 0.419741
v 0.609989 0.307682 -0.032422
v 0.400597 0.632088 0.389619
v 0.128766 -0.526779 0.136650
v -0.256030 -0.526779 0.161650
v -0.076132 -0.526778 0.341548
v -0.051132 -0.526779 -0.043248
v 0.333664 -0.526779 -0.068249
v 0.153766 -0.526779 -0.248146
v 0.060996 -0.164326 0.595316
v 0.431567 0.150910 0.419741
v 0.445755 -0.164326 0.433930
v 0.051671 0.150910 0.576264
v 0.400597 0.632088 0.389619
v 0.051671 0.307682 0.576264
v 0.051998 -0.450739 0.461198
v 0.060996 -0.164326 0.595316
v 0.445755 -0.164326 0.433930
v 0.399381 -0.450739 0.387556
v -0.076132 -0.526778 0.341548
v 0.051998 -0.450739 0.461198
v 0.399381 -0.450739 0.387556
v 0.128766 -0.526779 0.136650
v -0.131724 -0.557310 -0.139622
v -0.337577 -0.557288 0.066347
v -0.472597 -0.473830 -0.066572
v -0.415838 -0.471159 -0.403740
v -0.415838 -0.471159 -0.403740
v -0.472597 -0.473830 -0.066572
v -0.657890 -0.167591 0.012762
v -0.467474 -0.168697 -0.455352
v -0.467474 -0.168697 -0.455352
v -0.657890 -0.167591 0.012762
v -0.638467 0.152844 0.020802
v -0.453494 0.153000 -0.441295
v -0.638363 0.309619 0.020553
v -0.422912 0.634169 -0.410772
v -0.131724 -0.557310 -0.139622
v 0.074150 -0.557281 -0.345477
v 0.256030 -0.557597 -0.161650
v 0.051132 -0.557597 0.043249
v -0.337577 -0.557288 0.066347
v -0.153766 -0.557597 0.248147
v -0.071642 -0.167975 -0.624005
v -0.467474 -0.168697 -0.455352
v -0.453494 0.153000 -0.441295
v -0.063774 0.152844 -0.604540
v -0.422912 0.634169 -0.410772
v -0.064066 0.309612 -0.604413
v -0.058902 -0.474287 -0.479842
v -0.415838 -0.471159 -0.403740
v -0.467474 -0.168697 -0.455352
v -0.071642 -0.167975 -0.624005
v 0.074150 -0.557281 -0.345477
v -0.131724 -0.557310 -0.139622
v -0.415838 -0.471159 -0.403740
v -0.058902 -0.474287 -0.479842
v -0.139622 -0.557310 0.131724
v 0.066347 -0.557287 0.337577
v -0.066572 -0.473829 0.472597
v -0.403740 -0.471159 0.415838
v -0.403740 -0.471159 0.415838
v -0.066572 -0.473829 0.472597
v 0.012762 -0.167591 0.657890
v -0.455352 -0.168697 0.467474
v -0.455352 -0.168697 0.467474
v 0.012762 -0.167591 0.657890
v 0.020802 0.152844 0.638467
v -0.441295 0.153000 0.453494
v 0.020553 0.309619 0.638363
v -0.410772 0.634169 0.422912
v -0.139622 -0.557310 0.131724
v -0.345477 -0.557281 -0.074150
v -0.161650 -0.557597 -0.256030
v 0.043248 -0.557597 -0.051132
v 0.066347 -0.557287 0.337577
v 0.248147 -0.557597 0.153766
v -0.624006 -0.167975 0.071643
v -0.455352 -0.168697 0.467474
v -0.441295 0.153000 0.453494
v -0.604540 0.152844 0.063774
v -0.410772 0.634169 0.422912
v -0.604413 0.309612 0.064067
v -0.479842 -0.474287 0.058902
v -0.403740 -0.471159 0.415838
v -0.455352 -0.168697 0.467474
v -0.624006 -0.167975 0.071643
v -0.345477 -0.557281 -0.074150
v -0.139622 -0.557310 0.131724
v -0.403740 -0.471159 0.415838
v -0.479842 -0.474287 0.058902
v 0.139622 -0.557310 -0.131724
v -0.066347 -0.557288 -0.337577
v 0.066572 -0.473830 -0.472597
v 0.403740 -0.471159 -0.415838
v 0.403740 -0.471159 -0.415838
v 0.066572 -0.473830 -0.472597
v -0.012762 -0.167591 -0.657890
v 0.455352 -0.168697 -0.467474
v 0.455352 -0.168697 -0.467474
v -0.012762 -0.167591 -0.657890
v -0.020802 0.152844 -0.638467
v 0.441295 0.153000 -0.453494
v -0.020553 0.309619 -0.638363
v 0.410772 0.634169 -0.422912
v 0.139622 -0.557310 -0.131724
v 0.345477 -0.557281 0.074150
v 0.161650 -0.557597 0.256030
v -0.043248 -0.557597 0.051132
v -0.066347 -0.557288 -0.337577
v -0.248147 -0.557597 -0.153766
v 0.624006 -0.167975 -0.071642
v 0.455352 -0.168697 -0.467474
v 0.441295 0.153000 -0.453494
v 0.604540 0.152844 -0.063774
v 0.410772 0.634169 -0.422912
v 0.604413 0.309612 -0.064066
v 0.479842 -0.474287 -0.058901
v 0.403740 -0.471159 -0.415838
v 0.455352 -0.168697 -0.467474
v 0.624006 -0.167975 -0.071642
v 0.345477 -0.557281 0.074150
v 0.139622 -0.557310 -0.131724
v 0.403740 -0.471159 -0.415838
v 0.479842 -0.474287 -0.058901
v 0.131724 -0.557310 0.139622
v 0.337577 -0.557288 -0.066346
v 0.472597 -0.473829 0.066572
v 0.415838 -0.471159 0.403740
v 0.415838 -0.471159 0.403740
v 0.472597 -0.473829 0.066572
v 0.657890 -0.167591 -0.012762
v 0.467474 -0.168697 0.455352
v 0.467474 -0.168697 0.455352
v 0.657890 -0.167591 -0.012762
v 0.638467 0.152844 -0.020802
v 0.453494 0.153000 0.441295
v 0.638363 0.309619 -0.020553
v 0.422912 0.634169 0.410772
v 0.131724 -0.557310 0.139622
v -0.074150 -0.557281 0.345477
v -0.256030 -0.557597 0.161650
v -0.051132 -0.557597 -0.043248
v 0.337577 -0.557288 -0.066346
v 0.153766 -0.557597 -0.248146
v 0.071642 -0.167975 0.624006
v 0.467474 -0.168697 0.455352
v 0.453494 0.153000 0.441295
v 0.063774 0.152844 0.604539
v 0.422912 0.634169 0.410772
v 0.064066 0.309612 0.604413
v 0.058901 -0.474287 0.479842
v 0.415838 -0.471159 0.403740
v 0.467474 -0.168697 0.455352
v 0.071642 -0.167975 0.624006
v -0.074150 -0.557281 0.345477
v 0.131724 -0.557310 0.139622
v 0.415838 -0.471159 0.403740
v 0.058901 -0.474287 0.479842
v 0.076132 -0.526779 -0.341547
v 0.074150 -0.557281 -0.345477
v -0.058902 -0.474287 -0.479842
v -0.051998 -0.450740 -0.461198
v -0.453315 -0.450739 -0.059882
v -0.472597 -0.473830 -0.066572
v -0.337577 -0.557288 0.066347
v -0.333664 -0.526779 0.068249
v -0.051998 -0.450740 -0.461198
v -0.058902 -0.474287 -0.479842
v -0.071642 -0.167975 -0.624005
v -0.060996 -0.164326 -0.595316
v -0.629041 -0.164326 0.023097
v -0.657890 -0.167591 0.012762
v -0.472597 -0.473830 -0.066572
v -0.453315 -0.450739 -0.059882
v -0.060996 -0.164326 -0.595316
v -0.071642 -0.167975 -0.624005
v -0.063774 0.152844 -0.604540
v -0.051671 0.150910 -0.576264
v -0.064066 0.309612 -0.604413
v -0.051671 0.307682 -0.576264
v -0.609989 0.150910 0.032422
v -0.657890 -0.167591 0.012762
v -0.629041 -0.164326 0.023097
v -0.638467 0.152844 0.020802
v -0.609989 0.307682 0.032422
v -0.638363 0.309619 0.020553
v 0.051132 -0.526779 0.043249
v 0.256030 -0.557597 -0.161650
v 0.256030 -0.526779 -0.161650
v 0.051132 -0.557597 0.043249
v -0.153766 -0.526779 0.248147
v -0.153766 -0.557597 0.248147
v -0.333664 -0.526779 0.068249
v -0.337577 -0.557288 0.066347
v -0.153766 -0.557597 0.248147
v -0.153766 -0.526779 0.248147
v 0.256030 -0.526779 -0.161650
v 0.256030 -0.557597 -0.161650
v 0.074150 -0.557281 -0.345477
v 0.076132 -0.526779 -0.341547
v -0.341548 -0.526779 -0.076132
v -0.345477 -0.557281 -0.074150
v -0.479842 -0.474287 0.058902
v -0.461198 -0.450739 0.051998
v -0.059882 -0.450739 0.453315
v -0.066572 -0.473829 0.472597
v 0.066347 -0.557287 0.337577
v 0.068249 -0.526778 0.333664
v -0.461198 -0.450739 0.051998
v -0.479842 -0.474287 0.058902
v -0.624006 -0.167975 0.071643
v -0.595316 -0.164326 0.060996
v 0.023097 -0.164326 0.629041
v 0.012762 -0.167591 0.657890
v -0.066572 -0.473829 0.472597
v -0.059882 -0.450739 0.453315
v -0.595316 -0.164326 0.060996
v -0.624006 -0.167975 0.071643
v -0.604540 0.152844 0.063774
v -0.576264 0.150910 0.051671
v -0.604413 0.309612 0.064067
v -0.576264 0.307682 0.051671
v 0.032422 0.150910 0.609989
v 0.012762 -0.167591 0.657890
v 0.023097 -0.164326 0.629041
v 0.020802 0.152844 0.638467
v 0.032422 0.307682 0.609989
v 0.020553 0.309619 0.638363
v 0.043248 -0.526779 -0.051132
v -0.161650 -0.557597 -0.256030
v -0.161650 -0.526779 -0.256030
v 0.043248 -0.557597 -0.051132
v 0.248147 -0.526779 0.153766
v 0.248147 -0.557597 0.153766
v 0.068249 -0.526778 0.333664
v 0.066347 -0.557287 0.337577
v 0.248147 -0.557597 0.153766
v 0.248147 -0.526779 0.153766
v -0.161650 -0.526779 -0.256030
v -0.161650 -0.557597 -0.256030
v -0.345477 -0.557281 -0.074150
v -0.341548 -0.526779 -0.076132
v 0.341548 -0.526779 0.076132
v 0.345477 -0.557281 0.074150
v 0.479842 -0.474287 -0.058901
v 0.461198 -0.450739 -0.051998
v 0.059882 -0.450740 -0.453314
v 0.066572 -0.473830 -0.472597
v -0.066347 -0.557288 -0.337577
v -0.068249 -0.526779 -0.333664
v 0.461198 -0.450739 -0.051998
v 0.479842 -0.474287 -0.058901
v 0.624006 -0.167975 -0.071642
v 0.595316 -0.164326 -0.060996
v -0.023097 -0.164326 -0.629041
v -0.012762 -0.167591 -0.657890
v 0.066572 -0.473830 -0.472597
v 0.059882 -0.450740 -0.453314
v 0.595316 -0.164326 -0.060996
v 0.624006 -0.167975 -0.071642
v 0.604540 0.152844 -0.063774
v 0.576264 0.150910 -0.051671
v 0.604413 0.309612 -0.064066
v 0.576264 0.307682 -0.051671
v -0.032422 0.150910 -0.609989
v -0.012762 -0.167591 -0.657890
v -0.023097 -0.164326 -0.629041
v -0.020802 0.152844 -0.638467
v -0.032422 0.307682 -0.609989
v -0.020553 0.309619 -0.638363
v -0.043248 -0.526779 0.051132
v 0.161650 -0.557597 0.256030
v 0.161650 -0.526779 0.256030
v -0.043248 -0.557597 0.051132
v -0.248147 -0.526779 -0.153766
v -0.248147 -0.557597 -0.153766
v -0.068249 -0.526779 -0.333664
v -0.066347 -0.557288 -0.337577
v -0.248147 -0.557597 -0.153766
v -0.248147 -0.526779 -0.153766
v 0.161650 -0.526779 0.256030
v 0.161650 -0.557597 0.256030
v 0.345477 -0.557281 0.074150
v 0.341548 -0.526779 0.076132
v -0.076132 -0.526778 0.341548
v -0.074150 -0.557281 0.345477
v 0.058901 -0.474287 0.479842
v 0.051998 -0.450739 0.461198
v 0.453314 -0.450739 0.059882
v 0.472597 -0.473829 0.066572
v 0.337577 -0.557288 -0.066346
v 0.333664 -0.526779 -0.068249
v 0.051998 -0.450739 0.461198
v 0.058901 -0.474287 0.479842
v 0.071642 -0.167975 0.624006
v 0.060996 -0.164326 0.595316
v 0.629041 -0.164326 -0.023097
v 0.657890 -0.167591 -0.012762
v 0.472597 -0.473829 0.066572
v 0.453314 -0.450739 0.059882
v 0.060996 -0.164326 0.595316
v 0.071642 -0.167975 0.624006
v 0.063774 0.152844 0.604539
v 0.051671 0.150910 0.576264
v 0.064066 0.309612 0.604413
v 0.051671 0.307682 0.576264
v 0.609989 0.150910 -0.032422
v 0.657890 -0.167591 -0.012762
v 0.629041 -0.164326 -0.023097
v 0.638467 0.152844 -0.020802
v 0.609989 0.307682 -0.032422
v 0.638363 0.309619 -0.020553
v -0.051132 -0.526779 -0.043248
v -0.256030 -0.557597 0.161650
v -0.256030 -0.526779 0.161650
v -0.051132 -0.557597 -0.043248
v 0.153766 -0.526779 -0.248146
v 0.153766 -0.557597 -0.248146
v 0.333664 -0.526779 -0.068249
v 0.337577 -0.557288 -0.066346
v 0.153766 -0.557597 -0.248146
v 0.153766 -0.526779 -0.248146
v -0.256030 -0.526779 0.161650
v -0.256030 -0.557597 0.161650
v -0.074150 -0.557281 0.345477
v -0.076132 -0.526778 0.341548
v -0.051671 0.307682 -0.576264
v -0.064066 0.309612 -0.604413
v -0.422912 0.634169 -0.410772
v -0.400597 0.632088 -0.389620
v -0.400597 0.632088 -0.389620
v -0.422912 0.634169 -0.410772
v -0.638363 0.309619 0.020553
v -0.609989 0.307682 0.032422
v -0.576264 0.307682 0.051671
v -0.604413 0.309612 0.064067
v -0.410772 0.634169 0.422912
v -0.389619 0.632088 0.400597
v -0.389619 0.632088 0.400597
v -0.410772 0.634169 0.422912
v 0.020553 0.309619 0.638363
v 0.032422 0.307682 0.609989
v 0.576264 0.307682 -0.051671
v 0.604413 0.309612 -0.064066
v 0.410772 0.634169 -0.422912
v 0.389620 0.632088 -0.400597
v 0.389620 0.632088 -0.400597
v 0.410772 0.634169 -0.422912
v -0.020553 0.309619 -0.638363
v -0.032422 0.307682 -0.609989
v 0.051671 0.307682 0.576264
v 0.064066 0.309612 0.604413
v 0.422912 0.634169 0.410772
v 0.400597 0.632088 0.389619
v 0.400597 0.632088 0.389619
v 0.422912 0.634169 0.410772
v 0.638363 0.309619 -0.020553
v 0.609989 0.307682 -0.032422
v -0.152177 -0.564121 -0.161494
v -0.471994 -0.474257 -0.458018
v -0.535733 -0.474257 -0.070769
v -0.394328 -0.564121 0.080657
v -0.471994 -0.474257 -0.458018
v -0.526800 -0.135770 -0.512824
v -0.743409 -0.135770 0.027296
v -0.535733 -0.474257 -0.070769
v -0.526800 -0.135770 -0.512824
v -0.510031 0.131326 -0.496056
v -0.720893 0.131326 0.038317
v -0.743409 -0.135770 0.027296
v -0.510031 0.131326 -0.496056
v -0.673303 0.327280 -0.659327
v -0.804501 0.327280 -0.204618
v -0.720893 0.131326 0.038317
v -0.673303 0.327280 -0.659327
v -0.744543 0.276293 -0.733367
v -0.799522 0.278491 -0.419679
v -0.804501 0.327280 -0.204618
v -0.195301 0.327280 -0.813818
v -0.412228 0.278491 -0.806972
v -0.744543 0.276293 -0.733367
v -0.673303 0.327280 -0.659327
v -0.061066 0.131326 -0.681037
v -0.195301 0.327280 -0.813818
v -0.673303 0.327280 -0.659327
v -0.510031 0.131326 -0.496056
v -0.072086 -0.135770 -0.703553
v -0.061066 0.131326 -0.681037
v -0.510031 0.131326 -0.496056
v -0.526800 -0.135770 -0.512824
v -0.061452 -0.474257 -0.545050
v -0.072086 -0.135770 -0.703553
v -0.526800 -0.135770 -0.512824
v -0.471994 -0.474257 -0.458018
v 0.089974 -0.564121 -0.403645
v -0.061452 -0.474257 -0.545050
v -0.471994 -0.474257 -0.458018
v -0.152177 -0.564121 -0.161494
v -0.161494 -0.564121 0.152177
v -0.458018 -0.474257 0.471994
v -0.070769 -0.474257 0.535733
v 0.080657 -0.564121 0.394328
v -0.458018 -0.474257 0.471994
v -0.512824 -0.135769 0.526800
v 0.027297 -0.135769 0.743409
v -0.070769 -0.474257 0.535733
v -0.512824 -0.135769 0.526800
v -0.496055 0.131326 0.510031
v 0.038317 0.131326 0.720893
v 0.027297 -0.135769 0.743409
v -0.496055 0.131326 0.510031
v -0.659327 0.327280 0.673303
v -0.204617 0.327280 0.804501
v 0.038317 0.131326 0.720893
v -0.659327 0.327280 0.673303
v -0.733367 0.276293 0.744543
v -0.419679 0.278491 0.799522
v -0.204617 0.327280 0.804501
v -0.813818 0.327280 0.195301
v -0.806973 0.278491 0.412228
v -0.733367 0.276293 0.744543
v -0.659327 0.327280 0.673303
v -0.681037 0.131326 0.061066
v -0.813818 0.327280 0.195301
v -0.659327 0.327280 0.673303
v -0.496055 0.131326 0.510031
v -0.703553 -0.135770 0.072086
v -0.681037 0.131326 0.061066
v -0.496055 0.131326 0.510031
v -0.512824 -0.135769 0.526800
v -0.545050 -0.474257 0.061452
v -0.703553 -0.135770 0.072086
v -0.512824 -0.135769 0.526800
v -0.458018 -0.474257 0.471994
v -0.403646 -0.564121 -0.089974
v -0.545050 -0.474257 0.061452
v -0.458018 -0.474257 0.471994
v -0.161494 -0.564121 0.152177
v 0.161494 -0.564121 -0.152177
v 0.458019 -0.474257 -0.471994
v 0.070769 -0.474257 -0.535733
v -0.080657 -0.564121 -0.394328
v 0.458019 -0.474257 -0.471994
v 0.512824 -0.135770 -0.526800
v -0.027296 -0.135770 -0.743409
v 0.070769 -0.474257 -0.535733
v 0.512824 -0.135770 -0.526800
v 0.496056 0.131326 -0.510031
v -0.038317 0.131326 -0.720893
v -0.027296 -0.135770 -0.743409
v 0.496056 0.131326 -0.510031
v 0.659327 0.327280 -0.673303
v 0.204618 0.327280 -0.804501
v -0.038317 0.131326 -0.720893
v 0.659327 0.327280 -0.673303
v 0.733367 0.276293 -0.744543
v 0.419679 0.278491 -0.799522
v 0.204618 0.327280 -0.804501
v 0.813818 0.327280 -0.195301
v 0.806973 0.278491 -0.412228
v 0.733367 0.276293 -0.744543
v 0.659327 0.327280 -0.673303
v 0.681037 0.131326 -0.061066
v 0.813818 0.327280 -0.195301
v 0.659327 0.327280 -0.673303
v 0.496056 0.131326 -0.510031
v 0.703553 -0.135770 -0.072086
v 0.681037 0.131326 -0.061066
v 0.496056 0.131326 -0.510031
v 0.512824 -0.135770 -0.526800
v 0.545050 -0.474257 -0.061452
v 0.703553 -0.135770 -0.072086
v 0.512824 -0.135770 -0.526800
v 0.458019 -0.474257 -0.471994
v 0.403646 -0.564121 0.089974
v 0.545050 -0.474257 -0.061452
v 0.458019 -0.474257 -0.471994
v 0.161494 -0.564121 -0.152177
v 0.152177 -0.564121 0.161494
v 0.471994 -0.474257 0.458019
v 0.535733 -0.474257 0.070769
v 0.394328 -0.564121 -0.080657
v 0.471994 -0.474257 0.458019
v 0.526800 -0.135769 0.512824
v 0.743409 -0.135770 -0.027296
v 0.535733 -0.474257 0.070769
v 0.526800 -0.135769 0.512824
v 0.510031 0.131326 0.496055
v 0.720893 0.131326 -0.038317
v 0.743409 -0.135770 -0.027296
v 0.510031 0.131326 0.496055
v 0.673303 0.327280 0.659327
v 0.804501 0.327280 0.204618
v 0.720893 0.131326 -0.038317
v 0.673303 0.327280 0.659327
v 0.744543 0.276293 0.733367
v 0.799522 0.278491 0.419679
v 0.804501 0.327280 0.204618
v 0.195301 0.327280 0.813818
v 0.412228 0.278491 0.806972
v 0.744543 0.276293 0.733367
v 0.673303 0.327280 0.659327
v 0.061066 0.131326 0.681037
v 0.195301 0.327280 0.813818
v 0.673303 0.327280 0.659327
v 0.510031 0.131326 0.496055
v 0.072086 -0.135769 0.703553
v 0.061066 0.131326 0.681037
v 0.510031 0.131326 0.496055
v 0.526800 -0.135769 0.512824
v 0.061452 -0.474257 0.545050
v 0.072086 -0.135769 0.703553
v 0.526800 -0.135769 0.512824
v 0.471994 -0.474257 0.458019
v -0.089974 -0.564121 0.403646
v 0.061452 -0.474257 0.545050
v 0.471994 -0.474257 0.458019
v 0.152177 -0.564121 0.161494
v -0.155135 -0.594653 -0.164467
v -0.398242 -0.594630 0.078755
v -0.555016 -0.497347 -0.077460
v -0.488451 -0.494677 -0.474203
v -0.488451 -0.494677 -0.474203
v -0.555016 -0.497347 -0.077460
v -0.772300 -0.138591 0.016947
v -0.548557 -0.139740 -0.534286
v -0.548557 -0.139740 -0.534286
v -0.772300 -0.138591 0.016947
v -0.749004 0.124678 0.027580
v -0.530293 0.119233 -0.515878
v -0.530293 0.119233 -0.515878
v -0.749004 0.124678 0.027580
v -0.822625 0.303224 -0.211144
v -0.671004 0.296594 -0.657646
v -0.671004 0.296594 -0.657646
v -0.822625 0.303224 -0.211144
v -0.781604 0.253808 -0.415267
v -0.732882 0.250130 -0.721997
v -0.201699 0.302249 -0.830620
v -0.671004 0.296594 -0.657646
v -0.732882 0.250130 -0.721997
v -0.407402 0.253174 -0.790075
v -0.071935 0.122259 -0.708411
v -0.530293 0.119233 -0.515878
v -0.671004 0.296594 -0.657646
v -0.201699 0.302249 -0.830620
v -0.082747 -0.139018 -0.732285
v -0.548557 -0.139740 -0.534286
v -0.530293 0.119233 -0.515878
v -0.071935 0.122259 -0.708411
v -0.068355 -0.497804 -0.563694
v -0.488451 -0.494677 -0.474203
v -0.548557 -0.139740 -0.534286
v -0.082747 -0.139018 -0.732285
v 0.087992 -0.594624 -0.407575
v -0.155135 -0.594653 -0.164467
v -0.488451 -0.494677 -0.474203
v -0.068355 -0.497804 -0.563694
v -0.164467 -0.594653 0.155135
v 0.078755 -0.594630 0.398242
v -0.077460 -0.497347 0.555016
v -0.474203 -0.494677 0.488451
v -0.474203 -0.494677 0.488451
v -0.077460 -0.497347 0.555016
v 0.016948 -0.138591 0.772300
v -0.534286 -0.139739 0.548557
v -0.534286 -0.139739 0.548557
v 0.016948 -0.138591 0.772300
v 0.027580 0.124678 0.749004
v -0.515878 0.119233 0.530293
v -0.515878 0.119233 0.530293
v 0.027580 0.124678 0.749004
v -0.211144 0.303224 0.822625
v -0.657645 0.296594 0.671004
v -0.657645 0.296594 0.671004
v -0.211144 0.303224 0.822625
v -0.415267 0.253808 0.781604
v -0.721997 0.250131 0.732882
v -0.830620 0.302249 0.201699
v -0.657645 0.296594 0.671004
v -0.721997 0.250131 0.732882
v -0.790075 0.253174 0.407402
v -0.708411 0.122259 0.071935
v -0.515878 0.119233 0.530293
v -0.657645 0.296594 0.671004
v -0.830620 0.302249 0.201699
v -0.732285 -0.139018 0.082747
v -0.534286 -0.139739 0.548557
v -0.515878 0.119233 0.530293
v -0.708411 0.122259 0.071935
v -0.563694 -0.497804 0.068356
v -0.474203 -0.494677 0.488451
v -0.534286 -0.139739 0.548557
v -0.732285 -0.139018 0.082747
v -0.407575 -0.594624 -0.087992
v -0.164467 -0.594653 0.155135
v -0.474203 -0.494677 0.488451
v -0.563694 -0.497804 0.068356
v 0.164467 -0.594653 -0.155135
v -0.078755 -0.594630 -0.398242
v 0.077460 -0.497347 -0.555016
v 0.474203 -0.494677 -0.488451
v 0.474203 -0.494677 -0.488451
v 0.077460 -0.497347 -0.555016
v -0.016947 -0.138591 -0.772300
v 0.534286 -0.139740 -0.548557
v 0.534286 -0.139740 -0.548557
v -0.016947 -0.138591 -0.772300
v -0.027580 0.124678 -0.749004
v 0.515878 0.119233 -0.530293
v 0.515878 0.119233 -0.530293
v -0.027580 0.124678 -0.749004
v 0.211144 0.303224 -0.822625
v 0.657646 0.296594 -0.671004
v 0.657646 0.296594 -0.671004
v 0.211144 0.303224 -0.822625
v 0.415267 0.253808 -0.781604
v 0.721997 0.250130 -0.732882
v 0.830620 0.302249 -0.201699
v 0.657646 0.296594 -0.671004
v 0.721997 0.250130 -0.732882
v 0.790075 0.253174 -0.407402
v 0.708411 0.122259 -0.071935
v 0.515878 0.119233 -0.530293
v 0.657646 0.296594 -0.671004
v 0.830620 0.302249 -0.201699
v 0.732285 -0.139018 -0.082747
v 0.534286 -0.139740 -0.548557
v 0.515878 0.119233 -0.530293
v 0.708411 0.122259 -0.071935
v 0.563694 -0.497804 -0.068355
v 0.474203 -0.494677 -0.488451
v 0.534286 -0.139740 -0.548557
v 0.732285 -0.139018 -0.082747
v 0.407575 -0.594624 0.087992
v 0.164467 -0.594653 -0.155135
v 0.474203 -0.494677 -0.488451
v 0.563694 -0.497804 -0.068355
v 0.155135 -0.594653 0.164467
v 0.398242 -0.594630 -0.078755
v 0.555016 -0.497347 0.077460
v 0.488451 -0.494677 0.474203
v 0.488451 -0.494677 0.474203
v 0.555016 -0.497347 0.077460
v 0.772300 -0.138591 -0.016947
v 0.548557 -0.139739 0.534286
v 0.548557 -0.139739 0.534286
v 0.772300 -0.138591 -0.016947
v 0.749004 0.124678 -0.027580
v 0.530293 0.119233 0.515878
v 0.530293 0.119233 0.515878
v 0.749004 0.124678 -0.027580
v 0.822625 0.303224 0.211144
v 0.671004 0.296594 0.657646
v 0.671004 0.296594 0.657646
v 0.822625 0.303224 0.211144
v 0.781604 0.253808 0.415267
v 0.732882 0.250131 0.721997
v 0.201698 0.302249 0.830620
v 0.671004 0.296594 0.657646
v 0.732882 0.250131 0.721997
v 0.407402 0.253174 0.790075
v 0.071935 0.122259 0.708411
v 0.530293 0.119233 0.515878
v 0.671004 0.296594 0.657646
v 0.201698 0.302249 0.830620
v 0.082747 -0.139018 0.732285
v 0.548557 -0.139739 0.534286
v 0.530293 0.119233 0.515878
v 0.071935 0.122259 0.708411
v 0.068355 -0.497804 0.563695
v 0.488451 -0.494677 0.474203
v 0.548557 -0.139739 0.534286
v 0.082747 -0.139018 0.732285
v -0.087992 -0.594624 0.407575
v 0.155135 -0.594653 0.164467
v 0.488451 -0.494677 0.474203
v 0.068355 -0.497804 0.563695
v 0.089974 -0.564121 -0.403645
v 0.087992 -0.594624 -0.407575
v -0.068355 -0.497804 -0.563694
v -0.061452 -0.474257 -0.545050
v -0.535733 -0.474257 -0.070769
v -0.555016 -0.497347 -0.077460
v -0.398242 -0.594630 0.078755
v -0.394328 -0.564121 0.080657
v -0.061452 -0.474257 -0.545050
v -0.068355 -0.497804 -0.563694
v -0.082747 -0.139018 -0.732285
v -0.072086 -0.135770 -0.703553
v -0.743409 -0.135770 0.027296
v -0.772300 -0.138591 0.016947
v -0.555016 -0.497347 -0.077460
v -0.535733 -0.474257 -0.070769
v -0.072086 -0.135770 -0.703553
v -0.082747 -0.139018 -0.732285
v -0.071935 0.122259 -0.708411
v -0.061066 0.131326 -0.681037
v -0.720893 0.131326 0.038317
v -0.749004 0.124678 0.027580
v -0.772300 -0.138591 0.016947
v -0.743409 -0.135770 0.027296
v -0.061066 0.131326 -0.681037
v -0.071935 0.122259 -0.708411
v -0.201699 0.302249 -0.830620
v -0.195301 0.327280 -0.813818
v -0.804501 0.327280 -0.204618
v -0.822625 0.303224 -0.211144
v -0.749004 0.124678 0.027580
v -0.720893 0.131326 0.038317
v -0.412228 0.278491 -0.806972
v -0.407402 0.253174 -0.790075
v -0.732882 0.250130 -0.721997
v -0.744543 0.276293 -0.733367
v -0.195301 0.327280 -0.813818
v -0.201699 0.302249 -0.830620
v -0.407402 0.253174 -0.790075
v -0.412228 0.278491 -0.806972
v -0.799522 0.278491 -0.419679
v -0.781604 0.253808 -0.415267
v -0.822625 0.303224 -0.211144
v -0.804501 0.327280 -0.204618
v -0.744543 0.276293 -0.733367
v -0.732882 0.250130 -0.721997
v -0.781604 0.253808 -0.415267
v -0.799522 0.278491 -0.419679
v -0.403646 -0.564121 -0.089974
v -0.407575 -0.594624 -0.087992
v -0.563694 -0.497804 0.068356
v -0.545050 -0.474257 0.061452
v -0.070769 -0.474257 0.535733
v -0.077460 -0.497347 0.555016
v 0.078755 -0.594630 0.398242
v 0.080657 -0.564121 0.394328
v -0.545050 -0.474257 0.061452
v -0.563694 -0.497804 0.068356
v -0.732285 -0.139018 0.082747
v -0.703553 -0.135770 0.072086
v 0.027297 -0.135769 0.743409
v 0.016948 -0.138591 0.772300
v -0.077460 -0.497347 0.555016
v -0.070769 -0.474257 0.535733
v -0.703553 -0.135770 0.072086
v -0.732285 -0.139018 0.082747
v -0.708411 0.122259 0.071935
v -0.681037 0.131326 0.061066
v 0.038317 0.131326 0.720893
v 0.027580 0.124678 0.749004
v 0.016948 -0.138591 0.772300
v 0.027297 -0.135769 0.743409
v -0.681037 0.131326 0.061066
v -0.708411 0.122259 0.071935
v -0.830620 0.302249 0.201699
v -0.813818 0.327280 0.195301
v -0.204617 0.327280 0.804501
v -0.211144 0.303224 0.822625
v 0.027580 0.124678 0.749004
v 0.038317 0.131326 0.720893
v -0.806973 0.278491 0.412228
v -0.790075 0.253174 0.407402
v -0.721997 0.250131 0.732882
v -0.733367 0.276293 0.744543
v -0.813818 0.327280 0.195301
v -0.830620 0.302249 0.201699
v -0.790075 0.253174 0.407402
v -0.806973 0.278491 0.412228
v -0.419679 0.278491 0.799522
v -0.415267 0.253808 0.781604
v -0.211144 0.303224 0.822625
v -0.204617 0.327280 0.804501
v -0.733367 0.276293 0.744543
v -0.721997 0.250131 0.732882
v -0.415267 0.253808 0.781604
v -0.419679 0.278491 0.799522
v 0.403646 -0.564121 0.089974
v 0.407575 -0.594624 0.087992
v 0.563694 -0.497804 -0.068355
v 0.545050 -0.474257 -0.061452
v 0.070769 -0.474257 -0.535733
v 0.077460 -0.497347 -0.555016
v -0.078755 -0.594630 -0.398242
v -0.080657 -0.564121 -0.394328
v 0.545050 -0.474257 -0.061452
v 0.563694 -0.497804 -0.068355
v 0.732285 -0.139018 -0.082747
v 0.703553 -0.135770 -0.072086
v -0.027296 -0.135770 -0.743409
v -0.016947 -0.138591 -0.772300
v 0.077460 -0.497347 -0.555016
v 0.070769 -0.474257 -0.535733
v 0.703553 -0.135770 -0.072086
v 0.732285 -0.139018 -0.082747
v 0.708411 0.122259 -0.071935
v 0.681037 0.131326 -0.061066
v -0.038317 0.131326 -0.720893
v -0.027580 0.124678 -0.749004
v -0.016947 -0.138591 -0.772300
v -0.027296 -0.135770 -0.743409
v 0.681037 0.131326 -0.061066
v 0.708411 0.122259 -0.071935
v 0.830620 0.302249 -0.201699
v 0.813818 0.327280 -0.195301
v 0.204618 0.327280 -0.804501
v 0.211144 0.303224 -0.822625
v -0.027580 0.124678 -0.749004
v -0.038317 0.131326 -0.720893
v 0.806973 0.278491 -0.412228
v 0.790075 0.253174 -0.407402
v 0.721997 0.250130 -0.732882
v 0.733367 0.276293 -0.744543
v 0.813818 0.327280 -0.195301
v 0.830620 0.302249 -0.201699
v 0.790075 0.253174 -0.407402
v 0.806973 0.278491 -0.412228
v 0.419679 0.278491 -0.799522
v 0.415267 0.253808 -0.781604
v 0.211144 0.303224 -0.822625
v 0.204618 0.327280 -0.804501
v 0.078755 -0.594630 0.398242
v -0.164467 -0.594653 0.155135
v -0.407575 -0.594624 -0.087992
v 0.080657 -0.564121 0.394328
v -0.403646 -0.564121 -0.089974
v -0.161494 -0.564121 0.152177
v 0.733367 0.276293 -0.744543
v 0.721997 0.250130 -0.732882
v 0.415267 0.253808 -0.781604
v 0.419679 0.278491 -0.799522
v 0.155135 -0.594653 0.164467
v -0.087992 -0.594624 0.407575
v -0.089974 -0.564121 0.403646
v 0.152177 -0.564121 0.161494
v 0.398242 -0.594630 -0.078755
v 0.394328 -0.564121 -0.080657
v -0.089974 -0.564121 0.403646
v -0.087992 -0.594624 0.407575
v 0.068355 -0.497804 0.563695
v 0.061452 -0.474257 0.545050
v 0.535733 -0.474257 0.070769
v 0.555016 -0.497347 0.077460
v 0.398242 -0.594630 -0.078755
v 0.394328 -0.564121 -0.080657
v 0.061452 -0.474257 0.545050
v 0.068355 -0.497804 0.563695
v 0.082747 -0.139018 0.732285
v 0.072086 -0.135769 0.703553
v 0.743409 -0.135770 -0.027296
v 0.772300 -0.138591 -0.016947
v 0.555016 -0.497347 0.077460
v 0.535733 -0.474257 0.070769
v 0.072086 -0.135769 0.703553
v 0.082747 -0.139018 0.732285
v 0.071935 0.122259 0.708411
v 0.061066 0.131326 0.681037
v 0.720893 0.131326 -0.038317
v 0.749004 0.124678 -0.027580
v 0.772300 -0.138591 -0.016947
v 0.743409 -0.135770 -0.027296
v 0.061066 0.131326 0.681037
v 0.071935 0.122259 0.708411
v 0.201698 0.302249 0.830620
v 0.195301 0.327280 0.813818
v 0.804501 0.327280 0.204618
v 0.822625 0.303224 0.211144
v 0.749004 0.124678 -0.027580
v 0.720893 0.131326 -0.038317
v 0.412228 0.278491 0.806972
v 0.407402 0.253174 0.790075
v 0.732882 0.250131 0.721997
v 0.744543 0.276293 0.733367
v 0.195301 0.327280 0.813818
v 0.201698 0.302249 0.830620
v 0.407402 0.253174 0.790075
v 0.412228 0.278491 0.806972
v 0.799522 0.278491 0.419679
v 0.781604 0.253808 0.415267
v 0.822625 0.303224 0.211144
v 0.804501 0.327280 0.204618
v -0.152177 -0.564121 -0.161494
v -0.394328 -0.564121 0.080657
v -0.398242 -0.594630 0.078755
v -0.155135 -0.594653 -0.164467
v 0.089974 -0.564121 -0.403645
v 0.087992 -0.594624 -0.407575
v 0.744543 0.276293 0.733367
v 0.732882 0.250131 0.721997
v 0.781604 0.253808 0.415267
v 0.799522 0.278491 0.419679
v -0.078755 -0.594630 -0.398242
v 0.164467 -0.594653 -0.155135
v 0.407575 -0.594624 0.087992
v -0.080657 -0.564121 -0.394328
v 0.403646 -0.564121 0.089974
v 0.161494 -0.564121 -0.152177
v 0.528108 0.107120 0.000000
v 0.396081 0.107120 0.396081
v 0.349523 -0.524656 0.349523
v 0.484577 -0.616388 0.000000
v 0.528108 0.107120 0.000000
v 0.368263 0.416636 0.000000
v 0.281030 0.336391 0.281030
v 0.396081 0.107120 0.396081
v 0.528108 0.107120 0.000000
v 0.396081 0.107120 -0.396081
v 0.281030 0.336391 -0.281030
v 0.368263 0.416636 0.000000
v 0.528108 0.107120 0.000000
v 0.484577 -0.616388 0.000000
v 0.349523 -0.524657 -0.349523
v 0.396081 0.107120 -0.396081
v 0.000000 0.107120 -0.528108
v 0.396081 0.107120 -0.396081
v 0.349523 -0.524657 -0.349523
v 0.000000 -0.616388 -0.484576
v 0.000000 0.107120 -0.528108
v 0.000000 0.416636 -0.368263
v 0.281030 0.336391 -0.281030
v 0.396081 0.107120 -0.396081
v 0.000000 0.107120 -0.528108
v -0.396081 0.107120 -0.396081
v -0.281030 0.336391 -0.281030
v 0.000000 0.416636 -0.368263
v 0.000000 0.107120 -0.528108
v 0.000000 -0.616388 -0.484576
v -0.349523 -0.524657 -0.349523
v -0.396081 0.107120 -0.396081
v 0.000000 0.107120 0.528108
v -0.396081 0.107120 0.396081
v -0.349523 -0.524656 0.349523
v 0.000000 -0.616387 0.484577
v 0.000000 0.107120 0.528108
v 0.000000 0.416636 0.368263
v -0.281030 0.336391 0.281030
v -0.396081 0.107120 0.396081
v 0.000000 0.107120 0.528108
v 0.396081 0.107120 0.396081
v 0.281030 0.336391 0.281030
v 0.000000 0.416636 0.368263
v 0.000000 0.107120 0.528108
v 0.000000 -0.616387 0.484577
v 0.349523 -0.524656 0.349523
v 0.396081 0.107120 0.396081
v 0.000000 0.519807 0.000000
v 0.000000 0.416636 -0.368263
v -0.281030 0.336391 -0.281030
v -0.368263 0.416636 0.000000
v 0.000000 0.519807 0.000000
v 0.368263 0.416636 0.000000
v 0.281030 0.336391 -0.281030
v 0.000000 0.416636 -0.368263
v 0.000000 0.519807 0.000000
v 0.000000 0.416636 0.368263
v 0.281030 0.336391 0.281030
v 0.368263 0.416636 0.000000
v 0.000000 0.519807 0.000000
v -0.368263 0.416636 0.000000
v -0.281030 0.336391 0.281030
v 0.000000 0.416636 0.368263
v 0.000000 -0.734327 0.000000
v 0.000000 -0.616388 -0.484576
v 0.349523 -0.524657 -0.349523
v 0.484577 -0.616388 0.000000
v 0.000000 -0.734327 0.000000
v -0.484577 -0.616388 0.000000
v -0.349523 -0.524657 -0.349523
v 0.000000 -0.616388 -0.484576
v 0.000000 -0.734327 0.000000
v 0.000000 -0.616387 0.484577
v -0.349523 -0.524656 0.349523
v -0.484577 -0.616388 0.000000
v 0.000000 -0.734327 0.000000
v 0.484577 -0.616388 0.000000
v 0.349523 -0.524656 0.349523
v 0.000000 -0.616387 0.484577
v -0.528108 0.107120 0.000000
v -0.396081 0.107120 -0.396081
v -0.349523 -0.524657 -0.349523
v -0.484577 -0.616388 0.000000
v -0.528108 0.107120 0.000000
v -0.368263 0.416636 0.000000
v -0.281030 0.336391 -0.281030
v -0.396081 0.107120 -0.396081
v -0.528108 0.107120 0.000000
v -0.396081 0.107120 0.396081
v -0.281030 0.336391 0.281030
v -0.368263 0.416636 0.000000
v -0.528108 0.107120 0.000000
v -0.484577 -0.616388 0.000000
v -0.349523 -0.524656 0.349523
v -0.396081 0.107120 0.396081
vn 0.253952 0.959310 0.123421
vn 0.253952 0.959310 0.123421
vn 0.253952 0.959310 0.123421
vn 0.253952 0.959310 0.123421
vn 0.902730 0.332574 0.272900
vn 0.902730 0.332574 0.272900
vn 0.902730 0.332574 0.272900
vn 0.902730 0.332574 0.272900
vn 0.927343 -0.062653 0.368930
vn 0.927343 -0.062653 0.368930
vn 0.927343 -0.062653 0.368930
vn 0.927343 -0.062653 0.368930
vn 0.920723 -0.062881 0.385117
vn 0.920723 -0.062881 0.385117
vn 0.000000 1.000000 0.000000
vn 0.000000 1.000000 0.000000
vn 0.000000 1.000000 0.000000
vn 0.000000 1.000000 0.000000
vn 0.000000 1.000000 0.000000
vn 0.000000 1.000000 0.000000
vn 0.383139 -0.062877 0.921548
vn 0.383139 -0.062877 0.921548
vn 0.383139 -0.062877 0.921548
vn 0.383139 -0.062877 0.921548
vn 0.402194 -0.062652 0.913408
vn 0.402194 -0.062652 0.913408
vn 0.290295 0.312997 0.904302
vn 0.290295 0.312997 0.904302
vn 0.290295 0.312997 0.904302
vn 0.290295 0.312997 0.904302
vn 0.128584 0.958366 0.254952
vn 0.128584 0.958366 0.254952
vn 0.128584 0.958366 0.254952
vn 0.128584 0.958366 0.254952
vn 0.123421 0.959310 -0.253952
vn 0.123421 0.959310 -0.253952
vn 0.123421 0.959310 -0.253952
vn 0.123421 0.959310 -0.253952
vn 0.272900 0.332573 -0.902730
vn 0.272900 0.332573 -0.902730
vn 0.272900 0.332573 -0.902730
vn 0.272900 0.332573 -0.902730
vn 0.368930 -0.062653 -0.927343
vn 0.368930 -0.062653 -0.927343
vn 0.368930 -0.062653 -0.927343
vn 0.368930 -0.062653 -0.927343
vn 0.385117 -0.062881 -0.920723
vn 0.385117 -0.062881 -0.920723
vn 0.000000 1.000000 0.000000
vn 0.000000 1.000000 0.000000
vn 0.000000 1.000000 0.000000
vn 0.000000 1.000000 0.000000
vn 0.000000 1.000000 0.000000
vn 0.000000 1.000000 0.000000
vn 0.921548 -0.062877 -0.383140
vn 0.921548 -0.062877 -0.383140
vn 0.921548 -0.062877 -0.383140
vn 0.921548 -0.062877 -0.383140
vn 0.913408 -0.062652 -0.402194
vn 0.913408 -0.062652 -0.402194
vn 0.904302 0.312997 -0.290295
vn 0.904302 0.312997 -0.290295
vn 0.904302 0.312997 -0.290295
vn 0.904302 0.312997 -0.290295
vn 0.254952 0.958366 -0.128584
vn 0.254952 0.958366 -0.128584
vn 0.254952 0.958366 -0.128584
vn 0.254952 0.958366 -0.128584
vn -0.123421 0.959310 0.253952
vn -0.123421 0.959310 0.253952
vn -0.123421 0.959310 0.253952
vn -0.123421 0.959310 0.253952
vn -0.272900 0.332573 0.902730
vn -0.272900 0.332573 0.902730
vn -0.272900 0.332573 0.902730
vn -0.272900 0.332573 0.902730
vn -0.368930 -0.062652 0.927343
vn -0.368930 -0.062652 0.927343
vn -0.368930 -0.062652 0.927343
vn -0.368930 -0.062652 0.927343
vn -0.385117 -0.062881 0.920723
vn -0.385117 -0.062881 0.920723
vn 0.000000 1.000000 0.000000
vn 0.000000 1.000000 0.000000
vn 0.000000 1.000000 0.000000
vn 0.000000 1.000000 0.000000
vn 0.000000 1.000000 0.000000
vn 0.000000 1.000000 0.000000
vn -0.921548 -0.062877 0.383139
vn -0.921548 -0.062877 0.383139
vn -0.921548 -0.062877 0.383139
vn -0.921548 -0.062877 0.383139
vn -0.913409 -0.062652 0.402194
vn -0.913409 -0.062652 0.402194
vn -0.904302 0.312997 0.290295
vn -0.904302 0.312997 0.290295
vn -0.904302 0.312997 0.290295
vn -0.904302 0.312997 0.290295
vn -0.254952 0.958366 0.128584
vn -0.254952 0.958366 0.128584
vn -0.254952 0.958366 0.128584
vn -0.254952 0.958366 0.128584
vn -0.253952 0.959310 -0.123421
vn -0.253952 0.959310 -0.123421
vn -0.253952 0.959310 -0.123421
vn -0.253952 0.959310 -0.123421
vn -0.902730 0.332574 -0.272900
vn -0.902730 0.332574 -0.272900
vn -0.902730 0.332574 -0.272900
vn -0.902730 0.332574 -0.272900
vn -0.927343 -0.062653 -0.368930
vn -0.927343 -0.062653 -0.368930
vn -0.927343 -0.062653 -0.368930
vn -0.927343 -0.062653 -0.368930
vn -0.920723 -0.062881 -0.385117
vn -0.920723 -0.062881 -0.385117
vn 0.000000 1.000000 0.000000
vn 0.000000 1.000000 0.000000
vn 0.000000 1.000000 0.000000
vn 0.000000 1.000000 0.000000
vn 0.000000 1.000000 0.000000
vn 0.000000 1.000000 0.000000
vn -0.383139 -0.062877 -0.921548
vn -0.383139 -0.062877 -0.921548
vn -0.383139 -0.062877 -0.921548
vn -0.383139 -0.062877 -0.921548
vn -0.402194 -0.062653 -0.913408
vn -0.402194 -0.062653 -0.913408
vn -0.290295 0.312997 -0.904302
vn -0.290295 0.312997 -0.904302
vn -0.290295 0.312997 -0.904302
vn -0.290295 0.312997 -0.904302
vn -0.128584 0.958366 -0.254952
vn -0.128584 0.958366 -0.254952
vn -0.128584 0.958366 -0.254952
vn -0.128584 0.958366 -0.254952
vn -0.262301 -0.955986 -0.131485
vn -0.262301 -0.955986 -0.131485
vn -0.262301 -0.955986 -0.131485
vn -0.262301 -0.955986 -0.131485
vn -0.899677 -0.337581 -0.276805
vn -0.899677 -0.337581 -0.276805
vn -0.899677 -0.337581 -0.276805
vn -0.899677 -0.337581 -0.276805
vn -0.925588 0.061005 -0.373585
vn -0.925588 0.061005 -0.373585
vn -0.925588 0.061005 -0.373585
vn -0.925588 0.061005 -0.373585
vn -0.919048 0.062672 -0.389131
vn -0.919048 0.062672 -0.389131
vn -0.000789 -0.999999 -0.000860
vn -0.000789 -0.999999 -0.000860
vn -0.000789 -0.999999 -0.000860
vn -0.000789 -0.999999 -0.000860
vn -0.000843 -0.999999 -0.000788
vn -0.000843 -0.999999 -0.000788
vn -0.388500 0.061181 -0.919415
vn -0.388500 0.061181 -0.919415
vn -0.388500 0.061181 -0.919415
vn -0.388500 0.061181 -0.919415
vn -0.407059 0.063106 -0.911220
vn -0.407059 0.063106 -0.911220
vn -0.293807 -0.320653 -0.900477
vn -0.293807 -0.320653 -0.900477
vn -0.293807 -0.320653 -0.900477
vn -0.293807 -0.320653 -0.900477
vn -0.136698 -0.955237 -0.262365
vn -0.136698 -0.955237 -0.262365
vn -0.136698 -0.955237 -0.262365
vn -0.136698 -0.955237 -0.262365
vn -0.131485 -0.955986 0.262301
vn -0.131485 -0.955986 0.262301
vn -0.131485 -0.955986 0.262301
vn -0.131485 -0.955986 0.262301
vn -0.276804 -0.337581 0.899677
vn -0.276804 -0.337581 0.899677
vn -0.276804 -0.337581 0.899677
vn -0.276804 -0.337581 0.899677
vn -0.373585 0.061004 0.925588
vn -0.373585 0.061004 0.925588
vn -0.373585 0.061004 0.925588
vn -0.373585 0.061004 0.925588
vn -0.389131 0.062673 0.919048
vn -0.389131 0.062673 0.919048
vn -0.000860 -0.999999 0.000789
vn -0.000860 -0.999999 0.000789
vn -0.000860 -0.999999 0.000789
vn -0.000860 -0.999999 0.000789
vn -0.000788 -0.999999 0.000843
vn -0.000788 -0.999999 0.000843
vn -0.919415 0.061181 0.388501
vn -0.919415 0.061181 0.388501
vn -0.919415 0.061181 0.388501
vn -0.919415 0.061181 0.388501
vn -0.911220 0.063106 0.407059
vn -0.911220 0.063106 0.407059
vn -0.900477 -0.320653 0.293807
vn -0.900477 -0.320653 0.293807
vn -0.900477 -0.320653 0.293807
vn -0.900477 -0.320653 0.293807
vn -0.262365 -0.955237 0.136698
vn -0.262365 -0.955237 0.136698
vn -0.262365 -0.955237 0.136698
vn -0.262365 -0.955237 0.136698
vn 0.131485 -0.955986 -0.262301
vn 0.131485 -0.955986 -0.262301
vn 0.131485 -0.955986 -0.262301
vn 0.131485 -0.955986 -0.262301
vn 0.276805 -0.337581 -0.899677
vn 0.276805 -0.337581 -0.899677
vn 0.276805 -0.337581 -0.899677
vn 0.276805 -0.337581 -0.899677
vn 0.373585 0.061005 -0.925588
vn 0.373585 0.061005 -0.925588
vn 0.373585 0.061005 -0.925588
vn 0.373585 0.061005 -0.925588
vn 0.389132 0.062672 -0.919048
vn 0.389132 0.062672 -0.919048
vn 0.000860 -0.999999 -0.000789
vn 0.000860 -0.999999 -0.000789
vn 0.000860 -0.999999 -0.000789
vn 0.000860 -0.999999 -0.000789
vn 0.000788 -0.999999 -0.000843
vn 0.000788 -0.999999 -0.000843
vn 0.919415 0.061181 -0.388500
vn 0.919415 0.061181 -0.388500
vn 0.919415 0.061181 -0.388500
vn 0.919415 0.061181 -0.388500
vn 0.911220 0.063105 -0.407059
vn 0.911220 0.063105 -0.407059
vn 0.900477 -0.320653 -0.293807
vn 0.900477 -0.320653 -0.293807
vn 0.900477 -0.320653 -0.293807
vn 0.900477 -0.320653 -0.293807
vn 0.262365 -0.955237 -0.136698
vn 0.262365 -0.955237 -0.136698
vn 0.262365 -0.955237 -0.136698
vn 0.262365 -0.955237 -0.136698
vn 0.262301 -0.955986 0.131485
vn 0.262301 -0.955986 0.131485
vn 0.262301 -0.955986 0.131485
vn 0.262301 -0.955986 0.131485
vn 0.899677 -0.337581 0.276805
vn 0.899677 -0.337581 0.276805
vn 0.899677 -0.337581 0.276805
vn 0.899677 -0.337581 0.276805
vn 0.925588 0.061005 0.373585
vn 0.925588 0.061005 0.373585
vn 0.925588 0.061005 0.373585
vn 0.925588 0.061005 0.373585
vn 0.919048 0.062672 0.389132
vn 0.919048 0.062672 0.389132
vn 0.000789 -0.999999 0.000860
vn 0.000789 -0.999999 0.000860
vn 0.000789 -0.999999 0.000860
vn 0.000789 -0.999999 0.000860
vn 0.000843 -0.999999 0.000788
vn 0.000843 -0.999999 0.000788
vn 0.388500 0.061181 0.919415
vn 0.388500 0.061181 0.919415
vn 0.388500 0.061181 0.919415
vn 0.388500 0.061181 0.919415
vn 0.407058 0.063106 0.911220
vn 0.407058 0.063106 0.911220
vn 0.293807 -0.320653 0.900477
vn 0.293807 -0.320653 0.900477
vn 0.293807 -0.320653 0.900477
vn 0.293807 -0.320653 0.900477
vn 0.136698 -0.955237 0.262365
vn 0.136698 -0.955237 0.262365
vn 0.136698 -0.955237 0.262365
vn 0.136698 -0.955237 0.262365
vn 0.735580 0.154545 -0.659574
vn 0.735580 0.154545 -0.659574
vn 0.735580 0.154545 -0.659574
vn 0.735580 0.154545 -0.659574
vn -0.653885 0.164594 0.738473
vn -0.653885 0.164594 0.738473
vn -0.653885 0.164594 0.738473
vn -0.653885 0.164594 0.738473
vn 0.950470 -0.102846 -0.293307
vn 0.950470 -0.102846 -0.293307
vn 0.950470 -0.102846 -0.293307
vn 0.950470 -0.102846 -0.293307
vn -0.141989 -0.341000 0.929278
vn -0.141989 -0.341000 0.929278
vn -0.141989 -0.341000 0.929278
vn -0.141989 -0.341000 0.929278
vn 0.928708 -0.002650 -0.370801
vn 0.928708 -0.002650 -0.370801
vn 0.928708 -0.002650 -0.370801
vn 0.928708 -0.002650 -0.370801
vn 0.917300 0.001016 -0.398196
vn 0.917300 0.001016 -0.398196
vn -0.357566 -0.003869 0.933880
vn -0.357566 -0.003869 0.933880
vn -0.357566 -0.003869 0.933880
vn -0.357566 -0.003869 0.933880
vn -0.381802 0.000861 0.924244
vn -0.381802 0.000861 0.924244
vn 0.707107 0.000000 0.707107
vn 0.707107 0.000000 0.707107
vn 0.707107 0.000000 0.707107
vn 0.707107 0.000000 0.707107
vn 0.707107 0.000000 0.707107
vn 0.707107 0.000000 0.707107
vn -0.704947 0.022996 0.708887
vn -0.704947 0.022996 0.708887
vn -0.704947 0.022996 0.708887
vn -0.704947 0.022996 0.708887
vn 0.708836 0.022266 -0.705022
vn 0.708836 0.022266 -0.705022
vn 0.708836 0.022266 -0.705022
vn 0.708836 0.022266 -0.705022
vn -0.659574 0.154545 -0.735580
vn -0.659574 0.154545 -0.735580
vn -0.659574 0.154545 -0.735580
vn -0.659574 0.154545 -0.735580
vn 0.738473 0.164594 0.653885
vn 0.738473 0.164594 0.653885
vn 0.738473 0.164594 0.653885
vn 0.738473 0.164594 0.653885
vn -0.293307 -0.102846 -0.950470
vn -0.293307 -0.102846 -0.950470
vn -0.293307 -0.102846 -0.950470
vn -0.293307 -0.102846 -0.950470
vn 0.929278 -0.341001 0.141988
vn 0.929278 -0.341001 0.141988
vn 0.929278 -0.341001 0.141988
vn 0.929278 -0.341001 0.141988
vn -0.370801 -0.002650 -0.928709
vn -0.370801 -0.002650 -0.928709
vn -0.370801 -0.002650 -0.928709
vn -0.370801 -0.002650 -0.928709
vn -0.398197 0.001016 -0.917299
vn -0.398197 0.001016 -0.917299
vn 0.933880 -0.003869 0.357566
vn 0.933880 -0.003869 0.357566
vn 0.933880 -0.003869 0.357566
vn 0.933880 -0.003869 0.357566
vn 0.924244 0.000861 0.381802
vn 0.924244 0.000861 0.381802
vn 0.707107 0.000000 -0.707107
vn 0.707107 0.000000 -0.707107
vn 0.707107 0.000000 -0.707107
vn 0.707107 0.000000 -0.707107
vn 0.707107 0.000000 -0.707107
vn 0.707107 0.000000 -0.707107
vn 0.708886 0.022996 0.704948
vn 0.708886 0.022996 0.704948
vn 0.708886 0.022996 0.704948
vn 0.708886 0.022996 0.704948
vn -0.705022 0.022265 -0.708836
vn -0.705022 0.022265 -0.708836
vn -0.705022 0.022265 -0.708836
vn -0.705022 0.022265 -0.708836
vn 0.659575 0.154545 0.735580
vn 0.659575 0.154545 0.735580
vn 0.659575 0.154545 0.735580
vn 0.659575 0.154545 0.735580
vn -0.738473 0.164595 -0.653886
vn -0.738473 0.164595 -0.653886
vn -0.738473 0.164595 -0.653886
vn -0.738473 0.164595 -0.653886
vn 0.293309 -0.102847 0.950470
vn 0.293309 -0.102847 0.950470
vn 0.293309 -0.102847 0.950470
vn 0.293309 -0.102847 0.950470
vn -0.929278 -0.341000 -0.141989
vn -0.929278 -0.341000 -0.141989
vn -0.929278 -0.341000 -0.141989
vn -0.929278 -0.341000 -0.141989
vn 0.370802 -0.002650 0.928708
vn 0.370802 -0.002650 0.928708
vn 0.370802 -0.002650 0.928708
vn 0.370802 -0.002650 0.928708
vn 0.398196 0.001017 0.917300
vn 0.398196 0.001017 0.917300
vn -0.933880 -0.003869 -0.357566
vn -0.933880 -0.003869 -0.357566
vn -0.933880 -0.003869 -0.357566
vn -0.933880 -0.003869 -0.357566
vn -0.924244 0.000860 -0.381802
vn -0.924244 0.000860 -0.381802
vn -0.707107 0.000000 0.707107
vn -0.707107 0.000000 0.707107
vn -0.707107 0.000000 0.707107
vn -0.707107 0.000000 0.707107
vn -0.707107 0.000000 0.707107
vn -0.707107 0.000000 0.707107
vn -0.708886 0.022996 -0.704948
vn -0.708886 0.022996 -0.704948
vn -0.708886 0.022996 -0.704948
vn -0.708886 0.022996 -0.704948
vn 0.705022 0.022266 0.708836
vn 0.705022 0.022266 0.708836
vn 0.705022 0.022266 0.708836
vn 0.705022 0.022266 0.708836
vn -0.735580 0.154544 0.659574
vn -0.735580 0.154544 0.659574
vn -0.735580 0.154544 0.659574
vn -0.735580 0.154544 0.659574
vn 0.653886 0.164594 -0.738473
vn 0.653886 0.164594 -0.738473
vn 0.653886 0.164594 -0.738473
vn 0.653886 0.164594 -0.738473
vn -0.950470 -0.102847 0.293308
vn -0.950470 -0.102847 0.293308
vn -0.950470 -0.102847 0.293308
vn -0.950470 -0.102847 0.293308
vn 0.141989 -0.341001 -0.929278
vn 0.141989 -0.341001 -0.929278
vn 0.141989 -0.341001 -0.929278
vn 0.141989 -0.341001 -0.929278
vn -0.928709 -0.002650 0.370801
vn -0.928709 -0.002650 0.370801
vn -0.928709 -0.002650 0.370801
vn -0.928709 -0.002650 0.370801
vn -0.917300 0.001017 0.398195
vn -0.917300 0.001017 0.398195
vn 0.357567 -0.003869 -0.933880
vn 0.357567 -0.003869 -0.933880
vn 0.357567 -0.003869 -0.933880
vn 0.357567 -0.003869 -0.933880
vn 0.381802 0.000861 -0.924244
vn 0.381802 0.000861 -0.924244
vn -0.707107 0.000000 -0.707107
vn -0.707107 0.000000 -0.707107
vn -0.707107 0.000000 -0.707107
vn -0.707107 0.000000 -0.707107
vn -0.707107 0.000000 -0.707107
vn -0.707107 0.000000 -0.707107
vn 0.704946 0.022996 -0.708888
vn 0.704946 0.022996 -0.708888
vn 0.704946 0.022996 -0.708888
vn 0.704946 0.022996 -0.708888
vn -0.708836 0.022265 0.705022
vn -0.708836 0.022265 0.705022
vn -0.708836 0.022265 0.705022
vn -0.708836 0.022265 0.705022
vn 0.542048 0.777714 -0.318347
vn 0.542048 0.777714 -0.318347
vn 0.542048 0.777714 -0.318347
vn 0.542048 0.777714 -0.318347
vn -0.259727 0.826590 0.499290
vn -0.259727 0.826590 0.499290
vn -0.259727 0.826590 0.499290
vn -0.259727 0.826590 0.499290
vn -0.318347 0.777714 -0.542048
vn -0.318347 0.777714 -0.542048
vn -0.318347 0.777714 -0.542048
vn -0.318347 0.777714 -0.542048
vn 0.499290 0.826590 0.259727
vn 0.499290 0.826590 0.259727
vn 0.499290 0.826590 0.259727
vn 0.499290 0.826590 0.259727
vn 0.318347 0.777714 0.542048
vn 0.318347 0.777714 0.542048
vn 0.318347 0.777714 0.542048
vn 0.318347 0.777714 0.542048
vn -0.499289 0.826591 -0.259727
vn -0.499289 0.826591 -0.259727
vn -0.499289 0.826591 -0.259727
vn -0.499289 0.826591 -0.259727
vn -0.542048 0.777715 0.318346
vn -0.542048 0.777715 0.318346
vn -0.542048 0.777715 0.318346
vn -0.542048 0.777715 0.318346
vn 0.259727 0.826590 -0.499291
vn 0.259727 0.826590 -0.499291
vn 0.259727 0.826590 -0.499291
vn 0.259727 0.826590 -0.499291
vn 0.253952 0.959310 0.123421
vn 0.253952 0.959310 0.123421
vn 0.253952 0.959310 0.123421
vn 0.253952 0.959310 0.123421
vn 0.902730 0.332574 0.272900
vn 0.902730 0.332574 0.272900
vn 0.902730 0.332574 0.272900
vn 0.902730 0.332574 0.272900
vn 0.925627 -0.087227 0.368247
vn 0.925627 -0.087227 0.368247
vn 0.925627 -0.087227 0.368247
vn 0.925627 -0.087227 0.368247
vn 0.690636 0.682623 0.238847
vn 0.690636 0.682623 0.238847
vn 0.690636 0.682623 0.238847
vn 0.690636 0.682623 0.238847
vn -0.581407 0.800919 -0.143161
vn -0.581407 0.800919 -0.143161
vn -0.581407 0.800919 -0.143161
vn -0.581407 0.800919 -0.143161
vn -0.156575 0.821480 -0.548321
vn -0.156575 0.821480 -0.548321
vn -0.156575 0.821480 -0.548321
vn -0.156575 0.821480 -0.548321
vn 0.246788 0.696405 0.673882
vn 0.246788 0.696405 0.673882
vn 0.246788 0.696405 0.673882
vn 0.246788 0.696405 0.673882
vn 0.382425 -0.087539 0.919830
vn 0.382425 -0.087539 0.919830
vn 0.382425 -0.087539 0.919830
vn 0.382425 -0.087539 0.919830
vn 0.290295 0.312997 0.904302
vn 0.290295 0.312997 0.904302
vn 0.290295 0.312997 0.904302
vn 0.290295 0.312997 0.904302
vn 0.128584 0.958366 0.254952
vn 0.128584 0.958366 0.254952
vn 0.128584 0.958366 0.254952
vn 0.128584 0.958366 0.254952
vn 0.123421 0.959310 -0.253952
vn 0.123421 0.959310 -0.253952
vn 0.123421 0.959310 -0.253952
vn 0.123421 0.959310 -0.253952
vn 0.272900 0.332573 -0.902730
vn 0.272900 0.332573 -0.902730
vn 0.272900 0.332573 -0.902730
vn 0.272900 0.332573 -0.902730
vn 0.368247 -0.087228 -0.925627
vn 0.368247 -0.087228 -0.925627
vn 0.368247 -0.087228 -0.925627
vn 0.368247 -0.087228 -0.925627
vn 0.238847 0.682623 -0.690636
vn 0.238847 0.682623 -0.690636
vn 0.238847 0.682623 -0.690636
vn 0.238847 0.682623 -0.690636
vn -0.143161 0.800919 0.581407
vn -0.143161 0.800919 0.581407
vn -0.143161 0.800919 0.581407
vn -0.143161 0.800919 0.581407
vn -0.548321 0.821480 0.156575
vn -0.548321 0.821480 0.156575
vn -0.548321 0.821480 0.156575
vn -0.548321 0.821480 0.156575
vn 0.673882 0.696404 -0.246788
vn 0.673882 0.696404 -0.246788
vn 0.673882 0.696404 -0.246788
vn 0.673882 0.696404 -0.246788
vn 0.919830 -0.087539 -0.382426
vn 0.919830 -0.087539 -0.382426
vn 0.919830 -0.087539 -0.382426
vn 0.919830 -0.087539 -0.382426
vn 0.904302 0.312997 -0.290295
vn 0.904302 0.312997 -0.290295
vn 0.904302 0.312997 -0.290295
vn 0.904302 0.312997 -0.290295
vn 0.254952 0.958366 -0.128584
vn 0.254952 0.958366 -0.128584
vn 0.254952 0.958366 -0.128584
vn 0.254952 0.958366 -0.128584
vn -0.123421 0.959310 0.253952
vn -0.123421 0.959310 0.253952
vn -0.123421 0.959310 0.253952
vn -0.123421 0.959310 0.253952
vn -0.272900 0.332574 0.902729
vn -0.272900 0.332574 0.902729
vn -0.272900 0.332574 0.902729
vn -0.272900 0.332574 0.902729
vn -0.368248 -0.087227 0.925627
vn -0.368248 -0.087227 0.925627
vn -0.368248 -0.087227 0.925627
vn -0.368248 -0.087227 0.925627
vn -0.238847 0.682623 0.690635
vn -0.238847 0.682623 0.690635
vn -0.238847 0.682623 0.690635
vn -0.238847 0.682623 0.690635
vn 0.143161 0.800919 -0.581407
vn 0.143161 0.800919 -0.581407
vn 0.143161 0.800919 -0.581407
vn 0.143161 0.800919 -0.581407
vn 0.548321 0.821479 -0.156575
vn 0.548321 0.821479 -0.156575
vn 0.548321 0.821479 -0.156575
vn 0.548321 0.821479 -0.156575
vn -0.673882 0.696405 0.246788
vn -0.673882 0.696405 0.246788
vn -0.673882 0.696405 0.246788
vn -0.673882 0.696405 0.246788
vn -0.919831 -0.087539 0.382425
vn -0.919831 -0.087539 0.382425
vn -0.919831 -0.087539 0.382425
vn -0.919831 -0.087539 0.382425
vn -0.904302 0.312997 0.290295
vn -0.904302 0.312997 0.290295
vn -0.904302 0.312997 0.290295
vn -0.904302 0.312997 0.290295
vn -0.254952 0.958366 0.128584
vn -0.254952 0.958366 0.128584
vn -0.254952 0.958366 0.128584
vn -0.254952 0.958366 0.128584
vn -0.253952 0.959310 -0.123421
vn -0.253952 0.959310 -0.123421
vn -0.253952 0.959310 -0.123421
vn -0.253952 0.959310 -0.123421
vn -0.902730 0.332574 -0.272900
vn -0.902730 0.332574 -0.272900
vn -0.902730 0.332574 -0.272900
vn -0.902730 0.332574 -0.272900
vn -0.925627 -0.087228 -0.368248
vn -0.925627 -0.087228 -0.368248
vn -0.925627 -0.087228 -0.368248
vn -0.925627 -0.087228 -0.368248
vn -0.690636 0.682623 -0.238847
vn -0.690636 0.682623 -0.238847
vn -0.690636 0.682623 -0.238847
vn -0.690636 0.682623 -0.238847
vn 0.581406 0.800920 0.143161
vn 0.581406 0.800920 0.143161
vn 0.581406 0.800920 0.143161
vn 0.581406 0.800920 0.143161
vn 0.156575 0.821479 0.548321
vn 0.156575 0.821479 0.548321
vn 0.156575 0.821479 0.548321
vn 0.156575 0.821479 0.548321
vn -0.246788 0.696404 -0.673882
vn -0.246788 0.696404 -0.673882
vn -0.246788 0.696404 -0.673882
vn -0.246788 0.696404 -0.673882
vn -0.382425 -0.087539 -0.919830
vn -0.382425 -0.087539 -0.919830
vn -0.382425 -0.087539 -0.919830
vn -0.382425 -0.087539 -0.919830
vn -0.290295 0.312997 -0.904302
vn -0.290295 0.312997 -0.904302
vn -0.290295 0.312997 -0.904302
vn -0.290295 0.312997 -0.904302
vn -0.128584 0.958366 -0.254952
vn -0.128584 0.958366 -0.254952
vn -0.128584 0.958366 -0.254952
vn -0.128584 0.958366 -0.254952
vn -0.261097 -0.956478 -0.130298
vn -0.261097 -0.956478 -0.130298
vn -0.261097 -0.956478 -0.130298
vn -0.261097 -0.956478 -0.130298
vn -0.900222 -0.336603 -0.276224
vn -0.900222 -0.336603 -0.276224
vn -0.900222 -0.336603 -0.276224
vn -0.900222 -0.336603 -0.276224
vn -0.922813 0.094209 -0.373552
vn -0.922813 0.094209 -0.373552
vn -0.922813 0.094209 -0.373552
vn -0.922813 0.094209 -0.373552
vn -0.688484 -0.681077 -0.249247
vn -0.688484 -0.681077 -0.249247
vn -0.688484 -0.681077 -0.249247
vn -0.688484 -0.681077 -0.249247
vn 0.693458 -0.693904 0.193940
vn 0.693458 -0.693904 0.193940
vn 0.693458 -0.693904 0.193940
vn 0.693458 -0.693904 0.193940
vn 0.204457 -0.734008 0.647634
vn 0.204457 -0.734008 0.647634
vn 0.204457 -0.734008 0.647634
vn 0.204457 -0.734008 0.647634
vn -0.258682 -0.692936 -0.672995
vn -0.258682 -0.692936 -0.672995
vn -0.258682 -0.692936 -0.672995
vn -0.258682 -0.692936 -0.672995
vn -0.387775 0.096176 -0.916723
vn -0.387775 0.096176 -0.916723
vn -0.387775 0.096176 -0.916723
vn -0.387775 0.096176 -0.916723
vn -0.293294 -0.319327 -0.901116
vn -0.293294 -0.319327 -0.901116
vn -0.293294 -0.319327 -0.901116
vn -0.293294 -0.319327 -0.901116
vn -0.135502 -0.955700 -0.261297
vn -0.135502 -0.955700 -0.261297
vn -0.135502 -0.955700 -0.261297
vn -0.135502 -0.955700 -0.261297
vn -0.130298 -0.956478 0.261097
vn -0.130298 -0.956478 0.261097
vn -0.130298 -0.956478 0.261097
vn -0.130298 -0.956478 0.261097
vn -0.276224 -0.336603 0.900222
vn -0.276224 -0.336603 0.900222
vn -0.276224 -0.336603 0.900222
vn -0.276224 -0.336603 0.900222
vn -0.373552 0.094210 0.922813
vn -0.373552 0.094210 0.922813
vn -0.373552 0.094210 0.922813
vn -0.373552 0.094210 0.922813
vn -0.249247 -0.681077 0.688484
vn -0.249247 -0.681077 0.688484
vn -0.249247 -0.681077 0.688484
vn -0.249247 -0.681077 0.688484
vn 0.193940 -0.693904 -0.693458
vn 0.193940 -0.693904 -0.693458
vn 0.193940 -0.693904 -0.693458
vn 0.193940 -0.693904 -0.693458
vn 0.647633 -0.734009 -0.204457
vn 0.647633 -0.734009 -0.204457
vn 0.647633 -0.734009 -0.204457
vn 0.647633 -0.734009 -0.204457
vn -0.672995 -0.692936 0.258682
vn -0.672995 -0.692936 0.258682
vn -0.672995 -0.692936 0.258682
vn -0.672995 -0.692936 0.258682
vn -0.916723 0.096176 0.387776
vn -0.916723 0.096176 0.387776
vn -0.916723 0.096176 0.387776
vn -0.916723 0.096176 0.387776
vn -0.901116 -0.319327 0.293294
vn -0.901116 -0.319327 0.293294
vn -0.901116 -0.319327 0.293294
vn -0.901116 -0.319327 0.293294
vn -0.261297 -0.955700 0.135502
vn -0.261297 -0.955700 0.135502
vn -0.261297 -0.955700 0.135502
vn -0.261297 -0.955700 0.135502
vn 0.130298 -0.956478 -0.261097
vn 0.130298 -0.956478 -0.261097
vn 0.130298 -0.956478 -0.261097
vn 0.130298 -0.956478 -0.261097
vn 0.276224 -0.336603 -0.900222
vn 0.276224 -0.336603 -0.900222
vn 0.276224 -0.336603 -0.900222
vn 0.276224 -0.336603 -0.900222
vn 0.373552 0.094209 -0.922813
vn 0.373552 0.094209 -0.922813
vn 0.373552 0.094209 -0.922813
vn 0.373552 0.094209 -0.922813
vn 0.249247 -0.681077 -0.688484
vn 0.249247 -0.681077 -0.688484
vn 0.249247 -0.681077 -0.688484
vn 0.249247 -0.681077 -0.688484
vn -0.193940 -0.693904 0.693459
vn -0.193940 -0.693904 0.693459
vn -0.193940 -0.693904 0.693459
vn -0.193940 -0.693904 0.693459
vn -0.647634 -0.734008 0.204457
vn -0.647634 -0.734008 0.204457
vn -0.647634 -0.734008 0.204457
vn -0.647634 -0.734008 0.204457
vn 0.672996 -0.692936 -0.258682
vn 0.672996 -0.692936 -0.258682
vn 0.672996 -0.692936 -0.258682
vn 0.672996 -0.692936 -0.258682
vn 0.916723 0.096176 -0.387775
vn 0.916723 0.096176 -0.387775
vn 0.916723 0.096176 -0.387775
vn 0.916723 0.096176 -0.387775
vn 0.901116 -0.319326 -0.293294
vn 0.901116 -0.319326 -0.293294
vn 0.901116 -0.319326 -0.293294
vn 0.901116 -0.319326 -0.293294
vn 0.261297 -0.955700 -0.135502
vn 0.261297 -0.955700 -0.135502
vn 0.261297 -0.955700 -0.135502
vn 0.261297 -0.955700 -0.135502
vn 0.261097 -0.956478 0.130299
vn 0.261097 -0.956478 0.130299
vn 0.261097 -0.956478 0.130299
vn 0.261097 -0.956478 0.130299
vn 0.900222 -0.336603 0.276224
vn 0.900222 -0.336603 0.276224
vn 0.900222 -0.336603 0.276224
vn 0.900222 -0.336603 0.276224
vn 0.922813 0.094209 0.373552
vn 0.922813 0.094209 0.373552
vn 0.922813 0.094209 0.373552
vn 0.922813 0.094209 0.373552
vn 0.688484 -0.681077 0.249247
vn 0.688484 -0.681077 0.249247
vn 0.688484 -0.681077 0.249247
vn 0.688484 -0.681077 0.249247
vn -0.693458 -0.693904 -0.193940
vn -0.693458 -0.693904 -0.193940
vn -0.693458 -0.693904 -0.193940
vn -0.693458 -0.693904 -0.193940
vn -0.204457 -0.734008 -0.647634
vn -0.204457 -0.734008 -0.647634
vn -0.204457 -0.734008 -0.647634
vn -0.204457 -0.734008 -0.647634
vn 0.258682 -0.692936 0.672996
vn 0.258682 -0.692936 0.672996
vn 0.258682 -0.692936 0.672996
vn 0.258682 -0.692936 0.672996
vn 0.387775 0.096176 0.916723
vn 0.387775 0.096176 0.916723
vn 0.387775 0.096176 0.916723
vn 0.387775 0.096176 0.916723
vn 0.293294 -0.319326 0.901116
vn 0.293294 -0.319326 0.901116
vn 0.293294 -0.319326 0.901116
vn 0.293294 -0.319326 0.901116
vn 0.135502 -0.955700 0.261297
vn 0.135502 -0.955700 0.261297
vn 0.135502 -0.955700 0.261297
vn 0.135502 -0.955700 0.261297
vn 0.733734 0.155602 -0.661379
vn 0.733734 0.155602 -0.661379
vn 0.733734 0.155602 -0.661379
vn 0.733734 0.155602 -0.661379
vn -0.655826 0.165754 0.736491
vn -0.655826 0.165754 0.736491
vn -0.655826 0.165754 0.736491
vn -0.655826 0.165754 0.736491
vn 0.950269 -0.103657 -0.293674
vn 0.950269 -0.103657 -0.293674
vn 0.950269 -0.103657 -0.293674
vn 0.950269 -0.103657 -0.293674
vn -0.143445 -0.343624 0.928087
vn -0.143445 -0.343624 0.928087
vn -0.143445 -0.343624 0.928087
vn -0.143445 -0.343624 0.928087
vn 0.934129 -0.007268 -0.356862
vn 0.934129 -0.007268 -0.356862
vn 0.934129 -0.007268 -0.356862
vn 0.934129 -0.007268 -0.356862
vn -0.345697 -0.008447 0.938308
vn -0.345697 -0.008447 0.938308
vn -0.345697 -0.008447 0.938308
vn -0.345697 -0.008447 0.938308
vn 0.828386 0.237674 -0.507236
vn 0.828386 0.237674 -0.507236
vn 0.828386 0.237674 -0.507236
vn 0.828386 0.237674 -0.507236
vn -0.584025 0.537331 0.608432
vn -0.584025 0.537331 0.608432
vn -0.584025 0.537331 0.608432
vn -0.584025 0.537331 0.608432
vn -0.176358 -0.516569 -0.837887
vn -0.176358 -0.516569 -0.837887
vn -0.176358 -0.516569 -0.837887
vn -0.176358 -0.516569 -0.837887
vn -0.111802 0.001601 -0.993729
vn -0.111802 0.001601 -0.993729
vn -0.111802 0.001601 -0.993729
vn -0.111802 0.001601 -0.993729
vn -0.993761 0.009013 -0.111167
vn -0.993761 0.009013 -0.111167
vn -0.993761 0.009013 -0.111167
vn -0.993761 0.009013 -0.111167
vn -0.837676 -0.529220 -0.135003
vn -0.837676 -0.529220 -0.135003
vn -0.837676 -0.529220 -0.135003
vn -0.837676 -0.529220 -0.135003
vn -0.661379 0.155601 -0.733735
vn -0.661379 0.155601 -0.733735
vn -0.661379 0.155601 -0.733735
vn -0.661379 0.155601 -0.733735
vn 0.736489 0.165753 0.655828
vn 0.736489 0.165753 0.655828
vn 0.736489 0.165753 0.655828
vn 0.736489 0.165753 0.655828
vn -0.293674 -0.103658 -0.950269
vn -0.293674 -0.103658 -0.950269
vn -0.293674 -0.103658 -0.950269
vn -0.293674 -0.103658 -0.950269
vn 0.928087 -0.343624 0.143445
vn 0.928087 -0.343624 0.143445
vn 0.928087 -0.343624 0.143445
vn 0.928087 -0.343624 0.143445
vn -0.356863 -0.007268 -0.934129
vn -0.356863 -0.007268 -0.934129
vn -0.356863 -0.007268 -0.934129
vn -0.356863 -0.007268 -0.934129
vn 0.938308 -0.008447 0.345697
vn 0.938308 -0.008447 0.345697
vn 0.938308 -0.008447 0.345697
vn 0.938308 -0.008447 0.345697
vn -0.507235 0.237674 -0.828386
vn -0.507235 0.237674 -0.828386
vn -0.507235 0.237674 -0.828386
vn -0.507235 0.237674 -0.828386
vn 0.608431 0.537333 0.584025
vn 0.608431 0.537333 0.584025
vn 0.608431 0.537333 0.584025
vn 0.608431 0.537333 0.584025
vn -0.837886 -0.516570 0.176358
vn -0.837886 -0.516570 0.176358
vn -0.837886 -0.516570 0.176358
vn -0.837886 -0.516570 0.176358
vn -0.993729 0.001601 0.111802
vn -0.993729 0.001601 0.111802
vn -0.993729 0.001601 0.111802
vn -0.993729 0.001601 0.111802
vn -0.111166 0.009013 0.993761
vn -0.111166 0.009013 0.993761
vn -0.111166 0.009013 0.993761
vn -0.111166 0.009013 0.993761
vn -0.135003 -0.529216 0.837678
vn -0.135003 -0.529216 0.837678
vn -0.135003 -0.529216 0.837678
vn -0.135003 -0.529216 0.837678
vn 0.661378 0.155602 0.733735
vn 0.661378 0.155602 0.733735
vn 0.661378 0.155602 0.733735
vn 0.661378 0.155602 0.733735
vn -0.736489 0.165754 -0.655828
vn -0.736489 0.165754 -0.655828
vn -0.736489 0.165754 -0.655828
vn -0.736489 0.165754 -0.655828
vn 0.293674 -0.103657 0.950269
vn 0.293674 -0.103657 0.950269
vn 0.293674 -0.103657 0.950269
vn 0.293674 -0.103657 0.950269
vn -0.928088 -0.343624 -0.143444
vn -0.928088 -0.343624 -0.143444
vn -0.928088 -0.343624 -0.143444
vn -0.928088 -0.343624 -0.143444
vn 0.356861 -0.007268 0.934129
vn 0.356861 -0.007268 0.934129
vn 0.356861 -0.007268 0.934129
vn 0.356861 -0.007268 0.934129
vn -0.938308 -0.008447 -0.345697
vn -0.938308 -0.008447 -0.345697
vn -0.938308 -0.008447 -0.345697
vn -0.938308 -0.008447 -0.345697
vn 0.507235 0.237674 0.828386
vn 0.507235 0.237674 0.828386
vn 0.507235 0.237674 0.828386
vn 0.507235 0.237674 0.828386
vn -0.608432 0.537331 -0.584026
vn -0.608432 0.537331 -0.584026
vn -0.608432 0.537331 -0.584026
vn -0.608432 0.537331 -0.584026
vn 0.837886 -0.516570 -0.176358
vn 0.837886 -0.516570 -0.176358
vn 0.837886 -0.516570 -0.176358
vn 0.837886 -0.516570 -0.176358
vn 0.993729 0.001602 -0.111803
vn 0.993729 0.001602 -0.111803
vn 0.993729 0.001602 -0.111803
vn 0.993729 0.001602 -0.111803
vn 0.111166 0.009018 -0.993761
vn 0.111166 0.009018 -0.993761
vn 0.111166 0.009018 -0.993761
vn 0.111166 0.009018 -0.993761
vn 0.700562 -0.135377 -0.700633
vn 0.700562 -0.135377 -0.700633
vn 0.700562 -0.135377 -0.700633
vn 0.700562 -0.135377 -0.700633
vn 0.700562 -0.135377 -0.700633
vn 0.700562 -0.135377 -0.700633
vn 0.135003 -0.529219 -0.837676
vn 0.135003 -0.529219 -0.837676
vn 0.135003 -0.529219 -0.837676
vn 0.135003 -0.529219 -0.837676
vn -0.700633 -0.135377 -0.700562
vn -0.700633 -0.135377 -0.700562
vn -0.700633 -0.135377 -0.700562
vn -0.700633 -0.135377 -0.700562
vn -0.700633 -0.135377 -0.700562
vn -0.700633 -0.135377 -0.700562
vn -0.733734 0.155602 0.661379
vn -0.733734 0.155602 0.661379
vn -0.733734 0.155602 0.661379
vn -0.733734 0.155602 0.661379
vn 0.655827 0.165753 -0.736490
vn 0.655827 0.165753 -0.736490
vn 0.655827 0.165753 -0.736490
vn 0.655827 0.165753 -0.736490
vn -0.950269 -0.103657 0.293674
vn -0.950269 -0.103657 0.293674
vn -0.950269 -0.103657 0.293674
vn -0.950269 -0.103657 0.293674
vn 0.143444 -0.343624 -0.928087
vn 0.143444 -0.343624 -0.928087
vn 0.143444 -0.343624 -0.928087
vn 0.143444 -0.343624 -0.928087
vn -0.934129 -0.007268 0.356862
vn -0.934129 -0.007268 0.356862
vn -0.934129 -0.007268 0.356862
vn -0.934129 -0.007268 0.356862
vn 0.345697 -0.008447 -0.938308
vn 0.345697 -0.008447 -0.938308
vn 0.345697 -0.008447 -0.938308
vn 0.345697 -0.008447 -0.938308
vn -0.828385 0.237677 0.507235
vn -0.828385 0.237677 0.507235
vn -0.828385 0.237677 0.507235
vn -0.828385 0.237677 0.507235
vn 0.584026 0.537331 -0.608431
vn 0.584026 0.537331 -0.608431
vn 0.584026 0.537331 -0.608431
vn 0.584026 0.537331 -0.608431
vn 0.176358 -0.516569 0.837887
vn 0.176358 -0.516569 0.837887
vn 0.176358 -0.516569 0.837887
vn 0.176358 -0.516569 0.837887
vn 0.111802 0.001604 0.993729
vn 0.111802 0.001604 0.993729
vn 0.111802 0.001604 0.993729
vn 0.111802 0.001604 0.993729
vn 0.993761 0.009011 0.111165
vn 0.993761 0.009011 0.111165
vn 0.993761 0.009011 0.111165
vn 0.993761 0.009011 0.111165
vn 0.700632 -0.135376 0.700563
vn 0.700632 -0.135376 0.700563
vn 0.700632 -0.135376 0.700563
vn 0.700632 -0.135376 0.700563
vn 0.700632 -0.135376 0.700563
vn 0.700632 -0.135376 0.700563
vn 0.837675 -0.529221 0.135003
vn 0.837675 -0.529221 0.135003
vn 0.837675 -0.529221 0.135003
vn 0.837675 -0.529221 0.135003
vn -0.700563 -0.135377 0.700632
vn -0.700563 -0.135377 0.700632
vn -0.700563 -0.135377 0.700632
vn -0.700563 -0.135377 0.700632
vn -0.700563 -0.135377 0.700632
vn -0.700563 -0.135377 0.700632
vn 0.935914 -0.074042 0.344359
vn 0.935914 -0.074042 0.344359
vn 0.935914 -0.074042 0.344359
vn 0.935914 -0.074042 0.344359
vn 0.814124 0.483918 0.320977
vn 0.814124 0.483918 0.320977
vn 0.814124 0.483918 0.320977
vn 0.814124 0.483918 0.320977
vn 0.814124 0.483918 -0.320977
vn 0.814124 0.483918 -0.320977
vn 0.814124 0.483918 -0.320977
vn 0.814124 0.483918 -0.320977
vn 0.935914 -0.074043 -0.344359
vn 0.935914 -0.074043 -0.344359
vn 0.935914 -0.074043 -0.344359
vn 0.935914 -0.074043 -0.344359
vn 0.344360 -0.074043 -0.935914
vn 0.344360 -0.074043 -0.935914
vn 0.344360 -0.074043 -0.935914
vn 0.344360 -0.074043 -0.935914
vn 0.320977 0.483918 -0.814124
vn 0.320977 0.483918 -0.814124
vn 0.320977 0.483918 -0.814124
vn 0.320977 0.483918 -0.814124
vn -0.320977 0.483918 -0.814124
vn -0.320977 0.483918 -0.814124
vn -0.320977 0.483918 -0.814124
vn -0.320977 0.483918 -0.814124
vn -0.344360 -0.074043 -0.935914
vn -0.344360 -0.074043 -0.935914
vn -0.344360 -0.074043 -0.935914
vn -0.344360 -0.074043 -0.935914
vn -0.344360 -0.074042 0.935914
vn -0.344360 -0.074042 0.935914
vn -0.344360 -0.074042 0.935914
vn -0.344360 -0.074042 0.935914
vn -0.320977 0.483919 0.814124
vn -0.320977 0.483919 0.814124
vn -0.320977 0.483919 0.814124
vn -0.320977 0.483919 0.814124
vn 0.320977 0.483919 0.814124
vn 0.320977 0.483919 0.814124
vn 0.320977 0.483919 0.814124
vn 0.320977 0.483919 0.814124
vn 0.344360 -0.074042 0.935914
vn 0.344360 -0.074042 0.935914
vn 0.344360 -0.074042 0.935914
vn 0.344360 -0.074042 0.935914
vn -0.296298 0.907973 -0.296298
vn -0.296298 0.907973 -0.296298
vn -0.296298 0.907973 -0.296298
vn -0.296298 0.907973 -0.296298
vn 0.296298 0.907973 -0.296298
vn 0.296298 0.907973 -0.296298
vn 0.296298 0.907973 -0.296298
vn 0.296298 0.907973 -0.296298
vn 0.296298 0.907973 0.296298
vn 0.296298 0.907973 0.296298
vn 0.296298 0.907973 0.296298
vn 0.296298 0.907973 0.296298
vn -0.296298 0.907973 0.296298
vn -0.296298 0.907973 0.296298
vn -0.296298 0.907973 0.296298
vn -0.296298 0.907973 0.296298
vn 0.276124 -0.920604 -0.276124
vn 0.276124 -0.920604 -0.276124
vn 0.276124 -0.920604 -0.276124
vn 0.276124 -0.920604 -0.276124
vn -0.276124 -0.920604 -0.276124
vn -0.276124 -0.920604 -0.276124
vn -0.276124 -0.920604 -0.276124
vn -0.276124 -0.920604 -0.276124
vn -0.276124 -0.920604 0.276124
vn -0.276124 -0.920604 0.276124
vn -0.276124 -0.920604 0.276124
vn -0.276124 -0.920604 0.276124
vn 0.276124 -0.920604 0.276124
vn 0.276124 -0.920604 0.276124
vn 0.276124 -0.920604 0.276124
vn 0.276124 -0.920604 0.276124
vn -0.935914 -0.074043 -0.344359
vn -0.935914 -0.074043 -0.344359
vn -0.935914 -0.074043 -0.344359
vn -0.935914 -0.074043 -0.344359
vn -0.814124 0.483918 -0.320977
vn -0.814124 0.483918 -0.320977
vn -0.814124 0.483918 -0.320977
vn -0.814124 0.483918 -0.320977
vn -0.814124 0.483918 0.320977
vn -0.814124 0.483918 0.320977
vn -0.814124 0.483918 0.320977
vn -0.814124 0.483918 0.320977
vn -0.935914 -0.074042 0.344359
vn -0.935914 -0.074042 0.344359
vn -0.935914 -0.074042 0.344359
vn -0.935914 -0.074042 0.344359
g Lettuce_Whole_PaleGreen
usemtl PaleGreen
f 1 2 3
f 1 3 4
f 5 6 7
f 5 7 8
f 9 10 11
f 9 12 10
f 12 13 10
f 12 14 13
f 15 16 17
f 15 18 16
f 19 18 15
f 19 20 18
f 21 22 23
f 21 24 22
f 24 25 22
f 24 26 25
f 27 28 29
f 27 29 30
f 31 32 33
f 31 33 34
f 35 36 37
f 35 37 38
f 39 40 41
f 39 41 42
f 43 44 45
f 43 46 44
f 46 47 44
f 46 48 47
f 49 50 51
f 49 52 50
f 53 52 49
f 53 54 52
f 55 56 57
f 55 58 56
f 58 59 56
f 58 60 59
f 61 62 63
f 61 63 64
f 65 66 67
f 65 67 68
f 69 70 71
f 69 71 72
f 73 74 75
f 73 75 76
f 77 78 79
f 77 80 78
f 80 81 78
f 80 82 81
f 83 84 85
f 83 86 84
f 87 86 83
f 87 88 86
f 89 90 91
f 89 92 90
f 92 93 90
f 92 94 93
f 95 96 97
f 95 97 98
f 99 100 101
f 99 101 102
f 103 104 105
f 103 105 106
f 107 108 109
f 107 109 110
f 111 112 113
f 111 114 112
f 114 115 112
f 114 116 115
f 117 118 119
f 117 120 118
f 121 120 117
f 121 122 120
f 123 124 125
f 123 126 124
f 126 127 124
f 126 128 127
f 129 130 131
f 129 131 132
f 133 134 135
f 133 135 136
f 137 138 139
f 137 139 140
f 141 142 143
f 141 143 144
f 145 146 147
f 145 147 148
f 148 147 149
f 148 149 150
f 151 152 153
f 151 153 154
f 155 151 154
f 155 154 156
f 157 158 159
f 157 159 160
f 160 159 161
f 160 161 162
f 163 164 165
f 163 165 166
f 167 168 169
f 167 169 170
f 171 172 173
f 171 173 174
f 175 176 177
f 175 177 178
f 179 180 181
f 179 181 182
f 182 181 183
f 182 183 184
f 185 186 187
f 185 187 188
f 189 185 188
f 189 188 190
f 191 192 193
f 191 193 194
f 194 193 195
f 194 195 196
f 197 198 199
f 197 199 200
f 201 202 203
f 201 203 204
f 205 206 207
f 205 207 208
f 209 210 211
f 209 211 212
f 213 214 215
f 213 215 216
f 216 215 217
f 216 217 218
f 219 220 221
f 219 221 222
f 223 219 222
f 223 222 224
f 225 226 227
f 225 227 228
f 228 227 229
f 228 229 230
f 231 232 233
f 231 233 234
f 235 236 237
f 235 237 238
f 239 240 241
f 239 241 242
f 243 244 245
f 243 245 246
f 247 248 249
f 247 249 250
f 250 249 251
f 250 251 252
f 253 254 255
f 253 255 256
f 257 253 256
f 257 256 258
f 259 260 261
f 259 261 262
f 262 261 263
f 262 263 264
f 265 266 267
f 265 267 268
f 269 270 271
f 269 271 272
f 273 274 275
f 273 275 276
f 277 278 279
f 277 279 280
f 281 282 283
f 281 283 284
f 285 286 287
f 285 287 288
f 289 290 291
f 289 291 292
f 292 291 293
f 292 293 294
f 295 296 297
f 295 298 296
f 299 298 295
f 299 300 298
f 301 302 303
f 301 304 302
f 305 304 301
f 305 306 304
f 307 308 309
f 307 309 310
f 311 312 313
f 311 313 314
f 315 316 317
f 315 317 318
f 319 320 321
f 319 321 322
f 323 324 325
f 323 325 326
f 327 328 329
f 327 329 330
f 331 332 333
f 331 333 334
f 334 333 335
f 334 335 336
f 337 338 339
f 337 340 338
f 341 340 337
f 341 342 340
f 343 344 345
f 343 346 344
f 347 346 343
f 347 348 346
f 349 350 351
f 349 351 352
f 353 354 355
f 353 355 356
f 357 358 359
f 357 359 360
f 361 362 363
f 361 363 364
f 365 366 367
f 365 367 368
f 369 370 371
f 369 371 372
f 373 374 375
f 373 375 376
f 376 375 377
f 376 377 378
f 379 380 381
f 379 382 380
f 383 382 379
f 383 384 382
f 385 386 387
f 385 388 386
f 389 388 385
f 389 390 388
f 391 392 393
f 391 393 394
f 395 396 397
f 395 397 398
f 399 400 401
f 399 401 402
f 403 404 405
f 403 405 406
f 407 408 409
f 407 409 410
f 411 412 413
f 411 413 414
f 415 416 417
f 415 417 418
f 418 417 419
f 418 419 420
f 421 422 423
f 421 424 422
f 425 424 421
f 425 426 424
f 427 428 429
f 427 430 428
f 431 430 427
f 431 432 430
f 433 434 435
f 433 435 436
f 437 438 439
f 437 439 440
f 441 442 443
f 441 443 444
f 445 446 447
f 445 447 448
f 449 450 451
f 449 451 452
f 453 454 455
f 453 455 456
f 457 458 459
f 457 459 460
f 461 462 463
f 461 463 464
f 465 466 467
f 465 467 468
f 469 470 471
f 469 471 472
f 473 474 475
f 473 475 476
f 477 478 479
f 477 479 480
f 481 482 483
f 481 483 484
f 485 486 487
f 485 487 488
f 489 490 491
f 489 491 492
f 493 494 495
f 493 495 496
f 497 498 499
f 497 499 500
f 501 502 503
f 501 503 504
f 505 506 507
f 505 507 508
f 509 510 511
f 509 511 512
f 513 514 515
f 513 515 516
f 517 518 519
f 517 519 520
f 521 522 523
f 521 523 524
f 525 526 527
f 525 527 528
f 529 530 531
f 529 531 532
f 533 534 535
f 533 535 536
f 537 538 539
f 537 539 540
f 541 542 543
f 541 543 544
f 545 546 547
f 545 547 548
f 549 550 551
f 549 551 552
f 553 554 555
f 553 555 556
f 557 558 559
f 557 559 560
f 561 562 563
f 561 563 564
f 565 566 567
f 565 567 568
f 569 570 571
f 569 571 572
f 573 574 575
f 573 575 576
f 577 578 579
f 577 579 580
f 581 582 583
f 581 583 584
f 585 586 587
f 585 587 588
f 589 590 591
f 589 591 592
f 593 594 595
f 593 595 596
f 597 598 599
f 597 599 600
f 601 602 603
f 601 603 604
f 605 606 607
f 605 607 608
f 609 610 611
f 609 611 612
f 613 614 615
f 613 615 616
f 617 618 619
f 617 619 620
f 621 622 623
f 621 623 624
f 625 626 627
f 625 627 628
f 629 630 631
f 629 631 632
f 633 634 635
f 633 635 636
f 637 638 639
f 637 639 640
f 641 642 643
f 641 643 644
f 645 646 647
f 645 647 648
f 649 650 651
f 649 651 652
f 653 654 655
f 653 655 656
f 657 658 659
f 657 659 660
f 661 662 663
f 661 663 664
f 665 666 667
f 665 667 668
f 669 670 671
f 669 671 672
f 673 674 675
f 673 675 676
f 677 678 679
f 677 679 680
f 681 682 683
f 681 683 684
f 685 686 687
f 685 687 688
f 689 690 691
f 689 691 692
f 693 694 695
f 693 695 696
f 697 698 699
f 697 699 700
f 701 702 703
f 701 703 704
f 705 706 707
f 705 707 708
f 709 710 711
f 709 711 712
f 713 714 715
f 713 715 716
f 717 718 719
f 717 719 720
f 721 722 723
f 721 723 724
f 725 726 727
f 725 727 728
f 729 730 731
f 729 731 732
f 733 734 735
f 733 735 736
f 737 738 739
f 737 739 740
f 741 742 743
f 741 743 744
f 745 746 747
f 745 747 748
f 749 750 751
f 749 751 752
f 753 754 755
f 753 755 756
f 757 758 759
f 757 759 760
f 761 762 763
f 761 763 764
f 765 766 767
f 765 767 768
f 769 770 771
f 769 771 772
f 773 774 775
f 773 775 776
f 777 778 779
f 777 779 780
f 781 782 783
f 781 783 784
f 785 786 787
f 785 787 788
f 789 790 791
f 789 791 792
f 793 794 795
f 793 795 796
f 797 798 799
f 797 799 800
f 801 802 803
f 801 803 804
f 805 806 807
f 805 807 808
f 809 810 811
f 809 811 812
f 813 814 815
f 813 815 816
f 817 818 819
f 817 819 820
f 821 822 823
f 821 823 824
f 825 826 827
f 825 827 828
f 829 830 831
f 829 831 832
f 833 834 835
f 833 835 836
f 837 838 839
f 837 839 840
f 841 842 843
f 841 843 844
f 845 846 847
f 845 847 848
f 849 850 851
f 849 851 852
f 853 854 855
f 853 855 856
f 857 858 859
f 857 859 860
f 861 862 863
f 861 863 864
f 865 866 867
f 865 867 868
f 869 870 871
f 869 871 872
f 873 874 875
f 873 875 876
f 877 878 879
f 877 879 880
f 881 882 883
f 881 883 884
f 885 886 887
f 885 887 888
f 889 890 891
f 889 891 892
f 893 894 895
f 893 895 896
f 897 898 899
f 897 899 900
f 901 902 903
f 901 903 904
f 905 906 907
f 905 907 908
f 909 910 911
f 909 911 912
f 913 914 915
f 913 915 916
f 917 918 919
f 917 919 920
f 921 922 923
f 921 923 924
f 925 926 927
f 925 927 928
f 929 930 931
f 929 931 932
f 933 934 935
f 935 936 933
f 935 937 936
f 937 938 936
f 939 940 941
f 939 941 942
f 943 944 945
f 945 946 943
f 946 947 943
f 946 948 947
f 949 950 951
f 949 951 952
f 953 954 955
f 953 955 956
f 957 958 959
f 957 959 960
f 961 962 963
f 961 963 964
f 965 966 967
f 965 967 968
f 969 970 971
f 969 971 972
f 973 974 975
f 973 975 976
f 977 978 979
f 977 979 980
f 981 982 983
f 981 983 984
f 985 986 987
f 985 987 988
f 989 990 991
f 989 991 992
f 993 994 995
f 995 996 993
f 996 997 993
f 996 998 997
f 999 1000 1001
f 999 1001 1002
f 1003 1004 1005
f 1005 1006 1003
f 1005 1007 1006
f 1007 1008 1006
f 1009 1010 1011
f 1009 1011 1012
f 1013 1014 1015
f 1013 1015 1016
f 1017 1018 1019
f 1017 1019 1020
f 1021 1022 1023
f 1021 1023 1024
f 1025 1026 1027
f 1025 1027 1028
f 1029 1030 1031
f 1029 1031 1032
f 1033 1034 1035
f 1033 1035 1036
f 1037 1038 1039
f 1037 1039 1040
f 1041 1042 1043
f 1041 1043 1044
f 1045 1046 1047
f 1045 1047 1048
f 1049 1050 1051
f 1049 1051 1052
f 1053 1054 1055
f 1053 1055 1056
f 1057 1058 1059
f 1057 1059 1060
f 1061 1062 1063
f 1061 1063 1064
f 1065 1066 1067
f 1065 1067 1068
f 1069 1070 1071
f 1069 1071 1072
f 1073 1074 1075
f 1073 1075 1076
f 1077 1078 1079
f 1077 1079 1080
f 1081 1082 1083
f 1081 1083 1084
f 1085 1086 1087
f 1085 1087 1088
f 1089 1090 1091
f 1089 1091 1092
f 1093 1094 1095
f 1093 1095 1096
f 1097 1098 1099
f 1097 1099 1100
f 1101 1102 1103
f 1101 1103 1104
