mtllib Materials.mtl
# Ultimate Food Pack - Mushroom_Sliced
o Mushroom_Sliced
v 0.087599 0.066091 0.090722
v 0.043800 -0.007133 0.070884
v 0.031918 0.059031 -0.094627
v 0.063836 0.112391 -0.080170
v 0.043800 -0.007133 0.070884
v -0.043800 -0.007133 0.070884
v -0.031918 0.059031 -0.094627
v 0.031918 0.059031 -0.094627
v -0.043800 -0.007133 0.070884
v -0.087599 0.066090 0.090722
v -0.063836 0.112391 -0.080170
v -0.031918 0.059031 -0.094627
v 0.087599 0.066091 0.090722
v 0.074324 0.059387 0.115464
v 0.037162 -0.002740 0.098632
v 0.043800 -0.007133 0.070884
v -0.074324 0.059387 0.115464
v -0.037162 -0.002740 0.098632
v 0.037162 -0.002740 0.098632
v 0.074324 0.059387 0.115464
v 0.043800 -0.007133 0.070884
v 0.037162 -0.002740 0.098632
v -0.037162 -0.002740 0.098632
v -0.043800 -0.007133 0.070884
v -0.043800 -0.007133 0.070884
v -0.037162 -0.002740 0.098632
v -0.074324 0.059387 0.115464
v -0.087599 0.066090 0.090722
v -0.044642 0.042982 -0.119665
v -0.103362 -0.009980 -0.160279
v 0.103362 -0.009980 -0.160279
v 0.044642 0.042982 -0.119665
v -0.063836 0.112391 -0.080170
v -0.089283 0.117613 -0.099445
v -0.044642 0.042982 -0.119665
v -0.031918 0.059031 -0.094627
v 0.031918 0.059031 -0.094627
v 0.044642 0.042982 -0.119665
v 0.089283 0.117613 -0.099445
v 0.063836 0.112391 -0.080170
v -0.031918 0.059031 -0.094627
v -0.044642 0.042982 -0.119665
v 0.044642 0.042982 -0.119665
v 0.031918 0.059031 -0.094627
v 0.103362 -0.009980 -0.160279
v 0.099055 -0.000985 -0.252947
v 0.198110 0.147046 -0.208081
v 0.206725 0.121411 -0.113462
v -0.089283 0.117613 -0.099445
v -0.206725 0.121411 -0.113462
v -0.103362 -0.009980 -0.160279
v -0.044642 0.042982 -0.119665
v 0.044642 0.042982 -0.119665
v 0.103362 -0.009980 -0.160279
v 0.206725 0.121411 -0.113462
v 0.089283 0.117613 -0.099445
v -0.103362 -0.009980 -0.160279
v -0.099055 -0.000985 -0.252947
v 0.099055 -0.000985 -0.252947
v 0.103362 -0.009980 -0.160279
v -0.206725 0.121411 -0.113462
v -0.198110 0.147046 -0.208081
v -0.099055 -0.000985 -0.252947
v -0.103362 -0.009980 -0.160279
v -0.198110 0.147046 -0.208081
v -0.157144 0.158598 -0.250718
v -0.078572 0.027243 -0.286306
v -0.099055 -0.000985 -0.252947
v 0.099055 -0.000985 -0.252947
v 0.078572 0.027243 -0.286306
v 0.157143 0.158598 -0.250718
v 0.198110 0.147046 -0.208081
v -0.099055 -0.000985 -0.252947
v -0.078572 0.027243 -0.286306
v 0.078572 0.027243 -0.286306
v 0.099055 -0.000985 -0.252947
v -0.078572 0.027243 -0.286306
v -0.046919 0.088071 -0.301173
v 0.046919 0.088071 -0.301173
v 0.078572 0.027243 -0.286306
v -0.157144 0.158598 -0.250718
v -0.093839 0.166510 -0.279921
v -0.046919 0.088071 -0.301173
v -0.078572 0.027243 -0.286306
v 0.078572 0.027243 -0.286306
v 0.046919 0.088071 -0.301173
v 0.093839 0.166510 -0.279921
v 0.157143 0.158598 -0.250718
v 0.093839 0.166510 -0.279921
v 0.046919 0.088071 -0.301173
v -0.046919 0.088071 -0.301173
v -0.093839 0.166510 -0.279921
v -0.206725 0.121411 -0.113462
v -0.171751 0.122733 -0.120154
v -0.164593 0.145295 -0.203429
v -0.198110 0.147046 -0.208081
v -0.089283 0.117613 -0.099445
v -0.130558 0.155462 -0.240955
v -0.074178 0.119391 -0.107817
v -0.157144 0.158598 -0.250718
v -0.063836 0.112391 -0.080170
v -0.077963 0.162425 -0.266657
v -0.053036 0.114795 -0.090854
v -0.093839 0.166510 -0.279921
v -0.087599 0.066090 0.090722
v 0.077963 0.162425 -0.266657
v -0.072779 0.068426 0.081161
v 0.093839 0.166510 -0.279921
v -0.074324 0.059387 0.115464
v 0.130558 0.155462 -0.240955
v -0.061750 0.062527 0.102937
v 0.157143 0.158598 -0.250718
v 0.074324 0.059387 0.115464
v 0.164593 0.145295 -0.203429
v 0.061750 0.062527 0.102937
v 0.198110 0.147046 -0.208081
v 0.087599 0.066091 0.090722
v 0.171751 0.122733 -0.120154
v 0.072779 0.068426 0.081161
v 0.206725 0.121411 -0.113462
v 0.063836 0.112391 -0.080170
v 0.074178 0.119391 -0.107817
v 0.053036 0.114795 -0.090854
v 0.089283 0.117613 -0.099445
vn 0.860234 -0.449181 -0.241317
vn 0.860234 -0.449181 -0.241317
vn 0.860234 -0.449181 -0.241317
vn 0.860234 -0.449181 -0.241317
vn 0.000000 -0.928555 -0.371195
vn 0.000000 -0.928555 -0.371195
vn 0.000000 -0.928555 -0.371195
vn 0.000000 -0.928555 -0.371195
vn -0.860234 -0.449181 -0.241317
vn -0.860234 -0.449181 -0.241317
vn -0.860234 -0.449181 -0.241317
vn -0.860234 -0.449181 -0.241317
vn 0.790193 -0.547355 0.275676
vn 0.790193 -0.547355 0.275676
vn 0.790193 -0.547355 0.275676
vn 0.790193 -0.547355 0.275676
vn 0.000000 -0.261504 0.965202
vn 0.000000 -0.261504 0.965202
vn 0.000000 -0.261504 0.965202
vn 0.000000 -0.261504 0.965202
vn 0.000000 -0.987698 0.156373
vn 0.000000 -0.987698 0.156373
vn 0.000000 -0.987698 0.156373
vn 0.000000 -0.987698 0.156373
vn -0.790193 -0.547355 0.275676
vn -0.790193 -0.547355 0.275676
vn -0.790193 -0.547355 0.275676
vn -0.790193 -0.547355 0.275676
vn 0.000000 -0.608526 0.793534
vn 0.000000 -0.608526 0.793534
vn 0.000000 -0.608526 0.793534
vn 0.000000 -0.608526 0.793534
vn -0.581509 -0.517835 0.627451
vn -0.581509 -0.517835 0.627451
vn -0.581509 -0.517835 0.627451
vn -0.581509 -0.517835 0.627451
vn 0.581509 -0.517835 0.627451
vn 0.581509 -0.517835 0.627451
vn 0.581509 -0.517835 0.627451
vn 0.581509 -0.517835 0.627451
vn 0.000000 -0.841886 0.539655
vn 0.000000 -0.841886 0.539655
vn 0.000000 -0.841886 0.539655
vn 0.000000 -0.841886 0.539655
vn 0.823563 -0.544896 -0.157580
vn 0.823563 -0.544896 -0.157580
vn 0.823563 -0.544896 -0.157580
vn 0.823563 -0.544896 -0.157580
vn -0.163932 -0.409752 0.897346
vn -0.163932 -0.409752 0.897346
vn -0.163932 -0.409752 0.897346
vn -0.163932 -0.409752 0.897346
vn 0.163933 -0.409751 0.897346
vn 0.163933 -0.409751 0.897346
vn 0.163933 -0.409751 0.897346
vn 0.163933 -0.409751 0.897346
vn 0.000000 -0.995322 -0.096619
vn 0.000000 -0.995322 -0.096619
vn 0.000000 -0.995322 -0.096619
vn 0.000000 -0.995322 -0.096619
vn -0.823563 -0.544897 -0.157580
vn -0.823563 -0.544897 -0.157580
vn -0.823563 -0.544897 -0.157580
vn -0.823563 -0.544897 -0.157580
vn -0.689015 -0.241259 -0.683412
vn -0.689015 -0.241259 -0.683412
vn -0.689015 -0.241259 -0.683412
vn -0.689015 -0.241259 -0.683412
vn 0.689015 -0.241259 -0.683412
vn 0.689015 -0.241259 -0.683412
vn 0.689015 -0.241259 -0.683412
vn 0.689015 -0.241259 -0.683412
vn 0.000000 -0.763377 -0.645954
vn 0.000000 -0.763377 -0.645954
vn 0.000000 -0.763377 -0.645954
vn 0.000000 -0.763377 -0.645954
vn 0.000000 -0.237421 -0.971407
vn 0.000000 -0.237421 -0.971407
vn 0.000000 -0.237421 -0.971407
vn 0.000000 -0.237421 -0.971407
vn -0.418452 -0.004234 -0.908229
vn -0.418452 -0.004234 -0.908229
vn -0.418452 -0.004234 -0.908229
vn -0.418452 -0.004234 -0.908229
vn 0.418451 -0.004235 -0.908229
vn 0.418451 -0.004235 -0.908229
vn 0.418451 -0.004235 -0.908229
vn 0.418451 -0.004235 -0.908229
vn 0.000000 0.261505 -0.965202
vn 0.000000 0.261505 -0.965202
vn 0.000000 0.261505 -0.965202
vn 0.000000 0.261505 -0.965202
vn 0.013863 0.964799 0.262624
vn 0.000000 0.965300 0.261144
vn 0.000000 0.965300 0.261144
vn 0.012832 0.962028 0.272651
vn 0.018907 0.970900 0.238740
vn 0.000000 0.965300 0.261144
vn 0.000000 0.965300 0.261144
vn 0.012832 0.962028 0.272651
vn 0.018907 0.970900 0.238740
vn 0.000000 0.965300 0.261144
vn 0.000000 0.965300 0.261144
vn 0.010341 0.959427 0.281769
vn 0.012640 0.966772 0.255326
vn 0.000000 0.965300 0.261144
vn 0.000000 0.965300 0.261144
vn -0.010341 0.959427 0.281769
vn 0.000000 0.970002 0.243097
vn 0.000000 0.965300 0.261144
vn 0.000000 0.965300 0.261144
vn -0.012833 0.962028 0.272650
vn 0.000000 0.970002 0.243097
vn 0.000000 0.965300 0.261144
vn 0.000000 0.965300 0.261144
vn -0.012833 0.962028 0.272650
vn -0.030582 0.963935 0.264377
vn 0.000000 0.965300 0.261144
vn -0.030582 0.963935 0.264377
vn -0.013863 0.964799 0.262624
vn -0.030582 0.963935 0.264377
vn 0.000000 0.965300 0.261144
vn -0.030582 0.963935 0.264377
vn -0.018908 0.970899 0.238741
g Mushroom_Sliced_LightBrown
usemtl LightBrown
f 1 2 3
f 1 3 4
f 5 6 7
f 5 7 8
f 9 10 11
f 9 11 12
f 13 14 15
f 13 15 16
f 17 18 19
f 17 19 20
f 21 22 23
f 21 23 24
f 25 26 27
f 25 27 28
f 29 30 31
f 29 31 32
f 33 34 35
f 33 35 36
f 37 38 39
f 37 39 40
f 41 42 43
f 41 43 44
f 45 46 47
f 45 47 48
f 49 50 51
f 49 51 52
f 53 54 55
f 53 55 56
f 57 58 59
f 57 59 60
f 61 62 63
f 61 63 64
f 65 66 67
f 65 67 68
f 69 70 71
f 69 71 72
f 73 74 75
f 73 75 76
f 77 78 79
f 77 79 80
f 81 82 83
f 81 83 84
f 85 86 87
f 85 87 88
f 89 90 91
f 89 91 92
f 93 94 95
f 93 95 96
f 97 94 93
f 96 95 98
f 97 99 94
f 96 98 100
f 101 99 97
f 100 98 102
f 101 103 99
f 100 102 104
f 105 103 101
f 104 102 106
f 105 107 103
f 104 106 108
f 109 107 105
f 108 106 110
f 109 111 107
f 108 110 112
f 113 111 109
f 112 110 114
f 113 115 111
f 112 114 116
f 117 115 113
f 116 114 118
f 117 119 115
f 116 118 120
f 121 119 117
f 120 118 122
f 121 123 119
f 120 122 124
f 124 123 121
f 124 122 123
g Mushroom_Sliced_Beige
usemtl Beige
f 95 94 99
f 99 98 95
f 99 102 98
f 99 106 102
f 99 103 106
f 103 123 106
f 123 122 106
f 122 118 106
f 118 110 106
f 118 114 110
f 115 123 103
f 115 119 123
f 111 115 103
f 103 107 111
