mtllib Materials.mtl
# Ultimate Food Pack - Mushroom
o Mushroom
v 0.000000 -0.017980 -0.087599
v -0.075863 -0.017980 -0.043800
v -0.055284 0.159074 -0.031918
v 0.000000 0.159074 -0.063836
v -0.075863 -0.017980 -0.043800
v -0.075863 -0.017980 0.043800
v -0.055284 0.159074 0.031918
v -0.055284 0.159074 -0.031918
v -0.075863 -0.017980 0.043800
v 0.000000 -0.017980 0.087599
v 0.000000 0.159074 0.063836
v -0.055284 0.159074 0.031918
v 0.000000 -0.017980 0.087599
v 0.075863 -0.017980 0.043800
v 0.055284 0.159074 0.031918
v 0.000000 0.159074 0.063836
v -0.055284 0.159074 -0.031918
v -0.077321 0.179043 -0.044642
v 0.000000 0.179043 -0.089283
v 0.000000 0.159074 -0.063836
v 0.075863 -0.017980 0.043800
v 0.075863 -0.017980 -0.043800
v 0.055284 0.159074 -0.031918
v 0.055284 0.159074 0.031918
v 0.075863 -0.017980 -0.043800
v 0.000000 -0.017980 -0.087599
v 0.000000 0.159074 -0.063836
v 0.055284 0.159074 -0.031918
v 0.000000 -0.017980 0.087599
v 0.000000 -0.043613 0.074324
v 0.064367 -0.043613 0.037162
v 0.075863 -0.017980 0.043800
v -0.064367 -0.043613 0.037162
v -0.064367 -0.043613 -0.037162
v 0.000000 -0.043613 -0.074324
v 0.000000 -0.043613 0.074324
v 0.064367 -0.043613 -0.037162
v 0.064367 -0.043613 0.037162
v -0.075863 -0.017980 -0.043800
v -0.064367 -0.043613 -0.037162
v -0.064367 -0.043613 0.037162
v -0.075863 -0.017980 0.043800
v 0.075863 -0.017980 0.043800
v 0.064367 -0.043613 0.037162
v 0.064367 -0.043613 -0.037162
v 0.075863 -0.017980 -0.043800
v 0.000000 -0.017980 -0.087599
v 0.000000 -0.043613 -0.074324
v -0.064367 -0.043613 -0.037162
v -0.075863 -0.017980 -0.043800
v -0.075863 -0.017980 0.043800
v -0.064367 -0.043613 0.037162
v 0.000000 -0.043613 0.074324
v 0.000000 -0.017980 0.087599
v 0.075863 -0.017980 -0.043800
v 0.064367 -0.043613 -0.037162
v 0.000000 -0.043613 -0.074324
v 0.000000 -0.017980 -0.087599
v 0.077321 0.179043 -0.044642
v 0.179029 0.193566 -0.103362
v 0.179029 0.193566 0.103362
v 0.077321 0.179043 0.044642
v 0.000000 0.159074 0.063836
v 0.000000 0.179043 0.089283
v -0.077321 0.179043 0.044642
v -0.055284 0.159074 0.031918
v 0.000000 0.159074 -0.063836
v 0.000000 0.179043 -0.089283
v 0.077321 0.179043 -0.044642
v 0.055284 0.159074 -0.031918
v 0.055284 0.159074 0.031918
v 0.077321 0.179043 0.044642
v 0.000000 0.179043 0.089283
v 0.000000 0.159074 0.063836
v -0.055284 0.159074 0.031918
v -0.077321 0.179043 0.044642
v -0.077321 0.179043 -0.044642
v -0.055284 0.159074 -0.031918
v 0.055284 0.159074 -0.031918
v 0.077321 0.179043 -0.044642
v 0.077321 0.179043 0.044642
v 0.055284 0.159074 0.031918
v 0.179029 0.193566 0.103362
v 0.171568 0.291596 0.099055
v 0.000000 0.291596 0.198110
v 0.000000 0.193566 0.206725
v 0.000000 0.179043 0.089283
v 0.000000 0.193566 0.206725
v -0.179029 0.193566 0.103362
v -0.077321 0.179043 0.044642
v -0.077321 0.179043 -0.044642
v -0.179029 0.193566 -0.103362
v 0.000000 0.193566 -0.206725
v 0.000000 0.179043 -0.089283
v 0.000000 0.179043 -0.089283
v 0.000000 0.193566 -0.206725
v 0.179029 0.193566 -0.103362
v 0.077321 0.179043 -0.044642
v 0.077321 0.179043 0.044642
v 0.179029 0.193566 0.103362
v 0.000000 0.193566 0.206725
v 0.000000 0.179043 0.089283
v -0.077321 0.179043 0.044642
v -0.179029 0.193566 0.103362
v -0.179029 0.193566 -0.103362
v -0.077321 0.179043 -0.044642
v 0.000000 0.291596 0.198110
v 0.000000 0.335770 0.157143
v -0.136090 0.335770 0.078572
v -0.171568 0.291596 0.099055
v -0.179029 0.193566 0.103362
v -0.171568 0.291596 0.099055
v -0.171568 0.291596 -0.099055
v -0.179029 0.193566 -0.103362
v 0.179029 0.193566 -0.103362
v 0.171568 0.291596 -0.099055
v 0.171568 0.291596 0.099055
v 0.179029 0.193566 0.103362
v 0.000000 0.193566 0.206725
v 0.000000 0.291596 0.198110
v -0.171568 0.291596 0.099055
v -0.179029 0.193566 0.103362
v -0.179029 0.193566 -0.103362
v -0.171568 0.291596 -0.099055
v 0.000000 0.291596 -0.198110
v 0.000000 0.193566 -0.206725
v 0.000000 0.193566 -0.206725
v 0.000000 0.291596 -0.198110
v 0.171568 0.291596 -0.099055
v 0.179029 0.193566 -0.103362
v -0.136090 0.335770 0.078572
v -0.081267 0.366027 0.046919
v -0.081267 0.366027 -0.046920
v -0.136090 0.335770 -0.078572
v -0.171568 0.291596 -0.099055
v -0.136090 0.335770 -0.078572
v 0.000000 0.335770 -0.157144
v 0.000000 0.291596 -0.198110
v 0.000000 0.291596 -0.198110
v 0.000000 0.335770 -0.157144
v 0.136090 0.335770 -0.078572
v 0.171568 0.291596 -0.099055
v 0.171568 0.291596 0.099055
v 0.136090 0.335770 0.078572
v 0.000000 0.335770 0.157143
v 0.000000 0.291596 0.198110
v -0.171568 0.291596 0.099055
v -0.136090 0.335770 0.078572
v -0.136090 0.335770 -0.078572
v -0.171568 0.291596 -0.099055
v 0.171568 0.291596 -0.099055
v 0.136090 0.335770 -0.078572
v 0.136090 0.335770 0.078572
v 0.171568 0.291596 0.099055
v 0.000000 0.366027 -0.093839
v -0.081267 0.366027 -0.046920
v -0.081267 0.366027 0.046919
v 0.000000 0.366027 0.093839
v 0.081267 0.366027 -0.046919
v 0.081267 0.366027 0.046919
v 0.136090 0.335770 -0.078572
v 0.081267 0.366027 -0.046919
v 0.081267 0.366027 0.046919
v 0.136090 0.335770 0.078572
v 0.000000 0.335770 0.157143
v 0.000000 0.366027 0.093839
v -0.081267 0.366027 0.046919
v -0.136090 0.335770 0.078572
v -0.136090 0.335770 -0.078572
v -0.081267 0.366027 -0.046920
v 0.000000 0.366027 -0.093839
v 0.000000 0.335770 -0.157144
v 0.000000 0.335770 -0.157144
v 0.000000 0.366027 -0.093839
v 0.081267 0.366027 -0.046919
v 0.136090 0.335770 -0.078572
v 0.136090 0.335770 0.078572
v 0.081267 0.366027 0.046919
v 0.000000 0.366027 0.093839
v 0.000000 0.335770 0.157143
vn -0.496656 0.115457 -0.860234
vn -0.496656 0.115457 -0.860234
vn -0.496656 0.115457 -0.860234
vn -0.496656 0.115457 -0.860234
vn -0.993313 0.115457 0.000000
vn -0.993313 0.115457 0.000000
vn -0.993313 0.115457 0.000000
vn -0.993313 0.115457 0.000000
vn -0.496656 0.115457 0.860234
vn -0.496656 0.115457 0.860234
vn -0.496656 0.115457 0.860234
vn -0.496656 0.115457 0.860234
vn 0.496656 0.115457 0.860234
vn 0.496656 0.115457 0.860234
vn 0.496656 0.115457 0.860234
vn 0.496656 0.115457 0.860234
vn -0.335734 -0.741033 -0.581509
vn -0.335734 -0.741033 -0.581509
vn -0.335734 -0.741033 -0.581509
vn -0.335734 -0.741033 -0.581509
vn 0.993313 0.115457 0.000000
vn 0.993313 0.115457 0.000000
vn 0.993313 0.115457 0.000000
vn 0.993313 0.115457 0.000000
vn 0.496656 0.115457 -0.860234
vn 0.496656 0.115457 -0.860234
vn 0.496656 0.115457 -0.860234
vn 0.496656 0.115457 -0.860234
vn 0.456218 -0.409219 0.790193
vn 0.456218 -0.409219 0.790193
vn 0.456218 -0.409219 0.790193
vn 0.456218 -0.409219 0.790193
vn 0.000000 -1.000000 0.000000
vn 0.000000 -1.000000 0.000000
vn 0.000000 -1.000000 0.000000
vn 0.000000 -1.000000 0.000000
vn 0.000000 -1.000000 0.000000
vn 0.000000 -1.000000 0.000000
vn -0.912436 -0.409219 0.000000
vn -0.912436 -0.409219 0.000000
vn -0.912436 -0.409219 0.000000
vn -0.912436 -0.409219 0.000000
vn 0.912436 -0.409219 0.000000
vn 0.912436 -0.409219 0.000000
vn 0.912436 -0.409219 0.000000
vn 0.912436 -0.409219 0.000000
vn -0.456218 -0.409219 -0.790193
vn -0.456218 -0.409219 -0.790193
vn -0.456218 -0.409219 -0.790193
vn -0.456218 -0.409219 -0.790193
vn -0.456218 -0.409219 0.790193
vn -0.456218 -0.409219 0.790193
vn -0.456218 -0.409219 0.790193
vn -0.456218 -0.409219 0.790193
vn 0.456218 -0.409219 -0.790193
vn 0.456218 -0.409219 -0.790193
vn 0.456218 -0.409219 -0.790193
vn 0.456218 -0.409219 -0.790193
vn 0.141358 -0.989959 0.000000
vn 0.141358 -0.989959 0.000000
vn 0.141358 -0.989959 0.000000
vn 0.141358 -0.989959 0.000000
vn -0.335735 -0.741033 0.581509
vn -0.335735 -0.741033 0.581509
vn -0.335735 -0.741033 0.581509
vn -0.335735 -0.741033 0.581509
vn 0.335734 -0.741033 -0.581509
vn 0.335734 -0.741033 -0.581509
vn 0.335734 -0.741033 -0.581509
vn 0.335734 -0.741033 -0.581509
vn 0.335734 -0.741033 0.581509
vn 0.335734 -0.741033 0.581509
vn 0.335734 -0.741033 0.581509
vn 0.335734 -0.741033 0.581509
vn -0.671469 -0.741033 0.000000
vn -0.671469 -0.741033 0.000000
vn -0.671469 -0.741033 0.000000
vn -0.671469 -0.741033 0.000000
vn 0.671469 -0.741033 0.000000
vn 0.671469 -0.741033 0.000000
vn 0.671469 -0.741033 0.000000
vn 0.671469 -0.741033 0.000000
vn 0.498558 0.075888 0.863528
vn 0.498558 0.075888 0.863528
vn 0.498558 0.075888 0.863528
vn 0.498558 0.075888 0.863528
vn -0.070679 -0.989959 0.122420
vn -0.070679 -0.989959 0.122420
vn -0.070679 -0.989959 0.122420
vn -0.070679 -0.989959 0.122420
vn -0.070679 -0.989959 -0.122420
vn -0.070679 -0.989959 -0.122420
vn -0.070679 -0.989959 -0.122420
vn -0.070679 -0.989959 -0.122420
vn 0.070679 -0.989959 -0.122420
vn 0.070679 -0.989959 -0.122420
vn 0.070679 -0.989959 -0.122420
vn 0.070679 -0.989959 -0.122420
vn 0.070679 -0.989959 0.122420
vn 0.070679 -0.989959 0.122420
vn 0.070679 -0.989959 0.122420
vn 0.070679 -0.989959 0.122420
vn -0.141358 -0.989959 0.000000
vn -0.141358 -0.989959 0.000000
vn -0.141358 -0.989959 0.000000
vn -0.141358 -0.989959 0.000000
vn -0.389837 0.626185 0.675218
vn -0.389837 0.626185 0.675218
vn -0.389837 0.626185 0.675218
vn -0.389837 0.626185 0.675218
vn -0.997116 0.075888 0.000000
vn -0.997116 0.075888 0.000000
vn -0.997116 0.075888 0.000000
vn -0.997116 0.075888 0.000000
vn 0.997116 0.075888 0.000000
vn 0.997116 0.075888 0.000000
vn 0.997116 0.075888 0.000000
vn 0.997116 0.075888 0.000000
vn -0.498558 0.075888 0.863528
vn -0.498558 0.075888 0.863528
vn -0.498558 0.075888 0.863528
vn -0.498558 0.075888 0.863528
vn -0.498558 0.075888 -0.863528
vn -0.498558 0.075888 -0.863528
vn -0.498558 0.075888 -0.863528
vn -0.498558 0.075888 -0.863528
vn 0.498558 0.075887 -0.863528
vn 0.498558 0.075887 -0.863528
vn 0.498558 0.075887 -0.863528
vn 0.498558 0.075887 -0.863528
vn -0.483185 0.875518 0.000000
vn -0.483185 0.875518 0.000000
vn -0.483185 0.875518 0.000000
vn -0.483185 0.875518 0.000000
vn -0.389838 0.626184 -0.675218
vn -0.389838 0.626184 -0.675218
vn -0.389838 0.626184 -0.675218
vn -0.389838 0.626184 -0.675218
vn 0.389837 0.626185 -0.675218
vn 0.389837 0.626185 -0.675218
vn 0.389837 0.626185 -0.675218
vn 0.389837 0.626185 -0.675218
vn 0.389837 0.626185 0.675218
vn 0.389837 0.626185 0.675218
vn 0.389837 0.626185 0.675218
vn 0.389837 0.626185 0.675218
vn -0.779675 0.626184 0.000000
vn -0.779675 0.626184 0.000000
vn -0.779675 0.626184 0.000000
vn -0.779675 0.626184 0.000000
vn 0.779675 0.626185 0.000000
vn 0.779675 0.626185 0.000000
vn 0.779675 0.626185 0.000000
vn 0.779675 0.626185 0.000000
vn 0.000000 1.000000 0.000000
vn 0.000000 1.000000 0.000000
vn 0.000000 1.000000 0.000000
vn 0.000000 1.000000 0.000000
vn 0.000000 1.000000 0.000000
vn 0.000000 1.000000 0.000000
vn 0.483185 0.875518 0.000000
vn 0.483185 0.875518 0.000000
vn 0.483185 0.875518 0.000000
vn 0.483185 0.875518 0.000000
vn -0.241593 0.875518 0.418451
vn -0.241593 0.875518 0.418451
vn -0.241593 0.875518 0.418451
vn -0.241593 0.875518 0.418451
vn -0.241593 0.875518 -0.418451
vn -0.241593 0.875518 -0.418451
vn -0.241593 0.875518 -0.418451
vn -0.241593 0.875518 -0.418451
vn 0.241593 0.875518 -0.418451
vn 0.241593 0.875518 -0.418451
vn 0.241593 0.875518 -0.418451
vn 0.241593 0.875518 -0.418451
vn 0.241593 0.875518 0.418451
vn 0.241593 0.875518 0.418451
vn 0.241593 0.875518 0.418451
vn 0.241593 0.875518 0.418451
g Mushroom_LightBrown
usemtl LightBrown
f 1 2 3
f 1 3 4
f 5 6 7
f 5 7 8
f 9 10 11
f 9 11 12
f 13 14 15
f 13 15 16
f 17 18 19
f 17 19 20
f 21 22 23
f 21 23 24
f 25 26 27
f 25 27 28
f 29 30 31
f 29 31 32
f 33 34 35
f 35 36 33
f 35 37 36
f 37 38 36
f 39 40 41
f 39 41 42
f 43 44 45
f 43 45 46
f 47 48 49
f 47 49 50
f 51 52 53
f 51 53 54
f 55 56 57
f 55 57 58
f 59 60 61
f 59 61 62
f 63 64 65
f 63 65 66
f 67 68 69
f 67 69 70
f 71 72 73
f 71 73 74
f 75 76 77
f 75 77 78
f 79 80 81
f 79 81 82
f 83 84 85
f 83 85 86
f 87 88 89
f 87 89 90
f 91 92 93
f 91 93 94
f 95 96 97
f 95 97 98
f 99 100 101
f 99 101 102
f 103 104 105
f 103 105 106
f 107 108 109
f 107 109 110
f 111 112 113
f 111 113 114
f 115 116 117
f 115 117 118
f 119 120 121
f 119 121 122
f 123 124 125
f 123 125 126
f 127 128 129
f 127 129 130
f 131 132 133
f 131 133 134
f 135 136 137
f 135 137 138
f 139 140 141
f 139 141 142
f 143 144 145
f 143 145 146
f 147 148 149
f 147 149 150
f 151 152 153
f 151 153 154
f 155 156 157
f 157 158 155
f 158 159 155
f 158 160 159
f 161 162 163
f 161 163 164
f 165 166 167
f 165 167 168
f 169 170 171
f 169 171 172
f 173 174 175
f 173 175 176
f 177 178 179
f 177 179 180
