mtllib Materials.mtl
# Ultimate Food Pack - Orange
o Orange
v 0.000000 0.402130 0.000202
v 0.000000 0.396568 -0.032846
v -0.031318 0.396859 0.000202
v 0.000000 0.402130 0.000202
v 0.031314 0.396859 0.000202
v 0.000000 0.396568 -0.032846
v 0.000000 0.402130 0.000202
v 0.000000 0.396067 0.036226
v 0.031314 0.396859 0.000202
v 0.000000 0.402130 0.000202
v -0.031318 0.396859 0.000202
v 0.000000 0.396067 0.036226
v 0.372458 0.032141 -0.000001
v 0.347431 0.032141 0.148687
v 0.323877 -0.106242 0.138382
v 0.347431 -0.116547 -0.000001
v 0.347431 0.032141 0.148687
v 0.272719 0.032141 0.272716
v 0.253949 -0.095937 0.253946
v 0.323877 -0.106242 0.138382
v 0.347431 -0.116547 -0.000001
v 0.323877 -0.106242 0.138382
v 0.253949 -0.221806 0.128077
v 0.272719 -0.240576 -0.000001
v 0.323877 -0.106242 0.138382
v 0.253949 -0.095937 0.253946
v 0.215919 -0.183776 0.215915
v 0.253949 -0.221806 0.128077
v 0.372458 0.032141 -0.000001
v 0.357411 0.132938 -0.006908
v 0.326888 0.137010 0.139682
v 0.347431 0.032141 0.148687
v 0.357411 0.132938 -0.006908
v 0.270007 0.270007 0.000000
v 0.251423 0.251423 0.126805
v 0.326888 0.137010 0.139682
v 0.347431 0.032141 0.148687
v 0.326888 0.137010 0.139682
v 0.251268 0.139010 0.254595
v 0.272719 0.032141 0.272716
v 0.326888 0.137010 0.139682
v 0.251423 0.251423 0.126805
v 0.213770 0.213770 0.213770
v 0.251268 0.139010 0.254595
v 0.372458 0.032141 -0.000001
v 0.340768 0.011360 -0.147482
v 0.326888 0.137010 -0.139661
v 0.357411 0.132938 -0.006908
v 0.340768 0.011360 -0.147482
v 0.272719 0.032141 -0.272718
v 0.256310 0.126609 -0.256301
v 0.326888 0.137010 -0.139661
v 0.357411 0.132938 -0.006908
v 0.326888 0.137010 -0.139661
v 0.251423 0.251423 -0.126805
v 0.270007 0.270007 0.000000
v 0.326888 0.137010 -0.139661
v 0.256310 0.126609 -0.256301
v 0.213770 0.213770 -0.213770
v 0.251423 0.251423 -0.126805
v 0.372458 0.032141 -0.000001
v 0.347431 -0.116547 -0.000001
v 0.323877 -0.106242 -0.138384
v 0.340768 0.011360 -0.147482
v 0.347431 -0.116547 -0.000001
v 0.272719 -0.240576 -0.000001
v 0.253949 -0.221806 -0.128079
v 0.323877 -0.106242 -0.138384
v 0.340768 0.011360 -0.147482
v 0.323877 -0.106242 -0.138384
v 0.253949 -0.095937 -0.253948
v 0.272719 0.032141 -0.272718
v 0.323877 -0.106242 -0.138384
v 0.253949 -0.221806 -0.128079
v 0.215919 -0.183776 -0.215917
v 0.253949 -0.095937 -0.253948
v 0.000002 0.032141 -0.372457
v 0.147282 0.009438 -0.347287
v 0.138385 -0.106242 -0.323876
v 0.000002 -0.116547 -0.347430
v 0.147282 0.009438 -0.347287
v 0.272719 0.032141 -0.272718
v 0.253949 -0.095937 -0.253948
v 0.138385 -0.106242 -0.323876
v 0.000002 -0.116547 -0.347430
v 0.138385 -0.106242 -0.323876
v 0.128080 -0.221806 -0.253948
v 0.000002 -0.240576 -0.272718
v 0.138385 -0.106242 -0.323876
v 0.253949 -0.095937 -0.253948
v 0.215919 -0.183776 -0.215917
v 0.128080 -0.221806 -0.253948
v 0.000002 0.032141 -0.372457
v -0.000002 0.147411 -0.350654
v 0.139669 0.137010 -0.326880
v 0.147282 0.009438 -0.347287
v -0.000002 0.147411 -0.350654
v 0.000000 0.270007 -0.270007
v 0.126805 0.251423 -0.251423
v 0.139669 0.137010 -0.326880
v 0.147282 0.009438 -0.347287
v 0.139669 0.137010 -0.326880
v 0.256310 0.126609 -0.256301
v 0.272719 0.032141 -0.272718
v 0.139669 0.137010 -0.326880
v 0.126805 0.251423 -0.251423
v 0.213770 0.213770 -0.213770
v 0.256310 0.126609 -0.256301
v 0.000002 0.032141 -0.372457
v -0.149619 0.005042 -0.347624
v -0.139673 0.137010 -0.326880
v -0.000002 0.147411 -0.350654
v -0.149619 0.005042 -0.347624
v -0.275604 0.018156 -0.268330
v -0.256314 0.126609 -0.256301
v -0.139673 0.137010 -0.326880
v -0.000002 0.147411 -0.350654
v -0.139673 0.137010 -0.326880
v -0.126805 0.251423 -0.251423
v 0.000000 0.270007 -0.270007
v -0.139673 0.137010 -0.326880
v -0.256314 0.126609 -0.256301
v -0.213770 0.213770 -0.213770
v -0.126805 0.251423 -0.251423
v 0.000002 0.032141 -0.372457
v 0.000002 -0.116547 -0.347430
v -0.138381 -0.106242 -0.323876
v -0.149619 0.005042 -0.347624
v 0.000002 -0.116547 -0.347430
v 0.000002 -0.240576 -0.272718
v -0.128076 -0.221806 -0.253948
v -0.138381 -0.106242 -0.323876
v -0.149619 0.005042 -0.347624
v -0.138381 -0.106242 -0.323876
v -0.253945 -0.095937 -0.253948
v -0.275604 0.018156 -0.268330
v -0.138381 -0.106242 -0.323876
v -0.128076 -0.221806 -0.253948
v -0.215914 -0.183776 -0.215917
v -0.253945 -0.095937 -0.253948
v -0.372454 0.032141 -0.000001
v -0.347427 0.032141 -0.148689
v -0.323873 -0.106242 -0.138384
v -0.347427 -0.116547 -0.000001
v -0.347427 0.032141 -0.148689
v -0.275604 0.018156 -0.268330
v -0.253945 -0.095937 -0.253948
v -0.323873 -0.106242 -0.138384
v -0.347427 -0.116547 -0.000001
v -0.323873 -0.106242 -0.138384
v -0.253945 -0.221806 -0.128079
v -0.272715 -0.240576 -0.000001
v -0.323873 -0.106242 -0.138384
v -0.253945 -0.095937 -0.253948
v -0.215914 -0.183776 -0.215917
v -0.253945 -0.221806 -0.128079
v -0.372454 0.032141 -0.000001
v -0.350666 0.147411 0.000010
v -0.326892 0.137010 -0.139661
v -0.347427 0.032141 -0.148689
v -0.350666 0.147411 0.000010
v -0.270007 0.270007 0.000000
v -0.251423 0.251423 -0.126805
v -0.326892 0.137010 -0.139661
v -0.347427 0.032141 -0.148689
v -0.326892 0.137010 -0.139661
v -0.256314 0.126609 -0.256301
v -0.275604 0.018156 -0.268330
v -0.326892 0.137010 -0.139661
v -0.251423 0.251423 -0.126805
v -0.213770 0.213770 -0.213770
v -0.256314 0.126609 -0.256301
v -0.372454 0.032141 -0.000001
v -0.347427 0.032141 0.148687
v -0.326892 0.137010 0.139682
v -0.350666 0.147411 0.000010
v -0.347427 0.032141 0.148687
v -0.272715 0.032141 0.272716
v -0.256314 0.126609 0.256322
v -0.326892 0.137010 0.139682
v -0.350666 0.147411 0.000010
v -0.326892 0.137010 0.139682
v -0.251423 0.251423 0.126805
v -0.270007 0.270007 0.000000
v -0.326892 0.137010 0.139682
v -0.256314 0.126609 0.256322
v -0.213770 0.213770 0.213770
v -0.251423 0.251423 0.126805
v -0.372454 0.032141 -0.000001
v -0.347427 -0.116547 -0.000001
v -0.323873 -0.106242 0.138382
v -0.347427 0.032141 0.148687
v -0.347427 -0.116547 -0.000001
v -0.272715 -0.240576 -0.000001
v -0.253945 -0.221806 0.128077
v -0.323873 -0.106242 0.138382
v -0.347427 0.032141 0.148687
v -0.323873 -0.106242 0.138382
v -0.253945 -0.095937 0.253946
v -0.272715 0.032141 0.272716
v -0.323873 -0.106242 0.138382
v -0.253945 -0.221806 0.128077
v -0.215914 -0.183776 0.215915
v -0.253945 -0.095937 0.253946
v 0.000002 0.032141 0.372455
v -0.148686 0.032141 0.347428
v -0.138381 -0.106242 0.323874
v 0.000002 -0.116547 0.347428
v -0.148686 0.032141 0.347428
v -0.272715 0.032141 0.272716
v -0.253945 -0.095937 0.253946
v -0.138381 -0.106242 0.323874
v 0.000002 -0.116547 0.347428
v -0.138381 -0.106242 0.323874
v -0.128076 -0.221806 0.253946
v 0.000002 -0.240576 0.272716
v -0.138381 -0.106242 0.323874
v -0.253945 -0.095937 0.253946
v -0.215914 -0.183776 0.215915
v -0.128076 -0.221806 0.253946
v 0.000002 0.032141 0.372455
v -0.000002 0.147411 0.350674
v -0.139673 0.137010 0.326900
v -0.148686 0.032141 0.347428
v -0.000002 0.147411 0.350674
v 0.000000 0.270007 0.270007
v -0.126805 0.251423 0.251423
v -0.139673 0.137010 0.326900
v -0.148686 0.032141 0.347428
v -0.139673 0.137010 0.326900
v -0.256314 0.126609 0.256322
v -0.272715 0.032141 0.272716
v -0.139673 0.137010 0.326900
v -0.126805 0.251423 0.251423
v -0.213770 0.213770 0.213770
v -0.256314 0.126609 0.256322
v 0.000002 0.032141 0.372455
v 0.148690 0.032141 0.347428
v 0.139669 0.137010 0.326900
v -0.000002 0.147411 0.350674
v 0.148690 0.032141 0.347428
v 0.272719 0.032141 0.272716
v 0.251268 0.139010 0.254595
v 0.139669 0.137010 0.326900
v -0.000002 0.147411 0.350674
v 0.139669 0.137010 0.326900
v 0.126805 0.251423 0.251423
v 0.000000 0.270007 0.270007
v 0.139669 0.137010 0.326900
v 0.251268 0.139010 0.254595
v 0.213770 0.213770 0.213770
v 0.126805 0.251423 0.251423
v 0.000002 0.032141 0.372455
v 0.000002 -0.116547 0.347428
v 0.138385 -0.106242 0.323874
v 0.148690 0.032141 0.347428
v 0.000002 -0.116547 0.347428
v 0.000002 -0.240576 0.272716
v 0.128080 -0.221806 0.253946
v 0.138385 -0.106242 0.323874
v 0.148690 0.032141 0.347428
v 0.138385 -0.106242 0.323874
v 0.253949 -0.095937 0.253946
v 0.272719 0.032141 0.272716
v 0.138385 -0.106242 0.323874
v 0.128080 -0.221806 0.253946
v 0.215919 -0.183776 0.215915
v 0.253949 -0.095937 0.253946
v 0.000002 -0.340315 -0.000001
v 0.000002 -0.315288 -0.148689
v 0.138385 -0.291734 -0.138384
v 0.148690 -0.315288 -0.000001
v 0.000002 -0.315288 -0.148689
v 0.000002 -0.240576 -0.272718
v 0.128080 -0.221806 -0.253948
v 0.138385 -0.291734 -0.138384
v 0.148690 -0.315288 -0.000001
v 0.138385 -0.291734 -0.138384
v 0.253949 -0.221806 -0.128079
v 0.272719 -0.240576 -0.000001
v 0.138385 -0.291734 -0.138384
v 0.128080 -0.221806 -0.253948
v 0.215919 -0.183776 -0.215917
v 0.253949 -0.221806 -0.128079
v 0.000002 -0.340315 -0.000001
v -0.148686 -0.315288 -0.000001
v -0.138381 -0.291734 -0.138384
v 0.000002 -0.315288 -0.148689
v -0.148686 -0.315288 -0.000001
v -0.272715 -0.240576 -0.000001
v -0.253945 -0.221806 -0.128079
v -0.138381 -0.291734 -0.138384
v 0.000002 -0.315288 -0.148689
v -0.138381 -0.291734 -0.138384
v -0.128076 -0.221806 -0.253948
v 0.000002 -0.240576 -0.272718
v -0.138381 -0.291734 -0.138384
v -0.253945 -0.221806 -0.128079
v -0.215914 -0.183776 -0.215917
v -0.128076 -0.221806 -0.253948
v 0.000002 -0.340315 -0.000001
v 0.000002 -0.315288 0.148687
v -0.138381 -0.291734 0.138382
v -0.148686 -0.315288 -0.000001
v 0.000002 -0.315288 0.148687
v 0.000002 -0.240576 0.272716
v -0.128076 -0.221806 0.253946
v -0.138381 -0.291734 0.138382
v -0.148686 -0.315288 -0.000001
v -0.138381 -0.291734 0.138382
v -0.253945 -0.221806 0.128077
v -0.272715 -0.240576 -0.000001
v -0.138381 -0.291734 0.138382
v -0.128076 -0.221806 0.253946
v -0.215914 -0.183776 0.215915
v -0.253945 -0.221806 0.128077
v 0.000002 -0.340315 -0.000001
v 0.148690 -0.315288 -0.000001
v 0.138385 -0.291734 0.138382
v 0.000002 -0.315288 0.148687
v 0.148690 -0.315288 -0.000001
v 0.272719 -0.240576 -0.000001
v 0.253949 -0.221806 0.128077
v 0.138385 -0.291734 0.138382
v 0.000002 -0.315288 0.148687
v 0.138385 -0.291734 0.138382
v 0.128080 -0.221806 0.253946
v 0.000002 -0.240576 0.272716
v 0.138385 -0.291734 0.138382
v 0.253949 -0.221806 0.128077
v 0.215919 -0.183776 0.215915
v 0.128080 -0.221806 0.253946
v -0.041919 0.361698 0.000000
v -0.031318 0.396859 0.000202
v 0.000000 0.396568 -0.032846
v 0.000000 0.361309 -0.044234
v 0.000000 0.343976 -0.147210
v 0.000000 0.270007 -0.270007
v -0.126805 0.251423 -0.251423
v -0.137007 0.320656 -0.137007
v -0.147210 0.343976 0.000000
v -0.137007 0.320656 -0.137007
v -0.251423 0.251423 -0.126805
v -0.270007 0.270007 0.000000
v -0.137007 0.320656 -0.137007
v -0.126805 0.251423 -0.251423
v -0.213770 0.213770 -0.213770
v -0.251423 0.251423 -0.126805
v 0.000000 0.361309 -0.044234
v 0.000000 0.396568 -0.032846
v 0.031314 0.396859 0.000202
v 0.041915 0.361699 0.000000
v 0.147210 0.343976 0.000000
v 0.270007 0.270007 0.000000
v 0.251423 0.251423 -0.126805
v 0.137007 0.320656 -0.137007
v 0.000000 0.343976 -0.147210
v 0.137007 0.320656 -0.137007
v 0.126805 0.251423 -0.251423
v 0.000000 0.270007 -0.270007
v 0.137007 0.320656 -0.137007
v 0.251423 0.251423 -0.126805
v 0.213770 0.213770 -0.213770
v 0.126805 0.251423 -0.251423
v 0.000000 0.360638 0.048219
v 0.000000 0.396067 0.036226
v -0.031318 0.396859 0.000202
v -0.041919 0.361698 0.000000
v 0.000000 0.343976 0.147210
v 0.000000 0.270007 0.270007
v 0.126805 0.251423 0.251423
v 0.137007 0.320656 0.137007
v 0.147210 0.343976 0.000000
v 0.137007 0.320656 0.137007
v 0.251423 0.251423 0.126805
v 0.270007 0.270007 0.000000
v 0.137007 0.320656 0.137007
v 0.126805 0.251423 0.251423
v 0.213770 0.213770 0.213770
v 0.251423 0.251423 0.126805
v 0.041915 0.361699 0.000000
v 0.031314 0.396859 0.000202
v 0.000000 0.396067 0.036226
v 0.000000 0.360638 0.048219
v -0.147210 0.343976 0.000000
v -0.270007 0.270007 0.000000
v -0.251423 0.251423 0.126805
v -0.137007 0.320656 0.137007
v 0.000000 0.343976 0.147210
v -0.137007 0.320656 0.137007
v -0.126805 0.251423 0.251423
v 0.000000 0.270007 0.270007
v -0.137007 0.320656 0.137007
v -0.251423 0.251423 0.126805
v -0.213770 0.213770 0.213770
v -0.126805 0.251423 0.251423
v 0.137007 0.320656 -0.137007
v 0.000000 0.343976 -0.147210
v 0.000000 0.361309 -0.044234
v 0.041915 0.361699 0.000000
v 0.147210 0.343976 0.000000
v 0.041915 0.361699 0.000000
v 0.000000 0.360638 0.048219
v 0.000000 0.343976 0.147210
v 0.137007 0.320656 0.137007
v 0.147210 0.343976 0.000000
v -0.041919 0.361698 0.000000
v -0.147210 0.343976 0.000000
v -0.137007 0.320656 0.137007
v 0.000000 0.343976 0.147210
v 0.000000 0.360638 0.048219
v -0.137007 0.320656 -0.137007
v -0.147210 0.343976 0.000000
v -0.041919 0.361698 0.000000
v 0.000000 0.343976 -0.147210
v 0.000000 0.361309 -0.044234
vn -0.163742 0.972819 -0.163742
vn -0.163742 0.972819 -0.163742
vn -0.163742 0.972819 -0.163742
vn 0.163744 0.972819 -0.163742
vn 0.163744 0.972819 -0.163742
vn 0.163744 0.972819 -0.163742
vn 0.163743 0.972819 0.163742
vn 0.163743 0.972819 0.163742
vn 0.163743 0.972819 0.163742
vn -0.163741 0.972819 0.163742
vn -0.163741 0.972819 0.163742
vn -0.163741 0.972819 0.163742
vn 0.970543 -0.170361 0.170361
vn 0.970543 -0.170361 0.170361
vn 0.970543 -0.170361 0.170361
vn 0.970543 -0.170361 0.170361
vn 0.837054 -0.188983 0.513446
vn 0.837054 -0.188983 0.513446
vn 0.837054 -0.188983 0.513446
vn 0.837054 -0.188983 0.513446
vn 0.837054 -0.513446 0.188983
vn 0.837054 -0.513446 0.188983
vn 0.837054 -0.513446 0.188983
vn 0.837054 -0.513446 0.188983
vn 0.712580 -0.496100 0.496100
vn 0.712580 -0.496100 0.496100
vn 0.712580 -0.496100 0.496100
vn 0.712580 -0.496100 0.496100
vn 0.966942 0.181206 0.179410
vn 0.966942 0.181206 0.179410
vn 0.966942 0.181206 0.179410
vn 0.966942 0.181206 0.179410
vn 0.824237 0.538001 0.176605
vn 0.824237 0.538001 0.176605
vn 0.824237 0.538001 0.176605
vn 0.824237 0.538001 0.176605
vn 0.824633 0.229772 0.516900
vn 0.824633 0.229772 0.516900
vn 0.824633 0.229772 0.516900
vn 0.824633 0.229772 0.516900
vn 0.685740 0.546081 0.481203
vn 0.685740 0.546081 0.481203
vn 0.685740 0.546081 0.481203
vn 0.685740 0.546081 0.481203
vn 0.967050 0.124430 -0.222106
vn 0.967050 0.124430 -0.222106
vn 0.967050 0.124430 -0.222106
vn 0.967050 0.124430 -0.222106
vn 0.857923 0.171389 -0.484350
vn 0.857923 0.171389 -0.484350
vn 0.857923 0.171389 -0.484350
vn 0.857923 0.171389 -0.484350
vn 0.818119 0.544403 -0.185219
vn 0.818119 0.544403 -0.185219
vn 0.818119 0.544403 -0.185219
vn 0.818119 0.544403 -0.185219
vn 0.686035 0.536615 -0.491325
vn 0.686035 0.536615 -0.491325
vn 0.686035 0.536615 -0.491325
vn 0.686035 0.536615 -0.491325
vn 0.970418 -0.158968 -0.181711
vn 0.970418 -0.158968 -0.181711
vn 0.970418 -0.158968 -0.181711
vn 0.970418 -0.158968 -0.181711
vn 0.837054 -0.513446 -0.188983
vn 0.837054 -0.513446 -0.188983
vn 0.837054 -0.513446 -0.188983
vn 0.837054 -0.513446 -0.188983
vn 0.843315 -0.179857 -0.506430
vn 0.843315 -0.179857 -0.506430
vn 0.843315 -0.179857 -0.506430
vn 0.843315 -0.179857 -0.506430
vn 0.712580 -0.496100 -0.496099
vn 0.712580 -0.496100 -0.496099
vn 0.712580 -0.496100 -0.496099
vn 0.712580 -0.496100 -0.496099
vn 0.157569 -0.183098 -0.970385
vn 0.157569 -0.183098 -0.970385
vn 0.157569 -0.183098 -0.970385
vn 0.157569 -0.183098 -0.970385
vn 0.523819 -0.202628 -0.827379
vn 0.523819 -0.202628 -0.827379
vn 0.523819 -0.202628 -0.827379
vn 0.523819 -0.202628 -0.827379
vn 0.188982 -0.513446 -0.837053
vn 0.188982 -0.513446 -0.837053
vn 0.188982 -0.513446 -0.837053
vn 0.188982 -0.513446 -0.837053
vn 0.496100 -0.496100 -0.712580
vn 0.496100 -0.496100 -0.712580
vn 0.496100 -0.496100 -0.712580
vn 0.496100 -0.496100 -0.712580
vn 0.185039 0.173921 -0.967219
vn 0.185039 0.173921 -0.967219
vn 0.185039 0.173921 -0.967219
vn 0.185039 0.173921 -0.967219
vn 0.189123 0.547263 -0.815314
vn 0.189123 0.547263 -0.815314
vn 0.189123 0.547263 -0.815314
vn 0.189123 0.547263 -0.815314
vn 0.497191 0.194037 -0.845666
vn 0.497191 0.194037 -0.845666
vn 0.497191 0.194037 -0.845666
vn 0.497191 0.194037 -0.845666
vn 0.491327 0.536604 -0.686043
vn 0.491327 0.536604 -0.686043
vn 0.491327 0.536604 -0.686043
vn 0.491327 0.536604 -0.686043
vn -0.185052 0.173890 -0.967222
vn -0.185052 0.173890 -0.967222
vn -0.185052 0.173890 -0.967222
vn -0.185052 0.173890 -0.967222
vn -0.515802 0.176987 -0.838227
vn -0.515802 0.176987 -0.838227
vn -0.515802 0.176987 -0.838227
vn -0.515802 0.176987 -0.838227
vn -0.189123 0.547267 -0.815310
vn -0.189123 0.547267 -0.815310
vn -0.189123 0.547267 -0.815310
vn -0.189123 0.547267 -0.815310
vn -0.491325 0.536618 -0.686033
vn -0.491325 0.536618 -0.686033
vn -0.491325 0.536618 -0.686033
vn -0.491325 0.536618 -0.686033
vn -0.152008 -0.188601 -0.970218
vn -0.152008 -0.188601 -0.970218
vn -0.152008 -0.188601 -0.970218
vn -0.152008 -0.188601 -0.970218
vn -0.188982 -0.513446 -0.837053
vn -0.188982 -0.513446 -0.837053
vn -0.188982 -0.513446 -0.837053
vn -0.188982 -0.513446 -0.837053
vn -0.528230 -0.216033 -0.821160
vn -0.528230 -0.216033 -0.821160
vn -0.528230 -0.216033 -0.821160
vn -0.528230 -0.216033 -0.821160
vn -0.496100 -0.496100 -0.712580
vn -0.496100 -0.496100 -0.712580
vn -0.496100 -0.496100 -0.712580
vn -0.496100 -0.496100 -0.712580
vn -0.970543 -0.170361 -0.170361
vn -0.970543 -0.170361 -0.170361
vn -0.970543 -0.170361 -0.170361
vn -0.970543 -0.170361 -0.170361
vn -0.840599 -0.199766 -0.503474
vn -0.840599 -0.199766 -0.503474
vn -0.840599 -0.199766 -0.503474
vn -0.840599 -0.199766 -0.503474
vn -0.837054 -0.513446 -0.188982
vn -0.837054 -0.513446 -0.188982
vn -0.837054 -0.513446 -0.188982
vn -0.837054 -0.513446 -0.188982
vn -0.712580 -0.496100 -0.496100
vn -0.712580 -0.496100 -0.496100
vn -0.712580 -0.496100 -0.496100
vn -0.712580 -0.496100 -0.496100
vn -0.966318 0.192778 -0.170489
vn -0.966318 0.192778 -0.170489
vn -0.966318 0.192778 -0.170489
vn -0.966318 0.192778 -0.170489
vn -0.815280 0.547313 -0.189123
vn -0.815280 0.547313 -0.189123
vn -0.815280 0.547313 -0.189123
vn -0.815280 0.547313 -0.189123
vn -0.828550 0.206073 -0.520614
vn -0.828550 0.206073 -0.520614
vn -0.828550 0.206073 -0.520614
vn -0.828550 0.206073 -0.520614
vn -0.686022 0.536634 -0.491323
vn -0.686022 0.536634 -0.491323
vn -0.686022 0.536634 -0.491323
vn -0.686022 0.536634 -0.491323
vn -0.966325 0.192744 0.170489
vn -0.966325 0.192744 0.170489
vn -0.966325 0.192744 0.170489
vn -0.966325 0.192744 0.170489
vn -0.831070 0.219128 0.511181
vn -0.831070 0.219128 0.511181
vn -0.831070 0.219128 0.511181
vn -0.831070 0.219128 0.511181
vn -0.815265 0.547336 0.189122
vn -0.815265 0.547336 0.189122
vn -0.815265 0.547336 0.189122
vn -0.815265 0.547336 0.189122
vn -0.685974 0.536704 0.491313
vn -0.685974 0.536704 0.491313
vn -0.685974 0.536704 0.491313
vn -0.685974 0.536704 0.491313
vn -0.970543 -0.170361 0.170361
vn -0.970543 -0.170361 0.170361
vn -0.970543 -0.170361 0.170361
vn -0.970543 -0.170361 0.170361
vn -0.837054 -0.513446 0.188983
vn -0.837054 -0.513446 0.188983
vn -0.837054 -0.513446 0.188983
vn -0.837054 -0.513446 0.188983
vn -0.837054 -0.188983 0.513446
vn -0.837054 -0.188983 0.513446
vn -0.837054 -0.188983 0.513446
vn -0.837054 -0.188983 0.513446
vn -0.712580 -0.496099 0.496100
vn -0.712580 -0.496099 0.496100
vn -0.712580 -0.496099 0.496100
vn -0.712580 -0.496099 0.496100
vn -0.170361 -0.170361 0.970543
vn -0.170361 -0.170361 0.970543
vn -0.170361 -0.170361 0.970543
vn -0.170361 -0.170361 0.970543
vn -0.513446 -0.188983 0.837054
vn -0.513446 -0.188983 0.837054
vn -0.513446 -0.188983 0.837054
vn -0.513446 -0.188983 0.837054
vn -0.188983 -0.513446 0.837054
vn -0.188983 -0.513446 0.837054
vn -0.188983 -0.513446 0.837054
vn -0.188983 -0.513446 0.837054
vn -0.496100 -0.496100 0.712580
vn -0.496100 -0.496100 0.712580
vn -0.496100 -0.496100 0.712580
vn -0.496100 -0.496100 0.712580
vn -0.170488 0.192695 0.966335
vn -0.170488 0.192695 0.966335
vn -0.170488 0.192695 0.966335
vn -0.170488 0.192695 0.966335
vn -0.189123 0.547366 0.815244
vn -0.189123 0.547366 0.815244
vn -0.189123 0.547366 0.815244
vn -0.189123 0.547366 0.815244
vn -0.511183 0.219106 0.831074
vn -0.511183 0.219106 0.831074
vn -0.511183 0.219106 0.831074
vn -0.511183 0.219106 0.831074
vn -0.491312 0.536715 0.685966
vn -0.491312 0.536715 0.685966
vn -0.491312 0.536715 0.685966
vn -0.491312 0.536715 0.685966
vn 0.170488 0.192707 0.966332
vn 0.170488 0.192707 0.966332
vn 0.170488 0.192707 0.966332
vn 0.170488 0.192707 0.966332
vn 0.514394 0.225071 0.827492
vn 0.514394 0.225071 0.827492
vn 0.514394 0.225071 0.827492
vn 0.514394 0.225071 0.827492
vn 0.189123 0.547361 0.815247
vn 0.189123 0.547361 0.815247
vn 0.189123 0.547361 0.815247
vn 0.189123 0.547361 0.815247
vn 0.478222 0.548831 0.685630
vn 0.478222 0.548831 0.685630
vn 0.478222 0.548831 0.685630
vn 0.478222 0.548831 0.685630
vn 0.170361 -0.170361 0.970543
vn 0.170361 -0.170361 0.970543
vn 0.170361 -0.170361 0.970543
vn 0.170361 -0.170361 0.970543
vn 0.188983 -0.513446 0.837054
vn 0.188983 -0.513446 0.837054
vn 0.188983 -0.513446 0.837054
vn 0.188983 -0.513446 0.837054
vn 0.513446 -0.188983 0.837054
vn 0.513446 -0.188983 0.837054
vn 0.513446 -0.188983 0.837054
vn 0.513446 -0.188983 0.837054
vn 0.496100 -0.496099 0.712580
vn 0.496100 -0.496099 0.712580
vn 0.496100 -0.496099 0.712580
vn 0.496100 -0.496099 0.712580
vn 0.170361 -0.970543 -0.170361
vn 0.170361 -0.970543 -0.170361
vn 0.170361 -0.970543 -0.170361
vn 0.170361 -0.970543 -0.170361
vn 0.188983 -0.837054 -0.513446
vn 0.188983 -0.837054 -0.513446
vn 0.188983 -0.837054 -0.513446
vn 0.188983 -0.837054 -0.513446
vn 0.513446 -0.837054 -0.188983
vn 0.513446 -0.837054 -0.188983
vn 0.513446 -0.837054 -0.188983
vn 0.513446 -0.837054 -0.188983
vn 0.496100 -0.712580 -0.496100
vn 0.496100 -0.712580 -0.496100
vn 0.496100 -0.712580 -0.496100
vn 0.496100 -0.712580 -0.496100
vn -0.170361 -0.970543 -0.170361
vn -0.170361 -0.970543 -0.170361
vn -0.170361 -0.970543 -0.170361
vn -0.170361 -0.970543 -0.170361
vn -0.513446 -0.837054 -0.188982
vn -0.513446 -0.837054 -0.188982
vn -0.513446 -0.837054 -0.188982
vn -0.513446 -0.837054 -0.188982
vn -0.188983 -0.837054 -0.513446
vn -0.188983 -0.837054 -0.513446
vn -0.188983 -0.837054 -0.513446
vn -0.188983 -0.837054 -0.513446
vn -0.496100 -0.712580 -0.496100
vn -0.496100 -0.712580 -0.496100
vn -0.496100 -0.712580 -0.496100
vn -0.496100 -0.712580 -0.496100
vn -0.170361 -0.970543 0.170362
vn -0.170361 -0.970543 0.170362
vn -0.170361 -0.970543 0.170362
vn -0.170361 -0.970543 0.170362
vn -0.188983 -0.837054 0.513446
vn -0.188983 -0.837054 0.513446
vn -0.188983 -0.837054 0.513446
vn -0.188983 -0.837054 0.513446
vn -0.513446 -0.837053 0.188983
vn -0.513446 -0.837053 0.188983
vn -0.513446 -0.837053 0.188983
vn -0.513446 -0.837053 0.188983
vn -0.496100 -0.712580 0.496100
vn -0.496100 -0.712580 0.496100
vn -0.496100 -0.712580 0.496100
vn -0.496100 -0.712580 0.496100
vn 0.170361 -0.970543 0.170362
vn 0.170361 -0.970543 0.170362
vn 0.170361 -0.970543 0.170362
vn 0.170361 -0.970543 0.170362
vn 0.513446 -0.837054 0.188983
vn 0.513446 -0.837054 0.188983
vn 0.513446 -0.837054 0.188983
vn 0.513446 -0.837054 0.188983
vn 0.188983 -0.837054 0.513446
vn 0.188983 -0.837054 0.513446
vn 0.188983 -0.837054 0.513446
vn 0.188983 -0.837054 0.513446
vn 0.496100 -0.712580 0.496100
vn 0.496100 -0.712580 0.496100
vn 0.496100 -0.712580 0.496100
vn 0.496100 -0.712580 0.496100
vn -0.707563 0.217185 -0.672447
vn -0.707563 0.217185 -0.672447
vn -0.707563 0.217185 -0.672447
vn -0.707563 0.217185 -0.672447
vn -0.188983 0.837053 -0.513446
vn -0.188983 0.837053 -0.513446
vn -0.188983 0.837053 -0.513446
vn -0.188983 0.837053 -0.513446
vn -0.513446 0.837054 -0.188983
vn -0.513446 0.837054 -0.188983
vn -0.513446 0.837054 -0.188983
vn -0.513446 0.837054 -0.188983
vn -0.496099 0.712580 -0.496100
vn -0.496099 0.712580 -0.496100
vn -0.496099 0.712580 -0.496100
vn -0.496099 0.712580 -0.496100
vn 0.707598 0.217182 -0.672412
vn 0.707598 0.217182 -0.672412
vn 0.707598 0.217182 -0.672412
vn 0.707598 0.217182 -0.672412
vn 0.513446 0.837054 -0.188983
vn 0.513446 0.837054 -0.188983
vn 0.513446 0.837054 -0.188983
vn 0.513446 0.837054 -0.188983
vn 0.188983 0.837054 -0.513446
vn 0.188983 0.837054 -0.513446
vn 0.188983 0.837054 -0.513446
vn 0.188983 0.837054 -0.513446
vn 0.496099 0.712580 -0.496100
vn 0.496099 0.712580 -0.496100
vn 0.496099 0.712580 -0.496100
vn 0.496099 0.712580 -0.496100
vn -0.734216 0.217679 0.643073
vn -0.734216 0.217679 0.643073
vn -0.734216 0.217679 0.643073
vn -0.734216 0.217679 0.643073
vn 0.188983 0.837054 0.513446
vn 0.188983 0.837054 0.513446
vn 0.188983 0.837054 0.513446
vn 0.188983 0.837054 0.513446
vn 0.513446 0.837054 0.188982
vn 0.513446 0.837054 0.188982
vn 0.513446 0.837054 0.188982
vn 0.513446 0.837054 0.188982
vn 0.496099 0.712580 0.496100
vn 0.496099 0.712580 0.496100
vn 0.496099 0.712580 0.496100
vn 0.496099 0.712580 0.496100
vn 0.734249 0.217676 0.643036
vn 0.734249 0.217676 0.643036
vn 0.734249 0.217676 0.643036
vn 0.734249 0.217676 0.643036
vn -0.513446 0.837054 0.188982
vn -0.513446 0.837054 0.188982
vn -0.513446 0.837054 0.188982
vn -0.513446 0.837054 0.188982
vn -0.188983 0.837054 0.513446
vn -0.188983 0.837054 0.513446
vn -0.188983 0.837054 0.513446
vn -0.188983 0.837054 0.513446
vn -0.496099 0.712580 0.496100
vn -0.496099 0.712580 0.496100
vn -0.496099 0.712580 0.496100
vn -0.496099 0.712580 0.496100
vn 0.170679 0.970432 -0.170679
vn 0.170679 0.970432 -0.170679
vn 0.170679 0.970432 -0.170679
vn 0.170679 0.970432 -0.170679
vn 0.170679 0.970432 -0.170679
vn 0.170709 0.970421 0.170709
vn 0.170709 0.970421 0.170709
vn 0.170709 0.970421 0.170709
vn 0.170709 0.970421 0.170709
vn 0.170709 0.970421 0.170709
vn -0.170709 0.970421 0.170709
vn -0.170709 0.970421 0.170709
vn -0.170709 0.970421 0.170709
vn -0.170709 0.970421 0.170709
vn -0.170709 0.970421 0.170709
vn -0.170679 0.970432 -0.170679
vn -0.170679 0.970432 -0.170679
vn -0.170679 0.970432 -0.170679
vn -0.170679 0.970432 -0.170679
vn -0.170679 0.970432 -0.170679
vt 0.000000 0.000000
vt 0.000000 0.000000
vt 0.000000 0.000000
vt 0.000000 0.000000
vt 0.000000 0.000000
vt 0.000000 0.000000
vt 0.000000 0.000000
vt 0.000000 0.000000
vt 0.000000 0.000000
vt 0.000000 0.000000
vt 0.000000 0.000000
vt 0.000000 0.000000
vt 0.000000 0.000000
vt 0.000000 0.000000
vt 0.000000 0.000000
vt 0.000000 0.000000
vt 0.000000 0.000000
vt 0.000000 0.000000
vt 0.000000 0.000000
vt 0.000000 0.000000
vt 0.000000 0.000000
vt 0.000000 0.000000
vt 0.000000 0.000000
vt 0.000000 0.000000
vt 0.000000 0.000000
vt 0.000000 0.000000
vt 0.000000 0.000000
vt 0.000000 0.000000
vt 0.000000 0.000000
vt 0.000000 0.000000
vt 0.000000 0.000000
vt 0.000000 0.000000
vt 0.000000 0.000000
vt 0.000000 0.000000
vt 0.000000 0.000000
vt 0.000000 0.000000
vt 0.000000 0.000000
vt 0.000000 0.000000
vt 0.000000 0.000000
vt 0.000000 0.000000
vt 0.000000 0.000000
vt 0.000000 0.000000
vt 0.000000 0.000000
vt 0.000000 0.000000
vt 0.000000 0.000000
vt 0.000000 0.000000
vt 0.000000 0.000000
vt 0.000000 0.000000
vt 0.000000 0.000000
vt 0.000000 0.000000
vt 0.000000 0.000000
vt 0.000000 0.000000
vt 0.000000 0.000000
vt 0.000000 0.000000
vt 0.000000 0.000000
vt 0.000000 0.000000
vt 0.000000 0.000000
vt 0.000000 0.000000
vt 0.000000 0.000000
vt 0.000000 0.000000
vt 0.000000 0.000000
vt 0.000000 0.000000
vt 0.000000 0.000000
vt 0.000000 0.000000
vt 0.000000 0.000000
vt 0.000000 0.000000
vt 0.000000 0.000000
vt 0.000000 0.000000
vt 0.000000 0.000000
vt 0.000000 0.000000
vt 0.000000 0.000000
vt 0.000000 0.000000
vt 0.000000 0.000000
vt 0.000000 0.000000
vt 0.000000 0.000000
vt 0.000000 0.000000
vt 0.000000 0.000000
vt 0.000000 0.000000
vt 0.000000 0.000000
vt 0.000000 0.000000
vt 0.000000 0.000000
vt 0.000000 0.000000
vt 0.000000 0.000000
vt 0.000000 0.000000
vt 0.000000 0.000000
vt 0.000000 0.000000
vt 0.000000 0.000000
vt 0.000000 0.000000
vt 0.000000 0.000000
vt 0.000000 0.000000
vt 0.000000 0.000000
vt 0.000000 0.000000
vt 0.000000 0.000000
vt 0.000000 0.000000
vt 0.000000 0.000000
vt 0.000000 0.000000
vt 0.000000 0.000000
vt 0.000000 0.000000
vt 0.000000 0.000000
vt 0.000000 0.000000
vt 0.000000 0.000000
vt 0.000000 0.000000
vt 0.000000 0.000000
vt 0.000000 0.000000
vt 0.000000 0.000000
vt 0.000000 0.000000
vt 0.000000 0.000000
vt 0.000000 0.000000
vt 0.000000 0.000000
vt 0.000000 0.000000
vt 0.000000 0.000000
vt 0.000000 0.000000
vt 0.000000 0.000000
vt 0.000000 0.000000
vt 0.000000 0.000000
vt 0.000000 0.000000
vt 0.000000 0.000000
vt 0.000000 0.000000
vt 0.000000 0.000000
vt 0.000000 0.000000
vt 0.000000 0.000000
vt 0.000000 0.000000
vt 0.000000 0.000000
vt 0.000000 0.000000
vt 0.000000 0.000000
vt 0.000000 0.000000
vt 0.000000 0.000000
vt 0.000000 0.000000
vt 0.000000 0.000000
vt 0.000000 0.000000
vt 0.000000 0.000000
vt 0.000000 0.000000
vt 0.000000 0.000000
vt 0.000000 0.000000
vt 0.000000 0.000000
vt 0.000000 0.000000
vt 0.000000 0.000000
vt 0.000000 0.000000
vt 0.000000 0.000000
vt 0.000000 0.000000
vt 0.000000 0.000000
vt 0.000000 0.000000
vt 0.000000 0.000000
vt 0.000000 0.000000
vt 0.000000 0.000000
vt 0.000000 0.000000
vt 0.000000 0.000000
vt 0.000000 0.000000
vt 0.000000 0.000000
vt 0.000000 0.000000
vt 0.000000 0.000000
vt 0.000000 0.000000
vt 0.000000 0.000000
vt 0.000000 0.000000
vt 0.000000 0.000000
vt 0.000000 0.000000
vt 0.000000 0.000000
vt 0.000000 0.000000
vt 0.000000 0.000000
vt 0.000000 0.000000
vt 0.000000 0.000000
vt 0.000000 0.000000
vt 0.000000 0.000000
vt 0.000000 0.000000
vt 0.000000 0.000000
vt 0.000000 0.000000
vt 0.000000 0.000000
vt 0.000000 0.000000
vt 0.000000 0.000000
vt 0.000000 0.000000
vt 0.000000 0.000000
vt 0.000000 0.000000
vt 0.000000 0.000000
vt 0.000000 0.000000
vt 0.000000 0.000000
vt 0.000000 0.000000
vt 0.000000 0.000000
vt 0.000000 0.000000
vt 0.000000 0.000000
vt 0.000000 0.000000
vt 0.000000 0.000000
vt 0.000000 0.000000
vt 0.000000 0.000000
vt 0.000000 0.000000
vt 0.000000 0.000000
vt 0.000000 0.000000
vt 0.000000 0.000000
vt 0.000000 0.000000
vt 0.000000 0.000000
vt 0.000000 0.000000
vt 0.000000 0.000000
vt 0.000000 0.000000
vt 0.000000 0.000000
vt 0.000000 0.000000
vt 0.000000 0.000000
vt 0.000000 0.000000
vt 0.000000 0.000000
vt 0.000000 0.000000
vt 0.000000 0.000000
vt 0.000000 0.000000
vt 0.000000 0.000000
vt 0.000000 0.000000
vt 0.000000 0.000000
vt 0.000000 0.000000
vt 0.000000 0.000000
vt 0.000000 0.000000
vt 0.000000 0.000000
vt 0.000000 0.000000
vt 0.000000 0.000000
vt 0.000000 0.000000
vt 0.000000 0.000000
vt 0.000000 0.000000
vt 0.000000 0.000000
vt 0.000000 0.000000
vt 0.000000 0.000000
vt 0.000000 0.000000
vt 0.000000 0.000000
vt 0.000000 0.000000
vt 0.000000 0.000000
vt 0.000000 0.000000
vt 0.000000 0.000000
vt 0.000000 0.000000
vt 0.000000 0.000000
vt 0.000000 0.000000
vt 0.000000 0.000000
vt 0.000000 0.000000
vt 0.000000 0.000000
vt 0.000000 0.000000
vt 0.000000 0.000000
vt 0.000000 0.000000
vt 0.000000 0.000000
vt 0.000000 0.000000
vt 0.000000 0.000000
vt 0.000000 0.000000
vt 0.000000 0.000000
vt 0.000000 0.000000
vt 0.000000 0.000000
vt 0.000000 0.000000
vt 0.000000 0.000000
vt 0.000000 0.000000
vt 0.000000 0.000000
vt 0.000000 0.000000
vt 0.000000 0.000000
vt 0.000000 0.000000
vt 0.000000 0.000000
vt 0.000000 0.000000
vt 0.000000 0.000000
vt 0.000000 0.000000
vt 0.000000 0.000000
vt 0.000000 0.000000
vt 0.000000 0.000000
vt 0.000000 0.000000
vt 0.000000 0.000000
vt 0.000000 0.000000
vt 0.000000 0.000000
vt 0.000000 0.000000
vt 0.000000 0.000000
vt 0.000000 0.000000
vt 0.000000 0.000000
vt 0.000000 0.000000
vt 0.000000 0.000000
vt 0.000000 0.000000
vt 0.000000 0.000000
vt 0.000000 0.000000
vt 0.000000 0.000000
vt 0.000000 0.000000
vt 0.000000 0.000000
vt 0.000000 0.000000
vt 0.000000 0.000000
vt 0.000000 0.000000
vt 0.000000 0.000000
vt 0.000000 0.000000
vt 0.000000 0.000000
vt 0.000000 0.000000
vt 0.000000 0.000000
vt 0.000000 0.000000
vt 0.000000 0.000000
vt 0.000000 0.000000
vt 0.000000 0.000000
vt 0.000000 0.000000
vt 0.000000 0.000000
vt 0.000000 0.000000
vt 0.000000 0.000000
vt 0.000000 0.000000
vt 0.000000 0.000000
vt 0.000000 0.000000
vt 0.000000 0.000000
vt 0.000000 0.000000
vt 0.000000 0.000000
vt 0.000000 0.000000
vt 0.000000 0.000000
vt 0.000000 0.000000
vt 0.000000 0.000000
vt 0.000000 0.000000
vt 0.000000 0.000000
vt 0.000000 0.000000
vt 0.000000 0.000000
vt 0.000000 0.000000
vt 0.000000 0.000000
vt 0.000000 0.000000
vt 0.000000 0.000000
vt 0.000000 0.000000
vt 0.000000 0.000000
vt 0.000000 0.000000
vt 0.000000 0.000000
vt 0.000000 0.000000
vt 0.000000 0.000000
vt 0.000000 0.000000
vt 0.000000 0.000000
vt 0.000000 0.000000
vt 0.000000 0.000000
vt 0.000000 0.000000
vt 0.000000 0.000000
vt 0.000000 0.000000
vt 0.000000 0.000000
vt 0.000000 0.000000
vt 0.000000 0.000000
vt 0.000000 0.000000
vt 0.000000 0.000000
vt 0.000000 0.000000
vt 0.000000 0.000000
vt 0.000000 0.000000
vt 0.000000 0.000000
vt 0.000000 0.000000
vt 0.000000 0.000000
vt 0.000000 0.000000
vt 0.000000 0.000000
vt 0.000000 0.000000
vt 0.000000 0.000000
vt 0.000000 0.000000
vt 0.000000 0.000000
vt 0.000000 0.000000
vt 0.000000 0.000000
vt 0.000000 0.000000
vt 0.000000 0.000000
vt 0.000000 0.000000
vt 0.000000 0.000000
vt 0.000000 0.000000
vt 0.000000 0.000000
vt 0.000000 0.000000
vt 0.000000 0.000000
vt 0.000000 0.000000
vt 0.000000 0.000000
vt 0.000000 0.000000
vt 0.000000 0.000000
vt 0.000000 0.000000
vt 0.000000 0.000000
vt 0.000000 0.000000
vt 0.000000 0.000000
vt 0.000000 0.000000
vt 0.000000 0.000000
vt 0.000000 0.000000
vt 0.000000 0.000000
vt 0.000000 0.000000
vt 0.000000 0.000000
vt 0.000000 0.000000
vt 0.000000 0.000000
vt 0.000000 0.000000
vt 0.000000 0.000000
vt 0.000000 0.000000
vt 0.000000 0.000000
vt 0.000000 0.000000
vt 0.000000 0.000000
vt 0.000000 0.000000
vt 0.000000 0.000000
vt 0.000000 0.000000
vt 0.000000 0.000000
vt 0.000000 0.000000
vt 0.000000 0.000000
vt 0.000000 0.000000
vt 0.000000 0.000000
vt 0.000000 0.000000
vt 0.000000 0.000000
vt 0.000000 0.000000
vt 0.000000 0.000000
vt 0.000000 0.000000
vt 0.000000 0.000000
vt 0.000000 0.000000
vt 0.000000 0.000000
vt 0.000000 0.000000
vt 0.000000 0.000000
vt 0.000000 0.000000
vt 0.000000 0.000000
vt 0.000000 0.000000
vt 0.000000 0.000000
vt 0.000000 0.000000
vt 0.000000 0.000000
vt 0.000000 0.000000
vt 0.000000 0.000000
vt 0.000000 0.000000
vt 0.000000 0.000000
vt 0.000000 0.000000
vt 0.000000 0.000000
vt 0.000000 0.000000
vt 0.000000 0.000000
vt 0.000000 0.000000
vt 0.000000 0.000000
vt 0.000000 0.000000
vt 0.000000 0.000000
vt 0.000000 0.000000
vt 0.000000 0.000000
vt 0.000000 0.000000
vt 0.000000 0.000000
vt 0.000000 0.000000
vt 0.000000 0.000000
vt 0.000000 0.000000
vt 0.000000 0.000000
vt 0.000000 0.000000
vt 0.000000 0.000000
vt 0.000000 0.000000
vt 0.000000 0.000000
vt 0.000000 0.000000
vt 0.000000 0.000000
vt 0.000000 0.000000
vt 0.000000 0.000000
vt 0.000000 0.000000
g Orange_Orange
usemtl Orange
f 1/1/1 2/2/2 3/3/3
f 4/4/4 5/5/5 6/6/6
f 7/7/7 8/8/8 9/9/9
f 10/10/10 11/11/11 12/12/12
f 13/13/13 14/14/14 15/15/15
f 13/13/13 15/15/15 16/16/16
f 17/17/17 18/18/18 19/19/19
f 17/17/17 19/19/19 20/20/20
f 21/21/21 22/22/22 23/23/23
f 21/21/21 23/23/23 24/24/24
f 25/25/25 26/26/26 27/27/27
f 25/25/25 27/27/27 28/28/28
f 29/29/29 30/30/30 31/31/31
f 29/29/29 31/31/31 32/32/32
f 33/33/33 34/34/34 35/35/35
f 33/33/33 35/35/35 36/36/36
f 37/37/37 38/38/38 39/39/39
f 37/37/37 39/39/39 40/40/40
f 41/41/41 42/42/42 43/43/43
f 41/41/41 43/43/43 44/44/44
f 45/45/45 46/46/46 47/47/47
f 45/45/45 47/47/47 48/48/48
f 49/49/49 50/50/50 51/51/51
f 49/49/49 51/51/51 52/52/52
f 53/53/53 54/54/54 55/55/55
f 53/53/53 55/55/55 56/56/56
f 57/57/57 58/58/58 59/59/59
f 57/57/57 59/59/59 60/60/60
f 61/61/61 62/62/62 63/63/63
f 61/61/61 63/63/63 64/64/64
f 65/65/65 66/66/66 67/67/67
f 65/65/65 67/67/67 68/68/68
f 69/69/69 70/70/70 71/71/71
f 69/69/69 71/71/71 72/72/72
f 73/73/73 74/74/74 75/75/75
f 73/73/73 75/75/75 76/76/76
f 77/77/77 78/78/78 79/79/79
f 77/77/77 79/79/79 80/80/80
f 81/81/81 82/82/82 83/83/83
f 81/81/81 83/83/83 84/84/84
f 85/85/85 86/86/86 87/87/87
f 85/85/85 87/87/87 88/88/88
f 89/89/89 90/90/90 91/91/91
f 89/89/89 91/91/91 92/92/92
f 93/93/93 94/94/94 95/95/95
f 93/93/93 95/95/95 96/96/96
f 97/97/97 98/98/98 99/99/99
f 97/97/97 99/99/99 100/100/100
f 101/101/101 102/102/102 103/103/103
f 101/101/101 103/103/103 104/104/104
f 105/105/105 106/106/106 107/107/107
f 105/105/105 107/107/107 108/108/108
f 109/109/109 110/110/110 111/111/111
f 109/109/109 111/111/111 112/112/112
f 113/113/113 114/114/114 115/115/115
f 113/113/113 115/115/115 116/116/116
f 117/117/117 118/118/118 119/119/119
f 117/117/117 119/119/119 120/120/120
f 121/121/121 122/122/122 123/123/123
f 121/121/121 123/123/123 124/124/124
f 125/125/125 126/126/126 127/127/127
f 125/125/125 127/127/127 128/128/128
f 129/129/129 130/130/130 131/131/131
f 129/129/129 131/131/131 132/132/132
f 133/133/133 134/134/134 135/135/135
f 133/133/133 135/135/135 136/136/136
f 137/137/137 138/138/138 139/139/139
f 137/137/137 139/139/139 140/140/140
f 141/141/141 142/142/142 143/143/143
f 141/141/141 143/143/143 144/144/144
f 145/145/145 146/146/146 147/147/147
f 145/145/145 147/147/147 148/148/148
f 149/149/149 150/150/150 151/151/151
f 149/149/149 151/151/151 152/152/152
f 153/153/153 154/154/154 155/155/155
f 153/153/153 155/155/155 156/156/156
f 157/157/157 158/158/158 159/159/159
f 157/157/157 159/159/159 160/160/160
f 161/161/161 162/162/162 163/163/163
f 161/161/161 163/163/163 164/164/164
f 165/165/165 166/166/166 167/167/167
f 165/165/165 167/167/167 168/168/168
f 169/169/169 170/170/170 171/171/171
f 169/169/169 171/171/171 172/172/172
f 173/173/173 174/174/174 175/175/175
f 173/173/173 175/175/175 176/176/176
f 177/177/177 178/178/178 179/179/179
f 177/177/177 179/179/179 180/180/180
f 181/181/181 182/182/182 183/183/183
f 181/181/181 183/183/183 184/184/184
f 185/185/185 186/186/186 187/187/187
f 185/185/185 187/187/187 188/188/188
f 189/189/189 190/190/190 191/191/191
f 189/189/189 191/191/191 192/192/192
f 193/193/193 194/194/194 195/195/195
f 193/193/193 195/195/195 196/196/196
f 197/197/197 198/198/198 199/199/199
f 197/197/197 199/199/199 200/200/200
f 201/201/201 202/202/202 203/203/203
f 201/201/201 203/203/203 204/204/204
f 205/205/205 206/206/206 207/207/207
f 205/205/205 207/207/207 208/208/208
f 209/209/209 210/210/210 211/211/211
f 209/209/209 211/211/211 212/212/212
f 213/213/213 214/214/214 215/215/215
f 213/213/213 215/215/215 216/216/216
f 217/217/217 218/218/218 219/219/219
f 217/217/217 219/219/219 220/220/220
f 221/221/221 222/222/222 223/223/223
f 221/221/221 223/223/223 224/224/224
f 225/225/225 226/226/226 227/227/227
f 225/225/225 227/227/227 228/228/228
f 229/229/229 230/230/230 231/231/231
f 229/229/229 231/231/231 232/232/232
f 233/233/233 234/234/234 235/235/235
f 233/233/233 235/235/235 236/236/236
f 237/237/237 238/238/238 239/239/239
f 237/237/237 239/239/239 240/240/240
f 241/241/241 242/242/242 243/243/243
f 241/241/241 243/243/243 244/244/244
f 245/245/245 246/246/246 247/247/247
f 245/245/245 247/247/247 248/248/248
f 249/249/249 250/250/250 251/251/251
f 249/249/249 251/251/251 252/252/252
f 253/253/253 254/254/254 255/255/255
f 253/253/253 255/255/255 256/256/256
f 257/257/257 258/258/258 259/259/259
f 257/257/257 259/259/259 260/260/260
f 261/261/261 262/262/262 263/263/263
f 261/261/261 263/263/263 264/264/264
f 265/265/265 266/266/266 267/267/267
f 265/265/265 267/267/267 268/268/268
f 269/269/269 270/270/270 271/271/271
f 269/269/269 271/271/271 272/272/272
f 273/273/273 274/274/274 275/275/275
f 273/273/273 275/275/275 276/276/276
f 277/277/277 278/278/278 279/279/279
f 277/277/277 279/279/279 280/280/280
f 281/281/281 282/282/282 283/283/283
f 281/281/281 283/283/283 284/284/284
f 285/285/285 286/286/286 287/287/287
f 285/285/285 287/287/287 288/288/288
f 289/289/289 290/290/290 291/291/291
f 289/289/289 291/291/291 292/292/292
f 293/293/293 294/294/294 295/295/295
f 293/293/293 295/295/295 296/296/296
f 297/297/297 298/298/298 299/299/299
f 297/297/297 299/299/299 300/300/300
f 301/301/301 302/302/302 303/303/303
f 301/301/301 303/303/303 304/304/304
f 305/305/305 306/306/306 307/307/307
f 305/305/305 307/307/307 308/308/308
f 309/309/309 310/310/310 311/311/311
f 309/309/309 311/311/311 312/312/312
f 313/313/313 314/314/314 315/315/315
f 313/313/313 315/315/315 316/316/316
f 317/317/317 318/318/318 319/319/319
f 317/317/317 319/319/319 320/320/320
f 321/321/321 322/322/322 323/323/323
f 321/321/321 323/323/323 324/324/324
f 325/325/325 326/326/326 327/327/327
f 325/325/325 327/327/327 328/328/328
f 329/329/329 330/330/330 331/331/331
f 329/329/329 331/331/331 332/332/332
f 333/333/333 334/334/334 335/335/335
f 333/333/333 335/335/335 336/336/336
f 337/337/337 338/338/338 339/339/339
f 337/337/337 339/339/339 340/340/340
f 341/341/341 342/342/342 343/343/343
f 341/341/341 343/343/343 344/344/344
f 345/345/345 346/346/346 347/347/347
f 345/345/345 347/347/347 348/348/348
f 349/349/349 350/350/350 351/351/351
f 349/349/349 351/351/351 352/352/352
f 353/353/353 354/354/354 355/355/355
f 353/353/353 355/355/355 356/356/356
f 357/357/357 358/358/358 359/359/359
f 357/357/357 359/359/359 360/360/360
f 361/361/361 362/362/362 363/363/363
f 361/361/361 363/363/363 364/364/364
f 365/365/365 366/366/366 367/367/367
f 365/365/365 367/367/367 368/368/368
f 369/369/369 370/370/370 371/371/371
f 369/369/369 371/371/371 372/372/372
f 373/373/373 374/374/374 375/375/375
f 373/373/373 375/375/375 376/376/376
f 377/377/377 378/378/378 379/379/379
f 377/377/377 379/379/379 380/380/380
f 381/381/381 382/382/382 383/383/383
f 381/381/381 383/383/383 384/384/384
f 385/385/385 386/386/386 387/387/387
f 385/385/385 387/387/387 388/388/388
f 389/389/389 390/390/390 391/391/391
f 389/389/389 391/391/391 392/392/392
f 393/393/393 394/394/394 395/395/395
f 393/393/393 395/395/395 396/396/396
f 397/397/397 398/398/398 399/399/399
f 399/399/399 400/400/400 397/397/397
f 400/400/400 401/401/401 397/397/397
f 402/402/402 403/403/403 404/404/404
f 404/404/404 405/405/405 402/402/402
f 405/405/405 406/406/406 402/402/402
f 407/407/407 408/408/408 409/409/409
f 409/409/409 410/410/410 407/407/407
f 410/410/410 411/411/411 407/407/407
f 412/412/412 413/413/413 414/414/414
f 414/414/414 415/415/415 412/412/412
f 414/414/414 416/416/416 415/415/415
