mtllib Materials.mtl
# Ultimate Food Pack - Pancake
o Pancake
v -0.408322 -0.044442 -0.606677
v -0.395001 0.048775 -0.585858
v 0.142673 0.048775 -0.681776
v 0.147974 -0.044442 -0.705917
v 0.147974 -0.044442 -0.705917
v 0.142673 0.048775 -0.681776
v 0.590690 0.048775 -0.369408
v 0.611509 -0.044442 -0.382730
v 0.611509 -0.044442 -0.382730
v 0.590690 0.048775 -0.369408
v 0.686608 0.048775 0.168266
v 0.710750 -0.044442 0.173567
v 0.710750 -0.044442 0.173567
v 0.686608 0.048775 0.168266
v 0.374240 0.048775 0.616283
v 0.387562 -0.044442 0.637101
v 0.387562 -0.044442 0.637101
v 0.374240 0.048775 0.616283
v -0.163434 0.048775 0.712201
v -0.168735 -0.044442 0.736342
v -0.168735 -0.044442 0.736342
v -0.163434 0.048775 0.712201
v -0.611451 0.048775 0.399833
v -0.632269 -0.044442 0.413155
v -0.632269 -0.044442 0.413155
v -0.611451 0.048775 0.399833
v -0.707369 0.048775 -0.137841
v -0.731510 -0.044442 -0.143142
v -0.731510 -0.044442 -0.143142
v -0.707369 0.048775 -0.137841
v -0.395001 0.048775 -0.585858
v -0.408322 -0.044442 -0.606677
v -0.611451 -0.137659 0.399833
v -0.707369 -0.137659 -0.137841
v -0.395001 -0.137659 -0.585858
v -0.163434 -0.137659 0.712201
v 0.142673 -0.137659 -0.681776
v 0.374240 -0.137659 0.616283
v 0.590690 -0.137659 -0.369408
v 0.686608 -0.137659 0.168266
v -0.707369 -0.137659 -0.137841
v -0.731510 -0.044442 -0.143142
v -0.408322 -0.044442 -0.606677
v -0.395001 -0.137659 -0.585858
v -0.611451 -0.137659 0.399833
v -0.632269 -0.044442 0.413155
v -0.731510 -0.044442 -0.143142
v -0.707369 -0.137659 -0.137841
v -0.163434 -0.137659 0.712201
v -0.168735 -0.044442 0.736342
v -0.632269 -0.044442 0.413155
v -0.611451 -0.137659 0.399833
v 0.374240 -0.137659 0.616283
v 0.387562 -0.044442 0.637101
v -0.168735 -0.044442 0.736342
v -0.163434 -0.137659 0.712201
v 0.686608 -0.137659 0.168266
v 0.710750 -0.044442 0.173567
v 0.387562 -0.044442 0.637101
v 0.374240 -0.137659 0.616283
v 0.590690 -0.137659 -0.369408
v 0.611509 -0.044442 -0.382730
v 0.710750 -0.044442 0.173567
v 0.686608 -0.137659 0.168266
v 0.142673 -0.137659 -0.681776
v 0.147974 -0.044442 -0.705917
v 0.611509 -0.044442 -0.382730
v 0.590690 -0.137659 -0.369408
v -0.395001 -0.137659 -0.585858
v -0.408322 -0.044442 -0.606677
v 0.147974 -0.044442 -0.705917
v 0.142673 -0.137659 -0.681776
v -0.550030 0.048775 0.360530
v -0.147794 0.048775 0.640979
v -0.142372 0.021539 0.616287
v -0.528736 0.021539 0.346904
v 0.334938 0.048775 0.554862
v 0.615387 0.048775 0.152626
v 0.590694 0.021539 0.147204
v 0.321312 0.021539 0.533568
v 0.529270 0.048775 -0.330106
v 0.127033 0.048775 -0.610555
v 0.121611 0.021539 -0.585862
v 0.507975 0.021539 -0.316479
v -0.636147 0.048775 -0.122201
v -0.550030 0.048775 0.360530
v -0.528736 0.021539 0.346904
v -0.611455 0.021539 -0.116779
v -0.147794 0.048775 0.640979
v 0.334938 0.048775 0.554862
v 0.321312 0.021539 0.533568
v -0.142372 0.021539 0.616287
v 0.615387 0.048775 0.152626
v 0.529270 0.048775 -0.330106
v 0.507975 0.021539 -0.316479
v 0.590694 0.021539 0.147204
v 0.127033 0.048775 -0.610555
v -0.355698 0.048775 -0.524438
v -0.342072 0.021539 -0.503143
v 0.121611 0.021539 -0.585862
v -0.355698 0.048775 -0.524438
v -0.636147 0.048775 -0.122201
v -0.611455 0.021539 -0.116779
v -0.342072 0.021539 -0.503143
v 0.374240 0.048775 0.616283
v 0.686608 0.048775 0.168266
v 0.615387 0.048775 0.152626
v 0.334938 0.048775 0.554862
v 0.529270 0.048775 -0.330106
v -0.163434 0.048775 0.712201
v 0.590690 0.048775 -0.369408
v -0.147794 0.048775 0.640979
v 0.127033 0.048775 -0.610555
v -0.611451 0.048775 0.399833
v 0.142673 0.048775 -0.681776
v -0.550030 0.048775 0.360530
v -0.355698 0.048775 -0.524438
v -0.707369 0.048775 -0.137841
v -0.395001 0.048775 -0.585858
v -0.636147 0.048775 -0.122201
v -0.342072 0.021539 -0.503143
v -0.611455 0.021539 -0.116779
v -0.528736 0.021539 0.346904
v -0.142372 0.021539 0.616287
v 0.121611 0.021539 -0.585862
v 0.321312 0.021539 0.533568
v 0.507975 0.021539 -0.316479
v 0.590694 0.021539 0.147204
v -0.035721 -0.027830 0.214810
v -0.029481 -0.020870 0.217894
v -0.038805 -0.020870 0.221049
v -0.029481 0.110694 0.217894
v -0.035721 0.117655 0.214810
v -0.038805 0.110694 0.221049
v -0.188150 -0.027830 0.139462
v -0.191234 -0.020870 0.145702
v -0.194390 -0.020870 0.136378
v -0.188150 0.117655 0.139462
v -0.194390 0.110694 0.136378
v -0.191234 0.110694 0.145702
v 0.078697 -0.027830 -0.016658
v 0.081781 -0.020870 -0.022898
v 0.084936 -0.020870 -0.013574
v 0.078697 0.117655 -0.016658
v 0.084936 0.110694 -0.013574
v 0.081781 0.110694 -0.022898
v -0.073732 -0.027830 -0.092006
v -0.079972 -0.020870 -0.095090
v -0.070648 -0.020870 -0.098245
v -0.073732 0.117655 -0.092006
v -0.070648 0.110694 -0.098245
v -0.079972 0.110694 -0.095090
v 0.084936 -0.020870 -0.013574
v 0.084936 0.110694 -0.013574
v -0.029481 0.110694 0.217894
v -0.029481 -0.020870 0.217894
v -0.070648 -0.020870 -0.098245
v -0.070648 0.110694 -0.098245
v 0.081781 0.110694 -0.022898
v 0.081781 -0.020870 -0.022898
v -0.073732 0.117655 -0.092006
v -0.188150 0.117655 0.139462
v -0.035721 0.117655 0.214810
v 0.078697 0.117655 -0.016658
v -0.038805 -0.020870 0.221049
v -0.038805 0.110694 0.221049
v -0.191234 0.110694 0.145702
v -0.191234 -0.020870 0.145702
v -0.194390 -0.020870 0.136378
v -0.194390 0.110694 0.136378
v -0.079972 0.110694 -0.095090
v -0.079972 -0.020870 -0.095090
v -0.188150 -0.027830 0.139462
v -0.035721 -0.027830 0.214810
v -0.038805 -0.020870 0.221049
v -0.191234 -0.020870 0.145702
v -0.029481 -0.020870 0.217894
v -0.029481 0.110694 0.217894
v -0.038805 0.110694 0.221049
v -0.038805 -0.020870 0.221049
v -0.035721 0.117655 0.214810
v -0.188150 0.117655 0.139462
v -0.191234 0.110694 0.145702
v -0.038805 0.110694 0.221049
v -0.194390 0.110694 0.136378
v -0.194390 -0.020870 0.136378
v -0.191234 -0.020870 0.145702
v -0.191234 0.110694 0.145702
v -0.073732 -0.027830 -0.092006
v -0.188150 -0.027830 0.139462
v -0.194390 -0.020870 0.136378
v -0.079972 -0.020870 -0.095090
v -0.188150 0.117655 0.139462
v -0.073732 0.117655 -0.092006
v -0.079972 0.110694 -0.095090
v -0.194390 0.110694 0.136378
v -0.070648 0.110694 -0.098245
v -0.070648 -0.020870 -0.098245
v -0.079972 -0.020870 -0.095090
v -0.079972 0.110694 -0.095090
v 0.078697 -0.027830 -0.016658
v -0.073732 -0.027830 -0.092006
v -0.070648 -0.020870 -0.098245
v 0.081781 -0.020870 -0.022898
v -0.073732 0.117655 -0.092006
v 0.078697 0.117655 -0.016658
v 0.081781 0.110694 -0.022898
v -0.070648 0.110694 -0.098245
v 0.084936 0.110694 -0.013574
v 0.084936 -0.020870 -0.013574
v 0.081781 -0.020870 -0.022898
v 0.081781 0.110694 -0.022898
v -0.035721 -0.027830 0.214810
v 0.078697 -0.027830 -0.016658
v 0.084936 -0.020870 -0.013574
v -0.029481 -0.020870 0.217894
v 0.078697 0.117655 -0.016658
v -0.035721 0.117655 0.214810
v -0.029481 0.110694 0.217894
v 0.084936 0.110694 -0.013574
v -0.188150 -0.027830 0.139462
v -0.073732 -0.027830 -0.092006
v 0.078697 -0.027830 -0.016658
v -0.035721 -0.027830 0.214810
v -0.032241 0.025235 0.387613
v -0.032241 -0.005915 0.387613
v -0.009735 0.009660 0.386881
v -0.137572 0.030426 -0.333861
v -0.189686 0.025235 -0.308877
v -0.198906 0.025235 -0.273712
v -0.123202 0.030426 -0.309477
v -0.097822 0.030426 -0.278078
v -0.202821 0.025235 -0.229857
v -0.231866 0.027104 -0.141843
v -0.050694 0.030427 -0.200488
v 0.028921 0.030427 -0.037533
v 0.102009 0.027103 -0.282303
v -0.097822 0.030426 -0.278078
v 0.007178 0.025234 -0.326299
v -0.047497 0.025234 -0.345242
v -0.123202 0.030426 -0.309477
v -0.137572 0.030426 -0.333861
v -0.085459 0.025235 -0.358845
v -0.148111 0.030427 0.025531
v -0.066625 0.030427 0.215755
v -0.308280 0.030427 0.059677
v -0.223204 0.030427 0.196660
v -0.392435 0.025235 -0.062237
v -0.202173 0.030427 0.335784
v -0.136395 0.030427 0.372054
v -0.078012 0.030427 0.383282
v 0.020705 0.030427 0.301444
v 0.139962 0.030427 0.280046
v 0.104610 0.030427 0.144680
v 0.269094 0.027104 0.091043
v 0.246893 0.025235 0.272798
v 0.179579 0.030427 -0.101933
v 0.260631 0.030427 -0.140085
v 0.319612 0.025235 -0.006148
v 0.260631 0.030427 -0.140085
v 0.201650 0.025235 -0.274023
v 0.346258 0.025235 -0.057359
v 0.302089 0.030427 -0.164386
v 0.333964 0.030427 -0.187235
v 0.363420 0.025235 -0.113610
v 0.257920 0.025235 -0.271414
v 0.302089 0.030427 -0.164386
v 0.333964 0.030427 -0.187235
v 0.304509 0.025235 -0.260859
v -0.137572 0.030426 -0.333861
v -0.085459 0.025235 -0.358845
v -0.110040 0.021197 -0.361019
v -0.144222 0.025235 -0.349518
v -0.137572 0.030426 -0.333861
v -0.144222 0.025235 -0.349518
v -0.174956 0.021197 -0.329898
v -0.189686 0.025235 -0.308877
v 0.333964 0.030427 -0.187235
v 0.363420 0.025235 -0.113610
v 0.366486 0.021197 -0.155847
v 0.354278 0.025235 -0.203826
v 0.333964 0.030427 -0.187235
v 0.354278 0.025235 -0.203826
v 0.331537 0.021197 -0.243202
v 0.304509 0.025235 -0.260859
v 0.139962 0.030427 0.280046
v 0.020705 0.030427 0.301444
v 0.054212 0.025235 0.348257
v 0.151349 0.025235 0.364002
v 0.139962 0.030427 0.280046
v 0.151349 0.025235 0.364002
v 0.217497 0.021197 0.350947
v 0.246893 0.025235 0.272798
v -0.308280 0.030427 0.059677
v -0.459127 0.021197 -0.011117
v -0.422085 0.025235 0.074442
v -0.308280 0.030427 0.059677
v -0.422085 0.025235 0.074442
v -0.319881 0.025235 0.188905
v -0.223204 0.030427 0.196660
v -0.202173 0.030427 0.335784
v -0.254144 0.025235 0.300957
v -0.078012 0.030427 0.383282
v -0.032241 0.025235 0.387613
v 0.054212 0.025235 0.348257
v 0.020705 0.030427 0.301444
v -0.137573 -0.011107 -0.333861
v -0.198906 -0.005915 -0.273712
v -0.189686 -0.005916 -0.308877
v -0.123202 -0.011107 -0.309477
v -0.097822 -0.011107 -0.278078
v -0.202821 -0.005915 -0.229857
v -0.231866 -0.007784 -0.141843
v -0.050694 -0.011107 -0.200488
v 0.028921 -0.011107 -0.037533
v 0.102009 -0.007785 -0.282303
v -0.097822 -0.011107 -0.278078
v 0.007178 -0.005916 -0.326299
v -0.047497 -0.005916 -0.345242
v -0.123202 -0.011107 -0.309477
v -0.137573 -0.011107 -0.333861
v -0.085459 -0.005916 -0.358845
v -0.148111 -0.011107 0.025531
v -0.066625 -0.011107 0.215755
v -0.308280 -0.011107 0.059677
v -0.223204 -0.011107 0.196660
v -0.308280 -0.011107 0.059677
v -0.392435 -0.005915 -0.062237
v -0.459127 -0.001877 -0.011117
v -0.422085 -0.005915 0.074442
v -0.202173 -0.011107 0.335784
v -0.136395 -0.011107 0.372054
v -0.078012 -0.011107 0.383282
v 0.020705 -0.011107 0.301444
v 0.139962 -0.011107 0.280046
v 0.104610 -0.011107 0.144680
v 0.269094 -0.007784 0.091043
v 0.246893 -0.005915 0.272798
v 0.179579 -0.011107 -0.101933
v 0.260631 -0.011107 -0.140085
v 0.319612 -0.005915 -0.006148
v 0.260631 -0.011107 -0.140085
v 0.201650 -0.005916 -0.274023
v 0.346258 -0.005915 -0.057359
v 0.302089 -0.011107 -0.164386
v 0.333964 -0.011107 -0.187235
v 0.363420 -0.005915 -0.113610
v 0.257920 -0.005915 -0.271414
v 0.302089 -0.011107 -0.164386
v 0.333964 -0.011107 -0.187235
v 0.304509 -0.005915 -0.260859
v -0.137573 -0.011107 -0.333861
v -0.189686 -0.005916 -0.308877
v -0.174956 -0.001878 -0.329898
v -0.144222 -0.005916 -0.349518
v -0.137573 -0.011107 -0.333861
v -0.144222 -0.005916 -0.349518
v -0.110040 -0.001877 -0.361019
v -0.085459 -0.005916 -0.358845
v 0.333964 -0.011107 -0.187235
v 0.304509 -0.005915 -0.260859
v 0.331537 -0.001877 -0.243202
v 0.354278 -0.005915 -0.203826
v 0.333964 -0.011107 -0.187235
v 0.354278 -0.005915 -0.203826
v 0.366486 -0.001877 -0.155847
v 0.363420 -0.005915 -0.113610
v 0.139962 -0.011107 0.280046
v 0.246893 -0.005915 0.272798
v 0.217497 -0.001877 0.350947
v 0.151349 -0.005915 0.364002
v 0.139962 -0.011107 0.280046
v 0.151349 -0.005915 0.364002
v 0.054212 -0.005915 0.348257
v 0.020705 -0.011107 0.301444
v -0.308280 -0.011107 0.059677
v -0.319881 -0.005915 0.188905
v -0.422085 -0.005915 0.074442
v -0.223204 -0.011107 0.196660
v -0.202173 -0.011107 0.335784
v -0.254144 -0.005915 0.300957
v -0.078012 -0.011107 0.383282
v 0.020705 -0.011107 0.301444
v 0.054212 -0.005915 0.348257
v -0.032241 -0.005915 0.387613
v -0.237821 0.009660 -0.213783
v -0.289477 0.009660 -0.159740
v -0.231866 0.027104 -0.141843
v -0.202821 0.025235 -0.229857
v -0.237821 0.009660 -0.213783
v -0.202821 0.025235 -0.229857
v -0.198906 0.025235 -0.273712
v -0.224141 0.009660 -0.261791
v -0.237821 0.009660 -0.213783
v -0.224141 0.009660 -0.261791
v -0.198906 -0.005915 -0.273712
v -0.202821 -0.005915 -0.229857
v -0.237821 0.009660 -0.213783
v -0.202821 -0.005915 -0.229857
v -0.231866 -0.007784 -0.141843
v -0.289477 0.009660 -0.159740
v 0.042178 0.009659 -0.342372
v -0.022262 0.009659 -0.357163
v -0.047497 0.025234 -0.345242
v 0.007178 0.025234 -0.326299
v 0.042178 0.009659 -0.342372
v 0.007178 0.025234 -0.326299
v 0.102009 0.027103 -0.282303
v 0.114004 0.009659 -0.327856
v 0.042178 0.009659 -0.342372
v 0.114004 0.009659 -0.327856
v 0.102009 -0.007785 -0.282303
v 0.007178 -0.005916 -0.326299
v 0.042178 0.009659 -0.342372
v 0.007178 -0.005916 -0.326299
v -0.047497 -0.005916 -0.345242
v -0.022262 0.009659 -0.357163
v -0.146439 0.009660 -0.354736
v -0.182510 0.009659 -0.331162
v -0.174956 0.021197 -0.329898
v -0.144222 0.025235 -0.349518
v -0.146439 0.009660 -0.354736
v -0.144222 0.025235 -0.349518
v -0.110040 0.021197 -0.361019
v -0.105935 0.009660 -0.367873
v -0.146439 0.009660 -0.354736
v -0.105935 0.009660 -0.367873
v -0.110040 -0.001877 -0.361019
v -0.144222 -0.005916 -0.349518
v -0.146439 0.009660 -0.354736
v -0.144222 -0.005916 -0.349518
v -0.174956 -0.001878 -0.329898
v -0.182510 0.009659 -0.331162
v -0.207057 0.009660 -0.300548
v -0.224141 0.009660 -0.261791
v -0.198906 0.025235 -0.273712
v -0.189686 0.025235 -0.308877
v -0.207057 0.009660 -0.300548
v -0.189686 0.025235 -0.308877
v -0.174956 0.021197 -0.329898
v -0.182510 0.009659 -0.331162
v -0.207057 0.009660 -0.300548
v -0.182510 0.009659 -0.331162
v -0.174956 -0.001878 -0.329898
v -0.189686 -0.005916 -0.308877
v -0.207057 0.009660 -0.300548
v -0.189686 -0.005916 -0.308877
v -0.198906 -0.005915 -0.273712
v -0.224141 0.009660 -0.261791
v -0.068088 0.009660 -0.367173
v -0.105935 0.009660 -0.367873
v -0.110040 0.021197 -0.361019
v -0.085459 0.025235 -0.358845
v -0.068088 0.009660 -0.367173
v -0.085459 0.025235 -0.358845
v -0.047497 0.025234 -0.345242
v -0.022262 0.009659 -0.357163
v -0.068088 0.009660 -0.367173
v -0.022262 0.009659 -0.357163
v -0.047497 -0.005916 -0.345242
v -0.085459 -0.005916 -0.358845
v -0.068088 0.009660 -0.367173
v -0.085459 -0.005916 -0.358845
v -0.110040 -0.001877 -0.361019
v -0.105935 0.009660 -0.367873
v 0.181990 0.009660 -0.318668
v 0.114004 0.009659 -0.327856
v 0.102009 0.027103 -0.282303
v 0.201650 0.025235 -0.274023
v 0.257920 0.025235 -0.271414
v 0.243197 0.009660 -0.307090
v 0.181990 0.009660 -0.318668
v 0.243197 0.009660 -0.307090
v 0.257920 -0.005915 -0.271414
v 0.201650 -0.005916 -0.274023
v 0.102009 -0.007785 -0.282303
v 0.114004 0.009659 -0.327856
v 0.339273 0.009660 0.038498
v 0.360981 0.009660 -0.021683
v 0.346258 0.025235 -0.057359
v 0.319612 0.025235 -0.006148
v 0.339273 0.009660 0.038498
v 0.319612 0.025235 -0.006148
v 0.269094 0.027104 0.091043
v 0.311872 0.009660 0.124758
v 0.339273 0.009660 0.038498
v 0.311872 0.009660 0.124758
v 0.269094 -0.007784 0.091043
v 0.319612 -0.005915 -0.006148
v 0.339273 0.009660 0.038498
v 0.319612 -0.005915 -0.006148
v 0.346258 -0.005915 -0.057359
v 0.360981 0.009660 -0.021683
v 0.361049 0.009660 -0.209356
v 0.334597 0.009660 -0.253016
v 0.331537 0.021197 -0.243202
v 0.354278 0.025235 -0.203826
v 0.361049 0.009660 -0.209356
v 0.354278 0.025235 -0.203826
v 0.366486 0.021197 -0.155847
v 0.373958 0.009660 -0.154635
v 0.361049 0.009660 -0.209356
v 0.373958 0.009660 -0.154635
v 0.366486 -0.001877 -0.155847
v 0.354278 -0.005915 -0.203826
v 0.361049 0.009660 -0.209356
v 0.354278 -0.005915 -0.203826
v 0.331537 -0.001877 -0.243202
v 0.334597 0.009660 -0.253016
v 0.294690 0.009660 -0.285400
v 0.243197 0.009660 -0.307090
v 0.257920 0.025235 -0.271414
v 0.304509 0.025235 -0.260859
v 0.294690 0.009660 -0.285400
v 0.304509 0.025235 -0.260859
v 0.331537 0.021197 -0.243202
v 0.334597 0.009660 -0.253016
v 0.294690 0.009660 -0.285400
v 0.334597 0.009660 -0.253016
v 0.331537 -0.001877 -0.243202
v 0.304509 -0.005915 -0.260859
v 0.294690 0.009660 -0.285400
v 0.304509 -0.005915 -0.260859
v 0.257920 -0.005915 -0.271414
v 0.243197 0.009660 -0.307090
v 0.373239 0.009660 -0.089069
v 0.373958 0.009660 -0.154635
v 0.366486 0.021197 -0.155847
v 0.363420 0.025235 -0.113610
v 0.373239 0.009660 -0.089069
v 0.363420 0.025235 -0.113610
v 0.346258 0.025235 -0.057359
v 0.360981 0.009660 -0.021683
v 0.373239 0.009660 -0.089069
v 0.360981 0.009660 -0.021683
v 0.346258 -0.005915 -0.057359
v 0.363420 -0.005915 -0.113610
v 0.373239 0.009660 -0.089069
v 0.363420 -0.005915 -0.113610
v 0.366486 -0.001877 -0.155847
v 0.373958 0.009660 -0.154635
v 0.155145 0.009660 0.391987
v 0.235537 0.009660 0.388436
v 0.217497 0.021197 0.350947
v 0.151349 0.025235 0.364002
v 0.155145 0.009660 0.391987
v 0.151349 0.025235 0.364002
v 0.054212 0.025235 0.348257
v 0.065381 0.009660 0.363861
v 0.155145 0.009660 0.391987
v 0.065381 0.009660 0.363861
v 0.054212 -0.005915 0.348257
v 0.151349 -0.005915 0.364002
v 0.155145 0.009660 0.391987
v 0.151349 -0.005915 0.364002
v 0.217497 -0.001877 0.350947
v 0.235537 0.009660 0.388436
v 0.282536 0.009660 0.270382
v 0.311872 0.009660 0.124758
v 0.269094 0.027104 0.091043
v 0.246893 0.025235 0.272798
v 0.282536 0.009660 0.270382
v 0.246893 0.025235 0.272798
v 0.217497 0.021197 0.350947
v 0.235537 0.009660 0.388436
v 0.282536 0.009660 0.270382
v 0.235537 0.009660 0.388436
v 0.217497 -0.001877 0.350947
v 0.246893 -0.005915 0.272798
v 0.282536 0.009660 0.270382
v 0.246893 -0.005915 0.272798
v 0.269094 -0.007784 0.091043
v 0.311872 0.009660 0.124758
v -0.460020 0.009660 0.079364
v -0.352107 0.009660 0.186320
v -0.319881 0.025235 0.188905
v -0.422085 0.025235 0.074442
v -0.460020 0.009660 0.079364
v -0.422085 0.025235 0.074442
v -0.459127 0.021197 -0.011117
v -0.515713 0.009660 -0.028177
v -0.460020 0.009660 0.079364
v -0.515713 0.009660 -0.028177
v -0.459127 -0.001877 -0.011117
v -0.422085 -0.005915 0.074442
v -0.460020 0.009660 0.079364
v -0.422085 -0.005915 0.074442
v -0.319881 -0.005915 0.188905
v -0.352107 0.009660 0.186320
v -0.420486 0.009660 -0.102875
v -0.515713 0.009660 -0.028177
v -0.459127 0.021197 -0.011117
v -0.392435 0.025235 -0.062237
v -0.420486 0.009660 -0.102875
v -0.392435 0.025235 -0.062237
v -0.231866 0.027104 -0.141843
v -0.289477 0.009660 -0.159740
v -0.420486 0.009660 -0.102875
v -0.289477 0.009660 -0.159740
v -0.231866 -0.007784 -0.141843
v -0.392435 -0.005915 -0.062237
v -0.420486 0.009660 -0.102875
v -0.392435 -0.005915 -0.062237
v -0.459127 -0.001877 -0.011117
v -0.515713 0.009660 -0.028177
v -0.304812 0.009660 0.265789
v -0.254144 0.025235 0.300957
v -0.319881 0.025235 0.188905
v -0.352107 0.009660 0.186320
v -0.304812 0.009660 0.265789
v -0.352107 0.009660 0.186320
v -0.319881 -0.005915 0.188905
v -0.254144 -0.005915 0.300957
v -0.009735 0.009660 0.386881
v 0.065381 0.009660 0.363861
v 0.054212 0.025235 0.348257
v -0.032241 0.025235 0.387613
v -0.009735 0.009660 0.386881
v -0.032241 -0.005915 0.387613
v 0.054212 -0.005915 0.348257
v 0.065381 0.009660 0.363861
v -0.032241 0.025235 0.387613
v -0.078012 0.030427 0.383282
v -0.078012 -0.011107 0.383282
v -0.032241 -0.005915 0.387613
v -0.136395 0.030427 0.372054
v -0.136395 -0.011107 0.372054
v -0.078012 -0.011107 0.383282
v -0.078012 0.030427 0.383282
v -0.136395 0.030427 0.372054
v -0.202173 0.030427 0.335784
v -0.202173 -0.011107 0.335784
v -0.136395 -0.011107 0.372054
v -0.254144 0.025235 0.300957
v -0.202173 -0.011107 0.335784
v -0.202173 0.030427 0.335784
v -0.254144 -0.005915 0.300957
v -0.304812 0.009660 0.265789
vn -0.170579 0.237931 -0.956186
vn -0.170579 0.237931 -0.956186
vn -0.170579 0.237931 -0.956186
vn -0.170579 0.237931 -0.956186
vn 0.555508 0.237931 -0.796743
vn 0.555508 0.237931 -0.796743
vn 0.555508 0.237931 -0.796743
vn 0.555508 0.237931 -0.796743
vn 0.956186 0.237932 -0.170579
vn 0.956186 0.237932 -0.170579
vn 0.956186 0.237932 -0.170579
vn 0.956186 0.237932 -0.170579
vn 0.796743 0.237932 0.555508
vn 0.796743 0.237932 0.555508
vn 0.796743 0.237932 0.555508
vn 0.796743 0.237932 0.555508
vn 0.170579 0.237932 0.956186
vn 0.170579 0.237932 0.956186
vn 0.170579 0.237932 0.956186
vn 0.170579 0.237932 0.956186
vn -0.555508 0.237931 0.796743
vn -0.555508 0.237931 0.796743
vn -0.555508 0.237931 0.796743
vn -0.555508 0.237931 0.796743
vn -0.956186 0.237932 0.170579
vn -0.956186 0.237932 0.170579
vn -0.956186 0.237932 0.170579
vn -0.956186 0.237932 0.170579
vn -0.796743 0.237933 -0.555508
vn -0.796743 0.237933 -0.555508
vn -0.796743 0.237933 -0.555508
vn -0.796743 0.237933 -0.555508
vn 0.000000 -1.000000 0.000000
vn 0.000000 -1.000000 0.000000
vn 0.000000 -1.000000 0.000000
vn 0.000000 -1.000000 0.000000
vn 0.000000 -1.000000 0.000000
vn 0.000000 -1.000000 0.000000
vn 0.000000 -1.000000 0.000000
vn 0.000000 -1.000000 0.000000
vn -0.796743 -0.237933 -0.555508
vn -0.796743 -0.237933 -0.555508
vn -0.796743 -0.237933 -0.555508
vn -0.796743 -0.237933 -0.555508
vn -0.956186 -0.237932 0.170579
vn -0.956186 -0.237932 0.170579
vn -0.956186 -0.237932 0.170579
vn -0.956186 -0.237932 0.170579
vn -0.555508 -0.237931 0.796743
vn -0.555508 -0.237931 0.796743
vn -0.555508 -0.237931 0.796743
vn -0.555508 -0.237931 0.796743
vn 0.170579 -0.237931 0.956186
vn 0.170579 -0.237931 0.956186
vn 0.170579 -0.237931 0.956186
vn 0.170579 -0.237931 0.956186
vn 0.796743 -0.237932 0.555508
vn 0.796743 -0.237932 0.555508
vn 0.796743 -0.237932 0.555508
vn 0.796743 -0.237932 0.555508
vn 0.956186 -0.237932 -0.170579
vn 0.956186 -0.237932 -0.170579
vn 0.956186 -0.237932 -0.170579
vn 0.956186 -0.237932 -0.170579
vn 0.555508 -0.237931 -0.796743
vn 0.555508 -0.237931 -0.796743
vn 0.555508 -0.237931 -0.796743
vn 0.555508 -0.237931 -0.796743
vn -0.170579 -0.237932 -0.956186
vn -0.170579 -0.237932 -0.956186
vn -0.170579 -0.237932 -0.956186
vn -0.170579 -0.237932 -0.956186
vn 0.434151 0.650981 -0.622685
vn 0.434151 0.650981 -0.622685
vn 0.434151 0.650981 -0.622685
vn 0.434151 0.650981 -0.622685
vn -0.622683 0.650984 -0.434150
vn -0.622683 0.650984 -0.434150
vn -0.622683 0.650984 -0.434150
vn -0.622683 0.650984 -0.434150
vn -0.434150 0.650984 0.622683
vn -0.434150 0.650984 0.622683
vn -0.434150 0.650984 0.622683
vn -0.434150 0.650984 0.622683
vn 0.747295 0.650982 -0.133314
vn 0.747295 0.650982 -0.133314
vn 0.747295 0.650982 -0.133314
vn 0.747295 0.650982 -0.133314
vn -0.133313 0.650984 -0.747294
vn -0.133313 0.650984 -0.747294
vn -0.133313 0.650984 -0.747294
vn -0.133313 0.650984 -0.747294
vn -0.747294 0.650983 0.133314
vn -0.747294 0.650983 0.133314
vn -0.747294 0.650983 0.133314
vn -0.747294 0.650983 0.133314
vn 0.133313 0.650984 0.747293
vn 0.133313 0.650984 0.747293
vn 0.133313 0.650984 0.747293
vn 0.133313 0.650984 0.747293
vn 0.622684 0.650983 0.434150
vn 0.622684 0.650983 0.434150
vn 0.622684 0.650983 0.434150
vn 0.622684 0.650983 0.434150
vn 0.000000 1.000000 0.000000
vn 0.000000 1.000000 0.000000
vn 0.000000 1.000000 0.000000
vn 0.000000 1.000000 0.000000
vn 0.000000 1.000000 0.000000
vn 0.000000 1.000000 0.000000
vn 0.000000 1.000000 0.000000
vn 0.000000 1.000000 0.000000
vn 0.000000 1.000000 0.000000
vn 0.000000 1.000000 0.000000
vn 0.000000 1.000000 0.000000
vn 0.000000 1.000000 0.000000
vn 0.000000 1.000000 0.000000
vn 0.000000 1.000000 0.000000
vn 0.000000 1.000000 0.000000
vn 0.000000 1.000000 0.000000
vn 0.000000 1.000000 0.000000
vn 0.000000 1.000000 0.000000
vn 0.000000 1.000000 0.000000
vn 0.000000 1.000000 0.000000
vn 0.000000 1.000000 0.000000
vn 0.000000 1.000000 0.000000
vn 0.000000 1.000000 0.000000
vn 0.000000 1.000000 0.000000
vn 0.261726 -0.577349 0.773413
vn 0.261726 -0.577349 0.773413
vn 0.261726 -0.577349 0.773413
vn 0.261726 0.577349 0.773413
vn 0.261726 0.577349 0.773413
vn 0.261726 0.577349 0.773413
vn -0.773411 -0.577348 0.261733
vn -0.773411 -0.577348 0.261733
vn -0.773411 -0.577348 0.261733
vn -0.773412 0.577348 0.261733
vn -0.773412 0.577348 0.261733
vn -0.773412 0.577348 0.261733
vn 0.773411 -0.577347 -0.261736
vn 0.773411 -0.577347 -0.261736
vn 0.773411 -0.577347 -0.261736
vn 0.773412 0.577347 -0.261735
vn 0.773412 0.577347 -0.261735
vn 0.773412 0.577347 -0.261735
vn -0.261723 -0.577346 -0.773416
vn -0.261723 -0.577346 -0.773416
vn -0.261723 -0.577346 -0.773416
vn -0.261723 0.577347 -0.773416
vn -0.261723 0.577347 -0.773416
vn -0.261723 0.577347 -0.773416
vn 0.896457 0.000000 0.443130
vn 0.896457 0.000000 0.443130
vn 0.896457 0.000000 0.443130
vn 0.896457 0.000000 0.443130
vn 0.443130 0.000000 -0.896457
vn 0.443130 0.000000 -0.896457
vn 0.443130 0.000000 -0.896457
vn 0.443130 0.000000 -0.896457
vn 0.000000 1.000000 0.000000
vn 0.000000 1.000000 0.000000
vn 0.000000 1.000000 0.000000
vn 0.000000 1.000000 0.000000
vn -0.443130 0.000000 0.896457
vn -0.443130 0.000000 0.896457
vn -0.443130 0.000000 0.896457
vn -0.443130 0.000000 0.896457
vn -0.896457 0.000000 -0.443130
vn -0.896457 0.000000 -0.443130
vn -0.896457 0.000000 -0.443130
vn -0.896457 0.000000 -0.443130
vn -0.313342 -0.707103 0.633894
vn -0.313342 -0.707103 0.633894
vn -0.313342 -0.707103 0.633894
vn -0.313342 -0.707103 0.633894
vn 0.320547 0.000000 0.947233
vn 0.320547 0.000000 0.947233
vn 0.320547 0.000000 0.947233
vn 0.320547 0.000000 0.947233
vn -0.313342 0.707103 0.633894
vn -0.313342 0.707103 0.633894
vn -0.313342 0.707103 0.633894
vn -0.313342 0.707103 0.633894
vn -0.947230 0.000000 0.320556
vn -0.947230 0.000000 0.320556
vn -0.947230 0.000000 0.320556
vn -0.947230 0.000000 0.320556
vn -0.633891 -0.707107 -0.313340
vn -0.633891 -0.707107 -0.313340
vn -0.633891 -0.707107 -0.313340
vn -0.633891 -0.707107 -0.313340
vn -0.633890 0.707107 -0.313341
vn -0.633890 0.707107 -0.313341
vn -0.633890 0.707107 -0.313341
vn -0.633890 0.707107 -0.313341
vn -0.320543 0.000000 -0.947234
vn -0.320543 0.000000 -0.947234
vn -0.320543 0.000000 -0.947234
vn -0.320543 0.000000 -0.947234
vn 0.313343 -0.707101 -0.633896
vn 0.313343 -0.707101 -0.633896
vn 0.313343 -0.707101 -0.633896
vn 0.313343 -0.707101 -0.633896
vn 0.313343 0.707101 -0.633896
vn 0.313343 0.707101 -0.633896
vn 0.313343 0.707101 -0.633896
vn 0.313343 0.707101 -0.633896
vn 0.947229 0.000000 -0.320558
vn 0.947229 0.000000 -0.320558
vn 0.947229 0.000000 -0.320558
vn 0.947229 0.000000 -0.320558
vn 0.633891 -0.707107 0.313341
vn 0.633891 -0.707107 0.313341
vn 0.633891 -0.707107 0.313341
vn 0.633891 -0.707107 0.313341
vn 0.633891 0.707107 0.313340
vn 0.633891 0.707107 0.313340
vn 0.633891 0.707107 0.313340
vn 0.633891 0.707107 0.313340
vn 0.000000 -1.000000 0.000000
vn 0.000000 -1.000000 0.000000
vn 0.000000 -1.000000 0.000000
vn 0.000000 -1.000000 0.000000
vn 0.032472 0.000000 0.999473
vn 0.032472 0.000000 0.999473
vn 0.032472 0.000000 0.999473
vn -0.077790 0.996947 0.006723
vn -0.077790 0.996947 0.006723
vn -0.050662 0.998611 0.014449
vn -0.050662 0.998611 0.014449
vn -0.032616 0.999438 -0.007720
vn -0.032616 0.999438 -0.007720
vn -0.010865 0.999930 -0.004685
vn -0.010865 0.999930 -0.004685
vn -0.010865 0.999930 -0.004685
vn 0.005152 0.999914 -0.012038
vn 0.015900 0.999298 -0.033927
vn 0.015900 0.999298 -0.033927
vn 0.032980 0.998079 -0.052444
vn 0.032980 0.998079 -0.052444
vn 0.048925 0.996526 -0.067394
vn 0.048925 0.996526 -0.067394
vn -0.010865 0.999930 -0.004685
vn 0.000001 1.000000 -0.000001
vn 0.000000 1.000000 0.000000
vn 0.000000 1.000000 0.000000
vn -0.013484 0.999676 -0.021597
vn 0.000000 1.000000 0.000000
vn 0.000000 1.000000 0.000000
vn 0.000000 1.000000 0.000000
vn 0.000000 1.000000 -0.000001
vn 0.032374 0.999466 0.004547
vn 0.000001 1.000000 -0.000001
vn 0.011897 0.999923 0.003615
vn 0.032374 0.999466 0.004547
vn 0.011897 0.999923 0.003615
vn 0.027926 0.999521 0.013346
vn 0.027926 0.999521 0.013346
vn 0.005467 0.999551 -0.029455
vn 0.005467 0.999551 -0.029455
vn 0.032366 0.999050 0.029194
vn 0.032366 0.999050 0.029194
vn 0.055817 0.997841 0.034605
vn 0.055817 0.997841 0.034605
vn -0.008734 0.999189 -0.039319
vn -0.008734 0.999189 -0.039319
vn -0.008455 0.998508 -0.053947
vn -0.008455 0.998508 -0.053947
vn -0.059479 0.925225 -0.374728
vn -0.059479 0.925225 -0.374728
vn -0.059479 0.925225 -0.374728
vn -0.059479 0.925225 -0.374728
vn -0.258233 0.921882 -0.288878
vn -0.258233 0.921882 -0.288878
vn -0.258233 0.921882 -0.288878
vn -0.258233 0.921882 -0.288878
vn 0.299941 0.953473 -0.030397
vn 0.299941 0.953473 -0.030397
vn 0.299941 0.953473 -0.030397
vn 0.299941 0.953473 -0.030397
vn 0.192287 0.966887 -0.167796
vn 0.192287 0.966887 -0.167796
vn 0.192287 0.966887 -0.167796
vn 0.192287 0.966887 -0.167796
vn 0.002050 0.996916 0.078455
vn 0.002050 0.996916 0.078455
vn 0.002050 0.996916 0.078455
vn 0.002050 0.996916 0.078455
vn 0.060564 0.996146 0.063446
vn 0.060564 0.996146 0.063446
vn 0.060564 0.996146 0.063446
vn 0.060564 0.996146 0.063446
vn -0.055444 0.998389 -0.012028
vn -0.055444 0.998389 -0.012028
vn -0.055444 0.998389 -0.012028
vn -0.048052 0.998204 0.035789
vn -0.048052 0.998204 0.035789
vn -0.048052 0.998204 0.035789
vn -0.048052 0.998204 0.035789
vn -0.077265 0.996653 0.026691
vn -0.077265 0.996653 0.026691
vn 0.065488 0.992824 0.100058
vn 0.065488 0.992824 0.100058
vn 0.065488 0.992824 0.100058
vn 0.065488 0.992824 0.100058
vn -0.077790 -0.996947 0.006730
vn -0.050665 -0.998611 0.014452
vn -0.077790 -0.996947 0.006730
vn -0.050665 -0.998611 0.014452
vn -0.032619 -0.999438 -0.007718
vn -0.032619 -0.999438 -0.007718
vn -0.010867 -0.999930 -0.004684
vn -0.010867 -0.999930 -0.004684
vn -0.010867 -0.999930 -0.004684
vn 0.005151 -0.999914 -0.012035
vn 0.032977 -0.998079 -0.052441
vn 0.032977 -0.998079 -0.052441
vn 0.032977 -0.998079 -0.052441
vn 0.032977 -0.998079 -0.052441
vn 0.048921 -0.996526 -0.067397
vn 0.048921 -0.996526 -0.067397
vn -0.010867 -0.999930 -0.004684
vn 0.000000 -1.000000 0.000000
vn 0.000000 -1.000000 0.000000
vn 0.000000 -1.000000 0.000000
vn -0.055444 -0.998389 -0.012027
vn -0.055444 -0.998389 -0.012027
vn -0.055444 -0.998389 -0.012027
vn -0.055444 -0.998389 -0.012027
vn 0.000000 -1.000000 0.000000
vn 0.000000 -1.000000 0.000000
vn 0.000000 -1.000000 0.000000
vn 0.000000 -1.000000 0.000000
vn 0.032374 -0.999466 0.004548
vn 0.011897 -0.999923 0.003617
vn 0.011897 -0.999923 0.003617
vn 0.032374 -0.999466 0.004548
vn 0.005151 -0.999914 -0.012035
vn 0.032370 -0.999050 0.029194
vn 0.032370 -0.999050 0.029194
vn 0.005470 -0.999551 -0.029453
vn 0.005470 -0.999551 -0.029453
vn 0.032370 -0.999050 0.029194
vn 0.032370 -0.999050 0.029194
vn 0.055819 -0.997841 0.034605
vn 0.055819 -0.997841 0.034605
vn -0.008727 -0.999189 -0.039320
vn -0.008727 -0.999189 -0.039320
vn -0.008452 -0.998508 -0.053948
vn -0.008452 -0.998508 -0.053948
vn -0.258229 -0.921884 -0.288874
vn -0.258229 -0.921884 -0.288874
vn -0.258229 -0.921884 -0.288874
vn -0.258229 -0.921884 -0.288874
vn -0.059479 -0.925223 -0.374732
vn -0.059479 -0.925223 -0.374732
vn -0.059479 -0.925223 -0.374732
vn -0.059479 -0.925223 -0.374732
vn 0.192287 -0.966887 -0.167796
vn 0.192287 -0.966887 -0.167796
vn 0.192287 -0.966887 -0.167796
vn 0.192287 -0.966887 -0.167796
vn 0.299941 -0.953473 -0.030397
vn 0.299941 -0.953473 -0.030397
vn 0.299941 -0.953473 -0.030397
vn 0.299941 -0.953473 -0.030397
vn 0.060564 -0.996146 0.063446
vn 0.060564 -0.996146 0.063446
vn 0.060564 -0.996146 0.063446
vn 0.060564 -0.996146 0.063446
vn 0.002050 -0.996916 0.078456
vn 0.002050 -0.996916 0.078456
vn 0.002050 -0.996916 0.078456
vn 0.002050 -0.996916 0.078456
vn -0.048052 -0.998204 0.035790
vn -0.048052 -0.998204 0.035790
vn -0.048052 -0.998204 0.035790
vn -0.048052 -0.998204 0.035790
vn -0.077266 -0.996653 0.026692
vn -0.077266 -0.996653 0.026692
vn 0.065488 -0.992824 0.100059
vn 0.065488 -0.992824 0.100059
vn 0.065488 -0.992824 0.100059
vn 0.065488 -0.992824 0.100059
vn -0.325790 0.924639 -0.197242
vn -0.325790 0.924639 -0.197242
vn -0.325790 0.924639 -0.197242
vn -0.325790 0.924639 -0.197242
vn -0.491491 0.865780 -0.094141
vn -0.491491 0.865780 -0.094141
vn -0.491491 0.865780 -0.094141
vn -0.491491 0.865780 -0.094141
vn -0.491493 -0.865779 -0.094138
vn -0.491493 -0.865779 -0.094138
vn -0.491493 -0.865779 -0.094138
vn -0.491493 -0.865779 -0.094138
vn -0.325792 -0.924638 -0.197242
vn -0.325792 -0.924638 -0.197242
vn -0.325792 -0.924638 -0.197242
vn -0.325792 -0.924638 -0.197242
vn 0.159011 0.812079 -0.561465
vn 0.159011 0.812079 -0.561465
vn 0.159011 0.812079 -0.561465
vn 0.159011 0.812079 -0.561465
vn 0.127177 0.911414 -0.391345
vn 0.127177 0.911414 -0.391345
vn 0.127177 0.911414 -0.391345
vn 0.127177 0.911414 -0.391345
vn 0.127178 -0.911415 -0.391343
vn 0.127178 -0.911415 -0.391343
vn 0.127178 -0.911415 -0.391343
vn 0.127178 -0.911415 -0.391343
vn 0.159009 -0.812079 -0.561467
vn 0.159009 -0.812079 -0.561467
vn 0.159009 -0.812079 -0.561467
vn 0.159009 -0.812079 -0.561467
vn -0.519875 0.371307 -0.769325
vn -0.519875 0.371307 -0.769325
vn -0.519875 0.371307 -0.769325
vn -0.519875 0.371307 -0.769325
vn -0.271977 0.375575 -0.885986
vn -0.271977 0.375575 -0.885986
vn -0.271977 0.375575 -0.885986
vn -0.271977 0.375575 -0.885986
vn -0.271975 -0.375573 -0.885988
vn -0.271975 -0.375573 -0.885988
vn -0.271975 -0.375573 -0.885988
vn -0.271975 -0.375573 -0.885988
vn -0.519873 -0.371308 -0.769326
vn -0.519873 -0.371308 -0.769326
vn -0.519873 -0.371308 -0.769326
vn -0.519873 -0.371308 -0.769326
vn -0.643075 0.730814 -0.228836
vn -0.643075 0.730814 -0.228836
vn -0.643075 0.730814 -0.228836
vn -0.643075 0.730814 -0.228836
vn -0.679586 0.480286 -0.554516
vn -0.679586 0.480286 -0.554516
vn -0.679586 0.480286 -0.554516
vn -0.679586 0.480286 -0.554516
vn -0.679586 -0.480290 -0.554513
vn -0.679586 -0.480290 -0.554513
vn -0.679586 -0.480290 -0.554513
vn -0.679586 -0.480290 -0.554513
vn -0.643076 -0.730816 -0.228827
vn -0.643076 -0.730816 -0.228827
vn -0.643076 -0.730816 -0.228827
vn -0.643076 -0.730816 -0.228827
vn 0.008135 0.493463 -0.869729
vn 0.008135 0.493463 -0.869729
vn 0.008135 0.493463 -0.869729
vn 0.008135 0.493463 -0.869729
vn 0.192125 0.705937 -0.681719
vn 0.192125 0.705937 -0.681719
vn 0.192125 0.705937 -0.681719
vn 0.192125 0.705937 -0.681719
vn 0.192118 -0.705935 -0.681724
vn 0.192118 -0.705935 -0.681724
vn 0.192118 -0.705935 -0.681724
vn 0.192118 -0.705935 -0.681724
vn 0.008133 -0.493462 -0.869729
vn 0.008133 -0.493462 -0.869729
vn 0.008133 -0.493462 -0.869729
vn 0.008133 -0.493462 -0.869729
vn 0.046587 0.936753 -0.346878
vn 0.046587 0.936753 -0.346878
vn 0.046587 0.936753 -0.346878
vn 0.046587 0.936753 -0.346878
vn 0.045658 0.924624 -0.378134
vn 0.045658 0.924624 -0.378134
vn 0.045666 -0.924623 -0.378136
vn 0.045666 -0.924623 -0.378136
vn 0.045666 -0.924623 -0.378136
vn 0.045666 -0.924623 -0.378136
vn 0.046592 -0.936753 -0.346876
vn 0.046592 -0.936753 -0.346876
vn 0.403881 0.897855 0.175320
vn 0.403881 0.897855 0.175320
vn 0.403881 0.897855 0.175320
vn 0.403881 0.897855 0.175320
vn 0.330256 0.934792 0.130750
vn 0.330256 0.934792 0.130750
vn 0.330256 0.934792 0.130750
vn 0.330256 0.934792 0.130750
vn 0.330257 -0.934791 0.130750
vn 0.330257 -0.934791 0.130750
vn 0.330257 -0.934791 0.130750
vn 0.330257 -0.934791 0.130750
vn 0.403882 -0.897854 0.175320
vn 0.403882 -0.897854 0.175320
vn 0.403882 -0.897854 0.175320
vn 0.403882 -0.897854 0.175320
vn 0.723845 0.519476 -0.454085
vn 0.723845 0.519476 -0.454085
vn 0.723845 0.519476 -0.454085
vn 0.723845 0.519476 -0.454085
vn 0.856239 0.480159 -0.190532
vn 0.856239 0.480159 -0.190532
vn 0.856239 0.480159 -0.190532
vn 0.856239 0.480159 -0.190532
vn 0.856239 -0.480159 -0.190532
vn 0.856239 -0.480159 -0.190532
vn 0.856239 -0.480159 -0.190532
vn 0.856239 -0.480159 -0.190532
vn 0.723845 -0.519477 -0.454084
vn 0.723845 -0.519477 -0.454084
vn 0.723845 -0.519477 -0.454084
vn 0.723845 -0.519477 -0.454084
vn 0.166246 0.846553 -0.505678
vn 0.166246 0.846553 -0.505678
vn 0.166246 0.846553 -0.505678
vn 0.166246 0.846553 -0.505678
vn 0.485788 0.637148 -0.598375
vn 0.485788 0.637148 -0.598375
vn 0.485788 0.637148 -0.598375
vn 0.485788 0.637148 -0.598375
vn 0.485787 -0.637149 -0.598374
vn 0.485787 -0.637149 -0.598374
vn 0.485787 -0.637149 -0.598374
vn 0.485787 -0.637149 -0.598374
vn 0.166248 -0.846552 -0.505678
vn 0.166248 -0.846552 -0.505678
vn 0.166248 -0.846552 -0.505678
vn 0.166248 -0.846552 -0.505678
vn 0.839164 0.543803 0.009091
vn 0.839164 0.543803 0.009091
vn 0.839164 0.543803 0.009091
vn 0.839164 0.543803 0.009091
vn 0.618546 0.771840 0.147189
vn 0.618546 0.771840 0.147189
vn 0.618546 0.771840 0.147189
vn 0.618546 0.771840 0.147189
vn 0.618546 -0.771840 0.147189
vn 0.618546 -0.771840 0.147189
vn 0.618546 -0.771840 0.147189
vn 0.618546 -0.771840 0.147189
vn 0.839164 -0.543803 0.009090
vn 0.839164 -0.543803 0.009090
vn 0.839164 -0.543803 0.009090
vn 0.839164 -0.543803 0.009090
vn 0.066712 0.929528 0.362668
vn 0.066712 0.929528 0.362668
vn 0.066712 0.929528 0.362668
vn 0.066712 0.929528 0.362668
vn -0.142582 0.781476 0.607426
vn -0.142582 0.781476 0.607426
vn -0.142582 0.781476 0.607426
vn -0.142582 0.781476 0.607426
vn -0.142582 -0.781476 0.607425
vn -0.142582 -0.781476 0.607425
vn -0.142582 -0.781476 0.607425
vn -0.142582 -0.781476 0.607425
vn 0.066711 -0.929528 0.362668
vn 0.066711 -0.929528 0.362668
vn 0.066711 -0.929528 0.362668
vn 0.066711 -0.929528 0.362668
vn 0.365861 0.928542 0.062896
vn 0.365861 0.928542 0.062896
vn 0.365861 0.928542 0.062896
vn 0.365861 0.928542 0.062896
vn 0.360233 0.919181 0.159181
vn 0.360233 0.919181 0.159181
vn 0.360233 0.919181 0.159181
vn 0.360233 0.919181 0.159181
vn 0.360233 -0.919181 0.159181
vn 0.360233 -0.919181 0.159181
vn 0.360233 -0.919181 0.159181
vn 0.360233 -0.919181 0.159181
vn 0.365861 -0.928542 0.062896
vn 0.365861 -0.928542 0.062896
vn 0.365861 -0.928542 0.062896
vn 0.365861 -0.928542 0.062896
vn -0.370141 0.860013 0.351245
vn -0.370141 0.860013 0.351245
vn -0.370141 0.860013 0.351245
vn -0.370141 0.860013 0.351245
vn -0.287799 0.950351 0.118342
vn -0.287799 0.950351 0.118342
vn -0.287799 0.950351 0.118342
vn -0.287799 0.950351 0.118342
vn -0.287799 -0.950351 0.118342
vn -0.287799 -0.950351 0.118342
vn -0.287799 -0.950351 0.118342
vn -0.287799 -0.950351 0.118342
vn -0.370141 -0.860013 0.351245
vn -0.370141 -0.860013 0.351245
vn -0.370141 -0.860013 0.351245
vn -0.370141 -0.860013 0.351245
vn -0.175880 0.964828 -0.195381
vn -0.175880 0.964828 -0.195381
vn -0.175880 0.964828 -0.195381
vn -0.175880 0.964828 -0.195381
vn -0.150710 0.938999 -0.309139
vn -0.150710 0.938999 -0.309139
vn -0.150710 0.938999 -0.309139
vn -0.150710 0.938999 -0.309139
vn -0.150710 -0.938999 -0.309139
vn -0.150710 -0.938999 -0.309139
vn -0.150710 -0.938999 -0.309139
vn -0.150710 -0.938999 -0.309139
vn -0.175879 -0.964828 -0.195380
vn -0.175879 -0.964828 -0.195380
vn -0.175879 -0.964828 -0.195380
vn -0.175879 -0.964828 -0.195380
vn -0.441319 0.858719 0.260459
vn -0.441319 0.858719 0.260459
vn -0.441319 0.858719 0.260459
vn -0.441319 0.858719 0.260459
vn -0.441318 -0.858720 0.260458
vn -0.441318 -0.858720 0.260458
vn -0.441318 -0.858720 0.260458
vn -0.441318 -0.858720 0.260458
vn 0.276491 0.640827 0.716166
vn 0.276491 0.640827 0.716166
vn 0.276491 0.640827 0.716166
vn 0.276491 0.640827 0.716166
vn 0.276491 -0.640829 0.716165
vn 0.276491 -0.640829 0.716165
vn 0.276491 -0.640829 0.716165
vn 0.276491 -0.640829 0.716165
vn -0.094199 0.000000 0.995553
vn -0.094199 0.000000 0.995553
vn -0.094199 0.000000 0.995553
vn -0.094199 0.000000 0.995553
vn -0.188855 0.000000 0.982005
vn -0.188855 0.000000 0.982005
vn -0.188855 0.000000 0.982005
vn -0.188855 0.000000 0.982005
vn -0.482861 0.000000 0.875697
vn -0.482861 0.000000 0.875697
vn -0.482861 0.000000 0.875697
vn -0.482861 0.000000 0.875697
vn -0.556684 0.000000 0.830725
vn -0.556684 0.000000 0.830725
vn -0.556684 0.000000 0.830725
vn -0.556684 0.000000 0.830725
vn -0.570193 0.000000 0.821511
g Pancake_LightBeige
usemtl LightBeige
f 1 2 3
f 1 3 4
f 5 6 7
f 5 7 8
f 9 10 11
f 9 11 12
f 13 14 15
f 13 15 16
f 17 18 19
f 17 19 20
f 21 22 23
f 21 23 24
f 25 26 27
f 25 27 28
f 29 30 31
f 29 31 32
f 33 34 35
f 35 36 33
f 35 37 36
f 37 38 36
f 37 39 38
f 39 40 38
f 41 42 43
f 41 43 44
f 45 46 47
f 45 47 48
f 49 50 51
f 49 51 52
f 53 54 55
f 53 55 56
f 57 58 59
f 57 59 60
f 61 62 63
f 61 63 64
f 65 66 67
f 65 67 68
f 69 70 71
f 69 71 72
f 73 74 75
f 73 75 76
f 77 78 79
f 77 79 80
f 81 82 83
f 81 83 84
f 85 86 87
f 85 87 88
f 89 90 91
f 89 91 92
f 93 94 95
f 93 95 96
f 97 98 99
f 97 99 100
f 101 102 103
f 101 103 104
f 105 106 107
f 105 107 108
f 106 109 107
f 110 105 108
f 106 111 109
f 110 108 112
f 111 113 109
f 114 110 112
f 111 115 113
f 114 112 116
f 115 117 113
f 118 114 116
f 115 119 117
f 118 116 120
f 119 118 120
f 119 120 117
g Pancake_Light
usemtl Light
f 121 122 123
f 123 124 121
f 124 125 121
f 124 126 125
f 126 127 125
f 126 128 127
g Pancake_Yellow
usemtl Yellow
f 129 130 131
f 132 133 134
f 135 136 137
f 138 139 140
f 141 142 143
f 144 145 146
f 147 148 149
f 150 151 152
f 153 154 155
f 153 155 156
f 157 158 159
f 157 159 160
f 161 162 163
f 161 163 164
f 165 166 167
f 165 167 168
f 169 170 171
f 169 171 172
f 173 174 175
f 173 175 176
f 177 178 179
f 177 179 180
f 181 182 183
f 181 183 184
f 185 186 187
f 185 187 188
f 189 190 191
f 189 191 192
f 193 194 195
f 193 195 196
f 197 198 199
f 197 199 200
f 201 202 203
f 201 203 204
f 205 206 207
f 205 207 208
f 209 210 211
f 209 211 212
f 213 214 215
f 213 215 216
f 217 218 219
f 217 219 220
f 221 222 223
f 221 223 224
g Pancake_Syrup
usemtl Syrup
f 225 226 227
f 228 229 230
f 228 230 231
f 232 231 230
f 232 230 233
f 232 233 234
f 232 234 235
f 236 235 234
f 236 237 235
f 238 235 237
f 238 237 239
f 238 239 240
f 238 240 241
f 242 241 240
f 242 240 243
f 236 234 244
f 236 244 245
f 246 245 244
f 246 244 234
f 246 247 245
f 246 234 248
f 249 245 247
f 249 250 245
f 251 245 250
f 251 252 245
f 253 245 252
f 253 254 245
f 236 245 254
f 253 255 254
f 236 254 255
f 253 256 255
f 236 255 257
f 236 257 237
f 258 257 255
f 258 255 259
f 260 237 257
f 260 261 237
f 258 259 262
f 258 262 263
f 264 263 262
f 264 262 265
f 260 266 261
f 260 267 266
f 268 266 267
f 268 269 266
f 270 271 272
f 270 272 273
f 274 275 276
f 274 276 277
f 278 279 280
f 278 280 281
f 282 283 284
f 282 284 285
f 286 287 288
f 286 288 289
f 290 291 292
f 290 292 293
f 294 295 296
f 294 248 295
f 297 298 299
f 297 299 300
f 301 300 299
f 301 299 302
f 303 304 305
f 303 305 306
f 307 308 309
f 307 310 308
f 311 308 310
f 311 312 308
f 311 313 312
f 311 314 313
f 315 313 314
f 315 314 316
f 317 316 314
f 317 318 316
f 317 319 318
f 317 320 319
f 321 319 320
f 321 322 319
f 315 323 313
f 315 324 323
f 325 323 324
f 325 324 326
f 327 313 323
f 327 328 313
f 327 329 328
f 327 330 329
f 331 326 324
f 331 324 332
f 333 332 324
f 333 324 334
f 335 334 324
f 335 324 336
f 315 336 324
f 335 336 337
f 315 337 336
f 335 337 338
f 315 339 337
f 315 316 339
f 340 337 339
f 340 341 337
f 342 339 316
f 342 316 343
f 340 344 341
f 340 345 344
f 346 344 345
f 346 347 344
f 342 343 348
f 342 348 349
f 350 349 348
f 350 348 351
f 352 353 354
f 352 354 355
f 356 357 358
f 356 358 359
f 360 361 362
f 360 362 363
f 364 365 366
f 364 366 367
f 368 369 370
f 368 370 371
f 372 373 374
f 372 374 375
f 376 377 378
f 376 379 377
f 380 377 379
f 380 381 377
f 382 383 384
f 382 384 385
f 386 387 388
f 386 388 389
f 390 391 392
f 390 392 393
f 394 395 396
f 394 396 397
f 398 399 400
f 398 400 401
f 402 403 404
f 402 404 405
f 406 407 408
f 406 408 409
f 410 411 412
f 410 412 413
f 414 415 416
f 414 416 417
f 418 419 420
f 418 420 421
f 422 423 424
f 422 424 425
f 426 427 428
f 426 428 429
f 430 431 432
f 430 432 433
f 434 435 436
f 434 436 437
f 438 439 440
f 438 440 441
f 442 443 444
f 442 444 445
f 446 447 448
f 446 448 449
f 450 451 452
f 450 452 453
f 454 455 456
f 454 456 457
f 458 459 460
f 458 460 461
f 462 463 464
f 462 464 465
f 466 467 468
f 466 468 469
f 466 469 470
f 466 470 471
f 472 473 474
f 472 474 475
f 472 475 476
f 472 476 477
f 478 479 480
f 478 480 481
f 482 483 484
f 482 484 485
f 486 487 488
f 486 488 489
f 490 491 492
f 490 492 493
f 494 495 496
f 494 496 497
f 498 499 500
f 498 500 501
f 502 503 504
f 502 504 505
f 506 507 508
f 506 508 509
f 510 511 512
f 510 512 513
f 514 515 516
f 514 516 517
f 518 519 520
f 518 520 521
f 522 523 524
f 522 524 525
f 526 527 528
f 526 528 529
f 530 531 532
f 530 532 533
f 534 535 536
f 534 536 537
f 538 539 540
f 538 540 541
f 542 543 544
f 542 544 545
f 546 547 548
f 546 548 549
f 550 551 552
f 550 552 553
f 554 555 556
f 554 556 557
f 558 559 560
f 558 560 561
f 562 563 564
f 562 564 565
f 566 567 568
f 566 568 569
f 570 571 572
f 570 572 573
f 574 575 576
f 574 576 577
f 578 579 580
f 578 580 581
f 582 583 584
f 582 584 585
f 586 587 588
f 586 588 589
f 590 591 592
f 590 592 593
f 594 595 596
f 594 596 597
f 598 599 600
f 598 600 601
f 602 603 604
f 602 604 605
f 606 607 608
f 606 608 609
f 610 611 612
f 610 612 613
f 614 615 616
f 614 616 617
f 618 619 620
f 618 620 621
f 622 623 624
f 622 624 625
f 626 627 628
f 626 628 629
f 630 631 632
f 630 632 633
f 634 635 636
f 634 637 635
f 634 638 637
