mtllib Materials.mtl
# Ultimate Food Pack - Pizza_Burned
o Pizza_Burned
v -0.122555 0.031318 -0.190916
v -0.031221 0.031318 -0.014337
v -0.031221 0.054225 -0.014337
v -0.120226 0.063579 -0.190710
v -0.213889 0.036662 -0.367496
v -0.213889 0.072772 -0.367496
v -0.015611 0.031318 0.010332
v 0.000000 0.031318 0.032181
v 0.000000 0.054225 0.032181
v -0.015611 0.054225 0.010332
v 0.015611 0.031318 0.010332
v 0.031221 0.031318 -0.014337
v 0.031221 0.054225 -0.014337
v 0.015611 0.054225 0.010332
v 0.396557 0.034987 -0.720655
v 0.487891 0.038333 -0.897234
v 0.487891 0.091640 -0.897234
v 0.396557 0.088309 -0.728972
v 0.305223 0.031591 -0.544075
v 0.305223 0.072436 -0.544075
v 0.396557 0.088309 -0.728972
v 0.487891 0.091640 -0.897234
v 0.269200 0.091640 -0.992212
v 0.218482 0.090049 -0.785235
v 0.000000 0.091640 -1.022651
v 0.000000 0.091074 -0.827315
v -0.276216 0.091640 -0.983794
v -0.224095 0.088283 -0.784969
v -0.487891 0.091640 -0.897234
v -0.392969 0.083738 -0.723303
v -0.171974 0.072916 -0.586144
v -0.297955 0.073175 -0.544075
v 0.002079 0.076238 -0.575816
v 0.000000 0.091074 -0.827315
v 0.167765 0.073813 -0.573583
v 0.218482 0.090049 -0.785235
v 0.305223 0.072436 -0.544075
v 0.396557 0.088309 -0.728972
v 0.117047 0.068461 -0.390686
v 0.000000 0.069004 -0.389752
v -0.171974 0.072916 -0.586144
v -0.119853 0.073154 -0.387319
v -0.000971 0.063579 -0.207344
v 0.066329 0.063579 -0.190177
v 0.120779 0.063579 -0.190916
v 0.213889 0.073175 -0.359307
v 0.167765 0.073813 -0.573583
v 0.305223 0.072436 -0.544075
v 0.015611 0.054225 0.010332
v 0.000000 0.054225 0.032181
v -0.067732 0.063579 -0.205625
v -0.213889 0.072772 -0.367496
v -0.015611 0.054225 0.010332
v -0.120226 0.063579 -0.190710
v -0.031221 0.054225 -0.014337
v 0.031221 0.054225 -0.014337
v 0.066329 0.063579 -0.190177
v 0.120779 0.063579 -0.190916
v 0.000000 0.031318 0.032181
v 0.015611 0.031318 0.010332
v 0.015611 0.054225 0.010332
v 0.000000 0.054225 0.032181
v -0.031221 0.031318 -0.014337
v -0.015611 0.031318 0.010332
v -0.015611 0.054225 0.010332
v -0.031221 0.054225 -0.014337
v -0.297955 0.073175 -0.544075
v -0.213889 0.072772 -0.367496
v -0.119853 0.073154 -0.387319
v 0.031221 0.031318 -0.014337
v 0.122555 0.031318 -0.190916
v 0.120779 0.063579 -0.190916
v 0.031221 0.054225 -0.014337
v 0.122555 0.031318 -0.190916
v 0.213889 0.073175 -0.359307
v 0.120779 0.063579 -0.190916
v 0.213889 0.044974 -0.367496
v 0.305223 0.072436 -0.544075
v 0.305223 0.031591 -0.544075
v -0.487891 0.038333 -0.897234
v -0.396557 0.035113 -0.720655
v -0.392969 0.083738 -0.723303
v -0.487891 0.091640 -0.897234
v -0.396557 0.035113 -0.720655
v -0.297955 0.073175 -0.544075
v -0.392969 0.083738 -0.723303
v -0.305223 0.029804 -0.544075
v -0.213889 0.072772 -0.367496
v -0.213889 0.036662 -0.367496
v 0.293219 0.038333 -1.093090
v 0.000000 0.091640 -1.131534
v 0.293219 0.091640 -1.093090
v -0.000001 0.038333 -1.131534
v 0.293219 0.001998 -1.093090
v 0.000000 0.001998 -1.131534
v 0.528826 0.038333 -0.931454
v 0.535929 0.091640 -0.990107
v 0.528826 0.091640 -0.931454
v 0.535929 0.038333 -0.990107
v 0.528826 0.001998 -0.931454
v 0.535929 0.001998 -0.990107
v -0.122555 0.001998 -0.190916
v -0.031221 0.001998 -0.014337
v -0.213889 0.001998 -0.367496
v -0.305223 0.001998 -0.544075
v -0.305223 0.029804 -0.544075
v -0.396557 0.001998 -0.720655
v -0.487891 0.001998 -0.897234
v 0.528826 0.091640 -0.931454
v 0.496456 0.114791 -0.943671
v 0.487891 0.114791 -0.922489
v 0.487891 0.091640 -0.897234
v -0.300235 0.038333 -1.084672
v -0.535929 0.091640 -0.990107
v -0.300234 0.091640 -1.084672
v -0.535929 0.038333 -0.990107
v -0.300234 0.001998 -1.084672
v -0.535929 0.001998 -0.990107
v -0.015611 0.001998 0.010332
v 0.000000 0.001998 0.032181
v 0.015611 0.001998 0.010332
v 0.031221 0.001998 -0.014337
v 0.396557 0.001998 -0.720655
v 0.487891 0.001998 -0.897234
v 0.305223 0.001998 -0.544075
v 0.213889 0.001998 -0.367496
v 0.122555 0.001998 -0.190916
v 0.031221 0.001998 -0.014337
v -0.526525 0.001998 -0.929055
v -0.487891 0.001998 -0.897234
v -0.487891 0.038333 -0.897234
v -0.526525 0.038333 -0.929055
v -0.487891 0.091640 -0.897234
v -0.526525 0.091640 -0.929056
v 0.293219 0.091640 -1.093090
v 0.277765 0.114791 -1.067835
v 0.505020 0.114791 -0.964852
v 0.535929 0.091640 -0.990107
v -0.276216 0.091640 -0.983794
v -0.276216 0.114791 -1.009049
v -0.487891 0.114791 -0.922489
v -0.487891 0.091640 -0.897234
v 0.269200 0.091640 -0.992212
v 0.269200 0.114791 -1.017467
v 0.000000 0.114791 -1.047906
v 0.000000 0.091640 -1.022651
v -0.526525 0.091640 -0.929056
v -0.496456 0.114791 -0.943671
v -0.505020 0.114791 -0.964852
v -0.535929 0.091640 -0.990107
v -0.300234 0.091640 -1.084672
v -0.284780 0.114791 -1.059417
v 0.000000 0.114791 -1.106279
v 0.000000 0.091640 -1.131534
v 0.487891 0.091640 -0.897234
v 0.487891 0.114791 -0.922489
v 0.269200 0.114791 -1.017467
v 0.269200 0.091640 -0.992212
v 0.496456 0.114791 -0.943671
v 0.505020 0.114791 -0.964852
v 0.277765 0.114791 -1.067835
v 0.273483 0.114791 -1.042651
v 0.487891 0.114791 -0.922489
v 0.000000 0.114791 -1.106279
v 0.269200 0.114791 -1.017467
v 0.000000 0.114791 -1.077092
v -0.284780 0.114791 -1.059417
v 0.000000 0.114791 -1.047906
v -0.280498 0.114791 -1.034233
v -0.505020 0.114791 -0.964852
v -0.276216 0.114791 -1.009049
v -0.496456 0.114791 -0.943671
v -0.487891 0.114791 -0.922489
v 0.000000 0.091640 -1.131534
v 0.000000 0.114791 -1.106279
v 0.277765 0.114791 -1.067835
v 0.293219 0.091640 -1.093090
v 0.000000 0.001998 0.032181
v 0.015611 0.001998 0.010332
v 0.122555 0.001998 -0.190916
v 0.031221 0.001998 -0.014337
v 0.015611 0.001998 0.010332
v 0.066329 0.001998 -0.190177
v 0.213889 0.001998 -0.367496
v 0.000000 0.001998 0.032181
v 0.117047 0.001998 -0.390686
v 0.305223 0.001998 -0.544075
v 0.000000 0.001998 -0.178786
v -0.015611 0.001998 0.010332
v 0.167765 0.001998 -0.591195
v 0.396557 0.001998 -0.720655
v -0.067732 0.001998 -0.188494
v -0.031221 0.001998 -0.014337
v -0.122555 0.001998 -0.190916
v 0.000000 0.001998 -0.389752
v -0.119853 0.001998 -0.387319
v -0.213889 0.001998 -0.367496
v 0.218483 0.001998 -0.791704
v 0.487891 0.001998 -0.897234
v 0.000000 0.001998 -0.600718
v -0.171974 0.001998 -0.586144
v -0.305223 0.001998 -0.544075
v 0.269201 0.001998 -0.992212
v 0.528826 0.001998 -0.931454
v 0.000000 0.001998 -0.811684
v -0.224095 0.001998 -0.784969
v -0.396557 0.001998 -0.720655
v 0.281210 0.001998 -1.042651
v 0.535929 0.001998 -0.990107
v 0.293219 0.001998 -1.093090
v 0.000000 0.001998 -1.022651
v -0.276216 0.001998 -0.983794
v -0.487891 0.001998 -0.897234
v 0.000000 0.001998 -1.077092
v 0.000000 0.001998 -1.131534
v -0.288225 0.001998 -1.034233
v -0.526525 0.001998 -0.929055
v -0.300234 0.001998 -1.084672
v -0.535929 0.001998 -0.990107
v 0.535929 0.001998 -0.990107
v 0.293219 0.001998 -1.093090
v 0.293219 0.038333 -1.093090
v 0.535929 0.038333 -0.990107
v 0.293219 0.091640 -1.093090
v 0.535929 0.091640 -0.990107
v -0.535929 0.091640 -0.990107
v -0.505020 0.114791 -0.964852
v -0.284780 0.114791 -1.059417
v -0.300234 0.091640 -1.084672
v 0.000000 0.091640 -1.022651
v 0.000000 0.114791 -1.047906
v -0.276216 0.114791 -1.009049
v -0.276216 0.091640 -0.983794
v -0.031221 0.001998 -0.014337
v -0.015611 0.001998 0.010332
v 0.000000 0.001998 -1.131534
v -0.300234 0.001998 -1.084672
v -0.300235 0.038333 -1.084672
v -0.000001 0.038333 -1.131534
v -0.300234 0.091640 -1.084672
v 0.000000 0.091640 -1.131534
v -0.487891 0.091640 -0.897234
v -0.487891 0.114791 -0.922489
v -0.496456 0.114791 -0.943671
v -0.526525 0.091640 -0.929056
v -0.535929 0.038333 -0.990107
v -0.526525 0.091640 -0.929056
v -0.535929 0.091640 -0.990107
v -0.526525 0.038333 -0.929055
v -0.535929 0.001998 -0.990107
v -0.526525 0.001998 -0.929055
v 0.487891 0.001998 -0.897234
v 0.528826 0.001998 -0.931454
v 0.528826 0.038333 -0.931454
v 0.487891 0.038333 -0.897234
v 0.528826 0.091640 -0.931454
v 0.487891 0.091640 -0.897234
v 0.535929 0.091640 -0.990107
v 0.505020 0.114791 -0.964852
v 0.496456 0.114791 -0.943671
v 0.528826 0.091640 -0.931454
v 0.175720 0.090931 -0.495159
v 0.151564 0.088998 -0.445640
v 0.164913 0.087000 -0.392186
v 0.209522 0.085873 -0.359810
v 0.226080 0.091896 -0.517574
v 0.279079 0.091440 -0.502396
v 0.286620 0.070057 -0.512885
v 0.279079 0.091440 -0.502396
v 0.209522 0.085873 -0.359810
v 0.206010 0.063605 -0.347641
v 0.209522 0.085873 -0.359810
v 0.164913 0.087000 -0.392186
v 0.154312 0.064912 -0.385162
v 0.206010 0.063605 -0.347641
v -0.109714 0.086144 -0.489350
v -0.164844 0.085873 -0.489057
v -0.169134 0.063605 -0.477140
v -0.105243 0.063919 -0.477479
v 0.138841 0.067227 -0.447110
v 0.154312 0.064912 -0.385162
v 0.164913 0.087000 -0.392186
v 0.151564 0.088998 -0.445640
v -0.085175 0.061642 -0.324155
v -0.114406 0.059572 -0.272917
v -0.102765 0.079685 -0.270803
v -0.077542 0.081471 -0.315015
v 0.043886 0.080405 -0.271583
v 0.035317 0.078473 -0.221413
v 0.045619 0.058167 -0.215678
v 0.055549 0.060407 -0.273820
v 0.166837 0.069467 -0.504498
v 0.138841 0.067227 -0.447110
v 0.151564 0.088998 -0.445640
v 0.175720 0.090931 -0.495159
v -0.189839 0.090931 -0.626305
v -0.217142 0.088998 -0.578448
v -0.207270 0.087000 -0.524245
v -0.164844 0.085873 -0.489057
v -0.138138 0.091896 -0.645423
v -0.109714 0.086144 -0.489350
v -0.086229 0.091440 -0.626856
v -0.067676 0.087685 -0.524987
v -0.058402 0.089777 -0.579292
v -0.058402 0.089777 -0.579292
v -0.067676 0.087685 -0.524987
v -0.056526 0.065706 -0.518779
v -0.045777 0.068130 -0.581714
v 0.226080 0.091896 -0.517574
v 0.279079 0.091440 -0.502396
v 0.286620 0.070057 -0.512885
v 0.225199 0.070585 -0.530475
v 0.175720 0.090931 -0.495159
v 0.226080 0.091896 -0.517574
v 0.225199 0.070585 -0.530475
v 0.166837 0.069467 -0.504498
v -0.077542 0.081471 -0.315015
v -0.102765 0.079685 -0.270803
v -0.093645 0.077840 -0.220728
v -0.054450 0.076798 -0.188220
v -0.029778 0.082362 -0.332677
v -0.003518 0.077048 -0.188491
v 0.018178 0.081941 -0.315524
v 0.035317 0.078473 -0.221413
v 0.043886 0.080405 -0.271583
v -0.003518 0.077048 -0.188491
v -0.054450 0.076798 -0.188220
v -0.058413 0.056227 -0.177210
v 0.000612 0.056516 -0.177524
v -0.103837 0.057433 -0.214884
v -0.114406 0.059572 -0.272917
v -0.085175 0.061642 -0.324155
v -0.058413 0.056227 -0.177210
v -0.029821 0.062675 -0.344623
v 0.000612 0.056516 -0.177524
v 0.025755 0.062187 -0.324744
v 0.045619 0.058167 -0.215678
v 0.055549 0.060407 -0.273820
v -0.114406 0.059572 -0.272917
v -0.103837 0.057433 -0.214884
v -0.093645 0.077840 -0.220728
v -0.102765 0.079685 -0.270803
v -0.054450 0.076798 -0.188220
v -0.093645 0.077840 -0.220728
v -0.103837 0.057433 -0.214884
v -0.058413 0.056227 -0.177210
v -0.198102 0.069467 -0.636198
v -0.229743 0.067227 -0.580736
v -0.217142 0.088998 -0.578448
v -0.189839 0.090931 -0.626305
v 0.018178 0.081941 -0.315524
v 0.043886 0.080405 -0.271583
v 0.055549 0.060407 -0.273820
v 0.025755 0.062187 -0.324744
v -0.029778 0.082362 -0.332677
v 0.018178 0.081941 -0.315524
v 0.025755 0.062187 -0.324744
v -0.029821 0.062675 -0.344623
v -0.077542 0.081471 -0.315015
v -0.029778 0.082362 -0.332677
v -0.029821 0.062675 -0.344623
v -0.085175 0.061642 -0.324155
v 0.000612 0.056516 -0.177524
v 0.045619 0.058167 -0.215678
v 0.035317 0.078473 -0.221413
v -0.003518 0.077048 -0.188491
v -0.218303 0.064912 -0.517919
v -0.229743 0.067227 -0.580736
v -0.198102 0.069467 -0.636198
v -0.169134 0.063605 -0.477140
v -0.138184 0.070585 -0.658354
v -0.105243 0.063919 -0.477479
v -0.078027 0.070057 -0.636837
v -0.056526 0.065706 -0.518779
v -0.045777 0.068130 -0.581714
v 0.154312 0.064912 -0.385162
v 0.138841 0.067227 -0.447110
v 0.166837 0.069467 -0.504498
v 0.206010 0.063605 -0.347641
v 0.225199 0.070585 -0.530475
v 0.286620 0.070057 -0.512885
v -0.229743 0.067227 -0.580736
v -0.218303 0.064912 -0.517919
v -0.207270 0.087000 -0.524245
v -0.217142 0.088998 -0.578448
v -0.164844 0.085873 -0.489057
v -0.207270 0.087000 -0.524245
v -0.218303 0.064912 -0.517919
v -0.169134 0.063605 -0.477140
v -0.086229 0.091440 -0.626856
v -0.058402 0.089777 -0.579292
v -0.045777 0.068130 -0.581714
v -0.078027 0.070057 -0.636837
v -0.138138 0.091896 -0.645423
v -0.086229 0.091440 -0.626856
v -0.078027 0.070057 -0.636837
v -0.138184 0.070585 -0.658354
v -0.189839 0.090931 -0.626305
v -0.138138 0.091896 -0.645423
v -0.138184 0.070585 -0.658354
v -0.198102 0.069467 -0.636198
v -0.105243 0.063919 -0.477479
v -0.056526 0.065706 -0.518779
v -0.067676 0.087685 -0.524987
v -0.109714 0.086144 -0.489350
v 0.259488 0.092185 -0.707695
v 0.204358 0.091914 -0.707402
v 0.200067 0.069646 -0.695484
v 0.263958 0.069960 -0.695824
v 0.179362 0.096972 -0.844650
v 0.152059 0.095039 -0.796793
v 0.161931 0.093041 -0.742589
v 0.204358 0.091914 -0.707402
v 0.231063 0.097937 -0.863768
v 0.259488 0.092185 -0.707695
v 0.282972 0.097481 -0.845201
v 0.301525 0.093727 -0.743331
v 0.310799 0.095818 -0.797637
v 0.310799 0.095818 -0.797637
v 0.301525 0.093727 -0.743331
v 0.312675 0.071747 -0.737124
v 0.323424 0.074171 -0.800059
v 0.171099 0.075508 -0.854543
v 0.139458 0.073268 -0.799081
v 0.152059 0.095039 -0.796793
v 0.179362 0.096972 -0.844650
v 0.150898 0.070953 -0.736264
v 0.139458 0.073268 -0.799081
v 0.171099 0.075508 -0.854543
v 0.200067 0.069646 -0.695484
v 0.231017 0.076626 -0.876699
v 0.263958 0.069960 -0.695824
v 0.291174 0.076098 -0.855181
v 0.312675 0.071747 -0.737124
v 0.323424 0.074171 -0.800059
v 0.139458 0.073268 -0.799081
v 0.150898 0.070953 -0.736264
v 0.161931 0.093041 -0.742589
v 0.152059 0.095039 -0.796793
v 0.204358 0.091914 -0.707402
v 0.161931 0.093041 -0.742589
v 0.150898 0.070953 -0.736264
v 0.200067 0.069646 -0.695484
v 0.282972 0.097481 -0.845201
v 0.310799 0.095818 -0.797637
v 0.323424 0.074171 -0.800059
v 0.291174 0.076098 -0.855181
v 0.231063 0.097937 -0.863768
v 0.282972 0.097481 -0.845201
v 0.291174 0.076098 -0.855181
v 0.231017 0.076626 -0.876699
v 0.179362 0.096972 -0.844650
v 0.231063 0.097937 -0.863768
v 0.231017 0.076626 -0.876699
v 0.171099 0.075508 -0.854543
v 0.263958 0.069960 -0.695824
v 0.312675 0.071747 -0.737124
v 0.301525 0.093727 -0.743331
v 0.259488 0.092185 -0.707695
v -0.078371 0.098465 -0.784600
v -0.133496 0.098866 -0.785384
v -0.138294 0.076951 -0.773014
v -0.074410 0.076487 -0.772106
v -0.155765 0.100846 -0.923180
v -0.184011 0.100420 -0.875835
v -0.175216 0.099638 -0.821416
v -0.133496 0.098866 -0.785384
v -0.103695 0.100718 -0.941295
v -0.078371 0.098465 -0.784600
v -0.052165 0.100094 -0.921706
v -0.035636 0.098624 -0.819430
v -0.025287 0.099267 -0.873578
v -0.025287 0.099267 -0.873578
v -0.035636 0.098624 -0.819430
v -0.024884 0.076671 -0.812471
v -0.012890 0.077416 -0.875223
v -0.164103 0.079246 -0.932707
v -0.196837 0.078752 -0.877839
v -0.184011 0.100420 -0.875835
v -0.155765 0.100846 -0.923180
v -0.186644 0.077846 -0.814772
v -0.196837 0.078752 -0.877839
v -0.164103 0.079246 -0.932707
v -0.138294 0.076951 -0.773014
v -0.103758 0.079097 -0.953701
v -0.074410 0.076487 -0.772106
v -0.044040 0.078375 -0.930999
v -0.024884 0.076671 -0.812471
v -0.012890 0.077416 -0.875223
v -0.196837 0.078752 -0.877839
v -0.186644 0.077846 -0.814772
v -0.175216 0.099638 -0.821416
v -0.184011 0.100420 -0.875835
v -0.133496 0.098866 -0.785384
v -0.175216 0.099638 -0.821416
v -0.186644 0.077846 -0.814772
v -0.138294 0.076951 -0.773014
v -0.052165 0.100094 -0.921706
v -0.025287 0.099267 -0.873578
v -0.012890 0.077416 -0.875223
v -0.044040 0.078375 -0.930999
v -0.103695 0.100718 -0.941295
v -0.052165 0.100094 -0.921706
v -0.044040 0.078375 -0.930999
v -0.103758 0.079097 -0.953701
v -0.155765 0.100846 -0.923180
v -0.103695 0.100718 -0.941295
v -0.103758 0.079097 -0.953701
v -0.164103 0.079246 -0.932707
v -0.074410 0.076487 -0.772106
v -0.024884 0.076671 -0.812471
v -0.035636 0.098624 -0.819430
v -0.078371 0.098465 -0.784600
v -0.402632 0.097019 -0.864295
v -0.454583 0.096100 -0.845864
v -0.376282 0.091010 -0.707868
v -0.350974 0.096464 -0.845044
v -0.333775 0.092542 -0.742944
v -0.323780 0.094696 -0.797119
v -0.372463 0.068804 -0.697077
v -0.376282 0.091010 -0.707868
v -0.454583 0.096100 -0.845864
v -0.463208 0.074703 -0.857002
v -0.454583 0.096100 -0.845864
v -0.402632 0.097019 -0.864295
v -0.403001 0.075768 -0.878362
v -0.463208 0.074703 -0.857002
v -0.343134 0.075125 -0.856052
v -0.403001 0.075768 -0.878362
v -0.402632 0.097019 -0.864295
v -0.350974 0.096464 -0.845044
v -0.311619 0.073076 -0.800511
v -0.343134 0.075125 -0.856052
v -0.350974 0.096464 -0.845044
v -0.323780 0.094696 -0.797119
v -0.333775 0.092542 -0.742944
v -0.376282 0.091010 -0.707868
v -0.372463 0.068804 -0.697077
v -0.323202 0.070580 -0.737727
v -0.323780 0.094696 -0.797119
v -0.333775 0.092542 -0.742944
v -0.323202 0.070580 -0.737727
v -0.311619 0.073076 -0.800511
v -0.372463 0.068804 -0.697077
v -0.463208 0.074703 -0.857002
v -0.403001 0.075768 -0.878362
v -0.343134 0.075125 -0.856052
v -0.323202 0.070580 -0.737727
v -0.311619 0.073076 -0.800511
vn -0.889537 0.035857 0.455453
vn -0.889537 0.035857 0.455453
vn -0.889537 0.035857 0.455453
vn -0.889537 0.035857 0.455453
vn -0.888218 0.000000 0.459422
vn -0.885080 0.028754 0.464550
vn -0.813665 0.000000 0.581334
vn -0.813665 0.000000 0.581334
vn -0.813665 0.000000 0.581334
vn -0.813665 0.000000 0.581334
vn 0.845019 0.000000 0.534737
vn 0.845019 0.000000 0.534737
vn 0.845019 0.000000 0.534737
vn 0.845019 0.000000 0.534737
vn 0.888218 0.000000 0.459422
vn 0.888218 0.000000 0.459422
vn 0.882795 0.036529 0.468337
vn 0.882795 0.036529 0.468337
vn 0.890941 0.039952 0.452358
vn 0.890941 0.039952 0.452358
vn -0.000538 0.999917 0.012912
vn -0.000538 0.999917 0.012912
vn 0.001283 0.999984 0.005522
vn 0.001283 0.999984 0.005522
vn 0.001283 0.999984 0.005522
vn 0.001283 0.999984 0.005522
vn -0.000155 0.999542 0.030251
vn -0.000155 0.999542 0.030251
vn -0.000155 0.999542 0.030251
vn -0.000155 0.999542 0.030251
vn 0.008422 0.997839 0.065165
vn 0.008422 0.997839 0.065165
vn 0.010324 0.999314 0.035566
vn 0.001225 0.997748 0.067066
vn -0.011022 0.996988 0.076775
vn -0.011022 0.996988 0.076775
vn -0.011022 0.996988 0.076775
vn -0.011022 0.996988 0.076775
vn -0.036210 0.999029 0.025091
vn 0.000569 0.999636 0.026984
vn -0.000393 1.000000 0.000582
vn 0.008933 0.998776 0.048656
vn -0.010322 0.999054 0.042236
vn -0.036210 0.999029 0.025091
vn -0.036210 0.999029 0.025091
vn -0.036210 0.999029 0.025091
vn -0.015905 0.999853 0.006403
vn -0.015905 0.999853 0.006403
vn 0.020758 0.998145 0.057240
vn -0.010322 0.999054 0.042236
vn -0.010322 0.999054 0.042236
vn 0.008933 0.998776 0.048656
vn -0.010322 0.999054 0.042236
vn -0.007191 0.998713 0.050208
vn -0.007191 0.998713 0.050208
vn 0.020758 0.998145 0.057240
vn 0.020758 0.998145 0.057240
vn 0.020758 0.998145 0.057240
vn 0.813665 0.000000 0.581334
vn 0.813665 0.000000 0.581334
vn 0.813665 0.000000 0.581334
vn 0.813665 0.000000 0.581334
vn -0.845019 0.000000 0.534737
vn -0.845019 0.000000 0.534737
vn -0.845019 0.000000 0.534737
vn -0.845019 0.000000 0.534737
vn -0.000393 1.000000 0.000582
vn -0.000393 1.000000 0.000582
vn -0.000393 1.000000 0.000582
vn 0.889365 0.028639 0.456300
vn 0.889365 0.028639 0.456300
vn 0.889365 0.028639 0.456300
vn 0.889365 0.028639 0.456300
vn 0.882292 -0.037624 0.469197
vn 0.882292 -0.037624 0.469197
vn 0.882292 -0.037624 0.469197
vn 0.882292 -0.037624 0.469197
vn 0.890319 -0.053628 0.452169
vn 0.890319 -0.053628 0.452169
vn -0.888218 0.000000 0.459422
vn -0.888218 0.000000 0.459422
vn -0.881671 0.043243 0.469879
vn -0.881671 0.043243 0.469879
vn -0.877626 0.116951 0.464860
vn -0.877626 0.116951 0.464860
vn -0.877626 0.116951 0.464860
vn -0.877626 0.116951 0.464860
vn -0.893222 0.081685 0.442134
vn -0.893222 0.081685 0.442134
vn 0.129996 -0.000002 -0.991515
vn 0.129996 -0.000002 -0.991515
vn 0.129996 -0.000002 -0.991515
vn 0.129996 -0.000002 -0.991515
vn 0.129996 0.000002 -0.991515
vn 0.129996 0.000002 -0.991515
vn 0.992746 0.000000 0.120227
vn 0.992746 0.000000 0.120227
vn 0.992746 0.000000 0.120227
vn 0.992746 0.000000 0.120227
vn 0.992747 0.000000 0.120227
vn 0.992747 0.000000 0.120227
vn -0.888218 0.000000 0.459422
vn -0.888218 0.000000 0.459422
vn -0.888218 0.000000 0.459422
vn -0.888218 0.000000 0.459422
vn -0.888218 0.000000 0.459422
vn -0.888218 0.000000 0.459422
vn -0.888218 0.000000 0.459422
vn 0.511591 0.727562 0.457087
vn 0.511591 0.727562 0.457087
vn 0.511591 0.727562 0.457087
vn 0.511591 0.727562 0.457087
vn -0.372366 0.000001 -0.928086
vn -0.372366 0.000001 -0.928086
vn -0.372366 0.000001 -0.928086
vn -0.372366 0.000001 -0.928086
vn -0.372366 -0.000002 -0.928086
vn -0.372366 -0.000002 -0.928086
vn -0.813665 0.000000 0.581334
vn -0.813665 0.000000 0.581334
vn 0.845018 0.000000 0.534737
vn 0.845018 0.000000 0.534737
vn 0.888218 0.000000 0.459422
vn 0.888218 0.000000 0.459422
vn 0.888218 0.000001 0.459422
vn 0.888218 0.000001 0.459422
vn 0.888218 0.000000 0.459422
vn 0.888218 0.000000 0.459422
vn -0.635770 0.000000 0.771879
vn -0.635770 0.000000 0.771879
vn -0.635770 0.000000 0.771879
vn -0.635770 0.000000 0.771879
vn -0.635770 0.000000 0.771879
vn -0.635770 0.000000 0.771879
vn 0.233195 0.813939 -0.532094
vn 0.233195 0.813939 -0.532094
vn 0.233195 0.813939 -0.532094
vn 0.233195 0.813939 -0.532094
vn 0.266348 0.710511 0.651332
vn 0.266348 0.710511 0.651332
vn 0.266348 0.710511 0.651332
vn 0.266348 0.710511 0.651332
vn -0.076184 0.734998 0.673776
vn -0.076184 0.734998 0.673776
vn -0.076184 0.734998 0.673776
vn -0.076184 0.734998 0.673776
vn -0.614021 0.777803 0.134166
vn -0.614021 0.777803 0.134166
vn -0.614021 0.777803 0.134166
vn -0.614021 0.777803 0.134166
vn -0.104839 0.748849 -0.654396
vn -0.104839 0.748849 -0.654396
vn -0.104839 0.748849 -0.654396
vn -0.104839 0.748849 -0.654396
vn -0.281600 0.707309 0.648395
vn -0.281600 0.707309 0.648395
vn -0.281600 0.707309 0.648395
vn -0.281600 0.707309 0.648395
vn 0.000000 1.000000 0.000000
vn 0.000000 1.000000 0.000000
vn 0.000000 1.000000 0.000000
vn 0.000000 1.000000 0.000000
vn 0.000000 1.000000 0.000000
vn 0.000000 1.000000 0.000000
vn 0.000000 1.000000 0.000000
vn 0.000000 1.000000 0.000000
vn 0.000000 1.000000 0.000000
vn 0.000000 1.000000 0.000000
vn 0.000000 1.000000 0.000000
vn 0.000000 1.000000 0.000000
vn 0.000000 1.000000 0.000000
vn 0.000000 1.000000 0.000000
vn 0.000000 1.000000 0.000000
vn 0.088632 0.747599 -0.658210
vn 0.088632 0.747599 -0.658210
vn 0.088632 0.747599 -0.658210
vn 0.088632 0.747599 -0.658210
vn 0.813665 0.000000 0.581334
vn 0.813665 0.000000 0.581334
vn 0.000000 -1.000000 0.000000
vn 0.000000 -1.000000 0.000000
vn 0.000000 -1.000000 0.000000
vn 0.000000 -1.000000 0.000000
vn 0.000000 -1.000000 0.000000
vn 0.000000 -1.000000 0.000000
vn 0.000000 -1.000000 0.000000
vn 0.000000 -1.000000 0.000000
vn 0.000000 -1.000000 0.000000
vn 0.000000 -1.000000 0.000000
vn 0.000000 -1.000000 0.000000
vn 0.000000 -1.000000 0.000000
vn 0.000000 -1.000000 0.000000
vn 0.000000 -1.000000 0.000000
vn 0.000000 -1.000000 0.000000
vn 0.000000 -1.000000 0.000000
vn 0.000000 -1.000000 0.000000
vn 0.000000 -1.000000 0.000000
vn 0.000000 -1.000000 0.000000
vn 0.000000 -1.000000 0.000000
vn 0.000000 -1.000000 0.000000
vn 0.000000 -1.000000 0.000000
vn 0.000000 -1.000000 0.000000
vn 0.000000 -1.000000 0.000000
vn 0.000000 -1.000000 0.000000
vn 0.000000 -1.000000 0.000000
vn 0.000000 -1.000000 0.000000
vn 0.000000 -1.000000 0.000000
vn 0.000000 -1.000000 0.000000
vn 0.000000 -1.000000 0.000000
vn 0.000000 -1.000000 0.000000
vn 0.000000 -1.000000 0.000000
vn 0.000000 -1.000000 0.000000
vn 0.000000 -1.000000 0.000000
vn 0.000000 -1.000000 0.000000
vn 0.000000 -1.000000 0.000000
vn 0.000000 -1.000000 0.000000
vn 0.000000 -1.000000 0.000000
vn 0.000000 -1.000000 0.000000
vn 0.000000 -1.000000 0.000000
vn 0.390600 0.000004 -0.920561
vn 0.390600 0.000004 -0.920561
vn 0.390600 0.000004 -0.920561
vn 0.390600 0.000004 -0.920561
vn 0.390600 -0.000002 -0.920561
vn 0.390600 -0.000002 -0.920561
vn -0.223630 0.812009 -0.539102
vn -0.223630 0.812009 -0.539102
vn -0.223630 0.812009 -0.539102
vn -0.223630 0.812009 -0.539102
vn 0.094633 0.733831 0.672708
vn 0.094633 0.733831 0.672708
vn 0.094633 0.733831 0.672708
vn 0.094633 0.733831 0.672708
vn -0.845019 0.000000 0.534737
vn -0.845019 0.000000 0.534737
vn -0.154216 -0.000005 -0.988037
vn -0.154216 -0.000005 -0.988037
vn -0.154216 -0.000005 -0.988037
vn -0.154216 -0.000005 -0.988037
vn -0.154216 0.000002 -0.988037
vn -0.154216 0.000002 -0.988037
vn -0.513088 0.726627 0.456897
vn -0.513088 0.726627 0.456897
vn -0.513088 0.726627 0.456897
vn -0.513088 0.726627 0.456897
vn -0.988344 0.000000 0.152235
vn -0.988344 0.000000 0.152235
vn -0.988344 0.000000 0.152235
vn -0.988344 0.000000 0.152235
vn -0.988344 0.000000 0.152235
vn -0.988344 0.000000 0.152235
vn 0.641374 0.000000 0.767228
vn 0.641374 0.000000 0.767228
vn 0.641374 0.000000 0.767228
vn 0.641374 0.000000 0.767228
vn 0.641375 0.000000 0.767228
vn 0.641375 0.000000 0.767228
vn 0.602124 0.789609 0.118168
vn 0.602124 0.789609 0.118168
vn 0.602124 0.789609 0.118168
vn 0.602124 0.789609 0.118168
vn -0.002263 0.999279 0.037911
vn -0.002263 0.999279 0.037911
vn -0.002263 0.999279 0.037911
vn -0.002263 0.999279 0.037911
vn -0.002263 0.999279 0.037911
vn -0.002263 0.999279 0.037911
vn 0.892784 0.099322 0.439399
vn 0.892784 0.099322 0.439399
vn 0.892784 0.099322 0.439399
vn 0.892784 0.099322 0.439399
vn -0.509614 0.473120 0.718645
vn -0.509614 0.473120 0.718645
vn -0.509614 0.473120 0.718645
vn -0.509614 0.473120 0.718645
vn 0.002373 0.471502 0.881862
vn 0.002373 0.471502 0.881862
vn 0.002373 0.471502 0.881862
vn 0.002373 0.471502 0.881862
vn -0.847022 0.479483 0.229455
vn -0.847022 0.479483 0.229455
vn -0.847022 0.479483 0.229455
vn -0.847022 0.479483 0.229455
vn -0.766657 0.487628 -0.417679
vn -0.766657 0.487628 -0.417679
vn -0.766657 0.487628 -0.417679
vn -0.766657 0.487628 -0.417679
vn 0.859870 0.482956 0.165459
vn 0.859870 0.482956 0.165459
vn 0.859870 0.482956 0.165459
vn 0.859870 0.482956 0.165459
vn -0.792017 0.487627 -0.367327
vn -0.792017 0.487627 -0.367327
vn -0.792017 0.487627 -0.367327
vn -0.792017 0.487627 -0.367327
vn -0.004705 0.999279 0.037686
vn -0.004705 0.999279 0.037686
vn -0.004705 0.999279 0.037686
vn -0.004705 0.999279 0.037686
vn -0.004705 0.999279 0.037686
vn -0.004705 0.999279 0.037686
vn -0.004705 0.999279 0.037686
vn -0.004705 0.999279 0.037686
vn -0.004705 0.999279 0.037686
vn 0.859871 0.482956 0.165458
vn 0.859871 0.482956 0.165458
vn 0.859871 0.482956 0.165458
vn 0.859871 0.482956 0.165458
vn 0.243157 0.494949 -0.834206
vn 0.243157 0.494949 -0.834206
vn 0.243157 0.494949 -0.834206
vn 0.243157 0.494949 -0.834206
vn -0.361485 0.493739 -0.790917
vn -0.361485 0.493739 -0.790917
vn -0.361485 0.493739 -0.790917
vn -0.361485 0.493739 -0.790917
vn -0.004705 0.999279 0.037686
vn -0.004705 0.999279 0.037686
vn -0.004705 0.999279 0.037686
vn -0.004705 0.999279 0.037686
vn -0.004705 0.999279 0.037686
vn -0.004705 0.999279 0.037686
vn -0.004705 0.999279 0.037686
vn -0.004705 0.999279 0.037686
vn -0.004705 0.999279 0.037686
vn 0.002373 0.471503 0.881861
vn 0.002373 0.471503 0.881861
vn 0.002373 0.471503 0.881861
vn 0.002373 0.471503 0.881861
vn 0.004705 -0.999279 -0.037686
vn 0.004705 -0.999279 -0.037686
vn 0.004705 -0.999279 -0.037686
vn 0.004705 -0.999279 -0.037686
vn 0.004705 -0.999279 -0.037686
vn 0.004705 -0.999279 -0.037686
vn 0.004705 -0.999279 -0.037686
vn 0.004705 -0.999279 -0.037686
vn 0.004705 -0.999279 -0.037686
vn -0.860066 0.479483 0.174308
vn -0.860066 0.479483 0.174308
vn -0.860066 0.479483 0.174308
vn -0.860066 0.479483 0.174308
vn -0.554934 0.473120 0.684256
vn -0.554934 0.473120 0.684256
vn -0.554934 0.473120 0.684256
vn -0.554934 0.473120 0.684256
vn -0.766658 0.487628 -0.417679
vn -0.766658 0.487628 -0.417679
vn -0.766658 0.487628 -0.417679
vn -0.766658 0.487628 -0.417679
vn 0.759445 0.490692 -0.427159
vn 0.759445 0.490692 -0.427159
vn 0.759445 0.490692 -0.427159
vn 0.759445 0.490692 -0.427159
vn 0.296491 0.494951 -0.816772
vn 0.296491 0.494951 -0.816772
vn 0.296491 0.494951 -0.816772
vn 0.296491 0.494951 -0.816772
vn -0.309684 0.493741 -0.812598
vn -0.309684 0.493741 -0.812598
vn -0.309684 0.493741 -0.812598
vn -0.309684 0.493741 -0.812598
vn 0.558698 0.475380 0.679611
vn 0.558698 0.475380 0.679611
vn 0.558698 0.475380 0.679611
vn 0.558698 0.475380 0.679611
vn 0.004705 -0.999279 -0.037686
vn 0.004705 -0.999279 -0.037686
vn 0.004705 -0.999279 -0.037686
vn 0.004705 -0.999279 -0.037686
vn 0.004705 -0.999279 -0.037686
vn 0.004705 -0.999279 -0.037686
vn 0.004705 -0.999279 -0.037686
vn 0.004705 -0.999279 -0.037686
vn 0.004705 -0.999279 -0.037686
vn 0.002263 -0.999279 -0.037911
vn 0.002263 -0.999279 -0.037911
vn 0.002263 -0.999279 -0.037911
vn 0.002263 -0.999279 -0.037911
vn 0.002263 -0.999279 -0.037911
vn 0.002263 -0.999279 -0.037911
vn -0.860066 0.479483 0.174308
vn -0.860066 0.479483 0.174308
vn -0.860066 0.479483 0.174308
vn -0.860066 0.479483 0.174308
vn -0.554934 0.473121 0.684255
vn -0.554934 0.473121 0.684255
vn -0.554934 0.473121 0.684255
vn -0.554934 0.473121 0.684255
vn 0.759445 0.490691 -0.427159
vn 0.759445 0.490691 -0.427159
vn 0.759445 0.490691 -0.427159
vn 0.759445 0.490691 -0.427159
vn 0.296491 0.494951 -0.816772
vn 0.296491 0.494951 -0.816772
vn 0.296491 0.494951 -0.816772
vn 0.296491 0.494951 -0.816772
vn -0.309685 0.493740 -0.812599
vn -0.309685 0.493740 -0.812599
vn -0.309685 0.493740 -0.812599
vn -0.309685 0.493740 -0.812599
vn 0.558698 0.475380 0.679610
vn 0.558698 0.475380 0.679610
vn 0.558698 0.475380 0.679610
vn 0.558698 0.475380 0.679610
vn 0.002373 0.471504 0.881861
vn 0.002373 0.471504 0.881861
vn 0.002373 0.471504 0.881861
vn 0.002373 0.471504 0.881861
vn -0.004705 0.999279 0.037686
vn -0.004705 0.999279 0.037686
vn -0.004705 0.999279 0.037686
vn -0.004705 0.999279 0.037686
vn -0.004705 0.999279 0.037686
vn -0.004705 0.999279 0.037686
vn -0.004705 0.999279 0.037686
vn -0.004705 0.999279 0.037686
vn -0.004705 0.999279 0.037686
vn 0.859871 0.482955 0.165459
vn 0.859871 0.482955 0.165459
vn 0.859871 0.482955 0.165459
vn 0.859871 0.482955 0.165459
vn -0.766657 0.487628 -0.417678
vn -0.766657 0.487628 -0.417678
vn -0.766657 0.487628 -0.417678
vn -0.766657 0.487628 -0.417678
vn 0.004705 -0.999279 -0.037686
vn 0.004705 -0.999279 -0.037686
vn 0.004705 -0.999279 -0.037686
vn 0.004705 -0.999279 -0.037686
vn 0.004705 -0.999279 -0.037686
vn 0.004705 -0.999279 -0.037686
vn 0.004705 -0.999279 -0.037686
vn 0.004705 -0.999279 -0.037686
vn 0.004705 -0.999279 -0.037686
vn -0.860066 0.479483 0.174308
vn -0.860066 0.479483 0.174308
vn -0.860066 0.479483 0.174308
vn -0.860066 0.479483 0.174308
vn -0.554934 0.473121 0.684256
vn -0.554934 0.473121 0.684256
vn -0.554934 0.473121 0.684256
vn -0.554934 0.473121 0.684256
vn 0.759445 0.490692 -0.427159
vn 0.759445 0.490692 -0.427159
vn 0.759445 0.490692 -0.427159
vn 0.759445 0.490692 -0.427159
vn 0.296491 0.494952 -0.816771
vn 0.296491 0.494952 -0.816771
vn 0.296491 0.494952 -0.816771
vn 0.296491 0.494952 -0.816771
vn -0.309685 0.493739 -0.812599
vn -0.309685 0.493739 -0.812599
vn -0.309685 0.493739 -0.812599
vn -0.309685 0.493739 -0.812599
vn 0.558698 0.475379 0.679611
vn 0.558698 0.475379 0.679611
vn 0.558698 0.475379 0.679611
vn 0.558698 0.475379 0.679611
vn -0.008794 0.492994 0.869988
vn -0.008794 0.492994 0.869988
vn -0.008794 0.492994 0.869988
vn -0.008794 0.492994 0.869988
vn 0.007073 0.999888 0.013229
vn 0.007073 0.999888 0.013229
vn 0.007073 0.999888 0.013229
vn 0.007073 0.999888 0.013229
vn 0.007073 0.999888 0.013229
vn 0.007073 0.999888 0.013229
vn 0.007073 0.999888 0.013229
vn 0.007073 0.999888 0.013229
vn 0.007073 0.999888 0.013229
vn 0.862485 0.476494 0.170511
vn 0.862485 0.476494 0.170511
vn 0.862485 0.476494 0.170511
vn 0.862485 0.476494 0.170511
vn -0.752268 0.486397 -0.444422
vn -0.752268 0.486397 -0.444422
vn -0.752268 0.486397 -0.444422
vn -0.752268 0.486397 -0.444422
vn -0.007073 -0.999888 -0.013229
vn -0.007073 -0.999888 -0.013229
vn -0.007073 -0.999888 -0.013229
vn -0.007073 -0.999888 -0.013229
vn -0.007073 -0.999888 -0.013229
vn -0.007073 -0.999888 -0.013229
vn -0.007073 -0.999888 -0.013229
vn -0.007073 -0.999888 -0.013229
vn -0.007073 -0.999888 -0.013229
vn -0.857209 0.493946 0.145637
vn -0.857209 0.493946 0.145637
vn -0.857209 0.493946 0.145637
vn -0.857209 0.493946 0.145637
vn -0.562107 0.496461 0.661485
vn -0.562107 0.496461 0.661485
vn -0.562107 0.496461 0.661485
vn -0.562107 0.496461 0.661485
vn 0.773652 0.470856 -0.423978
vn 0.773652 0.470856 -0.423978
vn 0.773652 0.470856 -0.423978
vn 0.773652 0.470856 -0.423978
vn 0.318413 0.471103 -0.822603
vn 0.318413 0.471103 -0.822603
vn 0.318413 0.471103 -0.822603
vn 0.318413 0.471103 -0.822603
vn -0.287696 0.477292 -0.830316
vn -0.287696 0.477292 -0.830316
vn -0.287696 0.477292 -0.830316
vn -0.287696 0.477292 -0.830316
vn 0.551347 0.485196 0.678676
vn 0.551347 0.485196 0.678676
vn 0.551347 0.485196 0.678676
vn 0.551347 0.485196 0.678676
vn -0.003819 0.999231 0.039029
vn -0.003819 0.999231 0.039029
vn -0.003819 0.999231 0.039029
vn -0.003819 0.999231 0.039029
vn -0.003819 0.999231 0.039029
vn -0.003819 0.999231 0.039029
vn -0.864652 0.091376 0.493992
vn -0.864652 0.091376 0.493992
vn -0.864652 0.091376 0.493992
vn -0.864652 0.091376 0.493992
vn -0.291550 0.531517 -0.795291
vn -0.291550 0.531517 -0.795291
vn -0.291550 0.531517 -0.795291
vn -0.291550 0.531517 -0.795291
vn 0.302675 0.522420 -0.797161
vn 0.302675 0.522420 -0.797161
vn 0.302675 0.522420 -0.797161
vn 0.302675 0.522420 -0.797161
vn 0.763599 0.494636 -0.415033
vn 0.763599 0.494636 -0.415033
vn 0.763599 0.494636 -0.415033
vn 0.763599 0.494636 -0.415033
vn 0.562872 0.437539 0.701238
vn 0.562872 0.437539 0.701238
vn 0.562872 0.437539 0.701238
vn 0.562872 0.437539 0.701238
vn 0.869264 0.460918 0.178702
vn 0.869264 0.460918 0.178702
vn 0.869264 0.460918 0.178702
vn 0.869264 0.460918 0.178702
vn 0.003819 -0.999231 -0.039029
vn 0.003819 -0.999231 -0.039029
vn 0.003819 -0.999231 -0.039029
vn 0.003819 -0.999231 -0.039029
vn 0.003819 -0.999231 -0.039029
vn 0.003819 -0.999231 -0.039029
g Pizza_Burned_DarkBrown
usemtl DarkBrown
f 1 2 3
f 1 3 4
f 5 1 4
f 5 4 6
f 7 8 9
f 7 9 10
f 11 12 13
f 11 13 14
f 15 16 17
f 15 17 18
f 19 15 18
f 19 18 20
f 21 22 23
f 21 23 24
f 24 23 25
f 24 25 26
f 27 26 25
f 27 28 26
f 29 28 27
f 29 30 28
f 30 31 28
f 30 32 31
f 28 31 33
f 28 33 34
f 35 34 33
f 35 36 34
f 37 36 35
f 37 38 36
f 39 35 33
f 39 33 40
f 41 40 33
f 41 42 40
f 42 43 40
f 44 39 40
f 44 40 43
f 45 39 44
f 45 46 39
f 46 47 39
f 46 48 47
f 49 44 43
f 49 43 50
f 42 51 43
f 51 50 43
f 52 51 42
f 51 53 50
f 52 54 51
f 54 53 51
f 54 55 53
f 56 57 49
f 56 58 57
f 59 60 61
f 59 61 62
f 63 64 65
f 63 65 66
f 67 68 69
f 67 69 41
f 70 71 72
f 70 72 73
f 74 75 76
f 74 77 75
f 77 78 75
f 77 79 78
f 80 81 82
f 80 82 83
f 84 85 86
f 84 87 85
f 87 88 85
f 87 89 88
g Pizza_Burned_DarkGrey
usemtl DarkGrey
f 90 91 92
f 90 93 91
f 94 93 90
f 94 95 93
f 96 97 98
f 96 99 97
f 100 99 96
f 100 101 99
f 102 103 2
f 102 2 1
f 104 102 1
f 104 1 5
f 105 104 5
f 105 5 106
f 107 105 106
f 107 106 81
f 108 107 81
f 108 81 80
f 109 110 111
f 109 111 112
f 113 114 115
f 113 116 114
f 117 116 113
f 117 118 116
f 119 120 8
f 119 8 7
f 121 122 12
f 121 12 11
f 123 124 16
f 123 16 15
f 125 123 15
f 125 15 19
f 126 125 19
f 126 19 77
f 127 126 77
f 127 77 74
f 128 127 74
f 128 74 70
f 129 130 131
f 129 131 132
f 132 131 133
f 132 133 134
f 135 136 137
f 135 137 138
f 139 140 141
f 139 141 142
f 143 144 145
f 143 145 146
f 147 148 149
f 147 149 150
f 151 152 153
f 151 153 154
f 155 156 157
f 155 157 158
f 159 160 161
f 159 161 162
f 163 159 162
f 162 161 164
f 163 162 165
f 162 164 166
f 165 162 166
f 167 166 164
f 165 166 168
f 167 169 166
f 169 168 166
f 170 169 167
f 169 171 168
f 170 172 169
f 172 171 169
f 172 173 171
f 174 175 176
f 174 176 177
f 178 179 60
f 178 60 59
f 180 181 182
f 180 182 183
f 184 180 183
f 183 182 185
f 184 183 186
f 187 184 186
f 183 185 188
f 186 183 188
f 189 188 185
f 187 186 190
f 191 187 190
f 189 192 188
f 193 192 189
f 193 194 192
f 186 188 195
f 192 195 188
f 190 186 195
f 194 196 192
f 192 196 195
f 194 197 196
f 191 190 198
f 199 191 198
f 190 195 200
f 196 200 195
f 198 190 200
f 197 201 196
f 196 201 200
f 197 202 201
f 199 198 203
f 204 199 203
f 198 200 205
f 201 205 200
f 203 198 205
f 202 206 201
f 201 206 205
f 202 207 206
f 204 203 208
f 209 204 208
f 209 208 210
f 203 205 211
f 206 211 205
f 208 203 211
f 207 212 206
f 206 212 211
f 207 213 212
f 210 208 214
f 208 211 214
f 212 214 211
f 210 214 215
f 213 216 212
f 212 216 214
f 216 215 214
f 213 217 216
f 216 218 215
f 217 218 216
f 217 219 218
f 220 221 222
f 220 222 223
f 223 222 224
f 223 224 225
f 226 227 228
f 226 228 229
f 230 231 232
f 230 232 233
f 234 235 64
f 234 64 63
f 236 237 238
f 236 238 239
f 239 238 240
f 239 240 241
f 242 243 244
f 242 244 245
f 246 247 248
f 246 249 247
f 250 249 246
f 250 251 249
f 252 253 254
f 252 254 255
f 255 254 256
f 255 256 257
f 258 259 260
f 258 260 261
g Pizza_Burned_Black
usemtl Black
f 262 263 264
f 264 265 262
f 265 266 262
f 265 267 266
f 268 269 270
f 268 270 271
f 272 273 274
f 272 274 275
f 276 277 278
f 276 278 279
f 280 281 282
f 280 282 283
f 284 285 286
f 284 286 287
f 288 289 290
f 288 290 291
f 292 293 294
f 292 294 295
f 296 297 298
f 298 299 296
f 299 300 296
f 299 301 300
f 301 302 300
f 301 303 302
f 303 304 302
f 305 306 307
f 305 307 308
f 309 310 311
f 309 311 312
f 313 314 315
f 313 315 316
f 317 318 319
f 319 320 317
f 320 321 317
f 320 322 321
f 322 323 321
f 322 324 323
f 324 325 323
f 326 327 328
f 326 328 329
f 330 331 332
f 332 333 330
f 332 334 333
f 334 335 333
f 334 336 335
f 336 337 335
f 336 338 337
f 339 340 341
f 339 341 342
f 343 344 345
f 343 345 346
f 347 348 349
f 347 349 350
f 351 352 353
f 351 353 354
f 355 356 357
f 355 357 358
f 359 360 361
f 359 361 362
f 363 364 365
f 363 365 366
f 367 368 369
f 369 370 367
f 369 371 370
f 371 372 370
f 371 373 372
f 373 374 372
f 373 375 374
f 376 377 378
f 378 379 376
f 378 380 379
f 380 381 379
f 382 383 384
f 382 384 385
f 386 387 388
f 386 388 389
f 390 391 392
f 390 392 393
f 394 395 396
f 394 396 397
f 398 399 400
f 398 400 401
f 402 403 404
f 402 404 405
f 406 407 408
f 406 408 409
f 410 411 412
f 412 413 410
f 413 414 410
f 413 415 414
f 415 416 414
f 415 417 416
f 417 418 416
f 419 420 421
f 419 421 422
f 423 424 425
f 423 425 426
f 427 428 429
f 429 430 427
f 429 431 430
f 431 432 430
f 431 433 432
f 433 434 432
f 433 435 434
f 436 437 438
f 436 438 439
f 440 441 442
f 440 442 443
f 444 445 446
f 444 446 447
f 448 449 450
f 448 450 451
f 452 453 454
f 452 454 455
f 456 457 458
f 456 458 459
f 460 461 462
f 460 462 463
f 464 465 466
f 466 467 464
f 467 468 464
f 467 469 468
f 469 470 468
f 469 471 470
f 471 472 470
f 473 474 475
f 473 475 476
f 477 478 479
f 477 479 480
f 481 482 483
f 483 484 481
f 483 485 484
f 485 486 484
f 485 487 486
f 487 488 486
f 487 489 488
f 490 491 492
f 490 492 493
f 494 495 496
f 494 496 497
f 498 499 500
f 498 500 501
f 502 503 504
f 502 504 505
f 506 507 508
f 506 508 509
f 510 511 512
f 510 512 513
f 514 515 516
f 516 517 514
f 516 518 517
f 518 519 517
f 520 521 522
f 520 522 523
f 524 525 526
f 524 526 527
f 528 529 530
f 528 530 531
f 532 533 534
f 532 534 535
f 536 537 538
f 536 538 539
f 540 541 542
f 540 542 543
f 544 545 546
f 546 547 544
f 547 548 544
f 547 549 548
