mtllib Materials.mtl
# Ultimate Food Pack - Plate_Square
o Plate_Square
v 0.431934 0.032294 -0.526445
v 0.382687 0.008173 -0.477198
v -0.382687 0.008173 -0.477198
v -0.431934 0.032294 -0.526445
v 0.561392 0.111982 -0.672386
v -0.561392 0.111982 -0.672386
v -0.526445 0.032294 -0.431934
v -0.477198 0.008173 -0.382687
v -0.477198 0.008173 0.382687
v -0.526445 0.032294 0.431934
v -0.672386 0.111982 -0.561392
v -0.672386 0.111982 0.561392
v -0.431934 0.032294 0.526445
v -0.382687 0.008173 0.477198
v 0.382687 0.008173 0.477198
v 0.431934 0.032294 0.526445
v -0.561392 0.111982 0.672386
v 0.561392 0.111982 0.672386
v 0.818523 0.111982 -0.707528
v 0.818523 0.111982 0.000000
v 0.818523 0.111982 0.707528
v 0.672386 0.111982 -0.561392
v 0.786013 0.111982 -0.786013
v 0.672386 0.111982 0.561392
v 0.639877 0.111982 -0.639877
v 0.639877 0.111982 0.639877
v 0.707528 0.111982 -0.818523
v 0.786013 0.111982 0.786013
v 0.561392 0.111982 -0.672386
v 0.000000 0.111982 -0.818523
v 0.561392 0.111982 0.672386
v 0.707528 0.111982 0.818523
v 0.000000 0.111982 0.818523
v -0.561392 0.111982 0.672386
v -0.707528 0.111982 0.818523
v -0.639877 0.111982 0.639877
v -0.786013 0.111982 0.786013
v -0.561392 0.111982 -0.672386
v -0.707528 0.111982 -0.818523
v -0.786013 0.111982 -0.786013
v -0.639877 0.111982 -0.639877
v -0.672386 0.111982 0.561392
v -0.818523 0.111982 -0.707528
v -0.672386 0.111982 -0.561392
v -0.818523 0.111982 0.707528
v -0.818523 0.111982 0.000000
v 0.526445 0.032294 -0.431934
v 0.672386 0.111982 -0.561392
v 0.672386 0.111982 0.561392
v 0.526445 0.032294 0.431934
v 0.477198 0.008173 -0.382687
v 0.477198 0.008173 0.382687
v -0.449517 0.008173 0.449517
v -0.477198 0.008173 0.382687
v -0.477198 0.008173 -0.382687
v -0.449517 0.008173 -0.449517
v -0.382687 0.008173 0.477198
v -0.382687 0.008173 -0.477198
v 0.382687 0.008173 0.477198
v 0.382687 0.008173 -0.477198
v 0.449517 0.008173 0.449517
v 0.449517 0.008173 -0.449517
v 0.477198 0.008173 0.382687
v 0.477198 0.008173 -0.382687
v -0.431934 0.032294 -0.526445
v -0.498763 0.032294 -0.498763
v -0.639877 0.111982 -0.639877
v -0.561392 0.111982 -0.672386
v -0.498763 0.032294 -0.498763
v -0.526445 0.032294 -0.431934
v -0.672386 0.111982 -0.561392
v -0.639877 0.111982 -0.639877
v -0.561392 0.111982 0.672386
v -0.639877 0.111982 0.639877
v -0.498763 0.032294 0.498763
v -0.431934 0.032294 0.526445
v -0.639877 0.111982 0.639877
v -0.672386 0.111982 0.561392
v -0.526445 0.032294 0.431934
v -0.498763 0.032294 0.498763
v 0.431934 0.032294 0.526445
v 0.498763 0.032294 0.498763
v 0.639877 0.111982 0.639877
v 0.561392 0.111982 0.672386
v 0.498763 0.032294 0.498763
v 0.526445 0.032294 0.431934
v 0.672386 0.111982 0.561392
v 0.639877 0.111982 0.639877
v 0.561392 0.111982 -0.672386
v 0.639877 0.111982 -0.639877
v 0.498763 0.032294 -0.498763
v 0.431934 0.032294 -0.526445
v 0.639877 0.111982 -0.639877
v 0.672386 0.111982 -0.561392
v 0.526445 0.032294 -0.431934
v 0.498763 0.032294 -0.498763
v -0.431934 0.032294 0.526445
v -0.498763 0.032294 0.498763
v -0.449517 0.008173 0.449517
v -0.382687 0.008173 0.477198
v -0.498763 0.032294 0.498763
v -0.526445 0.032294 0.431934
v -0.477198 0.008173 0.382687
v -0.449517 0.008173 0.449517
v -0.382687 0.008173 -0.477198
v -0.449517 0.008173 -0.449517
v -0.498763 0.032294 -0.498763
v -0.431934 0.032294 -0.526445
v -0.449517 0.008173 -0.449517
v -0.477198 0.008173 -0.382687
v -0.526445 0.032294 -0.431934
v -0.498763 0.032294 -0.498763
v 0.431934 0.032294 -0.526445
v 0.498763 0.032294 -0.498763
v 0.449517 0.008173 -0.449517
v 0.382687 0.008173 -0.477198
v 0.498763 0.032294 -0.498763
v 0.526445 0.032294 -0.431934
v 0.477198 0.008173 -0.382687
v 0.449517 0.008173 -0.449517
v 0.382687 0.008173 0.477198
v 0.449517 0.008173 0.449517
v 0.498763 0.032294 0.498763
v 0.431934 0.032294 0.526445
v 0.449517 0.008173 0.449517
v 0.477198 0.008173 0.382687
v 0.526445 0.032294 0.431934
v 0.498763 0.032294 0.498763
v 0.429926 0.057549 -0.515209
v -0.381955 0.035138 -0.470834
v 0.381955 0.035138 -0.470834
v -0.429926 0.057549 -0.515209
v 0.560110 0.139202 -0.667334
v -0.560110 0.139202 -0.667334
v -0.515209 0.057549 -0.429926
v -0.470834 0.035138 0.381955
v -0.470834 0.035138 -0.381955
v -0.515209 0.057549 0.429926
v -0.667334 0.139203 -0.560110
v -0.667334 0.139203 0.560110
v -0.429926 0.057549 0.515209
v 0.381955 0.035138 0.470834
v -0.381955 0.035138 0.470834
v 0.429926 0.057549 0.515209
v -0.560110 0.139203 0.667334
v 0.560110 0.139203 0.667334
v 0.818523 0.139697 0.707528
v 0.818523 0.139697 0.000000
v 0.818523 0.139697 -0.707528
v 0.667334 0.139203 0.560110
v 0.667334 0.139203 -0.560110
v 0.637082 0.139414 0.637082
v 0.786013 0.139697 -0.786013
v 0.786013 0.139697 0.786013
v 0.637082 0.139414 -0.637082
v 0.707528 0.139697 -0.818523
v 0.560110 0.139202 -0.667334
v 0.000000 0.139697 -0.818523
v 0.560110 0.139203 0.667334
v 0.707528 0.139697 0.818523
v 0.000000 0.139697 0.818523
v -0.560110 0.139203 0.667334
v -0.707528 0.139697 0.818523
v -0.637082 0.139414 0.637082
v -0.786013 0.139697 0.786013
v -0.667334 0.139203 0.560110
v -0.818523 0.139697 0.707528
v -0.560110 0.139202 -0.667334
v -0.707528 0.139697 -0.818523
v -0.786013 0.139697 -0.786013
v -0.637082 0.139414 -0.637082
v -0.818523 0.139697 -0.707528
v -0.667334 0.139203 -0.560110
v -0.818523 0.139697 0.000000
v 0.515209 0.057549 -0.429926
v 0.667334 0.139203 0.560110
v 0.667334 0.139203 -0.560110
v 0.515209 0.057549 0.429926
v 0.470834 0.035138 -0.381955
v 0.470834 0.035138 0.381955
v -0.445487 0.035296 -0.445487
v -0.470834 0.035138 -0.381955
v -0.470834 0.035138 0.381955
v -0.445487 0.035296 0.445487
v -0.381955 0.035138 -0.470834
v -0.381955 0.035138 0.470834
v 0.381955 0.035138 -0.470834
v 0.381955 0.035138 0.470834
v 0.445487 0.035296 -0.445487
v 0.445487 0.035296 0.445487
v 0.470834 0.035138 -0.381955
v 0.470834 0.035138 0.381955
v -0.429926 0.057549 -0.515209
v -0.560110 0.139202 -0.667334
v -0.637082 0.139414 -0.637082
v -0.491823 0.058211 -0.491823
v -0.381955 0.035138 -0.470834
v -0.445487 0.035296 -0.445487
v -0.491823 0.058211 -0.491823
v -0.637082 0.139414 -0.637082
v -0.667334 0.139203 -0.560110
v -0.515209 0.057549 -0.429926
v -0.445487 0.035296 -0.445487
v -0.470834 0.035138 -0.381955
v -0.560110 0.139203 0.667334
v -0.491822 0.058212 0.491822
v -0.637082 0.139414 0.637082
v -0.429926 0.057549 0.515209
v -0.445487 0.035296 0.445487
v -0.381955 0.035138 0.470834
v -0.637082 0.139414 0.637082
v -0.515209 0.057549 0.429926
v -0.667334 0.139203 0.560110
v -0.491822 0.058212 0.491822
v -0.470834 0.035138 0.381955
v -0.445487 0.035296 0.445487
v 0.429926 0.057549 0.515209
v 0.560110 0.139203 0.667334
v 0.637082 0.139414 0.637082
v 0.491823 0.058212 0.491822
v 0.381955 0.035138 0.470834
v 0.445487 0.035296 0.445487
v 0.491823 0.058212 0.491822
v 0.637082 0.139414 0.637082
v 0.667334 0.139203 0.560110
v 0.515209 0.057549 0.429926
v 0.445487 0.035296 0.445487
v 0.470834 0.035138 0.381955
v 0.560110 0.139202 -0.667334
v 0.491822 0.058211 -0.491822
v 0.637082 0.139414 -0.637082
v 0.429926 0.057549 -0.515209
v 0.445487 0.035296 -0.445487
v 0.381955 0.035138 -0.470834
v 0.637082 0.139414 -0.637082
v 0.515209 0.057549 -0.429926
v 0.667334 0.139203 -0.560110
v 0.491822 0.058211 -0.491822
v 0.470834 0.035138 -0.381955
v 0.445487 0.035296 -0.445487
v -0.818523 0.111982 -0.707528
v -0.818523 0.139697 -0.707528
v -0.786013 0.139697 -0.786013
v -0.786013 0.111982 -0.786013
v -0.786013 0.111982 -0.786013
v -0.786013 0.139697 -0.786013
v -0.707528 0.139697 -0.818523
v -0.707528 0.111982 -0.818523
v 0.786013 0.111982 -0.786013
v 0.786013 0.139697 -0.786013
v 0.818523 0.139697 -0.707528
v 0.818523 0.111982 -0.707528
v 0.707528 0.111982 -0.818523
v 0.707528 0.139697 -0.818523
v 0.786013 0.139697 -0.786013
v 0.786013 0.111982 -0.786013
v 0.818523 0.111982 0.707528
v 0.818523 0.139697 0.707528
v 0.786013 0.139697 0.786013
v 0.786013 0.111982 0.786013
v 0.786013 0.111982 0.786013
v 0.786013 0.139697 0.786013
v 0.707528 0.139697 0.818523
v 0.707528 0.111982 0.818523
v -0.786013 0.111982 0.786013
v -0.786013 0.139697 0.786013
v -0.818523 0.139697 0.707528
v -0.818523 0.111982 0.707528
v -0.707528 0.111982 0.818523
v -0.707528 0.139697 0.818523
v -0.786013 0.139697 0.786013
v -0.786013 0.111982 0.786013
v 0.818523 0.111982 0.000000
v 0.818523 0.139697 0.707528
v 0.818523 0.111982 0.707528
v 0.818523 0.139697 0.000000
v 0.818523 0.111982 -0.707528
v 0.818523 0.139697 -0.707528
v 0.000000 0.111982 -0.818523
v 0.707528 0.139697 -0.818523
v 0.707528 0.111982 -0.818523
v 0.000000 0.139697 -0.818523
v -0.707528 0.111982 -0.818523
v -0.707528 0.139697 -0.818523
v 0.000000 0.111982 0.818523
v -0.707528 0.139697 0.818523
v -0.707528 0.111982 0.818523
v 0.000000 0.139697 0.818523
v 0.707528 0.111982 0.818523
v 0.707528 0.139697 0.818523
v -0.818523 0.111982 0.000000
v -0.818523 0.139697 -0.707528
v -0.818523 0.111982 -0.707528
v -0.818523 0.139697 0.000000
v -0.818523 0.111982 0.707528
v -0.818523 0.139697 0.707528
vn 0.000000 -0.898068 -0.439857
vn 0.000000 -0.898068 -0.439857
vn 0.000000 -0.898068 -0.439857
vn 0.000000 -0.898068 -0.439857
vn 0.000000 -0.877683 -0.479242
vn 0.000000 -0.877683 -0.479242
vn -0.439857 -0.898068 0.000000
vn -0.439857 -0.898068 0.000000
vn -0.439857 -0.898068 0.000000
vn -0.439857 -0.898068 0.000000
vn -0.479242 -0.877683 0.000000
vn -0.479242 -0.877683 0.000000
vn 0.000000 -0.898068 0.439857
vn 0.000000 -0.898068 0.439857
vn 0.000000 -0.898068 0.439857
vn 0.000000 -0.898068 0.439857
vn 0.000000 -0.877683 0.479242
vn 0.000000 -0.877683 0.479242
vn 0.000000 -1.000000 0.000000
vn 0.000000 -1.000000 0.000000
vn 0.000000 -1.000000 0.000000
vn 0.000000 -1.000000 0.000000
vn 0.000000 -1.000000 0.000000
vn 0.000000 -1.000000 0.000000
vn 0.000000 -1.000000 0.000000
vn 0.000000 -1.000000 0.000000
vn 0.000000 -1.000000 0.000000
vn 0.000000 -1.000000 0.000000
vn 0.000000 -1.000000 0.000000
vn 0.000000 -1.000000 0.000000
vn 0.000000 -1.000000 0.000000
vn 0.000000 -1.000000 0.000000
vn 0.000000 -1.000000 0.000000
vn 0.000000 -1.000000 0.000000
vn 0.000000 -1.000000 0.000000
vn 0.000000 -1.000000 0.000000
vn 0.000000 -1.000000 0.000000
vn 0.000000 -1.000000 0.000000
vn 0.000000 -1.000000 0.000000
vn 0.000000 -1.000000 0.000000
vn 0.000000 -1.000000 0.000000
vn 0.000000 -1.000000 0.000000
vn 0.000000 -1.000000 0.000000
vn 0.000000 -1.000000 0.000000
vn 0.000000 -1.000000 0.000000
vn 0.000000 -1.000000 0.000000
vn 0.479242 -0.877683 0.000000
vn 0.479242 -0.877683 0.000000
vn 0.479242 -0.877683 0.000000
vn 0.479242 -0.877683 0.000000
vn 0.439857 -0.898068 0.000000
vn 0.439857 -0.898068 0.000000
vn 0.000000 -1.000000 0.000000
vn 0.000000 -1.000000 0.000000
vn 0.000000 -1.000000 0.000000
vn 0.000000 -1.000000 0.000000
vn 0.000000 -1.000000 0.000000
vn 0.000000 -1.000000 0.000000
vn 0.000000 -1.000000 0.000000
vn 0.000000 -1.000000 0.000000
vn 0.000000 -1.000000 0.000000
vn 0.000000 -1.000000 0.000000
vn 0.000000 -1.000000 0.000000
vn 0.000000 -1.000000 0.000000
vn -0.151826 -0.917931 -0.366540
vn -0.151826 -0.917931 -0.366540
vn -0.151826 -0.917931 -0.366540
vn -0.151826 -0.917931 -0.366540
vn -0.366541 -0.917931 -0.151826
vn -0.366541 -0.917931 -0.151826
vn -0.366541 -0.917931 -0.151826
vn -0.366541 -0.917931 -0.151826
vn -0.151826 -0.917931 0.366541
vn -0.151826 -0.917931 0.366541
vn -0.151826 -0.917931 0.366541
vn -0.151826 -0.917931 0.366541
vn -0.366541 -0.917931 0.151827
vn -0.366541 -0.917931 0.151827
vn -0.366541 -0.917931 0.151827
vn -0.366541 -0.917931 0.151827
vn 0.151826 -0.917931 0.366541
vn 0.151826 -0.917931 0.366541
vn 0.151826 -0.917931 0.366541
vn 0.151826 -0.917931 0.366541
vn 0.366541 -0.917931 0.151827
vn 0.366541 -0.917931 0.151827
vn 0.366541 -0.917931 0.151827
vn 0.366541 -0.917931 0.151827
vn 0.151826 -0.917931 -0.366540
vn 0.151826 -0.917931 -0.366540
vn 0.151826 -0.917931 -0.366540
vn 0.151826 -0.917931 -0.366540
vn 0.366541 -0.917931 -0.151826
vn 0.366541 -0.917931 -0.151826
vn 0.366541 -0.917931 -0.151826
vn 0.366541 -0.917931 -0.151826
vn -0.134326 -0.936371 0.324292
vn -0.134326 -0.936371 0.324292
vn -0.134326 -0.936371 0.324292
vn -0.134326 -0.936371 0.324292
vn -0.324292 -0.936371 0.134326
vn -0.324292 -0.936371 0.134326
vn -0.324292 -0.936371 0.134326
vn -0.324292 -0.936371 0.134326
vn -0.134326 -0.936372 -0.324291
vn -0.134326 -0.936372 -0.324291
vn -0.134326 -0.936372 -0.324291
vn -0.134326 -0.936372 -0.324291
vn -0.324291 -0.936372 -0.134326
vn -0.324291 -0.936372 -0.134326
vn -0.324291 -0.936372 -0.134326
vn -0.324291 -0.936372 -0.134326
vn 0.134326 -0.936372 -0.324291
vn 0.134326 -0.936372 -0.324291
vn 0.134326 -0.936372 -0.324291
vn 0.134326 -0.936372 -0.324291
vn 0.324292 -0.936372 -0.134326
vn 0.324292 -0.936372 -0.134326
vn 0.324292 -0.936372 -0.134326
vn 0.324292 -0.936372 -0.134326
vn 0.134326 -0.936371 0.324292
vn 0.134326 -0.936371 0.324292
vn 0.134326 -0.936371 0.324292
vn 0.134326 -0.936371 0.324292
vn 0.324291 -0.936372 0.134326
vn 0.324291 -0.936372 0.134326
vn 0.324291 -0.936372 0.134326
vn 0.324291 -0.936372 0.134326
vn 0.000000 0.892616 0.450818
vn 0.000000 0.892616 0.450818
vn 0.000000 0.892616 0.450818
vn 0.000000 0.892616 0.450818
vn 0.000000 0.881100 0.472931
vn 0.000000 0.881100 0.472931
vn 0.450818 0.892616 0.000000
vn 0.450818 0.892616 0.000000
vn 0.450818 0.892616 0.000000
vn 0.450818 0.892616 0.000000
vn 0.472931 0.881100 0.000000
vn 0.472931 0.881100 0.000000
vn 0.000000 0.892616 -0.450818
vn 0.000000 0.892616 -0.450818
vn 0.000000 0.892616 -0.450818
vn 0.000000 0.892616 -0.450818
vn 0.000000 0.881100 -0.472931
vn 0.000000 0.881100 -0.472931
vn -0.003273 0.999995 0.000000
vn -0.003273 0.999995 0.000000
vn -0.003273 0.999995 0.000000
vn -0.003273 0.999995 0.000000
vn -0.003273 0.999995 0.000000
vn -0.000893 0.999998 -0.001721
vn -0.000894 0.999998 0.001721
vn -0.000893 0.999998 -0.001721
vn -0.000894 0.999998 0.001721
vn 0.000000 0.999995 0.003273
vn 0.000000 0.999995 0.003273
vn 0.000000 0.999995 0.003273
vn 0.000000 0.999995 -0.003273
vn 0.000000 0.999995 -0.003273
vn 0.000000 0.999995 -0.003273
vn 0.000000 0.999995 -0.003273
vn 0.000000 0.999995 -0.003273
vn 0.000894 0.999998 -0.001721
vn 0.000894 0.999998 -0.001721
vn 0.003273 0.999995 0.000000
vn 0.003273 0.999995 0.000000
vn 0.000000 0.999995 0.003273
vn 0.000000 0.999995 0.003273
vn 0.000893 0.999998 0.001721
vn 0.000893 0.999998 0.001721
vn 0.003273 0.999995 0.000000
vn 0.003273 0.999995 0.000000
vn 0.003273 0.999995 0.000000
vn -0.472931 0.881100 0.000000
vn -0.472931 0.881100 0.000000
vn -0.472931 0.881100 0.000000
vn -0.472931 0.881100 0.000000
vn -0.450818 0.892616 0.000000
vn -0.450818 0.892616 0.000000
vn 0.000000 1.000000 0.000000
vn 0.000000 1.000000 0.000000
vn 0.000000 1.000000 0.000000
vn 0.000000 1.000000 0.000000
vn 0.000000 1.000000 0.000000
vn 0.000000 1.000000 0.000000
vn 0.000000 1.000000 0.000000
vn 0.000000 1.000000 0.000000
vn 0.000000 1.000000 0.000000
vn 0.000000 1.000000 0.000000
vn 0.000000 1.000000 0.000000
vn 0.000000 1.000000 0.000000
vn 0.147371 0.918643 0.366575
vn 0.147371 0.918643 0.366575
vn 0.147371 0.918643 0.366575
vn 0.147371 0.918643 0.366575
vn 0.133668 0.935074 0.328284
vn 0.133668 0.935074 0.328284
vn 0.366575 0.918643 0.147371
vn 0.366575 0.918643 0.147371
vn 0.366575 0.918643 0.147371
vn 0.366575 0.918643 0.147371
vn 0.328284 0.935074 0.133668
vn 0.328284 0.935074 0.133668
vn 0.147371 0.918643 -0.366575
vn 0.147371 0.918643 -0.366575
vn 0.147371 0.918643 -0.366575
vn 0.147371 0.918643 -0.366575
vn 0.133668 0.935074 -0.328284
vn 0.133668 0.935074 -0.328284
vn 0.366575 0.918643 -0.147372
vn 0.366575 0.918643 -0.147372
vn 0.366575 0.918643 -0.147372
vn 0.366575 0.918643 -0.147372
vn 0.328284 0.935073 -0.133668
vn 0.328284 0.935073 -0.133668
vn -0.147371 0.918643 -0.366575
vn -0.147371 0.918643 -0.366575
vn -0.147371 0.918643 -0.366575
vn -0.147371 0.918643 -0.366575
vn -0.133668 0.935074 -0.328284
vn -0.133668 0.935074 -0.328284
vn -0.366575 0.918643 -0.147372
vn -0.366575 0.918643 -0.147372
vn -0.366575 0.918643 -0.147372
vn -0.366575 0.918643 -0.147372
vn -0.328284 0.935073 -0.133668
vn -0.328284 0.935073 -0.133668
vn -0.147371 0.918643 0.366575
vn -0.147371 0.918643 0.366575
vn -0.147371 0.918643 0.366575
vn -0.147371 0.918643 0.366575
vn -0.133668 0.935074 0.328284
vn -0.133668 0.935074 0.328284
vn -0.366575 0.918643 0.147371
vn -0.366575 0.918643 0.147371
vn -0.366575 0.918643 0.147371
vn -0.366575 0.918643 0.147371
vn -0.328284 0.935073 0.133668
vn -0.328284 0.935073 0.133668
vn -0.923879 0.000000 -0.382684
vn -0.923879 0.000000 -0.382684
vn -0.923879 0.000000 -0.382684
vn -0.923879 0.000000 -0.382684
vn -0.382684 0.000000 -0.923879
vn -0.382684 0.000000 -0.923879
vn -0.382684 0.000000 -0.923879
vn -0.382684 0.000000 -0.923879
vn 0.923879 0.000000 -0.382684
vn 0.923879 0.000000 -0.382684
vn 0.923879 0.000000 -0.382684
vn 0.923879 0.000000 -0.382684
vn 0.382684 0.000000 -0.923879
vn 0.382684 0.000000 -0.923879
vn 0.382684 0.000000 -0.923879
vn 0.382684 0.000000 -0.923879
vn 0.923879 0.000000 0.382684
vn 0.923879 0.000000 0.382684
vn 0.923879 0.000000 0.382684
vn 0.923879 0.000000 0.382684
vn 0.382684 0.000000 0.923879
vn 0.382684 0.000000 0.923879
vn 0.382684 0.000000 0.923879
vn 0.382684 0.000000 0.923879
vn -0.923879 0.000000 0.382684
vn -0.923879 0.000000 0.382684
vn -0.923879 0.000000 0.382684
vn -0.923879 0.000000 0.382684
vn -0.382684 0.000000 0.923879
vn -0.382684 0.000000 0.923879
vn -0.382684 0.000000 0.923879
vn -0.382684 0.000000 0.923879
vn 1.000000 0.000000 0.000000
vn 1.000000 0.000000 0.000000
vn 1.000000 0.000000 0.000000
vn 1.000000 0.000000 0.000000
vn 1.000000 0.000000 0.000000
vn 1.000000 0.000000 0.000000
vn 0.000000 0.000000 -1.000000
vn 0.000000 0.000000 -1.000000
vn 0.000000 0.000000 -1.000000
vn 0.000000 0.000000 -1.000000
vn 0.000000 0.000000 -1.000000
vn 0.000000 0.000000 -1.000000
vn 0.000000 0.000000 1.000000
vn 0.000000 0.000000 1.000000
vn 0.000000 0.000000 1.000000
vn 0.000000 0.000000 1.000000
vn 0.000000 0.000000 1.000000
vn 0.000000 0.000000 1.000000
vn -1.000000 0.000000 0.000000
vn -1.000000 0.000000 0.000000
vn -1.000000 0.000000 0.000000
vn -1.000000 0.000000 0.000000
vn -1.000000 0.000000 0.000000
vn -1.000000 0.000000 0.000000
g Plate_Square_White
usemtl White
f 1 2 3
f 1 3 4
f 4 5 1
f 4 6 5
f 7 8 9
f 7 9 10
f 10 11 7
f 10 12 11
f 13 14 15
f 13 15 16
f 16 17 13
f 16 18 17
f 19 20 21
f 22 19 21
f 22 23 19
f 21 24 22
f 22 25 23
f 21 26 24
f 25 27 23
f 21 28 26
f 25 29 27
f 30 27 29
f 28 31 26
f 28 32 31
f 31 32 33
f 34 31 33
f 33 35 34
f 36 34 35
f 36 35 37
f 30 29 38
f 38 39 30
f 40 39 38
f 40 38 41
f 42 36 37
f 43 40 41
f 43 41 44
f 43 44 42
f 42 37 45
f 46 43 42
f 42 45 46
f 47 48 49
f 47 49 50
f 50 51 47
f 50 52 51
f 53 54 55
f 55 56 53
f 56 57 53
f 56 58 57
f 58 59 57
f 58 60 59
f 60 61 59
f 60 62 61
f 62 63 61
f 62 64 63
f 65 66 67
f 65 67 68
f 69 70 71
f 69 71 72
f 73 74 75
f 73 75 76
f 77 78 79
f 77 79 80
f 81 82 83
f 81 83 84
f 85 86 87
f 85 87 88
f 89 90 91
f 89 91 92
f 93 94 95
f 93 95 96
f 97 98 99
f 97 99 100
f 101 102 103
f 101 103 104
f 105 106 107
f 105 107 108
f 109 110 111
f 109 111 112
f 113 114 115
f 113 115 116
f 117 118 119
f 117 119 120
f 121 122 123
f 121 123 124
f 125 126 127
f 125 127 128
f 129 130 131
f 129 132 130
f 132 129 133
f 132 133 134
f 135 136 137
f 135 138 136
f 138 135 139
f 138 139 140
f 141 142 143
f 141 144 142
f 144 141 145
f 144 145 146
f 147 148 149
f 150 147 149
f 149 151 150
f 147 150 152
f 151 149 153
f 147 152 154
f 151 153 155
f 155 153 156
f 155 156 157
f 157 156 158
f 154 152 159
f 154 159 160
f 161 160 159
f 161 159 162
f 162 163 161
f 164 163 162
f 164 165 163
f 166 165 164
f 166 167 165
f 168 157 158
f 158 169 168
f 170 168 169
f 170 171 168
f 172 171 170
f 167 166 173
f 172 173 171
f 174 167 173
f 173 172 174
f 175 176 177
f 175 178 176
f 178 175 179
f 178 179 180
f 181 182 183
f 183 184 181
f 184 185 181
f 184 186 185
f 186 187 185
f 186 188 187
f 188 189 187
f 188 190 189
f 190 191 189
f 190 192 191
f 193 194 195
f 193 195 196
f 197 193 196
f 197 196 198
f 199 200 201
f 199 201 202
f 203 199 202
f 203 202 204
f 205 206 207
f 205 208 206
f 208 209 206
f 208 210 209
f 211 212 213
f 211 214 212
f 214 215 212
f 214 216 215
f 217 218 219
f 217 219 220
f 221 217 220
f 221 220 222
f 223 224 225
f 223 225 226
f 227 223 226
f 227 226 228
f 229 230 231
f 229 232 230
f 232 233 230
f 232 234 233
f 235 236 237
f 235 238 236
f 238 239 236
f 238 240 239
f 241 242 243
f 241 243 244
f 245 246 247
f 245 247 248
f 249 250 251
f 249 251 252
f 253 254 255
f 253 255 256
f 257 258 259
f 257 259 260
f 261 262 263
f 261 263 264
f 265 266 267
f 265 267 268
f 269 270 271
f 269 271 272
f 273 274 275
f 273 276 274
f 277 276 273
f 277 278 276
f 279 280 281
f 279 282 280
f 283 282 279
f 283 284 282
f 285 286 287
f 285 288 286
f 289 288 285
f 289 290 288
f 291 292 293
f 291 294 292
f 295 294 291
f 295 296 294
