mtllib Materials.mtl
# Ultimate Food Pack - Plate2
o Plate2
v 0.000000 0.218824 -0.739710
v 0.000000 0.208964 -0.702660
v 0.413013 0.208964 -0.568464
v 0.434791 0.218824 -0.598438
v 0.434791 0.218824 0.598438
v 0.413014 0.208964 0.568464
v 0.000000 0.208964 0.702660
v 0.000000 0.218824 0.739710
v 0.703506 0.218824 0.228583
v 0.668270 0.208964 0.217134
v 0.413014 0.208964 0.568464
v 0.434791 0.218824 0.598438
v 0.703506 0.218824 -0.228583
v 0.668270 0.208964 -0.217134
v 0.668270 0.208964 0.217134
v 0.703506 0.218824 0.228583
v 0.434791 0.218824 -0.598438
v 0.413013 0.208964 -0.568464
v 0.668270 0.208964 -0.217134
v 0.703506 0.218824 -0.228583
v -0.377574 0.175515 -0.519686
v -0.283247 0.060141 -0.389856
v 0.000000 0.060141 -0.481888
v 0.000000 0.175515 -0.642367
v -0.434791 0.218824 0.598438
v -0.413013 0.208964 0.568464
v -0.668270 0.208964 0.217134
v -0.703506 0.218824 0.228583
v -0.703506 0.218824 0.228583
v -0.668270 0.208964 0.217134
v -0.668270 0.208964 -0.217134
v -0.703506 0.218824 -0.228583
v -0.365913 0.089728 -0.503636
v -0.592059 0.089728 -0.192372
v -0.722296 0.175515 -0.234688
v -0.446404 0.175515 -0.614422
v -0.377574 0.175515 0.519686
v -0.283247 0.060141 0.389856
v -0.458303 0.060141 0.148912
v -0.610928 0.175515 0.198502
v -0.703506 0.218824 -0.228583
v -0.668270 0.208964 -0.217134
v -0.413014 0.208964 -0.568464
v -0.434791 0.218824 -0.598438
v 0.592059 0.089728 -0.192372
v 0.365913 0.089728 -0.503636
v 0.446403 0.175515 -0.614422
v 0.722296 0.175515 -0.234688
v 0.592059 0.089728 0.192372
v 0.592059 0.089728 -0.192372
v 0.722296 0.175515 -0.234688
v 0.722296 0.175515 0.234688
v 0.365913 0.089728 0.503636
v 0.592059 0.089728 0.192372
v 0.722296 0.175515 0.234688
v 0.446404 0.175515 0.614422
v 0.000000 0.089729 0.622528
v 0.365913 0.089728 0.503636
v 0.446404 0.175515 0.614422
v 0.000000 0.175515 0.759467
v -0.592059 0.089728 0.192372
v -0.365913 0.089728 0.503636
v -0.446404 0.175515 0.614422
v -0.722296 0.175515 0.234688
v 0.365913 0.089728 -0.503636
v 0.000000 0.089728 -0.622528
v 0.000000 0.175515 -0.759467
v 0.446403 0.175515 -0.614422
v -0.592059 0.089728 -0.192372
v -0.592059 0.089728 0.192372
v -0.722296 0.175515 0.234688
v -0.722296 0.175515 -0.234688
v -0.283247 0.060141 -0.389856
v -0.458303 0.060141 -0.148912
v -0.458303 0.060141 0.148912
v -0.283247 0.060141 0.389856
v 0.000000 0.060141 -0.481888
v 0.000000 0.060141 0.481888
v 0.283247 0.060141 -0.389856
v 0.283247 0.060141 0.389856
v 0.458303 0.060141 -0.148912
v 0.458303 0.060141 0.148912
v -0.610928 0.175515 0.198502
v -0.458303 0.060141 0.148912
v -0.458303 0.060141 -0.148912
v -0.610928 0.175515 -0.198502
v 0.610927 0.175515 -0.198502
v 0.458303 0.060141 -0.148912
v 0.458303 0.060141 0.148912
v 0.610927 0.175515 0.198502
v 0.000000 0.208964 0.702660
v 0.000000 0.175515 0.642367
v -0.377574 0.175515 0.519686
v -0.413013 0.208964 0.568464
v -0.610928 0.175515 -0.198502
v -0.458303 0.060141 -0.148912
v -0.283247 0.060141 -0.389856
v -0.377574 0.175515 -0.519686
v 0.377574 0.175515 -0.519686
v 0.283247 0.060141 -0.389856
v 0.458303 0.060141 -0.148912
v 0.610927 0.175515 -0.198502
v 0.377574 0.175515 0.519686
v 0.283247 0.060141 0.389856
v 0.000000 0.060141 0.481888
v 0.000000 0.175515 0.642367
v 0.000000 0.175515 -0.642367
v 0.000000 0.060141 -0.481888
v 0.283247 0.060141 -0.389856
v 0.377574 0.175515 -0.519686
v 0.610927 0.175515 0.198502
v 0.458303 0.060141 0.148912
v 0.283247 0.060141 0.389856
v 0.377574 0.175515 0.519686
v 0.000000 0.089728 -0.622528
v -0.365913 0.089728 -0.503636
v -0.446404 0.175515 -0.614422
v 0.000000 0.175515 -0.759467
v 0.000000 0.089728 -0.622528
v 0.000000 0.034539 -0.435267
v -0.255844 0.034539 -0.352138
v -0.365913 0.089728 -0.503636
v 0.000000 0.034539 -0.435267
v 0.000000 0.007014 -0.254595
v -0.149647 0.007014 -0.205972
v -0.255844 0.034539 -0.352138
v -0.365913 0.089728 -0.503636
v -0.255844 0.034539 -0.352138
v -0.413964 0.034540 -0.134505
v -0.592059 0.089728 -0.192372
v -0.255844 0.034539 -0.352138
v -0.149647 0.007014 -0.205972
v -0.242134 0.007014 -0.078674
v -0.413964 0.034540 -0.134505
v -0.592059 0.089728 -0.192372
v -0.413964 0.034540 -0.134505
v -0.413964 0.034540 0.134505
v -0.592059 0.089728 0.192372
v -0.413964 0.034540 -0.134505
v -0.242134 0.007014 -0.078674
v -0.242134 0.007014 0.078674
v -0.413964 0.034540 0.134505
v -0.592059 0.089728 0.192372
v -0.413964 0.034540 0.134505
v -0.255844 0.034540 0.352139
v -0.365913 0.089728 0.503636
v -0.413964 0.034540 0.134505
v -0.242134 0.007014 0.078674
v -0.149647 0.007014 0.205972
v -0.255844 0.034540 0.352139
v -0.365913 0.089728 0.503636
v 0.000000 0.089729 0.622528
v 0.000000 0.175515 0.759467
v -0.446404 0.175515 0.614422
v -0.365913 0.089728 0.503636
v -0.255844 0.034540 0.352139
v 0.000000 0.034540 0.435267
v 0.000000 0.089729 0.622528
v 0.000000 0.089729 0.622528
v 0.000000 0.034540 0.435267
v 0.255844 0.034540 0.352138
v 0.365913 0.089728 0.503636
v 0.000000 0.034540 0.435267
v 0.000000 0.007014 0.254595
v 0.149647 0.007014 0.205972
v 0.255844 0.034540 0.352138
v 0.365913 0.089728 0.503636
v 0.255844 0.034540 0.352138
v 0.413964 0.034540 0.134505
v 0.592059 0.089728 0.192372
v 0.255844 0.034540 0.352138
v 0.149647 0.007014 0.205972
v 0.242134 0.007014 0.078674
v 0.413964 0.034540 0.134505
v 0.592059 0.089728 0.192372
v 0.413964 0.034540 0.134505
v 0.413964 0.034540 -0.134505
v 0.592059 0.089728 -0.192372
v 0.413964 0.034540 0.134505
v 0.242134 0.007014 0.078674
v 0.242134 0.007014 -0.078674
v 0.413964 0.034540 -0.134505
v 0.592059 0.089728 -0.192372
v 0.413964 0.034540 -0.134505
v 0.255844 0.034539 -0.352139
v 0.365913 0.089728 -0.503636
v 0.413964 0.034540 -0.134505
v 0.242134 0.007014 -0.078674
v 0.149647 0.007014 -0.205972
v 0.255844 0.034539 -0.352139
v 0.365913 0.089728 -0.503636
v 0.255844 0.034539 -0.352139
v 0.000000 0.034539 -0.435267
v 0.000000 0.089728 -0.622528
v 0.255844 0.034539 -0.352139
v 0.149647 0.007014 -0.205972
v 0.000000 0.007014 -0.254595
v 0.000000 0.034539 -0.435267
v -0.149647 0.007014 0.205972
v -0.242134 0.007014 0.078674
v -0.242134 0.007014 -0.078674
v -0.149647 0.007014 -0.205972
v 0.000000 0.007014 -0.254595
v 0.000000 0.007014 0.254595
v 0.149647 0.007014 -0.205972
v 0.149647 0.007014 0.205972
v 0.242134 0.007014 -0.078674
v 0.242134 0.007014 0.078674
v -0.413014 0.208964 -0.568464
v -0.377574 0.175515 -0.519686
v 0.000000 0.175515 -0.642367
v 0.000000 0.208964 -0.702660
v -0.668270 0.208964 -0.217134
v -0.610928 0.175515 -0.198502
v -0.377574 0.175515 -0.519686
v -0.413014 0.208964 -0.568464
v -0.668270 0.208964 0.217134
v -0.610928 0.175515 0.198502
v -0.610928 0.175515 -0.198502
v -0.668270 0.208964 -0.217134
v -0.413013 0.208964 0.568464
v -0.377574 0.175515 0.519686
v -0.610928 0.175515 0.198502
v -0.668270 0.208964 0.217134
v 0.000000 0.218824 0.739710
v 0.000000 0.208964 0.702660
v -0.413013 0.208964 0.568464
v -0.434791 0.218824 0.598438
v 0.413014 0.208964 0.568464
v 0.377574 0.175515 0.519686
v 0.000000 0.175515 0.642367
v 0.000000 0.208964 0.702660
v 0.668270 0.208964 0.217134
v 0.610927 0.175515 0.198502
v 0.377574 0.175515 0.519686
v 0.413014 0.208964 0.568464
v 0.668270 0.208964 -0.217134
v 0.610927 0.175515 -0.198502
v 0.610927 0.175515 0.198502
v 0.668270 0.208964 0.217134
v 0.413013 0.208964 -0.568464
v 0.377574 0.175515 -0.519686
v 0.610927 0.175515 -0.198502
v 0.668270 0.208964 -0.217134
v 0.000000 0.208964 -0.702660
v 0.000000 0.175515 -0.642367
v 0.377574 0.175515 -0.519686
v 0.413013 0.208964 -0.568464
v -0.434791 0.218824 -0.598438
v -0.413014 0.208964 -0.568464
v 0.000000 0.208964 -0.702660
v 0.000000 0.218824 -0.739710
v -0.255844 0.034540 0.352139
v -0.149647 0.007014 0.205972
v 0.000000 0.007014 0.254595
v 0.000000 0.034540 0.435267
v -0.283247 0.060141 0.389856
v -0.377574 0.175515 0.519686
v 0.000000 0.175515 0.642367
v 0.000000 0.060141 0.481888
v 0.000000 0.226746 1.010307
v -0.593844 0.226746 0.817356
v -0.609705 0.167593 0.839186
v 0.000000 0.167593 1.037291
v -0.609705 0.167593 -0.839186
v -0.593844 0.226746 -0.817356
v 0.000000 0.226746 -1.010307
v 0.000000 0.167593 -1.037292
v -0.986523 0.167593 -0.320541
v -0.960859 0.226746 -0.312202
v -0.593844 0.226746 -0.817356
v -0.609705 0.167593 -0.839186
v -0.986523 0.167593 0.320541
v -0.960859 0.226746 0.312202
v -0.960859 0.226746 -0.312202
v -0.986523 0.167593 -0.320541
v -0.609705 0.167593 0.839186
v -0.593844 0.226746 0.817356
v -0.960859 0.226746 0.312202
v -0.986523 0.167593 0.320541
v 0.609705 0.167593 0.839186
v 0.593844 0.226746 0.817356
v 0.000000 0.226746 1.010307
v 0.000000 0.167593 1.037291
v 0.986523 0.167593 0.320541
v 0.960859 0.226746 0.312202
v 0.593844 0.226746 0.817356
v 0.609705 0.167593 0.839186
v 0.986523 0.167593 -0.320541
v 0.960859 0.226746 -0.312202
v 0.960859 0.226746 0.312202
v 0.986523 0.167593 0.320541
v 0.609704 0.167593 -0.839187
v 0.593843 0.226746 -0.817356
v 0.960859 0.226746 -0.312202
v 0.986523 0.167593 -0.320541
v 0.000000 0.167593 -1.037292
v 0.000000 0.226746 -1.010307
v 0.593843 0.226746 -0.817356
v 0.609704 0.167593 -0.839187
v -0.446404 0.175515 0.614422
v -0.609705 0.167593 0.839186
v -0.986523 0.167593 0.320541
v -0.722296 0.175515 0.234688
v 0.000000 0.175515 0.759467
v -0.986523 0.167593 -0.320541
v 0.000000 0.167593 1.037291
v -0.722296 0.175515 -0.234688
v 0.446404 0.175515 0.614422
v -0.609705 0.167593 -0.839186
v 0.609705 0.167593 0.839186
v -0.446404 0.175515 -0.614422
v 0.722296 0.175515 0.234688
v 0.000000 0.167593 -1.037292
v 0.986523 0.167593 0.320541
v 0.000000 0.175515 -0.759467
v 0.722296 0.175515 -0.234688
v 0.609704 0.167593 -0.839187
v 0.986523 0.167593 -0.320541
v 0.446403 0.175515 -0.614422
v 0.000000 0.218824 0.739710
v 0.593844 0.226746 0.817356
v 0.434791 0.218824 0.598438
v 0.000000 0.226746 1.010307
v 0.960859 0.226746 0.312202
v -0.434791 0.218824 0.598438
v 0.703506 0.218824 0.228583
v -0.593844 0.226746 0.817356
v 0.960859 0.226746 -0.312202
v -0.703506 0.218824 0.228583
v 0.703506 0.218824 -0.228583
v -0.960859 0.226746 0.312202
v 0.593843 0.226746 -0.817356
v -0.703506 0.218824 -0.228583
v 0.434791 0.218824 -0.598438
v -0.960859 0.226746 -0.312202
v 0.000000 0.226746 -1.010307
v -0.434791 0.218824 -0.598438
v 0.000000 0.218824 -0.739710
v -0.593844 0.226746 -0.817356
vn -0.083270 0.963009 0.256279
vn -0.083270 0.963009 0.256279
vn -0.083270 0.963009 0.256279
vn -0.083270 0.963009 0.256279
vn -0.083270 0.963010 -0.256279
vn -0.083270 0.963010 -0.256279
vn -0.083270 0.963010 -0.256279
vn -0.083270 0.963010 -0.256279
vn -0.218003 0.963010 -0.158389
vn -0.218003 0.963010 -0.158389
vn -0.218003 0.963010 -0.158389
vn -0.218003 0.963010 -0.158389
vn -0.269466 0.963010 0.000000
vn -0.269466 0.963010 0.000000
vn -0.269466 0.963010 0.000000
vn -0.269466 0.963010 0.000000
vn -0.218003 0.963010 0.158389
vn -0.218003 0.963010 0.158389
vn -0.218003 0.963010 0.158389
vn -0.218003 0.963010 0.158389
vn 0.186345 0.797723 0.573510
vn 0.186345 0.797723 0.573510
vn 0.186345 0.797723 0.573510
vn 0.186345 0.797723 0.573510
vn 0.218004 0.963009 -0.158389
vn 0.218004 0.963009 -0.158389
vn 0.218004 0.963009 -0.158389
vn 0.218004 0.963009 -0.158389
vn 0.269467 0.963010 0.000000
vn 0.269467 0.963010 0.000000
vn 0.269467 0.963010 0.000000
vn 0.269467 0.963010 0.000000
vn -0.445027 -0.835110 -0.323331
vn -0.445027 -0.835110 -0.323331
vn -0.445027 -0.835110 -0.323331
vn -0.445027 -0.835110 -0.323331
vn 0.487856 0.797723 -0.354449
vn 0.487856 0.797723 -0.354449
vn 0.487856 0.797723 -0.354449
vn 0.487856 0.797723 -0.354449
vn 0.218004 0.963009 0.158389
vn 0.218004 0.963009 0.158389
vn 0.218004 0.963009 0.158389
vn 0.218004 0.963009 0.158389
vn 0.445027 -0.835110 -0.323331
vn 0.445027 -0.835110 -0.323331
vn 0.445027 -0.835110 -0.323331
vn 0.445027 -0.835110 -0.323331
vn 0.550084 -0.835110 0.000000
vn 0.550084 -0.835110 0.000000
vn 0.550084 -0.835110 0.000000
vn 0.550084 -0.835110 0.000000
vn 0.445027 -0.835110 0.323331
vn 0.445027 -0.835110 0.323331
vn 0.445027 -0.835110 0.323331
vn 0.445027 -0.835110 0.323331
vn 0.169985 -0.835110 0.523161
vn 0.169985 -0.835110 0.523161
vn 0.169985 -0.835110 0.523161
vn 0.169985 -0.835110 0.523161
vn -0.445027 -0.835110 0.323331
vn -0.445027 -0.835110 0.323331
vn -0.445027 -0.835110 0.323331
vn -0.445027 -0.835110 0.323331
vn 0.169985 -0.835110 -0.523161
vn 0.169985 -0.835110 -0.523161
vn 0.169985 -0.835110 -0.523161
vn 0.169985 -0.835110 -0.523161
vn -0.550084 -0.835110 0.000000
vn -0.550084 -0.835110 0.000000
vn -0.550084 -0.835110 0.000000
vn -0.550084 -0.835110 0.000000
vn 0.000000 1.000000 0.000000
vn 0.000000 1.000000 0.000000
vn 0.000000 1.000000 0.000000
vn 0.000000 1.000000 0.000000
vn 0.000000 1.000000 0.000000
vn 0.000000 1.000000 0.000000
vn 0.000000 1.000000 0.000000
vn 0.000000 1.000000 0.000000
vn 0.000000 1.000000 0.000000
vn 0.000000 1.000000 0.000000
vn 0.603024 0.797723 0.000000
vn 0.603024 0.797723 0.000000
vn 0.603024 0.797723 0.000000
vn 0.603024 0.797723 0.000000
vn -0.603024 0.797723 0.000000
vn -0.603024 0.797723 0.000000
vn -0.603024 0.797723 0.000000
vn -0.603024 0.797723 0.000000
vn 0.155704 0.863780 -0.479208
vn 0.155704 0.863780 -0.479208
vn 0.155704 0.863780 -0.479208
vn 0.155704 0.863780 -0.479208
vn 0.487856 0.797723 0.354448
vn 0.487856 0.797723 0.354448
vn 0.487856 0.797723 0.354448
vn 0.487856 0.797723 0.354448
vn -0.487856 0.797723 0.354448
vn -0.487856 0.797723 0.354448
vn -0.487856 0.797723 0.354448
vn -0.487856 0.797723 0.354448
vn -0.186345 0.797723 -0.573510
vn -0.186345 0.797723 -0.573510
vn -0.186345 0.797723 -0.573510
vn -0.186345 0.797723 -0.573510
vn -0.186344 0.797724 0.573510
vn -0.186344 0.797724 0.573510
vn -0.186344 0.797724 0.573510
vn -0.186344 0.797724 0.573510
vn -0.487857 0.797723 -0.354448
vn -0.487857 0.797723 -0.354448
vn -0.487857 0.797723 -0.354448
vn -0.487857 0.797723 -0.354448
vn -0.169985 -0.835110 -0.523161
vn -0.169985 -0.835110 -0.523161
vn -0.169985 -0.835110 -0.523161
vn -0.169985 -0.835110 -0.523161
vn -0.091468 -0.955189 -0.281510
vn -0.091468 -0.955189 -0.281510
vn -0.091468 -0.955189 -0.281510
vn -0.091468 -0.955189 -0.281510
vn -0.048879 -0.987411 -0.150434
vn -0.048879 -0.987411 -0.150434
vn -0.048879 -0.987411 -0.150434
vn -0.048879 -0.987411 -0.150434
vn -0.239467 -0.955189 -0.173983
vn -0.239467 -0.955189 -0.173983
vn -0.239467 -0.955189 -0.173983
vn -0.239467 -0.955189 -0.173983
vn -0.127967 -0.987411 -0.092973
vn -0.127967 -0.987411 -0.092973
vn -0.127967 -0.987411 -0.092973
vn -0.127967 -0.987411 -0.092973
vn -0.295997 -0.955189 0.000000
vn -0.295997 -0.955189 0.000000
vn -0.295997 -0.955189 0.000000
vn -0.295997 -0.955189 0.000000
vn -0.158176 -0.987411 0.000000
vn -0.158176 -0.987411 0.000000
vn -0.158176 -0.987411 0.000000
vn -0.158176 -0.987411 0.000000
vn -0.239467 -0.955189 0.173983
vn -0.239467 -0.955189 0.173983
vn -0.239467 -0.955189 0.173983
vn -0.239467 -0.955189 0.173983
vn -0.127967 -0.987411 0.092974
vn -0.127967 -0.987411 0.092974
vn -0.127967 -0.987411 0.092974
vn -0.127967 -0.987411 0.092974
vn -0.169985 -0.835110 0.523161
vn -0.169985 -0.835110 0.523161
vn -0.169985 -0.835110 0.523161
vn -0.169985 -0.835110 0.523161
vn -0.091468 -0.955189 0.281510
vn -0.091468 -0.955189 0.281510
vn -0.091468 -0.955189 0.281510
vn -0.091468 -0.955189 0.281510
vn 0.091468 -0.955189 0.281510
vn 0.091468 -0.955189 0.281510
vn 0.091468 -0.955189 0.281510
vn 0.091468 -0.955189 0.281510
vn 0.048879 -0.987411 0.150434
vn 0.048879 -0.987411 0.150434
vn 0.048879 -0.987411 0.150434
vn 0.048879 -0.987411 0.150434
vn 0.239467 -0.955189 0.173983
vn 0.239467 -0.955189 0.173983
vn 0.239467 -0.955189 0.173983
vn 0.239467 -0.955189 0.173983
vn 0.127967 -0.987411 0.092974
vn 0.127967 -0.987411 0.092974
vn 0.127967 -0.987411 0.092974
vn 0.127967 -0.987411 0.092974
vn 0.295997 -0.955189 0.000000
vn 0.295997 -0.955189 0.000000
vn 0.295997 -0.955189 0.000000
vn 0.295997 -0.955189 0.000000
vn 0.158176 -0.987411 0.000000
vn 0.158176 -0.987411 0.000000
vn 0.158176 -0.987411 0.000000
vn 0.158176 -0.987411 0.000000
vn 0.239467 -0.955189 -0.173983
vn 0.239467 -0.955189 -0.173983
vn 0.239467 -0.955189 -0.173983
vn 0.239467 -0.955189 -0.173983
vn 0.127967 -0.987411 -0.092973
vn 0.127967 -0.987411 -0.092973
vn 0.127967 -0.987411 -0.092973
vn 0.127967 -0.987411 -0.092973
vn 0.091468 -0.955189 -0.281510
vn 0.091468 -0.955189 -0.281510
vn 0.091468 -0.955189 -0.281510
vn 0.091468 -0.955189 -0.281510
vn 0.048879 -0.987411 -0.150434
vn 0.048879 -0.987411 -0.150434
vn 0.048879 -0.987411 -0.150434
vn 0.048879 -0.987411 -0.150434
vn 0.000000 -1.000000 0.000000
vn 0.000000 -1.000000 0.000000
vn 0.000000 -1.000000 0.000000
vn 0.000000 -1.000000 0.000000
vn 0.000000 -1.000000 0.000000
vn 0.000000 -1.000000 0.000000
vn 0.000000 -1.000000 0.000000
vn 0.000000 -1.000000 0.000000
vn 0.000000 -1.000000 0.000000
vn 0.000000 -1.000000 0.000000
vn 0.155704 0.863780 0.479208
vn 0.155704 0.863780 0.479208
vn 0.155704 0.863780 0.479208
vn 0.155704 0.863780 0.479208
vn 0.407639 0.863780 0.296167
vn 0.407639 0.863780 0.296167
vn 0.407639 0.863780 0.296167
vn 0.407639 0.863780 0.296167
vn 0.503870 0.863780 0.000000
vn 0.503870 0.863780 0.000000
vn 0.503870 0.863780 0.000000
vn 0.503870 0.863780 0.000000
vn 0.407639 0.863780 -0.296167
vn 0.407639 0.863780 -0.296167
vn 0.407639 0.863780 -0.296167
vn 0.407639 0.863780 -0.296167
vn 0.083270 0.963010 -0.256279
vn 0.083270 0.963010 -0.256279
vn 0.083270 0.963010 -0.256279
vn 0.083270 0.963010 -0.256279
vn -0.155704 0.863780 -0.479209
vn -0.155704 0.863780 -0.479209
vn -0.155704 0.863780 -0.479209
vn -0.155704 0.863780 -0.479209
vn -0.407639 0.863780 -0.296167
vn -0.407639 0.863780 -0.296167
vn -0.407639 0.863780 -0.296167
vn -0.407639 0.863780 -0.296167
vn -0.503870 0.863780 0.000000
vn -0.503870 0.863780 0.000000
vn -0.503870 0.863780 0.000000
vn -0.503870 0.863780 0.000000
vn -0.407639 0.863780 0.296167
vn -0.407639 0.863780 0.296167
vn -0.407639 0.863780 0.296167
vn -0.407639 0.863780 0.296167
vn -0.155704 0.863780 0.479208
vn -0.155704 0.863780 0.479208
vn -0.155704 0.863780 0.479208
vn -0.155704 0.863780 0.479208
vn 0.083270 0.963009 0.256279
vn 0.083270 0.963009 0.256279
vn 0.083270 0.963009 0.256279
vn 0.083270 0.963009 0.256279
vn -0.048879 -0.987411 0.150434
vn -0.048879 -0.987411 0.150434
vn -0.048879 -0.987411 0.150434
vn -0.048879 -0.987411 0.150434
vn 0.186344 0.797723 -0.573510
vn 0.186344 0.797723 -0.573510
vn 0.186344 0.797723 -0.573510
vn 0.186344 0.797723 -0.573510
vn -0.283486 0.398010 0.872481
vn -0.283486 0.398010 0.872481
vn -0.283486 0.398010 0.872481
vn -0.283486 0.398010 0.872481
vn -0.283486 0.398009 -0.872482
vn -0.283486 0.398009 -0.872482
vn -0.283486 0.398009 -0.872482
vn -0.283486 0.398009 -0.872482
vn -0.742177 0.398009 -0.539223
vn -0.742177 0.398009 -0.539223
vn -0.742177 0.398009 -0.539223
vn -0.742177 0.398009 -0.539223
vn -0.917381 0.398010 0.000000
vn -0.917381 0.398010 0.000000
vn -0.917381 0.398010 0.000000
vn -0.917381 0.398010 0.000000
vn -0.742177 0.398011 0.539223
vn -0.742177 0.398011 0.539223
vn -0.742177 0.398011 0.539223
vn -0.742177 0.398011 0.539223
vn 0.283487 0.398009 0.872482
vn 0.283487 0.398009 0.872482
vn 0.283487 0.398009 0.872482
vn 0.283487 0.398009 0.872482
vn 0.742177 0.398010 0.539223
vn 0.742177 0.398010 0.539223
vn 0.742177 0.398010 0.539223
vn 0.742177 0.398010 0.539223
vn 0.917381 0.398010 0.000000
vn 0.917381 0.398010 0.000000
vn 0.917381 0.398010 0.000000
vn 0.917381 0.398010 0.000000
vn 0.742177 0.398010 -0.539223
vn 0.742177 0.398010 -0.539223
vn 0.742177 0.398010 -0.539223
vn 0.742177 0.398010 -0.539223
vn 0.283486 0.398010 -0.872481
vn 0.283486 0.398010 -0.872481
vn 0.283486 0.398010 -0.872481
vn 0.283486 0.398010 -0.872481
vn 0.024244 -0.999551 -0.017614
vn 0.024244 -0.999551 -0.017614
vn 0.029967 -0.999551 0.000000
vn 0.029967 -0.999551 0.000000
vn -0.009260 -0.999551 -0.028500
vn 0.029967 -0.999551 0.000000
vn -0.009260 -0.999551 -0.028500
vn 0.029967 -0.999551 0.000000
vn -0.009260 -0.999551 -0.028500
vn 0.009260 -0.999551 0.028500
vn -0.009260 -0.999551 -0.028500
vn 0.009260 -0.999551 0.028500
vn -0.029967 -0.999551 0.000000
vn 0.009260 -0.999551 0.028500
vn -0.029967 -0.999551 0.000000
vn 0.009260 -0.999551 0.028500
vn -0.029967 -0.999551 0.000000
vn -0.024244 -0.999551 0.017614
vn -0.029967 -0.999551 0.000000
vn -0.024244 -0.999551 0.017614
vn 0.009507 0.999527 -0.029261
vn -0.009507 0.999527 -0.029261
vn -0.009507 0.999527 -0.029261
vn 0.009507 0.999527 -0.029261
vn -0.030766 0.999527 0.000000
vn 0.009507 0.999527 -0.029261
vn -0.030766 0.999527 0.000000
vn 0.009507 0.999527 -0.029261
vn -0.030766 0.999527 0.000000
vn 0.024891 0.999527 -0.018084
vn -0.030766 0.999527 0.000000
vn 0.024891 0.999527 -0.018084
vn -0.009507 0.999527 0.029261
vn 0.024891 0.999527 0.018084
vn -0.009507 0.999527 0.029261
vn 0.024891 0.999527 0.018084
vn -0.009507 0.999527 0.029261
vn 0.024891 0.999527 0.018084
vn -0.009507 0.999527 0.029261
vn 0.024891 0.999527 0.018084
g Plate2_White
usemtl White
f 1 2 3
f 1 3 4
f 5 6 7
f 5 7 8
f 9 10 11
f 9 11 12
f 13 14 15
f 13 15 16
f 17 18 19
f 17 19 20
f 21 22 23
f 21 23 24
f 25 26 27
f 25 27 28
f 29 30 31
f 29 31 32
f 33 34 35
f 33 35 36
f 37 38 39
f 37 39 40
f 41 42 43
f 41 43 44
f 45 46 47
f 45 47 48
f 49 50 51
f 49 51 52
f 53 54 55
f 53 55 56
f 57 58 59
f 57 59 60
f 61 62 63
f 61 63 64
f 65 66 67
f 65 67 68
f 69 70 71
f 69 71 72
f 73 74 75
f 75 76 73
f 76 77 73
f 76 78 77
f 78 79 77
f 78 80 79
f 80 81 79
f 80 82 81
f 83 84 85
f 83 85 86
f 87 88 89
f 87 89 90
f 91 92 93
f 91 93 94
f 95 96 97
f 95 97 98
f 99 100 101
f 99 101 102
f 103 104 105
f 103 105 106
f 107 108 109
f 107 109 110
f 111 112 113
f 111 113 114
f 115 116 117
f 115 117 118
f 119 120 121
f 119 121 122
f 123 124 125
f 123 125 126
f 127 128 129
f 127 129 130
f 131 132 133
f 131 133 134
f 135 136 137
f 135 137 138
f 139 140 141
f 139 141 142
f 143 144 145
f 143 145 146
f 147 148 149
f 147 149 150
f 151 152 153
f 151 153 154
f 155 156 157
f 155 157 158
f 159 160 161
f 159 161 162
f 163 164 165
f 163 165 166
f 167 168 169
f 167 169 170
f 171 172 173
f 171 173 174
f 175 176 177
f 175 177 178
f 179 180 181
f 179 181 182
f 183 184 185
f 183 185 186
f 187 188 189
f 187 189 190
f 191 192 193
f 191 193 194
f 195 196 197
f 195 197 198
f 199 200 201
f 201 202 199
f 202 203 199
f 203 204 199
f 203 205 204
f 205 206 204
f 205 207 206
f 207 208 206
f 209 210 211
f 209 211 212
f 213 214 215
f 213 215 216
f 217 218 219
f 217 219 220
f 221 222 223
f 221 223 224
f 225 226 227
f 225 227 228
f 229 230 231
f 229 231 232
f 233 234 235
f 233 235 236
f 237 238 239
f 237 239 240
f 241 242 243
f 241 243 244
f 245 246 247
f 245 247 248
f 249 250 251
f 249 251 252
f 253 254 255
f 253 255 256
f 257 258 259
f 257 259 260
f 261 262 263
f 261 263 264
f 265 266 267
f 265 267 268
f 269 270 271
f 269 271 272
f 273 274 275
f 273 275 276
f 277 278 279
f 277 279 280
f 281 282 283
f 281 283 284
f 285 286 287
f 285 287 288
f 289 290 291
f 289 291 292
f 293 294 295
f 293 295 296
f 297 298 299
f 297 299 300
f 301 302 303
f 301 303 304
f 305 302 301
f 304 303 306
f 305 307 302
f 304 306 308
f 309 307 305
f 308 306 310
f 309 311 307
f 308 310 312
f 313 311 309
f 312 310 314
f 313 315 311
f 312 314 316
f 317 315 313
f 316 314 318
f 317 319 315
f 316 318 320
f 320 319 317
f 320 318 319
f 321 322 323
f 321 324 322
f 323 322 325
f 326 324 321
f 323 325 327
f 326 328 324
f 327 325 329
f 330 328 326
f 327 329 331
f 330 332 328
f 331 329 333
f 334 332 330
f 331 333 335
f 334 336 332
f 335 333 337
f 338 336 334
f 335 337 339
f 338 340 336
f 339 337 340
f 339 340 338
