mtllib Materials.mtl
# Ultimate Food Pack - Plate
o Plate
v 0.000000 0.263166 -0.889602
v 0.000000 0.251308 -0.845044
v 0.496704 0.251308 -0.683656
v 0.522895 0.263166 -0.719703
v 0.000000 0.263166 0.889602
v -0.522895 0.263166 0.719703
v -0.536861 0.211081 0.738926
v 0.000000 0.211081 0.913362
v 0.522895 0.263166 0.719703
v 0.496705 0.251308 0.683655
v 0.000000 0.251308 0.845044
v 0.000000 0.263166 0.889602
v 0.846062 0.263166 0.274902
v 0.803685 0.251308 0.261133
v 0.496705 0.251308 0.683655
v 0.522895 0.263166 0.719703
v 0.846062 0.263166 -0.274902
v 0.803685 0.251308 -0.261133
v 0.803685 0.251308 0.261133
v 0.846062 0.263166 0.274902
v 0.522895 0.263166 -0.719703
v 0.496704 0.251308 -0.683656
v 0.803685 0.251308 -0.261133
v 0.846062 0.263166 -0.274902
v -0.454084 0.211080 -0.624993
v -0.340643 0.072328 -0.468854
v 0.000000 0.072328 -0.579536
v 0.000000 0.211080 -0.772534
v -0.522895 0.263166 0.719703
v -0.496705 0.251308 0.683655
v -0.803685 0.251308 0.261133
v -0.846062 0.263166 0.274902
v -0.846062 0.263166 0.274902
v -0.803685 0.251308 0.261133
v -0.803685 0.251308 -0.261133
v -0.846062 0.263166 -0.274902
v -0.440060 0.107911 -0.605690
v -0.712032 0.107911 -0.231353
v -0.868659 0.211080 -0.282244
v -0.536861 0.211080 -0.738926
v -0.454084 0.211081 0.624993
v -0.340643 0.072328 0.468854
v -0.551171 0.072328 0.179086
v -0.734723 0.211080 0.238726
v -0.846062 0.263166 -0.274902
v -0.803685 0.251308 -0.261133
v -0.496705 0.251308 -0.683655
v -0.522895 0.263166 -0.719703
v 0.712032 0.107911 -0.231353
v 0.440060 0.107911 -0.605691
v 0.536861 0.211080 -0.738926
v 0.868659 0.211080 -0.282245
v 0.712032 0.107911 0.231353
v 0.712032 0.107911 -0.231353
v 0.868659 0.211080 -0.282245
v 0.868659 0.211080 0.282244
v 0.440060 0.107911 0.605690
v 0.712032 0.107911 0.231353
v 0.868659 0.211080 0.282244
v 0.536861 0.211081 0.738925
v 0.000000 0.107911 0.748675
v 0.440060 0.107911 0.605690
v 0.536861 0.211081 0.738925
v 0.000000 0.211081 0.913362
v -0.712032 0.107911 0.231353
v -0.440060 0.107911 0.605690
v -0.536861 0.211081 0.738926
v -0.868659 0.211080 0.282244
v 0.440060 0.107911 -0.605691
v 0.000000 0.107911 -0.748675
v 0.000000 0.211080 -0.913362
v 0.536861 0.211080 -0.738926
v -0.712032 0.107911 -0.231353
v -0.712032 0.107911 0.231353
v -0.868659 0.211080 0.282244
v -0.868659 0.211080 -0.282244
v -0.340643 0.072328 -0.468854
v -0.551171 0.072328 -0.179086
v -0.551171 0.072328 0.179086
v -0.340643 0.072328 0.468854
v 0.000000 0.072328 -0.579536
v 0.000000 0.072328 0.579536
v 0.340642 0.072328 -0.468854
v 0.340643 0.072328 0.468854
v 0.551171 0.072328 -0.179086
v 0.551171 0.072328 0.179086
v -0.734723 0.211080 0.238726
v -0.551171 0.072328 0.179086
v -0.551171 0.072328 -0.179086
v -0.734723 0.211080 -0.238726
v 0.734723 0.211080 -0.238726
v 0.551171 0.072328 -0.179086
v 0.551171 0.072328 0.179086
v 0.734723 0.211080 0.238726
v 0.000000 0.251308 0.845044
v 0.000000 0.211081 0.772534
v -0.454084 0.211081 0.624993
v -0.496705 0.251308 0.683655
v -0.734723 0.211080 -0.238726
v -0.551171 0.072328 -0.179086
v -0.340643 0.072328 -0.468854
v -0.454084 0.211080 -0.624993
v 0.454084 0.211080 -0.624993
v 0.340642 0.072328 -0.468854
v 0.551171 0.072328 -0.179086
v 0.734723 0.211080 -0.238726
v 0.454084 0.211081 0.624993
v 0.340643 0.072328 0.468854
v 0.000000 0.072328 0.579536
v 0.000000 0.211081 0.772534
v 0.000000 0.211080 -0.772534
v 0.000000 0.072328 -0.579536
v 0.340642 0.072328 -0.468854
v 0.454084 0.211080 -0.624993
v 0.734723 0.211080 0.238726
v 0.551171 0.072328 0.179086
v 0.340643 0.072328 0.468854
v 0.454084 0.211081 0.624993
v 0.000000 0.107911 -0.748675
v -0.440060 0.107911 -0.605690
v -0.536861 0.211080 -0.738926
v 0.000000 0.211080 -0.913362
v 0.000000 0.107911 -0.748675
v 0.000000 0.041538 -0.523468
v -0.307687 0.041538 -0.423494
v -0.440060 0.107911 -0.605690
v 0.000000 0.041538 -0.523468
v 0.000000 0.008435 -0.306185
v -0.179971 0.008435 -0.247709
v -0.307687 0.041538 -0.423494
v -0.440060 0.107911 -0.605690
v -0.307687 0.041538 -0.423494
v -0.497847 0.041538 -0.161760
v -0.712032 0.107911 -0.231353
v -0.307687 0.041538 -0.423494
v -0.179971 0.008435 -0.247709
v -0.291199 0.008435 -0.094616
v -0.497847 0.041538 -0.161760
v -0.712032 0.107911 -0.231353
v -0.497847 0.041538 -0.161760
v -0.497847 0.041539 0.161760
v -0.712032 0.107911 0.231353
v -0.497847 0.041538 -0.161760
v -0.291199 0.008435 -0.094616
v -0.291199 0.008435 0.094616
v -0.497847 0.041539 0.161760
v -0.712032 0.107911 0.231353
v -0.497847 0.041539 0.161760
v -0.307687 0.041539 0.423494
v -0.440060 0.107911 0.605690
v -0.497847 0.041539 0.161760
v -0.291199 0.008435 0.094616
v -0.179971 0.008435 0.247709
v -0.307687 0.041539 0.423494
v -0.440060 0.107911 0.605690
v 0.000000 0.107911 0.748675
v 0.000000 0.211081 0.913362
v -0.536861 0.211081 0.738926
v -0.440060 0.107911 0.605690
v -0.307687 0.041539 0.423494
v 0.000000 0.041539 0.523468
v 0.000000 0.107911 0.748675
v 0.000000 0.107911 0.748675
v 0.000000 0.041539 0.523468
v 0.307687 0.041539 0.423494
v 0.440060 0.107911 0.605690
v 0.000000 0.041539 0.523468
v 0.000000 0.008435 0.306185
v 0.179971 0.008435 0.247709
v 0.307687 0.041539 0.423494
v 0.440060 0.107911 0.605690
v 0.307687 0.041539 0.423494
v 0.497847 0.041539 0.161760
v 0.712032 0.107911 0.231353
v 0.307687 0.041539 0.423494
v 0.179971 0.008435 0.247709
v 0.291199 0.008435 0.094616
v 0.497847 0.041539 0.161760
v 0.712032 0.107911 0.231353
v 0.497847 0.041539 0.161760
v 0.497847 0.041538 -0.161761
v 0.712032 0.107911 -0.231353
v 0.497847 0.041539 0.161760
v 0.291199 0.008435 0.094616
v 0.291199 0.008435 -0.094616
v 0.497847 0.041538 -0.161761
v 0.712032 0.107911 -0.231353
v 0.497847 0.041538 -0.161761
v 0.307687 0.041538 -0.423494
v 0.440060 0.107911 -0.605691
v 0.497847 0.041538 -0.161761
v 0.291199 0.008435 -0.094616
v 0.179971 0.008435 -0.247709
v 0.307687 0.041538 -0.423494
v 0.440060 0.107911 -0.605691
v 0.307687 0.041538 -0.423494
v 0.000000 0.041538 -0.523468
v 0.000000 0.107911 -0.748675
v 0.307687 0.041538 -0.423494
v 0.179971 0.008435 -0.247709
v 0.000000 0.008435 -0.306185
v 0.000000 0.041538 -0.523468
v -0.179971 0.008435 0.247709
v -0.291199 0.008435 0.094616
v -0.291199 0.008435 -0.094616
v -0.179971 0.008435 -0.247709
v 0.000000 0.008435 -0.306185
v 0.000000 0.008435 0.306185
v 0.179971 0.008435 -0.247709
v 0.179971 0.008435 0.247709
v 0.291199 0.008435 -0.094616
v 0.291199 0.008435 0.094616
v -0.536861 0.211080 -0.738926
v -0.522895 0.263166 -0.719703
v 0.000000 0.263166 -0.889602
v 0.000000 0.211080 -0.913362
v -0.868659 0.211080 -0.282244
v -0.846062 0.263166 -0.274902
v -0.522895 0.263166 -0.719703
v -0.536861 0.211080 -0.738926
v -0.868659 0.211080 0.282244
v -0.846062 0.263166 0.274902
v -0.846062 0.263166 -0.274902
v -0.868659 0.211080 -0.282244
v -0.536861 0.211081 0.738926
v -0.522895 0.263166 0.719703
v -0.846062 0.263166 0.274902
v -0.868659 0.211080 0.282244
v 0.536861 0.211081 0.738925
v 0.522895 0.263166 0.719703
v 0.000000 0.263166 0.889602
v 0.000000 0.211081 0.913362
v 0.868659 0.211080 0.282244
v 0.846062 0.263166 0.274902
v 0.522895 0.263166 0.719703
v 0.536861 0.211081 0.738925
v 0.868659 0.211080 -0.282245
v 0.846062 0.263166 -0.274902
v 0.846062 0.263166 0.274902
v 0.868659 0.211080 0.282244
v 0.536861 0.211080 -0.738926
v 0.522895 0.263166 -0.719703
v 0.846062 0.263166 -0.274902
v 0.868659 0.211080 -0.282245
v 0.000000 0.211080 -0.913362
v 0.000000 0.263166 -0.889602
v 0.522895 0.263166 -0.719703
v 0.536861 0.211080 -0.738926
v -0.496705 0.251308 -0.683655
v -0.454084 0.211080 -0.624993
v 0.000000 0.211080 -0.772534
v 0.000000 0.251308 -0.845044
v -0.803685 0.251308 -0.261133
v -0.734723 0.211080 -0.238726
v -0.454084 0.211080 -0.624993
v -0.496705 0.251308 -0.683655
v -0.803685 0.251308 0.261133
v -0.734723 0.211080 0.238726
v -0.734723 0.211080 -0.238726
v -0.803685 0.251308 -0.261133
v -0.496705 0.251308 0.683655
v -0.454084 0.211081 0.624993
v -0.734723 0.211080 0.238726
v -0.803685 0.251308 0.261133
v 0.000000 0.263166 0.889602
v 0.000000 0.251308 0.845044
v -0.496705 0.251308 0.683655
v -0.522895 0.263166 0.719703
v 0.496705 0.251308 0.683655
v 0.454084 0.211081 0.624993
v 0.000000 0.211081 0.772534
v 0.000000 0.251308 0.845044
v 0.803685 0.251308 0.261133
v 0.734723 0.211080 0.238726
v 0.454084 0.211081 0.624993
v 0.496705 0.251308 0.683655
v 0.803685 0.251308 -0.261133
v 0.734723 0.211080 -0.238726
v 0.734723 0.211080 0.238726
v 0.803685 0.251308 0.261133
v 0.496704 0.251308 -0.683656
v 0.454084 0.211080 -0.624993
v 0.734723 0.211080 -0.238726
v 0.803685 0.251308 -0.261133
v 0.000000 0.251308 -0.845044
v 0.000000 0.211080 -0.772534
v 0.454084 0.211080 -0.624993
v 0.496704 0.251308 -0.683656
v -0.522895 0.263166 -0.719703
v -0.496705 0.251308 -0.683655
v 0.000000 0.251308 -0.845044
v 0.000000 0.263166 -0.889602
v -0.307687 0.041539 0.423494
v -0.179971 0.008435 0.247709
v 0.000000 0.008435 0.306185
v 0.000000 0.041539 0.523468
v -0.340643 0.072328 0.468854
v -0.454084 0.211081 0.624993
v 0.000000 0.211081 0.772534
v 0.000000 0.072328 0.579536
vn -0.083270 0.963009 0.256279
vn -0.083270 0.963009 0.256279
vn -0.083270 0.963009 0.256279
vn -0.083270 0.963009 0.256279
vn -0.283486 0.398010 0.872481
vn -0.283486 0.398010 0.872481
vn -0.283486 0.398010 0.872481
vn -0.283486 0.398010 0.872481
vn -0.083270 0.963009 -0.256279
vn -0.083270 0.963009 -0.256279
vn -0.083270 0.963009 -0.256279
vn -0.083270 0.963009 -0.256279
vn -0.218004 0.963010 -0.158389
vn -0.218004 0.963010 -0.158389
vn -0.218004 0.963010 -0.158389
vn -0.218004 0.963010 -0.158389
vn -0.269467 0.963010 0.000000
vn -0.269467 0.963010 0.000000
vn -0.269467 0.963010 0.000000
vn -0.269467 0.963010 0.000000
vn -0.218004 0.963010 0.158389
vn -0.218004 0.963010 0.158389
vn -0.218004 0.963010 0.158389
vn -0.218004 0.963010 0.158389
vn 0.186345 0.797723 0.573510
vn 0.186345 0.797723 0.573510
vn 0.186345 0.797723 0.573510
vn 0.186345 0.797723 0.573510
vn 0.218004 0.963009 -0.158389
vn 0.218004 0.963009 -0.158389
vn 0.218004 0.963009 -0.158389
vn 0.218004 0.963009 -0.158389
vn 0.269468 0.963009 0.000000
vn 0.269468 0.963009 0.000000
vn 0.269468 0.963009 0.000000
vn 0.269468 0.963009 0.000000
vn -0.445027 -0.835110 -0.323331
vn -0.445027 -0.835110 -0.323331
vn -0.445027 -0.835110 -0.323331
vn -0.445027 -0.835110 -0.323331
vn 0.487856 0.797723 -0.354449
vn 0.487856 0.797723 -0.354449
vn 0.487856 0.797723 -0.354449
vn 0.487856 0.797723 -0.354449
vn 0.218004 0.963009 0.158389
vn 0.218004 0.963009 0.158389
vn 0.218004 0.963009 0.158389
vn 0.218004 0.963009 0.158389
vn 0.445027 -0.835110 -0.323331
vn 0.445027 -0.835110 -0.323331
vn 0.445027 -0.835110 -0.323331
vn 0.445027 -0.835110 -0.323331
vn 0.550084 -0.835110 0.000000
vn 0.550084 -0.835110 0.000000
vn 0.550084 -0.835110 0.000000
vn 0.550084 -0.835110 0.000000
vn 0.445027 -0.835110 0.323331
vn 0.445027 -0.835110 0.323331
vn 0.445027 -0.835110 0.323331
vn 0.445027 -0.835110 0.323331
vn 0.169985 -0.835110 0.523161
vn 0.169985 -0.835110 0.523161
vn 0.169985 -0.835110 0.523161
vn 0.169985 -0.835110 0.523161
vn -0.445027 -0.835110 0.323331
vn -0.445027 -0.835110 0.323331
vn -0.445027 -0.835110 0.323331
vn -0.445027 -0.835110 0.323331
vn 0.169985 -0.835110 -0.523161
vn 0.169985 -0.835110 -0.523161
vn 0.169985 -0.835110 -0.523161
vn 0.169985 -0.835110 -0.523161
vn -0.550084 -0.835110 0.000000
vn -0.550084 -0.835110 0.000000
vn -0.550084 -0.835110 0.000000
vn -0.550084 -0.835110 0.000000
vn 0.000000 1.000000 0.000000
vn 0.000000 1.000000 0.000000
vn 0.000000 1.000000 0.000000
vn 0.000000 1.000000 0.000000
vn 0.000000 1.000000 0.000000
vn 0.000000 1.000000 0.000000
vn 0.000000 1.000000 0.000000
vn 0.000000 1.000000 0.000000
vn 0.000000 1.000000 0.000000
vn 0.000000 1.000000 0.000000
vn 0.603024 0.797723 0.000000
vn 0.603024 0.797723 0.000000
vn 0.603024 0.797723 0.000000
vn 0.603024 0.797723 0.000000
vn -0.603024 0.797723 0.000000
vn -0.603024 0.797723 0.000000
vn -0.603024 0.797723 0.000000
vn -0.603024 0.797723 0.000000
vn 0.155704 0.863780 -0.479208
vn 0.155704 0.863780 -0.479208
vn 0.155704 0.863780 -0.479208
vn 0.155704 0.863780 -0.479208
vn 0.487856 0.797723 0.354448
vn 0.487856 0.797723 0.354448
vn 0.487856 0.797723 0.354448
vn 0.487856 0.797723 0.354448
vn -0.487856 0.797723 0.354448
vn -0.487856 0.797723 0.354448
vn -0.487856 0.797723 0.354448
vn -0.487856 0.797723 0.354448
vn -0.186345 0.797723 -0.573510
vn -0.186345 0.797723 -0.573510
vn -0.186345 0.797723 -0.573510
vn -0.186345 0.797723 -0.573510
vn -0.186344 0.797724 0.573509
vn -0.186344 0.797724 0.573509
vn -0.186344 0.797724 0.573509
vn -0.186344 0.797724 0.573509
vn -0.487857 0.797723 -0.354448
vn -0.487857 0.797723 -0.354448
vn -0.487857 0.797723 -0.354448
vn -0.487857 0.797723 -0.354448
vn -0.169985 -0.835110 -0.523161
vn -0.169985 -0.835110 -0.523161
vn -0.169985 -0.835110 -0.523161
vn -0.169985 -0.835110 -0.523161
vn -0.091468 -0.955189 -0.281510
vn -0.091468 -0.955189 -0.281510
vn -0.091468 -0.955189 -0.281510
vn -0.091468 -0.955189 -0.281510
vn -0.048879 -0.987411 -0.150434
vn -0.048879 -0.987411 -0.150434
vn -0.048879 -0.987411 -0.150434
vn -0.048879 -0.987411 -0.150434
vn -0.239466 -0.955189 -0.173983
vn -0.239466 -0.955189 -0.173983
vn -0.239466 -0.955189 -0.173983
vn -0.239466 -0.955189 -0.173983
vn -0.127967 -0.987411 -0.092973
vn -0.127967 -0.987411 -0.092973
vn -0.127967 -0.987411 -0.092973
vn -0.127967 -0.987411 -0.092973
vn -0.295997 -0.955189 0.000000
vn -0.295997 -0.955189 0.000000
vn -0.295997 -0.955189 0.000000
vn -0.295997 -0.955189 0.000000
vn -0.158176 -0.987411 0.000000
vn -0.158176 -0.987411 0.000000
vn -0.158176 -0.987411 0.000000
vn -0.158176 -0.987411 0.000000
vn -0.239467 -0.955189 0.173983
vn -0.239467 -0.955189 0.173983
vn -0.239467 -0.955189 0.173983
vn -0.239467 -0.955189 0.173983
vn -0.127967 -0.987411 0.092974
vn -0.127967 -0.987411 0.092974
vn -0.127967 -0.987411 0.092974
vn -0.127967 -0.987411 0.092974
vn -0.169985 -0.835109 0.523161
vn -0.169985 -0.835109 0.523161
vn -0.169985 -0.835109 0.523161
vn -0.169985 -0.835109 0.523161
vn -0.091468 -0.955189 0.281510
vn -0.091468 -0.955189 0.281510
vn -0.091468 -0.955189 0.281510
vn -0.091468 -0.955189 0.281510
vn 0.091468 -0.955189 0.281510
vn 0.091468 -0.955189 0.281510
vn 0.091468 -0.955189 0.281510
vn 0.091468 -0.955189 0.281510
vn 0.048879 -0.987411 0.150434
vn 0.048879 -0.987411 0.150434
vn 0.048879 -0.987411 0.150434
vn 0.048879 -0.987411 0.150434
vn 0.239467 -0.955189 0.173983
vn 0.239467 -0.955189 0.173983
vn 0.239467 -0.955189 0.173983
vn 0.239467 -0.955189 0.173983
vn 0.127967 -0.987411 0.092974
vn 0.127967 -0.987411 0.092974
vn 0.127967 -0.987411 0.092974
vn 0.127967 -0.987411 0.092974
vn 0.295997 -0.955189 0.000000
vn 0.295997 -0.955189 0.000000
vn 0.295997 -0.955189 0.000000
vn 0.295997 -0.955189 0.000000
vn 0.158176 -0.987411 0.000000
vn 0.158176 -0.987411 0.000000
vn 0.158176 -0.987411 0.000000
vn 0.158176 -0.987411 0.000000
vn 0.239467 -0.955189 -0.173983
vn 0.239467 -0.955189 -0.173983
vn 0.239467 -0.955189 -0.173983
vn 0.239467 -0.955189 -0.173983
vn 0.127967 -0.987411 -0.092973
vn 0.127967 -0.987411 -0.092973
vn 0.127967 -0.987411 -0.092973
vn 0.127967 -0.987411 -0.092973
vn 0.091468 -0.955189 -0.281510
vn 0.091468 -0.955189 -0.281510
vn 0.091468 -0.955189 -0.281510
vn 0.091468 -0.955189 -0.281510
vn 0.048879 -0.987411 -0.150434
vn 0.048879 -0.987411 -0.150434
vn 0.048879 -0.987411 -0.150434
vn 0.048879 -0.987411 -0.150434
vn 0.000000 -1.000000 0.000000
vn 0.000000 -1.000000 0.000000
vn 0.000000 -1.000000 0.000000
vn 0.000000 -1.000000 0.000000
vn 0.000000 -1.000000 0.000000
vn 0.000000 -1.000000 0.000000
vn 0.000000 -1.000000 0.000000
vn 0.000000 -1.000000 0.000000
vn 0.000000 -1.000000 0.000000
vn 0.000000 -1.000000 0.000000
vn -0.283486 0.398011 -0.872481
vn -0.283486 0.398011 -0.872481
vn -0.283486 0.398011 -0.872481
vn -0.283486 0.398011 -0.872481
vn -0.742177 0.398010 -0.539223
vn -0.742177 0.398010 -0.539223
vn -0.742177 0.398010 -0.539223
vn -0.742177 0.398010 -0.539223
vn -0.917381 0.398010 0.000000
vn -0.917381 0.398010 0.000000
vn -0.917381 0.398010 0.000000
vn -0.917381 0.398010 0.000000
vn -0.742177 0.398010 0.539223
vn -0.742177 0.398010 0.539223
vn -0.742177 0.398010 0.539223
vn -0.742177 0.398010 0.539223
vn 0.283486 0.398011 0.872481
vn 0.283486 0.398011 0.872481
vn 0.283486 0.398011 0.872481
vn 0.283486 0.398011 0.872481
vn 0.742177 0.398009 0.539223
vn 0.742177 0.398009 0.539223
vn 0.742177 0.398009 0.539223
vn 0.742177 0.398009 0.539223
vn 0.917381 0.398010 0.000000
vn 0.917381 0.398010 0.000000
vn 0.917381 0.398010 0.000000
vn 0.917381 0.398010 0.000000
vn 0.742177 0.398010 -0.539223
vn 0.742177 0.398010 -0.539223
vn 0.742177 0.398010 -0.539223
vn 0.742177 0.398010 -0.539223
vn 0.283486 0.398011 -0.872481
vn 0.283486 0.398011 -0.872481
vn 0.283486 0.398011 -0.872481
vn 0.283486 0.398011 -0.872481
vn 0.155704 0.863780 0.479208
vn 0.155704 0.863780 0.479208
vn 0.155704 0.863780 0.479208
vn 0.155704 0.863780 0.479208
vn 0.407639 0.863780 0.296167
vn 0.407639 0.863780 0.296167
vn 0.407639 0.863780 0.296167
vn 0.407639 0.863780 0.296167
vn 0.503869 0.863780 0.000000
vn 0.503869 0.863780 0.000000
vn 0.503869 0.863780 0.000000
vn 0.503869 0.863780 0.000000
vn 0.407639 0.863780 -0.296167
vn 0.407639 0.863780 -0.296167
vn 0.407639 0.863780 -0.296167
vn 0.407639 0.863780 -0.296167
vn 0.083270 0.963010 -0.256279
vn 0.083270 0.963010 -0.256279
vn 0.083270 0.963010 -0.256279
vn 0.083270 0.963010 -0.256279
vn -0.155704 0.863780 -0.479208
vn -0.155704 0.863780 -0.479208
vn -0.155704 0.863780 -0.479208
vn -0.155704 0.863780 -0.479208
vn -0.407639 0.863780 -0.296167
vn -0.407639 0.863780 -0.296167
vn -0.407639 0.863780 -0.296167
vn -0.407639 0.863780 -0.296167
vn -0.503870 0.863780 0.000000
vn -0.503870 0.863780 0.000000
vn -0.503870 0.863780 0.000000
vn -0.503870 0.863780 0.000000
vn -0.407639 0.863780 0.296167
vn -0.407639 0.863780 0.296167
vn -0.407639 0.863780 0.296167
vn -0.407639 0.863780 0.296167
vn -0.155704 0.863780 0.479208
vn -0.155704 0.863780 0.479208
vn -0.155704 0.863780 0.479208
vn -0.155704 0.863780 0.479208
vn 0.083270 0.963009 0.256279
vn 0.083270 0.963009 0.256279
vn 0.083270 0.963009 0.256279
vn 0.083270 0.963009 0.256279
vn -0.048879 -0.987411 0.150434
vn -0.048879 -0.987411 0.150434
vn -0.048879 -0.987411 0.150434
vn -0.048879 -0.987411 0.150434
vn 0.186345 0.797723 -0.573510
vn 0.186345 0.797723 -0.573510
vn 0.186345 0.797723 -0.573510
vn 0.186345 0.797723 -0.573510
g Plate_White
usemtl White
f 1 2 3
f 1 3 4
f 5 6 7
f 5 7 8
f 9 10 11
f 9 11 12
f 13 14 15
f 13 15 16
f 17 18 19
f 17 19 20
f 21 22 23
f 21 23 24
f 25 26 27
f 25 27 28
f 29 30 31
f 29 31 32
f 33 34 35
f 33 35 36
f 37 38 39
f 37 39 40
f 41 42 43
f 41 43 44
f 45 46 47
f 45 47 48
f 49 50 51
f 49 51 52
f 53 54 55
f 53 55 56
f 57 58 59
f 57 59 60
f 61 62 63
f 61 63 64
f 65 66 67
f 65 67 68
f 69 70 71
f 69 71 72
f 73 74 75
f 73 75 76
f 77 78 79
f 79 80 77
f 80 81 77
f 80 82 81
f 82 83 81
f 82 84 83
f 84 85 83
f 84 86 85
f 87 88 89
f 87 89 90
f 91 92 93
f 91 93 94
f 95 96 97
f 95 97 98
f 99 100 101
f 99 101 102
f 103 104 105
f 103 105 106
f 107 108 109
f 107 109 110
f 111 112 113
f 111 113 114
f 115 116 117
f 115 117 118
f 119 120 121
f 119 121 122
f 123 124 125
f 123 125 126
f 127 128 129
f 127 129 130
f 131 132 133
f 131 133 134
f 135 136 137
f 135 137 138
f 139 140 141
f 139 141 142
f 143 144 145
f 143 145 146
f 147 148 149
f 147 149 150
f 151 152 153
f 151 153 154
f 155 156 157
f 155 157 158
f 159 160 161
f 159 161 162
f 163 164 165
f 163 165 166
f 167 168 169
f 167 169 170
f 171 172 173
f 171 173 174
f 175 176 177
f 175 177 178
f 179 180 181
f 179 181 182
f 183 184 185
f 183 185 186
f 187 188 189
f 187 189 190
f 191 192 193
f 191 193 194
f 195 196 197
f 195 197 198
f 199 200 201
f 199 201 202
f 203 204 205
f 205 206 203
f 206 207 203
f 207 208 203
f 207 209 208
f 209 210 208
f 209 211 210
f 211 212 210
f 213 214 215
f 213 215 216
f 217 218 219
f 217 219 220
f 221 222 223
f 221 223 224
f 225 226 227
f 225 227 228
f 229 230 231
f 229 231 232
f 233 234 235
f 233 235 236
f 237 238 239
f 237 239 240
f 241 242 243
f 241 243 244
f 245 246 247
f 245 247 248
f 249 250 251
f 249 251 252
f 253 254 255
f 253 255 256
f 257 258 259
f 257 259 260
f 261 262 263
f 261 263 264
f 265 266 267
f 265 267 268
f 269 270 271
f 269 271 272
f 273 274 275
f 273 275 276
f 277 278 279
f 277 279 280
f 281 282 283
f 281 283 284
f 285 286 287
f 285 287 288
f 289 290 291
f 289 291 292
f 293 294 295
f 293 295 296
f 297 298 299
f 297 299 300
