mtllib Materials.mtl
# Ultimate Food Pack - Popsicle_Strawberry
o Popsicle_Strawberry
v 0.035528 -0.227771 0.008705
v 0.035528 -0.227771 -0.008705
v 0.035528 0.263277 -0.008705
v 0.035528 0.263277 0.008705
v -0.035528 -0.227771 0.008705
v -0.019923 -0.263277 0.008536
v 0.019923 -0.263277 0.008536
v 0.035528 -0.227771 0.008705
v -0.035528 0.263277 0.008705
v 0.035528 0.263277 0.008705
v -0.035528 -0.227771 -0.008705
v -0.035528 -0.227771 0.008705
v -0.035528 0.263277 0.008705
v -0.035528 0.263277 -0.008705
v 0.035528 -0.227771 -0.008705
v 0.019923 -0.263277 -0.008536
v -0.019923 -0.263277 -0.008536
v -0.035528 -0.227771 -0.008705
v 0.035528 0.263277 -0.008705
v -0.035528 0.263277 -0.008705
v -0.035528 0.263277 0.008705
v 0.035528 0.263277 0.008705
v 0.035528 0.263277 -0.008705
v -0.035528 0.263277 -0.008705
v -0.019923 -0.263277 0.008536
v -0.035528 -0.227771 0.008705
v -0.035528 -0.227771 -0.008705
v -0.019923 -0.263277 -0.008536
v 0.019923 -0.263277 -0.008536
v 0.035528 -0.227771 -0.008705
v 0.035528 -0.227771 0.008705
v 0.019923 -0.263277 0.008536
v -0.019923 -0.263277 -0.008536
v 0.019923 -0.263277 -0.008536
v 0.019923 -0.263277 0.008536
v -0.019923 -0.263277 0.008536
v -0.120088 0.040664 0.039922
v -0.120088 0.040664 -0.039922
v 0.000000 0.040664 -0.039922
v 0.000000 0.040664 0.039922
v 0.120088 0.040664 -0.039922
v 0.120088 0.040664 0.039922
v -0.145551 0.559883 0.038967
v -0.133091 0.632895 0.038967
v -0.133091 0.632895 -0.038968
v -0.145551 0.559883 -0.038968
v 0.145551 0.077011 -0.038968
v 0.120088 0.040664 -0.039922
v 0.000000 0.040664 -0.039922
v 0.000000 0.559883 -0.038968
v -0.120088 0.040664 -0.039922
v 0.145551 0.559883 -0.038968
v -0.145551 0.077011 -0.038968
v 0.133091 0.632895 -0.038968
v -0.145551 0.559883 -0.038968
v 0.000000 0.632895 -0.038968
v 0.096384 0.685925 -0.038968
v -0.133091 0.632895 -0.038968
v 0.000000 0.685925 -0.038968
v 0.042326 0.716588 -0.038968
v -0.096384 0.685925 -0.038968
v 0.000000 0.726727 -0.038968
v -0.042326 0.716588 -0.038968
v 0.145551 0.559883 -0.038968
v 0.133091 0.632895 -0.038968
v 0.133091 0.632895 0.038967
v 0.145551 0.559883 0.038967
v 0.096384 0.685925 -0.038968
v 0.042326 0.716588 -0.038968
v 0.042326 0.716588 0.038967
v 0.096384 0.685925 0.038967
v 0.133091 0.632895 -0.038968
v 0.096384 0.685925 -0.038968
v 0.096384 0.685925 0.038967
v 0.133091 0.632895 0.038967
v -0.133091 0.632895 0.038967
v -0.096384 0.685925 0.038967
v -0.096384 0.685925 -0.038968
v -0.133091 0.632895 -0.038968
v 0.000000 0.726727 0.038967
v 0.042326 0.716588 0.038967
v 0.042326 0.716588 -0.038968
v 0.000000 0.726727 -0.038968
v -0.096384 0.685925 0.038967
v -0.042326 0.716588 0.038967
v -0.042326 0.716588 -0.038968
v -0.096384 0.685925 -0.038968
v 0.096384 0.685925 0.038967
v 0.042326 0.716588 0.038967
v 0.000000 0.726727 0.038967
v 0.000000 0.685925 0.038967
v -0.042326 0.716588 0.038967
v 0.133091 0.632895 0.038967
v -0.096384 0.685925 0.038967
v 0.000000 0.632895 0.038967
v 0.145551 0.559883 0.038967
v 0.000000 0.559883 0.038967
v -0.133091 0.632895 0.038967
v 0.145551 0.077011 0.038967
v -0.145551 0.559883 0.038967
v 0.120088 0.040664 0.039922
v -0.145551 0.077011 0.038968
v 0.000000 0.040664 0.039922
v -0.120088 0.040664 0.039922
v -0.042326 0.716588 0.038967
v 0.000000 0.726727 0.038967
v 0.000000 0.726727 -0.038968
v -0.042326 0.716588 -0.038968
v -0.145551 0.077011 0.038968
v -0.145551 0.559883 0.038967
v -0.145551 0.559883 -0.038968
v -0.145551 0.077011 -0.038968
v -0.145551 0.077011 -0.038968
v -0.120088 0.040664 -0.039922
v -0.120088 0.040664 0.039922
v -0.145551 0.077011 0.038968
v 0.145551 0.077011 0.038967
v 0.120088 0.040664 0.039922
v 0.120088 0.040664 -0.039922
v 0.145551 0.077011 -0.038968
v 0.145551 0.077011 -0.038968
v 0.145551 0.559883 -0.038968
v 0.145551 0.559883 0.038967
v 0.145551 0.077011 0.038967
vn 1.000000 0.000000 0.000000
vn 1.000000 0.000000 0.000000
vn 1.000000 0.000000 0.000000
vn 1.000000 0.000000 0.000000
vn 0.000000 -0.000254 1.000000
vn 0.000000 -0.000254 1.000000
vn 0.000000 -0.000254 1.000000
vn 0.000000 -0.000254 1.000000
vn 0.000000 -0.000254 1.000000
vn 0.000000 -0.000254 1.000000
vn -1.000000 0.000000 0.000000
vn -1.000000 0.000000 0.000000
vn -1.000000 0.000000 0.000000
vn -1.000000 0.000000 0.000000
vn 0.000000 -0.000255 -1.000000
vn 0.000000 -0.000255 -1.000000
vn 0.000000 -0.000255 -1.000000
vn 0.000000 -0.000255 -1.000000
vn 0.000000 -0.000255 -1.000000
vn 0.000000 -0.000255 -1.000000
vn 0.000000 1.000000 0.000000
vn 0.000000 1.000000 0.000000
vn 0.000000 1.000000 0.000000
vn 0.000000 1.000000 0.000000
vn -0.915480 -0.402364 0.000000
vn -0.915480 -0.402364 0.000000
vn -0.915480 -0.402364 0.000000
vn -0.915480 -0.402364 0.000000
vn 0.915480 -0.402364 0.000000
vn 0.915480 -0.402364 0.000000
vn 0.915480 -0.402364 0.000000
vn 0.915480 -0.402364 0.000000
vn 0.000000 -1.000000 0.000000
vn 0.000000 -1.000000 0.000000
vn 0.000000 -1.000000 0.000000
vn 0.000000 -1.000000 0.000000
vn 0.000000 -1.000000 0.000000
vn 0.000000 -1.000000 0.000000
vn 0.000000 -1.000000 0.000000
vn 0.000000 -1.000000 0.000000
vn 0.000000 -1.000000 0.000000
vn 0.000000 -1.000000 0.000000
vn -0.985749 0.168222 0.000000
vn -0.985749 0.168222 0.000000
vn -0.985749 0.168222 0.000000
vn -0.985749 0.168222 0.000000
vn 0.003067 0.001687 -0.999994
vn 0.003067 0.001687 -0.999994
vn 0.003067 0.001687 -0.999994
vn 0.003067 0.001687 -0.999994
vn -0.003067 0.001687 -0.999994
vn 0.003067 0.001687 -0.999994
vn -0.003067 0.001687 -0.999994
vn 0.000000 0.000000 -1.000000
vn -0.003067 0.001687 -0.999994
vn 0.000000 0.000000 -1.000000
vn 0.000000 0.000000 -1.000000
vn 0.000000 0.000000 -1.000000
vn 0.000000 0.000000 -1.000000
vn 0.000000 0.000000 -1.000000
vn 0.000000 0.000000 -1.000000
vn 0.000000 0.000000 -1.000000
vn 0.000000 0.000000 -1.000000
vn 0.985749 0.168222 0.000000
vn 0.985749 0.168222 0.000000
vn 0.985749 0.168222 0.000000
vn 0.985749 0.168222 0.000000
vn 0.493374 0.869817 0.000000
vn 0.493374 0.869817 0.000000
vn 0.493374 0.869817 0.000000
vn 0.493374 0.869817 0.000000
vn 0.822236 0.569146 0.000000
vn 0.822236 0.569146 0.000000
vn 0.822236 0.569146 0.000000
vn 0.822236 0.569146 0.000000
vn -0.822236 0.569146 0.000000
vn -0.822236 0.569146 0.000000
vn -0.822236 0.569146 0.000000
vn -0.822236 0.569146 0.000000
vn 0.232967 0.972485 0.000000
vn 0.232967 0.972485 0.000000
vn 0.232967 0.972485 0.000000
vn 0.232967 0.972485 0.000000
vn -0.493374 0.869817 0.000000
vn -0.493374 0.869817 0.000000
vn -0.493374 0.869817 0.000000
vn -0.493374 0.869817 0.000000
vn 0.000000 0.000000 1.000000
vn 0.000000 0.000000 1.000000
vn 0.000000 0.000000 1.000000
vn 0.000000 0.000000 1.000000
vn 0.000000 0.000000 1.000000
vn 0.000000 0.000000 1.000000
vn 0.000000 0.000000 1.000000
vn 0.000000 0.000000 1.000000
vn 0.000000 0.000000 1.000000
vn 0.000000 0.000000 1.000000
vn 0.000000 0.000000 1.000000
vn 0.003067 0.001688 0.999994
vn 0.000000 0.000000 1.000000
vn 0.003067 0.001688 0.999994
vn -0.003067 0.001688 0.999994
vn 0.003067 0.001688 0.999994
vn -0.003067 0.001688 0.999994
vn -0.232967 0.972485 0.000000
vn -0.232967 0.972485 0.000000
vn -0.232967 0.972485 0.000000
vn -0.232967 0.972485 0.000000
vn -1.000000 0.000000 0.000000
vn -1.000000 0.000000 0.000000
vn -1.000000 0.000000 0.000000
vn -1.000000 0.000000 0.000000
vn -0.819025 -0.573758 0.000000
vn -0.819025 -0.573758 0.000000
vn -0.819025 -0.573758 0.000000
vn -0.819025 -0.573758 0.000000
vn 0.819025 -0.573758 0.000000
vn 0.819025 -0.573758 0.000000
vn 0.819025 -0.573758 0.000000
vn 0.819025 -0.573758 0.000000
vn 1.000000 0.000000 0.000000
vn 1.000000 0.000000 0.000000
vn 1.000000 0.000000 0.000000
vn 1.000000 0.000000 0.000000
g Popsicle_Strawberry_Light
usemtl Light
f 1 2 3
f 1 3 4
f 5 6 7
f 7 8 5
f 8 9 5
f 8 10 9
f 11 12 13
f 11 13 14
f 15 16 17
f 17 18 15
f 18 19 15
f 18 20 19
f 21 22 23
f 21 23 24
f 25 26 27
f 25 27 28
f 29 30 31
f 29 31 32
f 33 34 35
f 33 35 36
g Popsicle_Strawberry_PalePink
usemtl PalePink
f 37 38 39
f 37 39 40
f 40 39 41
f 40 41 42
f 43 44 45
f 43 45 46
f 47 48 49
f 49 50 47
f 50 49 51
f 50 52 47
f 51 53 50
f 50 54 52
f 53 55 50
f 50 56 54
f 55 56 50
f 56 57 54
f 55 58 56
f 56 59 57
f 58 59 56
f 59 60 57
f 58 61 59
f 59 62 60
f 61 62 59
f 61 63 62
f 64 65 66
f 64 66 67
f 68 69 70
f 68 70 71
f 72 73 74
f 72 74 75
f 76 77 78
f 76 78 79
f 80 81 82
f 80 82 83
f 84 85 86
f 84 86 87
f 88 89 90
f 88 90 91
f 91 90 92
f 93 88 91
f 91 92 94
f 93 91 95
f 95 91 94
f 96 93 95
f 96 95 97
f 95 94 98
f 97 95 98
f 99 96 97
f 97 98 100
f 101 99 97
f 97 100 102
f 97 103 101
f 103 97 102
f 102 104 103
f 105 106 107
f 105 107 108
f 109 110 111
f 109 111 112
f 113 114 115
f 113 115 116
f 117 118 119
f 117 119 120
f 121 122 123
f 121 123 124
