mtllib Materials.mtl
# Ultimate Food Pack - Popsicle_Multiple
o Popsicle_Multiple
v 0.035528 -0.227771 0.008705
v 0.035528 -0.227771 -0.008705
v 0.035528 0.263277 -0.008705
v 0.035528 0.263277 0.008705
v -0.035528 -0.227771 0.008705
v -0.019923 -0.263277 0.008536
v 0.019923 -0.263277 0.008536
v 0.035528 -0.227771 0.008705
v -0.035528 0.263277 0.008705
v 0.035528 0.263277 0.008705
v -0.035528 -0.227771 -0.008705
v -0.035528 -0.227771 0.008705
v -0.035528 0.263277 0.008705
v -0.035528 0.263277 -0.008705
v 0.035528 -0.227771 -0.008705
v 0.019923 -0.263277 -0.008536
v -0.019923 -0.263277 -0.008536
v -0.035528 -0.227771 -0.008705
v 0.035528 0.263277 -0.008705
v -0.035528 0.263277 -0.008705
v -0.035528 0.263277 0.008705
v 0.035528 0.263277 0.008705
v 0.035528 0.263277 -0.008705
v -0.035528 0.263277 -0.008705
v -0.019923 -0.263277 0.008536
v -0.035528 -0.227771 0.008705
v -0.035528 -0.227771 -0.008705
v -0.019923 -0.263277 -0.008536
v 0.019923 -0.263277 -0.008536
v 0.035528 -0.227771 -0.008705
v 0.035528 -0.227771 0.008705
v 0.019923 -0.263277 0.008536
v -0.019923 -0.263277 -0.008536
v 0.019923 -0.263277 -0.008536
v 0.019923 -0.263277 0.008536
v -0.019923 -0.263277 0.008536
v -0.120088 0.040664 0.039922
v -0.120088 0.040664 -0.039922
v 0.000000 0.040664 -0.039922
v 0.000000 0.040664 0.039922
v 0.120088 0.040664 -0.039922
v 0.120088 0.040664 0.039922
v -0.145551 0.559883 0.038967
v -0.133091 0.632895 0.038967
v -0.133091 0.632895 -0.038968
v -0.145551 0.559883 -0.038968
v 0.145551 0.077011 -0.038968
v 0.120088 0.040664 -0.039922
v 0.000000 0.040664 -0.039922
v 0.000000 0.181248 -0.039411
v 0.145551 0.181197 -0.038968
v -0.120088 0.040664 -0.039922
v -0.145551 0.077011 -0.038968
v -0.145551 0.181197 -0.038968
v 0.000000 0.559883 0.038967
v -0.133091 0.632895 0.038967
v -0.145551 0.559883 0.038967
v 0.000000 0.632895 0.038967
v 0.145551 0.559883 0.038967
v -0.096384 0.685925 0.038967
v 0.133091 0.632895 0.038967
v 0.000000 0.685925 0.038967
v -0.042326 0.716588 0.038967
v 0.096384 0.685925 0.038967
v 0.000000 0.726727 0.038967
v 0.042326 0.716588 0.038967
v 0.000000 0.559883 -0.038968
v 0.133091 0.632895 -0.038968
v 0.145551 0.559883 -0.038968
v 0.000000 0.632895 -0.038968
v -0.145551 0.559883 -0.038968
v 0.096384 0.685925 -0.038968
v -0.133091 0.632895 -0.038968
v 0.000000 0.685925 -0.038968
v 0.042326 0.716588 -0.038968
v -0.096384 0.685925 -0.038968
v 0.000000 0.726727 -0.038968
v -0.042326 0.716588 -0.038968
v 0.145551 0.559883 -0.038968
v 0.133091 0.632895 -0.038968
v 0.133091 0.632895 0.038967
v 0.145551 0.559883 0.038967
v 0.096384 0.685925 -0.038968
v 0.042326 0.716588 -0.038968
v 0.042326 0.716588 0.038967
v 0.096384 0.685925 0.038967
v 0.133091 0.632895 -0.038968
v 0.096384 0.685925 -0.038968
v 0.096384 0.685925 0.038967
v 0.133091 0.632895 0.038967
v -0.133091 0.632895 0.038967
v -0.096384 0.685925 0.038967
v -0.096384 0.685925 -0.038968
v -0.133091 0.632895 -0.038968
v 0.000000 0.726727 0.038967
v 0.042326 0.716588 0.038967
v 0.042326 0.716588 -0.038968
v 0.000000 0.726727 -0.038968
v -0.096384 0.685925 0.038967
v -0.042326 0.716588 0.038967
v -0.042326 0.716588 -0.038968
v -0.096384 0.685925 -0.038968
v -0.042326 0.716588 0.038967
v 0.000000 0.726727 0.038967
v 0.000000 0.726727 -0.038968
v -0.042326 0.716588 -0.038968
v 0.145551 0.077011 0.038967
v 0.145551 0.181197 0.038967
v 0.000000 0.181298 0.039411
v 0.120088 0.040664 0.039922
v 0.000000 0.040664 0.039922
v -0.145551 0.077011 0.038968
v -0.120088 0.040664 0.039922
v -0.145551 0.181197 0.038967
v -0.145551 0.077011 -0.038968
v -0.120088 0.040664 -0.039922
v -0.120088 0.040664 0.039922
v -0.145551 0.077011 0.038968
v 0.145551 0.077011 0.038967
v 0.120088 0.040664 0.039922
v 0.120088 0.040664 -0.039922
v 0.145551 0.077011 -0.038968
v -0.145551 0.077011 0.038968
v -0.145551 0.181197 0.038967
v -0.145551 0.181197 -0.038968
v -0.145551 0.077011 -0.038968
v 0.145551 0.077011 -0.038968
v 0.145551 0.181197 -0.038968
v 0.145551 0.181197 0.038967
v 0.145551 0.077011 0.038967
v -0.145551 0.434628 0.038967
v -0.145551 0.559883 0.038967
v -0.145551 0.559883 -0.038968
v -0.145551 0.434628 -0.038968
v 0.145551 0.434628 -0.038968
v 0.145551 0.559883 -0.038968
v 0.145551 0.559883 0.038967
v 0.145551 0.434628 0.038967
v 0.145551 0.309372 0.038967
v 0.000000 0.309440 0.039263
v -0.145551 0.309372 0.038967
v 0.000000 0.434645 -0.039115
v 0.145551 0.434628 -0.038968
v -0.145551 0.434628 -0.038968
v 0.000000 0.434661 0.039115
v -0.145551 0.434628 0.038967
v 0.145551 0.434628 0.038967
v -0.145551 0.309372 -0.038968
v 0.000000 0.309407 -0.039263
v 0.145551 0.309372 -0.038968
v 0.145551 0.309372 -0.038968
v 0.145551 0.309372 0.038967
v -0.145551 0.309372 0.038967
v -0.145551 0.309372 -0.038968
vn 1.000000 0.000000 0.000000
vn 1.000000 0.000000 0.000000
vn 1.000000 0.000000 0.000000
vn 1.000000 0.000000 0.000000
vn 0.000000 -0.000254 1.000000
vn 0.000000 -0.000254 1.000000
vn 0.000000 -0.000254 1.000000
vn 0.000000 -0.000254 1.000000
vn 0.000000 -0.000254 1.000000
vn 0.000000 -0.000254 1.000000
vn -1.000000 0.000000 0.000000
vn -1.000000 0.000000 0.000000
vn -1.000000 0.000000 0.000000
vn -1.000000 0.000000 0.000000
vn 0.000000 -0.000255 -1.000000
vn 0.000000 -0.000255 -1.000000
vn 0.000000 -0.000255 -1.000000
vn 0.000000 -0.000255 -1.000000
vn 0.000000 -0.000255 -1.000000
vn 0.000000 -0.000255 -1.000000
vn 0.000000 1.000000 0.000000
vn 0.000000 1.000000 0.000000
vn 0.000000 1.000000 0.000000
vn 0.000000 1.000000 0.000000
vn -0.915480 -0.402364 0.000000
vn -0.915480 -0.402364 0.000000
vn -0.915480 -0.402364 0.000000
vn -0.915480 -0.402364 0.000000
vn 0.915480 -0.402364 0.000000
vn 0.915480 -0.402364 0.000000
vn 0.915480 -0.402364 0.000000
vn 0.915480 -0.402364 0.000000
vn 0.000000 -1.000000 0.000000
vn 0.000000 -1.000000 0.000000
vn 0.000000 -1.000000 0.000000
vn 0.000000 -1.000000 0.000000
vn 0.000000 -1.000000 0.000000
vn 0.000000 -1.000000 0.000000
vn 0.000000 -1.000000 0.000000
vn 0.000000 -1.000000 0.000000
vn 0.000000 -1.000000 0.000000
vn 0.000000 -1.000000 0.000000
vn -0.985749 0.168222 0.000000
vn -0.985749 0.168222 0.000000
vn -0.985749 0.168222 0.000000
vn -0.985749 0.168222 0.000000
vn 0.004046 0.004724 -0.999981
vn 0.004046 0.004724 -0.999981
vn 0.004046 0.004724 -0.999981
vn 0.004046 0.004724 -0.999981
vn 0.004046 0.004724 -0.999981
vn -0.004046 0.004724 -0.999981
vn -0.004046 0.004724 -0.999981
vn -0.004046 0.004724 -0.999981
vn 0.000000 0.000000 1.000000
vn 0.000000 0.000000 1.000000
vn 0.000000 0.000000 1.000000
vn 0.000000 0.000000 1.000000
vn 0.000000 0.000000 1.000000
vn 0.000000 0.000000 1.000000
vn 0.000000 0.000000 1.000000
vn 0.000000 0.000000 1.000000
vn 0.000000 0.000000 1.000000
vn 0.000000 0.000000 1.000000
vn 0.000000 0.000000 1.000000
vn 0.000000 0.000000 1.000000
vn 0.000000 0.000000 -1.000000
vn 0.000000 0.000000 -1.000000
vn 0.000000 0.000000 -1.000000
vn 0.000000 0.000000 -1.000000
vn 0.000000 0.000000 -1.000000
vn 0.000000 0.000000 -1.000000
vn 0.000000 0.000000 -1.000000
vn 0.000000 0.000000 -1.000000
vn 0.000000 0.000000 -1.000000
vn 0.000000 0.000000 -1.000000
vn 0.000000 0.000000 -1.000000
vn 0.000000 0.000000 -1.000000
vn 0.985749 0.168222 0.000000
vn 0.985749 0.168222 0.000000
vn 0.985749 0.168222 0.000000
vn 0.985749 0.168222 0.000000
vn 0.493374 0.869817 0.000000
vn 0.493374 0.869817 0.000000
vn 0.493374 0.869817 0.000000
vn 0.493374 0.869817 0.000000
vn 0.822236 0.569146 0.000000
vn 0.822236 0.569146 0.000000
vn 0.822236 0.569146 0.000000
vn 0.822236 0.569146 0.000000
vn -0.822236 0.569146 0.000000
vn -0.822236 0.569146 0.000000
vn -0.822236 0.569146 0.000000
vn -0.822236 0.569146 0.000000
vn 0.232967 0.972485 0.000000
vn 0.232967 0.972485 0.000000
vn 0.232967 0.972485 0.000000
vn 0.232967 0.972485 0.000000
vn -0.493374 0.869817 0.000000
vn -0.493374 0.869817 0.000000
vn -0.493374 0.869817 0.000000
vn -0.493374 0.869817 0.000000
vn -0.232967 0.972485 0.000000
vn -0.232967 0.972485 0.000000
vn -0.232967 0.972485 0.000000
vn -0.232967 0.972485 0.000000
vn 0.004046 0.004723 0.999981
vn 0.004046 0.004723 0.999981
vn 0.004046 0.004723 0.999981
vn 0.004046 0.004723 0.999981
vn 0.004046 0.004723 0.999981
vn -0.004046 0.004723 0.999981
vn -0.004046 0.004723 0.999981
vn -0.004046 0.004723 0.999981
vn -0.819025 -0.573758 0.000000
vn -0.819025 -0.573758 0.000000
vn -0.819025 -0.573758 0.000000
vn -0.819025 -0.573758 0.000000
vn 0.819025 -0.573758 0.000000
vn 0.819025 -0.573758 0.000000
vn 0.819025 -0.573758 0.000000
vn 0.819025 -0.573758 0.000000
vn -1.000000 0.000000 0.000000
vn -1.000000 0.000000 0.000000
vn -1.000000 0.000000 0.000000
vn -1.000000 0.000000 0.000000
vn 1.000000 0.000000 0.000000
vn 1.000000 0.000000 0.000000
vn 1.000000 0.000000 0.000000
vn 1.000000 0.000000 0.000000
vn -1.000000 0.000000 0.000000
vn -1.000000 0.000000 0.000000
vn -1.000000 0.000000 0.000000
vn -1.000000 0.000000 0.000000
vn 1.000000 0.000000 0.000000
vn 1.000000 0.000000 0.000000
vn 1.000000 0.000000 0.000000
vn 1.000000 0.000000 0.000000
vn 0.002540 0.000577 0.999997
vn 0.002540 0.000577 0.999997
vn -0.002540 0.000577 0.999997
vn 0.000508 0.000590 -1.000000
vn 0.000508 0.000590 -1.000000
vn -0.000508 0.000590 -1.000000
vn -0.000508 0.000590 1.000000
vn -0.000508 0.000590 1.000000
vn 0.000508 0.000590 1.000000
vn -0.002540 0.000577 -0.999997
vn -0.002540 0.000577 -0.999997
vn 0.002540 0.000577 -0.999997
vn 1.000000 0.000000 0.000000
vn 1.000000 0.000000 0.000000
vn -1.000000 0.000000 0.000000
vn -1.000000 0.000000 0.000000
g Popsicle_Multiple_Light
usemtl Light
f 1 2 3
f 1 3 4
f 5 6 7
f 7 8 5
f 8 9 5
f 8 10 9
f 11 12 13
f 11 13 14
f 15 16 17
f 17 18 15
f 18 19 15
f 18 20 19
f 21 22 23
f 21 23 24
f 25 26 27
f 25 27 28
f 29 30 31
f 29 31 32
f 33 34 35
f 33 35 36
g Popsicle_Multiple_PalePink
usemtl PalePink
f 37 38 39
f 37 39 40
f 40 39 41
f 40 41 42
f 43 44 45
f 43 45 46
f 47 48 49
f 49 50 47
f 50 51 47
f 50 49 52
f 52 53 50
f 53 54 50
f 55 56 57
f 55 58 56
f 59 58 55
f 58 60 56
f 59 61 58
f 58 62 60
f 61 62 58
f 62 63 60
f 61 64 62
f 62 65 63
f 64 65 62
f 64 66 65
f 67 68 69
f 67 70 68
f 71 70 67
f 70 72 68
f 71 73 70
f 70 74 72
f 73 74 70
f 74 75 72
f 73 76 74
f 74 77 75
f 76 77 74
f 76 78 77
f 79 80 81
f 79 81 82
f 83 84 85
f 83 85 86
f 87 88 89
f 87 89 90
f 91 92 93
f 91 93 94
f 95 96 97
f 95 97 98
f 99 100 101
f 99 101 102
f 103 104 105
f 103 105 106
f 107 108 109
f 110 107 109
f 109 111 110
f 111 109 112
f 112 113 111
f 109 114 112
f 115 116 117
f 115 117 118
f 119 120 121
f 119 121 122
f 123 124 125
f 123 125 126
f 127 128 129
f 127 129 130
g Popsicle_Multiple_PalePink2
usemtl PalePink2
f 131 132 133
f 131 133 134
f 135 136 137
f 135 137 138
f 108 139 140
f 108 140 109
f 109 140 141
f 109 141 114
f 142 69 143
f 142 67 69
f 144 67 142
f 144 71 67
f 145 57 146
f 145 55 57
f 147 55 145
f 147 59 55
f 54 148 149
f 54 149 50
f 50 149 150
f 50 150 51
f 128 151 152
f 128 152 129
f 124 153 154
f 124 154 125
g Popsicle_Multiple_White
usemtl White
f 139 147 145
f 139 145 140
f 140 145 146
f 140 146 141
f 148 144 142
f 148 142 149
f 149 142 143
f 149 143 150
f 151 135 138
f 151 138 152
f 153 131 134
f 153 134 154
