mtllib Materials.mtl
# Ultimate Food Pack - Pumpkin
o Pumpkin
v 0.000000 0.657668 -0.064602
v -0.055947 0.657668 -0.032301
v -0.011769 0.755232 -0.024123
v 0.049487 0.769551 -0.048246
v -0.055947 0.657668 -0.032301
v -0.055947 0.657668 0.032301
v -0.011769 0.755232 0.024123
v -0.011769 0.755232 -0.024123
v -0.055947 0.657668 0.032301
v 0.000000 0.657668 0.064602
v 0.049487 0.769551 0.048246
v -0.011769 0.755232 0.024123
v 0.000000 0.657668 0.064602
v 0.055947 0.657668 0.032301
v 0.091270 0.769551 0.024123
v 0.049487 0.769551 0.048246
v -0.011769 0.755232 0.024123
v -0.044863 0.793692 0.024123
v -0.044863 0.793692 -0.024123
v -0.011769 0.755232 -0.024123
v 0.055947 0.657668 0.032301
v 0.055947 0.657668 -0.032301
v 0.091270 0.769551 -0.024123
v 0.091270 0.769551 0.024123
v 0.055947 0.657668 -0.032301
v 0.000000 0.657668 -0.064602
v 0.049487 0.769551 -0.048246
v 0.091270 0.769551 -0.024123
v -0.055947 0.657668 0.032301
v -0.055947 0.657668 -0.032301
v 0.000000 0.657668 -0.064602
v 0.000000 0.657668 0.064602
v 0.055947 0.657668 -0.032301
v 0.055947 0.657668 0.032301
v -0.009897 0.816564 -0.048246
v -0.023081 0.926753 -0.028684
v 0.001760 0.926689 -0.014342
v 0.025069 0.839436 -0.024123
v 0.091270 0.769551 -0.024123
v 0.025069 0.839436 -0.024123
v 0.025069 0.839436 0.024123
v 0.091270 0.769551 0.024123
v -0.011769 0.755232 -0.024123
v -0.044863 0.793692 -0.024123
v -0.009897 0.816564 -0.048246
v 0.049487 0.769551 -0.048246
v 0.049487 0.769551 0.048246
v -0.009897 0.816564 0.048246
v -0.044863 0.793692 0.024123
v -0.011769 0.755232 0.024123
v 0.049487 0.769551 -0.048246
v -0.009897 0.816564 -0.048246
v 0.025069 0.839436 -0.024123
v 0.091270 0.769551 -0.024123
v 0.091270 0.769551 0.024123
v 0.025069 0.839436 0.024123
v -0.009897 0.816564 0.048246
v 0.049487 0.769551 0.048246
v -0.023081 0.926753 -0.028684
v -0.047922 0.926816 -0.014342
v -0.047922 0.926816 0.014342
v -0.023081 0.926753 0.028684
v 0.001760 0.926689 -0.014342
v 0.001760 0.926689 0.014342
v 0.025069 0.839436 0.024123
v 0.001760 0.926689 0.014342
v -0.023081 0.926753 0.028684
v -0.009897 0.816564 0.048246
v -0.044863 0.793692 0.024123
v -0.047922 0.926816 0.014342
v -0.047922 0.926816 -0.014342
v -0.044863 0.793692 -0.024123
v 0.025069 0.839436 -0.024123
v 0.001760 0.926689 -0.014342
v 0.001760 0.926689 0.014342
v 0.025069 0.839436 0.024123
v -0.009897 0.816564 0.048246
v -0.023081 0.926753 0.028684
v -0.047922 0.926816 0.014342
v -0.044863 0.793692 0.024123
v -0.044863 0.793692 -0.024123
v -0.047922 0.926816 -0.014342
v -0.023081 0.926753 -0.028684
v -0.009897 0.816564 -0.048246
v 0.365926 0.768403 0.000000
v 0.245890 0.730237 0.000000
v 0.244716 0.723003 0.140076
v 0.386686 0.749002 0.124138
v 0.365926 0.768403 0.000000
v 0.386686 0.749002 -0.124139
v 0.244716 0.723003 -0.140076
v 0.245890 0.730237 0.000000
v 0.365926 0.768403 0.000000
v 0.488436 0.777279 0.000000
v 0.475631 0.751111 -0.103129
v 0.386686 0.749002 -0.124139
v 0.365926 0.768403 0.000000
v 0.386686 0.749002 0.124138
v 0.475631 0.751111 0.103128
v 0.488436 0.777279 0.000000
v -0.555134 0.025114 0.000000
v -0.349455 0.003181 0.000000
v -0.416834 0.034259 0.238556
v -0.567304 0.068938 0.199132
v -0.555134 0.025114 0.000000
v -0.567304 0.068938 -0.199132
v -0.416834 0.034259 -0.238556
v -0.349455 0.003181 0.000000
v -0.555134 0.025114 0.000000
v -0.670575 0.086282 0.000000
v -0.655001 0.113153 -0.154412
v -0.567304 0.068938 -0.199132
v -0.555134 0.025114 0.000000
v -0.567304 0.068938 0.199132
v -0.655001 0.113153 0.154412
v -0.670575 0.086282 0.000000
v -0.264092 0.021654 0.456785
v -0.171359 0.002317 0.296643
v 0.001645 0.034259 0.480165
v -0.100365 0.065911 0.564673
v -0.264092 0.021654 0.456785
v -0.439389 0.065911 0.368938
v -0.416834 0.034259 0.238556
v -0.171359 0.002317 0.296643
v -0.264092 0.021654 0.456785
v -0.311106 0.081094 0.537740
v -0.436182 0.109117 0.452950
v -0.439389 0.065911 0.368938
v -0.264092 0.021654 0.456785
v -0.100365 0.065911 0.564673
v -0.175030 0.109117 0.603726
v -0.311106 0.081094 0.537740
v 0.196791 0.761177 -0.326700
v 0.126402 0.728430 -0.215397
v 0.244716 0.723003 -0.140076
v 0.327234 0.742557 -0.277145
v 0.196791 0.761177 -0.326700
v 0.087052 0.742557 -0.415814
v 0.002536 0.722500 -0.281129
v 0.126402 0.728430 -0.215397
v 0.196791 0.761177 -0.326700
v 0.268361 0.766195 -0.443746
v 0.159176 0.742299 -0.490523
v 0.087052 0.742557 -0.415814
v 0.196791 0.761177 -0.326700
v 0.327234 0.742557 -0.277145
v 0.359301 0.742299 -0.374980
v 0.268361 0.766195 -0.443746
v -0.168688 0.708004 0.000000
v -0.242365 0.722500 0.139736
v -0.147602 0.708004 0.085218
v -0.246676 0.728430 0.000000
v -0.242365 0.722500 -0.139736
v -0.147602 0.708004 -0.085218
v -0.168688 0.708004 0.000000
v -0.098624 0.697304 0.000000
v -0.103235 0.700078 -0.059603
v -0.147602 0.708004 -0.085218
v -0.168688 0.708004 0.000000
v -0.147602 0.708004 0.085218
v -0.103235 0.700078 0.059603
v -0.098624 0.697304 0.000000
v -0.264092 0.021654 -0.456785
v -0.171359 0.002317 -0.296643
v -0.416834 0.034259 -0.238556
v -0.439389 0.065911 -0.368938
v -0.264092 0.021654 -0.456785
v -0.100365 0.065911 -0.564673
v 0.001645 0.034259 -0.480165
v -0.171359 0.002317 -0.296643
v -0.264092 0.021654 -0.456785
v -0.311106 0.081094 -0.537740
v -0.175031 0.109117 -0.603726
v -0.100365 0.065911 -0.564673
v -0.264092 0.021654 -0.456785
v -0.439389 0.065911 -0.368938
v -0.436182 0.109117 -0.452950
v -0.311106 0.081094 -0.537740
v 0.277017 0.025114 0.480443
v 0.174590 0.003181 0.302557
v 0.414837 0.034259 0.241609
v 0.455556 0.068938 0.391416
v 0.277017 0.025114 0.480443
v 0.110649 0.068938 0.590548
v 0.001645 0.034259 0.480165
v 0.174590 0.003181 0.302557
v 0.277017 0.025114 0.480443
v 0.334325 0.086282 0.580179
v 0.192920 0.113153 0.643960
v 0.110649 0.068938 0.590548
v 0.277017 0.025114 0.480443
v 0.455556 0.068938 0.391416
v 0.460370 0.113153 0.489547
v 0.334325 0.086282 0.580179
v 0.000000 -0.004129 0.000000
v -0.171359 0.002317 -0.296643
v 0.001645 0.034259 -0.480165
v 0.174590 0.003181 -0.302557
v 0.000000 -0.004129 0.000000
v -0.349455 0.003181 0.000000
v -0.416834 0.034259 -0.238556
v -0.171359 0.002317 -0.296643
v 0.000000 -0.004129 0.000000
v -0.171359 0.002317 0.296643
v -0.416834 0.034259 0.238556
v -0.349455 0.003181 0.000000
v 0.000000 -0.004129 0.000000
v 0.174590 0.003181 0.302557
v 0.001645 0.034259 0.480165
v -0.171359 0.002317 0.296643
v 0.000000 -0.004129 0.000000
v 0.342442 0.002317 0.000000
v 0.414837 0.034259 0.241609
v 0.174590 0.003181 0.302557
v 0.000000 -0.004129 0.000000
v 0.174590 0.003181 -0.302557
v 0.414837 0.034259 -0.241609
v 0.342442 0.002317 0.000000
v -0.604511 0.703433 0.000000
v -0.569557 0.699248 -0.175073
v -0.652185 0.601163 -0.199964
v -0.686936 0.601127 0.000000
v -0.604511 0.703433 0.000000
v -0.500230 0.766195 0.000000
v -0.490308 0.742299 -0.115543
v -0.569557 0.699248 -0.175073
v -0.604511 0.703433 0.000000
v -0.569557 0.699248 0.175072
v -0.490308 0.742299 0.115542
v -0.500230 0.766195 0.000000
v -0.604511 0.703433 0.000000
v -0.686936 0.601127 0.000000
v -0.652185 0.601163 0.199964
v -0.569557 0.699248 0.175072
v 0.313961 0.703433 0.530280
v 0.143404 0.699248 0.586700
v 0.154758 0.601163 0.665852
v 0.345570 0.601127 0.596117
v 0.313961 0.703433 0.530280
v 0.268361 0.766195 0.443746
v 0.159176 0.742299 0.490522
v 0.143404 0.699248 0.586700
v 0.313961 0.703433 0.530280
v 0.446638 0.699248 0.411628
v 0.359302 0.742299 0.374980
v 0.268361 0.766195 0.443746
v 0.313961 0.703433 0.530280
v 0.345570 0.601127 0.596117
v 0.501105 0.601163 0.465889
v 0.446638 0.699248 0.411628
v 0.313961 0.703432 -0.530280
v 0.446638 0.699248 -0.411628
v 0.501105 0.601163 -0.465889
v 0.345570 0.601127 -0.596118
v 0.313961 0.703432 -0.530280
v 0.268361 0.766195 -0.443746
v 0.359301 0.742299 -0.374980
v 0.446638 0.699248 -0.411628
v 0.313961 0.703432 -0.530280
v 0.143404 0.699248 -0.586700
v 0.159176 0.742299 -0.490523
v 0.268361 0.766195 -0.443746
v 0.313961 0.703432 -0.530280
v 0.345570 0.601127 -0.596118
v 0.154758 0.601163 -0.665853
v 0.143404 0.699248 -0.586700
v 0.196791 0.761177 0.326700
v 0.126402 0.728430 0.215397
v 0.002536 0.722501 0.281129
v 0.087052 0.742557 0.415814
v 0.196791 0.761177 0.326700
v 0.327234 0.742557 0.277144
v 0.244716 0.723003 0.140076
v 0.126402 0.728430 0.215397
v 0.196791 0.761177 0.326700
v 0.268361 0.766195 0.443746
v 0.359302 0.742299 0.374980
v 0.327234 0.742557 0.277144
v 0.196791 0.761177 0.326700
v 0.087052 0.742557 0.415814
v 0.159176 0.742299 0.490522
v 0.268361 0.766195 0.443746
v 0.424468 0.686695 -0.298273
v 0.380797 0.679353 -0.218773
v 0.458850 0.601752 -0.266938
v 0.495341 0.601270 -0.347925
v 0.424468 0.686695 -0.298273
v 0.327234 0.742557 -0.277145
v 0.244716 0.723003 -0.140076
v 0.380797 0.679353 -0.218773
v 0.424468 0.686695 -0.298273
v 0.446638 0.699248 -0.411628
v 0.359301 0.742299 -0.374980
v 0.327234 0.742557 -0.277145
v 0.424468 0.686695 -0.298273
v 0.495341 0.601270 -0.347925
v 0.501105 0.601163 -0.465889
v 0.446638 0.699248 -0.411628
v -0.369071 0.761177 0.000000
v -0.246676 0.728430 0.000000
v -0.242365 0.722500 -0.139736
v -0.392976 0.742557 -0.138669
v -0.369071 0.761177 0.000000
v -0.392976 0.742557 0.138669
v -0.242365 0.722500 0.139736
v -0.246676 0.728430 0.000000
v -0.369071 0.761177 0.000000
v -0.500230 0.766195 0.000000
v -0.490308 0.742299 0.115542
v -0.392976 0.742557 0.138669
v -0.369071 0.761177 0.000000
v -0.392976 0.742557 -0.138669
v -0.490308 0.742299 -0.115543
v -0.500230 0.766195 0.000000
v 0.544363 0.200410 0.382301
v 0.508589 0.194531 0.296833
v 0.529657 0.362676 0.309124
v 0.566920 0.361445 0.398131
v 0.544363 0.200410 0.382301
v 0.455556 0.068938 0.391416
v 0.414837 0.034259 0.241609
v 0.508589 0.194531 0.296833
v 0.544363 0.200410 0.382301
v 0.544687 0.208580 0.507644
v 0.460370 0.113153 0.489547
v 0.455556 0.068938 0.391416
v 0.544363 0.200410 0.382301
v 0.566920 0.361445 0.398131
v 0.567267 0.359484 0.528665
v 0.544687 0.208580 0.507644
v 0.058350 0.200410 -0.662900
v 0.002495 0.194530 -0.589026
v 0.002606 0.362676 -0.613417
v 0.060782 0.361445 -0.690350
v 0.058350 0.200410 -0.662900
v 0.110649 0.068937 -0.590548
v 0.001645 0.034259 -0.480165
v 0.002495 0.194530 -0.589026
v 0.058350 0.200410 -0.662900
v 0.166327 0.208580 -0.726090
v 0.192920 0.113152 -0.643960
v 0.110649 0.068937 -0.590548
v 0.058350 0.200410 -0.662900
v 0.060782 0.361445 -0.690350
v 0.173241 0.359483 -0.756156
v 0.166327 0.208580 -0.726090
v 0.051931 0.686695 0.513358
v 0.004142 0.678707 0.438494
v 0.002813 0.601590 0.530796
v 0.054692 0.601270 0.602334
v 0.051931 0.686695 0.513358
v 0.087052 0.742557 0.415814
v 0.002536 0.722501 0.281129
v 0.004142 0.678707 0.438494
v 0.051931 0.686695 0.513358
v 0.143404 0.699248 0.586700
v 0.159176 0.742299 0.490522
v 0.087052 0.742557 0.415814
v 0.051931 0.686695 0.513358
v 0.054692 0.601270 0.602334
v 0.154758 0.601163 0.665852
v 0.143404 0.699248 0.586700
v 0.277017 0.025113 -0.480443
v 0.174590 0.003181 -0.302557
v 0.001645 0.034259 -0.480165
v 0.110649 0.068937 -0.590548
v 0.277017 0.025113 -0.480443
v 0.455555 0.068938 -0.391416
v 0.414837 0.034259 -0.241609
v 0.174590 0.003181 -0.302557
v 0.277017 0.025113 -0.480443
v 0.334325 0.086282 -0.580179
v 0.460370 0.113153 -0.489547
v 0.455555 0.068938 -0.391416
v 0.277017 0.025113 -0.480443
v 0.110649 0.068937 -0.590548
v 0.192920 0.113152 -0.643960
v 0.334325 0.086282 -0.580179
v -0.603814 0.200410 0.280600
v -0.511634 0.194531 0.292194
v -0.532812 0.362676 0.304293
v -0.628801 0.361445 0.292219
v -0.603814 0.200410 0.280600
v -0.567304 0.068938 0.199132
v -0.416834 0.034259 0.238556
v -0.511634 0.194531 0.292194
v -0.603814 0.200410 0.280600
v -0.712938 0.208580 0.218446
v -0.655001 0.113153 0.154412
v -0.567304 0.068938 0.199132
v -0.603814 0.200410 0.280600
v -0.628801 0.361445 0.292219
v -0.742433 0.359484 0.227491
v -0.712938 0.208580 0.218446
v -0.464693 0.686695 -0.215085
v -0.378891 0.678707 -0.217350
v -0.460564 0.601590 -0.263265
v -0.547932 0.601270 -0.254409
v -0.464693 0.686695 -0.215085
v -0.392976 0.742557 -0.138669
v -0.242365 0.722500 -0.139736
v -0.378891 0.678707 -0.217350
v -0.464693 0.686695 -0.215085
v -0.569557 0.699248 -0.175073
v -0.490308 0.742299 -0.115543
v -0.392976 0.742557 -0.138669
v -0.464693 0.686695 -0.215085
v -0.547932 0.601270 -0.254409
v -0.652185 0.601163 -0.199964
v -0.569557 0.699248 -0.175073
v -0.274048 0.706474 -0.488182
v -0.112717 0.701909 -0.547417
v -0.133162 0.602903 -0.621692
v -0.315444 0.603116 -0.548792
v -0.274048 0.706474 -0.488182
v -0.224807 0.769528 -0.410446
v -0.125298 0.745083 -0.458516
v -0.112717 0.701909 -0.547417
v -0.274048 0.706474 -0.488182
v -0.407476 0.701909 -0.377238
v -0.320353 0.745083 -0.345901
v -0.224807 0.769528 -0.410446
v -0.274048 0.706474 -0.488182
v -0.315444 0.603116 -0.548792
v -0.469982 0.602903 -0.427229
v -0.407476 0.701909 -0.377238
v -0.274048 0.706474 0.488181
v -0.407476 0.701909 0.377238
v -0.469982 0.602903 0.427229
v -0.315444 0.603116 0.548792
v -0.274048 0.706474 0.488181
v -0.224807 0.769528 0.410446
v -0.320353 0.745083 0.345901
v -0.407476 0.701909 0.377238
v -0.274048 0.706474 0.488181
v -0.112717 0.701910 0.547417
v -0.125298 0.745083 0.458516
v -0.224807 0.769528 0.410446
v -0.274048 0.706474 0.488181
v -0.315444 0.603116 0.548792
v -0.133162 0.602903 0.621692
v -0.112717 0.701910 0.547417
v 0.573060 0.711641 0.000000
v 0.542037 0.706431 0.158321
v 0.607161 0.604034 0.191499
v 0.635480 0.604408 0.000000
v 0.573060 0.711641 0.000000
v 0.488436 0.777279 0.000000
v 0.475631 0.751111 0.103128
v 0.542037 0.706431 0.158321
v 0.573060 0.711641 0.000000
v 0.542037 0.706431 -0.158321
v 0.475631 0.751111 -0.103129
v 0.488436 0.777279 0.000000
v 0.573060 0.711641 0.000000
v 0.635480 0.604408 0.000000
v 0.607161 0.604034 -0.191499
v 0.542037 0.706431 -0.158321
v -0.169931 0.763236 -0.308481
v -0.119687 0.728945 -0.210842
v 0.002536 0.722500 -0.281129
v -0.064232 0.744481 -0.395550
v -0.169931 0.763236 -0.308481
v -0.299785 0.744481 -0.259554
v -0.242365 0.722500 -0.139736
v -0.119687 0.728945 -0.210842
v -0.169931 0.763236 -0.308481
v -0.224807 0.769528 -0.410446
v -0.320353 0.745083 -0.345901
v -0.299785 0.744481 -0.259554
v -0.169931 0.763236 -0.308481
v -0.064232 0.744481 -0.395550
v -0.125298 0.745083 -0.458516
v -0.224807 0.769528 -0.410446
v -0.169931 0.763236 0.308480
v -0.119687 0.728945 0.210842
v -0.242365 0.722500 0.139736
v -0.299785 0.744481 0.259554
v -0.169931 0.763236 0.308480
v -0.064232 0.744481 0.395550
v 0.002536 0.722501 0.281129
v -0.119687 0.728945 0.210842
v -0.169931 0.763236 0.308480
v -0.224807 0.769528 0.410446
v -0.125298 0.745083 0.458516
v -0.064232 0.744481 0.395550
v -0.169931 0.763236 0.308480
v -0.299785 0.744481 0.259554
v -0.320353 0.745083 0.345901
v -0.224807 0.769528 0.410446
v 0.573366 0.198680 -0.275814
v 0.508589 0.194531 -0.296833
v 0.529657 0.362676 -0.309124
v 0.597123 0.361136 -0.287235
v 0.573366 0.198680 -0.275814
v 0.538654 0.065911 -0.195736
v 0.414837 0.034259 -0.241609
v 0.508589 0.194531 -0.296833
v 0.573366 0.198680 -0.275814
v 0.659655 0.205553 -0.212464
v 0.609502 0.109117 -0.150776
v 0.538654 0.065911 -0.195736
v 0.573366 0.198680 -0.275814
v 0.597123 0.361136 -0.287235
v 0.686996 0.358942 -0.221261
v 0.659655 0.205553 -0.212464
v 0.448968 0.690799 0.201684
v 0.380797 0.679353 0.218772
v 0.458850 0.601752 0.266938
v 0.522204 0.602911 0.247637
v 0.448968 0.690799 0.201684
v 0.386686 0.749002 0.124138
v 0.244716 0.723003 0.140076
v 0.380797 0.679353 0.218772
v 0.448968 0.690799 0.201684
v 0.542037 0.706431 0.158321
v 0.475631 0.751111 0.103128
v 0.386686 0.749002 0.124138
v 0.448968 0.690799 0.201684
v 0.522204 0.602911 0.247637
v 0.607161 0.604034 0.191499
v 0.542037 0.706431 0.158321
v -0.035364 0.688216 -0.490351
v 0.004142 0.678707 -0.438494
v 0.002813 0.601590 -0.530796
v -0.043440 0.602265 -0.576471
v -0.035364 0.688216 -0.490351
v -0.064232 0.744481 -0.395550
v 0.002536 0.722500 -0.281129
v 0.004142 0.678707 -0.438494
v -0.035364 0.688216 -0.490351
v -0.112717 0.701909 -0.547417
v -0.125298 0.745083 -0.458516
v -0.064232 0.744481 -0.395550
v -0.035364 0.688216 -0.490351
v -0.043440 0.602265 -0.576471
v -0.133162 0.602903 -0.621692
v -0.112717 0.701909 -0.547417
v -0.048371 0.198680 0.634774
v 0.002495 0.194531 0.589026
v 0.002606 0.362676 0.613417
v -0.050358 0.361136 0.661058
v -0.048371 0.198680 0.634774
v -0.100365 0.065911 0.564673
v 0.001645 0.034259 0.480165
v 0.002495 0.194531 0.589026
v -0.048371 0.198680 0.634774
v -0.146791 0.205553 0.678065
v -0.175030 0.109117 0.603726
v -0.100365 0.065911 0.564673
v -0.048371 0.198680 0.634774
v -0.050358 0.361136 0.661058
v -0.152842 0.358942 0.706142
v -0.146791 0.205553 0.678065
v -0.401122 0.688216 0.279181
v -0.378891 0.678707 0.217350
v -0.460564 0.601590 0.263265
v -0.476468 0.602265 0.326463
v -0.401122 0.688216 0.279181
v -0.299785 0.744481 0.259554
v -0.242365 0.722500 0.139736
v -0.378891 0.678707 0.217350
v -0.401122 0.688216 0.279181
v -0.407476 0.701909 0.377238
v -0.320353 0.745083 0.345901
v -0.299785 0.744481 0.259554
v -0.401122 0.688216 0.279181
v -0.476468 0.602265 0.326463
v -0.469982 0.602903 0.427229
v -0.407476 0.701909 0.377238
v 0.527083 0.021654 0.000000
v 0.342442 0.002317 0.000000
v 0.414837 0.034259 -0.241609
v 0.538654 0.065911 -0.195736
v 0.527083 0.021654 0.000000
v 0.538654 0.065911 0.195736
v 0.414837 0.034259 0.241609
v 0.342442 0.002317 0.000000
v 0.527083 0.021654 0.000000
v 0.620287 0.081094 0.000000
v 0.609502 0.109117 0.150776
v 0.538654 0.065911 0.195736
v 0.527083 0.021654 0.000000
v 0.538654 0.065911 -0.195736
v 0.609502 0.109117 -0.150776
v 0.620287 0.081094 0.000000
v -0.526095 0.198680 -0.358960
v -0.511634 0.194531 -0.292194
v -0.532812 0.362676 -0.304293
v -0.547864 0.361136 -0.373824
v -0.526095 0.198680 -0.358960
v -0.439389 0.065911 -0.368938
v -0.416834 0.034259 -0.238556
v -0.511634 0.194531 -0.292194
v -0.526095 0.198680 -0.358960
v -0.514789 0.205553 -0.465601
v -0.436182 0.109117 -0.452950
v -0.439389 0.065911 -0.368938
v -0.526095 0.198680 -0.358960
v -0.547864 0.361136 -0.373824
v -0.536078 0.358942 -0.484881
v -0.514789 0.205553 -0.465601
v -0.528352 0.494451 -0.360501
v -0.513830 0.497304 -0.293448
v -0.460564 0.601590 -0.263265
v -0.476468 0.602265 -0.326463
v -0.528352 0.494451 -0.360501
v -0.547864 0.361136 -0.373824
v -0.532812 0.362676 -0.304293
v -0.513830 0.497304 -0.293448
v -0.528352 0.494451 -0.360501
v -0.516996 0.489986 -0.467600
v -0.536078 0.358942 -0.484881
v -0.547864 0.361136 -0.373824
v -0.528352 0.494451 -0.360501
v -0.476468 0.602265 -0.326463
v -0.469982 0.602903 -0.427229
v -0.516996 0.489986 -0.467600
v -0.526095 0.198680 0.358960
v -0.511634 0.194531 0.292194
v -0.416834 0.034259 0.238556
v -0.439389 0.065911 0.368938
v -0.526095 0.198680 0.358960
v -0.547864 0.361136 0.373823
v -0.532812 0.362676 0.304293
v -0.511634 0.194531 0.292194
v -0.526095 0.198680 0.358960
v -0.514789 0.205553 0.465601
v -0.536078 0.358942 0.484881
v -0.547864 0.361136 0.373823
v -0.526095 0.198680 0.358960
v -0.439389 0.065911 0.368938
v -0.436182 0.109117 0.452950
v -0.514789 0.205553 0.465601
v -0.048577 0.494451 0.637499
v 0.002506 0.497304 0.591555
v 0.002813 0.601590 0.530796
v -0.043440 0.602265 0.576471
v -0.048577 0.494451 0.637499
v -0.050358 0.361136 0.661058
v 0.002606 0.362676 0.613417
v 0.002506 0.497304 0.591555
v -0.048577 0.494451 0.637499
v -0.147418 0.489986 0.680976
v -0.152842 0.358942 0.706142
v -0.050358 0.361136 0.661058
v -0.048577 0.494451 0.637499
v -0.043440 0.602265 0.576471
v -0.133162 0.602903 0.621692
v -0.147418 0.489986 0.680976
v -0.048371 0.198680 -0.634774
v 0.002495 0.194530 -0.589026
v 0.001645 0.034259 -0.480165
v -0.100365 0.065911 -0.564673
v -0.048371 0.198680 -0.634774
v -0.050358 0.361136 -0.661058
v 0.002606 0.362676 -0.613417
v 0.002495 0.194530 -0.589026
v -0.048371 0.198680 -0.634774
v -0.146791 0.205553 -0.678065
v -0.152842 0.358942 -0.706142
v -0.050358 0.361136 -0.661058
v -0.048371 0.198680 -0.634774
v -0.100365 0.065911 -0.564673
v -0.175031 0.109117 -0.603726
v -0.146791 0.205553 -0.678065
v 0.573366 0.198680 0.275814
v 0.508589 0.194531 0.296833
v 0.414837 0.034259 0.241609
v 0.538654 0.065911 0.195736
v 0.573366 0.198680 0.275814
v 0.597123 0.361136 0.287235
v 0.529657 0.362676 0.309124
v 0.508589 0.194531 0.296833
v 0.573366 0.198680 0.275814
v 0.659655 0.205553 0.212464
v 0.686996 0.358942 0.221261
v 0.597123 0.361136 0.287235
v 0.573366 0.198680 0.275814
v 0.538654 0.065911 0.195736
v 0.609502 0.109117 0.150776
v 0.659655 0.205553 0.212464
v 0.575829 0.494451 -0.276998
v 0.510774 0.497304 -0.298107
v 0.458850 0.601752 -0.266938
v 0.522204 0.602911 -0.247637
v 0.575829 0.494451 -0.276998
v 0.597123 0.361136 -0.287235
v 0.529657 0.362676 -0.309124
v 0.510774 0.497304 -0.298107
v 0.575829 0.494451 -0.276998
v 0.662489 0.489986 -0.213376
v 0.686996 0.358942 -0.221261
v 0.597123 0.361136 -0.287235
v 0.575829 0.494451 -0.276998
v 0.522204 0.602911 -0.247637
v 0.607161 0.604034 -0.191499
v 0.662489 0.489986 -0.213376
v 0.688417 0.207844 0.000000
v 0.659655 0.205553 0.212464
v 0.609502 0.109117 0.150776
v 0.620287 0.081094 0.000000
v 0.688417 0.207844 0.000000
v 0.716954 0.358211 0.000000
v 0.686996 0.358942 0.221261
v 0.659655 0.205553 0.212464
v 0.688417 0.207844 0.000000
v 0.659655 0.205553 -0.212464
v 0.686996 0.358942 -0.221261
v 0.716954 0.358211 0.000000
v 0.688417 0.207844 0.000000
v 0.620287 0.081094 0.000000
v 0.609502 0.109117 -0.150776
v 0.659655 0.205553 -0.212464
v -0.345308 0.207844 0.596822
v -0.514789 0.205553 0.465601
v -0.436182 0.109117 0.452950
v -0.311106 0.081094 0.537740
v -0.345308 0.207844 0.596822
v -0.359577 0.358211 0.621535
v -0.536078 0.358942 0.484881
v -0.514789 0.205553 0.465601
v -0.345308 0.207844 0.596822
v -0.146791 0.205553 0.678065
v -0.152842 0.358942 0.706142
v -0.359577 0.358211 0.621535
v -0.345308 0.207844 0.596822
v -0.311106 0.081094 0.537740
v -0.175030 0.109117 0.603726
v -0.146791 0.205553 0.678065
v -0.345309 0.207844 -0.596822
v -0.146791 0.205553 -0.678065
v -0.175031 0.109117 -0.603726
v -0.311106 0.081094 -0.537740
v -0.345309 0.207844 -0.596822
v -0.359577 0.358210 -0.621535
v -0.152842 0.358942 -0.706142
v -0.146791 0.205553 -0.678065
v -0.345309 0.207844 -0.596822
v -0.514789 0.205553 -0.465601
v -0.536078 0.358942 -0.484881
v -0.359577 0.358210 -0.621535
v -0.345309 0.207844 -0.596822
v -0.311106 0.081094 -0.537740
v -0.436182 0.109117 -0.452950
v -0.514789 0.205553 -0.465601
v -0.603814 0.200410 -0.280600
v -0.511634 0.194531 -0.292194
v -0.416834 0.034259 -0.238556
v -0.567304 0.068938 -0.199132
v -0.603814 0.200410 -0.280600
v -0.628801 0.361445 -0.292219
v -0.532812 0.362676 -0.304293
v -0.511634 0.194531 -0.292194
v -0.603814 0.200410 -0.280600
v -0.712938 0.208580 -0.218446
v -0.742433 0.359484 -0.227491
v -0.628801 0.361445 -0.292219
v -0.603814 0.200410 -0.280600
v -0.567304 0.068938 -0.199132
v -0.655001 0.113153 -0.154412
v -0.712938 0.208580 -0.218446
v -0.606404 0.493959 0.281804
v -0.513830 0.497304 0.293448
v -0.460564 0.601590 0.263265
v -0.547932 0.601270 0.254409
v -0.606404 0.493959 0.281804
v -0.628801 0.361445 0.292219
v -0.532812 0.362676 0.304293
v -0.513830 0.497304 0.293448
v -0.606404 0.493959 0.281804
v -0.715996 0.489126 0.219384
v -0.742433 0.359484 0.227491
v -0.628801 0.361445 0.292219
v -0.606404 0.493959 0.281804
v -0.547932 0.601270 0.254409
v -0.652185 0.601163 0.199964
v -0.715996 0.489126 0.219384
v 0.058351 0.200410 0.662900
v 0.002495 0.194531 0.589026
v 0.001645 0.034259 0.480165
v 0.110649 0.068938 0.590548
v 0.058351 0.200410 0.662900
v 0.060782 0.361445 0.690350
v 0.002606 0.362676 0.613417
v 0.002495 0.194531 0.589026
v 0.058351 0.200410 0.662900
v 0.166327 0.208580 0.726090
v 0.173241 0.359484 0.756156
v 0.060782 0.361445 0.690350
v 0.058351 0.200410 0.662900
v 0.110649 0.068938 0.590548
v 0.192920 0.113153 0.643960
v 0.166327 0.208580 0.726090
v 0.058603 0.493959 -0.665746
v 0.002506 0.497304 -0.591555
v 0.002813 0.601590 -0.530796
v 0.054692 0.601270 -0.602334
v 0.058603 0.493959 -0.665746
v 0.060782 0.361445 -0.690350
v 0.002606 0.362676 -0.613417
v 0.002506 0.497304 -0.591555
v 0.058603 0.493959 -0.665746
v 0.167044 0.489126 -0.729207
v 0.173241 0.359483 -0.756156
v 0.060782 0.361445 -0.690350
v 0.058603 0.493959 -0.665746
v 0.054692 0.601270 -0.602334
v 0.154758 0.601163 -0.665853
v 0.167044 0.489126 -0.729207
v 0.546702 0.493959 0.383942
v 0.510774 0.497304 0.298107
v 0.458850 0.601752 0.266938
v 0.495341 0.601270 0.347925
v 0.546702 0.493959 0.383942
v 0.566920 0.361445 0.398131
v 0.529657 0.362676 0.309124
v 0.510774 0.497304 0.298107
v 0.546702 0.493959 0.383942
v 0.547028 0.489127 0.509823
v 0.567267 0.359484 0.528665
v 0.566920 0.361445 0.398131
v 0.546702 0.493959 0.383942
v 0.495341 0.601270 0.347925
v 0.501105 0.601163 0.465889
v 0.547028 0.489127 0.509823
v 0.544363 0.200410 -0.382301
v 0.508589 0.194531 -0.296833
v 0.414837 0.034259 -0.241609
v 0.455555 0.068938 -0.391416
v 0.544363 0.200410 -0.382301
v 0.566920 0.361445 -0.398131
v 0.529657 0.362676 -0.309124
v 0.508589 0.194531 -0.296833
v 0.544363 0.200410 -0.382301
v 0.544686 0.208580 -0.507644
v 0.567267 0.359483 -0.528665
v 0.566920 0.361445 -0.398131
v 0.544363 0.200410 -0.382301
v 0.455555 0.068938 -0.391416
v 0.460370 0.113153 -0.489547
v 0.544686 0.208580 -0.507644
v 0.373557 0.211303 -0.648289
v 0.544686 0.208580 -0.507644
v 0.460370 0.113153 -0.489547
v 0.334325 0.086282 -0.580179
v 0.373557 0.211303 -0.648289
v 0.389055 0.358830 -0.675134
v 0.567267 0.359483 -0.528665
v 0.544686 0.208580 -0.507644
v 0.373557 0.211303 -0.648289
v 0.166327 0.208580 -0.726090
v 0.173241 0.359483 -0.756156
v 0.389055 0.358830 -0.675134
v 0.373557 0.211303 -0.648289
v 0.334325 0.086282 -0.580179
v 0.192920 0.113152 -0.643960
v 0.166327 0.208580 -0.726090
v 0.373557 0.211303 0.648289
v 0.166327 0.208580 0.726090
v 0.192920 0.113153 0.643960
v 0.334325 0.086282 0.580179
v 0.373557 0.211303 0.648289
v 0.389055 0.358830 0.675134
v 0.173241 0.359484 0.756156
v 0.166327 0.208580 0.726090
v 0.373557 0.211303 0.648289
v 0.544687 0.208580 0.507644
v 0.567267 0.359484 0.528665
v 0.389055 0.358830 0.675134
v 0.373557 0.211303 0.648289
v 0.334325 0.086282 0.580179
v 0.460370 0.113153 0.489547
v 0.544687 0.208580 0.507644
v -0.749313 0.211303 0.000000
v -0.712938 0.208580 -0.218446
v -0.655001 0.113153 -0.154412
v -0.670575 0.086282 0.000000
v -0.749313 0.211303 0.000000
v -0.780310 0.358830 0.000000
v -0.742433 0.359484 -0.227491
v -0.712938 0.208580 -0.218446
v -0.749313 0.211303 0.000000
v -0.712938 0.208580 0.218446
v -0.742433 0.359484 0.227491
v -0.780310 0.358830 0.000000
v -0.749313 0.211303 0.000000
v -0.670575 0.086282 0.000000
v -0.655001 0.113153 0.154412
v -0.712938 0.208580 0.218446
v 0.424468 0.686695 0.298273
v 0.380797 0.679353 0.218772
v 0.244716 0.723003 0.140076
v 0.327234 0.742557 0.277144
v 0.424468 0.686695 0.298273
v 0.495341 0.601270 0.347925
v 0.458850 0.601752 0.266938
v 0.380797 0.679353 0.218772
v 0.424468 0.686695 0.298273
v 0.446638 0.699248 0.411628
v 0.501105 0.601163 0.465889
v 0.495341 0.601270 0.347925
v 0.424468 0.686695 0.298273
v 0.327234 0.742557 0.277144
v 0.359302 0.742299 0.374980
v 0.446638 0.699248 0.411628
v 0.051931 0.686695 -0.513358
v 0.004142 0.678707 -0.438494
v 0.002536 0.722500 -0.281129
v 0.087052 0.742557 -0.415814
v 0.051931 0.686695 -0.513358
v 0.054692 0.601270 -0.602334
v 0.002813 0.601590 -0.530796
v 0.004142 0.678707 -0.438494
v 0.051931 0.686695 -0.513358
v 0.143404 0.699248 -0.586700
v 0.154758 0.601163 -0.665853
v 0.054692 0.601270 -0.602334
v 0.051931 0.686695 -0.513358
v 0.087052 0.742557 -0.415814
v 0.159176 0.742299 -0.490523
v 0.143404 0.699248 -0.586700
v -0.464693 0.686695 0.215085
v -0.378891 0.678707 0.217350
v -0.242365 0.722500 0.139736
v -0.392976 0.742557 0.138669
v -0.464693 0.686695 0.215085
v -0.547932 0.601270 0.254409
v -0.460564 0.601590 0.263265
v -0.378891 0.678707 0.217350
v -0.464693 0.686695 0.215085
v -0.569557 0.699248 0.175072
v -0.652185 0.601163 0.199964
v -0.547932 0.601270 0.254409
v -0.464693 0.686695 0.215085
v -0.392976 0.742557 0.138669
v -0.490308 0.742299 0.115542
v -0.569557 0.699248 0.175072
v 0.448968 0.690799 -0.201684
v 0.380797 0.679353 -0.218773
v 0.244716 0.723003 -0.140076
v 0.386686 0.749002 -0.124139
v 0.448968 0.690799 -0.201684
v 0.522204 0.602911 -0.247637
v 0.458850 0.601752 -0.266938
v 0.380797 0.679353 -0.218773
v 0.448968 0.690799 -0.201684
v 0.542037 0.706431 -0.158321
v 0.607161 0.604034 -0.191499
v 0.522204 0.602911 -0.247637
v 0.448968 0.690799 -0.201684
v 0.386686 0.749002 -0.124139
v 0.475631 0.751111 -0.103129
v 0.542037 0.706431 -0.158321
v -0.035364 0.688216 0.490351
v 0.004142 0.678707 0.438494
v 0.002536 0.722501 0.281129
v -0.064232 0.744481 0.395550
v -0.035364 0.688216 0.490351
v -0.043440 0.602265 0.576471
v 0.002813 0.601590 0.530796
v 0.004142 0.678707 0.438494
v -0.035364 0.688216 0.490351
v -0.112717 0.701910 0.547417
v -0.133162 0.602903 0.621692
v -0.043440 0.602265 0.576471
v -0.035364 0.688216 0.490351
v -0.064232 0.744481 0.395550
v -0.125298 0.745083 0.458516
v -0.112717 0.701910 0.547417
v -0.401122 0.688216 -0.279181
v -0.378891 0.678707 -0.217350
v -0.242365 0.722500 -0.139736
v -0.299785 0.744481 -0.259554
v -0.401122 0.688216 -0.279181
v -0.476468 0.602265 -0.326463
v -0.460564 0.601590 -0.263265
v -0.378891 0.678707 -0.217350
v -0.401122 0.688216 -0.279181
v -0.407476 0.701909 -0.377238
v -0.469982 0.602903 -0.427229
v -0.476468 0.602265 -0.326463
v -0.401122 0.688216 -0.279181
v -0.299785 0.744481 -0.259554
v -0.320353 0.745083 -0.345901
v -0.407476 0.701909 -0.377238
v -0.528352 0.494451 0.360501
v -0.513830 0.497304 0.293448
v -0.532812 0.362676 0.304293
v -0.547864 0.361136 0.373823
v -0.528352 0.494451 0.360501
v -0.476468 0.602265 0.326463
v -0.460564 0.601590 0.263265
v -0.513830 0.497304 0.293448
v -0.528352 0.494451 0.360501
v -0.516996 0.489986 0.467600
v -0.469982 0.602903 0.427229
v -0.476468 0.602265 0.326463
v -0.528352 0.494451 0.360501
v -0.547864 0.361136 0.373823
v -0.536078 0.358942 0.484881
v -0.516996 0.489986 0.467600
v -0.048577 0.494451 -0.637499
v 0.002506 0.497304 -0.591555
v 0.002606 0.362676 -0.613417
v -0.050358 0.361136 -0.661058
v -0.048577 0.494451 -0.637499
v -0.043440 0.602265 -0.576471
v 0.002813 0.601590 -0.530796
v 0.002506 0.497304 -0.591555
v -0.048577 0.494451 -0.637499
v -0.147418 0.489986 -0.680976
v -0.133162 0.602903 -0.621692
v -0.043440 0.602265 -0.576471
v -0.048577 0.494451 -0.637499
v -0.050358 0.361136 -0.661058
v -0.152842 0.358942 -0.706142
v -0.147418 0.489986 -0.680976
v 0.575829 0.494451 0.276998
v 0.510774 0.497304 0.298107
v 0.529657 0.362676 0.309124
v 0.597123 0.361136 0.287235
v 0.575829 0.494451 0.276998
v 0.522204 0.602911 0.247637
v 0.458850 0.601752 0.266938
v 0.510774 0.497304 0.298107
v 0.575829 0.494451 0.276998
v 0.662489 0.489986 0.213376
v 0.607161 0.604034 0.191499
v 0.522204 0.602911 0.247637
v 0.575829 0.494451 0.276998
v 0.597123 0.361136 0.287235
v 0.686996 0.358942 0.221261
v 0.662489 0.489986 0.213376
v 0.691376 0.488498 0.000000
v 0.662489 0.489986 0.213376
v 0.686996 0.358942 0.221261
v 0.716954 0.358211 0.000000
v 0.691376 0.488498 0.000000
v 0.635480 0.604408 0.000000
v 0.607161 0.604034 0.191499
v 0.662489 0.489986 0.213376
v 0.691376 0.488498 0.000000
v 0.662489 0.489986 -0.213376
v 0.607161 0.604034 -0.191499
v 0.635480 0.604408 0.000000
v 0.691376 0.488498 0.000000
v 0.716954 0.358211 0.000000
v 0.686996 0.358942 -0.221261
v 0.662489 0.489986 -0.213376
v -0.346788 0.488498 0.599384
v -0.516996 0.489986 0.467600
v -0.536078 0.358942 0.484881
v -0.359577 0.358211 0.621535
v -0.346788 0.488498 0.599384
v -0.315444 0.603116 0.548792
v -0.469982 0.602903 0.427229
v -0.516996 0.489986 0.467600
v -0.346788 0.488498 0.599384
v -0.147418 0.489986 0.680976
v -0.133162 0.602903 0.621692
v -0.315444 0.603116 0.548792
v -0.346788 0.488498 0.599384
v -0.359577 0.358211 0.621535
v -0.152842 0.358942 0.706142
v -0.147418 0.489986 0.680976
v -0.346788 0.488498 -0.599384
v -0.147418 0.489986 -0.680976
v -0.152842 0.358942 -0.706142
v -0.359577 0.358210 -0.621535
v -0.346788 0.488498 -0.599384
v -0.315444 0.603116 -0.548792
v -0.133162 0.602903 -0.621692
v -0.147418 0.489986 -0.680976
v -0.346788 0.488498 -0.599384
v -0.516996 0.489986 -0.467600
v -0.469982 0.602903 -0.427229
v -0.315444 0.603116 -0.548792
v -0.346788 0.488498 -0.599384
v -0.359577 0.358210 -0.621535
v -0.536078 0.358942 -0.484881
v -0.516996 0.489986 -0.467600
v -0.606404 0.493959 -0.281804
v -0.513830 0.497304 -0.293448
v -0.532812 0.362676 -0.304293
v -0.628801 0.361445 -0.292219
v -0.606404 0.493959 -0.281804
v -0.547932 0.601270 -0.254409
v -0.460564 0.601590 -0.263265
v -0.513830 0.497304 -0.293448
v -0.606404 0.493959 -0.281804
v -0.715996 0.489126 -0.219384
v -0.652185 0.601163 -0.199964
v -0.547932 0.601270 -0.254409
v -0.606404 0.493959 -0.281804
v -0.628801 0.361445 -0.292219
v -0.742433 0.359484 -0.227491
v -0.715996 0.489126 -0.219384
v 0.058603 0.493960 0.665746
v 0.002506 0.497304 0.591555
v 0.002606 0.362676 0.613417
v 0.060782 0.361445 0.690350
v 0.058603 0.493960 0.665746
v 0.054692 0.601270 0.602334
v 0.002813 0.601590 0.530796
v 0.002506 0.497304 0.591555
v 0.058603 0.493960 0.665746
v 0.167044 0.489127 0.729207
v 0.154758 0.601163 0.665852
v 0.054692 0.601270 0.602334
v 0.058603 0.493960 0.665746
v 0.060782 0.361445 0.690350
v 0.173241 0.359484 0.756156
v 0.167044 0.489127 0.729207
v 0.546702 0.493959 -0.383942
v 0.510774 0.497304 -0.298107
v 0.529657 0.362676 -0.309124
v 0.566920 0.361445 -0.398131
v 0.546702 0.493959 -0.383942
v 0.495341 0.601270 -0.347925
v 0.458850 0.601752 -0.266938
v 0.510774 0.497304 -0.298107
v 0.546702 0.493959 -0.383942
v 0.547028 0.489126 -0.509824
v 0.501105 0.601163 -0.465889
v 0.495341 0.601270 -0.347925
v 0.546702 0.493959 -0.383942
v 0.566920 0.361445 -0.398131
v 0.567267 0.359483 -0.528665
v 0.547028 0.489126 -0.509824
v 0.375164 0.487515 -0.651072
v 0.547028 0.489126 -0.509824
v 0.567267 0.359483 -0.528665
v 0.389055 0.358830 -0.675134
v 0.375164 0.487515 -0.651072
v 0.345570 0.601127 -0.596118
v 0.501105 0.601163 -0.465889
v 0.547028 0.489126 -0.509824
v 0.375164 0.487515 -0.651072
v 0.167044 0.489126 -0.729207
v 0.154758 0.601163 -0.665853
v 0.345570 0.601127 -0.596118
v 0.375164 0.487515 -0.651072
v 0.389055 0.358830 -0.675134
v 0.173241 0.359483 -0.756156
v 0.167044 0.489126 -0.729207
v 0.375164 0.487515 0.651072
v 0.167044 0.489127 0.729207
v 0.173241 0.359484 0.756156
v 0.389055 0.358830 0.675134
v 0.375164 0.487515 0.651072
v 0.345570 0.601127 0.596117
v 0.154758 0.601163 0.665852
v 0.167044 0.489127 0.729207
v 0.375164 0.487515 0.651072
v 0.547028 0.489127 0.509823
v 0.501105 0.601163 0.465889
v 0.345570 0.601127 0.596117
v 0.375164 0.487515 0.651072
v 0.389055 0.358830 0.675134
v 0.567267 0.359484 0.528665
v 0.547028 0.489127 0.509823
v -0.752527 0.487515 0.000000
v -0.715996 0.489126 -0.219384
v -0.742433 0.359484 -0.227491
v -0.780310 0.358830 0.000000
v -0.752527 0.487515 0.000000
v -0.686936 0.601127 0.000000
v -0.652185 0.601163 -0.199964
v -0.715996 0.489126 -0.219384
v -0.752527 0.487515 0.000000
v -0.715996 0.489126 0.219384
v -0.652185 0.601163 0.199964
v -0.686936 0.601127 0.000000
v -0.752527 0.487515 0.000000
v -0.780310 0.358830 0.000000
v -0.742433 0.359484 0.227491
v -0.715996 0.489126 0.219384
v 0.000000 0.693737 0.000000
v -0.049312 0.697304 -0.085411
v -0.103235 0.700078 -0.059603
v -0.098624 0.697304 0.000000
v 0.000000 0.693737 0.000000
v 0.049312 0.697304 -0.085411
v 0.000000 0.700078 -0.119206
v -0.049312 0.697304 -0.085411
v 0.000000 0.693737 0.000000
v 0.098624 0.697304 0.000000
v 0.103235 0.700078 -0.059603
v 0.049312 0.697304 -0.085411
v 0.000000 0.693737 0.000000
v 0.049312 0.697304 0.085410
v 0.103235 0.700078 0.059603
v 0.098624 0.697304 0.000000
v 0.000000 0.693737 0.000000
v -0.049312 0.697304 0.085410
v 0.000000 0.700078 0.119206
v 0.049312 0.697304 0.085410
v 0.000000 0.693737 0.000000
v -0.098624 0.697304 0.000000
v -0.103235 0.700078 0.059603
v -0.049312 0.697304 0.085410
v 0.168688 0.708004 0.000000
v 0.244716 0.723003 -0.140076
v 0.147602 0.708004 -0.085218
v 0.245890 0.730237 0.000000
v 0.244716 0.723003 0.140076
v 0.147602 0.708004 0.085218
v 0.168688 0.708004 0.000000
v 0.098624 0.697304 0.000000
v 0.103235 0.700078 0.059603
v 0.147602 0.708004 0.085218
v 0.168688 0.708004 0.000000
v 0.147602 0.708004 -0.085218
v 0.103235 0.700078 -0.059603
v 0.098624 0.697304 0.000000
v -0.084344 0.708004 -0.146088
v -0.242365 0.722500 -0.139736
v -0.147602 0.708004 -0.085218
v -0.119687 0.728945 -0.210842
v 0.002536 0.722500 -0.281129
v 0.000000 0.708004 -0.170436
v -0.084344 0.708004 -0.146088
v -0.049312 0.697304 -0.085411
v 0.000000 0.700078 -0.119206
v 0.000000 0.708004 -0.170436
v -0.084344 0.708004 -0.146088
v -0.147602 0.708004 -0.085218
v -0.103235 0.700078 -0.059603
v -0.049312 0.697304 -0.085411
v -0.084344 0.708004 0.146088
v 0.002536 0.722501 0.281129
v 0.000000 0.708004 0.170436
v -0.119687 0.728945 0.210842
v -0.242365 0.722500 0.139736
v -0.147602 0.708004 0.085218
v -0.084344 0.708004 0.146088
v -0.049312 0.697304 0.085410
v -0.103235 0.700078 0.059603
v -0.147602 0.708004 0.085218
v -0.084344 0.708004 0.146088
v 0.000000 0.708004 0.170436
v 0.000000 0.700078 0.119206
v -0.049312 0.697304 0.085410
v 0.084344 0.708004 -0.146088
v 0.002536 0.722500 -0.281129
v 0.000000 0.708004 -0.170436
v 0.126402 0.728430 -0.215397
v 0.244716 0.723003 -0.140076
v 0.147602 0.708004 -0.085218
v 0.084344 0.708004 -0.146088
v 0.049312 0.697304 -0.085411
v 0.103235 0.700078 -0.059603
v 0.147602 0.708004 -0.085218
v 0.084344 0.708004 -0.146088
v 0.000000 0.708004 -0.170436
v 0.000000 0.700078 -0.119206
v 0.049312 0.697304 -0.085411
v 0.084344 0.708004 0.146088
v 0.244716 0.723003 0.140076
v 0.147602 0.708004 0.085218
v 0.126402 0.728430 0.215397
v 0.002536 0.722501 0.281129
v 0.000000 0.708004 0.170436
v 0.084344 0.708004 0.146088
v 0.049312 0.697304 0.085410
v 0.000000 0.700078 0.119206
v 0.000000 0.708004 0.170436
v 0.084344 0.708004 0.146088
v 0.147602 0.708004 0.085218
v 0.103235 0.700078 0.059603
v 0.049312 0.697304 0.085410
vn -0.443400 0.297333 -0.845570
vn -0.443400 0.297333 -0.845570
vn -0.443400 0.297333 -0.845570
vn -0.443400 0.297333 -0.845570
vn -0.910963 0.412488 0.000000
vn -0.910963 0.412488 0.000000
vn -0.910963 0.412488 0.000000
vn -0.910963 0.412488 0.000000
vn -0.443400 0.297333 0.845570
vn -0.443400 0.297333 0.845570
vn -0.443400 0.297333 0.845570
vn -0.443400 0.297333 0.845570
vn 0.497780 -0.094136 0.862180
vn 0.497780 -0.094136 0.862180
vn 0.497780 -0.094136 0.862180
vn 0.497780 -0.094136 0.862180
vn -0.758001 -0.652254 0.000000
vn -0.758001 -0.652254 0.000000
vn -0.758001 -0.652254 0.000000
vn -0.758001 -0.652254 0.000000
vn 0.953604 -0.301064 0.000000
vn 0.953604 -0.301064 0.000000
vn 0.953604 -0.301064 0.000000
vn 0.953604 -0.301064 0.000000
vn 0.497780 -0.094136 -0.862180
vn 0.497780 -0.094136 -0.862180
vn 0.497780 -0.094136 -0.862180
vn 0.497780 -0.094136 -0.862180
vn 0.000000 -1.000000 0.000000
vn 0.000000 -1.000000 0.000000
vn 0.000000 -1.000000 0.000000
vn 0.000000 -1.000000 0.000000
vn 0.000000 -1.000000 0.000000
vn 0.000000 -1.000000 0.000000
vn 0.469336 0.214066 -0.856679
vn 0.469336 0.214066 -0.856679
vn 0.469336 0.214066 -0.856679
vn 0.469336 0.214066 -0.856679
vn 0.725984 0.687711 0.000000
vn 0.725984 0.687711 0.000000
vn 0.725984 0.687711 0.000000
vn 0.725984 0.687711 0.000000
vn -0.313559 -0.339263 -0.886894
vn -0.313559 -0.339263 -0.886894
vn -0.313559 -0.339263 -0.886894
vn -0.313559 -0.339263 -0.886894
vn -0.313560 -0.339263 0.886894
vn -0.313560 -0.339263 0.886894
vn -0.313560 -0.339263 0.886894
vn -0.313560 -0.339263 0.886894
vn 0.390301 0.419307 -0.819663
vn 0.390301 0.419307 -0.819663
vn 0.390301 0.419307 -0.819663
vn 0.390301 0.419307 -0.819663
vn 0.390301 0.419307 0.819662
vn 0.390301 0.419307 0.819662
vn 0.390301 0.419307 0.819662
vn 0.390301 0.419307 0.819662
vn 0.002546 0.999997 0.000000
vn 0.002546 0.999997 0.000000
vn 0.002546 0.999997 0.000000
vn 0.002546 0.999997 0.000000
vn 0.002546 0.999997 0.000000
vn 0.002546 0.999997 0.000000
vn 0.469335 0.214066 0.856680
vn 0.469335 0.214066 0.856680
vn 0.469335 0.214066 0.856680
vn 0.469335 0.214066 0.856680
vn -0.999736 -0.022966 0.000000
vn -0.999736 -0.022966 0.000000
vn -0.999736 -0.022966 0.000000
vn -0.999736 -0.022966 0.000000
vn 0.966120 0.258092 0.000000
vn 0.966120 0.258092 0.000000
vn 0.966120 0.258092 0.000000
vn 0.966120 0.258092 0.000000
vn -0.556685 0.062740 0.828351
vn -0.556685 0.062740 0.828351
vn -0.556685 0.062740 0.828351
vn -0.556685 0.062740 0.828351
vn -0.556686 0.062740 -0.828351
vn -0.556686 0.062740 -0.828351
vn -0.556686 0.062740 -0.828351
vn -0.556686 0.062740 -0.828351
vn -0.229735 0.966499 0.114460
vn -0.229735 0.966499 0.114460
vn -0.229735 0.966499 0.114460
vn -0.229735 0.966499 0.114460
vn -0.229734 0.966499 -0.114460
vn -0.229734 0.966499 -0.114460
vn -0.229734 0.966499 -0.114460
vn -0.229734 0.966499 -0.114460
vn -0.031275 0.979794 -0.197550
vn -0.031275 0.979794 -0.197550
vn -0.031275 0.979794 -0.197550
vn -0.031275 0.979794 -0.197550
vn -0.031273 0.979794 0.197550
vn -0.031273 0.979794 0.197550
vn -0.031273 0.979794 0.197550
vn -0.031273 0.979794 0.197550
vn -0.170195 -0.975968 0.136086
vn -0.170195 -0.975968 0.136086
vn -0.170195 -0.975968 0.136086
vn -0.170195 -0.975968 0.136086
vn -0.170195 -0.975968 -0.136086
vn -0.170195 -0.975968 -0.136086
vn -0.170195 -0.975968 -0.136086
vn -0.170195 -0.975968 -0.136086
vn -0.483573 -0.857406 -0.176101
vn -0.483573 -0.857406 -0.176101
vn -0.483573 -0.857406 -0.176101
vn -0.483573 -0.857406 -0.176101
vn -0.483574 -0.857406 0.176102
vn -0.483574 -0.857406 0.176102
vn -0.483574 -0.857406 0.176102
vn -0.483574 -0.857406 0.176102
vn 0.026491 -0.974200 0.224127
vn 0.026491 -0.974200 0.224127
vn 0.026491 -0.974200 0.224127
vn 0.026491 -0.974200 0.224127
vn -0.207217 -0.974260 0.088761
vn -0.207217 -0.974260 0.088761
vn -0.207217 -0.974260 0.088761
vn -0.207217 -0.974260 0.088761
vn -0.423219 -0.815404 0.394971
vn -0.423219 -0.815404 0.394971
vn -0.423219 -0.815404 0.394971
vn -0.423219 -0.815404 0.394971
vn -0.130856 -0.815037 0.564440
vn -0.130856 -0.815037 0.564440
vn -0.130856 -0.815037 0.564440
vn -0.130856 -0.815037 0.564440
vn -0.006761 0.979349 0.202063
vn -0.006761 0.979349 0.202063
vn -0.006761 0.979349 0.202063
vn -0.006761 0.979349 0.202063
vn -0.171021 0.979906 0.102648
vn -0.171021 0.979906 0.102648
vn -0.171021 0.979906 0.102648
vn -0.171021 0.979906 0.102648
vn -0.141156 0.986645 -0.081285
vn -0.141156 0.986645 -0.081285
vn -0.141156 0.986645 -0.081285
vn -0.141156 0.986645 -0.081285
vn 0.141251 0.985878 0.089964
vn 0.141251 0.985878 0.089964
vn 0.141251 0.985878 0.089964
vn 0.141251 0.985878 0.089964
vn 0.199165 0.979960 0.003345
vn 0.199165 0.979960 0.003345
vn 0.199165 0.979960 0.003345
vn 0.199165 0.979960 0.003345
vn 0.199167 0.979960 -0.003345
vn 0.199167 0.979960 -0.003345
vn 0.152628 0.987618 0.036280
vn 0.152628 0.987618 0.036280
vn 0.152628 0.987618 0.036280
vn 0.152628 0.987618 0.036280
vn 0.152628 0.987618 -0.036280
vn 0.152628 0.987618 -0.036280
vn 0.152628 0.987618 -0.036280
vn 0.152628 0.987618 -0.036280
vn -0.207217 -0.974260 -0.088761
vn -0.207217 -0.974260 -0.088761
vn -0.207217 -0.974260 -0.088761
vn -0.207217 -0.974260 -0.088761
vn 0.026491 -0.974200 -0.224127
vn 0.026491 -0.974200 -0.224127
vn 0.026491 -0.974200 -0.224127
vn 0.026491 -0.974200 -0.224127
vn -0.130856 -0.815037 -0.564440
vn -0.130856 -0.815037 -0.564440
vn -0.130856 -0.815037 -0.564440
vn -0.130856 -0.815037 -0.564440
vn -0.423219 -0.815404 -0.394970
vn -0.423219 -0.815404 -0.394970
vn -0.423219 -0.815404 -0.394970
vn -0.423219 -0.815404 -0.394970
vn 0.203139 -0.975888 0.079852
vn 0.203139 -0.975888 0.079852
vn 0.203139 -0.975888 0.079852
vn 0.203139 -0.975888 0.079852
vn -0.032631 -0.975939 0.215589
vn -0.032631 -0.975939 0.215589
vn -0.032631 -0.975939 0.215589
vn -0.032631 -0.975939 0.215589
vn 0.089977 -0.856869 0.507622
vn 0.089977 -0.856869 0.507622
vn 0.089977 -0.856869 0.507622
vn 0.089977 -0.856869 0.507622
vn 0.394799 -0.856583 0.332263
vn 0.394799 -0.856583 0.332263
vn 0.394799 -0.856583 0.332263
vn 0.394799 -0.856583 0.332263
vn 0.001129 -0.996819 -0.079691
vn 0.001129 -0.996819 -0.079691
vn 0.001129 -0.996819 -0.079691
vn 0.001129 -0.996819 -0.079691
vn -0.069564 -0.996820 -0.038858
vn -0.069564 -0.996820 -0.038858
vn -0.069564 -0.996820 -0.038858
vn -0.069564 -0.996820 -0.038858
vn -0.069564 -0.996820 0.038859
vn -0.069564 -0.996820 0.038859
vn -0.069564 -0.996820 0.038859
vn -0.069564 -0.996820 0.038859
vn 0.001129 -0.996819 0.079691
vn 0.001129 -0.996819 0.079691
vn 0.001129 -0.996819 0.079691
vn 0.001129 -0.996819 0.079691
vn 0.068464 -0.996818 0.040832
vn 0.068464 -0.996818 0.040832
vn 0.068464 -0.996818 0.040832
vn 0.068464 -0.996818 0.040832
vn 0.068464 -0.996818 -0.040831
vn 0.068464 -0.996818 -0.040831
vn 0.068464 -0.996818 -0.040831
vn 0.068464 -0.996818 -0.040831
vn -0.754405 0.639670 -0.147292
vn -0.754405 0.639670 -0.147292
vn -0.754405 0.639670 -0.147292
vn -0.754405 0.639670 -0.147292
vn -0.455225 0.876780 -0.155010
vn -0.455225 0.876780 -0.155010
vn -0.455225 0.876780 -0.155010
vn -0.455225 0.876780 -0.155010
vn -0.455224 0.876780 0.155010
vn -0.455224 0.876780 0.155010
vn -0.455224 0.876780 0.155010
vn -0.455224 0.876780 0.155010
vn -0.754405 0.639670 0.147292
vn -0.754405 0.639670 0.147292
vn -0.754405 0.639670 0.147292
vn -0.754405 0.639670 0.147292
vn 0.256995 0.602062 0.755959
vn 0.256995 0.602062 0.755959
vn 0.256995 0.602062 0.755959
vn 0.256995 0.602062 0.755959
vn 0.092740 0.868121 0.487611
vn 0.092740 0.868121 0.487611
vn 0.092740 0.868121 0.487611
vn 0.092740 0.868121 0.487611
vn 0.383320 0.863414 0.327996
vn 0.383320 0.863414 0.327996
vn 0.383320 0.863414 0.327996
vn 0.383320 0.863414 0.327996
vn 0.531795 0.591600 0.605973
vn 0.531795 0.591600 0.605973
vn 0.531795 0.591600 0.605973
vn 0.531795 0.591600 0.605973
vn 0.531795 0.591600 -0.605973
vn 0.531795 0.591600 -0.605973
vn 0.531795 0.591600 -0.605973
vn 0.531795 0.591600 -0.605973
vn 0.383320 0.863415 -0.327996
vn 0.383320 0.863415 -0.327996
vn 0.383320 0.863415 -0.327996
vn 0.383320 0.863415 -0.327996
vn 0.092740 0.868121 -0.487611
vn 0.092740 0.868121 -0.487611
vn 0.092740 0.868121 -0.487611
vn 0.092740 0.868121 -0.487611
vn 0.256995 0.602062 -0.755960
vn 0.256995 0.602062 -0.755960
vn 0.256995 0.602062 -0.755960
vn 0.256995 0.602062 -0.755960
vn -0.171022 0.979906 -0.102648
vn -0.171022 0.979906 -0.102648
vn -0.171022 0.979906 -0.102648
vn -0.171022 0.979906 -0.102648
vn -0.006761 0.979349 -0.202063
vn -0.006761 0.979349 -0.202063
vn -0.006761 0.979349 -0.202063
vn -0.006761 0.979349 -0.202063
vn 0.141251 0.985878 -0.089965
vn 0.141251 0.985878 -0.089965
vn 0.141251 0.985878 -0.089965
vn 0.141251 0.985878 -0.089965
vn -0.141156 0.986645 0.081284
vn -0.141156 0.986645 0.081284
vn -0.141156 0.986645 0.081284
vn -0.141156 0.986645 0.081284
vn 0.782334 0.468196 0.410788
vn 0.782334 0.468196 0.410788
vn 0.782334 0.468196 0.410788
vn 0.782334 0.468196 0.410788
vn 0.496700 0.777382 0.385962
vn 0.496700 0.777382 0.385962
vn 0.496700 0.777382 0.385962
vn 0.496700 0.777382 0.385962
vn 0.507737 0.842615 0.179453
vn 0.507737 0.842615 0.179453
vn 0.507737 0.842615 0.179453
vn 0.507737 0.842615 0.179453
vn 0.851525 0.507903 0.130157
vn 0.851525 0.507903 0.130157
vn 0.851525 0.507903 0.130157
vn 0.851525 0.507903 0.130157
vn 0.188579 0.977012 -0.099427
vn 0.188579 0.977012 -0.099427
vn 0.188579 0.977012 -0.099427
vn 0.188579 0.977012 -0.099427
vn 0.188580 0.977012 0.099426
vn 0.188580 0.977012 0.099426
vn 0.188580 0.977012 0.099426
vn 0.188580 0.977012 0.099426
vn 0.003830 0.986260 0.165158
vn 0.003830 0.986260 0.165158
vn 0.003830 0.986260 0.165158
vn 0.003830 0.986260 0.165158
vn 0.003830 0.986260 -0.165158
vn 0.003830 0.986260 -0.165158
vn 0.003830 0.986260 -0.165158
vn 0.003830 0.986260 -0.165158
vn 0.919608 -0.089184 -0.382581
vn 0.919608 -0.089184 -0.382581
vn 0.919608 -0.089184 -0.382581
vn 0.919608 -0.089184 -0.382581
vn 0.845600 -0.499294 -0.188853
vn 0.845600 -0.499294 -0.188853
vn 0.845600 -0.499294 -0.188853
vn 0.845600 -0.499294 -0.188853
vn 0.786533 -0.605024 0.123742
vn 0.786533 -0.605024 0.123742
vn 0.786533 -0.605024 0.123742
vn 0.786533 -0.605024 0.123742
vn 0.989678 -0.143309 0.000883
vn 0.989678 -0.143309 0.000883
vn 0.989678 -0.143309 0.000883
vn 0.989678 -0.143309 0.000883
vn -0.793176 -0.088755 -0.602490
vn -0.793176 -0.088755 -0.602490
vn -0.793176 -0.088755 -0.602490
vn -0.793176 -0.088755 -0.602490
vn -0.588380 -0.498972 -0.636267
vn -0.588380 -0.498972 -0.636267
vn -0.588380 -0.498972 -0.636267
vn -0.588380 -0.498972 -0.636267
vn -0.288081 -0.605348 -0.741999
vn -0.288081 -0.605348 -0.741999
vn -0.288081 -0.605348 -0.741999
vn -0.288081 -0.605348 -0.741999
vn -0.496875 -0.142938 -0.855970
vn -0.496875 -0.142938 -0.855970
vn -0.496875 -0.142938 -0.855970
vn -0.496875 -0.142938 -0.855970
vn -0.722251 0.512098 0.464875
vn -0.722251 0.512098 0.464875
vn -0.722251 0.512098 0.464875
vn -0.722251 0.512098 0.464875
vn -0.550147 0.799740 0.240322
vn -0.550147 0.799740 0.240322
vn -0.550147 0.799740 0.240322
vn -0.550147 0.799740 0.240322
vn -0.374164 0.862052 0.341858
vn -0.374164 0.862052 0.341858
vn -0.374164 0.862052 0.341858
vn -0.374164 0.862052 0.341858
vn -0.504849 0.561691 0.655462
vn -0.504849 0.561691 0.655462
vn -0.504849 0.561691 0.655462
vn -0.504849 0.561691 0.655462
vn -0.032631 -0.975939 -0.215588
vn -0.032631 -0.975939 -0.215588
vn -0.032631 -0.975939 -0.215588
vn -0.032631 -0.975939 -0.215588
vn 0.203139 -0.975888 -0.079851
vn 0.203139 -0.975888 -0.079851
vn 0.203139 -0.975888 -0.079851
vn 0.203139 -0.975888 -0.079851
vn 0.394799 -0.856583 -0.332263
vn 0.394799 -0.856583 -0.332263
vn 0.394799 -0.856583 -0.332263
vn 0.394799 -0.856583 -0.332263
vn 0.089977 -0.856869 -0.507622
vn 0.089977 -0.856869 -0.507622
vn 0.089977 -0.856869 -0.507622
vn 0.089977 -0.856869 -0.507622
vn -0.126466 -0.088922 0.987977
vn -0.126466 -0.088922 0.987977
vn -0.126466 -0.088922 0.987977
vn -0.126466 -0.088922 0.987977
vn -0.257391 -0.499047 0.827467
vn -0.257391 -0.499047 0.827467
vn -0.257391 -0.499047 0.827467
vn -0.257391 -0.499047 0.827467
vn -0.498183 -0.605411 0.620719
vn -0.498183 -0.605411 0.620719
vn -0.498183 -0.605411 0.620719
vn -0.498183 -0.605411 0.620719
vn -0.492862 -0.142939 0.858286
vn -0.492862 -0.142939 0.858286
vn -0.492862 -0.142939 0.858286
vn -0.492862 -0.142939 0.858286
vn -0.034152 0.491117 -0.870424
vn -0.034152 0.491117 -0.870424
vn -0.034152 0.491117 -0.870424
vn -0.034152 0.491117 -0.870424
vn 0.083933 0.781048 -0.618805
vn 0.083933 0.781048 -0.618805
vn 0.083933 0.781048 -0.618805
vn 0.083933 0.781048 -0.618805
vn -0.105794 0.856289 -0.505547
vn -0.105794 0.856289 -0.505547
vn -0.105794 0.856289 -0.505547
vn -0.105794 0.856289 -0.505547
vn -0.314999 0.554302 -0.770405
vn -0.314999 0.554302 -0.770405
vn -0.314999 0.554302 -0.770405
vn -0.314999 0.554302 -0.770405
vn -0.282549 0.590323 -0.756099
vn -0.282549 0.590323 -0.756099
vn -0.282549 0.590323 -0.756099
vn -0.282549 0.590323 -0.756099
vn -0.117573 0.848907 -0.515299
vn -0.117573 0.848907 -0.515299
vn -0.117573 0.848907 -0.515299
vn -0.117573 0.848907 -0.515299
vn -0.380631 0.853653 -0.355523
vn -0.380631 0.853653 -0.355523
vn -0.380631 0.853653 -0.355523
vn -0.380631 0.853653 -0.355523
vn -0.508969 0.599125 -0.618061
vn -0.508969 0.599125 -0.618061
vn -0.508969 0.599125 -0.618061
vn -0.508969 0.599125 -0.618061
vn -0.508968 0.599125 0.618062
vn -0.508968 0.599125 0.618062
vn -0.508968 0.599125 0.618062
vn -0.508968 0.599125 0.618062
vn -0.380631 0.853654 0.355522
vn -0.380631 0.853654 0.355522
vn -0.380631 0.853654 0.355522
vn -0.380631 0.853654 0.355522
vn -0.117573 0.848908 0.515298
vn -0.117573 0.848908 0.515298
vn -0.117573 0.848908 0.515298
vn -0.117573 0.848908 0.515298
vn -0.282549 0.590322 0.756099
vn -0.282549 0.590322 0.756099
vn -0.282549 0.590322 0.756099
vn -0.282549 0.590322 0.756099
vn 0.833929 0.531112 0.149943
vn 0.833929 0.531112 0.149943
vn 0.833929 0.531112 0.149943
vn 0.833929 0.531112 0.149943
vn 0.533462 0.824578 0.188387
vn 0.533462 0.824578 0.188387
vn 0.533462 0.824578 0.188387
vn 0.533462 0.824578 0.188387
vn 0.533462 0.824578 -0.188387
vn 0.533462 0.824578 -0.188387
vn 0.533462 0.824578 -0.188387
vn 0.533462 0.824578 -0.188387
vn 0.833929 0.531112 -0.149943
vn 0.833929 0.531112 -0.149943
vn 0.833929 0.531112 -0.149943
vn 0.833929 0.531112 -0.149943
vn 0.205924 0.968027 0.143245
vn 0.205924 0.968027 0.143245
vn 0.205924 0.968027 0.143245
vn 0.205924 0.968027 0.143245
vn 0.018228 0.970103 0.242009
vn 0.018228 0.970103 0.242009
vn 0.018228 0.970103 0.242009
vn 0.018228 0.970103 0.242009
vn -0.142060 0.985480 0.092996
vn -0.142060 0.985480 0.092996
vn -0.142060 0.985480 0.092996
vn -0.142060 0.985480 0.092996
vn 0.160197 0.984495 -0.071458
vn 0.160197 0.984495 -0.071458
vn 0.160197 0.984495 -0.071458
vn 0.160197 0.984495 -0.071458
vn 0.018227 0.970103 -0.242009
vn 0.018227 0.970103 -0.242009
vn 0.018227 0.970103 -0.242009
vn 0.018227 0.970103 -0.242009
vn 0.205924 0.968027 -0.143246
vn 0.205924 0.968027 -0.143246
vn 0.205924 0.968027 -0.143246
vn 0.205924 0.968027 -0.143246
vn 0.160197 0.984495 0.071457
vn 0.160197 0.984495 0.071457
vn 0.160197 0.984495 0.071457
vn 0.160197 0.984495 0.071457
vn -0.142060 0.985480 -0.092996
vn -0.142060 0.985480 -0.092996
vn -0.142060 0.985480 -0.092996
vn -0.142060 0.985480 -0.092996
vn 0.308717 -0.109624 -0.944816
vn 0.308717 -0.109624 -0.944816
vn 0.308717 -0.109624 -0.944816
vn 0.308717 -0.109624 -0.944816
vn 0.371581 -0.518479 -0.770134
vn 0.371581 -0.518479 -0.770134
vn 0.371581 -0.518479 -0.770134
vn 0.371581 -0.518479 -0.770134
vn 0.581069 -0.572761 -0.578190
vn 0.581069 -0.572761 -0.578190
vn 0.581069 -0.572761 -0.578190
vn 0.581069 -0.572761 -0.578190
vn 0.587949 -0.146051 -0.795604
vn 0.587949 -0.146051 -0.795604
vn 0.587949 -0.146051 -0.795604
vn 0.587949 -0.146051 -0.795604
vn 0.160864 0.594939 0.787509
vn 0.160864 0.594939 0.787509
vn 0.160864 0.594939 0.787509
vn 0.160864 0.594939 0.787509
vn -0.050884 0.805850 0.589929
vn -0.050884 0.805850 0.589929
vn -0.050884 0.805850 0.589929
vn -0.050884 0.805850 0.589929
vn 0.109753 0.834311 0.540259
vn 0.109753 0.834311 0.540259
vn 0.109753 0.834311 0.540259
vn 0.109753 0.834311 0.540259
vn 0.359725 0.569058 0.739439
vn 0.359725 0.569058 0.739439
vn 0.359725 0.569058 0.739439
vn 0.359725 0.569058 0.739439
vn 0.660802 0.536359 -0.525033
vn 0.660802 0.536359 -0.525033
vn 0.660802 0.536359 -0.525033
vn 0.660802 0.536359 -0.525033
vn 0.593825 0.769898 -0.233729
vn 0.593825 0.769898 -0.233729
vn 0.593825 0.769898 -0.233729
vn 0.593825 0.769898 -0.233729
vn 0.402350 0.840041 -0.363932
vn 0.402350 0.840041 -0.363932
vn 0.402350 0.840041 -0.363932
vn 0.402350 0.840041 -0.363932
vn 0.474346 0.533877 -0.699980
vn 0.474346 0.533877 -0.699980
vn 0.474346 0.533877 -0.699980
vn 0.474346 0.533877 -0.699980
vn 0.663172 -0.109722 0.740381
vn 0.663172 -0.109722 0.740381
vn 0.663172 -0.109722 0.740381
vn 0.663172 -0.109722 0.740381
vn 0.480959 -0.518496 0.706994
vn 0.480959 -0.518496 0.706994
vn 0.480959 -0.518496 0.706994
vn 0.480959 -0.518496 0.706994
vn 0.211002 -0.572942 0.791970
vn 0.211002 -0.572942 0.791970
vn 0.211002 -0.572942 0.791970
vn 0.211002 -0.572942 0.791970
vn 0.395486 -0.146007 0.906793
vn 0.395486 -0.146007 0.906793
vn 0.395486 -0.146007 0.906793
vn 0.395486 -0.146007 0.906793
vn -0.766511 0.577575 -0.280832
vn -0.766511 0.577575 -0.280832
vn -0.766511 0.577575 -0.280832
vn -0.766511 0.577575 -0.280832
vn -0.481232 0.803552 -0.350313
vn -0.481232 0.803552 -0.350313
vn -0.481232 0.803552 -0.350313
vn -0.481232 0.803552 -0.350313
vn -0.491186 0.859992 -0.138382
vn -0.491186 0.859992 -0.138382
vn -0.491186 0.859992 -0.138382
vn -0.491186 0.859992 -0.138382
vn -0.811441 0.582961 -0.041487
vn -0.811441 0.582961 -0.041487
vn -0.811441 0.582961 -0.041487
vn -0.811441 0.582961 -0.041487
vn 0.181103 -0.974160 -0.134960
vn 0.181103 -0.974160 -0.134960
vn 0.181103 -0.974160 -0.134960
vn 0.181103 -0.974160 -0.134960
vn 0.181103 -0.974160 0.134960
vn 0.181103 -0.974160 0.134960
vn 0.181103 -0.974160 0.134960
vn 0.181103 -0.974160 0.134960
vn 0.555616 -0.814171 0.168571
vn 0.555616 -0.814171 0.168571
vn 0.555616 -0.814171 0.168571
vn 0.555616 -0.814171 0.168571
vn 0.555616 -0.814171 -0.168571
vn 0.555616 -0.814171 -0.168571
vn 0.555616 -0.814171 -0.168571
vn 0.555616 -0.814171 -0.168571
vn -0.971929 -0.109267 0.208361
vn -0.971929 -0.109267 0.208361
vn -0.971929 -0.109267 0.208361
vn -0.971929 -0.109267 0.208361
vn -0.852654 -0.518295 0.065971
vn -0.852654 -0.518295 0.065971
vn -0.852654 -0.518295 0.065971
vn -0.852654 -0.518295 0.065971
vn -0.791649 -0.573429 -0.210884
vn -0.791649 -0.573429 -0.210884
vn -0.791649 -0.573429 -0.210884
vn -0.791649 -0.573429 -0.210884
vn -0.983477 -0.145693 -0.107453
vn -0.983477 -0.145693 -0.107453
vn -0.983477 -0.145693 -0.107453
vn -0.983477 -0.145693 -0.107453
vn -0.900290 0.384598 0.203869
vn -0.900290 0.384598 0.203869
vn -0.900290 0.384598 0.203869
vn -0.900290 0.384598 0.203869
vn -0.970982 0.120886 0.206353
vn -0.970982 0.120886 0.206353
vn -0.970982 0.120886 0.206353
vn -0.970982 0.120886 0.206353
vn -0.981746 0.155935 -0.108901
vn -0.981746 0.155935 -0.108901
vn -0.981746 0.155935 -0.108901
vn -0.981746 0.155935 -0.108901
vn -0.898271 0.431136 -0.085038
vn -0.898271 0.431136 -0.085038
vn -0.898271 0.431136 -0.085038
vn -0.898271 0.431136 -0.085038
vn -0.852654 -0.518295 -0.065971
vn -0.852654 -0.518295 -0.065971
vn -0.852654 -0.518295 -0.065971
vn -0.852654 -0.518295 -0.065971
vn -0.971929 -0.109267 -0.208360
vn -0.971929 -0.109267 -0.208360
vn -0.971929 -0.109267 -0.208360
vn -0.971929 -0.109267 -0.208360
vn -0.983477 -0.145693 0.107453
vn -0.983477 -0.145693 0.107453
vn -0.983477 -0.145693 0.107453
vn -0.983477 -0.145693 0.107453
vn -0.791648 -0.573428 0.210886
vn -0.791648 -0.573428 0.210886
vn -0.791648 -0.573428 0.210886
vn -0.791648 -0.573428 0.210886
vn 0.631213 0.373967 0.679499
vn 0.631213 0.373967 0.679499
vn 0.631213 0.373967 0.679499
vn 0.631213 0.373967 0.679499
vn 0.660955 0.121385 0.740543
vn 0.660955 0.121385 0.740543
vn 0.660955 0.121385 0.740543
vn 0.660955 0.121385 0.740543
vn 0.393372 0.156269 0.906001
vn 0.393372 0.156269 0.906001
vn 0.393372 0.156269 0.906001
vn 0.393372 0.156269 0.906001
vn 0.379994 0.416725 0.825800
vn 0.379994 0.416725 0.825800
vn 0.379994 0.416725 0.825800
vn 0.379994 0.416725 0.825800
vn 0.480959 -0.518496 -0.706994
vn 0.480959 -0.518496 -0.706994
vn 0.480959 -0.518496 -0.706994
vn 0.480959 -0.518496 -0.706994
vn 0.663172 -0.109722 -0.740381
vn 0.663172 -0.109722 -0.740381
vn 0.663172 -0.109722 -0.740381
vn 0.663172 -0.109722 -0.740381
vn 0.395485 -0.146007 -0.906793
vn 0.395485 -0.146007 -0.906793
vn 0.395485 -0.146007 -0.906793
vn 0.395485 -0.146007 -0.906793
vn 0.211002 -0.572941 -0.791970
vn 0.211002 -0.572941 -0.791970
vn 0.211002 -0.572941 -0.791970
vn 0.211002 -0.572941 -0.791970
vn 0.371581 -0.518479 0.770134
vn 0.371581 -0.518479 0.770134
vn 0.371581 -0.518479 0.770134
vn 0.371581 -0.518479 0.770134
vn 0.308717 -0.109623 0.944816
vn 0.308717 -0.109623 0.944816
vn 0.308717 -0.109623 0.944816
vn 0.308717 -0.109623 0.944816
vn 0.587949 -0.146051 0.795604
vn 0.587949 -0.146051 0.795604
vn 0.587949 -0.146051 0.795604
vn 0.587949 -0.146051 0.795604
vn 0.581069 -0.572761 0.578190
vn 0.581069 -0.572761 0.578190
vn 0.581069 -0.572761 0.578190
vn 0.581069 -0.572761 0.578190
vn 0.281225 0.388846 -0.877332
vn 0.281225 0.388846 -0.877332
vn 0.281225 0.388846 -0.877332
vn 0.281225 0.388846 -0.877332
vn 0.309977 0.121277 -0.942977
vn 0.309977 0.121277 -0.942977
vn 0.309977 0.121277 -0.942977
vn 0.309977 0.121277 -0.942977
vn 0.588323 0.156314 -0.793374
vn 0.588323 0.156314 -0.793374
vn 0.588323 0.156314 -0.793374
vn 0.588323 0.156314 -0.793374
vn 0.523268 0.426160 -0.737955
vn 0.523268 0.426160 -0.737955
vn 0.523268 0.426160 -0.737955
vn 0.523268 0.426160 -0.737955
vn 0.861099 -0.491904 0.128601
vn 0.861099 -0.491904 0.128601
vn 0.861099 -0.491904 0.128601
vn 0.861099 -0.491904 0.128601
vn 0.974307 -0.183031 0.131250
vn 0.974307 -0.183031 0.131250
vn 0.974307 -0.183031 0.131250
vn 0.974307 -0.183031 0.131250
vn 0.974307 -0.183031 -0.131250
vn 0.974307 -0.183031 -0.131250
vn 0.974307 -0.183031 -0.131250
vn 0.974307 -0.183031 -0.131250
vn 0.861099 -0.491904 -0.128601
vn 0.861099 -0.491904 -0.128601
vn 0.861099 -0.491904 -0.128601
vn 0.861099 -0.491904 -0.128601
vn -0.542165 -0.492784 0.680603
vn -0.542165 -0.492784 0.680603
vn -0.542165 -0.492784 0.680603
vn -0.542165 -0.492784 0.680603
vn -0.601341 -0.183033 0.777746
vn -0.601341 -0.183033 0.777746
vn -0.601341 -0.183033 0.777746
vn -0.601341 -0.183033 0.777746
vn -0.372966 -0.183033 0.909613
vn -0.372966 -0.183033 0.909613
vn -0.372966 -0.183033 0.909613
vn -0.372966 -0.183033 0.909613
vn -0.318472 -0.492643 0.809863
vn -0.318472 -0.492643 0.809863
vn -0.318472 -0.492643 0.809863
vn -0.318472 -0.492643 0.809863
vn -0.318472 -0.492644 -0.809863
vn -0.318472 -0.492644 -0.809863
vn -0.318472 -0.492644 -0.809863
vn -0.318472 -0.492644 -0.809863
vn -0.372966 -0.183034 -0.909613
vn -0.372966 -0.183034 -0.909613
vn -0.372966 -0.183034 -0.909613
vn -0.372966 -0.183034 -0.909613
vn -0.601341 -0.183034 -0.777746
vn -0.601341 -0.183034 -0.777746
vn -0.601341 -0.183034 -0.777746
vn -0.601341 -0.183034 -0.777746
vn -0.542165 -0.492784 -0.680604
vn -0.542165 -0.492784 -0.680604
vn -0.542165 -0.492784 -0.680604
vn -0.542165 -0.492784 -0.680604
vn -0.257391 -0.499047 -0.827467
vn -0.257391 -0.499047 -0.827467
vn -0.257391 -0.499047 -0.827467
vn -0.257391 -0.499047 -0.827467
vn -0.126466 -0.088922 -0.987977
vn -0.126466 -0.088922 -0.987977
vn -0.126466 -0.088922 -0.987977
vn -0.126466 -0.088922 -0.987977
vn -0.492862 -0.142939 -0.858286
vn -0.492862 -0.142939 -0.858286
vn -0.492862 -0.142939 -0.858286
vn -0.492862 -0.142939 -0.858286
vn -0.498182 -0.605411 -0.620719
vn -0.498182 -0.605411 -0.620719
vn -0.498182 -0.605411 -0.620719
vn -0.498182 -0.605411 -0.620719
vn -0.113739 0.316340 0.941803
vn -0.113739 0.316340 0.941803
vn -0.113739 0.316340 0.941803
vn -0.113739 0.316340 0.941803
vn -0.126541 0.098153 0.987094
vn -0.126541 0.098153 0.987094
vn -0.126541 0.098153 0.987094
vn -0.126541 0.098153 0.987094
vn -0.492663 0.152305 0.856788
vn -0.492663 0.152305 0.856788
vn -0.492663 0.152305 0.856788
vn -0.492663 0.152305 0.856788
vn -0.443361 0.416561 0.793668
vn -0.443361 0.416561 0.793668
vn -0.443361 0.416561 0.793668
vn -0.443361 0.416561 0.793668
vn -0.588380 -0.498972 0.636267
vn -0.588380 -0.498972 0.636267
vn -0.588380 -0.498972 0.636267
vn -0.588380 -0.498972 0.636267
vn -0.793176 -0.088755 0.602490
vn -0.793176 -0.088755 0.602490
vn -0.793176 -0.088755 0.602490
vn -0.793176 -0.088755 0.602490
vn -0.496874 -0.142938 0.855970
vn -0.496874 -0.142938 0.855970
vn -0.496874 -0.142938 0.855970
vn -0.496874 -0.142938 0.855970
vn -0.288081 -0.605348 0.742000
vn -0.288081 -0.605348 0.742000
vn -0.288081 -0.605348 0.742000
vn -0.288081 -0.605348 0.742000
vn -0.757078 0.321022 -0.569016
vn -0.757078 0.321022 -0.569016
vn -0.757078 0.321022 -0.569016
vn -0.757078 0.321022 -0.569016
vn -0.792374 0.097969 -0.602117
vn -0.792374 0.097969 -0.602117
vn -0.792374 0.097969 -0.602117
vn -0.792374 0.097969 -0.602117
vn -0.495674 0.152304 -0.855050
vn -0.495674 0.152304 -0.855050
vn -0.495674 0.152304 -0.855050
vn -0.495674 0.152304 -0.855050
vn -0.465571 0.416816 -0.780710
vn -0.465571 0.416816 -0.780710
vn -0.465571 0.416816 -0.780710
vn -0.465571 0.416816 -0.780710
vn 0.875105 0.308543 -0.372817
vn 0.875105 0.308543 -0.372817
vn 0.875105 0.308543 -0.372817
vn 0.875105 0.308543 -0.372817
vn 0.918872 0.098440 -0.382078
vn 0.918872 0.098440 -0.382078
vn 0.918872 0.098440 -0.382078
vn 0.918872 0.098440 -0.382078
vn 0.988272 0.152697 0.001452
vn 0.988272 0.152697 0.001452
vn 0.988272 0.152697 0.001452
vn 0.988272 0.152697 0.001452
vn 0.916010 0.400883 -0.014753
vn 0.916010 0.400883 -0.014753
vn 0.916010 0.400883 -0.014753
vn 0.916010 0.400883 -0.014753
vn 0.845600 -0.499294 0.188853
vn 0.845600 -0.499294 0.188853
vn 0.845600 -0.499294 0.188853
vn 0.845600 -0.499294 0.188853
vn 0.919608 -0.089184 0.382581
vn 0.919608 -0.089184 0.382581
vn 0.919608 -0.089184 0.382581
vn 0.919608 -0.089184 0.382581
vn 0.989678 -0.143309 -0.000883
vn 0.989678 -0.143309 -0.000883
vn 0.989678 -0.143309 -0.000883
vn 0.989678 -0.143309 -0.000883
vn 0.786533 -0.605023 -0.123742
vn 0.786533 -0.605023 -0.123742
vn 0.786533 -0.605023 -0.123742
vn 0.786533 -0.605023 -0.123742
vn 0.539847 -0.551303 -0.636105
vn 0.539847 -0.551303 -0.636105
vn 0.539847 -0.551303 -0.636105
vn 0.539847 -0.551303 -0.636105
vn 0.621307 -0.200759 -0.757412
vn 0.621307 -0.200759 -0.757412
vn 0.621307 -0.200759 -0.757412
vn 0.621307 -0.200759 -0.757412
vn 0.345181 -0.200758 -0.916813
vn 0.345181 -0.200758 -0.916813
vn 0.345181 -0.200758 -0.916813
vn 0.345181 -0.200758 -0.916813
vn 0.280809 -0.551452 -0.785523
vn 0.280809 -0.551452 -0.785523
vn 0.280809 -0.551452 -0.785523
vn 0.280809 -0.551452 -0.785523
vn 0.280809 -0.551452 0.785523
vn 0.280809 -0.551452 0.785523
vn 0.280809 -0.551452 0.785523
vn 0.280809 -0.551452 0.785523
vn 0.345181 -0.200758 0.916813
vn 0.345181 -0.200758 0.916813
vn 0.345181 -0.200758 0.916813
vn 0.345181 -0.200758 0.916813
vn 0.621307 -0.200758 0.757412
vn 0.621307 -0.200758 0.757412
vn 0.621307 -0.200758 0.757412
vn 0.621307 -0.200758 0.757412
vn 0.539847 -0.551303 0.636106
vn 0.539847 -0.551303 0.636106
vn 0.539847 -0.551303 0.636106
vn 0.539847 -0.551303 0.636106
vn -0.820181 -0.552083 -0.150026
vn -0.820181 -0.552083 -0.150026
vn -0.820181 -0.552083 -0.150026
vn -0.820181 -0.552083 -0.150026
vn -0.966488 -0.200757 -0.159996
vn -0.966488 -0.200757 -0.159996
vn -0.966488 -0.200757 -0.159996
vn -0.966488 -0.200757 -0.159996
vn -0.966487 -0.200757 0.159997
vn -0.966487 -0.200757 0.159997
vn -0.966487 -0.200757 0.159997
vn -0.966487 -0.200757 0.159997
vn -0.820181 -0.552083 0.150026
vn -0.820181 -0.552083 0.150026
vn -0.820181 -0.552083 0.150026
vn -0.820181 -0.552083 0.150026
vn 0.496700 0.777382 -0.385962
vn 0.496700 0.777382 -0.385962
vn 0.496700 0.777382 -0.385962
vn 0.496700 0.777382 -0.385962
vn 0.782333 0.468197 -0.410788
vn 0.782333 0.468197 -0.410788
vn 0.782333 0.468197 -0.410788
vn 0.782333 0.468197 -0.410788
vn 0.851524 0.507903 -0.130157
vn 0.851524 0.507903 -0.130157
vn 0.851524 0.507903 -0.130157
vn 0.851524 0.507903 -0.130157
vn 0.507738 0.842615 -0.179453
vn 0.507738 0.842615 -0.179453
vn 0.507738 0.842615 -0.179453
vn 0.507738 0.842615 -0.179453
vn -0.550147 0.799740 -0.240322
vn -0.550147 0.799740 -0.240322
vn -0.550147 0.799740 -0.240322
vn -0.550147 0.799740 -0.240322
vn -0.722251 0.512098 -0.464875
vn -0.722251 0.512098 -0.464875
vn -0.722251 0.512098 -0.464875
vn -0.722251 0.512098 -0.464875
vn -0.504849 0.561691 -0.655463
vn -0.504849 0.561691 -0.655463
vn -0.504849 0.561691 -0.655463
vn -0.504849 0.561691 -0.655463
vn -0.374164 0.862052 -0.341858
vn -0.374164 0.862052 -0.341858
vn -0.374164 0.862052 -0.341858
vn -0.374164 0.862052 -0.341858
vn 0.083932 0.781049 0.618804
vn 0.083932 0.781049 0.618804
vn 0.083932 0.781049 0.618804
vn 0.083932 0.781049 0.618804
vn -0.034152 0.491118 0.870423
vn -0.034152 0.491118 0.870423
vn -0.034152 0.491118 0.870423
vn -0.034152 0.491118 0.870423
vn -0.314999 0.554303 0.770405
vn -0.314999 0.554303 0.770405
vn -0.314999 0.554303 0.770405
vn -0.314999 0.554303 0.770405
vn -0.105794 0.856289 0.505547
vn -0.105794 0.856289 0.505547
vn -0.105794 0.856289 0.505547
vn -0.105794 0.856289 0.505547
vn -0.050885 0.805850 -0.589930
vn -0.050885 0.805850 -0.589930
vn -0.050885 0.805850 -0.589930
vn -0.050885 0.805850 -0.589930
vn 0.160864 0.594939 -0.787509
vn 0.160864 0.594939 -0.787509
vn 0.160864 0.594939 -0.787509
vn 0.160864 0.594939 -0.787509
vn 0.359725 0.569058 -0.739440
vn 0.359725 0.569058 -0.739440
vn 0.359725 0.569058 -0.739440
vn 0.359725 0.569058 -0.739440
vn 0.109753 0.834311 -0.540259
vn 0.109753 0.834311 -0.540259
vn 0.109753 0.834311 -0.540259
vn 0.109753 0.834311 -0.540259
vn 0.593824 0.769898 0.233729
vn 0.593824 0.769898 0.233729
vn 0.593824 0.769898 0.233729
vn 0.593824 0.769898 0.233729
vn 0.660802 0.536360 0.525033
vn 0.660802 0.536360 0.525033
vn 0.660802 0.536360 0.525033
vn 0.660802 0.536360 0.525033
vn 0.474346 0.533877 0.699980
vn 0.474346 0.533877 0.699980
vn 0.474346 0.533877 0.699980
vn 0.474346 0.533877 0.699980
vn 0.402350 0.840041 0.363932
vn 0.402350 0.840041 0.363932
vn 0.402350 0.840041 0.363932
vn 0.402350 0.840041 0.363932
vn -0.481233 0.803552 0.350313
vn -0.481233 0.803552 0.350313
vn -0.481233 0.803552 0.350313
vn -0.481233 0.803552 0.350313
vn -0.766511 0.577576 0.280832
vn -0.766511 0.577576 0.280832
vn -0.766511 0.577576 0.280832
vn -0.766511 0.577576 0.280832
vn -0.811441 0.582961 0.041487
vn -0.811441 0.582961 0.041487
vn -0.811441 0.582961 0.041487
vn -0.811441 0.582961 0.041487
vn -0.491186 0.859992 0.138382
vn -0.491186 0.859992 0.138382
vn -0.491186 0.859992 0.138382
vn -0.491186 0.859992 0.138382
vn -0.970981 0.120885 -0.206354
vn -0.970981 0.120885 -0.206354
vn -0.970981 0.120885 -0.206354
vn -0.970981 0.120885 -0.206354
vn -0.900290 0.384597 -0.203869
vn -0.900290 0.384597 -0.203869
vn -0.900290 0.384597 -0.203869
vn -0.900290 0.384597 -0.203869
vn -0.898271 0.431136 0.085038
vn -0.898271 0.431136 0.085038
vn -0.898271 0.431136 0.085038
vn -0.898271 0.431136 0.085038
vn -0.981746 0.155935 0.108902
vn -0.981746 0.155935 0.108902
vn -0.981746 0.155935 0.108902
vn -0.981746 0.155935 0.108902
vn 0.660955 0.121384 -0.740543
vn 0.660955 0.121384 -0.740543
vn 0.660955 0.121384 -0.740543
vn 0.660955 0.121384 -0.740543
vn 0.631213 0.373967 -0.679499
vn 0.631213 0.373967 -0.679499
vn 0.631213 0.373967 -0.679499
vn 0.631213 0.373967 -0.679499
vn 0.379994 0.416725 -0.825800
vn 0.379994 0.416725 -0.825800
vn 0.379994 0.416725 -0.825800
vn 0.379994 0.416725 -0.825800
vn 0.393372 0.156267 -0.906002
vn 0.393372 0.156267 -0.906002
vn 0.393372 0.156267 -0.906002
vn 0.393372 0.156267 -0.906002
vn 0.309976 0.121278 0.942977
vn 0.309976 0.121278 0.942977
vn 0.309976 0.121278 0.942977
vn 0.309976 0.121278 0.942977
vn 0.281225 0.388846 0.877332
vn 0.281225 0.388846 0.877332
vn 0.281225 0.388846 0.877332
vn 0.281225 0.388846 0.877332
vn 0.523268 0.426161 0.737955
vn 0.523268 0.426161 0.737955
vn 0.523268 0.426161 0.737955
vn 0.523268 0.426161 0.737955
vn 0.588323 0.156315 0.793374
vn 0.588323 0.156315 0.793374
vn 0.588323 0.156315 0.793374
vn 0.588323 0.156315 0.793374
vn 0.972958 0.190413 0.130754
vn 0.972958 0.190413 0.130754
vn 0.972958 0.190413 0.130754
vn 0.972958 0.190413 0.130754
vn 0.888555 0.441602 0.124331
vn 0.888555 0.441602 0.124331
vn 0.888555 0.441602 0.124331
vn 0.888555 0.441602 0.124331
vn 0.888555 0.441602 -0.124331
vn 0.888555 0.441602 -0.124331
vn 0.888555 0.441602 -0.124331
vn 0.888555 0.441602 -0.124331
vn 0.972958 0.190413 -0.130754
vn 0.972958 0.190413 -0.130754
vn 0.972958 0.190413 -0.130754
vn 0.972958 0.190413 -0.130754
vn -0.600235 0.190415 0.776827
vn -0.600235 0.190415 0.776827
vn -0.600235 0.190415 0.776827
vn -0.600235 0.190415 0.776827
vn -0.543024 0.466211 0.698407
vn -0.543024 0.466211 0.698407
vn -0.543024 0.466211 0.698407
vn -0.543024 0.466211 0.698407
vn -0.333849 0.463317 0.820904
vn -0.333849 0.463317 0.820904
vn -0.333849 0.463317 0.820904
vn -0.333849 0.463317 0.820904
vn -0.372722 0.190415 0.908196
vn -0.372722 0.190415 0.908196
vn -0.372722 0.190415 0.908196
vn -0.372722 0.190415 0.908196
vn -0.372722 0.190415 -0.908196
vn -0.372722 0.190415 -0.908196
vn -0.372722 0.190415 -0.908196
vn -0.372722 0.190415 -0.908196
vn -0.333848 0.463317 -0.820903
vn -0.333848 0.463317 -0.820903
vn -0.333848 0.463317 -0.820903
vn -0.333848 0.463317 -0.820903
vn -0.543024 0.466211 -0.698407
vn -0.543024 0.466211 -0.698407
vn -0.543024 0.466211 -0.698407
vn -0.543024 0.466211 -0.698407
vn -0.600235 0.190415 -0.776827
vn -0.600235 0.190415 -0.776827
vn -0.600235 0.190415 -0.776827
vn -0.600235 0.190415 -0.776827
vn -0.126541 0.098153 -0.987093
vn -0.126541 0.098153 -0.987093
vn -0.126541 0.098153 -0.987093
vn -0.126541 0.098153 -0.987093
vn -0.113739 0.316340 -0.941803
vn -0.113739 0.316340 -0.941803
vn -0.113739 0.316340 -0.941803
vn -0.113739 0.316340 -0.941803
vn -0.443361 0.416561 -0.793668
vn -0.443361 0.416561 -0.793668
vn -0.443361 0.416561 -0.793668
vn -0.443361 0.416561 -0.793668
vn -0.492663 0.152305 -0.856788
vn -0.492663 0.152305 -0.856788
vn -0.492663 0.152305 -0.856788
vn -0.492663 0.152305 -0.856788
vn -0.792374 0.097969 0.602117
vn -0.792374 0.097969 0.602117
vn -0.792374 0.097969 0.602117
vn -0.792374 0.097969 0.602117
vn -0.757078 0.321021 0.569015
vn -0.757078 0.321021 0.569015
vn -0.757078 0.321021 0.569015
vn -0.757078 0.321021 0.569015
vn -0.465571 0.416816 0.780711
vn -0.465571 0.416816 0.780711
vn -0.465571 0.416816 0.780711
vn -0.465571 0.416816 0.780711
vn -0.495674 0.152305 0.855050
vn -0.495674 0.152305 0.855050
vn -0.495674 0.152305 0.855050
vn -0.495674 0.152305 0.855050
vn 0.918872 0.098441 0.382078
vn 0.918872 0.098441 0.382078
vn 0.918872 0.098441 0.382078
vn 0.918872 0.098441 0.382078
vn 0.875105 0.308543 0.372817
vn 0.875105 0.308543 0.372817
vn 0.875105 0.308543 0.372817
vn 0.875105 0.308543 0.372817
vn 0.916010 0.400883 0.014753
vn 0.916010 0.400883 0.014753
vn 0.916010 0.400883 0.014753
vn 0.916010 0.400883 0.014753
vn 0.988272 0.152697 -0.001451
vn 0.988272 0.152697 -0.001451
vn 0.988272 0.152697 -0.001451
vn 0.988272 0.152697 -0.001451
vn 0.620313 0.207576 -0.756389
vn 0.620313 0.207576 -0.756389
vn 0.620313 0.207576 -0.756389
vn 0.620313 0.207576 -0.756389
vn 0.557610 0.482603 -0.675400
vn 0.557610 0.482603 -0.675400
vn 0.557610 0.482603 -0.675400
vn 0.557610 0.482603 -0.675400
vn 0.305511 0.486013 -0.818813
vn 0.305511 0.486013 -0.818813
vn 0.305511 0.486013 -0.818813
vn 0.305511 0.486013 -0.818813
vn 0.344792 0.207577 -0.915440
vn 0.344792 0.207577 -0.915440
vn 0.344792 0.207577 -0.915440
vn 0.344792 0.207577 -0.915440
vn 0.344792 0.207577 0.915440
vn 0.344792 0.207577 0.915440
vn 0.344792 0.207577 0.915440
vn 0.344792 0.207577 0.915440
vn 0.305511 0.486013 0.818813
vn 0.305511 0.486013 0.818813
vn 0.305511 0.486013 0.818813
vn 0.305511 0.486013 0.818813
vn 0.557610 0.482604 0.675400
vn 0.557610 0.482604 0.675400
vn 0.557610 0.482604 0.675400
vn 0.557610 0.482604 0.675400
vn 0.620313 0.207576 0.756389
vn 0.620313 0.207576 0.756389
vn 0.620313 0.207576 0.756389
vn 0.620313 0.207576 0.756389
vn -0.965104 0.207574 -0.159645
vn -0.965104 0.207574 -0.159645
vn -0.965104 0.207574 -0.159645
vn -0.965104 0.207574 -0.159645
vn -0.853195 0.501590 -0.143058
vn -0.853195 0.501590 -0.143058
vn -0.853195 0.501590 -0.143058
vn -0.853195 0.501590 -0.143058
vn -0.853195 0.501590 0.143058
vn -0.853195 0.501590 0.143058
vn -0.853195 0.501590 0.143058
vn -0.853195 0.501590 0.143058
vn -0.965104 0.207574 0.159645
vn -0.965104 0.207574 0.159645
vn -0.965104 0.207574 0.159645
vn -0.965104 0.207574 0.159645
vn 0.045999 0.998588 0.026558
vn 0.045999 0.998588 0.026558
vn 0.045999 0.998588 0.026558
vn 0.045999 0.998588 0.026558
vn 0.000000 0.998588 0.053115
vn 0.000000 0.998588 0.053115
vn 0.000000 0.998588 0.053115
vn 0.000000 0.998588 0.053115
vn -0.046000 0.998588 0.026558
vn -0.046000 0.998588 0.026558
vn -0.046000 0.998588 0.026558
vn -0.046000 0.998588 0.026558
vn -0.045999 0.998588 -0.026558
vn -0.045999 0.998588 -0.026558
vn -0.045999 0.998588 -0.026558
vn -0.045999 0.998588 -0.026558
vn 0.000000 0.998588 -0.053116
vn 0.000000 0.998588 -0.053116
vn 0.000000 0.998588 -0.053116
vn 0.000000 0.998588 -0.053116
vn 0.046000 0.998588 -0.026558
vn 0.046000 0.998588 -0.026558
vn 0.046000 0.998588 -0.026558
vn 0.046000 0.998588 -0.026558
vn -0.212007 0.977213 -0.010429
vn -0.212007 0.977213 -0.010429
vn -0.212007 0.977213 -0.010429
vn -0.212007 0.977213 -0.010429
vn -0.212007 0.977213 0.010429
vn -0.212007 0.977213 0.010429
vn -0.152629 0.987617 -0.036280
vn -0.152629 0.987617 -0.036280
vn -0.152629 0.987617 -0.036280
vn -0.152629 0.987617 -0.036280
vn -0.152629 0.987617 0.036280
vn -0.152629 0.987617 0.036280
vn -0.152629 0.987617 0.036280
vn -0.152629 0.987617 0.036280
vn 0.097144 0.977998 0.184617
vn 0.097144 0.977998 0.184617
vn 0.097144 0.977998 0.184617
vn 0.097144 0.977998 0.184617
vn 0.111457 0.977936 0.176690
vn 0.111457 0.977936 0.176690
vn 0.044895 0.987618 0.150320
vn 0.044895 0.987618 0.150320
vn 0.044895 0.987618 0.150320
vn 0.044895 0.987618 0.150320
vn 0.107734 0.987618 0.114040
vn 0.107734 0.987618 0.114040
vn 0.107734 0.987618 0.114040
vn 0.107734 0.987618 0.114040
vn 0.111456 0.977936 -0.176691
vn 0.111456 0.977936 -0.176691
vn 0.111456 0.977936 -0.176691
vn 0.111456 0.977936 -0.176691
vn 0.097144 0.977998 -0.184617
vn 0.097144 0.977998 -0.184617
vn 0.107733 0.987618 -0.114040
vn 0.107733 0.987618 -0.114040
vn 0.107733 0.987618 -0.114040
vn 0.107733 0.987618 -0.114040
vn 0.044895 0.987617 -0.150320
vn 0.044895 0.987617 -0.150320
vn 0.044895 0.987617 -0.150320
vn 0.044895 0.987617 -0.150320
vn -0.099620 0.981135 0.165678
vn -0.099620 0.981135 0.165678
vn -0.099620 0.981135 0.165678
vn -0.099620 0.981135 0.165678
vn -0.098080 0.980579 0.169837
vn -0.098080 0.980579 0.169837
vn -0.107734 0.987618 0.114040
vn -0.107734 0.987618 0.114040
vn -0.107734 0.987618 0.114040
vn -0.107734 0.987618 0.114040
vn -0.044895 0.987618 0.150320
vn -0.044895 0.987618 0.150320
vn -0.044895 0.987618 0.150320
vn -0.044895 0.987618 0.150320
vn -0.098080 0.980579 -0.169837
vn -0.098080 0.980579 -0.169837
vn -0.098080 0.980579 -0.169837
vn -0.098080 0.980579 -0.169837
vn -0.099620 0.981135 -0.165678
vn -0.099620 0.981135 -0.165678
vn -0.044896 0.987617 -0.150320
vn -0.044896 0.987617 -0.150320
vn -0.044896 0.987617 -0.150320
vn -0.044896 0.987617 -0.150320
vn -0.107735 0.987617 -0.114040
vn -0.107735 0.987617 -0.114040
vn -0.107735 0.987617 -0.114040
vn -0.107735 0.987617 -0.114040
g Pumpkin_Brown
usemtl Brown
f 1 2 3
f 1 3 4
f 5 6 7
f 5 7 8
f 9 10 11
f 9 11 12
f 13 14 15
f 13 15 16
f 17 18 19
f 17 19 20
f 21 22 23
f 21 23 24
f 25 26 27
f 25 27 28
f 29 30 31
f 31 32 29
f 31 33 32
f 33 34 32
f 35 36 37
f 35 37 38
f 39 40 41
f 39 41 42
f 43 44 45
f 43 45 46
f 47 48 49
f 47 49 50
f 51 52 53
f 51 53 54
f 55 56 57
f 55 57 58
f 59 60 61
f 61 62 59
f 62 63 59
f 62 64 63
f 65 66 67
f 65 67 68
f 69 70 71
f 69 71 72
f 73 74 75
f 73 75 76
f 77 78 79
f 77 79 80
f 81 82 83
f 81 83 84
g Pumpkin_Orange
usemtl Orange
f 85 86 87
f 85 87 88
f 89 90 91
f 89 91 92
f 93 94 95
f 93 95 96
f 97 98 99
f 97 99 100
f 101 102 103
f 101 103 104
f 105 106 107
f 105 107 108
f 109 110 111
f 109 111 112
f 113 114 115
f 113 115 116
f 117 118 119
f 117 119 120
f 121 122 123
f 121 123 124
f 125 126 127
f 125 127 128
f 129 130 131
f 129 131 132
f 133 134 135
f 133 135 136
f 137 138 139
f 137 139 140
f 141 142 143
f 141 143 144
f 145 146 147
f 145 147 148
f 149 150 151
f 149 152 150
f 149 153 152
f 149 154 153
f 155 156 157
f 155 157 158
f 159 160 161
f 159 161 162
f 163 164 165
f 163 165 166
f 167 168 169
f 167 169 170
f 171 172 173
f 171 173 174
f 175 176 177
f 175 177 178
f 179 180 181
f 179 181 182
f 183 184 185
f 183 185 186
f 187 188 189
f 187 189 190
f 191 192 193
f 191 193 194
f 195 196 197
f 195 197 198
f 199 200 201
f 199 201 202
f 203 204 205
f 203 205 206
f 207 208 209
f 207 209 210
f 211 212 213
f 211 213 214
f 215 216 217
f 215 217 218
f 219 220 221
f 219 221 222
f 223 224 225
f 223 225 226
f 227 228 229
f 227 229 230
f 231 232 233
f 231 233 234
f 235 236 237
f 235 237 238
f 239 240 241
f 239 241 242
f 243 244 245
f 243 245 246
f 247 248 249
f 247 249 250
f 251 252 253
f 251 253 254
f 255 256 257
f 255 257 258
f 259 260 261
f 259 261 262
f 263 264 265
f 263 265 266
f 267 268 269
f 267 269 270
f 271 272 273
f 271 273 274
f 275 276 277
f 275 277 278
f 279 280 281
f 279 281 282
f 283 284 285
f 283 285 286
f 287 288 289
f 287 289 290
f 291 292 293
f 291 293 294
f 295 296 297
f 295 297 298
f 299 300 301
f 299 301 302
f 303 304 305
f 303 305 306
f 307 308 309
f 307 309 310
f 311 312 313
f 311 313 314
f 315 316 317
f 315 317 318
f 319 320 321
f 319 321 322
f 323 324 325
f 323 325 326
f 327 328 329
f 327 329 330
f 331 332 333
f 331 333 334
f 335 336 337
f 335 337 338
f 339 340 341
f 339 341 342
f 343 344 345
f 343 345 346
f 347 348 349
f 347 349 350
f 351 352 353
f 351 353 354
f 355 356 357
f 355 357 358
f 359 360 361
f 359 361 362
f 363 364 365
f 363 365 366
f 367 368 369
f 367 369 370
f 371 372 373
f 371 373 374
f 375 376 377
f 375 377 378
f 379 380 381
f 379 381 382
f 383 384 385
f 383 385 386
f 387 388 389
f 387 389 390
f 391 392 393
f 391 393 394
f 395 396 397
f 395 397 398
f 399 400 401
f 399 401 402
f 403 404 405
f 403 405 406
f 407 408 409
f 407 409 410
f 411 412 413
f 411 413 414
f 415 416 417
f 415 417 418
f 419 420 421
f 419 421 422
f 423 424 425
f 423 425 426
f 427 428 429
f 427 429 430
f 431 432 433
f 431 433 434
f 435 436 437
f 435 437 438
f 439 440 441
f 439 441 442
f 443 444 445
f 443 445 446
f 447 448 449
f 447 449 450
f 451 452 453
f 451 453 454
f 455 456 457
f 455 457 458
f 459 460 461
f 459 461 462
f 463 464 465
f 463 465 466
f 467 468 469
f 467 469 470
f 471 472 473
f 471 473 474
f 475 476 477
f 475 477 478
f 479 480 481
f 479 481 482
f 483 484 485
f 483 485 486
f 487 488 489
f 487 489 490
f 491 492 493
f 491 493 494
f 495 496 497
f 495 497 498
f 499 500 501
f 499 501 502
f 503 504 505
f 503 505 506
f 507 508 509
f 507 509 510
f 511 512 513
f 511 513 514
f 515 516 517
f 515 517 518
f 519 520 521
f 519 521 522
f 523 524 525
f 523 525 526
f 527 528 529
f 527 529 530
f 531 532 533
f 531 533 534
f 535 536 537
f 535 537 538
f 539 540 541
f 539 541 542
f 543 544 545
f 543 545 546
f 547 548 549
f 547 549 550
f 551 552 553
f 551 553 554
f 555 556 557
f 555 557 558
f 559 560 561
f 559 561 562
f 563 564 565
f 563 565 566
f 567 568 569
f 567 569 570
f 571 572 573
f 571 573 574
f 575 576 577
f 575 577 578
f 579 580 581
f 579 581 582
f 583 584 585
f 583 585 586
f 587 588 589
f 587 589 590
f 591 592 593
f 591 593 594
f 595 596 597
f 595 597 598
f 599 600 601
f 599 601 602
f 603 604 605
f 603 605 606
f 607 608 609
f 607 609 610
f 611 612 613
f 611 613 614
f 615 616 617
f 615 617 618
f 619 620 621
f 619 621 622
f 623 624 625
f 623 625 626
f 627 628 629
f 627 629 630
f 631 632 633
f 631 633 634
f 635 636 637
f 635 637 638
f 639 640 641
f 639 641 642
f 643 644 645
f 643 645 646
f 647 648 649
f 647 649 650
f 651 652 653
f 651 653 654
f 655 656 657
f 655 657 658
f 659 660 661
f 659 661 662
f 663 664 665
f 663 665 666
f 667 668 669
f 667 669 670
f 671 672 673
f 671 673 674
f 675 676 677
f 675 677 678
f 679 680 681
f 679 681 682
f 683 684 685
f 683 685 686
f 687 688 689
f 687 689 690
f 691 692 693
f 691 693 694
f 695 696 697
f 695 697 698
f 699 700 701
f 699 701 702
f 703 704 705
f 703 705 706
f 707 708 709
f 707 709 710
f 711 712 713
f 711 713 714
f 715 716 717
f 715 717 718
f 719 720 721
f 719 721 722
f 723 724 725
f 723 725 726
f 727 728 729
f 727 729 730
f 731 732 733
f 731 733 734
f 735 736 737
f 735 737 738
f 739 740 741
f 739 741 742
f 743 744 745
f 743 745 746
f 747 748 749
f 747 749 750
f 751 752 753
f 751 753 754
f 755 756 757
f 755 757 758
f 759 760 761
f 759 761 762
f 763 764 765
f 763 765 766
f 767 768 769
f 767 769 770
f 771 772 773
f 771 773 774
f 775 776 777
f 775 777 778
f 779 780 781
f 779 781 782
f 783 784 785
f 783 785 786
f 787 788 789
f 787 789 790
f 791 792 793
f 791 793 794
f 795 796 797
f 795 797 798
f 799 800 801
f 799 801 802
f 803 804 805
f 803 805 806
f 807 808 809
f 807 809 810
f 811 812 813
f 811 813 814
f 815 816 817
f 815 817 818
f 819 820 821
f 819 821 822
f 823 824 825
f 823 825 826
f 827 828 829
f 827 829 830
f 831 832 833
f 831 833 834
f 835 836 837
f 835 837 838
f 839 840 841
f 839 841 842
f 843 844 845
f 843 845 846
f 847 848 849
f 847 849 850
f 851 852 853
f 851 853 854
f 855 856 857
f 855 857 858
f 859 860 861
f 859 861 862
f 863 864 865
f 863 865 866
f 867 868 869
f 867 869 870
f 871 872 873
f 871 873 874
f 875 876 877
f 875 877 878
f 879 880 881
f 879 881 882
f 883 884 885
f 883 885 886
f 887 888 889
f 887 889 890
f 891 892 893
f 891 893 894
f 895 896 897
f 895 897 898
f 899 900 901
f 899 901 902
f 903 904 905
f 903 905 906
f 907 908 909
f 907 909 910
f 911 912 913
f 911 913 914
f 915 916 917
f 915 917 918
f 919 920 921
f 919 921 922
f 923 924 925
f 923 925 926
f 927 928 929
f 927 929 930
f 931 932 933
f 931 933 934
f 935 936 937
f 935 937 938
f 939 940 941
f 939 941 942
f 943 944 945
f 943 945 946
f 947 948 949
f 947 949 950
f 951 952 953
f 951 953 954
f 955 956 957
f 955 957 958
f 959 960 961
f 959 961 962
f 963 964 965
f 963 965 966
f 967 968 969
f 967 969 970
f 971 972 973
f 971 973 974
f 975 976 977
f 975 977 978
f 979 980 981
f 979 981 982
f 983 984 985
f 983 985 986
f 987 988 989
f 987 989 990
f 991 992 993
f 991 993 994
f 995 996 997
f 995 997 998
f 999 1000 1001
f 999 1001 1002
f 1003 1004 1005
f 1003 1005 1006
f 1007 1008 1009
f 1007 1009 1010
f 1011 1012 1013
f 1011 1013 1014
f 1015 1016 1017
f 1015 1017 1018
f 1019 1020 1021
f 1019 1021 1022
f 1023 1024 1025
f 1023 1025 1026
f 1027 1028 1029
f 1027 1029 1030
f 1031 1032 1033
f 1031 1033 1034
f 1035 1036 1037
f 1035 1037 1038
f 1039 1040 1041
f 1039 1041 1042
f 1043 1044 1045
f 1043 1045 1046
f 1047 1048 1049
f 1047 1049 1050
f 1051 1052 1053
f 1051 1053 1054
f 1055 1056 1057
f 1055 1057 1058
f 1059 1060 1061
f 1059 1061 1062
f 1063 1064 1065
f 1063 1065 1066
f 1067 1068 1069
f 1067 1069 1070
f 1071 1072 1073
f 1071 1073 1074
f 1075 1076 1077
f 1075 1077 1078
f 1079 1080 1081
f 1079 1081 1082
f 1083 1084 1085
f 1083 1085 1086
f 1087 1088 1089
f 1087 1089 1090
f 1091 1092 1093
f 1091 1093 1094
f 1095 1096 1097
f 1095 1097 1098
f 1099 1100 1101
f 1099 1101 1102
f 1103 1104 1105
f 1103 1105 1106
f 1107 1108 1109
f 1107 1109 1110
f 1111 1112 1113
f 1111 1113 1114
f 1115 1116 1117
f 1115 1117 1118
f 1119 1120 1121
f 1119 1121 1122
f 1123 1124 1125
f 1123 1125 1126
f 1127 1128 1129
f 1127 1129 1130
f 1131 1132 1133
f 1131 1133 1134
f 1135 1136 1137
f 1135 1137 1138
f 1139 1140 1141
f 1139 1141 1142
f 1143 1144 1145
f 1143 1145 1146
f 1147 1148 1149
f 1147 1149 1150
f 1151 1152 1153
f 1151 1153 1154
f 1155 1156 1157
f 1155 1157 1158
f 1159 1160 1161
f 1159 1161 1162
f 1163 1164 1165
f 1163 1165 1166
f 1167 1168 1169
f 1167 1169 1170
f 1171 1172 1173
f 1171 1173 1174
f 1175 1176 1177
f 1175 1177 1178
f 1179 1180 1181
f 1179 1181 1182
f 1183 1184 1185
f 1183 1185 1186
f 1187 1188 1189
f 1187 1189 1190
f 1191 1192 1193
f 1191 1193 1194
f 1195 1196 1197
f 1195 1197 1198
f 1199 1200 1201
f 1199 1201 1202
f 1203 1204 1205
f 1203 1206 1204
f 1203 1207 1206
f 1203 1208 1207
f 1209 1210 1211
f 1209 1211 1212
f 1213 1214 1215
f 1213 1215 1216
f 1217 1218 1219
f 1217 1220 1218
f 1217 1221 1220
f 1217 1222 1221
f 1223 1224 1225
f 1223 1225 1226
f 1227 1228 1229
f 1227 1229 1230
f 1231 1232 1233
f 1231 1234 1232
f 1231 1235 1234
f 1231 1236 1235
f 1237 1238 1239
f 1237 1239 1240
f 1241 1242 1243
f 1241 1243 1244
f 1245 1246 1247
f 1245 1248 1246
f 1245 1249 1248
f 1245 1250 1249
f 1251 1252 1253
f 1251 1253 1254
f 1255 1256 1257
f 1255 1257 1258
f 1259 1260 1261
f 1259 1262 1260
f 1259 1263 1262
f 1259 1264 1263
f 1265 1266 1267
f 1265 1267 1268
f 1269 1270 1271
f 1269 1271 1272
