mtllib Materials.mtl
# Ultimate Food Pack - Sashimi_Salmon2
o Sashimi_Salmon2
v 0.230340 0.083395 -0.000006
v 0.230340 0.083395 -0.118235
v 0.331250 0.083395 -0.078065
v 0.331250 0.083395 0.000000
v 0.230340 0.083395 0.118242
v 0.331250 0.083395 0.078065
v 0.111820 0.083395 0.003289
v 0.201998 0.083395 0.126676
v 0.110590 0.083395 0.137588
v 0.201998 0.083395 -0.000025
v 0.113050 0.083395 -0.131977
v 0.201998 0.083395 -0.126650
v -0.170114 0.083395 -0.001790
v -0.176549 0.083395 0.101998
v -0.266351 0.083395 0.048110
v -0.262844 0.083395 -0.011015
v -0.163679 0.083395 -0.105578
v -0.259337 0.083395 -0.070140
v 0.228452 0.166730 -0.103401
v 0.226010 0.205141 -0.057391
v 0.301529 0.164304 -0.037361
v 0.319645 0.114225 -0.067892
v -0.239585 0.123428 -0.009619
v -0.202593 0.163511 -0.033726
v -0.236285 0.122241 -0.061040
v -0.205717 0.164634 -0.005429
v -0.242885 0.124614 0.041801
v -0.208842 0.165758 0.022867
v -0.120777 0.083395 -0.115124
v -0.094907 0.180176 -0.094816
v -0.027515 0.190731 -0.102965
v -0.027515 0.083395 -0.116854
v 0.331250 0.083395 0.000000
v 0.319645 0.114225 0.067892
v 0.331250 0.083395 0.078065
v 0.319645 0.114225 0.000000
v 0.331250 0.083395 -0.078065
v 0.301529 0.164304 0.037361
v 0.319645 0.114225 -0.067892
v 0.301529 0.164304 0.000000
v 0.301529 0.164304 -0.037361
v -0.262844 0.083395 -0.011015
v -0.236285 0.122241 -0.061040
v -0.259337 0.083395 -0.070140
v -0.239585 0.123428 -0.009619
v -0.266351 0.083395 0.048110
v -0.242885 0.124614 0.041801
v 0.230340 0.083395 -0.118235
v 0.228452 0.166730 -0.103401
v 0.319645 0.114225 -0.067892
v 0.331250 0.083395 -0.078065
v 0.113050 0.083395 -0.131977
v 0.113050 0.183129 -0.117555
v 0.201998 0.176931 -0.111357
v 0.201998 0.083395 -0.126650
v -0.176549 0.083395 0.101998
v -0.142958 0.177025 0.086672
v -0.242885 0.124614 0.041801
v -0.266351 0.083395 0.048110
v -0.259337 0.083395 -0.070140
v -0.236285 0.122241 -0.061040
v -0.130087 0.177025 -0.088880
v -0.163679 0.083395 -0.105578
v 0.258890 0.205141 -0.000005
v 0.301529 0.164304 0.000000
v 0.301529 0.164304 -0.037361
v 0.226010 0.205141 -0.057391
v 0.148459 0.231608 0.001594
v 0.111704 0.231608 0.068835
v 0.198694 0.213075 0.062081
v 0.233843 0.213074 -0.000019
v -0.081623 0.212999 -0.000540
v -0.205717 0.164634 -0.005429
v -0.208842 0.165758 0.022867
v -0.108319 0.212999 0.047104
v 0.113050 0.183129 -0.117555
v 0.114033 0.231608 -0.065530
v 0.198694 0.213074 -0.062142
v 0.201998 0.176931 -0.111357
v -0.142958 0.177025 0.086672
v -0.108319 0.212999 0.047104
v -0.208842 0.165758 0.022867
v -0.242885 0.124614 0.041801
v -0.236285 0.122241 -0.061040
v -0.202593 0.163511 -0.033726
v -0.096133 0.212999 -0.048185
v -0.130087 0.177025 -0.088880
v -0.094907 0.180176 -0.094816
v -0.065952 0.220704 -0.050670
v -0.012789 0.234748 -0.056242
v -0.027515 0.190731 -0.102965
v 0.319645 0.114225 0.067892
v 0.301529 0.164304 0.037361
v 0.226010 0.205141 0.057364
v 0.228452 0.166730 0.103413
v 0.331250 0.083395 0.078065
v 0.319645 0.114225 0.067892
v 0.228452 0.166730 0.103413
v 0.230340 0.083395 0.118242
v 0.082165 0.083395 0.139597
v 0.082165 0.185057 0.124480
v 0.001891 0.188307 0.120279
v 0.001891 0.083395 0.135492
v 0.082165 0.185057 0.124480
v 0.085342 0.233107 0.069796
v 0.013535 0.235147 0.067242
v 0.001891 0.188307 0.120279
v -0.033863 0.190731 0.118020
v -0.018799 0.234748 0.066160
v -0.076718 0.220704 0.053006
v -0.106278 0.180176 0.098109
v 0.013528 0.234748 0.005027
v -0.048149 0.220704 0.001168
v -0.076718 0.220704 0.053006
v -0.018799 0.234748 0.066160
v -0.033863 0.083395 0.133519
v -0.033863 0.190731 0.118020
v -0.106278 0.180176 0.098109
v -0.132148 0.083395 0.117982
v -0.030689 0.083395 0.008623
v -0.033863 0.083395 0.133519
v -0.132148 0.083395 0.117982
v -0.126462 0.083395 0.001429
v -0.027515 0.083395 -0.116854
v -0.120777 0.083395 -0.115124
v 0.007277 0.188307 -0.107401
v 0.018635 0.235147 -0.058584
v 0.088395 0.233107 -0.065179
v 0.085390 0.185057 -0.117452
v 0.046925 0.235147 0.004298
v 0.013535 0.235147 0.067242
v 0.085342 0.233107 0.069796
v 0.121908 0.233107 0.002236
v 0.018635 0.235147 -0.058584
v 0.121908 0.233107 0.002236
v 0.088395 0.233107 -0.065179
v 0.007277 0.083395 -0.121206
v 0.007277 0.188307 -0.107401
v 0.085390 0.185057 -0.117452
v 0.085390 0.083395 -0.131810
v 0.004584 0.083395 0.007582
v 0.082165 0.083395 0.139597
v 0.001891 0.083395 0.135492
v 0.083778 0.083395 0.004477
v 0.007277 0.083395 -0.121206
v 0.085390 0.083395 -0.131810
v 0.201998 0.083395 0.126676
v 0.201998 0.176931 0.111367
v 0.110590 0.183129 0.122875
v 0.110590 0.083395 0.137588
v 0.201998 0.176931 0.111367
v 0.198694 0.213075 0.062081
v 0.111704 0.231608 0.068835
v 0.110590 0.183129 0.122875
v -0.012789 0.234748 -0.056242
v -0.065952 0.220704 -0.050670
v -0.048149 0.220704 0.001168
v 0.013528 0.234748 0.005027
v -0.096133 0.212999 -0.048185
v -0.202593 0.163511 -0.033726
v -0.205717 0.164634 -0.005429
v -0.081623 0.212999 -0.000540
v 0.114033 0.231608 -0.065530
v 0.148459 0.231608 0.001594
v 0.233843 0.213074 -0.000019
v 0.198694 0.213074 -0.062142
v 0.226010 0.205141 0.057364
v 0.301529 0.164304 0.037361
v 0.301529 0.164304 0.000000
v 0.258890 0.205141 -0.000005
v -0.018799 0.234748 0.066160
v -0.033863 0.190731 0.118020
v -0.033863 0.190731 0.118020
v -0.033863 0.083395 0.133519
v -0.132148 0.083395 0.117982
v -0.106278 0.180176 0.098109
v -0.142958 0.177025 0.086672
v -0.176549 0.083395 0.101998
v 0.230340 0.083395 0.118242
v 0.228452 0.166730 0.103413
v 0.201998 0.176931 0.111367
v 0.201998 0.083395 0.126676
v -0.081623 0.212999 -0.000540
v -0.108319 0.212999 0.047104
v -0.108319 0.212999 0.047104
v -0.142958 0.177025 0.086672
v 0.228452 0.166730 0.103413
v 0.226010 0.205141 0.057364
v 0.198694 0.213075 0.062081
v 0.201998 0.176931 0.111367
v 0.233843 0.213074 -0.000019
v 0.258890 0.205141 -0.000005
v 0.226010 0.205141 -0.057391
v 0.198694 0.213074 -0.062142
v 0.201998 0.083395 -0.126650
v 0.201998 0.176931 -0.111357
v 0.228452 0.166730 -0.103401
v 0.230340 0.083395 -0.118235
v 0.201998 0.176931 -0.111357
v 0.198694 0.213074 -0.062142
v 0.226010 0.205141 -0.057391
v 0.228452 0.166730 -0.103401
v -0.027515 0.190731 -0.102965
v -0.012789 0.234748 -0.056242
v 0.013528 0.234748 0.005027
v -0.018799 0.234748 0.066160
v -0.012789 0.234748 -0.056242
v -0.027515 0.083395 -0.116854
v -0.027515 0.190731 -0.102965
v -0.130087 0.177025 -0.088880
v -0.096133 0.212999 -0.048185
v -0.065952 0.220704 -0.050670
v -0.094907 0.180176 -0.094816
v -0.163679 0.083395 -0.105578
v -0.130087 0.177025 -0.088880
v -0.094907 0.180176 -0.094816
v -0.120777 0.083395 -0.115124
v 0.110590 0.183129 0.122875
v 0.111704 0.231608 0.068835
v 0.085342 0.233107 0.069796
v 0.082165 0.185057 0.124480
v 0.110590 0.083395 0.137588
v 0.110590 0.183129 0.122875
v 0.082165 0.185057 0.124480
v 0.082165 0.083395 0.139597
v 0.085390 0.185057 -0.117452
v 0.088395 0.233107 -0.065179
v 0.114033 0.231608 -0.065530
v 0.113050 0.183129 -0.117555
v 0.111704 0.231608 0.068835
v 0.148459 0.231608 0.001594
v 0.085390 0.083395 -0.131810
v 0.085390 0.185057 -0.117452
v 0.113050 0.183129 -0.117555
v 0.113050 0.083395 -0.131977
v 0.148459 0.231608 0.001594
v 0.114033 0.231608 -0.065530
v 0.198694 0.213075 0.062081
v 0.226010 0.205141 0.057364
v 0.258890 0.205141 -0.000005
v 0.233843 0.213074 -0.000019
v -0.096133 0.212999 -0.048185
v -0.081623 0.212999 -0.000540
vn 0.000000 -1.000000 0.000000
vn 0.000000 -1.000000 0.000000
vn 0.000000 -1.000000 0.000000
vn 0.000000 -1.000000 0.000000
vn 0.000000 -1.000000 0.000000
vn 0.000000 -1.000000 0.000000
vn 0.000000 -1.000000 0.000000
vn 0.000000 -1.000000 0.000000
vn 0.000000 -1.000000 0.000000
vn 0.000000 -1.000000 0.000000
vn 0.000000 -1.000000 0.000000
vn 0.000000 -1.000000 0.000000
vn 0.000000 -1.000000 0.000000
vn 0.000000 -1.000000 0.000000
vn 0.000000 -1.000000 0.000000
vn 0.000000 -1.000000 0.000000
vn 0.000000 -1.000000 0.000000
vn 0.000000 -1.000000 0.000000
vn 0.537486 0.619627 -0.571989
vn 0.537486 0.619627 -0.571989
vn 0.537486 0.619627 -0.571989
vn 0.537486 0.619627 -0.571989
vn -0.755979 0.649720 -0.079753
vn -0.755979 0.649720 -0.079753
vn -0.755979 0.649720 -0.079753
vn -0.755979 0.649720 -0.079753
vn -0.776029 0.625517 -0.080668
vn -0.776029 0.625517 -0.080668
vn -0.071809 0.173655 -0.982185
vn -0.071809 0.173655 -0.982185
vn -0.071809 0.173655 -0.982185
vn -0.071809 0.173655 -0.982185
vn 0.935893 0.352285 0.000000
vn 0.940361 0.340178 0.000000
vn 0.935893 0.352285 0.000000
vn 0.940361 0.340178 0.000000
vn 0.935893 0.352285 0.000000
vn 0.940361 0.340178 0.000000
vn 0.935893 0.352285 0.000000
vn 0.940361 0.340178 0.000000
vn 0.940361 0.340178 0.000000
vn -0.857484 0.511198 -0.058287
vn -0.857484 0.511198 -0.058287
vn -0.857484 0.511198 -0.058287
vn -0.857484 0.511198 -0.058287
vn -0.866919 0.494981 -0.058694
vn -0.866919 0.494981 -0.058694
vn 0.412060 0.241163 -0.878662
vn 0.412060 0.241163 -0.878662
vn 0.412060 0.241163 -0.878662
vn 0.412060 0.241163 -0.878662
vn 0.069170 0.151600 -0.986019
vn 0.069170 0.151600 -0.986019
vn 0.069170 0.151600 -0.986019
vn 0.069170 0.151600 -0.986019
vn -0.506456 0.341330 0.791831
vn -0.506456 0.341330 0.791831
vn -0.506456 0.341330 0.791831
vn -0.506456 0.341330 0.791831
vn -0.362072 0.324953 -0.873676
vn -0.362072 0.324953 -0.873676
vn -0.362072 0.324953 -0.873676
vn -0.362072 0.324953 -0.873676
vn 0.579845 0.789487 -0.201223
vn 0.579845 0.789487 -0.201223
vn 0.579845 0.789487 -0.201223
vn 0.579845 0.789487 -0.201223
vn 0.214260 0.969487 0.119113
vn 0.214260 0.969487 0.119113
vn 0.214260 0.969487 0.119113
vn 0.214260 0.969487 0.119113
vn -0.369211 0.915724 -0.158531
vn -0.369211 0.915724 -0.158531
vn -0.369211 0.915724 -0.158531
vn -0.369211 0.915724 -0.158531
vn 0.143347 0.760955 -0.632772
vn 0.143347 0.760955 -0.632772
vn 0.143347 0.760955 -0.632772
vn 0.143347 0.760955 -0.632772
vn -0.514686 0.759774 0.397295
vn -0.514686 0.759774 0.397295
vn -0.514686 0.759774 0.397295
vn -0.514686 0.759774 0.397295
vn -0.465463 0.778439 -0.421162
vn -0.465463 0.778439 -0.421162
vn -0.465463 0.778439 -0.421162
vn -0.465463 0.778439 -0.421162
vn -0.224780 0.764918 -0.603635
vn -0.224780 0.764918 -0.603635
vn -0.224780 0.764918 -0.603635
vn -0.224780 0.764918 -0.603635
vn 0.537470 0.619762 0.571858
vn 0.537470 0.619762 0.571858
vn 0.537470 0.619762 0.571858
vn 0.537470 0.619762 0.571858
vn 0.412129 0.241123 0.878640
vn 0.412129 0.241123 0.878640
vn 0.412129 0.241123 0.878640
vn 0.412129 0.241123 0.878640
vn -0.048194 0.145097 0.988243
vn -0.048194 0.145097 0.988243
vn -0.053645 0.143001 0.988268
vn -0.053645 0.143001 0.988268
vn -0.003243 0.750599 0.660750
vn -0.003243 0.750599 0.660750
vn -0.009534 0.757044 0.653294
vn -0.009534 0.757044 0.653294
vn -0.287615 0.783513 0.550804
vn -0.287615 0.783513 0.550804
vn -0.262716 0.806567 0.529557
vn -0.262716 0.806567 0.529557
vn -0.211720 0.970644 -0.114125
vn -0.215508 0.969135 -0.119721
vn -0.215508 0.969135 -0.119721
vn -0.211720 0.970644 -0.114125
vn -0.210919 0.192797 0.958302
vn -0.210919 0.192797 0.958302
vn -0.210919 0.192797 0.958302
vn -0.210919 0.192797 0.958302
vn 0.000000 -1.000000 0.000000
vn 0.000000 -1.000000 0.000000
vn 0.000000 -1.000000 0.000000
vn 0.000000 -1.000000 0.000000
vn 0.000000 -1.000000 0.000000
vn 0.000000 -1.000000 0.000000
vn -0.047434 0.730260 -0.681520
vn -0.047434 0.730260 -0.681520
vn -0.050340 0.731742 -0.679721
vn -0.050340 0.731742 -0.679721
vn -0.012121 0.999906 -0.006420
vn -0.012121 0.999906 -0.006420
vn 0.027733 0.999505 0.014866
vn 0.027733 0.999505 0.014866
vn 0.027399 0.999540 -0.012996
vn 0.056792 0.997974 -0.028679
vn 0.056792 0.997974 -0.028679
vn -0.119853 0.128453 -0.984447
vn -0.119853 0.128453 -0.984447
vn -0.127150 0.133988 -0.982792
vn -0.127150 0.133988 -0.982792
vn 0.000000 -1.000000 0.000000
vn 0.000000 -1.000000 0.000000
vn 0.000000 -1.000000 0.000000
vn 0.000000 -1.000000 0.000000
vn 0.000000 -1.000000 0.000000
vn 0.000000 -1.000000 0.000000
vn 0.125395 0.152282 0.980350
vn 0.125395 0.152282 0.980350
vn 0.125395 0.152282 0.980350
vn 0.125395 0.152282 0.980350
vn 0.169650 0.764198 0.622270
vn 0.169650 0.764198 0.622270
vn 0.169650 0.764198 0.622270
vn 0.169650 0.764198 0.622270
vn -0.235280 0.967585 0.091774
vn -0.235280 0.967585 0.091774
vn -0.235280 0.967585 0.091774
vn -0.235280 0.967585 0.091774
vn -0.388730 0.920269 0.044668
vn -0.388730 0.920269 0.044668
vn -0.388730 0.920269 0.044668
vn -0.388730 0.920269 0.044668
vn 0.212724 0.970379 -0.114512
vn 0.212724 0.970379 -0.114512
vn 0.212724 0.970379 -0.114512
vn 0.212724 0.970379 -0.114512
vn 0.579804 0.789512 0.201243
vn 0.579804 0.789512 0.201243
vn 0.579804 0.789512 0.201243
vn 0.579804 0.789512 0.201243
vn -0.009534 0.757044 0.653294
vn -0.009534 0.757044 0.653294
vn -0.053645 0.143001 0.988268
vn -0.053645 0.143001 0.988268
vn -0.318016 0.267452 0.909580
vn -0.318016 0.267452 0.909580
vn -0.318016 0.267452 0.909580
vn -0.318016 0.267452 0.909580
vn 0.310419 0.162893 0.936540
vn 0.310419 0.162893 0.936540
vn 0.310419 0.162893 0.936540
vn 0.310419 0.162893 0.936540
vn -0.215508 0.969135 -0.119721
vn -0.215508 0.969135 -0.119721
vn -0.262716 0.806567 0.529557
vn -0.262716 0.806567 0.529557
vn 0.380278 0.739531 0.555412
vn 0.380278 0.739531 0.555412
vn 0.380278 0.739531 0.555412
vn 0.380278 0.739531 0.555412
vn 0.299937 0.938556 -0.170735
vn 0.299937 0.938556 -0.170735
vn 0.299937 0.938556 -0.170735
vn 0.299937 0.938556 -0.170735
vn 0.310145 0.162852 -0.936638
vn 0.310145 0.162852 -0.936638
vn 0.310145 0.162852 -0.936638
vn 0.310145 0.162852 -0.936638
vn 0.380602 0.739129 -0.555725
vn 0.380602 0.739129 -0.555725
vn 0.380602 0.739129 -0.555725
vn 0.380602 0.739129 -0.555725
vn -0.047434 0.730260 -0.681520
vn -0.047434 0.730260 -0.681520
vn -0.012121 0.999906 -0.006420
vn -0.012121 0.999906 -0.006420
vn -0.012074 0.999913 0.005311
vn -0.119853 0.128453 -0.984447
vn -0.119853 0.128453 -0.984447
vn -0.205540 0.797722 -0.566915
vn -0.205540 0.797722 -0.566915
vn -0.205540 0.797722 -0.566915
vn -0.205540 0.797722 -0.566915
vn -0.198052 0.246234 -0.948759
vn -0.198052 0.246234 -0.948759
vn -0.198052 0.246234 -0.948759
vn -0.198052 0.246234 -0.948759
vn 0.077615 0.744024 0.663630
vn 0.077615 0.744024 0.663630
vn 0.077615 0.744024 0.663630
vn 0.077615 0.744024 0.663630
vn 0.067704 0.146178 0.986939
vn 0.067704 0.146178 0.986939
vn 0.067704 0.146178 0.986939
vn 0.067704 0.146178 0.986939
vn 0.041307 0.732497 -0.679516
vn 0.041307 0.732497 -0.679516
vn 0.041307 0.732497 -0.679516
vn 0.041307 0.732497 -0.679516
vn 0.057496 0.997856 0.031273
vn 0.057496 0.997856 0.031273
vn 0.000086 0.141467 -0.989943
vn 0.000086 0.141467 -0.989943
vn 0.000086 0.141467 -0.989943
vn 0.000086 0.141467 -0.989943
vn 0.056792 0.997974 -0.028679
vn 0.056792 0.997974 -0.028679
vn 0.299748 0.938626 0.170684
vn 0.299748 0.938626 0.170684
vn 0.299748 0.938626 0.170684
vn 0.299748 0.938626 0.170684
vn -0.233747 0.969329 0.075923
vn -0.233747 0.969329 0.075923
g Sashimi_Salmon2_PalePink
usemtl PalePink
f 1 2 3
f 1 3 4
f 5 1 4
f 5 4 6
f 7 8 9
f 7 10 8
f 11 10 7
f 11 12 10
f 13 14 15
f 13 15 16
f 17 13 16
f 17 16 18
f 19 20 21
f 19 21 22
f 23 24 25
f 23 26 24
f 27 26 23
f 27 28 26
f 29 30 31
f 29 31 32
f 33 34 35
f 33 36 34
f 37 36 33
f 36 38 34
f 37 39 36
f 36 40 38
f 39 40 36
f 39 41 40
f 42 43 44
f 42 45 43
f 46 45 42
f 46 47 45
f 48 49 50
f 48 50 51
f 52 53 54
f 52 54 55
f 56 57 58
f 56 58 59
f 60 61 62
f 60 62 63
f 64 65 66
f 64 66 67
f 68 69 70
f 68 70 71
f 72 73 74
f 72 74 75
f 76 77 78
f 76 78 79
f 80 81 82
f 80 82 83
f 84 85 86
f 84 86 87
f 88 89 90
f 88 90 91
f 92 93 94
f 92 94 95
f 96 97 98
f 96 98 99
f 100 101 102
f 100 102 103
f 104 105 106
f 104 106 107
f 108 109 110
f 108 110 111
f 112 113 114
f 112 114 115
f 116 117 118
f 116 118 119
f 120 121 122
f 120 122 123
f 124 120 123
f 124 123 125
f 126 127 128
f 126 128 129
f 130 131 132
f 130 132 133
f 134 130 135
f 134 135 136
f 137 138 139
f 137 139 140
f 141 142 143
f 141 144 142
f 145 144 141
f 145 146 144
f 147 148 149
f 147 149 150
f 151 152 153
f 151 153 154
f 155 156 157
f 155 157 158
f 159 160 161
f 159 161 162
f 163 164 165
f 163 165 166
f 167 168 169
f 167 169 170
g Sashimi_Salmon2_PalePink2
usemtl PalePink2
f 123 122 14
f 123 14 13
f 125 123 13
f 125 13 17
f 107 106 171
f 107 171 172
f 103 102 173
f 103 173 174
f 175 176 177
f 175 177 178
f 179 180 181
f 179 181 182
f 113 183 184
f 113 184 114
f 111 110 185
f 111 185 186
f 187 188 189
f 187 189 190
f 191 192 193
f 191 193 194
f 195 196 197
f 195 197 198
f 199 200 201
f 199 201 202
f 10 12 2
f 10 2 1
f 8 10 1
f 8 1 5
f 203 204 127
f 203 127 126
f 205 206 131
f 205 131 130
f 207 205 130
f 207 130 134
f 208 209 138
f 208 138 137
f 120 143 121
f 120 141 143
f 124 141 120
f 124 145 141
f 210 211 212
f 210 212 213
f 214 215 216
f 214 216 217
f 218 219 220
f 218 220 221
f 222 223 224
f 222 224 225
f 226 227 228
f 226 228 229
f 133 132 230
f 133 230 231
f 232 233 234
f 232 234 235
f 144 9 142
f 144 7 9
f 146 7 144
f 146 11 7
f 136 135 236
f 136 236 237
f 238 239 240
f 238 240 241
f 156 242 243
f 156 243 157
