mtllib Materials.mtl
# Ultimate Food Pack - Sausage_Cooked
o Sausage_Cooked
v 0.049843 0.119925 0.708915
v 0.119785 0.048939 0.708915
v 0.119785 0.048938 -0.708915
v 0.049843 0.119925 -0.708915
v -0.119785 -0.048938 0.708915
v -0.119559 0.050716 0.708915
v -0.119559 0.050716 -0.708915
v -0.119785 -0.048939 -0.708915
v -0.049843 -0.119925 0.708915
v -0.119785 -0.048938 0.708915
v -0.119785 -0.048939 -0.708915
v -0.049843 -0.119925 -0.708915
v 0.049297 -0.120662 0.708915
v -0.049843 -0.119925 0.708915
v -0.049843 -0.119925 -0.708915
v 0.049297 -0.120662 -0.708915
v 0.119559 -0.050716 0.708915
v 0.049297 -0.120662 0.708915
v 0.049297 -0.120662 -0.708915
v 0.119559 -0.050716 -0.708915
v 0.119785 0.048939 0.708915
v 0.119559 -0.050716 0.708915
v 0.119559 -0.050716 -0.708915
v 0.119785 0.048938 -0.708915
v -0.119559 0.050716 0.708915
v -0.049297 0.120662 0.708915
v -0.049297 0.120662 -0.708915
v -0.119559 0.050716 -0.708915
v -0.119559 0.050716 0.708915
v -0.104355 0.044267 0.774622
v -0.043028 0.105318 0.774622
v -0.049297 0.120662 0.708915
v -0.031574 0.013393 0.824036
v -0.031634 -0.012924 0.824036
v -0.013131 -0.013061 0.828067
v -0.013065 0.013256 0.828067
v -0.119785 -0.048938 0.708915
v -0.104553 -0.042715 0.774622
v -0.104355 0.044267 0.774622
v -0.119559 0.050716 0.708915
v -0.043505 -0.104675 0.774622
v -0.027960 -0.067274 0.812412
v -0.067196 -0.027453 0.812412
v -0.104553 -0.042715 0.774622
v -0.049843 -0.119925 0.708915
v -0.043505 -0.104675 0.774622
v -0.104553 -0.042715 0.774622
v -0.119785 -0.048938 0.708915
v 0.043028 -0.105317 0.774622
v 0.027654 -0.067687 0.812412
v -0.027960 -0.067274 0.812412
v -0.043505 -0.104675 0.774622
v 0.049297 -0.120662 0.708915
v 0.043028 -0.105317 0.774622
v -0.043505 -0.104675 0.774622
v -0.049843 -0.119925 0.708915
v 0.104355 -0.044266 0.774622
v 0.067069 -0.028450 0.812412
v 0.027654 -0.067687 0.812412
v 0.043028 -0.105317 0.774622
v 0.119559 -0.050716 0.708915
v 0.104355 -0.044266 0.774622
v 0.043028 -0.105317 0.774622
v 0.049297 -0.120662 0.708915
v 0.104552 0.042715 0.774622
v 0.067196 0.027453 0.812412
v 0.067069 -0.028450 0.812412
v 0.104355 -0.044266 0.774622
v 0.119785 0.048939 0.708915
v 0.104552 0.042715 0.774622
v 0.104355 -0.044266 0.774622
v 0.119559 -0.050716 0.708915
v 0.043505 0.104675 0.774622
v 0.027960 0.067274 0.812412
v 0.067196 0.027453 0.812412
v 0.104552 0.042715 0.774622
v 0.049843 0.119925 0.708915
v 0.043505 0.104675 0.774622
v 0.104552 0.042715 0.774622
v 0.119785 0.048939 0.708915
v -0.049297 0.120662 0.708915
v -0.043028 0.105318 0.774622
v 0.043505 0.104675 0.774622
v 0.049843 0.119925 0.708915
v -0.104355 0.044267 0.774622
v -0.067069 0.028450 0.812412
v -0.027654 0.067687 0.812412
v -0.043028 0.105318 0.774622
v -0.104553 -0.042715 0.774622
v -0.067196 -0.027453 0.812412
v -0.067069 0.028450 0.812412
v -0.104355 0.044267 0.774622
v -0.013019 0.031865 0.824036
v -0.027654 0.067687 0.812412
v -0.067069 0.028450 0.812412
v -0.031574 0.013393 0.824036
v -0.013065 0.013256 0.828067
v -0.031574 0.013393 0.824036
v -0.067069 0.028450 0.812412
v -0.067196 -0.027453 0.812412
v -0.031634 -0.012924 0.824036
v -0.031634 -0.012924 0.824036
v -0.067196 -0.027453 0.812412
v -0.027960 -0.067274 0.812412
v -0.013163 -0.031671 0.824036
v -0.013131 -0.013061 0.828067
v -0.013163 -0.031671 0.824036
v -0.027960 -0.067274 0.812412
v 0.027654 -0.067687 0.812412
v 0.013018 -0.031865 0.824036
v 0.013018 -0.031865 0.824036
v 0.027654 -0.067687 0.812412
v 0.067069 -0.028450 0.812412
v 0.031574 -0.013393 0.824036
v 0.013059 -0.013256 0.828067
v 0.031574 -0.013393 0.824036
v 0.067069 -0.028450 0.812412
v 0.067196 0.027453 0.812412
v 0.031633 0.012924 0.824036
v 0.031633 0.012924 0.824036
v 0.067196 0.027453 0.812412
v 0.027960 0.067274 0.812412
v 0.013163 0.031671 0.824036
v 0.013117 0.013062 0.828067
v 0.013163 0.031671 0.824036
v 0.027960 0.067274 0.812412
v -0.027654 0.067687 0.812412
v -0.013019 0.031865 0.824036
v -0.043028 0.105318 0.774622
v -0.027654 0.067687 0.812412
v 0.027960 0.067274 0.812412
v 0.043505 0.104675 0.774622
v 0.013163 0.031671 0.824036
v -0.013019 0.031865 0.824036
v -0.013065 0.013256 0.828067
v 0.013117 0.013062 0.828067
v 0.013059 -0.013256 0.828067
v 0.031574 -0.013393 0.824036
v 0.031633 0.012924 0.824036
v 0.013117 0.013062 0.828067
v -0.013163 -0.031671 0.824036
v 0.013018 -0.031865 0.824036
v 0.013059 -0.013256 0.828067
v -0.013131 -0.013061 0.828067
v -0.013131 -0.013061 0.828067
v 0.013059 -0.013256 0.828067
v 0.013117 0.013062 0.828067
v -0.013065 0.013256 0.828067
v -0.119559 0.050716 -0.708915
v -0.049297 0.120662 -0.708915
v -0.043028 0.105317 -0.774622
v -0.104355 0.044266 -0.774622
v -0.031574 0.013393 -0.824036
v -0.013065 0.013256 -0.828067
v -0.013131 -0.013061 -0.828067
v -0.031633 -0.012924 -0.824036
v -0.119785 -0.048939 -0.708915
v -0.119559 0.050716 -0.708915
v -0.104355 0.044266 -0.774622
v -0.104552 -0.042715 -0.774622
v -0.043505 -0.104675 -0.774622
v -0.104552 -0.042715 -0.774622
v -0.067196 -0.027453 -0.812412
v -0.027960 -0.067275 -0.812412
v -0.049843 -0.119925 -0.708915
v -0.119785 -0.048939 -0.708915
v -0.104552 -0.042715 -0.774622
v -0.043505 -0.104675 -0.774622
v 0.043028 -0.105318 -0.774622
v -0.043505 -0.104675 -0.774622
v -0.027960 -0.067275 -0.812412
v 0.027654 -0.067687 -0.812412
v 0.049297 -0.120662 -0.708915
v -0.049843 -0.119925 -0.708915
v -0.043505 -0.104675 -0.774622
v 0.043028 -0.105318 -0.774622
v 0.104355 -0.044267 -0.774622
v 0.043028 -0.105318 -0.774622
v 0.027654 -0.067687 -0.812412
v 0.067069 -0.028450 -0.812412
v 0.119559 -0.050716 -0.708915
v 0.049297 -0.120662 -0.708915
v 0.043028 -0.105318 -0.774622
v 0.104355 -0.044267 -0.774622
v 0.104553 0.042715 -0.774622
v 0.104355 -0.044267 -0.774622
v 0.067069 -0.028450 -0.812412
v 0.067196 0.027453 -0.812412
v 0.119785 0.048938 -0.708915
v 0.119559 -0.050716 -0.708915
v 0.104355 -0.044267 -0.774622
v 0.104553 0.042715 -0.774622
v 0.043505 0.104675 -0.774622
v 0.104553 0.042715 -0.774622
v 0.067196 0.027453 -0.812412
v 0.027960 0.067274 -0.812412
v 0.049843 0.119925 -0.708915
v 0.119785 0.048938 -0.708915
v 0.104553 0.042715 -0.774622
v 0.043505 0.104675 -0.774622
v -0.049297 0.120662 -0.708915
v 0.049843 0.119925 -0.708915
v 0.043505 0.104675 -0.774622
v -0.043028 0.105317 -0.774622
v -0.104355 0.044266 -0.774622
v -0.043028 0.105317 -0.774622
v -0.027654 0.067687 -0.812412
v -0.067069 0.028450 -0.812412
v -0.104552 -0.042715 -0.774622
v -0.104355 0.044266 -0.774622
v -0.067069 0.028450 -0.812412
v -0.067196 -0.027453 -0.812412
v -0.013018 0.031865 -0.824036
v -0.067069 0.028450 -0.812412
v -0.027654 0.067687 -0.812412
v -0.031574 0.013393 -0.824036
v -0.013065 0.013256 -0.828067
v -0.031574 0.013393 -0.824036
v -0.031633 -0.012924 -0.824036
v -0.067196 -0.027453 -0.812412
v -0.067069 0.028450 -0.812412
v -0.031633 -0.012924 -0.824036
v -0.027960 -0.067275 -0.812412
v -0.067196 -0.027453 -0.812412
v -0.013163 -0.031671 -0.824036
v -0.013131 -0.013061 -0.828067
v -0.013163 -0.031671 -0.824036
v 0.013019 -0.031865 -0.824036
v 0.027654 -0.067687 -0.812412
v -0.027960 -0.067275 -0.812412
v 0.013019 -0.031865 -0.824036
v 0.067069 -0.028450 -0.812412
v 0.027654 -0.067687 -0.812412
v 0.031574 -0.013393 -0.824036
v 0.013059 -0.013256 -0.828067
v 0.031574 -0.013393 -0.824036
v 0.031634 0.012924 -0.824036
v 0.067196 0.027453 -0.812412
v 0.067069 -0.028450 -0.812412
v 0.031634 0.012924 -0.824036
v 0.027960 0.067274 -0.812412
v 0.067196 0.027453 -0.812412
v 0.013163 0.031671 -0.824036
v 0.013117 0.013061 -0.828067
v 0.013163 0.031671 -0.824036
v -0.013018 0.031865 -0.824036
v -0.027654 0.067687 -0.812412
v 0.027960 0.067274 -0.812412
v -0.043028 0.105317 -0.774622
v 0.043505 0.104675 -0.774622
v 0.027960 0.067274 -0.812412
v -0.027654 0.067687 -0.812412
v 0.013163 0.031671 -0.824036
v 0.013117 0.013061 -0.828067
v -0.013065 0.013256 -0.828067
v -0.013018 0.031865 -0.824036
v 0.013059 -0.013256 -0.828067
v 0.013117 0.013061 -0.828067
v 0.031634 0.012924 -0.824036
v 0.031574 -0.013393 -0.824036
v -0.013163 -0.031671 -0.824036
v -0.013131 -0.013061 -0.828067
v 0.013059 -0.013256 -0.828067
v 0.013019 -0.031865 -0.824036
v -0.013131 -0.013061 -0.828067
v -0.013065 0.013256 -0.828067
v 0.013117 0.013061 -0.828067
v 0.013059 -0.013256 -0.828067
v -0.049297 0.120662 0.708915
v 0.049843 0.119925 0.708915
v 0.049843 0.119925 -0.708915
v -0.049297 0.120662 -0.708915
vn 0.712329 0.701846 0.000000
vn 0.712329 0.701846 0.000000
vn 0.712329 0.701846 0.000000
vn 0.712329 0.701846 0.000000
vn -0.999997 0.002271 0.000000
vn -0.999997 0.002271 0.000000
vn -0.999997 0.002271 0.000000
vn -0.999997 0.002271 0.000000
vn -0.712329 -0.701846 0.000000
vn -0.712329 -0.701846 0.000000
vn -0.712329 -0.701846 0.000000
vn -0.712329 -0.701846 0.000000
vn -0.007426 -0.999972 0.000000
vn -0.007426 -0.999972 0.000000
vn -0.007426 -0.999972 0.000000
vn -0.007426 -0.999972 0.000000
vn 0.705509 -0.708701 0.000000
vn 0.705509 -0.708701 0.000000
vn 0.705509 -0.708701 0.000000
vn 0.705509 -0.708701 0.000000
vn 0.999997 -0.002271 0.000000
vn 0.999997 -0.002271 0.000000
vn 0.999997 -0.002271 0.000000
vn 0.999997 -0.002271 0.000000
vn -0.705509 0.708701 0.000000
vn -0.705509 0.708701 0.000000
vn -0.705509 0.708701 0.000000
vn -0.705509 0.708701 0.000000
vn -0.687133 0.690243 0.226745
vn -0.687133 0.690243 0.226745
vn -0.687133 0.690243 0.226745
vn -0.687133 0.690243 0.226745
vn -0.212823 0.000508 0.977091
vn -0.212823 0.000508 0.977091
vn -0.212823 0.000508 0.977091
vn -0.212823 0.000508 0.977091
vn -0.974209 0.002212 0.225639
vn -0.974209 0.002212 0.225639
vn -0.974209 0.002212 0.225639
vn -0.974209 0.002212 0.225639
vn -0.506820 -0.499362 0.702688
vn -0.506820 -0.499362 0.702688
vn -0.506820 -0.499362 0.702688
vn -0.506820 -0.499362 0.702688
vn -0.693959 -0.683746 0.225639
vn -0.693959 -0.683746 0.225639
vn -0.693959 -0.683746 0.225639
vn -0.693959 -0.683746 0.225639
vn -0.005270 -0.709666 0.704519
vn -0.005270 -0.709666 0.704519
vn -0.005270 -0.709666 0.704519
vn -0.005270 -0.709666 0.704519
vn -0.007232 -0.973927 0.226746
vn -0.007232 -0.973927 0.226746
vn -0.007232 -0.973927 0.226746
vn -0.007232 -0.973927 0.226746
vn 0.500689 -0.502954 0.704520
vn 0.500689 -0.502954 0.704520
vn 0.500689 -0.502954 0.704520
vn 0.500689 -0.502954 0.704520
vn 0.687133 -0.690243 0.226745
vn 0.687133 -0.690243 0.226745
vn 0.687133 -0.690243 0.226745
vn 0.687133 -0.690243 0.226745
vn 0.711496 -0.001616 0.702689
vn 0.711496 -0.001616 0.702689
vn 0.711496 -0.001616 0.702689
vn 0.711496 -0.001616 0.702689
vn 0.974209 -0.002212 0.225639
vn 0.974209 -0.002212 0.225639
vn 0.974209 -0.002212 0.225639
vn 0.974209 -0.002212 0.225639
vn 0.506820 0.499362 0.702689
vn 0.506820 0.499362 0.702689
vn 0.506820 0.499362 0.702689
vn 0.506820 0.499362 0.702689
vn 0.693959 0.683746 0.225639
vn 0.693959 0.683746 0.225639
vn 0.693959 0.683746 0.225639
vn 0.693959 0.683746 0.225639
vn 0.007232 0.973927 0.226745
vn 0.007232 0.973927 0.226745
vn 0.007232 0.973927 0.226745
vn 0.007232 0.973927 0.226745
vn -0.500688 0.502955 0.704520
vn -0.500688 0.502955 0.704520
vn -0.500688 0.502955 0.704520
vn -0.500688 0.502955 0.704520
vn -0.711496 0.001616 0.702689
vn -0.711496 0.001616 0.702689
vn -0.711496 0.001616 0.702689
vn -0.711496 0.001616 0.702689
vn -0.218362 0.219348 0.950897
vn -0.218362 0.219348 0.950897
vn -0.218362 0.219348 0.950897
vn -0.218362 0.219348 0.950897
vn -0.206683 0.207626 0.956124
vn -0.310954 0.000706 0.950425
vn -0.310954 0.000706 0.950425
vn -0.310954 0.000706 0.950425
vn -0.310954 0.000706 0.950425
vn -0.221502 -0.218238 0.950426
vn -0.221502 -0.218238 0.950426
vn -0.221502 -0.218238 0.950426
vn -0.221502 -0.218238 0.950426
vn -0.209732 -0.206649 0.955672
vn -0.002298 -0.309500 0.950897
vn -0.002298 -0.309500 0.950897
vn -0.002298 -0.309500 0.950897
vn -0.002298 -0.309500 0.950897
vn 0.218361 -0.219350 0.950896
vn 0.218361 -0.219350 0.950896
vn 0.218361 -0.219350 0.950896
vn 0.218361 -0.219350 0.950896
vn 0.206615 -0.207552 0.956155
vn 0.310954 -0.000706 0.950425
vn 0.310954 -0.000706 0.950425
vn 0.310954 -0.000706 0.950425
vn 0.310954 -0.000706 0.950425
vn 0.221502 0.218241 0.950425
vn 0.221502 0.218241 0.950425
vn 0.221502 0.218241 0.950425
vn 0.221502 0.218241 0.950425
vn 0.209587 0.206501 0.955736
vn 0.002298 0.309504 0.950895
vn 0.002298 0.309504 0.950895
vn 0.002298 0.309504 0.950895
vn 0.002298 0.309504 0.950895
vn 0.005270 0.709664 0.704520
vn 0.005270 0.709664 0.704520
vn 0.005270 0.709664 0.704520
vn 0.005270 0.709664 0.704520
vn 0.001572 0.211689 0.977336
vn 0.001572 0.211689 0.977336
vn 0.001572 0.211689 0.977336
vn 0.001572 0.211689 0.977336
vn 0.212710 -0.000477 0.977115
vn 0.212710 -0.000477 0.977115
vn 0.212710 -0.000477 0.977115
vn 0.212710 -0.000477 0.977115
vn -0.001572 -0.211689 0.977336
vn -0.001572 -0.211689 0.977336
vn -0.001572 -0.211689 0.977336
vn -0.001572 -0.211689 0.977336
vn 0.000000 0.000001 1.000000
vn 0.000000 0.000001 1.000000
vn 0.000000 0.000001 1.000000
vn 0.000000 0.000001 1.000000
vn -0.687133 0.690243 -0.226746
vn -0.687133 0.690243 -0.226746
vn -0.687133 0.690243 -0.226746
vn -0.687133 0.690243 -0.226746
vn -0.212823 0.000506 -0.977091
vn -0.212823 0.000506 -0.977091
vn -0.212823 0.000506 -0.977091
vn -0.212823 0.000506 -0.977091
vn -0.974209 0.002212 -0.225639
vn -0.974209 0.002212 -0.225639
vn -0.974209 0.002212 -0.225639
vn -0.974209 0.002212 -0.225639
vn -0.506820 -0.499362 -0.702689
vn -0.506820 -0.499362 -0.702689
vn -0.506820 -0.499362 -0.702689
vn -0.506820 -0.499362 -0.702689
vn -0.693959 -0.683746 -0.225639
vn -0.693959 -0.683746 -0.225639
vn -0.693959 -0.683746 -0.225639
vn -0.693959 -0.683746 -0.225639
vn -0.005270 -0.709666 -0.704519
vn -0.005270 -0.709666 -0.704519
vn -0.005270 -0.709666 -0.704519
vn -0.005270 -0.709666 -0.704519
vn -0.007232 -0.973927 -0.226745
vn -0.007232 -0.973927 -0.226745
vn -0.007232 -0.973927 -0.226745
vn -0.007232 -0.973927 -0.226745
vn 0.500689 -0.502954 -0.704520
vn 0.500689 -0.502954 -0.704520
vn 0.500689 -0.502954 -0.704520
vn 0.500689 -0.502954 -0.704520
vn 0.687133 -0.690243 -0.226745
vn 0.687133 -0.690243 -0.226745
vn 0.687133 -0.690243 -0.226745
vn 0.687133 -0.690243 -0.226745
vn 0.711496 -0.001616 -0.702689
vn 0.711496 -0.001616 -0.702689
vn 0.711496 -0.001616 -0.702689
vn 0.711496 -0.001616 -0.702689
vn 0.974209 -0.002212 -0.225639
vn 0.974209 -0.002212 -0.225639
vn 0.974209 -0.002212 -0.225639
vn 0.974209 -0.002212 -0.225639
vn 0.506821 0.499361 -0.702689
vn 0.506821 0.499361 -0.702689
vn 0.506821 0.499361 -0.702689
vn 0.506821 0.499361 -0.702689
vn 0.693959 0.683746 -0.225639
vn 0.693959 0.683746 -0.225639
vn 0.693959 0.683746 -0.225639
vn 0.693959 0.683746 -0.225639
vn 0.007232 0.973927 -0.226746
vn 0.007232 0.973927 -0.226746
vn 0.007232 0.973927 -0.226746
vn 0.007232 0.973927 -0.226746
vn -0.500688 0.502955 -0.704520
vn -0.500688 0.502955 -0.704520
vn -0.500688 0.502955 -0.704520
vn -0.500688 0.502955 -0.704520
vn -0.711496 0.001616 -0.702689
vn -0.711496 0.001616 -0.702689
vn -0.711496 0.001616 -0.702689
vn -0.711496 0.001616 -0.702689
vn -0.218362 0.219348 -0.950897
vn -0.218362 0.219348 -0.950897
vn -0.218362 0.219348 -0.950897
vn -0.218362 0.219348 -0.950897
vn -0.206683 0.207631 -0.956123
vn -0.310954 0.000705 -0.950425
vn -0.310954 0.000705 -0.950425
vn -0.310954 0.000705 -0.950425
vn -0.310954 0.000705 -0.950425
vn -0.221502 -0.218243 -0.950425
vn -0.221502 -0.218243 -0.950425
vn -0.221502 -0.218243 -0.950425
vn -0.221502 -0.218243 -0.950425
vn -0.209732 -0.206644 -0.955673
vn -0.002298 -0.309499 -0.950897
vn -0.002298 -0.309499 -0.950897
vn -0.002298 -0.309499 -0.950897
vn -0.002298 -0.309499 -0.950897
vn 0.218361 -0.219352 -0.950896
vn 0.218361 -0.219352 -0.950896
vn 0.218361 -0.219352 -0.950896
vn 0.218361 -0.219352 -0.950896
vn 0.206615 -0.207547 -0.956156
vn 0.310954 -0.000706 -0.950425
vn 0.310954 -0.000706 -0.950425
vn 0.310954 -0.000706 -0.950425
vn 0.310954 -0.000706 -0.950425
vn 0.221502 0.218244 -0.950424
vn 0.221502 0.218244 -0.950424
vn 0.221502 0.218244 -0.950424
vn 0.221502 0.218244 -0.950424
vn 0.209587 0.206501 -0.955736
vn 0.002298 0.309503 -0.950896
vn 0.002298 0.309503 -0.950896
vn 0.002298 0.309503 -0.950896
vn 0.002298 0.309503 -0.950896
vn 0.005270 0.709665 -0.704520
vn 0.005270 0.709665 -0.704520
vn 0.005270 0.709665 -0.704520
vn 0.005270 0.709665 -0.704520
vn 0.001572 0.211689 -0.977336
vn 0.001572 0.211689 -0.977336
vn 0.001572 0.211689 -0.977336
vn 0.001572 0.211689 -0.977336
vn 0.212710 -0.000480 -0.977115
vn 0.212710 -0.000480 -0.977115
vn 0.212710 -0.000480 -0.977115
vn 0.212710 -0.000480 -0.977115
vn -0.001572 -0.211690 -0.977336
vn -0.001572 -0.211690 -0.977336
vn -0.001572 -0.211690 -0.977336
vn -0.001572 -0.211690 -0.977336
vn 0.000000 0.000000 -1.000000
vn 0.000000 0.000000 -1.000000
vn 0.000000 0.000000 -1.000000
vn 0.000000 0.000000 -1.000000
vn 0.007426 0.999972 0.000000
vn 0.007426 0.999972 0.000000
vn 0.007426 0.999972 0.000000
vn 0.007426 0.999972 0.000000
g Sausage_Cooked_DarkBrown
usemtl DarkBrown
f 1 2 3
f 1 3 4
f 5 6 7
f 5 7 8
f 9 10 11
f 9 11 12
f 13 14 15
f 13 15 16
f 17 18 19
f 17 19 20
f 21 22 23
f 21 23 24
f 25 26 27
f 25 27 28
f 29 30 31
f 29 31 32
f 33 34 35
f 33 35 36
f 37 38 39
f 37 39 40
f 41 42 43
f 41 43 44
f 45 46 47
f 45 47 48
f 49 50 51
f 49 51 52
f 53 54 55
f 53 55 56
f 57 58 59
f 57 59 60
f 61 62 63
f 61 63 64
f 65 66 67
f 65 67 68
f 69 70 71
f 69 71 72
f 73 74 75
f 73 75 76
f 77 78 79
f 77 79 80
f 81 82 83
f 81 83 84
f 85 86 87
f 85 87 88
f 89 90 91
f 89 91 92
f 93 94 95
f 93 95 96
f 93 96 97
f 98 99 100
f 98 100 101
f 102 103 104
f 102 104 105
f 102 105 106
f 107 108 109
f 107 109 110
f 111 112 113
f 111 113 114
f 111 114 115
f 116 117 118
f 116 118 119
f 120 121 122
f 120 122 123
f 120 123 124
f 125 126 127
f 125 127 128
f 129 130 131
f 129 131 132
f 133 134 135
f 133 135 136
f 137 138 139
f 137 139 140
f 141 142 143
f 141 143 144
f 145 146 147
f 145 147 148
f 149 150 151
f 149 151 152
f 153 154 155
f 153 155 156
f 157 158 159
f 157 159 160
f 161 162 163
f 161 163 164
f 165 166 167
f 165 167 168
f 169 170 171
f 169 171 172
f 173 174 175
f 173 175 176
f 177 178 179
f 177 179 180
f 181 182 183
f 181 183 184
f 185 186 187
f 185 187 188
f 189 190 191
f 189 191 192
f 193 194 195
f 193 195 196
f 197 198 199
f 197 199 200
f 201 202 203
f 201 203 204
f 205 206 207
f 205 207 208
f 209 210 211
f 209 211 212
f 213 214 215
f 213 216 214
f 213 217 216
f 218 219 220
f 218 220 221
f 222 223 224
f 222 225 223
f 222 226 225
f 227 228 229
f 227 229 230
f 231 232 233
f 231 234 232
f 231 235 234
f 236 237 238
f 236 238 239
f 240 241 242
f 240 243 241
f 240 244 243
f 245 246 247
f 245 247 248
f 249 250 251
f 249 251 252
f 253 254 255
f 253 255 256
f 257 258 259
f 257 259 260
f 261 262 263
f 261 263 264
f 265 266 267
f 265 267 268
f 269 270 271
f 269 271 272
