mtllib Materials.mtl
# Ultimate Food Pack - Soda
o Soda
v 0.288176 1.080423 -0.288176
v 0.000000 1.080423 -0.407543
v 0.000000 1.165077 -0.414631
v 0.293188 1.165077 -0.293188
v -0.407543 1.080423 0.000000
v -0.288176 1.080423 0.288176
v -0.293188 1.165078 0.293188
v -0.414631 1.165077 0.000000
v -0.288176 1.080423 0.288176
v 0.000000 1.080423 0.407543
v 0.000000 1.165078 0.414630
v -0.293188 1.165078 0.293188
v 0.000000 1.080423 0.407543
v 0.288176 1.080423 0.288176
v 0.293188 1.165078 0.293188
v 0.000000 1.165078 0.414630
v 0.288176 1.080423 0.288176
v 0.407543 1.080423 0.000000
v 0.414631 1.165077 0.000000
v 0.293188 1.165078 0.293188
v 0.407543 1.080423 0.000000
v 0.288176 1.080423 -0.288176
v 0.293188 1.165077 -0.293188
v 0.414631 1.165077 0.000000
v -0.288176 1.080423 -0.288176
v -0.407543 1.080423 0.000000
v -0.414631 1.165077 0.000000
v -0.293188 1.165077 -0.293188
v 0.000000 1.080423 -0.407543
v -0.288176 1.080423 -0.288176
v -0.293188 1.165077 -0.293188
v 0.000000 1.165077 -0.414631
v 0.000000 0.027659 -0.297626
v 0.000000 0.003877 -0.269322
v -0.190439 0.003877 -0.190439
v -0.210453 0.027660 -0.210453
v -0.210453 0.027660 -0.210453
v -0.190439 0.003877 -0.190439
v -0.269322 0.003877 0.000000
v -0.297626 0.027660 0.000000
v -0.297626 0.027660 0.000000
v -0.269322 0.003877 0.000000
v -0.190439 0.003877 0.190439
v -0.210453 0.027660 0.210453
v -0.210453 0.027660 0.210453
v -0.190439 0.003877 0.190439
v 0.000000 0.003877 0.269322
v 0.000000 0.027660 0.297626
v 0.000000 0.027660 0.297626
v 0.000000 0.003877 0.269322
v 0.190439 0.003877 0.190439
v 0.210453 0.027660 0.210453
v 0.210453 0.027660 0.210453
v 0.190439 0.003877 0.190439
v 0.269322 0.003877 0.000000
v 0.297626 0.027660 0.000000
v 0.297626 0.027660 0.000000
v 0.269322 0.003877 0.000000
v 0.190439 0.003877 -0.190439
v 0.210453 0.027660 -0.210453
v 0.210453 0.027660 -0.210453
v 0.190439 0.003877 -0.190439
v 0.000000 0.003877 -0.269322
v 0.000000 0.027659 -0.297626
v -0.190439 0.003877 0.190439
v -0.269322 0.003877 0.000000
v -0.190439 0.003877 -0.190439
v 0.000000 0.003877 0.269322
v 0.000000 0.003877 -0.269322
v 0.190439 0.003877 -0.190439
v 0.190439 0.003877 0.190439
v 0.269322 0.003877 0.000000
v -0.322368 1.165077 -0.322368
v -0.312843 1.228489 -0.312844
v 0.000000 1.228489 -0.442428
v 0.000000 1.165077 -0.455897
v 0.270478 1.280158 0.000000
v 0.248281 1.255957 0.000000
v 0.175561 1.255957 0.175561
v 0.191257 1.280158 0.191257
v 0.000000 1.165077 -0.455897
v 0.000000 1.228489 -0.442428
v 0.312843 1.228489 -0.312843
v 0.322368 1.165077 -0.322368
v 0.455897 1.165077 0.000000
v 0.442427 1.228489 0.000000
v 0.312843 1.228489 0.312843
v 0.322368 1.165078 0.322368
v 0.000000 1.165078 0.455897
v 0.000000 1.228489 0.442427
v -0.312843 1.228489 0.312843
v -0.322368 1.165078 0.322368
v -0.455897 1.165077 0.000000
v -0.442427 1.228489 0.000000
v -0.312843 1.228489 -0.312844
v -0.322368 1.165077 -0.322368
v 0.322368 1.165077 -0.322368
v 0.312843 1.228489 -0.312843
v 0.442427 1.228489 0.000000
v 0.455897 1.165077 0.000000
v 0.322368 1.165078 0.322368
v 0.312843 1.228489 0.312843
v 0.000000 1.228489 0.442427
v 0.000000 1.165078 0.455897
v -0.322368 1.165078 0.322368
v -0.312843 1.228489 0.312843
v -0.442427 1.228489 0.000000
v -0.455897 1.165077 0.000000
v -0.442427 1.228489 0.000000
v -0.446671 1.261011 0.000000
v -0.315844 1.261011 -0.315844
v -0.312843 1.228489 -0.312844
v 0.442427 1.228489 0.000000
v 0.446671 1.261011 0.000000
v 0.315844 1.261011 0.315844
v 0.312843 1.228489 0.312843
v 0.000000 1.228489 0.442427
v 0.000000 1.261011 0.446671
v -0.315844 1.261011 0.315844
v -0.312843 1.228489 0.312843
v -0.312843 1.228489 0.312843
v -0.315844 1.261011 0.315844
v -0.446671 1.261011 0.000000
v -0.442427 1.228489 0.000000
v 0.312843 1.228489 -0.312843
v 0.315844 1.261011 -0.315844
v 0.446671 1.261011 0.000000
v 0.442427 1.228489 0.000000
v 0.312843 1.228489 0.312843
v 0.315844 1.261011 0.315844
v 0.000000 1.261011 0.446671
v 0.000000 1.228489 0.442427
v 0.000000 1.228489 -0.442428
v 0.000000 1.261011 -0.446671
v 0.315844 1.261011 -0.315844
v 0.312843 1.228489 -0.312843
v -0.315844 1.261011 -0.315844
v -0.303696 1.280158 -0.303696
v 0.000000 1.280158 -0.429491
v 0.000000 1.261011 -0.446671
v -0.446671 1.261011 0.000000
v -0.429491 1.280158 0.000000
v -0.303696 1.280158 -0.303696
v -0.315844 1.261011 -0.315844
v -0.315844 1.261011 0.315844
v -0.303696 1.280158 0.303696
v -0.429491 1.280158 0.000000
v -0.446671 1.261011 0.000000
v 0.000000 1.261011 0.446671
v 0.000000 1.280158 0.429491
v -0.303696 1.280158 0.303696
v -0.315844 1.261011 0.315844
v 0.315844 1.261011 0.315844
v 0.303696 1.280158 0.303696
v 0.000000 1.280158 0.429491
v 0.000000 1.261011 0.446671
v 0.446671 1.261011 0.000000
v 0.429491 1.280158 0.000000
v 0.303696 1.280158 0.303696
v 0.315844 1.261011 0.315844
v 0.315844 1.261011 -0.315844
v 0.303696 1.280158 -0.303696
v 0.429491 1.280158 0.000000
v 0.446671 1.261011 0.000000
v 0.000000 1.261011 -0.446671
v 0.000000 1.280158 -0.429491
v 0.303696 1.280158 -0.303696
v 0.315844 1.261011 -0.315844
v -0.312843 1.228489 -0.312844
v -0.315844 1.261011 -0.315844
v 0.000000 1.261011 -0.446671
v 0.000000 1.228489 -0.442428
v -0.270478 1.280158 0.000000
v -0.248281 1.255957 0.000000
v -0.175561 1.255957 -0.175561
v -0.191257 1.280158 -0.191257
v -0.191257 1.280158 0.191257
v -0.175561 1.255957 0.175561
v -0.248281 1.255957 0.000000
v -0.270478 1.280158 0.000000
v 0.191257 1.280158 -0.191257
v 0.175561 1.255957 -0.175561
v 0.248281 1.255957 0.000000
v 0.270478 1.280158 0.000000
v 0.000000 1.280158 -0.270478
v 0.000000 1.255957 -0.248281
v 0.175561 1.255957 -0.175561
v 0.191257 1.280158 -0.191257
v 0.000000 1.280158 0.270478
v 0.000000 1.255957 0.248280
v -0.175561 1.255957 0.175561
v -0.191257 1.280158 0.191257
v -0.191257 1.280158 -0.191257
v -0.175561 1.255957 -0.175561
v 0.000000 1.255957 -0.248281
v 0.000000 1.280158 -0.270478
v 0.191257 1.280158 0.191257
v 0.175561 1.255957 0.175561
v 0.000000 1.255957 0.248280
v 0.000000 1.280158 0.270478
v -0.163541 1.255957 0.000000
v -0.151133 1.288225 0.000000
v -0.106867 1.288225 -0.106867
v -0.115641 1.255957 -0.115641
v 0.115641 1.255957 0.115641
v 0.106867 1.288225 0.106867
v 0.000000 1.288225 0.151133
v 0.000000 1.255957 0.163541
v 0.000000 1.255957 0.163541
v 0.000000 1.288225 0.151133
v -0.106867 1.288225 0.106867
v -0.115641 1.255957 0.115641
v -0.115641 1.255957 -0.115641
v -0.106867 1.288225 -0.106867
v 0.000000 1.288225 -0.151133
v 0.000000 1.255957 -0.163541
v -0.115641 1.255957 0.115641
v -0.106867 1.288225 0.106867
v -0.151133 1.288225 0.000000
v -0.163541 1.255957 0.000000
v 0.115641 1.255957 -0.115641
v 0.106867 1.288225 -0.106867
v 0.151133 1.288225 0.000000
v 0.163541 1.255957 0.000000
v 0.000000 1.255957 -0.163541
v 0.000000 1.288225 -0.151133
v 0.106867 1.288225 -0.106867
v 0.115641 1.255957 -0.115641
v 0.163541 1.255957 0.000000
v 0.151133 1.288225 0.000000
v 0.106867 1.288225 0.106867
v 0.115641 1.255957 0.115641
v -0.030584 1.288225 -0.030584
v -0.030584 1.229197 -0.030584
v 0.000000 1.229197 -0.043252
v 0.000000 1.288225 -0.043252
v -0.030584 1.229197 -0.030584
v -0.043252 1.229197 0.000000
v -0.030584 1.229197 0.030584
v 0.000000 1.229197 -0.043252
v 0.000000 1.229197 0.043252
v 0.030584 1.229197 -0.030584
v 0.030584 1.229197 0.030584
v 0.043252 1.229197 0.000000
v -0.030584 1.288225 0.030584
v -0.030584 1.229197 0.030584
v -0.043252 1.229197 0.000000
v -0.043252 1.288225 0.000000
v 0.030584 1.288225 -0.030584
v 0.030584 1.229197 -0.030584
v 0.043252 1.229197 0.000000
v 0.043252 1.288225 0.000000
v 0.000000 1.288225 -0.043252
v 0.000000 1.229197 -0.043252
v 0.030584 1.229197 -0.030584
v 0.030584 1.288225 -0.030584
v 0.043252 1.288225 0.000000
v 0.043252 1.229197 0.000000
v 0.030584 1.229197 0.030584
v 0.030584 1.288225 0.030584
v -0.043252 1.288225 0.000000
v -0.043252 1.229197 0.000000
v -0.030584 1.229197 -0.030584
v -0.030584 1.288225 -0.030584
v 0.030584 1.288225 0.030584
v 0.030584 1.229197 0.030584
v 0.000000 1.229197 0.043252
v 0.000000 1.288225 0.043252
v 0.000000 1.288225 0.043252
v 0.000000 1.229197 0.043252
v -0.030584 1.229197 0.030584
v -0.030584 1.288225 0.030584
v -0.021969 1.192158 0.021969
v -0.031069 1.192158 0.000000
v -0.021969 1.192158 -0.021969
v 0.000000 1.192158 0.031069
v 0.000000 1.192158 -0.031069
v 0.021969 1.192158 -0.021969
v 0.021969 1.192158 0.021969
v 0.031069 1.192158 0.000000
v -0.191488 1.845147 0.000000
v -0.310780 1.926798 0.000000
v -0.315920 1.919289 0.021969
v -0.196628 1.837638 0.021969
v -0.226585 1.793870 0.000000
v -0.345877 1.875521 0.000000
v -0.340737 1.883031 -0.021969
v -0.221445 1.801380 -0.021969
v -0.196628 1.837638 0.021969
v -0.315920 1.919289 0.021969
v -0.328328 1.901160 0.031069
v -0.209036 1.819509 0.031069
v -0.209036 1.819509 0.031069
v -0.328328 1.901160 0.031069
v -0.340737 1.883031 0.021969
v -0.221445 1.801380 0.021969
v -0.221445 1.801380 -0.021969
v -0.340737 1.883031 -0.021969
v -0.328328 1.901160 -0.031069
v -0.209036 1.819509 -0.031069
v -0.221445 1.801380 0.021969
v -0.340737 1.883031 0.021969
v -0.345877 1.875521 0.000000
v -0.226585 1.793870 0.000000
v -0.196627 1.837637 -0.021969
v -0.315920 1.919289 -0.021969
v -0.310780 1.926798 0.000000
v -0.191488 1.845147 0.000000
v -0.209036 1.819509 -0.031069
v -0.328328 1.901160 -0.031069
v -0.315920 1.919289 -0.021969
v -0.196627 1.837637 -0.021969
v 0.000000 1.336718 -0.031069
v 0.000000 1.481278 -0.031069
v 0.021969 1.481278 -0.021969
v 0.021969 1.336718 -0.021969
v -0.065171 1.721038 -0.024703
v -0.089744 1.737857 -0.031069
v -0.077335 1.755986 -0.021969
v -0.055305 1.735452 -0.017468
v 0.021969 1.336718 -0.021969
v 0.021969 1.481278 -0.021969
v 0.031069 1.481278 0.000000
v 0.031069 1.336718 0.000000
v -0.055305 1.735452 -0.017468
v -0.077335 1.755986 -0.021969
v -0.072196 1.763496 0.000000
v -0.051218 1.741423 0.000000
v -0.021969 1.336718 0.021969
v -0.021969 1.481278 0.021969
v -0.031069 1.481278 0.000000
v -0.031069 1.336718 0.000000
v -0.075037 1.706623 0.017467
v -0.102153 1.719728 0.021969
v -0.107293 1.712219 0.000000
v -0.079124 1.700653 0.000000
v -0.021969 1.336718 -0.021969
v -0.021969 1.481278 -0.021969
v 0.000000 1.481278 -0.031069
v 0.000000 1.336718 -0.031069
v -0.075037 1.706623 -0.017468
v -0.102153 1.719728 -0.021969
v -0.089744 1.737857 -0.031069
v -0.065171 1.721038 -0.024703
v 0.000000 1.336718 0.031069
v 0.000000 1.481278 0.031069
v -0.021969 1.481278 0.021969
v -0.021969 1.336718 0.021969
v -0.065171 1.721038 0.024703
v -0.089744 1.737857 0.031069
v -0.102153 1.719728 0.021969
v -0.075037 1.706623 0.017467
v 0.021969 1.336718 0.021969
v 0.021969 1.481278 0.021969
v 0.000000 1.481278 0.031069
v 0.000000 1.336718 0.031069
v -0.055305 1.735452 0.017467
v -0.077335 1.755987 0.021969
v -0.089744 1.737857 0.031069
v -0.065171 1.721038 0.024703
v -0.031069 1.336718 0.000000
v -0.031069 1.481278 0.000000
v -0.021969 1.481278 -0.021969
v -0.021969 1.336718 -0.021969
v -0.079124 1.700653 0.000000
v -0.107293 1.712219 0.000000
v -0.102153 1.719728 -0.021969
v -0.075037 1.706623 -0.017468
v 0.031069 1.336718 0.000000
v 0.031069 1.481278 0.000000
v 0.021969 1.481278 0.021969
v 0.021969 1.336718 0.021969
v -0.051218 1.741423 0.000000
v -0.072196 1.763496 0.000000
v -0.077335 1.755987 0.021969
v -0.055305 1.735452 0.017467
v 0.031069 1.625837 0.000000
v 0.018380 1.672070 0.000000
v 0.012388 1.668849 0.016424
v 0.021969 1.625837 0.021969
v 0.018380 1.672070 0.000000
v 0.013950 1.693509 0.000000
v 0.006694 1.688016 0.021969
v 0.012388 1.668849 0.016424
v 0.013950 1.693509 0.000000
v -0.016116 1.715091 0.000000
v -0.019959 1.709478 0.016424
v 0.006694 1.688016 0.021969
v -0.016116 1.715091 0.000000
v -0.032432 1.736278 0.000000
v -0.037571 1.728769 0.021969
v -0.019959 1.709478 0.016424
v -0.032432 1.736278 0.000000
v -0.051218 1.741423 0.000000
v -0.055305 1.735452 0.017467
v -0.037571 1.728769 0.021969
v -0.031069 1.625837 0.000000
v -0.022537 1.650076 0.000000
v -0.016545 1.653297 -0.016424
v -0.021969 1.625837 -0.021969
v -0.022537 1.650076 0.000000
v -0.035592 1.656002 0.000000
v -0.028337 1.661495 -0.021969
v -0.016545 1.653297 -0.016424
v -0.035592 1.656002 0.000000
v -0.042354 1.676757 0.000000
v -0.038512 1.682371 -0.016424
v -0.028337 1.661495 -0.021969
v -0.042354 1.676757 0.000000
v -0.067529 1.685002 0.000000
v -0.062389 1.692512 -0.021969
v -0.038512 1.682371 -0.016424
v -0.067529 1.685002 0.000000
v -0.079124 1.700653 0.000000
v -0.075037 1.706623 -0.017468
v -0.062389 1.692512 -0.021969
v 0.021969 1.625837 0.021969
v 0.012388 1.668849 0.016424
v -0.002079 1.661073 0.023227
v 0.000000 1.625837 0.031069
v 0.012388 1.668849 0.016424
v 0.006694 1.688016 0.021969
v -0.010821 1.674756 0.031069
v -0.002079 1.661073 0.023227
v 0.006694 1.688016 0.021969
v -0.019959 1.709478 0.016424
v -0.029235 1.695925 0.023227
v -0.010821 1.674756 0.031069
v -0.019959 1.709478 0.016424
v -0.037571 1.728769 0.021969
v -0.049980 1.710640 0.031069
v -0.029235 1.695925 0.023227
v -0.037571 1.728769 0.021969
v -0.055305 1.735452 0.017467
v -0.065171 1.721038 0.024703
v -0.049980 1.710640 0.031069
v 0.000000 1.625837 0.031069
v -0.002079 1.661073 0.023227
v -0.016545 1.653297 0.016424
v -0.021969 1.625837 0.021969
v -0.002079 1.661073 0.023227
v -0.010821 1.674756 0.031069
v -0.028337 1.661495 0.021969
v -0.016545 1.653297 0.016424
v -0.010821 1.674756 0.031069
v -0.029235 1.695925 0.023227
v -0.038512 1.682371 0.016424
v -0.028337 1.661495 0.021969
v -0.029235 1.695925 0.023227
v -0.049980 1.710640 0.031069
v -0.062389 1.692512 0.021969
v -0.038512 1.682371 0.016424
v -0.049980 1.710640 0.031069
v -0.065171 1.721038 0.024703
v -0.075037 1.706623 0.017467
v -0.062389 1.692512 0.021969
v -0.021969 1.625837 -0.021969
v -0.016545 1.653297 -0.016424
v -0.002079 1.661073 -0.023227
v 0.000000 1.625837 -0.031069
v -0.016545 1.653297 -0.016424
v -0.028337 1.661495 -0.021969
v -0.010821 1.674756 -0.031069
v -0.002079 1.661073 -0.023227
v -0.028337 1.661495 -0.021969
v -0.038512 1.682371 -0.016424
v -0.029235 1.695925 -0.023227
v -0.010821 1.674756 -0.031069
v -0.038512 1.682371 -0.016424
v -0.062389 1.692512 -0.021969
v -0.049980 1.710640 -0.031069
v -0.029235 1.695925 -0.023227
v -0.062389 1.692512 -0.021969
v -0.075037 1.706623 -0.017468
v -0.065171 1.721038 -0.024703
v -0.049980 1.710640 -0.031069
v -0.021969 1.625837 0.021969
v -0.016545 1.653297 0.016424
v -0.022537 1.650076 0.000000
v -0.031069 1.625837 0.000000
v -0.016545 1.653297 0.016424
v -0.028337 1.661495 0.021969
v -0.035592 1.656002 0.000000
v -0.022537 1.650076 0.000000
v -0.028337 1.661495 0.021969
v -0.038512 1.682371 0.016424
v -0.042354 1.676757 0.000000
v -0.035592 1.656002 0.000000
v -0.038512 1.682371 0.016424
v -0.062389 1.692512 0.021969
v -0.067529 1.685002 0.000000
v -0.042354 1.676757 0.000000
v -0.062389 1.692512 0.021969
v -0.075037 1.706623 0.017467
v -0.079124 1.700653 0.000000
v -0.067529 1.685002 0.000000
v 0.021969 1.625837 -0.021969
v 0.012388 1.668849 -0.016424
v 0.018380 1.672070 0.000000
v 0.031069 1.625837 0.000000
v 0.012388 1.668849 -0.016424
v 0.006694 1.688016 -0.021969
v 0.013950 1.693509 0.000000
v 0.018380 1.672070 0.000000
v 0.006694 1.688016 -0.021969
v -0.019958 1.709478 -0.016424
v -0.016116 1.715091 0.000000
v 0.013950 1.693509 0.000000
v -0.019958 1.709478 -0.016424
v -0.037571 1.728769 -0.021969
v -0.032432 1.736278 0.000000
v -0.016116 1.715091 0.000000
v -0.037571 1.728769 -0.021969
v -0.055305 1.735452 -0.017468
v -0.051218 1.741423 0.000000
v -0.032432 1.736278 0.000000
v 0.000000 1.625837 -0.031069
v -0.002079 1.661073 -0.023227
v 0.012388 1.668849 -0.016424
v 0.021969 1.625837 -0.021969
v -0.002079 1.661073 -0.023227
v -0.010821 1.674756 -0.031069
v 0.006694 1.688016 -0.021969
v 0.012388 1.668849 -0.016424
v -0.010821 1.674756 -0.031069
v -0.029235 1.695925 -0.023227
v -0.019958 1.709478 -0.016424
v 0.006694 1.688016 -0.021969
v -0.029235 1.695925 -0.023227
v -0.049980 1.710640 -0.031069
v -0.037571 1.728769 -0.021969
v -0.019958 1.709478 -0.016424
v -0.049980 1.710640 -0.031069
v -0.065171 1.721038 -0.024703
v -0.055305 1.735452 -0.017468
v -0.037571 1.728769 -0.021969
v -0.328328 1.901160 0.026972
v -0.117206 1.756655 0.026972
v -0.127979 1.740916 0.019072
v -0.339101 1.885421 0.019072
v -0.339101 1.885421 -0.019073
v -0.127979 1.740916 -0.019073
v -0.117206 1.756655 -0.026973
v -0.328328 1.901160 -0.026973
v -0.339101 1.885421 0.019072
v -0.127979 1.740916 0.019072
v -0.132441 1.734397 0.000000
v -0.343563 1.878902 0.000000
v -0.317556 1.916898 -0.019073
v -0.106434 1.772394 -0.019073
v -0.101971 1.778913 0.000000
v -0.313093 1.923418 0.000000
v -0.328328 1.901160 -0.026973
v -0.117206 1.756655 -0.026973
v -0.106434 1.772394 -0.019073
v -0.317556 1.916898 -0.019073
v -0.313093 1.923418 0.000000
v -0.101971 1.778913 0.000000
v -0.106434 1.772394 0.019072
v -0.317556 1.916898 0.019072
v -0.343563 1.878902 0.000000
v -0.132441 1.734397 0.000000
v -0.127979 1.740916 -0.019073
v -0.339101 1.885421 -0.019073
v -0.317556 1.916898 0.019072
v -0.106434 1.772394 0.019072
v -0.117206 1.756655 0.026972
v -0.328328 1.901160 0.026972
v 0.000000 0.027659 -0.297626
v -0.210453 0.027660 -0.210453
v -0.215737 0.100300 -0.215737
v 0.000000 0.100300 -0.305098
v -0.210453 0.027660 -0.210453
v -0.297626 0.027660 0.000000
v -0.305098 0.100300 0.000000
v -0.215737 0.100300 -0.215737
v 0.297626 0.027660 0.000000
v 0.210453 0.027660 -0.210453
v 0.215737 0.100300 -0.215737
v 0.305098 0.100300 0.000000
v 0.210453 0.027660 0.210453
v 0.297626 0.027660 0.000000
v 0.305098 0.100300 0.000000
v 0.215737 0.100300 0.215737
v 0.000000 0.027660 0.297626
v 0.210453 0.027660 0.210453
v 0.215737 0.100300 0.215737
v 0.000000 0.100300 0.305098
v -0.210453 0.027660 0.210453
v 0.000000 0.027660 0.297626
v 0.000000 0.100300 0.305098
v -0.215737 0.100300 0.215737
v -0.297626 0.027660 0.000000
v -0.210453 0.027660 0.210453
v -0.215737 0.100300 0.215737
v -0.305098 0.100300 0.000000
v 0.210453 0.027660 -0.210453
v 0.000000 0.027659 -0.297626
v 0.000000 0.100300 -0.305098
v 0.215737 0.100300 -0.215737
v -0.310780 1.926798 0.000000
v -0.317556 1.916898 0.019072
v -0.315920 1.919289 0.021969
v -0.313093 1.923418 0.000000
v -0.328328 1.901160 0.026972
v -0.315920 1.919289 -0.021969
v -0.328328 1.901160 0.031069
v -0.317556 1.916898 -0.019073
v -0.339101 1.885421 0.019072
v -0.328328 1.901160 -0.031069
v -0.340737 1.883031 0.021969
v -0.328328 1.901160 -0.026973
v -0.343563 1.878902 0.000000
v -0.340737 1.883031 -0.021969
v -0.345877 1.875521 0.000000
v -0.339101 1.885421 -0.019073
v 0.000000 1.288225 0.151133
v -0.030584 1.288225 0.030584
v -0.106867 1.288225 0.106867
v 0.000000 1.288225 0.043252
v -0.043252 1.288225 0.000000
v 0.106867 1.288225 0.106867
v -0.151133 1.288225 0.000000
v 0.030584 1.288225 0.030584
v -0.030584 1.288225 -0.030584
v 0.151133 1.288225 0.000000
v -0.106867 1.288225 -0.106867
v 0.043252 1.288225 0.000000
v 0.000000 1.288225 -0.043252
v 0.106867 1.288225 -0.106867
v 0.000000 1.288225 -0.151133
v 0.030584 1.288225 -0.030584
v 0.248281 1.255957 0.000000
v 0.115641 1.255957 0.115641
v 0.175561 1.255957 0.175561
v 0.163541 1.255957 0.000000
v 0.000000 1.255957 0.163541
v 0.175561 1.255957 -0.175561
v 0.000000 1.255957 0.248280
v 0.115641 1.255957 -0.115641
v -0.115641 1.255957 0.115641
v 0.000000 1.255957 -0.248281
v -0.175561 1.255957 0.175561
v 0.000000 1.255957 -0.163541
v -0.163541 1.255957 0.000000
v -0.175561 1.255957 -0.175561
v -0.248281 1.255957 0.000000
v -0.115641 1.255957 -0.115641
v -0.429491 1.280158 0.000000
v -0.270478 1.280158 0.000000
v -0.191257 1.280158 -0.191257
v -0.303696 1.280158 -0.303696
v -0.303696 1.280158 0.303696
v 0.000000 1.280158 -0.270478
v -0.191257 1.280158 0.191257
v 0.000000 1.280158 -0.429491
v 0.000000 1.280158 0.429491
v 0.191257 1.280158 -0.191257
v 0.000000 1.280158 0.270478
v 0.303696 1.280158 -0.303696
v 0.303696 1.280158 0.303696
v 0.270478 1.280158 0.000000
v 0.191257 1.280158 0.191257
v 0.429491 1.280158 0.000000
v -0.414631 1.165077 0.000000
v -0.322368 1.165077 -0.322368
v -0.293188 1.165077 -0.293188
v -0.455897 1.165077 0.000000
v 0.000000 1.165077 -0.455897
v -0.293188 1.165078 0.293188
v 0.000000 1.165077 -0.414631
v -0.322368 1.165078 0.322368
v 0.322368 1.165077 -0.322368
v 0.000000 1.165078 0.414630
v 0.293188 1.165077 -0.293188
v 0.000000 1.165078 0.455897
v 0.455897 1.165077 0.000000
v 0.293188 1.165078 0.293188
v 0.414631 1.165077 0.000000
v 0.322368 1.165078 0.322368
v 0.000000 1.192158 -0.031069
v 0.021969 1.192158 -0.021969
v 0.000000 1.625837 -0.031069
v 0.021969 1.625837 -0.021969
v -0.089744 1.737857 -0.031069
v -0.077335 1.755986 -0.021969
v 0.021969 1.192158 -0.021969
v 0.031069 1.192158 0.000000
v 0.021969 1.625837 -0.021969
v 0.031069 1.625837 0.000000
v -0.077335 1.755986 -0.021969
v -0.072196 1.763496 0.000000
v -0.021969 1.192158 0.021969
v -0.031069 1.192158 0.000000
v -0.021969 1.625837 0.021969
v -0.031069 1.625837 0.000000
v -0.102153 1.719728 0.021969
v -0.107293 1.712219 0.000000
v -0.021969 1.192158 -0.021969
v 0.000000 1.192158 -0.031069
v -0.021969 1.625837 -0.021969
v 0.000000 1.625837 -0.031069
v -0.102153 1.719728 -0.021969
v -0.089744 1.737857 -0.031069
v 0.000000 1.192158 0.031069
v -0.021969 1.192158 0.021969
v 0.000000 1.625837 0.031069
v -0.021969 1.625837 0.021969
v -0.089744 1.737857 0.031069
v -0.102153 1.719728 0.021969
v 0.021969 1.192158 0.021969
v 0.000000 1.192158 0.031069
v 0.021969 1.625837 0.021969
v 0.000000 1.625837 0.031069
v -0.077335 1.755987 0.021969
v -0.089744 1.737857 0.031069
v -0.031069 1.192158 0.000000
v -0.021969 1.192158 -0.021969
v -0.031069 1.625837 0.000000
v -0.021969 1.625837 -0.021969
v -0.107293 1.712219 0.000000
v -0.102153 1.719728 -0.021969
v 0.031069 1.192158 0.000000
v 0.021969 1.192158 0.021969
v 0.031069 1.625837 0.000000
v 0.021969 1.625837 0.021969
v -0.072196 1.763496 0.000000
v -0.077335 1.755987 0.021969
v -0.127979 1.740916 0.019072
v -0.117206 1.756655 0.026972
v -0.106434 1.772394 0.019072
v -0.132441 1.734397 0.000000
v -0.101971 1.778913 0.000000
v -0.106434 1.772394 -0.019073
v -0.127979 1.740916 -0.019073
v -0.117206 1.756655 -0.026973
v 0.000000 0.100300 -0.305098
v -0.215737 0.100300 -0.215737
v -0.231455 0.122377 -0.231455
v 0.000000 0.122377 -0.327327
v -0.215737 0.100300 -0.215737
v -0.305098 0.100300 0.000000
v -0.327327 0.122377 0.000000
v -0.231455 0.122377 -0.231455
v 0.305098 0.100300 0.000000
v 0.215737 0.100300 -0.215737
v 0.231455 0.122377 -0.231455
v 0.327327 0.122377 0.000000
v 0.215737 0.100300 0.215737
v 0.305098 0.100300 0.000000
v 0.327327 0.122377 0.000000
v 0.231455 0.122377 0.231455
v 0.000000 0.100300 0.305098
v 0.215737 0.100300 0.215737
v 0.231455 0.122377 0.231455
v 0.000000 0.122377 0.327327
v -0.215737 0.100300 0.215737
v 0.000000 0.100300 0.305098
v 0.000000 0.122377 0.327327
v -0.231455 0.122377 0.231455
v -0.305098 0.100300 0.000000
v -0.215737 0.100300 0.215737
v -0.231455 0.122377 0.231455
v -0.327327 0.122377 0.000000
v 0.215737 0.100300 -0.215737
v 0.000000 0.100300 -0.305098
v 0.000000 0.122377 -0.327327
v 0.231455 0.122377 -0.231455
v 0.000000 0.122377 -0.327327
v -0.231455 0.122377 -0.231455
v -0.231455 0.122377 -0.231455
v -0.327327 0.122377 0.000000
v 0.327327 0.122377 0.000000
v 0.231455 0.122377 -0.231455
v 0.231455 0.122377 0.231455
v 0.327327 0.122377 0.000000
v 0.000000 0.122377 0.327327
v 0.231455 0.122377 0.231455
v -0.231455 0.122377 0.231455
v 0.000000 0.122377 0.327327
v -0.327327 0.122377 0.000000
v -0.231455 0.122377 0.231455
v 0.231455 0.122377 -0.231455
v 0.000000 0.122377 -0.327327
vn 0.381544 -0.077125 -0.921128
vn 0.381544 -0.077125 -0.921128
vn 0.381544 -0.077125 -0.921128
vn 0.381544 -0.077125 -0.921128
vn -0.921128 -0.077125 0.381543
vn -0.921128 -0.077125 0.381543
vn -0.921128 -0.077125 0.381543
vn -0.921128 -0.077125 0.381543
vn -0.381544 -0.077125 0.921128
vn -0.381544 -0.077125 0.921128
vn -0.381544 -0.077125 0.921128
vn -0.381544 -0.077125 0.921128
vn 0.381544 -0.077125 0.921128
vn 0.381544 -0.077125 0.921128
vn 0.381544 -0.077125 0.921128
vn 0.381544 -0.077125 0.921128
vn 0.921128 -0.077125 0.381544
vn 0.921128 -0.077125 0.381544
vn 0.921128 -0.077125 0.381544
vn 0.921128 -0.077125 0.381544
vn 0.921128 -0.077125 -0.381543
vn 0.921128 -0.077125 -0.381543
vn 0.921128 -0.077125 -0.381543
vn 0.921128 -0.077125 -0.381543
vn -0.921128 -0.077125 -0.381543
vn -0.921128 -0.077125 -0.381543
vn -0.921128 -0.077125 -0.381543
vn -0.921128 -0.077125 -0.381543
vn -0.381543 -0.077125 -0.921128
vn -0.381543 -0.077125 -0.921128
vn -0.381543 -0.077125 -0.921128
vn -0.381543 -0.077125 -0.921128
vn -0.257479 -0.739802 -0.621609
vn -0.257479 -0.739802 -0.621609
vn -0.257479 -0.739802 -0.621609
vn -0.257479 -0.739802 -0.621609
vn -0.621610 -0.739802 -0.257479
vn -0.621610 -0.739802 -0.257479
vn -0.621610 -0.739802 -0.257479
vn -0.621610 -0.739802 -0.257479
vn -0.621609 -0.739802 0.257479
vn -0.621609 -0.739802 0.257479
vn -0.621609 -0.739802 0.257479
vn -0.621609 -0.739802 0.257479
vn -0.257479 -0.739802 0.621609
vn -0.257479 -0.739802 0.621609
vn -0.257479 -0.739802 0.621609
vn -0.257479 -0.739802 0.621609
vn 0.257479 -0.739801 0.621610
vn 0.257479 -0.739801 0.621610
vn 0.257479 -0.739801 0.621610
vn 0.257479 -0.739801 0.621610
vn 0.621610 -0.739801 0.257479
vn 0.621610 -0.739801 0.257479
vn 0.621610 -0.739801 0.257479
vn 0.621610 -0.739801 0.257479
vn 0.621609 -0.739802 -0.257479
vn 0.621609 -0.739802 -0.257479
vn 0.621609 -0.739802 -0.257479
vn 0.621609 -0.739802 -0.257479
vn 0.257479 -0.739802 -0.621609
vn 0.257479 -0.739802 -0.621609
vn 0.257479 -0.739802 -0.621609
vn 0.257479 -0.739802 -0.621609
vn 0.000000 -1.000000 0.000000
vn 0.000000 -1.000000 0.000000
vn 0.000000 -1.000000 0.000000
vn 0.000000 -1.000000 0.000000
vn 0.000000 -1.000000 0.000000
vn 0.000000 -1.000000 0.000000
vn 0.000000 -1.000000 0.000000
vn 0.000000 -1.000000 0.000000
vn -0.375520 0.192573 -0.906587
vn -0.375520 0.192573 -0.906587
vn -0.375520 0.192573 -0.906587
vn -0.375520 0.192573 -0.906587
vn -0.704852 0.646487 -0.291958
vn -0.704852 0.646487 -0.291958
vn -0.704852 0.646487 -0.291958
vn -0.704852 0.646487 -0.291958
vn 0.375521 0.192573 -0.906587
vn 0.375521 0.192573 -0.906587
vn 0.375521 0.192573 -0.906587
vn 0.375521 0.192573 -0.906587
vn 0.906587 0.192572 0.375521
vn 0.906587 0.192572 0.375521
vn 0.906587 0.192572 0.375521
vn 0.906587 0.192572 0.375521
vn -0.375520 0.192573 0.906587
vn -0.375520 0.192573 0.906587
vn -0.375520 0.192573 0.906587
vn -0.375520 0.192573 0.906587
vn -0.906587 0.192573 -0.375521
vn -0.906587 0.192573 -0.375521
vn -0.906587 0.192573 -0.375521
vn -0.906587 0.192573 -0.375521
vn 0.906587 0.192573 -0.375521
vn 0.906587 0.192573 -0.375521
vn 0.906587 0.192573 -0.375521
vn 0.906587 0.192573 -0.375521
vn 0.375521 0.192573 0.906587
vn 0.375521 0.192573 0.906587
vn 0.375521 0.192573 0.906587
vn 0.375521 0.192573 0.906587
vn -0.906587 0.192573 0.375521
vn -0.906587 0.192573 0.375521
vn -0.906587 0.192573 0.375521
vn -0.906587 0.192573 0.375521
vn -0.917239 -0.119687 -0.379932
vn -0.917239 -0.119687 -0.379932
vn -0.917239 -0.119687 -0.379932
vn -0.917239 -0.119687 -0.379932
vn 0.917238 -0.119687 0.379933
vn 0.917238 -0.119687 0.379933
vn 0.917238 -0.119687 0.379933
vn 0.917238 -0.119687 0.379933
vn -0.379933 -0.119687 0.917238
vn -0.379933 -0.119687 0.917238
vn -0.379933 -0.119687 0.917238
vn -0.379933 -0.119687 0.917238
vn -0.917239 -0.119686 0.379931
vn -0.917239 -0.119686 0.379931
vn -0.917239 -0.119686 0.379931
vn -0.917239 -0.119686 0.379931
vn 0.917239 -0.119687 -0.379932
vn 0.917239 -0.119687 -0.379932
vn 0.917239 -0.119687 -0.379932
vn 0.917239 -0.119687 -0.379932
vn 0.379933 -0.119687 0.917238
vn 0.379933 -0.119687 0.917238
vn 0.379933 -0.119687 0.917238
vn 0.379933 -0.119687 0.917238
vn 0.379932 -0.119688 -0.917239
vn 0.379932 -0.119688 -0.917239
vn 0.379932 -0.119688 -0.917239
vn 0.379932 -0.119688 -0.917239
vn -0.294617 0.638196 -0.711271
vn -0.294617 0.638196 -0.711271
vn -0.294617 0.638196 -0.711271
vn -0.294617 0.638196 -0.711271
vn -0.711270 0.638197 -0.294618
vn -0.711270 0.638197 -0.294618
vn -0.711270 0.638197 -0.294618
vn -0.711270 0.638197 -0.294618
vn -0.711272 0.638195 0.294618
vn -0.711272 0.638195 0.294618
vn -0.711272 0.638195 0.294618
vn -0.711272 0.638195 0.294618
vn -0.294619 0.638194 0.711272
vn -0.294619 0.638194 0.711272
vn -0.294619 0.638194 0.711272
vn -0.294619 0.638194 0.711272
vn 0.294619 0.638196 0.711271
vn 0.294619 0.638196 0.711271
vn 0.294619 0.638196 0.711271
vn 0.294619 0.638196 0.711271
vn 0.711270 0.638196 0.294618
vn 0.711270 0.638196 0.294618
vn 0.711270 0.638196 0.294618
vn 0.711270 0.638196 0.294618
vn 0.711272 0.638195 -0.294618
vn 0.711272 0.638195 -0.294618
vn 0.711272 0.638195 -0.294618
vn 0.711272 0.638195 -0.294618
vn 0.294619 0.638196 -0.711270
vn 0.294619 0.638196 -0.711270
vn 0.294619 0.638196 -0.711270
vn 0.294619 0.638196 -0.711270
vn -0.379933 -0.119687 -0.917238
vn -0.379933 -0.119687 -0.917238
vn -0.379933 -0.119687 -0.917238
vn -0.379933 -0.119687 -0.917238
vn 0.704850 0.646488 0.291959
vn 0.704850 0.646488 0.291959
vn 0.704850 0.646488 0.291959
vn 0.704850 0.646488 0.291959
vn 0.704850 0.646488 -0.291959
vn 0.704850 0.646488 -0.291959
vn 0.704850 0.646488 -0.291959
vn 0.704850 0.646488 -0.291959
vn -0.704850 0.646488 0.291958
vn -0.704850 0.646488 0.291958
vn -0.704850 0.646488 0.291958
vn -0.704850 0.646488 0.291958
vn -0.291959 0.646488 0.704850
vn -0.291959 0.646488 0.704850
vn -0.291959 0.646488 0.704850
vn -0.291959 0.646488 0.704850
vn 0.291959 0.646488 -0.704850
vn 0.291959 0.646488 -0.704850
vn 0.291959 0.646488 -0.704850
vn 0.291959 0.646488 -0.704850
vn 0.291958 0.646488 0.704850
vn 0.291958 0.646488 0.704850
vn 0.291958 0.646488 0.704850
vn 0.291958 0.646488 0.704850
vn -0.291960 0.646487 -0.704850
vn -0.291960 0.646487 -0.704850
vn -0.291960 0.646487 -0.704850
vn -0.291960 0.646487 -0.704850
vn -0.870573 0.334767 -0.360603
vn -0.870573 0.334767 -0.360603
vn -0.870573 0.334767 -0.360603
vn -0.870573 0.334767 -0.360603
vn 0.360603 0.334767 0.870573
vn 0.360603 0.334767 0.870573
vn 0.360603 0.334767 0.870573
vn 0.360603 0.334767 0.870573
vn -0.360602 0.334767 0.870573
vn -0.360602 0.334767 0.870573
vn -0.360602 0.334767 0.870573
vn -0.360602 0.334767 0.870573
vn -0.360602 0.334766 -0.870573
vn -0.360602 0.334766 -0.870573
vn -0.360602 0.334766 -0.870573
vn -0.360602 0.334766 -0.870573
vn -0.870572 0.334768 0.360604
vn -0.870572 0.334768 0.360604
vn -0.870572 0.334768 0.360604
vn -0.870572 0.334768 0.360604
vn 0.870572 0.334767 -0.360604
vn 0.870572 0.334767 -0.360604
vn 0.870572 0.334767 -0.360604
vn 0.870572 0.334767 -0.360604
vn 0.360602 0.334766 -0.870574
vn 0.360602 0.334766 -0.870574
vn 0.360602 0.334766 -0.870574
vn 0.360602 0.334766 -0.870574
vn 0.870573 0.334766 0.360603
vn 0.870573 0.334766 0.360603
vn 0.870573 0.334766 0.360603
vn 0.870573 0.334766 0.360603
vn 0.382683 0.000000 0.923880
vn 0.382683 0.000000 0.923880
vn 0.382683 0.000000 0.923880
vn 0.382683 0.000000 0.923880
vn 0.000000 1.000000 0.000000
vn 0.000000 1.000000 0.000000
vn 0.000000 1.000000 0.000000
vn 0.000000 1.000000 0.000000
vn 0.000000 1.000000 0.000000
vn 0.000000 1.000000 0.000000
vn 0.000000 1.000000 0.000000
vn 0.000000 1.000000 0.000000
vn 0.923880 0.000000 -0.382683
vn 0.923880 0.000000 -0.382683
vn 0.923880 0.000000 -0.382683
vn 0.923880 0.000000 -0.382683
vn -0.923880 0.000000 0.382683
vn -0.923880 0.000000 0.382683
vn -0.923880 0.000000 0.382683
vn -0.923880 0.000000 0.382683
vn -0.382683 0.000000 0.923880
vn -0.382683 0.000000 0.923880
vn -0.382683 0.000000 0.923880
vn -0.382683 0.000000 0.923880
vn -0.923880 0.000000 -0.382683
vn -0.923880 0.000000 -0.382683
vn -0.923880 0.000000 -0.382683
vn -0.923880 0.000000 -0.382683
vn 0.923880 0.000000 0.382683
vn 0.923880 0.000000 0.382683
vn 0.923880 0.000000 0.382683
vn 0.923880 0.000000 0.382683
vn -0.382684 0.000000 -0.923879
vn -0.382684 0.000000 -0.923879
vn -0.382684 0.000000 -0.923879
vn -0.382684 0.000000 -0.923879
vn 0.382683 0.000000 -0.923880
vn 0.382683 0.000000 -0.923880
vn 0.382683 0.000000 -0.923880
vn 0.382683 0.000000 -0.923880
vn 0.000001 -1.000000 0.000000
vn 0.000001 -1.000000 0.000000
vn 0.000001 -1.000000 0.000000
vn 0.000001 -1.000000 0.000000
vn 0.000001 -1.000000 0.000000
vn 0.000001 -1.000000 0.000000
vn 0.000001 -1.000000 0.000000
vn 0.000001 -1.000000 0.000000
vn 0.521834 0.762393 0.382683
vn 0.521834 0.762393 0.382683
vn 0.521834 0.762393 0.382683
vn 0.521834 0.762393 0.382683
vn -0.521832 -0.762394 -0.382684
vn -0.521832 -0.762394 -0.382684
vn -0.521832 -0.762394 -0.382684
vn -0.521832 -0.762394 -0.382684
vn 0.216150 0.315794 0.923880
vn 0.216150 0.315794 0.923880
vn 0.216150 0.315794 0.923880
vn 0.216150 0.315794 0.923880
vn -0.216150 -0.315794 0.923880
vn -0.216150 -0.315794 0.923880
vn -0.216150 -0.315794 0.923880
vn -0.216150 -0.315794 0.923880
vn -0.216150 -0.315794 -0.923880
vn -0.216150 -0.315794 -0.923880
vn -0.216150 -0.315794 -0.923880
vn -0.216150 -0.315794 -0.923880
vn -0.521832 -0.762394 0.382684
vn -0.521832 -0.762394 0.382684
vn -0.521832 -0.762394 0.382684
vn -0.521832 -0.762394 0.382684
vn 0.521832 0.762394 -0.382684
vn 0.521832 0.762394 -0.382684
vn 0.521832 0.762394 -0.382684
vn 0.521832 0.762394 -0.382684
vn 0.216150 0.315794 -0.923880
vn 0.216150 0.315794 -0.923880
vn 0.216150 0.315794 -0.923880
vn 0.216150 0.315794 -0.923880
vn 0.382683 0.000000 -0.923880
vn 0.382683 0.000000 -0.923880
vn 0.382683 0.000000 -0.923880
vn 0.382683 0.000000 -0.923880
vn 0.371944 0.200368 -0.906372
vn 0.371944 0.200368 -0.906372
vn 0.371944 0.200368 -0.906372
vn 0.371944 0.200368 -0.906372
vn 0.923880 0.000000 -0.382683
vn 0.923880 0.000000 -0.382683
vn 0.923880 0.000000 -0.382683
vn 0.923880 0.000000 -0.382683
vn 0.671841 0.638500 -0.375429
vn 0.671841 0.638500 -0.375429
vn 0.671841 0.638500 -0.375429
vn 0.671841 0.638500 -0.375429
vn -0.923880 0.000000 0.382683
vn -0.923880 0.000000 0.382683
vn -0.923880 0.000000 0.382683
vn -0.923880 0.000000 0.382683
vn -0.352050 -0.857388 0.375430
vn -0.352050 -0.857388 0.375430
vn -0.352050 -0.857388 0.375430
vn -0.352050 -0.857388 0.375430
vn -0.382683 0.000000 -0.923880
vn -0.382683 0.000000 -0.923880
vn -0.382683 0.000000 -0.923880
vn -0.382683 0.000000 -0.923880
vn -0.052162 -0.419248 -0.906372
vn -0.052162 -0.419248 -0.906372
vn -0.052162 -0.419248 -0.906372
vn -0.052162 -0.419248 -0.906372
vn -0.382683 0.000000 0.923880
vn -0.382683 0.000000 0.923880
vn -0.382683 0.000000 0.923880
vn -0.382683 0.000000 0.923880
vn -0.052161 -0.419248 0.906372
vn -0.052161 -0.419248 0.906372
vn -0.052161 -0.419248 0.906372
vn -0.052161 -0.419248 0.906372
vn 0.382684 0.000000 0.923879
vn 0.382684 0.000000 0.923880
vn 0.382684 0.000000 0.923880
vn 0.382684 0.000000 0.923879
vn 0.371949 0.200369 0.906370
vn 0.371949 0.200369 0.906370
vn 0.371949 0.200369 0.906370
vn 0.371949 0.200369 0.906370
vn -0.923880 0.000000 -0.382683
vn -0.923880 0.000000 -0.382683
vn -0.923880 0.000000 -0.382683
vn -0.923880 0.000000 -0.382683
vn -0.352055 -0.857386 -0.375429
vn -0.352055 -0.857386 -0.375429
vn -0.352055 -0.857386 -0.375429
vn -0.352055 -0.857386 -0.375429
vn 0.923880 0.000000 0.382683
vn 0.923880 0.000000 0.382683
vn 0.923880 0.000000 0.382683
vn 0.923880 0.000000 0.382683
vn 0.671837 0.638503 0.375432
vn 0.671837 0.638503 0.375432
vn 0.671837 0.638503 0.375432
vn 0.671837 0.638503 0.375432
vn 0.894763 0.246414 0.372398
vn 0.894763 0.246414 0.372398
vn 0.894763 0.246414 0.372398
vn 0.894763 0.246414 0.372398
vn 0.916614 0.179770 0.357075
vn 0.916614 0.179770 0.357075
vn 0.916614 0.179770 0.357075
vn 0.916614 0.179770 0.357075
vn 0.537185 0.756022 0.373982
vn 0.537185 0.756022 0.373982
vn 0.537185 0.756022 0.373982
vn 0.537185 0.756022 0.373982
vn 0.737171 0.567672 0.366507
vn 0.737171 0.567672 0.366507
vn 0.737171 0.567672 0.366507
vn 0.737171 0.567672 0.366507
vn 0.245939 0.898127 0.364531
vn 0.245939 0.898127 0.364531
vn 0.245939 0.898127 0.364531
vn 0.245939 0.898127 0.364531
vn -0.901498 0.278849 -0.330975
vn -0.901498 0.278849 -0.330975
vn -0.901498 0.278849 -0.330975
vn -0.901498 0.278849 -0.330975
vn -0.408439 -0.849580 -0.333754
vn -0.408439 -0.849580 -0.333754
vn -0.408439 -0.849580 -0.333754
vn -0.408439 -0.849580 -0.333754
vn -0.884159 -0.313602 -0.346290
vn -0.884159 -0.313602 -0.346290
vn -0.884159 -0.313602 -0.346290
vn -0.884159 -0.313602 -0.346290
vn -0.289217 -0.883072 -0.369510
vn -0.289217 -0.883072 -0.369510
vn -0.289217 -0.883072 -0.369510
vn -0.289217 -0.883072 -0.369510
vn -0.748219 -0.554335 -0.364528
vn -0.748219 -0.554335 -0.364528
vn -0.748219 -0.554335 -0.364528
vn -0.748219 -0.554335 -0.364528
vn 0.353467 0.208678 0.911874
vn 0.353467 0.208678 0.911874
vn 0.353467 0.208678 0.911874
vn 0.353467 0.208678 0.911874
vn 0.506494 -0.125091 0.853122
vn 0.506494 -0.125091 0.853122
vn 0.506494 -0.125091 0.853122
vn 0.506494 -0.125091 0.853122
vn 0.122474 0.412889 0.902509
vn 0.122474 0.412889 0.902509
vn 0.122474 0.412889 0.902509
vn 0.122474 0.412889 0.902509
vn 0.438323 0.145218 0.887009
vn 0.438323 0.145218 0.887009
vn 0.438323 0.145218 0.887009
vn 0.438323 0.145218 0.887009
vn -0.045248 0.472713 0.880054
vn -0.045248 0.472713 0.880054
vn -0.045248 0.472713 0.880054
vn -0.045248 0.472713 0.880054
vn -0.428448 0.210486 0.878708
vn -0.428448 0.210486 0.878708
vn -0.428448 0.210486 0.878708
vn -0.428448 0.210486 0.878708
vn -0.048703 -0.554151 0.830990
vn -0.048703 -0.554151 0.830990
vn -0.048703 -0.554151 0.830990
vn -0.048703 -0.554151 0.830990
vn -0.476596 -0.044517 0.877995
vn -0.476596 -0.044517 0.877995
vn -0.476596 -0.044517 0.877995
vn -0.476596 -0.044517 0.877995
vn 0.013152 -0.455743 0.890014
vn 0.013152 -0.455743 0.890014
vn 0.013152 -0.455743 0.890014
vn 0.013152 -0.455743 0.890014
vn -0.457039 -0.128917 0.880054
vn -0.457039 -0.128917 0.880054
vn -0.457039 -0.128917 0.880054
vn -0.457039 -0.128917 0.880054
vn -0.428449 0.210485 -0.878708
vn -0.428449 0.210485 -0.878708
vn -0.428449 0.210485 -0.878708
vn -0.428449 0.210485 -0.878708
vn -0.048701 -0.554151 -0.830990
vn -0.048701 -0.554151 -0.830990
vn -0.048701 -0.554151 -0.830990
vn -0.048701 -0.554151 -0.830990
vn -0.476595 -0.044517 -0.877995
vn -0.476595 -0.044517 -0.877995
vn -0.476595 -0.044517 -0.877995
vn -0.476595 -0.044517 -0.877995
vn 0.013150 -0.455743 -0.890014
vn 0.013150 -0.455743 -0.890014
vn 0.013150 -0.455743 -0.890014
vn 0.013150 -0.455743 -0.890014
vn -0.457038 -0.128917 -0.880055
vn -0.457038 -0.128917 -0.880055
vn -0.457038 -0.128917 -0.880055
vn -0.457038 -0.128917 -0.880055
vn -0.901498 0.278849 0.330976
vn -0.901498 0.278849 0.330976
vn -0.901498 0.278849 0.330976
vn -0.901498 0.278849 0.330976
vn -0.408450 -0.849575 0.333753
vn -0.408450 -0.849575 0.333753
vn -0.408450 -0.849575 0.333753
vn -0.408450 -0.849575 0.333753
vn -0.884158 -0.313602 0.346291
vn -0.884158 -0.313602 0.346291
vn -0.884158 -0.313602 0.346291
vn -0.884158 -0.313602 0.346291
vn -0.289211 -0.883073 0.369511
vn -0.289211 -0.883073 0.369511
vn -0.289211 -0.883073 0.369511
vn -0.289211 -0.883073 0.369511
vn -0.748219 -0.554335 0.364528
vn -0.748219 -0.554335 0.364528
vn -0.748219 -0.554335 0.364528
vn -0.748219 -0.554335 0.364528
vn 0.894762 0.246414 -0.372399
vn 0.894762 0.246414 -0.372399
vn 0.894762 0.246414 -0.372399
vn 0.894762 0.246414 -0.372399
vn 0.916613 0.179772 -0.357076
vn 0.916613 0.179772 -0.357076
vn 0.916613 0.179772 -0.357076
vn 0.916613 0.179772 -0.357076
vn 0.537186 0.756022 -0.373982
vn 0.537186 0.756022 -0.373982
vn 0.537186 0.756022 -0.373982
vn 0.537186 0.756022 -0.373982
vn 0.737171 0.567674 -0.366504
vn 0.737171 0.567674 -0.366504
vn 0.737171 0.567674 -0.366504
vn 0.737171 0.567674 -0.366504
vn 0.245943 0.898126 -0.364530
vn 0.245943 0.898126 -0.364530
vn 0.245943 0.898126 -0.364530
vn 0.245943 0.898126 -0.364530
vn 0.353468 0.208677 -0.911874
vn 0.353468 0.208677 -0.911874
vn 0.353468 0.208677 -0.911874
vn 0.353468 0.208677 -0.911874
vn 0.506490 -0.125092 -0.853124
vn 0.506490 -0.125092 -0.853124
vn 0.506490 -0.125092 -0.853124
vn 0.506490 -0.125092 -0.853124
vn 0.122475 0.412889 -0.902509
vn 0.122475 0.412889 -0.902509
vn 0.122475 0.412889 -0.902509
vn 0.122475 0.412889 -0.902509
vn 0.438319 0.145217 -0.887011
vn 0.438319 0.145217 -0.887011
vn 0.438319 0.145217 -0.887011
vn 0.438319 0.145217 -0.887011
vn -0.045242 0.472713 -0.880055
vn -0.045242 0.472713 -0.880055
vn -0.045242 0.472713 -0.880055
vn -0.045242 0.472713 -0.880055
vn 0.216150 0.315796 -0.923879
vn 0.216150 0.315796 -0.923879
vn 0.216150 0.315796 -0.923879
vn 0.216150 0.315796 -0.923879
vn 0.216149 0.315796 0.923879
vn 0.216149 0.315796 0.923879
vn 0.216149 0.315796 0.923879
vn 0.216149 0.315796 0.923879
vn 0.521829 0.762395 -0.382687
vn 0.521829 0.762395 -0.382687
vn 0.521829 0.762395 -0.382687
vn 0.521829 0.762395 -0.382687
vn -0.521830 -0.762395 0.382685
vn -0.521830 -0.762395 0.382685
vn -0.521830 -0.762395 0.382685
vn -0.521830 -0.762395 0.382685
vn -0.216148 -0.315793 0.923880
vn -0.216148 -0.315793 0.923880
vn -0.216148 -0.315793 0.923880
vn -0.216148 -0.315793 0.923880
vn -0.521830 -0.762395 -0.382685
vn -0.521830 -0.762395 -0.382685
vn -0.521830 -0.762395 -0.382685
vn -0.521830 -0.762395 -0.382685
vn 0.521829 0.762395 0.382687
vn 0.521829 0.762395 0.382687
vn 0.521829 0.762395 0.382687
vn 0.521829 0.762395 0.382687
vn -0.216148 -0.315794 -0.923880
vn -0.216148 -0.315794 -0.923880
vn -0.216148 -0.315794 -0.923880
vn -0.216148 -0.315794 -0.923880
vn -0.380967 -0.094612 -0.919735
vn -0.380967 -0.094612 -0.919735
vn -0.380967 -0.094612 -0.919735
vn -0.380967 -0.094612 -0.919735
vn -0.919735 -0.094612 -0.380967
vn -0.919735 -0.094612 -0.380967
vn -0.919735 -0.094612 -0.380967
vn -0.919735 -0.094612 -0.380967
vn 0.919735 -0.094612 -0.380967
vn 0.919735 -0.094612 -0.380967
vn 0.919735 -0.094612 -0.380967
vn 0.919735 -0.094612 -0.380967
vn 0.919735 -0.094612 0.380967
vn 0.919735 -0.094612 0.380967
vn 0.919735 -0.094612 0.380967
vn 0.919735 -0.094612 0.380967
vn 0.380967 -0.094612 0.919735
vn 0.380967 -0.094612 0.919735
vn 0.380967 -0.094612 0.919735
vn 0.380967 -0.094612 0.919735
vn -0.380967 -0.094612 0.919735
vn -0.380967 -0.094612 0.919735
vn -0.380967 -0.094612 0.919735
vn -0.380967 -0.094612 0.919735
vn -0.919735 -0.094612 0.380967
vn -0.919735 -0.094612 0.380967
vn -0.919735 -0.094612 0.380967
vn -0.919735 -0.094612 0.380967
vn 0.380967 -0.094612 -0.919735
vn 0.380967 -0.094612 -0.919735
vn 0.380967 -0.094612 -0.919735
vn 0.380967 -0.094612 -0.919735
vn -0.825224 0.564806 -0.000003
vn -0.825210 0.564827 0.000003
vn -0.825210 0.564827 0.000003
vn -0.825224 0.564806 -0.000003
vn -0.825205 0.564833 0.000000
vn -0.825224 0.564806 -0.000003
vn -0.825205 0.564833 0.000000
vn -0.825224 0.564806 -0.000003
vn -0.825205 0.564833 0.000000
vn -0.825205 0.564833 0.000000
vn -0.825205 0.564833 0.000000
vn -0.825205 0.564833 0.000000
vn -0.825196 0.564847 -0.000006
vn -0.825205 0.564833 0.000000
vn -0.825196 0.564847 -0.000006
vn -0.825205 0.564833 0.000000
vn 0.000001 1.000000 0.000000
vn -0.000001 1.000000 0.000000
vn -0.000001 1.000000 0.000000
vn 0.000001 1.000000 0.000000
vn 0.000000 1.000000 0.000000
vn 0.000001 1.000000 0.000000
vn 0.000000 1.000000 0.000000
vn 0.000001 1.000000 0.000000
vn 0.000000 1.000000 0.000000
vn 0.000001 1.000000 0.000000
vn 0.000000 1.000000 0.000000
vn 0.000001 1.000000 0.000000
vn 0.000001 1.000000 0.000000
vn 0.000001 1.000000 0.000000
vn 0.000001 1.000000 0.000000
vn 0.000001 1.000000 0.000000
vn 0.000001 1.000000 0.000000
vn 0.000000 1.000000 0.000000
vn 0.000000 1.000000 0.000000
vn 0.000001 1.000000 0.000000
vn 0.000000 1.000000 0.000000
vn 0.000001 1.000000 0.000000
vn 0.000000 1.000000 0.000000
vn 0.000001 1.000000 0.000000
vn 0.000000 1.000000 0.000000
vn 0.000000 1.000000 0.000000
vn 0.000000 1.000000 0.000000
vn 0.000000 1.000000 0.000000
vn -0.000001 1.000000 0.000000
vn 0.000000 1.000000 0.000000
vn -0.000001 1.000000 0.000000
vn 0.000000 1.000000 0.000000
vn 0.000001 1.000000 0.000000
vn 0.000001 1.000000 0.000000
vn 0.000000 1.000000 0.000000
vn 0.000000 1.000000 0.000000
vn 0.000000 1.000000 0.000000
vn 0.000000 1.000000 0.000000
vn 0.000000 1.000000 0.000000
vn 0.000000 1.000000 0.000000
vn 0.000000 1.000000 0.000000
vn 0.000000 1.000000 0.000000
vn 0.000000 1.000000 0.000000
vn 0.000000 1.000000 0.000000
vn 0.000001 1.000000 0.000000
vn 0.000001 1.000000 0.000000
vn 0.000001 1.000000 0.000000
vn 0.000001 1.000000 0.000000
vn 0.000000 -1.000000 0.000000
vn 0.000000 -1.000000 0.000000
vn 0.000000 -1.000000 0.000000
vn 0.000000 -1.000000 0.000000
vn -0.000001 -1.000000 0.000000
vn 0.000000 -1.000000 0.000000
vn -0.000001 -1.000000 0.000000
vn 0.000000 -1.000000 0.000000
vn -0.000001 -1.000000 0.000000
vn 0.000000 -1.000000 0.000000
vn -0.000001 -1.000000 0.000000
vn 0.000000 -1.000000 0.000000
vn 0.000002 -1.000000 0.000000
vn 0.000002 -1.000000 0.000000
vn 0.000002 -1.000000 0.000000
vn 0.000002 -1.000000 0.000000
vn 0.382683 0.000000 -0.923880
vn 0.382683 0.000000 -0.923880
vn 0.382683 0.000000 -0.923880
vn 0.382683 0.000000 -0.923880
vn 0.216150 0.315794 -0.923879
vn 0.216150 0.315794 -0.923879
vn 0.923880 0.000000 -0.382683
vn 0.923880 0.000000 -0.382683
vn 0.923880 0.000000 -0.382683
vn 0.923880 0.000000 -0.382683
vn 0.521832 0.762394 -0.382684
vn 0.521832 0.762394 -0.382684
vn -0.923880 0.000000 0.382683
vn -0.923880 0.000000 0.382683
vn -0.923880 0.000000 0.382683
vn -0.923880 0.000000 0.382683
vn -0.521832 -0.762395 0.382681
vn -0.521832 -0.762395 0.382681
vn -0.382683 0.000000 -0.923880
vn -0.382683 0.000000 -0.923880
vn -0.382683 0.000000 -0.923880
vn -0.382683 0.000000 -0.923880
vn -0.216149 -0.315793 -0.923880
vn -0.216149 -0.315793 -0.923880
vn -0.382683 0.000000 0.923880
vn -0.382683 0.000000 0.923880
vn -0.382683 0.000000 0.923880
vn -0.382683 0.000000 0.923880
vn -0.216149 -0.315793 0.923880
vn -0.216149 -0.315793 0.923880
vn 0.382684 0.000000 0.923879
vn 0.382684 0.000000 0.923879
vn 0.382684 0.000000 0.923879
vn 0.382684 0.000000 0.923879
vn 0.216150 0.315794 0.923880
vn 0.216150 0.315794 0.923880
vn -0.923880 0.000000 -0.382683
vn -0.923880 0.000000 -0.382683
vn -0.923880 0.000000 -0.382683
vn -0.923880 0.000000 -0.382683
vn -0.521832 -0.762396 -0.382681
vn -0.521832 -0.762396 -0.382681
vn 0.923880 0.000000 0.382683
vn 0.923880 0.000000 0.382683
vn 0.923880 0.000000 0.382683
vn 0.923880 0.000000 0.382683
vn 0.521832 0.762395 0.382682
vn 0.521832 0.762395 0.382682
vn -0.825209 0.564827 0.000000
vn -0.825209 0.564827 0.000000
vn -0.825209 0.564827 0.000000
vn -0.825209 0.564827 0.000000
vn -0.825209 0.564827 0.000000
vn -0.825209 0.564827 0.000000
vn -0.825209 0.564827 0.000000
vn -0.825209 0.564827 0.000000
vn -0.280197 -0.681102 -0.676454
vn -0.280197 -0.681102 -0.676454
vn -0.280197 -0.681102 -0.676454
vn -0.280197 -0.681102 -0.676454
vn -0.676454 -0.681102 -0.280197
vn -0.676454 -0.681102 -0.280197
vn -0.676454 -0.681102 -0.280197
vn -0.676454 -0.681102 -0.280197
vn 0.676455 -0.681101 -0.280196
vn 0.676455 -0.681101 -0.280196
vn 0.676455 -0.681101 -0.280196
vn 0.676455 -0.681101 -0.280196
vn 0.676455 -0.681101 0.280197
vn 0.676455 -0.681101 0.280197
vn 0.676455 -0.681101 0.280197
vn 0.676455 -0.681101 0.280197
vn 0.280197 -0.681101 0.676455
vn 0.280197 -0.681101 0.676455
vn 0.280197 -0.681101 0.676455
vn 0.280197 -0.681101 0.676455
vn -0.280197 -0.681101 0.676455
vn -0.280197 -0.681101 0.676455
vn -0.280197 -0.681101 0.676455
vn -0.280197 -0.681101 0.676455
vn -0.676454 -0.681102 0.280197
vn -0.676454 -0.681102 0.280197
vn -0.676454 -0.681102 0.280197
vn -0.676454 -0.681102 0.280197
vn 0.280197 -0.681101 -0.676455
vn 0.280197 -0.681101 -0.676455
vn 0.280197 -0.681101 -0.676455
vn 0.280197 -0.681101 -0.676455
vn -0.381544 -0.077125 -0.921128
vn -0.381544 -0.077125 -0.921128
vn -0.921128 -0.077125 -0.381543
vn -0.921128 -0.077125 -0.381543
vn 0.921128 -0.077125 -0.381543
vn 0.921128 -0.077125 -0.381543
vn 0.921128 -0.077125 0.381544
vn 0.921128 -0.077125 0.381544
vn 0.381544 -0.077125 0.921128
vn 0.381544 -0.077125 0.921128
vn -0.381544 -0.077125 0.921128
vn -0.381544 -0.077125 0.921128
vn -0.921128 -0.077125 0.381543
vn -0.921128 -0.077125 0.381543
vn 0.381544 -0.077125 -0.921128
vn 0.381544 -0.077125 -0.921128
g Soda_White
usemtl White
f 1 2 3
f 1 3 4
f 5 6 7
f 5 7 8
f 9 10 11
f 9 11 12
f 13 14 15
f 13 15 16
f 17 18 19
f 17 19 20
f 21 22 23
f 21 23 24
f 25 26 27
f 25 27 28
f 29 30 31
f 29 31 32
f 33 34 35
f 33 35 36
f 37 38 39
f 37 39 40
f 41 42 43
f 41 43 44
f 45 46 47
f 45 47 48
f 49 50 51
f 49 51 52
f 53 54 55
f 53 55 56
f 57 58 59
f 57 59 60
f 61 62 63
f 61 63 64
f 65 66 67
f 67 68 65
f 67 69 68
f 69 70 68
f 70 71 68
f 70 72 71
f 73 74 75
f 73 75 76
f 77 78 79
f 77 79 80
f 81 82 83
f 81 83 84
f 85 86 87
f 85 87 88
f 89 90 91
f 89 91 92
f 93 94 95
f 93 95 96
f 97 98 99
f 97 99 100
f 101 102 103
f 101 103 104
f 105 106 107
f 105 107 108
f 109 110 111
f 109 111 112
f 113 114 115
f 113 115 116
f 117 118 119
f 117 119 120
f 121 122 123
f 121 123 124
f 125 126 127
f 125 127 128
f 129 130 131
f 129 131 132
f 133 134 135
f 133 135 136
f 137 138 139
f 137 139 140
f 141 142 143
f 141 143 144
f 145 146 147
f 145 147 148
f 149 150 151
f 149 151 152
f 153 154 155
f 153 155 156
f 157 158 159
f 157 159 160
f 161 162 163
f 161 163 164
f 165 166 167
f 165 167 168
f 169 170 171
f 169 171 172
f 173 174 175
f 173 175 176
f 177 178 179
f 177 179 180
f 181 182 183
f 181 183 184
f 185 186 187
f 185 187 188
f 189 190 191
f 189 191 192
f 193 194 195
f 193 195 196
f 197 198 199
f 197 199 200
f 201 202 203
f 201 203 204
f 205 206 207
f 205 207 208
f 209 210 211
f 209 211 212
f 213 214 215
f 213 215 216
f 217 218 219
f 217 219 220
f 221 222 223
f 221 223 224
f 225 226 227
f 225 227 228
f 229 230 231
f 229 231 232
f 233 234 235
f 233 235 236
f 237 238 239
f 239 240 237
f 239 241 240
f 241 242 240
f 241 243 242
f 243 244 242
f 245 246 247
f 245 247 248
f 249 250 251
f 249 251 252
f 253 254 255
f 253 255 256
f 257 258 259
f 257 259 260
f 261 262 263
f 261 263 264
f 265 266 267
f 265 267 268
f 269 270 271
f 269 271 272
f 273 274 275
f 275 276 273
f 275 277 276
f 277 278 276
f 278 279 276
f 278 280 279
f 281 282 283
f 281 283 284
f 285 286 287
f 285 287 288
f 289 290 291
f 289 291 292
f 293 294 295
f 293 295 296
f 297 298 299
f 297 299 300
f 301 302 303
f 301 303 304
f 305 306 307
f 305 307 308
f 309 310 311
f 309 311 312
f 313 314 315
f 313 315 316
f 317 318 319
f 317 319 320
f 321 322 323
f 321 323 324
f 325 326 327
f 325 327 328
f 329 330 331
f 329 331 332
f 333 334 335
f 333 335 336
f 337 338 339
f 337 339 340
f 341 342 343
f 341 343 344
f 345 346 347
f 345 347 348
f 349 350 351
f 349 351 352
f 353 354 355
f 353 355 356
f 357 358 359
f 357 359 360
f 361 362 363
f 361 363 364
f 365 366 367
f 365 367 368
f 369 370 371
f 369 371 372
f 373 374 375
f 373 375 376
f 377 378 379
f 377 379 380
f 381 382 383
f 381 383 384
f 385 386 387
f 385 387 388
f 389 390 391
f 389 391 392
f 393 394 395
f 393 395 396
f 397 398 399
f 397 399 400
f 401 402 403
f 401 403 404
f 405 406 407
f 405 407 408
f 409 410 411
f 409 411 412
f 413 414 415
f 413 415 416
f 417 418 419
f 417 419 420
f 421 422 423
f 421 423 424
f 425 426 427
f 425 427 428
f 429 430 431
f 429 431 432
f 433 434 435
f 433 435 436
f 437 438 439
f 437 439 440
f 441 442 443
f 441 443 444
f 445 446 447
f 445 447 448
f 449 450 451
f 449 451 452
f 453 454 455
f 453 455 456
f 457 458 459
f 457 459 460
f 461 462 463
f 461 463 464
f 465 466 467
f 465 467 468
f 469 470 471
f 469 471 472
f 473 474 475
f 473 475 476
f 477 478 479
f 477 479 480
f 481 482 483
f 481 483 484
f 485 486 487
f 485 487 488
f 489 490 491
f 489 491 492
f 493 494 495
f 493 495 496
f 497 498 499
f 497 499 500
f 501 502 503
f 501 503 504
f 505 506 507
f 505 507 508
f 509 510 511
f 509 511 512
f 513 514 515
f 513 515 516
f 517 518 519
f 517 519 520
f 521 522 523
f 521 523 524
f 525 526 527
f 525 527 528
f 529 530 531
f 529 531 532
f 533 534 535
f 533 535 536
f 537 538 539
f 537 539 540
f 541 542 543
f 541 543 544
f 545 546 547
f 545 547 548
f 549 550 551
f 549 551 552
f 553 554 555
f 553 555 556
f 557 558 559
f 557 559 560
f 561 562 563
f 561 563 564
f 565 566 567
f 565 567 568
f 569 570 571
f 569 571 572
f 573 574 575
f 573 575 576
f 577 578 579
f 577 579 580
f 581 582 583
f 581 583 584
f 585 586 587
f 585 587 588
f 589 590 591
f 589 591 592
f 593 594 595
f 593 595 596
f 597 598 599
f 597 599 600
f 601 602 603
f 601 604 602
f 603 602 605
f 606 604 601
f 603 605 607
f 606 608 604
f 607 605 609
f 610 608 606
f 607 609 611
f 610 612 608
f 611 609 613
f 614 612 610
f 611 613 615
f 614 616 612
f 615 613 616
f 615 616 614
f 617 618 619
f 617 620 618
f 619 618 621
f 622 620 617
f 619 621 623
f 622 624 620
f 623 621 625
f 626 624 622
f 623 625 627
f 626 628 624
f 627 625 629
f 630 628 626
f 627 629 631
f 630 632 628
f 631 629 632
f 631 632 630
f 633 634 635
f 633 636 634
f 635 634 637
f 638 636 633
f 635 637 639
f 638 640 636
f 639 637 641
f 642 640 638
f 639 641 643
f 642 644 640
f 643 641 645
f 646 644 642
f 643 645 647
f 646 648 644
f 647 645 648
f 647 648 646
f 649 650 651
f 649 651 652
f 653 650 649
f 652 651 654
f 653 655 650
f 652 654 656
f 657 655 653
f 656 654 658
f 657 659 655
f 656 658 660
f 661 659 657
f 660 658 662
f 661 663 659
f 660 662 664
f 664 663 661
f 664 662 663
f 665 666 667
f 665 668 666
f 667 666 669
f 670 668 665
f 667 669 671
f 670 672 668
f 671 669 673
f 674 672 670
f 671 673 675
f 674 676 672
f 675 673 677
f 678 676 674
f 675 677 679
f 678 680 676
f 679 677 680
f 679 680 678
g Soda_Red
usemtl Red
f 681 313 316
f 681 316 682
f 314 683 684
f 314 684 315
f 685 309 312
f 685 312 686
f 687 321 324
f 687 324 688
f 322 689 690
f 322 690 323
f 691 305 308
f 691 308 692
f 693 329 332
f 693 332 694
f 330 695 696
f 330 696 331
f 697 301 304
f 697 304 698
f 699 337 340
f 699 340 700
f 338 701 702
f 338 702 339
f 703 297 300
f 703 300 704
f 705 345 348
f 705 348 706
f 346 707 708
f 346 708 347
f 709 293 296
f 709 296 710
f 711 353 356
f 711 356 712
f 354 713 714
f 354 714 355
f 715 289 292
f 715 292 716
f 717 361 364
f 717 364 718
f 362 719 720
f 362 720 363
f 721 285 288
f 721 288 722
f 723 369 372
f 723 372 724
f 370 725 726
f 370 726 371
f 727 281 284
f 727 284 728
f 729 730 731
f 731 732 729
f 731 733 732
f 733 734 732
f 734 735 732
f 734 736 735
f 737 738 739
f 737 739 740
f 741 742 743
f 741 743 744
f 745 746 747
f 745 747 748
f 749 750 751
f 749 751 752
f 753 754 755
f 753 755 756
f 757 758 759
f 757 759 760
f 761 762 763
f 761 763 764
f 765 766 767
f 765 767 768
f 769 770 30
f 769 30 29
f 771 772 26
f 771 26 25
f 773 774 22
f 773 22 21
f 775 776 18
f 775 18 17
f 777 778 14
f 777 14 13
f 779 780 10
f 779 10 9
f 781 782 6
f 781 6 5
f 783 784 2
f 783 2 1
