mtllib Materials.mtl
# Ultimate Food Pack - SoySauce
o SoySauce
v 0.000000 0.022986 -0.220794
v -0.156125 0.022986 -0.156125
v -0.210692 0.297964 -0.210693
v 0.000000 0.297964 -0.297964
v -0.156125 0.022986 -0.156125
v -0.220794 0.022986 0.000000
v -0.297964 0.297964 0.000000
v -0.210692 0.297964 -0.210693
v -0.220794 0.022986 0.000000
v -0.156125 0.022986 0.156125
v -0.210692 0.297964 0.210692
v -0.297964 0.297964 0.000000
v -0.156125 0.022986 0.156125
v 0.000000 0.022986 0.220794
v 0.000000 0.297964 0.297964
v -0.210692 0.297964 0.210692
v 0.000000 0.022986 0.220794
v 0.156125 0.022986 0.156125
v 0.210693 0.297964 0.210692
v 0.000000 0.297964 0.297964
v 0.156125 0.022986 0.156125
v 0.220794 0.022986 0.000000
v 0.297964 0.297964 0.000000
v 0.210693 0.297964 0.210692
v 0.220794 0.022986 0.000000
v 0.156125 0.022986 -0.156125
v 0.210693 0.297964 -0.210692
v 0.297964 0.297964 0.000000
v 0.156125 0.022986 -0.156125
v 0.000000 0.022986 -0.220794
v 0.000000 0.297964 -0.297964
v 0.210693 0.297964 -0.210692
v -0.156125 0.022986 0.156125
v -0.220794 0.022986 0.000000
v -0.156125 0.022986 -0.156125
v 0.000000 0.022986 0.220794
v 0.000000 0.022986 -0.220794
v 0.156125 0.022986 -0.156125
v 0.156125 0.022986 0.156125
v 0.220794 0.022986 0.000000
v 0.178830 0.297964 0.178830
v 0.167022 0.208811 0.167022
v 0.000000 0.208811 0.236205
v 0.000000 0.297964 0.252904
v -0.178830 0.297964 0.178830
v -0.167022 0.208811 0.167022
v -0.236205 0.208811 0.000000
v -0.252904 0.297964 0.000000
v -0.178830 0.297964 -0.178830
v -0.167022 0.208811 -0.167022
v 0.000000 0.208811 -0.236205
v 0.000000 0.297964 -0.252904
v 0.000000 0.297964 -0.252904
v 0.000000 0.208811 -0.236205
v 0.167022 0.208811 -0.167022
v 0.178830 0.297964 -0.178830
v 0.252904 0.297964 0.000000
v 0.236205 0.208811 0.000000
v 0.167022 0.208811 0.167022
v 0.178830 0.297964 0.178830
v 0.000000 0.297964 0.252904
v 0.000000 0.208811 0.236205
v -0.167022 0.208811 0.167022
v -0.178830 0.297964 0.178830
v -0.252904 0.297964 0.000000
v -0.236205 0.208811 0.000000
v -0.167022 0.208811 -0.167022
v -0.178830 0.297964 -0.178830
v 0.178830 0.297964 -0.178830
v 0.167022 0.208811 -0.167022
v 0.236205 0.208811 0.000000
v 0.252904 0.297964 0.000000
v 0.000000 0.297964 -0.297964
v 0.000000 0.297964 -0.252904
v 0.178830 0.297964 -0.178830
v 0.210693 0.297964 -0.210692
v -0.210692 0.297964 -0.210693
v 0.252904 0.297964 0.000000
v -0.178830 0.297964 -0.178830
v 0.297964 0.297964 0.000000
v -0.297964 0.297964 0.000000
v 0.178830 0.297964 0.178830
v -0.252904 0.297964 0.000000
v 0.210693 0.297964 0.210692
v -0.210692 0.297964 0.210692
v 0.000000 0.297964 0.252904
v -0.178830 0.297964 0.178830
v 0.000000 0.297964 0.297964
v -0.167022 0.208811 -0.167022
v -0.236205 0.208811 0.000000
v -0.167022 0.208811 0.167022
v 0.000000 0.208811 -0.236205
v 0.000000 0.208811 0.236205
v 0.167022 0.208811 -0.167022
v 0.167022 0.208811 0.167022
v 0.236205 0.208811 0.000000
vn -0.370435 -0.250980 -0.894308
vn -0.370435 -0.250980 -0.894308
vn -0.370435 -0.250980 -0.894308
vn -0.370435 -0.250980 -0.894308
vn -0.894308 -0.250980 -0.370435
vn -0.894308 -0.250980 -0.370435
vn -0.894308 -0.250980 -0.370435
vn -0.894308 -0.250980 -0.370435
vn -0.894308 -0.250980 0.370435
vn -0.894308 -0.250980 0.370435
vn -0.894308 -0.250980 0.370435
vn -0.894308 -0.250980 0.370435
vn -0.370435 -0.250980 0.894308
vn -0.370435 -0.250980 0.894308
vn -0.370435 -0.250980 0.894308
vn -0.370435 -0.250980 0.894308
vn 0.370435 -0.250980 0.894308
vn 0.370435 -0.250980 0.894308
vn 0.370435 -0.250980 0.894308
vn 0.370435 -0.250980 0.894308
vn 0.894308 -0.250980 0.370435
vn 0.894308 -0.250980 0.370435
vn 0.894308 -0.250980 0.370435
vn 0.894308 -0.250980 0.370435
vn 0.894308 -0.250980 -0.370435
vn 0.894308 -0.250980 -0.370435
vn 0.894308 -0.250980 -0.370435
vn 0.894308 -0.250980 -0.370435
vn 0.370435 -0.250980 -0.894308
vn 0.370435 -0.250980 -0.894308
vn 0.370435 -0.250980 -0.894308
vn 0.370435 -0.250980 -0.894308
vn 0.000000 -1.000000 0.000000
vn 0.000000 -1.000000 0.000000
vn 0.000000 -1.000000 0.000000
vn 0.000000 -1.000000 0.000000
vn 0.000000 -1.000000 0.000000
vn 0.000000 -1.000000 0.000000
vn 0.000000 -1.000000 0.000000
vn 0.000000 -1.000000 0.000000
vn -0.377079 0.170518 -0.910349
vn -0.377079 0.170518 -0.910349
vn -0.377079 0.170518 -0.910349
vn -0.377079 0.170518 -0.910349
vn 0.910349 0.170518 -0.377079
vn 0.910349 0.170518 -0.377079
vn 0.910349 0.170518 -0.377079
vn 0.910349 0.170518 -0.377079
vn 0.377079 0.170518 0.910349
vn 0.377079 0.170518 0.910349
vn 0.377079 0.170518 0.910349
vn 0.377079 0.170518 0.910349
vn -0.377079 0.170518 0.910349
vn -0.377079 0.170518 0.910349
vn -0.377079 0.170518 0.910349
vn -0.377079 0.170518 0.910349
vn -0.910349 0.170518 -0.377079
vn -0.910349 0.170518 -0.377079
vn -0.910349 0.170518 -0.377079
vn -0.910349 0.170518 -0.377079
vn 0.377079 0.170518 -0.910349
vn 0.377079 0.170518 -0.910349
vn 0.377079 0.170518 -0.910349
vn 0.377079 0.170518 -0.910349
vn 0.910349 0.170518 0.377079
vn 0.910349 0.170518 0.377079
vn 0.910349 0.170518 0.377079
vn 0.910349 0.170518 0.377079
vn -0.910349 0.170518 0.377079
vn -0.910349 0.170518 0.377079
vn -0.910349 0.170518 0.377079
vn -0.910349 0.170518 0.377079
vn 0.000000 1.000000 0.000000
vn 0.000000 1.000000 0.000000
vn 0.000000 1.000000 0.000000
vn 0.000000 1.000000 0.000000
vn 0.000000 1.000000 0.000000
vn 0.000000 1.000000 0.000000
vn 0.000000 1.000000 0.000000
vn 0.000000 1.000000 0.000000
vn 0.000000 1.000000 0.000000
vn 0.000000 1.000000 0.000000
vn 0.000000 1.000000 0.000000
vn 0.000000 1.000000 0.000000
vn 0.000000 1.000000 0.000000
vn 0.000000 1.000000 0.000000
vn 0.000000 1.000000 0.000000
vn 0.000000 1.000000 0.000000
vn 0.000000 1.000000 0.000000
vn 0.000000 1.000000 0.000000
vn 0.000000 1.000000 0.000000
vn 0.000000 1.000000 0.000000
vn 0.000000 1.000000 0.000000
vn 0.000000 1.000000 0.000000
vn 0.000000 1.000000 0.000000
vn 0.000000 1.000000 0.000000
g SoySauce_White
usemtl White
f 1 2 3
f 1 3 4
f 5 6 7
f 5 7 8
f 9 10 11
f 9 11 12
f 13 14 15
f 13 15 16
f 17 18 19
f 17 19 20
f 21 22 23
f 21 23 24
f 25 26 27
f 25 27 28
f 29 30 31
f 29 31 32
f 33 34 35
f 35 36 33
f 35 37 36
f 37 38 36
f 38 39 36
f 38 40 39
f 41 42 43
f 41 43 44
f 45 46 47
f 45 47 48
f 49 50 51
f 49 51 52
f 53 54 55
f 53 55 56
f 57 58 59
f 57 59 60
f 61 62 63
f 61 63 64
f 65 66 67
f 65 67 68
f 69 70 71
f 69 71 72
f 73 74 75
f 73 75 76
f 77 74 73
f 76 75 78
f 77 79 74
f 76 78 80
f 81 79 77
f 80 78 82
f 81 83 79
f 80 82 84
f 85 83 81
f 84 82 86
f 85 87 83
f 84 86 88
f 88 87 85
f 88 86 87
g SoySauce_Black
usemtl Black
f 89 90 91
f 91 92 89
f 91 93 92
f 93 94 92
f 93 95 94
f 95 96 94
