mtllib Materials.mtl
# Ultimate Food Pack - Spoon
o Spoon
v 0.060485 -0.015643 -0.570487
v 0.035968 -0.044026 -0.651733
v 0.147694 -0.021167 -0.651732
v -0.152654 -0.015643 -0.643500
v -0.086374 -0.044026 -0.712841
v -0.055121 -0.021167 -0.580419
v -0.116115 -0.015643 -1.021969
v -0.072298 -0.044026 -0.952600
v -0.158391 -0.021167 -0.843582
v 0.042104 -0.015643 -1.125933
v 0.025672 -0.044026 -1.013737
v -0.041260 -0.021167 -1.112611
v 0.168008 -0.015643 -0.842996
v 0.095532 -0.044026 -0.851138
v 0.109738 -0.021167 -1.013737
v 0.095532 -0.044026 -0.851138
v 0.000781 -0.054533 -0.840670
v 0.025672 -0.044026 -1.013737
v 0.095532 -0.044026 -0.851138
v 0.025672 -0.044026 -1.013737
v 0.109738 -0.021167 -1.013737
v 0.109738 -0.021167 -1.013737
v 0.025672 -0.044026 -1.013737
v 0.042104 -0.015643 -1.125933
v 0.025672 -0.044026 -1.013737
v 0.000781 -0.054533 -0.840670
v -0.072298 -0.044026 -0.952600
v 0.025672 -0.044026 -1.013737
v -0.072298 -0.044026 -0.952600
v -0.041260 -0.021167 -1.112611
v -0.041260 -0.021167 -1.112611
v -0.072298 -0.044026 -0.952600
v -0.116115 -0.015643 -1.021969
v -0.072298 -0.044026 -0.952600
v 0.000781 -0.054533 -0.840670
v -0.086374 -0.044026 -0.712841
v -0.072298 -0.044026 -0.952600
v -0.086374 -0.044026 -0.712841
v -0.158391 -0.021167 -0.843582
v -0.158391 -0.021167 -0.843582
v -0.086374 -0.044026 -0.712841
v -0.152654 -0.015643 -0.643500
v -0.086374 -0.044026 -0.712841
v 0.000781 -0.054533 -0.840670
v 0.035968 -0.044026 -0.651733
v -0.086374 -0.044026 -0.712841
v 0.035968 -0.044026 -0.651733
v -0.055121 -0.021167 -0.580419
v -0.055121 -0.021167 -0.580419
v 0.035968 -0.044026 -0.651733
v 0.060485 -0.015643 -0.570487
v 0.035968 -0.044026 -0.651733
v 0.000781 -0.054533 -0.840670
v 0.095532 -0.044026 -0.851138
v 0.035968 -0.044026 -0.651733
v 0.095532 -0.044026 -0.851138
v 0.147694 -0.021167 -0.651732
v 0.147694 -0.021167 -0.651732
v 0.095532 -0.044026 -0.851138
v 0.168008 -0.015643 -0.842996
v 0.161891 0.015820 -0.952605
v 0.168008 -0.015643 -0.842996
v 0.109738 -0.021167 -1.013737
v 0.161891 0.015820 -0.952605
v 0.109738 -0.021167 -1.013737
v 0.090244 0.015820 -1.112612
v 0.090244 0.015820 -1.112612
v 0.109738 -0.021167 -1.013737
v 0.042104 -0.015643 -1.125933
v -0.000623 0.015820 -1.173720
v 0.042104 -0.015643 -1.125933
v -0.041260 -0.021167 -1.112611
v -0.000623 0.015820 -1.173720
v -0.041260 -0.021167 -1.112611
v -0.091490 0.015820 -1.112612
v -0.091490 0.015820 -1.112612
v -0.041260 -0.021167 -1.112611
v -0.116115 -0.015643 -1.021969
v -0.161738 0.015820 -0.952605
v -0.116115 -0.015643 -1.021969
v -0.158391 -0.021167 -0.843582
v -0.161738 0.015820 -0.952605
v -0.158391 -0.021167 -0.843582
v -0.194945 0.015820 -0.712840
v -0.194945 0.015820 -0.712840
v -0.158391 -0.021167 -0.843582
v -0.152654 -0.015643 -0.643500
v -0.124086 0.015820 -0.582673
v -0.152654 -0.015643 -0.643500
v -0.055121 -0.021167 -0.580419
v -0.124086 0.015820 -0.582673
v -0.055121 -0.021167 -0.580419
v 0.000385 0.015820 -0.533793
v 0.000385 0.015820 -0.533793
v -0.055121 -0.021167 -0.580419
v 0.060485 -0.015643 -0.570487
v 0.124976 0.015820 -0.587038
v 0.060485 -0.015643 -0.570487
v 0.147694 -0.021167 -0.651732
v 0.124976 0.015820 -0.587038
v 0.147694 -0.021167 -0.651732
v 0.197867 0.015820 -0.712840
v 0.197867 0.015820 -0.712840
v 0.147694 -0.021167 -0.651732
v 0.168008 -0.015643 -0.842996
v 0.090244 0.015820 -1.112612
v 0.042104 -0.015643 -1.125933
v -0.000623 0.015820 -1.173720
v -0.091490 0.015820 -1.112612
v -0.116115 -0.015643 -1.021969
v -0.161738 0.015820 -0.952605
v -0.194945 0.015820 -0.712840
v -0.152654 -0.015643 -0.643500
v -0.124086 0.015820 -0.582673
v 0.000385 0.015820 -0.533793
v 0.060485 -0.015643 -0.570487
v 0.124976 0.015820 -0.587038
v 0.197867 0.015820 -0.712840
v 0.168008 -0.015643 -0.842996
v 0.161891 0.015820 -0.952605
v 0.056536 -0.002926 -0.594864
v 0.137076 -0.006198 -0.665493
v 0.034530 -0.024537 -0.660399
v -0.140726 -0.002386 -0.658896
v -0.051790 -0.006262 -0.601685
v -0.082465 -0.024319 -0.717302
v -0.104358 -0.001453 -1.008466
v -0.145642 -0.005573 -0.839769
v -0.067892 -0.024482 -0.947544
v 0.036847 -0.001173 -1.104894
v -0.036586 -0.005280 -1.093950
v 0.023902 -0.024350 -1.006402
v 0.153811 -0.001462 -0.838268
v 0.099293 -0.005537 -1.001599
v 0.090529 -0.024389 -0.849713
v 0.090529 -0.024389 -0.849713
v 0.023902 -0.024350 -1.006402
v 0.000737 -0.034249 -0.840478
v 0.090529 -0.024389 -0.849713
v 0.099293 -0.005537 -1.001599
v 0.023902 -0.024350 -1.006402
v 0.099293 -0.005537 -1.001599
v 0.036847 -0.001173 -1.104894
v 0.023902 -0.024350 -1.006402
v 0.023902 -0.024350 -1.006402
v -0.067892 -0.024482 -0.947544
v 0.000737 -0.034249 -0.840478
v 0.023902 -0.024350 -1.006402
v -0.036586 -0.005280 -1.093950
v -0.067892 -0.024482 -0.947544
v -0.036586 -0.005280 -1.093950
v -0.104358 -0.001453 -1.008466
v -0.067892 -0.024482 -0.947544
v -0.067892 -0.024482 -0.947544
v -0.082465 -0.024319 -0.717302
v 0.000737 -0.034249 -0.840478
v -0.067892 -0.024482 -0.947544
v -0.145642 -0.005573 -0.839769
v -0.082465 -0.024319 -0.717302
v -0.145642 -0.005573 -0.839769
v -0.140726 -0.002386 -0.658896
v -0.082465 -0.024319 -0.717302
v -0.082465 -0.024319 -0.717302
v 0.034530 -0.024537 -0.660399
v 0.000737 -0.034249 -0.840478
v -0.082465 -0.024319 -0.717302
v -0.051790 -0.006262 -0.601685
v 0.034530 -0.024537 -0.660399
v -0.051790 -0.006262 -0.601685
v 0.056536 -0.002926 -0.594864
v 0.034530 -0.024537 -0.660399
v 0.034530 -0.024537 -0.660399
v 0.090529 -0.024389 -0.849713
v 0.000737 -0.034249 -0.840478
v 0.034530 -0.024537 -0.660399
v 0.137076 -0.006198 -0.665493
v 0.090529 -0.024389 -0.849713
v 0.137076 -0.006198 -0.665493
v 0.153811 -0.001462 -0.838268
v 0.090529 -0.024389 -0.849713
v 0.146728 0.027053 -0.940755
v 0.099293 -0.005537 -1.001599
v 0.153811 -0.001462 -0.838268
v 0.146728 0.027053 -0.940755
v 0.079246 0.027176 -1.092365
v 0.099293 -0.005537 -1.001599
v 0.079246 0.027176 -1.092365
v 0.036847 -0.001173 -1.104894
v 0.099293 -0.005537 -1.001599
v -0.000197 0.027830 -1.147687
v -0.036586 -0.005280 -1.093950
v 0.036847 -0.001173 -1.104894
v -0.000197 0.027830 -1.147687
v -0.081145 0.027381 -1.091794
v -0.036586 -0.005280 -1.093950
v -0.081145 0.027381 -1.091794
v -0.104358 -0.001453 -1.008466
v -0.036586 -0.005280 -1.093950
v -0.146179 0.027034 -0.942086
v -0.145642 -0.005573 -0.839769
v -0.104358 -0.001453 -1.008466
v -0.146179 0.027034 -0.942086
v -0.179628 0.028816 -0.717322
v -0.145642 -0.005573 -0.839769
v -0.179628 0.028816 -0.717322
v -0.140726 -0.002386 -0.658896
v -0.145642 -0.005573 -0.839769
v -0.115712 0.025391 -0.607849
v -0.051790 -0.006262 -0.601685
v -0.140726 -0.002386 -0.658896
v -0.115712 0.025391 -0.607849
v 0.000644 0.026169 -0.561582
v -0.051790 -0.006262 -0.601685
v 0.000644 0.026169 -0.561582
v 0.056536 -0.002926 -0.594864
v -0.051790 -0.006262 -0.601685
v 0.115672 0.024945 -0.611803
v 0.137076 -0.006198 -0.665493
v 0.056536 -0.002926 -0.594864
v 0.115672 0.024945 -0.611803
v 0.182833 0.029010 -0.718230
v 0.137076 -0.006198 -0.665493
v 0.182833 0.029010 -0.718230
v 0.153811 -0.001462 -0.838268
v 0.137076 -0.006198 -0.665493
v 0.079246 0.027176 -1.092365
v -0.000197 0.027830 -1.147687
v 0.036847 -0.001173 -1.104894
v -0.081145 0.027381 -1.091794
v -0.146179 0.027034 -0.942086
v -0.104358 -0.001453 -1.008466
v -0.179628 0.028816 -0.717322
v -0.115712 0.025391 -0.607849
v -0.140726 -0.002386 -0.658896
v 0.000644 0.026169 -0.561582
v 0.115672 0.024945 -0.611803
v 0.056536 -0.002926 -0.594864
v 0.182833 0.029010 -0.718230
v 0.146728 0.027053 -0.940755
v 0.153811 -0.001462 -0.838268
v -0.057714 0.003399 0.619947
v -0.042883 0.003399 0.691573
v -0.001799 0.003399 0.711362
v 0.000000 0.003399 0.619947
v -0.026804 0.016515 -0.569335
v 0.042883 0.003399 0.691573
v 0.000000 0.016515 -0.569335
v 0.057714 0.003399 0.619947
v 0.026804 0.016515 -0.569335
v -0.057714 -0.016515 0.619679
v -0.001799 -0.016515 0.711095
v -0.042883 -0.016515 0.691305
v 0.000000 -0.016515 0.619679
v -0.026804 -0.003399 -0.569603
v 0.042883 -0.016515 0.691305
v 0.000000 -0.003399 -0.569603
v 0.057714 -0.016515 0.619679
v 0.026804 -0.003399 -0.569603
v 0.057714 0.003399 0.619947
v 0.042883 0.003399 0.691573
v 0.042883 -0.016515 0.691305
v 0.057714 -0.016515 0.619679
v -0.001799 0.003399 0.711362
v -0.042883 0.003399 0.691573
v -0.042883 -0.016515 0.691305
v -0.001799 -0.016515 0.711095
v 0.026804 0.016515 -0.569335
v 0.057714 0.003399 0.619947
v 0.057714 -0.016515 0.619679
v 0.026804 -0.003399 -0.569603
v 0.042883 0.003399 0.691573
v -0.001799 0.003399 0.711362
v -0.001799 -0.016515 0.711095
v 0.042883 -0.016515 0.691305
v -0.057714 0.003399 0.619947
v -0.026804 0.016515 -0.569335
v -0.026804 -0.003399 -0.569603
v -0.057714 -0.016515 0.619679
v -0.042883 0.003399 0.691573
v -0.057714 0.003399 0.619947
v -0.057714 -0.016515 0.619679
v -0.042883 -0.016515 0.691305
v 0.090244 0.015820 -1.112612
v 0.079246 0.027176 -1.092365
v 0.146728 0.027053 -0.940755
v 0.161891 0.015820 -0.952605
v -0.091490 0.015820 -1.112612
v -0.081145 0.027381 -1.091794
v -0.000197 0.027830 -1.147687
v -0.000623 0.015820 -1.173720
v -0.194945 0.015820 -0.712840
v -0.179628 0.028816 -0.717322
v -0.146179 0.027034 -0.942086
v -0.161738 0.015820 -0.952605
v 0.000385 0.015820 -0.533793
v 0.000644 0.026169 -0.561582
v -0.115712 0.025391 -0.607849
v -0.124086 0.015820 -0.582673
v 0.197867 0.015820 -0.712840
v 0.182833 0.029010 -0.718230
v 0.115672 0.024945 -0.611803
v 0.124976 0.015820 -0.587038
v -0.000623 0.015820 -1.173720
v -0.000197 0.027830 -1.147687
v 0.079246 0.027176 -1.092365
v 0.090244 0.015820 -1.112612
v -0.161738 0.015820 -0.952605
v -0.146179 0.027034 -0.942086
v -0.081145 0.027381 -1.091794
v -0.091490 0.015820 -1.112612
v -0.124086 0.015820 -0.582673
v -0.115712 0.025391 -0.607849
v -0.179628 0.028816 -0.717322
v -0.194945 0.015820 -0.712840
v 0.124976 0.015820 -0.587038
v 0.115672 0.024945 -0.611803
v 0.000644 0.026169 -0.561582
v 0.000385 0.015820 -0.533793
v 0.161891 0.015820 -0.952605
v 0.146728 0.027053 -0.940755
v 0.182833 0.029010 -0.718230
v 0.197867 0.015820 -0.712840
vn 0.192930 -0.942988 0.271205
vn 0.192930 -0.942988 0.271205
vn 0.192930 -0.942988 0.271205
vn -0.190428 -0.958876 0.210463
vn -0.190428 -0.958876 0.210463
vn -0.190428 -0.958876 0.210463
vn -0.396202 -0.910012 -0.122074
vn -0.396202 -0.910012 -0.122074
vn -0.396202 -0.910012 -0.122074
vn 0.025661 -0.970029 -0.241631
vn 0.025661 -0.970029 -0.241631
vn 0.025661 -0.970029 -0.241631
vn 0.372374 -0.922977 -0.097221
vn 0.372374 -0.922977 -0.097221
vn 0.372374 -0.922977 -0.097221
vn 0.105170 -0.993427 -0.045185
vn 0.105170 -0.993427 -0.045185
vn 0.105170 -0.993427 -0.045185
vn 0.260736 -0.958889 -0.112023
vn 0.260736 -0.958889 -0.112023
vn 0.260736 -0.958889 -0.112023
vn 0.257007 -0.945178 -0.201461
vn 0.257007 -0.945178 -0.201461
vn 0.257007 -0.945178 -0.201461
vn -0.041492 -0.996924 -0.066490
vn -0.041492 -0.996924 -0.066490
vn -0.041492 -0.996924 -0.066490
vn -0.099613 -0.982139 -0.159628
vn -0.099613 -0.982139 -0.159628
vn -0.099613 -0.982139 -0.159628
vn -0.301264 -0.934037 -0.191871
vn -0.301264 -0.934037 -0.191871
vn -0.301264 -0.934037 -0.191871
vn -0.130775 -0.991382 -0.007677
vn -0.130775 -0.991382 -0.007677
vn -0.130775 -0.991382 -0.007677
vn -0.275683 -0.961112 -0.016184
vn -0.275683 -0.961112 -0.016184
vn -0.275683 -0.961112 -0.016184
vn -0.361255 -0.931769 0.036082
vn -0.361255 -0.931769 0.036082
vn -0.361255 -0.931769 0.036082
vn -0.030554 -0.997660 0.061170
vn -0.030554 -0.997660 0.061170
vn -0.030554 -0.997660 0.061170
vn -0.095486 -0.976902 0.191169
vn -0.095486 -0.976902 0.191169
vn -0.095486 -0.976902 0.191169
vn 0.017247 -0.945521 0.325105
vn 0.017247 -0.945521 0.325105
vn 0.017247 -0.945521 0.325105
vn 0.113863 -0.992914 0.034011
vn 0.113863 -0.992914 0.034011
vn 0.113863 -0.992914 0.034011
vn 0.200085 -0.977954 0.059766
vn 0.200085 -0.977954 0.059766
vn 0.200085 -0.977954 0.059766
vn 0.363485 -0.931527 0.011700
vn 0.363485 -0.931527 0.011700
vn 0.363485 -0.931527 0.011700
vn 0.726163 -0.649029 -0.226824
vn 0.726163 -0.649029 -0.226824
vn 0.726163 -0.649029 -0.226824
vn 0.778651 -0.521671 -0.348659
vn 0.778651 -0.521671 -0.348659
vn 0.778651 -0.521671 -0.348659
vn 0.577279 -0.720895 -0.383484
vn 0.577279 -0.720895 -0.383484
vn 0.577279 -0.720895 -0.383484
vn -0.028855 -0.846531 -0.531557
vn -0.028855 -0.846531 -0.531557
vn -0.028855 -0.846531 -0.531557
vn -0.444750 -0.604009 -0.661340
vn -0.444750 -0.604009 -0.661340
vn -0.444750 -0.604009 -0.661340
vn -0.542606 -0.736895 -0.403194
vn -0.542606 -0.736895 -0.403194
vn -0.542606 -0.736895 -0.403194
vn -0.740514 -0.643006 -0.195404
vn -0.740514 -0.643006 -0.195404
vn -0.740514 -0.643006 -0.195404
vn -0.888079 -0.442931 -0.122996
vn -0.888079 -0.442931 -0.122996
vn -0.888079 -0.442931 -0.122996
vn -0.637329 -0.769578 0.039520
vn -0.637329 -0.769578 0.039520
vn -0.637329 -0.769578 0.039520
vn -0.404864 -0.720592 0.562879
vn -0.404864 -0.720592 0.562879
vn -0.404864 -0.720592 0.562879
vn -0.309995 -0.529900 0.789373
vn -0.309995 -0.529900 0.789373
vn -0.309995 -0.529900 0.789373
vn -0.017543 -0.773049 0.634104
vn -0.017543 -0.773049 0.634104
vn -0.017543 -0.773049 0.634104
vn 0.475292 -0.681462 0.556514
vn 0.475292 -0.681462 0.556514
vn 0.475292 -0.681462 0.556514
vn 0.817837 -0.326490 0.473865
vn 0.817837 -0.326490 0.473865
vn 0.817837 -0.326490 0.473865
vn 0.627077 -0.777706 0.044137
vn 0.627077 -0.777706 0.044137
vn 0.627077 -0.777706 0.044137
vn 0.498632 -0.449001 -0.741461
vn 0.498632 -0.449001 -0.741461
vn 0.498632 -0.449001 -0.741461
vn -0.837639 -0.403879 -0.367753
vn -0.837639 -0.403879 -0.367753
vn -0.837639 -0.403879 -0.367753
vn -0.871312 -0.125848 0.474318
vn -0.871312 -0.125848 0.474318
vn -0.871312 -0.125848 0.474318
vn 0.374094 -0.306300 0.875348
vn 0.374094 -0.306300 0.875348
vn 0.374094 -0.306300 0.875348
vn 0.940594 -0.308812 -0.141133
vn 0.940594 -0.308812 -0.141133
vn 0.940594 -0.308812 -0.141133
vn -0.182487 0.950336 -0.252112
vn -0.182487 0.950336 -0.252112
vn -0.182487 0.950336 -0.252112
vn 0.167839 0.966246 -0.195445
vn 0.167839 0.966246 -0.195445
vn 0.167839 0.966246 -0.195445
vn 0.384051 0.915951 0.116355
vn 0.384051 0.915951 0.116355
vn 0.384051 0.915951 0.116355
vn -0.020725 0.973806 0.226436
vn -0.020725 0.973806 0.226436
vn -0.020725 0.973806 0.226436
vn -0.354233 0.930317 0.095026
vn -0.354233 0.930317 0.095026
vn -0.354233 0.930317 0.095026
vn -0.104504 0.993520 0.044679
vn -0.104504 0.993520 0.044679
vn -0.104504 0.993520 0.044679
vn -0.247082 0.963257 0.105298
vn -0.247082 0.963257 0.105298
vn -0.247082 0.963257 0.105298
vn -0.249095 0.949517 0.190706
vn -0.249095 0.949517 0.190706
vn -0.249095 0.949517 0.190706
vn 0.040315 0.997064 0.065109
vn 0.040315 0.997064 0.065109
vn 0.040315 0.997064 0.065109
vn 0.094289 0.984293 0.149256
vn 0.094289 0.984293 0.149256
vn 0.094289 0.984293 0.149256
vn 0.285745 0.940390 0.184436
vn 0.285745 0.940390 0.184436
vn 0.285745 0.940390 0.184436
vn 0.129421 0.991561 0.007491
vn 0.129421 0.991561 0.007491
vn 0.129421 0.991561 0.007491
vn 0.256597 0.966393 0.015558
vn 0.256597 0.966393 0.015558
vn 0.256597 0.966393 0.015558
vn 0.329647 0.943757 -0.025591
vn 0.329647 0.943757 -0.025591
vn 0.329647 0.943757 -0.025591
vn 0.030843 0.997746 -0.059595
vn 0.030843 0.997746 -0.059595
vn 0.030843 0.997746 -0.059595
vn 0.087607 0.980417 -0.176372
vn 0.087607 0.980417 -0.176372
vn 0.087607 0.980417 -0.176372
vn -0.009738 0.950618 -0.310212
vn -0.009738 0.950618 -0.310212
vn -0.009738 0.950618 -0.310212
vn -0.112396 0.993133 -0.032466
vn -0.112396 0.993133 -0.032466
vn -0.112396 0.993133 -0.032466
vn -0.178314 0.982600 -0.051972
vn -0.178314 0.982600 -0.051972
vn -0.178314 0.982600 -0.051972
vn -0.339483 0.940586 -0.007101
vn -0.339483 0.940586 -0.007101
vn -0.339483 0.940586 -0.007101
vn -0.733343 0.640198 0.228810
vn -0.733343 0.640198 0.228810
vn -0.733343 0.640198 0.228810
vn -0.793700 0.494927 0.353676
vn -0.793700 0.494927 0.353676
vn -0.793700 0.494927 0.353676
vn -0.588856 0.710113 0.385991
vn -0.588856 0.710113 0.385991
vn -0.588856 0.710113 0.385991
vn 0.033554 0.840581 0.540646
vn 0.033554 0.840581 0.540646
vn 0.033554 0.840581 0.540646
vn 0.459571 0.582716 0.670251
vn 0.459571 0.582716 0.670251
vn 0.459571 0.582716 0.670251
vn 0.553010 0.727646 0.405847
vn 0.553010 0.727646 0.405847
vn 0.553010 0.727646 0.405847
vn 0.746996 0.634565 0.198304
vn 0.746996 0.634565 0.198304
vn 0.746996 0.634565 0.198304
vn 0.896740 0.423004 0.130096
vn 0.896740 0.423004 0.130096
vn 0.896740 0.423004 0.130096
vn 0.653369 0.756401 -0.031087
vn 0.653369 0.756401 -0.031087
vn 0.653369 0.756401 -0.031087
vn 0.405200 0.704940 -0.582128
vn 0.405200 0.704940 -0.582128
vn 0.405200 0.704940 -0.582128
vn 0.319776 0.487583 -0.812407
vn 0.319776 0.487583 -0.812407
vn 0.319776 0.487583 -0.812407
vn 0.016815 0.766590 -0.641917
vn 0.016815 0.766590 -0.641917
vn 0.016815 0.766590 -0.641917
vn -0.477692 0.663815 -0.575465
vn -0.477692 0.663815 -0.575465
vn -0.477692 0.663815 -0.575465
vn -0.810676 0.304744 -0.499935
vn -0.810676 0.304744 -0.499935
vn -0.810676 0.304744 -0.499935
vn -0.638400 0.768624 -0.040769
vn -0.638400 0.768624 -0.040769
vn -0.638400 0.768624 -0.040769
vn -0.511317 0.437952 0.739427
vn -0.511317 0.437952 0.739427
vn -0.511317 0.437952 0.739427
vn 0.846614 0.383836 0.368667
vn 0.846614 0.383836 0.368667
vn 0.846614 0.383836 0.368667
vn 0.857007 0.139762 -0.495989
vn 0.857007 0.139762 -0.495989
vn 0.857007 0.139762 -0.495989
vn -0.382254 0.274864 -0.882231
vn -0.382254 0.274864 -0.882231
vn -0.382254 0.274864 -0.882231
vn -0.940431 0.305154 0.149905
vn -0.940431 0.305154 0.149905
vn -0.940431 0.305154 0.149905
vn 0.000000 0.999939 0.011028
vn 0.000000 1.000000 0.000000
vn 0.000000 1.000000 0.000000
vn 0.000000 1.000000 0.000000
vn 0.000000 0.999939 0.011028
vn 0.000000 1.000000 0.000000
vn 0.000000 0.999939 0.011028
vn 0.000000 1.000000 0.000000
vn 0.000000 0.999939 0.011028
vn 0.000000 -0.999939 -0.011028
vn 0.000000 -1.000000 0.000000
vn 0.000000 -1.000000 0.000000
vn 0.000000 -1.000000 0.000000
vn 0.000000 -0.999939 -0.011028
vn 0.000000 -1.000000 0.000000
vn 0.000000 -0.999939 -0.011028
vn 0.000000 -1.000000 0.000000
vn 0.000000 -0.999939 -0.011028
vn 0.979225 -0.002726 0.202761
vn 0.979225 -0.002726 0.202761
vn 0.979225 -0.002726 0.202761
vn 0.979225 -0.002726 0.202761
vn -0.433931 -0.012103 0.900865
vn -0.433931 -0.012103 0.900865
vn -0.433931 -0.012103 0.900865
vn -0.433931 -0.012103 0.900865
vn 0.999663 0.000347 -0.025978
vn 0.999663 0.000347 -0.025978
vn 0.999663 0.000347 -0.025978
vn 0.999663 0.000347 -0.025978
vn 0.404924 -0.012283 0.914268
vn 0.404924 -0.012283 0.914268
vn 0.404924 -0.012283 0.914268
vn 0.404924 -0.012283 0.914268
vn -0.999663 0.000351 -0.025978
vn -0.999663 0.000351 -0.025978
vn -0.999663 0.000351 -0.025978
vn -0.999663 0.000351 -0.025978
vn -0.979225 -0.002722 0.202760
vn -0.979225 -0.002722 0.202760
vn -0.979225 -0.002722 0.202760
vn -0.979225 -0.002722 0.202760
vn 0.476296 0.853267 -0.212315
vn 0.476296 0.853267 -0.212315
vn 0.476296 0.853267 -0.212315
vn 0.476296 0.853267 -0.212315
vn -0.264052 0.884614 -0.384362
vn -0.264052 0.884614 -0.384362
vn -0.264052 0.884614 -0.384362
vn -0.264052 0.884614 -0.384362
vn -0.603640 0.792200 -0.089656
vn -0.603640 0.792200 -0.089656
vn -0.603640 0.792200 -0.089656
vn -0.603640 0.792200 -0.089656
vn -0.133313 0.934597 0.329783
vn -0.133313 0.934597 0.329783
vn -0.133313 0.934597 0.329783
vn -0.133313 0.934597 0.329783
vn 0.437887 0.854630 0.279040
vn 0.437887 0.854630 0.279040
vn 0.437887 0.854630 0.279040
vn 0.437887 0.854630 0.279040
vn 0.266693 0.883479 -0.385148
vn 0.266693 0.883479 -0.385148
vn 0.266693 0.883479 -0.385148
vn 0.266693 0.883479 -0.385148
vn -0.487848 0.846758 -0.212142
vn -0.487848 0.846758 -0.212142
vn -0.487848 0.846758 -0.212142
vn -0.487848 0.846758 -0.212142
vn -0.462747 0.843630 0.272310
vn -0.462747 0.843630 0.272310
vn -0.462747 0.843630 0.272310
vn -0.462747 0.843630 0.272310
vn 0.143821 0.935752 0.322000
vn 0.143821 0.935752 0.322000
vn 0.143821 0.935752 0.322000
vn 0.143821 0.935752 0.322000
vn 0.612906 0.783944 -0.098884
vn 0.612906 0.783944 -0.098884
vn 0.612906 0.783944 -0.098884
vn 0.612906 0.783944 -0.098884
g Spoon_Metal
usemtl Metal
f 1 2 3
f 4 5 6
f 7 8 9
f 10 11 12
f 13 14 15
f 16 17 18
f 19 20 21
f 22 23 24
f 25 26 27
f 28 29 30
f 31 32 33
f 34 35 36
f 37 38 39
f 40 41 42
f 43 44 45
f 46 47 48
f 49 50 51
f 52 53 54
f 55 56 57
f 58 59 60
f 61 62 63
f 64 65 66
f 67 68 69
f 70 71 72
f 73 74 75
f 76 77 78
f 79 80 81
f 82 83 84
f 85 86 87
f 88 89 90
f 91 92 93
f 94 95 96
f 97 98 99
f 100 101 102
f 103 104 105
f 106 107 108
f 109 110 111
f 112 113 114
f 115 116 117
f 118 119 120
f 121 122 123
f 124 125 126
f 127 128 129
f 130 131 132
f 133 134 135
f 136 137 138
f 139 140 141
f 142 143 144
f 145 146 147
f 148 149 150
f 151 152 153
f 154 155 156
f 157 158 159
f 160 161 162
f 163 164 165
f 166 167 168
f 169 170 171
f 172 173 174
f 175 176 177
f 178 179 180
f 181 182 183
f 184 185 186
f 187 188 189
f 190 191 192
f 193 194 195
f 196 197 198
f 199 200 201
f 202 203 204
f 205 206 207
f 208 209 210
f 211 212 213
f 214 215 216
f 217 218 219
f 220 221 222
f 223 224 225
f 226 227 228
f 229 230 231
f 232 233 234
f 235 236 237
f 238 239 240
f 241 242 243
f 241 243 244
f 244 245 241
f 244 243 246
f 244 247 245
f 244 246 248
f 248 247 244
f 248 249 247
f 250 251 252
f 250 253 251
f 253 250 254
f 253 255 251
f 253 254 256
f 253 257 255
f 257 253 256
f 257 256 258
f 259 260 261
f 259 261 262
f 263 264 265
f 263 265 266
f 267 268 269
f 267 269 270
f 271 272 273
f 271 273 274
f 275 276 277
f 275 277 278
f 279 280 281
f 279 281 282
f 283 284 285
f 283 285 286
f 287 288 289
f 287 289 290
f 291 292 293
f 291 293 294
f 295 296 297
f 295 297 298
f 299 300 301
f 299 301 302
f 303 304 305
f 303 305 306
f 307 308 309
f 307 309 310
f 311 312 313
f 311 313 314
f 315 316 317
f 315 317 318
f 319 320 321
f 319 321 322
