mtllib Materials.mtl
# Ultimate Food Pack - Steak
o Steak
v 0.236795 -0.136775 0.210309
v 0.297113 -0.136775 0.346123
v -0.325512 -0.136775 0.738982
v -0.626206 -0.136775 0.348206
v 0.140221 -0.136775 -0.004674
v -0.842347 -0.136775 0.030189
v 0.153681 -0.136775 -0.304665
v -0.852410 -0.136775 -0.297177
v 0.214031 -0.136775 -0.711190
v -0.790985 -0.136775 -0.625055
v -0.626206 0.136775 0.348206
v -0.325512 0.136775 0.738982
v 0.297113 0.136775 0.346123
v 0.236795 0.136775 0.210309
v -0.842347 0.136775 0.030189
v 0.140221 0.136775 -0.004674
v -0.852410 0.136775 -0.297177
v 0.153681 0.136775 -0.304665
v -0.790985 0.136775 -0.625055
v 0.214031 0.136775 -0.711190
v -0.790985 -0.136775 -0.625055
v -0.464450 -0.097228 -0.954552
v 0.038802 -0.097228 -0.955114
v 0.214031 -0.136775 -0.711190
v 0.214031 0.136775 -0.711190
v 0.038802 0.097228 -0.955114
v -0.464450 0.097228 -0.954552
v -0.790985 0.136775 -0.625055
v 0.297113 -0.136775 0.346123
v 0.266782 -0.095875 0.650622
v -0.055334 -0.095875 0.801886
v -0.325512 -0.136775 0.738982
v -0.325512 0.136775 0.738982
v -0.055334 0.095875 0.801886
v 0.266782 0.095875 0.650622
v 0.297113 0.136775 0.346123
v 0.197342 -0.152485 0.258185
v 0.184384 -0.152485 0.271068
v 0.151118 -0.152485 0.209062
v -0.673349 -0.152485 -0.194151
v -0.674249 -0.152485 -0.212401
v -0.605914 -0.144918 -0.195618
v -0.674249 0.152485 -0.212401
v -0.673349 0.152485 -0.194151
v -0.605914 0.144918 -0.195618
v -0.248198 0.143357 0.655401
v -0.230300 0.143357 0.659079
v -0.214914 0.143357 0.593406
v -0.230300 -0.143356 0.659079
v -0.248198 -0.143356 0.655401
v -0.214914 -0.143356 0.593406
v 0.184384 0.152485 0.271067
v 0.197342 0.152485 0.258185
v 0.151118 0.152485 0.209062
v 0.061998 -0.152485 -0.476152
v 0.045001 -0.152485 -0.469449
v 0.038984 -0.144918 -0.539557
v 0.045001 0.152485 -0.469449
v 0.061998 0.152485 -0.476152
v 0.038984 0.144918 -0.539557
v -0.079154 -0.134126 -0.835638
v -0.068900 -0.134126 -0.820516
v -0.136002 -0.127470 -0.799333
v -0.068900 0.134126 -0.820516
v -0.079154 0.134126 -0.835639
v -0.136002 0.127470 -0.799333
v -0.040998 -0.147762 -0.017766
v -0.023039 -0.147762 -0.002666
v -0.064157 -0.140430 0.079558
v -0.023039 0.147762 -0.002666
v -0.040998 0.147762 -0.017766
v -0.064157 0.140430 0.079558
v 0.153681 -0.136775 -0.304665
v 0.153681 -0.169835 -0.304665
v 0.140221 -0.169835 -0.004674
v 0.140221 -0.136775 -0.004674
v 0.297113 -0.136775 0.346123
v 0.297113 -0.169835 0.346123
v 0.266782 -0.119049 0.650622
v 0.266782 -0.095875 0.650622
v 0.272826 0.138347 0.265559
v 0.282825 0.138347 0.243897
v 0.197342 0.152485 0.258185
v 0.184384 0.152485 0.271067
v -0.790985 0.136775 -0.625055
v -0.790985 0.169835 -0.625055
v -0.852410 0.169835 -0.297177
v -0.852410 0.136775 -0.297177
v -0.719946 -0.151192 -0.121074
v -0.729348 -0.151192 -0.143001
v -0.674249 -0.152485 -0.212401
v -0.673349 -0.152485 -0.194151
v 0.153681 0.136775 -0.304665
v 0.153681 0.169835 -0.304665
v 0.214031 0.169835 -0.711190
v 0.214031 0.136775 -0.711190
v -0.781203 0.143247 -0.111431
v -0.862422 0.143247 -0.130295
v -0.862422 -0.143247 -0.130295
v -0.781203 -0.143247 -0.111431
v 0.184384 -0.152485 0.271068
v 0.184384 0.152485 0.271067
v 0.151118 0.152485 0.209062
v 0.151118 -0.152485 0.209062
v -0.842347 -0.136775 0.030189
v -0.842347 -0.169835 0.030189
v -0.852410 -0.169835 -0.297177
v -0.852410 -0.136775 -0.297177
v 0.214031 -0.136775 -0.711190
v 0.214031 -0.169835 -0.711190
v 0.153681 -0.169835 -0.304665
v 0.153681 -0.136775 -0.304665
v -0.674249 -0.152485 -0.212401
v -0.674249 0.152485 -0.212401
v -0.605914 0.144918 -0.195618
v -0.605914 -0.144918 -0.195618
v 0.038802 0.097228 -0.955114
v 0.038802 0.120729 -0.955114
v -0.464450 0.120729 -0.954552
v -0.464450 0.097228 -0.954552
v -0.626206 0.136775 0.348206
v -0.626206 0.169835 0.348206
v -0.325512 0.169835 0.738982
v -0.325512 0.136775 0.738982
v 0.210269 0.152537 -0.329397
v 0.204493 0.152537 -0.000846
v 0.204493 -0.152537 -0.000846
v 0.210269 -0.152537 -0.329397
v 0.330988 0.131077 0.282957
v 0.330988 -0.131077 0.282957
v 0.282825 -0.138347 0.243897
v 0.282825 0.138347 0.243897
v -0.925450 -0.152537 -0.322138
v -0.913876 -0.152537 0.039042
v -0.913876 0.152537 0.039042
v -0.925450 0.152537 -0.322138
v 0.393262 0.106924 0.707675
v -0.019148 0.106924 0.879663
v -0.019148 -0.106924 0.879663
v 0.393262 -0.106924 0.707675
v 0.320216 -0.152537 -0.764830
v 0.084330 -0.108433 -1.032997
v 0.084330 0.108432 -1.032997
v 0.320216 0.152537 -0.764830
v -0.858734 0.152537 -0.679673
v -0.496707 0.108432 -1.032979
v -0.496707 -0.108433 -1.032979
v -0.858734 -0.152537 -0.679673
v 0.394467 0.152537 0.347617
v 0.393262 0.106924 0.707675
v 0.393262 -0.106924 0.707675
v 0.394467 -0.152537 0.347617
v -0.327545 -0.152537 0.813942
v -0.019148 -0.106924 0.879663
v -0.019148 0.106924 0.879663
v -0.327545 0.152537 0.813942
v 0.282825 -0.138347 0.243897
v 0.272826 -0.138347 0.265559
v 0.184384 -0.152485 0.271068
v 0.197342 -0.152485 0.258185
v -0.673349 0.152485 -0.194151
v -0.673349 -0.152485 -0.194151
v -0.605914 -0.144918 -0.195618
v -0.605914 0.144918 -0.195618
v 0.315845 -0.131077 0.301394
v 0.315845 0.131077 0.301394
v 0.272826 0.138347 0.265559
v 0.272826 -0.138347 0.265559
v 0.314604 0.152537 0.186359
v 0.314604 -0.152537 0.186359
v 0.204493 -0.152537 -0.000846
v 0.204493 0.152537 -0.000846
v -0.729348 0.151192 -0.143001
v -0.719946 0.151192 -0.121074
v -0.673349 0.152485 -0.194151
v -0.674249 0.152485 -0.212401
v -0.464450 0.097228 -0.954552
v -0.464450 0.120729 -0.954552
v -0.790985 0.169835 -0.625055
v -0.790985 0.136775 -0.625055
v -0.626206 -0.136775 0.348206
v -0.626206 -0.169835 0.348206
v -0.842347 -0.169835 0.030189
v -0.842347 -0.136775 0.030189
v -0.925450 -0.152537 -0.322138
v -0.925450 0.152537 -0.322138
v -0.858734 0.152537 -0.679673
v -0.858734 -0.152537 -0.679673
v 0.297113 0.136775 0.346123
v 0.297113 0.169835 0.346123
v 0.236795 0.169835 0.210309
v 0.236795 0.136775 0.210309
v 0.140221 0.169835 -0.004674
v 0.140221 0.136775 -0.004674
v 0.320216 -0.152537 -0.764830
v 0.320216 0.152537 -0.764830
v 0.210269 0.152537 -0.329397
v 0.210269 -0.152537 -0.329397
v -0.464450 -0.097228 -0.954552
v -0.464450 -0.120729 -0.954552
v 0.038802 -0.120729 -0.955114
v 0.038802 -0.097228 -0.955114
v 0.140221 -0.136775 -0.004674
v 0.140221 -0.169835 -0.004674
v 0.236795 -0.169835 0.210309
v 0.236795 -0.136775 0.210309
v 0.297113 -0.169835 0.346123
v 0.297113 -0.136775 0.346123
v -0.784766 -0.143247 -0.135021
v -0.784766 0.143247 -0.135021
v -0.729348 0.151192 -0.143001
v -0.729348 -0.151192 -0.143001
v -0.842347 0.136775 0.030189
v -0.842347 0.169835 0.030189
v -0.626206 0.169835 0.348206
v -0.626206 0.136775 0.348206
v -0.790985 -0.136775 -0.625055
v -0.790985 -0.169835 -0.625055
v -0.464450 -0.120729 -0.954552
v -0.464450 -0.097228 -0.954552
v -0.325512 -0.136775 0.738982
v -0.325512 -0.169835 0.738982
v -0.626206 -0.169835 0.348206
v -0.626206 -0.136775 0.348206
v -0.781203 0.143247 -0.111431
v -0.781203 -0.143247 -0.111431
v -0.719946 -0.151192 -0.121074
v -0.719946 0.151192 -0.121074
v -0.226348 -0.152350 -0.420218
v -0.037111 -0.152350 -0.430550
v -0.037111 0.152350 -0.430550
v -0.226348 0.152350 -0.420219
v -0.180209 0.152350 -0.543882
v -0.037111 0.152350 -0.430550
v -0.036307 0.152350 -0.526844
v -0.226348 0.152350 -0.420219
v -0.453086 0.152350 -0.407731
v -0.456533 0.152350 -0.539034
v -0.270881 0.152350 -0.301513
v -0.647750 0.152350 -0.421089
v -0.643057 0.152350 -0.524723
v -0.380374 0.152350 -0.287930
v -0.277352 0.152350 -0.101722
v -0.339496 0.152350 -0.088712
v -0.233251 0.152350 0.081663
v -0.284220 0.152350 0.119522
v -0.101615 0.152350 0.308686
v -0.138119 0.152350 0.349726
v -0.047486 0.149308 0.379784
v -0.063482 0.149308 0.397485
v -0.011539 -0.148405 -0.457803
v -0.014646 -0.148405 -0.507113
v -0.014646 0.148405 -0.507113
v -0.011539 0.148405 -0.457803
v -0.036307 -0.152350 -0.526844
v -0.180209 -0.152350 -0.543882
v -0.180209 0.152350 -0.543882
v -0.036307 0.152350 -0.526844
v -0.453086 -0.152350 -0.407731
v -0.647750 -0.152350 -0.421089
v -0.643057 -0.152350 -0.524723
v -0.456533 -0.152350 -0.539034
v -0.226348 -0.152350 -0.420218
v -0.180209 -0.152350 -0.543882
v -0.036307 -0.152350 -0.526844
v -0.037111 -0.152350 -0.430550
v -0.380374 -0.152350 -0.287930
v -0.270881 -0.152350 -0.301513
v -0.339496 -0.152350 -0.088712
v -0.277352 -0.152350 -0.101722
v -0.284220 -0.152350 0.119522
v -0.233251 -0.152350 0.081663
v -0.138119 -0.152350 0.349726
v -0.101615 -0.152350 0.308686
v -0.063482 -0.149308 0.397485
v -0.047486 -0.149308 0.379784
v -0.180209 -0.152350 -0.543882
v -0.456533 -0.152350 -0.539034
v -0.456533 0.152350 -0.539034
v -0.180209 0.152350 -0.543882
v -0.674867 -0.147262 -0.492690
v -0.676828 -0.147262 -0.449381
v -0.676828 0.147262 -0.449381
v -0.674867 0.147262 -0.492691
v -0.453086 0.152350 -0.407731
v -0.647750 0.152350 -0.421089
v -0.647750 -0.152350 -0.421089
v -0.453086 -0.152350 -0.407731
v -0.674867 0.147262 -0.492691
v -0.643057 0.152350 -0.524723
v -0.643057 -0.152350 -0.524723
v -0.674867 -0.147262 -0.492690
v -0.647750 -0.152350 -0.421089
v -0.676828 -0.147262 -0.449381
v -0.674867 -0.147262 -0.492690
v -0.643057 -0.152350 -0.524723
v -0.643057 0.152350 -0.524723
v -0.674867 0.147262 -0.492691
v -0.676828 0.147262 -0.449381
v -0.647750 0.152350 -0.421089
v -0.647750 0.152350 -0.421089
v -0.676828 0.147262 -0.449381
v -0.676828 -0.147262 -0.449381
v -0.647750 -0.152350 -0.421089
v -0.456533 -0.152350 -0.539034
v -0.643057 -0.152350 -0.524723
v -0.643057 0.152350 -0.524723
v -0.456533 0.152350 -0.539034
v -0.036307 -0.152350 -0.526844
v -0.014646 -0.148405 -0.507113
v -0.011539 -0.148405 -0.457803
v -0.037111 -0.152350 -0.430550
v -0.037111 -0.152350 -0.430550
v -0.011539 -0.148405 -0.457803
v -0.011539 0.148405 -0.457803
v -0.037111 0.152350 -0.430550
v -0.037111 0.152350 -0.430550
v -0.011539 0.148405 -0.457803
v -0.014646 0.148405 -0.507113
v -0.036307 0.152350 -0.526844
v -0.036307 0.152350 -0.526844
v -0.014646 0.148405 -0.507113
v -0.014646 -0.148405 -0.507113
v -0.036307 -0.152350 -0.526844
v -0.453086 -0.152350 -0.407731
v -0.380374 -0.152350 -0.287930
v -0.380374 0.152350 -0.287930
v -0.453086 0.152350 -0.407731
v -0.226348 0.152350 -0.420219
v -0.270881 0.152350 -0.301513
v -0.270881 -0.152350 -0.301513
v -0.226348 -0.152350 -0.420218
v -0.380374 -0.152350 -0.287930
v -0.339496 -0.152350 -0.088712
v -0.339496 0.152350 -0.088712
v -0.380374 0.152350 -0.287930
v -0.047486 0.149308 0.379784
v -0.063482 0.149308 0.397485
v -0.063482 -0.149308 0.397485
v -0.047486 -0.149308 0.379784
v -0.270881 0.152350 -0.301513
v -0.277352 0.152350 -0.101722
v -0.277352 -0.152350 -0.101722
v -0.270881 -0.152350 -0.301513
v -0.339496 -0.152350 -0.088712
v -0.284220 -0.152350 0.119522
v -0.284220 0.152350 0.119522
v -0.339496 0.152350 -0.088712
v -0.277352 0.152350 -0.101722
v -0.233251 0.152350 0.081663
v -0.233251 -0.152350 0.081663
v -0.277352 -0.152350 -0.101722
v -0.177071 0.123230 0.784146
v -0.200805 0.123230 0.781717
v -0.200805 -0.123230 0.781717
v -0.177071 -0.123230 0.784146
v -0.284220 -0.152350 0.119522
v -0.138119 -0.152350 0.349726
v -0.138119 0.152350 0.349726
v -0.284220 0.152350 0.119522
v -0.233251 0.152350 0.081663
v -0.101615 0.152350 0.308686
v -0.101615 -0.152350 0.308686
v -0.233251 -0.152350 0.081663
v -0.063482 0.149308 0.397485
v -0.138119 0.152350 0.349726
v -0.138119 -0.152350 0.349726
v -0.063482 -0.149308 0.397485
v -0.101615 0.152350 0.308686
v -0.047486 0.149308 0.379784
v -0.047486 -0.149308 0.379784
v -0.101615 -0.152350 0.308686
v -0.171143 -0.130065 0.722419
v -0.194721 -0.130065 0.726059
v -0.248198 -0.143356 0.655401
v -0.230300 -0.143356 0.659079
v -0.177071 0.123230 0.784146
v -0.177071 -0.123230 0.784146
v -0.171143 -0.130065 0.722419
v -0.171143 0.130065 0.722419
v -0.177071 -0.123230 0.784146
v -0.200805 -0.123230 0.781717
v -0.194721 -0.130065 0.726059
v -0.171143 -0.130065 0.722419
v -0.200805 -0.123230 0.781717
v -0.200805 0.123230 0.781717
v -0.194721 0.130065 0.726059
v -0.194721 -0.130065 0.726059
v -0.200805 0.123230 0.781717
v -0.177071 0.123230 0.784146
v -0.171143 0.130065 0.722419
v -0.194721 0.130065 0.726059
v -0.230300 0.143357 0.659079
v -0.230300 -0.143356 0.659079
v -0.214914 -0.143356 0.593406
v -0.214914 0.143357 0.593406
v -0.171143 0.130065 0.722419
v -0.171143 -0.130065 0.722419
v -0.230300 -0.143356 0.659079
v -0.230300 0.143357 0.659079
v -0.194721 -0.130065 0.726059
v -0.194721 0.130065 0.726059
v -0.248198 0.143357 0.655401
v -0.248198 -0.143356 0.655401
v -0.194721 0.130065 0.726059
v -0.171143 0.130065 0.722419
v -0.230300 0.143357 0.659079
v -0.248198 0.143357 0.655401
v 0.236795 -0.169835 0.210309
v 0.394467 -0.152537 0.347617
v 0.297113 -0.169835 0.346123
v 0.314604 -0.152537 0.186359
v 0.140221 -0.169835 -0.004674
v 0.204493 -0.152537 -0.000846
v 0.153681 0.169835 -0.304665
v 0.210269 0.152537 -0.329397
v 0.320216 0.152537 -0.764830
v 0.214031 0.169835 -0.711190
v -0.248198 -0.143356 0.655401
v -0.248198 0.143357 0.655401
v -0.214914 0.143357 0.593406
v -0.214914 -0.143356 0.593406
v -0.055334 0.119049 0.801886
v -0.019148 0.106924 0.879663
v 0.393262 0.106924 0.707675
v 0.266782 0.119049 0.650622
v 0.214031 0.169835 -0.711190
v 0.320216 0.152537 -0.764830
v 0.084330 0.108432 -1.032997
v 0.038802 0.120729 -0.955114
v -0.496707 0.108432 -1.032979
v -0.464450 0.120729 -0.954552
v -0.842347 -0.169835 0.030189
v -0.913876 -0.152537 0.039042
v -0.925450 -0.152537 -0.322138
v -0.852410 -0.169835 -0.297177
v 0.214031 -0.169835 -0.711190
v 0.320216 -0.152537 -0.764830
v 0.210269 -0.152537 -0.329397
v 0.153681 -0.169835 -0.304665
v 0.266782 -0.119049 0.650622
v 0.393262 -0.106924 0.707675
v -0.019148 -0.106924 0.879663
v -0.055334 -0.119049 0.801886
v -0.055334 -0.119049 0.801886
v -0.019148 -0.106924 0.879663
v -0.327545 -0.152537 0.813942
v -0.325512 -0.169835 0.738982
v -0.852410 -0.169835 -0.297177
v -0.925450 -0.152537 -0.322138
v -0.858734 -0.152537 -0.679673
v -0.790985 -0.169835 -0.625055
v -0.626206 0.169835 0.348206
v -0.327545 0.152537 0.813942
v -0.325512 0.169835 0.738982
v -0.669203 0.152537 0.389006
v -0.842347 0.169835 0.030189
v -0.913876 0.152537 0.039042
v -0.464450 0.120729 -0.954552
v -0.496707 0.108432 -1.032979
v -0.858734 0.152537 -0.679673
v -0.790985 0.169835 -0.625055
v -0.852410 0.169835 -0.297177
v -0.925450 0.152537 -0.322138
v -0.913876 0.152537 0.039042
v -0.842347 0.169835 0.030189
v -0.626206 -0.169835 0.348206
v -0.913876 -0.152537 0.039042
v -0.842347 -0.169835 0.030189
v -0.669203 -0.152537 0.389006
v -0.325512 -0.169835 0.738982
v -0.327545 -0.152537 0.813942
v -0.790985 0.169835 -0.625055
v -0.858734 0.152537 -0.679673
v -0.925450 0.152537 -0.322138
v -0.852410 0.169835 -0.297177
v 0.038802 -0.120729 -0.955114
v 0.320216 -0.152537 -0.764830
v 0.214031 -0.169835 -0.711190
v 0.084330 -0.108433 -1.032997
v -0.464450 -0.120729 -0.954552
v -0.496707 -0.108433 -1.032979
v 0.236795 0.169835 0.210309
v 0.204493 0.152537 -0.000846
v 0.140221 0.169835 -0.004674
v 0.314604 0.152537 0.186359
v 0.297113 0.169835 0.346123
v 0.394467 0.152537 0.347617
v 0.297113 -0.169835 0.346123
v 0.394467 -0.152537 0.347617
v 0.393262 -0.106924 0.707675
v 0.266782 -0.119049 0.650622
v 0.153681 -0.169835 -0.304665
v 0.210269 -0.152537 -0.329397
v 0.204493 -0.152537 -0.000846
v 0.140221 -0.169835 -0.004674
v -0.790985 -0.169835 -0.625055
v -0.858734 -0.152537 -0.679673
v -0.496707 -0.108433 -1.032979
v -0.464450 -0.120729 -0.954552
v 0.140221 0.169835 -0.004674
v 0.204493 0.152537 -0.000846
v 0.210269 0.152537 -0.329397
v 0.153681 0.169835 -0.304665
v 0.266782 0.119049 0.650622
v 0.393262 0.106924 0.707675
v 0.394467 0.152537 0.347617
v 0.297113 0.169835 0.346123
v -0.325512 0.169835 0.738982
v -0.327545 0.152537 0.813942
v -0.019148 0.106924 0.879663
v -0.055334 0.119049 0.801886
v 0.140221 0.136775 -0.004674
v 0.140221 0.169835 -0.004674
v 0.153681 0.169835 -0.304665
v 0.153681 0.136775 -0.304665
v -0.862422 0.143247 -0.130295
v -0.856985 0.143247 -0.153525
v -0.856985 -0.143247 -0.153525
v -0.862422 -0.143247 -0.130295
v 0.266782 0.095875 0.650622
v 0.266782 0.119049 0.650622
v 0.297113 0.169835 0.346123
v 0.297113 0.136775 0.346123
v 0.330988 -0.131077 0.282957
v 0.315845 -0.131077 0.301394
v 0.272826 -0.138347 0.265559
v 0.282825 -0.138347 0.243897
v -0.781203 -0.143247 -0.111431
v -0.862422 -0.143247 -0.130295
v -0.856985 -0.143247 -0.153525
v -0.784766 -0.143247 -0.135021
v 0.272826 -0.138347 0.265559
v 0.272826 0.138347 0.265559
v 0.184384 0.152485 0.271067
v 0.184384 -0.152485 0.271068
v -0.325512 0.136775 0.738982
v -0.325512 0.169835 0.738982
v -0.055334 0.119049 0.801886
v -0.055334 0.095875 0.801886
v -0.852410 0.136775 -0.297177
v -0.852410 0.169835 -0.297177
v -0.842347 0.169835 0.030189
v -0.842347 0.136775 0.030189
v 0.282825 0.138347 0.243897
v 0.282825 -0.138347 0.243897
v 0.197342 -0.152485 0.258185
v 0.197342 0.152485 0.258185
v -0.852410 -0.136775 -0.297177
v -0.852410 -0.169835 -0.297177
v -0.790985 -0.169835 -0.625055
v -0.790985 -0.136775 -0.625055
v 0.197342 0.152485 0.258185
v 0.197342 -0.152485 0.258185
v 0.151118 -0.152485 0.209062
v 0.151118 0.152485 0.209062
v -0.784766 0.143247 -0.135021
v -0.781203 0.143247 -0.111431
v -0.719946 0.151192 -0.121074
v -0.729348 0.151192 -0.143001
v -0.055334 -0.095875 0.801886
v -0.055334 -0.119049 0.801886
v -0.325512 -0.169835 0.738982
v -0.325512 -0.136775 0.738982
v 0.315845 0.131077 0.301394
v 0.330988 0.131077 0.282957
v 0.282825 0.138347 0.243897
v 0.272826 0.138347 0.265559
v 0.314604 0.152537 0.186359
v 0.394467 0.152537 0.347617
v 0.394467 -0.152537 0.347617
v 0.314604 -0.152537 0.186359
v -0.781203 -0.143247 -0.111431
v -0.784766 -0.143247 -0.135021
v -0.729348 -0.151192 -0.143001
v -0.719946 -0.151192 -0.121074
v -0.913876 -0.152537 0.039042
v -0.669203 -0.152537 0.389006
v -0.669203 0.152537 0.389006
v -0.913876 0.152537 0.039042
v 0.266782 -0.095875 0.650622
v 0.266782 -0.119049 0.650622
v -0.055334 -0.119049 0.801886
v -0.055334 -0.095875 0.801886
v -0.327545 -0.152537 0.813942
v -0.327545 0.152537 0.813942
v -0.669203 0.152537 0.389006
v -0.669203 -0.152537 0.389006
v -0.719946 0.151192 -0.121074
v -0.719946 -0.151192 -0.121074
v -0.673349 -0.152485 -0.194151
v -0.673349 0.152485 -0.194151
v 0.214031 0.136775 -0.711190
v 0.214031 0.169835 -0.711190
v 0.038802 0.120729 -0.955114
v 0.038802 0.097228 -0.955114
v 0.330988 0.131077 0.282957
v 0.315845 0.131077 0.301394
v 0.315845 -0.131077 0.301394
v 0.330988 -0.131077 0.282957
v -0.729348 -0.151192 -0.143001
v -0.729348 0.151192 -0.143001
v -0.674249 0.152485 -0.212401
v -0.674249 -0.152485 -0.212401
v -0.055334 0.095875 0.801886
v -0.055334 0.119049 0.801886
v 0.266782 0.119049 0.650622
v 0.266782 0.095875 0.650622
v -0.496707 0.108432 -1.032979
v 0.084330 0.108432 -1.032997
v 0.084330 -0.108433 -1.032997
v -0.496707 -0.108433 -1.032979
v 0.038802 -0.097228 -0.955114
v 0.038802 -0.120729 -0.955114
v 0.214031 -0.169835 -0.711190
v 0.214031 -0.136775 -0.711190
v -0.784766 0.143247 -0.135021
v -0.856985 0.143247 -0.153525
v -0.862422 0.143247 -0.130295
v -0.781203 0.143247 -0.111431
v -0.784766 -0.143247 -0.135021
v -0.856985 -0.143247 -0.153525
v -0.856985 0.143247 -0.153525
v -0.784766 0.143247 -0.135021
v 0.146159 -0.151192 -0.455449
v 0.128404 -0.151192 -0.439512
v 0.045001 -0.152485 -0.469449
v 0.061998 -0.152485 -0.476152
v 0.174935 0.143247 -0.400519
v 0.183110 0.143247 -0.317540
v 0.183110 -0.143247 -0.317540
v 0.174935 -0.143247 -0.400519
v 0.045001 -0.152485 -0.469449
v 0.045001 0.152485 -0.469449
v 0.038984 0.144918 -0.539557
v 0.038984 -0.144918 -0.539557
v 0.061998 0.152485 -0.476152
v 0.061998 -0.152485 -0.476152
v 0.038984 -0.144918 -0.539557
v 0.038984 0.144918 -0.539557
v 0.128404 0.151192 -0.439512
v 0.146159 0.151192 -0.455449
v 0.061998 0.152485 -0.476152
v 0.045001 0.152485 -0.469449
v 0.153733 -0.143247 -0.389579
v 0.153733 0.143247 -0.389580
v 0.128404 0.151192 -0.439512
v 0.128404 -0.151192 -0.439512
v 0.174935 0.143247 -0.400519
v 0.174935 -0.143247 -0.400519
v 0.146159 -0.151192 -0.455449
v 0.146159 0.151192 -0.455449
v 0.183110 0.143247 -0.317540
v 0.159363 0.143247 -0.315240
v 0.159363 -0.143247 -0.315240
v 0.183110 -0.143247 -0.317540
v 0.174935 -0.143247 -0.400519
v 0.183110 -0.143247 -0.317540
v 0.159363 -0.143247 -0.315240
v 0.153733 -0.143247 -0.389579
v 0.153733 0.143247 -0.389580
v 0.174935 0.143247 -0.400519
v 0.146159 0.151192 -0.455449
v 0.128404 0.151192 -0.439512
v 0.174935 -0.143247 -0.400519
v 0.153733 -0.143247 -0.389579
v 0.128404 -0.151192 -0.439512
v 0.146159 -0.151192 -0.455449
v 0.146159 0.151192 -0.455449
v 0.146159 -0.151192 -0.455449
v 0.061998 -0.152485 -0.476152
v 0.061998 0.152485 -0.476152
v 0.128404 -0.151192 -0.439512
v 0.128404 0.151192 -0.439512
v 0.045001 0.152485 -0.469449
v 0.045001 -0.152485 -0.469449
v 0.153733 0.143247 -0.389580
v 0.159363 0.143247 -0.315240
v 0.183110 0.143247 -0.317540
v 0.174935 0.143247 -0.400519
v 0.153733 -0.143247 -0.389579
v 0.159363 -0.143247 -0.315240
v 0.159363 0.143247 -0.315240
v 0.153733 0.143247 -0.389580
v -0.077332 -0.116151 -0.922289
v -0.057902 -0.116151 -0.908444
v -0.068900 -0.134126 -0.820516
v -0.079154 -0.134126 -0.835638
v -0.030013 0.110047 -0.962368
v 0.049177 0.110047 -0.988469
v 0.049177 -0.110047 -0.988469
v -0.030013 -0.110047 -0.962367
v -0.068900 -0.134126 -0.820516
v -0.068900 0.134126 -0.820516
v -0.136002 0.127470 -0.799333
v -0.136002 -0.127470 -0.799333
v -0.079154 0.134126 -0.835639
v -0.079154 -0.134126 -0.835638
v -0.136002 -0.127470 -0.799333
v -0.136002 0.127470 -0.799333
v -0.057902 0.116151 -0.908444
v -0.077332 0.116151 -0.922289
v -0.079154 0.134126 -0.835639
v -0.068900 0.134126 -0.820516
v -0.014707 -0.110047 -0.944066
v -0.014707 0.110047 -0.944066
v -0.057902 0.116151 -0.908444
v -0.057902 -0.116151 -0.908444
v -0.030013 0.110047 -0.962368
v -0.030013 -0.110047 -0.962367
v -0.077332 -0.116151 -0.922289
v -0.077332 0.116151 -0.922289
v 0.049177 0.110047 -0.988469
v 0.056608 0.110047 -0.965797
v 0.056608 -0.110047 -0.965797
v 0.049177 -0.110047 -0.988469
v -0.030013 -0.110047 -0.962367
v 0.049177 -0.110047 -0.988469
v 0.056608 -0.110047 -0.965797
v -0.014707 -0.110047 -0.944066
v -0.014707 0.110047 -0.944066
v -0.030013 0.110047 -0.962368
v -0.077332 0.116151 -0.922289
v -0.057902 0.116151 -0.908444
v -0.030013 -0.110047 -0.962367
v -0.014707 -0.110047 -0.944066
v -0.057902 -0.116151 -0.908444
v -0.077332 -0.116151 -0.922289
v -0.077332 0.116151 -0.922289
v -0.077332 -0.116151 -0.922289
v -0.079154 -0.134126 -0.835638
v -0.079154 0.134126 -0.835639
v -0.057902 -0.116151 -0.908444
v -0.057902 0.116151 -0.908444
v -0.068900 0.134126 -0.820516
v -0.068900 -0.134126 -0.820516
v -0.014707 0.110047 -0.944066
v 0.056608 0.110047 -0.965797
v 0.049177 0.110047 -0.988469
v -0.030013 0.110047 -0.962368
v -0.014707 -0.110047 -0.944066
v 0.056608 -0.110047 -0.965797
v 0.056608 0.110047 -0.965797
v -0.014707 0.110047 -0.944066
v -0.094618 -0.144315 -0.149700
v -0.023039 -0.147762 -0.002666
v -0.040998 -0.147762 -0.017766
v -0.070007 -0.144315 -0.143404
v -0.069076 -0.144315 -0.264696
v -0.023039 -0.147762 -0.002666
v -0.023039 0.147762 -0.002666
v -0.064157 0.140430 0.079558
v -0.064157 -0.140430 0.079558
v -0.040998 0.147762 -0.017766
v -0.040998 -0.147762 -0.017766
v -0.064157 -0.140430 0.079558
v -0.064157 0.140430 0.079558
v -0.070007 0.144315 -0.143404
v -0.040998 0.147762 -0.017766
v -0.023039 0.147762 -0.002666
v -0.094618 0.144315 -0.149700
v -0.069076 0.144315 -0.264696
v -0.094618 0.144315 -0.149700
v -0.094618 -0.144315 -0.149700
v -0.040998 -0.147762 -0.017766
v -0.040998 0.147762 -0.017766
v -0.070007 -0.144315 -0.143404
v -0.070007 0.144315 -0.143404
v -0.023039 0.147762 -0.002666
v -0.023039 -0.147762 -0.002666
v -0.070007 -0.144315 -0.143404
v -0.069076 -0.144315 -0.264696
v -0.069076 0.144315 -0.264696
v -0.070007 0.144315 -0.143404
v -0.069076 -0.144315 -0.264696
v -0.094618 -0.144315 -0.149700
v -0.094618 0.144315 -0.149700
v -0.069076 0.144315 -0.264696
vn 0.000000 -1.000000 0.000000
vn 0.000000 -1.000000 0.000000
vn 0.000000 -1.000000 0.000000
vn 0.000000 -1.000000 0.000000
vn 0.000000 -1.000000 0.000000
vn 0.000000 -1.000000 0.000000
vn 0.000000 -1.000000 0.000000
vn 0.000000 -1.000000 0.000000
vn 0.000000 -1.000000 0.000000
vn 0.000000 -1.000000 0.000000
vn 0.000000 1.000000 0.000000
vn 0.000000 1.000000 0.000000
vn 0.000000 1.000000 0.000000
vn 0.000000 1.000000 0.000000
vn 0.000000 1.000000 0.000000
vn 0.000000 1.000000 0.000000
vn 0.000000 1.000000 0.000000
vn 0.000000 1.000000 0.000000
vn 0.000000 1.000000 0.000000
vn 0.000000 1.000000 0.000000
vn -0.007973 -0.990302 -0.138700
vn -0.007973 -0.990302 -0.138700
vn -0.007973 -0.990302 -0.138700
vn -0.007973 -0.990302 -0.138700
vn -0.007973 0.990302 -0.138701
vn -0.007973 0.990302 -0.138701
vn -0.007973 0.990302 -0.138701
vn -0.007973 0.990302 -0.138701
vn 0.091609 -0.983010 0.159057
vn 0.091609 -0.983010 0.159057
vn 0.091609 -0.983010 0.159057
vn 0.091609 -0.983010 0.159057
vn 0.091609 0.983010 0.159057
vn 0.091609 0.983010 0.159057
vn 0.091609 0.983010 0.159057
vn 0.091609 0.983010 0.159057
vn 0.000000 -1.000000 0.000000
vn 0.000000 -1.000000 0.000000
vn 0.000000 -1.000000 0.000000
vn 0.111384 -0.993762 -0.005488
vn 0.111384 -0.993762 -0.005488
vn 0.111384 -0.993762 -0.005488
vn 0.111384 0.993762 -0.005488
vn 0.111384 0.993762 -0.005488
vn 0.111384 0.993762 -0.005488
vn 0.000000 1.000000 0.000000
vn 0.000000 1.000000 0.000000
vn 0.000000 1.000000 0.000000
vn 0.000000 -1.000000 0.000000
vn 0.000000 -1.000000 0.000000
vn 0.000000 -1.000000 0.000000
vn 0.000001 1.000000 0.000000
vn 0.000001 1.000000 0.000000
vn 0.000001 1.000000 0.000000
vn -0.040914 -0.993762 -0.103743
vn -0.040914 -0.993762 -0.103743
vn -0.040914 -0.993762 -0.103743
vn -0.040914 0.993762 -0.103743
vn -0.040914 0.993762 -0.103743
vn -0.040914 0.993762 -0.103743
vn -0.081303 -0.995164 0.055127
vn -0.081303 -0.995164 0.055127
vn -0.081303 -0.995164 0.055127
vn -0.081303 0.995164 0.055127
vn -0.081303 0.995164 0.055127
vn -0.081303 0.995164 0.055127
vn -0.052608 -0.996653 0.062567
vn -0.052608 -0.996653 0.062567
vn -0.052608 -0.996653 0.062567
vn -0.052608 0.996653 0.062567
vn -0.052608 0.996653 0.062567
vn -0.052608 0.996653 0.062567
vn -0.998995 0.000000 -0.044822
vn -0.998995 0.000000 -0.044822
vn -0.998995 0.000000 -0.044822
vn -0.998995 0.000000 -0.044822
vn -0.995076 -0.000002 -0.099118
vn -0.995076 -0.000002 -0.099118
vn -0.995076 -0.000002 -0.099118
vn -0.995076 -0.000002 -0.099118
vn 0.172082 0.978422 0.114364
vn 0.172082 0.978422 0.114364
vn 0.172082 0.978422 0.114364
vn 0.172082 0.978422 0.114364
vn 0.982900 0.000000 0.184140
vn 0.982900 0.000000 0.184140
vn 0.982900 0.000000 0.184140
vn 0.982900 0.000000 0.184140
vn -0.018703 -0.999814 0.004795
vn -0.018703 -0.999814 0.004795
vn -0.018703 -0.999814 0.004795
vn -0.018703 -0.999814 0.004795
vn -0.989160 -0.000001 -0.146844
vn -0.989160 -0.000001 -0.146844
vn -0.989160 -0.000001 -0.146844
vn -0.989160 -0.000001 -0.146844
vn -0.226240 0.000000 0.974072
vn -0.226240 0.000000 0.974072
vn -0.226240 0.000000 0.974072
vn -0.226240 0.000000 0.974072
vn -0.881189 0.000000 0.472764
vn -0.881189 0.000000 0.472764
vn -0.881189 0.000000 0.472764
vn -0.881189 0.000000 0.472764
vn 0.999528 0.000000 -0.030724
vn 0.999528 0.000000 -0.030724
vn 0.999528 0.000000 -0.030724
vn 0.999528 0.000000 -0.030724
vn -0.989160 0.000001 -0.146844
vn -0.989160 0.000001 -0.146844
vn -0.989160 0.000001 -0.146844
vn -0.989160 0.000001 -0.146844
vn 0.238501 0.000000 -0.971142
vn 0.238501 0.000000 -0.971142
vn 0.238501 0.000000 -0.971142
vn 0.238501 0.000000 -0.971142
vn 0.001117 0.000000 0.999999
vn 0.001117 0.000000 0.999999
vn 0.001117 0.000000 0.999999
vn 0.001117 0.000000 0.999999
vn 0.792528 0.000000 -0.609835
vn 0.792528 0.000000 -0.609835
vn 0.792528 0.000000 -0.609835
vn 0.792528 0.000000 -0.609835
vn 0.999846 0.000000 0.017577
vn 0.999846 0.000000 0.017577
vn 0.999846 0.000000 0.017577
vn 0.999846 0.000000 0.017577
vn 0.629891 0.000000 -0.776684
vn 0.629891 0.000000 -0.776684
vn 0.629891 0.000000 -0.776684
vn 0.629891 0.000000 -0.776684
vn -0.999487 0.000000 0.032030
vn -0.999487 0.000000 0.032030
vn -0.999487 0.000000 0.032030
vn -0.999487 0.000000 0.032030
vn 0.384902 0.000000 0.922958
vn 0.384902 0.000000 0.922958
vn 0.384902 0.000000 0.922958
vn 0.384902 0.000000 0.922958
vn 0.750854 0.000000 -0.660468
vn 0.750854 0.000000 -0.660468
vn 0.750854 0.000000 -0.660468
vn 0.750854 0.000000 -0.660468
vn -0.698434 0.000000 -0.715674
vn -0.698434 0.000000 -0.715674
vn -0.698434 0.000000 -0.715674
vn -0.698434 0.000000 -0.715674
vn 0.999994 0.000000 0.003346
vn 0.999994 0.000000 0.003346
vn 0.999994 0.000000 0.003346
vn 0.999994 0.000000 0.003346
vn -0.208426 0.000000 0.978038
vn -0.208426 0.000000 0.978038
vn -0.208426 0.000000 0.978038
vn -0.208426 0.000000 0.978038
vn 0.172082 -0.978422 0.114364
vn 0.172082 -0.978422 0.114364
vn 0.172082 -0.978422 0.114364
vn 0.172082 -0.978422 0.114364
vn 0.021750 0.000000 0.999763
vn 0.021750 0.000000 0.999763
vn 0.021750 0.000000 0.999763
vn 0.021750 0.000000 0.999763
vn -0.640031 0.000000 0.768349
vn -0.640031 0.000000 0.768349
vn -0.640031 0.000000 0.768349
vn -0.640031 0.000000 0.768349
vn 0.861955 0.000000 -0.506985
vn 0.861955 0.000000 -0.506985
vn 0.861955 0.000000 -0.506985
vn 0.861955 0.000000 -0.506985
vn -0.018703 0.999814 0.004795
vn -0.018703 0.999814 0.004795
vn -0.018703 0.999814 0.004795
vn -0.018703 0.999814 0.004795
vn 0.710293 -0.000004 0.703907
vn 0.710293 -0.000004 0.703907
vn 0.710293 -0.000004 0.703907
vn 0.710293 -0.000004 0.703907
vn 0.827060 0.000000 -0.562113
vn 0.827060 0.000000 -0.562113
vn 0.827060 0.000000 -0.562113
vn 0.827060 0.000000 -0.562113
vn -0.983032 0.000000 -0.183435
vn -0.983032 0.000000 -0.183435
vn -0.983032 0.000000 -0.183435
vn -0.983032 0.000000 -0.183435
vn -0.913921 0.000000 0.405892
vn -0.913921 0.000000 0.405892
vn -0.913921 0.000000 0.405892
vn -0.913921 0.000000 0.405892
vn -0.912189 0.000000 0.409769
vn -0.912189 0.000000 0.409769
vn 0.969569 0.000000 0.244817
vn 0.969569 0.000000 0.244817
vn 0.969569 0.000000 0.244817
vn 0.969569 0.000000 0.244817
vn 0.001117 0.000000 0.999999
vn 0.001117 0.000000 0.999999
vn 0.001117 0.000000 0.999999
vn 0.001117 0.000000 0.999999
vn -0.912189 -0.000001 0.409769
vn -0.912189 -0.000001 0.409769
vn -0.912189 -0.000001 0.409769
vn -0.912189 -0.000001 0.409769
vn -0.913921 -0.000001 0.405892
vn -0.913921 -0.000001 0.405892
vn -0.142525 0.000000 -0.989791
vn -0.142525 0.000000 -0.989791
vn -0.142525 0.000000 -0.989791
vn -0.142525 0.000000 -0.989791
vn 0.827060 0.000000 -0.562113
vn 0.827060 0.000000 -0.562113
vn 0.827060 0.000000 -0.562113
vn 0.827060 0.000000 -0.562113
vn 0.710293 0.000005 0.703906
vn 0.710293 0.000005 0.703906
vn 0.710293 0.000005 0.703906
vn 0.710293 0.000005 0.703906
vn 0.792528 0.000000 -0.609835
vn 0.792528 0.000000 -0.609835
vn 0.792528 0.000000 -0.609835
vn 0.792528 0.000000 -0.609835
vn 0.155504 0.000000 0.987835
vn 0.155504 0.000000 0.987835
vn 0.155504 0.000000 0.987835
vn 0.155504 0.000000 0.987835
vn 0.054512 0.000000 0.998513
vn 0.054512 0.000000 0.998513
vn 0.054512 0.000000 0.998513
vn 0.054512 0.000000 0.998513
vn 0.000000 1.000000 0.000000
vn 0.000000 1.000000 0.000000
vn 0.000000 1.000000 0.000000
vn 0.000000 1.000000 0.000000
vn 0.000000 1.000000 0.000000
vn 0.000000 1.000000 0.000000
vn 0.000000 1.000000 0.000000
vn 0.000000 1.000000 0.000000
vn 0.000000 1.000000 0.000000
vn 0.000000 1.000000 0.000000
vn 0.000000 1.000000 0.000000
vn 0.000000 1.000000 0.000000
vn 0.000000 1.000000 0.000000
vn 0.000000 1.000000 0.000000
vn 0.000000 1.000000 0.000000
vn 0.000000 1.000000 0.000000
vn 0.025874 0.999398 0.023125
vn 0.025874 0.999398 0.023125
vn 0.998022 0.000000 -0.062872
vn 0.998022 0.000000 -0.062872
vn 0.998022 0.000000 -0.062872
vn 0.998022 0.000000 -0.062872
vn 0.117575 0.000000 -0.993064
vn 0.117575 0.000000 -0.993064
vn 0.117575 0.000000 -0.993064
vn 0.117575 0.000000 -0.993064
vn 0.000000 -1.000000 0.000000
vn 0.000000 -1.000000 0.000000
vn 0.000000 -1.000000 0.000000
vn 0.000000 -1.000000 0.000000
vn 0.000000 -1.000000 0.000000
vn 0.000000 -1.000000 0.000000
vn 0.000000 -1.000000 0.000000
vn 0.000000 -1.000000 0.000000
vn 0.000000 -1.000000 0.000000
vn 0.000000 -1.000000 0.000000
vn 0.000000 -1.000000 0.000000
vn 0.000000 -1.000000 0.000000
vn 0.000000 -1.000000 0.000000
vn 0.000000 -1.000000 0.000000
vn 0.000000 -1.000000 0.000000
vn 0.000000 -1.000000 0.000000
vn 0.025874 -0.999398 0.023125
vn 0.025874 -0.999398 0.023125
vn -0.017542 0.000000 -0.999846
vn -0.017542 0.000000 -0.999846
vn -0.017542 0.000000 -0.999846
vn -0.017542 0.000000 -0.999846
vn -0.998976 0.000000 -0.045243
vn -0.998976 0.000000 -0.045243
vn -0.998976 0.000000 -0.045243
vn -0.998976 0.000000 -0.045243
vn -0.068461 0.000000 0.997654
vn -0.068461 0.000000 0.997654
vn -0.068461 0.000000 0.997654
vn -0.068461 0.000000 0.997654
vn -0.709569 0.000000 -0.704636
vn -0.709569 0.000000 -0.704636
vn -0.709569 0.000000 -0.704636
vn -0.709569 0.000000 -0.704636
vn -0.165308 -0.986214 -0.007486
vn -0.165308 -0.986214 -0.007486
vn -0.165308 -0.986214 -0.007486
vn -0.165308 -0.986214 -0.007486
vn -0.165308 0.986214 -0.007486
vn -0.165308 0.986214 -0.007486
vn -0.165308 0.986214 -0.007486
vn -0.165308 0.986214 -0.007486
vn -0.697355 0.000000 0.716726
vn -0.697355 0.000000 0.716726
vn -0.697355 0.000000 0.716726
vn -0.697355 0.000000 0.716726
vn -0.076500 0.000000 -0.997070
vn -0.076500 0.000000 -0.997070
vn -0.076500 0.000000 -0.997070
vn -0.076500 0.000000 -0.997070
vn 0.164382 -0.986393 -0.002600
vn 0.164382 -0.986393 -0.002600
vn 0.164382 -0.986393 -0.002600
vn 0.164382 -0.986393 -0.002600
vn 0.729254 0.000000 0.684243
vn 0.729254 0.000000 0.684243
vn 0.729254 0.000000 0.684243
vn 0.729254 0.000000 0.684243
vn 0.164382 0.986393 -0.002600
vn 0.164382 0.986393 -0.002600
vn 0.164382 0.986393 -0.002600
vn 0.164382 0.986393 -0.002600
vn 0.673405 0.000000 -0.739274
vn 0.673405 0.000000 -0.739274
vn 0.673405 0.000000 -0.739274
vn 0.673405 0.000000 -0.739274
vn -0.854865 0.000000 0.518851
vn -0.854865 0.000000 0.518851
vn -0.854865 0.000000 0.518851
vn -0.854865 0.000000 0.518851
vn 0.936282 0.000000 0.351250
vn 0.936282 0.000000 0.351250
vn 0.936282 0.000000 0.351250
vn 0.936282 0.000000 0.351250
vn -0.979590 0.000000 0.201006
vn -0.979590 0.000000 0.201006
vn -0.979590 0.000000 0.201006
vn -0.979590 0.000000 0.201006
vn 0.741931 0.000000 0.670477
vn 0.741931 0.000000 0.670477
vn 0.741931 0.000000 0.670477
vn 0.741931 0.000000 0.670477
vn 0.999476 0.000000 0.032371
vn 0.999476 0.000000 0.032371
vn 0.999476 0.000000 0.032371
vn 0.999476 0.000000 0.032371
vn -0.966527 0.000000 0.256565
vn -0.966527 0.000000 0.256565
vn -0.966527 0.000000 0.256565
vn -0.966527 0.000000 0.256565
vn 0.972281 0.000000 -0.233817
vn 0.972281 0.000000 -0.233817
vn 0.972281 0.000000 -0.233817
vn 0.972281 0.000000 -0.233817
vn -0.101806 0.000000 0.994804
vn -0.101806 0.000000 0.994804
vn -0.101806 0.000000 0.994804
vn -0.101806 0.000000 0.994804
vn -0.844312 0.000000 0.535852
vn -0.844312 0.000000 0.535852
vn -0.844312 0.000000 0.535852
vn -0.844312 0.000000 0.535852
vn 0.865093 0.000000 -0.501611
vn 0.865093 0.000000 -0.501611
vn 0.865093 0.000000 -0.501611
vn 0.865093 0.000000 -0.501611
vn -0.538987 0.000000 0.842314
vn -0.538987 0.000000 0.842314
vn -0.538987 0.000000 0.842314
vn -0.538987 0.000000 0.842314
vn 0.795653 0.000000 -0.605753
vn 0.795653 0.000000 -0.605753
vn 0.795653 0.000000 -0.605753
vn 0.795653 0.000000 -0.605753
vn -0.000177 -0.980856 0.194733
vn -0.000177 -0.980856 0.194733
vn -0.000177 -0.980856 0.194733
vn -0.000177 -0.980856 0.194733
vn 0.995419 0.000000 0.095609
vn 0.995419 0.000000 0.095609
vn 0.995419 0.000000 0.095609
vn 0.995419 0.000000 0.095609
vn 0.002969 -0.993248 0.115973
vn 0.002969 -0.993248 0.115973
vn 0.002969 -0.993248 0.115973
vn 0.002969 -0.993248 0.115973
vn -0.994078 0.000000 -0.108666
vn -0.994078 0.000000 -0.108666
vn -0.994078 0.000000 -0.108666
vn -0.994078 0.000000 -0.108666
vn 0.002969 0.993248 0.115972
vn 0.002969 0.993248 0.115972
vn 0.002969 0.993248 0.115972
vn 0.002969 0.993248 0.115972
vn 0.973634 0.000000 0.228115
vn 0.973634 0.000000 0.228115
vn 0.973634 0.000000 0.228115
vn 0.973634 0.000000 0.228115
vn 0.730822 0.000000 -0.682568
vn 0.730822 0.000000 -0.682568
vn 0.730822 0.000000 -0.682568
vn 0.730822 0.000000 -0.682568
vn -0.797374 0.000000 0.603486
vn -0.797374 0.000000 0.603486
vn -0.797374 0.000000 0.603486
vn -0.797374 0.000000 0.603486
vn -0.000177 0.980856 0.194732
vn -0.000177 0.980856 0.194732
vn -0.000177 0.980856 0.194732
vn -0.000177 0.980856 0.194732
vn 0.182415 -0.979447 -0.086077
vn 0.182415 -0.979447 -0.086077
vn 0.182415 -0.979447 -0.086077
vn 0.182415 -0.979447 -0.086077
vn 0.219929 -0.968947 -0.113021
vn 0.219929 -0.968947 -0.113021
vn 0.228959 0.972334 0.046310
vn 0.228959 0.972334 0.046310
vn 0.228959 0.972334 0.046310
vn 0.228959 0.972334 0.046310
vn -0.881052 0.000000 -0.473019
vn -0.881052 0.000000 -0.473019
vn -0.881052 0.000000 -0.473019
vn -0.881052 0.000000 -0.473019
vn 0.051282 0.991863 0.116528
vn 0.051282 0.991863 0.116528
vn 0.051282 0.991863 0.116528
vn 0.051282 0.991863 0.116528
vn 0.021547 0.980416 -0.195754
vn 0.021547 0.980416 -0.195754
vn 0.021547 0.980416 -0.195754
vn 0.021547 0.980416 -0.195754
vn -0.000083 0.987847 -0.155431
vn -0.000083 0.987847 -0.155431
vn -0.233502 -0.972329 0.007338
vn -0.233502 -0.972329 0.007338
vn -0.233502 -0.972329 0.007338
vn -0.233502 -0.972329 0.007338
vn 0.228959 -0.972334 0.046310
vn 0.228959 -0.972334 0.046310
vn 0.228959 -0.972334 0.046310
vn 0.228959 -0.972334 0.046310
vn 0.051282 -0.991863 0.116528
vn 0.051282 -0.991863 0.116528
vn 0.051282 -0.991863 0.116528
vn 0.051282 -0.991863 0.116528
vn 0.127507 -0.978838 0.160054
vn 0.127507 -0.978838 0.160054
vn 0.127507 -0.978838 0.160054
vn 0.127507 -0.978838 0.160054
vn -0.216773 -0.975381 -0.040527
vn -0.216773 -0.975381 -0.040527
vn -0.216773 -0.975381 -0.040527
vn -0.216773 -0.975381 -0.040527
vn -0.241713 0.951496 0.190343
vn -0.241713 0.951496 0.190343
vn -0.241713 0.951496 0.190343
vn -0.241713 0.951496 0.190343
vn -0.223776 0.962337 0.154374
vn -0.223776 0.962337 0.154374
vn -0.047944 0.982053 -0.182411
vn -0.047944 0.982053 -0.182411
vn -0.047944 0.982053 -0.182411
vn -0.047944 0.982053 -0.182411
vn -0.233502 0.972329 0.007338
vn -0.233502 0.972329 0.007338
vn -0.233502 0.972329 0.007338
vn -0.233502 0.972329 0.007338
vn -0.223776 -0.962337 0.154375
vn -0.223776 -0.962337 0.154375
vn -0.223776 -0.962337 0.154375
vn -0.223776 -0.962337 0.154375
vn -0.241713 -0.951496 0.190343
vn -0.241713 -0.951496 0.190343
vn -0.216773 0.975381 -0.040527
vn -0.216773 0.975381 -0.040527
vn -0.216773 0.975381 -0.040527
vn -0.216773 0.975381 -0.040527
vn 0.021547 -0.980416 -0.195754
vn 0.021547 -0.980416 -0.195754
vn 0.021547 -0.980416 -0.195754
vn 0.021547 -0.980416 -0.195754
vn -0.000083 -0.987847 -0.155431
vn -0.000083 -0.987847 -0.155431
vn 0.219929 0.968947 -0.113021
vn 0.219929 0.968947 -0.113021
vn 0.219929 0.968947 -0.113021
vn 0.219929 0.968947 -0.113021
vn 0.182415 0.979447 -0.086077
vn 0.182415 0.979447 -0.086077
vn 0.090970 -0.984916 0.147187
vn 0.090970 -0.984916 0.147187
vn 0.090970 -0.984916 0.147187
vn 0.090970 -0.984916 0.147187
vn 0.276539 -0.960965 0.008463
vn 0.276539 -0.960965 0.008463
vn 0.276539 -0.960965 0.008463
vn 0.276539 -0.960965 0.008463
vn -0.047944 -0.982053 -0.182411
vn -0.047944 -0.982053 -0.182411
vn -0.047944 -0.982053 -0.182411
vn -0.047944 -0.982053 -0.182411
vn 0.276539 0.960965 0.008463
vn 0.276539 0.960965 0.008463
vn 0.276539 0.960965 0.008463
vn 0.276539 0.960965 0.008463
vn 0.090970 0.984917 0.147187
vn 0.090970 0.984917 0.147187
vn 0.090970 0.984917 0.147187
vn 0.090970 0.984917 0.147187
vn 0.127507 0.978838 0.160054
vn 0.127507 0.978838 0.160054
vn 0.127507 0.978838 0.160054
vn 0.127507 0.978838 0.160054
vn -0.998995 0.000000 -0.044822
vn -0.998995 0.000000 -0.044822
vn -0.998995 0.000000 -0.044822
vn -0.998995 0.000000 -0.044822
vn -0.973697 0.000000 -0.227849
vn -0.973697 0.000000 -0.227849
vn -0.973697 0.000000 -0.227849
vn -0.973697 0.000000 -0.227849
vn -0.995076 0.000001 -0.099119
vn -0.995076 0.000001 -0.099119
vn -0.995076 0.000001 -0.099119
vn -0.995076 0.000001 -0.099119
vn 0.104453 -0.992371 0.065496
vn 0.104453 -0.992371 0.065496
vn 0.104453 -0.992371 0.065496
vn 0.104453 -0.992371 0.065496
vn 0.000000 -1.000000 0.000000
vn 0.000000 -1.000000 0.000000
vn 0.000000 -1.000000 0.000000
vn 0.000000 -1.000000 0.000000
vn 0.062167 0.000000 0.998066
vn 0.062167 0.000000 0.998066
vn 0.062167 0.000000 0.998066
vn 0.062167 0.000000 0.998066
vn 0.226758 0.000000 -0.973951
vn 0.226758 0.000000 -0.973951
vn 0.226758 0.000000 -0.973951
vn 0.226758 0.000000 -0.973951
vn 0.999528 0.000000 -0.030724
vn 0.999528 0.000000 -0.030724
vn 0.999528 0.000000 -0.030724
vn 0.999528 0.000000 -0.030724
vn -0.164857 0.000000 -0.986318
vn -0.164857 0.000000 -0.986318
vn -0.164857 0.000000 -0.986318
vn -0.164857 0.000000 -0.986318
vn 0.982900 0.000000 0.184140
vn 0.982900 0.000000 0.184140
vn 0.982900 0.000000 0.184140
vn 0.982900 0.000000 0.184140
vn 0.728273 0.000000 -0.685287
vn 0.728273 0.000000 -0.685287
vn 0.728273 0.000000 -0.685287
vn 0.728273 0.000000 -0.685287
vn -0.129390 0.990909 0.036855
vn -0.129390 0.990909 0.036855
vn -0.129390 0.990909 0.036855
vn -0.129390 0.990909 0.036855
vn 0.226757 0.000000 -0.973951
vn 0.226757 0.000000 -0.973951
vn 0.226757 0.000000 -0.973951
vn 0.226757 0.000000 -0.973951
vn 0.104453 0.992371 0.065496
vn 0.104453 0.992371 0.065496
vn 0.104453 0.992371 0.065496
vn 0.104453 0.992371 0.065496
vn 0.896124 0.000000 -0.443804
vn 0.896124 0.000000 -0.443804
vn 0.896124 0.000000 -0.443804
vn 0.896124 0.000000 -0.443804
vn -0.129390 -0.990909 0.036855
vn -0.129390 -0.990909 0.036855
vn -0.129390 -0.990909 0.036855
vn -0.129390 -0.990909 0.036855
vn -0.819564 0.000000 0.572988
vn -0.819564 0.000000 0.572988
vn -0.819564 0.000000 0.572988
vn -0.819564 0.000000 0.572988
vn -0.425060 -0.000002 -0.905165
vn -0.425060 -0.000002 -0.905165
vn -0.425060 -0.000002 -0.905165
vn -0.425060 -0.000002 -0.905165
vn -0.779337 0.000000 0.626605
vn -0.779337 0.000000 0.626605
vn -0.779337 0.000000 0.626605
vn -0.779337 0.000000 0.626605
vn 0.843176 0.000000 0.537638
vn 0.843176 0.000000 0.537638
vn 0.843176 0.000000 0.537638
vn 0.843176 0.000000 0.537638
vn -0.812160 -0.000002 0.583434
vn -0.812160 -0.000002 0.583434
vn -0.812160 -0.000002 0.583434
vn -0.812160 -0.000002 0.583434
vn 0.772746 0.000000 0.634715
vn 0.772746 0.000000 0.634715
vn 0.772746 0.000000 0.634715
vn 0.772746 0.000000 0.634715
vn -0.783176 0.000000 -0.621800
vn -0.783176 0.000000 -0.621800
vn -0.783176 0.000000 -0.621800
vn -0.783176 0.000000 -0.621800
vn -0.425060 0.000002 -0.905165
vn -0.425060 0.000002 -0.905165
vn -0.425060 0.000002 -0.905165
vn -0.425060 0.000002 -0.905165
vn -0.000032 0.000000 -1.000000
vn -0.000032 0.000000 -1.000000
vn -0.000032 0.000000 -1.000000
vn -0.000032 0.000000 -1.000000
vn -0.812160 0.000002 0.583434
vn -0.812160 0.000002 0.583434
vn -0.812160 0.000002 0.583434
vn -0.812160 0.000002 0.583434
vn 0.000000 1.000000 0.000000
vn 0.000000 1.000000 0.000000
vn 0.000000 1.000000 0.000000
vn 0.000000 1.000000 0.000000
vn 0.248201 0.000000 -0.968709
vn 0.248201 0.000000 -0.968709
vn 0.248201 0.000000 -0.968709
vn 0.248201 0.000000 -0.968709
vn 0.010539 -0.999814 0.016178
vn 0.010539 -0.999814 0.016178
vn 0.010539 -0.999814 0.016178
vn 0.010539 -0.999814 0.016178
vn 0.995181 0.000000 -0.098050
vn 0.995181 0.000000 -0.098050
vn 0.995181 0.000000 -0.098050
vn 0.995181 0.000000 -0.098050
vn -0.996338 0.000000 0.085498
vn -0.996338 0.000000 0.085498
vn -0.996338 0.000000 0.085498
vn -0.996338 0.000000 0.085498
vn 0.939997 0.000000 -0.341184
vn 0.939997 0.000000 -0.341184
vn 0.939997 0.000000 -0.341184
vn 0.939997 0.000000 -0.341184
vn 0.010539 0.999814 0.016177
vn 0.010539 0.999814 0.016177
vn 0.010539 0.999814 0.016177
vn 0.010539 0.999814 0.016177
vn -0.891823 0.000000 0.452384
vn -0.891823 0.000000 0.452384
vn -0.891823 0.000000 0.452384
vn -0.891823 0.000000 0.452384
vn 0.885808 0.000000 -0.464052
vn 0.885808 0.000000 -0.464052
vn 0.885808 0.000000 -0.464052
vn 0.885808 0.000000 -0.464052
vn 0.096406 0.000000 0.995342
vn 0.096406 0.000000 0.995342
vn 0.096406 0.000000 0.995342
vn 0.096406 0.000000 0.995342
vn 0.000000 -1.000000 0.000000
vn 0.000000 -1.000000 0.000000
vn 0.000000 -1.000000 0.000000
vn 0.000000 -1.000000 0.000000
vn 0.076399 0.990909 0.110740
vn 0.076399 0.990909 0.110740
vn 0.076399 0.990909 0.110740
vn 0.076399 0.990909 0.110740
vn 0.076400 -0.990909 0.110740
vn 0.076400 -0.990909 0.110740
vn 0.076400 -0.990909 0.110740
vn 0.076400 -0.990909 0.110740
vn 0.238876 0.000000 -0.971050
vn 0.238876 0.000000 -0.971050
vn 0.238876 0.000000 -0.971050
vn 0.238876 0.000000 -0.971050
vn -0.337834 0.000000 0.941206
vn -0.337834 0.000000 0.941206
vn -0.337834 0.000000 0.941206
vn -0.337834 0.000000 0.941206
vn 0.000000 1.000000 0.000000
vn 0.000000 1.000000 0.000000
vn 0.000000 1.000000 0.000000
vn 0.000000 1.000000 0.000000
vn -0.997144 0.000000 0.075529
vn -0.997144 0.000000 0.075529
vn -0.997144 0.000000 0.075529
vn -0.997144 0.000000 0.075529
vn 0.181106 -0.965796 -0.185577
vn 0.181106 -0.965796 -0.185577
vn 0.181106 -0.965796 -0.185577
vn 0.181106 -0.965796 -0.185577
vn -0.313038 0.000000 -0.949741
vn -0.313038 0.000000 -0.949741
vn -0.313038 0.000000 -0.949741
vn -0.313038 0.000000 -0.949741
vn 0.301040 0.000000 0.953612
vn 0.301040 0.000000 0.953612
vn 0.301040 0.000000 0.953612
vn 0.301040 0.000000 0.953612
vn -0.538248 0.000000 -0.842787
vn -0.538248 0.000000 -0.842787
vn -0.538248 0.000000 -0.842787
vn -0.538248 0.000000 -0.842787
vn 0.181106 0.965796 -0.185577
vn 0.181106 0.965796 -0.185577
vn 0.181106 0.965796 -0.185577
vn 0.181106 0.965796 -0.185577
vn 0.636242 0.000000 0.771489
vn 0.636242 0.000000 0.771489
vn 0.636242 0.000000 0.771489
vn 0.636242 0.000000 0.771489
vn -0.646314 0.000000 -0.763071
vn -0.646314 0.000000 -0.763071
vn -0.646314 0.000000 -0.763071
vn -0.646314 0.000000 -0.763071
vn 0.950256 0.000000 -0.311469
vn 0.950256 0.000000 -0.311469
vn 0.950256 0.000000 -0.311469
vn 0.950256 0.000000 -0.311469
vn 0.000000 -1.000000 0.000000
vn 0.000000 -1.000000 0.000000
vn 0.000000 -1.000000 0.000000
vn 0.000000 -1.000000 0.000000
vn 0.070464 0.994604 -0.076139
vn 0.070464 0.994604 -0.076139
vn 0.070464 0.994604 -0.076139
vn 0.070464 0.994604 -0.076139
vn 0.070464 -0.994604 -0.076139
vn 0.070464 -0.994604 -0.076139
vn 0.070464 -0.994604 -0.076139
vn 0.070464 -0.994604 -0.076139
vn -0.999779 0.000000 -0.021027
vn -0.999779 0.000000 -0.021027
vn -0.999779 0.000000 -0.021027
vn -0.999779 0.000000 -0.021027
vn 0.992268 0.000000 0.124113
vn 0.992268 0.000000 0.124113
vn 0.992268 0.000000 0.124113
vn 0.992268 0.000000 0.124113
vn 0.000000 1.000000 0.000000
vn 0.000000 1.000000 0.000000
vn 0.000000 1.000000 0.000000
vn 0.000000 1.000000 0.000000
vn 0.291489 0.000000 0.956574
vn 0.291489 0.000000 0.956574
vn 0.291489 0.000000 0.956574
vn 0.291489 0.000000 0.956574
vn 0.015593 -0.999397 -0.031020
vn 0.015593 -0.999397 -0.031020
vn 0.015593 -0.999397 -0.031020
vn 0.015593 -0.999397 -0.031020
vn 0.000000 -1.000000 0.000000
vn 0.894401 0.000000 0.447267
vn 0.894401 0.000000 0.447267
vn 0.894401 0.000000 0.447267
vn 0.894401 0.000000 0.447267
vn -0.972836 0.000000 -0.231494
vn -0.972836 0.000000 -0.231494
vn -0.972836 0.000000 -0.231494
vn -0.972836 0.000000 -0.231494
vn 0.015593 0.999397 -0.031020
vn 0.015593 0.999397 -0.031020
vn 0.015593 0.999397 -0.031020
vn 0.015593 0.999397 -0.031020
vn 0.000000 1.000000 0.000000
vn -0.926412 0.000000 0.376511
vn -0.926412 0.000000 0.376511
vn -0.926412 0.000000 0.376511
vn -0.926412 0.000000 0.376511
vn 0.948571 0.000000 -0.316566
vn 0.948571 0.000000 -0.316566
vn 0.948571 0.000000 -0.316566
vn 0.948571 0.000000 -0.316566
vn 0.999971 0.000000 0.007678
vn 0.999971 0.000000 0.007678
vn 0.999971 0.000000 0.007678
vn 0.999971 0.000000 0.007678
vn -0.976209 0.000000 -0.216831
vn -0.976209 0.000000 -0.216831
vn -0.976209 0.000000 -0.216831
vn -0.976209 0.000000 -0.216831
g Steak_DarkRed
usemtl DarkRed
f 1 2 3
f 1 3 4
f 5 1 4
f 5 4 6
f 7 5 6
f 7 6 8
f 9 7 8
f 9 8 10
f 11 12 13
f 11 13 14
f 15 11 14
f 15 14 16
f 17 15 16
f 17 16 18
f 19 17 18
f 19 18 20
f 21 22 23
f 21 23 24
f 25 26 27
f 25 27 28
f 29 30 31
f 29 31 32
f 33 34 35
f 33 35 36
g Steak_White
usemtl White
f 37 38 39
f 40 41 42
f 43 44 45
f 46 47 48
f 49 50 51
f 52 53 54
f 55 56 57
f 58 59 60
f 61 62 63
f 64 65 66
f 67 68 69
f 70 71 72
f 73 74 75
f 73 75 76
f 77 78 79
f 77 79 80
f 81 82 83
f 81 83 84
f 85 86 87
f 85 87 88
f 89 90 91
f 89 91 92
f 93 94 95
f 93 95 96
f 97 98 99
f 97 99 100
f 101 102 103
f 101 103 104
f 105 106 107
f 105 107 108
f 109 110 111
f 109 111 112
f 113 114 115
f 113 115 116
f 117 118 119
f 117 119 120
f 121 122 123
f 121 123 124
f 125 126 127
f 125 127 128
f 129 130 131
f 129 131 132
f 133 134 135
f 133 135 136
f 137 138 139
f 137 139 140
f 141 142 143
f 141 143 144
f 145 146 147
f 145 147 148
f 149 150 151
f 149 151 152
f 153 154 155
f 153 155 156
f 157 158 159
f 157 159 160
f 161 162 163
f 161 163 164
f 165 166 167
f 165 167 168
f 169 170 171
f 169 171 172
f 173 174 175
f 173 175 176
f 177 178 179
f 177 179 180
f 181 182 183
f 181 183 184
f 185 186 187
f 185 187 188
f 189 190 191
f 189 191 192
f 192 191 193
f 192 193 194
f 195 196 197
f 195 197 198
f 199 200 201
f 199 201 202
f 203 204 205
f 203 205 206
f 206 205 207
f 206 207 208
f 209 210 211
f 209 211 212
f 213 214 215
f 213 215 216
f 217 218 219
f 217 219 220
f 221 222 223
f 221 223 224
f 225 226 227
f 225 227 228
f 229 230 231
f 229 231 232
f 233 234 235
f 233 236 234
f 233 237 236
f 233 238 237
f 237 239 236
f 238 240 237
f 238 241 240
f 237 242 239
f 242 243 239
f 242 244 243
f 244 245 243
f 244 246 245
f 246 247 245
f 246 248 247
f 249 247 248
f 249 248 250
f 251 252 253
f 251 253 254
f 255 256 257
f 255 257 258
f 259 260 261
f 259 261 262
f 263 259 262
f 263 262 264
f 265 263 264
f 265 266 263
f 263 267 259
f 263 268 267
f 268 269 267
f 268 270 269
f 270 271 269
f 270 272 271
f 272 273 271
f 272 274 273
f 275 273 274
f 275 274 276
f 277 278 279
f 277 279 280
f 281 282 283
f 281 283 284
f 285 286 287
f 285 287 288
f 289 290 291
f 289 291 292
f 293 294 295
f 293 295 296
f 297 298 299
f 297 299 300
f 301 302 303
f 301 303 304
f 305 306 307
f 305 307 308
f 309 310 311
f 309 311 312
f 313 314 315
f 313 315 316
f 317 318 319
f 317 319 320
f 321 322 323
f 321 323 324
f 325 326 327
f 325 327 328
f 329 330 331
f 329 331 332
f 333 334 335
f 333 335 336
f 337 338 339
f 337 339 340
f 341 342 343
f 341 343 344
f 345 346 347
f 345 347 348
f 349 350 351
f 349 351 352
f 353 354 355
f 353 355 356
f 357 358 359
f 357 359 360
f 361 362 363
f 361 363 364
f 365 366 367
f 365 367 368
f 369 370 371
f 369 371 372
f 373 374 375
f 373 375 376
f 377 378 379
f 377 379 380
f 381 382 383
f 381 383 384
f 385 386 387
f 385 387 388
f 389 390 391
f 389 391 392
f 393 394 395
f 393 395 396
f 397 398 399
f 397 399 400
f 401 402 403
f 401 403 404
f 405 406 407
f 405 407 408
f 409 410 411
f 409 412 410
f 413 412 409
f 413 414 412
f 415 416 417
f 415 417 418
f 419 420 421
f 419 421 422
f 423 424 425
f 423 425 426
f 427 428 429
f 427 429 430
f 430 429 431
f 430 431 432
f 433 434 435
f 433 435 436
f 437 438 439
f 437 439 440
f 441 442 443
f 441 443 444
f 445 446 447
f 445 447 448
f 449 450 451
f 449 451 452
f 453 454 455
f 453 456 454
f 457 456 453
f 457 458 456
f 459 460 461
f 459 461 462
f 463 464 465
f 463 465 466
f 467 468 469
f 467 470 468
f 471 470 467
f 471 472 470
f 473 474 475
f 473 475 476
f 477 478 479
f 477 480 478
f 481 480 477
f 481 482 480
f 483 484 485
f 483 486 484
f 487 486 483
f 487 488 486
f 489 490 491
f 489 491 492
f 493 494 495
f 493 495 496
f 497 498 499
f 497 499 500
f 501 502 503
f 501 503 504
f 505 506 507
f 505 507 508
f 509 510 511
f 509 511 512
f 513 514 515
f 513 515 516
f 517 518 519
f 517 519 520
f 521 522 523
f 521 523 524
f 525 526 527
f 525 527 528
f 529 530 531
f 529 531 532
f 533 534 535
f 533 535 536
f 537 538 539
f 537 539 540
f 541 542 543
f 541 543 544
f 545 546 547
f 545 547 548
f 549 550 551
f 549 551 552
f 553 554 555
f 553 555 556
f 557 558 559
f 557 559 560
f 561 562 563
f 561 563 564
f 565 566 567
f 565 567 568
f 569 570 571
f 569 571 572
f 573 574 575
f 573 575 576
f 577 578 579
f 577 579 580
f 581 582 583
f 581 583 584
f 585 586 587
f 585 587 588
f 589 590 591
f 589 591 592
f 593 594 595
f 593 595 596
f 597 598 599
f 597 599 600
f 601 602 603
f 601 603 604
f 605 606 607
f 605 607 608
f 609 610 611
f 609 611 612
f 613 614 615
f 613 615 616
f 617 618 619
f 617 619 620
f 621 622 623
f 621 623 624
f 625 626 627
f 625 627 628
f 629 630 631
f 629 631 632
f 633 634 635
f 633 635 636
f 637 638 639
f 637 639 640
f 641 642 643
f 641 643 644
f 645 646 647
f 645 647 648
f 649 650 651
f 649 651 652
f 653 654 655
f 653 655 656
f 657 658 659
f 657 659 660
f 661 662 663
f 661 663 664
f 665 666 667
f 665 667 668
f 669 670 671
f 669 671 672
f 673 674 675
f 673 675 676
f 677 678 679
f 677 679 680
f 681 682 683
f 681 683 684
f 685 686 687
f 685 687 688
f 689 690 691
f 689 691 692
f 693 694 695
f 693 695 696
f 697 698 699
f 697 699 700
f 701 702 703
f 701 703 704
f 705 706 707
f 705 707 708
f 709 710 711
f 709 711 712
f 713 714 715
f 713 715 716
f 717 718 719
f 717 719 720
f 721 722 723
f 721 723 724
f 725 726 727
f 725 727 728
f 729 730 731
f 729 731 732
f 733 734 735
f 733 735 736
f 737 738 739
f 737 739 740
f 741 742 743
f 741 743 744
f 745 746 747
f 745 748 746
f 745 749 748
f 750 751 752
f 750 752 753
f 754 755 756
f 754 756 757
f 758 759 760
f 758 761 759
f 758 762 761
f 763 764 765
f 763 765 766
f 767 768 769
f 767 769 770
f 771 772 773
f 771 773 774
f 775 776 777
f 775 777 778
