mtllib Materials.mtl
# Ultimate Food Pack - Sushi_Roll2
o Sushi_Roll2
v 0.000000 -0.077174 -0.146296
v -0.103447 -0.077174 -0.103447
v -0.103447 0.077174 -0.103447
v 0.000000 0.077174 -0.146296
v -0.103447 -0.077174 -0.103447
v -0.146296 -0.077174 0.000000
v -0.146296 0.077174 0.000000
v -0.103447 0.077174 -0.103447
v -0.146296 -0.077174 0.000000
v -0.103447 -0.077174 0.103447
v -0.103447 0.077174 0.103447
v -0.146296 0.077174 0.000000
v -0.103447 -0.077174 0.103447
v 0.000000 -0.077174 0.146296
v 0.000000 0.077174 0.146296
v -0.103447 0.077174 0.103447
v 0.000000 -0.077174 0.146296
v 0.103447 -0.077174 0.103447
v 0.103447 0.077174 0.103447
v 0.000000 0.077174 0.146296
v 0.103447 -0.077174 0.103447
v 0.146296 -0.077174 0.000000
v 0.146296 0.077174 0.000000
v 0.103447 0.077174 0.103447
v 0.146296 -0.077174 0.000000
v 0.103447 -0.077174 -0.103447
v 0.103447 0.077174 -0.103447
v 0.146296 0.077174 0.000000
v 0.103447 -0.077174 -0.103447
v 0.000000 -0.077174 -0.146296
v 0.000000 0.077174 -0.146296
v 0.103447 0.077174 -0.103447
v 0.000000 0.076472 0.124332
v 0.000000 0.065394 0.124332
v -0.087916 0.065394 0.087916
v -0.087916 0.076472 0.087916
v 0.087916 -0.076472 -0.087916
v 0.087916 -0.065394 -0.087916
v 0.000000 -0.065394 -0.124332
v 0.000000 -0.076472 -0.124332
v 0.000000 -0.076472 -0.124332
v 0.000000 -0.065394 -0.124332
v -0.087916 -0.065394 -0.087916
v -0.087916 -0.076472 -0.087916
v 0.000000 0.076472 -0.124332
v 0.000000 0.065394 -0.124332
v 0.087916 0.065394 -0.087916
v 0.087916 0.076472 -0.087916
v 0.000000 -0.076472 0.124332
v 0.000000 -0.065394 0.124332
v 0.087916 -0.065394 0.087916
v 0.087916 -0.076472 0.087916
v -0.087916 0.076472 -0.087916
v -0.087916 0.065394 -0.087916
v 0.000000 0.065394 -0.124332
v 0.000000 0.076472 -0.124332
v 0.087916 0.076472 0.087916
v 0.087916 0.065394 0.087916
v 0.000000 0.065394 0.124332
v 0.000000 0.076472 0.124332
v -0.087916 -0.076472 -0.087916
v -0.087916 -0.065394 -0.087916
v -0.124332 -0.065394 0.000000
v -0.124332 -0.076472 0.000000
v 0.087916 -0.076472 0.087916
v 0.087916 -0.065394 0.087916
v 0.124332 -0.065394 0.000000
v 0.124332 -0.076472 0.000000
v -0.124332 0.076472 0.000000
v -0.124332 0.065394 0.000000
v -0.087916 0.065394 -0.087916
v -0.087916 0.076472 -0.087916
v 0.124332 0.076472 0.000000
v 0.124332 0.065394 0.000000
v 0.087916 0.065394 0.087916
v 0.087916 0.076472 0.087916
v -0.124332 -0.076472 0.000000
v -0.124332 -0.065394 0.000000
v -0.087916 -0.065394 0.087916
v -0.087916 -0.076472 0.087916
v 0.124332 -0.076472 0.000000
v 0.124332 -0.065394 0.000000
v 0.087916 -0.065394 -0.087916
v 0.087916 -0.076472 -0.087916
v -0.087916 0.076472 0.087916
v -0.087916 0.065394 0.087916
v -0.124332 0.065394 0.000000
v -0.124332 0.076472 0.000000
v 0.087916 0.076472 -0.087916
v 0.087916 0.065394 -0.087916
v 0.124332 0.065394 0.000000
v 0.124332 0.076472 0.000000
v -0.087916 -0.076472 0.087916
v -0.087916 -0.065394 0.087916
v 0.000000 -0.065394 0.124332
v 0.000000 -0.076472 0.124332
v 0.103447 -0.077174 -0.103447
v 0.000000 -0.076472 -0.124332
v 0.000000 -0.077174 -0.146296
v 0.087916 -0.076472 -0.087916
v -0.087916 -0.076472 -0.087916
v 0.146296 -0.077174 0.000000
v -0.103447 -0.077174 -0.103447
v 0.124332 -0.076472 0.000000
v -0.124332 -0.076472 0.000000
v 0.103447 -0.077174 0.103447
v -0.146296 -0.077174 0.000000
v 0.087916 -0.076472 0.087916
v -0.087916 -0.076472 0.087916
v 0.000000 -0.077174 0.146296
v -0.103447 -0.077174 0.103447
v 0.000000 -0.076472 0.124332
v -0.146296 0.077174 0.000000
v -0.124332 0.076472 0.000000
v -0.087916 0.076472 -0.087916
v -0.103447 0.077174 -0.103447
v -0.103447 0.077174 0.103447
v 0.000000 0.076472 -0.124332
v -0.087916 0.076472 0.087916
v 0.000000 0.077174 -0.146296
v 0.000000 0.077174 0.146296
v 0.087916 0.076472 -0.087916
v 0.000000 0.076472 0.124332
v 0.103447 0.077174 -0.103447
v 0.103447 0.077174 0.103447
v 0.124332 0.076472 0.000000
v 0.087916 0.076472 0.087916
v 0.146296 0.077174 0.000000
v -0.087916 0.065394 -0.087916
v -0.124332 0.065394 0.000000
v -0.087916 0.065394 0.087916
v 0.000000 0.065394 -0.124332
v 0.000000 0.065394 0.124332
v 0.087916 0.065394 -0.087916
v 0.087916 0.065394 0.087916
v 0.124332 0.065394 0.000000
v -0.087916 -0.065394 0.087916
v -0.124332 -0.065394 0.000000
v -0.087916 -0.065394 -0.087916
v 0.000000 -0.065394 0.124332
v 0.000000 -0.065394 -0.124332
v 0.087916 -0.065394 -0.087916
v 0.087916 -0.065394 0.087916
v 0.124332 -0.065394 0.000000
v -0.047972 -0.070103 0.001779
v -0.022598 -0.070103 0.042829
v -0.022598 0.070103 0.042829
v -0.047972 0.070103 0.001779
v -0.047972 0.070103 0.001779
v -0.022598 0.070103 0.042829
v -0.001474 0.070103 0.046485
v -0.013707 0.070103 -0.000198
v 0.038062 0.070103 0.027407
v 0.008788 0.070103 -0.010958
v 0.048125 0.070103 -0.007247
v 0.031043 0.070103 -0.031608
v -0.047972 -0.070103 0.001779
v -0.047972 0.070103 0.001779
v -0.013707 0.070103 -0.000198
v -0.013707 -0.070103 -0.000198
v -0.022598 0.070103 0.042829
v -0.022598 -0.070103 0.042829
v -0.001474 -0.070103 0.046485
v -0.001474 0.070103 0.046485
v -0.022598 -0.070103 0.042829
v -0.047972 -0.070103 0.001779
v -0.013707 -0.070103 -0.000198
v -0.001474 -0.070103 0.046485
v 0.008788 -0.070103 -0.010958
v 0.038062 -0.070103 0.027407
v 0.031043 -0.070103 -0.031608
v 0.048125 -0.070103 -0.007247
v 0.038062 0.070103 0.027407
v 0.038062 -0.070103 0.027407
v 0.048125 -0.070103 -0.007247
v 0.048125 0.070103 -0.007247
v -0.013707 -0.070103 -0.000198
v -0.013707 0.070103 -0.000198
v 0.008788 0.070103 -0.010958
v 0.008788 -0.070103 -0.010958
v -0.001474 0.070103 0.046485
v -0.001474 -0.070103 0.046485
v 0.038062 -0.070103 0.027407
v 0.038062 0.070103 0.027407
v 0.031043 -0.070103 -0.031608
v 0.031043 0.070103 -0.031608
v 0.048125 0.070103 -0.007247
v 0.048125 -0.070103 -0.007247
v 0.008788 -0.070103 -0.010958
v 0.008788 0.070103 -0.010958
v 0.031043 0.070103 -0.031608
v 0.031043 -0.070103 -0.031608
v -0.004972 0.068914 0.002881
v 0.034821 0.068914 -0.017793
v 0.010712 0.068914 -0.041769
v -0.019377 0.068914 -0.038064
v -0.035827 0.068914 0.011276
v -0.040419 0.068914 -0.016858
v -0.004972 -0.068914 0.002881
v -0.035827 -0.068914 0.011276
v -0.040419 -0.068914 -0.016858
v -0.019377 -0.068914 -0.038064
v 0.034821 -0.068914 -0.017793
v 0.010712 -0.068914 -0.041769
v 0.034821 0.068914 -0.017793
v 0.034821 -0.068914 -0.017793
v 0.010712 -0.068914 -0.041769
v 0.010712 0.068914 -0.041769
v -0.019377 -0.068914 -0.038064
v -0.019377 0.068914 -0.038064
v 0.010712 0.068914 -0.041769
v 0.010712 -0.068914 -0.041769
v -0.004972 -0.068914 0.002881
v 0.034821 -0.068914 -0.017793
v 0.034821 0.068914 -0.017793
v -0.004972 0.068914 0.002881
v -0.035827 -0.068914 0.011276
v -0.035827 0.068914 0.011276
v -0.040419 0.068914 -0.016858
v -0.040419 -0.068914 -0.016858
v -0.019377 -0.068914 -0.038064
v -0.040419 -0.068914 -0.016858
v -0.040419 0.068914 -0.016858
v -0.019377 0.068914 -0.038064
v -0.004972 0.068914 0.002881
v -0.035827 0.068914 0.011276
v -0.035827 -0.068914 0.011276
v -0.004972 -0.068914 0.002881
vn -0.382684 0.000000 -0.923880
vn -0.382684 0.000000 -0.923880
vn -0.382684 0.000000 -0.923880
vn -0.382684 0.000000 -0.923880
vn -0.923880 0.000000 -0.382683
vn -0.923880 0.000000 -0.382683
vn -0.923880 0.000000 -0.382683
vn -0.923880 0.000000 -0.382683
vn -0.923880 0.000000 0.382683
vn -0.923880 0.000000 0.382683
vn -0.923880 0.000000 0.382683
vn -0.923880 0.000000 0.382683
vn -0.382684 0.000000 0.923880
vn -0.382684 0.000000 0.923880
vn -0.382684 0.000000 0.923880
vn -0.382684 0.000000 0.923880
vn 0.382684 0.000000 0.923879
vn 0.382684 0.000000 0.923879
vn 0.382684 0.000000 0.923879
vn 0.382684 0.000000 0.923879
vn 0.923880 0.000000 0.382683
vn 0.923880 0.000000 0.382683
vn 0.923880 0.000000 0.382683
vn 0.923880 0.000000 0.382683
vn 0.923880 0.000000 -0.382683
vn 0.923880 0.000000 -0.382683
vn 0.923880 0.000000 -0.382683
vn 0.923880 0.000000 -0.382683
vn 0.382684 0.000000 -0.923880
vn 0.382684 0.000000 -0.923880
vn 0.382684 0.000000 -0.923880
vn 0.382684 0.000000 -0.923880
vn 0.382684 0.000000 -0.923880
vn 0.382684 0.000000 -0.923880
vn 0.382684 0.000000 -0.923880
vn 0.382684 0.000000 -0.923880
vn -0.382684 0.000000 0.923880
vn -0.382684 0.000000 0.923880
vn -0.382684 0.000000 0.923880
vn -0.382684 0.000000 0.923880
vn 0.382684 0.000000 0.923880
vn 0.382684 0.000000 0.923880
vn 0.382684 0.000000 0.923880
vn 0.382684 0.000000 0.923880
vn -0.382684 0.000000 0.923880
vn -0.382684 0.000000 0.923880
vn -0.382684 0.000000 0.923880
vn -0.382684 0.000000 0.923880
vn -0.382684 0.000000 -0.923880
vn -0.382684 0.000000 -0.923880
vn -0.382684 0.000000 -0.923880
vn -0.382684 0.000000 -0.923880
vn 0.382684 0.000000 0.923880
vn 0.382684 0.000000 0.923880
vn 0.382684 0.000000 0.923880
vn 0.382684 0.000000 0.923880
vn -0.382684 0.000000 -0.923880
vn -0.382684 0.000000 -0.923880
vn -0.382684 0.000000 -0.923880
vn -0.382684 0.000000 -0.923880
vn 0.923880 0.000000 0.382683
vn 0.923880 0.000000 0.382683
vn 0.923880 0.000000 0.382683
vn 0.923880 0.000000 0.382683
vn -0.923880 0.000000 -0.382683
vn -0.923880 0.000000 -0.382683
vn -0.923880 0.000000 -0.382683
vn -0.923880 0.000000 -0.382683
vn 0.923880 0.000000 0.382683
vn 0.923880 0.000000 0.382683
vn 0.923880 0.000000 0.382683
vn 0.923880 0.000000 0.382683
vn -0.923880 0.000000 -0.382683
vn -0.923880 0.000000 -0.382683
vn -0.923880 0.000000 -0.382683
vn -0.923880 0.000000 -0.382683
vn 0.923880 0.000000 -0.382684
vn 0.923880 0.000000 -0.382684
vn 0.923880 0.000000 -0.382684
vn 0.923880 0.000000 -0.382684
vn -0.923880 0.000000 0.382683
vn -0.923880 0.000000 0.382683
vn -0.923880 0.000000 0.382683
vn -0.923880 0.000000 0.382683
vn 0.923880 0.000000 -0.382684
vn 0.923880 0.000000 -0.382684
vn 0.923880 0.000000 -0.382684
vn 0.923880 0.000000 -0.382684
vn -0.923880 0.000000 0.382683
vn -0.923880 0.000000 0.382683
vn -0.923880 0.000000 0.382683
vn -0.923880 0.000000 0.382683
vn 0.382684 0.000000 -0.923880
vn 0.382684 0.000000 -0.923880
vn 0.382684 0.000000 -0.923880
vn 0.382684 0.000000 -0.923880
vn -0.031943 -0.999402 0.013231
vn -0.013231 -0.999402 0.031943
vn -0.013231 -0.999402 0.031943
vn -0.031943 -0.999402 0.013231
vn 0.031943 -0.999402 0.013231
vn -0.031943 -0.999402 -0.013231
vn 0.031943 -0.999402 0.013231
vn -0.031943 -0.999402 -0.013231
vn 0.031943 -0.999402 0.013231
vn -0.031943 -0.999402 -0.013231
vn 0.031943 -0.999402 0.013231
vn -0.031943 -0.999402 -0.013231
vn 0.013231 -0.999402 -0.031943
vn 0.013231 -0.999402 -0.031943
vn 0.013231 -0.999402 -0.031943
vn 0.013231 -0.999402 -0.031943
vn 0.031943 0.999402 0.013231
vn 0.031943 0.999402 0.013231
vn 0.013231 0.999402 0.031943
vn 0.013231 0.999402 0.031943
vn 0.013231 0.999402 -0.031943
vn 0.013231 0.999402 0.031943
vn 0.013231 0.999402 -0.031943
vn 0.013231 0.999402 0.031943
vn 0.013231 0.999402 -0.031943
vn -0.013231 0.999402 0.031943
vn 0.013231 0.999402 -0.031943
vn -0.013231 0.999402 0.031943
vn -0.031943 0.999402 -0.013231
vn -0.031943 0.999402 -0.013231
vn -0.031943 0.999402 -0.013231
vn -0.031943 0.999402 -0.013231
vn 0.000000 1.000000 0.000000
vn 0.000000 1.000000 0.000000
vn 0.000000 1.000000 0.000000
vn 0.000000 1.000000 0.000000
vn 0.000000 1.000000 0.000000
vn 0.000000 1.000000 0.000000
vn 0.000000 1.000000 0.000000
vn 0.000000 1.000000 0.000000
vn 0.000000 -1.000000 0.000000
vn 0.000000 -1.000000 0.000000
vn 0.000000 -1.000000 0.000000
vn 0.000000 -1.000000 0.000000
vn 0.000000 -1.000000 0.000000
vn 0.000000 -1.000000 0.000000
vn 0.000000 -1.000000 0.000000
vn 0.000000 -1.000000 0.000000
vn -0.850620 0.000000 0.525781
vn -0.850620 0.000000 0.525781
vn -0.850620 0.000000 0.525781
vn -0.850620 0.000000 0.525781
vn 0.000000 1.000000 0.000000
vn 0.000000 1.000000 0.000000
vn 0.000000 1.000000 0.000000
vn 0.000000 1.000000 0.000000
vn 0.000000 1.000000 0.000000
vn 0.000000 1.000000 0.000000
vn 0.000000 1.000000 0.000000
vn 0.000000 1.000000 0.000000
vn -0.057592 0.000000 -0.998340
vn -0.057592 0.000000 -0.998340
vn -0.057592 0.000000 -0.998340
vn -0.057592 0.000000 -0.998340
vn -0.170546 0.000000 0.985350
vn -0.170546 0.000000 0.985350
vn -0.170546 0.000000 0.985350
vn -0.170546 0.000000 0.985350
vn 0.000000 -1.000000 0.000000
vn 0.000000 -1.000000 0.000000
vn 0.000000 -1.000000 0.000000
vn 0.000000 -1.000000 0.000000
vn 0.000000 -1.000000 0.000000
vn 0.000000 -1.000000 0.000000
vn 0.000000 -1.000000 0.000000
vn 0.000000 -1.000000 0.000000
vn 0.960334 0.000000 0.278852
vn 0.960334 0.000000 0.278852
vn 0.960334 0.000000 0.278852
vn 0.960334 0.000000 0.278852
vn -0.431539 0.000000 -0.902094
vn -0.431539 0.000000 -0.902094
vn -0.431539 0.000000 -0.902094
vn -0.431539 0.000000 -0.902094
vn 0.434591 0.000000 0.900628
vn 0.434591 0.000000 0.900628
vn 0.434591 0.000000 0.900628
vn 0.434591 0.000000 0.900628
vn 0.818766 0.000000 -0.574128
vn 0.818766 0.000000 -0.574128
vn 0.818766 0.000000 -0.574128
vn 0.818766 0.000000 -0.574128
vn -0.680158 0.000000 -0.733065
vn -0.680158 0.000000 -0.733065
vn -0.680158 0.000000 -0.733065
vn -0.680158 0.000000 -0.733065
vn 0.000000 1.000000 0.000000
vn 0.000000 1.000000 0.000000
vn 0.000000 1.000000 0.000000
vn 0.000000 1.000000 0.000000
vn 0.000000 1.000000 0.000000
vn 0.000000 1.000000 0.000000
vn 0.000000 -1.000000 0.000000
vn 0.000000 -1.000000 0.000000
vn 0.000000 -1.000000 0.000000
vn 0.000000 -1.000000 0.000000
vn 0.000000 -1.000000 0.000000
vn 0.000000 -1.000000 0.000000
vn 0.705158 0.000000 -0.709051
vn 0.705158 0.000000 -0.709051
vn 0.705158 0.000000 -0.709051
vn 0.705158 0.000000 -0.709051
vn -0.122193 0.000000 -0.992506
vn -0.122193 0.000000 -0.992506
vn -0.122193 0.000000 -0.992506
vn -0.122193 0.000000 -0.992506
vn 0.461041 0.000000 0.887379
vn 0.461041 0.000000 0.887379
vn 0.461041 0.000000 0.887379
vn 0.461041 0.000000 0.887379
vn -0.986940 0.000000 0.161088
vn -0.986940 0.000000 0.161088
vn -0.986940 0.000000 0.161088
vn -0.986940 0.000000 0.161088
vn -0.709848 0.000000 -0.704355
vn -0.709848 0.000000 -0.704355
vn -0.709848 0.000000 -0.704355
vn -0.709848 0.000000 -0.704355
vn 0.262528 0.000000 0.964924
vn 0.262528 0.000000 0.964924
vn 0.262528 0.000000 0.964924
vn 0.262528 0.000000 0.964924
g Sushi_Roll2_DarkGrey
usemtl DarkGrey
f 1 2 3
f 1 3 4
f 5 6 7
f 5 7 8
f 9 10 11
f 9 11 12
f 13 14 15
f 13 15 16
f 17 18 19
f 17 19 20
f 21 22 23
f 21 23 24
f 25 26 27
f 25 27 28
f 29 30 31
f 29 31 32
f 33 34 35
f 33 35 36
f 37 38 39
f 37 39 40
f 41 42 43
f 41 43 44
f 45 46 47
f 45 47 48
f 49 50 51
f 49 51 52
f 53 54 55
f 53 55 56
f 57 58 59
f 57 59 60
f 61 62 63
f 61 63 64
f 65 66 67
f 65 67 68
f 69 70 71
f 69 71 72
f 73 74 75
f 73 75 76
f 77 78 79
f 77 79 80
f 81 82 83
f 81 83 84
f 85 86 87
f 85 87 88
f 89 90 91
f 89 91 92
f 93 94 95
f 93 95 96
f 97 98 99
f 97 100 98
f 99 98 101
f 102 100 97
f 99 101 103
f 102 104 100
f 103 101 105
f 106 104 102
f 103 105 107
f 106 108 104
f 107 105 109
f 110 108 106
f 107 109 111
f 110 112 108
f 111 109 112
f 111 112 110
f 113 114 115
f 113 115 116
f 117 114 113
f 116 115 118
f 117 119 114
f 116 118 120
f 121 119 117
f 120 118 122
f 121 123 119
f 120 122 124
f 125 123 121
f 124 122 126
f 125 127 123
f 124 126 128
f 128 127 125
f 128 126 127
g Sushi_Roll2_White
usemtl White
f 129 130 131
f 131 132 129
f 131 133 132
f 133 134 132
f 133 135 134
f 135 136 134
f 137 138 139
f 139 140 137
f 139 141 140
f 141 142 140
f 142 143 140
f 142 144 143
g Sushi_Roll2_Orange
usemtl Orange
f 145 146 147
f 145 147 148
f 149 150 151
f 149 151 152
f 152 151 153
f 152 153 154
f 154 153 155
f 154 155 156
f 157 158 159
f 157 159 160
f 161 162 163
f 161 163 164
f 165 166 167
f 165 167 168
f 168 167 169
f 168 169 170
f 170 169 171
f 170 171 172
f 173 174 175
f 173 175 176
f 177 178 179
f 177 179 180
f 181 182 183
f 181 183 184
f 185 186 187
f 185 187 188
f 189 190 191
f 189 191 192
g Sushi_Roll2_LightGreen
usemtl LightGreen
f 193 194 195
f 193 195 196
f 196 197 193
f 196 198 197
f 199 200 201
f 199 201 202
f 203 199 202
f 203 202 204
f 205 206 207
f 205 207 208
f 209 210 211
f 209 211 212
f 213 214 215
f 213 215 216
f 217 218 219
f 217 219 220
f 221 222 223
f 221 223 224
f 225 226 227
f 225 227 228
