mtllib Materials.mtl
# Ultimate Food Pack - Sushi_Roll1
o Sushi_Roll1
v 0.108171 -0.077174 -0.098496
v 0.006842 -0.077174 -0.146136
v 0.006842 0.077174 -0.146136
v 0.108171 0.077174 -0.098496
v 0.006842 -0.077174 -0.146136
v -0.098496 -0.077174 -0.108171
v -0.098496 0.077174 -0.108171
v 0.006842 0.077174 -0.146136
v -0.098496 -0.077174 -0.108171
v -0.146136 -0.077174 -0.006842
v -0.146136 0.077174 -0.006842
v -0.098496 0.077174 -0.108171
v -0.146136 -0.077174 -0.006842
v -0.108171 -0.077174 0.098496
v -0.108171 0.077174 0.098496
v -0.146136 0.077174 -0.006842
v -0.108171 -0.077174 0.098496
v -0.006842 -0.077174 0.146136
v -0.006842 0.077174 0.146136
v -0.108171 0.077174 0.098496
v -0.006842 -0.077174 0.146136
v 0.098496 -0.077174 0.108171
v 0.098496 0.077174 0.108171
v -0.006842 0.077174 0.146136
v 0.098496 -0.077174 0.108171
v 0.146136 -0.077174 0.006842
v 0.146136 0.077174 0.006842
v 0.098496 0.077174 0.108171
v 0.146136 -0.077174 0.006842
v 0.108171 -0.077174 -0.098496
v 0.108171 0.077174 -0.098496
v 0.146136 0.077174 0.006842
v -0.091931 0.076472 0.083708
v -0.091931 0.065394 0.083708
v -0.124196 0.065394 -0.005815
v -0.124196 0.076472 -0.005815
v 0.124196 -0.076472 0.005815
v 0.124196 -0.065394 0.005815
v 0.091931 -0.065394 -0.083708
v 0.091931 -0.076472 -0.083708
v 0.091931 -0.076472 -0.083708
v 0.091931 -0.065394 -0.083708
v 0.005815 -0.065394 -0.124196
v 0.005815 -0.076472 -0.124196
v 0.091931 0.076472 -0.083708
v 0.091931 0.065394 -0.083708
v 0.124196 0.065394 0.005815
v 0.124196 0.076472 0.005815
v -0.091931 -0.076472 0.083708
v -0.091931 -0.065394 0.083708
v -0.005815 -0.065394 0.124196
v -0.005815 -0.076472 0.124196
v 0.005815 0.076472 -0.124196
v 0.005815 0.065394 -0.124196
v 0.091931 0.065394 -0.083708
v 0.091931 0.076472 -0.083708
v -0.005815 0.076472 0.124196
v -0.005815 0.065394 0.124196
v -0.091931 0.065394 0.083708
v -0.091931 0.076472 0.083708
v 0.005815 -0.076472 -0.124196
v 0.005815 -0.065394 -0.124196
v -0.083708 -0.065394 -0.091931
v -0.083708 -0.076472 -0.091931
v -0.005815 -0.076472 0.124196
v -0.005815 -0.065394 0.124196
v 0.083708 -0.065394 0.091931
v 0.083708 -0.076472 0.091931
v -0.083708 0.076472 -0.091931
v -0.083708 0.065394 -0.091931
v 0.005815 0.065394 -0.124196
v 0.005815 0.076472 -0.124196
v 0.083708 0.076472 0.091931
v 0.083708 0.065394 0.091931
v -0.005815 0.065394 0.124196
v -0.005815 0.076472 0.124196
v -0.083708 -0.076472 -0.091931
v -0.083708 -0.065394 -0.091931
v -0.124196 -0.065394 -0.005815
v -0.124196 -0.076472 -0.005815
v 0.083708 -0.076472 0.091931
v 0.083708 -0.065394 0.091931
v 0.124196 -0.065394 0.005815
v 0.124196 -0.076472 0.005815
v -0.124196 0.076472 -0.005815
v -0.124196 0.065394 -0.005815
v -0.083708 0.065394 -0.091931
v -0.083708 0.076472 -0.091931
v 0.124196 0.076472 0.005815
v 0.124196 0.065394 0.005815
v 0.083708 0.065394 0.091931
v 0.083708 0.076472 0.091931
v -0.124196 -0.076472 -0.005815
v -0.124196 -0.065394 -0.005815
v -0.091931 -0.065394 0.083708
v -0.091931 -0.076472 0.083708
v 0.146136 -0.077174 0.006842
v 0.091931 -0.076472 -0.083708
v 0.108171 -0.077174 -0.098496
v 0.124196 -0.076472 0.005815
v 0.005815 -0.076472 -0.124196
v 0.098496 -0.077174 0.108171
v 0.006842 -0.077174 -0.146136
v 0.083708 -0.076472 0.091931
v -0.083708 -0.076472 -0.091931
v -0.006842 -0.077174 0.146136
v -0.098496 -0.077174 -0.108171
v -0.005815 -0.076472 0.124196
v -0.124196 -0.076472 -0.005815
v -0.108171 -0.077174 0.098496
v -0.146136 -0.077174 -0.006842
v -0.091931 -0.076472 0.083708
v -0.098496 0.077174 -0.108171
v -0.083708 0.076472 -0.091931
v 0.005815 0.076472 -0.124196
v 0.006842 0.077174 -0.146136
v -0.146136 0.077174 -0.006842
v 0.091931 0.076472 -0.083708
v -0.124196 0.076472 -0.005815
v 0.108171 0.077174 -0.098496
v -0.108171 0.077174 0.098496
v 0.124196 0.076472 0.005815
v -0.091931 0.076472 0.083708
v 0.146136 0.077174 0.006842
v -0.006842 0.077174 0.146136
v 0.083708 0.076472 0.091931
v -0.005815 0.076472 0.124196
v 0.098496 0.077174 0.108171
v -0.083708 0.065394 -0.091931
v -0.124196 0.065394 -0.005815
v -0.091931 0.065394 0.083708
v -0.005815 0.065394 0.124196
v 0.005815 0.065394 -0.124196
v 0.083708 0.065394 0.091931
v 0.091931 0.065394 -0.083708
v 0.124196 0.065394 0.005815
v -0.091931 -0.065394 0.083708
v -0.124196 -0.065394 -0.005815
v -0.083708 -0.065394 -0.091931
v -0.005815 -0.065394 0.124196
v 0.005815 -0.065394 -0.124196
v 0.083708 -0.065394 0.091931
v 0.091931 -0.065394 -0.083708
v 0.124196 -0.065394 0.005815
v -0.033613 -0.070103 -0.034272
v -0.046882 -0.070103 0.012126
v -0.046882 0.070103 0.012126
v -0.033613 0.070103 -0.034272
v -0.033613 0.070103 -0.034272
v -0.046882 0.070103 0.012126
v -0.035364 0.070103 0.030207
v -0.009082 0.070103 -0.010268
v 0.005361 0.070103 0.046596
v 0.014019 0.070103 -0.000880
v 0.037759 0.070103 0.030704
v 0.044271 0.070103 0.001673
v -0.033613 -0.070103 -0.034272
v -0.033613 0.070103 -0.034272
v -0.009082 0.070103 -0.010268
v -0.009082 -0.070103 -0.010268
v -0.046882 0.070103 0.012126
v -0.046882 -0.070103 0.012126
v -0.035364 -0.070103 0.030207
v -0.035364 0.070103 0.030207
v -0.046882 -0.070103 0.012126
v -0.033613 -0.070103 -0.034272
v -0.009082 -0.070103 -0.010268
v -0.035364 -0.070103 0.030207
v 0.014019 -0.070103 -0.000880
v 0.005361 -0.070103 0.046596
v 0.044271 -0.070103 0.001673
v 0.037759 -0.070103 0.030704
v 0.005361 0.070103 0.046596
v 0.005361 -0.070103 0.046596
v 0.037759 -0.070103 0.030704
v 0.037759 0.070103 0.030704
v -0.009082 -0.070103 -0.010268
v -0.009082 0.070103 -0.010268
v 0.014019 0.070103 -0.000880
v 0.014019 -0.070103 -0.000880
v -0.035364 0.070103 0.030207
v -0.035364 -0.070103 0.030207
v 0.005361 -0.070103 0.046596
v 0.005361 0.070103 0.046596
v 0.044271 -0.070103 0.001673
v 0.044271 0.070103 0.001673
v 0.037759 0.070103 0.030704
v 0.037759 -0.070103 0.030704
v 0.014019 -0.070103 -0.000880
v 0.014019 0.070103 -0.000880
v 0.044271 0.070103 0.001673
v 0.044271 -0.070103 0.001673
v -0.005478 0.068914 -0.001736
v 0.036600 0.068914 0.013767
v 0.038096 0.068914 -0.020201
v 0.015099 0.068914 -0.039955
v -0.032459 0.068914 -0.018899
v -0.014748 0.068914 -0.041236
v -0.005478 -0.068914 -0.001736
v -0.032459 -0.068914 -0.018899
v -0.014748 -0.068914 -0.041236
v 0.015099 -0.068914 -0.039955
v 0.036600 -0.068914 0.013767
v 0.038096 -0.068914 -0.020201
v 0.036600 0.068914 0.013767
v 0.036600 -0.068914 0.013767
v 0.038096 -0.068914 -0.020201
v 0.038096 0.068914 -0.020201
v 0.015099 -0.068914 -0.039955
v 0.015099 0.068914 -0.039955
v 0.038096 0.068914 -0.020201
v 0.038096 -0.068914 -0.020201
v -0.005478 -0.068914 -0.001736
v 0.036600 -0.068914 0.013767
v 0.036600 0.068914 0.013767
v -0.005478 0.068914 -0.001736
v -0.032459 -0.068914 -0.018899
v -0.032459 0.068914 -0.018899
v -0.014748 0.068914 -0.041236
v -0.014748 -0.068914 -0.041236
v 0.015099 -0.068914 -0.039955
v -0.014748 -0.068914 -0.041236
v -0.014748 0.068914 -0.041236
v 0.015099 0.068914 -0.039955
v -0.005478 0.068914 -0.001736
v -0.032459 0.068914 -0.018899
v -0.032459 -0.068914 -0.018899
v -0.005478 -0.068914 -0.001736
vn 0.425471 0.000000 -0.904972
vn 0.425471 0.000000 -0.904972
vn 0.425471 0.000000 -0.904972
vn 0.425471 0.000000 -0.904972
vn -0.339058 0.000000 -0.940765
vn -0.339058 0.000000 -0.940765
vn -0.339058 0.000000 -0.940765
vn -0.339058 0.000000 -0.940765
vn -0.904972 0.000000 -0.425471
vn -0.904972 0.000000 -0.425471
vn -0.904972 0.000000 -0.425471
vn -0.904972 0.000000 -0.425471
vn -0.940765 0.000000 0.339058
vn -0.940765 0.000000 0.339058
vn -0.940765 0.000000 0.339058
vn -0.940765 0.000000 0.339058
vn -0.425471 0.000000 0.904972
vn -0.425471 0.000000 0.904972
vn -0.425471 0.000000 0.904972
vn -0.425471 0.000000 0.904972
vn 0.339058 0.000000 0.940765
vn 0.339058 0.000000 0.940765
vn 0.339058 0.000000 0.940765
vn 0.339058 0.000000 0.940765
vn 0.904972 0.000000 0.425471
vn 0.904972 0.000000 0.425471
vn 0.904972 0.000000 0.425471
vn 0.904972 0.000000 0.425471
vn 0.940765 0.000000 -0.339058
vn 0.940765 0.000000 -0.339058
vn 0.940765 0.000000 -0.339058
vn 0.940765 0.000000 -0.339058
vn 0.940765 0.000000 -0.339058
vn 0.940765 0.000000 -0.339058
vn 0.940765 0.000000 -0.339058
vn 0.940765 0.000000 -0.339058
vn -0.940765 0.000000 0.339058
vn -0.940765 0.000000 0.339058
vn -0.940765 0.000000 0.339058
vn -0.940765 0.000000 0.339058
vn -0.425471 0.000000 0.904972
vn -0.425471 0.000000 0.904972
vn -0.425471 0.000000 0.904972
vn -0.425471 0.000000 0.904972
vn -0.940765 0.000000 0.339058
vn -0.940765 0.000000 0.339058
vn -0.940765 0.000000 0.339058
vn -0.940765 0.000000 0.339058
vn 0.425471 0.000000 -0.904972
vn 0.425471 0.000000 -0.904972
vn 0.425471 0.000000 -0.904972
vn 0.425471 0.000000 -0.904972
vn -0.425471 0.000000 0.904972
vn -0.425471 0.000000 0.904972
vn -0.425471 0.000000 0.904972
vn -0.425471 0.000000 0.904972
vn 0.425471 0.000000 -0.904972
vn 0.425471 0.000000 -0.904972
vn 0.425471 0.000000 -0.904972
vn 0.425471 0.000000 -0.904972
vn 0.339058 0.000000 0.940765
vn 0.339058 0.000000 0.940765
vn 0.339058 0.000000 0.940765
vn 0.339058 0.000000 0.940765
vn -0.339059 0.000000 -0.940765
vn -0.339059 0.000000 -0.940765
vn -0.339059 0.000000 -0.940765
vn -0.339059 0.000000 -0.940765
vn 0.339058 0.000000 0.940765
vn 0.339058 0.000000 0.940765
vn 0.339058 0.000000 0.940765
vn 0.339058 0.000000 0.940765
vn -0.339059 0.000000 -0.940765
vn -0.339059 0.000000 -0.940765
vn -0.339059 0.000000 -0.940765
vn -0.339059 0.000000 -0.940765
vn 0.904972 0.000000 0.425471
vn 0.904972 0.000000 0.425471
vn 0.904972 0.000000 0.425471
vn 0.904972 0.000000 0.425471
vn -0.904972 0.000000 -0.425471
vn -0.904972 0.000000 -0.425471
vn -0.904972 0.000000 -0.425471
vn -0.904972 0.000000 -0.425471
vn 0.904972 0.000000 0.425471
vn 0.904972 0.000000 0.425471
vn 0.904972 0.000000 0.425471
vn 0.904972 0.000000 0.425471
vn -0.904972 0.000000 -0.425471
vn -0.904972 0.000000 -0.425471
vn -0.904972 0.000000 -0.425471
vn -0.904972 0.000000 -0.425471
vn 0.940765 0.000000 -0.339058
vn 0.940765 0.000000 -0.339058
vn 0.940765 0.000000 -0.339058
vn 0.940765 0.000000 -0.339058
vn -0.031289 -0.999402 -0.014710
vn -0.032527 -0.999402 0.011723
vn -0.032527 -0.999402 0.011723
vn -0.031289 -0.999402 -0.014710
vn 0.011723 -0.999402 0.032527
vn -0.011723 -0.999402 -0.032527
vn 0.011723 -0.999402 0.032527
vn -0.011723 -0.999402 -0.032527
vn 0.011723 -0.999402 0.032527
vn -0.011723 -0.999402 -0.032527
vn 0.011723 -0.999402 0.032527
vn -0.011723 -0.999402 -0.032527
vn 0.032527 -0.999402 -0.011723
vn 0.032527 -0.999402 -0.011723
vn 0.032527 -0.999402 -0.011723
vn 0.032527 -0.999402 -0.011723
vn 0.011723 0.999402 0.032527
vn 0.011723 0.999402 0.032527
vn -0.014711 0.999402 0.031289
vn -0.014711 0.999402 0.031289
vn 0.032527 0.999402 -0.011723
vn -0.014711 0.999402 0.031289
vn 0.032527 0.999402 -0.011723
vn -0.014711 0.999402 0.031289
vn 0.032527 0.999402 -0.011723
vn -0.032527 0.999402 0.011723
vn 0.032527 0.999402 -0.011723
vn -0.032527 0.999402 0.011723
vn -0.011723 0.999402 -0.032527
vn -0.011723 0.999402 -0.032527
vn -0.011723 0.999402 -0.032527
vn -0.011723 0.999402 -0.032527
vn 0.000000 1.000000 0.000000
vn 0.000000 1.000000 0.000000
vn 0.000000 1.000000 0.000000
vn 0.000000 1.000000 0.000000
vn 0.000000 1.000000 0.000000
vn 0.000000 1.000000 0.000000
vn 0.000000 1.000000 0.000000
vn 0.000000 1.000000 0.000000
vn 0.000000 -1.000000 0.000000
vn 0.000000 -1.000000 0.000000
vn 0.000000 -1.000000 0.000000
vn 0.000000 -1.000000 0.000000
vn 0.000000 -1.000000 0.000000
vn 0.000000 -1.000000 0.000000
vn 0.000000 -1.000000 0.000000
vn 0.000000 -1.000000 0.000000
vn -0.961456 0.000000 -0.274960
vn -0.961456 0.000000 -0.274960
vn -0.961456 0.000000 -0.274960
vn -0.961456 0.000000 -0.274960
vn 0.000000 1.000000 0.000000
vn 0.000000 1.000000 0.000000
vn 0.000000 1.000000 0.000000
vn 0.000000 1.000000 0.000000
vn 0.000000 1.000000 0.000000
vn 0.000000 1.000000 0.000000
vn 0.000000 1.000000 0.000000
vn 0.000000 1.000000 0.000000
vn 0.699400 0.000000 -0.714731
vn 0.699400 0.000000 -0.714731
vn 0.699400 0.000000 -0.714731
vn 0.699400 0.000000 -0.714731
vn -0.843392 0.000000 0.537299
vn -0.843392 0.000000 0.537299
vn -0.843392 0.000000 0.537299
vn -0.843392 0.000000 0.537299
vn 0.000000 -1.000000 0.000000
vn 0.000000 -1.000000 0.000000
vn 0.000000 -1.000000 0.000000
vn 0.000000 -1.000000 0.000000
vn 0.000000 -1.000000 0.000000
vn 0.000000 -1.000000 0.000000
vn 0.000000 -1.000000 0.000000
vn 0.000000 -1.000000 0.000000
vn 0.440375 0.000000 0.897814
vn 0.440375 0.000000 0.897814
vn 0.440375 0.000000 0.897814
vn 0.440375 0.000000 0.897814
vn 0.376470 0.000000 -0.926429
vn 0.376470 0.000000 -0.926429
vn 0.376470 0.000000 -0.926429
vn 0.376470 0.000000 -0.926429
vn -0.373331 0.000000 0.927698
vn -0.373331 0.000000 0.927698
vn -0.373331 0.000000 0.927698
vn -0.373331 0.000000 0.927698
vn 0.975757 0.000000 0.218857
vn 0.975757 0.000000 0.218857
vn 0.975757 0.000000 0.218857
vn 0.975757 0.000000 0.218857
vn 0.084104 0.000000 -0.996457
vn 0.084104 0.000000 -0.996457
vn 0.084104 0.000000 -0.996457
vn 0.084104 0.000000 -0.996457
vn 0.000000 1.000000 0.000000
vn 0.000000 1.000000 0.000000
vn 0.000000 1.000000 0.000000
vn 0.000000 1.000000 0.000000
vn 0.000000 1.000000 0.000000
vn 0.000000 1.000000 0.000000
vn 0.000000 -1.000000 0.000000
vn 0.000000 -1.000000 0.000000
vn 0.000000 -1.000000 0.000000
vn 0.000000 -1.000000 0.000000
vn 0.000000 -1.000000 0.000000
vn 0.000000 -1.000000 0.000000
vn 0.999031 0.000000 0.044017
vn 0.999031 0.000000 0.044017
vn 0.999031 0.000000 0.044017
vn 0.999031 0.000000 0.044017
vn 0.651593 0.000000 -0.758569
vn 0.651593 0.000000 -0.758569
vn 0.651593 0.000000 -0.758569
vn 0.651593 0.000000 -0.758569
vn -0.345727 0.000000 0.938335
vn -0.345727 0.000000 0.938335
vn -0.345727 0.000000 0.938335
vn -0.345727 0.000000 0.938335
vn -0.783580 0.000000 -0.621291
vn -0.783580 0.000000 -0.621291
vn -0.783580 0.000000 -0.621291
vn -0.783580 0.000000 -0.621291
vn 0.042886 0.000000 -0.999080
vn 0.042886 0.000000 -0.999080
vn 0.042886 0.000000 -0.999080
vn 0.042886 0.000000 -0.999080
vn -0.536716 0.000000 0.843763
vn -0.536716 0.000000 0.843763
vn -0.536716 0.000000 0.843763
vn -0.536716 0.000000 0.843763
g Sushi_Roll1_DarkGrey
usemtl DarkGrey
f 1 2 3
f 1 3 4
f 5 6 7
f 5 7 8
f 9 10 11
f 9 11 12
f 13 14 15
f 13 15 16
f 17 18 19
f 17 19 20
f 21 22 23
f 21 23 24
f 25 26 27
f 25 27 28
f 29 30 31
f 29 31 32
f 33 34 35
f 33 35 36
f 37 38 39
f 37 39 40
f 41 42 43
f 41 43 44
f 45 46 47
f 45 47 48
f 49 50 51
f 49 51 52
f 53 54 55
f 53 55 56
f 57 58 59
f 57 59 60
f 61 62 63
f 61 63 64
f 65 66 67
f 65 67 68
f 69 70 71
f 69 71 72
f 73 74 75
f 73 75 76
f 77 78 79
f 77 79 80
f 81 82 83
f 81 83 84
f 85 86 87
f 85 87 88
f 89 90 91
f 89 91 92
f 93 94 95
f 93 95 96
f 97 98 99
f 97 100 98
f 99 98 101
f 102 100 97
f 99 101 103
f 102 104 100
f 103 101 105
f 106 104 102
f 103 105 107
f 106 108 104
f 107 105 109
f 110 108 106
f 107 109 111
f 110 112 108
f 111 109 112
f 111 112 110
f 113 114 115
f 113 115 116
f 117 114 113
f 116 115 118
f 117 119 114
f 116 118 120
f 121 119 117
f 120 118 122
f 121 123 119
f 120 122 124
f 125 123 121
f 124 122 126
f 125 127 123
f 124 126 128
f 128 127 125
f 128 126 127
g Sushi_Roll1_White
usemtl White
f 129 130 131
f 131 132 129
f 132 133 129
f 132 134 133
f 134 135 133
f 134 136 135
f 137 138 139
f 139 140 137
f 139 141 140
f 141 142 140
f 141 143 142
f 143 144 142
g Sushi_Roll1_Orange
usemtl Orange
f 145 146 147
f 145 147 148
f 149 150 151
f 149 151 152
f 152 151 153
f 152 153 154
f 154 153 155
f 154 155 156
f 157 158 159
f 157 159 160
f 161 162 163
f 161 163 164
f 165 166 167
f 165 167 168
f 168 167 169
f 168 169 170
f 170 169 171
f 170 171 172
f 173 174 175
f 173 175 176
f 177 178 179
f 177 179 180
f 181 182 183
f 181 183 184
f 185 186 187
f 185 187 188
f 189 190 191
f 189 191 192
f 193 194 195
f 193 195 196
f 196 197 193
f 196 198 197
f 199 200 201
f 199 201 202
f 203 199 202
f 203 202 204
f 205 206 207
f 205 207 208
f 209 210 211
f 209 211 212
f 213 214 215
f 213 215 216
f 217 218 219
f 217 219 220
f 221 222 223
f 221 223 224
f 225 226 227
f 225 227 228
