mtllib Materials.mtl
# Ultimate Food Pack - Sushi_NigiriOctopus
o Sushi_NigiriOctopus
v 0.200416 0.120249 0.119804
v 0.316038 0.058324 0.071715
v 0.316038 0.058324 -0.071715
v 0.200416 0.120249 -0.119781
v 0.210947 0.000795 -0.118801
v -0.023608 0.000795 -0.110578
v -0.026240 0.133851 -0.096162
v 0.200416 0.120249 -0.119781
v -0.026240 0.133851 -0.096162
v -0.159284 0.118810 -0.076993
v -0.171390 0.118810 0.073847
v -0.032509 0.133851 0.110712
v -0.029876 0.000795 0.123462
v 0.210947 0.000795 0.118801
v 0.200416 0.120249 0.119804
v -0.032509 0.133851 0.110712
v -0.026240 0.133851 -0.096162
v -0.032509 0.133851 0.110712
v 0.200416 0.120249 0.119804
v 0.200416 0.120249 -0.119781
v -0.171390 0.118810 0.073847
v -0.261475 0.055435 0.037942
v -0.261475 0.000795 0.037942
v -0.200351 0.000795 0.079803
v -0.023608 0.000795 -0.110578
v -0.188244 0.000795 -0.083468
v -0.159284 0.118810 -0.076993
v -0.026240 0.133851 -0.096162
v -0.032509 0.133851 0.110712
v -0.171390 0.118810 0.073847
v -0.200351 0.000795 0.079803
v -0.029876 0.000795 0.123462
v -0.254548 0.000795 -0.055473
v -0.261475 0.000795 0.037942
v -0.261475 0.055435 0.037942
v -0.254548 0.055435 -0.055473
v -0.200351 0.000795 0.079803
v -0.261475 0.000795 0.037942
v -0.254548 0.000795 -0.055473
v -0.188244 0.000795 -0.083468
v -0.029876 0.000795 0.123462
v -0.023608 0.000795 -0.110578
v 0.210947 0.000795 -0.118801
v 0.210947 0.000795 0.118801
v 0.330519 0.000795 0.071715
v 0.330519 0.000795 -0.071715
v -0.159284 0.118810 -0.076993
v -0.254548 0.055435 -0.055473
v -0.261475 0.055435 0.037942
v -0.171390 0.118810 0.073847
v -0.188244 0.000795 -0.083468
v -0.254548 0.000795 -0.055473
v -0.254548 0.055435 -0.055473
v -0.159284 0.118810 -0.076993
v 0.330519 0.000795 0.071715
v 0.330519 0.000795 -0.071715
v 0.316038 0.058324 -0.071715
v 0.316038 0.058324 0.071715
v 0.200416 0.120249 -0.119781
v 0.316038 0.058324 -0.071715
v 0.330519 0.000795 -0.071715
v 0.210947 0.000795 -0.118801
v 0.210947 0.000795 0.118801
v 0.330519 0.000795 0.071715
v 0.316038 0.058324 0.071715
v 0.200416 0.120249 0.119804
v -0.317778 0.304985 0.030596
v -0.296005 0.297131 0.024128
v -0.322761 0.316703 0.015834
v -0.317513 0.305169 -0.042330
v -0.340567 0.305301 -0.023203
v -0.323410 0.316311 -0.030230
v -0.285522 0.295234 -0.005892
v -0.304323 0.312637 -0.006334
v -0.296005 0.297131 0.024128
v -0.322761 0.316703 0.015834
v -0.340335 0.305627 0.011835
v -0.317778 0.304985 0.030596
v -0.323410 0.316311 -0.030230
v -0.296049 0.297186 -0.035810
v -0.317513 0.305169 -0.042330
v -0.323410 0.316311 -0.030230
v -0.340567 0.305301 -0.023203
v -0.323569 0.320813 -0.006350
v -0.340567 0.305301 -0.023203
v -0.340335 0.305627 0.011835
v -0.323569 0.320813 -0.006350
v -0.340335 0.305627 0.011835
v -0.322761 0.316703 0.015834
v -0.323569 0.320813 -0.006350
v -0.304323 0.312637 -0.006334
v -0.285522 0.295234 -0.005892
v -0.296049 0.297186 -0.035810
v 0.320956 0.351267 -0.005856
v 0.340766 0.302429 -0.112913
v 0.237357 0.212092 -0.078587
v 0.222283 0.243475 -0.005856
v 0.340766 0.302429 -0.112913
v 0.385512 0.192326 -0.139511
v 0.272184 0.137634 -0.099011
v 0.237357 0.212092 -0.078587
v 0.385512 0.192326 -0.139511
v 0.421449 0.104073 -0.065284
v 0.300257 0.075599 -0.047849
v 0.272184 0.137634 -0.099011
v 0.421449 0.104073 -0.065284
v 0.421449 0.104073 0.053573
v 0.300257 0.075599 0.036138
v 0.300257 0.075599 -0.047849
v 0.421449 0.104073 0.053573
v 0.385512 0.192326 0.127800
v 0.272184 0.137634 0.087300
v 0.300257 0.075599 0.036138
v 0.300257 0.075599 -0.047849
v 0.118408 0.104605 -0.047036
v 0.143301 0.158550 -0.095422
v 0.272184 0.137634 -0.099011
v 0.385512 0.192326 0.127800
v 0.340766 0.302429 0.101201
v 0.237357 0.212092 0.066876
v 0.272184 0.137634 0.087300
v 0.340766 0.302429 0.101201
v 0.320956 0.351267 -0.005856
v 0.222283 0.243475 -0.005856
v 0.237357 0.212092 0.066876
v 0.385512 0.192326 0.127800
v 0.378524 0.195141 0.093147
v 0.346350 0.274307 0.074022
v 0.340766 0.302429 0.101201
v 0.178848 0.209884 0.063844
v 0.119936 0.264705 0.063385
v 0.087120 0.200928 0.078771
v 0.143301 0.158551 0.083710
v 0.237357 0.212092 0.066876
v 0.178848 0.209884 0.063844
v 0.143301 0.158551 0.083710
v 0.272184 0.137634 0.087300
v 0.300257 0.075599 0.036138
v 0.118408 0.104605 0.035325
v 0.118408 0.104605 -0.047036
v 0.300257 0.075599 -0.047849
v 0.222283 0.243475 -0.005856
v 0.199500 0.235728 -0.005856
v 0.178848 0.209884 0.063844
v 0.237357 0.212092 0.066876
v 0.272184 0.137634 -0.099011
v 0.143301 0.158550 -0.095422
v 0.178848 0.209884 -0.075555
v 0.237357 0.212092 -0.078587
v 0.272184 0.137634 0.087300
v 0.143301 0.158551 0.083710
v 0.118408 0.104605 0.035325
v 0.300257 0.075599 0.036138
v 0.237357 0.212092 -0.078587
v 0.178848 0.209884 -0.075555
v 0.199500 0.235728 -0.005856
v 0.222283 0.243475 -0.005856
v 0.133665 0.285630 -0.005856
v 0.004569 0.290325 -0.005856
v 0.005164 0.264678 0.063400
v 0.119936 0.264705 0.063385
v 0.118408 0.104605 0.035325
v 0.060698 0.150259 0.033350
v 0.060698 0.150259 -0.045061
v 0.118408 0.104605 -0.047036
v 0.143301 0.158550 -0.095422
v 0.087120 0.200928 -0.090482
v 0.119936 0.264705 -0.075096
v 0.178848 0.209884 -0.075555
v 0.199500 0.235728 -0.005856
v 0.133665 0.285630 -0.005856
v 0.119936 0.264705 0.063385
v 0.178848 0.209884 0.063844
v 0.143301 0.158551 0.083710
v 0.087120 0.200928 0.078771
v 0.060698 0.150259 0.033350
v 0.118408 0.104605 0.035325
v 0.118408 0.104605 -0.047036
v 0.060698 0.150259 -0.045061
v 0.087120 0.200928 -0.090482
v 0.143301 0.158550 -0.095422
v 0.178848 0.209884 -0.075555
v 0.119936 0.264705 -0.075096
v 0.133665 0.285630 -0.005856
v 0.199500 0.235728 -0.005856
v 0.012942 0.161131 0.026784
v -0.052995 0.107433 0.031007
v -0.052995 0.107433 -0.042718
v 0.012942 0.161131 -0.038495
v 0.087120 0.200928 0.078771
v 0.009113 0.203355 0.077605
v 0.012942 0.161131 0.026784
v 0.060698 0.150259 0.033350
v 0.060698 0.150259 -0.045061
v 0.012942 0.161131 -0.038495
v 0.009113 0.203355 -0.089316
v 0.087120 0.200928 -0.090482
v 0.119936 0.264705 -0.075096
v 0.005164 0.264678 -0.075111
v 0.004569 0.290325 -0.005856
v 0.133665 0.285630 -0.005856
v 0.119936 0.264705 0.063385
v 0.005164 0.264678 0.063400
v 0.009113 0.203355 0.077605
v 0.087120 0.200928 0.078771
v 0.060698 0.150259 0.033350
v 0.012942 0.161131 0.026784
v 0.012942 0.161131 -0.038495
v 0.060698 0.150259 -0.045061
v 0.087120 0.200928 -0.090482
v 0.009113 0.203355 -0.089316
v 0.005164 0.264678 -0.075111
v 0.119936 0.264705 -0.075096
v -0.112962 0.189543 -0.069133
v -0.183538 0.172543 -0.062945
v -0.172419 0.189523 -0.005856
v -0.127712 0.207953 -0.005856
v 0.009113 0.203355 -0.089316
v -0.080085 0.143582 -0.086606
v -0.112962 0.189543 -0.069133
v 0.005164 0.264678 -0.075111
v 0.004569 0.290325 -0.005856
v -0.127712 0.207953 -0.005856
v -0.112962 0.189543 0.057422
v 0.005164 0.264678 0.063400
v 0.009113 0.203355 0.077605
v -0.080085 0.143582 0.074895
v -0.052995 0.107433 0.031007
v 0.012942 0.161131 0.026784
v 0.012942 0.161131 -0.038495
v -0.052995 0.107433 -0.042718
v -0.080085 0.143582 -0.086606
v 0.009113 0.203355 -0.089316
v 0.005164 0.264678 -0.075111
v -0.112962 0.189543 -0.069133
v -0.127712 0.207953 -0.005856
v 0.004569 0.290325 -0.005856
v 0.005164 0.264678 0.063400
v -0.112962 0.189543 0.057422
v -0.080085 0.143582 0.074895
v 0.009113 0.203355 0.077605
v -0.172419 0.189523 -0.005856
v -0.235689 0.231211 -0.005859
v -0.250444 0.223966 0.040838
v -0.183538 0.172543 0.051234
v -0.112962 0.189543 0.057422
v -0.183538 0.172543 0.051234
v -0.193841 0.123844 0.069654
v -0.080085 0.143582 0.074895
v -0.052995 0.107433 0.031007
v -0.198002 0.082259 0.029441
v -0.198001 0.082259 -0.041152
v -0.052995 0.107433 -0.042718
v -0.080085 0.143582 -0.086606
v -0.193841 0.123844 -0.081365
v -0.183538 0.172543 -0.062945
v -0.112962 0.189543 -0.069133
v -0.127712 0.207953 -0.005856
v -0.172419 0.189523 -0.005856
v -0.183538 0.172543 0.051234
v -0.112962 0.189543 0.057422
v -0.080085 0.143582 0.074895
v -0.193841 0.123844 0.069654
v -0.198002 0.082259 0.029441
v -0.052995 0.107433 0.031007
v -0.052995 0.107433 -0.042718
v -0.198001 0.082259 -0.041152
v -0.193841 0.123844 -0.081365
v -0.080085 0.143582 -0.086606
v -0.250444 0.223966 0.040838
v -0.296005 0.297131 0.024128
v -0.317778 0.304985 0.030596
v -0.284021 0.208650 0.052685
v -0.193841 0.123844 0.069654
v -0.284021 0.208650 0.052685
v -0.312077 0.196247 0.020612
v -0.198002 0.082259 0.029441
v -0.198001 0.082259 -0.041152
v -0.312057 0.196260 -0.032391
v -0.284002 0.208663 -0.064404
v -0.193841 0.123844 -0.081365
v -0.183538 0.172543 -0.062945
v -0.250446 0.223965 -0.052551
v -0.235689 0.231211 -0.005859
v -0.172419 0.189523 -0.005856
v -0.183538 0.172543 0.051234
v -0.250444 0.223966 0.040838
v -0.284021 0.208650 0.052685
v -0.193841 0.123844 0.069654
v -0.198002 0.082259 0.029441
v -0.312077 0.196247 0.020612
v -0.312057 0.196260 -0.032391
v -0.198001 0.082259 -0.041152
v -0.193841 0.123844 -0.081365
v -0.284002 0.208663 -0.064404
v -0.250446 0.223965 -0.052551
v -0.183538 0.172543 -0.062945
v -0.312077 0.196247 0.020612
v -0.340335 0.305627 0.011835
v -0.340567 0.305301 -0.023203
v -0.312057 0.196260 -0.032391
v -0.284002 0.208663 -0.064404
v -0.317513 0.305169 -0.042330
v -0.296049 0.297186 -0.035810
v -0.250446 0.223965 -0.052551
v -0.235689 0.231211 -0.005859
v -0.285522 0.295234 -0.005892
v -0.296005 0.297131 0.024128
v -0.250444 0.223966 0.040838
v -0.284021 0.208650 0.052685
v -0.317778 0.304985 0.030596
v -0.340335 0.305627 0.011835
v -0.312077 0.196247 0.020612
v -0.312057 0.196260 -0.032391
v -0.340567 0.305301 -0.023203
v -0.317513 0.305169 -0.042330
v -0.284002 0.208663 -0.064404
v -0.250446 0.223965 -0.052551
v -0.296049 0.297186 -0.035810
v -0.285522 0.295234 -0.005892
v -0.235689 0.231211 -0.005859
v -0.323410 0.316311 -0.030230
v -0.323569 0.320813 -0.006350
v -0.304323 0.312637 -0.006334
v -0.296049 0.297186 -0.035810
v -0.323569 0.320813 -0.006350
v -0.322761 0.316703 0.015834
v -0.296005 0.297131 0.024128
v -0.304323 0.312637 -0.006334
v 0.320720 0.297729 -0.036323
v 0.301777 0.296327 -0.010537
v 0.281313 0.272028 -0.014599
v 0.287609 0.258412 -0.042896
v 0.311963 0.274296 -0.056321
v 0.239413 0.304690 -0.034276
v 0.264836 0.334877 -0.029229
v 0.288370 0.336619 -0.061264
v 0.247235 0.287775 -0.069430
v 0.277491 0.307509 -0.086109
v 0.317188 0.293699 0.041362
v 0.306839 0.266200 0.054105
v 0.284499 0.254057 0.034633
v 0.301244 0.298552 0.014014
v 0.281041 0.274052 0.009855
v 0.241983 0.275997 0.064755
v 0.269737 0.291082 0.088946
v 0.282594 0.325245 0.073114
v 0.262786 0.331274 0.039138
v 0.237687 0.300837 0.033972
v 0.385512 0.192326 -0.139511
v 0.378524 0.195141 -0.099055
v 0.404363 0.131685 -0.045684
v 0.421449 0.104073 -0.065284
v 0.421449 0.104073 0.053573
v 0.404363 0.131685 0.039776
v 0.378524 0.195141 0.093147
v 0.385512 0.192326 0.127800
v 0.421449 0.104073 -0.065284
v 0.404363 0.131685 -0.045684
v 0.404363 0.131685 0.039776
v 0.421449 0.104073 0.053573
v 0.340766 0.302429 0.101201
v 0.346350 0.274307 0.074022
v 0.332106 0.309423 -0.002954
v 0.320956 0.351267 -0.005856
v 0.320956 0.351267 -0.005856
v 0.332106 0.309423 -0.002954
v 0.346350 0.274307 -0.079931
v 0.340766 0.302429 -0.112913
v 0.340766 0.302429 -0.112913
v 0.346350 0.274307 -0.079931
v 0.378524 0.195141 -0.099055
v 0.385512 0.192326 -0.139511
v 0.177876 0.213297 0.033074
v 0.158395 0.225117 0.019639
v 0.169113 0.237400 -0.001192
v 0.195219 0.233172 -0.000632
v 0.200635 0.218276 0.020545
v 0.172087 0.278008 0.021403
v 0.158771 0.262748 0.047283
v 0.182974 0.248065 0.063973
v 0.204520 0.272755 0.022099
v 0.211248 0.254249 0.048408
v 0.154651 0.232965 -0.021226
v 0.153893 0.221250 -0.044930
v 0.176159 0.207272 -0.047855
v 0.177385 0.226228 -0.009501
v 0.190678 0.210349 -0.025958
v 0.198624 0.241425 -0.070193
v 0.170962 0.258790 -0.066559
v 0.171902 0.273345 -0.037110
v 0.200146 0.264975 -0.022544
v 0.216661 0.245248 -0.042990
v 0.101512 0.268182 -0.011450
v 0.081365 0.264536 -0.028198
v 0.090043 0.249724 -0.048323
v 0.115553 0.244216 -0.044012
v 0.122642 0.255624 -0.021224
v 0.099347 0.286958 -0.074695
v 0.088566 0.305360 -0.049693
v 0.113596 0.309889 -0.028887
v 0.131040 0.280115 -0.069340
v 0.139846 0.294287 -0.041029
v 0.090970 0.260672 0.044433
v 0.076939 0.271083 0.024572
v 0.093859 0.278676 0.005711
v 0.116563 0.261832 0.037847
v 0.118348 0.272959 0.013916
v 0.096572 0.322549 0.021134
v 0.075550 0.313115 0.044566
v 0.092982 0.300182 0.069240
v 0.124777 0.301622 0.061057
v 0.126995 0.315446 0.031326
v -0.002090 0.268970 -0.019091
v -0.003015 0.256488 -0.042394
v 0.021826 0.251475 -0.049974
v 0.023324 0.271671 -0.012268
v 0.038105 0.260859 -0.031356
v 0.024143 0.290121 -0.075850
v -0.006719 0.296348 -0.066433
v -0.005569 0.311855 -0.037482
v 0.026004 0.315211 -0.029007
v 0.044367 0.301779 -0.052719
v 0.024577 0.262691 0.037875
v 0.002753 0.259550 0.023262
v 0.007377 0.269856 -0.000657
v 0.032060 0.279367 -0.000826
v 0.042689 0.274939 0.022988
v -0.011619 0.310798 0.010804
v -0.017364 0.297994 0.040519
v 0.009748 0.301896 0.058674
v 0.019045 0.322614 0.010594
v 0.032251 0.317112 0.040179
v -0.082303 0.225480 -0.011658
v -0.088357 0.212208 -0.029187
v -0.070137 0.209563 -0.042644
v -0.060343 0.231037 -0.014281
v -0.052823 0.221200 -0.033432
v -0.081101 0.239746 -0.066734
v -0.103736 0.243033 -0.050017
v -0.096216 0.259521 -0.028240
v -0.068933 0.266425 -0.031499
v -0.059591 0.254203 -0.055290
v -0.070817 0.211962 0.031501
v -0.080341 0.218906 0.013658
v -0.068492 0.234774 0.005590
v -0.053083 0.223539 0.034460
v -0.051646 0.237637 0.018446
v -0.088374 0.262479 0.021835
v -0.103094 0.242765 0.031859
v -0.091262 0.234138 0.054026
v -0.069230 0.248521 0.057702
v -0.067445 0.266036 0.037807
v -0.158587 0.172787 0.027019
v -0.164442 0.180288 0.011860
v -0.152688 0.193800 0.005902
v -0.143214 0.181664 0.030430
v -0.139569 0.194650 0.017379
v -0.166709 0.223102 0.017664
v -0.181311 0.206315 0.025066
v -0.174037 0.196997 0.043899
v -0.154939 0.208024 0.048136
v -0.150410 0.224158 0.031922
v -0.163790 0.186336 -0.008907
v -0.169048 0.174084 -0.023433
v -0.153830 0.168994 -0.033232
v -0.145323 0.188819 -0.009728
v -0.139167 0.178101 -0.024761
v -0.157962 0.198768 -0.053749
v -0.176868 0.205091 -0.041576
v -0.170336 0.220312 -0.023530
v -0.147393 0.223397 -0.024549
v -0.139746 0.210081 -0.043226
v -0.225741 0.202728 0.025759
v -0.239849 0.208285 0.022846
v -0.237948 0.216188 0.009898
v -0.222665 0.215515 0.004809
v -0.215121 0.207196 0.014612
v -0.229517 0.241303 0.021178
v -0.231879 0.231486 0.037264
v -0.214353 0.224582 0.040883
v -0.210531 0.240467 0.014855
v -0.201159 0.230133 0.027034
v -0.239855 0.203089 -0.028618
v -0.225971 0.198129 -0.021383
v -0.222079 0.207942 -0.008542
v -0.244544 0.215968 -0.020249
v -0.233557 0.218968 -0.007841
v -0.200064 0.227711 -0.021202
v -0.204900 0.215519 -0.037154
v -0.222148 0.221681 -0.046143
v -0.227973 0.237682 -0.035746
v -0.214325 0.241408 -0.020331
v -0.273922 0.243560 0.025759
v -0.283876 0.254997 0.022846
v -0.278544 0.261132 0.009898
v -0.265295 0.253485 0.004809
v -0.262439 0.242625 0.014612
v -0.259479 0.279527 0.021178
v -0.266103 0.271906 0.037264
v -0.253737 0.257696 0.040883
v -0.243019 0.270027 0.014855
v -0.239471 0.256535 0.027034
v -0.268268 0.246496 -0.008542
v -0.273367 0.261573 -0.007841
v -0.284498 0.263980 -0.020249
v -0.276248 0.239585 -0.021383
v -0.286279 0.250390 -0.028618
v -0.259780 0.275602 -0.035746
v -0.245951 0.272612 -0.020331
v -0.239617 0.253881 -0.021202
v -0.249531 0.245294 -0.037154
v -0.261992 0.258718 -0.046143
v -0.301654 0.278968 0.021023
v -0.309884 0.288426 0.018614
v -0.305476 0.293498 0.007908
v -0.294521 0.287175 0.003700
v -0.292159 0.278195 0.011806
v -0.289711 0.308709 0.017235
v -0.295188 0.302407 0.030536
v -0.284964 0.290657 0.033529
v -0.276101 0.300854 0.012007
v -0.273167 0.289697 0.022077
v -0.296979 0.281396 -0.007339
v -0.301195 0.293863 -0.006760
v -0.310399 0.295853 -0.017019
v -0.303577 0.275681 -0.017957
v -0.311871 0.284616 -0.023940
v -0.289960 0.305463 -0.029833
v -0.278525 0.302991 -0.017087
v -0.273288 0.287503 -0.017807
v -0.281485 0.280403 -0.030998
v -0.291789 0.291503 -0.038431
v 0.311963 0.274296 -0.056321
v 0.287609 0.258412 -0.042896
v 0.240378 0.277825 -0.074233
v 0.282991 0.305618 -0.097724
v 0.287609 0.258412 -0.042896
v 0.281313 0.272028 -0.014599
v 0.229362 0.301648 -0.024722
v 0.240378 0.277825 -0.074233
v 0.281313 0.272028 -0.014599
v 0.301777 0.296327 -0.010537
v 0.265168 0.344164 -0.017614
v 0.229362 0.301648 -0.024722
v 0.301777 0.296327 -0.010537
v 0.320720 0.297729 -0.036323
v 0.298313 0.346617 -0.062732
v 0.265168 0.344164 -0.017614
v 0.320720 0.297729 -0.036323
v 0.311963 0.274296 -0.056321
v 0.282991 0.305618 -0.097724
v 0.298313 0.346617 -0.062732
v 0.281041 0.274052 0.009855
v 0.284499 0.254057 0.034633
v 0.235498 0.265021 0.067319
v 0.229447 0.300006 0.023964
v 0.284499 0.254057 0.034633
v 0.306839 0.266200 0.054105
v 0.274587 0.286267 0.101390
v 0.235498 0.265021 0.067319
v 0.306839 0.266200 0.054105
v 0.317188 0.293699 0.041362
v 0.292695 0.334383 0.079092
v 0.274587 0.286267 0.101390
v 0.317188 0.293699 0.041362
v 0.301244 0.298552 0.014014
v 0.264797 0.342874 0.031240
v 0.292695 0.334383 0.079092
v 0.301244 0.298552 0.014014
v 0.281041 0.274052 0.009855
v 0.229447 0.300006 0.023964
v 0.264797 0.342874 0.031240
v 0.346350 0.274307 0.074022
v 0.378524 0.195141 0.093147
v 0.404363 0.131685 0.039776
v 0.332106 0.309423 -0.002954
v 0.404363 0.131685 -0.045684
v 0.346350 0.274307 -0.079931
v 0.378524 0.195141 -0.099055
v 0.169113 0.237400 -0.001192
v 0.158395 0.225117 0.019639
v 0.148504 0.262573 0.050429
v 0.167258 0.284064 0.013980
v 0.158395 0.225117 0.019639
v 0.177876 0.213297 0.033074
v 0.182591 0.241892 0.073935
v 0.148504 0.262573 0.050429
v 0.177876 0.213297 0.033074
v 0.200635 0.218276 0.020545
v 0.222412 0.250602 0.052014
v 0.182591 0.241892 0.073935
v 0.200635 0.218276 0.020545
v 0.195219 0.233172 -0.000632
v 0.212936 0.276666 0.014959
v 0.222412 0.250602 0.052014
v 0.195219 0.233172 -0.000632
v 0.169113 0.237400 -0.001192
v 0.167258 0.284064 0.013980
v 0.212936 0.276666 0.014959
v 0.153893 0.221250 -0.044930
v 0.154651 0.232965 -0.021226
v 0.164755 0.280032 -0.032689
v 0.163431 0.259533 -0.074164
v 0.154651 0.232965 -0.021226
v 0.177385 0.226228 -0.009501
v 0.204534 0.268244 -0.012173
v 0.164755 0.280032 -0.032689
v 0.177385 0.226228 -0.009501
v 0.190678 0.210349 -0.025958
v 0.227793 0.240460 -0.040969
v 0.204534 0.268244 -0.012173
v 0.190678 0.210349 -0.025958
v 0.176159 0.207272 -0.047855
v 0.202390 0.235077 -0.079282
v 0.227793 0.240460 -0.040969
v 0.176159 0.207272 -0.047855
v 0.153893 0.221250 -0.044930
v 0.163431 0.259533 -0.074164
v 0.202390 0.235077 -0.079282
v 0.090043 0.249724 -0.048323
v 0.081365 0.264536 -0.028198
v 0.078852 0.309707 -0.048250
v 0.094036 0.283790 -0.083462
v 0.081365 0.264536 -0.028198
v 0.101512 0.268182 -0.011450
v 0.114104 0.316086 -0.018945
v 0.078852 0.309707 -0.048250
v 0.101512 0.268182 -0.011450
v 0.122642 0.255624 -0.021224
v 0.151075 0.294112 -0.036047
v 0.114104 0.316086 -0.018945
v 0.122642 0.255624 -0.021224
v 0.115553 0.244216 -0.044012
v 0.138672 0.274152 -0.075920
v 0.151075 0.294112 -0.036047
v 0.115553 0.244216 -0.044012
v 0.090043 0.249724 -0.048323
v 0.094036 0.283790 -0.083462
v 0.138672 0.274152 -0.075920
v 0.076939 0.271083 0.024572
v 0.090970 0.260672 0.044433
v 0.089496 0.296381 0.078660
v 0.064945 0.314596 0.043909
v 0.090970 0.260672 0.044433
v 0.116563 0.261832 0.037847
v 0.134275 0.298409 0.067136
v 0.089496 0.296381 0.078660
v 0.116563 0.261832 0.037847
v 0.118348 0.272959 0.013916
v 0.137400 0.317878 0.025263
v 0.134275 0.298409 0.067136
v 0.118348 0.272959 0.013916
v 0.093859 0.278676 0.005711
v 0.094551 0.327882 0.010908
v 0.137400 0.317878 0.025263
v 0.093859 0.278676 0.005711
v 0.076939 0.271083 0.024572
v 0.064945 0.314596 0.043909
v 0.094551 0.327882 0.010908
v 0.021826 0.251475 -0.049974
v -0.003015 0.256488 -0.042394
v -0.015881 0.294276 -0.071640
v 0.027585 0.285505 -0.084903
v -0.003015 0.256488 -0.042394
v -0.002090 0.268970 -0.019091
v -0.014262 0.316115 -0.030865
v -0.015881 0.294276 -0.071640
v -0.002090 0.268970 -0.019091
v 0.023324 0.271671 -0.012268
v 0.030206 0.320842 -0.018928
v -0.014262 0.316115 -0.030865
v 0.023324 0.271671 -0.012268
v 0.038105 0.260859 -0.031356
v 0.056068 0.301924 -0.052325
v 0.030206 0.320842 -0.018928
v 0.038105 0.260859 -0.031356
v 0.021826 0.251475 -0.049974
v 0.027585 0.285505 -0.084903
v 0.056068 0.301924 -0.052325
v 0.007377 0.269856 -0.000657
v 0.002753 0.259550 0.023262
v -0.026390 0.293565 0.044297
v -0.018298 0.311598 0.002446
v 0.002753 0.259550 0.023262
v 0.024577 0.262691 0.037875
v 0.011796 0.299061 0.069866
v -0.026390 0.293565 0.044297
v 0.024577 0.262691 0.037875
v 0.042689 0.274939 0.022988
v 0.043488 0.320491 0.043818
v 0.011796 0.299061 0.069866
v 0.042689 0.274939 0.022988
v 0.032060 0.279367 -0.000826
v 0.024889 0.328239 0.002150
v 0.043488 0.320491 0.043818
v 0.032060 0.279367 -0.000826
v 0.007377 0.269856 -0.000657
v -0.018298 0.311598 0.002446
v 0.024889 0.328239 0.002150
v -0.070137 0.209563 -0.042644
v -0.088357 0.212208 -0.029187
v -0.112329 0.239792 -0.051197
v -0.080449 0.235163 -0.074742
v -0.088357 0.212208 -0.029187
v -0.082303 0.225480 -0.011658
v -0.101738 0.263014 -0.020526
v -0.112329 0.239792 -0.051197
v -0.082303 0.225480 -0.011658
v -0.060343 0.231037 -0.014281
v -0.063312 0.272738 -0.025116
v -0.101738 0.263014 -0.020526
v -0.060343 0.231037 -0.014281
v -0.052823 0.221200 -0.033432
v -0.050155 0.255525 -0.058624
v -0.063312 0.272738 -0.025116
v -0.052823 0.221200 -0.033432
v -0.070137 0.209563 -0.042644
v -0.080449 0.235163 -0.074742
v -0.050155 0.255525 -0.058624
v -0.070817 0.211962 0.031501
v -0.053083 0.223539 0.034460
v -0.063519 0.248138 0.064231
v -0.094550 0.227882 0.059054
v -0.053083 0.223539 0.034460
v -0.051646 0.237637 0.018446
v -0.061005 0.272807 0.036211
v -0.063519 0.248138 0.064231
v -0.051646 0.237637 0.018446
v -0.068492 0.234774 0.005590
v -0.090482 0.267797 0.013716
v -0.061005 0.272807 0.036211
v -0.068492 0.234774 0.005590
v -0.080341 0.218906 0.013658
v -0.111213 0.240032 0.027833
v -0.090482 0.267797 0.013716
v -0.080341 0.218906 0.013658
v -0.070817 0.211962 0.031501
v -0.094550 0.227882 0.059054
v -0.111213 0.240032 0.027833
v -0.150768 0.207061 0.053804
v -0.174037 0.196997 0.043899
v -0.177666 0.191529 0.047836
v -0.144390 0.229784 0.030968
v -0.167346 0.228296 0.010887
v -0.187911 0.204653 0.021312
v -0.177666 0.191529 0.047836
v -0.152688 0.193800 0.005902
v -0.164442 0.180288 0.011860
v -0.187911 0.204653 0.021312
v -0.167346 0.228296 0.010887
v -0.143214 0.181664 0.030430
v -0.139569 0.194650 0.017379
v -0.144390 0.229784 0.030968
v -0.150768 0.207061 0.053804
v -0.139569 0.194650 0.017379
v -0.152688 0.193800 0.005902
v -0.167346 0.228296 0.010887
v -0.144390 0.229784 0.030968
v -0.158587 0.172787 0.027019
v -0.143214 0.181664 0.030430
v -0.150768 0.207061 0.053804
v -0.177666 0.191529 0.047836
v -0.164442 0.180288 0.011860
v -0.158587 0.172787 0.027019
v -0.177666 0.191529 0.047836
v -0.187911 0.204653 0.021312
v -0.184076 0.203058 -0.043042
v -0.157962 0.198768 -0.053749
v -0.157449 0.194153 -0.060186
v -0.145323 0.188819 -0.009728
v -0.139167 0.178101 -0.024761
v -0.131793 0.210087 -0.045364
v -0.142563 0.228840 -0.019060
v -0.169048 0.174084 -0.023433
v -0.163790 0.186336 -0.008907
v -0.174876 0.224496 -0.017625
v -0.184076 0.203058 -0.043042
v -0.163790 0.186336 -0.008907
v -0.145323 0.188819 -0.009728
v -0.142563 0.228840 -0.019060
v -0.174876 0.224496 -0.017625
v -0.157449 0.194153 -0.060186
v -0.131793 0.210087 -0.045364
v -0.142563 0.228840 -0.019060
v -0.174876 0.224496 -0.017625
v -0.176868 0.205091 -0.041576
v -0.184076 0.203058 -0.043042
v -0.153830 0.168994 -0.033232
v -0.169048 0.174084 -0.023433
v -0.184076 0.203058 -0.043042
v -0.157449 0.194153 -0.060186
v -0.139167 0.178101 -0.024761
v -0.153830 0.168994 -0.033232
v -0.157449 0.194153 -0.060186
v -0.131793 0.210087 -0.045364
v -0.212779 0.221282 0.045724
v -0.231879 0.231486 0.037264
v -0.237463 0.231005 0.040627
v -0.194198 0.229099 0.026219
v -0.207397 0.243654 0.009066
v -0.234137 0.244832 0.017971
v -0.237463 0.231005 0.040627
v -0.222665 0.215515 0.004809
v -0.237948 0.216188 0.009898
v -0.234137 0.244832 0.017971
v -0.207397 0.243654 0.009066
v -0.225741 0.202728 0.025759
v -0.215121 0.207196 0.014612
v -0.194198 0.229099 0.026219
v -0.212779 0.221282 0.045724
v -0.215121 0.207196 0.014612
v -0.222665 0.215515 0.004809
v -0.207397 0.243654 0.009066
v -0.194198 0.229099 0.026219
v -0.239849 0.208285 0.022846
v -0.225741 0.202728 0.025759
v -0.212779 0.221282 0.045724
v -0.237463 0.231005 0.040627
v -0.237948 0.216188 0.009898
v -0.239849 0.208285 0.022846
v -0.237463 0.231005 0.040627
v -0.234137 0.244832 0.017971
v -0.233164 0.241420 -0.036997
v -0.222148 0.221681 -0.046143
v -0.224960 0.218885 -0.051641
v -0.222079 0.207942 -0.008542
v -0.225971 0.198129 -0.021383
v -0.200667 0.210206 -0.038981
v -0.193857 0.227376 -0.016513
v -0.244544 0.215968 -0.020249
v -0.233557 0.218968 -0.007841
v -0.213941 0.246668 -0.015287
v -0.233164 0.241420 -0.036997
v -0.233557 0.218968 -0.007841
v -0.222079 0.207942 -0.008542
v -0.193857 0.227376 -0.016513
v -0.213941 0.246668 -0.015287
v -0.224960 0.218885 -0.051641
v -0.200667 0.210206 -0.038981
v -0.193857 0.227376 -0.016513
v -0.213941 0.246668 -0.015287
v -0.227973 0.237682 -0.035746
v -0.233164 0.241420 -0.036997
v -0.239855 0.203089 -0.028618
v -0.244544 0.215968 -0.020249
v -0.233164 0.241420 -0.036997
v -0.224960 0.218885 -0.051641
v -0.225971 0.198129 -0.021383
v -0.239855 0.203089 -0.028618
v -0.224960 0.218885 -0.051641
v -0.200667 0.210206 -0.038981
v -0.253864 0.254042 0.045724
v -0.266103 0.271906 0.037264
v -0.271279 0.274056 0.040627
v -0.233771 0.252407 0.026219
v -0.238769 0.271410 0.009066
v -0.261950 0.284789 0.017971
v -0.271279 0.274056 0.040627
v -0.265295 0.253485 0.004809
v -0.278544 0.261132 0.009898
v -0.261950 0.284789 0.017971
v -0.238769 0.271410 0.009066
v -0.273922 0.243560 0.025759
v -0.262439 0.242625 0.014612
v -0.233771 0.252407 0.026219
v -0.253864 0.254042 0.045724
v -0.262439 0.242625 0.014612
v -0.265295 0.253485 0.004809
v -0.238769 0.271410 0.009066
v -0.233771 0.252407 0.026219
v -0.283876 0.254997 0.022846
v -0.273922 0.243560 0.025759
v -0.253864 0.254042 0.045724
v -0.271279 0.274056 0.040627
v -0.278544 0.261132 0.009898
v -0.283876 0.254997 0.022846
v -0.271279 0.274056 0.040627
v -0.261950 0.284789 0.017971
v -0.262661 0.281313 -0.036997
v -0.261992 0.258718 -0.046143
v -0.265777 0.257534 -0.051641
v -0.268268 0.246496 -0.008542
v -0.276248 0.239585 -0.021383
v -0.248226 0.238628 -0.038981
v -0.234263 0.250721 -0.016513
v -0.284498 0.263980 -0.020249
v -0.273367 0.261573 -0.007841
v -0.243185 0.277102 -0.015287
v -0.262661 0.281313 -0.036997
v -0.273367 0.261573 -0.007841
v -0.268268 0.246496 -0.008542
v -0.234263 0.250721 -0.016513
v -0.243185 0.277102 -0.015287
v -0.265777 0.257534 -0.051641
v -0.248226 0.238628 -0.038981
v -0.234263 0.250721 -0.016513
v -0.243185 0.277102 -0.015287
v -0.259780 0.275602 -0.035746
v -0.262661 0.281313 -0.036997
v -0.286279 0.250390 -0.028618
v -0.284498 0.263980 -0.020249
v -0.262661 0.281313 -0.036997
v -0.265777 0.257534 -0.051641
v -0.276248 0.239585 -0.021383
v -0.286279 0.250390 -0.028618
v -0.265777 0.257534 -0.051641
v -0.248226 0.238628 -0.038981
v -0.285068 0.287636 0.037532
v -0.295188 0.302407 0.030536
v -0.299469 0.304184 0.033317
v -0.268454 0.286284 0.021403
v -0.272586 0.301997 0.007220
v -0.291755 0.313060 0.014583
v -0.299469 0.304184 0.033317
v -0.294521 0.287175 0.003700
v -0.305476 0.293498 0.007908
v -0.291755 0.313060 0.014583
v -0.272586 0.301997 0.007220
v -0.301654 0.278968 0.021023
v -0.292159 0.278195 0.011806
v -0.268454 0.286284 0.021403
v -0.285068 0.287636 0.037532
v -0.292159 0.278195 0.011806
v -0.294521 0.287175 0.003700
v -0.272586 0.301997 0.007220
v -0.268454 0.286284 0.021403
v -0.309884 0.288426 0.018614
v -0.301654 0.278968 0.021023
v -0.285068 0.287636 0.037532
v -0.299469 0.304184 0.033317
v -0.305476 0.293498 0.007908
v -0.309884 0.288426 0.018614
v -0.299469 0.304184 0.033317
v -0.291755 0.313060 0.014583
v -0.292342 0.310185 -0.030868
v -0.291789 0.291503 -0.038431
v -0.294919 0.290523 -0.042977
v -0.296979 0.281396 -0.007339
v -0.303577 0.275681 -0.017957
v -0.280407 0.274890 -0.032509
v -0.268861 0.284890 -0.013931
v -0.310399 0.295853 -0.017019
v -0.301195 0.293863 -0.006760
v -0.276238 0.306704 -0.012917
v -0.292342 0.310185 -0.030868
v -0.301195 0.293863 -0.006760
v -0.296979 0.281396 -0.007339
v -0.268861 0.284890 -0.013931
v -0.276238 0.306704 -0.012917
v -0.294919 0.290523 -0.042977
v -0.280407 0.274890 -0.032509
v -0.268861 0.284890 -0.013931
v -0.276238 0.306704 -0.012917
v -0.289960 0.305463 -0.029833
v -0.292342 0.310185 -0.030868
v -0.311871 0.284616 -0.023940
v -0.310399 0.295853 -0.017019
v -0.292342 0.310185 -0.030868
v -0.294919 0.290523 -0.042977
v -0.303577 0.275681 -0.017957
v -0.311871 0.284616 -0.023940
v -0.294919 0.290523 -0.042977
v -0.280407 0.274890 -0.032509
v -0.094550 0.227882 0.059054
v -0.111213 0.240032 0.027833
v -0.063519 0.248138 0.064231
v -0.090482 0.267797 0.013716
v -0.061005 0.272807 0.036211
v -0.080449 0.235163 -0.074742
v -0.050155 0.255525 -0.058624
v -0.112329 0.239792 -0.051197
v -0.063312 0.272738 -0.025116
v -0.101738 0.263014 -0.020526
v -0.018298 0.311598 0.002446
v 0.024889 0.328239 0.002150
v -0.026390 0.293565 0.044297
v 0.043488 0.320491 0.043818
v 0.011796 0.299061 0.069866
v 0.027585 0.285505 -0.084903
v 0.056068 0.301924 -0.052325
v -0.015881 0.294276 -0.071640
v 0.030206 0.320842 -0.018928
v -0.014262 0.316115 -0.030865
v 0.064945 0.314596 0.043909
v 0.094551 0.327882 0.010908
v 0.089496 0.296381 0.078660
v 0.137400 0.317878 0.025263
v 0.134275 0.298409 0.067136
v 0.094036 0.283790 -0.083462
v 0.138672 0.274152 -0.075920
v 0.078852 0.309707 -0.048250
v 0.151075 0.294112 -0.036047
v 0.114104 0.316086 -0.018945
v 0.163431 0.259533 -0.074164
v 0.202390 0.235077 -0.079282
v 0.164755 0.280032 -0.032689
v 0.227793 0.240460 -0.040969
v 0.204534 0.268244 -0.012173
v 0.167258 0.284064 0.013980
v 0.212936 0.276666 0.014959
v 0.148504 0.262573 0.050429
v 0.222412 0.250602 0.052014
v 0.182591 0.241892 0.073935
v 0.229447 0.300006 0.023964
v 0.264797 0.342874 0.031240
v 0.235498 0.265021 0.067319
v 0.292695 0.334383 0.079092
v 0.274587 0.286267 0.101390
v 0.282991 0.305618 -0.097724
v 0.298313 0.346617 -0.062732
v 0.240378 0.277825 -0.074233
v 0.265168 0.344164 -0.017614
v 0.229362 0.301648 -0.024722
vn 0.472130 0.881529 0.000000
vn 0.472130 0.881529 0.000000
vn 0.472130 0.881529 0.000000
vn 0.472130 0.881529 0.000000
vn -0.067339 0.049510 -0.996501
vn -0.067339 0.049510 -0.996501
vn -0.067339 0.049510 -0.996501
vn -0.067339 0.049510 -0.996501
vn -0.109588 0.993961 -0.005629
vn -0.109588 0.993961 -0.005629
vn -0.109588 0.993961 -0.005629
vn -0.109588 0.993961 -0.005629
vn -0.008020 0.046053 0.998907
vn -0.008020 0.046053 0.998907
vn -0.008020 0.046053 0.998907
vn -0.008020 0.046053 0.998907
vn 0.059115 0.998251 0.000830
vn 0.059115 0.998251 0.000830
vn 0.059115 0.998251 0.000830
vn 0.059115 0.998251 0.000830
vn -0.491245 0.112197 0.863765
vn -0.491245 0.112197 0.863765
vn -0.491245 0.112197 0.863765
vn -0.491245 0.112197 0.863765
vn -0.157723 0.098297 -0.982579
vn -0.157723 0.098297 -0.982579
vn -0.157723 0.098297 -0.982579
vn -0.157723 0.098297 -0.982579
vn -0.255160 0.098423 0.961876
vn -0.255160 0.098423 0.961876
vn -0.255160 0.098423 0.961876
vn -0.255160 0.098423 0.961876
vn -0.997262 0.000000 -0.073945
vn -0.997262 0.000000 -0.073945
vn -0.997262 0.000000 -0.073945
vn -0.997262 0.000000 -0.073945
vn 0.000000 -1.000000 0.000000
vn 0.000000 -1.000000 0.000000
vn 0.000000 -1.000000 0.000000
vn 0.000000 -1.000000 0.000000
vn 0.000000 -1.000000 0.000000
vn 0.000000 -1.000000 0.000000
vn 0.000000 -1.000000 0.000000
vn 0.000000 -1.000000 0.000000
vn 0.000000 -1.000000 0.000000
vn 0.000000 -1.000000 0.000000
vn -0.561622 0.826236 -0.043763
vn -0.561622 0.826236 -0.043763
vn -0.561622 0.826236 -0.043763
vn -0.561622 0.826236 -0.043763
vn -0.323811 0.089639 -0.941866
vn -0.323811 0.089639 -0.941866
vn -0.323811 0.089639 -0.941866
vn -0.323811 0.089639 -0.941866
vn 0.969752 0.244091 0.000000
vn 0.969752 0.244091 0.000000
vn 0.969752 0.244091 0.000000
vn 0.969752 0.244091 0.000000
vn 0.385733 0.049409 -0.921287
vn 0.385733 0.049409 -0.921287
vn 0.385733 0.049409 -0.921287
vn 0.385733 0.049409 -0.921287
vn 0.385787 0.049297 0.921270
vn 0.385787 0.049297 0.921270
vn 0.385787 0.049297 0.921270
vn 0.385787 0.049297 0.921270
vn 0.419932 0.774516 0.473057
vn 0.419932 0.774516 0.473057
vn 0.419932 0.774516 0.473057
vn -0.569546 0.447416 -0.689519
vn -0.569546 0.447416 -0.689519
vn -0.569546 0.447416 -0.689519
vn 0.665007 0.723167 0.186537
vn 0.665007 0.723167 0.186537
vn 0.665007 0.723167 0.186537
vn -0.510506 0.581200 0.633711
vn -0.510506 0.581200 0.633711
vn -0.510506 0.581200 0.633711
vn 0.430657 0.758732 -0.488733
vn 0.430657 0.758732 -0.488733
vn 0.430657 0.758732 -0.488733
vn -0.577737 0.801382 -0.154943
vn -0.577737 0.801382 -0.154943
vn -0.577737 0.801382 -0.154943
vn -0.672769 0.739849 -0.002454
vn -0.672769 0.739849 -0.002454
vn -0.672769 0.739849 -0.002454
vn -0.552902 0.815467 0.171211
vn -0.552902 0.815467 0.171211
vn -0.552902 0.815467 0.171211
vn 0.669474 0.718471 -0.188689
vn 0.669474 0.718471 -0.188689
vn 0.669474 0.718471 -0.188689
vn -0.673999 0.617085 -0.406117
vn -0.673999 0.617085 -0.406117
vn -0.673999 0.617085 -0.406117
vn -0.673999 0.617085 -0.406117
vn -0.370511 0.076105 -0.925705
vn -0.370511 0.076105 -0.925705
vn -0.370511 0.076105 -0.925705
vn -0.370511 0.076105 -0.925705
vn 0.032854 -0.632006 -0.774267
vn 0.032854 -0.632006 -0.774267
vn 0.032854 -0.632006 -0.774267
vn 0.032854 -0.632006 -0.774267
vn 0.228721 -0.973492 0.000001
vn 0.228721 -0.973492 0.000001
vn 0.228721 -0.973492 0.000001
vn 0.228721 -0.973492 0.000001
vn 0.032853 -0.632004 0.774268
vn 0.032853 -0.632004 0.774268
vn 0.032853 -0.632004 0.774268
vn 0.032853 -0.632004 0.774268
vn -0.114894 -0.648805 -0.752231
vn -0.114894 -0.648805 -0.752231
vn -0.114894 -0.648805 -0.752231
vn -0.114894 -0.648805 -0.752231
vn -0.370511 0.076105 0.925705
vn -0.370511 0.076105 0.925705
vn -0.370511 0.076105 0.925705
vn -0.370511 0.076105 0.925705
vn -0.674000 0.617085 0.406116
vn -0.674000 0.617085 0.406116
vn -0.674000 0.617085 0.406116
vn -0.674000 0.617085 0.406116
vn 0.927395 0.338352 -0.159552
vn 0.927395 0.338352 -0.159552
vn 0.927395 0.338352 -0.159552
vn 0.927395 0.338352 -0.159552
vn 0.136351 0.215167 0.967012
vn 0.136351 0.215167 0.967012
vn 0.136351 0.215167 0.967012
vn 0.136351 0.215167 0.967012
vn -0.003196 0.305049 0.952331
vn -0.003196 0.305049 0.952331
vn -0.003196 0.305049 0.952331
vn -0.003196 0.305049 0.952331
vn -0.157512 -0.987517 0.000001
vn -0.157512 -0.987517 0.000001
vn -0.157512 -0.987517 0.000001
vn -0.157512 -0.987517 0.000001
vn -0.126561 0.922146 0.365552
vn -0.126561 0.922146 0.365552
vn -0.126561 0.922146 0.365552
vn -0.126561 0.922146 0.365552
vn -0.003196 0.305048 -0.952332
vn -0.003196 0.305048 -0.952332
vn -0.003196 0.305048 -0.952332
vn -0.003196 0.305048 -0.952332
vn -0.114894 -0.648803 0.752232
vn -0.114894 -0.648803 0.752232
vn -0.114894 -0.648803 0.752232
vn -0.114894 -0.648803 0.752232
vn -0.126559 0.922146 -0.365553
vn -0.126559 0.922146 -0.365553
vn -0.126559 0.922146 -0.365553
vn -0.126559 0.922146 -0.365553
vn 0.018145 0.947168 0.320225
vn 0.018145 0.947168 0.320225
vn 0.018145 0.947168 0.320225
vn 0.018145 0.947168 0.320225
vn -0.620425 -0.784266 0.000001
vn -0.620425 -0.784266 0.000001
vn -0.620425 -0.784266 0.000001
vn -0.620425 -0.784266 0.000001
vn 0.136350 0.215166 -0.967012
vn 0.136350 0.215166 -0.967012
vn 0.136350 0.215166 -0.967012
vn 0.136350 0.215166 -0.967012
vn 0.592614 0.707609 0.384837
vn 0.592614 0.707609 0.384837
vn 0.592614 0.707609 0.384837
vn 0.592614 0.707609 0.384837
vn -0.419959 -0.482970 0.768358
vn -0.419959 -0.482970 0.768358
vn -0.419959 -0.482970 0.768358
vn -0.419959 -0.482970 0.768358
vn -0.419959 -0.482972 -0.768357
vn -0.419959 -0.482972 -0.768357
vn -0.419959 -0.482972 -0.768357
vn -0.419959 -0.482972 -0.768357
vn 0.592614 0.707608 -0.384838
vn 0.592614 0.707608 -0.384838
vn 0.592614 0.707608 -0.384838
vn 0.592614 0.707608 -0.384838
vn 0.631471 -0.775399 0.000001
vn 0.631471 -0.775399 0.000001
vn 0.631471 -0.775399 0.000001
vn 0.631471 -0.775399 0.000001
vn -0.117358 -0.700628 0.703810
vn -0.117358 -0.700628 0.703810
vn -0.117358 -0.700628 0.703810
vn -0.117358 -0.700628 0.703810
vn -0.117360 -0.700629 -0.703808
vn -0.117360 -0.700629 -0.703808
vn -0.117360 -0.700629 -0.703808
vn -0.117360 -0.700629 -0.703808
vn 0.018144 0.947167 -0.320226
vn 0.018144 0.947167 -0.320226
vn 0.018144 0.947167 -0.320226
vn 0.018144 0.947167 -0.320226
vn -0.002933 0.230825 0.972991
vn -0.002933 0.230825 0.972991
vn -0.002933 0.230825 0.972991
vn -0.002933 0.230825 0.972991
vn -0.221985 -0.975050 0.000001
vn -0.221985 -0.975050 0.000001
vn -0.221985 -0.975050 0.000001
vn -0.221985 -0.975050 0.000001
vn -0.002934 0.230824 -0.972991
vn -0.002934 0.230824 -0.972991
vn -0.002934 0.230824 -0.972991
vn -0.002934 0.230824 -0.972991
vn -0.295808 0.914005 -0.277655
vn -0.295808 0.914005 -0.277655
vn -0.295808 0.914005 -0.277655
vn -0.295808 0.914005 -0.277655
vn -0.183303 0.219986 -0.958127
vn -0.183303 0.219986 -0.958127
vn -0.183303 0.219986 -0.958127
vn -0.183303 0.219986 -0.958127
vn -0.509240 0.797307 0.324000
vn -0.509240 0.797307 0.324000
vn -0.509240 0.797307 0.324000
vn -0.509240 0.797307 0.324000
vn 0.451934 -0.609185 0.651651
vn 0.451934 -0.609185 0.651651
vn 0.451934 -0.609185 0.651651
vn 0.451934 -0.609185 0.651651
vn 0.451934 -0.609186 -0.651650
vn 0.451934 -0.609186 -0.651650
vn 0.451934 -0.609186 -0.651650
vn 0.451934 -0.609186 -0.651650
vn -0.509241 0.797307 -0.324000
vn -0.509241 0.797307 -0.324000
vn -0.509241 0.797307 -0.324000
vn -0.509241 0.797307 -0.324000
vn -0.183302 0.219987 0.958126
vn -0.183302 0.219987 0.958126
vn -0.183302 0.219987 0.958126
vn -0.183302 0.219987 0.958126
vn 0.535064 0.783386 0.316249
vn 0.535064 0.783386 0.316249
vn 0.535064 0.783386 0.316249
vn 0.535064 0.783386 0.316249
vn -0.123091 0.326048 0.937305
vn -0.123091 0.326048 0.937305
vn -0.123091 0.326048 0.937305
vn -0.123091 0.326048 0.937305
vn 0.171049 -0.985263 0.000001
vn 0.171049 -0.985263 0.000001
vn 0.171049 -0.985263 0.000001
vn 0.171049 -0.985263 0.000001
vn -0.123091 0.326047 -0.937306
vn -0.123091 0.326047 -0.937306
vn -0.123091 0.326047 -0.937306
vn -0.123091 0.326047 -0.937306
vn -0.295808 0.914005 0.277655
vn -0.295808 0.914005 0.277655
vn -0.295808 0.914005 0.277655
vn -0.295808 0.914005 0.277655
vn 0.106046 -0.715633 0.690379
vn 0.106046 -0.715633 0.690379
vn 0.106046 -0.715633 0.690379
vn 0.106046 -0.715633 0.690379
vn 0.106047 -0.715634 -0.690378
vn 0.106047 -0.715634 -0.690378
vn 0.106047 -0.715634 -0.690378
vn 0.106047 -0.715634 -0.690378
vn 0.256596 0.328172 0.909100
vn 0.256596 0.328172 0.909100
vn 0.256596 0.328172 0.909100
vn 0.256596 0.328172 0.909100
vn -0.576927 -0.509982 0.638024
vn -0.576927 -0.509982 0.638024
vn -0.576927 -0.509982 0.638024
vn -0.576927 -0.509982 0.638024
vn -0.576737 -0.509807 -0.638335
vn -0.576737 -0.509807 -0.638335
vn -0.576737 -0.509807 -0.638335
vn -0.576737 -0.509807 -0.638335
vn 0.535063 0.783373 -0.316281
vn 0.535063 0.783373 -0.316281
vn 0.535063 0.783373 -0.316281
vn 0.535063 0.783373 -0.316281
vn 0.137345 0.344895 0.928539
vn 0.137345 0.344895 0.928539
vn 0.137345 0.344895 0.928539
vn 0.137345 0.344895 0.928539
vn -0.706886 -0.707327 -0.000190
vn -0.706886 -0.707327 -0.000190
vn -0.706886 -0.707327 -0.000190
vn -0.706886 -0.707327 -0.000190
vn 0.137503 0.344956 -0.928493
vn 0.137503 0.344956 -0.928493
vn 0.137503 0.344956 -0.928493
vn 0.137503 0.344956 -0.928493
vn -0.967839 -0.251549 0.003222
vn -0.967839 -0.251549 0.003222
vn -0.967839 -0.251549 0.003222
vn -0.967839 -0.251549 0.003222
vn 0.259533 0.328643 -0.908095
vn 0.259533 0.328643 -0.908095
vn 0.259533 0.328643 -0.908095
vn 0.259533 0.328643 -0.908095
vn 0.768048 0.569745 0.292392
vn 0.768048 0.569745 0.292392
vn 0.768048 0.569745 0.292392
vn 0.768048 0.569745 0.292392
vn -0.693078 -0.101857 0.713630
vn -0.693078 -0.101857 0.713630
vn -0.693078 -0.101857 0.713630
vn -0.693078 -0.101857 0.713630
vn -0.691690 -0.099927 -0.715248
vn -0.691690 -0.099927 -0.715248
vn -0.691690 -0.099927 -0.715248
vn -0.691690 -0.099927 -0.715248
vn 0.767950 0.569657 -0.292820
vn 0.767950 0.569657 -0.292820
vn 0.767950 0.569657 -0.292820
vn 0.767950 0.569657 -0.292820
vn 0.468394 0.849284 -0.243566
vn 0.468394 0.849284 -0.243566
vn 0.468394 0.849284 -0.243566
vn 0.468394 0.849284 -0.243566
vn 0.470482 0.850452 0.235326
vn 0.470482 0.850452 0.235326
vn 0.470482 0.850452 0.235326
vn 0.470482 0.850452 0.235326
vn 0.648140 -0.619812 0.442434
vn 0.648140 -0.619812 0.442434
vn 0.648140 -0.619812 0.442434
vn 0.648140 -0.619812 0.442434
vn 0.648140 -0.619812 0.442434
vn -0.648140 0.619812 -0.442434
vn -0.663804 0.593286 -0.455385
vn -0.663804 0.593286 -0.455385
vn -0.648140 0.619812 -0.442434
vn -0.648140 0.619812 -0.442434
vn 0.707552 -0.498419 -0.500949
vn 0.707552 -0.498419 -0.500949
vn 0.707552 -0.498419 -0.500949
vn 0.707552 -0.498419 -0.500949
vn 0.707552 -0.498419 -0.500949
vn -0.707551 0.498419 0.500949
vn -0.707551 0.498419 0.500949
vn -0.723916 0.469616 0.505377
vn -0.723916 0.469616 0.505377
vn -0.707551 0.498419 0.500949
vn 0.880092 0.459368 0.120077
vn 0.880092 0.459368 0.120077
vn 0.880092 0.459368 0.120077
vn 0.880092 0.459368 0.120077
vn 0.871564 0.470592 -0.137552
vn 0.871564 0.470592 -0.137552
vn 0.871564 0.470592 -0.137552
vn 0.871564 0.470592 -0.137552
vn 0.850360 0.526201 0.000000
vn 0.850360 0.526201 0.000000
vn 0.850360 0.526201 0.000000
vn 0.850360 0.526201 0.000000
vn 0.965428 0.252868 -0.063291
vn 0.965428 0.252868 -0.063291
vn 0.965428 0.252868 -0.063291
vn 0.965428 0.252868 -0.063291
vn 0.963552 0.260868 0.059295
vn 0.963552 0.260868 0.059295
vn 0.963552 0.260868 0.059295
vn 0.963552 0.260868 0.059295
vn 0.928812 0.344501 0.136484
vn 0.928812 0.344501 0.136484
vn 0.928812 0.344501 0.136484
vn 0.928812 0.344501 0.136484
vn -0.122024 -0.826229 -0.549961
vn -0.122024 -0.826229 -0.549961
vn -0.122024 -0.826229 -0.549961
vn -0.122024 -0.826229 -0.549961
vn -0.122024 -0.826229 -0.549961
vn 0.122024 0.826228 0.549961
vn 0.122024 0.826228 0.549961
vn 0.122024 0.826228 0.549961
vn 0.089501 0.825270 0.557602
vn 0.089501 0.825270 0.557602
vn -0.446397 -0.796462 0.407896
vn -0.446397 -0.796462 0.407896
vn -0.446397 -0.796462 0.407896
vn -0.446397 -0.796462 0.407896
vn -0.446397 -0.796462 0.407896
vn 0.422531 0.815846 -0.394795
vn 0.446397 0.796462 -0.407895
vn 0.446397 0.796462 -0.407895
vn 0.446397 0.796462 -0.407895
vn 0.422531 0.815846 -0.394795
vn -0.262520 -0.827694 0.495991
vn -0.262520 -0.827694 0.495991
vn -0.262520 -0.827694 0.495991
vn -0.262520 -0.827694 0.495991
vn -0.262520 -0.827694 0.495991
vn 0.262520 0.827694 -0.495990
vn 0.262520 0.827694 -0.495990
vn 0.262520 0.827694 -0.495990
vn 0.231396 0.839231 -0.492085
vn 0.231396 0.839231 -0.492085
vn -0.068435 -0.902688 -0.424819
vn -0.068435 -0.902688 -0.424819
vn -0.068435 -0.902688 -0.424819
vn -0.068435 -0.902688 -0.424819
vn -0.068435 -0.902688 -0.424819
vn 0.055972 0.889750 0.453003
vn 0.068435 0.902688 0.424819
vn 0.068435 0.902688 0.424819
vn 0.068435 0.902688 0.424819
vn 0.055972 0.889750 0.453003
vn -0.033359 -0.880470 0.472928
vn -0.033359 -0.880470 0.472928
vn -0.033359 -0.880470 0.472928
vn -0.033359 -0.880470 0.472928
vn -0.033359 -0.880470 0.472928
vn 0.033359 0.880470 -0.472928
vn 0.033359 0.880470 -0.472928
vn 0.033359 0.880470 -0.472928
vn 0.005649 0.871952 -0.489559
vn 0.005649 0.871952 -0.489559
vn 0.339235 -0.885978 -0.316170
vn 0.339235 -0.885978 -0.316170
vn 0.339235 -0.885978 -0.316170
vn 0.339235 -0.885978 -0.316170
vn 0.339235 -0.885978 -0.316170
vn -0.339235 0.885977 0.316170
vn -0.339235 0.885977 0.316170
vn -0.339235 0.885977 0.316170
vn -0.367467 0.871032 0.325992
vn -0.367467 0.871032 0.325992
vn 0.267348 -0.810422 0.521288
vn 0.267348 -0.810422 0.521288
vn 0.267348 -0.810422 0.521288
vn 0.267348 -0.810422 0.521288
vn 0.267348 -0.810422 0.521288
vn -0.267348 0.810422 -0.521287
vn -0.267348 0.810422 -0.521287
vn -0.267348 0.810422 -0.521287
vn -0.297457 0.796722 -0.526074
vn -0.297457 0.796722 -0.526074
vn 0.522205 -0.662794 -0.536661
vn 0.522205 -0.662794 -0.536661
vn 0.522205 -0.662794 -0.536661
vn 0.522205 -0.662794 -0.536661
vn 0.522205 -0.662794 -0.536661
vn -0.500247 0.659071 0.561585
vn -0.500247 0.659071 0.561585
vn -0.522205 0.662795 0.536661
vn -0.522205 0.662795 0.536661
vn -0.522205 0.662795 0.536661
vn 0.508908 -0.677073 -0.531587
vn 0.508908 -0.677073 -0.531587
vn 0.508908 -0.677073 -0.531587
vn 0.508908 -0.677073 -0.531587
vn 0.508908 -0.677073 -0.531587
vn -0.522552 0.652315 0.549022
vn -0.478125 0.699683 0.530886
vn -0.478125 0.699683 0.530886
vn -0.513977 0.699113 0.497060
vn -0.522552 0.652315 0.549022
vn 0.132096 -0.780751 0.610719
vn 0.132096 -0.780751 0.610719
vn 0.132096 -0.780751 0.610719
vn 0.132096 -0.780751 0.610719
vn 0.132096 -0.780751 0.610719
vn -0.157552 0.796569 -0.583658
vn -0.107758 0.803889 -0.584936
vn -0.130373 0.758921 -0.637999
vn -0.130373 0.758921 -0.637999
vn -0.157552 0.796569 -0.583658
vn -0.213129 -0.819750 -0.531588
vn -0.213129 -0.819750 -0.531588
vn -0.213129 -0.819750 -0.531588
vn -0.213129 -0.819750 -0.531588
vn -0.213129 -0.819750 -0.531588
vn 0.249986 0.809733 0.530886
vn 0.249986 0.809733 0.530886
vn 0.227225 0.837438 0.497058
vn 0.185256 0.815019 0.549022
vn 0.185256 0.815019 0.549022
vn -0.528827 -0.589378 0.610718
vn -0.528827 -0.589378 0.610718
vn -0.528827 -0.589378 0.610718
vn -0.528827 -0.589378 0.610718
vn -0.528827 -0.589378 0.610718
vn 0.512814 0.574442 -0.637996
vn 0.525360 0.619146 -0.583657
vn 0.525360 0.619146 -0.583657
vn 0.562083 0.584732 -0.584936
vn 0.512814 0.574442 -0.637996
vn -0.567232 -0.629018 -0.531587
vn -0.567232 -0.629018 -0.531587
vn -0.567232 -0.629018 -0.531587
vn -0.567232 -0.629018 -0.531587
vn -0.567232 -0.629018 -0.531587
vn 0.595318 0.603125 0.530884
vn 0.595318 0.603125 0.530884
vn 0.587901 0.638207 0.497056
vn 0.540318 0.637674 0.549024
vn 0.540318 0.637674 0.549024
vn -0.741070 -0.278995 0.610719
vn -0.741070 -0.278995 0.610719
vn -0.741070 -0.278995 0.610719
vn -0.741070 -0.278995 0.610719
vn -0.741070 -0.278995 0.610719
vn 0.768430 0.259535 -0.584942
vn 0.719973 0.273128 -0.637996
vn 0.719973 0.273128 -0.637996
vn 0.751729 0.307004 -0.583655
vn 0.751729 0.307004 -0.583655
vn -0.567233 -0.629017 -0.531587
vn -0.567233 -0.629017 -0.531587
vn -0.567233 -0.629017 -0.531587
vn -0.567233 -0.629017 -0.531587
vn -0.567233 -0.629017 -0.531587
vn 0.595319 0.603124 0.530883
vn 0.595319 0.603124 0.530883
vn 0.587900 0.638210 0.497053
vn 0.540317 0.637677 0.549023
vn 0.540317 0.637677 0.549023
vn -0.741071 -0.278995 0.610718
vn -0.741071 -0.278995 0.610718
vn -0.741071 -0.278995 0.610718
vn -0.741071 -0.278995 0.610718
vn -0.741071 -0.278995 0.610718
vn 0.768429 0.259531 -0.584945
vn 0.719971 0.273126 -0.638001
vn 0.719971 0.273126 -0.638001
vn 0.751721 0.307001 -0.583666
vn 0.751721 0.307001 -0.583666
vn 0.126675 -0.746422 -0.653306
vn 0.126675 -0.746422 -0.653306
vn 0.126675 -0.746422 -0.653306
vn 0.126675 -0.746422 -0.653306
vn -0.516092 -0.811043 0.275425
vn -0.516092 -0.811043 0.275425
vn -0.516092 -0.811043 0.275425
vn -0.516092 -0.811043 0.275425
vn -0.192383 -0.002043 0.981318
vn -0.192383 -0.002043 0.981318
vn -0.192383 -0.002043 0.981318
vn -0.192383 -0.002043 0.981318
vn 0.647036 0.570068 0.506327
vn 0.647036 0.570068 0.506327
vn 0.647036 0.570068 0.506327
vn 0.647036 0.570068 0.506327
vn 0.852848 0.115844 -0.509147
vn 0.852848 0.115844 -0.509147
vn 0.852848 0.115844 -0.509147
vn 0.852848 0.115844 -0.509147
vn -0.494227 -0.708955 -0.503113
vn -0.494227 -0.708955 -0.503113
vn -0.494227 -0.708955 -0.503113
vn -0.494227 -0.708955 -0.503113
vn 0.096977 -0.890687 0.444154
vn 0.096977 -0.890687 0.444154
vn 0.096977 -0.890687 0.444154
vn 0.096977 -0.890687 0.444154
vn 0.817211 -0.041140 0.574868
vn 0.817211 -0.041140 0.574868
vn 0.817211 -0.041140 0.574868
vn 0.817211 -0.041140 0.574868
vn 0.685187 0.672329 -0.280166
vn 0.685187 0.672329 -0.280166
vn 0.685187 0.672329 -0.280166
vn 0.685187 0.672329 -0.280166
vn -0.126992 0.266879 -0.955326
vn -0.126992 0.266879 -0.955326
vn -0.126992 0.266879 -0.955326
vn -0.126992 0.266879 -0.955326
vn 0.926354 0.376654 0.000000
vn 0.926354 0.376654 0.000000
vn 0.926354 0.376654 0.000000
vn 0.926354 0.376654 0.000000
vn 0.926354 0.376654 0.000000
vn 0.926354 0.376654 0.000000
vn 0.926354 0.376654 0.000000
vn -0.907125 0.097077 -0.409512
vn -0.907125 0.097077 -0.409512
vn -0.907125 0.097077 -0.409512
vn -0.907125 0.097077 -0.409512
vn -0.672151 -0.567964 0.475006
vn -0.672151 -0.567964 0.475006
vn -0.672151 -0.567964 0.475006
vn -0.672151 -0.567964 0.475006
vn 0.432412 -0.761430 0.482954
vn 0.432412 -0.761430 0.482954
vn 0.432412 -0.761430 0.482954
vn 0.432412 -0.761430 0.482954
vn 0.894038 -0.225384 -0.387166
vn 0.894038 -0.225384 -0.387166
vn 0.894038 -0.225384 -0.387166
vn 0.894038 -0.225384 -0.387166
vn 0.070690 0.310959 -0.947791
vn 0.070690 0.310959 -0.947791
vn 0.070690 0.310959 -0.947791
vn 0.070690 0.310959 -0.947791
vn -0.978788 0.194360 -0.064794
vn -0.978788 0.194360 -0.064794
vn -0.978788 0.194360 -0.064794
vn -0.978788 0.194360 -0.064794
vn -0.367923 0.293845 0.882206
vn -0.367923 0.293845 0.882206
vn -0.367923 0.293845 0.882206
vn -0.367923 0.293845 0.882206
vn 0.565022 -0.316643 0.761898
vn 0.565022 -0.316643 0.761898
vn 0.565022 -0.316643 0.761898
vn 0.565022 -0.316643 0.761898
vn 0.546882 -0.798902 -0.250351
vn 0.546882 -0.798902 -0.250351
vn 0.546882 -0.798902 -0.250351
vn 0.546882 -0.798902 -0.250351
vn -0.407651 -0.487872 -0.771882
vn -0.407651 -0.487872 -0.771882
vn -0.407651 -0.487872 -0.771882
vn -0.407651 -0.487872 -0.771882
vn -0.944405 -0.175860 -0.277798
vn -0.944405 -0.175860 -0.277798
vn -0.944405 -0.175860 -0.277798
vn -0.944405 -0.175860 -0.277798
vn -0.643100 0.280529 0.712549
vn -0.643100 0.280529 0.712549
vn -0.643100 0.280529 0.712549
vn -0.643100 0.280529 0.712549
vn 0.432933 0.027180 0.901016
vn 0.432933 0.027180 0.901016
vn 0.432933 0.027180 0.901016
vn 0.432933 0.027180 0.901016
vn 0.810976 -0.583714 0.039946
vn 0.810976 -0.583714 0.039946
vn 0.810976 -0.583714 0.039946
vn 0.810976 -0.583714 0.039946
vn -0.036587 -0.715432 -0.697724
vn -0.036587 -0.715432 -0.697724
vn -0.036587 -0.715432 -0.697724
vn -0.036587 -0.715432 -0.697724
vn -0.834360 -0.398996 0.380323
vn -0.834360 -0.398996 0.380323
vn -0.834360 -0.398996 0.380323
vn -0.834360 -0.398996 0.380323
vn 0.213069 -0.671483 0.709727
vn 0.213069 -0.671483 0.709727
vn 0.213069 -0.671483 0.709727
vn 0.213069 -0.671483 0.709727
vn 0.924826 -0.366612 -0.101450
vn 0.924826 -0.366612 -0.101450
vn 0.924826 -0.366612 -0.101450
vn 0.924826 -0.366612 -0.101450
vn 0.335958 0.094248 -0.937150
vn 0.335958 0.094248 -0.937150
vn 0.335958 0.094248 -0.937150
vn 0.335958 0.094248 -0.937150
vn -0.757639 0.079071 -0.647867
vn -0.757639 0.079071 -0.647867
vn -0.757639 0.079071 -0.647867
vn -0.757639 0.079071 -0.647867
vn -0.339096 -0.645271 -0.684573
vn -0.339096 -0.645271 -0.684573
vn -0.339096 -0.645271 -0.684573
vn -0.339096 -0.645271 -0.684573
vn -0.965568 -0.211421 0.151592
vn -0.965568 -0.211421 0.151592
vn -0.965568 -0.211421 0.151592
vn -0.965568 -0.211421 0.151592
vn -0.272112 0.166451 0.947760
vn -0.272112 0.166451 0.947760
vn -0.272112 0.166451 0.947760
vn -0.272112 0.166451 0.947760
vn 0.783339 -0.025510 0.621071
vn 0.783339 -0.025510 0.621071
vn 0.783339 -0.025510 0.621071
vn 0.783339 -0.025510 0.621071
vn 0.752796 -0.529201 -0.391466
vn 0.752796 -0.529201 -0.391466
vn 0.752796 -0.529201 -0.391466
vn 0.752796 -0.529201 -0.391466
vn -0.806842 -0.469650 -0.358379
vn -0.806842 -0.469650 -0.358379
vn -0.806842 -0.469650 -0.358379
vn -0.806842 -0.469650 -0.358379
vn -0.334087 -0.685974 0.646395
vn -0.334087 -0.685974 0.646395
vn -0.334087 -0.685974 0.646395
vn -0.334087 -0.685974 0.646395
vn 0.718499 -0.299624 0.627683
vn 0.718499 -0.299624 0.627683
vn 0.718499 -0.299624 0.627683
vn 0.718499 -0.299624 0.627683
vn 0.912383 0.156886 -0.378079
vn 0.912383 0.156886 -0.378079
vn 0.912383 0.156886 -0.378079
vn 0.912383 0.156886 -0.378079
vn -0.028636 0.056572 -0.997988
vn -0.028636 0.056572 -0.997988
vn -0.028636 0.056572 -0.997988
vn -0.028636 0.056572 -0.997988
vn -0.452426 -0.762382 -0.462694
vn -0.452426 -0.762382 -0.462694
vn -0.452426 -0.762382 -0.462694
vn -0.452426 -0.762382 -0.462694
vn -0.808953 -0.299310 0.505974
vn -0.808953 -0.299310 0.505974
vn -0.808953 -0.299310 0.505974
vn -0.808953 -0.299310 0.505974
vn 0.050948 0.254550 0.965717
vn 0.050948 0.254550 0.965717
vn 0.050948 0.254550 0.965717
vn 0.050948 0.254550 0.965717
vn 0.944050 0.144289 0.296566
vn 0.944050 0.144289 0.296566
vn 0.944050 0.144289 0.296566
vn 0.944050 0.144289 0.296566
vn 0.642022 -0.485432 -0.593434
vn 0.642022 -0.485432 -0.593434
vn 0.642022 -0.485432 -0.593434
vn 0.642022 -0.485432 -0.593434
vn 0.325729 -0.669606 0.667479
vn 0.325729 -0.669606 0.667479
vn 0.325729 -0.669606 0.667479
vn 0.325729 -0.669606 0.667479
vn 0.965088 0.147497 0.216450
vn 0.965088 0.147497 0.216450
vn 0.965088 0.147497 0.216450
vn 0.965088 0.147497 0.216450
vn 0.472725 0.494300 -0.729520
vn 0.472725 0.494300 -0.729520
vn 0.472725 0.494300 -0.729520
vn 0.472725 0.494300 -0.729520
vn -0.468969 -0.096235 -0.877956
vn -0.468969 -0.096235 -0.877956
vn -0.468969 -0.096235 -0.877956
vn -0.468969 -0.096235 -0.877956
vn -0.569591 -0.821777 -0.015787
vn -0.569591 -0.821777 -0.015787
vn -0.569591 -0.821777 -0.015787
vn -0.569591 -0.821777 -0.015787
vn -0.513977 0.699113 0.497060
vn -0.513977 0.699113 0.497060
vn -0.513977 0.699113 0.497060
vn -0.522552 0.652315 0.549022
vn -0.522552 0.652315 0.549022
vn -0.478125 0.699683 0.530886
vn -0.478125 0.699683 0.530886
vn -0.411608 -0.043353 -0.910329
vn -0.411608 -0.043353 -0.910329
vn -0.411608 -0.043353 -0.910329
vn -0.411608 -0.043353 -0.910329
vn 0.957553 0.020184 0.287548
vn 0.957553 0.020184 0.287548
vn 0.957553 0.020184 0.287548
vn 0.957553 0.020184 0.287548
vn 0.601326 0.358668 -0.713978
vn 0.601326 0.358668 -0.713978
vn 0.601326 0.358668 -0.713978
vn 0.601326 0.358668 -0.713978
vn 0.198098 -0.631209 0.749889
vn 0.198098 -0.631209 0.749889
vn 0.198098 -0.631209 0.749889
vn 0.198098 -0.631209 0.749889
vn -0.729763 -0.681460 -0.055303
vn -0.729763 -0.681460 -0.055303
vn -0.729763 -0.681460 -0.055303
vn -0.729763 -0.681460 -0.055303
vn -0.107758 0.803889 -0.584936
vn -0.107758 0.803889 -0.584936
vn -0.107758 0.803889 -0.584936
vn 0.930423 0.021170 0.365876
vn 0.930423 0.021170 0.365876
vn 0.930423 0.021170 0.365876
vn 0.930423 0.021170 0.365876
vn -0.880665 -0.153452 0.448198
vn -0.880665 -0.153452 0.448198
vn -0.880665 -0.153452 0.448198
vn -0.880665 -0.153452 0.448198
vn 0.012856 0.226240 0.973987
vn 0.012856 0.226240 0.973987
vn 0.012856 0.226240 0.973987
vn 0.012856 0.226240 0.973987
vn -0.157552 0.796569 -0.583658
vn -0.157552 0.796569 -0.583658
vn -0.130373 0.758921 -0.637999
vn -0.130373 0.758921 -0.637999
vn -0.092723 0.777397 -0.622139
vn -0.092723 0.777397 -0.622139
vn -0.554607 -0.644141 -0.526777
vn -0.554607 -0.644141 -0.526777
vn -0.554607 -0.644141 -0.526777
vn -0.554607 -0.644141 -0.526777
vn 0.645498 -0.513180 -0.565666
vn 0.645498 -0.513180 -0.565666
vn 0.645498 -0.513180 -0.565666
vn 0.645498 -0.513180 -0.565666
vn 0.227225 0.837438 0.497058
vn 0.227225 0.837438 0.497058
vn 0.227225 0.837438 0.497058
vn 0.185256 0.815019 0.549022
vn 0.185256 0.815019 0.549022
vn 0.249986 0.809733 0.530886
vn 0.249986 0.809733 0.530886
vn -0.290142 0.295157 -0.910330
vn -0.290142 0.295157 -0.910330
vn -0.290142 0.295157 -0.910330
vn -0.290142 0.295157 -0.910330
vn 0.611842 -0.736861 0.287551
vn 0.611842 -0.736861 0.287551
vn 0.611842 -0.736861 0.287551
vn 0.611842 -0.736861 0.287551
vn 0.655016 -0.247365 -0.713978
vn 0.655016 -0.247365 -0.713978
vn 0.655016 -0.247365 -0.713978
vn 0.655016 -0.247365 -0.713978
vn -0.370703 -0.547947 0.749889
vn -0.370703 -0.547947 0.749889
vn -0.370703 -0.547947 0.749889
vn -0.370703 -0.547947 0.749889
vn -0.987596 0.146959 -0.055298
vn -0.987596 0.146959 -0.055298
vn -0.987596 0.146959 -0.055298
vn -0.987596 0.146959 -0.055298
vn 0.562083 0.584732 -0.584936
vn 0.562083 0.584732 -0.584936
vn 0.562083 0.584732 -0.584936
vn 0.595727 -0.715013 0.365877
vn 0.595727 -0.715013 0.365877
vn 0.595727 -0.715013 0.365877
vn 0.595727 -0.715013 0.365877
vn -0.668285 0.593729 0.448198
vn -0.668285 0.593729 0.448198
vn -0.668285 0.593729 0.448198
vn -0.668285 0.593729 0.448198
vn 0.185068 0.130766 0.973987
vn 0.185068 0.130766 0.973987
vn 0.185068 0.130766 0.973987
vn 0.185068 0.130766 0.973987
vn 0.525360 0.619146 -0.583657
vn 0.525360 0.619146 -0.583657
vn 0.512814 0.574442 -0.637996
vn 0.512814 0.574442 -0.637996
vn 0.550710 0.556475 -0.622137
vn 0.550710 0.556475 -0.622137
vn -0.849359 0.033103 -0.526777
vn -0.849359 0.033103 -0.526777
vn -0.849359 0.033103 -0.526777
vn -0.849359 0.033103 -0.526777
vn 0.000164 -0.824635 -0.565666
vn 0.000164 -0.824635 -0.565666
vn 0.000164 -0.824635 -0.565666
vn 0.000164 -0.824635 -0.565666
vn 0.587901 0.638207 0.497056
vn 0.587901 0.638207 0.497056
vn 0.587901 0.638207 0.497056
vn 0.540318 0.637674 0.549024
vn 0.540318 0.637674 0.549024
vn 0.595318 0.603125 0.530884
vn 0.595318 0.603125 0.530884
vn -0.121282 0.395716 -0.910329
vn -0.121282 0.395716 -0.910329
vn -0.121282 0.395716 -0.910329
vn -0.121282 0.395716 -0.910329
vn 0.202963 -0.936013 0.287550
vn 0.202963 -0.936013 0.287550
vn 0.202963 -0.936013 0.287550
vn 0.202963 -0.936013 0.287550
vn 0.467063 -0.521620 -0.713978
vn 0.467063 -0.521620 -0.713978
vn 0.467063 -0.521620 -0.713978
vn 0.467063 -0.521620 -0.713978
vn -0.581664 -0.315172 0.749889
vn -0.581664 -0.315172 0.749889
vn -0.581664 -0.315172 0.749889
vn -0.581664 -0.315172 0.749889
vn -0.808462 0.585945 -0.055298
vn -0.808462 0.585945 -0.055298
vn -0.808462 0.585945 -0.055298
vn -0.808462 0.585945 -0.055298
vn 0.768430 0.259535 -0.584942
vn 0.768430 0.259535 -0.584942
vn 0.768430 0.259535 -0.584942
vn 0.198743 -0.909195 0.365877
vn 0.198743 -0.909195 0.365877
vn 0.198743 -0.909195 0.365877
vn 0.198743 -0.909195 0.365877
vn -0.319067 0.835053 0.448199
vn -0.319067 0.835053 0.448199
vn -0.319067 0.835053 0.448199
vn -0.319067 0.835053 0.448199
vn 0.224522 0.030655 0.973987
vn 0.224522 0.030655 0.973987
vn 0.224522 0.030655 0.973987
vn 0.224522 0.030655 0.973987
vn 0.751729 0.307004 -0.583655
vn 0.751729 0.307004 -0.583655
vn 0.719973 0.273128 -0.637996
vn 0.719973 0.273128 -0.637996
vn 0.745307 0.239711 -0.622138
vn 0.745307 0.239711 -0.622138
vn -0.738330 0.421159 -0.526777
vn -0.738330 0.421159 -0.526777
vn -0.738330 0.421159 -0.526777
vn -0.738330 0.421159 -0.526777
vn -0.380239 -0.731737 -0.565667
vn -0.380239 -0.731737 -0.565667
vn -0.380239 -0.731737 -0.565667
vn -0.380239 -0.731737 -0.565667
vn 0.587900 0.638210 0.497053
vn 0.587900 0.638210 0.497053
vn 0.587900 0.638210 0.497053
vn 0.540317 0.637677 0.549023
vn 0.540317 0.637677 0.549023
vn 0.595319 0.603124 0.530883
vn 0.595319 0.603124 0.530883
vn -0.121281 0.395716 -0.910329
vn -0.121281 0.395716 -0.910329
vn -0.121281 0.395716 -0.910329
vn -0.121281 0.395716 -0.910329
vn 0.202964 -0.936013 0.287550
vn 0.202964 -0.936013 0.287550
vn 0.202964 -0.936013 0.287550
vn 0.202964 -0.936013 0.287550
vn 0.467063 -0.521620 -0.713979
vn 0.467063 -0.521620 -0.713979
vn 0.467063 -0.521620 -0.713979
vn 0.467063 -0.521620 -0.713979
vn -0.581666 -0.315171 0.749888
vn -0.581666 -0.315171 0.749888
vn -0.581666 -0.315171 0.749888
vn -0.581666 -0.315171 0.749888
vn -0.808464 0.585943 -0.055298
vn -0.808464 0.585943 -0.055298
vn -0.808464 0.585943 -0.055298
vn -0.808464 0.585943 -0.055298
vn 0.768429 0.259531 -0.584945
vn 0.768429 0.259531 -0.584945
vn 0.768429 0.259531 -0.584945
vn 0.198744 -0.909195 0.365876
vn 0.198744 -0.909195 0.365876
vn 0.198744 -0.909195 0.365876
vn 0.198744 -0.909195 0.365876
vn -0.319066 0.835054 0.448198
vn -0.319066 0.835054 0.448198
vn -0.319066 0.835054 0.448198
vn -0.319066 0.835054 0.448198
vn 0.224522 0.030655 0.973987
vn 0.224522 0.030655 0.973987
vn 0.224522 0.030655 0.973987
vn 0.224522 0.030655 0.973987
vn 0.751721 0.307001 -0.583666
vn 0.751721 0.307001 -0.583666
vn 0.719971 0.273126 -0.638001
vn 0.719971 0.273126 -0.638001
vn 0.745309 0.239701 -0.622140
vn 0.745309 0.239701 -0.622140
vn -0.738331 0.421162 -0.526774
vn -0.738331 0.421162 -0.526774
vn -0.738331 0.421162 -0.526774
vn -0.738331 0.421162 -0.526774
vn -0.380239 -0.731739 -0.565665
vn -0.380239 -0.731739 -0.565665
vn -0.380239 -0.731739 -0.565665
vn -0.380239 -0.731739 -0.565665
vn -0.494916 0.687325 0.531642
vn -0.500247 0.659071 0.561585
vn -0.553267 0.649223 0.521924
vn -0.500247 0.659071 0.561585
vn -0.553267 0.649223 0.521924
vn -0.289136 0.820523 -0.493094
vn -0.297457 0.796722 -0.526074
vn -0.232935 0.812349 -0.534631
vn -0.297457 0.796722 -0.526074
vn -0.232935 0.812349 -0.534631
vn -0.334584 0.874526 0.351081
vn -0.367467 0.871032 0.325992
vn -0.322303 0.901938 0.287452
vn -0.367467 0.871032 0.325992
vn -0.322303 0.901938 0.287452
vn 0.004177 0.891511 -0.452979
vn 0.005649 0.871952 -0.489559
vn 0.070248 0.878171 -0.473162
vn 0.005649 0.871952 -0.489559
vn 0.070248 0.878171 -0.473162
vn 0.096735 0.890200 0.445182
vn 0.055972 0.889750 0.453003
vn 0.059393 0.917892 0.392361
vn 0.055972 0.889750 0.453003
vn 0.059393 0.917892 0.392361
vn 0.261171 0.846422 -0.464069
vn 0.231396 0.839231 -0.492085
vn 0.284236 0.807023 -0.517613
vn 0.231396 0.839231 -0.492085
vn 0.284236 0.807023 -0.517613
vn 0.457333 0.806801 -0.374057
vn 0.422531 0.815846 -0.394795
vn 0.455302 0.775648 -0.437117
vn 0.422531 0.815846 -0.394795
vn 0.455302 0.775648 -0.437117
vn 0.118039 0.805661 0.580498
vn 0.089501 0.825270 0.557602
vn 0.146528 0.838342 0.525083
vn 0.089501 0.825270 0.557602
vn 0.146528 0.838342 0.525083
vn -0.695273 0.482974 0.532289
vn -0.723916 0.469616 0.505377
vn -0.702889 0.526890 0.477843
vn -0.723916 0.469616 0.505377
vn -0.702889 0.526890 0.477843
vn -0.674011 0.608881 -0.418298
vn -0.663804 0.593286 -0.455385
vn -0.620510 0.643763 -0.447813
vn -0.663804 0.593286 -0.455385
vn -0.620510 0.643763 -0.447813
g Sushi_NigiriOctopus_White
usemtl White
f 1 2 3
f 1 3 4
f 5 6 7
f 5 7 8
f 9 10 11
f 9 11 12
f 13 14 15
f 13 15 16
f 17 18 19
f 17 19 20
f 21 22 23
f 21 23 24
f 25 26 27
f 25 27 28
f 29 30 31
f 29 31 32
f 33 34 35
f 33 35 36
f 37 38 39
f 37 39 40
f 41 37 40
f 41 40 42
f 43 41 42
f 43 44 41
f 43 45 44
f 43 46 45
f 47 48 49
f 47 49 50
f 51 52 53
f 51 53 54
f 55 56 57
f 55 57 58
f 59 60 61
f 59 61 62
f 63 64 65
f 63 65 66
g Sushi_NigiriOctopus_PalePink2
usemtl PalePink2
f 67 68 69
f 70 71 72
f 73 74 75
f 76 77 78
f 79 80 81
f 82 83 84
f 85 86 87
f 88 89 90
f 91 92 93
f 94 95 96
f 94 96 97
f 98 99 100
f 98 100 101
f 102 103 104
f 102 104 105
f 106 107 108
f 106 108 109
f 110 111 112
f 110 112 113
f 114 115 116
f 114 116 117
f 118 119 120
f 118 120 121
f 122 123 124
f 122 124 125
f 126 127 128
f 126 128 129
f 130 131 132
f 130 132 133
f 134 135 136
f 134 136 137
f 138 139 140
f 138 140 141
f 142 143 144
f 142 144 145
f 146 147 148
f 146 148 149
f 150 151 152
f 150 152 153
f 154 155 156
f 154 156 157
f 158 159 160
f 158 160 161
f 162 163 164
f 162 164 165
f 166 167 168
f 166 168 169
f 170 171 172
f 170 172 173
f 174 175 176
f 174 176 177
f 178 179 180
f 178 180 181
f 182 183 184
f 182 184 185
f 186 187 188
f 186 188 189
f 190 191 192
f 190 192 193
f 194 195 196
f 194 196 197
f 198 199 200
f 198 200 201
f 202 203 204
f 202 204 205
f 206 207 208
f 206 208 209
f 210 211 212
f 210 212 213
f 214 215 216
f 214 216 217
f 218 219 220
f 218 220 221
f 222 223 224
f 222 224 225
f 226 227 228
f 226 228 229
f 230 231 232
f 230 232 233
f 234 235 236
f 234 236 237
f 238 239 240
f 238 240 241
f 242 243 244
f 242 244 245
f 246 247 248
f 246 248 249
f 250 251 252
f 250 252 253
f 254 255 256
f 254 256 257
f 258 259 260
f 258 260 261
f 262 263 264
f 262 264 265
f 266 267 268
f 266 268 269
f 270 271 272
f 270 272 273
f 274 275 276
f 274 276 277
f 278 279 280
f 278 280 281
f 282 283 284
f 282 284 285
f 286 287 288
f 286 288 289
f 290 291 292
f 290 292 293
f 294 295 296
f 294 296 297
f 298 299 300
f 298 300 301
f 302 303 304
f 302 304 305
f 306 307 308
f 306 308 309
f 310 311 312
f 310 312 313
f 314 315 316
f 314 316 317
f 318 319 320
f 318 320 321
f 322 323 324
f 322 324 325
f 326 327 328
f 326 328 329
f 330 331 332
f 332 333 330
f 333 334 330
f 335 336 337
f 337 338 335
f 337 339 338
f 340 341 342
f 342 343 340
f 342 344 343
f 345 346 347
f 347 348 345
f 348 349 345
f 350 351 352
f 350 352 353
f 354 355 356
f 354 356 357
f 358 359 360
f 358 360 361
f 362 363 364
f 362 364 365
f 366 367 368
f 366 368 369
f 370 371 372
f 370 372 373
f 374 375 376
f 376 377 374
f 377 378 374
f 379 380 381
f 381 382 379
f 381 383 382
f 384 385 386
f 386 387 384
f 386 388 387
f 389 390 391
f 391 392 389
f 392 393 389
f 394 395 396
f 396 397 394
f 397 398 394
f 399 400 401
f 401 402 399
f 401 403 402
f 404 405 406
f 406 407 404
f 406 408 407
f 409 410 411
f 411 412 409
f 412 413 409
f 414 415 416
f 416 417 414
f 416 418 417
f 419 420 421
f 421 422 419
f 422 423 419
f 424 425 426
f 426 427 424
f 427 428 424
f 429 430 431
f 431 432 429
f 431 433 432
f 434 435 436
f 436 437 434
f 436 438 437
f 439 440 441
f 441 442 439
f 442 443 439
f 444 445 446
f 446 447 444
f 446 448 447
f 449 450 451
f 451 452 449
f 452 453 449
f 454 455 456
f 456 457 454
f 456 458 457
f 459 460 461
f 461 462 459
f 462 463 459
f 464 465 466
f 466 467 464
f 466 468 467
f 469 470 471
f 471 472 469
f 472 473 469
f 474 475 476
f 476 477 474
f 477 478 474
f 479 480 481
f 481 482 479
f 481 483 482
f 484 485 486
f 486 487 484
f 486 488 487
f 489 490 491
f 491 492 489
f 492 493 489
f 494 495 496
f 496 497 494
f 497 498 494
f 499 500 501
f 501 502 499
f 501 503 502
f 504 505 506
f 506 507 504
f 506 508 507
f 509 510 511
f 511 512 509
f 512 513 509
f 514 515 516
f 516 517 514
f 517 518 514
f 519 520 521
f 521 522 519
f 521 523 522
f 524 525 526
f 526 527 524
f 526 528 527
f 529 530 531
f 531 532 529
f 532 533 529
g Sushi_NigiriOctopus_PalePink
usemtl PalePink
f 534 535 536
f 534 536 537
f 538 539 540
f 538 540 541
f 542 543 544
f 542 544 545
f 546 547 548
f 546 548 549
f 550 551 552
f 550 552 553
f 554 555 556
f 554 556 557
f 558 559 560
f 558 560 561
f 562 563 564
f 562 564 565
f 566 567 568
f 566 568 569
f 570 571 572
f 570 572 573
f 574 575 576
f 576 577 574
f 576 578 577
f 578 579 577
f 578 580 579
f 581 582 583
f 581 583 584
f 585 586 587
f 585 587 588
f 589 590 591
f 589 591 592
f 593 594 595
f 593 595 596
f 597 598 599
f 597 599 600
f 601 602 603
f 601 603 604
f 605 606 607
f 605 607 608
f 609 610 611
f 609 611 612
f 613 614 615
f 613 615 616
f 617 618 619
f 617 619 620
f 621 622 623
f 621 623 624
f 625 626 627
f 625 627 628
f 629 630 631
f 629 631 632
f 633 634 635
f 633 635 636
f 637 638 639
f 637 639 640
f 641 642 643
f 641 643 644
f 645 646 647
f 645 647 648
f 649 650 651
f 649 651 652
f 653 654 655
f 653 655 656
f 657 658 659
f 657 659 660
f 661 662 663
f 661 663 664
f 665 666 667
f 665 667 668
f 669 670 671
f 669 671 672
f 673 674 675
f 673 675 676
f 677 678 679
f 677 679 680
f 681 682 683
f 681 683 684
f 685 686 687
f 685 687 688
f 689 690 691
f 689 691 692
f 693 694 695
f 693 695 696
f 697 698 699
f 697 699 700
f 701 702 703
f 701 703 704
f 705 706 707
f 705 707 708
f 709 710 711
f 709 711 712
f 713 714 715
f 713 715 716
f 717 718 719
f 717 719 720
f 721 722 723
f 721 723 724
f 725 726 727
f 725 727 728
f 729 730 731
f 729 731 732
f 733 734 735
f 733 735 736
f 737 738 739
f 737 739 740
f 741 742 743
f 741 462 742
f 744 462 741
f 744 463 462
f 745 463 744
f 745 459 463
f 746 459 745
f 746 460 459
f 747 460 746
f 747 461 460
f 748 749 750
f 748 750 751
f 752 753 754
f 752 754 755
f 756 757 758
f 756 758 759
f 760 761 762
f 760 762 763
f 764 765 766
f 764 766 767
f 768 470 769
f 768 769 770
f 771 772 773
f 771 773 774
f 775 776 777
f 775 777 778
f 779 780 781
f 779 781 782
f 783 469 473
f 783 473 784
f 784 473 472
f 784 472 785
f 785 472 471
f 785 471 786
f 786 471 787
f 786 787 788
f 789 790 791
f 789 791 792
f 793 794 795
f 793 795 796
f 797 798 799
f 797 481 798
f 800 481 797
f 800 483 481
f 801 483 800
f 801 482 483
f 802 482 801
f 802 479 482
f 803 479 802
f 803 480 479
f 804 805 806
f 804 806 807
f 808 809 810
f 808 810 811
f 812 813 814
f 812 814 815
f 816 817 818
f 816 818 819
f 820 821 822
f 820 822 823
f 824 492 825
f 824 825 826
f 827 828 829
f 827 829 830
f 831 832 833
f 831 833 834
f 835 836 837
f 835 837 838
f 839 491 490
f 839 490 840
f 840 490 489
f 840 489 841
f 841 489 493
f 841 493 842
f 842 493 843
f 842 843 844
f 845 846 847
f 845 847 848
f 849 850 851
f 849 851 852
f 853 854 855
f 853 501 854
f 856 501 853
f 856 503 501
f 857 503 856
f 857 502 503
f 858 502 857
f 858 499 502
f 859 499 858
f 859 500 499
f 860 861 862
f 860 862 863
f 864 865 866
f 864 866 867
f 868 869 870
f 868 870 871
f 872 873 874
f 872 874 875
f 876 877 878
f 876 878 879
f 880 509 881
f 880 881 882
f 883 884 885
f 883 885 886
f 887 888 889
f 887 889 890
f 891 892 893
f 891 893 894
f 895 513 512
f 895 512 896
f 896 512 511
f 896 511 897
f 897 511 510
f 897 510 898
f 898 510 899
f 898 899 900
f 901 902 903
f 901 903 904
f 905 906 907
f 905 907 908
f 909 910 911
f 909 521 910
f 912 521 909
f 912 523 521
f 913 523 912
f 913 522 523
f 914 522 913
f 914 519 522
f 915 519 914
f 915 520 519
f 916 917 918
f 916 918 919
f 920 921 922
f 920 922 923
f 924 925 926
f 924 926 927
f 928 929 930
f 928 930 931
f 932 933 934
f 932 934 935
f 936 529 937
f 936 937 938
f 939 940 941
f 939 941 942
f 943 944 945
f 943 945 946
f 947 948 949
f 947 949 950
f 951 533 532
f 951 532 952
f 952 532 531
f 952 531 953
f 953 531 530
f 953 530 954
f 954 530 955
f 954 955 956
f 957 958 959
f 957 959 960
f 961 962 963
f 961 963 964
f 965 451 450
f 965 450 966
f 967 451 965
f 966 450 449
f 967 452 451
f 966 449 968
f 969 452 967
f 968 449 453
f 969 453 452
f 968 453 969
f 970 439 443
f 970 443 971
f 972 439 970
f 971 443 442
f 972 440 439
f 971 442 973
f 974 440 972
f 973 442 441
f 974 441 440
f 973 441 974
f 975 429 432
f 975 432 976
f 977 429 975
f 976 432 433
f 977 430 429
f 976 433 978
f 979 430 977
f 978 433 431
f 979 431 430
f 978 431 979
f 980 419 423
f 980 423 981
f 982 419 980
f 981 423 422
f 982 420 419
f 981 422 983
f 984 420 982
f 983 422 421
f 984 421 420
f 983 421 984
f 985 410 409
f 985 409 986
f 987 410 985
f 986 409 413
f 987 411 410
f 986 413 988
f 989 411 987
f 988 413 412
f 989 412 411
f 988 412 989
f 990 399 402
f 990 402 991
f 992 399 990
f 991 402 403
f 992 400 399
f 991 403 993
f 994 400 992
f 993 403 401
f 994 401 400
f 993 401 994
f 995 390 389
f 995 389 996
f 997 390 995
f 996 389 393
f 997 391 390
f 996 393 998
f 999 391 997
f 998 393 392
f 999 392 391
f 998 392 999
f 1000 379 382
f 1000 382 1001
f 1002 379 1000
f 1001 382 383
f 1002 380 379
f 1001 383 1003
f 1004 380 1002
f 1003 383 381
f 1004 381 380
f 1003 381 1004
f 1005 349 348
f 1005 348 1006
f 1007 349 1005
f 1006 348 347
f 1007 345 349
f 1006 347 1008
f 1009 345 1007
f 1008 347 346
f 1009 346 345
f 1008 346 1009
f 1010 339 337
f 1010 337 1011
f 1012 339 1010
f 1011 337 336
f 1012 338 339
f 1011 336 1013
f 1014 338 1012
f 1013 336 335
f 1014 335 338
f 1013 335 1014
