mtllib Materials.mtl
# Ultimate Food Pack - Sushi_Nigiri1
o Sushi_Nigiri1
v 0.200416 0.120249 0.119804
v 0.316038 0.058324 0.071715
v 0.316038 0.058324 -0.071715
v 0.200416 0.120249 -0.119781
v 0.210947 0.000795 -0.118801
v -0.023608 0.000795 -0.110578
v -0.026240 0.133851 -0.096162
v 0.200416 0.120249 -0.119781
v -0.026240 0.133851 -0.096162
v -0.159284 0.118810 -0.076993
v -0.171390 0.118810 0.073847
v -0.032509 0.133851 0.110712
v -0.029876 0.000795 0.123462
v 0.210947 0.000795 0.118801
v 0.200416 0.120249 0.119804
v -0.032509 0.133851 0.110712
v -0.026240 0.133851 -0.096162
v -0.032509 0.133851 0.110712
v 0.200416 0.120249 0.119804
v 0.200416 0.120249 -0.119781
v -0.171390 0.118810 0.073847
v -0.261475 0.055435 0.037942
v -0.261475 0.000795 0.037942
v -0.200351 0.000795 0.079803
v -0.023608 0.000795 -0.110578
v -0.188244 0.000795 -0.083468
v -0.159284 0.118810 -0.076993
v -0.026240 0.133851 -0.096162
v -0.032509 0.133851 0.110712
v -0.171390 0.118810 0.073847
v -0.200351 0.000795 0.079803
v -0.029876 0.000795 0.123462
v -0.254548 0.000795 -0.055473
v -0.261475 0.000795 0.037942
v -0.261475 0.055435 0.037942
v -0.254548 0.055435 -0.055473
v -0.200351 0.000795 0.079803
v -0.261475 0.000795 0.037942
v -0.254548 0.000795 -0.055473
v -0.188244 0.000795 -0.083468
v -0.029876 0.000795 0.123462
v -0.023608 0.000795 -0.110578
v 0.210947 0.000795 -0.118801
v 0.210947 0.000795 0.118801
v 0.330519 0.000795 0.071715
v 0.330519 0.000795 -0.071715
v -0.159284 0.118810 -0.076993
v -0.254548 0.055435 -0.055473
v -0.261475 0.055435 0.037942
v -0.171390 0.118810 0.073847
v -0.188244 0.000795 -0.083468
v -0.254548 0.000795 -0.055473
v -0.254548 0.055435 -0.055473
v -0.159284 0.118810 -0.076993
v 0.330519 0.000795 0.071715
v 0.330519 0.000795 -0.071715
v 0.316038 0.058324 -0.071715
v 0.316038 0.058324 0.071715
v 0.200416 0.120249 -0.119781
v 0.316038 0.058324 -0.071715
v 0.330519 0.000795 -0.071715
v 0.210947 0.000795 -0.118801
v 0.210947 0.000795 0.118801
v 0.330519 0.000795 0.071715
v 0.316038 0.058324 0.071715
v 0.200416 0.120249 0.119804
v -0.126462 0.109919 0.001429
v -0.132148 0.109919 0.117982
v -0.176549 0.106418 0.101998
v -0.170114 0.106418 -0.001790
v -0.120777 0.109919 -0.115124
v -0.163679 0.106418 -0.105578
v 0.001891 0.188307 0.120279
v 0.013535 0.235147 0.067242
v -0.018799 0.234748 0.066160
v -0.033863 0.190731 0.118020
v 0.001891 0.119224 0.135492
v 0.001891 0.188307 0.120279
v -0.033863 0.190731 0.118020
v -0.033863 0.121648 0.133519
v -0.132148 0.109919 0.117982
v -0.106278 0.180176 0.098109
v -0.142958 0.177025 0.086672
v -0.176549 0.106418 0.101998
v 0.230340 0.097647 0.118242
v 0.228452 0.166730 0.103413
v 0.201998 0.176931 0.111367
v 0.201998 0.107847 0.126676
v -0.048149 0.220704 0.001168
v -0.081623 0.212999 -0.000540
v -0.108319 0.212999 0.047104
v -0.076718 0.220704 0.053006
v -0.106278 0.180176 0.098109
v -0.076718 0.220704 0.053006
v -0.108319 0.212999 0.047104
v -0.142958 0.177025 0.086672
v 0.228452 0.166730 0.103413
v 0.226010 0.205141 0.057364
v 0.198694 0.213075 0.062081
v 0.201998 0.176931 0.111367
v 0.233843 0.213074 -0.000019
v 0.258890 0.205141 -0.000005
v 0.226010 0.205141 -0.057391
v 0.198694 0.213074 -0.062142
v 0.201998 0.107847 -0.126650
v 0.201998 0.176931 -0.111357
v 0.228452 0.166730 -0.103401
v 0.230340 0.097647 -0.118235
v 0.201998 0.176931 -0.111357
v 0.198694 0.213074 -0.062142
v 0.226010 0.205141 -0.057391
v 0.228452 0.166730 -0.103401
v 0.201998 0.107847 -0.000025
v 0.201998 0.107847 -0.126650
v 0.230340 0.097647 -0.118235
v 0.230340 0.097647 -0.000006
v 0.201998 0.107847 0.126676
v 0.230340 0.097647 0.118242
v -0.027515 0.190731 -0.102965
v -0.012789 0.234748 -0.056242
v 0.018635 0.235147 -0.058584
v 0.007277 0.188307 -0.107401
v 0.013528 0.234748 0.005027
v -0.018799 0.234748 0.066160
v 0.013535 0.235147 0.067242
v 0.046925 0.235147 0.004298
v -0.012789 0.234748 -0.056242
v 0.018635 0.235147 -0.058584
v -0.027515 0.121648 -0.116854
v -0.027515 0.190731 -0.102965
v 0.007277 0.188307 -0.107401
v 0.007277 0.119223 -0.121206
v -0.030689 0.121648 0.008623
v 0.001891 0.119224 0.135492
v -0.033863 0.121648 0.133519
v 0.004584 0.119223 0.007582
v -0.027515 0.121648 -0.116854
v 0.007277 0.119223 -0.121206
v -0.130087 0.177025 -0.088880
v -0.096133 0.212999 -0.048185
v -0.065952 0.220704 -0.050670
v -0.094907 0.180176 -0.094816
v -0.163679 0.106418 -0.105578
v -0.130087 0.177025 -0.088880
v -0.094907 0.180176 -0.094816
v -0.120777 0.109919 -0.115124
v 0.110590 0.183129 0.122875
v 0.111704 0.231608 0.068835
v 0.085342 0.233107 0.069796
v 0.082165 0.185057 0.124480
v 0.110590 0.114046 0.137588
v 0.110590 0.183129 0.122875
v 0.082165 0.185057 0.124480
v 0.082165 0.115974 0.139597
v 0.085390 0.185057 -0.117452
v 0.088395 0.233107 -0.065179
v 0.114033 0.231608 -0.065530
v 0.113050 0.183129 -0.117555
v 0.121908 0.233107 0.002236
v 0.085342 0.233107 0.069796
v 0.111704 0.231608 0.068835
v 0.148459 0.231608 0.001594
v 0.085390 0.115974 -0.131810
v 0.085390 0.185057 -0.117452
v 0.113050 0.183129 -0.117555
v 0.113050 0.114046 -0.131977
v 0.083778 0.115974 0.004477
v 0.110590 0.114046 0.137588
v 0.082165 0.115974 0.139597
v 0.111820 0.114046 0.003289
v 0.085390 0.115974 -0.131810
v 0.113050 0.114046 -0.131977
v 0.088395 0.233107 -0.065179
v 0.121908 0.233107 0.002236
v 0.148459 0.231608 0.001594
v 0.114033 0.231608 -0.065530
v 0.198694 0.213075 0.062081
v 0.226010 0.205141 0.057364
v 0.258890 0.205141 -0.000005
v 0.233843 0.213074 -0.000019
v -0.065952 0.220704 -0.050670
v -0.096133 0.212999 -0.048185
v -0.081623 0.212999 -0.000540
v -0.048149 0.220704 0.001168
v 0.230340 0.097647 -0.000006
v 0.230340 0.097647 -0.118235
v 0.331250 0.045142 -0.078065
v 0.331250 0.045142 0.000000
v 0.230340 0.097647 0.118242
v 0.331250 0.045142 0.078065
v 0.201998 0.107847 0.126676
v 0.201998 0.107847 -0.000025
v 0.201998 0.107847 -0.126650
v -0.170114 0.106418 -0.001790
v -0.176549 0.106418 0.101998
v -0.266351 0.056568 0.048110
v -0.262844 0.056568 -0.011015
v -0.163679 0.106418 -0.105578
v -0.259337 0.056568 -0.070140
v 0.228452 0.166730 -0.103401
v 0.226010 0.205141 -0.057391
v 0.301529 0.164304 -0.037361
v 0.319645 0.114225 -0.067892
v -0.239585 0.123428 -0.009619
v -0.202593 0.163511 -0.033726
v -0.236285 0.122241 -0.061040
v -0.205717 0.164634 -0.005429
v -0.242885 0.124614 0.041801
v -0.208842 0.165758 0.022867
v 0.319645 0.114225 0.000000
v 0.301529 0.164304 0.037361
v 0.319645 0.114225 0.067892
v 0.301529 0.164304 0.000000
v 0.319645 0.114225 -0.067892
v 0.301529 0.164304 -0.037361
v -0.120777 0.109919 -0.115124
v -0.094907 0.180176 -0.094816
v -0.027515 0.190731 -0.102965
v -0.027515 0.121648 -0.116854
v 0.331250 0.045142 0.000000
v 0.319645 0.114225 0.067892
v 0.331250 0.045142 0.078065
v 0.319645 0.114225 0.000000
v 0.331250 0.045142 -0.078065
v 0.319645 0.114225 -0.067892
v -0.262844 0.056568 -0.011015
v -0.236285 0.122241 -0.061040
v -0.259337 0.056568 -0.070140
v -0.239585 0.123428 -0.009619
v -0.266351 0.056568 0.048110
v -0.242885 0.124614 0.041801
v 0.230340 0.097647 -0.118235
v 0.228452 0.166730 -0.103401
v 0.319645 0.114225 -0.067892
v 0.331250 0.045142 -0.078065
v 0.113050 0.114046 -0.131977
v 0.113050 0.183129 -0.117555
v 0.201998 0.176931 -0.111357
v 0.201998 0.107847 -0.126650
v -0.176549 0.106418 0.101998
v -0.142958 0.177025 0.086672
v -0.242885 0.124614 0.041801
v -0.266351 0.056568 0.048110
v -0.259337 0.056568 -0.070140
v -0.236285 0.122241 -0.061040
v -0.130087 0.177025 -0.088880
v -0.163679 0.106418 -0.105578
v 0.258890 0.205141 -0.000005
v 0.301529 0.164304 0.000000
v 0.301529 0.164304 -0.037361
v 0.226010 0.205141 -0.057391
v 0.148459 0.231608 0.001594
v 0.111704 0.231608 0.068835
v 0.198694 0.213075 0.062081
v 0.233843 0.213074 -0.000019
v -0.081623 0.212999 -0.000540
v -0.205717 0.164634 -0.005429
v -0.208842 0.165758 0.022867
v -0.108319 0.212999 0.047104
v 0.113050 0.183129 -0.117555
v 0.114033 0.231608 -0.065530
v 0.198694 0.213074 -0.062142
v 0.201998 0.176931 -0.111357
v -0.142958 0.177025 0.086672
v -0.108319 0.212999 0.047104
v -0.208842 0.165758 0.022867
v -0.242885 0.124614 0.041801
v -0.236285 0.122241 -0.061040
v -0.202593 0.163511 -0.033726
v -0.096133 0.212999 -0.048185
v -0.130087 0.177025 -0.088880
v -0.094907 0.180176 -0.094816
v -0.065952 0.220704 -0.050670
v -0.012789 0.234748 -0.056242
v -0.027515 0.190731 -0.102965
v 0.319645 0.114225 0.067892
v 0.301529 0.164304 0.037361
v 0.226010 0.205141 0.057364
v 0.228452 0.166730 0.103413
v 0.331250 0.045142 0.078065
v 0.319645 0.114225 0.067892
v 0.228452 0.166730 0.103413
v 0.230340 0.097647 0.118242
v 0.082165 0.115974 0.139597
v 0.082165 0.185057 0.124480
v 0.082165 0.185057 0.124480
v 0.085342 0.233107 0.069796
v -0.033863 0.190731 0.118020
v -0.018799 0.234748 0.066160
v 0.013528 0.234748 0.005027
v -0.018799 0.234748 0.066160
v -0.033863 0.121648 0.133519
v -0.033863 0.190731 0.118020
v -0.106278 0.180176 0.098109
v -0.132148 0.109919 0.117982
v -0.030689 0.121648 0.008623
v -0.033863 0.121648 0.133519
v -0.027515 0.121648 -0.116854
v 0.088395 0.233107 -0.065179
v 0.085390 0.185057 -0.117452
v 0.085390 0.185057 -0.117452
v 0.085390 0.115974 -0.131810
v 0.201998 0.107847 0.126676
v 0.201998 0.176931 0.111367
v 0.110590 0.183129 0.122875
v 0.110590 0.114046 0.137588
v 0.201998 0.176931 0.111367
v 0.198694 0.213075 0.062081
v 0.111704 0.231608 0.068835
v 0.110590 0.183129 0.122875
v -0.012789 0.234748 -0.056242
v 0.013528 0.234748 0.005027
v -0.096133 0.212999 -0.048185
v -0.202593 0.163511 -0.033726
v -0.205717 0.164634 -0.005429
v -0.081623 0.212999 -0.000540
v 0.114033 0.231608 -0.065530
v 0.148459 0.231608 0.001594
v 0.233843 0.213074 -0.000019
v 0.198694 0.213074 -0.062142
v 0.226010 0.205141 0.057364
v 0.301529 0.164304 0.037361
v 0.301529 0.164304 0.000000
v 0.258890 0.205141 -0.000005
vn 0.472130 0.881529 0.000000
vn 0.472130 0.881529 0.000000
vn 0.472130 0.881529 0.000000
vn 0.472130 0.881529 0.000000
vn -0.067339 0.049510 -0.996501
vn -0.067339 0.049510 -0.996501
vn -0.067339 0.049510 -0.996501
vn -0.067339 0.049510 -0.996501
vn -0.109588 0.993961 -0.005629
vn -0.109588 0.993961 -0.005629
vn -0.109588 0.993961 -0.005629
vn -0.109588 0.993961 -0.005629
vn -0.008020 0.046053 0.998907
vn -0.008020 0.046053 0.998907
vn -0.008020 0.046053 0.998907
vn -0.008020 0.046053 0.998907
vn 0.059115 0.998251 0.000830
vn 0.059115 0.998251 0.000830
vn 0.059115 0.998251 0.000830
vn 0.059115 0.998251 0.000830
vn -0.491245 0.112197 0.863765
vn -0.491245 0.112197 0.863765
vn -0.491245 0.112197 0.863765
vn -0.491245 0.112197 0.863765
vn -0.157723 0.098297 -0.982579
vn -0.157723 0.098297 -0.982579
vn -0.157723 0.098297 -0.982579
vn -0.157723 0.098297 -0.982579
vn -0.255160 0.098423 0.961876
vn -0.255160 0.098423 0.961876
vn -0.255160 0.098423 0.961876
vn -0.255160 0.098423 0.961876
vn -0.997262 0.000000 -0.073945
vn -0.997262 0.000000 -0.073945
vn -0.997262 0.000000 -0.073945
vn -0.997262 0.000000 -0.073945
vn 0.000000 -1.000000 0.000000
vn 0.000000 -1.000000 0.000000
vn 0.000000 -1.000000 0.000000
vn 0.000000 -1.000000 0.000000
vn 0.000000 -1.000000 0.000000
vn 0.000000 -1.000000 0.000000
vn 0.000000 -1.000000 0.000000
vn 0.000000 -1.000000 0.000000
vn 0.000000 -1.000000 0.000000
vn 0.000000 -1.000000 0.000000
vn -0.561622 0.826236 -0.043763
vn -0.561622 0.826236 -0.043763
vn -0.561622 0.826236 -0.043763
vn -0.561622 0.826236 -0.043763
vn -0.323811 0.089639 -0.941866
vn -0.323811 0.089639 -0.941866
vn -0.323811 0.089639 -0.941866
vn -0.323811 0.089639 -0.941866
vn 0.969752 0.244091 0.000000
vn 0.969752 0.244091 0.000000
vn 0.969752 0.244091 0.000000
vn 0.969752 0.244091 0.000000
vn 0.385733 0.049409 -0.921287
vn 0.385733 0.049409 -0.921287
vn 0.385733 0.049409 -0.921287
vn 0.385733 0.049409 -0.921287
vn 0.385787 0.049297 0.921270
vn 0.385787 0.049297 0.921270
vn 0.385787 0.049297 0.921270
vn 0.385787 0.049297 0.921270
vn 0.078339 -0.996918 0.004309
vn 0.078339 -0.996918 0.004309
vn 0.078339 -0.996918 0.004309
vn 0.078339 -0.996918 0.004309
vn 0.123019 -0.992394 0.004503
vn 0.080960 -0.996707 0.004454
vn -0.009534 0.757044 0.653294
vn -0.009534 0.757044 0.653294
vn -0.009534 0.757044 0.653294
vn -0.009534 0.757044 0.653294
vn -0.043023 0.216785 0.975271
vn -0.043023 0.216785 0.975271
vn -0.043023 0.216785 0.975271
vn -0.043023 0.216785 0.975271
vn -0.325453 0.356245 0.875883
vn -0.325453 0.356245 0.875883
vn -0.325453 0.356245 0.875883
vn -0.325453 0.356245 0.875883
vn 0.349511 0.204230 0.914403
vn 0.349511 0.204230 0.914403
vn 0.349511 0.204230 0.914403
vn 0.349511 0.204230 0.914403
vn -0.215508 0.969135 -0.119721
vn -0.215508 0.969135 -0.119721
vn -0.215508 0.969135 -0.119721
vn -0.215508 0.969135 -0.119721
vn -0.262716 0.806567 0.529557
vn -0.262716 0.806567 0.529557
vn -0.262716 0.806567 0.529557
vn -0.262716 0.806567 0.529557
vn 0.380278 0.739531 0.555412
vn 0.380278 0.739531 0.555412
vn 0.380278 0.739531 0.555412
vn 0.380278 0.739531 0.555412
vn 0.299937 0.938556 -0.170735
vn 0.299937 0.938556 -0.170735
vn 0.299937 0.938556 -0.170735
vn 0.299937 0.938556 -0.170735
vn 0.349239 0.204182 -0.914517
vn 0.349239 0.204182 -0.914517
vn 0.349239 0.204182 -0.914517
vn 0.349239 0.204182 -0.914517
vn 0.380602 0.739129 -0.555725
vn 0.380602 0.739129 -0.555725
vn 0.380602 0.739129 -0.555725
vn 0.380602 0.739129 -0.555725
vn -0.338641 -0.940916 0.000000
vn -0.338641 -0.940916 0.000000
vn -0.338641 -0.940916 0.000000
vn -0.338641 -0.940916 0.000000
vn -0.338641 -0.940916 0.000000
vn -0.338641 -0.940916 0.000000
vn -0.047434 0.730260 -0.681520
vn -0.047434 0.730260 -0.681520
vn -0.047434 0.730260 -0.681520
vn -0.047434 0.730260 -0.681520
vn -0.012121 0.999906 -0.006420
vn -0.012121 0.999906 -0.006420
vn -0.012121 0.999906 -0.006420
vn -0.012121 0.999906 -0.006420
vn -0.012074 0.999913 0.005311
vn 0.027399 0.999540 -0.012996
vn -0.109472 0.195354 -0.974604
vn -0.109472 0.195354 -0.974604
vn -0.109472 0.195354 -0.974604
vn -0.109472 0.195354 -0.974604
vn -0.068095 -0.997678 -0.001580
vn -0.068095 -0.997678 -0.001580
vn -0.068095 -0.997678 -0.001580
vn -0.068095 -0.997678 -0.001580
vn -0.069169 -0.997604 -0.001596
vn -0.041341 -0.999145 -0.000671
vn -0.205540 0.797722 -0.566915
vn -0.205540 0.797722 -0.566915
vn -0.205540 0.797722 -0.566915
vn -0.205540 0.797722 -0.566915
vn -0.210574 0.330573 -0.919989
vn -0.210574 0.330573 -0.919989
vn -0.210574 0.330573 -0.919989
vn -0.210574 0.330573 -0.919989
vn 0.077615 0.744024 0.663630
vn 0.077615 0.744024 0.663630
vn 0.077615 0.744024 0.663630
vn 0.077615 0.744024 0.663630
vn 0.076235 0.210417 0.974635
vn 0.076235 0.210417 0.974635
vn 0.076235 0.210417 0.974635
vn 0.076235 0.210417 0.974635
vn 0.041307 0.732497 -0.679516
vn 0.041307 0.732497 -0.679516
vn 0.041307 0.732497 -0.679516
vn 0.041307 0.732497 -0.679516
vn 0.027733 0.999505 0.014866
vn 0.027733 0.999505 0.014866
vn 0.057496 0.997856 0.031273
vn 0.057496 0.997856 0.031273
vn 0.009422 0.203915 -0.978943
vn 0.009422 0.203915 -0.978943
vn 0.009422 0.203915 -0.978943
vn 0.009422 0.203915 -0.978943
vn -0.040720 -0.999170 -0.000666
vn -0.068140 -0.997676 -0.000321
vn -0.040720 -0.999170 -0.000666
vn -0.068140 -0.997676 -0.000321
vn -0.069064 -0.997612 -0.000723
vn -0.069064 -0.997612 -0.000723
vn 0.056792 0.997974 -0.028679
vn 0.056792 0.997974 -0.028679
vn 0.056792 0.997974 -0.028679
vn 0.056792 0.997974 -0.028679
vn 0.299748 0.938626 0.170684
vn 0.299748 0.938626 0.170684
vn 0.299748 0.938626 0.170684
vn 0.299748 0.938626 0.170684
vn -0.235280 0.967585 0.091774
vn -0.233747 0.969329 0.075923
vn -0.233747 0.969329 0.075923
vn -0.235280 0.967585 0.091774
vn -0.461576 -0.887101 0.000000
vn -0.461576 -0.887101 0.000000
vn -0.461576 -0.887101 0.000000
vn -0.461576 -0.887101 0.000000
vn -0.461575 -0.887101 0.000000
vn -0.461575 -0.887101 0.000000
vn -0.068140 -0.997676 -0.000321
vn -0.068140 -0.997676 -0.000321
vn -0.069043 -0.997614 -0.000324
vn 0.471485 -0.881405 0.028773
vn 0.471485 -0.881405 0.028773
vn 0.471485 -0.881405 0.028773
vn 0.471485 -0.881405 0.028773
vn 0.470690 -0.881831 0.028725
vn 0.470690 -0.881831 0.028725
vn 0.537486 0.619627 -0.571989
vn 0.537486 0.619627 -0.571989
vn 0.537486 0.619627 -0.571989
vn 0.537486 0.619627 -0.571989
vn -0.755979 0.649720 -0.079753
vn -0.755979 0.649720 -0.079753
vn -0.755979 0.649720 -0.079753
vn -0.755979 0.649720 -0.079753
vn -0.776029 0.625517 -0.080668
vn -0.776029 0.625517 -0.080668
vn 0.940361 0.340178 0.000000
vn 0.940361 0.340178 0.000000
vn 0.940361 0.340178 0.000000
vn 0.940361 0.340178 0.000000
vn 0.940361 0.340178 0.000000
vn 0.940361 0.340178 0.000000
vn -0.094400 0.253784 -0.962643
vn -0.094400 0.253784 -0.962643
vn -0.094400 0.253784 -0.962643
vn -0.094400 0.253784 -0.962643
vn 0.986182 0.165663 0.000000
vn 0.986182 0.165663 0.000000
vn 0.986182 0.165663 0.000000
vn 0.986182 0.165663 0.000000
vn 0.986182 0.165663 0.000000
vn 0.986182 0.165663 0.000000
vn -0.940712 0.333584 -0.061506
vn -0.940712 0.333584 -0.061506
vn -0.940712 0.333584 -0.061506
vn -0.940712 0.333584 -0.061506
vn -0.943826 0.324650 -0.061602
vn -0.943826 0.324650 -0.061602
vn 0.452361 0.201419 -0.868792
vn 0.452361 0.201419 -0.868792
vn 0.452361 0.201419 -0.868792
vn 0.452361 0.201419 -0.868792
vn 0.077762 0.209624 -0.974685
vn 0.077762 0.209624 -0.974685
vn 0.077762 0.209624 -0.974685
vn 0.077762 0.209624 -0.974685
vn -0.574338 0.351691 0.739222
vn -0.574338 0.351691 0.739222
vn -0.574338 0.351691 0.739222
vn -0.574338 0.351691 0.739222
vn -0.437021 0.339331 -0.832987
vn -0.437021 0.339331 -0.832987
vn -0.437021 0.339331 -0.832987
vn -0.437021 0.339331 -0.832987
vn 0.579845 0.789487 -0.201223
vn 0.579845 0.789487 -0.201223
vn 0.579845 0.789487 -0.201223
vn 0.579845 0.789487 -0.201223
vn 0.214260 0.969487 0.119113
vn 0.214260 0.969487 0.119113
vn 0.214260 0.969487 0.119113
vn 0.214260 0.969487 0.119113
vn -0.369211 0.915724 -0.158531
vn -0.369211 0.915724 -0.158531
vn -0.369211 0.915724 -0.158531
vn -0.369211 0.915724 -0.158531
vn 0.143347 0.760955 -0.632772
vn 0.143347 0.760955 -0.632772
vn 0.143347 0.760955 -0.632772
vn 0.143347 0.760955 -0.632772
vn -0.514686 0.759774 0.397295
vn -0.514686 0.759774 0.397295
vn -0.514686 0.759774 0.397295
vn -0.514686 0.759774 0.397295
vn -0.465463 0.778439 -0.421162
vn -0.465463 0.778439 -0.421162
vn -0.465463 0.778439 -0.421162
vn -0.465463 0.778439 -0.421162
vn -0.224780 0.764918 -0.603635
vn -0.224780 0.764918 -0.603635
vn -0.224780 0.764918 -0.603635
vn -0.224780 0.764918 -0.603635
vn 0.537470 0.619762 0.571858
vn 0.537470 0.619762 0.571858
vn 0.537470 0.619762 0.571858
vn 0.537470 0.619762 0.571858
vn 0.452421 0.201386 0.868769
vn 0.452421 0.201386 0.868769
vn 0.452421 0.201386 0.868769
vn 0.452421 0.201386 0.868769
vn -0.041820 0.214224 0.975889
vn -0.041820 0.214224 0.975889
vn -0.003243 0.750599 0.660750
vn -0.003243 0.750599 0.660750
vn -0.287615 0.783513 0.550804
vn -0.287615 0.783513 0.550804
vn -0.211720 0.970644 -0.114125
vn -0.211720 0.970644 -0.114125
vn -0.230050 0.279357 0.932221
vn -0.230050 0.279357 0.932221
vn -0.230050 0.279357 0.932221
vn -0.230050 0.279357 0.932221
vn 0.119500 -0.992825 0.004385
vn 0.119500 -0.992825 0.004385
vn 0.123019 -0.992394 0.004503
vn -0.050340 0.731742 -0.679721
vn -0.050340 0.731742 -0.679721
vn -0.120358 0.198275 -0.972729
vn -0.120358 0.198275 -0.972729
vn 0.133050 0.210443 0.968510
vn 0.133050 0.210443 0.968510
vn 0.133050 0.210443 0.968510
vn 0.133050 0.210443 0.968510
vn 0.169650 0.764198 0.622270
vn 0.169650 0.764198 0.622270
vn 0.169650 0.764198 0.622270
vn 0.169650 0.764198 0.622270
vn -0.235280 0.967585 0.091774
vn -0.235280 0.967585 0.091774
vn -0.388730 0.920269 0.044668
vn -0.388730 0.920269 0.044668
vn -0.388730 0.920269 0.044668
vn -0.388730 0.920269 0.044668
vn 0.212724 0.970379 -0.114512
vn 0.212724 0.970379 -0.114512
vn 0.212724 0.970379 -0.114512
vn 0.212724 0.970379 -0.114512
vn 0.579804 0.789512 0.201243
vn 0.579804 0.789512 0.201243
vn 0.579804 0.789512 0.201243
vn 0.579804 0.789512 0.201243
g Sushi_Nigiri1_White
usemtl White
f 1 2 3
f 1 3 4
f 5 6 7
f 5 7 8
f 9 10 11
f 9 11 12
f 13 14 15
f 13 15 16
f 17 18 19
f 17 19 20
f 21 22 23
f 21 23 24
f 25 26 27
f 25 27 28
f 29 30 31
f 29 31 32
f 33 34 35
f 33 35 36
f 37 38 39
f 37 39 40
f 41 37 40
f 41 40 42
f 43 41 42
f 43 44 41
f 43 45 44
f 43 46 45
f 47 48 49
f 47 49 50
f 51 52 53
f 51 53 54
f 55 56 57
f 55 57 58
f 59 60 61
f 59 61 62
f 63 64 65
f 63 65 66
f 67 68 69
f 67 69 70
f 71 67 70
f 71 70 72
f 73 74 75
f 73 75 76
f 77 78 79
f 77 79 80
f 81 82 83
f 81 83 84
f 85 86 87
f 85 87 88
f 89 90 91
f 89 91 92
f 93 94 95
f 93 95 96
f 97 98 99
f 97 99 100
f 101 102 103
f 101 103 104
f 105 106 107
f 105 107 108
f 109 110 111
f 109 111 112
f 113 114 115
f 113 115 116
f 117 113 116
f 117 116 118
f 119 120 121
f 119 121 122
f 123 124 125
f 123 125 126
f 127 123 126
f 127 126 128
f 129 130 131
f 129 131 132
f 133 134 135
f 133 136 134
f 137 136 133
f 137 138 136
f 139 140 141
f 139 141 142
f 143 144 145
f 143 145 146
f 147 148 149
f 147 149 150
f 151 152 153
f 151 153 154
f 155 156 157
f 155 157 158
f 159 160 161
f 159 161 162
f 163 164 165
f 163 165 166
f 167 168 169
f 167 170 168
f 171 170 167
f 171 172 170
f 173 174 175
f 173 175 176
f 177 178 179
f 177 179 180
f 181 182 183
f 181 183 184
g Sushi_Nigiri1_Orange
usemtl Orange
f 185 186 187
f 185 187 188
f 189 185 188
f 189 188 190
f 170 191 168
f 170 192 191
f 172 192 170
f 172 193 192
f 194 195 196
f 194 196 197
f 198 194 197
f 198 197 199
f 200 201 202
f 200 202 203
f 204 205 206
f 204 207 205
f 208 207 204
f 208 209 207
f 210 211 212
f 210 213 211
f 214 213 210
f 214 215 213
f 216 217 218
f 216 218 219
f 220 221 222
f 220 223 221
f 224 223 220
f 224 225 223
f 226 227 228
f 226 229 227
f 230 229 226
f 230 231 229
f 232 233 234
f 232 234 235
f 236 237 238
f 236 238 239
f 240 241 242
f 240 242 243
f 244 245 246
f 244 246 247
f 248 249 250
f 248 250 251
f 252 253 254
f 252 254 255
f 256 257 258
f 256 258 259
f 260 261 262
f 260 262 263
f 264 265 266
f 264 266 267
f 268 269 270
f 268 270 271
f 272 273 274
f 272 274 275
f 276 277 278
f 276 278 279
f 280 281 282
f 280 282 283
f 284 285 78
f 284 78 77
f 286 287 74
f 286 74 73
f 288 289 94
f 288 94 93
f 290 89 92
f 290 92 291
f 292 293 294
f 292 294 295
f 296 297 68
f 296 68 67
f 298 296 67
f 298 67 71
f 122 121 299
f 122 299 300
f 126 125 160
f 126 160 159
f 128 126 174
f 128 174 173
f 132 131 301
f 132 301 302
f 136 169 134
f 136 167 169
f 138 167 136
f 138 171 167
f 303 304 305
f 303 305 306
f 307 308 309
f 307 309 310
f 311 181 184
f 311 184 312
f 313 314 315
f 313 315 316
f 317 318 319
f 317 319 320
f 321 322 323
f 321 323 324
