mtllib Materials.mtl
# Ultimate Food Pack - Tentacle
o Tentacle
v 0.284910 0.055504 0.034002
v 0.289894 0.067222 0.019240
v 0.263138 0.047649 0.027534
v 0.284646 0.055688 -0.038924
v 0.290543 0.066829 -0.026824
v 0.307699 0.055819 -0.019797
v 0.252654 0.045752 -0.002486
v 0.263138 0.047649 0.027534
v 0.271455 0.063155 -0.002928
v 0.289894 0.067222 0.019240
v 0.284910 0.055504 0.034002
v 0.307468 0.056146 0.015241
v 0.290543 0.066829 -0.026824
v 0.284646 0.055688 -0.038924
v 0.263182 0.047705 -0.032404
v 0.290543 0.066829 -0.026824
v 0.290702 0.071332 -0.002944
v 0.307699 0.055819 -0.019797
v 0.307699 0.055819 -0.019797
v 0.290702 0.071332 -0.002944
v 0.307468 0.056146 0.015241
v 0.307468 0.056146 0.015241
v 0.290702 0.071332 -0.002944
v 0.289894 0.067222 0.019240
v 0.271455 0.063155 -0.002928
v 0.263182 0.047705 -0.032404
v 0.252654 0.045752 -0.002486
v -0.353823 0.101786 -0.002450
v -0.255151 -0.006006 -0.002450
v -0.270224 -0.037390 -0.075181
v -0.373634 0.052948 -0.109507
v -0.373634 0.052948 -0.109507
v -0.270224 -0.037390 -0.075181
v -0.305052 -0.111848 -0.095606
v -0.418380 -0.057155 -0.136105
v -0.418380 -0.057155 -0.136105
v -0.305052 -0.111848 -0.095606
v -0.333125 -0.173882 -0.044443
v -0.454317 -0.145408 -0.061878
v -0.454317 -0.145408 -0.061878
v -0.333125 -0.173882 -0.044443
v -0.333125 -0.173882 0.039543
v -0.454317 -0.145408 0.056978
v -0.454317 -0.145408 0.056978
v -0.333125 -0.173882 0.039543
v -0.305052 -0.111848 0.090706
v -0.418380 -0.057155 0.131205
v -0.333125 -0.173882 -0.044443
v -0.305052 -0.111848 -0.095606
v -0.176168 -0.090931 -0.092016
v -0.151275 -0.144877 -0.043630
v -0.418380 -0.057155 0.131205
v -0.305052 -0.111848 0.090706
v -0.270224 -0.037390 0.070282
v -0.373634 0.052948 0.104607
v -0.373634 0.052948 0.104607
v -0.270224 -0.037390 0.070282
v -0.255151 -0.006006 -0.002450
v -0.353823 0.101786 -0.002450
v -0.418380 -0.057155 0.131205
v -0.373634 0.052948 0.104607
v -0.379218 0.024826 0.077428
v -0.411391 -0.054341 0.096552
v -0.211715 -0.039598 0.067250
v -0.176168 -0.090931 0.087116
v -0.119987 -0.048553 0.082176
v -0.152803 0.015224 0.066790
v -0.270224 -0.037390 0.070282
v -0.305052 -0.111848 0.090706
v -0.176168 -0.090931 0.087116
v -0.211715 -0.039598 0.067250
v -0.333125 -0.173882 0.039543
v -0.333125 -0.173882 -0.044443
v -0.151275 -0.144877 -0.043630
v -0.151275 -0.144877 0.038731
v -0.255151 -0.006006 -0.002450
v -0.270224 -0.037390 0.070282
v -0.211715 -0.039598 0.067250
v -0.232368 -0.013754 -0.002450
v -0.305052 -0.111848 -0.095606
v -0.270224 -0.037390 -0.075181
v -0.211715 -0.039598 -0.072149
v -0.176168 -0.090931 -0.092016
v -0.305052 -0.111848 0.090706
v -0.333125 -0.173882 0.039543
v -0.151275 -0.144877 0.038731
v -0.176168 -0.090931 0.087116
v -0.270224 -0.037390 -0.075181
v -0.255151 -0.006006 -0.002450
v -0.232368 -0.013754 -0.002450
v -0.211715 -0.039598 -0.072149
v -0.166533 0.036149 -0.002450
v -0.152803 0.015224 0.066790
v -0.038032 0.015196 0.066806
v -0.037437 0.040843 -0.002450
v -0.151275 -0.144877 0.038731
v -0.151275 -0.144877 -0.043630
v -0.093565 -0.099223 -0.041656
v -0.093565 -0.099223 0.036756
v -0.176168 -0.090931 -0.092016
v -0.211715 -0.039598 -0.072149
v -0.152803 0.015224 -0.071690
v -0.119987 -0.048553 -0.087076
v -0.232368 -0.013754 -0.002450
v -0.211715 -0.039598 0.067250
v -0.152803 0.015224 0.066790
v -0.166533 0.036149 -0.002450
v -0.176168 -0.090931 0.087116
v -0.151275 -0.144877 0.038731
v -0.093565 -0.099223 0.036756
v -0.119987 -0.048553 0.082176
v -0.151275 -0.144877 -0.043630
v -0.176168 -0.090931 -0.092016
v -0.119987 -0.048553 -0.087076
v -0.093565 -0.099223 -0.041656
v -0.211715 -0.039598 -0.072149
v -0.232368 -0.013754 -0.002450
v -0.166533 0.036149 -0.002450
v -0.152803 0.015224 -0.071690
v -0.045810 -0.088351 0.030190
v -0.045810 -0.088351 -0.035089
v 0.020127 -0.142049 -0.039313
v 0.020128 -0.142049 0.034413
v -0.119987 -0.048553 0.082176
v -0.093565 -0.099223 0.036756
v -0.045810 -0.088351 0.030190
v -0.041981 -0.046127 0.081011
v -0.093565 -0.099223 -0.041656
v -0.119987 -0.048553 -0.087076
v -0.041981 -0.046127 -0.085910
v -0.045810 -0.088351 -0.035089
v -0.152803 0.015224 -0.071690
v -0.166533 0.036149 -0.002450
v -0.037437 0.040843 -0.002450
v -0.038032 0.015196 -0.071705
v -0.152803 0.015224 0.066790
v -0.119987 -0.048553 0.082176
v -0.041981 -0.046127 0.081011
v -0.038032 0.015196 0.066806
v -0.093565 -0.099223 0.036756
v -0.093565 -0.099223 -0.041656
v -0.045810 -0.088351 -0.035089
v -0.045810 -0.088351 0.030190
v -0.119987 -0.048553 -0.087076
v -0.152803 0.015224 -0.071690
v -0.038032 0.015196 -0.071705
v -0.041981 -0.046127 -0.085910
v 0.080095 -0.059938 -0.065727
v 0.094844 -0.041528 -0.002450
v 0.139551 -0.059958 -0.002450
v 0.150671 -0.076939 -0.059540
v -0.041981 -0.046127 -0.085910
v -0.038032 0.015196 -0.071705
v 0.080095 -0.059938 -0.065727
v 0.047217 -0.105900 -0.083200
v -0.037437 0.040843 -0.002450
v -0.038032 0.015196 0.066806
v 0.080095 -0.059938 0.060827
v 0.094844 -0.041528 -0.002450
v -0.041981 -0.046127 0.081011
v -0.045810 -0.088351 0.030190
v 0.020128 -0.142049 0.034413
v 0.047217 -0.105900 0.078300
v -0.045810 -0.088351 -0.035089
v -0.041981 -0.046127 -0.085910
v 0.047217 -0.105900 -0.083200
v 0.020127 -0.142049 -0.039313
v -0.038032 0.015196 -0.071705
v -0.037437 0.040843 -0.002450
v 0.094844 -0.041528 -0.002450
v 0.080095 -0.059938 -0.065727
v -0.038032 0.015196 0.066806
v -0.041981 -0.046127 0.081011
v 0.047217 -0.105900 0.078300
v 0.080095 -0.059938 0.060827
v 0.139551 -0.059958 -0.002450
v 0.150671 -0.076939 0.054640
v 0.217577 -0.025515 0.044243
v 0.202822 -0.018271 -0.002454
v 0.080095 -0.059938 0.060827
v 0.047217 -0.105900 0.078300
v 0.160973 -0.125637 0.073060
v 0.150671 -0.076939 0.054640
v 0.020128 -0.142049 0.034413
v 0.020127 -0.142049 -0.039313
v 0.165134 -0.167223 -0.037746
v 0.165134 -0.167223 0.032847
v 0.047217 -0.105900 -0.083200
v 0.080095 -0.059938 -0.065727
v 0.150671 -0.076939 -0.059540
v 0.160973 -0.125637 -0.077959
v 0.094844 -0.041528 -0.002450
v 0.080095 -0.059938 0.060827
v 0.150671 -0.076939 0.054640
v 0.139551 -0.059958 -0.002450
v 0.047217 -0.105900 0.078300
v 0.020128 -0.142049 0.034413
v 0.165134 -0.167223 0.032847
v 0.160973 -0.125637 0.073060
v 0.020127 -0.142049 -0.039313
v 0.047217 -0.105900 -0.083200
v 0.160973 -0.125637 -0.077959
v 0.165134 -0.167223 -0.037746
v 0.217577 -0.025515 0.044243
v 0.251154 -0.040831 0.056091
v 0.284910 0.055504 0.034002
v 0.263138 0.047649 0.027534
v 0.160973 -0.125637 0.073060
v 0.165134 -0.167223 0.032847
v 0.279210 -0.053235 0.024018
v 0.251154 -0.040831 0.056091
v 0.165134 -0.167223 -0.037746
v 0.160973 -0.125637 -0.077959
v 0.251134 -0.040818 -0.060998
v 0.279190 -0.053221 -0.028985
v 0.150671 -0.076939 -0.059540
v 0.139551 -0.059958 -0.002450
v 0.202822 -0.018271 -0.002454
v 0.217579 -0.025516 -0.049145
v 0.150671 -0.076939 0.054640
v 0.160973 -0.125637 0.073060
v 0.251154 -0.040831 0.056091
v 0.217577 -0.025515 0.044243
v 0.165134 -0.167223 0.032847
v 0.165134 -0.167223 -0.037746
v 0.279190 -0.053221 -0.028985
v 0.279210 -0.053235 0.024018
v 0.160973 -0.125637 -0.077959
v 0.150671 -0.076939 -0.059540
v 0.217579 -0.025516 -0.049145
v 0.251134 -0.040818 -0.060998
v 0.279210 -0.053235 0.024018
v 0.279190 -0.053221 -0.028985
v 0.307699 0.055819 -0.019797
v 0.307468 0.056146 0.015241
v 0.251134 -0.040818 -0.060998
v 0.217579 -0.025516 -0.049145
v 0.263182 0.047705 -0.032404
v 0.284646 0.055688 -0.038924
v 0.202822 -0.018271 -0.002454
v 0.217577 -0.025515 0.044243
v 0.263138 0.047649 0.027534
v 0.252654 0.045752 -0.002486
v 0.251154 -0.040831 0.056091
v 0.279210 -0.053235 0.024018
v 0.307468 0.056146 0.015241
v 0.284910 0.055504 0.034002
v 0.279190 -0.053221 -0.028985
v 0.251134 -0.040818 -0.060998
v 0.284646 0.055688 -0.038924
v 0.307699 0.055819 -0.019797
v 0.217579 -0.025516 -0.049145
v 0.202822 -0.018271 -0.002454
v 0.252654 0.045752 -0.002486
v 0.263182 0.047705 -0.032404
v 0.290543 0.066829 -0.026824
v 0.263182 0.047705 -0.032404
v 0.271455 0.063155 -0.002928
v 0.290702 0.071332 -0.002944
v 0.290702 0.071332 -0.002944
v 0.271455 0.063155 -0.002928
v 0.263138 0.047649 0.027534
v 0.289894 0.067222 0.019240
v -0.314181 0.022546 -0.011194
v -0.334644 0.046845 -0.007131
v -0.353587 0.048247 -0.032917
v -0.320476 0.008931 -0.039490
v -0.344831 0.024815 -0.052916
v -0.321237 0.087138 -0.057858
v -0.297704 0.085396 -0.025824
v -0.272281 0.055209 -0.030871
v -0.280102 0.038294 -0.066024
v -0.310359 0.058027 -0.082704
v -0.317367 0.004576 0.038039
v -0.339707 0.016718 0.057511
v -0.350056 0.044217 0.044768
v -0.334111 0.049070 0.017419
v -0.313908 0.024570 0.013261
v -0.315461 0.075764 0.076520
v -0.302605 0.041601 0.092352
v -0.274850 0.026515 0.068160
v -0.295653 0.081793 0.042544
v -0.270554 0.051356 0.037378
v -0.418380 -0.057155 -0.136105
v -0.454317 -0.145408 -0.061878
v -0.437230 -0.117796 -0.042278
v -0.411391 -0.054341 -0.095650
v -0.454317 -0.145408 0.056978
v -0.418380 -0.057155 0.131205
v -0.411391 -0.054341 0.096552
v -0.437230 -0.117796 0.043181
v -0.454317 -0.145408 -0.061878
v -0.454317 -0.145408 0.056978
v -0.437230 -0.117796 0.043181
v -0.437230 -0.117796 -0.042278
v -0.373634 0.052948 0.104607
v -0.353823 0.101786 -0.002450
v -0.364974 0.059941 0.000451
v -0.379218 0.024826 0.077428
v -0.353823 0.101786 -0.002450
v -0.373634 0.052948 -0.109507
v -0.379218 0.024826 -0.076525
v -0.364974 0.059941 0.000451
v -0.373634 0.052948 -0.109507
v -0.418380 -0.057155 -0.136105
v -0.411391 -0.054341 -0.095650
v -0.379218 0.024826 -0.076525
v -0.210744 -0.036184 0.036479
v -0.233502 -0.031206 0.023951
v -0.228087 -0.016310 0.002773
v -0.201981 -0.012082 0.002214
v -0.191262 -0.024365 0.023045
v -0.237387 0.023274 0.025504
v -0.244115 0.004768 0.051814
v -0.215841 -0.001417 0.067379
v -0.204955 0.028527 0.024809
v -0.191639 0.013267 0.050689
v -0.210252 -0.023253 -0.006095
v -0.223545 -0.039132 -0.022553
v -0.209027 -0.042209 -0.044449
v -0.187518 -0.016516 -0.017820
v -0.186761 -0.028232 -0.041524
v -0.231491 -0.008056 -0.066787
v -0.249528 -0.004234 -0.039584
v -0.233013 0.015493 -0.019138
v -0.204770 0.023863 -0.033705
v -0.203829 0.009309 -0.063153
v -0.134380 0.018701 -0.008044
v -0.155509 0.006142 -0.017818
v -0.148421 -0.005265 -0.040607
v -0.122910 0.000243 -0.044917
v -0.114233 0.015055 -0.024792
v -0.163907 0.030633 -0.065934
v -0.172714 0.044806 -0.037623
v -0.146463 0.060408 -0.025481
v -0.132215 0.037477 -0.071289
v -0.121434 0.055878 -0.046288
v -0.149430 0.012350 0.041252
v -0.151216 0.023477 0.017321
v -0.126727 0.029195 0.009117
v -0.123838 0.011191 0.047839
v -0.109806 0.021601 0.027978
v -0.129439 0.073067 0.024540
v -0.159863 0.065964 0.034732
v -0.157644 0.052141 0.064463
v -0.125850 0.050700 0.072645
v -0.108418 0.063634 0.047972
v -0.056192 0.022190 -0.008863
v -0.070973 0.011377 -0.027950
v -0.054694 0.001993 -0.046568
v -0.030778 0.019488 -0.015685
v -0.029852 0.007006 -0.038988
v -0.057011 0.040639 -0.072444
v -0.077234 0.052297 -0.049314
v -0.058871 0.065730 -0.025601
v -0.027298 0.062373 -0.034076
v -0.026149 0.046867 -0.063027
v -0.057444 0.013210 0.041281
v -0.075557 0.025458 0.026394
v -0.064927 0.029886 0.002580
v -0.040245 0.020375 0.002749
v -0.035620 0.010068 0.026668
v -0.051913 0.073132 0.014000
v -0.065118 0.067631 0.043585
v -0.042616 0.052415 0.062080
v -0.021249 0.061316 0.014210
v -0.015503 0.048512 0.043925
v 0.027475 -0.018445 -0.010876
v 0.019956 -0.028282 -0.030026
v 0.037269 -0.039919 -0.039238
v 0.049436 -0.024002 -0.008252
v 0.055489 -0.037274 -0.025781
v 0.048233 -0.009735 -0.063329
v 0.026724 0.004722 -0.051884
v 0.036066 0.016943 -0.028093
v 0.063349 0.010039 -0.024834
v 0.070869 -0.006449 -0.046611
v 0.020215 -0.025943 0.037866
v 0.018778 -0.011844 0.021852
v 0.035625 -0.014708 0.008996
v 0.037950 -0.037520 0.034907
v 0.047473 -0.030576 0.017064
v 0.055506 0.012997 0.025241
v 0.034577 0.016554 0.041213
v 0.036362 -0.000961 0.061108
v 0.058394 -0.015343 0.057432
v 0.070226 -0.006716 0.035265
v 0.110347 -0.067818 0.033836
v 0.106701 -0.054831 0.020785
v 0.119821 -0.055682 0.009308
v 0.125719 -0.076695 0.030425
v 0.131575 -0.069194 0.015266
v 0.133841 -0.026380 0.021070
v 0.117542 -0.025323 0.035328
v 0.122071 -0.041457 0.051542
v 0.141169 -0.052485 0.047305
v 0.148444 -0.043166 0.028472
v 0.112455 -0.060663 -0.006322
v 0.106300 -0.071381 -0.021355
v 0.120963 -0.080488 -0.029826
v 0.130922 -0.063146 -0.005501
v 0.136180 -0.075398 -0.020028
v 0.125095 -0.050714 -0.050343
v 0.106878 -0.039400 -0.039820
v 0.114525 -0.026085 -0.021143
v 0.137468 -0.029169 -0.020124
v 0.144000 -0.044391 -0.038170
v 0.192874 -0.046753 0.029165
v 0.182254 -0.042285 0.018018
v 0.189798 -0.033967 0.008215
v 0.205080 -0.033294 0.013304
v 0.206981 -0.041196 0.026252
v 0.177664 -0.009015 0.018261
v 0.168292 -0.019349 0.030440
v 0.181485 -0.024900 0.044289
v 0.196650 -0.008178 0.024584
v 0.199011 -0.017996 0.040670
v 0.189212 -0.041539 -0.005136
v 0.193104 -0.051353 -0.017977
v 0.206988 -0.046392 -0.025212
v 0.211676 -0.033513 -0.016843
v 0.200690 -0.030514 -0.004435
v 0.189281 -0.027800 -0.042737
v 0.172032 -0.033962 -0.033748
v 0.167197 -0.021771 -0.017796
v 0.195106 -0.011800 -0.032340
v 0.181457 -0.008073 -0.016925
v 0.241055 -0.005922 0.029165
v 0.229571 -0.006856 0.018018
v 0.232428 0.004004 0.008215
v 0.245677 0.011651 0.013304
v 0.251008 0.005516 0.026252
v 0.210152 0.020546 0.018261
v 0.206603 0.007054 0.030440
v 0.220870 0.008215 0.044289
v 0.226611 0.030046 0.024584
v 0.233235 0.022424 0.040670
v 0.251630 0.014498 -0.016843
v 0.240499 0.012092 -0.004435
v 0.235401 -0.002985 -0.005136
v 0.243381 -0.009897 -0.017977
v 0.253411 0.000909 -0.025212
v 0.206749 0.004400 -0.017796
v 0.213083 0.023131 -0.016925
v 0.226912 0.026120 -0.032340
v 0.216663 -0.004187 -0.033748
v 0.229124 0.009237 -0.042737
v 0.268787 0.029487 0.024429
v 0.259291 0.028714 0.015212
v 0.261653 0.037694 0.007106
v 0.272608 0.044017 0.011314
v 0.277017 0.038944 0.022020
v 0.243234 0.051372 0.015413
v 0.240300 0.040216 0.025483
v 0.252096 0.041176 0.036935
v 0.256844 0.059227 0.020641
v 0.262321 0.052925 0.033942
v 0.277531 0.046372 -0.013614
v 0.268327 0.044382 -0.003354
v 0.264111 0.031915 -0.003933
v 0.270710 0.026200 -0.014551
v 0.279004 0.035135 -0.020534
v 0.240420 0.038021 -0.014401
v 0.245658 0.053509 -0.013682
v 0.257092 0.055982 -0.026427
v 0.248618 0.030921 -0.027592
v 0.258922 0.042021 -0.035025
v -0.344831 0.024815 -0.052916
v -0.315859 0.056136 -0.094319
v -0.273245 0.028343 -0.070827
v -0.320476 0.008931 -0.039490
v -0.320476 0.008931 -0.039490
v -0.273245 0.028343 -0.070827
v -0.262230 0.052166 -0.021317
v -0.314181 0.022546 -0.011194
v -0.314181 0.022546 -0.011194
v -0.262230 0.052166 -0.021317
v -0.298036 0.094683 -0.014209
v -0.334644 0.046845 -0.007131
v -0.334644 0.046845 -0.007131
v -0.298036 0.094683 -0.014209
v -0.331180 0.097136 -0.059326
v -0.353587 0.048247 -0.032917
v -0.353587 0.048247 -0.032917
v -0.331180 0.097136 -0.059326
v -0.315859 0.056136 -0.094319
v -0.344831 0.024815 -0.052916
v -0.313908 0.024570 0.013261
v -0.262315 0.050525 0.027370
v -0.268366 0.015540 0.070724
v -0.317367 0.004576 0.038039
v -0.317367 0.004576 0.038039
v -0.268366 0.015540 0.070724
v -0.307455 0.036786 0.104796
v -0.339707 0.016718 0.057511
v -0.339707 0.016718 0.057511
v -0.307455 0.036786 0.104796
v -0.325562 0.084902 0.082498
v -0.350056 0.044217 0.044768
v -0.350056 0.044217 0.044768
v -0.325562 0.084902 0.082498
v -0.297664 0.093393 0.034646
v -0.334111 0.049070 0.017419
v -0.334111 0.049070 0.017419
v -0.297664 0.093393 0.034646
v -0.262315 0.050525 0.027370
v -0.313908 0.024570 0.013261
v -0.437230 -0.117796 0.043181
v -0.411391 -0.054341 0.096552
v -0.379218 0.024826 0.077428
v -0.364974 0.059941 0.000451
v -0.437230 -0.117796 -0.042278
v -0.379218 0.024826 -0.076525
v -0.411391 -0.054341 -0.095650
v -0.201981 -0.012082 0.002214
v -0.200126 0.034583 0.017385
v -0.181371 0.013091 0.053834
v -0.191262 -0.024365 0.023045
v -0.191262 -0.024365 0.023045
v -0.181371 0.013091 0.053834
v -0.215458 -0.007590 0.077341
v -0.210744 -0.036184 0.036479
v -0.210744 -0.036184 0.036479
v -0.215458 -0.007590 0.077341
v -0.255279 0.001121 0.055419
v -0.233502 -0.031206 0.023951
v -0.233502 -0.031206 0.023951
v -0.255279 0.001121 0.055419
v -0.245803 0.027185 0.018365
v -0.228087 -0.016310 0.002773
v -0.228087 -0.016310 0.002773
v -0.245803 0.027185 0.018365
v -0.200126 0.034583 0.017385
v -0.201981 -0.012082 0.002214
v -0.186761 -0.028232 -0.041524
v -0.196298 0.010052 -0.070758
v -0.197623 0.030550 -0.029283
v -0.187518 -0.016516 -0.017820
v -0.187518 -0.016516 -0.017820
v -0.197623 0.030550 -0.029283
v -0.237401 0.018762 -0.008767
v -0.210252 -0.023253 -0.006095
v -0.210252 -0.023253 -0.006095
v -0.237401 0.018762 -0.008767
v -0.260661 -0.009021 -0.037563
v -0.223545 -0.039132 -0.022553
v -0.223545 -0.039132 -0.022553
v -0.260661 -0.009021 -0.037563
v -0.235258 -0.014405 -0.075876
v -0.209027 -0.042209 -0.044449
v -0.209027 -0.042209 -0.044449
v -0.235258 -0.014405 -0.075876
v -0.196298 0.010052 -0.070758
v -0.186761 -0.028232 -0.041524
v -0.122910 0.000243 -0.044917
v -0.126903 0.034309 -0.080057
v -0.111719 0.060225 -0.044844
v -0.114233 0.015055 -0.024792
v -0.114233 0.015055 -0.024792
v -0.111719 0.060225 -0.044844
v -0.146971 0.066605 -0.015539
v -0.134380 0.018701 -0.008044
v -0.134380 0.018701 -0.008044
v -0.146971 0.066605 -0.015539
v -0.183942 0.044631 -0.032641
v -0.155509 0.006142 -0.017818
v -0.155509 0.006142 -0.017818
v -0.183942 0.044631 -0.032641
v -0.171539 0.024671 -0.072515
v -0.148421 -0.005265 -0.040607
v -0.148421 -0.005265 -0.040607
v -0.171539 0.024671 -0.072515
v -0.126903 0.034309 -0.080057
v -0.122910 0.000243 -0.044917
v -0.109806 0.021601 0.027978
v -0.097812 0.065115 0.047315
v -0.122363 0.046899 0.082066
v -0.123838 0.011191 0.047839
v -0.123838 0.011191 0.047839
v -0.122363 0.046899 0.082066
v -0.167143 0.048928 0.070542
v -0.149430 0.012350 0.041252
v -0.149430 0.012350 0.041252
v -0.167143 0.048928 0.070542
v -0.170267 0.068397 0.028669
v -0.151216 0.023477 0.017321
v -0.151216 0.023477 0.017321
v -0.170267 0.068397 0.028669
v -0.127419 0.078401 0.014314
v -0.126727 0.029195 0.009117
v -0.126727 0.029195 0.009117
v -0.127419 0.078401 0.014314
v -0.097812 0.065115 0.047315
v -0.109806 0.021601 0.027978
v -0.054694 0.001993 -0.046568
v -0.060453 0.036023 -0.081497
v -0.016987 0.044794 -0.068234
v -0.029852 0.007006 -0.038988
v -0.029852 0.007006 -0.038988
v -0.016987 0.044794 -0.068234
v -0.018606 0.066634 -0.027459
v -0.030778 0.019488 -0.015685
v -0.030778 0.019488 -0.015685
v -0.018606 0.066634 -0.027459
v -0.063073 0.071361 -0.015523
v -0.056192 0.022190 -0.008863
v -0.056192 0.022190 -0.008863
v -0.063073 0.071361 -0.015523
v -0.088936 0.052442 -0.048920
v -0.070973 0.011377 -0.027950
v -0.070973 0.011377 -0.027950
v -0.088936 0.052442 -0.048920
v -0.060453 0.036023 -0.081497
v -0.054694 0.001993 -0.046568
v -0.040245 0.020375 0.002749
v -0.014570 0.062116 0.005852
v -0.006478 0.044083 0.047703
v -0.035620 0.010068 0.026668
v -0.035620 0.010068 0.026668
v -0.006478 0.044083 0.047703
v -0.044663 0.049580 0.073272
v -0.057444 0.013210 0.041281
v -0.057444 0.013210 0.041281
v -0.044663 0.049580 0.073272
v -0.076356 0.071010 0.047224
v -0.075557 0.025458 0.026394
v -0.075557 0.025458 0.026394
v -0.076356 0.071010 0.047224
v -0.057757 0.078758 0.005556
v -0.064927 0.029886 0.002580
v -0.064927 0.029886 0.002580
v -0.057757 0.078758 0.005556
v -0.014570 0.062116 0.005852
v -0.040245 0.020375 0.002749
v 0.037269 -0.039919 -0.039238
v 0.047582 -0.014318 -0.071337
v 0.079461 -0.009690 -0.047791
v 0.055489 -0.037274 -0.025781
v 0.055489 -0.037274 -0.025781
v 0.079461 -0.009690 -0.047791
v 0.068870 0.013533 -0.017120
v 0.049436 -0.024002 -0.008252
v 0.049436 -0.024002 -0.008252
v 0.068870 0.013533 -0.017120
v 0.030445 0.023256 -0.021711
v 0.027475 -0.018445 -0.010876
v 0.027475 -0.018445 -0.010876
v 0.030445 0.023256 -0.021711
v 0.017288 0.006043 -0.055218
v 0.019956 -0.028282 -0.030026
v 0.019956 -0.028282 -0.030026
v 0.017288 0.006043 -0.055218
v 0.047582 -0.014318 -0.071337
v 0.037269 -0.039919 -0.039238
v 0.037950 -0.037520 0.034907
v 0.061682 -0.021599 0.062459
v 0.030652 -0.001343 0.067637
v 0.020215 -0.025943 0.037866
v 0.020215 -0.025943 0.037866
v 0.030652 -0.001343 0.067637
v 0.028138 0.023325 0.039617
v 0.018778 -0.011844 0.021852
v 0.018778 -0.011844 0.021852
v 0.028138 0.023325 0.039617
v 0.057614 0.018315 0.017122
v 0.035625 -0.014708 0.008996
v 0.035625 -0.014708 0.008996
v 0.057614 0.018315 0.017122
v 0.078346 -0.009450 0.031239
v 0.047473 -0.030576 0.017064
v 0.047473 -0.030576 0.017064
v 0.078346 -0.009450 0.031239
v 0.061682 -0.021599 0.062459
v 0.037950 -0.037520 0.034907
v 0.117901 -0.042421 0.057209
v 0.144799 -0.057952 0.051242
v 0.141169 -0.052485 0.047305
v 0.111522 -0.019698 0.034374
v 0.134478 -0.021185 0.014293
v 0.155044 -0.044828 0.024717
v 0.144799 -0.057952 0.051242
v 0.119821 -0.055682 0.009308
v 0.134478 -0.021185 0.014293
v 0.155044 -0.044828 0.024717
v 0.131575 -0.069194 0.015266
v 0.110347 -0.067818 0.033836
v 0.117901 -0.042421 0.057209
v 0.111522 -0.019698 0.034374
v 0.106701 -0.054831 0.020785
v 0.106701 -0.054831 0.020785
v 0.111522 -0.019698 0.034374
v 0.134478 -0.021185 0.014293
v 0.119821 -0.055682 0.009308
v 0.125719 -0.076695 0.030425
v 0.144799 -0.057952 0.051242
v 0.117901 -0.042421 0.057209
v 0.110347 -0.067818 0.033836
v 0.131575 -0.069194 0.015266
v 0.155044 -0.044828 0.024717
v 0.144799 -0.057952 0.051242
v 0.125719 -0.076695 0.030425
v 0.151208 -0.046423 -0.039636
v 0.124582 -0.055329 -0.056780
v 0.125095 -0.050714 -0.050343
v 0.112455 -0.060663 -0.006322
v 0.109696 -0.020641 -0.015655
v 0.098925 -0.039394 -0.041959
v 0.106300 -0.071381 -0.021355
v 0.136180 -0.075398 -0.020028
v 0.151208 -0.046423 -0.039636
v 0.142008 -0.024985 -0.014219
v 0.130922 -0.063146 -0.005501
v 0.130922 -0.063146 -0.005501
v 0.142008 -0.024985 -0.014219
v 0.109696 -0.020641 -0.015655
v 0.112455 -0.060663 -0.006322
v 0.124582 -0.055329 -0.056780
v 0.098925 -0.039394 -0.041959
v 0.109696 -0.020641 -0.015655
v 0.142008 -0.024985 -0.014219
v 0.144000 -0.044391 -0.038170
v 0.151208 -0.046423 -0.039636
v 0.120963 -0.080488 -0.029826
v 0.124582 -0.055329 -0.056780
v 0.151208 -0.046423 -0.039636
v 0.136180 -0.075398 -0.020028
v 0.106300 -0.071381 -0.021355
v 0.098925 -0.039394 -0.041959
v 0.124582 -0.055329 -0.056780
v 0.120963 -0.080488 -0.029826
v 0.179912 -0.028200 0.049130
v 0.204596 -0.018476 0.044032
v 0.199011 -0.017996 0.040670
v 0.161330 -0.020382 0.029625
v 0.174530 -0.005827 0.012472
v 0.201270 -0.004649 0.021377
v 0.204596 -0.018476 0.044032
v 0.189798 -0.033967 0.008215
v 0.174530 -0.005827 0.012472
v 0.201270 -0.004649 0.021377
v 0.205080 -0.033294 0.013304
v 0.192874 -0.046753 0.029165
v 0.179912 -0.028200 0.049130
v 0.161330 -0.020382 0.029625
v 0.182254 -0.042285 0.018018
v 0.182254 -0.042285 0.018018
v 0.161330 -0.020382 0.029625
v 0.174530 -0.005827 0.012472
v 0.189798 -0.033967 0.008215
v 0.206981 -0.041196 0.026252
v 0.204596 -0.018476 0.044032
v 0.179912 -0.028200 0.049130
v 0.192874 -0.046753 0.029165
v 0.205080 -0.033294 0.013304
v 0.201270 -0.004649 0.021377
v 0.204596 -0.018476 0.044032
v 0.206981 -0.041196 0.026252
v 0.200297 -0.008062 -0.033591
v 0.192093 -0.030597 -0.048235
v 0.189281 -0.027800 -0.042737
v 0.189212 -0.041539 -0.005136
v 0.160990 -0.022105 -0.013108
v 0.167800 -0.039276 -0.035575
v 0.193104 -0.051353 -0.017977
v 0.211676 -0.033513 -0.016843
v 0.200297 -0.008062 -0.033591
v 0.181074 -0.002814 -0.011881
v 0.200690 -0.030514 -0.004435
v 0.200690 -0.030514 -0.004435
v 0.181074 -0.002814 -0.011881
v 0.160990 -0.022105 -0.013108
v 0.189212 -0.041539 -0.005136
v 0.192093 -0.030597 -0.048235
v 0.167800 -0.039276 -0.035575
v 0.160990 -0.022105 -0.013108
v 0.181074 -0.002814 -0.011881
v 0.195106 -0.011800 -0.032340
v 0.200297 -0.008062 -0.033591
v 0.206988 -0.046392 -0.025212
v 0.192093 -0.030597 -0.048235
v 0.200297 -0.008062 -0.033591
v 0.211676 -0.033513 -0.016843
v 0.193104 -0.051353 -0.017977
v 0.167800 -0.039276 -0.035575
v 0.192093 -0.030597 -0.048235
v 0.206988 -0.046392 -0.025212
v 0.220996 0.004561 0.049130
v 0.238412 0.024574 0.044032
v 0.233235 0.022424 0.040670
v 0.200903 0.002926 0.029625
v 0.205901 0.021928 0.012472
v 0.229083 0.035308 0.021377
v 0.238412 0.024574 0.044032
v 0.232428 0.004004 0.008215
v 0.205901 0.021928 0.012472
v 0.229083 0.035308 0.021377
v 0.245677 0.011651 0.013304
v 0.241055 -0.005922 0.029165
v 0.220996 0.004561 0.049130
v 0.200903 0.002926 0.029625
v 0.229571 -0.006856 0.018018
v 0.229571 -0.006856 0.018018
v 0.200903 0.002926 0.029625
v 0.205901 0.021928 0.012472
v 0.232428 0.004004 0.008215
v 0.251008 0.005516 0.026252
v 0.238412 0.024574 0.044032
v 0.220996 0.004561 0.049130
v 0.241055 -0.005922 0.029165
v 0.245677 0.011651 0.013304
v 0.229083 0.035308 0.021377
v 0.238412 0.024574 0.044032
v 0.251008 0.005516 0.026252
v 0.229794 0.031831 -0.033591
v 0.232910 0.008053 -0.048235
v 0.229124 0.009237 -0.042737
v 0.235401 -0.002985 -0.005136
v 0.201396 0.001240 -0.013108
v 0.215359 -0.010854 -0.035575
v 0.243381 -0.009897 -0.017977
v 0.251630 0.014498 -0.016843
v 0.229794 0.031831 -0.033591
v 0.210317 0.027621 -0.011881
v 0.240499 0.012092 -0.004435
v 0.240499 0.012092 -0.004435
v 0.210317 0.027621 -0.011881
v 0.201396 0.001240 -0.013108
v 0.235401 -0.002985 -0.005136
v 0.232910 0.008053 -0.048235
v 0.215359 -0.010854 -0.035575
v 0.201396 0.001240 -0.013108
v 0.210317 0.027621 -0.011881
v 0.226912 0.026120 -0.032340
v 0.229794 0.031831 -0.033591
v 0.253411 0.000909 -0.025212
v 0.232910 0.008053 -0.048235
v 0.229794 0.031831 -0.033591
v 0.251630 0.014498 -0.016843
v 0.243381 -0.009897 -0.017977
v 0.215359 -0.010854 -0.035575
v 0.232910 0.008053 -0.048235
v 0.253411 0.000909 -0.025212
v 0.252201 0.038155 0.040938
v 0.266601 0.054703 0.036723
v 0.262321 0.052925 0.033942
v 0.235586 0.036802 0.024809
v 0.239719 0.052515 0.010626
v 0.258887 0.063578 0.017989
v 0.266601 0.054703 0.036723
v 0.261653 0.037694 0.007106
v 0.239719 0.052515 0.010626
v 0.258887 0.063578 0.017989
v 0.272608 0.044017 0.011314
v 0.268787 0.029487 0.024429
v 0.252201 0.038155 0.040938
v 0.235586 0.036802 0.024809
v 0.259291 0.028714 0.015212
v 0.259291 0.028714 0.015212
v 0.235586 0.036802 0.024809
v 0.239719 0.052515 0.010626
v 0.261653 0.037694 0.007106
v 0.277017 0.038944 0.022020
v 0.266601 0.054703 0.036723
v 0.252201 0.038155 0.040938
v 0.268787 0.029487 0.024429
v 0.272608 0.044017 0.011314
v 0.258887 0.063578 0.017989
v 0.266601 0.054703 0.036723
v 0.277017 0.038944 0.022020
v 0.259475 0.060704 -0.027462
v 0.262051 0.041042 -0.039571
v 0.258922 0.042021 -0.035025
v 0.264111 0.031915 -0.003933
v 0.235994 0.035409 -0.010525
v 0.247539 0.025409 -0.029103
v 0.270710 0.026200 -0.014551
v 0.277531 0.046372 -0.013614
v 0.259475 0.060704 -0.027462
v 0.243370 0.057222 -0.009511
v 0.268327 0.044382 -0.003354
v 0.268327 0.044382 -0.003354
v 0.243370 0.057222 -0.009511
v 0.235994 0.035409 -0.010525
v 0.264111 0.031915 -0.003933
v 0.262051 0.041042 -0.039571
v 0.247539 0.025409 -0.029103
v 0.235994 0.035409 -0.010525
v 0.243370 0.057222 -0.009511
v 0.257092 0.055982 -0.026427
v 0.259475 0.060704 -0.027462
v 0.279004 0.035135 -0.020534
v 0.262051 0.041042 -0.039571
v 0.259475 0.060704 -0.027462
v 0.277531 0.046372 -0.013614
v 0.270710 0.026200 -0.014551
v 0.247539 0.025409 -0.029103
v 0.262051 0.041042 -0.039571
v 0.279004 0.035135 -0.020534
v 0.061682 -0.021599 0.062459
v 0.078346 -0.009450 0.031239
v 0.030652 -0.001343 0.067637
v 0.057614 0.018315 0.017122
v 0.028138 0.023325 0.039617
v 0.047582 -0.014318 -0.071337
v 0.017288 0.006043 -0.055218
v 0.079461 -0.009690 -0.047791
v 0.030445 0.023256 -0.021711
v 0.068870 0.013533 -0.017120
v -0.014570 0.062116 0.005852
v -0.057757 0.078758 0.005556
v -0.006478 0.044083 0.047703
v -0.076356 0.071010 0.047224
v -0.044663 0.049580 0.073272
v -0.060453 0.036023 -0.081497
v -0.088936 0.052442 -0.048920
v -0.016987 0.044794 -0.068234
v -0.063073 0.071361 -0.015523
v -0.018606 0.066634 -0.027459
v -0.097812 0.065115 0.047315
v -0.127419 0.078401 0.014314
v -0.122363 0.046899 0.082066
v -0.170267 0.068397 0.028669
v -0.167143 0.048928 0.070542
v -0.126903 0.034309 -0.080057
v -0.171539 0.024671 -0.072515
v -0.111719 0.060225 -0.044844
v -0.183942 0.044631 -0.032641
v -0.146971 0.066605 -0.015539
v -0.196298 0.010052 -0.070758
v -0.235258 -0.014405 -0.075876
v -0.197623 0.030550 -0.029283
v -0.260661 -0.009021 -0.037563
v -0.237401 0.018762 -0.008767
v -0.200126 0.034583 0.017385
v -0.245803 0.027185 0.018365
v -0.181371 0.013091 0.053834
v -0.255279 0.001121 0.055419
v -0.215458 -0.007590 0.077341
v -0.262315 0.050525 0.027370
v -0.297664 0.093393 0.034646
v -0.268366 0.015540 0.070724
v -0.325562 0.084902 0.082498
v -0.307455 0.036786 0.104796
v -0.315859 0.056136 -0.094319
v -0.331180 0.097136 -0.059326
v -0.273245 0.028343 -0.070827
v -0.298036 0.094683 -0.014209
v -0.262230 0.052166 -0.021317
vn -0.419932 0.774516 0.473056
vn -0.419932 0.774516 0.473056
vn -0.419932 0.774516 0.473056
vn 0.569545 0.447415 -0.689520
vn 0.569545 0.447415 -0.689520
vn 0.569545 0.447415 -0.689520
vn -0.665007 0.723167 0.186537
vn -0.665007 0.723167 0.186537
vn -0.665007 0.723167 0.186537
vn 0.510507 0.581200 0.633711
vn 0.510507 0.581200 0.633711
vn 0.510507 0.581200 0.633711
vn -0.430658 0.758731 -0.488734
vn -0.430658 0.758731 -0.488734
vn -0.430658 0.758731 -0.488734
vn 0.577735 0.801384 -0.154940
vn 0.577735 0.801384 -0.154940
vn 0.577735 0.801384 -0.154940
vn 0.672769 0.739848 -0.002454
vn 0.672769 0.739848 -0.002454
vn 0.672769 0.739848 -0.002454
vn 0.552903 0.815467 0.171210
vn 0.552903 0.815467 0.171210
vn 0.552903 0.815467 0.171210
vn -0.669475 0.718470 -0.188690
vn -0.669475 0.718470 -0.188690
vn -0.669475 0.718470 -0.188690
vn 0.674000 0.617085 -0.406117
vn 0.674000 0.617085 -0.406117
vn 0.674000 0.617085 -0.406117
vn 0.674000 0.617085 -0.406117
vn 0.370511 0.076105 -0.925705
vn 0.370511 0.076105 -0.925705
vn 0.370511 0.076105 -0.925705
vn 0.370511 0.076105 -0.925705
vn -0.032854 -0.632006 -0.774267
vn -0.032854 -0.632006 -0.774267
vn -0.032854 -0.632006 -0.774267
vn -0.032854 -0.632006 -0.774267
vn -0.228721 -0.973492 0.000001
vn -0.228721 -0.973492 0.000001
vn -0.228721 -0.973492 0.000001
vn -0.228721 -0.973492 0.000001
vn -0.032854 -0.632004 0.774268
vn -0.032854 -0.632004 0.774268
vn -0.032854 -0.632004 0.774268
vn -0.032854 -0.632004 0.774268
vn 0.114894 -0.648805 -0.752231
vn 0.114894 -0.648805 -0.752231
vn 0.114894 -0.648805 -0.752231
vn 0.114894 -0.648805 -0.752231
vn 0.370511 0.076106 0.925705
vn 0.370511 0.076106 0.925705
vn 0.370511 0.076106 0.925705
vn 0.370511 0.076106 0.925705
vn 0.673999 0.617085 0.406116
vn 0.673999 0.617085 0.406116
vn 0.673999 0.617085 0.406116
vn 0.673999 0.617085 0.406116
vn -0.927395 0.338352 -0.159554
vn -0.927395 0.338352 -0.159554
vn -0.927395 0.338352 -0.159554
vn -0.927395 0.338352 -0.159554
vn -0.136351 0.215167 0.967012
vn -0.136351 0.215167 0.967012
vn -0.136351 0.215167 0.967012
vn -0.136351 0.215167 0.967012
vn 0.003196 0.305049 0.952331
vn 0.003196 0.305049 0.952331
vn 0.003196 0.305049 0.952331
vn 0.003196 0.305049 0.952331
vn 0.157512 -0.987517 0.000001
vn 0.157512 -0.987517 0.000001
vn 0.157512 -0.987517 0.000001
vn 0.157512 -0.987517 0.000001
vn 0.126560 0.922146 0.365552
vn 0.126560 0.922146 0.365552
vn 0.126560 0.922146 0.365552
vn 0.126560 0.922146 0.365552
vn 0.003197 0.305048 -0.952332
vn 0.003197 0.305048 -0.952332
vn 0.003197 0.305048 -0.952332
vn 0.003197 0.305048 -0.952332
vn 0.114894 -0.648803 0.752233
vn 0.114894 -0.648803 0.752233
vn 0.114894 -0.648803 0.752233
vn 0.114894 -0.648803 0.752233
vn 0.126560 0.922146 -0.365553
vn 0.126560 0.922146 -0.365553
vn 0.126560 0.922146 -0.365553
vn 0.126560 0.922146 -0.365553
vn -0.018145 0.947168 0.320225
vn -0.018145 0.947168 0.320225
vn -0.018145 0.947168 0.320225
vn -0.018145 0.947168 0.320225
vn 0.620425 -0.784266 0.000001
vn 0.620425 -0.784266 0.000001
vn 0.620425 -0.784266 0.000001
vn 0.620425 -0.784266 0.000001
vn -0.136350 0.215166 -0.967012
vn -0.136350 0.215166 -0.967012
vn -0.136350 0.215166 -0.967012
vn -0.136350 0.215166 -0.967012
vn -0.592614 0.707608 0.384837
vn -0.592614 0.707608 0.384837
vn -0.592614 0.707608 0.384837
vn -0.592614 0.707608 0.384837
vn 0.419959 -0.482970 0.768358
vn 0.419959 -0.482970 0.768358
vn 0.419959 -0.482970 0.768358
vn 0.419959 -0.482970 0.768358
vn 0.419960 -0.482972 -0.768357
vn 0.419960 -0.482972 -0.768357
vn 0.419960 -0.482972 -0.768357
vn 0.419960 -0.482972 -0.768357
vn -0.592614 0.707608 -0.384838
vn -0.592614 0.707608 -0.384838
vn -0.592614 0.707608 -0.384838
vn -0.592614 0.707608 -0.384838
vn -0.631471 -0.775399 0.000001
vn -0.631471 -0.775399 0.000001
vn -0.631471 -0.775399 0.000001
vn -0.631471 -0.775399 0.000001
vn 0.117358 -0.700628 0.703810
vn 0.117358 -0.700628 0.703810
vn 0.117358 -0.700628 0.703810
vn 0.117358 -0.700628 0.703810
vn 0.117360 -0.700629 -0.703808
vn 0.117360 -0.700629 -0.703808
vn 0.117360 -0.700629 -0.703808
vn 0.117360 -0.700629 -0.703808
vn -0.018144 0.947167 -0.320226
vn -0.018144 0.947167 -0.320226
vn -0.018144 0.947167 -0.320226
vn -0.018144 0.947167 -0.320226
vn 0.002932 0.230825 0.972991
vn 0.002932 0.230825 0.972991
vn 0.002932 0.230825 0.972991
vn 0.002932 0.230825 0.972991
vn 0.221985 -0.975050 0.000001
vn 0.221985 -0.975050 0.000001
vn 0.221985 -0.975050 0.000001
vn 0.221985 -0.975050 0.000001
vn 0.002934 0.230825 -0.972991
vn 0.002934 0.230825 -0.972991
vn 0.002934 0.230825 -0.972991
vn 0.002934 0.230825 -0.972991
vn 0.295808 0.914005 -0.277655
vn 0.295808 0.914005 -0.277655
vn 0.295808 0.914005 -0.277655
vn 0.295808 0.914005 -0.277655
vn 0.183303 0.219986 -0.958126
vn 0.183303 0.219986 -0.958126
vn 0.183303 0.219986 -0.958126
vn 0.183303 0.219986 -0.958126
vn 0.509240 0.797307 0.324000
vn 0.509240 0.797307 0.324000
vn 0.509240 0.797307 0.324000
vn 0.509240 0.797307 0.324000
vn -0.451935 -0.609185 0.651651
vn -0.451935 -0.609185 0.651651
vn -0.451935 -0.609185 0.651651
vn -0.451935 -0.609185 0.651651
vn -0.451934 -0.609186 -0.651650
vn -0.451934 -0.609186 -0.651650
vn -0.451934 -0.609186 -0.651650
vn -0.451934 -0.609186 -0.651650
vn 0.509241 0.797307 -0.324000
vn 0.509241 0.797307 -0.324000
vn 0.509241 0.797307 -0.324000
vn 0.509241 0.797307 -0.324000
vn 0.183302 0.219987 0.958126
vn 0.183302 0.219987 0.958126
vn 0.183302 0.219987 0.958126
vn 0.183302 0.219987 0.958126
vn -0.535064 0.783386 0.316248
vn -0.535064 0.783386 0.316248
vn -0.535064 0.783386 0.316248
vn -0.535064 0.783386 0.316248
vn 0.123091 0.326048 0.937305
vn 0.123091 0.326048 0.937305
vn 0.123091 0.326048 0.937305
vn 0.123091 0.326048 0.937305
vn -0.171049 -0.985263 0.000002
vn -0.171049 -0.985263 0.000002
vn -0.171049 -0.985263 0.000002
vn -0.171049 -0.985263 0.000002
vn 0.123092 0.326047 -0.937306
vn 0.123092 0.326047 -0.937306
vn 0.123092 0.326047 -0.937306
vn 0.123092 0.326047 -0.937306
vn 0.295808 0.914005 0.277655
vn 0.295808 0.914005 0.277655
vn 0.295808 0.914005 0.277655
vn 0.295808 0.914005 0.277655
vn -0.106047 -0.715633 0.690379
vn -0.106047 -0.715633 0.690379
vn -0.106047 -0.715633 0.690379
vn -0.106047 -0.715633 0.690379
vn -0.106046 -0.715634 -0.690378
vn -0.106046 -0.715634 -0.690378
vn -0.106046 -0.715634 -0.690378
vn -0.106046 -0.715634 -0.690378
vn -0.256596 0.328172 0.909100
vn -0.256596 0.328172 0.909100
vn -0.256596 0.328172 0.909100
vn -0.256596 0.328172 0.909100
vn 0.576926 -0.509982 0.638024
vn 0.576926 -0.509982 0.638024
vn 0.576926 -0.509982 0.638024
vn 0.576926 -0.509982 0.638024
vn 0.576737 -0.509807 -0.638335
vn 0.576737 -0.509807 -0.638335
vn 0.576737 -0.509807 -0.638335
vn 0.576737 -0.509807 -0.638335
vn -0.535063 0.783373 -0.316281
vn -0.535063 0.783373 -0.316281
vn -0.535063 0.783373 -0.316281
vn -0.535063 0.783373 -0.316281
vn -0.137345 0.344895 0.928539
vn -0.137345 0.344895 0.928539
vn -0.137345 0.344895 0.928539
vn -0.137345 0.344895 0.928539
vn 0.706886 -0.707328 -0.000190
vn 0.706886 -0.707328 -0.000190
vn 0.706886 -0.707328 -0.000190
vn 0.706886 -0.707328 -0.000190
vn -0.137502 0.344956 -0.928493
vn -0.137502 0.344956 -0.928493
vn -0.137502 0.344956 -0.928493
vn -0.137502 0.344956 -0.928493
vn 0.967839 -0.251549 0.003221
vn 0.967839 -0.251549 0.003221
vn 0.967839 -0.251549 0.003221
vn 0.967839 -0.251549 0.003221
vn -0.259533 0.328643 -0.908095
vn -0.259533 0.328643 -0.908095
vn -0.259533 0.328643 -0.908095
vn -0.259533 0.328643 -0.908095
vn -0.768048 0.569745 0.292392
vn -0.768048 0.569745 0.292392
vn -0.768048 0.569745 0.292392
vn -0.768048 0.569745 0.292392
vn 0.693078 -0.101857 0.713630
vn 0.693078 -0.101857 0.713630
vn 0.693078 -0.101857 0.713630
vn 0.693078 -0.101857 0.713630
vn 0.691691 -0.099927 -0.715247
vn 0.691691 -0.099927 -0.715247
vn 0.691691 -0.099927 -0.715247
vn 0.691691 -0.099927 -0.715247
vn -0.767950 0.569657 -0.292821
vn -0.767950 0.569657 -0.292821
vn -0.767950 0.569657 -0.292821
vn -0.767950 0.569657 -0.292821
vn -0.468393 0.849284 -0.243566
vn -0.468393 0.849284 -0.243566
vn -0.468393 0.849284 -0.243566
vn -0.468393 0.849284 -0.243566
vn -0.470481 0.850452 0.235326
vn -0.470481 0.850452 0.235326
vn -0.470481 0.850452 0.235326
vn -0.470481 0.850452 0.235326
vn -0.648140 -0.619812 0.442434
vn -0.648140 -0.619812 0.442434
vn -0.648140 -0.619812 0.442434
vn -0.648140 -0.619812 0.442434
vn -0.648140 -0.619812 0.442434
vn 0.663806 0.593284 -0.455385
vn 0.663806 0.593284 -0.455385
vn 0.648140 0.619812 -0.442434
vn 0.648140 0.619812 -0.442434
vn 0.648140 0.619812 -0.442434
vn -0.707551 -0.498419 -0.500949
vn -0.707551 -0.498419 -0.500949
vn -0.707551 -0.498419 -0.500949
vn -0.707551 -0.498419 -0.500949
vn -0.707551 -0.498419 -0.500949
vn 0.723915 0.469616 0.505379
vn 0.707551 0.498418 0.500950
vn 0.707551 0.498418 0.500950
vn 0.723915 0.469616 0.505379
vn 0.707551 0.498418 0.500950
vn -0.880092 0.459368 0.120077
vn -0.880092 0.459368 0.120077
vn -0.880092 0.459368 0.120077
vn -0.880092 0.459368 0.120077
vn -0.871563 0.470592 -0.137555
vn -0.871563 0.470592 -0.137555
vn -0.871563 0.470592 -0.137555
vn -0.871563 0.470592 -0.137555
vn -0.850359 0.526202 -0.000001
vn -0.850359 0.526202 -0.000001
vn -0.850359 0.526202 -0.000001
vn -0.850359 0.526202 -0.000001
vn -0.965428 0.252868 -0.063291
vn -0.965428 0.252868 -0.063291
vn -0.965428 0.252868 -0.063291
vn -0.965428 0.252868 -0.063291
vn -0.963552 0.260868 0.059294
vn -0.963552 0.260868 0.059294
vn -0.963552 0.260868 0.059294
vn -0.963552 0.260868 0.059294
vn -0.928812 0.344500 0.136485
vn -0.928812 0.344500 0.136485
vn -0.928812 0.344500 0.136485
vn -0.928812 0.344500 0.136485
vn 0.122024 -0.826228 -0.549961
vn 0.122024 -0.826228 -0.549961
vn 0.122024 -0.826228 -0.549961
vn 0.122024 -0.826228 -0.549961
vn 0.122024 -0.826228 -0.549961
vn -0.089503 0.825269 0.557603
vn -0.089503 0.825269 0.557603
vn -0.122024 0.826228 0.549961
vn -0.122024 0.826228 0.549961
vn -0.122024 0.826228 0.549961
vn 0.446397 -0.796462 0.407895
vn 0.446397 -0.796462 0.407895
vn 0.446397 -0.796462 0.407895
vn 0.446397 -0.796462 0.407895
vn 0.446397 -0.796462 0.407895
vn -0.422530 0.815846 -0.394795
vn -0.422530 0.815846 -0.394795
vn -0.446397 0.796462 -0.407895
vn -0.446397 0.796462 -0.407895
vn -0.446397 0.796462 -0.407895
vn 0.262520 -0.827694 0.495991
vn 0.262520 -0.827694 0.495991
vn 0.262520 -0.827694 0.495991
vn 0.262520 -0.827694 0.495991
vn 0.262520 -0.827694 0.495991
vn -0.231397 0.839230 -0.492086
vn -0.231397 0.839230 -0.492086
vn -0.262520 0.827694 -0.495990
vn -0.262520 0.827694 -0.495990
vn -0.262520 0.827694 -0.495990
vn 0.068435 -0.902688 -0.424819
vn 0.068435 -0.902688 -0.424819
vn 0.068435 -0.902688 -0.424819
vn 0.068435 -0.902688 -0.424819
vn 0.068435 -0.902688 -0.424819
vn -0.055972 0.889750 0.453003
vn -0.055972 0.889750 0.453003
vn -0.068435 0.902688 0.424819
vn -0.068435 0.902688 0.424819
vn -0.068435 0.902688 0.424819
vn 0.033359 -0.880469 0.472928
vn 0.033359 -0.880469 0.472928
vn 0.033359 -0.880469 0.472928
vn 0.033359 -0.880469 0.472928
vn 0.033359 -0.880469 0.472928
vn -0.033358 0.880470 -0.472928
vn -0.005651 0.871952 -0.489559
vn -0.005651 0.871952 -0.489559
vn -0.033358 0.880470 -0.472928
vn -0.033358 0.880470 -0.472928
vn -0.339235 -0.885977 -0.316170
vn -0.339235 -0.885977 -0.316170
vn -0.339235 -0.885977 -0.316170
vn -0.339235 -0.885977 -0.316170
vn -0.339235 -0.885977 -0.316170
vn 0.367466 0.871033 0.325992
vn 0.367466 0.871033 0.325992
vn 0.339235 0.885977 0.316171
vn 0.339235 0.885977 0.316171
vn 0.339235 0.885977 0.316171
vn -0.267349 -0.810422 0.521287
vn -0.267349 -0.810422 0.521287
vn -0.267349 -0.810422 0.521287
vn -0.267349 -0.810422 0.521287
vn -0.267349 -0.810422 0.521287
vn 0.267349 0.810422 -0.521287
vn 0.297458 0.796722 -0.526073
vn 0.297458 0.796722 -0.526073
vn 0.267349 0.810422 -0.521287
vn 0.267349 0.810422 -0.521287
vn -0.522205 -0.662795 -0.536661
vn -0.522205 -0.662795 -0.536661
vn -0.522205 -0.662795 -0.536661
vn -0.522205 -0.662795 -0.536661
vn -0.522205 -0.662795 -0.536661
vn 0.500247 0.659072 0.561585
vn 0.522205 0.662795 0.536661
vn 0.522205 0.662795 0.536661
vn 0.522205 0.662795 0.536661
vn 0.500247 0.659072 0.561585
vn -0.508908 -0.677073 -0.531587
vn -0.508908 -0.677073 -0.531587
vn -0.508908 -0.677073 -0.531587
vn -0.508908 -0.677073 -0.531587
vn -0.508908 -0.677073 -0.531587
vn 0.522553 0.652314 0.549022
vn 0.522553 0.652314 0.549022
vn 0.513976 0.699115 0.497059
vn 0.478127 0.699682 0.530885
vn 0.478127 0.699682 0.530885
vn -0.132096 -0.780752 0.610719
vn -0.132096 -0.780752 0.610719
vn -0.132096 -0.780752 0.610719
vn -0.132096 -0.780752 0.610719
vn -0.132096 -0.780752 0.610719
vn 0.157551 0.796569 -0.583657
vn 0.157551 0.796569 -0.583657
vn 0.130374 0.758920 -0.638000
vn 0.130374 0.758920 -0.638000
vn 0.107758 0.803889 -0.584936
vn 0.213129 -0.819751 -0.531587
vn 0.213129 -0.819751 -0.531587
vn 0.213129 -0.819751 -0.531587
vn 0.213129 -0.819751 -0.531587
vn 0.213129 -0.819751 -0.531587
vn -0.185256 0.815019 0.549022
vn -0.185256 0.815019 0.549022
vn -0.227226 0.837438 0.497057
vn -0.249985 0.809733 0.530886
vn -0.249985 0.809733 0.530886
vn 0.528826 -0.589378 0.610719
vn 0.528826 -0.589378 0.610719
vn 0.528826 -0.589378 0.610719
vn 0.528826 -0.589378 0.610719
vn 0.528826 -0.589378 0.610719
vn -0.525362 0.619146 -0.583656
vn -0.525362 0.619146 -0.583656
vn -0.512814 0.574442 -0.637996
vn -0.562083 0.584731 -0.584938
vn -0.512814 0.574442 -0.637996
vn 0.567232 -0.629018 -0.531587
vn 0.567232 -0.629018 -0.531587
vn 0.567232 -0.629018 -0.531587
vn 0.567232 -0.629018 -0.531587
vn 0.567232 -0.629018 -0.531587
vn -0.540320 0.637675 0.549022
vn -0.540320 0.637675 0.549022
vn -0.587901 0.638208 0.497054
vn -0.595314 0.603127 0.530885
vn -0.595314 0.603127 0.530885
vn 0.741070 -0.278995 0.610718
vn 0.741070 -0.278995 0.610718
vn 0.741070 -0.278995 0.610718
vn 0.741070 -0.278995 0.610718
vn 0.741070 -0.278995 0.610718
vn -0.719973 0.273129 -0.637997
vn -0.719973 0.273129 -0.637997
vn -0.768434 0.259536 -0.584936
vn -0.751728 0.307005 -0.583655
vn -0.751728 0.307005 -0.583655
vn 0.567234 -0.629017 -0.531585
vn 0.567234 -0.629017 -0.531585
vn 0.567234 -0.629017 -0.531585
vn 0.567234 -0.629017 -0.531585
vn 0.567234 -0.629017 -0.531585
vn -0.540319 0.637676 0.549022
vn -0.540319 0.637676 0.549022
vn -0.587901 0.638210 0.497052
vn -0.595312 0.603129 0.530885
vn -0.595312 0.603129 0.530885
vn 0.741070 -0.278994 0.610719
vn 0.741070 -0.278994 0.610719
vn 0.741070 -0.278994 0.610719
vn 0.741070 -0.278994 0.610719
vn 0.741070 -0.278994 0.610719
vn -0.719974 0.273127 -0.637997
vn -0.719974 0.273127 -0.637997
vn -0.768435 0.259530 -0.584938
vn -0.751723 0.307002 -0.583663
vn -0.751723 0.307002 -0.583663
vn -0.126675 -0.746422 -0.653306
vn -0.126675 -0.746422 -0.653306
vn -0.126675 -0.746422 -0.653306
vn -0.126675 -0.746422 -0.653306
vn 0.516092 -0.811043 0.275425
vn 0.516092 -0.811043 0.275425
vn 0.516092 -0.811043 0.275425
vn 0.516092 -0.811043 0.275425
vn 0.192383 -0.002043 0.981318
vn 0.192383 -0.002043 0.981318
vn 0.192383 -0.002043 0.981318
vn 0.192383 -0.002043 0.981318
vn -0.647036 0.570068 0.506327
vn -0.647036 0.570068 0.506327
vn -0.647036 0.570068 0.506327
vn -0.647036 0.570068 0.506327
vn -0.852848 0.115844 -0.509147
vn -0.852848 0.115844 -0.509147
vn -0.852848 0.115844 -0.509147
vn -0.852848 0.115844 -0.509147
vn 0.494227 -0.708955 -0.503113
vn 0.494227 -0.708955 -0.503113
vn 0.494227 -0.708955 -0.503113
vn 0.494227 -0.708955 -0.503113
vn -0.096977 -0.890687 0.444154
vn -0.096977 -0.890687 0.444154
vn -0.096977 -0.890687 0.444154
vn -0.096977 -0.890687 0.444154
vn -0.817212 -0.041140 0.574867
vn -0.817212 -0.041140 0.574867
vn -0.817212 -0.041140 0.574867
vn -0.817212 -0.041140 0.574867
vn -0.685186 0.672330 -0.280166
vn -0.685186 0.672330 -0.280166
vn -0.685186 0.672330 -0.280166
vn -0.685186 0.672330 -0.280166
vn 0.126993 0.266879 -0.955326
vn 0.126993 0.266879 -0.955326
vn 0.126993 0.266879 -0.955326
vn 0.126993 0.266879 -0.955326
vn -0.926354 0.376654 -0.000001
vn -0.926354 0.376654 -0.000001
vn -0.926354 0.376654 -0.000001
vn -0.926354 0.376654 -0.000001
vn -0.926354 0.376654 -0.000001
vn -0.926354 0.376654 -0.000001
vn -0.926354 0.376654 -0.000001
vn 0.907125 0.097077 -0.409513
vn 0.907125 0.097077 -0.409513
vn 0.907125 0.097077 -0.409513
vn 0.907125 0.097077 -0.409513
vn 0.672151 -0.567964 0.475006
vn 0.672151 -0.567964 0.475006
vn 0.672151 -0.567964 0.475006
vn 0.672151 -0.567964 0.475006
vn -0.432412 -0.761430 0.482954
vn -0.432412 -0.761430 0.482954
vn -0.432412 -0.761430 0.482954
vn -0.432412 -0.761430 0.482954
vn -0.894038 -0.225384 -0.387167
vn -0.894038 -0.225384 -0.387167
vn -0.894038 -0.225384 -0.387167
vn -0.894038 -0.225384 -0.387167
vn -0.070690 0.310959 -0.947791
vn -0.070690 0.310959 -0.947791
vn -0.070690 0.310959 -0.947791
vn -0.070690 0.310959 -0.947791
vn 0.978788 0.194360 -0.064795
vn 0.978788 0.194360 -0.064795
vn 0.978788 0.194360 -0.064795
vn 0.978788 0.194360 -0.064795
vn 0.367923 0.293845 0.882206
vn 0.367923 0.293845 0.882206
vn 0.367923 0.293845 0.882206
vn 0.367923 0.293845 0.882206
vn -0.565022 -0.316643 0.761898
vn -0.565022 -0.316643 0.761898
vn -0.565022 -0.316643 0.761898
vn -0.565022 -0.316643 0.761898
vn -0.546882 -0.798902 -0.250351
vn -0.546882 -0.798902 -0.250351
vn -0.546882 -0.798902 -0.250351
vn -0.546882 -0.798902 -0.250351
vn 0.407652 -0.487872 -0.771881
vn 0.407652 -0.487872 -0.771881
vn 0.407652 -0.487872 -0.771881
vn 0.407652 -0.487872 -0.771881
vn 0.944405 -0.175860 -0.277798
vn 0.944405 -0.175860 -0.277798
vn 0.944405 -0.175860 -0.277798
vn 0.944405 -0.175860 -0.277798
vn 0.643100 0.280529 0.712549
vn 0.643100 0.280529 0.712549
vn 0.643100 0.280529 0.712549
vn 0.643100 0.280529 0.712549
vn -0.432934 0.027180 0.901016
vn -0.432934 0.027180 0.901016
vn -0.432934 0.027180 0.901016
vn -0.432934 0.027180 0.901016
vn -0.810976 -0.583715 0.039945
vn -0.810976 -0.583715 0.039945
vn -0.810976 -0.583715 0.039945
vn -0.810976 -0.583715 0.039945
vn 0.036587 -0.715432 -0.697724
vn 0.036587 -0.715432 -0.697724
vn 0.036587 -0.715432 -0.697724
vn 0.036587 -0.715432 -0.697724
vn 0.834360 -0.398996 0.380324
vn 0.834360 -0.398996 0.380324
vn 0.834360 -0.398996 0.380324
vn 0.834360 -0.398996 0.380324
vn -0.213069 -0.671483 0.709727
vn -0.213069 -0.671483 0.709727
vn -0.213069 -0.671483 0.709727
vn -0.213069 -0.671483 0.709727
vn -0.924826 -0.366612 -0.101451
vn -0.924826 -0.366612 -0.101451
vn -0.924826 -0.366612 -0.101451
vn -0.924826 -0.366612 -0.101451
vn -0.335958 0.094248 -0.937150
vn -0.335958 0.094248 -0.937150
vn -0.335958 0.094248 -0.937150
vn -0.335958 0.094248 -0.937150
vn 0.757639 0.079071 -0.647867
vn 0.757639 0.079071 -0.647867
vn 0.757639 0.079071 -0.647867
vn 0.757639 0.079071 -0.647867
vn 0.339096 -0.645271 -0.684572
vn 0.339096 -0.645271 -0.684572
vn 0.339096 -0.645271 -0.684572
vn 0.339096 -0.645271 -0.684572
vn 0.965568 -0.211421 0.151592
vn 0.965568 -0.211421 0.151592
vn 0.965568 -0.211421 0.151592
vn 0.965568 -0.211421 0.151592
vn 0.272111 0.166451 0.947760
vn 0.272111 0.166451 0.947760
vn 0.272111 0.166451 0.947760
vn 0.272111 0.166451 0.947760
vn -0.783339 -0.025510 0.621071
vn -0.783339 -0.025510 0.621071
vn -0.783339 -0.025510 0.621071
vn -0.783339 -0.025510 0.621071
vn -0.752795 -0.529201 -0.391466
vn -0.752795 -0.529201 -0.391466
vn -0.752795 -0.529201 -0.391466
vn -0.752795 -0.529201 -0.391466
vn 0.806842 -0.469650 -0.358379
vn 0.806842 -0.469650 -0.358379
vn 0.806842 -0.469650 -0.358379
vn 0.806842 -0.469650 -0.358379
vn 0.334088 -0.685973 0.646395
vn 0.334088 -0.685973 0.646395
vn 0.334088 -0.685973 0.646395
vn 0.334088 -0.685973 0.646395
vn -0.718499 -0.299623 0.627683
vn -0.718499 -0.299623 0.627683
vn -0.718499 -0.299623 0.627683
vn -0.718499 -0.299623 0.627683
vn -0.912383 0.156886 -0.378079
vn -0.912383 0.156886 -0.378079
vn -0.912383 0.156886 -0.378079
vn -0.912383 0.156886 -0.378079
vn 0.028637 0.056572 -0.997988
vn 0.028637 0.056572 -0.997988
vn 0.028637 0.056572 -0.997988
vn 0.028637 0.056572 -0.997988
vn 0.452426 -0.762381 -0.462694
vn 0.452426 -0.762381 -0.462694
vn 0.452426 -0.762381 -0.462694
vn 0.452426 -0.762381 -0.462694
vn 0.808953 -0.299309 0.505974
vn 0.808953 -0.299309 0.505974
vn 0.808953 -0.299309 0.505974
vn 0.808953 -0.299309 0.505974
vn -0.050948 0.254550 0.965717
vn -0.050948 0.254550 0.965717
vn -0.050948 0.254550 0.965717
vn -0.050948 0.254550 0.965717
vn -0.944050 0.144289 0.296566
vn -0.944050 0.144289 0.296566
vn -0.944050 0.144289 0.296566
vn -0.944050 0.144289 0.296566
vn -0.642022 -0.485432 -0.593434
vn -0.642022 -0.485432 -0.593434
vn -0.642022 -0.485432 -0.593434
vn -0.642022 -0.485432 -0.593434
vn -0.325730 -0.669606 0.667479
vn -0.325730 -0.669606 0.667479
vn -0.325730 -0.669606 0.667479
vn -0.325730 -0.669606 0.667479
vn -0.965088 0.147497 0.216450
vn -0.965088 0.147497 0.216450
vn -0.965088 0.147497 0.216450
vn -0.965088 0.147497 0.216450
vn -0.472724 0.494300 -0.729520
vn -0.472724 0.494300 -0.729520
vn -0.472724 0.494300 -0.729520
vn -0.472724 0.494300 -0.729520
vn 0.468969 -0.096235 -0.877956
vn 0.468969 -0.096235 -0.877956
vn 0.468969 -0.096235 -0.877956
vn 0.468969 -0.096235 -0.877956
vn 0.569591 -0.821776 -0.015787
vn 0.569591 -0.821776 -0.015787
vn 0.569591 -0.821776 -0.015787
vn 0.569591 -0.821776 -0.015787
vn 0.513976 0.699115 0.497059
vn 0.513976 0.699115 0.497059
vn 0.513976 0.699115 0.497059
vn 0.522553 0.652314 0.549022
vn 0.522553 0.652314 0.549022
vn 0.478127 0.699682 0.530885
vn 0.478127 0.699682 0.530885
vn 0.411608 -0.043353 -0.910329
vn 0.411608 -0.043353 -0.910329
vn 0.411608 -0.043353 -0.910329
vn 0.411608 -0.043353 -0.910329
vn -0.957554 0.020184 0.287548
vn -0.957554 0.020184 0.287548
vn -0.957554 0.020184 0.287548
vn -0.957554 0.020184 0.287548
vn -0.601326 0.358668 -0.713978
vn -0.601326 0.358668 -0.713978
vn -0.601326 0.358668 -0.713978
vn -0.601326 0.358668 -0.713978
vn -0.198098 -0.631208 0.749889
vn -0.198098 -0.631208 0.749889
vn -0.198098 -0.631208 0.749889
vn -0.198098 -0.631208 0.749889
vn 0.729763 -0.681460 -0.055304
vn 0.729763 -0.681460 -0.055304
vn 0.729763 -0.681460 -0.055304
vn 0.729763 -0.681460 -0.055304
vn 0.107758 0.803889 -0.584936
vn 0.107758 0.803889 -0.584936
vn 0.107758 0.803889 -0.584936
vn -0.930423 0.021170 0.365877
vn -0.930423 0.021170 0.365877
vn -0.930423 0.021170 0.365877
vn -0.930423 0.021170 0.365877
vn 0.880665 -0.153452 0.448198
vn 0.880665 -0.153452 0.448198
vn 0.880665 -0.153452 0.448198
vn 0.880665 -0.153452 0.448198
vn -0.012856 0.226240 0.973987
vn -0.012856 0.226240 0.973987
vn -0.012856 0.226240 0.973987
vn -0.012856 0.226240 0.973987
vn 0.157551 0.796569 -0.583657
vn 0.157551 0.796569 -0.583657
vn 0.130374 0.758920 -0.638000
vn 0.130374 0.758920 -0.638000
vn 0.092723 0.777395 -0.622141
vn 0.092723 0.777395 -0.622141
vn 0.554607 -0.644141 -0.526776
vn 0.554607 -0.644141 -0.526776
vn 0.554607 -0.644141 -0.526776
vn 0.554607 -0.644141 -0.526776
vn -0.645498 -0.513180 -0.565666
vn -0.645498 -0.513180 -0.565666
vn -0.645498 -0.513180 -0.565666
vn -0.645498 -0.513180 -0.565666
vn -0.227226 0.837438 0.497057
vn -0.227226 0.837438 0.497057
vn -0.227226 0.837438 0.497057
vn -0.185256 0.815019 0.549022
vn -0.185256 0.815019 0.549022
vn -0.249985 0.809733 0.530886
vn -0.249985 0.809733 0.530886
vn 0.290142 0.295157 -0.910330
vn 0.290142 0.295157 -0.910330
vn 0.290142 0.295157 -0.910330
vn 0.290142 0.295157 -0.910330
vn -0.611843 -0.736861 0.287549
vn -0.611843 -0.736861 0.287549
vn -0.611843 -0.736861 0.287549
vn -0.611843 -0.736861 0.287549
vn -0.655016 -0.247366 -0.713978
vn -0.655016 -0.247366 -0.713978
vn -0.655016 -0.247366 -0.713978
vn -0.655016 -0.247366 -0.713978
vn 0.370703 -0.547946 0.749889
vn 0.370703 -0.547946 0.749889
vn 0.370703 -0.547946 0.749889
vn 0.370703 -0.547946 0.749889
vn 0.987596 0.146959 -0.055297
vn 0.987596 0.146959 -0.055297
vn 0.987596 0.146959 -0.055297
vn 0.987596 0.146959 -0.055297
vn -0.562083 0.584731 -0.584938
vn -0.562083 0.584731 -0.584938
vn -0.562083 0.584731 -0.584938
vn -0.595727 -0.715013 0.365877
vn -0.595727 -0.715013 0.365877
vn -0.595727 -0.715013 0.365877
vn -0.595727 -0.715013 0.365877
vn 0.668285 0.593729 0.448197
vn 0.668285 0.593729 0.448197
vn 0.668285 0.593729 0.448197
vn 0.668285 0.593729 0.448197
vn -0.185069 0.130766 0.973987
vn -0.185069 0.130766 0.973987
vn -0.185069 0.130766 0.973987
vn -0.185069 0.130766 0.973987
vn -0.525362 0.619146 -0.583656
vn -0.525362 0.619146 -0.583656
vn -0.512814 0.574442 -0.637996
vn -0.512814 0.574442 -0.637996
vn -0.550708 0.556475 -0.622139
vn -0.550708 0.556475 -0.622139
vn 0.849359 0.033104 -0.526777
vn 0.849359 0.033104 -0.526777
vn 0.849359 0.033104 -0.526777
vn 0.849359 0.033104 -0.526777
vn -0.000164 -0.824635 -0.565666
vn -0.000164 -0.824635 -0.565666
vn -0.000164 -0.824635 -0.565666
vn -0.000164 -0.824635 -0.565666
vn -0.587901 0.638208 0.497054
vn -0.587901 0.638208 0.497054
vn -0.587901 0.638208 0.497054
vn -0.540320 0.637675 0.549022
vn -0.540320 0.637675 0.549022
vn -0.595314 0.603127 0.530885
vn -0.595314 0.603127 0.530885
vn 0.121282 0.395716 -0.910330
vn 0.121282 0.395716 -0.910330
vn 0.121282 0.395716 -0.910330
vn 0.121282 0.395716 -0.910330
vn -0.202963 -0.936014 0.287549
vn -0.202963 -0.936014 0.287549
vn -0.202963 -0.936014 0.287549
vn -0.202963 -0.936014 0.287549
vn -0.467062 -0.521621 -0.713978
vn -0.467062 -0.521621 -0.713978
vn -0.467062 -0.521621 -0.713978
vn -0.467062 -0.521621 -0.713978
vn 0.581664 -0.315172 0.749889
vn 0.581664 -0.315172 0.749889
vn 0.581664 -0.315172 0.749889
vn 0.581664 -0.315172 0.749889
vn 0.808462 0.585945 -0.055297
vn 0.808462 0.585945 -0.055297
vn 0.808462 0.585945 -0.055297
vn 0.808462 0.585945 -0.055297
vn -0.768434 0.259536 -0.584936
vn -0.768434 0.259536 -0.584936
vn -0.768434 0.259536 -0.584936
vn -0.198743 -0.909195 0.365877
vn -0.198743 -0.909195 0.365877
vn -0.198743 -0.909195 0.365877
vn -0.198743 -0.909195 0.365877
vn 0.319065 0.835054 0.448198
vn 0.319065 0.835054 0.448198
vn 0.319065 0.835054 0.448198
vn 0.319065 0.835054 0.448198
vn -0.224522 0.030655 0.973987
vn -0.224522 0.030655 0.973987
vn -0.224522 0.030655 0.973987
vn -0.224522 0.030655 0.973987
vn -0.751728 0.307005 -0.583655
vn -0.751728 0.307005 -0.583655
vn -0.719973 0.273129 -0.637997
vn -0.719973 0.273129 -0.637997
vn -0.745306 0.239712 -0.622140
vn -0.745306 0.239712 -0.622140
vn 0.738330 0.421159 -0.526777
vn 0.738330 0.421159 -0.526777
vn 0.738330 0.421159 -0.526777
vn 0.738330 0.421159 -0.526777
vn 0.380240 -0.731738 -0.565666
vn 0.380240 -0.731738 -0.565666
vn 0.380240 -0.731738 -0.565666
vn 0.380240 -0.731738 -0.565666
vn -0.587901 0.638210 0.497052
vn -0.587901 0.638210 0.497052
vn -0.587901 0.638210 0.497052
vn -0.540319 0.637676 0.549022
vn -0.540319 0.637676 0.549022
vn -0.595312 0.603129 0.530885
vn -0.595312 0.603129 0.530885
vn 0.121282 0.395716 -0.910330
vn 0.121282 0.395716 -0.910330
vn 0.121282 0.395716 -0.910330
vn 0.121282 0.395716 -0.910330
vn -0.202964 -0.936014 0.287549
vn -0.202964 -0.936014 0.287549
vn -0.202964 -0.936014 0.287549
vn -0.202964 -0.936014 0.287549
vn -0.467062 -0.521620 -0.713979
vn -0.467062 -0.521620 -0.713979
vn -0.467062 -0.521620 -0.713979
vn -0.467062 -0.521620 -0.713979
vn 0.581664 -0.315171 0.749889
vn 0.581664 -0.315171 0.749889
vn 0.581664 -0.315171 0.749889
vn 0.581664 -0.315171 0.749889
vn 0.808463 0.585944 -0.055298
vn 0.808463 0.585944 -0.055298
vn 0.808463 0.585944 -0.055298
vn 0.808463 0.585944 -0.055298
vn -0.768435 0.259530 -0.584938
vn -0.768435 0.259530 -0.584938
vn -0.768435 0.259530 -0.584938
vn -0.198743 -0.909195 0.365877
vn -0.198743 -0.909195 0.365877
vn -0.198743 -0.909195 0.365877
vn -0.198743 -0.909195 0.365877
vn 0.319066 0.835054 0.448199
vn 0.319066 0.835054 0.448199
vn 0.319066 0.835054 0.448199
vn 0.319066 0.835054 0.448199
vn -0.224523 0.030655 0.973987
vn -0.224523 0.030655 0.973987
vn -0.224523 0.030655 0.973987
vn -0.224523 0.030655 0.973987
vn -0.751723 0.307002 -0.583663
vn -0.751723 0.307002 -0.583663
vn -0.719974 0.273127 -0.637997
vn -0.719974 0.273127 -0.637997
vn -0.745308 0.239700 -0.622142
vn -0.745308 0.239700 -0.622142
vn 0.738329 0.421161 -0.526776
vn 0.738329 0.421161 -0.526776
vn 0.738329 0.421161 -0.526776
vn 0.738329 0.421161 -0.526776
vn 0.380240 -0.731738 -0.565665
vn 0.380240 -0.731738 -0.565665
vn 0.380240 -0.731738 -0.565665
vn 0.380240 -0.731738 -0.565665
vn 0.494913 0.687326 0.531643
vn 0.500247 0.659072 0.561585
vn 0.553267 0.649223 0.521924
vn 0.500247 0.659072 0.561585
vn 0.553267 0.649223 0.521924
vn 0.289137 0.820523 -0.493095
vn 0.297458 0.796722 -0.526073
vn 0.232932 0.812350 -0.534631
vn 0.297458 0.796722 -0.526073
vn 0.232932 0.812350 -0.534631
vn 0.334583 0.874527 0.351080
vn 0.367466 0.871033 0.325992
vn 0.322302 0.901939 0.287452
vn 0.367466 0.871033 0.325992
vn 0.322302 0.901939 0.287452
vn -0.004178 0.891511 -0.452979
vn -0.005651 0.871952 -0.489559
vn -0.070249 0.878170 -0.473162
vn -0.005651 0.871952 -0.489559
vn -0.070249 0.878170 -0.473162
vn -0.096737 0.890199 0.445182
vn -0.055972 0.889750 0.453003
vn -0.059393 0.917891 0.392362
vn -0.055972 0.889750 0.453003
vn -0.059393 0.917891 0.392362
vn -0.261171 0.846421 -0.464070
vn -0.231397 0.839230 -0.492086
vn -0.284235 0.807024 -0.517613
vn -0.231397 0.839230 -0.492086
vn -0.284235 0.807024 -0.517613
vn -0.457332 0.806800 -0.374059
vn -0.422530 0.815846 -0.394795
vn -0.455300 0.775650 -0.437115
vn -0.422530 0.815846 -0.394795
vn -0.455300 0.775650 -0.437115
vn -0.118039 0.805662 0.580497
vn -0.089503 0.825269 0.557603
vn -0.146530 0.838342 0.525082
vn -0.089503 0.825269 0.557603
vn -0.146530 0.838342 0.525082
vn 0.695273 0.482974 0.532288
vn 0.723915 0.469616 0.505379
vn 0.702888 0.526890 0.477845
vn 0.723915 0.469616 0.505379
vn 0.702888 0.526890 0.477845
vn 0.674011 0.608879 -0.418300
vn 0.663806 0.593284 -0.455385
vn 0.620509 0.643764 -0.447812
vn 0.663806 0.593284 -0.455385
vn 0.620509 0.643764 -0.447812
g Tentacle_PalePink2
usemtl PalePink2
f 1 2 3
f 4 5 6
f 7 8 9
f 10 11 12
f 13 14 15
f 16 17 18
f 19 20 21
f 22 23 24
f 25 26 27
f 28 29 30
f 28 30 31
f 32 33 34
f 32 34 35
f 36 37 38
f 36 38 39
f 40 41 42
f 40 42 43
f 44 45 46
f 44 46 47
f 48 49 50
f 48 50 51
f 52 53 54
f 52 54 55
f 56 57 58
f 56 58 59
f 60 61 62
f 60 62 63
f 64 65 66
f 64 66 67
f 68 69 70
f 68 70 71
f 72 73 74
f 72 74 75
f 76 77 78
f 76 78 79
f 80 81 82
f 80 82 83
f 84 85 86
f 84 86 87
f 88 89 90
f 88 90 91
f 92 93 94
f 92 94 95
f 96 97 98
f 96 98 99
f 100 101 102
f 100 102 103
f 104 105 106
f 104 106 107
f 108 109 110
f 108 110 111
f 112 113 114
f 112 114 115
f 116 117 118
f 116 118 119
f 120 121 122
f 120 122 123
f 124 125 126
f 124 126 127
f 128 129 130
f 128 130 131
f 132 133 134
f 132 134 135
f 136 137 138
f 136 138 139
f 140 141 142
f 140 142 143
f 144 145 146
f 144 146 147
f 148 149 150
f 148 150 151
f 152 153 154
f 152 154 155
f 156 157 158
f 156 158 159
f 160 161 162
f 160 162 163
f 164 165 166
f 164 166 167
f 168 169 170
f 168 170 171
f 172 173 174
f 172 174 175
f 176 177 178
f 176 178 179
f 180 181 182
f 180 182 183
f 184 185 186
f 184 186 187
f 188 189 190
f 188 190 191
f 192 193 194
f 192 194 195
f 196 197 198
f 196 198 199
f 200 201 202
f 200 202 203
f 204 205 206
f 204 206 207
f 208 209 210
f 208 210 211
f 212 213 214
f 212 214 215
f 216 217 218
f 216 218 219
f 220 221 222
f 220 222 223
f 224 225 226
f 224 226 227
f 228 229 230
f 228 230 231
f 232 233 234
f 232 234 235
f 236 237 238
f 236 238 239
f 240 241 242
f 240 242 243
f 244 245 246
f 244 246 247
f 248 249 250
f 248 250 251
f 252 253 254
f 252 254 255
f 256 257 258
f 256 258 259
f 260 261 262
f 260 262 263
f 264 265 266
f 266 267 264
f 266 268 267
f 269 270 271
f 271 272 269
f 272 273 269
f 274 275 276
f 276 277 274
f 277 278 274
f 279 280 281
f 281 282 279
f 281 283 282
f 284 285 286
f 284 286 287
f 288 289 290
f 288 290 291
f 292 293 294
f 292 294 295
f 296 297 298
f 296 298 299
f 300 301 302
f 300 302 303
f 304 305 306
f 304 306 307
f 308 309 310
f 310 311 308
f 311 312 308
f 313 314 315
f 315 316 313
f 315 317 316
f 318 319 320
f 320 321 318
f 320 322 321
f 323 324 325
f 325 326 323
f 326 327 323
f 328 329 330
f 330 331 328
f 331 332 328
f 333 334 335
f 335 336 333
f 335 337 336
f 338 339 340
f 340 341 338
f 340 342 341
f 343 344 345
f 345 346 343
f 346 347 343
f 348 349 350
f 350 351 348
f 350 352 351
f 353 354 355
f 355 356 353
f 356 357 353
f 358 359 360
f 360 361 358
f 361 362 358
f 363 364 365
f 365 366 363
f 365 367 366
f 368 369 370
f 370 371 368
f 370 372 371
f 373 374 375
f 375 376 373
f 376 377 373
f 378 379 380
f 380 381 378
f 380 382 381
f 383 384 385
f 385 386 383
f 386 387 383
f 388 389 390
f 390 391 388
f 390 392 391
f 393 394 395
f 395 396 393
f 396 397 393
f 398 399 400
f 400 401 398
f 400 402 401
f 403 404 405
f 405 406 403
f 406 407 403
f 408 409 410
f 410 411 408
f 411 412 408
f 413 414 415
f 415 416 413
f 415 417 416
f 418 419 420
f 420 421 418
f 421 422 418
f 423 424 425
f 425 426 423
f 425 427 426
f 428 429 430
f 430 431 428
f 431 432 428
f 433 434 435
f 435 436 433
f 435 437 436
f 438 439 440
f 440 441 438
f 441 442 438
f 443 444 445
f 445 446 443
f 445 447 446
f 448 449 450
f 450 451 448
f 451 452 448
f 453 454 455
f 455 456 453
f 455 457 456
f 458 459 460
f 460 461 458
f 461 462 458
f 463 464 465
f 465 466 463
f 465 467 466
g Tentacle_PalePink
usemtl PalePink
f 468 469 470
f 468 470 471
f 472 473 474
f 472 474 475
f 476 477 478
f 476 478 479
f 480 481 482
f 480 482 483
f 484 485 486
f 484 486 487
f 488 489 490
f 488 490 491
f 492 493 494
f 492 494 495
f 496 497 498
f 496 498 499
f 500 501 502
f 500 502 503
f 504 505 506
f 504 506 507
f 508 509 510
f 510 511 508
f 511 512 508
f 511 513 512
f 513 514 512
f 515 516 517
f 515 517 518
f 519 520 521
f 519 521 522
f 523 524 525
f 523 525 526
f 527 528 529
f 527 529 530
f 531 532 533
f 531 533 534
f 535 536 537
f 535 537 538
f 539 540 541
f 539 541 542
f 543 544 545
f 543 545 546
f 547 548 549
f 547 549 550
f 551 552 553
f 551 553 554
f 555 556 557
f 555 557 558
f 559 560 561
f 559 561 562
f 563 564 565
f 563 565 566
f 567 568 569
f 567 569 570
f 571 572 573
f 571 573 574
f 575 576 577
f 575 577 578
f 579 580 581
f 579 581 582
f 583 584 585
f 583 585 586
f 587 588 589
f 587 589 590
f 591 592 593
f 591 593 594
f 595 596 597
f 595 597 598
f 599 600 601
f 599 601 602
f 603 604 605
f 603 605 606
f 607 608 609
f 607 609 610
f 611 612 613
f 611 613 614
f 615 616 617
f 615 617 618
f 619 620 621
f 619 621 622
f 623 624 625
f 623 625 626
f 627 628 629
f 627 629 630
f 631 632 633
f 631 633 634
f 635 636 637
f 635 637 638
f 639 640 641
f 639 641 642
f 643 644 645
f 643 645 646
f 647 648 649
f 647 649 650
f 651 652 653
f 651 653 654
f 655 656 657
f 655 657 658
f 659 660 661
f 659 661 662
f 663 664 665
f 663 665 666
f 667 668 669
f 667 669 670
f 671 672 673
f 671 673 674
f 675 676 677
f 675 677 395
f 678 675 395
f 678 395 394
f 679 678 394
f 679 394 393
f 680 679 393
f 680 393 397
f 681 680 397
f 681 397 396
f 682 683 684
f 682 684 685
f 686 687 688
f 686 688 689
f 690 691 692
f 690 692 693
f 694 695 696
f 694 696 697
f 698 699 700
f 698 700 701
f 702 703 704
f 702 704 407
f 705 706 707
f 705 707 708
f 709 710 711
f 709 711 712
f 713 714 715
f 713 715 716
f 717 404 403
f 717 718 404
f 718 405 404
f 718 719 405
f 719 406 405
f 719 720 406
f 720 721 406
f 720 722 721
f 723 724 725
f 723 725 726
f 727 728 729
f 727 729 730
f 731 732 733
f 731 733 415
f 734 731 415
f 734 415 414
f 735 734 414
f 735 414 413
f 736 735 413
f 736 413 416
f 737 736 416
f 737 416 417
f 738 739 740
f 738 740 741
f 742 743 744
f 742 744 745
f 746 747 748
f 746 748 749
f 750 751 752
f 750 752 753
f 754 755 756
f 754 756 757
f 758 759 760
f 758 760 426
f 761 762 763
f 761 763 764
f 765 766 767
f 765 767 768
f 769 770 771
f 769 771 772
f 773 424 423
f 773 774 424
f 774 425 424
f 774 775 425
f 775 427 425
f 775 776 427
f 776 777 427
f 776 778 777
f 779 780 781
f 779 781 782
f 783 784 785
f 783 785 786
f 787 788 789
f 787 789 435
f 790 787 435
f 790 435 434
f 791 790 434
f 791 434 433
f 792 791 433
f 792 433 436
f 793 792 436
f 793 436 437
f 794 795 796
f 794 796 797
f 798 799 800
f 798 800 801
f 802 803 804
f 802 804 805
f 806 807 808
f 806 808 809
f 810 811 812
f 810 812 813
f 814 815 816
f 814 816 445
f 817 818 819
f 817 819 820
f 821 822 823
f 821 823 824
f 825 826 827
f 825 827 828
f 829 446 447
f 829 830 446
f 830 443 446
f 830 831 443
f 831 444 443
f 831 832 444
f 832 833 444
f 832 834 833
f 835 836 837
f 835 837 838
f 839 840 841
f 839 841 842
f 843 844 845
f 843 845 455
f 846 843 455
f 846 455 454
f 847 846 454
f 847 454 453
f 848 847 453
f 848 453 456
f 849 848 456
f 849 456 457
f 850 851 852
f 850 852 853
f 854 855 856
f 854 856 857
f 858 859 860
f 858 860 861
f 862 863 864
f 862 864 865
f 866 867 868
f 866 868 869
f 870 871 872
f 870 872 465
f 873 874 875
f 873 875 876
f 877 878 879
f 877 879 880
f 881 882 883
f 881 883 884
f 885 466 467
f 885 886 466
f 886 463 466
f 886 887 463
f 887 464 463
f 887 888 464
f 888 889 464
f 888 890 889
f 891 892 893
f 891 893 894
f 895 896 897
f 895 897 898
f 899 900 387
f 899 387 386
f 900 383 387
f 901 899 386
f 900 902 383
f 901 386 385
f 902 384 383
f 903 901 385
f 902 903 384
f 903 385 384
f 904 905 374
f 904 374 373
f 905 375 374
f 906 904 373
f 905 907 375
f 906 373 377
f 907 376 375
f 908 906 377
f 907 908 376
f 908 377 376
f 909 910 363
f 909 363 366
f 910 364 363
f 911 909 366
f 910 912 364
f 911 366 367
f 912 365 364
f 913 911 367
f 912 913 365
f 913 367 365
f 914 915 354
f 914 354 353
f 915 355 354
f 916 914 353
f 915 917 355
f 916 353 357
f 917 356 355
f 918 916 357
f 917 918 356
f 918 357 356
f 919 920 343
f 919 343 347
f 920 344 343
f 921 919 347
f 920 922 344
f 921 347 346
f 922 345 344
f 923 921 346
f 922 923 345
f 923 346 345
f 924 925 333
f 924 333 336
f 925 334 333
f 926 924 336
f 925 927 334
f 926 336 337
f 927 335 334
f 928 926 337
f 927 928 335
f 928 337 335
f 929 930 323
f 929 323 327
f 930 324 323
f 931 929 327
f 930 932 324
f 931 327 326
f 932 325 324
f 933 931 326
f 932 933 325
f 933 326 325
f 934 935 313
f 934 313 316
f 935 314 313
f 936 934 316
f 935 937 314
f 936 316 317
f 937 315 314
f 938 936 317
f 937 938 315
f 938 317 315
f 939 940 282
f 939 282 283
f 940 279 282
f 941 939 283
f 940 942 279
f 941 283 281
f 942 280 279
f 943 941 281
f 942 943 280
f 943 281 280
f 944 945 269
f 944 269 273
f 945 270 269
f 946 944 273
f 945 947 270
f 946 273 272
f 947 271 270
f 948 946 272
f 947 948 271
f 948 272 271
