mtllib Materials.mtl
# Ultimate Food Pack - Tomato_Slice
o Tomato_Slice
v -0.078856 0.003049 -0.047230
v -0.080045 0.014977 -0.048583
v -0.037696 0.013981 -0.049732
v -0.043516 0.002218 -0.048189
v 0.055010 0.004470 0.095194
v 0.032335 0.003965 0.062611
v 0.012402 0.004607 0.068715
v -0.006176 0.006025 0.100567
v -0.007218 0.006684 0.120893
v -0.022704 0.005331 0.066407
v -0.040603 0.005499 0.058823
v -0.068695 0.007013 0.086861
v -0.134148 -0.020839 -0.082162
v -0.133470 0.015105 -0.083219
v -0.047288 0.011118 -0.148243
v -0.047966 -0.020839 -0.147186
v 0.044431 0.000304 -0.045644
v 0.038577 0.012311 -0.047869
v 0.092618 0.011175 -0.045038
v 0.089528 -0.000644 -0.043282
v 0.059781 -0.020839 -0.141631
v 0.060576 0.008848 -0.142641
v 0.139653 0.009358 -0.069034
v 0.138679 -0.020839 -0.068097
v -0.039452 0.000451 -0.101741
v -0.032826 0.011864 -0.113905
v -0.105337 0.015037 -0.064980
v -0.099962 0.003099 -0.060913
v 0.103871 -0.001198 -0.050599
v 0.109805 0.010511 -0.053807
v 0.038952 0.010524 -0.104748
v 0.044744 -0.001187 -0.093109
v 0.066817 0.001516 0.009303
v 0.065402 0.013763 0.017976
v 0.114353 0.012971 0.028136
v 0.107666 0.000855 0.017781
v 0.033584 0.000234 -0.055740
v 0.025578 0.012227 -0.059968
v 0.038577 0.012311 -0.047869
v 0.044431 0.000304 -0.045644
v -0.007218 0.006684 0.120893
v -0.007313 0.018817 0.126875
v 0.067257 0.016164 0.096079
v 0.055010 0.004470 0.095194
v -0.109471 -0.020839 0.119132
v -0.108497 0.020839 0.118195
v -0.157643 0.018944 0.022006
v -0.158438 -0.020839 0.023016
v 0.093028 -0.020839 0.129571
v 0.094221 0.016574 0.128723
v -0.009028 0.019903 0.160341
v -0.010159 -0.020839 0.161214
v -0.022704 0.005331 0.066407
v -0.025870 0.017195 0.061583
v -0.047319 0.017397 0.052494
v -0.040603 0.005499 0.058823
v 0.055010 0.004470 0.095194
v 0.067257 0.016164 0.096079
v 0.040085 0.015558 0.057034
v 0.032335 0.003965 0.062611
v -0.099962 0.003099 -0.060913
v -0.115852 0.005623 0.008255
v -0.069230 0.004386 0.002510
v -0.078856 0.003049 -0.047230
v -0.065052 0.003723 -0.015676
v -0.039452 0.000451 -0.101741
v -0.043516 0.002218 -0.048189
v -0.029524 0.001571 -0.058746
v 0.012402 0.004607 0.068715
v 0.016199 0.016328 0.064348
v -0.006065 0.018027 0.102518
v -0.006176 0.006025 0.100567
v -0.065052 0.003723 -0.015676
v -0.063503 0.015785 -0.010771
v -0.080045 0.014977 -0.048583
v -0.078856 0.003049 -0.047230
v 0.089528 -0.000644 -0.043282
v 0.063819 0.000827 -0.014874
v 0.066817 0.001516 0.009303
v 0.107666 0.000855 0.017781
v 0.103871 -0.001198 -0.050599
v 0.044744 -0.001187 -0.093109
v 0.044431 0.000304 -0.045644
v 0.033584 0.000234 -0.055740
v -0.069230 0.004386 0.002510
v -0.068509 0.016580 0.011022
v -0.063503 0.015785 -0.010771
v -0.065052 0.003723 -0.015676
v -0.040603 0.005499 0.058823
v -0.047319 0.017397 0.052494
v -0.080983 0.019211 0.086093
v -0.068695 0.007013 0.086861
v -0.047966 -0.020839 -0.147186
v -0.047288 0.011118 -0.148243
v 0.060576 0.008848 -0.142641
v 0.059781 -0.020839 -0.141631
v -0.115852 0.005623 0.008255
v -0.124379 0.018062 0.017906
v -0.068509 0.016580 0.011022
v -0.069230 0.004386 0.002510
v -0.068695 0.007013 0.086861
v -0.080983 0.019211 0.086093
v -0.007313 0.018817 0.126875
v -0.007218 0.006684 0.120893
v -0.010159 -0.020839 0.161214
v -0.009028 0.019903 0.160341
v -0.108497 0.020839 0.118195
v -0.109471 -0.020839 0.119132
v -0.043516 0.002218 -0.048189
v -0.037696 0.013981 -0.049732
v -0.020929 0.013206 -0.062383
v -0.029524 0.001571 -0.058746
v 0.089528 -0.000644 -0.043282
v 0.092618 0.011175 -0.045038
v 0.061810 0.012938 -0.010997
v 0.063819 0.000827 -0.014874
v 0.032335 0.003965 0.062611
v 0.040085 0.015558 0.057034
v 0.016199 0.016328 0.064348
v 0.012402 0.004607 0.068715
v -0.006176 0.006025 0.100567
v -0.006065 0.018027 0.102518
v -0.025870 0.017195 0.061583
v -0.022704 0.005331 0.066407
v -0.099962 0.003099 -0.060913
v -0.105337 0.015037 -0.064980
v -0.124379 0.018062 0.017906
v -0.115852 0.005623 0.008255
v 0.151809 -0.020839 0.039009
v 0.152940 0.012410 0.038136
v 0.094221 0.016574 0.128723
v 0.093028 -0.020839 0.129571
v 0.063819 0.000827 -0.014874
v 0.061810 0.012938 -0.010997
v 0.065402 0.013763 0.017976
v 0.066817 0.001516 0.009303
v 0.107666 0.000855 0.017781
v 0.114353 0.012971 0.028136
v 0.109805 0.010511 -0.053807
v 0.103871 -0.001198 -0.050599
v 0.044744 -0.001187 -0.093109
v 0.038952 0.010524 -0.104748
v 0.025578 0.012227 -0.059968
v 0.033584 0.000234 -0.055740
v -0.029524 0.001571 -0.058746
v -0.020929 0.013206 -0.062383
v -0.032826 0.011864 -0.113905
v -0.039452 0.000451 -0.101741
v -0.158438 -0.020839 0.023016
v -0.157643 0.018944 0.022006
v -0.133470 0.015105 -0.083219
v -0.134148 -0.020839 -0.082162
v 0.138679 -0.020839 -0.068097
v 0.139653 0.009358 -0.069034
v 0.152940 0.012410 0.038136
v 0.151809 -0.020839 0.039009
v -0.109471 -0.020839 0.119132
v -0.158438 -0.020839 0.023016
v -0.134148 -0.020839 -0.082162
v -0.047966 -0.020839 -0.147186
v -0.010159 -0.020839 0.161214
v 0.059781 -0.020839 -0.141631
v 0.093028 -0.020839 0.129571
v 0.138679 -0.020839 -0.068097
v 0.151809 -0.020839 0.039009
v -0.449569 0.003049 -0.032519
v -0.450758 0.014977 -0.033872
v -0.408408 0.013981 -0.035021
v -0.414229 0.002218 -0.033478
v -0.315702 0.004470 0.109905
v -0.338377 0.003965 0.077322
v -0.358310 0.004607 0.083426
v -0.376889 0.006025 0.115278
v -0.377931 0.006684 0.135604
v -0.393416 0.005331 0.081118
v -0.411315 0.005499 0.073534
v -0.439408 0.007013 0.101572
v -0.504860 -0.020839 -0.067451
v -0.504182 0.015105 -0.068508
v -0.418001 0.011118 -0.133532
v -0.418679 -0.020839 -0.132475
v -0.326281 0.000304 -0.030933
v -0.332136 0.012311 -0.033158
v -0.278095 0.011175 -0.030328
v -0.281184 -0.000644 -0.028571
v -0.310931 -0.020839 -0.126920
v -0.310136 0.008848 -0.127930
v -0.231060 0.009358 -0.054323
v -0.232034 -0.020839 -0.053386
v -0.410165 0.000451 -0.087030
v -0.403538 0.011864 -0.099194
v -0.476050 0.015037 -0.050269
v -0.470675 0.003099 -0.046203
v -0.266842 -0.001198 -0.035888
v -0.260908 0.010511 -0.039096
v -0.331761 0.010524 -0.090037
v -0.325968 -0.001187 -0.078398
v -0.303895 0.001516 0.024014
v -0.305310 0.013763 0.032687
v -0.256359 0.012971 0.042847
v -0.263046 0.000855 0.032492
v -0.337128 0.000234 -0.041029
v -0.345134 0.012227 -0.045257
v -0.332136 0.012311 -0.033158
v -0.326281 0.000304 -0.030933
v -0.377931 0.006684 0.135604
v -0.378026 0.018817 0.141586
v -0.303455 0.016164 0.110790
v -0.315702 0.004470 0.109905
v -0.480184 -0.020839 0.133843
v -0.479210 0.020839 0.132906
v -0.528356 0.018944 0.036716
v -0.529150 -0.020839 0.037726
v -0.277684 -0.020839 0.144282
v -0.276491 0.016574 0.143434
v -0.379741 0.019903 0.175052
v -0.380871 -0.020839 0.175925
v -0.393416 0.005331 0.081118
v -0.396582 0.017195 0.076294
v -0.418032 0.017397 0.067205
v -0.411315 0.005499 0.073534
v -0.315702 0.004470 0.109905
v -0.303455 0.016164 0.110790
v -0.330627 0.015558 0.071745
v -0.338377 0.003965 0.077322
v -0.470675 0.003099 -0.046203
v -0.486565 0.005623 0.022966
v -0.439942 0.004386 0.017220
v -0.449569 0.003049 -0.032519
v -0.435764 0.003723 -0.000966
v -0.410165 0.000451 -0.087030
v -0.414229 0.002218 -0.033478
v -0.400236 0.001571 -0.044035
v -0.358310 0.004607 0.083426
v -0.354514 0.016328 0.079059
v -0.376777 0.018027 0.117229
v -0.376889 0.006025 0.115278
v -0.435764 0.003723 -0.000966
v -0.434215 0.015785 0.003940
v -0.450758 0.014977 -0.033872
v -0.449569 0.003049 -0.032519
v -0.281184 -0.000644 -0.028571
v -0.306893 0.000827 -0.000163
v -0.303895 0.001516 0.024014
v -0.263046 0.000855 0.032492
v -0.266842 -0.001198 -0.035888
v -0.325968 -0.001187 -0.078398
v -0.326281 0.000304 -0.030933
v -0.337128 0.000234 -0.041029
v -0.439942 0.004386 0.017220
v -0.439221 0.016580 0.025732
v -0.434215 0.015785 0.003940
v -0.435764 0.003723 -0.000966
v -0.411315 0.005499 0.073534
v -0.418032 0.017397 0.067205
v -0.451695 0.019211 0.100804
v -0.439408 0.007013 0.101572
v -0.418679 -0.020839 -0.132475
v -0.418001 0.011118 -0.133532
v -0.310136 0.008848 -0.127930
v -0.310931 -0.020839 -0.126920
v -0.486565 0.005623 0.022966
v -0.495091 0.018062 0.032617
v -0.439221 0.016580 0.025732
v -0.439942 0.004386 0.017220
v -0.439408 0.007013 0.101572
v -0.451695 0.019211 0.100804
v -0.378026 0.018817 0.141586
v -0.377931 0.006684 0.135604
v -0.380871 -0.020839 0.175925
v -0.379741 0.019903 0.175052
v -0.479210 0.020839 0.132906
v -0.480184 -0.020839 0.133843
v -0.414229 0.002218 -0.033478
v -0.408408 0.013981 -0.035021
v -0.391641 0.013206 -0.047672
v -0.400236 0.001571 -0.044035
v -0.281184 -0.000644 -0.028571
v -0.278095 0.011175 -0.030328
v -0.308902 0.012938 0.003714
v -0.306893 0.000827 -0.000163
v -0.338377 0.003965 0.077322
v -0.330627 0.015558 0.071745
v -0.354514 0.016328 0.079059
v -0.358310 0.004607 0.083426
v -0.376889 0.006025 0.115278
v -0.376777 0.018027 0.117229
v -0.396582 0.017195 0.076294
v -0.393416 0.005331 0.081118
v -0.470675 0.003099 -0.046203
v -0.476050 0.015037 -0.050269
v -0.495091 0.018062 0.032617
v -0.486565 0.005623 0.022966
v -0.218903 -0.020839 0.053720
v -0.217772 0.012410 0.052847
v -0.276491 0.016574 0.143434
v -0.277684 -0.020839 0.144282
v -0.306893 0.000827 -0.000163
v -0.308902 0.012938 0.003714
v -0.305310 0.013763 0.032687
v -0.303895 0.001516 0.024014
v -0.263046 0.000855 0.032492
v -0.256359 0.012971 0.042847
v -0.260908 0.010511 -0.039096
v -0.266842 -0.001198 -0.035888
v -0.325968 -0.001187 -0.078398
v -0.331761 0.010524 -0.090037
v -0.345134 0.012227 -0.045257
v -0.337128 0.000234 -0.041029
v -0.400236 0.001571 -0.044035
v -0.391641 0.013206 -0.047672
v -0.403538 0.011864 -0.099194
v -0.410165 0.000451 -0.087030
v -0.529150 -0.020839 0.037726
v -0.528356 0.018944 0.036716
v -0.504182 0.015105 -0.068508
v -0.504860 -0.020839 -0.067451
v -0.232034 -0.020839 -0.053386
v -0.231060 0.009358 -0.054323
v -0.217772 0.012410 0.052847
v -0.218903 -0.020839 0.053720
v -0.480184 -0.020839 0.133843
v -0.529150 -0.020839 0.037726
v -0.504860 -0.020839 -0.067451
v -0.418679 -0.020839 -0.132475
v -0.380871 -0.020839 0.175925
v -0.310931 -0.020839 -0.126920
v -0.277684 -0.020839 0.144282
v -0.232034 -0.020839 -0.053386
v -0.218903 -0.020839 0.053720
v -0.177293 0.003049 -0.351619
v -0.175498 0.014977 -0.351470
v -0.205201 0.013981 -0.321261
v -0.202080 0.002218 -0.326411
v -0.345526 0.006684 -0.422999
v -0.372513 0.004470 -0.361318
v -0.333578 0.003965 -0.353583
v -0.332175 0.006025 -0.407637
v -0.323457 0.004607 -0.371809
v -0.277641 0.007013 -0.441140
v -0.296573 0.005331 -0.394502
v -0.278420 0.005499 -0.401458
v -0.113238 -0.020839 -0.364822
v -0.112993 0.015104 -0.363590
v -0.129948 0.011118 -0.256969
v -0.130193 -0.020839 -0.258201
v -0.267184 0.000304 -0.267228
v -0.261424 0.012311 -0.269687
v -0.302308 0.011175 -0.234233
v -0.301301 -0.000644 -0.237641
v -0.211646 -0.020839 -0.187449
v -0.211517 0.008848 -0.186170
v -0.319534 0.009358 -0.184319
v -0.319483 -0.020839 -0.185670
v -0.167853 0.000451 -0.285023
v -0.164186 0.011864 -0.271666
v -0.145908 0.015037 -0.357208
v -0.152600 0.003099 -0.356407
v -0.306554 -0.001198 -0.222421
v -0.308602 0.010511 -0.215994
v -0.222233 0.010524 -0.228463
v -0.234479 -0.001187 -0.232826
v -0.321427 0.001516 -0.291269
v -0.326426 0.013763 -0.298497
v -0.368728 0.012971 -0.271853
v -0.356728 0.000855 -0.269035
v -0.252368 0.000234 -0.267481
v -0.243669 0.012227 -0.269991
v -0.261424 0.012311 -0.269687
v -0.267184 0.000304 -0.267228
v -0.345526 0.006684 -0.422999
v -0.349608 0.018817 -0.427373
v -0.381947 0.016164 -0.353459
v -0.372513 0.004470 -0.361318
v -0.270663 -0.020839 -0.492671
v -0.270714 0.020839 -0.491321
v -0.168586 0.018944 -0.456143
v -0.168714 -0.020839 -0.457421
v -0.423744 -0.020839 -0.359700
v -0.424014 0.016574 -0.358261
v -0.371591 0.019903 -0.452664
v -0.371382 -0.020839 -0.454078
v -0.296573 0.005331 -0.394502
v -0.290946 0.017195 -0.393224
v -0.269193 0.017397 -0.401560
v -0.278420 0.005499 -0.401458
v -0.372513 0.004470 -0.361318
v -0.381947 0.016164 -0.353459
v -0.335290 0.015558 -0.344190
v -0.333578 0.003965 -0.353583
v -0.189143 0.005623 -0.417246
v -0.218735 0.004386 -0.380762
v -0.209127 0.003723 -0.364766
v -0.177293 0.003049 -0.351619
v -0.152600 0.003099 -0.356407
v -0.167853 0.000451 -0.285023
v -0.202080 0.002218 -0.326411
v -0.204833 0.001570 -0.309100
v -0.323457 0.004607 -0.371809
v -0.323162 0.016328 -0.366030
v -0.333609 0.018027 -0.408965
v -0.332175 0.006025 -0.407637
v -0.209127 0.003723 -0.364766
v -0.213645 0.015785 -0.367224
v -0.175498 0.014977 -0.351470
v -0.177293 0.003049 -0.351619
v -0.321427 0.001516 -0.291269
v -0.356728 0.000855 -0.269035
v -0.306554 -0.001198 -0.222421
v -0.302495 0.000827 -0.275936
v -0.301301 -0.000644 -0.237641
v -0.234479 -0.001187 -0.232826
v -0.267184 0.000304 -0.267228
v -0.252368 0.000234 -0.267481
v -0.218735 0.004386 -0.380762
v -0.225159 0.016580 -0.386392
v -0.213645 0.015785 -0.367224
v -0.209127 0.003723 -0.364766
v -0.278420 0.005499 -0.401458
v -0.269193 0.017397 -0.401560
v -0.268259 0.019211 -0.449112
v -0.277641 0.007013 -0.441140
v -0.130193 -0.020839 -0.258201
v -0.129948 0.011118 -0.256969
v -0.211517 0.008848 -0.186170
v -0.211646 -0.020839 -0.187449
v -0.189143 0.005623 -0.417246
v -0.189699 0.018062 -0.430112
v -0.225159 0.016580 -0.386392
v -0.218735 0.004386 -0.380762
v -0.277641 0.007013 -0.441140
v -0.268259 0.019211 -0.449112
v -0.349608 0.018817 -0.427373
v -0.345526 0.006684 -0.422999
v -0.371382 -0.020839 -0.454078
v -0.371591 0.019903 -0.452664
v -0.270714 0.020839 -0.491321
v -0.270663 -0.020839 -0.492671
v -0.202080 0.002218 -0.326411
v -0.205201 0.013981 -0.321261
v -0.208500 0.013206 -0.300517
v -0.204833 0.001570 -0.309100
v -0.301301 -0.000644 -0.237641
v -0.302308 0.011175 -0.234233
v -0.303738 0.012938 -0.280123
v -0.302495 0.000827 -0.275936
v -0.333578 0.003965 -0.353583
v -0.335290 0.015558 -0.344190
v -0.323162 0.016328 -0.366030
v -0.323457 0.004607 -0.371809
v -0.332175 0.006025 -0.407637
v -0.333609 0.018027 -0.408965
v -0.290946 0.017195 -0.393224
v -0.296573 0.005331 -0.394502
v -0.152600 0.003099 -0.356407
v -0.145908 0.015037 -0.357208
v -0.189699 0.018062 -0.430112
v -0.189143 0.005623 -0.417246
v -0.403247 -0.020839 -0.253697
v -0.403456 0.012410 -0.252283
v -0.424014 0.016574 -0.358261
v -0.423744 -0.020839 -0.359700
v -0.302495 0.000827 -0.275936
v -0.303738 0.012938 -0.280123
v -0.326426 0.013763 -0.298497
v -0.321427 0.001516 -0.291269
v -0.356728 0.000855 -0.269035
v -0.368728 0.012971 -0.271853
v -0.308602 0.010511 -0.215994
v -0.306554 -0.001198 -0.222421
v -0.234479 -0.001187 -0.232826
v -0.222233 0.010524 -0.228463
v -0.243669 0.012227 -0.269991
v -0.252368 0.000234 -0.267481
v -0.204833 0.001570 -0.309100
v -0.208500 0.013206 -0.300517
v -0.164186 0.011864 -0.271666
v -0.167853 0.000451 -0.285023
v -0.168714 -0.020839 -0.457421
v -0.168586 0.018944 -0.456143
v -0.112993 0.015104 -0.363590
v -0.113238 -0.020839 -0.364822
v -0.319483 -0.020839 -0.185670
v -0.319534 0.009358 -0.184319
v -0.403456 0.012410 -0.252283
v -0.403247 -0.020839 -0.253697
v -0.403247 -0.020839 -0.253697
v -0.423744 -0.020839 -0.359700
v -0.371382 -0.020839 -0.454078
v -0.319483 -0.020839 -0.185670
v -0.270663 -0.020839 -0.492671
v -0.211646 -0.020839 -0.187449
v -0.168714 -0.020839 -0.457421
v -0.130193 -0.020839 -0.258201
v -0.113238 -0.020839 -0.364822
v 0.160557 0.003049 -0.387117
v 0.161709 0.014977 -0.388502
v 0.169433 0.013981 -0.346847
v 0.167003 0.002218 -0.352357
v 0.040699 0.004470 -0.232718
v 0.069357 0.003965 -0.260187
v 0.060225 0.004607 -0.278927
v 0.025870 0.006025 -0.292323
v 0.005630 0.006684 -0.290189
v 0.029681 0.007013 -0.356213
v 0.057042 0.005331 -0.313965
v 0.061748 0.005499 -0.332826
v 0.186459 -0.020839 -0.447171
v 0.187609 0.015104 -0.446665
v 0.265252 0.011118 -0.371652
v 0.264102 -0.020839 -0.372157
v 0.178175 0.000304 -0.265084
v 0.179462 0.012311 -0.271214
v 0.185076 0.011175 -0.217391
v 0.182860 -0.000644 -0.220169
v 0.275382 -0.020839 -0.264858
v 0.276503 0.008848 -0.264230
v 0.216098 0.009358 -0.174663
v 0.215021 -0.020839 -0.175479
v 0.220536 0.000451 -0.356675
v 0.233583 0.011864 -0.352023
v 0.173970 0.015037 -0.416037
v 0.170789 0.003099 -0.410095
v 0.192320 -0.001198 -0.207140
v 0.196412 0.010511 -0.201778
v 0.235707 0.010524 -0.279694
v 0.225111 -0.001187 -0.272161
v 0.127381 0.001516 -0.234421
v 0.118594 0.013763 -0.234469
v 0.116175 0.012971 -0.184533
v 0.125363 0.000855 -0.192750
v 0.186461 0.000234 -0.277370
v 0.189391 0.012227 -0.285936
v 0.179462 0.012311 -0.271214
v 0.178175 0.000304 -0.265084
v 0.005630 0.006684 -0.290189
v -0.000294 0.018817 -0.289352
v 0.041731 0.016164 -0.220483
v 0.040699 0.004470 -0.232718
v -0.008543 -0.020839 -0.391471
v -0.007465 0.020839 -0.390655
v 0.079904 0.018944 -0.454170
v 0.078783 -0.020839 -0.454798
v 0.012657 -0.020839 -0.189813
v 0.013680 0.016574 -0.188767
v -0.033619 0.019903 -0.285839
v -0.034658 -0.020839 -0.286820
v 0.057042 0.005331 -0.313965
v 0.061315 0.017195 -0.317843
v 0.066955 0.017397 -0.340445
v 0.061748 0.005499 -0.332826
v 0.040699 0.004470 -0.232718
v 0.041731 0.016164 -0.220483
v 0.076072 0.015558 -0.253400
v 0.069357 0.003965 -0.260187
v 0.170789 0.003099 -0.410095
v 0.099991 0.005623 -0.415028
v 0.112921 0.004386 -0.369867
v 0.131536 0.003723 -0.368570
v 0.160557 0.003049 -0.387117
v 0.167003 0.002218 -0.352357
v 0.179609 0.001570 -0.340177
v 0.220536 0.000451 -0.356675
v 0.060225 0.004607 -0.278927
v 0.065130 0.016328 -0.275857
v 0.023961 0.018027 -0.291909
v 0.025870 0.006025 -0.292323
v 0.131536 0.003723 -0.368570
v 0.126932 0.015785 -0.366277
v 0.161709 0.014977 -0.388502
v 0.160557 0.003049 -0.387117
v 0.127381 0.001516 -0.234421
v 0.125363 0.000855 -0.192750
v 0.192320 -0.001198 -0.207140
v 0.150797 0.000827 -0.241144
v 0.182860 -0.000644 -0.220169
v 0.186461 0.000234 -0.277370
v 0.178175 0.000304 -0.265084
v 0.225111 -0.001187 -0.272161
v 0.112921 0.004386 -0.369867
v 0.104625 0.016580 -0.367831
v 0.126932 0.015785 -0.366277
v 0.131536 0.003723 -0.368570
v 0.061748 0.005499 -0.332826
v 0.066955 0.017397 -0.340445
v 0.028527 0.019211 -0.368470
v 0.029681 0.007013 -0.356213
v 0.264102 -0.020839 -0.372157
v 0.265252 0.011118 -0.371652
v 0.276503 0.008848 -0.264230
v 0.275382 -0.020839 -0.264858
v 0.099991 0.005623 -0.415028
v 0.089130 0.018062 -0.421949
v 0.104625 0.016580 -0.367831
v 0.112921 0.004386 -0.369867
v 0.029681 0.007013 -0.356213
v 0.028527 0.019211 -0.368470
v -0.000294 0.018817 -0.289352
v 0.005630 0.006684 -0.290189
v -0.034658 -0.020839 -0.286820
v -0.033619 0.019903 -0.285839
v -0.007465 0.020839 -0.390655
v -0.008543 -0.020839 -0.391471
v 0.167003 0.002218 -0.352357
v 0.169433 0.013981 -0.346847
v 0.184540 0.013206 -0.332253
v 0.179609 0.001570 -0.340177
v 0.182860 -0.000644 -0.220169
v 0.185076 0.011175 -0.217391
v 0.146655 0.012938 -0.242526
v 0.150797 0.000827 -0.241144
v 0.069357 0.003965 -0.260187
v 0.076072 0.015558 -0.253400
v 0.065130 0.016328 -0.275857
v 0.060225 0.004607 -0.278927
v 0.025870 0.006025 -0.292323
v 0.023961 0.018027 -0.291909
v 0.061315 0.017195 -0.317843
v 0.057042 0.005331 -0.313965
v 0.170789 0.003099 -0.410095
v 0.173970 0.015037 -0.416037
v 0.089130 0.018062 -0.421949
v 0.099991 0.005623 -0.415028
v 0.111263 -0.020839 -0.145841
v 0.112302 0.012410 -0.144860
v 0.013680 0.016574 -0.188767
v 0.012657 -0.020839 -0.189813
v 0.150797 0.000827 -0.241144
v 0.146655 0.012938 -0.242526
v 0.118594 0.013763 -0.234469
v 0.127381 0.001516 -0.234421
v 0.125363 0.000855 -0.192750
v 0.116175 0.012971 -0.184533
v 0.196412 0.010511 -0.201778
v 0.192320 -0.001198 -0.207140
v 0.225111 -0.001187 -0.272161
v 0.235707 0.010524 -0.279694
v 0.189391 0.012227 -0.285936
v 0.186461 0.000234 -0.277370
v 0.179609 0.001570 -0.340177
v 0.184540 0.013206 -0.332253
v 0.233583 0.011864 -0.352023
v 0.220536 0.000451 -0.356675
v 0.078783 -0.020839 -0.454798
v 0.079904 0.018944 -0.454170
v 0.187609 0.015104 -0.446665
v 0.186459 -0.020839 -0.447171
v 0.215021 -0.020839 -0.175479
v 0.216098 0.009358 -0.174663
v 0.112302 0.012410 -0.144860
v 0.111263 -0.020839 -0.145841
v 0.012657 -0.020839 -0.189813
v -0.034658 -0.020839 -0.286820
v -0.008543 -0.020839 -0.391471
v 0.078783 -0.020839 -0.454798
v 0.111263 -0.020839 -0.145841
v 0.186459 -0.020839 -0.447171
v 0.215021 -0.020839 -0.175479
v 0.264102 -0.020839 -0.372157
v 0.275382 -0.020839 -0.264858
v -0.071939 0.038626 -0.064130
v -0.070351 0.050047 -0.063456
v -0.106409 0.049094 -0.044877
v -0.102029 0.037830 -0.048625
v -0.203569 0.042106 -0.179417
v -0.246580 0.039986 -0.131401
v -0.213485 0.039503 -0.112709
v -0.198824 0.040118 -0.126254
v -0.196025 0.041475 -0.161449
v -0.136397 0.042421 -0.175590
v -0.167580 0.040811 -0.138843
v -0.148988 0.040972 -0.139735
v -0.009731 0.015754 -0.056959
v -0.009876 0.050169 -0.055765
v -0.057219 0.046351 0.036126
v -0.057073 0.015754 0.034932
v -0.178959 0.035998 -0.014293
v -0.172984 0.047494 -0.014805
v -0.220781 0.046407 0.005198
v -0.218845 0.035090 0.002399
v -0.152335 0.015754 0.074891
v -0.152601 0.044179 0.076092
v -0.251392 0.044667 0.045434
v -0.250941 0.015754 0.044222
v -0.083293 0.036138 -0.000737
v -0.083957 0.047066 0.012509
v -0.041722 0.050105 -0.059815
v -0.048048 0.038674 -0.061091
v -0.228179 0.034560 0.014669
v -0.231966 0.045771 0.019901
v -0.149684 0.045783 0.034421
v -0.159515 0.034570 0.026785
v -0.221092 0.037158 -0.052399
v -0.223474 0.048884 -0.060468
v -0.269924 0.048126 -0.048902
v -0.259854 0.036525 -0.042747
v -0.165408 0.035931 -0.010088
v -0.156745 0.047414 -0.009766
v -0.172984 0.047494 -0.014805
v -0.178959 0.035998 -0.014293
v -0.203569 0.042106 -0.179417
v -0.205971 0.053724 -0.184617
v -0.257513 0.051183 -0.127078
v -0.246580 0.039986 -0.131401
v -0.114623 0.015754 -0.220367
v -0.115074 0.055659 -0.219154
v -0.032725 0.053845 -0.156583
v -0.032459 0.015754 -0.157784
v -0.293656 0.015754 -0.145268
v -0.294333 0.051576 -0.144041
v -0.218391 0.054763 -0.214200
v -0.217778 0.015754 -0.215423
v -0.167580 0.040811 -0.138843
v -0.162844 0.052171 -0.135996
v -0.140565 0.052364 -0.137064
v -0.148988 0.040972 -0.139735
v -0.246580 0.039986 -0.131401
v -0.257513 0.051183 -0.127078
v -0.217854 0.050603 -0.104679
v -0.213485 0.039503 -0.112709
v -0.063067 0.041090 -0.127363
v -0.100903 0.039907 -0.103042
v -0.096954 0.039271 -0.085618
v -0.071939 0.038626 -0.064130
v -0.048048 0.038674 -0.061091
v -0.083293 0.036138 -0.000737
v -0.102029 0.037830 -0.048625
v -0.109716 0.037210 -0.033706
v -0.198824 0.040118 -0.126254
v -0.200286 0.051341 -0.120910
v -0.196932 0.052967 -0.163085
v -0.196025 0.041475 -0.161449
v -0.096954 0.039271 -0.085618
v -0.100327 0.050820 -0.089206
v -0.070351 0.050047 -0.063456
v -0.071939 0.038626 -0.064130
v -0.221092 0.037158 -0.052399
v -0.259854 0.036525 -0.042747
v -0.228179 0.034560 0.014669
v -0.218845 0.035090 0.002399
v -0.208464 0.036499 -0.032786
v -0.159515 0.034570 0.026785
v -0.178959 0.035998 -0.014293
v -0.165408 0.035931 -0.010088
v -0.100903 0.039907 -0.103042
v -0.105060 0.051582 -0.110086
v -0.100327 0.050820 -0.089206
v -0.096954 0.039271 -0.085618
v -0.148988 0.040972 -0.139735
v -0.140565 0.052364 -0.137064
v -0.125478 0.054101 -0.180031
v -0.136397 0.042421 -0.175590
v -0.057073 0.015754 0.034932
v -0.057219 0.046351 0.036126
v -0.152601 0.044179 0.076092
v -0.152335 0.015754 0.074891
v -0.063067 0.041090 -0.127363
v -0.059720 0.053000 -0.139231
v -0.105060 0.051582 -0.110086
v -0.100903 0.039907 -0.103042
v -0.136397 0.042421 -0.175590
v -0.125478 0.054101 -0.180031
v -0.205971 0.053724 -0.184617
v -0.203569 0.042106 -0.179417
v -0.217778 0.015754 -0.215423
v -0.218391 0.054763 -0.214200
v -0.115074 0.055659 -0.219154
v -0.114623 0.015754 -0.220367
v -0.102029 0.037830 -0.048625
v -0.106409 0.049094 -0.044877
v -0.115620 0.048351 -0.026998
v -0.109716 0.037210 -0.033706
v -0.218845 0.035090 0.002399
v -0.220781 0.046407 0.005198
v -0.208341 0.048094 -0.036965
v -0.208464 0.036499 -0.032786
v -0.213485 0.039503 -0.112709
v -0.217854 0.050603 -0.104679
v -0.200286 0.051341 -0.120910
v -0.198824 0.040118 -0.126254
v -0.196025 0.041475 -0.161449
v -0.196932 0.052967 -0.163085
v -0.162844 0.052171 -0.135996
v -0.167580 0.040811 -0.138843
v -0.048048 0.038674 -0.061091
v -0.041722 0.050105 -0.059815
v -0.059720 0.053000 -0.139231
v -0.063067 0.041090 -0.127363
v -0.306753 0.015754 -0.042726
v -0.307366 0.047589 -0.041503
v -0.294333 0.051576 -0.144041
v -0.293656 0.015754 -0.145268
v -0.208464 0.036499 -0.032786
v -0.208341 0.048094 -0.036965
v -0.223474 0.048884 -0.060468
v -0.221092 0.037158 -0.052399
v -0.259854 0.036525 -0.042747
v -0.269924 0.048126 -0.048902
v -0.231966 0.045771 0.019901
v -0.228179 0.034560 0.014669
v -0.159515 0.034570 0.026785
v -0.149684 0.045783 0.034421
v -0.156745 0.047414 -0.009766
v -0.165408 0.035931 -0.010088
v -0.109716 0.037210 -0.033706
v -0.115620 0.048351 -0.026998
v -0.083957 0.047066 0.012509
v -0.083293 0.036138 -0.000737
v -0.032459 0.015754 -0.157784
v -0.032725 0.053845 -0.156583
v -0.009876 0.050169 -0.055765
v -0.009731 0.015754 -0.056959
v -0.250941 0.015754 0.044222
v -0.251392 0.044667 0.045434
v -0.307366 0.047589 -0.041503
v -0.306753 0.015754 -0.042726
v -0.250941 0.015754 0.044222
v -0.306753 0.015754 -0.042726
v -0.293656 0.015754 -0.145268
v -0.217778 0.015754 -0.215423
v -0.152335 0.015754 0.074891
v -0.114623 0.015754 -0.220367
v -0.057073 0.015754 0.034932
v -0.032459 0.015754 -0.157784
v -0.009731 0.015754 -0.056959
v -0.200286 0.051341 -0.120910
v -0.185111 0.051978 -0.134929
v -0.196932 0.052967 -0.163085
v -0.162844 0.052171 -0.135996
v -0.199340 0.047625 -0.022984
v -0.172984 0.047494 -0.014805
v -0.220781 0.046407 0.005198
v -0.156745 0.047414 -0.009766
v -0.208341 0.048094 -0.036965
v -0.217854 0.050603 -0.104679
v -0.223474 0.048884 -0.060468
v -0.269924 0.048126 -0.048902
v -0.140565 0.052364 -0.137064
v -0.257513 0.051183 -0.127078
v -0.307366 0.047589 -0.041503
v -0.294333 0.051576 -0.144041
v -0.251392 0.044667 0.045434
v -0.205971 0.053724 -0.184617
v -0.231966 0.045771 0.019901
v -0.218391 0.054763 -0.214200
v -0.152601 0.044179 0.076092
v -0.125478 0.054101 -0.180031
v -0.149684 0.045783 0.034421
v -0.057219 0.046351 0.036126
v -0.115074 0.055659 -0.219154
v -0.083957 0.047066 0.012509
v -0.009876 0.050169 -0.055765
v -0.041722 0.050105 -0.059815
v -0.032725 0.053845 -0.156583
v -0.115620 0.048351 -0.026998
v -0.059720 0.053000 -0.139231
v -0.105060 0.051582 -0.110086
v -0.106409 0.049094 -0.044877
v -0.100327 0.050820 -0.089206
v -0.095208 0.049997 -0.066618
v -0.070351 0.050047 -0.063456
v 0.065130 0.016328 -0.275857
v 0.055678 0.016994 -0.295253
v 0.023961 0.018027 -0.291909
v 0.061315 0.017195 -0.317843
v 0.066955 0.017397 -0.340445
v 0.076072 0.015558 -0.253400
v 0.104625 0.016580 -0.367831
v 0.028527 0.019211 -0.368470
v 0.118594 0.013763 -0.234469
v 0.116175 0.012971 -0.184533
v 0.041731 0.016164 -0.220483
v 0.126932 0.015785 -0.366277
v 0.146655 0.012938 -0.242526
v 0.089130 0.018062 -0.421949
v 0.151063 0.014925 -0.364595
v 0.161709 0.014977 -0.388502
v 0.169433 0.013981 -0.346847
v 0.163347 0.012447 -0.247318
v 0.185076 0.011175 -0.217391
v 0.179462 0.012311 -0.271214
v 0.184540 0.013206 -0.332253
v 0.189391 0.012227 -0.285936
v 0.233583 0.011864 -0.352023
v 0.235707 0.010524 -0.279694
v -0.007465 0.020839 -0.390655
v 0.079904 0.018944 -0.454170
v -0.033619 0.019903 -0.285839
v 0.173970 0.015037 -0.416037
v -0.000294 0.018817 -0.289352
v 0.187609 0.015104 -0.446665
v 0.013680 0.016574 -0.188767
v 0.265252 0.011118 -0.371652
v 0.276503 0.008848 -0.264230
v 0.112302 0.012410 -0.144860
v 0.196412 0.010511 -0.201778
v 0.216098 0.009358 -0.174663
v -0.323162 0.016328 -0.366030
v -0.312687 0.016994 -0.384893
v -0.333609 0.018027 -0.408965
v -0.290946 0.017195 -0.393224
v -0.303738 0.012938 -0.280123
v -0.326426 0.013763 -0.298497
v -0.335290 0.015558 -0.344190
v -0.368728 0.012971 -0.271853
v -0.381947 0.016164 -0.353459
v -0.290242 0.012447 -0.269193
v -0.302308 0.011175 -0.234233
v -0.269193 0.017397 -0.401560
v -0.261424 0.012311 -0.269687
v -0.225159 0.016580 -0.386392
v -0.243669 0.012227 -0.269991
v -0.268259 0.019211 -0.449112
v -0.403456 0.012410 -0.252283
v -0.424014 0.016574 -0.358261
v -0.319534 0.009358 -0.184319
v -0.349608 0.018817 -0.427373
v -0.308602 0.010511 -0.215994
v -0.371591 0.019903 -0.452664
v -0.211517 0.008848 -0.186170
v -0.222233 0.010524 -0.228463
v -0.270714 0.020839 -0.491321
v -0.129948 0.011118 -0.256969
v -0.189699 0.018062 -0.430112
v -0.168586 0.018944 -0.456143
v -0.145908 0.015037 -0.357208
v -0.112993 0.015104 -0.363590
v -0.164186 0.011864 -0.271666
v -0.208500 0.013206 -0.300517
v -0.213645 0.015785 -0.367224
v -0.205201 0.013981 -0.321261
v -0.201189 0.014925 -0.346488
v -0.175498 0.014977 -0.351470
v -0.354514 0.016328 0.079059
v -0.375145 0.016994 0.085377
v -0.376777 0.018027 0.117229
v -0.396582 0.017195 0.076294
v -0.345134 0.012227 -0.045257
v -0.330627 0.015558 0.071745
v -0.391641 0.013206 -0.047672
v -0.408408 0.013981 -0.035021
v -0.403538 0.011864 -0.099194
v -0.418032 0.017397 0.067205
v -0.332136 0.012311 -0.033158
v -0.331761 0.010524 -0.090037
v -0.428799 0.014925 -0.019636
v -0.450758 0.014977 -0.033872
v -0.434215 0.015785 0.003940
v -0.439221 0.016580 0.025732
v -0.451695 0.019211 0.100804
v -0.495091 0.018062 0.032617
v -0.311039 0.012447 -0.013520
v -0.278095 0.011175 -0.030328
v -0.308902 0.012938 0.003714
v -0.305310 0.013763 0.032687
v -0.256359 0.012971 0.042847
v -0.303455 0.016164 0.110790
v -0.479210 0.020839 0.132906
v -0.528356 0.018944 0.036716
v -0.379741 0.019903 0.175052
v -0.476050 0.015037 -0.050269
v -0.378026 0.018817 0.141586
v -0.504182 0.015105 -0.068508
v -0.276491 0.016574 0.143434
v -0.217772 0.012410 0.052847
v -0.418001 0.011118 -0.133532
v -0.231060 0.009358 -0.054323
v -0.260908 0.010511 -0.039096
v -0.310136 0.008848 -0.127930
v 0.016199 0.016328 0.064348
v -0.004432 0.016994 0.070666
v -0.006065 0.018027 0.102518
v -0.025870 0.017195 0.061583
v 0.025578 0.012227 -0.059968
v 0.040085 0.015558 0.057034
v -0.020929 0.013206 -0.062383
v -0.037696 0.013981 -0.049732
v -0.032826 0.011864 -0.113905
v -0.047319 0.017397 0.052494
v 0.038577 0.012311 -0.047869
v 0.038952 0.010524 -0.104748
v -0.058087 0.014925 -0.034347
v -0.080045 0.014977 -0.048583
v -0.063503 0.015785 -0.010771
v -0.068509 0.016580 0.011022
v -0.080983 0.019211 0.086093
v -0.124379 0.018062 0.017906
v 0.059673 0.012447 -0.028231
v 0.092618 0.011175 -0.045038
v 0.061810 0.012938 -0.010997
v 0.065402 0.013763 0.017976
v 0.114353 0.012971 0.028136
v 0.067257 0.016164 0.096079
v -0.108497 0.020839 0.118195
v -0.157643 0.018944 0.022006
v -0.009028 0.019903 0.160341
v -0.105337 0.015037 -0.064980
v -0.007313 0.018817 0.126875
v -0.133470 0.015105 -0.083219
v 0.094221 0.016574 0.128723
v 0.152940 0.012410 0.038136
v -0.047288 0.011118 -0.148243
v 0.139653 0.009358 -0.069034
v 0.109805 0.010511 -0.053807
v 0.060576 0.008848 -0.142641
vn -0.029642 -0.115572 -0.992857
vn -0.029642 -0.115572 -0.992857
vn -0.029642 -0.115572 -0.992857
vn -0.029642 -0.115572 -0.992857
vn 0.022646 0.999255 -0.031255
vn 0.022646 0.999255 -0.031255
vn 0.022646 0.999255 -0.031255
vn 0.022646 0.999255 -0.031255
vn 0.022646 0.999255 -0.031255
vn 0.022646 0.999255 -0.031256
vn 0.022646 0.999255 -0.031256
vn 0.022646 0.999255 -0.031256
vn -0.602437 -0.012819 -0.798064
vn -0.602437 -0.012819 -0.798064
vn -0.602437 -0.012819 -0.798064
vn -0.602437 -0.012819 -0.798064
vn 0.048296 -0.159182 -0.986067
vn 0.048296 -0.159182 -0.986067
vn 0.048296 -0.159182 -0.986067
vn 0.048296 -0.159182 -0.986067
vn 0.680991 -0.043879 -0.730976
vn 0.680991 -0.043879 -0.730976
vn 0.680991 -0.043879 -0.730976
vn 0.680991 -0.043879 -0.730976
vn 0.506774 0.473551 0.720368
vn 0.506774 0.473551 0.720368
vn 0.506774 0.473551 0.720368
vn 0.506774 0.473551 0.720368
vn -0.518231 0.460139 0.720908
vn -0.518231 0.460139 0.720908
vn -0.518231 0.460139 0.720908
vn -0.518231 0.460139 0.720908
vn 0.174214 0.582414 -0.794005
vn 0.174214 0.582414 -0.794005
vn 0.174214 0.582414 -0.794005
vn 0.174214 0.582414 -0.794005
vn 0.667934 0.192472 -0.718901
vn 0.667934 0.192472 -0.718901
vn 0.667934 0.192472 -0.718901
vn 0.667934 0.192472 -0.718901
vn -0.334717 0.414585 -0.846217
vn -0.334717 0.414585 -0.846217
vn -0.334717 0.414585 -0.846217
vn -0.334717 0.414585 -0.846217
vn -0.890481 0.030185 0.454018
vn -0.890481 0.030185 0.454018
vn -0.890481 0.030185 0.454018
vn -0.890481 0.030185 0.454018
vn 0.293151 0.012336 0.955986
vn 0.293151 0.012336 0.955986
vn 0.293151 0.012336 0.955986
vn 0.293151 0.012336 0.955986
vn -0.374443 0.261788 0.889528
vn -0.374443 0.261788 0.889528
vn -0.374443 0.261788 0.889528
vn -0.374443 0.261788 0.889528
vn -0.638278 0.635580 0.434326
vn -0.638278 0.635580 0.434326
vn -0.638278 0.635580 0.434326
vn -0.638278 0.635580 0.434326
vn 0.022646 0.999255 -0.031256
vn 0.022646 0.999255 -0.031256
vn 0.022646 0.999255 -0.031256
vn 0.022646 0.999255 -0.031256
vn 0.022646 0.999255 -0.031256
vn 0.022646 0.999255 -0.031256
vn 0.022646 0.999255 -0.031256
vn 0.022646 0.999255 -0.031256
vn 0.858543 -0.090026 0.504777
vn 0.858543 -0.090026 0.504777
vn 0.858543 -0.090026 0.504777
vn 0.858543 -0.090026 0.504777
vn -0.914842 -0.045674 0.401220
vn -0.914842 -0.045674 0.401220
vn -0.914842 -0.045674 0.401220
vn -0.914842 -0.045674 0.401220
vn 0.022646 0.999255 -0.031256
vn 0.022646 0.999255 -0.031256
vn 0.022646 0.999255 -0.031256
vn 0.022646 0.999255 -0.031256
vn 0.022646 0.999255 -0.031256
vn 0.022646 0.999255 -0.031256
vn 0.022646 0.999255 -0.031256
vn 0.022646 0.999255 -0.031256
vn -0.950303 0.214000 -0.226118
vn -0.950303 0.214000 -0.226118
vn -0.950303 0.214000 -0.226118
vn -0.950303 0.214000 -0.226118
vn 0.574504 0.612866 0.542532
vn 0.574504 0.612866 0.542532
vn 0.574504 0.612866 0.542532
vn 0.574504 0.612866 0.542532
vn 0.051279 -0.034695 -0.998082
vn 0.051279 -0.034695 -0.998082
vn 0.051279 -0.034695 -0.998082
vn 0.051279 -0.034695 -0.998082
vn -0.085175 0.573694 -0.814629
vn -0.085175 0.573694 -0.814629
vn -0.085175 0.573694 -0.814629
vn -0.085175 0.573694 -0.814629
vn 0.445809 0.398624 -0.801470
vn 0.445809 0.398624 -0.801470
vn 0.445809 0.398624 -0.801470
vn 0.445809 0.398624 -0.801470
vn -0.389845 0.030172 0.920386
vn -0.389845 0.030172 0.920386
vn -0.389845 0.030172 0.920386
vn -0.389845 0.030172 0.920386
vn -0.586200 0.186604 -0.788384
vn -0.586200 0.186604 -0.788384
vn -0.586200 0.186604 -0.788384
vn -0.586200 0.186604 -0.788384
vn 0.735867 -0.092664 0.670756
vn 0.735867 -0.092664 0.670756
vn 0.735867 -0.092664 0.670756
vn 0.735867 -0.092664 0.670756
vn 0.290878 0.249856 0.923560
vn 0.290878 0.249856 0.923560
vn 0.290878 0.249856 0.923560
vn 0.290878 0.249856 0.923560
vn -0.897922 -0.062442 0.435702
vn -0.897922 -0.062442 0.435702
vn -0.897922 -0.062442 0.435702
vn -0.897922 -0.062442 0.435702
vn 0.871420 0.454885 0.183596
vn 0.871420 0.454885 0.183596
vn 0.871420 0.454885 0.183596
vn 0.871420 0.454885 0.183596
vn 0.838731 -0.014324 0.544358
vn 0.838731 -0.014324 0.544358
vn 0.838731 -0.014324 0.544358
vn 0.838731 -0.014324 0.544358
vn 0.971318 0.201552 -0.126170
vn 0.971318 0.201552 -0.126170
vn 0.971318 0.201552 -0.126170
vn 0.971318 0.201552 -0.126170
vn -0.887478 0.459484 0.035466
vn -0.887478 0.459484 0.035466
vn -0.887478 0.459484 0.035466
vn -0.887478 0.459484 0.035466
vn 0.777500 0.592915 0.209632
vn 0.777500 0.592915 0.209632
vn 0.777500 0.592915 0.209632
vn 0.777500 0.592915 0.209632
vn -0.768986 0.618538 0.161465
vn -0.768986 0.618538 0.161465
vn -0.768986 0.618538 0.161465
vn -0.768986 0.618538 0.161465
vn -0.974352 0.012816 -0.224664
vn -0.974352 0.012816 -0.224664
vn -0.974352 0.012816 -0.224664
vn -0.974352 0.012816 -0.224664
vn 0.991891 -0.036380 -0.121771
vn 0.991891 -0.036380 -0.121771
vn 0.991891 -0.036380 -0.121771
vn 0.991891 -0.036380 -0.121771
vn 0.000000 -1.000000 0.000000
vn 0.000000 -1.000000 0.000000
vn 0.000000 -1.000000 0.000000
vn 0.000000 -1.000000 0.000000
vn 0.000000 -1.000000 0.000000
vn 0.000000 -1.000000 0.000000
vn 0.000000 -1.000000 0.000000
vn 0.000000 -1.000000 0.000000
vn 0.000000 -1.000000 0.000000
vn -0.029642 -0.115572 -0.992857
vn -0.029642 -0.115572 -0.992857
vn -0.029642 -0.115572 -0.992857
vn -0.029642 -0.115572 -0.992857
vn 0.022646 0.999255 -0.031255
vn 0.022646 0.999255 -0.031255
vn 0.022646 0.999255 -0.031255
vn 0.022646 0.999255 -0.031255
vn 0.022646 0.999255 -0.031255
vn 0.022646 0.999255 -0.031256
vn 0.022646 0.999255 -0.031256
vn 0.022646 0.999255 -0.031256
vn -0.602437 -0.012820 -0.798064
vn -0.602437 -0.012820 -0.798064
vn -0.602437 -0.012820 -0.798064
vn -0.602437 -0.012820 -0.798064
vn 0.048296 -0.159182 -0.986067
vn 0.048296 -0.159182 -0.986067
vn 0.048296 -0.159182 -0.986067
vn 0.048296 -0.159182 -0.986067
vn 0.680992 -0.043879 -0.730976
vn 0.680992 -0.043879 -0.730976
vn 0.680992 -0.043879 -0.730976
vn 0.680992 -0.043879 -0.730976
vn 0.506774 0.473550 0.720368
vn 0.506774 0.473550 0.720368
vn 0.506774 0.473550 0.720368
vn 0.506774 0.473550 0.720368
vn -0.518231 0.460139 0.720908
vn -0.518231 0.460139 0.720908
vn -0.518231 0.460139 0.720908
vn -0.518231 0.460139 0.720908
vn 0.174214 0.582413 -0.794005
vn 0.174214 0.582413 -0.794005
vn 0.174214 0.582413 -0.794005
vn 0.174214 0.582413 -0.794005
vn 0.667936 0.192472 -0.718900
vn 0.667936 0.192472 -0.718900
vn 0.667936 0.192472 -0.718900
vn 0.667936 0.192472 -0.718900
vn -0.334717 0.414585 -0.846218
vn -0.334717 0.414585 -0.846218
vn -0.334717 0.414585 -0.846218
vn -0.334717 0.414585 -0.846218
vn -0.890481 0.030185 0.454018
vn -0.890481 0.030185 0.454018
vn -0.890481 0.030185 0.454018
vn -0.890481 0.030185 0.454018
vn 0.293151 0.012337 0.955986
vn 0.293151 0.012337 0.955986
vn 0.293151 0.012337 0.955986
vn 0.293151 0.012337 0.955986
vn -0.374443 0.261787 0.889528
vn -0.374443 0.261787 0.889528
vn -0.374443 0.261787 0.889528
vn -0.374443 0.261787 0.889528
vn -0.638278 0.635580 0.434326
vn -0.638278 0.635580 0.434326
vn -0.638278 0.635580 0.434326
vn -0.638278 0.635580 0.434326
vn 0.022646 0.999255 -0.031256
vn 0.022646 0.999255 -0.031256
vn 0.022646 0.999255 -0.031256
vn 0.022646 0.999255 -0.031256
vn 0.022646 0.999255 -0.031256
vn 0.022646 0.999255 -0.031256
vn 0.022646 0.999255 -0.031256
vn 0.022646 0.999255 -0.031256
vn 0.858543 -0.090027 0.504777
vn 0.858543 -0.090027 0.504777
vn 0.858543 -0.090027 0.504777
vn 0.858543 -0.090027 0.504777
vn -0.914842 -0.045673 0.401220
vn -0.914842 -0.045673 0.401220
vn -0.914842 -0.045673 0.401220
vn -0.914842 -0.045673 0.401220
vn 0.022646 0.999255 -0.031256
vn 0.022646 0.999255 -0.031256
vn 0.022646 0.999255 -0.031256
vn 0.022646 0.999255 -0.031256
vn 0.022646 0.999255 -0.031256
vn 0.022646 0.999255 -0.031256
vn 0.022646 0.999255 -0.031256
vn 0.022646 0.999255 -0.031256
vn -0.950303 0.213999 -0.226115
vn -0.950303 0.213999 -0.226115
vn -0.950303 0.213999 -0.226115
vn -0.950303 0.213999 -0.226115
vn 0.574503 0.612867 0.542532
vn 0.574503 0.612867 0.542532
vn 0.574503 0.612867 0.542532
vn 0.574503 0.612867 0.542532
vn 0.051280 -0.034695 -0.998082
vn 0.051280 -0.034695 -0.998082
vn 0.051280 -0.034695 -0.998082
vn 0.051280 -0.034695 -0.998082
vn -0.085175 0.573694 -0.814629
vn -0.085175 0.573694 -0.814629
vn -0.085175 0.573694 -0.814629
vn -0.085175 0.573694 -0.814629
vn 0.445808 0.398624 -0.801470
vn 0.445808 0.398624 -0.801470
vn 0.445808 0.398624 -0.801470
vn 0.445808 0.398624 -0.801470
vn -0.389845 0.030172 0.920386
vn -0.389845 0.030172 0.920386
vn -0.389845 0.030172 0.920386
vn -0.389845 0.030172 0.920386
vn -0.586199 0.186605 -0.788384
vn -0.586199 0.186605 -0.788384
vn -0.586199 0.186605 -0.788384
vn -0.586199 0.186605 -0.788384
vn 0.735867 -0.092665 0.670756
vn 0.735867 -0.092665 0.670756
vn 0.735867 -0.092665 0.670756
vn 0.735867 -0.092665 0.670756
vn 0.290878 0.249857 0.923559
vn 0.290878 0.249857 0.923559
vn 0.290878 0.249857 0.923559
vn 0.290878 0.249857 0.923559
vn -0.897923 -0.062441 0.435702
vn -0.897923 -0.062441 0.435702
vn -0.897923 -0.062441 0.435702
vn -0.897923 -0.062441 0.435702
vn 0.871420 0.454884 0.183595
vn 0.871420 0.454884 0.183595
vn 0.871420 0.454884 0.183595
vn 0.871420 0.454884 0.183595
vn 0.838730 -0.014324 0.544358
vn 0.838730 -0.014324 0.544358
vn 0.838730 -0.014324 0.544358
vn 0.838730 -0.014324 0.544358
vn 0.971318 0.201550 -0.126169
vn 0.971318 0.201550 -0.126169
vn 0.971318 0.201550 -0.126169
vn 0.971318 0.201550 -0.126169
vn -0.887478 0.459484 0.035466
vn -0.887478 0.459484 0.035466
vn -0.887478 0.459484 0.035466
vn -0.887478 0.459484 0.035466
vn 0.777500 0.592915 0.209632
vn 0.777500 0.592915 0.209632
vn 0.777500 0.592915 0.209632
vn 0.777500 0.592915 0.209632
vn -0.768986 0.618538 0.161465
vn -0.768986 0.618538 0.161465
vn -0.768986 0.618538 0.161465
vn -0.768986 0.618538 0.161465
vn -0.974352 0.012815 -0.224664
vn -0.974352 0.012815 -0.224664
vn -0.974352 0.012815 -0.224664
vn -0.974352 0.012815 -0.224664
vn 0.991891 -0.036380 -0.121772
vn 0.991891 -0.036380 -0.121772
vn 0.991891 -0.036380 -0.121772
vn 0.991891 -0.036380 -0.121772
vn 0.000000 -1.000000 0.000000
vn 0.000000 -1.000000 0.000000
vn 0.000000 -1.000000 0.000000
vn 0.000000 -1.000000 0.000000
vn 0.000000 -1.000000 0.000000
vn 0.000000 -1.000000 0.000000
vn 0.000000 -1.000000 0.000000
vn 0.000000 -1.000000 0.000000
vn 0.000000 -1.000000 0.000000
vn 0.710169 -0.115572 0.694480
vn 0.710169 -0.115572 0.694480
vn 0.710169 -0.115572 0.694480
vn 0.710169 -0.115572 0.694480
vn 0.005375 0.999255 0.038221
vn 0.005375 0.999255 0.038221
vn 0.005375 0.999255 0.038221
vn 0.005375 0.999255 0.038221
vn 0.005375 0.999255 0.038221
vn 0.005375 0.999255 0.038221
vn 0.005375 0.999255 0.038221
vn 0.005375 0.999255 0.038221
vn 0.987547 -0.012819 0.156800
vn 0.987547 -0.012819 0.156800
vn 0.987547 -0.012819 0.156800
vn 0.987547 -0.012819 0.156800
vn 0.649330 -0.159182 0.743662
vn 0.649330 -0.159182 0.743662
vn 0.649330 -0.159182 0.743662
vn 0.649330 -0.159182 0.743662
vn 0.016692 -0.043878 0.998897
vn 0.016692 -0.043878 0.998897
vn 0.016692 -0.043878 0.998897
vn 0.016692 -0.043878 0.998897
vn -0.864748 0.473551 -0.167213
vn -0.864748 0.473551 -0.167213
vn -0.864748 0.473551 -0.167213
vn -0.864748 0.473551 -0.167213
vn -0.126926 0.460137 -0.878728
vn -0.126926 0.460137 -0.878728
vn -0.126926 0.460137 -0.878728
vn -0.126926 0.460137 -0.878728
vn 0.425396 0.582412 0.692701
vn 0.425396 0.582412 0.692701
vn 0.425396 0.582412 0.692701
vn 0.425396 0.582412 0.692701
vn 0.017721 0.192469 0.981143
vn 0.017721 0.192469 0.981143
vn 0.017721 0.192469 0.981143
vn 0.017721 0.192469 0.981143
vn 0.828146 0.414584 0.377218
vn 0.828146 0.414584 0.377218
vn 0.828146 0.414584 0.377218
vn 0.828146 0.414584 0.377218
vn 0.326327 0.030185 -0.944775
vn 0.326327 0.030185 -0.944775
vn 0.326327 0.030185 -0.944775
vn 0.326327 0.030185 -0.944775
vn -0.874367 0.012337 -0.485109
vn -0.874367 0.012337 -0.485109
vn -0.874367 0.012337 -0.485109
vn -0.874367 0.012337 -0.485109
vn -0.347464 0.261791 -0.900408
vn -0.347464 0.261791 -0.900408
vn -0.347464 0.261791 -0.900408
vn -0.347464 0.261791 -0.900408
vn 0.158355 0.635578 -0.755622
vn 0.158355 0.635578 -0.755622
vn 0.158355 0.635578 -0.755622
vn 0.158355 0.635578 -0.755622
vn 0.005376 0.999255 0.038221
vn 0.005376 0.999255 0.038221
vn 0.005376 0.999255 0.038221
vn 0.005376 0.999255 0.038221
vn 0.005376 0.999255 0.038221
vn 0.005375 0.999255 0.038221
vn 0.005375 0.999255 0.038221
vn 0.005375 0.999255 0.038221
vn -0.968516 -0.090025 0.232103
vn -0.968516 -0.090025 0.232103
vn -0.968516 -0.090025 0.232103
vn -0.968516 -0.090025 0.232103
vn 0.380502 -0.045673 -0.923652
vn 0.380502 -0.045673 -0.923652
vn 0.380502 -0.045673 -0.923652
vn 0.380502 -0.045673 -0.923652
vn 0.005375 0.999255 0.038221
vn 0.005375 0.999255 0.038221
vn 0.005375 0.999255 0.038221
vn 0.005375 0.999255 0.038221
vn 0.005375 0.999255 0.038221
vn 0.005375 0.999255 0.038222
vn 0.005375 0.999255 0.038222
vn 0.005375 0.999255 0.038222
vn 0.841273 0.213999 -0.496451
vn 0.841273 0.213999 -0.496451
vn 0.841273 0.213999 -0.496451
vn 0.841273 0.213999 -0.496451
vn -0.790148 0.612866 0.007852
vn -0.790148 0.612866 0.007852
vn -0.790148 0.612866 0.007852
vn -0.790148 0.612866 0.007852
vn 0.655516 -0.034695 0.754384
vn 0.655516 -0.034695 0.754384
vn 0.655516 -0.034695 0.754384
vn 0.655516 -0.034695 0.754384
vn 0.626514 0.573693 0.527595
vn 0.626514 0.573693 0.527595
vn 0.626514 0.573693 0.527595
vn 0.626514 0.573693 0.527595
vn 0.234976 0.398626 0.886501
vn 0.234976 0.398626 0.886501
vn 0.234976 0.398626 0.886501
vn 0.234976 0.398626 0.886501
vn -0.357781 0.030172 -0.933318
vn -0.357781 0.030172 -0.933318
vn -0.357781 0.030172 -0.933318
vn -0.357781 0.030172 -0.933318
vn 0.969138 0.186604 0.161093
vn 0.969138 0.186604 0.161093
vn 0.969138 0.186604 0.161093
vn 0.969138 0.186604 0.161093
vn -0.995319 -0.092664 0.027457
vn -0.995319 -0.092664 0.027457
vn -0.995319 -0.092664 0.027457
vn -0.995319 -0.092664 0.027457
vn -0.850233 0.249854 -0.463332
vn -0.850233 0.249854 -0.463332
vn -0.850233 0.249854 -0.463332
vn -0.850233 0.249854 -0.463332
vn 0.344394 -0.062441 -0.936747
vn 0.344394 -0.062441 -0.936747
vn 0.344394 -0.062441 -0.936747
vn 0.344394 -0.062441 -0.936747
vn -0.754961 0.454887 0.472347
vn -0.754961 0.454887 0.472347
vn -0.754961 0.454887 0.472347
vn -0.754961 0.454887 0.472347
vn -0.981708 -0.014324 0.189852
vn -0.981708 -0.014324 0.189852
vn -0.981708 -0.014324 0.189852
vn -0.981708 -0.014324 0.189852
vn -0.611998 0.201554 0.764745
vn -0.611998 0.201554 0.764745
vn -0.611998 0.201554 0.764745
vn -0.611998 0.201554 0.764745
vn 0.614546 0.459483 -0.641255
vn 0.614546 0.459483 -0.641255
vn 0.614546 0.459483 -0.641255
vn 0.614546 0.459483 -0.641255
vn -0.705385 0.592915 0.388437
vn -0.705385 0.592915 0.388437
vn -0.705385 0.592915 0.388437
vn -0.705385 0.592915 0.388437
vn 0.441795 0.618538 -0.649791
vn 0.441795 0.618538 -0.649791
vn 0.441795 0.618538 -0.649791
vn 0.441795 0.618538 -0.649791
vn 0.857585 0.012817 -0.514183
vn 0.857585 0.012817 -0.514183
vn 0.857585 0.012817 -0.514183
vn 0.857585 0.012817 -0.514183
vn -0.629867 -0.036380 0.775851
vn -0.629867 -0.036380 0.775851
vn -0.629867 -0.036380 0.775851
vn -0.629867 -0.036380 0.775851
vn 0.000000 -1.000000 0.000000
vn 0.000000 -1.000000 0.000000
vn 0.000000 -1.000000 0.000000
vn 0.000000 -1.000000 0.000000
vn 0.000000 -1.000000 0.000000
vn 0.000000 -1.000000 0.000000
vn 0.000000 -1.000000 0.000000
vn 0.000000 -1.000000 0.000000
vn 0.000000 -1.000000 0.000000
vn 0.976149 -0.115571 -0.183782
vn 0.976149 -0.115571 -0.183782
vn 0.976149 -0.115571 -0.183782
vn 0.976149 -0.115571 -0.183782
vn 0.034399 0.999255 0.017506
vn 0.034399 0.999255 0.017506
vn 0.034399 0.999255 0.017506
vn 0.034399 0.999255 0.017506
vn 0.034399 0.999255 0.017506
vn 0.034399 0.999255 0.017506
vn 0.034399 0.999255 0.017506
vn 0.034399 0.999255 0.017506
vn 0.694595 -0.012819 -0.719287
vn 0.694595 -0.012819 -0.719287
vn 0.694595 -0.012819 -0.719287
vn 0.694595 -0.012819 -0.719287
vn 0.981571 -0.159180 -0.105737
vn 0.981571 -0.159180 -0.105737
vn 0.981571 -0.159180 -0.105737
vn 0.981571 -0.159180 -0.105737
vn 0.828042 -0.043877 0.558946
vn 0.828042 -0.043877 0.558946
vn 0.828042 -0.043877 0.558946
vn 0.828042 -0.043877 0.558946
vn -0.632733 0.473550 0.612699
vn -0.632733 0.473550 0.612699
vn -0.632733 0.473550 0.612699
vn -0.632733 0.473550 0.612699
vn -0.792769 0.460142 -0.399734
vn -0.792769 0.460142 -0.399734
vn -0.792769 0.460142 -0.399734
vn -0.792769 0.460142 -0.399734
vn 0.811442 0.582415 0.048534
vn 0.811442 0.582415 0.048534
vn 0.811442 0.582415 0.048534
vn 0.811442 0.582415 0.048534
vn 0.814081 0.192474 0.547928
vn 0.814081 0.192474 0.547928
vn 0.814081 0.192474 0.547928
vn 0.814081 0.192474 0.547928
vn 0.783823 0.414585 -0.462321
vn 0.783823 0.414585 -0.462321
vn 0.783823 0.414585 -0.462321
vn 0.783823 0.414585 -0.462321
vn -0.587058 0.030185 -0.808982
vn -0.587058 0.030185 -0.808982
vn -0.587058 0.030185 -0.808982
vn -0.587058 0.030185 -0.808982
vn -0.898723 0.012337 0.438344
vn -0.898723 0.012337 0.438344
vn -0.898723 0.012337 0.438344
vn -0.898723 0.012337 0.438344
vn -0.936960 0.261787 -0.231459
vn -0.936960 0.261787 -0.231459
vn -0.936960 0.261787 -0.231459
vn -0.936960 0.261787 -0.231459
vn -0.528359 0.635581 -0.562915
vn -0.528359 0.635581 -0.562915
vn -0.528359 0.635581 -0.562915
vn -0.528359 0.635581 -0.562915
vn 0.034399 0.999255 0.017506
vn 0.034399 0.999255 0.017506
vn 0.034399 0.999255 0.017506
vn 0.034399 0.999255 0.017506
vn 0.034399 0.999255 0.017506
vn 0.034399 0.999255 0.017506
vn 0.034399 0.999255 0.017506
vn 0.034399 0.999255 0.017506
vn -0.365027 -0.090025 0.926634
vn -0.365027 -0.090025 0.926634
vn -0.365027 -0.090025 0.926634
vn -0.365027 -0.090025 0.926634
vn -0.538694 -0.045675 -0.841262
vn -0.538694 -0.045675 -0.841262
vn -0.538694 -0.045675 -0.841262
vn -0.538694 -0.045675 -0.841262
vn 0.034399 0.999255 0.017506
vn 0.034399 0.999255 0.017506
vn 0.034399 0.999255 0.017506
vn 0.034399 0.999255 0.017506
vn 0.034399 0.999255 0.017506
vn 0.034399 0.999255 0.017507
vn 0.034399 0.999255 0.017507
vn 0.034399 0.999255 0.017507
vn 0.075484 0.214001 -0.973913
vn 0.075484 0.214001 -0.973913
vn 0.075484 0.214001 -0.973913
vn 0.075484 0.214001 -0.973913
vn -0.446523 0.612865 0.651931
vn -0.446523 0.612865 0.651931
vn -0.446523 0.612865 0.651931
vn -0.446523 0.612865 0.651931
vn 0.993903 -0.034694 -0.104660
vn 0.993903 -0.034694 -0.104660
vn 0.993903 -0.034694 -0.104660
vn 0.993903 -0.034694 -0.104660
vn 0.791451 0.573695 -0.210904
vn 0.791451 0.573695 -0.210904
vn 0.791451 0.573695 -0.210904
vn 0.791451 0.573695 -0.210904
vn 0.861080 0.398623 0.315659
vn 0.861080 0.398623 0.315659
vn 0.861080 0.398623 0.315659
vn 0.861080 0.398623 0.315659
vn -0.969839 0.030172 -0.241872
vn -0.969839 0.030172 -0.241872
vn -0.969839 0.030172 -0.241872
vn -0.969839 0.030172 -0.241872
vn 0.687560 0.186605 -0.701741
vn 0.687560 0.186605 -0.701741
vn 0.687560 0.186605 -0.701741
vn 0.687560 0.186605 -0.701741
vn -0.548075 -0.092664 0.831281
vn -0.548075 -0.092664 0.831281
vn -0.548075 -0.092664 0.831281
vn -0.548075 -0.092664 0.831281
vn -0.867045 0.249856 0.431052
vn -0.867045 0.249856 0.431052
vn -0.867045 0.249856 0.431052
vn -0.867045 0.249856 0.431052
vn -0.570123 -0.062443 -0.819183
vn -0.570123 -0.062443 -0.819183
vn -0.570123 -0.062443 -0.819183
vn -0.570123 -0.062443 -0.819183
vn -0.045755 0.454885 0.889374
vn -0.045755 0.454885 0.889374
vn -0.045755 0.454885 0.889374
vn -0.045755 0.454885 0.889374
vn -0.407210 -0.014323 0.913222
vn -0.407210 -0.014323 0.913222
vn -0.407210 -0.014323 0.913222
vn -0.407210 -0.014323 0.913222
vn 0.275782 0.201556 0.939851
vn 0.275782 0.201556 0.939851
vn 0.275782 0.201556 0.939851
vn 0.275782 0.201556 0.939851
vn -0.173137 0.459485 -0.871147
vn -0.173137 0.459485 -0.871147
vn -0.173137 0.459485 -0.871147
vn -0.173137 0.459485 -0.871147
vn -0.086089 0.592916 0.800649
vn -0.086089 0.592916 0.800649
vn -0.086089 0.592916 0.800649
vn -0.086089 0.592916 0.800649
vn -0.279162 0.618538 -0.734492
vn -0.279162 0.618538 -0.734492
vn -0.279162 0.618538 -0.734492
vn -0.279162 0.618538 -0.734492
vn 0.070306 0.012818 -0.997443
vn 0.070306 0.012818 -0.997443
vn 0.070306 0.012818 -0.997443
vn 0.070306 0.012818 -0.997443
vn 0.274639 -0.036379 0.960859
vn 0.274639 -0.036379 0.960859
vn 0.274639 -0.036379 0.960859
vn 0.274639 -0.036379 0.960859
vn 0.000000 -1.000000 0.000000
vn 0.000000 -1.000000 0.000000
vn 0.000000 -1.000000 0.000000
vn 0.000000 -1.000000 0.000000
vn 0.000000 -1.000000 0.000000
vn 0.000000 -1.000000 0.000000
vn 0.000000 -1.000000 0.000000
vn 0.000000 -1.000000 0.000000
vn 0.000000 -1.000000 0.000000
vn 0.457388 -0.115572 0.881725
vn 0.457388 -0.115572 0.881725
vn 0.457388 -0.115572 0.881725
vn 0.457388 -0.115572 0.881725
vn -0.006847 0.999255 0.037985
vn -0.006847 0.999255 0.037985
vn -0.006847 0.999255 0.037985
vn -0.006847 0.999255 0.037985
vn -0.006847 0.999255 0.037985
vn -0.006846 0.999255 0.037985
vn -0.006846 0.999255 0.037985
vn -0.006846 0.999255 0.037985
vn 0.888990 -0.012819 0.457747
vn 0.888990 -0.012819 0.457747
vn 0.888990 -0.012819 0.457747
vn 0.888990 -0.012819 0.457747
vn 0.384220 -0.159181 0.909416
vn 0.384220 -0.159181 0.909416
vn 0.384220 -0.159181 0.909416
vn 0.384220 -0.159181 0.909416
vn -0.296505 -0.043879 0.954023
vn -0.296505 -0.043879 0.954023
vn -0.296505 -0.043879 0.954023
vn -0.296505 -0.043879 0.954023
vn -0.769093 0.473550 -0.429238
vn -0.769093 0.473550 -0.429238
vn -0.769093 0.473550 -0.429238
vn -0.769093 0.473550 -0.429238
vn 0.154221 0.460139 -0.874350
vn 0.154221 0.460139 -0.874350
vn 0.154221 0.460139 -0.874350
vn 0.154221 0.460139 -0.874350
vn 0.187452 0.582415 0.790984
vn 0.187452 0.582415 0.790984
vn 0.187452 0.582415 0.790984
vn 0.187452 0.582415 0.790984
vn -0.289978 0.192473 0.937479
vn -0.289978 0.192473 0.937479
vn -0.289978 0.192473 0.937479
vn -0.289978 0.192473 0.937479
vn 0.668657 0.414585 0.617266
vn 0.668657 0.414585 0.617266
vn 0.668657 0.414585 0.617266
vn 0.668657 0.414585 0.617266
vn 0.605398 0.030185 -0.795351
vn 0.605398 0.030185 -0.795351
vn 0.605398 0.030185 -0.795351
vn 0.605398 0.030185 -0.795351
vn -0.678821 0.012337 -0.734200
vn -0.678821 0.012337 -0.734200
vn -0.678821 0.012337 -0.734200
vn -0.678821 0.012337 -0.734200
vn -0.048478 0.261787 -0.963907
vn -0.048478 0.261787 -0.963907
vn -0.048478 0.261787 -0.963907
vn -0.048478 0.261787 -0.963907
vn 0.386700 0.635579 -0.668208
vn 0.386700 0.635579 -0.668208
vn 0.386700 0.635579 -0.668208
vn 0.386700 0.635579 -0.668208
vn -0.006846 0.999255 0.037985
vn -0.006846 0.999255 0.037985
vn -0.006846 0.999255 0.037985
vn -0.006846 0.999255 0.037985
vn -0.006846 0.999255 0.037985
vn -0.006846 0.999255 0.037986
vn -0.006846 0.999255 0.037986
vn -0.006846 0.999255 0.037986
vn -0.992525 -0.090026 -0.082396
vn -0.992525 -0.090026 -0.082396
vn -0.992525 -0.090026 -0.082396
vn -0.992525 -0.090026 -0.082396
vn 0.650250 -0.045673 -0.758346
vn 0.650250 -0.045673 -0.758346
vn 0.650250 -0.045673 -0.758346
vn 0.650250 -0.045673 -0.758346
vn -0.006846 0.999255 0.037986
vn -0.006846 0.999255 0.037986
vn -0.006846 0.999255 0.037986
vn -0.006846 0.999255 0.037986
vn -0.006846 0.999255 0.037986
vn -0.006847 0.999255 0.037985
vn -0.006847 0.999255 0.037985
vn -0.006847 0.999255 0.037985
vn 0.954326 0.214000 -0.208484
vn 0.954326 0.214000 -0.208484
vn 0.954326 0.214000 -0.208484
vn 0.954326 0.214000 -0.208484
vn -0.752978 0.612866 -0.239625
vn -0.752978 0.612866 -0.239625
vn -0.752978 0.612866 -0.239625
vn -0.752978 0.612866 -0.239625
vn 0.386743 -0.034695 0.921535
vn 0.386743 -0.034695 0.921535
vn 0.386743 -0.034695 0.921535
vn 0.386743 -0.034695 0.921535
vn 0.430113 0.573695 0.697049
vn 0.430113 0.573695 0.697049
vn 0.430113 0.573695 0.697049
vn 0.430113 0.573695 0.697049
vn -0.054022 0.398625 0.915522
vn -0.054022 0.398625 0.915522
vn -0.054022 0.398625 0.915522
vn -0.054022 0.398625 0.915522
vn -0.047986 0.030172 -0.998392
vn -0.047986 0.030172 -0.998392
vn -0.047986 0.030172 -0.998392
vn -0.047986 0.030172 -0.998392
vn 0.870162 0.186603 0.456068
vn 0.870162 0.186603 0.456068
vn 0.870162 0.186603 0.456068
vn 0.870162 0.186603 0.456068
vn -0.953990 -0.092665 -0.285161
vn -0.953990 -0.092665 -0.285161
vn -0.953990 -0.092665 -0.285161
vn -0.953990 -0.092665 -0.285161
vn -0.662707 0.249855 -0.705969
vn -0.662707 0.249855 -0.705969
vn -0.662707 0.249855 -0.705969
vn -0.662707 0.249855 -0.705969
vn 0.620048 -0.062441 -0.782075
vn 0.620048 -0.062441 -0.782075
vn 0.620048 -0.062441 -0.782075
vn 0.620048 -0.062441 -0.782075
vn -0.864806 0.454885 0.212580
vn -0.864806 0.454885 0.212580
vn -0.864806 0.454885 0.212580
vn -0.864806 0.454885 0.212580
vn -0.991844 -0.014324 -0.126654
vn -0.991844 -0.014324 -0.126654
vn -0.991844 -0.014324 -0.126654
vn -0.991844 -0.014324 -0.126654
vn -0.820447 0.201553 0.535018
vn -0.820447 0.201553 0.535018
vn -0.820447 0.201553 0.535018
vn -0.820447 0.201553 0.535018
vn 0.784250 0.459484 -0.416924
vn 0.784250 0.459484 -0.416924
vn 0.784250 0.459484 -0.416924
vn 0.784250 0.459484 -0.416924
vn -0.791477 0.592915 0.148379
vn -0.791477 0.592915 0.148379
vn -0.791477 0.592915 0.148379
vn -0.791477 0.592915 0.148379
vn 0.622832 0.618538 -0.479053
vn 0.622832 0.618538 -0.479053
vn 0.622832 0.618538 -0.479053
vn 0.622832 0.618538 -0.479053
vn 0.975365 0.012817 -0.220226
vn 0.975365 0.012817 -0.220226
vn 0.975365 0.012817 -0.220226
vn 0.975365 0.012817 -0.220226
vn -0.840892 -0.036380 0.539980
vn -0.840892 -0.036380 0.539980
vn -0.840892 -0.036380 0.539980
vn -0.840892 -0.036380 0.539980
vn 0.000000 -1.000000 0.000000
vn 0.000000 -1.000000 0.000000
vn 0.000000 -1.000000 0.000000
vn 0.000000 -1.000000 0.000000
vn 0.000000 -1.000000 0.000000
vn 0.000000 -1.000000 0.000000
vn 0.000000 -1.000000 0.000000
vn 0.000000 -1.000000 0.000000
vn 0.000000 -1.000000 0.000000
vn -0.006846 0.999255 0.037985
vn -0.006846 0.999255 0.037985
vn -0.006845 0.999255 0.037986
vn -0.006846 0.999255 0.037985
vn -0.006846 0.999255 0.037985
vn -0.006846 0.999255 0.037985
vn -0.006844 0.999255 0.037985
vn -0.006847 0.999255 0.037986
vn -0.006846 0.999255 0.037985
vn -0.006846 0.999255 0.037985
vn -0.006846 0.999255 0.037985
vn -0.006846 0.999255 0.037985
vn -0.006846 0.999255 0.037985
vn -0.006846 0.999255 0.037985
vn -0.006846 0.999255 0.037985
vn -0.006846 0.999255 0.037985
vn -0.006847 0.999255 0.037986
vn -0.006846 0.999255 0.037986
vn -0.006847 0.999255 0.037986
vn -0.006846 0.999255 0.037986
vn -0.006846 0.999255 0.037985
vn -0.006846 0.999255 0.037985
vn -0.006847 0.999255 0.037986
vn -0.006847 0.999255 0.037985
vn -0.006847 0.999255 0.037985
vn -0.006847 0.999255 0.037986
vn -0.006847 0.999255 0.037985
vn -0.006847 0.999255 0.037985
vn -0.006847 0.999255 0.037985
vn -0.006847 0.999255 0.037986
vn -0.006846 0.999255 0.037985
vn -0.006846 0.999255 0.037985
vn -0.006846 0.999255 0.037985
vn -0.006846 0.999255 0.037985
vn -0.006846 0.999255 0.037985
vn -0.006846 0.999255 0.037985
vn 0.034399 0.999255 0.017506
vn 0.034399 0.999255 0.017506
vn 0.034400 0.999255 0.017505
vn 0.034399 0.999255 0.017506
vn 0.034399 0.999255 0.017506
vn 0.034399 0.999255 0.017506
vn 0.034399 0.999255 0.017506
vn 0.034399 0.999255 0.017506
vn 0.034399 0.999255 0.017506
vn 0.034399 0.999255 0.017506
vn 0.034399 0.999255 0.017506
vn 0.034399 0.999255 0.017506
vn 0.034399 0.999255 0.017506
vn 0.034399 0.999255 0.017506
vn 0.034399 0.999255 0.017506
vn 0.034399 0.999255 0.017506
vn 0.034399 0.999255 0.017506
vn 0.034399 0.999255 0.017506
vn 0.034400 0.999255 0.017504
vn 0.034399 0.999255 0.017506
vn 0.034399 0.999255 0.017507
vn 0.034399 0.999255 0.017507
vn 0.034399 0.999255 0.017507
vn 0.034399 0.999255 0.017507
vn 0.034399 0.999255 0.017506
vn 0.034399 0.999255 0.017506
vn 0.034399 0.999255 0.017506
vn 0.034399 0.999255 0.017506
vn 0.034399 0.999255 0.017506
vn 0.034399 0.999255 0.017506
vn 0.034399 0.999255 0.017506
vn 0.034398 0.999255 0.017506
vn 0.034399 0.999255 0.017506
vn 0.034399 0.999255 0.017506
vn 0.034399 0.999255 0.017507
vn 0.034399 0.999255 0.017507
vn 0.005375 0.999255 0.038221
vn 0.005375 0.999255 0.038221
vn 0.005377 0.999255 0.038221
vn 0.005375 0.999255 0.038221
vn 0.005375 0.999255 0.038221
vn 0.005375 0.999255 0.038221
vn 0.005375 0.999255 0.038221
vn 0.005375 0.999255 0.038221
vn 0.005375 0.999255 0.038221
vn 0.005375 0.999255 0.038221
vn 0.005377 0.999255 0.038220
vn 0.005375 0.999255 0.038221
vn 0.005375 0.999255 0.038221
vn 0.005375 0.999255 0.038221
vn 0.005375 0.999255 0.038222
vn 0.005375 0.999255 0.038221
vn 0.005375 0.999255 0.038221
vn 0.005375 0.999255 0.038221
vn 0.005375 0.999255 0.038222
vn 0.005375 0.999255 0.038221
vn 0.005375 0.999255 0.038222
vn 0.005375 0.999255 0.038221
vn 0.005375 0.999255 0.038221
vn 0.005375 0.999255 0.038222
vn 0.005375 0.999255 0.038221
vn 0.005375 0.999255 0.038221
vn 0.005375 0.999255 0.038221
vn 0.005375 0.999255 0.038221
vn 0.005375 0.999255 0.038221
vn 0.005375 0.999255 0.038221
vn 0.005375 0.999255 0.038222
vn 0.005375 0.999255 0.038222
vn 0.005375 0.999255 0.038221
vn 0.005375 0.999255 0.038221
vn 0.005375 0.999255 0.038221
vn 0.005375 0.999255 0.038221
vn 0.022646 0.999255 -0.031256
vn 0.022646 0.999255 -0.031256
vn 0.022645 0.999255 -0.031257
vn 0.022646 0.999255 -0.031256
vn 0.022646 0.999255 -0.031256
vn 0.022646 0.999255 -0.031256
vn 0.022646 0.999255 -0.031256
vn 0.022646 0.999255 -0.031256
vn 0.022646 0.999255 -0.031256
vn 0.022646 0.999255 -0.031256
vn 0.022646 0.999255 -0.031256
vn 0.022646 0.999255 -0.031256
vn 0.022646 0.999255 -0.031256
vn 0.022645 0.999255 -0.031256
vn 0.022646 0.999255 -0.031256
vn 0.022646 0.999255 -0.031256
vn 0.022646 0.999255 -0.031256
vn 0.022646 0.999255 -0.031256
vn 0.022646 0.999255 -0.031256
vn 0.022644 0.999255 -0.031257
vn 0.022646 0.999255 -0.031256
vn 0.022646 0.999255 -0.031256
vn 0.022646 0.999255 -0.031256
vn 0.022646 0.999255 -0.031256
vn 0.022646 0.999255 -0.031256
vn 0.022646 0.999255 -0.031256
vn 0.022646 0.999255 -0.031256
vn 0.022646 0.999255 -0.031256
vn 0.022646 0.999255 -0.031256
vn 0.022646 0.999255 -0.031256
vn 0.022646 0.999255 -0.031256
vn 0.022646 0.999255 -0.031256
vn 0.022646 0.999255 -0.031255
vn 0.022646 0.999255 -0.031256
vn 0.022646 0.999255 -0.031256
vn 0.022646 0.999255 -0.031256
vn 0.022646 0.999255 -0.031256
vn 0.022646 0.999255 -0.031256
vn 0.022645 0.999255 -0.031257
vn 0.022646 0.999255 -0.031256
vn 0.022646 0.999255 -0.031256
vn 0.022646 0.999255 -0.031256
vn 0.022646 0.999255 -0.031256
vn 0.022646 0.999255 -0.031256
vn 0.022646 0.999255 -0.031256
vn 0.022646 0.999255 -0.031256
vn 0.022646 0.999255 -0.031256
vn 0.022646 0.999255 -0.031256
vn 0.022646 0.999255 -0.031256
vn 0.022645 0.999255 -0.031256
vn 0.022646 0.999255 -0.031256
vn 0.022646 0.999255 -0.031256
vn 0.022646 0.999255 -0.031256
vn 0.022646 0.999255 -0.031256
vn 0.022646 0.999255 -0.031256
vn 0.022644 0.999255 -0.031257
vn 0.022646 0.999255 -0.031256
vn 0.022646 0.999255 -0.031256
vn 0.022646 0.999255 -0.031256
vn 0.022646 0.999255 -0.031256
vn 0.022646 0.999255 -0.031256
vn 0.022646 0.999255 -0.031256
vn 0.022646 0.999255 -0.031256
vn 0.022646 0.999255 -0.031256
vn 0.022646 0.999255 -0.031256
vn 0.022646 0.999255 -0.031256
vn 0.022646 0.999255 -0.031256
vn 0.022646 0.999255 -0.031256
vn 0.022646 0.999255 -0.031255
vn 0.022646 0.999255 -0.031256
vn 0.022646 0.999255 -0.031256
vn 0.022646 0.999255 -0.031256
g Tomato_Slice_Red
usemtl Red
f 1 2 3
f 1 3 4
f 5 6 7
f 5 7 8
f 8 9 5
f 9 8 10
f 9 10 11
f 11 12 9
f 13 14 15
f 13 15 16
f 17 18 19
f 17 19 20
f 21 22 23
f 21 23 24
f 25 26 27
f 25 27 28
f 29 30 31
f 29 31 32
f 33 34 35
f 33 35 36
f 37 38 39
f 37 39 40
f 41 42 43
f 41 43 44
f 45 46 47
f 45 47 48
f 49 50 51
f 49 51 52
f 53 54 55
f 53 55 56
f 57 58 59
f 57 59 60
f 61 62 63
f 63 64 61
f 63 65 64
f 66 61 64
f 64 67 66
f 67 68 66
f 69 70 71
f 69 71 72
f 73 74 75
f 73 75 76
f 77 78 79
f 79 80 77
f 80 81 77
f 77 81 82
f 83 77 82
f 82 84 83
f 85 86 87
f 85 87 88
f 89 90 91
f 89 91 92
f 93 94 95
f 93 95 96
f 97 98 99
f 97 99 100
f 101 102 103
f 101 103 104
f 105 106 107
f 105 107 108
f 109 110 111
f 109 111 112
f 113 114 115
f 113 115 116
f 117 118 119
f 117 119 120
f 121 122 123
f 121 123 124
f 125 126 127
f 125 127 128
f 129 130 131
f 129 131 132
f 133 134 135
f 133 135 136
f 137 138 139
f 137 139 140
f 141 142 143
f 141 143 144
f 145 146 147
f 145 147 148
f 149 150 151
f 149 151 152
f 153 154 155
f 153 155 156
f 157 158 159
f 159 160 157
f 160 161 157
f 160 162 161
f 162 163 161
f 162 164 163
f 164 165 163
f 166 167 168
f 166 168 169
f 170 171 172
f 170 172 173
f 173 174 170
f 174 173 175
f 174 175 176
f 176 177 174
f 178 179 180
f 178 180 181
f 182 183 184
f 182 184 185
f 186 187 188
f 186 188 189
f 190 191 192
f 190 192 193
f 194 195 196
f 194 196 197
f 198 199 200
f 198 200 201
f 202 203 204
f 202 204 205
f 206 207 208
f 206 208 209
f 210 211 212
f 210 212 213
f 214 215 216
f 214 216 217
f 218 219 220
f 218 220 221
f 222 223 224
f 222 224 225
f 226 227 228
f 228 229 226
f 228 230 229
f 231 226 229
f 229 232 231
f 232 233 231
f 234 235 236
f 234 236 237
f 238 239 240
f 238 240 241
f 242 243 244
f 244 245 242
f 245 246 242
f 242 246 247
f 248 242 247
f 247 249 248
f 250 251 252
f 250 252 253
f 254 255 256
f 254 256 257
f 258 259 260
f 258 260 261
f 262 263 264
f 262 264 265
f 266 267 268
f 266 268 269
f 270 271 272
f 270 272 273
f 274 275 276
f 274 276 277
f 278 279 280
f 278 280 281
f 282 283 284
f 282 284 285
f 286 287 288
f 286 288 289
f 290 291 292
f 290 292 293
f 294 295 296
f 294 296 297
f 298 299 300
f 298 300 301
f 302 303 304
f 302 304 305
f 306 307 308
f 306 308 309
f 310 311 312
f 310 312 313
f 314 315 316
f 314 316 317
f 318 319 320
f 318 320 321
f 322 323 324
f 324 325 322
f 325 326 322
f 325 327 326
f 327 328 326
f 327 329 328
f 329 330 328
f 331 332 333
f 331 333 334
f 335 336 337
f 337 338 335
f 337 339 338
f 340 335 338
f 338 341 340
f 341 342 340
f 343 344 345
f 343 345 346
f 347 348 349
f 347 349 350
f 351 352 353
f 351 353 354
f 355 356 357
f 355 357 358
f 359 360 361
f 359 361 362
f 363 364 365
f 363 365 366
f 367 368 369
f 367 369 370
f 371 372 373
f 371 373 374
f 375 376 377
f 375 377 378
f 379 380 381
f 379 381 382
f 383 384 385
f 383 385 386
f 387 388 389
f 387 389 390
f 391 392 393
f 393 394 391
f 394 395 391
f 396 395 394
f 396 394 397
f 397 398 396
f 399 400 401
f 399 401 402
f 403 404 405
f 403 405 406
f 407 408 409
f 409 410 407
f 409 411 410
f 411 409 412
f 412 413 411
f 412 414 413
f 415 416 417
f 415 417 418
f 419 420 421
f 419 421 422
f 423 424 425
f 423 425 426
f 427 428 429
f 427 429 430
f 431 432 433
f 431 433 434
f 435 436 437
f 435 437 438
f 439 440 441
f 439 441 442
f 443 444 445
f 443 445 446
f 447 448 449
f 447 449 450
f 451 452 453
f 451 453 454
f 455 456 457
f 455 457 458
f 459 460 461
f 459 461 462
f 463 464 465
f 463 465 466
f 467 468 469
f 467 469 470
f 471 472 473
f 471 473 474
f 475 476 477
f 475 477 478
f 479 480 481
f 479 481 482
f 483 484 485
f 483 485 486
f 487 488 489
f 489 490 487
f 489 491 490
f 491 492 490
f 491 493 492
f 493 494 492
f 493 495 494
f 496 497 498
f 496 498 499
f 500 501 502
f 500 502 503
f 503 504 500
f 505 504 503
f 503 506 505
f 506 507 505
f 508 509 510
f 508 510 511
f 512 513 514
f 512 514 515
f 516 517 518
f 516 518 519
f 520 521 522
f 520 522 523
f 524 525 526
f 524 526 527
f 528 529 530
f 528 530 531
f 532 533 534
f 532 534 535
f 536 537 538
f 536 538 539
f 540 541 542
f 540 542 543
f 544 545 546
f 544 546 547
f 548 549 550
f 548 550 551
f 552 553 554
f 552 554 555
f 556 557 558
f 558 559 556
f 559 560 556
f 556 560 561
f 561 562 556
f 562 563 556
f 564 565 566
f 564 566 567
f 568 569 570
f 568 570 571
f 572 573 574
f 574 575 572
f 574 576 575
f 576 574 577
f 577 578 576
f 574 579 577
f 580 581 582
f 580 582 583
f 584 585 586
f 584 586 587
f 588 589 590
f 588 590 591
f 592 593 594
f 592 594 595
f 596 597 598
f 596 598 599
f 600 601 602
f 600 602 603
f 604 605 606
f 604 606 607
f 608 609 610
f 608 610 611
f 612 613 614
f 612 614 615
f 616 617 618
f 616 618 619
f 620 621 622
f 620 622 623
f 624 625 626
f 624 626 627
f 628 629 630
f 628 630 631
f 632 633 634
f 632 634 635
f 636 637 638
f 636 638 639
f 640 641 642
f 640 642 643
f 644 645 646
f 644 646 647
f 648 649 650
f 648 650 651
f 652 653 654
f 654 655 652
f 655 656 652
f 655 657 656
f 657 658 656
f 657 659 658
f 659 660 658
f 661 662 663
f 661 663 664
f 665 666 667
f 667 668 665
f 668 669 665
f 670 665 669
f 669 671 670
f 671 672 670
f 673 674 675
f 673 675 676
f 677 678 679
f 677 679 680
f 681 682 683
f 681 683 684
f 685 686 687
f 685 687 688
f 689 690 691
f 689 691 692
f 693 694 695
f 693 695 696
f 697 698 699
f 697 699 700
f 701 702 703
f 701 703 704
f 705 706 707
f 705 707 708
f 709 710 711
f 709 711 712
f 713 714 715
f 713 715 716
f 717 718 719
f 717 719 720
f 721 722 723
f 723 724 721
f 724 725 721
f 726 725 724
f 726 724 727
f 727 728 726
f 729 730 731
f 729 731 732
f 733 734 735
f 733 735 736
f 737 738 739
f 739 740 737
f 740 741 737
f 740 739 742
f 742 743 740
f 742 744 743
f 745 746 747
f 745 747 748
f 749 750 751
f 749 751 752
f 753 754 755
f 753 755 756
f 757 758 759
f 757 759 760
f 761 762 763
f 761 763 764
f 765 766 767
f 765 767 768
f 769 770 771
f 769 771 772
f 773 774 775
f 773 775 776
f 777 778 779
f 777 779 780
f 781 782 783
f 781 783 784
f 785 786 787
f 785 787 788
f 789 790 791
f 789 791 792
f 793 794 795
f 793 795 796
f 797 798 799
f 797 799 800
f 801 802 803
f 801 803 804
f 805 806 807
f 805 807 808
f 809 810 811
f 809 811 812
f 813 814 815
f 813 815 816
f 817 818 819
f 819 820 817
f 820 821 817
f 820 822 821
f 822 823 821
f 822 824 823
f 824 825 823
f 826 827 828
f 828 827 829
f 830 827 826
f 831 829 827
f 830 831 827
f 831 830 832
f 831 833 829
f 832 830 834
f 834 830 826
f 834 826 835
f 835 836 834
f 837 836 835
f 833 838 829
f 837 835 839
f 840 837 839
f 840 839 841
f 842 837 840
f 841 839 843
f 842 844 837
f 841 843 845
f 846 844 842
f 845 843 847
f 846 848 844
f 849 848 846
f 845 847 850
f 849 851 848
f 852 851 849
f 851 833 848
f 852 853 851
f 854 853 852
f 851 855 833
f 854 856 853
f 850 856 854
f 850 847 856
f 847 857 856
f 833 855 838
f 847 838 857
f 855 857 838
f 855 858 857
f 858 859 857
f 858 860 859
f 861 860 858
f 859 860 861
f 862 863 864
f 864 863 865
f 865 863 862
f 862 866 865
f 862 867 866
f 867 868 866
f 869 866 868
f 867 870 868
f 871 870 867
f 871 867 872
f 870 873 868
f 870 874 873
f 869 868 875
f 874 876 873
f 873 876 877
f 877 876 878
f 874 879 876
f 879 878 876
f 880 879 874
f 881 879 880
f 879 881 878
f 881 882 878
f 881 883 882
f 884 882 883
f 884 883 885
f 886 869 875
f 886 875 887
f 888 869 886
f 887 875 889
f 888 890 869
f 887 889 891
f 891 889 884
f 892 890 888
f 891 884 893
f 893 884 885
f 892 872 890
f 893 885 894
f 895 872 892
f 894 885 896
f 895 871 872
f 894 896 897
f 897 871 895
f 897 896 871
f 898 899 900
f 900 899 901
f 902 899 898
f 902 901 899
f 903 902 898
f 898 904 903
f 905 903 904
f 905 904 906
f 902 907 901
f 908 907 902
f 907 909 901
f 910 907 908
f 907 910 909
f 910 911 909
f 910 912 911
f 913 909 911
f 914 905 906
f 914 906 915
f 916 905 914
f 915 906 917
f 916 918 905
f 915 917 919
f 919 917 913
f 920 918 916
f 920 921 918
f 919 913 922
f 923 921 920
f 922 913 924
f 913 911 924
f 922 924 925
f 925 924 926
f 925 926 927
f 927 926 928
f 927 928 923
f 923 928 921
f 928 912 921
f 928 929 912
f 912 929 911
f 929 930 911
f 929 931 930
f 931 932 930
f 933 932 931
f 930 932 933
f 934 935 936
f 936 935 937
f 935 934 938
f 934 939 938
f 937 935 940
f 935 938 940
f 937 940 941
f 942 940 938
f 943 937 941
f 939 944 938
f 942 938 945
f 943 941 946
f 947 946 941
f 948 946 947
f 943 946 948
f 948 949 943
f 950 943 949
f 950 949 951
f 939 952 944
f 944 952 953
f 953 952 954
f 939 954 952
f 939 955 954
f 956 955 939
f 956 939 957
f 958 950 951
f 958 951 959
f 960 950 958
f 959 951 961
f 960 962 950
f 959 961 963
f 964 962 960
f 964 957 962
f 963 961 942
f 965 957 964
f 965 956 957
f 963 942 966
f 967 956 965
f 966 942 945
f 967 968 956
f 966 945 969
f 969 968 967
f 969 945 968
f 970 971 972
f 972 971 973
f 971 970 974
f 970 975 974
f 973 971 976
f 971 974 976
f 973 976 977
f 978 976 974
f 979 973 977
f 975 980 974
f 978 974 981
f 979 977 982
f 983 982 977
f 984 982 983
f 979 982 984
f 984 985 979
f 986 979 985
f 986 985 987
f 975 988 980
f 980 988 989
f 989 988 990
f 975 990 988
f 975 991 990
f 992 991 975
f 992 975 993
f 994 986 987
f 994 987 995
f 996 986 994
f 995 987 997
f 996 998 986
f 995 997 999
f 1000 998 996
f 1000 993 998
f 999 997 978
f 1001 993 1000
f 1001 992 993
f 999 978 1002
f 1003 992 1001
f 1002 978 981
f 1003 1004 992
f 1002 981 1005
f 1005 1004 1003
f 1005 981 1004
