mtllib Materials.mtl
# Ultimate Food Pack - Tomato
o Tomato
v 0.376245 0.074595 -0.000002
v 0.350964 0.074595 0.150197
v 0.327170 -0.036438 0.139787
v 0.350964 -0.044706 -0.000002
v 0.350964 0.074595 0.150197
v 0.275492 0.074595 0.275486
v 0.256532 -0.028169 0.256526
v 0.327170 -0.036438 0.139787
v 0.350964 -0.044706 -0.000002
v 0.327170 -0.036438 0.139787
v 0.256532 -0.129162 0.129377
v 0.275492 -0.144222 -0.000002
v 0.327170 -0.036438 0.139787
v 0.256532 -0.028169 0.256526
v 0.218115 -0.098647 0.218108
v 0.256532 -0.129162 0.129377
v 0.376245 0.074595 -0.000002
v 0.348649 0.158515 -0.006751
v 0.318874 0.162487 0.136243
v 0.350964 0.074595 0.150197
v 0.348649 0.158515 -0.006751
v 0.270007 0.270007 0.000000
v 0.251423 0.251423 0.126805
v 0.318874 0.162487 0.136243
v 0.350964 0.074595 0.150197
v 0.318874 0.162487 0.136243
v 0.245108 0.164438 0.248339
v 0.275492 0.074595 0.275486
v 0.318874 0.162487 0.136243
v 0.251423 0.251423 0.126805
v 0.213770 0.213770 0.213770
v 0.245108 0.164438 0.248339
v 0.376245 0.074595 -0.000002
v 0.344233 0.057922 -0.148981
v 0.318874 0.162487 -0.136249
v 0.348649 0.158515 -0.006751
v 0.344233 0.057922 -0.148981
v 0.275492 0.074595 -0.275490
v 0.250027 0.152341 -0.250029
v 0.318874 0.162487 -0.136249
v 0.348649 0.158515 -0.006751
v 0.318874 0.162487 -0.136249
v 0.251423 0.251423 -0.126805
v 0.270007 0.270007 0.000000
v 0.318874 0.162487 -0.136249
v 0.250027 0.152341 -0.250029
v 0.213770 0.213770 -0.213770
v 0.251423 0.251423 -0.126805
v 0.376245 0.074595 -0.000002
v 0.350964 -0.044706 -0.000002
v 0.327170 -0.036438 -0.139791
v 0.344233 0.057922 -0.148981
v 0.350964 -0.044706 -0.000002
v 0.275492 -0.144222 -0.000002
v 0.256532 -0.129162 -0.129381
v 0.327170 -0.036438 -0.139791
v 0.344233 0.057922 -0.148981
v 0.327170 -0.036438 -0.139791
v 0.256532 -0.028169 -0.256529
v 0.275492 0.074595 -0.275490
v 0.327170 -0.036438 -0.139791
v 0.256532 -0.129162 -0.129381
v 0.218115 -0.098648 -0.218112
v 0.256532 -0.028169 -0.256529
v 0.000004 0.074595 -0.376242
v 0.148780 0.056379 -0.350816
v 0.139793 -0.036438 -0.327168
v 0.000004 -0.044706 -0.350961
v 0.148780 0.056379 -0.350816
v 0.275492 0.074595 -0.275490
v 0.256532 -0.028169 -0.256529
v 0.139793 -0.036438 -0.327168
v 0.000004 -0.044706 -0.350961
v 0.139793 -0.036438 -0.327168
v 0.129383 -0.129162 -0.256529
v 0.000004 -0.144222 -0.275490
v 0.139793 -0.036438 -0.327168
v 0.256532 -0.028169 -0.256529
v 0.218115 -0.098648 -0.218112
v 0.129383 -0.129162 -0.256529
v 0.000004 0.074595 -0.376242
v 0.000001 0.172633 -0.342068
v 0.136247 0.162487 -0.318877
v 0.148780 0.056379 -0.350816
v 0.000001 0.172633 -0.342068
v 0.000000 0.270007 -0.270007
v 0.126805 0.251423 -0.251423
v 0.136247 0.162487 -0.318877
v 0.148780 0.056379 -0.350816
v 0.136247 0.162487 -0.318877
v 0.250027 0.152341 -0.250029
v 0.275492 0.074595 -0.275490
v 0.136247 0.162487 -0.318877
v 0.126805 0.251423 -0.251423
v 0.213770 0.213770 -0.213770
v 0.250027 0.152341 -0.250029
v 0.000004 0.074595 -0.376242
v -0.151137 0.052852 -0.351157
v -0.136246 0.162487 -0.318877
v 0.000001 0.172633 -0.342068
v -0.151137 0.052852 -0.351157
v -0.278403 0.063374 -0.271058
v -0.250025 0.152341 -0.250029
v -0.136246 0.162487 -0.318877
v 0.000001 0.172633 -0.342068
v -0.136246 0.162487 -0.318877
v -0.126805 0.251423 -0.251423
v 0.000000 0.270007 -0.270007
v -0.136246 0.162487 -0.318877
v -0.250025 0.152341 -0.250029
v -0.213770 0.213770 -0.213770
v -0.126805 0.251423 -0.251423
v 0.000004 0.074595 -0.376242
v 0.000004 -0.044706 -0.350961
v -0.139785 -0.036438 -0.327168
v -0.151137 0.052852 -0.351157
v 0.000004 -0.044706 -0.350961
v 0.000004 -0.144222 -0.275490
v -0.129375 -0.129162 -0.256529
v -0.139785 -0.036438 -0.327168
v -0.151137 0.052852 -0.351157
v -0.139785 -0.036438 -0.327168
v -0.256523 -0.028169 -0.256529
v -0.278403 0.063374 -0.271058
v -0.139785 -0.036438 -0.327168
v -0.129375 -0.129162 -0.256529
v -0.218106 -0.098648 -0.218112
v -0.256523 -0.028169 -0.256529
v -0.376236 0.074595 -0.000002
v -0.350955 0.074595 -0.150201
v -0.327161 -0.036438 -0.139791
v -0.350955 -0.044706 -0.000002
v -0.350955 0.074595 -0.150201
v -0.278403 0.063374 -0.271058
v -0.256523 -0.028169 -0.256529
v -0.327161 -0.036438 -0.139791
v -0.350955 -0.044706 -0.000002
v -0.327161 -0.036438 -0.139791
v -0.256523 -0.129162 -0.129381
v -0.275484 -0.144222 -0.000002
v -0.327161 -0.036438 -0.139791
v -0.256523 -0.028169 -0.256529
v -0.218106 -0.098648 -0.218112
v -0.256523 -0.129162 -0.129381
v -0.376236 0.074595 -0.000002
v -0.342064 0.172633 -0.000003
v -0.318873 0.162487 -0.136249
v -0.350955 0.074595 -0.150201
v -0.342064 0.172633 -0.000003
v -0.270007 0.270007 0.000000
v -0.251423 0.251423 -0.126805
v -0.318873 0.162487 -0.136249
v -0.350955 0.074595 -0.150201
v -0.318873 0.162487 -0.136249
v -0.250025 0.152341 -0.250029
v -0.278403 0.063374 -0.271058
v -0.318873 0.162487 -0.136249
v -0.251423 0.251423 -0.126805
v -0.213770 0.213770 -0.213770
v -0.250025 0.152341 -0.250029
v -0.376236 0.074595 -0.000002
v -0.350955 0.074595 0.150197
v -0.318873 0.162487 0.136243
v -0.342064 0.172633 -0.000003
v -0.350955 0.074595 0.150197
v -0.275484 0.074595 0.275486
v -0.250025 0.152341 0.250023
v -0.318873 0.162487 0.136243
v -0.342064 0.172633 -0.000003
v -0.318873 0.162487 0.136243
v -0.251423 0.251423 0.126805
v -0.270007 0.270007 0.000000
v -0.318873 0.162487 0.136243
v -0.250025 0.152341 0.250023
v -0.213770 0.213770 0.213770
v -0.251423 0.251423 0.126805
v -0.376236 0.074595 -0.000002
v -0.350955 -0.044706 -0.000002
v -0.327161 -0.036438 0.139787
v -0.350955 0.074595 0.150197
v -0.350955 -0.044706 -0.000002
v -0.275484 -0.144222 -0.000002
v -0.256523 -0.129162 0.129377
v -0.327161 -0.036438 0.139787
v -0.350955 0.074595 0.150197
v -0.327161 -0.036438 0.139787
v -0.256523 -0.028169 0.256526
v -0.275484 0.074595 0.275486
v -0.327161 -0.036438 0.139787
v -0.256523 -0.129162 0.129377
v -0.218106 -0.098647 0.218108
v -0.256523 -0.028169 0.256526
v 0.000004 0.074595 0.376238
v -0.150195 0.074595 0.350957
v -0.139785 -0.036438 0.327164
v 0.000004 -0.044706 0.350957
v -0.150195 0.074595 0.350957
v -0.275484 0.074595 0.275486
v -0.256523 -0.028169 0.256526
v -0.139785 -0.036438 0.327164
v 0.000004 -0.044706 0.350957
v -0.139785 -0.036438 0.327164
v -0.129375 -0.129162 0.256526
v 0.000004 -0.144222 0.275486
v -0.139785 -0.036438 0.327164
v -0.256523 -0.028169 0.256526
v -0.218106 -0.098647 0.218108
v -0.129375 -0.129162 0.256526
v 0.000004 0.074595 0.376238
v 0.000001 0.172633 0.342062
v -0.136246 0.162487 0.318871
v -0.150195 0.074595 0.350957
v 0.000001 0.172633 0.342062
v 0.000000 0.270007 0.270007
v -0.126805 0.251423 0.251423
v -0.136246 0.162487 0.318871
v -0.150195 0.074595 0.350957
v -0.136246 0.162487 0.318871
v -0.250025 0.152341 0.250023
v -0.275484 0.074595 0.275486
v -0.136246 0.162487 0.318871
v -0.126805 0.251423 0.251423
v -0.213770 0.213770 0.213770
v -0.250025 0.152341 0.250023
v 0.000004 0.074595 0.376238
v 0.150203 0.074595 0.350957
v 0.136247 0.162487 0.318871
v 0.000001 0.172633 0.342062
v 0.150203 0.074595 0.350957
v 0.275492 0.074595 0.275486
v 0.245108 0.164438 0.248339
v 0.136247 0.162487 0.318871
v 0.000001 0.172633 0.342062
v 0.136247 0.162487 0.318871
v 0.126805 0.251423 0.251423
v 0.000000 0.270007 0.270007
v 0.136247 0.162487 0.318871
v 0.245108 0.164438 0.248339
v 0.213770 0.213770 0.213770
v 0.126805 0.251423 0.251423
v 0.000004 0.074595 0.376238
v 0.000004 -0.044706 0.350957
v 0.139793 -0.036438 0.327164
v 0.150203 0.074595 0.350957
v 0.000004 -0.044706 0.350957
v 0.000004 -0.144222 0.275486
v 0.129383 -0.129162 0.256526
v 0.139793 -0.036438 0.327164
v 0.150203 0.074595 0.350957
v 0.139793 -0.036438 0.327164
v 0.256532 -0.028169 0.256526
v 0.275492 0.074595 0.275486
v 0.139793 -0.036438 0.327164
v 0.129383 -0.129162 0.256526
v 0.218115 -0.098647 0.218108
v 0.256532 -0.028169 0.256526
v 0.000004 -0.224248 -0.000002
v 0.000004 -0.204168 -0.150201
v 0.139793 -0.185269 -0.139791
v 0.150203 -0.204168 -0.000002
v 0.000004 -0.204168 -0.150201
v 0.000004 -0.144222 -0.275490
v 0.129383 -0.129162 -0.256529
v 0.139793 -0.185269 -0.139791
v 0.150203 -0.204168 -0.000002
v 0.139793 -0.185269 -0.139791
v 0.256532 -0.129162 -0.129381
v 0.275492 -0.144222 -0.000002
v 0.139793 -0.185269 -0.139791
v 0.129383 -0.129162 -0.256529
v 0.218115 -0.098648 -0.218112
v 0.256532 -0.129162 -0.129381
v 0.000004 -0.224248 -0.000002
v -0.150195 -0.204168 -0.000002
v -0.139785 -0.185269 -0.139791
v 0.000004 -0.204168 -0.150201
v -0.150195 -0.204168 -0.000002
v -0.275484 -0.144222 -0.000002
v -0.256523 -0.129162 -0.129381
v -0.139785 -0.185269 -0.139791
v 0.000004 -0.204168 -0.150201
v -0.139785 -0.185269 -0.139791
v -0.129375 -0.129162 -0.256529
v 0.000004 -0.144222 -0.275490
v -0.139785 -0.185269 -0.139791
v -0.256523 -0.129162 -0.129381
v -0.218106 -0.098648 -0.218112
v -0.129375 -0.129162 -0.256529
v 0.000004 -0.224248 -0.000002
v 0.000004 -0.204168 0.150197
v -0.139785 -0.185269 0.139787
v -0.150195 -0.204168 -0.000002
v 0.000004 -0.204168 0.150197
v 0.000004 -0.144222 0.275486
v -0.129375 -0.129162 0.256526
v -0.139785 -0.185269 0.139787
v -0.150195 -0.204168 -0.000002
v -0.139785 -0.185269 0.139787
v -0.256523 -0.129162 0.129377
v -0.275484 -0.144222 -0.000002
v -0.139785 -0.185269 0.139787
v -0.129375 -0.129162 0.256526
v -0.218106 -0.098647 0.218108
v -0.256523 -0.129162 0.129377
v 0.000004 -0.224248 -0.000002
v 0.150203 -0.204168 -0.000002
v 0.139793 -0.185269 0.139787
v 0.000004 -0.204168 0.150197
v 0.150203 -0.204168 -0.000002
v 0.275492 -0.144222 -0.000002
v 0.256532 -0.129162 0.129377
v 0.139793 -0.185269 0.139787
v 0.000004 -0.204168 0.150197
v 0.139793 -0.185269 0.139787
v 0.129383 -0.129162 0.256526
v 0.000004 -0.144222 0.275486
v 0.139793 -0.185269 0.139787
v 0.256532 -0.129162 0.129377
v 0.218115 -0.098647 0.218108
v 0.129383 -0.129162 0.256526
v 0.000000 0.343976 -0.147210
v 0.000000 0.270007 -0.270007
v -0.126805 0.251423 -0.251423
v -0.137007 0.320656 -0.137007
v -0.147210 0.343976 0.000000
v -0.137007 0.320656 -0.137007
v -0.251423 0.251423 -0.126805
v -0.270007 0.270007 0.000000
v -0.137007 0.320656 -0.137007
v -0.126805 0.251423 -0.251423
v -0.213770 0.213770 -0.213770
v -0.251423 0.251423 -0.126805
v 0.147210 0.343976 0.000000
v 0.270007 0.270007 0.000000
v 0.251423 0.251423 -0.126805
v 0.137007 0.320656 -0.137007
v 0.000000 0.343976 -0.147210
v 0.137007 0.320656 -0.137007
v 0.126805 0.251423 -0.251423
v 0.000000 0.270007 -0.270007
v 0.137007 0.320656 -0.137007
v 0.251423 0.251423 -0.126805
v 0.213770 0.213770 -0.213770
v 0.126805 0.251423 -0.251423
v 0.000000 0.339785 0.147210
v 0.000000 0.270007 0.270007
v 0.126805 0.251423 0.251423
v 0.137007 0.320656 0.137007
v 0.147210 0.343976 0.000000
v 0.137007 0.320656 0.137007
v 0.251423 0.251423 0.126805
v 0.270007 0.270007 0.000000
v 0.137007 0.320656 0.137007
v 0.126805 0.251423 0.251423
v 0.213770 0.213770 0.213770
v 0.251423 0.251423 0.126805
v -0.147210 0.343976 0.000000
v -0.270007 0.270007 0.000000
v -0.251423 0.251423 0.126805
v -0.137007 0.320656 0.137007
v 0.000000 0.339785 0.147210
v -0.137007 0.320656 0.137007
v -0.126805 0.251423 0.251423
v 0.000000 0.270007 0.270007
v -0.137007 0.320656 0.137007
v -0.251423 0.251423 0.126805
v -0.213770 0.213770 0.213770
v -0.126805 0.251423 0.251423
v 0.137007 0.320656 -0.137007
v 0.000000 0.343976 -0.147210
v 0.000000 0.357566 -0.044234
v 0.041915 0.357957 0.000000
v 0.147210 0.343976 0.000000
v 0.041915 0.357957 0.000000
v 0.000000 0.356896 0.048219
v 0.000000 0.339785 0.147210
v 0.137007 0.320656 0.137007
v 0.147210 0.343976 0.000000
v -0.041919 0.357956 0.000000
v -0.147210 0.343976 0.000000
v -0.137007 0.320656 0.137007
v 0.000000 0.339785 0.147210
v 0.000000 0.356896 0.048219
v -0.137007 0.320656 -0.137007
v -0.147210 0.343976 0.000000
v -0.041919 0.357956 0.000000
v 0.000000 0.343976 -0.147210
v 0.000000 0.357566 -0.044234
v 0.000000 0.402130 0.000202
v 0.000000 0.396568 -0.032846
v -0.031318 0.396859 0.000202
v 0.000000 0.402130 0.000202
v 0.031314 0.396859 0.000202
v 0.000000 0.396568 -0.032846
v 0.000000 0.402130 0.000202
v 0.000000 0.396067 0.036226
v 0.031314 0.396859 0.000202
v 0.000000 0.402130 0.000202
v -0.031318 0.396859 0.000202
v 0.000000 0.396067 0.036226
v -0.041919 0.357956 0.000000
v -0.031318 0.396859 0.000202
v 0.000000 0.396568 -0.032846
v 0.000000 0.357566 -0.044234
v 0.000000 0.357566 -0.044234
v 0.000000 0.396568 -0.032846
v 0.031314 0.396859 0.000202
v 0.041915 0.357957 0.000000
v 0.000000 0.356896 0.048219
v 0.000000 0.396067 0.036226
v -0.031318 0.396859 0.000202
v -0.041919 0.357956 0.000000
v 0.041915 0.357957 0.000000
v 0.031314 0.396859 0.000202
v 0.000000 0.396067 0.036226
v 0.000000 0.356896 0.048219
v -0.053051 0.345990 0.112306
v -0.123547 0.350433 -0.016385
v -0.023540 0.351188 -0.122669
v 0.090908 0.345280 0.086448
v 0.109648 0.347824 -0.059315
v -0.123547 0.350433 -0.016385
v -0.053051 0.345990 0.112306
v -0.156162 0.317929 0.129465
v -0.193614 0.309384 0.060762
v -0.193614 0.309384 0.060762
v -0.156162 0.317929 0.129465
v -0.243729 0.246936 0.151460
v -0.262318 0.251034 0.117086
v -0.262318 0.251034 0.117086
v -0.243729 0.246936 0.151460
v -0.292318 0.177213 0.157658
v -0.297355 0.179859 0.148439
v -0.053051 0.345990 0.112306
v 0.090908 0.345280 0.086448
v 0.075861 0.308219 0.193481
v -0.001394 0.315681 0.206519
v -0.001394 0.315681 0.206519
v 0.075861 0.308219 0.193481
v 0.068511 0.238652 0.284558
v 0.030204 0.242579 0.290966
v 0.030204 0.242579 0.290966
v 0.068511 0.238652 0.284558
v 0.058829 0.168904 0.333117
v 0.048464 0.169567 0.334874
v 0.090908 0.345280 0.086448
v 0.109648 0.347824 -0.059315
v 0.208826 0.315604 -0.008753
v 0.197958 0.308730 0.068731
v 0.197958 0.308730 0.068731
v 0.208826 0.315604 -0.008753
v 0.294394 0.241816 0.026982
v 0.288928 0.235844 0.065367
v 0.288928 0.235844 0.065367
v 0.294394 0.241816 0.026982
v 0.338684 0.165784 0.051216
v 0.337164 0.165070 0.061604
v 0.109648 0.347824 -0.059315
v -0.023540 0.351188 -0.122669
v 0.049256 0.310962 -0.201071
v 0.120337 0.316425 -0.168330
v 0.120337 0.316425 -0.168330
v 0.049256 0.310962 -0.201071
v 0.107525 0.246550 -0.272285
v 0.142816 0.249400 -0.256206
v 0.142816 0.249400 -0.256206
v 0.107525 0.246550 -0.272285
v 0.144386 0.181007 -0.307340
v 0.153994 0.177224 -0.303025
v -0.023540 0.351188 -0.122669
v -0.123547 0.350433 -0.016385
v -0.175618 0.310500 -0.110745
v -0.121838 0.313520 -0.167524
v -0.121838 0.313520 -0.167524
v -0.175618 0.310500 -0.110745
v -0.223247 0.236265 -0.188576
v -0.196540 0.235271 -0.216865
v -0.196540 0.235271 -0.216865
v -0.223247 0.236265 -0.188576
v -0.243785 0.174040 -0.234142
v -0.236580 0.175000 -0.241771
v -0.023055 0.365143 -0.120202
v -0.121053 0.364403 -0.016052
v -0.051973 0.360049 0.110054
v 0.089095 0.359353 0.084715
v 0.107459 0.361847 -0.058120
v -0.121053 0.364403 -0.016052
v -0.189713 0.324178 0.059545
v -0.153013 0.332551 0.126869
v -0.051973 0.360049 0.110054
v -0.189713 0.324178 0.059545
v -0.257037 0.267001 0.114738
v -0.238821 0.262984 0.148421
v -0.153013 0.332551 0.126869
v -0.257037 0.267001 0.114738
v -0.291370 0.197255 0.145461
v -0.286435 0.194661 0.154495
v -0.238821 0.262984 0.148421
v -0.051973 0.360049 0.110054
v -0.001354 0.330349 0.202375
v 0.074350 0.323037 0.189599
v 0.089095 0.359353 0.084715
v -0.001354 0.330349 0.202375
v 0.029610 0.258715 0.285126
v 0.067148 0.254866 0.278847
v 0.074350 0.323037 0.189599
v 0.029610 0.258715 0.285126
v 0.047504 0.187169 0.328152
v 0.057660 0.186520 0.326431
v 0.067148 0.254866 0.278847
v 0.089095 0.359353 0.084715
v 0.193995 0.323537 0.067354
v 0.204645 0.330274 -0.008574
v 0.107459 0.361847 -0.058120
v 0.193995 0.323537 0.067354
v 0.283138 0.252116 0.064058
v 0.288495 0.257967 0.026444
v 0.204645 0.330274 -0.008574
v 0.283138 0.252116 0.064058
v 0.330405 0.182763 0.060371
v 0.331894 0.183462 0.050191
v 0.288495 0.257967 0.026444
v 0.107459 0.361847 -0.058120
v 0.117933 0.331077 -0.164946
v 0.048279 0.325725 -0.197029
v -0.023055 0.365143 -0.120202
v 0.117933 0.331077 -0.164946
v 0.139961 0.265399 -0.251057
v 0.105378 0.262606 -0.266813
v 0.048279 0.325725 -0.197029
v 0.139961 0.265399 -0.251057
v 0.150914 0.194673 -0.296936
v 0.141499 0.198379 -0.301164
v 0.105378 0.262606 -0.266813
v -0.023055 0.365143 -0.120202
v -0.119379 0.328231 -0.164156
v -0.172079 0.325272 -0.108518
v -0.121053 0.364403 -0.016052
v -0.119379 0.328231 -0.164156
v -0.192580 0.251554 -0.212506
v -0.218751 0.252528 -0.184785
v -0.172079 0.325272 -0.108518
v -0.192580 0.251554 -0.212506
v -0.231816 0.192493 -0.236912
v -0.238876 0.191553 -0.229436
v -0.218751 0.252528 -0.184785
v 0.030204 0.242579 0.290966
v 0.029610 0.258715 0.285126
v -0.001354 0.330349 0.202375
v -0.001394 0.315681 0.206519
v -0.175618 0.310500 -0.110745
v -0.218751 0.252528 -0.184785
v -0.223247 0.236265 -0.188576
v -0.172079 0.325272 -0.108518
v -0.123547 0.350433 -0.016385
v -0.121053 0.364403 -0.016052
v 0.090908 0.345280 0.086448
v 0.089095 0.359353 0.084715
v 0.074350 0.323037 0.189599
v 0.075861 0.308219 0.193481
v 0.067148 0.254866 0.278847
v 0.068511 0.238652 0.284558
v -0.243785 0.174040 -0.234142
v -0.238876 0.191553 -0.229436
v -0.231816 0.192493 -0.236912
v -0.236580 0.175000 -0.241771
v 0.120337 0.316425 -0.168330
v 0.117933 0.331077 -0.164946
v 0.107459 0.361847 -0.058120
v 0.109648 0.347824 -0.059315
v 0.058829 0.168904 0.333117
v 0.057660 0.186520 0.326431
v 0.047504 0.187169 0.328152
v 0.048464 0.169567 0.334874
v -0.236580 0.175000 -0.241771
v -0.231816 0.192493 -0.236912
v -0.192580 0.251554 -0.212506
v -0.196540 0.235271 -0.216865
v 0.048464 0.169567 0.334874
v 0.047504 0.187169 0.328152
v 0.029610 0.258715 0.285126
v 0.030204 0.242579 0.290966
v -0.223247 0.236265 -0.188576
v -0.218751 0.252528 -0.184785
v -0.238876 0.191553 -0.229436
v -0.243785 0.174040 -0.234142
v -0.193614 0.309384 0.060762
v -0.189713 0.324178 0.059545
v -0.121053 0.364403 -0.016052
v -0.123547 0.350433 -0.016385
v 0.142816 0.249400 -0.256206
v 0.139961 0.265399 -0.251057
v 0.117933 0.331077 -0.164946
v 0.120337 0.316425 -0.168330
v 0.068511 0.238652 0.284558
v 0.067148 0.254866 0.278847
v 0.057660 0.186520 0.326431
v 0.058829 0.168904 0.333117
v -0.001394 0.315681 0.206519
v -0.001354 0.330349 0.202375
v -0.051973 0.360049 0.110054
v -0.053051 0.345990 0.112306
v -0.053051 0.345990 0.112306
v -0.051973 0.360049 0.110054
v -0.153013 0.332551 0.126869
v -0.156162 0.317929 0.129465
v -0.238821 0.262984 0.148421
v -0.243729 0.246936 0.151460
v 0.049256 0.310962 -0.201071
v 0.105378 0.262606 -0.266813
v 0.107525 0.246550 -0.272285
v 0.048279 0.325725 -0.197029
v -0.023540 0.351188 -0.122669
v -0.023055 0.365143 -0.120202
v 0.144386 0.181007 -0.307340
v 0.141499 0.198379 -0.301164
v 0.150914 0.194673 -0.296936
v 0.153994 0.177224 -0.303025
v 0.197958 0.308730 0.068731
v 0.193995 0.323537 0.067354
v 0.089095 0.359353 0.084715
v 0.090908 0.345280 0.086448
v -0.121838 0.313520 -0.167524
v -0.119379 0.328231 -0.164156
v -0.023055 0.365143 -0.120202
v -0.023540 0.351188 -0.122669
v -0.262318 0.251034 0.117086
v -0.257037 0.267001 0.114738
v -0.189713 0.324178 0.059545
v -0.193614 0.309384 0.060762
v 0.153994 0.177224 -0.303025
v 0.150914 0.194673 -0.296936
v 0.139961 0.265399 -0.251057
v 0.142816 0.249400 -0.256206
v 0.107525 0.246550 -0.272285
v 0.105378 0.262606 -0.266813
v 0.141499 0.198379 -0.301164
v 0.144386 0.181007 -0.307340
v 0.288928 0.235844 0.065367
v 0.283138 0.252116 0.064058
v 0.193995 0.323537 0.067354
v 0.197958 0.308730 0.068731
v -0.292318 0.177213 0.157658
v -0.286435 0.194661 0.154495
v -0.291370 0.197255 0.145461
v -0.297355 0.179859 0.148439
v 0.208826 0.315604 -0.008753
v 0.288495 0.257967 0.026444
v 0.294394 0.241816 0.026982
v 0.204645 0.330274 -0.008574
v 0.109648 0.347824 -0.059315
v 0.107459 0.361847 -0.058120
v -0.297355 0.179859 0.148439
v -0.291370 0.197255 0.145461
v -0.257037 0.267001 0.114738
v -0.262318 0.251034 0.117086
v 0.338684 0.165784 0.051216
v 0.331894 0.183462 0.050191
v 0.330405 0.182763 0.060371
v 0.337164 0.165070 0.061604
v -0.243729 0.246936 0.151460
v -0.238821 0.262984 0.148421
v -0.286435 0.194661 0.154495
v -0.292318 0.177213 0.157658
v 0.337164 0.165070 0.061604
v 0.330405 0.182763 0.060371
v 0.283138 0.252116 0.064058
v 0.288928 0.235844 0.065367
v 0.294394 0.241816 0.026982
v 0.288495 0.257967 0.026444
v 0.331894 0.183462 0.050191
v 0.338684 0.165784 0.051216
v -0.196540 0.235271 -0.216865
v -0.192580 0.251554 -0.212506
v -0.119379 0.328231 -0.164156
v -0.121838 0.313520 -0.167524
vn 0.962407 -0.212685 0.168933
vn 0.962407 -0.212685 0.168933
vn 0.962407 -0.212685 0.168933
vn 0.962407 -0.212685 0.168933
vn 0.828443 -0.235479 0.508165
vn 0.828443 -0.235479 0.508165
vn 0.828443 -0.235479 0.508165
vn 0.828443 -0.235479 0.508165
vn 0.779123 -0.601685 0.175904
vn 0.779123 -0.601685 0.175904
vn 0.779123 -0.601685 0.175904
vn 0.779123 -0.601685 0.175904
vn 0.666228 -0.583955 0.463829
vn 0.666228 -0.583955 0.463829
vn 0.666228 -0.583955 0.463829
vn 0.666228 -0.583955 0.463829
vn 0.924552 0.341539 0.168984
vn 0.924552 0.341539 0.168984
vn 0.924552 0.341539 0.168984
vn 0.924552 0.341539 0.168984
vn 0.794678 0.581579 0.173932
vn 0.794678 0.581579 0.173932
vn 0.794678 0.581579 0.173932
vn 0.794678 0.581579 0.173932
vn 0.781806 0.387725 0.488312
vn 0.781806 0.387725 0.488312
vn 0.781806 0.387725 0.488312
vn 0.781806 0.387725 0.488312
vn 0.641722 0.607487 0.468138
vn 0.641722 0.607487 0.468138
vn 0.641722 0.607487 0.468138
vn 0.641722 0.607487 0.468138
vn 0.937237 0.270306 -0.220275
vn 0.937237 0.270306 -0.220275
vn 0.937237 0.270306 -0.220275
vn 0.937237 0.270306 -0.220275
vn 0.823990 0.326695 -0.462938
vn 0.823990 0.326695 -0.462938
vn 0.823990 0.326695 -0.462938
vn 0.823990 0.326695 -0.462938
vn 0.787524 0.588751 -0.182150
vn 0.787524 0.588751 -0.182150
vn 0.787524 0.588751 -0.182150
vn 0.787524 0.588751 -0.182150
vn 0.645170 0.591840 -0.483199
vn 0.645170 0.591840 -0.483199
vn 0.645170 0.591840 -0.483199
vn 0.645170 0.591840 -0.483199
vn 0.963323 -0.198675 -0.180382
vn 0.963323 -0.198675 -0.180382
vn 0.963323 -0.198675 -0.180382
vn 0.963323 -0.198675 -0.180382
vn 0.779123 -0.601685 -0.175903
vn 0.779123 -0.601685 -0.175903
vn 0.779123 -0.601685 -0.175903
vn 0.779123 -0.601685 -0.175903
vn 0.835446 -0.224325 -0.501705
vn 0.835446 -0.224325 -0.501705
vn 0.835446 -0.224325 -0.501705
vn 0.835446 -0.224325 -0.501705
vn 0.666228 -0.583955 -0.463829
vn 0.666228 -0.583955 -0.463829
vn 0.666228 -0.583955 -0.463829
vn 0.666228 -0.583955 -0.463829
vn 0.156046 -0.228290 -0.961006
vn 0.156046 -0.228290 -0.961006
vn 0.156046 -0.228290 -0.961006
vn 0.156046 -0.228290 -0.961006
vn 0.517639 -0.252096 -0.817617
vn 0.517639 -0.252096 -0.817617
vn 0.517639 -0.252096 -0.817617
vn 0.517639 -0.252096 -0.817617
vn 0.175904 -0.601685 -0.779123
vn 0.175904 -0.601685 -0.779123
vn 0.175904 -0.601685 -0.779123
vn 0.175904 -0.601685 -0.779123
vn 0.463829 -0.583955 -0.666228
vn 0.463829 -0.583955 -0.666228
vn 0.463829 -0.583955 -0.666228
vn 0.463829 -0.583955 -0.666228
vn 0.189878 0.313034 -0.930568
vn 0.189878 0.313034 -0.930568
vn 0.189878 0.313034 -0.930568
vn 0.189878 0.313034 -0.930568
vn 0.189043 0.594714 -0.781395
vn 0.189043 0.594714 -0.781395
vn 0.189043 0.594714 -0.781395
vn 0.189043 0.594714 -0.781395
vn 0.472950 0.350177 -0.808514
vn 0.472950 0.350177 -0.808514
vn 0.472950 0.350177 -0.808514
vn 0.472950 0.350177 -0.808514
vn 0.483198 0.591843 -0.645168
vn 0.483198 0.591843 -0.645168
vn 0.483198 0.591843 -0.645168
vn 0.483198 0.591843 -0.645168
vn -0.190936 0.311560 -0.930846
vn -0.190936 0.311560 -0.930846
vn -0.190936 0.311560 -0.930846
vn -0.190936 0.311560 -0.930846
vn -0.496882 0.324320 -0.804938
vn -0.496882 0.324320 -0.804938
vn -0.496882 0.324320 -0.804938
vn -0.496882 0.324320 -0.804938
vn -0.189044 0.594712 -0.781396
vn -0.189044 0.594712 -0.781396
vn -0.189044 0.594712 -0.781396
vn -0.189044 0.594712 -0.781396
vn -0.483199 0.591838 -0.645171
vn -0.483199 0.591838 -0.645171
vn -0.483199 0.591838 -0.645171
vn -0.483199 0.591838 -0.645171
vn -0.150450 -0.235013 -0.960278
vn -0.150450 -0.235013 -0.960278
vn -0.150450 -0.235013 -0.960278
vn -0.150450 -0.235013 -0.960278
vn -0.175904 -0.601685 -0.779123
vn -0.175904 -0.601685 -0.779123
vn -0.175904 -0.601685 -0.779123
vn -0.175904 -0.601685 -0.779123
vn -0.521163 -0.268344 -0.810173
vn -0.521163 -0.268344 -0.810173
vn -0.521163 -0.268344 -0.810173
vn -0.521163 -0.268344 -0.810173
vn -0.463829 -0.583955 -0.666228
vn -0.463829 -0.583955 -0.666228
vn -0.463829 -0.583955 -0.666228
vn -0.463829 -0.583955 -0.666228
vn -0.962407 -0.212685 -0.168933
vn -0.962407 -0.212685 -0.168933
vn -0.962407 -0.212685 -0.168933
vn -0.962407 -0.212685 -0.168933
vn -0.830955 -0.248618 -0.497698
vn -0.830955 -0.248618 -0.497698
vn -0.830955 -0.248618 -0.497698
vn -0.830955 -0.248618 -0.497698
vn -0.779123 -0.601685 -0.175903
vn -0.779123 -0.601685 -0.175903
vn -0.779123 -0.601685 -0.175903
vn -0.779123 -0.601685 -0.175903
vn -0.666228 -0.583955 -0.463829
vn -0.666228 -0.583955 -0.463829
vn -0.666228 -0.583955 -0.463829
vn -0.666228 -0.583955 -0.463829
vn -0.924438 0.342061 -0.168548
vn -0.924438 0.342061 -0.168548
vn -0.924438 0.342061 -0.168548
vn -0.924438 0.342061 -0.168548
vn -0.781407 0.594698 -0.189044
vn -0.781407 0.594698 -0.189044
vn -0.781407 0.594698 -0.189044
vn -0.781407 0.594698 -0.189044
vn -0.781594 0.366960 -0.504432
vn -0.781594 0.366960 -0.504432
vn -0.781594 0.366960 -0.504432
vn -0.781594 0.366960 -0.504432
vn -0.645175 0.591834 -0.483200
vn -0.645175 0.591834 -0.483200
vn -0.645175 0.591834 -0.483200
vn -0.645175 0.591834 -0.483200
vn -0.924437 0.342064 0.168548
vn -0.924437 0.342064 0.168548
vn -0.924437 0.342064 0.168548
vn -0.924437 0.342064 0.168548
vn -0.781740 0.387785 0.488370
vn -0.781740 0.387785 0.488370
vn -0.781740 0.387785 0.488370
vn -0.781740 0.387785 0.488370
vn -0.781413 0.594690 0.189044
vn -0.781413 0.594690 0.189044
vn -0.781413 0.594690 0.189044
vn -0.781413 0.594690 0.189044
vn -0.645194 0.591810 0.483204
vn -0.645194 0.591810 0.483204
vn -0.645194 0.591810 0.483204
vn -0.645194 0.591810 0.483204
vn -0.962407 -0.212685 0.168933
vn -0.962407 -0.212685 0.168933
vn -0.962407 -0.212685 0.168933
vn -0.962407 -0.212685 0.168933
vn -0.779123 -0.601685 0.175904
vn -0.779123 -0.601685 0.175904
vn -0.779123 -0.601685 0.175904
vn -0.779123 -0.601685 0.175904
vn -0.828443 -0.235479 0.508165
vn -0.828443 -0.235479 0.508165
vn -0.828443 -0.235479 0.508165
vn -0.828443 -0.235479 0.508165
vn -0.666228 -0.583955 0.463829
vn -0.666228 -0.583955 0.463829
vn -0.666228 -0.583955 0.463829
vn -0.666228 -0.583955 0.463829
vn -0.168933 -0.212684 0.962407
vn -0.168933 -0.212684 0.962407
vn -0.168933 -0.212684 0.962407
vn -0.168933 -0.212684 0.962407
vn -0.508165 -0.235479 0.828443
vn -0.508165 -0.235479 0.828443
vn -0.508165 -0.235479 0.828443
vn -0.508165 -0.235479 0.828443
vn -0.175903 -0.601685 0.779123
vn -0.175903 -0.601685 0.779123
vn -0.175903 -0.601685 0.779123
vn -0.175903 -0.601685 0.779123
vn -0.463829 -0.583955 0.666228
vn -0.463829 -0.583955 0.666228
vn -0.463829 -0.583955 0.666228
vn -0.463829 -0.583955 0.666228
vn -0.168547 0.342097 0.924425
vn -0.168547 0.342097 0.924425
vn -0.168547 0.342097 0.924425
vn -0.168547 0.342097 0.924425
vn -0.189044 0.594681 0.781420
vn -0.189044 0.594681 0.781420
vn -0.189044 0.594681 0.781420
vn -0.189044 0.594681 0.781420
vn -0.488367 0.387799 0.781735
vn -0.488367 0.387799 0.781735
vn -0.488367 0.387799 0.781735
vn -0.488367 0.387799 0.781735
vn -0.483205 0.591807 0.645196
vn -0.483205 0.591807 0.645196
vn -0.483205 0.591807 0.645196
vn -0.483205 0.591807 0.645196
vn 0.168547 0.342109 0.924421
vn 0.168547 0.342109 0.924421
vn 0.168547 0.342109 0.924421
vn 0.168547 0.342109 0.924421
vn 0.486450 0.383063 0.785258
vn 0.486450 0.383063 0.785258
vn 0.486450 0.383063 0.785258
vn 0.486450 0.383063 0.785258
vn 0.189044 0.594682 0.781419
vn 0.189044 0.594682 0.781419
vn 0.189044 0.594682 0.781419
vn 0.189044 0.594682 0.781419
vn 0.465418 0.610256 0.641073
vn 0.465418 0.610256 0.641073
vn 0.465418 0.610256 0.641073
vn 0.465418 0.610256 0.641073
vn 0.168933 -0.212684 0.962407
vn 0.168933 -0.212684 0.962407
vn 0.168933 -0.212684 0.962407
vn 0.168933 -0.212684 0.962407
vn 0.175903 -0.601685 0.779123
vn 0.175903 -0.601685 0.779123
vn 0.175903 -0.601685 0.779123
vn 0.175903 -0.601685 0.779123
vn 0.508165 -0.235479 0.828443
vn 0.508165 -0.235479 0.828443
vn 0.508165 -0.235479 0.828443
vn 0.508165 -0.235479 0.828443
vn 0.463829 -0.583955 0.666228
vn 0.463829 -0.583955 0.666228
vn 0.463829 -0.583955 0.666228
vn 0.463829 -0.583955 0.666228
vn 0.136789 -0.981110 -0.136789
vn 0.136789 -0.981110 -0.136789
vn 0.136789 -0.981110 -0.136789
vn 0.136789 -0.981110 -0.136789
vn 0.159157 -0.887519 -0.432412
vn 0.159157 -0.887519 -0.432412
vn 0.159157 -0.887519 -0.432412
vn 0.159157 -0.887519 -0.432412
vn 0.432412 -0.887519 -0.159156
vn 0.432412 -0.887519 -0.159156
vn 0.432412 -0.887519 -0.159156
vn 0.432412 -0.887519 -0.159156
vn 0.435599 -0.787723 -0.435599
vn 0.435599 -0.787723 -0.435599
vn 0.435599 -0.787723 -0.435599
vn 0.435599 -0.787723 -0.435599
vn -0.136789 -0.981110 -0.136789
vn -0.136789 -0.981110 -0.136789
vn -0.136789 -0.981110 -0.136789
vn -0.136789 -0.981110 -0.136789
vn -0.432412 -0.887519 -0.159156
vn -0.432412 -0.887519 -0.159156
vn -0.432412 -0.887519 -0.159156
vn -0.432412 -0.887519 -0.159156
vn -0.159157 -0.887519 -0.432412
vn -0.159157 -0.887519 -0.432412
vn -0.159157 -0.887519 -0.432412
vn -0.159157 -0.887519 -0.432412
vn -0.435599 -0.787723 -0.435599
vn -0.435599 -0.787723 -0.435599
vn -0.435599 -0.787723 -0.435599
vn -0.435599 -0.787723 -0.435599
vn -0.136789 -0.981110 0.136790
vn -0.136789 -0.981110 0.136790
vn -0.136789 -0.981110 0.136790
vn -0.136789 -0.981110 0.136790
vn -0.159157 -0.887518 0.432412
vn -0.159157 -0.887518 0.432412
vn -0.159157 -0.887518 0.432412
vn -0.159157 -0.887518 0.432412
vn -0.432412 -0.887518 0.159157
vn -0.432412 -0.887518 0.159157
vn -0.432412 -0.887518 0.159157
vn -0.432412 -0.887518 0.159157
vn -0.435599 -0.787723 0.435599
vn -0.435599 -0.787723 0.435599
vn -0.435599 -0.787723 0.435599
vn -0.435599 -0.787723 0.435599
vn 0.136789 -0.981110 0.136790
vn 0.136789 -0.981110 0.136790
vn 0.136789 -0.981110 0.136790
vn 0.136789 -0.981110 0.136790
vn 0.432412 -0.887519 0.159157
vn 0.432412 -0.887519 0.159157
vn 0.432412 -0.887519 0.159157
vn 0.432412 -0.887519 0.159157
vn 0.159157 -0.887519 0.432412
vn 0.159157 -0.887519 0.432412
vn 0.159157 -0.887519 0.432412
vn 0.159157 -0.887519 0.432412
vn 0.435599 -0.787723 0.435599
vn 0.435599 -0.787723 0.435599
vn 0.435599 -0.787723 0.435599
vn 0.435599 -0.787723 0.435599
vn -0.188983 0.837053 -0.513446
vn -0.188983 0.837053 -0.513446
vn -0.188983 0.837053 -0.513446
vn -0.188983 0.837053 -0.513446
vn -0.513446 0.837054 -0.188983
vn -0.513446 0.837054 -0.188983
vn -0.513446 0.837054 -0.188983
vn -0.513446 0.837054 -0.188983
vn -0.496099 0.712580 -0.496100
vn -0.496099 0.712580 -0.496100
vn -0.496099 0.712580 -0.496100
vn -0.496099 0.712580 -0.496100
vn 0.513446 0.837054 -0.188983
vn 0.513446 0.837054 -0.188983
vn 0.513446 0.837054 -0.188983
vn 0.513446 0.837054 -0.188983
vn 0.188983 0.837054 -0.513446
vn 0.188983 0.837054 -0.513446
vn 0.188983 0.837054 -0.513446
vn 0.188983 0.837054 -0.513446
vn 0.496099 0.712580 -0.496100
vn 0.496099 0.712580 -0.496100
vn 0.496099 0.712580 -0.496100
vn 0.496099 0.712580 -0.496100
vn 0.175861 0.846005 0.503338
vn 0.175861 0.846005 0.503338
vn 0.175861 0.846005 0.503338
vn 0.175861 0.846005 0.503338
vn 0.513446 0.837054 0.188982
vn 0.513446 0.837054 0.188982
vn 0.513446 0.837054 0.188982
vn 0.513446 0.837054 0.188982
vn 0.496099 0.712580 0.496100
vn 0.496099 0.712580 0.496100
vn 0.496099 0.712580 0.496100
vn 0.496099 0.712580 0.496100
vn -0.513446 0.837054 0.188982
vn -0.513446 0.837054 0.188982
vn -0.513446 0.837054 0.188982
vn -0.513446 0.837054 0.188982
vn -0.175861 0.846005 0.503338
vn -0.175861 0.846005 0.503338
vn -0.175861 0.846005 0.503338
vn -0.175861 0.846005 0.503338
vn -0.496099 0.712580 0.496100
vn -0.496099 0.712580 0.496100
vn -0.496099 0.712580 0.496100
vn -0.496099 0.712580 0.496100
vn 0.153508 0.976116 -0.153728
vn 0.153508 0.976116 -0.153728
vn 0.153508 0.976116 -0.153728
vn 0.153508 0.976116 -0.153728
vn 0.153508 0.976116 -0.153728
vn 0.143475 0.975262 0.168163
vn 0.143475 0.975262 0.168163
vn 0.143475 0.975262 0.168163
vn 0.143475 0.975262 0.168163
vn 0.143475 0.975262 0.168163
vn -0.143475 0.975262 0.168162
vn -0.143475 0.975262 0.168162
vn -0.143475 0.975262 0.168162
vn -0.143475 0.975262 0.168162
vn -0.143475 0.975262 0.168162
vn -0.153508 0.976116 -0.153727
vn -0.153508 0.976116 -0.153727
vn -0.153508 0.976116 -0.153727
vn -0.153508 0.976116 -0.153727
vn -0.153508 0.976116 -0.153727
vn -0.163742 0.972819 -0.163742
vn -0.163742 0.972819 -0.163742
vn -0.163742 0.972819 -0.163742
vn 0.163744 0.972819 -0.163742
vn 0.163744 0.972819 -0.163742
vn 0.163744 0.972819 -0.163742
vn 0.163743 0.972819 0.163742
vn 0.163743 0.972819 0.163742
vn 0.163743 0.972819 0.163742
vn -0.163741 0.972819 0.163742
vn -0.163741 0.972819 0.163742
vn -0.163741 0.972819 0.163742
vn -0.710728 0.197170 -0.675270
vn -0.710728 0.197170 -0.675270
vn -0.710728 0.197170 -0.675270
vn -0.710728 0.197170 -0.675270
vn 0.710762 0.197168 -0.675235
vn 0.710762 0.197168 -0.675235
vn 0.710762 0.197168 -0.675235
vn 0.710762 0.197168 -0.675235
vn -0.737643 0.197661 0.645611
vn -0.737643 0.197661 0.645611
vn -0.737643 0.197661 0.645611
vn -0.737643 0.197661 0.645611
vn 0.737675 0.197658 0.645574
vn 0.737675 0.197658 0.645574
vn 0.737675 0.197658 0.645574
vn 0.737675 0.197658 0.645574
vn -0.013577 -0.999654 -0.022534
vn -0.013577 -0.999654 -0.022534
vn -0.013577 -0.999654 -0.022534
vn -0.013577 -0.999654 -0.022534
vn -0.013577 -0.999654 -0.022534
vn 0.298382 -0.943588 -0.143562
vn 0.298382 -0.943588 -0.143562
vn 0.298382 -0.943588 -0.143562
vn 0.298382 -0.943588 -0.143562
vn 0.536496 -0.803816 -0.257007
vn 0.536496 -0.803816 -0.257007
vn 0.536496 -0.803816 -0.257007
vn 0.536496 -0.803816 -0.257007
vn 0.701963 -0.540298 -0.464033
vn 0.701963 -0.540298 -0.464033
vn 0.701963 -0.540298 -0.464033
vn 0.701963 -0.540298 -0.464033
vn -0.088129 -0.949302 -0.301760
vn -0.088129 -0.949302 -0.301760
vn -0.088129 -0.949302 -0.301760
vn -0.088129 -0.949302 -0.301760
vn -0.178342 -0.775468 -0.605676
vn -0.178342 -0.775468 -0.605676
vn -0.178342 -0.775468 -0.605676
vn -0.178342 -0.775468 -0.605676
vn -0.188501 -0.541843 -0.819069
vn -0.188501 -0.541843 -0.819069
vn -0.188501 -0.541843 -0.819069
vn -0.188501 -0.541843 -0.819069
vn -0.303781 -0.949348 -0.080344
vn -0.303781 -0.949348 -0.080344
vn -0.303781 -0.949348 -0.080344
vn -0.303781 -0.949348 -0.080344
vn -0.610721 -0.772987 -0.171790
vn -0.610721 -0.772987 -0.171790
vn -0.610721 -0.772987 -0.171790
vn -0.610721 -0.772987 -0.171790
vn -0.818071 -0.542296 -0.191506
vn -0.818071 -0.542296 -0.191506
vn -0.818071 -0.542296 -0.191506
vn -0.818071 -0.542296 -0.191506
vn -0.132315 -0.944121 0.301875
vn -0.132315 -0.944121 0.301875
vn -0.132315 -0.944121 0.301875
vn -0.132315 -0.944121 0.301875
vn -0.195946 -0.802502 0.563557
vn -0.195946 -0.802502 0.563557
vn -0.195946 -0.802502 0.563557
vn -0.195946 -0.802502 0.563557
vn -0.350679 -0.565919 0.746164
vn -0.350679 -0.565919 0.746164
vn -0.350679 -0.565919 0.746164
vn -0.350679 -0.565919 0.746164
vn 0.268332 -0.935117 0.231419
vn 0.268332 -0.935117 0.231419
vn 0.268332 -0.935117 0.231419
vn 0.268332 -0.935117 0.231419
vn 0.484442 -0.755910 0.440360
vn 0.484442 -0.755910 0.440360
vn 0.484442 -0.755910 0.440360
vn 0.484442 -0.755910 0.440360
vn 0.580137 -0.602332 0.548303
vn 0.580137 -0.602332 0.548303
vn 0.580137 -0.602332 0.548303
vn 0.580137 -0.602332 0.548303
vn 0.013577 0.999654 0.022534
vn 0.013577 0.999654 0.022534
vn 0.013577 0.999654 0.022534
vn 0.013577 0.999654 0.022534
vn 0.013577 0.999654 0.022534
vn -0.298382 0.943588 0.143562
vn -0.298382 0.943588 0.143562
vn -0.298382 0.943588 0.143562
vn -0.298382 0.943588 0.143562
vn -0.536496 0.803816 0.257007
vn -0.536496 0.803816 0.257007
vn -0.536496 0.803816 0.257007
vn -0.536496 0.803816 0.257007
vn -0.701963 0.540298 0.464032
vn -0.701963 0.540298 0.464032
vn -0.701963 0.540298 0.464032
vn -0.701963 0.540298 0.464032
vn 0.088129 0.949302 0.301760
vn 0.088129 0.949302 0.301760
vn 0.088129 0.949302 0.301760
vn 0.088129 0.949302 0.301760
vn 0.178342 0.775468 0.605676
vn 0.178342 0.775468 0.605676
vn 0.178342 0.775468 0.605676
vn 0.178342 0.775468 0.605676
vn 0.188500 0.541843 0.819069
vn 0.188500 0.541843 0.819069
vn 0.188500 0.541843 0.819069
vn 0.188500 0.541843 0.819069
vn 0.303781 0.949348 0.080343
vn 0.303781 0.949348 0.080343
vn 0.303781 0.949348 0.080343
vn 0.303781 0.949348 0.080343
vn 0.610721 0.772986 0.171790
vn 0.610721 0.772986 0.171790
vn 0.610721 0.772986 0.171790
vn 0.610721 0.772986 0.171790
vn 0.818071 0.542297 0.191507
vn 0.818071 0.542297 0.191507
vn 0.818071 0.542297 0.191507
vn 0.818071 0.542297 0.191507
vn 0.132315 0.944121 -0.301875
vn 0.132315 0.944121 -0.301875
vn 0.132315 0.944121 -0.301875
vn 0.132315 0.944121 -0.301875
vn 0.195947 0.802501 -0.563557
vn 0.195947 0.802501 -0.563557
vn 0.195947 0.802501 -0.563557
vn 0.195947 0.802501 -0.563557
vn 0.350678 0.565919 -0.746164
vn 0.350678 0.565919 -0.746164
vn 0.350678 0.565919 -0.746164
vn 0.350678 0.565919 -0.746164
vn -0.268332 0.935117 -0.231419
vn -0.268332 0.935117 -0.231419
vn -0.268332 0.935117 -0.231419
vn -0.268332 0.935117 -0.231419
vn -0.484442 0.755910 -0.440360
vn -0.484442 0.755910 -0.440360
vn -0.484442 0.755910 -0.440360
vn -0.484442 0.755910 -0.440360
vn -0.580139 0.602333 -0.548301
vn -0.580139 0.602333 -0.548301
vn -0.580139 0.602333 -0.548301
vn -0.580139 0.602333 -0.548301
vn -0.887665 0.127479 0.442493
vn -0.887665 0.127479 0.442493
vn -0.887665 0.127479 0.442493
vn -0.887665 0.127479 0.442493
vn -0.901613 0.155165 0.403754
vn -0.901613 0.155165 0.403754
vn -0.901613 0.155165 0.403754
vn -0.901613 0.155165 0.403754
vn -0.891082 0.148874 0.428731
vn -0.891082 0.148874 0.428731
vn 0.970955 0.148217 0.187823
vn 0.970955 0.148217 0.187823
vn 0.970955 0.148217 0.187823
vn 0.970955 0.148217 0.187823
vn 0.969916 0.149283 0.192296
vn 0.969916 0.149283 0.192296
vn -0.700123 0.361678 -0.615644
vn -0.700123 0.361678 -0.615644
vn -0.700123 0.361678 -0.615644
vn -0.700123 0.361678 -0.615644
vn 0.987289 0.149582 0.053715
vn 0.987289 0.149582 0.053715
vn 0.987289 0.149582 0.053715
vn 0.987289 0.149582 0.053715
vn 0.178258 0.359512 0.915956
vn 0.178258 0.359512 0.915956
vn 0.178258 0.359512 0.915956
vn 0.178258 0.359512 0.915956
vn 0.321799 0.171029 -0.931233
vn 0.321799 0.171029 -0.931233
vn 0.321799 0.171029 -0.931233
vn 0.321799 0.171029 -0.931233
vn -0.730278 0.208570 0.650533
vn -0.730278 0.208570 0.650533
vn -0.730278 0.208570 0.650533
vn -0.730278 0.208570 0.650533
vn -0.964597 0.242563 0.103520
vn -0.964597 0.242563 0.103520
vn -0.964597 0.242563 0.103520
vn -0.964597 0.242563 0.103520
vn -0.770599 0.152301 -0.618855
vn -0.770599 0.152301 -0.618855
vn -0.770599 0.152301 -0.618855
vn -0.770599 0.152301 -0.618855
vn 0.979923 0.124884 0.155422
vn 0.979923 0.124884 0.155422
vn 0.979923 0.124884 0.155422
vn 0.979923 0.124884 0.155422
vn 0.811777 0.253547 0.526053
vn 0.811777 0.253547 0.526053
vn 0.811777 0.253547 0.526053
vn 0.811777 0.253547 0.526053
vn -0.846662 0.146853 0.511467
vn -0.846662 0.146853 0.511467
vn -0.846662 0.146853 0.511467
vn -0.846662 0.146853 0.511467
vn 0.123098 0.147753 0.981334
vn 0.123098 0.147753 0.981334
vn 0.123098 0.147753 0.981334
vn 0.123098 0.147753 0.981334
vn 0.127410 0.146752 0.980934
vn 0.127410 0.146752 0.980934
vn -0.696722 0.146182 -0.702288
vn -0.696722 0.146182 -0.702288
vn -0.696722 0.146182 -0.702288
vn -0.696722 0.146182 -0.702288
vn -0.685027 0.149869 -0.712936
vn -0.685027 0.149869 -0.712936
vn 0.496841 0.362831 -0.788355
vn 0.496841 0.362831 -0.788355
vn 0.496841 0.362831 -0.788355
vn 0.496841 0.362831 -0.788355
vn 0.209868 0.146064 0.966758
vn 0.209868 0.146064 0.966758
vn 0.209868 0.146064 0.966758
vn 0.209868 0.146064 0.966758
vn 0.362280 0.150030 -0.919915
vn 0.362280 0.150030 -0.919915
vn 0.362280 0.150030 -0.919915
vn 0.362280 0.150030 -0.919915
vn -0.689628 0.123156 -0.713615
vn -0.689628 0.123156 -0.713615
vn -0.689628 0.123156 -0.713615
vn -0.689628 0.123156 -0.713615
vn 0.977805 0.197254 -0.070631
vn 0.977805 0.197254 -0.070631
vn 0.977805 0.197254 -0.070631
vn 0.977805 0.197254 -0.070631
vn -0.399528 0.247406 -0.882705
vn -0.399528 0.247406 -0.882705
vn -0.399528 0.247406 -0.882705
vn -0.399528 0.247406 -0.882705
vn 0.139334 0.128592 0.981861
vn 0.139334 0.128592 0.981861
vn 0.139334 0.128592 0.981861
vn 0.139334 0.128592 0.981861
vn -0.773367 0.355874 0.524650
vn -0.773367 0.355874 0.524650
vn -0.773367 0.355874 0.524650
vn -0.773367 0.355874 0.524650
vn 0.488134 0.149643 -0.859845
vn 0.488134 0.149643 -0.859845
vn 0.488134 0.149643 -0.859845
vn 0.488134 0.149643 -0.859845
vn 0.487183 0.149380 -0.860430
vn 0.487183 0.149380 -0.860430
vn -0.855830 0.213812 -0.470998
vn -0.855830 0.213812 -0.470998
vn -0.855830 0.213812 -0.470998
vn -0.855830 0.213812 -0.470998
vn 0.918484 0.361979 0.159242
vn 0.918484 0.361979 0.159242
vn 0.918484 0.361979 0.159242
vn 0.918484 0.361979 0.159242
vn -0.240761 0.251124 0.937535
vn -0.240761 0.251124 0.937535
vn -0.240761 0.251124 0.937535
vn -0.240761 0.251124 0.937535
vn 0.371533 0.205075 0.905487
vn 0.371533 0.205075 0.905487
vn 0.371533 0.205075 0.905487
vn 0.371533 0.205075 0.905487
vn 0.768125 0.261094 -0.584648
vn 0.768125 0.261094 -0.584648
vn 0.768125 0.261094 -0.584648
vn 0.768125 0.261094 -0.584648
vn 0.450679 0.126938 -0.883615
vn 0.450679 0.126938 -0.883615
vn 0.450679 0.126938 -0.883615
vn 0.450679 0.126938 -0.883615
vt 0.000000 0.000000
vt 0.000000 0.000000
vt 0.000000 0.000000
vt 0.000000 0.000000
vt 0.000000 0.000000
vt 0.000000 0.000000
vt 0.000000 0.000000
vt 0.000000 0.000000
vt 0.000000 0.000000
vt 0.000000 0.000000
vt 0.000000 0.000000
vt 0.000000 0.000000
vt 0.000000 0.000000
vt 0.000000 0.000000
vt 0.000000 0.000000
vt 0.000000 0.000000
vt 0.000000 0.000000
vt 0.000000 0.000000
vt 0.000000 0.000000
vt 0.000000 0.000000
vt 0.000000 0.000000
vt 0.000000 0.000000
vt 0.000000 0.000000
vt 0.000000 0.000000
vt 0.000000 0.000000
vt 0.000000 0.000000
vt 0.000000 0.000000
vt 0.000000 0.000000
vt 0.000000 0.000000
vt 0.000000 0.000000
vt 0.000000 0.000000
vt 0.000000 0.000000
vt 0.000000 0.000000
vt 0.000000 0.000000
vt 0.000000 0.000000
vt 0.000000 0.000000
vt 0.000000 0.000000
vt 0.000000 0.000000
vt 0.000000 0.000000
vt 0.000000 0.000000
vt 0.000000 0.000000
vt 0.000000 0.000000
vt 0.000000 0.000000
vt 0.000000 0.000000
vt 0.000000 0.000000
vt 0.000000 0.000000
vt 0.000000 0.000000
vt 0.000000 0.000000
vt 0.000000 0.000000
vt 0.000000 0.000000
vt 0.000000 0.000000
vt 0.000000 0.000000
vt 0.000000 0.000000
vt 0.000000 0.000000
vt 0.000000 0.000000
vt 0.000000 0.000000
vt 0.000000 0.000000
vt 0.000000 0.000000
vt 0.000000 0.000000
vt 0.000000 0.000000
vt 0.000000 0.000000
vt 0.000000 0.000000
vt 0.000000 0.000000
vt 0.000000 0.000000
vt 0.000000 0.000000
vt 0.000000 0.000000
vt 0.000000 0.000000
vt 0.000000 0.000000
vt 0.000000 0.000000
vt 0.000000 0.000000
vt 0.000000 0.000000
vt 0.000000 0.000000
vt 0.000000 0.000000
vt 0.000000 0.000000
vt 0.000000 0.000000
vt 0.000000 0.000000
vt 0.000000 0.000000
vt 0.000000 0.000000
vt 0.000000 0.000000
vt 0.000000 0.000000
vt 0.000000 0.000000
vt 0.000000 0.000000
vt 0.000000 0.000000
vt 0.000000 0.000000
vt 0.000000 0.000000
vt 0.000000 0.000000
vt 0.000000 0.000000
vt 0.000000 0.000000
vt 0.000000 0.000000
vt 0.000000 0.000000
vt 0.000000 0.000000
vt 0.000000 0.000000
vt 0.000000 0.000000
vt 0.000000 0.000000
vt 0.000000 0.000000
vt 0.000000 0.000000
vt 0.000000 0.000000
vt 0.000000 0.000000
vt 0.000000 0.000000
vt 0.000000 0.000000
vt 0.000000 0.000000
vt 0.000000 0.000000
vt 0.000000 0.000000
vt 0.000000 0.000000
vt 0.000000 0.000000
vt 0.000000 0.000000
vt 0.000000 0.000000
vt 0.000000 0.000000
vt 0.000000 0.000000
vt 0.000000 0.000000
vt 0.000000 0.000000
vt 0.000000 0.000000
vt 0.000000 0.000000
vt 0.000000 0.000000
vt 0.000000 0.000000
vt 0.000000 0.000000
vt 0.000000 0.000000
vt 0.000000 0.000000
vt 0.000000 0.000000
vt 0.000000 0.000000
vt 0.000000 0.000000
vt 0.000000 0.000000
vt 0.000000 0.000000
vt 0.000000 0.000000
vt 0.000000 0.000000
vt 0.000000 0.000000
vt 0.000000 0.000000
vt 0.000000 0.000000
vt 0.000000 0.000000
vt 0.000000 0.000000
vt 0.000000 0.000000
vt 0.000000 0.000000
vt 0.000000 0.000000
vt 0.000000 0.000000
vt 0.000000 0.000000
vt 0.000000 0.000000
vt 0.000000 0.000000
vt 0.000000 0.000000
vt 0.000000 0.000000
vt 0.000000 0.000000
vt 0.000000 0.000000
vt 0.000000 0.000000
vt 0.000000 0.000000
vt 0.000000 0.000000
vt 0.000000 0.000000
vt 0.000000 0.000000
vt 0.000000 0.000000
vt 0.000000 0.000000
vt 0.000000 0.000000
vt 0.000000 0.000000
vt 0.000000 0.000000
vt 0.000000 0.000000
vt 0.000000 0.000000
vt 0.000000 0.000000
vt 0.000000 0.000000
vt 0.000000 0.000000
vt 0.000000 0.000000
vt 0.000000 0.000000
vt 0.000000 0.000000
vt 0.000000 0.000000
vt 0.000000 0.000000
vt 0.000000 0.000000
vt 0.000000 0.000000
vt 0.000000 0.000000
vt 0.000000 0.000000
vt 0.000000 0.000000
vt 0.000000 0.000000
vt 0.000000 0.000000
vt 0.000000 0.000000
vt 0.000000 0.000000
vt 0.000000 0.000000
vt 0.000000 0.000000
vt 0.000000 0.000000
vt 0.000000 0.000000
vt 0.000000 0.000000
vt 0.000000 0.000000
vt 0.000000 0.000000
vt 0.000000 0.000000
vt 0.000000 0.000000
vt 0.000000 0.000000
vt 0.000000 0.000000
vt 0.000000 0.000000
vt 0.000000 0.000000
vt 0.000000 0.000000
vt 0.000000 0.000000
vt 0.000000 0.000000
vt 0.000000 0.000000
vt 0.000000 0.000000
vt 0.000000 0.000000
vt 0.000000 0.000000
vt 0.000000 0.000000
vt 0.000000 0.000000
vt 0.000000 0.000000
vt 0.000000 0.000000
vt 0.000000 0.000000
vt 0.000000 0.000000
vt 0.000000 0.000000
vt 0.000000 0.000000
vt 0.000000 0.000000
vt 0.000000 0.000000
vt 0.000000 0.000000
vt 0.000000 0.000000
vt 0.000000 0.000000
vt 0.000000 0.000000
vt 0.000000 0.000000
vt 0.000000 0.000000
vt 0.000000 0.000000
vt 0.000000 0.000000
vt 0.000000 0.000000
vt 0.000000 0.000000
vt 0.000000 0.000000
vt 0.000000 0.000000
vt 0.000000 0.000000
vt 0.000000 0.000000
vt 0.000000 0.000000
vt 0.000000 0.000000
vt 0.000000 0.000000
vt 0.000000 0.000000
vt 0.000000 0.000000
vt 0.000000 0.000000
vt 0.000000 0.000000
vt 0.000000 0.000000
vt 0.000000 0.000000
vt 0.000000 0.000000
vt 0.000000 0.000000
vt 0.000000 0.000000
vt 0.000000 0.000000
vt 0.000000 0.000000
vt 0.000000 0.000000
vt 0.000000 0.000000
vt 0.000000 0.000000
vt 0.000000 0.000000
vt 0.000000 0.000000
vt 0.000000 0.000000
vt 0.000000 0.000000
vt 0.000000 0.000000
vt 0.000000 0.000000
vt 0.000000 0.000000
vt 0.000000 0.000000
vt 0.000000 0.000000
vt 0.000000 0.000000
vt 0.000000 0.000000
vt 0.000000 0.000000
vt 0.000000 0.000000
vt 0.000000 0.000000
vt 0.000000 0.000000
vt 0.000000 0.000000
vt 0.000000 0.000000
vt 0.000000 0.000000
vt 0.000000 0.000000
vt 0.000000 0.000000
vt 0.000000 0.000000
vt 0.000000 0.000000
vt 0.000000 0.000000
vt 0.000000 0.000000
vt 0.000000 0.000000
vt 0.000000 0.000000
vt 0.000000 0.000000
vt 0.000000 0.000000
vt 0.000000 0.000000
vt 0.000000 0.000000
vt 0.000000 0.000000
vt 0.000000 0.000000
vt 0.000000 0.000000
vt 0.000000 0.000000
vt 0.000000 0.000000
vt 0.000000 0.000000
vt 0.000000 0.000000
vt 0.000000 0.000000
vt 0.000000 0.000000
vt 0.000000 0.000000
vt 0.000000 0.000000
vt 0.000000 0.000000
vt 0.000000 0.000000
vt 0.000000 0.000000
vt 0.000000 0.000000
vt 0.000000 0.000000
vt 0.000000 0.000000
vt 0.000000 0.000000
vt 0.000000 0.000000
vt 0.000000 0.000000
vt 0.000000 0.000000
vt 0.000000 0.000000
vt 0.000000 0.000000
vt 0.000000 0.000000
vt 0.000000 0.000000
vt 0.000000 0.000000
vt 0.000000 0.000000
vt 0.000000 0.000000
vt 0.000000 0.000000
vt 0.000000 0.000000
vt 0.000000 0.000000
vt 0.000000 0.000000
vt 0.000000 0.000000
vt 0.000000 0.000000
vt 0.000000 0.000000
vt 0.000000 0.000000
vt 0.000000 0.000000
vt 0.000000 0.000000
vt 0.000000 0.000000
vt 0.000000 0.000000
vt 0.000000 0.000000
vt 0.000000 0.000000
vt 0.000000 0.000000
vt 0.000000 0.000000
vt 0.000000 0.000000
vt 0.000000 0.000000
vt 0.000000 0.000000
vt 0.000000 0.000000
vt 0.000000 0.000000
vt 0.000000 0.000000
vt 0.000000 0.000000
vt 0.000000 0.000000
vt 0.000000 0.000000
vt 0.000000 0.000000
vt 0.000000 0.000000
vt 0.000000 0.000000
vt 0.000000 0.000000
vt 0.000000 0.000000
vt 0.000000 0.000000
vt 0.000000 0.000000
vt 0.000000 0.000000
vt 0.000000 0.000000
vt 0.000000 0.000000
vt 0.000000 0.000000
vt 0.000000 0.000000
vt 0.000000 0.000000
vt 0.000000 0.000000
vt 0.000000 0.000000
vt 0.000000 0.000000
vt 0.000000 0.000000
vt 0.000000 0.000000
vt 0.000000 0.000000
vt 0.000000 0.000000
vt 0.000000 0.000000
vt 0.000000 0.000000
vt 0.000000 0.000000
vt 0.000000 0.000000
vt 0.000000 0.000000
vt 0.000000 0.000000
vt 0.000000 0.000000
vt 0.000000 0.000000
vt 0.000000 0.000000
vt 0.000000 0.000000
vt 0.000000 0.000000
vt 0.000000 0.000000
vt 0.000000 0.000000
vt 0.000000 0.000000
vt 0.000000 0.000000
vt 0.000000 0.000000
vt 0.000000 0.000000
vt 0.000000 0.000000
vt 0.000000 0.000000
vt 0.000000 0.000000
vt 0.000000 0.000000
vt 0.000000 0.000000
vt 0.000000 0.000000
vt 0.000000 0.000000
vt 0.000000 0.000000
vt 0.000000 0.000000
vt 0.000000 0.000000
vt 0.000000 0.000000
vt 0.000000 0.000000
vt 0.000000 0.000000
vt 0.000000 0.000000
vt 0.000000 0.000000
vt 0.000000 0.000000
vt 0.000000 0.000000
vt 0.000000 0.000000
vt 0.000000 0.000000
vt 0.000000 0.000000
vt 0.000000 0.000000
vt 0.000000 0.000000
vt 0.000000 0.000000
vt 0.000000 0.000000
vt 0.000000 0.000000
vt 0.000000 0.000000
vt 0.000000 0.000000
vt 0.000000 0.000000
vt 0.000000 0.000000
vt 0.000000 0.000000
vt 0.000000 0.000000
vt 0.000000 0.000000
vt 0.000000 0.000000
vt 0.000000 0.000000
vt 0.000000 0.000000
vt 0.000000 0.000000
vt 0.000000 0.000000
vt 0.000000 0.000000
vt 0.000000 0.000000
vt 0.000000 0.000000
vt 0.000000 0.000000
vt 0.000000 0.000000
vt 0.000000 0.000000
vt 0.000000 0.000000
vt 0.000000 0.000000
vt 0.000000 0.000000
vt 0.000000 0.000000
vt 0.000000 0.000000
vt 0.000000 0.000000
vt 0.000000 0.000000
vt 0.000000 0.000000
vt 0.000000 0.000000
vt 0.000000 0.000000
vt 0.000000 0.000000
vt 0.000000 0.000000
vt 0.000000 0.000000
vt 0.000000 0.000000
vt 0.000000 0.000000
vt 0.000000 0.000000
vt 0.000000 0.000000
vt 0.000000 0.000000
vt 0.000000 0.000000
vt 0.000000 0.000000
vt 0.000000 0.000000
vt 0.000000 0.000000
vt 0.000000 0.000000
vt 0.000000 0.000000
vt 0.000000 0.000000
vt 0.000000 0.000000
vt 0.000000 0.000000
vt 0.000000 0.000000
vt 0.000000 0.000000
vt 0.000000 0.000000
vt 0.000000 0.000000
vt 0.000000 0.000000
vt 0.000000 0.000000
vt 0.000000 0.000000
vt 0.000000 0.000000
vt 0.000000 0.000000
vt 0.000000 0.000000
vt 0.000000 0.000000
vt 0.000000 0.000000
vt 0.000000 0.000000
vt 0.000000 0.000000
vt 0.000000 0.000000
vt 0.000000 0.000000
vt 0.000000 0.000000
vt 0.000000 0.000000
vt 0.000000 0.000000
vt 0.000000 0.000000
vt 0.000000 0.000000
vt 0.000000 0.000000
vt 0.000000 0.000000
vt 0.000000 0.000000
vt 0.000000 0.000000
vt 0.000000 0.000000
vt 0.000000 0.000000
vt 0.000000 0.000000
vt 0.000000 0.000000
vt 0.000000 0.000000
vt 0.000000 0.000000
vt 0.000000 0.000000
vt 0.000000 0.000000
vt 0.000000 0.000000
vt 0.000000 0.000000
vt 0.000000 0.000000
vt 0.000000 0.000000
vt 0.000000 0.000000
vt 0.000000 0.000000
vt 0.000000 0.000000
vt 0.000000 0.000000
vt 0.000000 0.000000
vt 0.000000 0.000000
vt 0.000000 0.000000
vt 0.000000 0.000000
vt 0.000000 0.000000
vt 0.000000 0.000000
vt 0.000000 0.000000
vt 0.000000 0.000000
vt 0.000000 0.000000
vt 0.000000 0.000000
vt 0.000000 0.000000
vt 0.000000 0.000000
vt 0.000000 0.000000
vt 0.000000 0.000000
vt 0.000000 0.000000
vt 0.000000 0.000000
vt 0.000000 0.000000
vt 0.000000 0.000000
vt 0.000000 0.000000
vt 0.000000 0.000000
vt 0.000000 0.000000
vt 0.000000 0.000000
vt 0.000000 0.000000
vt 0.000000 0.000000
vt 0.000000 0.000000
vt 0.000000 0.000000
vt 0.000000 0.000000
vt 0.000000 0.000000
vt 0.000000 0.000000
vt 0.000000 0.000000
vt 0.000000 0.000000
vt 0.000000 0.000000
vt 0.000000 0.000000
vt 0.000000 0.000000
vt 0.000000 0.000000
vt 0.000000 0.000000
vt 0.000000 0.000000
vt 0.000000 0.000000
vt 0.000000 0.000000
vt 0.000000 0.000000
vt 0.000000 0.000000
vt 0.000000 0.000000
vt 0.000000 0.000000
vt 0.000000 0.000000
vt 0.000000 0.000000
vt 0.000000 0.000000
vt 0.000000 0.000000
vt 0.000000 0.000000
vt 0.000000 0.000000
vt 0.000000 0.000000
vt 0.000000 0.000000
vt 0.000000 0.000000
vt 0.000000 0.000000
vt 0.000000 0.000000
vt 0.000000 0.000000
vt 0.000000 0.000000
vt 0.000000 0.000000
vt 0.000000 0.000000
vt 0.000000 0.000000
vt 0.000000 0.000000
vt 0.000000 0.000000
vt 0.000000 0.000000
vt 0.000000 0.000000
vt 0.000000 0.000000
vt 0.000000 0.000000
vt 0.000000 0.000000
vt 0.000000 0.000000
vt 0.000000 0.000000
vt 0.000000 0.000000
vt 0.000000 0.000000
vt 0.000000 0.000000
vt 0.000000 0.000000
vt 0.000000 0.000000
vt 0.000000 0.000000
vt 0.000000 0.000000
vt 0.000000 0.000000
vt 0.000000 0.000000
vt 0.000000 0.000000
vt 0.000000 0.000000
vt 0.000000 0.000000
vt 0.000000 0.000000
vt 0.000000 0.000000
vt 0.000000 0.000000
vt 0.000000 0.000000
vt 0.000000 0.000000
vt 0.000000 0.000000
vt 0.000000 0.000000
vt 0.000000 0.000000
vt 0.000000 0.000000
vt 0.000000 0.000000
vt 0.000000 0.000000
vt 0.000000 0.000000
vt 0.000000 0.000000
vt 0.000000 0.000000
vt 0.000000 0.000000
vt 0.000000 0.000000
vt 0.000000 0.000000
vt 0.000000 0.000000
vt 0.000000 0.000000
vt 0.000000 0.000000
vt 0.000000 0.000000
vt 0.000000 0.000000
vt 0.000000 0.000000
vt 0.000000 0.000000
vt 0.000000 0.000000
vt 0.000000 0.000000
vt 0.000000 0.000000
vt 0.000000 0.000000
vt 0.000000 0.000000
vt 0.000000 0.000000
vt 0.000000 0.000000
vt 0.000000 0.000000
vt 0.000000 0.000000
vt 0.000000 0.000000
vt 0.000000 0.000000
vt 0.000000 0.000000
vt 0.000000 0.000000
vt 0.000000 0.000000
vt 0.000000 0.000000
vt 0.000000 0.000000
vt 0.000000 0.000000
vt 0.000000 0.000000
vt 0.000000 0.000000
vt 0.000000 0.000000
vt 0.000000 0.000000
vt 0.000000 0.000000
vt 0.000000 0.000000
vt 0.000000 0.000000
vt 0.000000 0.000000
vt 0.000000 0.000000
vt 0.000000 0.000000
vt 0.000000 0.000000
vt 0.000000 0.000000
vt 0.000000 0.000000
vt 0.000000 0.000000
vt 0.000000 0.000000
vt 0.000000 0.000000
vt 0.000000 0.000000
vt 0.000000 0.000000
vt 0.000000 0.000000
vt 0.000000 0.000000
vt 0.000000 0.000000
vt 0.000000 0.000000
vt 0.000000 0.000000
vt 0.000000 0.000000
vt 0.000000 0.000000
vt 0.000000 0.000000
vt 0.000000 0.000000
vt 0.000000 0.000000
vt 0.000000 0.000000
vt 0.000000 0.000000
vt 0.000000 0.000000
vt 0.000000 0.000000
vt 0.000000 0.000000
vt 0.000000 0.000000
vt 0.000000 0.000000
vt 0.000000 0.000000
vt 0.000000 0.000000
vt 0.000000 0.000000
vt 0.000000 0.000000
vt 0.000000 0.000000
vt 0.000000 0.000000
vt 0.000000 0.000000
vt 0.000000 0.000000
vt 0.000000 0.000000
vt 0.000000 0.000000
vt 0.000000 0.000000
vt 0.000000 0.000000
vt 0.000000 0.000000
vt 0.000000 0.000000
vt 0.000000 0.000000
vt 0.000000 0.000000
vt 0.000000 0.000000
vt 0.000000 0.000000
vt 0.000000 0.000000
vt 0.000000 0.000000
vt 0.000000 0.000000
vt 0.000000 0.000000
vt 0.000000 0.000000
vt 0.000000 0.000000
vt 0.000000 0.000000
vt 0.000000 0.000000
vt 0.000000 0.000000
vt 0.000000 0.000000
vt 0.000000 0.000000
vt 0.000000 0.000000
vt 0.000000 0.000000
vt 0.000000 0.000000
vt 0.000000 0.000000
vt 0.000000 0.000000
vt 0.000000 0.000000
vt 0.000000 0.000000
vt 0.000000 0.000000
vt 0.000000 0.000000
vt 0.000000 0.000000
vt 0.000000 0.000000
vt 0.000000 0.000000
vt 0.000000 0.000000
vt 0.000000 0.000000
vt 0.000000 0.000000
vt 0.000000 0.000000
vt 0.000000 0.000000
vt 0.000000 0.000000
vt 0.000000 0.000000
vt 0.000000 0.000000
vt 0.000000 0.000000
vt 0.000000 0.000000
vt 0.000000 0.000000
vt 0.000000 0.000000
vt 0.000000 0.000000
vt 0.000000 0.000000
vt 0.000000 0.000000
vt 0.000000 0.000000
vt 0.000000 0.000000
g Tomato_DarkRed
usemtl DarkRed
f 1/1/1 2/2/2 3/3/3
f 1/1/1 3/3/3 4/4/4
f 5/5/5 6/6/6 7/7/7
f 5/5/5 7/7/7 8/8/8
f 9/9/9 10/10/10 11/11/11
f 9/9/9 11/11/11 12/12/12
f 13/13/13 14/14/14 15/15/15
f 13/13/13 15/15/15 16/16/16
f 17/17/17 18/18/18 19/19/19
f 17/17/17 19/19/19 20/20/20
f 21/21/21 22/22/22 23/23/23
f 21/21/21 23/23/23 24/24/24
f 25/25/25 26/26/26 27/27/27
f 25/25/25 27/27/27 28/28/28
f 29/29/29 30/30/30 31/31/31
f 29/29/29 31/31/31 32/32/32
f 33/33/33 34/34/34 35/35/35
f 33/33/33 35/35/35 36/36/36
f 37/37/37 38/38/38 39/39/39
f 37/37/37 39/39/39 40/40/40
f 41/41/41 42/42/42 43/43/43
f 41/41/41 43/43/43 44/44/44
f 45/45/45 46/46/46 47/47/47
f 45/45/45 47/47/47 48/48/48
f 49/49/49 50/50/50 51/51/51
f 49/49/49 51/51/51 52/52/52
f 53/53/53 54/54/54 55/55/55
f 53/53/53 55/55/55 56/56/56
f 57/57/57 58/58/58 59/59/59
f 57/57/57 59/59/59 60/60/60
f 61/61/61 62/62/62 63/63/63
f 61/61/61 63/63/63 64/64/64
f 65/65/65 66/66/66 67/67/67
f 65/65/65 67/67/67 68/68/68
f 69/69/69 70/70/70 71/71/71
f 69/69/69 71/71/71 72/72/72
f 73/73/73 74/74/74 75/75/75
f 73/73/73 75/75/75 76/76/76
f 77/77/77 78/78/78 79/79/79
f 77/77/77 79/79/79 80/80/80
f 81/81/81 82/82/82 83/83/83
f 81/81/81 83/83/83 84/84/84
f 85/85/85 86/86/86 87/87/87
f 85/85/85 87/87/87 88/88/88
f 89/89/89 90/90/90 91/91/91
f 89/89/89 91/91/91 92/92/92
f 93/93/93 94/94/94 95/95/95
f 93/93/93 95/95/95 96/96/96
f 97/97/97 98/98/98 99/99/99
f 97/97/97 99/99/99 100/100/100
f 101/101/101 102/102/102 103/103/103
f 101/101/101 103/103/103 104/104/104
f 105/105/105 106/106/106 107/107/107
f 105/105/105 107/107/107 108/108/108
f 109/109/109 110/110/110 111/111/111
f 109/109/109 111/111/111 112/112/112
f 113/113/113 114/114/114 115/115/115
f 113/113/113 115/115/115 116/116/116
f 117/117/117 118/118/118 119/119/119
f 117/117/117 119/119/119 120/120/120
f 121/121/121 122/122/122 123/123/123
f 121/121/121 123/123/123 124/124/124
f 125/125/125 126/126/126 127/127/127
f 125/125/125 127/127/127 128/128/128
f 129/129/129 130/130/130 131/131/131
f 129/129/129 131/131/131 132/132/132
f 133/133/133 134/134/134 135/135/135
f 133/133/133 135/135/135 136/136/136
f 137/137/137 138/138/138 139/139/139
f 137/137/137 139/139/139 140/140/140
f 141/141/141 142/142/142 143/143/143
f 141/141/141 143/143/143 144/144/144
f 145/145/145 146/146/146 147/147/147
f 145/145/145 147/147/147 148/148/148
f 149/149/149 150/150/150 151/151/151
f 149/149/149 151/151/151 152/152/152
f 153/153/153 154/154/154 155/155/155
f 153/153/153 155/155/155 156/156/156
f 157/157/157 158/158/158 159/159/159
f 157/157/157 159/159/159 160/160/160
f 161/161/161 162/162/162 163/163/163
f 161/161/161 163/163/163 164/164/164
f 165/165/165 166/166/166 167/167/167
f 165/165/165 167/167/167 168/168/168
f 169/169/169 170/170/170 171/171/171
f 169/169/169 171/171/171 172/172/172
f 173/173/173 174/174/174 175/175/175
f 173/173/173 175/175/175 176/176/176
f 177/177/177 178/178/178 179/179/179
f 177/177/177 179/179/179 180/180/180
f 181/181/181 182/182/182 183/183/183
f 181/181/181 183/183/183 184/184/184
f 185/185/185 186/186/186 187/187/187
f 185/185/185 187/187/187 188/188/188
f 189/189/189 190/190/190 191/191/191
f 189/189/189 191/191/191 192/192/192
f 193/193/193 194/194/194 195/195/195
f 193/193/193 195/195/195 196/196/196
f 197/197/197 198/198/198 199/199/199
f 197/197/197 199/199/199 200/200/200
f 201/201/201 202/202/202 203/203/203
f 201/201/201 203/203/203 204/204/204
f 205/205/205 206/206/206 207/207/207
f 205/205/205 207/207/207 208/208/208
f 209/209/209 210/210/210 211/211/211
f 209/209/209 211/211/211 212/212/212
f 213/213/213 214/214/214 215/215/215
f 213/213/213 215/215/215 216/216/216
f 217/217/217 218/218/218 219/219/219
f 217/217/217 219/219/219 220/220/220
f 221/221/221 222/222/222 223/223/223
f 221/221/221 223/223/223 224/224/224
f 225/225/225 226/226/226 227/227/227
f 225/225/225 227/227/227 228/228/228
f 229/229/229 230/230/230 231/231/231
f 229/229/229 231/231/231 232/232/232
f 233/233/233 234/234/234 235/235/235
f 233/233/233 235/235/235 236/236/236
f 237/237/237 238/238/238 239/239/239
f 237/237/237 239/239/239 240/240/240
f 241/241/241 242/242/242 243/243/243
f 241/241/241 243/243/243 244/244/244
f 245/245/245 246/246/246 247/247/247
f 245/245/245 247/247/247 248/248/248
f 249/249/249 250/250/250 251/251/251
f 249/249/249 251/251/251 252/252/252
f 253/253/253 254/254/254 255/255/255
f 253/253/253 255/255/255 256/256/256
f 257/257/257 258/258/258 259/259/259
f 257/257/257 259/259/259 260/260/260
f 261/261/261 262/262/262 263/263/263
f 261/261/261 263/263/263 264/264/264
f 265/265/265 266/266/266 267/267/267
f 265/265/265 267/267/267 268/268/268
f 269/269/269 270/270/270 271/271/271
f 269/269/269 271/271/271 272/272/272
f 273/273/273 274/274/274 275/275/275
f 273/273/273 275/275/275 276/276/276
f 277/277/277 278/278/278 279/279/279
f 277/277/277 279/279/279 280/280/280
f 281/281/281 282/282/282 283/283/283
f 281/281/281 283/283/283 284/284/284
f 285/285/285 286/286/286 287/287/287
f 285/285/285 287/287/287 288/288/288
f 289/289/289 290/290/290 291/291/291
f 289/289/289 291/291/291 292/292/292
f 293/293/293 294/294/294 295/295/295
f 293/293/293 295/295/295 296/296/296
f 297/297/297 298/298/298 299/299/299
f 297/297/297 299/299/299 300/300/300
f 301/301/301 302/302/302 303/303/303
f 301/301/301 303/303/303 304/304/304
f 305/305/305 306/306/306 307/307/307
f 305/305/305 307/307/307 308/308/308
f 309/309/309 310/310/310 311/311/311
f 309/309/309 311/311/311 312/312/312
f 313/313/313 314/314/314 315/315/315
f 313/313/313 315/315/315 316/316/316
f 317/317/317 318/318/318 319/319/319
f 317/317/317 319/319/319 320/320/320
f 321/321/321 322/322/322 323/323/323
f 321/321/321 323/323/323 324/324/324
f 325/325/325 326/326/326 327/327/327
f 325/325/325 327/327/327 328/328/328
f 329/329/329 330/330/330 331/331/331
f 329/329/329 331/331/331 332/332/332
f 333/333/333 334/334/334 335/335/335
f 333/333/333 335/335/335 336/336/336
f 337/337/337 338/338/338 339/339/339
f 337/337/337 339/339/339 340/340/340
f 341/341/341 342/342/342 343/343/343
f 341/341/341 343/343/343 344/344/344
f 345/345/345 346/346/346 347/347/347
f 345/345/345 347/347/347 348/348/348
f 349/349/349 350/350/350 351/351/351
f 349/349/349 351/351/351 352/352/352
f 353/353/353 354/354/354 355/355/355
f 353/353/353 355/355/355 356/356/356
f 357/357/357 358/358/358 359/359/359
f 357/357/357 359/359/359 360/360/360
f 361/361/361 362/362/362 363/363/363
f 361/361/361 363/363/363 364/364/364
f 365/365/365 366/366/366 367/367/367
f 365/365/365 367/367/367 368/368/368
f 369/369/369 370/370/370 371/371/371
f 371/371/371 372/372/372 369/369/369
f 372/372/372 373/373/373 369/369/369
f 374/374/374 375/375/375 376/376/376
f 376/376/376 377/377/377 374/374/374
f 377/377/377 378/378/378 374/374/374
f 379/379/379 380/380/380 381/381/381
f 381/381/381 382/382/382 379/379/379
f 382/382/382 383/383/383 379/379/379
f 384/384/384 385/385/385 386/386/386
f 386/386/386 387/387/387 384/384/384
f 386/386/386 388/388/388 387/387/387
g Tomato_DarkGreen
usemtl DarkGreen
f 389/389/389 390/390/390 391/391/391
f 392/392/392 393/393/393 394/394/394
f 395/395/395 396/396/396 397/397/397
f 398/398/398 399/399/399 400/400/400
f 401/401/401 402/402/402 403/403/403
f 401/401/401 403/403/403 404/404/404
f 405/405/405 406/406/406 407/407/407
f 405/405/405 407/407/407 408/408/408
f 409/409/409 410/410/410 411/411/411
f 409/409/409 411/411/411 412/412/412
f 413/413/413 414/414/414 415/415/415
f 413/413/413 415/415/415 416/416/416
f 417/417/417 418/418/418 419/419/419
f 419/419/419 420/420/420 417/417/417
f 419/419/419 421/421/421 420/420/420
f 422/422/422 423/423/423 424/424/424
f 422/422/422 424/424/424 425/425/425
f 426/426/426 427/427/427 428/428/428
f 426/426/426 428/428/428 429/429/429
f 430/430/430 431/431/431 432/432/432
f 430/430/430 432/432/432 433/433/433
f 434/434/434 435/435/435 436/436/436
f 434/434/434 436/436/436 437/437/437
f 438/438/438 439/439/439 440/440/440
f 438/438/438 440/440/440 441/441/441
f 442/442/442 443/443/443 444/444/444
f 442/442/442 444/444/444 445/445/445
f 446/446/446 447/447/447 448/448/448
f 446/446/446 448/448/448 449/449/449
f 450/450/450 451/451/451 452/452/452
f 450/450/450 452/452/452 453/453/453
f 454/454/454 455/455/455 456/456/456
f 454/454/454 456/456/456 457/457/457
f 458/458/458 459/459/459 460/460/460
f 458/458/458 460/460/460 461/461/461
f 462/462/462 463/463/463 464/464/464
f 462/462/462 464/464/464 465/465/465
f 466/466/466 467/467/467 468/468/468
f 466/466/466 468/468/468 469/469/469
f 470/470/470 471/471/471 472/472/472
f 470/470/470 472/472/472 473/473/473
f 474/474/474 475/475/475 476/476/476
f 474/474/474 476/476/476 477/477/477
f 478/478/478 479/479/479 480/480/480
f 478/478/478 480/480/480 481/481/481
f 482/482/482 483/483/483 484/484/484
f 484/484/484 485/485/485 482/482/482
f 485/485/485 486/486/486 482/482/482
f 487/487/487 488/488/488 489/489/489
f 487/487/487 489/489/489 490/490/490
f 491/491/491 492/492/492 493/493/493
f 491/491/491 493/493/493 494/494/494
f 495/495/495 496/496/496 497/497/497
f 495/495/495 497/497/497 498/498/498
f 499/499/499 500/500/500 501/501/501
f 499/499/499 501/501/501 502/502/502
f 503/503/503 504/504/504 505/505/505
f 503/503/503 505/505/505 506/506/506
f 507/507/507 508/508/508 509/509/509
f 507/507/507 509/509/509 510/510/510
f 511/511/511 512/512/512 513/513/513
f 511/511/511 513/513/513 514/514/514
f 515/515/515 516/516/516 517/517/517
f 515/515/515 517/517/517 518/518/518
f 519/519/519 520/520/520 521/521/521
f 519/519/519 521/521/521 522/522/522
f 523/523/523 524/524/524 525/525/525
f 523/523/523 525/525/525 526/526/526
f 527/527/527 528/528/528 529/529/529
f 527/527/527 529/529/529 530/530/530
f 531/531/531 532/532/532 533/533/533
f 531/531/531 533/533/533 534/534/534
f 535/535/535 536/536/536 537/537/537
f 535/535/535 537/537/537 538/538/538
f 539/539/539 540/540/540 541/541/541
f 539/539/539 541/541/541 542/542/542
f 543/543/543 544/544/544 545/545/545
f 543/543/543 545/545/545 546/546/546
f 547/547/547 548/548/548 549/549/549
f 547/547/547 549/549/549 550/550/550
f 551/551/551 552/552/552 553/553/553
f 551/551/551 554/554/554 552/552/552
f 555/555/555 554/554/554 551/551/551
f 555/555/555 556/556/556 554/554/554
f 557/557/557 558/558/558 559/559/559
f 557/557/557 559/559/559 560/560/560
f 560/560/560 559/559/559 561/561/561
f 560/560/560 561/561/561 562/562/562
f 563/563/563 564/564/564 565/565/565
f 563/563/563 565/565/565 566/566/566
f 567/567/567 568/568/568 569/569/569
f 567/567/567 569/569/569 570/570/570
f 571/571/571 572/572/572 573/573/573
f 571/571/571 573/573/573 574/574/574
f 575/575/575 576/576/576 577/577/577
f 575/575/575 577/577/577 578/578/578
f 579/579/579 580/580/580 581/581/581
f 579/579/579 581/581/581 582/582/582
f 583/583/583 584/584/584 585/585/585
f 583/583/583 585/585/585 586/586/586
f 587/587/587 588/588/588 589/589/589
f 587/587/587 589/589/589 590/590/590
f 591/591/591 592/592/592 593/593/593
f 591/591/591 593/593/593 594/594/594
f 595/595/595 596/596/596 597/597/597
f 595/595/595 597/597/597 598/598/598
f 599/599/599 600/600/600 601/601/601
f 599/599/599 601/601/601 602/602/602
f 603/603/603 604/604/604 605/605/605
f 603/603/603 605/605/605 606/606/606
f 606/606/606 605/605/605 607/607/607
f 606/606/606 607/607/607 608/608/608
f 609/609/609 610/610/610 611/611/611
f 609/609/609 612/612/612 610/610/610
f 613/613/613 612/612/612 609/609/609
f 613/613/613 614/614/614 612/612/612
f 615/615/615 616/616/616 617/617/617
f 615/615/615 617/617/617 618/618/618
f 619/619/619 620/620/620 621/621/621
f 619/619/619 621/621/621 622/622/622
f 623/623/623 624/624/624 625/625/625
f 623/623/623 625/625/625 626/626/626
f 627/627/627 628/628/628 629/629/629
f 627/627/627 629/629/629 630/630/630
f 631/631/631 632/632/632 633/633/633
f 631/631/631 633/633/633 634/634/634
f 635/635/635 636/636/636 637/637/637
f 635/635/635 637/637/637 638/638/638
f 639/639/639 640/640/640 641/641/641
f 639/639/639 641/641/641 642/642/642
f 643/643/643 644/644/644 645/645/645
f 643/643/643 645/645/645 646/646/646
f 647/647/647 648/648/648 649/649/649
f 647/647/647 650/650/650 648/648/648
f 651/651/651 650/650/650 647/647/647
f 651/651/651 652/652/652 650/650/650
f 653/653/653 654/654/654 655/655/655
f 653/653/653 655/655/655 656/656/656
f 657/657/657 658/658/658 659/659/659
f 657/657/657 659/659/659 660/660/660
f 661/661/661 662/662/662 663/663/663
f 661/661/661 663/663/663 664/664/664
f 665/665/665 666/666/666 667/667/667
f 665/665/665 667/667/667 668/668/668
f 669/669/669 670/670/670 671/671/671
f 669/669/669 671/671/671 672/672/672
f 673/673/673 674/674/674 675/675/675
f 673/673/673 675/675/675 676/676/676
